<?xml version="1.0" encoding="utf-8" standalone="no"?>
<!DOCTYPE svg PUBLIC "-//W3C//DTD SVG 1.1//EN"
  "http://www.w3.org/Graphics/SVG/1.1/DTD/svg11.dtd">
<!-- Created with matplotlib (https://matplotlib.org/) -->
<svg height="332.370444pt" version="1.1" viewBox="0 0 1000.408125 332.370444" width="1000.408125pt" xmlns="http://www.w3.org/2000/svg" xmlns:xlink="http://www.w3.org/1999/xlink">
 <metadata>
  <rdf:RDF xmlns:cc="http://creativecommons.org/ns#" xmlns:dc="http://purl.org/dc/elements/1.1/" xmlns:rdf="http://www.w3.org/1999/02/22-rdf-syntax-ns#">
   <cc:Work>
    <dc:type rdf:resource="http://purl.org/dc/dcmitype/StillImage"/>
    <dc:date>2020-12-04T06:38:07.386803</dc:date>
    <dc:format>image/svg+xml</dc:format>
    <dc:creator>
     <cc:Agent>
      <dc:title>Matplotlib v3.3.1, https://matplotlib.org/</dc:title>
     </cc:Agent>
    </dc:creator>
   </cc:Work>
  </rdf:RDF>
 </metadata>
 <defs>
  <style type="text/css">*{stroke-linecap:butt;stroke-linejoin:round;}</style>
 </defs>
 <g id="figure_1">
  <g id="axes_1">
   <g id="patch_1">
    <path d="M 38.058125 275.50206 
L 993.208125 275.50206 
L 993.208125 31.55486 
L 38.058125 31.55486 
z
" style="fill:#ffffff;"/>
   </g>
   <g id="patch_2">
    <path clip-path="url(#pc3c8109397)" d="M 38.058125 78.672486 
L 956.851713 78.672486 
L 956.851713 -427.460706 
L 38.058125 -427.460706 
z
" style="fill:#c3e6c3;"/>
   </g>
   <g id="patch_3">
    <path clip-path="url(#pc3c8109397)" d="M 38.058125 134.909507 
L 956.851713 134.909507 
L 956.851713 78.672486 
L 38.058125 78.672486 
z
" style="fill:#e6dcc3;"/>
   </g>
   <g id="patch_4">
    <path clip-path="url(#pc3c8109397)" d="M 38.058125 275.50206 
L 956.851713 275.50206 
L 956.851713 134.909507 
L 38.058125 134.909507 
z
" style="fill:#e6c3c3;"/>
   </g>
   <g id="matplotlib.axis_1">
    <g id="xtick_1">
     <g id="text_1">
      <!-- 0 -->
      <g transform="translate(71.869537 288.58081)scale(0.08 -0.08)">
       <defs>
        <path d="M 31.78125 66.40625 
Q 24.171875 66.40625 20.328125 58.90625 
Q 16.5 51.421875 16.5 36.375 
Q 16.5 21.390625 20.328125 13.890625 
Q 24.171875 6.390625 31.78125 6.390625 
Q 39.453125 6.390625 43.28125 13.890625 
Q 47.125 21.390625 47.125 36.375 
Q 47.125 51.421875 43.28125 58.90625 
Q 39.453125 66.40625 31.78125 66.40625 
z
M 31.78125 74.21875 
Q 44.046875 74.21875 50.515625 64.515625 
Q 56.984375 54.828125 56.984375 36.375 
Q 56.984375 17.96875 50.515625 8.265625 
Q 44.046875 -1.421875 31.78125 -1.421875 
Q 19.53125 -1.421875 13.0625 8.265625 
Q 6.59375 17.96875 6.59375 36.375 
Q 6.59375 54.828125 13.0625 64.515625 
Q 19.53125 74.21875 31.78125 74.21875 
z
" id="DejaVuSans-48"/>
       </defs>
       <use xlink:href="#DejaVuSans-48"/>
      </g>
     </g>
    </g>
    <g id="xtick_2">
     <g id="text_2">
      <!-- 20 -->
      <g transform="translate(210.514485 288.58081)scale(0.08 -0.08)">
       <defs>
        <path d="M 19.1875 8.296875 
L 53.609375 8.296875 
L 53.609375 0 
L 7.328125 0 
L 7.328125 8.296875 
Q 12.9375 14.109375 22.625 23.890625 
Q 32.328125 33.6875 34.8125 36.53125 
Q 39.546875 41.84375 41.421875 45.53125 
Q 43.3125 49.21875 43.3125 52.78125 
Q 43.3125 58.59375 39.234375 62.25 
Q 35.15625 65.921875 28.609375 65.921875 
Q 23.96875 65.921875 18.8125 64.3125 
Q 13.671875 62.703125 7.8125 59.421875 
L 7.8125 69.390625 
Q 13.765625 71.78125 18.9375 73 
Q 24.125 74.21875 28.421875 74.21875 
Q 39.75 74.21875 46.484375 68.546875 
Q 53.21875 62.890625 53.21875 53.421875 
Q 53.21875 48.921875 51.53125 44.890625 
Q 49.859375 40.875 45.40625 35.40625 
Q 44.1875 33.984375 37.640625 27.21875 
Q 31.109375 20.453125 19.1875 8.296875 
z
" id="DejaVuSans-50"/>
       </defs>
       <use xlink:href="#DejaVuSans-50"/>
       <use x="63.623047" xlink:href="#DejaVuSans-48"/>
      </g>
     </g>
    </g>
    <g id="xtick_3">
     <g id="text_3">
      <!-- 40 -->
      <g transform="translate(351.704433 288.58081)scale(0.08 -0.08)">
       <defs>
        <path d="M 37.796875 64.3125 
L 12.890625 25.390625 
L 37.796875 25.390625 
z
M 35.203125 72.90625 
L 47.609375 72.90625 
L 47.609375 25.390625 
L 58.015625 25.390625 
L 58.015625 17.1875 
L 47.609375 17.1875 
L 47.609375 0 
L 37.796875 0 
L 37.796875 17.1875 
L 4.890625 17.1875 
L 4.890625 26.703125 
z
" id="DejaVuSans-52"/>
       </defs>
       <use xlink:href="#DejaVuSans-52"/>
       <use x="63.623047" xlink:href="#DejaVuSans-48"/>
      </g>
     </g>
    </g>
    <g id="xtick_4">
     <g id="text_4">
      <!-- 60 -->
      <g transform="translate(492.894381 288.58081)scale(0.08 -0.08)">
       <defs>
        <path d="M 33.015625 40.375 
Q 26.375 40.375 22.484375 35.828125 
Q 18.609375 31.296875 18.609375 23.390625 
Q 18.609375 15.53125 22.484375 10.953125 
Q 26.375 6.390625 33.015625 6.390625 
Q 39.65625 6.390625 43.53125 10.953125 
Q 47.40625 15.53125 47.40625 23.390625 
Q 47.40625 31.296875 43.53125 35.828125 
Q 39.65625 40.375 33.015625 40.375 
z
M 52.59375 71.296875 
L 52.59375 62.3125 
Q 48.875 64.0625 45.09375 64.984375 
Q 41.3125 65.921875 37.59375 65.921875 
Q 27.828125 65.921875 22.671875 59.328125 
Q 17.53125 52.734375 16.796875 39.40625 
Q 19.671875 43.65625 24.015625 45.921875 
Q 28.375 48.1875 33.59375 48.1875 
Q 44.578125 48.1875 50.953125 41.515625 
Q 57.328125 34.859375 57.328125 23.390625 
Q 57.328125 12.15625 50.6875 5.359375 
Q 44.046875 -1.421875 33.015625 -1.421875 
Q 20.359375 -1.421875 13.671875 8.265625 
Q 6.984375 17.96875 6.984375 36.375 
Q 6.984375 53.65625 15.1875 63.9375 
Q 23.390625 74.21875 37.203125 74.21875 
Q 40.921875 74.21875 44.703125 73.484375 
Q 48.484375 72.75 52.59375 71.296875 
z
" id="DejaVuSans-54"/>
       </defs>
       <use xlink:href="#DejaVuSans-54"/>
       <use x="63.623047" xlink:href="#DejaVuSans-48"/>
      </g>
     </g>
    </g>
    <g id="xtick_5">
     <g id="text_5">
      <!-- 80 -->
      <g transform="translate(634.08433 288.58081)scale(0.08 -0.08)">
       <defs>
        <path d="M 31.78125 34.625 
Q 24.75 34.625 20.71875 30.859375 
Q 16.703125 27.09375 16.703125 20.515625 
Q 16.703125 13.921875 20.71875 10.15625 
Q 24.75 6.390625 31.78125 6.390625 
Q 38.8125 6.390625 42.859375 10.171875 
Q 46.921875 13.96875 46.921875 20.515625 
Q 46.921875 27.09375 42.890625 30.859375 
Q 38.875 34.625 31.78125 34.625 
z
M 21.921875 38.8125 
Q 15.578125 40.375 12.03125 44.71875 
Q 8.5 49.078125 8.5 55.328125 
Q 8.5 64.0625 14.71875 69.140625 
Q 20.953125 74.21875 31.78125 74.21875 
Q 42.671875 74.21875 48.875 69.140625 
Q 55.078125 64.0625 55.078125 55.328125 
Q 55.078125 49.078125 51.53125 44.71875 
Q 48 40.375 41.703125 38.8125 
Q 48.828125 37.15625 52.796875 32.3125 
Q 56.78125 27.484375 56.78125 20.515625 
Q 56.78125 9.90625 50.3125 4.234375 
Q 43.84375 -1.421875 31.78125 -1.421875 
Q 19.734375 -1.421875 13.25 4.234375 
Q 6.78125 9.90625 6.78125 20.515625 
Q 6.78125 27.484375 10.78125 32.3125 
Q 14.796875 37.15625 21.921875 38.8125 
z
M 18.3125 54.390625 
Q 18.3125 48.734375 21.84375 45.5625 
Q 25.390625 42.390625 31.78125 42.390625 
Q 38.140625 42.390625 41.71875 45.5625 
Q 45.3125 48.734375 45.3125 54.390625 
Q 45.3125 60.0625 41.71875 63.234375 
Q 38.140625 66.40625 31.78125 66.40625 
Q 25.390625 66.40625 21.84375 63.234375 
Q 18.3125 60.0625 18.3125 54.390625 
z
" id="DejaVuSans-56"/>
       </defs>
       <use xlink:href="#DejaVuSans-56"/>
       <use x="63.623047" xlink:href="#DejaVuSans-48"/>
      </g>
     </g>
    </g>
    <g id="xtick_6">
     <g id="text_6">
      <!-- 100 -->
      <g transform="translate(772.729278 288.58081)scale(0.08 -0.08)">
       <defs>
        <path d="M 12.40625 8.296875 
L 28.515625 8.296875 
L 28.515625 63.921875 
L 10.984375 60.40625 
L 10.984375 69.390625 
L 28.421875 72.90625 
L 38.28125 72.90625 
L 38.28125 8.296875 
L 54.390625 8.296875 
L 54.390625 0 
L 12.40625 0 
z
" id="DejaVuSans-49"/>
       </defs>
       <use xlink:href="#DejaVuSans-49"/>
       <use x="63.623047" xlink:href="#DejaVuSans-48"/>
       <use x="127.246094" xlink:href="#DejaVuSans-48"/>
      </g>
     </g>
    </g>
    <g id="xtick_7">
     <g id="text_7">
      <!-- 120 -->
      <g transform="translate(913.919226 288.58081)scale(0.08 -0.08)">
       <use xlink:href="#DejaVuSans-49"/>
       <use x="63.623047" xlink:href="#DejaVuSans-50"/>
       <use x="127.246094" xlink:href="#DejaVuSans-48"/>
      </g>
     </g>
    </g>
    <g id="text_8">
     <!-- Position (bp) -->
     <g transform="translate(484.33 301.842998)scale(0.1 -0.1)">
      <defs>
       <path d="M 19.671875 64.796875 
L 19.671875 37.40625 
L 32.078125 37.40625 
Q 38.96875 37.40625 42.71875 40.96875 
Q 46.484375 44.53125 46.484375 51.125 
Q 46.484375 57.671875 42.71875 61.234375 
Q 38.96875 64.796875 32.078125 64.796875 
z
M 9.8125 72.90625 
L 32.078125 72.90625 
Q 44.34375 72.90625 50.609375 67.359375 
Q 56.890625 61.8125 56.890625 51.125 
Q 56.890625 40.328125 50.609375 34.8125 
Q 44.34375 29.296875 32.078125 29.296875 
L 19.671875 29.296875 
L 19.671875 0 
L 9.8125 0 
z
" id="DejaVuSans-80"/>
       <path d="M 30.609375 48.390625 
Q 23.390625 48.390625 19.1875 42.75 
Q 14.984375 37.109375 14.984375 27.296875 
Q 14.984375 17.484375 19.15625 11.84375 
Q 23.34375 6.203125 30.609375 6.203125 
Q 37.796875 6.203125 41.984375 11.859375 
Q 46.1875 17.53125 46.1875 27.296875 
Q 46.1875 37.015625 41.984375 42.703125 
Q 37.796875 48.390625 30.609375 48.390625 
z
M 30.609375 56 
Q 42.328125 56 49.015625 48.375 
Q 55.71875 40.765625 55.71875 27.296875 
Q 55.71875 13.875 49.015625 6.21875 
Q 42.328125 -1.421875 30.609375 -1.421875 
Q 18.84375 -1.421875 12.171875 6.21875 
Q 5.515625 13.875 5.515625 27.296875 
Q 5.515625 40.765625 12.171875 48.375 
Q 18.84375 56 30.609375 56 
z
" id="DejaVuSans-111"/>
       <path d="M 44.28125 53.078125 
L 44.28125 44.578125 
Q 40.484375 46.53125 36.375 47.5 
Q 32.28125 48.484375 27.875 48.484375 
Q 21.1875 48.484375 17.84375 46.4375 
Q 14.5 44.390625 14.5 40.28125 
Q 14.5 37.15625 16.890625 35.375 
Q 19.28125 33.59375 26.515625 31.984375 
L 29.59375 31.296875 
Q 39.15625 29.25 43.1875 25.515625 
Q 47.21875 21.78125 47.21875 15.09375 
Q 47.21875 7.46875 41.1875 3.015625 
Q 35.15625 -1.421875 24.609375 -1.421875 
Q 20.21875 -1.421875 15.453125 -0.5625 
Q 10.6875 0.296875 5.421875 2 
L 5.421875 11.28125 
Q 10.40625 8.6875 15.234375 7.390625 
Q 20.0625 6.109375 24.8125 6.109375 
Q 31.15625 6.109375 34.5625 8.28125 
Q 37.984375 10.453125 37.984375 14.40625 
Q 37.984375 18.0625 35.515625 20.015625 
Q 33.0625 21.96875 24.703125 23.78125 
L 21.578125 24.515625 
Q 13.234375 26.265625 9.515625 29.90625 
Q 5.8125 33.546875 5.8125 39.890625 
Q 5.8125 47.609375 11.28125 51.796875 
Q 16.75 56 26.8125 56 
Q 31.78125 56 36.171875 55.265625 
Q 40.578125 54.546875 44.28125 53.078125 
z
" id="DejaVuSans-115"/>
       <path d="M 9.421875 54.6875 
L 18.40625 54.6875 
L 18.40625 0 
L 9.421875 0 
z
M 9.421875 75.984375 
L 18.40625 75.984375 
L 18.40625 64.59375 
L 9.421875 64.59375 
z
" id="DejaVuSans-105"/>
       <path d="M 18.3125 70.21875 
L 18.3125 54.6875 
L 36.8125 54.6875 
L 36.8125 47.703125 
L 18.3125 47.703125 
L 18.3125 18.015625 
Q 18.3125 11.328125 20.140625 9.421875 
Q 21.96875 7.515625 27.59375 7.515625 
L 36.8125 7.515625 
L 36.8125 0 
L 27.59375 0 
Q 17.1875 0 13.234375 3.875 
Q 9.28125 7.765625 9.28125 18.015625 
L 9.28125 47.703125 
L 2.6875 47.703125 
L 2.6875 54.6875 
L 9.28125 54.6875 
L 9.28125 70.21875 
z
" id="DejaVuSans-116"/>
       <path d="M 54.890625 33.015625 
L 54.890625 0 
L 45.90625 0 
L 45.90625 32.71875 
Q 45.90625 40.484375 42.875 44.328125 
Q 39.84375 48.1875 33.796875 48.1875 
Q 26.515625 48.1875 22.3125 43.546875 
Q 18.109375 38.921875 18.109375 30.90625 
L 18.109375 0 
L 9.078125 0 
L 9.078125 54.6875 
L 18.109375 54.6875 
L 18.109375 46.1875 
Q 21.34375 51.125 25.703125 53.5625 
Q 30.078125 56 35.796875 56 
Q 45.21875 56 50.046875 50.171875 
Q 54.890625 44.34375 54.890625 33.015625 
z
" id="DejaVuSans-110"/>
       <path id="DejaVuSans-32"/>
       <path d="M 31 75.875 
Q 24.46875 64.65625 21.28125 53.65625 
Q 18.109375 42.671875 18.109375 31.390625 
Q 18.109375 20.125 21.3125 9.0625 
Q 24.515625 -2 31 -13.1875 
L 23.1875 -13.1875 
Q 15.875 -1.703125 12.234375 9.375 
Q 8.59375 20.453125 8.59375 31.390625 
Q 8.59375 42.28125 12.203125 53.3125 
Q 15.828125 64.359375 23.1875 75.875 
z
" id="DejaVuSans-40"/>
       <path d="M 48.6875 27.296875 
Q 48.6875 37.203125 44.609375 42.84375 
Q 40.53125 48.484375 33.40625 48.484375 
Q 26.265625 48.484375 22.1875 42.84375 
Q 18.109375 37.203125 18.109375 27.296875 
Q 18.109375 17.390625 22.1875 11.75 
Q 26.265625 6.109375 33.40625 6.109375 
Q 40.53125 6.109375 44.609375 11.75 
Q 48.6875 17.390625 48.6875 27.296875 
z
M 18.109375 46.390625 
Q 20.953125 51.265625 25.265625 53.625 
Q 29.59375 56 35.59375 56 
Q 45.5625 56 51.78125 48.09375 
Q 58.015625 40.1875 58.015625 27.296875 
Q 58.015625 14.40625 51.78125 6.484375 
Q 45.5625 -1.421875 35.59375 -1.421875 
Q 29.59375 -1.421875 25.265625 0.953125 
Q 20.953125 3.328125 18.109375 8.203125 
L 18.109375 0 
L 9.078125 0 
L 9.078125 75.984375 
L 18.109375 75.984375 
z
" id="DejaVuSans-98"/>
       <path d="M 18.109375 8.203125 
L 18.109375 -20.796875 
L 9.078125 -20.796875 
L 9.078125 54.6875 
L 18.109375 54.6875 
L 18.109375 46.390625 
Q 20.953125 51.265625 25.265625 53.625 
Q 29.59375 56 35.59375 56 
Q 45.5625 56 51.78125 48.09375 
Q 58.015625 40.1875 58.015625 27.296875 
Q 58.015625 14.40625 51.78125 6.484375 
Q 45.5625 -1.421875 35.59375 -1.421875 
Q 29.59375 -1.421875 25.265625 0.953125 
Q 20.953125 3.328125 18.109375 8.203125 
z
M 48.6875 27.296875 
Q 48.6875 37.203125 44.609375 42.84375 
Q 40.53125 48.484375 33.40625 48.484375 
Q 26.265625 48.484375 22.1875 42.84375 
Q 18.109375 37.203125 18.109375 27.296875 
Q 18.109375 17.390625 22.1875 11.75 
Q 26.265625 6.109375 33.40625 6.109375 
Q 40.53125 6.109375 44.609375 11.75 
Q 48.6875 17.390625 48.6875 27.296875 
z
" id="DejaVuSans-112"/>
       <path d="M 8.015625 75.875 
L 15.828125 75.875 
Q 23.140625 64.359375 26.78125 53.3125 
Q 30.421875 42.28125 30.421875 31.390625 
Q 30.421875 20.453125 26.78125 9.375 
Q 23.140625 -1.703125 15.828125 -13.1875 
L 8.015625 -13.1875 
Q 14.5 -2 17.703125 9.0625 
Q 20.90625 20.125 20.90625 31.390625 
Q 20.90625 42.671875 17.703125 53.65625 
Q 14.5 64.65625 8.015625 75.875 
z
" id="DejaVuSans-41"/>
      </defs>
      <use xlink:href="#DejaVuSans-80"/>
      <use x="56.677734" xlink:href="#DejaVuSans-111"/>
      <use x="117.859375" xlink:href="#DejaVuSans-115"/>
      <use x="169.958984" xlink:href="#DejaVuSans-105"/>
      <use x="197.742188" xlink:href="#DejaVuSans-116"/>
      <use x="236.951172" xlink:href="#DejaVuSans-105"/>
      <use x="264.734375" xlink:href="#DejaVuSans-111"/>
      <use x="325.916016" xlink:href="#DejaVuSans-110"/>
      <use x="389.294922" xlink:href="#DejaVuSans-32"/>
      <use x="421.082031" xlink:href="#DejaVuSans-40"/>
      <use x="460.095703" xlink:href="#DejaVuSans-98"/>
      <use x="523.572266" xlink:href="#DejaVuSans-112"/>
      <use x="587.048828" xlink:href="#DejaVuSans-41"/>
     </g>
    </g>
   </g>
   <g id="matplotlib.axis_2">
    <g id="ytick_1">
     <g id="line2d_1">
      <path clip-path="url(#pc3c8109397)" d="M 38.058125 275.50206 
L 993.208125 275.50206 
" style="fill:none;stroke:#dedede;stroke-linecap:square;"/>
     </g>
     <g id="text_9">
      <!-- 0 -->
      <g transform="translate(25.968125 278.541435)scale(0.08 -0.08)">
       <use xlink:href="#DejaVuSans-48"/>
      </g>
     </g>
    </g>
    <g id="ytick_2">
     <g id="line2d_2">
      <path clip-path="url(#pc3c8109397)" d="M 38.058125 240.353922 
L 993.208125 240.353922 
" style="fill:none;stroke:#dedede;stroke-linecap:square;"/>
     </g>
     <g id="text_10">
      <!-- 5 -->
      <g transform="translate(25.968125 243.393297)scale(0.08 -0.08)">
       <defs>
        <path d="M 10.796875 72.90625 
L 49.515625 72.90625 
L 49.515625 64.59375 
L 19.828125 64.59375 
L 19.828125 46.734375 
Q 21.96875 47.46875 24.109375 47.828125 
Q 26.265625 48.1875 28.421875 48.1875 
Q 40.625 48.1875 47.75 41.5 
Q 54.890625 34.8125 54.890625 23.390625 
Q 54.890625 11.625 47.5625 5.09375 
Q 40.234375 -1.421875 26.90625 -1.421875 
Q 22.3125 -1.421875 17.546875 -0.640625 
Q 12.796875 0.140625 7.71875 1.703125 
L 7.71875 11.625 
Q 12.109375 9.234375 16.796875 8.0625 
Q 21.484375 6.890625 26.703125 6.890625 
Q 35.15625 6.890625 40.078125 11.328125 
Q 45.015625 15.765625 45.015625 23.390625 
Q 45.015625 31 40.078125 35.4375 
Q 35.15625 39.890625 26.703125 39.890625 
Q 22.75 39.890625 18.8125 39.015625 
Q 14.890625 38.140625 10.796875 36.28125 
z
" id="DejaVuSans-53"/>
       </defs>
       <use xlink:href="#DejaVuSans-53"/>
      </g>
     </g>
    </g>
    <g id="ytick_3">
     <g id="line2d_3">
      <path clip-path="url(#pc3c8109397)" d="M 38.058125 205.205783 
L 993.208125 205.205783 
" style="fill:none;stroke:#dedede;stroke-linecap:square;"/>
     </g>
     <g id="text_11">
      <!-- 10 -->
      <g transform="translate(20.878125 208.245158)scale(0.08 -0.08)">
       <use xlink:href="#DejaVuSans-49"/>
       <use x="63.623047" xlink:href="#DejaVuSans-48"/>
      </g>
     </g>
    </g>
    <g id="ytick_4">
     <g id="line2d_4">
      <path clip-path="url(#pc3c8109397)" d="M 38.058125 170.057645 
L 993.208125 170.057645 
" style="fill:none;stroke:#dedede;stroke-linecap:square;"/>
     </g>
     <g id="text_12">
      <!-- 15 -->
      <g transform="translate(20.878125 173.09702)scale(0.08 -0.08)">
       <use xlink:href="#DejaVuSans-49"/>
       <use x="63.623047" xlink:href="#DejaVuSans-53"/>
      </g>
     </g>
    </g>
    <g id="ytick_5">
     <g id="line2d_5">
      <path clip-path="url(#pc3c8109397)" d="M 38.058125 134.909507 
L 993.208125 134.909507 
" style="fill:none;stroke:#dedede;stroke-linecap:square;"/>
     </g>
     <g id="text_13">
      <!-- 20 -->
      <g transform="translate(20.878125 137.948882)scale(0.08 -0.08)">
       <use xlink:href="#DejaVuSans-50"/>
       <use x="63.623047" xlink:href="#DejaVuSans-48"/>
      </g>
     </g>
    </g>
    <g id="ytick_6">
     <g id="line2d_6">
      <path clip-path="url(#pc3c8109397)" d="M 38.058125 99.761369 
L 993.208125 99.761369 
" style="fill:none;stroke:#dedede;stroke-linecap:square;"/>
     </g>
     <g id="text_14">
      <!-- 25 -->
      <g transform="translate(20.878125 102.800744)scale(0.08 -0.08)">
       <use xlink:href="#DejaVuSans-50"/>
       <use x="63.623047" xlink:href="#DejaVuSans-53"/>
      </g>
     </g>
    </g>
    <g id="ytick_7">
     <g id="line2d_7">
      <path clip-path="url(#pc3c8109397)" d="M 38.058125 64.61323 
L 993.208125 64.61323 
" style="fill:none;stroke:#dedede;stroke-linecap:square;"/>
     </g>
     <g id="text_15">
      <!-- 30 -->
      <g transform="translate(20.878125 67.652605)scale(0.08 -0.08)">
       <defs>
        <path d="M 40.578125 39.3125 
Q 47.65625 37.796875 51.625 33 
Q 55.609375 28.21875 55.609375 21.1875 
Q 55.609375 10.40625 48.1875 4.484375 
Q 40.765625 -1.421875 27.09375 -1.421875 
Q 22.515625 -1.421875 17.65625 -0.515625 
Q 12.796875 0.390625 7.625 2.203125 
L 7.625 11.71875 
Q 11.71875 9.328125 16.59375 8.109375 
Q 21.484375 6.890625 26.8125 6.890625 
Q 36.078125 6.890625 40.9375 10.546875 
Q 45.796875 14.203125 45.796875 21.1875 
Q 45.796875 27.640625 41.28125 31.265625 
Q 36.765625 34.90625 28.71875 34.90625 
L 20.21875 34.90625 
L 20.21875 43.015625 
L 29.109375 43.015625 
Q 36.375 43.015625 40.234375 45.921875 
Q 44.09375 48.828125 44.09375 54.296875 
Q 44.09375 59.90625 40.109375 62.90625 
Q 36.140625 65.921875 28.71875 65.921875 
Q 24.65625 65.921875 20.015625 65.03125 
Q 15.375 64.15625 9.8125 62.3125 
L 9.8125 71.09375 
Q 15.4375 72.65625 20.34375 73.4375 
Q 25.25 74.21875 29.59375 74.21875 
Q 40.828125 74.21875 47.359375 69.109375 
Q 53.90625 64.015625 53.90625 55.328125 
Q 53.90625 49.265625 50.4375 45.09375 
Q 46.96875 40.921875 40.578125 39.3125 
z
" id="DejaVuSans-51"/>
       </defs>
       <use xlink:href="#DejaVuSans-51"/>
       <use x="63.623047" xlink:href="#DejaVuSans-48"/>
      </g>
     </g>
    </g>
    <g id="text_16">
     <!-- Phred Score -->
     <g transform="translate(14.798438 183.49721)rotate(-90)scale(0.1 -0.1)">
      <defs>
       <path d="M 54.890625 33.015625 
L 54.890625 0 
L 45.90625 0 
L 45.90625 32.71875 
Q 45.90625 40.484375 42.875 44.328125 
Q 39.84375 48.1875 33.796875 48.1875 
Q 26.515625 48.1875 22.3125 43.546875 
Q 18.109375 38.921875 18.109375 30.90625 
L 18.109375 0 
L 9.078125 0 
L 9.078125 75.984375 
L 18.109375 75.984375 
L 18.109375 46.1875 
Q 21.34375 51.125 25.703125 53.5625 
Q 30.078125 56 35.796875 56 
Q 45.21875 56 50.046875 50.171875 
Q 54.890625 44.34375 54.890625 33.015625 
z
" id="DejaVuSans-104"/>
       <path d="M 41.109375 46.296875 
Q 39.59375 47.171875 37.8125 47.578125 
Q 36.03125 48 33.890625 48 
Q 26.265625 48 22.1875 43.046875 
Q 18.109375 38.09375 18.109375 28.8125 
L 18.109375 0 
L 9.078125 0 
L 9.078125 54.6875 
L 18.109375 54.6875 
L 18.109375 46.1875 
Q 20.953125 51.171875 25.484375 53.578125 
Q 30.03125 56 36.53125 56 
Q 37.453125 56 38.578125 55.875 
Q 39.703125 55.765625 41.0625 55.515625 
z
" id="DejaVuSans-114"/>
       <path d="M 56.203125 29.59375 
L 56.203125 25.203125 
L 14.890625 25.203125 
Q 15.484375 15.921875 20.484375 11.0625 
Q 25.484375 6.203125 34.421875 6.203125 
Q 39.59375 6.203125 44.453125 7.46875 
Q 49.3125 8.734375 54.109375 11.28125 
L 54.109375 2.78125 
Q 49.265625 0.734375 44.1875 -0.34375 
Q 39.109375 -1.421875 33.890625 -1.421875 
Q 20.796875 -1.421875 13.15625 6.1875 
Q 5.515625 13.8125 5.515625 26.8125 
Q 5.515625 40.234375 12.765625 48.109375 
Q 20.015625 56 32.328125 56 
Q 43.359375 56 49.78125 48.890625 
Q 56.203125 41.796875 56.203125 29.59375 
z
M 47.21875 32.234375 
Q 47.125 39.59375 43.09375 43.984375 
Q 39.0625 48.390625 32.421875 48.390625 
Q 24.90625 48.390625 20.390625 44.140625 
Q 15.875 39.890625 15.1875 32.171875 
z
" id="DejaVuSans-101"/>
       <path d="M 45.40625 46.390625 
L 45.40625 75.984375 
L 54.390625 75.984375 
L 54.390625 0 
L 45.40625 0 
L 45.40625 8.203125 
Q 42.578125 3.328125 38.25 0.953125 
Q 33.9375 -1.421875 27.875 -1.421875 
Q 17.96875 -1.421875 11.734375 6.484375 
Q 5.515625 14.40625 5.515625 27.296875 
Q 5.515625 40.1875 11.734375 48.09375 
Q 17.96875 56 27.875 56 
Q 33.9375 56 38.25 53.625 
Q 42.578125 51.265625 45.40625 46.390625 
z
M 14.796875 27.296875 
Q 14.796875 17.390625 18.875 11.75 
Q 22.953125 6.109375 30.078125 6.109375 
Q 37.203125 6.109375 41.296875 11.75 
Q 45.40625 17.390625 45.40625 27.296875 
Q 45.40625 37.203125 41.296875 42.84375 
Q 37.203125 48.484375 30.078125 48.484375 
Q 22.953125 48.484375 18.875 42.84375 
Q 14.796875 37.203125 14.796875 27.296875 
z
" id="DejaVuSans-100"/>
       <path d="M 53.515625 70.515625 
L 53.515625 60.890625 
Q 47.90625 63.578125 42.921875 64.890625 
Q 37.9375 66.21875 33.296875 66.21875 
Q 25.25 66.21875 20.875 63.09375 
Q 16.5 59.96875 16.5 54.203125 
Q 16.5 49.359375 19.40625 46.890625 
Q 22.3125 44.4375 30.421875 42.921875 
L 36.375 41.703125 
Q 47.40625 39.59375 52.65625 34.296875 
Q 57.90625 29 57.90625 20.125 
Q 57.90625 9.515625 50.796875 4.046875 
Q 43.703125 -1.421875 29.984375 -1.421875 
Q 24.8125 -1.421875 18.96875 -0.25 
Q 13.140625 0.921875 6.890625 3.21875 
L 6.890625 13.375 
Q 12.890625 10.015625 18.65625 8.296875 
Q 24.421875 6.59375 29.984375 6.59375 
Q 38.421875 6.59375 43.015625 9.90625 
Q 47.609375 13.234375 47.609375 19.390625 
Q 47.609375 24.75 44.3125 27.78125 
Q 41.015625 30.8125 33.5 32.328125 
L 27.484375 33.5 
Q 16.453125 35.6875 11.515625 40.375 
Q 6.59375 45.0625 6.59375 53.421875 
Q 6.59375 63.09375 13.40625 68.65625 
Q 20.21875 74.21875 32.171875 74.21875 
Q 37.3125 74.21875 42.625 73.28125 
Q 47.953125 72.359375 53.515625 70.515625 
z
" id="DejaVuSans-83"/>
       <path d="M 48.78125 52.59375 
L 48.78125 44.1875 
Q 44.96875 46.296875 41.140625 47.34375 
Q 37.3125 48.390625 33.40625 48.390625 
Q 24.65625 48.390625 19.8125 42.84375 
Q 14.984375 37.3125 14.984375 27.296875 
Q 14.984375 17.28125 19.8125 11.734375 
Q 24.65625 6.203125 33.40625 6.203125 
Q 37.3125 6.203125 41.140625 7.25 
Q 44.96875 8.296875 48.78125 10.40625 
L 48.78125 2.09375 
Q 45.015625 0.34375 40.984375 -0.53125 
Q 36.96875 -1.421875 32.421875 -1.421875 
Q 20.0625 -1.421875 12.78125 6.34375 
Q 5.515625 14.109375 5.515625 27.296875 
Q 5.515625 40.671875 12.859375 48.328125 
Q 20.21875 56 33.015625 56 
Q 37.15625 56 41.109375 55.140625 
Q 45.0625 54.296875 48.78125 52.59375 
z
" id="DejaVuSans-99"/>
      </defs>
      <use xlink:href="#DejaVuSans-80"/>
      <use x="60.302734" xlink:href="#DejaVuSans-104"/>
      <use x="123.681641" xlink:href="#DejaVuSans-114"/>
      <use x="162.544922" xlink:href="#DejaVuSans-101"/>
      <use x="224.068359" xlink:href="#DejaVuSans-100"/>
      <use x="287.544922" xlink:href="#DejaVuSans-32"/>
      <use x="319.332031" xlink:href="#DejaVuSans-83"/>
      <use x="382.808594" xlink:href="#DejaVuSans-99"/>
      <use x="437.789062" xlink:href="#DejaVuSans-111"/>
      <use x="498.970703" xlink:href="#DejaVuSans-114"/>
      <use x="537.833984" xlink:href="#DejaVuSans-101"/>
     </g>
    </g>
   </g>
   <g id="line2d_8">
    <path clip-path="url(#pc3c8109397)" d="M 81.474034 36.262711 
L 88.533532 36.570449 
L 95.593029 37.031523 
L 102.652526 37.401198 
L 109.712024 37.839607 
L 116.771521 38.135854 
L 123.831019 38.718857 
L 130.890516 39.457657 
L 137.950013 40.669081 
L 145.009511 43.190558 
L 159.128506 46.742934 
L 173.2475 49.59755 
L 187.366495 51.893199 
L 201.48549 53.638386 
L 215.604485 55.279865 
L 229.72348 57.087296 
L 243.842475 58.203784 
L 257.961469 58.961914 
L 272.080464 60.337918 
L 286.199459 62.011242 
L 300.318454 63.46805 
L 314.437449 64.307622 
L 328.556444 64.88697 
L 342.675438 65.756151 
L 356.794433 66.660392 
L 370.913428 68.046556 
L 385.032423 70.194325 
L 399.151418 72.121376 
L 413.270413 73.162165 
L 427.389407 73.976977 
L 441.508402 75.335613 
L 455.627397 76.896582 
L 469.746392 78.877527 
L 483.865387 80.895149 
L 497.984381 82.350282 
L 512.103376 82.985974 
L 526.222371 83.30665 
L 540.341366 84.519678 
L 554.460361 87.199025 
L 568.579356 90.300246 
L 582.69835 92.318721 
L 596.817345 93.387169 
L 610.93634 94.499142 
L 625.055335 96.011231 
L 639.17433 97.80676 
L 653.293325 99.908729 
L 667.412319 103.649394 
L 681.531314 108.103857 
L 695.650309 111.447352 
L 709.769304 113.259102 
L 723.888299 113.649746 
L 738.007294 113.684771 
L 752.126288 111.866955 
L 766.245283 110.371186 
L 780.364278 109.991521 
L 794.483273 109.723485 
L 808.602268 109.655112 
L 822.721262 109.245977 
L 836.840257 108.606739 
L 850.959252 107.679114 
L 865.078247 105.842034 
L 879.197242 104.4365 
L 893.316237 102.704295 
L 907.435231 100.683948 
L 921.554226 97.927422 
L 935.673221 90.988003 
L 949.792216 67.429498 
" style="fill:none;stroke:#f0ad4e;stroke-linecap:square;"/>
   </g>
   <g id="line2d_9">
    <path clip-path="url(#pc3c8109397)" d="M 81.474034 36.022577 
L 88.533532 36.281104 
L 95.593029 36.66276 
L 102.652526 37.080589 
L 109.712024 37.470645 
L 116.771521 37.817081 
L 123.831019 38.313451 
L 130.890516 39.005429 
L 137.950013 40.167799 
L 145.009511 42.625378 
L 159.128506 46.462798 
L 173.2475 49.698147 
L 187.366495 51.844659 
L 201.48549 53.301746 
L 215.604485 55.101035 
L 229.72348 57.205863 
L 243.842475 58.475843 
L 257.961469 59.19374 
L 272.080464 60.615784 
L 286.199459 62.349531 
L 300.318454 63.928614 
L 314.437449 64.910737 
L 328.556444 65.540582 
L 342.675438 66.406836 
L 356.794433 67.198762 
L 370.913428 68.685345 
L 385.032423 70.922556 
L 399.151418 72.938787 
L 413.270413 74.004996 
L 427.389407 74.832262 
L 441.508402 76.150306 
L 455.627397 77.798788 
L 469.746392 79.730878 
L 483.865387 81.772337 
L 497.984381 83.238952 
L 512.103376 83.833179 
L 526.222371 84.122901 
L 540.341366 85.346668 
L 554.460361 88.227253 
L 568.579356 91.527252 
L 582.69835 93.637035 
L 596.817345 94.764692 
L 610.93634 95.792232 
L 625.055335 97.296444 
L 639.17433 98.870053 
L 653.293325 101.182136 
L 667.412319 105.043169 
L 681.531314 109.754421 
L 695.650309 113.200127 
L 709.769304 114.9251 
L 723.888299 115.066539 
L 738.007294 114.818842 
L 752.126288 112.783374 
L 766.245283 111.154635 
L 780.364278 110.760863 
L 794.483273 110.476198 
L 808.602268 110.564356 
L 822.721262 110.177484 
L 836.840257 109.38883 
L 850.959252 108.534857 
L 865.078247 106.663201 
L 879.197242 105.139115 
L 893.316237 103.262731 
L 907.435231 101.203603 
L 921.554226 98.322607 
L 935.673221 91.313082 
L 949.792216 67.862495 
" style="fill:none;stroke:#f0ad4e;stroke-linecap:square;"/>
   </g>
   <g id="line2d_10">
    <path clip-path="url(#pc3c8109397)" d="M 81.474034 35.965216 
L 88.533532 36.231015 
L 95.593029 36.66511 
L 102.652526 37.104503 
L 109.712024 37.512056 
L 116.771521 37.934796 
L 123.831019 38.574647 
L 130.890516 39.45707 
L 137.950013 40.910924 
L 145.009511 44.157768 
L 159.128506 49.276931 
L 173.2475 53.816783 
L 187.366495 57.308211 
L 201.48549 59.390161 
L 215.604485 60.886912 
L 229.72348 62.321828 
L 243.842475 62.963324 
L 257.961469 63.231747 
L 272.080464 64.700177 
L 286.199459 66.710806 
L 300.318454 68.568761 
L 314.437449 69.854415 
L 328.556444 70.463238 
L 342.675438 71.046399 
L 356.794433 71.531372 
L 370.913428 72.96926 
L 385.032423 75.32535 
L 399.151418 77.498793 
L 413.270413 78.546007 
L 427.389407 79.242504 
L 441.508402 80.480922 
L 455.627397 82.062461 
L 469.746392 83.713778 
L 483.865387 85.603879 
L 497.984381 86.829844 
L 512.103376 87.055419 
L 526.222371 86.976622 
L 540.341366 88.376835 
L 554.460361 91.154522 
L 568.579356 94.708956 
L 582.69835 96.672022 
L 596.817345 97.450318 
L 610.93634 98.228111 
L 625.055335 99.412363 
L 639.17433 100.898871 
L 653.293325 103.411279 
L 667.412319 107.642658 
L 681.531314 112.526595 
L 695.650309 115.994722 
L 709.769304 117.54775 
L 723.888299 117.348849 
L 738.007294 116.688713 
L 752.126288 114.365853 
L 766.245283 112.549032 
L 780.364278 112.140174 
L 794.483273 111.875414 
L 808.602268 111.948101 
L 822.721262 111.465738 
L 836.840257 110.590346 
L 850.959252 109.513675 
L 865.078247 107.521151 
L 879.197242 105.753186 
L 893.316237 103.721316 
L 907.435231 101.372688 
L 921.554226 98.293241 
L 935.673221 91.315871 
L 949.792216 68.371254 
" style="fill:none;stroke:#f0ad4e;stroke-linecap:square;"/>
   </g>
   <g id="line2d_11">
    <path clip-path="url(#pc3c8109397)" d="M 81.474034 35.64976 
L 88.533532 35.955014 
L 95.593029 36.401695 
L 102.652526 36.809808 
L 109.712024 37.383269 
L 116.771521 37.719732 
L 123.831019 38.368094 
L 130.890516 39.194238 
L 137.950013 40.362236 
L 145.009511 42.628112 
L 159.128506 45.974233 
L 173.2475 49.019046 
L 187.366495 51.659071 
L 201.48549 53.655672 
L 215.604485 55.381916 
L 229.72348 57.089833 
L 243.842475 58.161776 
L 257.961469 58.867407 
L 272.080464 60.209976 
L 286.199459 61.747837 
L 300.318454 63.075623 
L 314.437449 63.746436 
L 328.556444 64.200452 
L 342.675438 65.087378 
L 356.794433 65.959272 
L 370.913428 67.315494 
L 385.032423 69.49758 
L 399.151418 71.264419 
L 413.270413 72.230364 
L 427.389407 72.984935 
L 441.508402 74.185152 
L 455.627397 75.859989 
L 469.746392 77.653773 
L 483.865387 79.724042 
L 497.984381 81.271913 
L 512.103376 81.875767 
L 526.222371 82.115738 
L 540.341366 83.237734 
L 554.460361 85.736995 
L 568.579356 88.910927 
L 582.69835 90.8242 
L 596.817345 92.006516 
L 610.93634 93.003898 
L 625.055335 94.748681 
L 639.17433 96.25767 
L 653.293325 98.529339 
L 667.412319 102.15402 
L 681.531314 106.721241 
L 695.650309 110.080205 
L 709.769304 112.072422 
L 723.888299 112.602653 
L 738.007294 112.752616 
L 752.126288 110.933171 
L 766.245283 109.55097 
L 780.364278 109.37772 
L 794.483273 109.147353 
L 808.602268 109.244414 
L 822.721262 108.824136 
L 836.840257 108.181586 
L 850.959252 107.375751 
L 865.078247 105.536203 
L 879.197242 103.985188 
L 893.316237 102.215782 
L 907.435231 100.172342 
L 921.554226 97.28338 
L 935.673221 90.131162 
L 949.792216 67.030233 
" style="fill:none;stroke:#f0ad4e;stroke-linecap:square;"/>
   </g>
   <g id="line2d_12">
    <path clip-path="url(#pc3c8109397)" d="M 81.474034 35.903962 
L 88.533532 36.143691 
L 95.593029 36.560241 
L 102.652526 36.892513 
L 109.712024 37.329571 
L 116.771521 37.638423 
L 123.831019 38.239431 
L 130.890516 39.029343 
L 137.950013 40.166648 
L 145.009511 42.500337 
L 159.128506 45.670582 
L 173.2475 48.266231 
L 187.366495 50.384399 
L 201.48549 52.397646 
L 215.604485 54.626403 
L 229.72348 57.049717 
L 243.842475 58.618934 
L 257.961469 59.533133 
L 272.080464 60.91805 
L 286.199459 62.426684 
L 300.318454 63.708496 
L 314.437449 64.368062 
L 328.556444 64.740425 
L 342.675438 65.54867 
L 356.794433 66.563106 
L 370.913428 68.088451 
L 385.032423 70.143557 
L 399.151418 71.883071 
L 413.270413 72.799772 
L 427.389407 73.458071 
L 441.508402 74.678577 
L 455.627397 76.292725 
L 469.746392 78.104049 
L 483.865387 80.159025 
L 497.984381 81.593881 
L 512.103376 82.324234 
L 526.222371 82.791377 
L 540.341366 84.08973 
L 554.460361 86.577736 
L 568.579356 89.491979 
L 582.69835 91.348895 
L 596.817345 92.461405 
L 610.93634 93.624025 
L 625.055335 95.352315 
L 639.17433 97.038369 
L 653.293325 99.254931 
L 667.412319 102.610085 
L 681.531314 107.002519 
L 695.650309 110.323747 
L 709.769304 112.255492 
L 723.888299 112.819627 
L 738.007294 113.280727 
L 752.126288 112.022889 
L 766.245283 111.063054 
L 780.364278 110.984829 
L 794.483273 110.644548 
L 808.602268 110.330425 
L 822.721262 109.529517 
L 836.840257 108.491061 
L 850.959252 107.468902 
L 865.078247 105.500235 
L 879.197242 104.061765 
L 893.316237 102.353043 
L 907.435231 100.44301 
L 921.554226 97.692325 
L 935.673221 90.873872 
L 949.792216 67.794386 
" style="fill:none;stroke:#f0ad4e;stroke-linecap:square;"/>
   </g>
   <g id="line2d_13">
    <path clip-path="url(#pc3c8109397)" d="M 81.474034 36.08116 
L 88.533532 36.219445 
L 95.593029 36.640836 
L 102.652526 36.995241 
L 109.712024 37.352749 
L 116.771521 37.588667 
L 123.831019 38.172188 
L 130.890516 38.769873 
L 137.950013 39.736435 
L 145.009511 41.438606 
L 159.128506 43.898222 
L 173.2475 45.92326 
L 187.366495 48.053789 
L 201.48549 50.175653 
L 215.604485 52.218586 
L 229.72348 54.837221 
L 243.842475 56.763239 
L 257.961469 58.212706 
L 272.080464 60.053793 
L 286.199459 61.441524 
L 300.318454 62.571653 
L 314.437449 62.857338 
L 328.556444 63.367983 
L 342.675438 64.075082 
L 356.794433 65.013695 
L 370.913428 66.348032 
L 385.032423 68.094253 
L 399.151418 69.650015 
L 413.270413 70.509821 
L 427.389407 71.134954 
L 441.508402 72.3388 
L 455.627397 73.365468 
L 469.746392 75.190418 
L 483.865387 76.87499 
L 497.984381 78.202923 
L 512.103376 79.285896 
L 526.222371 79.558724 
L 540.341366 80.854043 
L 554.460361 83.149055 
L 568.579356 86.280329 
L 582.69835 87.756179 
L 596.817345 89.11509 
L 610.93634 90.531396 
L 625.055335 92.352333 
L 639.17433 94.116333 
L 653.293325 95.85036 
L 667.412319 98.934735 
L 681.531314 103.060633 
L 695.650309 106.358578 
L 709.769304 108.817285 
L 723.888299 109.709822 
L 738.007294 110.561332 
L 752.126288 109.499925 
L 766.245283 108.487174 
L 780.364278 108.434255 
L 794.483273 108.333474 
L 808.602268 107.768395 
L 822.721262 106.954045 
L 836.840257 105.986909 
L 850.959252 105.033228 
L 865.078247 103.068168 
L 879.197242 101.783388 
L 893.316237 100.178366 
L 907.435231 98.626816 
L 921.554226 96.161038 
L 935.673221 89.289377 
L 949.792216 66.734441 
" style="fill:none;stroke:#5cb85c;stroke-linecap:square;"/>
   </g>
   <g id="line2d_14">
    <path clip-path="url(#pc3c8109397)" d="M 81.474034 36.168107 
L 88.533532 36.293958 
L 95.593029 36.817308 
L 102.652526 37.275465 
L 109.712024 37.554054 
L 116.771521 37.968947 
L 123.831019 38.382186 
L 130.890516 39.016671 
L 137.950013 39.979752 
L 145.009511 41.790828 
L 159.128506 44.464484 
L 173.2475 46.628311 
L 187.366495 48.470499 
L 201.48549 50.141462 
L 215.604485 51.60432 
L 229.72348 53.672112 
L 243.842475 54.82055 
L 257.961469 55.889425 
L 272.080464 57.487309 
L 286.199459 58.684963 
L 300.318454 59.871774 
L 314.437449 60.27012 
L 328.556444 60.898944 
L 342.675438 61.927516 
L 356.794433 62.82728 
L 370.913428 64.103674 
L 385.032423 66.03133 
L 399.151418 67.570063 
L 413.270413 68.524779 
L 427.389407 69.285564 
L 441.508402 70.552492 
L 455.627397 71.550462 
L 469.746392 73.475537 
L 483.865387 75.305678 
L 497.984381 76.696554 
L 512.103376 77.668458 
L 526.222371 77.820597 
L 540.341366 79.074636 
L 554.460361 81.730082 
L 568.579356 85.416775 
L 582.69835 87.265269 
L 596.817345 88.814242 
L 610.93634 90.329089 
L 625.055335 92.202719 
L 639.17433 93.855509 
L 653.293325 95.498106 
L 667.412319 98.577158 
L 681.531314 102.428355 
L 695.650309 106.145064 
L 709.769304 108.63823 
L 723.888299 109.602284 
L 738.007294 110.128558 
L 752.126288 108.642989 
L 766.245283 107.137984 
L 780.364278 106.794016 
L 794.483273 106.815097 
L 808.602268 106.426858 
L 822.721262 106.151547 
L 836.840257 105.792102 
L 850.959252 105.171245 
L 865.078247 103.237937 
L 879.197242 102.00571 
L 893.316237 100.362894 
L 907.435231 98.643051 
L 921.554226 96.114945 
L 935.673221 88.874147 
L 949.792216 65.850432 
" style="fill:none;stroke:#5cb85c;stroke-linecap:square;"/>
   </g>
   <g id="line2d_15">
    <path clip-path="url(#pc3c8109397)" d="M 81.474034 35.994697 
L 88.533532 36.101669 
L 95.593029 36.544803 
L 102.652526 36.957314 
L 109.712024 37.255961 
L 116.771521 37.50347 
L 123.831019 38.059549 
L 130.890516 38.709167 
L 137.950013 39.680862 
L 145.009511 41.550185 
L 159.128506 44.280464 
L 173.2475 46.239425 
L 187.366495 47.930633 
L 201.48549 49.473589 
L 215.604485 50.842925 
L 229.72348 52.597894 
L 243.842475 53.689872 
L 257.961469 54.665319 
L 272.080464 56.28818 
L 286.199459 57.472453 
L 300.318454 58.733495 
L 314.437449 59.049223 
L 328.556444 59.527271 
L 342.675438 60.458076 
L 356.794433 61.457647 
L 370.913428 62.774046 
L 385.032423 64.835995 
L 399.151418 66.327254 
L 413.270413 67.080961 
L 427.389407 67.755869 
L 441.508402 69.089401 
L 455.627397 70.319009 
L 469.746392 72.244234 
L 483.865387 74.090972 
L 497.984381 75.436714 
L 512.103376 76.519868 
L 526.222371 76.62145 
L 540.341366 77.95604 
L 554.460361 80.625799 
L 568.579356 83.933517 
L 582.69835 85.740615 
L 596.817345 87.134924 
L 610.93634 88.636577 
L 625.055335 90.352002 
L 639.17433 92.041463 
L 653.293325 93.966851 
L 667.412319 97.201246 
L 681.531314 101.176811 
L 695.650309 104.585548 
L 709.769304 106.754209 
L 723.888299 107.471705 
L 738.007294 107.979411 
L 752.126288 106.439652 
L 766.245283 105.176378 
L 780.364278 104.814655 
L 794.483273 104.773276 
L 808.602268 104.387628 
L 822.721262 104.023495 
L 836.840257 103.5434 
L 850.959252 102.925259 
L 865.078247 101.177586 
L 879.197242 100.018411 
L 893.316237 98.406305 
L 907.435231 96.872461 
L 921.554226 94.405844 
L 935.673221 87.462158 
L 949.792216 65.387452 
" style="fill:none;stroke:#5cb85c;stroke-linecap:square;"/>
   </g>
   <g id="line2d_16">
    <path clip-path="url(#pc3c8109397)" d="M 81.474034 35.6728 
L 88.533532 35.77517 
L 95.593029 36.12754 
L 102.652526 36.452571 
L 109.712024 36.793666 
L 116.771521 37.111459 
L 123.831019 37.828263 
L 130.890516 38.720341 
L 137.950013 40.22699 
L 145.009511 43.089837 
L 159.128506 47.523941 
L 173.2475 51.551823 
L 187.366495 55.134106 
L 201.48549 58.141122 
L 215.604485 61.087249 
L 229.72348 64.574038 
L 243.842475 67.37847 
L 257.961469 69.588301 
L 272.080464 72.018384 
L 286.199459 74.111786 
L 300.318454 75.629752 
L 314.437449 76.289734 
L 328.556444 76.422588 
L 342.675438 76.326919 
L 356.794433 76.233882 
L 370.913428 77.378752 
L 385.032423 79.332906 
L 399.151418 81.184313 
L 413.270413 81.950464 
L 427.389407 82.159868 
L 441.508402 82.83766 
L 455.627397 83.738471 
L 469.746392 85.152565 
L 483.865387 86.639028 
L 497.984381 87.545141 
L 512.103376 87.942897 
L 526.222371 87.87782 
L 540.341366 89.190314 
L 554.460361 91.491175 
L 568.579356 94.560445 
L 582.69835 95.959941 
L 596.817345 96.312953 
L 610.93634 96.815171 
L 625.055335 97.775821 
L 639.17433 99.233502 
L 653.293325 101.479896 
L 667.412319 105.209947 
L 681.531314 109.65144 
L 695.650309 112.781183 
L 709.769304 114.464801 
L 723.888299 114.510695 
L 738.007294 114.574251 
L 752.126288 113.11181 
L 766.245283 112.185178 
L 780.364278 112.348926 
L 794.483273 112.135278 
L 808.602268 111.298495 
L 822.721262 109.636397 
L 836.840257 107.565328 
L 850.959252 105.40655 
L 865.078247 102.665017 
L 879.197242 100.775383 
L 893.316237 98.97122 
L 907.435231 97.117961 
L 921.554226 94.47887 
L 935.673221 88.215302 
L 949.792216 67.520125 
" style="fill:none;stroke:#f0ad4e;stroke-linecap:square;"/>
   </g>
   <g id="line2d_17">
    <path clip-path="url(#pc3c8109397)" d="M 81.474034 36.102074 
L 88.533532 36.199696 
L 95.593029 36.590693 
L 102.652526 37.069299 
L 109.712024 37.448247 
L 116.771521 37.79482 
L 123.831019 38.219652 
L 130.890516 38.845826 
L 137.950013 39.870929 
L 145.009511 41.839829 
L 159.128506 44.780728 
L 173.2475 47.257802 
L 187.366495 49.35454 
L 201.48549 50.781591 
L 215.604485 52.160573 
L 229.72348 54.389201 
L 243.842475 55.403665 
L 257.961469 56.467091 
L 272.080464 57.655881 
L 286.199459 58.934591 
L 300.318454 60.056922 
L 314.437449 60.497423 
L 328.556444 61.226062 
L 342.675438 62.055015 
L 356.794433 63.030387 
L 370.913428 64.353063 
L 385.032423 66.329097 
L 399.151418 67.845491 
L 413.270413 68.949553 
L 427.389407 69.629902 
L 441.508402 70.785866 
L 455.627397 72.089936 
L 469.746392 73.914855 
L 483.865387 75.709001 
L 497.984381 77.20891 
L 512.103376 78.229633 
L 526.222371 78.257552 
L 540.341366 79.691019 
L 554.460361 82.707757 
L 568.579356 86.863977 
L 582.69835 89.436554 
L 596.817345 91.012523 
L 610.93634 92.491888 
L 625.055335 94.11036 
L 639.17433 95.821231 
L 653.293325 97.674955 
L 667.412319 100.792042 
L 681.531314 104.722365 
L 695.650309 108.220358 
L 709.769304 110.798849 
L 723.888299 111.632902 
L 738.007294 111.835973 
L 752.126288 110.093206 
L 766.245283 108.578136 
L 780.364278 108.295286 
L 794.483273 108.387656 
L 808.602268 108.173882 
L 822.721262 107.767767 
L 836.840257 107.437361 
L 850.959252 106.591767 
L 865.078247 104.781944 
L 879.197242 103.616953 
L 893.316237 101.893245 
L 907.435231 100.062167 
L 921.554226 97.46982 
L 935.673221 90.31695 
L 949.792216 66.894021 
" style="fill:none;stroke:#f0ad4e;stroke-linecap:square;"/>
   </g>
   <g id="line2d_18">
    <path clip-path="url(#pc3c8109397)" d="M 81.474034 35.898045 
L 88.533532 36.121061 
L 95.593029 36.630221 
L 102.652526 37.198169 
L 109.712024 37.691028 
L 116.771521 38.211825 
L 123.831019 39.105175 
L 130.890516 40.317274 
L 137.950013 42.165686 
L 145.009511 45.52678 
L 159.128506 50.354194 
L 173.2475 54.054516 
L 187.366495 56.741879 
L 201.48549 58.598053 
L 215.604485 59.892837 
L 229.72348 61.110741 
L 243.842475 61.494977 
L 257.961469 61.923831 
L 272.080464 63.301799 
L 286.199459 64.840722 
L 300.318454 66.36235 
L 314.437449 66.919633 
L 328.556444 67.365826 
L 342.675438 68.023558 
L 356.794433 68.732141 
L 370.913428 70.102066 
L 385.032423 72.247624 
L 399.151418 73.745757 
L 413.270413 74.53997 
L 427.389407 74.982115 
L 441.508402 76.064718 
L 455.627397 77.316159 
L 469.746392 79.087783 
L 483.865387 80.836468 
L 497.984381 81.862275 
L 512.103376 82.224777 
L 526.222371 82.021818 
L 540.341366 83.381203 
L 554.460361 86.025132 
L 568.579356 89.293196 
L 582.69835 90.927309 
L 596.817345 91.813602 
L 610.93634 92.725165 
L 625.055335 94.02061 
L 639.17433 95.713339 
L 653.293325 98.092723 
L 667.412319 102.010151 
L 681.531314 106.449483 
L 695.650309 109.602788 
L 709.769304 111.163338 
L 723.888299 111.188506 
L 738.007294 110.882813 
L 752.126288 108.627489 
L 766.245283 106.922737 
L 780.364278 106.450915 
L 794.483273 106.398046 
L 808.602268 106.217029 
L 822.721262 105.823733 
L 836.840257 105.393045 
L 850.959252 104.631492 
L 865.078247 103.011101 
L 879.197242 101.710312 
L 893.316237 100.113446 
L 907.435231 98.331834 
L 921.554226 95.547832 
L 935.673221 88.746425 
L 949.792216 66.829444 
" style="fill:none;stroke:#f0ad4e;stroke-linecap:square;"/>
   </g>
   <g id="line2d_19">
    <path clip-path="url(#pc3c8109397)" d="M 38.058125 275.50206 
L 993.208125 275.50206 
" style="fill:none;stroke:#dedede;stroke-linecap:square;stroke-width:2;"/>
   </g>
   <g id="text_17">
    <!-- FastQC: Mean Quality Scores -->
    <g transform="translate(400.394375 19.3575)scale(0.16 -0.16)">
     <defs>
      <path d="M 9.8125 72.90625 
L 51.703125 72.90625 
L 51.703125 64.59375 
L 19.671875 64.59375 
L 19.671875 43.109375 
L 48.578125 43.109375 
L 48.578125 34.8125 
L 19.671875 34.8125 
L 19.671875 0 
L 9.8125 0 
z
" id="DejaVuSans-70"/>
      <path d="M 34.28125 27.484375 
Q 23.390625 27.484375 19.1875 25 
Q 14.984375 22.515625 14.984375 16.5 
Q 14.984375 11.71875 18.140625 8.90625 
Q 21.296875 6.109375 26.703125 6.109375 
Q 34.1875 6.109375 38.703125 11.40625 
Q 43.21875 16.703125 43.21875 25.484375 
L 43.21875 27.484375 
z
M 52.203125 31.203125 
L 52.203125 0 
L 43.21875 0 
L 43.21875 8.296875 
Q 40.140625 3.328125 35.546875 0.953125 
Q 30.953125 -1.421875 24.3125 -1.421875 
Q 15.921875 -1.421875 10.953125 3.296875 
Q 6 8.015625 6 15.921875 
Q 6 25.140625 12.171875 29.828125 
Q 18.359375 34.515625 30.609375 34.515625 
L 43.21875 34.515625 
L 43.21875 35.40625 
Q 43.21875 41.609375 39.140625 45 
Q 35.0625 48.390625 27.6875 48.390625 
Q 23 48.390625 18.546875 47.265625 
Q 14.109375 46.140625 10.015625 43.890625 
L 10.015625 52.203125 
Q 14.9375 54.109375 19.578125 55.046875 
Q 24.21875 56 28.609375 56 
Q 40.484375 56 46.34375 49.84375 
Q 52.203125 43.703125 52.203125 31.203125 
z
" id="DejaVuSans-97"/>
      <path d="M 39.40625 66.21875 
Q 28.65625 66.21875 22.328125 58.203125 
Q 16.015625 50.203125 16.015625 36.375 
Q 16.015625 22.609375 22.328125 14.59375 
Q 28.65625 6.59375 39.40625 6.59375 
Q 50.140625 6.59375 56.421875 14.59375 
Q 62.703125 22.609375 62.703125 36.375 
Q 62.703125 50.203125 56.421875 58.203125 
Q 50.140625 66.21875 39.40625 66.21875 
z
M 53.21875 1.3125 
L 66.21875 -12.890625 
L 54.296875 -12.890625 
L 43.5 -1.21875 
Q 41.890625 -1.3125 41.03125 -1.359375 
Q 40.1875 -1.421875 39.40625 -1.421875 
Q 24.03125 -1.421875 14.8125 8.859375 
Q 5.609375 19.140625 5.609375 36.375 
Q 5.609375 53.65625 14.8125 63.9375 
Q 24.03125 74.21875 39.40625 74.21875 
Q 54.734375 74.21875 63.90625 63.9375 
Q 73.09375 53.65625 73.09375 36.375 
Q 73.09375 23.6875 67.984375 14.640625 
Q 62.890625 5.609375 53.21875 1.3125 
z
" id="DejaVuSans-81"/>
      <path d="M 64.40625 67.28125 
L 64.40625 56.890625 
Q 59.421875 61.53125 53.78125 63.8125 
Q 48.140625 66.109375 41.796875 66.109375 
Q 29.296875 66.109375 22.65625 58.46875 
Q 16.015625 50.828125 16.015625 36.375 
Q 16.015625 21.96875 22.65625 14.328125 
Q 29.296875 6.6875 41.796875 6.6875 
Q 48.140625 6.6875 53.78125 8.984375 
Q 59.421875 11.28125 64.40625 15.921875 
L 64.40625 5.609375 
Q 59.234375 2.09375 53.4375 0.328125 
Q 47.65625 -1.421875 41.21875 -1.421875 
Q 24.65625 -1.421875 15.125 8.703125 
Q 5.609375 18.84375 5.609375 36.375 
Q 5.609375 53.953125 15.125 64.078125 
Q 24.65625 74.21875 41.21875 74.21875 
Q 47.75 74.21875 53.53125 72.484375 
Q 59.328125 70.75 64.40625 67.28125 
z
" id="DejaVuSans-67"/>
      <path d="M 11.71875 12.40625 
L 22.015625 12.40625 
L 22.015625 0 
L 11.71875 0 
z
M 11.71875 51.703125 
L 22.015625 51.703125 
L 22.015625 39.3125 
L 11.71875 39.3125 
z
" id="DejaVuSans-58"/>
      <path d="M 9.8125 72.90625 
L 24.515625 72.90625 
L 43.109375 23.296875 
L 61.8125 72.90625 
L 76.515625 72.90625 
L 76.515625 0 
L 66.890625 0 
L 66.890625 64.015625 
L 48.09375 14.015625 
L 38.1875 14.015625 
L 19.390625 64.015625 
L 19.390625 0 
L 9.8125 0 
z
" id="DejaVuSans-77"/>
      <path d="M 8.5 21.578125 
L 8.5 54.6875 
L 17.484375 54.6875 
L 17.484375 21.921875 
Q 17.484375 14.15625 20.5 10.265625 
Q 23.53125 6.390625 29.59375 6.390625 
Q 36.859375 6.390625 41.078125 11.03125 
Q 45.3125 15.671875 45.3125 23.6875 
L 45.3125 54.6875 
L 54.296875 54.6875 
L 54.296875 0 
L 45.3125 0 
L 45.3125 8.40625 
Q 42.046875 3.421875 37.71875 1 
Q 33.40625 -1.421875 27.6875 -1.421875 
Q 18.265625 -1.421875 13.375 4.4375 
Q 8.5 10.296875 8.5 21.578125 
z
M 31.109375 56 
z
" id="DejaVuSans-117"/>
      <path d="M 9.421875 75.984375 
L 18.40625 75.984375 
L 18.40625 0 
L 9.421875 0 
z
" id="DejaVuSans-108"/>
      <path d="M 32.171875 -5.078125 
Q 28.375 -14.84375 24.75 -17.8125 
Q 21.140625 -20.796875 15.09375 -20.796875 
L 7.90625 -20.796875 
L 7.90625 -13.28125 
L 13.1875 -13.28125 
Q 16.890625 -13.28125 18.9375 -11.515625 
Q 21 -9.765625 23.484375 -3.21875 
L 25.09375 0.875 
L 2.984375 54.6875 
L 12.5 54.6875 
L 29.59375 11.921875 
L 46.6875 54.6875 
L 56.203125 54.6875 
z
" id="DejaVuSans-121"/>
     </defs>
     <use xlink:href="#DejaVuSans-70"/>
     <use x="48.394531" xlink:href="#DejaVuSans-97"/>
     <use x="109.673828" xlink:href="#DejaVuSans-115"/>
     <use x="161.773438" xlink:href="#DejaVuSans-116"/>
     <use x="200.982422" xlink:href="#DejaVuSans-81"/>
     <use x="279.693359" xlink:href="#DejaVuSans-67"/>
     <use x="349.517578" xlink:href="#DejaVuSans-58"/>
     <use x="383.208984" xlink:href="#DejaVuSans-32"/>
     <use x="414.996094" xlink:href="#DejaVuSans-77"/>
     <use x="501.275391" xlink:href="#DejaVuSans-101"/>
     <use x="562.798828" xlink:href="#DejaVuSans-97"/>
     <use x="624.078125" xlink:href="#DejaVuSans-110"/>
     <use x="687.457031" xlink:href="#DejaVuSans-32"/>
     <use x="719.244141" xlink:href="#DejaVuSans-81"/>
     <use x="797.955078" xlink:href="#DejaVuSans-117"/>
     <use x="861.333984" xlink:href="#DejaVuSans-97"/>
     <use x="922.613281" xlink:href="#DejaVuSans-108"/>
     <use x="950.396484" xlink:href="#DejaVuSans-105"/>
     <use x="978.179688" xlink:href="#DejaVuSans-116"/>
     <use x="1017.388672" xlink:href="#DejaVuSans-121"/>
     <use x="1076.568359" xlink:href="#DejaVuSans-32"/>
     <use x="1108.355469" xlink:href="#DejaVuSans-83"/>
     <use x="1171.832031" xlink:href="#DejaVuSans-99"/>
     <use x="1226.8125" xlink:href="#DejaVuSans-111"/>
     <use x="1287.994141" xlink:href="#DejaVuSans-114"/>
     <use x="1326.857422" xlink:href="#DejaVuSans-101"/>
     <use x="1388.380859" xlink:href="#DejaVuSans-115"/>
    </g>
   </g>
   <g id="legend_1">
    <g id="line2d_20">
     <path d="M 45.258125 293.354194 
L 61.258125 293.354194 
" style="fill:none;stroke:#f0ad4e;stroke-linecap:square;"/>
    </g>
    <g id="line2d_21"/>
    <g id="text_18">
     <!-- RT_Gad2_1 -->
     <g transform="translate(67.658125 296.154194)scale(0.08 -0.08)">
      <defs>
       <path d="M 44.390625 34.1875 
Q 47.5625 33.109375 50.5625 29.59375 
Q 53.5625 26.078125 56.59375 19.921875 
L 66.609375 0 
L 56 0 
L 46.6875 18.703125 
Q 43.0625 26.03125 39.671875 28.421875 
Q 36.28125 30.8125 30.421875 30.8125 
L 19.671875 30.8125 
L 19.671875 0 
L 9.8125 0 
L 9.8125 72.90625 
L 32.078125 72.90625 
Q 44.578125 72.90625 50.734375 67.671875 
Q 56.890625 62.453125 56.890625 51.90625 
Q 56.890625 45.015625 53.6875 40.46875 
Q 50.484375 35.9375 44.390625 34.1875 
z
M 19.671875 64.796875 
L 19.671875 38.921875 
L 32.078125 38.921875 
Q 39.203125 38.921875 42.84375 42.21875 
Q 46.484375 45.515625 46.484375 51.90625 
Q 46.484375 58.296875 42.84375 61.546875 
Q 39.203125 64.796875 32.078125 64.796875 
z
" id="DejaVuSans-82"/>
       <path d="M -0.296875 72.90625 
L 61.375 72.90625 
L 61.375 64.59375 
L 35.5 64.59375 
L 35.5 0 
L 25.59375 0 
L 25.59375 64.59375 
L -0.296875 64.59375 
z
" id="DejaVuSans-84"/>
       <path d="M 50.984375 -16.609375 
L 50.984375 -23.578125 
L -0.984375 -23.578125 
L -0.984375 -16.609375 
z
" id="DejaVuSans-95"/>
       <path d="M 59.515625 10.40625 
L 59.515625 29.984375 
L 43.40625 29.984375 
L 43.40625 38.09375 
L 69.28125 38.09375 
L 69.28125 6.78125 
Q 63.578125 2.734375 56.6875 0.65625 
Q 49.8125 -1.421875 42 -1.421875 
Q 24.90625 -1.421875 15.25 8.5625 
Q 5.609375 18.5625 5.609375 36.375 
Q 5.609375 54.25 15.25 64.234375 
Q 24.90625 74.21875 42 74.21875 
Q 49.125 74.21875 55.546875 72.453125 
Q 61.96875 70.703125 67.390625 67.28125 
L 67.390625 56.78125 
Q 61.921875 61.421875 55.765625 63.765625 
Q 49.609375 66.109375 42.828125 66.109375 
Q 29.4375 66.109375 22.71875 58.640625 
Q 16.015625 51.171875 16.015625 36.375 
Q 16.015625 21.625 22.71875 14.15625 
Q 29.4375 6.6875 42.828125 6.6875 
Q 48.046875 6.6875 52.140625 7.59375 
Q 56.25 8.5 59.515625 10.40625 
z
" id="DejaVuSans-71"/>
      </defs>
      <use xlink:href="#DejaVuSans-82"/>
      <use x="62.232422" xlink:href="#DejaVuSans-84"/>
      <use x="123.316406" xlink:href="#DejaVuSans-95"/>
      <use x="173.316406" xlink:href="#DejaVuSans-71"/>
      <use x="250.806641" xlink:href="#DejaVuSans-97"/>
      <use x="312.085938" xlink:href="#DejaVuSans-100"/>
      <use x="375.5625" xlink:href="#DejaVuSans-50"/>
      <use x="439.185547" xlink:href="#DejaVuSans-95"/>
      <use x="489.185547" xlink:href="#DejaVuSans-49"/>
     </g>
    </g>
    <g id="line2d_22">
     <path d="M 45.258125 305.319194 
L 61.258125 305.319194 
" style="fill:none;stroke:#f0ad4e;stroke-linecap:square;"/>
    </g>
    <g id="line2d_23"/>
    <g id="text_19">
     <!-- RT_Gad2_2 -->
     <g transform="translate(67.658125 308.119194)scale(0.08 -0.08)">
      <use xlink:href="#DejaVuSans-82"/>
      <use x="62.232422" xlink:href="#DejaVuSans-84"/>
      <use x="123.316406" xlink:href="#DejaVuSans-95"/>
      <use x="173.316406" xlink:href="#DejaVuSans-71"/>
      <use x="250.806641" xlink:href="#DejaVuSans-97"/>
      <use x="312.085938" xlink:href="#DejaVuSans-100"/>
      <use x="375.5625" xlink:href="#DejaVuSans-50"/>
      <use x="439.185547" xlink:href="#DejaVuSans-95"/>
      <use x="489.185547" xlink:href="#DejaVuSans-50"/>
     </g>
    </g>
    <g id="line2d_24">
     <path d="M 45.258125 317.284194 
L 61.258125 317.284194 
" style="fill:none;stroke:#f0ad4e;stroke-linecap:square;"/>
    </g>
    <g id="line2d_25"/>
    <g id="text_20">
     <!-- RT_Gad2_3 -->
     <g transform="translate(67.658125 320.084194)scale(0.08 -0.08)">
      <use xlink:href="#DejaVuSans-82"/>
      <use x="62.232422" xlink:href="#DejaVuSans-84"/>
      <use x="123.316406" xlink:href="#DejaVuSans-95"/>
      <use x="173.316406" xlink:href="#DejaVuSans-71"/>
      <use x="250.806641" xlink:href="#DejaVuSans-97"/>
      <use x="312.085938" xlink:href="#DejaVuSans-100"/>
      <use x="375.5625" xlink:href="#DejaVuSans-50"/>
      <use x="439.185547" xlink:href="#DejaVuSans-95"/>
      <use x="489.185547" xlink:href="#DejaVuSans-51"/>
     </g>
    </g>
    <g id="line2d_26">
     <path d="M 258.362188 293.354194 
L 274.362188 293.354194 
" style="fill:none;stroke:#f0ad4e;stroke-linecap:square;"/>
    </g>
    <g id="line2d_27"/>
    <g id="text_21">
     <!-- RT_vGluT2_1 -->
     <g transform="translate(280.762187 296.154194)scale(0.08 -0.08)">
      <defs>
       <path d="M 2.984375 54.6875 
L 12.5 54.6875 
L 29.59375 8.796875 
L 46.6875 54.6875 
L 56.203125 54.6875 
L 35.6875 0 
L 23.484375 0 
z
" id="DejaVuSans-118"/>
      </defs>
      <use xlink:href="#DejaVuSans-82"/>
      <use x="62.232422" xlink:href="#DejaVuSans-84"/>
      <use x="123.316406" xlink:href="#DejaVuSans-95"/>
      <use x="173.316406" xlink:href="#DejaVuSans-118"/>
      <use x="232.496094" xlink:href="#DejaVuSans-71"/>
      <use x="309.986328" xlink:href="#DejaVuSans-108"/>
      <use x="337.769531" xlink:href="#DejaVuSans-117"/>
      <use x="401.148438" xlink:href="#DejaVuSans-84"/>
      <use x="462.232422" xlink:href="#DejaVuSans-50"/>
      <use x="525.855469" xlink:href="#DejaVuSans-95"/>
      <use x="575.855469" xlink:href="#DejaVuSans-49"/>
     </g>
    </g>
    <g id="line2d_28">
     <path d="M 258.362188 305.319194 
L 274.362188 305.319194 
" style="fill:none;stroke:#f0ad4e;stroke-linecap:square;"/>
    </g>
    <g id="line2d_29"/>
    <g id="text_22">
     <!-- RT_vGluT2_3 -->
     <g transform="translate(280.762187 308.119194)scale(0.08 -0.08)">
      <use xlink:href="#DejaVuSans-82"/>
      <use x="62.232422" xlink:href="#DejaVuSans-84"/>
      <use x="123.316406" xlink:href="#DejaVuSans-95"/>
      <use x="173.316406" xlink:href="#DejaVuSans-118"/>
      <use x="232.496094" xlink:href="#DejaVuSans-71"/>
      <use x="309.986328" xlink:href="#DejaVuSans-108"/>
      <use x="337.769531" xlink:href="#DejaVuSans-117"/>
      <use x="401.148438" xlink:href="#DejaVuSans-84"/>
      <use x="462.232422" xlink:href="#DejaVuSans-50"/>
      <use x="525.855469" xlink:href="#DejaVuSans-95"/>
      <use x="575.855469" xlink:href="#DejaVuSans-51"/>
     </g>
    </g>
    <g id="line2d_30">
     <path d="M 478.39875 293.354194 
L 494.39875 293.354194 
" style="fill:none;stroke:#5cb85c;stroke-linecap:square;"/>
    </g>
    <g id="line2d_31"/>
    <g id="text_23">
     <!-- S1_Gad2_1 -->
     <g transform="translate(500.79875 296.154194)scale(0.08 -0.08)">
      <use xlink:href="#DejaVuSans-83"/>
      <use x="63.476562" xlink:href="#DejaVuSans-49"/>
      <use x="127.099609" xlink:href="#DejaVuSans-95"/>
      <use x="177.099609" xlink:href="#DejaVuSans-71"/>
      <use x="254.589844" xlink:href="#DejaVuSans-97"/>
      <use x="315.869141" xlink:href="#DejaVuSans-100"/>
      <use x="379.345703" xlink:href="#DejaVuSans-50"/>
      <use x="442.96875" xlink:href="#DejaVuSans-95"/>
      <use x="492.96875" xlink:href="#DejaVuSans-49"/>
     </g>
    </g>
    <g id="line2d_32">
     <path d="M 478.39875 305.319194 
L 494.39875 305.319194 
" style="fill:none;stroke:#5cb85c;stroke-linecap:square;"/>
    </g>
    <g id="line2d_33"/>
    <g id="text_24">
     <!-- S1_Gad2_2 -->
     <g transform="translate(500.79875 308.119194)scale(0.08 -0.08)">
      <use xlink:href="#DejaVuSans-83"/>
      <use x="63.476562" xlink:href="#DejaVuSans-49"/>
      <use x="127.099609" xlink:href="#DejaVuSans-95"/>
      <use x="177.099609" xlink:href="#DejaVuSans-71"/>
      <use x="254.589844" xlink:href="#DejaVuSans-97"/>
      <use x="315.869141" xlink:href="#DejaVuSans-100"/>
      <use x="379.345703" xlink:href="#DejaVuSans-50"/>
      <use x="442.96875" xlink:href="#DejaVuSans-95"/>
      <use x="492.96875" xlink:href="#DejaVuSans-50"/>
     </g>
    </g>
    <g id="line2d_34">
     <path d="M 691.806562 293.354194 
L 707.806562 293.354194 
" style="fill:none;stroke:#5cb85c;stroke-linecap:square;"/>
    </g>
    <g id="line2d_35"/>
    <g id="text_25">
     <!-- S1_Gad2_3 -->
     <g transform="translate(714.206562 296.154194)scale(0.08 -0.08)">
      <use xlink:href="#DejaVuSans-83"/>
      <use x="63.476562" xlink:href="#DejaVuSans-49"/>
      <use x="127.099609" xlink:href="#DejaVuSans-95"/>
      <use x="177.099609" xlink:href="#DejaVuSans-71"/>
      <use x="254.589844" xlink:href="#DejaVuSans-97"/>
      <use x="315.869141" xlink:href="#DejaVuSans-100"/>
      <use x="379.345703" xlink:href="#DejaVuSans-50"/>
      <use x="442.96875" xlink:href="#DejaVuSans-95"/>
      <use x="492.96875" xlink:href="#DejaVuSans-51"/>
     </g>
    </g>
    <g id="line2d_36">
     <path d="M 691.806562 305.319194 
L 707.806562 305.319194 
" style="fill:none;stroke:#f0ad4e;stroke-linecap:square;"/>
    </g>
    <g id="line2d_37"/>
    <g id="text_26">
     <!-- S1_vGluT2_1 -->
     <g transform="translate(714.206562 308.119194)scale(0.08 -0.08)">
      <use xlink:href="#DejaVuSans-83"/>
      <use x="63.476562" xlink:href="#DejaVuSans-49"/>
      <use x="127.099609" xlink:href="#DejaVuSans-95"/>
      <use x="177.099609" xlink:href="#DejaVuSans-118"/>
      <use x="236.279297" xlink:href="#DejaVuSans-71"/>
      <use x="313.769531" xlink:href="#DejaVuSans-108"/>
      <use x="341.552734" xlink:href="#DejaVuSans-117"/>
      <use x="404.931641" xlink:href="#DejaVuSans-84"/>
      <use x="466.015625" xlink:href="#DejaVuSans-50"/>
      <use x="529.638672" xlink:href="#DejaVuSans-95"/>
      <use x="579.638672" xlink:href="#DejaVuSans-49"/>
     </g>
    </g>
    <g id="line2d_38">
     <path d="M 912.146875 293.354194 
L 928.146875 293.354194 
" style="fill:none;stroke:#f0ad4e;stroke-linecap:square;"/>
    </g>
    <g id="line2d_39"/>
    <g id="text_27">
     <!-- S1_vGluT2_2 -->
     <g transform="translate(934.546875 296.154194)scale(0.08 -0.08)">
      <use xlink:href="#DejaVuSans-83"/>
      <use x="63.476562" xlink:href="#DejaVuSans-49"/>
      <use x="127.099609" xlink:href="#DejaVuSans-95"/>
      <use x="177.099609" xlink:href="#DejaVuSans-118"/>
      <use x="236.279297" xlink:href="#DejaVuSans-71"/>
      <use x="313.769531" xlink:href="#DejaVuSans-108"/>
      <use x="341.552734" xlink:href="#DejaVuSans-117"/>
      <use x="404.931641" xlink:href="#DejaVuSans-84"/>
      <use x="466.015625" xlink:href="#DejaVuSans-50"/>
      <use x="529.638672" xlink:href="#DejaVuSans-95"/>
      <use x="579.638672" xlink:href="#DejaVuSans-50"/>
     </g>
    </g>
    <g id="line2d_40">
     <path d="M 912.146875 305.319194 
L 928.146875 305.319194 
" style="fill:none;stroke:#f0ad4e;stroke-linecap:square;"/>
    </g>
    <g id="line2d_41"/>
    <g id="text_28">
     <!-- S1_vGluT2_3 -->
     <g transform="translate(934.546875 308.119194)scale(0.08 -0.08)">
      <use xlink:href="#DejaVuSans-83"/>
      <use x="63.476562" xlink:href="#DejaVuSans-49"/>
      <use x="127.099609" xlink:href="#DejaVuSans-95"/>
      <use x="177.099609" xlink:href="#DejaVuSans-118"/>
      <use x="236.279297" xlink:href="#DejaVuSans-71"/>
      <use x="313.769531" xlink:href="#DejaVuSans-108"/>
      <use x="341.552734" xlink:href="#DejaVuSans-117"/>
      <use x="404.931641" xlink:href="#DejaVuSans-84"/>
      <use x="466.015625" xlink:href="#DejaVuSans-50"/>
      <use x="529.638672" xlink:href="#DejaVuSans-95"/>
      <use x="579.638672" xlink:href="#DejaVuSans-51"/>
     </g>
    </g>
   </g>
  </g>
 </g>
 <defs>
  <clipPath id="pc3c8109397">
   <rect height="243.9472" width="955.15" x="38.058125" y="31.55486"/>
  </clipPath>
 </defs>
</svg>
