<?xml version="1.0" encoding="utf-8" standalone="no"?>
<!DOCTYPE svg PUBLIC "-//W3C//DTD SVG 1.1//EN"
  "http://www.w3.org/Graphics/SVG/1.1/DTD/svg11.dtd">
<!-- Created with matplotlib (https://matplotlib.org/) -->
<svg height="332.370444pt" version="1.1" viewBox="0 0 1000.390625 332.370444" width="1000.390625pt" xmlns="http://www.w3.org/2000/svg" xmlns:xlink="http://www.w3.org/1999/xlink">
 <metadata>
  <rdf:RDF xmlns:cc="http://creativecommons.org/ns#" xmlns:dc="http://purl.org/dc/elements/1.1/" xmlns:rdf="http://www.w3.org/1999/02/22-rdf-syntax-ns#">
   <cc:Work>
    <dc:type rdf:resource="http://purl.org/dc/dcmitype/StillImage"/>
    <dc:date>2020-12-04T06:37:58.943649</dc:date>
    <dc:format>image/svg+xml</dc:format>
    <dc:creator>
     <cc:Agent>
      <dc:title>Matplotlib v3.3.1, https://matplotlib.org/</dc:title>
     </cc:Agent>
    </dc:creator>
   </cc:Work>
  </rdf:RDF>
 </metadata>
 <defs>
  <style type="text/css">*{stroke-linecap:butt;stroke-linejoin:round;}</style>
 </defs>
 <g id="figure_1">
  <g id="axes_1">
   <g id="patch_1">
    <path d="M 45.690625 275.50206 
L 993.190625 275.50206 
L 993.190625 31.55486 
L 45.690625 31.55486 
z
" style="fill:#ffffff;"/>
   </g>
   <g id="matplotlib.axis_1">
    <g id="xtick_1">
     <g id="text_1">
      <!-- 0 -->
      <g transform="translate(80.432843 288.58081)scale(0.08 -0.08)">
       <defs>
        <path d="M 31.78125 66.40625 
Q 24.171875 66.40625 20.328125 58.90625 
Q 16.5 51.421875 16.5 36.375 
Q 16.5 21.390625 20.328125 13.890625 
Q 24.171875 6.390625 31.78125 6.390625 
Q 39.453125 6.390625 43.28125 13.890625 
Q 47.125 21.390625 47.125 36.375 
Q 47.125 51.421875 43.28125 58.90625 
Q 39.453125 66.40625 31.78125 66.40625 
z
M 31.78125 74.21875 
Q 44.046875 74.21875 50.515625 64.515625 
Q 56.984375 54.828125 56.984375 36.375 
Q 56.984375 17.96875 50.515625 8.265625 
Q 44.046875 -1.421875 31.78125 -1.421875 
Q 19.53125 -1.421875 13.0625 8.265625 
Q 6.59375 17.96875 6.59375 36.375 
Q 6.59375 54.828125 13.0625 64.515625 
Q 19.53125 74.21875 31.78125 74.21875 
z
" id="DejaVuSans-48"/>
       </defs>
       <use xlink:href="#DejaVuSans-48"/>
      </g>
     </g>
    </g>
    <g id="xtick_2">
     <g id="text_2">
      <!-- 20 -->
      <g transform="translate(193.507123 288.58081)scale(0.08 -0.08)">
       <defs>
        <path d="M 19.1875 8.296875 
L 53.609375 8.296875 
L 53.609375 0 
L 7.328125 0 
L 7.328125 8.296875 
Q 12.9375 14.109375 22.625 23.890625 
Q 32.328125 33.6875 34.8125 36.53125 
Q 39.546875 41.84375 41.421875 45.53125 
Q 43.3125 49.21875 43.3125 52.78125 
Q 43.3125 58.59375 39.234375 62.25 
Q 35.15625 65.921875 28.609375 65.921875 
Q 23.96875 65.921875 18.8125 64.3125 
Q 13.671875 62.703125 7.8125 59.421875 
L 7.8125 69.390625 
Q 13.765625 71.78125 18.9375 73 
Q 24.125 74.21875 28.421875 74.21875 
Q 39.75 74.21875 46.484375 68.546875 
Q 53.21875 62.890625 53.21875 53.421875 
Q 53.21875 48.921875 51.53125 44.890625 
Q 49.859375 40.875 45.40625 35.40625 
Q 44.1875 33.984375 37.640625 27.21875 
Q 31.109375 20.453125 19.1875 8.296875 
z
" id="DejaVuSans-50"/>
       </defs>
       <use xlink:href="#DejaVuSans-50"/>
       <use x="63.623047" xlink:href="#DejaVuSans-48"/>
      </g>
     </g>
    </g>
    <g id="xtick_3">
     <g id="text_3">
      <!-- 40 -->
      <g transform="translate(309.126403 288.58081)scale(0.08 -0.08)">
       <defs>
        <path d="M 37.796875 64.3125 
L 12.890625 25.390625 
L 37.796875 25.390625 
z
M 35.203125 72.90625 
L 47.609375 72.90625 
L 47.609375 25.390625 
L 58.015625 25.390625 
L 58.015625 17.1875 
L 47.609375 17.1875 
L 47.609375 0 
L 37.796875 0 
L 37.796875 17.1875 
L 4.890625 17.1875 
L 4.890625 26.703125 
z
" id="DejaVuSans-52"/>
       </defs>
       <use xlink:href="#DejaVuSans-52"/>
       <use x="63.623047" xlink:href="#DejaVuSans-48"/>
      </g>
     </g>
    </g>
    <g id="xtick_4">
     <g id="text_4">
      <!-- 60 -->
      <g transform="translate(424.745683 288.58081)scale(0.08 -0.08)">
       <defs>
        <path d="M 33.015625 40.375 
Q 26.375 40.375 22.484375 35.828125 
Q 18.609375 31.296875 18.609375 23.390625 
Q 18.609375 15.53125 22.484375 10.953125 
Q 26.375 6.390625 33.015625 6.390625 
Q 39.65625 6.390625 43.53125 10.953125 
Q 47.40625 15.53125 47.40625 23.390625 
Q 47.40625 31.296875 43.53125 35.828125 
Q 39.65625 40.375 33.015625 40.375 
z
M 52.59375 71.296875 
L 52.59375 62.3125 
Q 48.875 64.0625 45.09375 64.984375 
Q 41.3125 65.921875 37.59375 65.921875 
Q 27.828125 65.921875 22.671875 59.328125 
Q 17.53125 52.734375 16.796875 39.40625 
Q 19.671875 43.65625 24.015625 45.921875 
Q 28.375 48.1875 33.59375 48.1875 
Q 44.578125 48.1875 50.953125 41.515625 
Q 57.328125 34.859375 57.328125 23.390625 
Q 57.328125 12.15625 50.6875 5.359375 
Q 44.046875 -1.421875 33.015625 -1.421875 
Q 20.359375 -1.421875 13.671875 8.265625 
Q 6.984375 17.96875 6.984375 36.375 
Q 6.984375 53.65625 15.1875 63.9375 
Q 23.390625 74.21875 37.203125 74.21875 
Q 40.921875 74.21875 44.703125 73.484375 
Q 48.484375 72.75 52.59375 71.296875 
z
" id="DejaVuSans-54"/>
       </defs>
       <use xlink:href="#DejaVuSans-54"/>
       <use x="63.623047" xlink:href="#DejaVuSans-48"/>
      </g>
     </g>
    </g>
    <g id="xtick_5">
     <g id="text_5">
      <!-- 80 -->
      <g transform="translate(540.364963 288.58081)scale(0.08 -0.08)">
       <defs>
        <path d="M 31.78125 34.625 
Q 24.75 34.625 20.71875 30.859375 
Q 16.703125 27.09375 16.703125 20.515625 
Q 16.703125 13.921875 20.71875 10.15625 
Q 24.75 6.390625 31.78125 6.390625 
Q 38.8125 6.390625 42.859375 10.171875 
Q 46.921875 13.96875 46.921875 20.515625 
Q 46.921875 27.09375 42.890625 30.859375 
Q 38.875 34.625 31.78125 34.625 
z
M 21.921875 38.8125 
Q 15.578125 40.375 12.03125 44.71875 
Q 8.5 49.078125 8.5 55.328125 
Q 8.5 64.0625 14.71875 69.140625 
Q 20.953125 74.21875 31.78125 74.21875 
Q 42.671875 74.21875 48.875 69.140625 
Q 55.078125 64.0625 55.078125 55.328125 
Q 55.078125 49.078125 51.53125 44.71875 
Q 48 40.375 41.703125 38.8125 
Q 48.828125 37.15625 52.796875 32.3125 
Q 56.78125 27.484375 56.78125 20.515625 
Q 56.78125 9.90625 50.3125 4.234375 
Q 43.84375 -1.421875 31.78125 -1.421875 
Q 19.734375 -1.421875 13.25 4.234375 
Q 6.78125 9.90625 6.78125 20.515625 
Q 6.78125 27.484375 10.78125 32.3125 
Q 14.796875 37.15625 21.921875 38.8125 
z
M 18.3125 54.390625 
Q 18.3125 48.734375 21.84375 45.5625 
Q 25.390625 42.390625 31.78125 42.390625 
Q 38.140625 42.390625 41.71875 45.5625 
Q 45.3125 48.734375 45.3125 54.390625 
Q 45.3125 60.0625 41.71875 63.234375 
Q 38.140625 66.40625 31.78125 66.40625 
Q 25.390625 66.40625 21.84375 63.234375 
Q 18.3125 60.0625 18.3125 54.390625 
z
" id="DejaVuSans-56"/>
       </defs>
       <use xlink:href="#DejaVuSans-56"/>
       <use x="63.623047" xlink:href="#DejaVuSans-48"/>
      </g>
     </g>
    </g>
    <g id="xtick_6">
     <g id="text_6">
      <!-- 100 -->
      <g transform="translate(653.439243 288.58081)scale(0.08 -0.08)">
       <defs>
        <path d="M 12.40625 8.296875 
L 28.515625 8.296875 
L 28.515625 63.921875 
L 10.984375 60.40625 
L 10.984375 69.390625 
L 28.421875 72.90625 
L 38.28125 72.90625 
L 38.28125 8.296875 
L 54.390625 8.296875 
L 54.390625 0 
L 12.40625 0 
z
" id="DejaVuSans-49"/>
       </defs>
       <use xlink:href="#DejaVuSans-49"/>
       <use x="63.623047" xlink:href="#DejaVuSans-48"/>
       <use x="127.246094" xlink:href="#DejaVuSans-48"/>
      </g>
     </g>
    </g>
    <g id="xtick_7">
     <g id="text_7">
      <!-- 120 -->
      <g transform="translate(769.058523 288.58081)scale(0.08 -0.08)">
       <use xlink:href="#DejaVuSans-49"/>
       <use x="63.623047" xlink:href="#DejaVuSans-50"/>
       <use x="127.246094" xlink:href="#DejaVuSans-48"/>
      </g>
     </g>
    </g>
    <g id="xtick_8">
     <g id="text_8">
      <!-- 140 -->
      <g transform="translate(884.677803 288.58081)scale(0.08 -0.08)">
       <use xlink:href="#DejaVuSans-49"/>
       <use x="63.623047" xlink:href="#DejaVuSans-52"/>
       <use x="127.246094" xlink:href="#DejaVuSans-48"/>
      </g>
     </g>
    </g>
    <g id="text_9">
     <!-- Position in read -->
     <g transform="translate(480.982813 301.842998)scale(0.1 -0.1)">
      <defs>
       <path d="M 19.671875 64.796875 
L 19.671875 37.40625 
L 32.078125 37.40625 
Q 38.96875 37.40625 42.71875 40.96875 
Q 46.484375 44.53125 46.484375 51.125 
Q 46.484375 57.671875 42.71875 61.234375 
Q 38.96875 64.796875 32.078125 64.796875 
z
M 9.8125 72.90625 
L 32.078125 72.90625 
Q 44.34375 72.90625 50.609375 67.359375 
Q 56.890625 61.8125 56.890625 51.125 
Q 56.890625 40.328125 50.609375 34.8125 
Q 44.34375 29.296875 32.078125 29.296875 
L 19.671875 29.296875 
L 19.671875 0 
L 9.8125 0 
z
" id="DejaVuSans-80"/>
       <path d="M 30.609375 48.390625 
Q 23.390625 48.390625 19.1875 42.75 
Q 14.984375 37.109375 14.984375 27.296875 
Q 14.984375 17.484375 19.15625 11.84375 
Q 23.34375 6.203125 30.609375 6.203125 
Q 37.796875 6.203125 41.984375 11.859375 
Q 46.1875 17.53125 46.1875 27.296875 
Q 46.1875 37.015625 41.984375 42.703125 
Q 37.796875 48.390625 30.609375 48.390625 
z
M 30.609375 56 
Q 42.328125 56 49.015625 48.375 
Q 55.71875 40.765625 55.71875 27.296875 
Q 55.71875 13.875 49.015625 6.21875 
Q 42.328125 -1.421875 30.609375 -1.421875 
Q 18.84375 -1.421875 12.171875 6.21875 
Q 5.515625 13.875 5.515625 27.296875 
Q 5.515625 40.765625 12.171875 48.375 
Q 18.84375 56 30.609375 56 
z
" id="DejaVuSans-111"/>
       <path d="M 44.28125 53.078125 
L 44.28125 44.578125 
Q 40.484375 46.53125 36.375 47.5 
Q 32.28125 48.484375 27.875 48.484375 
Q 21.1875 48.484375 17.84375 46.4375 
Q 14.5 44.390625 14.5 40.28125 
Q 14.5 37.15625 16.890625 35.375 
Q 19.28125 33.59375 26.515625 31.984375 
L 29.59375 31.296875 
Q 39.15625 29.25 43.1875 25.515625 
Q 47.21875 21.78125 47.21875 15.09375 
Q 47.21875 7.46875 41.1875 3.015625 
Q 35.15625 -1.421875 24.609375 -1.421875 
Q 20.21875 -1.421875 15.453125 -0.5625 
Q 10.6875 0.296875 5.421875 2 
L 5.421875 11.28125 
Q 10.40625 8.6875 15.234375 7.390625 
Q 20.0625 6.109375 24.8125 6.109375 
Q 31.15625 6.109375 34.5625 8.28125 
Q 37.984375 10.453125 37.984375 14.40625 
Q 37.984375 18.0625 35.515625 20.015625 
Q 33.0625 21.96875 24.703125 23.78125 
L 21.578125 24.515625 
Q 13.234375 26.265625 9.515625 29.90625 
Q 5.8125 33.546875 5.8125 39.890625 
Q 5.8125 47.609375 11.28125 51.796875 
Q 16.75 56 26.8125 56 
Q 31.78125 56 36.171875 55.265625 
Q 40.578125 54.546875 44.28125 53.078125 
z
" id="DejaVuSans-115"/>
       <path d="M 9.421875 54.6875 
L 18.40625 54.6875 
L 18.40625 0 
L 9.421875 0 
z
M 9.421875 75.984375 
L 18.40625 75.984375 
L 18.40625 64.59375 
L 9.421875 64.59375 
z
" id="DejaVuSans-105"/>
       <path d="M 18.3125 70.21875 
L 18.3125 54.6875 
L 36.8125 54.6875 
L 36.8125 47.703125 
L 18.3125 47.703125 
L 18.3125 18.015625 
Q 18.3125 11.328125 20.140625 9.421875 
Q 21.96875 7.515625 27.59375 7.515625 
L 36.8125 7.515625 
L 36.8125 0 
L 27.59375 0 
Q 17.1875 0 13.234375 3.875 
Q 9.28125 7.765625 9.28125 18.015625 
L 9.28125 47.703125 
L 2.6875 47.703125 
L 2.6875 54.6875 
L 9.28125 54.6875 
L 9.28125 70.21875 
z
" id="DejaVuSans-116"/>
       <path d="M 54.890625 33.015625 
L 54.890625 0 
L 45.90625 0 
L 45.90625 32.71875 
Q 45.90625 40.484375 42.875 44.328125 
Q 39.84375 48.1875 33.796875 48.1875 
Q 26.515625 48.1875 22.3125 43.546875 
Q 18.109375 38.921875 18.109375 30.90625 
L 18.109375 0 
L 9.078125 0 
L 9.078125 54.6875 
L 18.109375 54.6875 
L 18.109375 46.1875 
Q 21.34375 51.125 25.703125 53.5625 
Q 30.078125 56 35.796875 56 
Q 45.21875 56 50.046875 50.171875 
Q 54.890625 44.34375 54.890625 33.015625 
z
" id="DejaVuSans-110"/>
       <path id="DejaVuSans-32"/>
       <path d="M 41.109375 46.296875 
Q 39.59375 47.171875 37.8125 47.578125 
Q 36.03125 48 33.890625 48 
Q 26.265625 48 22.1875 43.046875 
Q 18.109375 38.09375 18.109375 28.8125 
L 18.109375 0 
L 9.078125 0 
L 9.078125 54.6875 
L 18.109375 54.6875 
L 18.109375 46.1875 
Q 20.953125 51.171875 25.484375 53.578125 
Q 30.03125 56 36.53125 56 
Q 37.453125 56 38.578125 55.875 
Q 39.703125 55.765625 41.0625 55.515625 
z
" id="DejaVuSans-114"/>
       <path d="M 56.203125 29.59375 
L 56.203125 25.203125 
L 14.890625 25.203125 
Q 15.484375 15.921875 20.484375 11.0625 
Q 25.484375 6.203125 34.421875 6.203125 
Q 39.59375 6.203125 44.453125 7.46875 
Q 49.3125 8.734375 54.109375 11.28125 
L 54.109375 2.78125 
Q 49.265625 0.734375 44.1875 -0.34375 
Q 39.109375 -1.421875 33.890625 -1.421875 
Q 20.796875 -1.421875 13.15625 6.1875 
Q 5.515625 13.8125 5.515625 26.8125 
Q 5.515625 40.234375 12.765625 48.109375 
Q 20.015625 56 32.328125 56 
Q 43.359375 56 49.78125 48.890625 
Q 56.203125 41.796875 56.203125 29.59375 
z
M 47.21875 32.234375 
Q 47.125 39.59375 43.09375 43.984375 
Q 39.0625 48.390625 32.421875 48.390625 
Q 24.90625 48.390625 20.390625 44.140625 
Q 15.875 39.890625 15.1875 32.171875 
z
" id="DejaVuSans-101"/>
       <path d="M 34.28125 27.484375 
Q 23.390625 27.484375 19.1875 25 
Q 14.984375 22.515625 14.984375 16.5 
Q 14.984375 11.71875 18.140625 8.90625 
Q 21.296875 6.109375 26.703125 6.109375 
Q 34.1875 6.109375 38.703125 11.40625 
Q 43.21875 16.703125 43.21875 25.484375 
L 43.21875 27.484375 
z
M 52.203125 31.203125 
L 52.203125 0 
L 43.21875 0 
L 43.21875 8.296875 
Q 40.140625 3.328125 35.546875 0.953125 
Q 30.953125 -1.421875 24.3125 -1.421875 
Q 15.921875 -1.421875 10.953125 3.296875 
Q 6 8.015625 6 15.921875 
Q 6 25.140625 12.171875 29.828125 
Q 18.359375 34.515625 30.609375 34.515625 
L 43.21875 34.515625 
L 43.21875 35.40625 
Q 43.21875 41.609375 39.140625 45 
Q 35.0625 48.390625 27.6875 48.390625 
Q 23 48.390625 18.546875 47.265625 
Q 14.109375 46.140625 10.015625 43.890625 
L 10.015625 52.203125 
Q 14.9375 54.109375 19.578125 55.046875 
Q 24.21875 56 28.609375 56 
Q 40.484375 56 46.34375 49.84375 
Q 52.203125 43.703125 52.203125 31.203125 
z
" id="DejaVuSans-97"/>
       <path d="M 45.40625 46.390625 
L 45.40625 75.984375 
L 54.390625 75.984375 
L 54.390625 0 
L 45.40625 0 
L 45.40625 8.203125 
Q 42.578125 3.328125 38.25 0.953125 
Q 33.9375 -1.421875 27.875 -1.421875 
Q 17.96875 -1.421875 11.734375 6.484375 
Q 5.515625 14.40625 5.515625 27.296875 
Q 5.515625 40.1875 11.734375 48.09375 
Q 17.96875 56 27.875 56 
Q 33.9375 56 38.25 53.625 
Q 42.578125 51.265625 45.40625 46.390625 
z
M 14.796875 27.296875 
Q 14.796875 17.390625 18.875 11.75 
Q 22.953125 6.109375 30.078125 6.109375 
Q 37.203125 6.109375 41.296875 11.75 
Q 45.40625 17.390625 45.40625 27.296875 
Q 45.40625 37.203125 41.296875 42.84375 
Q 37.203125 48.484375 30.078125 48.484375 
Q 22.953125 48.484375 18.875 42.84375 
Q 14.796875 37.203125 14.796875 27.296875 
z
" id="DejaVuSans-100"/>
      </defs>
      <use xlink:href="#DejaVuSans-80"/>
      <use x="56.677734" xlink:href="#DejaVuSans-111"/>
      <use x="117.859375" xlink:href="#DejaVuSans-115"/>
      <use x="169.958984" xlink:href="#DejaVuSans-105"/>
      <use x="197.742188" xlink:href="#DejaVuSans-116"/>
      <use x="236.951172" xlink:href="#DejaVuSans-105"/>
      <use x="264.734375" xlink:href="#DejaVuSans-111"/>
      <use x="325.916016" xlink:href="#DejaVuSans-110"/>
      <use x="389.294922" xlink:href="#DejaVuSans-32"/>
      <use x="421.082031" xlink:href="#DejaVuSans-105"/>
      <use x="448.865234" xlink:href="#DejaVuSans-110"/>
      <use x="512.244141" xlink:href="#DejaVuSans-32"/>
      <use x="544.03125" xlink:href="#DejaVuSans-114"/>
      <use x="582.894531" xlink:href="#DejaVuSans-101"/>
      <use x="644.417969" xlink:href="#DejaVuSans-97"/>
      <use x="705.697266" xlink:href="#DejaVuSans-100"/>
     </g>
    </g>
   </g>
   <g id="matplotlib.axis_2">
    <g id="ytick_1">
     <g id="line2d_1">
      <path clip-path="url(#p7388492a23)" d="M 45.690625 275.50206 
L 993.190625 275.50206 
" style="fill:none;stroke:#dedede;stroke-linecap:square;"/>
     </g>
     <g id="text_10">
      <!-- 0.00 -->
      <g transform="translate(20.878125 278.541435)scale(0.08 -0.08)">
       <defs>
        <path d="M 10.6875 12.40625 
L 21 12.40625 
L 21 0 
L 10.6875 0 
z
" id="DejaVuSans-46"/>
       </defs>
       <use xlink:href="#DejaVuSans-48"/>
       <use x="63.623047" xlink:href="#DejaVuSans-46"/>
       <use x="95.410156" xlink:href="#DejaVuSans-48"/>
       <use x="159.033203" xlink:href="#DejaVuSans-48"/>
      </g>
     </g>
    </g>
    <g id="ytick_2">
     <g id="line2d_2">
      <path clip-path="url(#p7388492a23)" d="M 45.690625 230.041546 
L 993.190625 230.041546 
" style="fill:none;stroke:#dedede;stroke-linecap:square;"/>
     </g>
     <g id="text_11">
      <!-- 0.05 -->
      <g transform="translate(20.878125 233.080921)scale(0.08 -0.08)">
       <defs>
        <path d="M 10.796875 72.90625 
L 49.515625 72.90625 
L 49.515625 64.59375 
L 19.828125 64.59375 
L 19.828125 46.734375 
Q 21.96875 47.46875 24.109375 47.828125 
Q 26.265625 48.1875 28.421875 48.1875 
Q 40.625 48.1875 47.75 41.5 
Q 54.890625 34.8125 54.890625 23.390625 
Q 54.890625 11.625 47.5625 5.09375 
Q 40.234375 -1.421875 26.90625 -1.421875 
Q 22.3125 -1.421875 17.546875 -0.640625 
Q 12.796875 0.140625 7.71875 1.703125 
L 7.71875 11.625 
Q 12.109375 9.234375 16.796875 8.0625 
Q 21.484375 6.890625 26.703125 6.890625 
Q 35.15625 6.890625 40.078125 11.328125 
Q 45.015625 15.765625 45.015625 23.390625 
Q 45.015625 31 40.078125 35.4375 
Q 35.15625 39.890625 26.703125 39.890625 
Q 22.75 39.890625 18.8125 39.015625 
Q 14.890625 38.140625 10.796875 36.28125 
z
" id="DejaVuSans-53"/>
       </defs>
       <use xlink:href="#DejaVuSans-48"/>
       <use x="63.623047" xlink:href="#DejaVuSans-46"/>
       <use x="95.410156" xlink:href="#DejaVuSans-48"/>
       <use x="159.033203" xlink:href="#DejaVuSans-53"/>
      </g>
     </g>
    </g>
    <g id="ytick_3">
     <g id="line2d_3">
      <path clip-path="url(#p7388492a23)" d="M 45.690625 184.581031 
L 993.190625 184.581031 
" style="fill:none;stroke:#dedede;stroke-linecap:square;"/>
     </g>
     <g id="text_12">
      <!-- 0.10 -->
      <g transform="translate(20.878125 187.620406)scale(0.08 -0.08)">
       <use xlink:href="#DejaVuSans-48"/>
       <use x="63.623047" xlink:href="#DejaVuSans-46"/>
       <use x="95.410156" xlink:href="#DejaVuSans-49"/>
       <use x="159.033203" xlink:href="#DejaVuSans-48"/>
      </g>
     </g>
    </g>
    <g id="ytick_4">
     <g id="line2d_4">
      <path clip-path="url(#p7388492a23)" d="M 45.690625 139.120517 
L 993.190625 139.120517 
" style="fill:none;stroke:#dedede;stroke-linecap:square;"/>
     </g>
     <g id="text_13">
      <!-- 0.15 -->
      <g transform="translate(20.878125 142.159892)scale(0.08 -0.08)">
       <use xlink:href="#DejaVuSans-48"/>
       <use x="63.623047" xlink:href="#DejaVuSans-46"/>
       <use x="95.410156" xlink:href="#DejaVuSans-49"/>
       <use x="159.033203" xlink:href="#DejaVuSans-53"/>
      </g>
     </g>
    </g>
    <g id="ytick_5">
     <g id="line2d_5">
      <path clip-path="url(#p7388492a23)" d="M 45.690625 93.660002 
L 993.190625 93.660002 
" style="fill:none;stroke:#dedede;stroke-linecap:square;"/>
     </g>
     <g id="text_14">
      <!-- 0.20 -->
      <g transform="translate(20.878125 96.699377)scale(0.08 -0.08)">
       <use xlink:href="#DejaVuSans-48"/>
       <use x="63.623047" xlink:href="#DejaVuSans-46"/>
       <use x="95.410156" xlink:href="#DejaVuSans-50"/>
       <use x="159.033203" xlink:href="#DejaVuSans-48"/>
      </g>
     </g>
    </g>
    <g id="ytick_6">
     <g id="line2d_6">
      <path clip-path="url(#p7388492a23)" d="M 45.690625 48.199488 
L 993.190625 48.199488 
" style="fill:none;stroke:#dedede;stroke-linecap:square;"/>
     </g>
     <g id="text_15">
      <!-- 0.25 -->
      <g transform="translate(20.878125 51.238863)scale(0.08 -0.08)">
       <use xlink:href="#DejaVuSans-48"/>
       <use x="63.623047" xlink:href="#DejaVuSans-46"/>
       <use x="95.410156" xlink:href="#DejaVuSans-50"/>
       <use x="159.033203" xlink:href="#DejaVuSans-53"/>
      </g>
     </g>
    </g>
    <g id="text_16">
     <!-- Percent converted % -->
     <g transform="translate(14.798438 205.544866)rotate(-90)scale(0.1 -0.1)">
      <defs>
       <path d="M 48.78125 52.59375 
L 48.78125 44.1875 
Q 44.96875 46.296875 41.140625 47.34375 
Q 37.3125 48.390625 33.40625 48.390625 
Q 24.65625 48.390625 19.8125 42.84375 
Q 14.984375 37.3125 14.984375 27.296875 
Q 14.984375 17.28125 19.8125 11.734375 
Q 24.65625 6.203125 33.40625 6.203125 
Q 37.3125 6.203125 41.140625 7.25 
Q 44.96875 8.296875 48.78125 10.40625 
L 48.78125 2.09375 
Q 45.015625 0.34375 40.984375 -0.53125 
Q 36.96875 -1.421875 32.421875 -1.421875 
Q 20.0625 -1.421875 12.78125 6.34375 
Q 5.515625 14.109375 5.515625 27.296875 
Q 5.515625 40.671875 12.859375 48.328125 
Q 20.21875 56 33.015625 56 
Q 37.15625 56 41.109375 55.140625 
Q 45.0625 54.296875 48.78125 52.59375 
z
" id="DejaVuSans-99"/>
       <path d="M 2.984375 54.6875 
L 12.5 54.6875 
L 29.59375 8.796875 
L 46.6875 54.6875 
L 56.203125 54.6875 
L 35.6875 0 
L 23.484375 0 
z
" id="DejaVuSans-118"/>
       <path d="M 72.703125 32.078125 
Q 68.453125 32.078125 66.03125 28.46875 
Q 63.625 24.859375 63.625 18.40625 
Q 63.625 12.0625 66.03125 8.421875 
Q 68.453125 4.78125 72.703125 4.78125 
Q 76.859375 4.78125 79.265625 8.421875 
Q 81.6875 12.0625 81.6875 18.40625 
Q 81.6875 24.8125 79.265625 28.4375 
Q 76.859375 32.078125 72.703125 32.078125 
z
M 72.703125 38.28125 
Q 80.421875 38.28125 84.953125 32.90625 
Q 89.5 27.546875 89.5 18.40625 
Q 89.5 9.28125 84.9375 3.921875 
Q 80.375 -1.421875 72.703125 -1.421875 
Q 64.890625 -1.421875 60.34375 3.921875 
Q 55.8125 9.28125 55.8125 18.40625 
Q 55.8125 27.59375 60.375 32.9375 
Q 64.9375 38.28125 72.703125 38.28125 
z
M 22.3125 68.015625 
Q 18.109375 68.015625 15.6875 64.375 
Q 13.28125 60.75 13.28125 54.390625 
Q 13.28125 47.953125 15.671875 44.328125 
Q 18.0625 40.71875 22.3125 40.71875 
Q 26.5625 40.71875 28.96875 44.328125 
Q 31.390625 47.953125 31.390625 54.390625 
Q 31.390625 60.6875 28.953125 64.34375 
Q 26.515625 68.015625 22.3125 68.015625 
z
M 66.40625 74.21875 
L 74.21875 74.21875 
L 28.609375 -1.421875 
L 20.796875 -1.421875 
z
M 22.3125 74.21875 
Q 30.03125 74.21875 34.609375 68.875 
Q 39.203125 63.53125 39.203125 54.390625 
Q 39.203125 45.171875 34.640625 39.84375 
Q 30.078125 34.515625 22.3125 34.515625 
Q 14.546875 34.515625 10.03125 39.859375 
Q 5.515625 45.21875 5.515625 54.390625 
Q 5.515625 63.484375 10.046875 68.84375 
Q 14.59375 74.21875 22.3125 74.21875 
z
" id="DejaVuSans-37"/>
      </defs>
      <use xlink:href="#DejaVuSans-80"/>
      <use x="56.677734" xlink:href="#DejaVuSans-101"/>
      <use x="118.201172" xlink:href="#DejaVuSans-114"/>
      <use x="157.064453" xlink:href="#DejaVuSans-99"/>
      <use x="212.044922" xlink:href="#DejaVuSans-101"/>
      <use x="273.568359" xlink:href="#DejaVuSans-110"/>
      <use x="336.947266" xlink:href="#DejaVuSans-116"/>
      <use x="376.15625" xlink:href="#DejaVuSans-32"/>
      <use x="407.943359" xlink:href="#DejaVuSans-99"/>
      <use x="462.923828" xlink:href="#DejaVuSans-111"/>
      <use x="524.105469" xlink:href="#DejaVuSans-110"/>
      <use x="587.484375" xlink:href="#DejaVuSans-118"/>
      <use x="646.664062" xlink:href="#DejaVuSans-101"/>
      <use x="708.1875" xlink:href="#DejaVuSans-114"/>
      <use x="749.300781" xlink:href="#DejaVuSans-116"/>
      <use x="788.509766" xlink:href="#DejaVuSans-101"/>
      <use x="850.033203" xlink:href="#DejaVuSans-100"/>
      <use x="913.509766" xlink:href="#DejaVuSans-32"/>
      <use x="945.296875" xlink:href="#DejaVuSans-37"/>
     </g>
    </g>
   </g>
   <g id="line2d_7">
    <path clip-path="url(#p7388492a23)" d="M 88.758807 275.50206 
L 94.539771 174.601302 
L 100.320735 188.283479 
L 106.101699 191.036858 
L 111.882663 179.387946 
L 117.663627 159.902493 
L 123.444591 168.459149 
L 129.225555 170.322975 
L 135.006519 166.171726 
L 140.787483 151.938874 
L 146.568447 169.433421 
L 152.349411 177.100523 
L 158.130375 182.395483 
L 163.911339 178.877559 
L 169.692303 166.928181 
L 181.254231 164.115213 
L 187.035195 179.523177 
L 192.816159 167.420674 
L 198.597123 180.615069 
L 204.378087 176.972118 
L 210.159051 162.367555 
L 215.940015 188.11739 
L 221.720979 176.486695 
L 227.501943 187.353724 
L 233.282907 173.876961 
L 239.063871 186.209522 
L 244.844835 178.598881 
L 250.625799 176.747947 
L 256.406763 153.580568 
L 262.187727 163.954127 
L 267.968691 188.211792 
L 273.749655 163.906029 
L 279.530619 166.793431 
L 285.311583 176.04687 
L 291.092547 161.937039 
L 296.873511 174.961656 
L 302.654475 179.399925 
L 308.435439 153.856322 
L 314.216403 161.587727 
L 319.997367 164.976824 
L 325.778331 155.782531 
L 331.559295 155.490534 
L 337.340259 186.844896 
L 343.121223 145.423036 
L 348.902187 178.913072 
L 354.683151 152.5702 
L 360.464115 157.372332 
L 366.245079 137.526369 
L 372.026043 179.813667 
L 377.807007 169.941304 
L 383.587971 153.868725 
L 389.368935 152.319453 
L 395.149899 195.687264 
L 400.930863 160.334668 
L 406.711827 155.980111 
L 412.492791 166.28942 
L 418.273755 149.213154 
L 424.054719 166.88115 
L 429.835683 146.324924 
L 435.616647 153.193951 
L 441.397611 121.172235 
L 447.178575 126.886341 
L 452.959539 93.345647 
L 458.740503 91.155434 
L 464.521467 109.247944 
L 470.302431 87.030863 
L 476.083395 109.177104 
L 481.864359 117.439798 
L 487.645323 112.642716 
L 493.426287 169.585352 
L 499.207251 140.832731 
L 504.988215 91.989764 
L 510.769179 104.855578 
L 516.550143 146.489526 
L 522.331107 163.408743 
L 528.112071 131.142641 
L 533.893035 100.767311 
L 539.673999 159.34088 
L 545.454963 145.25191 
L 551.235927 140.426099 
L 557.016891 150.884038 
L 562.797855 166.893471 
L 568.578819 142.338072 
L 574.359783 133.636224 
L 580.140747 161.698914 
L 585.921711 149.981734 
L 591.702675 170.155108 
L 597.483639 156.150407 
L 603.264603 138.475731 
L 609.045567 148.675634 
L 614.826531 191.069313 
L 620.607495 142.853454 
L 626.388459 173.276194 
L 632.169423 172.522614 
L 637.950387 157.032015 
L 643.731351 174.566817 
L 649.512315 177.552584 
L 655.293279 183.006037 
L 661.074243 189.169944 
L 666.855207 210.26822 
L 672.636171 194.395225 
L 678.417135 197.268887 
L 684.198099 202.009588 
L 689.979063 210.871132 
L 695.760027 182.779298 
L 701.540991 220.339262 
L 707.321955 193.284574 
L 713.102919 202.663813 
L 718.883883 201.27462 
L 724.664847 206.185807 
L 730.445811 212.102861 
L 736.226775 202.960488 
L 742.007739 199.795453 
L 747.788703 205.090544 
L 753.569667 191.207692 
L 759.350631 218.151522 
L 765.131595 210.574823 
L 770.912559 204.155249 
L 776.693523 197.487775 
L 782.474487 225.171806 
L 788.255451 208.143083 
L 794.036415 215.477062 
L 799.817379 249.008093 
L 805.598343 275.50206 
L 950.122443 275.50206 
L 950.122443 275.50206 
" style="fill:none;stroke:#7cb5ec;stroke-linecap:square;"/>
   </g>
   <g id="line2d_8">
    <path clip-path="url(#p7388492a23)" d="M 88.758807 275.50206 
L 94.539771 163.562443 
L 100.320735 150.456947 
L 106.101699 144.144088 
L 111.882663 171.062119 
L 117.663627 148.058061 
L 123.444591 141.871459 
L 129.225555 146.037946 
L 135.006519 155.481983 
L 140.787483 155.279971 
L 146.568447 160.330259 
L 152.349411 143.891574 
L 158.130375 160.759533 
L 163.911339 139.291954 
L 169.692303 149.564543 
L 175.473267 157.512767 
L 181.254231 163.890172 
L 187.035195 146.668604 
L 192.816159 151.58735 
L 198.597123 147.174065 
L 204.378087 162.748069 
L 210.159051 152.054394 
L 215.940015 166.166397 
L 221.720979 124.572387 
L 227.501943 146.816107 
L 233.282907 152.584498 
L 239.063871 150.994066 
L 244.844835 160.211998 
L 250.625799 151.695893 
L 256.406763 157.274523 
L 262.187727 157.863393 
L 267.968691 145.663914 
L 273.749655 167.875461 
L 279.530619 150.393287 
L 285.311583 139.515972 
L 291.092547 151.129608 
L 296.873511 129.897809 
L 302.654475 139.077066 
L 308.435439 145.205765 
L 314.216403 146.318875 
L 319.997367 137.886744 
L 325.778331 136.675202 
L 331.559295 146.490109 
L 337.340259 119.142128 
L 343.121223 130.886801 
L 348.902187 147.987866 
L 354.683151 138.214326 
L 360.464115 119.019226 
L 366.245079 122.257981 
L 372.026043 123.170571 
L 377.807007 127.757668 
L 383.587971 126.12777 
L 389.368935 153.60908 
L 395.149899 118.661498 
L 400.930863 140.574585 
L 406.711827 128.545561 
L 412.492791 134.825709 
L 418.273755 125.829679 
L 424.054719 115.78539 
L 429.835683 118.824776 
L 435.616647 67.73137 
L 441.397611 82.857735 
L 447.178575 77.114442 
L 452.959539 43.171393 
L 458.740503 71.280115 
L 464.521467 76.04656 
L 470.302431 86.969121 
L 476.083395 125.806103 
L 481.864359 85.817701 
L 487.645323 105.014752 
L 493.426287 111.752941 
L 499.207251 125.887311 
L 504.988215 122.626779 
L 510.769179 92.998314 
L 516.550143 84.340257 
L 522.331107 104.366941 
L 528.112071 99.190016 
L 533.893035 124.445306 
L 539.673999 130.196086 
L 545.454963 122.123175 
L 551.235927 112.202012 
L 557.016891 117.48199 
L 562.797855 135.860241 
L 568.578819 128.403402 
L 574.359783 118.89219 
L 580.140747 132.226267 
L 585.921711 119.210038 
L 591.702675 138.944785 
L 597.483639 127.856006 
L 603.264603 132.689824 
L 609.045567 140.540307 
L 614.826531 156.960046 
L 620.607495 155.65254 
L 626.388459 150.445525 
L 632.169423 144.3477 
L 643.731351 175.504619 
L 649.512315 179.646626 
L 655.293279 180.495463 
L 661.074243 184.714711 
L 666.855207 165.682021 
L 672.636171 179.291253 
L 678.417135 179.482715 
L 684.198099 171.689676 
L 689.979063 183.962681 
L 695.760027 171.423386 
L 701.540991 176.894374 
L 707.321955 204.070098 
L 713.102919 205.287769 
L 718.883883 187.330136 
L 724.664847 189.162307 
L 730.445811 197.82059 
L 736.226775 202.37097 
L 742.007739 183.472258 
L 747.788703 168.845131 
L 753.569667 167.109647 
L 759.350631 186.758245 
L 765.131595 181.82633 
L 770.912559 192.959274 
L 776.693523 209.988151 
L 782.474487 189.365782 
L 788.255451 190.098377 
L 794.036415 205.697844 
L 799.817379 238.336129 
L 805.598343 275.50206 
L 950.122443 275.50206 
L 950.122443 275.50206 
" style="fill:none;stroke:#434348;stroke-linecap:square;"/>
   </g>
   <g id="line2d_9">
    <path clip-path="url(#p7388492a23)" d="M 88.758807 275.50206 
L 94.539771 191.719644 
L 100.320735 163.966526 
L 106.101699 187.68898 
L 111.882663 161.320442 
L 117.663627 177.16618 
L 123.444591 162.52041 
L 129.225555 165.689558 
L 135.006519 189.781233 
L 140.787483 175.720064 
L 146.568447 164.735737 
L 152.349411 161.197368 
L 158.130375 194.91956 
L 163.911339 174.393497 
L 169.692303 179.681408 
L 175.473267 171.670461 
L 181.254231 165.560866 
L 187.035195 169.508307 
L 192.816159 179.052357 
L 198.597123 170.41188 
L 204.378087 178.188898 
L 210.159051 156.26973 
L 215.940015 180.081224 
L 221.720979 178.364109 
L 227.501943 180.729832 
L 233.282907 188.392657 
L 239.063871 167.535256 
L 244.844835 182.504882 
L 250.625799 184.760212 
L 256.406763 190.261511 
L 262.187727 184.478485 
L 267.968691 159.667773 
L 273.749655 172.878637 
L 279.530619 180.394869 
L 285.311583 172.344948 
L 291.092547 197.077181 
L 296.873511 192.250914 
L 302.654475 145.394449 
L 308.435439 188.550568 
L 314.216403 173.998685 
L 319.997367 161.608667 
L 325.778331 172.588869 
L 331.559295 153.847624 
L 337.340259 190.205721 
L 343.121223 160.13031 
L 348.902187 161.97189 
L 354.683151 168.52825 
L 360.464115 152.742611 
L 366.245079 153.333723 
L 372.026043 134.162448 
L 377.807007 163.906604 
L 383.587971 147.458768 
L 389.368935 138.678419 
L 395.149899 145.338675 
L 400.930863 166.185302 
L 406.711827 162.33031 
L 412.492791 133.474448 
L 418.273755 163.687042 
L 424.054719 148.805878 
L 429.835683 145.676698 
L 435.616647 110.499844 
L 441.397611 97.341256 
L 447.178575 103.148415 
L 452.959539 84.559024 
L 458.740503 113.444885 
L 464.521467 115.694963 
L 470.302431 119.596854 
L 476.083395 114.140149 
L 481.864359 107.349521 
L 487.645323 126.396555 
L 493.426287 124.381626 
L 499.207251 115.561221 
L 504.988215 148.136193 
L 510.769179 104.62291 
L 516.550143 119.17203 
L 522.331107 141.070682 
L 528.112071 139.058478 
L 533.893035 121.170673 
L 539.673999 138.209093 
L 545.454963 127.45435 
L 551.235927 146.223047 
L 557.016891 153.232551 
L 562.797855 139.317547 
L 568.578819 144.483733 
L 574.359783 152.524102 
L 580.140747 147.91979 
L 585.921711 168.791859 
L 591.702675 158.218149 
L 597.483639 137.590292 
L 603.264603 145.921938 
L 609.045567 178.601635 
L 614.826531 161.154342 
L 620.607495 169.874621 
L 626.388459 175.691203 
L 632.169423 168.757245 
L 637.950387 187.940054 
L 643.731351 191.16747 
L 649.512315 172.253274 
L 655.293279 188.920772 
L 661.074243 186.816014 
L 666.855207 198.168971 
L 672.636171 188.339037 
L 678.417135 189.159409 
L 684.198099 204.588156 
L 689.979063 204.559456 
L 695.760027 201.073972 
L 701.540991 188.831571 
L 707.321955 222.051863 
L 713.102919 205.152288 
L 718.883883 220.213232 
L 724.664847 209.826019 
L 730.445811 201.039834 
L 736.226775 206.24949 
L 742.007739 196.897584 
L 747.788703 183.374812 
L 753.569667 207.266526 
L 759.350631 190.487103 
L 765.131595 211.625657 
L 770.912559 192.395839 
L 776.693523 226.972482 
L 782.474487 207.212147 
L 788.255451 220.755574 
L 794.036415 225.543874 
L 799.817379 243.742172 
L 805.598343 275.50206 
L 950.122443 275.50206 
L 950.122443 275.50206 
" style="fill:none;stroke:#90ed7d;stroke-linecap:square;"/>
   </g>
   <g id="line2d_10">
    <path clip-path="url(#p7388492a23)" d="M 88.758807 275.50206 
L 94.539771 176.700992 
L 100.320735 182.433608 
L 106.101699 170.583636 
L 111.882663 185.434575 
L 117.663627 182.683689 
L 123.444591 177.489708 
L 129.225555 176.547096 
L 135.006519 182.54903 
L 140.787483 177.797499 
L 146.568447 192.340647 
L 152.349411 163.889171 
L 158.130375 177.893684 
L 163.911339 169.561701 
L 169.692303 171.269816 
L 175.473267 170.531015 
L 181.254231 165.861561 
L 187.035195 193.87879 
L 192.816159 182.071161 
L 198.597123 168.448925 
L 204.378087 179.756918 
L 210.159051 174.891106 
L 215.940015 180.223839 
L 221.720979 189.469062 
L 227.501943 166.191701 
L 233.282907 184.292588 
L 239.063871 187.215988 
L 244.844835 175.553282 
L 250.625799 170.239582 
L 256.406763 173.704962 
L 262.187727 163.343037 
L 267.968691 167.669345 
L 273.749655 173.027592 
L 279.530619 181.267318 
L 285.311583 186.030687 
L 291.092547 187.616703 
L 296.873511 159.805358 
L 302.654475 176.660085 
L 308.435439 170.373806 
L 314.216403 168.048984 
L 319.997367 170.597014 
L 325.778331 161.894421 
L 331.559295 171.521098 
L 337.340259 183.968395 
L 343.121223 174.288325 
L 348.902187 180.949504 
L 354.683151 164.48774 
L 360.464115 162.511694 
L 366.245079 148.48594 
L 372.026043 157.915821 
L 377.807007 156.268655 
L 383.587971 182.020276 
L 389.368935 162.372698 
L 395.149899 172.04421 
L 400.930863 170.299267 
L 406.711827 170.239818 
L 412.492791 170.85433 
L 418.273755 166.02792 
L 424.054719 166.518358 
L 429.835683 162.1516 
L 435.616647 122.923748 
L 441.397611 127.376736 
L 447.178575 121.457268 
L 452.959539 137.841497 
L 458.740503 140.311582 
L 464.521467 134.748387 
L 470.302431 140.261785 
L 476.083395 131.025791 
L 481.864359 141.846366 
L 487.645323 143.55689 
L 493.426287 148.551763 
L 499.207251 148.196716 
L 504.988215 141.531726 
L 510.769179 125.156532 
L 516.550143 140.332375 
L 522.331107 153.083212 
L 528.112071 153.569406 
L 533.893035 161.183082 
L 539.673999 161.132701 
L 545.454963 150.045254 
L 551.235927 142.102678 
L 557.016891 156.223138 
L 562.797855 147.015097 
L 568.578819 156.06215 
L 574.359783 176.035226 
L 580.140747 166.13215 
L 585.921711 163.296446 
L 591.702675 174.652689 
L 597.483639 182.002707 
L 603.264603 171.048737 
L 609.045567 182.621926 
L 614.826531 192.577977 
L 620.607495 175.948768 
L 626.388459 187.380569 
L 632.169423 169.33181 
L 637.950387 178.404113 
L 643.731351 201.234119 
L 649.512315 186.616284 
L 655.293279 203.627807 
L 661.074243 187.449751 
L 666.855207 190.444604 
L 672.636171 213.390458 
L 678.417135 207.05934 
L 684.198099 195.260455 
L 689.979063 199.796259 
L 695.760027 198.406066 
L 701.540991 210.32955 
L 707.321955 210.800684 
L 713.102919 202.256081 
L 718.883883 211.904919 
L 724.664847 210.62708 
L 730.445811 198.579629 
L 736.226775 198.88918 
L 742.007739 195.271446 
L 747.788703 190.634734 
L 753.569667 196.542289 
L 759.350631 196.878832 
L 765.131595 209.548859 
L 770.912559 202.226753 
L 776.693523 194.142836 
L 782.474487 219.053234 
L 788.255451 219.598638 
L 794.036415 217.776301 
L 799.817379 255.197859 
L 805.598343 275.50206 
L 950.122443 275.50206 
L 950.122443 275.50206 
" style="fill:none;stroke:#f7a35c;stroke-linecap:square;"/>
   </g>
   <g id="line2d_11">
    <path clip-path="url(#p7388492a23)" d="M 88.758807 275.50206 
L 94.539771 182.195642 
L 100.320735 188.293515 
L 106.101699 195.736506 
L 117.663627 196.812601 
L 123.444591 195.766398 
L 129.225555 196.633252 
L 135.006519 188.831562 
L 140.787483 195.407699 
L 146.568447 193.838394 
L 152.349411 196.2895 
L 158.130375 197.066679 
L 163.911339 187.738487 
L 169.692303 198.900022 
L 175.473267 185.277402 
L 181.254231 192.188749 
L 187.035195 193.714557 
L 192.816159 188.33843 
L 198.597123 193.064893 
L 204.378087 178.348192 
L 210.159051 182.172314 
L 215.940015 193.812573 
L 221.720979 171.269472 
L 227.501943 185.410964 
L 233.282907 185.720586 
L 239.063871 185.041993 
L 244.844835 196.593077 
L 250.625799 191.88316 
L 256.406763 177.660351 
L 262.187727 197.103688 
L 267.968691 190.602588 
L 273.749655 192.653851 
L 279.530619 208.692029 
L 285.311583 194.993093 
L 291.092547 193.579828 
L 296.873511 184.534913 
L 302.654475 195.502649 
L 308.435439 168.821067 
L 314.216403 188.565342 
L 319.997367 187.50078 
L 325.778331 177.993319 
L 331.559295 192.062939 
L 337.340259 186.503375 
L 343.121223 181.689057 
L 348.902187 183.719465 
L 354.683151 180.257701 
L 360.464115 190.744828 
L 366.245079 176.205947 
L 372.026043 172.421192 
L 377.807007 172.431215 
L 383.587971 171.549645 
L 389.368935 177.223559 
L 395.149899 189.321722 
L 400.930863 183.592622 
L 406.711827 187.628889 
L 412.492791 187.924377 
L 418.273755 183.264703 
L 424.054719 163.688907 
L 429.835683 170.049573 
L 435.616647 139.031885 
L 441.397611 150.278701 
L 447.178575 135.806502 
L 452.959539 115.356288 
L 458.740503 141.439456 
L 464.521467 131.96086 
L 470.302431 147.460041 
L 476.083395 156.713485 
L 481.864359 142.085515 
L 487.645323 140.29218 
L 493.426287 147.093477 
L 499.207251 148.206893 
L 504.988215 152.174425 
L 510.769179 140.786094 
L 516.550143 160.281261 
L 522.331107 149.657586 
L 528.112071 159.591204 
L 533.893035 173.740465 
L 539.673999 170.396757 
L 545.454963 151.54424 
L 551.235927 158.911301 
L 557.016891 170.627023 
L 562.797855 159.348032 
L 568.578819 147.824418 
L 574.359783 174.669614 
L 580.140747 161.867465 
L 585.921711 173.232581 
L 591.702675 172.400764 
L 597.483639 172.678589 
L 603.264603 159.144671 
L 609.045567 185.93766 
L 614.826531 179.755514 
L 626.388459 188.471629 
L 632.169423 177.575031 
L 637.950387 186.752687 
L 643.731351 189.190049 
L 649.512315 194.255561 
L 655.293279 185.625587 
L 661.074243 193.657859 
L 666.855207 200.535906 
L 672.636171 208.396634 
L 678.417135 202.278622 
L 684.198099 221.944742 
L 689.979063 221.315083 
L 695.760027 220.233078 
L 701.540991 215.703955 
L 707.321955 222.748327 
L 713.102919 218.424724 
L 718.883883 219.203664 
L 724.664847 225.923417 
L 730.445811 211.621529 
L 736.226775 211.30233 
L 742.007739 196.35042 
L 747.788703 210.138603 
L 753.569667 212.963032 
L 759.350631 206.966081 
L 765.131595 214.522973 
L 770.912559 206.620808 
L 776.693523 213.931213 
L 782.474487 216.276633 
L 788.255451 211.45944 
L 794.036415 226.923478 
L 799.817379 254.391033 
L 805.598343 275.50206 
L 950.122443 275.50206 
L 950.122443 275.50206 
" style="fill:none;stroke:#8085e9;stroke-linecap:square;"/>
   </g>
   <g id="line2d_12">
    <path clip-path="url(#p7388492a23)" d="M 88.758807 275.50206 
L 94.539771 246.003777 
L 100.320735 246.288098 
L 106.101699 235.412827 
L 111.882663 227.807246 
L 117.663627 243.160569 
L 123.444591 232.498539 
L 129.225555 224.537557 
L 135.006519 236.976592 
L 140.787483 236.692271 
L 146.568447 233.564742 
L 152.349411 234.915266 
L 158.130375 243.58705 
L 163.911339 225.175233 
L 169.692303 248.418154 
L 175.473267 231.922879 
L 181.254231 238.459575 
L 187.035195 231.839156 
L 192.816159 243.137013 
L 198.597123 230.38773 
L 204.378087 221.780587 
L 210.159051 239.975026 
L 215.940015 234.501789 
L 221.720979 224.080265 
L 227.501943 234.473393 
L 233.282907 242.026879 
L 239.063871 226.637301 
L 244.844835 233.843895 
L 250.625799 239.835418 
L 256.406763 237.991306 
L 262.187727 242.691756 
L 267.968691 234.555392 
L 273.749655 222.11765 
L 279.530619 214.925961 
L 285.311583 238.415223 
L 291.092547 231.677061 
L 296.873511 234.598081 
L 302.654475 224.199791 
L 308.435439 228.796364 
L 314.216403 225.146252 
L 319.997367 245.786914 
L 325.778331 238.261696 
L 331.559295 240.106798 
L 337.340259 233.786898 
L 343.121223 193.020802 
L 348.902187 212.647585 
L 354.683151 218.007731 
L 360.464115 209.674519 
L 366.245079 188.98091 
L 372.026043 223.260399 
L 377.807007 210.020692 
L 383.587971 214.59544 
L 389.368935 238.657515 
L 395.149899 227.775392 
L 400.930863 237.148974 
L 406.711827 239.0211 
L 412.492791 239.242307 
L 418.273755 234.320835 
L 424.054719 240.923484 
L 429.835683 192.460415 
L 435.616647 203.473824 
L 441.397611 189.419222 
L 447.178575 182.036347 
L 452.959539 174.325994 
L 458.740503 178.695909 
L 464.521467 203.145406 
L 470.302431 158.657347 
L 476.083395 203.34941 
L 481.864359 185.828291 
L 487.645323 189.291679 
L 493.426287 187.755649 
L 499.207251 205.856434 
L 504.988215 196.89362 
L 510.769179 194.669729 
L 516.550143 171.249201 
L 522.331107 179.550748 
L 528.112071 206.629808 
L 533.893035 201.080591 
L 539.673999 189.961493 
L 545.454963 227.976057 
L 551.235927 184.395018 
L 557.016891 228.616107 
L 562.797855 204.052278 
L 568.578819 221.585575 
L 574.359783 227.766378 
L 580.140747 224.51007 
L 585.921711 211.153271 
L 591.702675 217.111539 
L 597.483639 229.93972 
L 603.264603 203.258309 
L 609.045567 224.173882 
L 614.826531 218.813471 
L 620.607495 228.530132 
L 626.388459 222.408288 
L 632.169423 218.16006 
L 637.950387 209.584183 
L 643.731351 221.144506 
L 649.512315 228.38965 
L 655.293279 231.739574 
L 661.074243 222.937238 
L 666.855207 243.678233 
L 672.636171 254.410737 
L 678.417135 246.49735 
L 684.198099 245.020685 
L 689.979063 242.513047 
L 695.760027 238.668638 
L 701.540991 250.093208 
L 713.102919 252.707682 
L 718.883883 249.303823 
L 724.664847 233.7845 
L 730.445811 244.421726 
L 736.226775 238.3561 
L 742.007739 225.346557 
L 747.788703 233.195745 
L 753.569667 233.555228 
L 759.350631 241.028047 
L 765.131595 242.698087 
L 770.912559 229.551788 
L 776.693523 218.964386 
L 782.474487 248.485397 
L 788.255451 246.6048 
L 794.036415 245.097233 
L 799.817379 264.194799 
L 805.598343 275.50206 
L 950.122443 275.50206 
L 950.122443 275.50206 
" style="fill:none;stroke:#f15c80;stroke-linecap:square;"/>
   </g>
   <g id="line2d_13">
    <path clip-path="url(#p7388492a23)" d="M 88.758807 275.50206 
L 94.539771 231.47793 
L 100.320735 223.254421 
L 106.101699 231.974177 
L 111.882663 235.589685 
L 117.663627 230.769007 
L 123.444591 222.261929 
L 129.225555 242.324455 
L 135.006519 222.758175 
L 140.787483 233.108454 
L 146.568447 245.160148 
L 152.349411 210.210235 
L 158.130375 221.269436 
L 163.911339 221.621671 
L 169.692303 241.896743 
L 175.473267 247.919916 
L 181.254231 217.136338 
L 187.035195 238.472306 
L 192.816159 236.967901 
L 198.597123 232.191151 
L 204.378087 236.279221 
L 210.159051 220.664158 
L 215.940015 240.328881 
L 221.720979 245.639052 
L 227.501943 225.135239 
L 233.282907 226.444144 
L 239.063871 227.256603 
L 244.844835 236.081883 
L 250.625799 230.091361 
L 256.406763 222.425823 
L 262.187727 230.450459 
L 267.968691 240.372345 
L 273.749655 228.551943 
L 279.530619 230.103463 
L 285.311583 235.671044 
L 291.092547 239.658016 
L 296.873511 232.115004 
L 302.654475 232.986818 
L 308.435439 230.876846 
L 314.216403 227.592305 
L 319.997367 221.218752 
L 325.778331 213.861976 
L 331.559295 208.359871 
L 337.340259 222.720646 
L 343.121223 219.06667 
L 348.902187 224.703976 
L 354.683151 206.133072 
L 360.464115 224.169502 
L 366.245079 217.344842 
L 372.026043 203.164356 
L 377.807007 206.517801 
L 383.587971 225.776224 
L 389.368935 206.194703 
L 395.149899 208.676947 
L 400.930863 224.910127 
L 406.711827 223.806647 
L 412.492791 218.755079 
L 418.273755 205.395173 
L 424.054719 212.559945 
L 429.835683 210.495229 
L 435.616647 215.087534 
L 441.397611 171.950855 
L 447.178575 167.678608 
L 452.959539 181.065988 
L 458.740503 185.532404 
L 464.521467 134.76512 
L 470.302431 174.15974 
L 476.083395 170.230011 
L 481.864359 190.705538 
L 487.645323 202.172679 
L 493.426287 192.648933 
L 499.207251 196.699417 
L 504.988215 211.322773 
L 510.769179 204.097797 
L 516.550143 188.894275 
L 522.331107 178.423107 
L 528.112071 195.198087 
L 533.893035 214.672062 
L 539.673999 219.991595 
L 545.454963 218.038447 
L 551.235927 201.132841 
L 557.016891 242.759726 
L 562.797855 185.155372 
L 568.578819 233.715908 
L 574.359783 238.270748 
L 580.140747 214.105048 
L 585.921711 207.18941 
L 591.702675 217.208464 
L 597.483639 214.880049 
L 603.264603 188.028038 
L 609.045567 211.373801 
L 614.826531 212.813052 
L 620.607495 216.276559 
L 626.388459 200.297614 
L 632.169423 220.771087 
L 637.950387 226.480733 
L 643.731351 214.592513 
L 649.512315 224.263148 
L 655.293279 217.921421 
L 661.074243 230.146738 
L 666.855207 227.133954 
L 672.636171 231.785366 
L 678.417135 229.424928 
L 684.198099 251.705295 
L 689.979063 236.911917 
L 695.760027 232.344992 
L 701.540991 250.554803 
L 707.321955 251.712828 
L 713.102919 236.834809 
L 718.883883 240.736546 
L 724.664847 230.140056 
L 730.445811 238.420155 
L 736.226775 233.577833 
L 742.007739 234.977107 
L 747.788703 220.350205 
L 753.569667 222.024345 
L 759.350631 224.980678 
L 765.131595 221.117355 
L 770.912559 237.077586 
L 776.693523 239.263172 
L 782.474487 227.845732 
L 788.255451 232.025109 
L 794.036415 240.220757 
L 799.817379 259.723773 
L 805.598343 275.50206 
L 950.122443 275.50206 
L 950.122443 275.50206 
" style="fill:none;stroke:#e4d354;stroke-linecap:square;"/>
   </g>
   <g id="line2d_14">
    <path clip-path="url(#p7388492a23)" d="M 88.758807 275.50206 
L 94.539771 229.730384 
L 100.320735 245.557973 
L 106.101699 242.905782 
L 111.882663 224.169339 
L 117.663627 222.714912 
L 123.444591 238.71361 
L 129.225555 245.985745 
L 135.006519 239.055828 
L 140.787483 244.787982 
L 146.568447 235.719201 
L 152.349411 245.900191 
L 158.130375 240.59581 
L 163.911339 231.440521 
L 169.692303 241.705602 
L 175.473267 245.896569 
L 181.254231 239.902865 
L 187.035195 232.193942 
L 192.816159 245.968988 
L 198.597123 253.153968 
L 204.378087 230.864976 
L 210.159051 249.26841 
L 215.940015 228.833702 
L 221.720979 247.173874 
L 227.501943 235.732125 
L 233.282907 247.655911 
L 239.063871 230.700329 
L 244.844835 253.734007 
L 250.625799 255.181221 
L 256.406763 246.624312 
L 262.187727 233.905377 
L 267.968691 254.590861 
L 273.749655 242.709476 
L 279.530619 250.978834 
L 285.311583 240.702127 
L 291.092547 238.488677 
L 296.873511 224.167723 
L 302.654475 238.125689 
L 308.435439 235.979789 
L 314.216403 234.885682 
L 319.997367 236.496074 
L 325.778331 231.98271 
L 331.559295 234.551026 
L 337.340259 220.182182 
L 343.121223 243.837062 
L 348.902187 239.208174 
L 354.683151 230.68117 
L 360.464115 213.02747 
L 366.245079 226.724494 
L 372.026043 217.064678 
L 377.807007 205.69507 
L 383.587971 205.479582 
L 389.368935 220.675363 
L 395.149899 251.659695 
L 400.930863 229.792154 
L 406.711827 233.293404 
L 412.492791 239.940992 
L 418.273755 231.96595 
L 424.054719 224.425917 
L 429.835683 210.07138 
L 435.616647 210.858309 
L 441.397611 195.619497 
L 447.178575 189.753613 
L 452.959539 177.591078 
L 458.740503 151.663851 
L 464.521467 204.822576 
L 470.302431 191.298549 
L 476.083395 171.339004 
L 481.864359 201.917812 
L 487.645323 191.51461 
L 493.426287 230.725043 
L 499.207251 206.933885 
L 504.988215 195.244006 
L 510.769179 191.312814 
L 516.550143 224.001227 
L 522.331107 209.539651 
L 528.112071 182.066632 
L 533.893035 218.47043 
L 539.673999 211.813173 
L 545.454963 206.7468 
L 551.235927 232.544242 
L 557.016891 224.344462 
L 562.797855 209.131682 
L 568.578819 200.800382 
L 574.359783 198.085966 
L 580.140747 205.47557 
L 585.921711 186.761634 
L 591.702675 201.2148 
L 597.483639 209.771055 
L 603.264603 208.880903 
L 609.045567 210.212753 
L 614.826531 215.17506 
L 620.607495 225.604285 
L 626.388459 225.712848 
L 632.169423 218.905504 
L 637.950387 220.010016 
L 643.731351 216.770062 
L 649.512315 236.808037 
L 655.293279 231.018671 
L 661.074243 216.543728 
L 666.855207 230.011931 
L 672.636171 228.009736 
L 678.417135 228.760071 
L 684.198099 257.331555 
L 689.979063 242.306665 
L 695.760027 219.099899 
L 701.540991 245.624301 
L 707.321955 244.686117 
L 713.102919 222.349236 
L 718.883883 225.254283 
L 724.664847 251.246497 
L 730.445811 257.631538 
L 736.226775 253.780785 
L 742.007739 237.269517 
L 747.788703 218.401337 
L 753.569667 235.873914 
L 759.350631 214.944981 
L 765.131595 238.921953 
L 770.912559 236.670374 
L 776.693523 235.332012 
L 782.474487 226.61751 
L 788.255451 222.067858 
L 794.036415 239.861653 
L 799.817379 258.479337 
L 805.598343 275.50206 
L 950.122443 275.50206 
L 950.122443 275.50206 
" style="fill:none;stroke:#2b908f;stroke-linecap:square;"/>
   </g>
   <g id="line2d_15">
    <path clip-path="url(#p7388492a23)" d="M 88.758807 275.50206 
L 94.539771 217.415795 
L 100.320735 227.484803 
L 106.101699 199.71383 
L 111.882663 225.157021 
L 117.663627 217.686467 
L 123.444591 208.537745 
L 129.225555 216.766181 
L 135.006519 223.80366 
L 140.787483 227.21413 
L 146.568447 207.455056 
L 152.349411 195.924418 
L 158.130375 231.923827 
L 163.911339 228.186494 
L 169.692303 212.646088 
L 175.473267 217.889661 
L 181.254231 222.265581 
L 187.035195 217.971471 
L 192.816159 233.011065 
L 198.597123 194.914561 
L 204.378087 225.221238 
L 210.159051 217.905195 
L 215.940015 228.807378 
L 221.720979 219.020084 
L 227.501943 219.744623 
L 233.282907 228.628889 
L 239.063871 218.300155 
L 244.844835 217.938993 
L 250.625799 215.210768 
L 256.406763 224.851211 
L 262.187727 197.839084 
L 267.968691 213.675532 
L 273.749655 200.962943 
L 279.530619 219.365274 
L 285.311583 205.393994 
L 291.092547 207.16077 
L 296.873511 215.193218 
L 302.654475 194.769264 
L 308.435439 191.324905 
L 314.216403 215.499416 
L 325.778331 202.430597 
L 331.559295 201.667858 
L 337.340259 208.187999 
L 343.121223 196.968654 
L 348.902187 201.958476 
L 354.683151 202.005157 
L 360.464115 203.827304 
L 366.245079 198.26563 
L 372.026043 191.257273 
L 377.807007 183.863406 
L 383.587971 197.544096 
L 389.368935 195.346817 
L 395.149899 207.1019 
L 400.930863 181.126358 
L 406.711827 205.23433 
L 412.492791 206.759936 
L 418.273755 200.811034 
L 424.054719 201.886967 
L 435.616647 151.009551 
L 441.397611 196.849426 
L 447.178575 140.979606 
L 452.959539 166.401925 
L 458.740503 121.43771 
L 464.521467 140.895694 
L 470.302431 147.660024 
L 476.083395 172.843111 
L 481.864359 158.963572 
L 487.645323 186.837272 
L 493.426287 173.840286 
L 499.207251 188.35027 
L 504.988215 169.612122 
L 510.769179 147.138526 
L 516.550143 181.864941 
L 522.331107 203.699519 
L 528.112071 191.477008 
L 533.893035 166.250976 
L 539.673999 201.604316 
L 545.454963 173.563661 
L 551.235927 162.129214 
L 557.016891 202.863274 
L 562.797855 180.185267 
L 568.578819 198.117192 
L 574.359783 193.164054 
L 580.140747 193.420518 
L 585.921711 195.069161 
L 591.702675 209.815632 
L 597.483639 225.414113 
L 603.264603 194.581356 
L 609.045567 185.623725 
L 614.826531 207.841276 
L 620.607495 215.501001 
L 626.388459 187.297933 
L 632.169423 209.244252 
L 637.950387 223.576664 
L 643.731351 212.029469 
L 655.293279 218.073232 
L 661.074243 211.420336 
L 666.855207 212.47181 
L 672.636171 221.341272 
L 678.417135 232.372148 
L 684.198099 222.047243 
L 689.979063 217.858292 
L 695.760027 225.344922 
L 701.540991 234.229129 
L 707.321955 232.340742 
L 713.102919 224.539469 
L 718.883883 228.106526 
L 724.664847 238.972415 
L 730.445811 226.397305 
L 736.226775 230.994521 
L 742.007739 224.91188 
L 747.788703 215.920089 
L 753.569667 207.907334 
L 759.350631 217.890559 
L 765.131595 223.787174 
L 770.912559 207.367673 
L 776.693523 239.93903 
L 782.474487 243.232284 
L 788.255451 241.376017 
L 794.036415 240.669277 
L 799.817379 255.452763 
L 805.598343 275.50206 
L 950.122443 275.50206 
L 950.122443 275.50206 
" style="fill:none;stroke:#f45b5b;stroke-linecap:square;"/>
   </g>
   <g id="line2d_16">
    <path clip-path="url(#p7388492a23)" d="M 88.758807 275.50206 
L 94.539771 215.813544 
L 100.320735 209.249333 
L 106.101699 233.674302 
L 111.882663 207.722773 
L 117.663627 219.324633 
L 123.444591 225.736187 
L 129.225555 252.29834 
L 135.006519 212.45511 
L 140.787483 223.29369 
L 146.568447 213.218391 
L 152.349411 239.627888 
L 158.130375 239.322576 
L 163.911339 234.130394 
L 169.692303 204.05015 
L 175.473267 211.372197 
L 181.254231 219.150878 
L 187.035195 234.411641 
L 192.816159 217.284095 
L 198.597123 230.250833 
L 204.378087 184.933819 
L 210.159051 222.211151 
L 215.940015 186.604673 
L 221.720979 245.122477 
L 227.501943 215.451685 
L 233.282907 220.166163 
L 239.063871 234.266987 
L 244.844835 214.980645 
L 250.625799 238.351041 
L 256.406763 238.919897 
L 262.187727 227.567259 
L 267.968691 187.5352 
L 273.749655 236.727121 
L 279.530619 204.010679 
L 285.311583 226.462263 
L 291.092547 189.118507 
L 296.873511 221.780626 
L 302.654475 222.323453 
L 308.435439 226.000341 
L 314.216403 197.219371 
L 319.997367 218.7761 
L 325.778331 214.115196 
L 331.559295 223.611177 
L 337.340259 176.57901 
L 343.121223 206.634846 
L 348.902187 175.711229 
L 354.683151 225.086332 
L 360.464115 167.634325 
L 366.245079 212.111636 
L 372.026043 219.639014 
L 377.807007 188.870726 
L 383.587971 195.600812 
L 389.368935 226.848882 
L 395.149899 214.809162 
L 400.930863 223.595974 
L 406.711827 230.93126 
L 412.492791 198.357575 
L 418.273755 217.248972 
L 424.054719 210.266071 
L 429.835683 196.727228 
L 435.616647 170.018198 
L 441.397611 177.8166 
L 447.178575 186.288435 
L 452.959539 167.444995 
L 458.740503 169.833004 
L 464.521467 137.722075 
L 470.302431 183.37574 
L 476.083395 193.891779 
L 481.864359 200.298978 
L 487.645323 170.304203 
L 493.426287 159.437974 
L 499.207251 179.882115 
L 504.988215 178.060784 
L 510.769179 188.203006 
L 516.550143 180.457425 
L 522.331107 207.75804 
L 528.112071 215.824026 
L 533.893035 129.316265 
L 539.673999 195.095638 
L 545.454963 155.68824 
L 551.235927 204.43865 
L 557.016891 166.646356 
L 562.797855 223.250308 
L 568.578819 207.666851 
L 574.359783 221.528709 
L 580.140747 185.063253 
L 585.921711 216.563677 
L 591.702675 231.87944 
L 597.483639 212.6684 
L 603.264603 223.577895 
L 609.045567 214.79271 
L 614.826531 228.89488 
L 620.607495 212.061019 
L 626.388459 182.79079 
L 632.169423 218.231987 
L 637.950387 217.964652 
L 643.731351 218.306872 
L 649.512315 236.508493 
L 655.293279 223.507237 
L 661.074243 224.023017 
L 666.855207 217.821742 
L 672.636171 240.321782 
L 678.417135 215.00111 
L 684.198099 248.35018 
L 689.979063 242.690206 
L 695.760027 230.448074 
L 701.540991 253.152224 
L 707.321955 236.715862 
L 713.102919 226.443138 
L 718.883883 251.778118 
L 724.664847 251.313449 
L 730.445811 234.993594 
L 736.226775 228.39774 
L 742.007739 244.788955 
L 747.788703 233.081248 
L 753.569667 209.39165 
L 759.350631 228.417353 
L 765.131595 240.656072 
L 770.912559 232.775031 
L 776.693523 248.080134 
L 782.474487 236.714443 
L 788.255451 243.460657 
L 794.036415 236.47428 
L 799.817379 256.758646 
L 805.598343 275.50206 
L 950.122443 275.50206 
L 950.122443 275.50206 
" style="fill:none;stroke:#91e8e1;stroke-linecap:square;"/>
   </g>
   <g id="line2d_17">
    <path clip-path="url(#p7388492a23)" d="M 88.758807 275.50206 
L 94.539771 242.516129 
L 100.320735 221.098724 
L 106.101699 219.457244 
L 111.882663 228.446301 
L 117.663627 227.195649 
L 123.444591 241.343643 
L 129.225555 233.683403 
L 135.006519 226.257661 
L 140.787483 214.063809 
L 146.568447 229.618786 
L 152.349411 217.893929 
L 158.130375 234.308729 
L 163.911339 237.277613 
L 169.692303 229.380443 
L 175.473267 230.860687 
L 181.254231 245.163069 
L 187.035195 231.078576 
L 192.816159 219.328418 
L 198.597123 235.191269 
L 204.378087 242.19952 
L 210.159051 216.19617 
L 215.940015 225.551449 
L 221.720979 201.987095 
L 227.501943 221.902476 
L 233.282907 231.149263 
L 239.063871 240.727777 
L 244.844835 230.905921 
L 250.625799 235.36057 
L 256.406763 226.922399 
L 262.187727 220.102906 
L 267.968691 224.225506 
L 273.749655 214.845801 
L 279.530619 223.232018 
L 285.311583 233.198248 
L 291.092547 231.686816 
L 296.873511 213.194251 
L 302.654475 196.494212 
L 308.435439 204.564026 
L 314.216403 222.885072 
L 319.997367 210.959742 
L 325.778331 226.338409 
L 331.559295 209.499269 
L 337.340259 230.198285 
L 343.121223 218.984583 
L 348.902187 209.280051 
L 354.683151 217.862317 
L 360.464115 212.669538 
L 366.245079 225.876566 
L 372.026043 210.980753 
L 377.807007 217.343269 
L 383.587971 221.593819 
L 389.368935 207.509236 
L 395.149899 239.652694 
L 400.930863 206.311573 
L 406.711827 225.284514 
L 412.492791 206.770937 
L 418.273755 229.933466 
L 424.054719 220.066436 
L 429.835683 208.309108 
L 435.616647 184.086092 
L 441.397611 207.615893 
L 447.178575 172.629805 
L 452.959539 169.515567 
L 458.740503 145.561632 
L 464.521467 162.632854 
L 470.302431 201.682413 
L 476.083395 184.232961 
L 481.864359 197.503579 
L 487.645323 188.125129 
L 493.426287 212.621226 
L 499.207251 179.446196 
L 504.988215 194.900465 
L 510.769179 207.550619 
L 516.550143 194.274896 
L 522.331107 201.516116 
L 528.112071 181.484594 
L 533.893035 185.0297 
L 539.673999 177.444143 
L 545.454963 189.831929 
L 551.235927 230.366319 
L 557.016891 217.399359 
L 562.797855 213.9684 
L 568.578819 209.877504 
L 574.359783 217.36864 
L 580.140747 195.6551 
L 585.921711 214.304107 
L 591.702675 206.45909 
L 597.483639 191.845597 
L 603.264603 188.041738 
L 609.045567 223.513779 
L 614.826531 200.917855 
L 620.607495 222.692459 
L 626.388459 216.011316 
L 632.169423 217.868005 
L 637.950387 205.750089 
L 643.731351 236.094565 
L 649.512315 216.628467 
L 655.293279 222.79315 
L 661.074243 239.112302 
L 666.855207 244.068654 
L 672.636171 236.362232 
L 678.417135 220.544113 
L 684.198099 233.389214 
L 689.979063 231.840102 
L 695.760027 228.83204 
L 701.540991 227.234761 
L 707.321955 239.867077 
L 713.102919 235.809121 
L 718.883883 222.039625 
L 724.664847 227.75905 
L 730.445811 235.252494 
L 736.226775 226.408034 
L 742.007739 212.029926 
L 747.788703 247.053854 
L 753.569667 227.893166 
L 759.350631 232.569043 
L 765.131595 236.224367 
L 770.912559 247.41468 
L 776.693523 244.37031 
L 782.474487 237.440324 
L 788.255451 222.543296 
L 794.036415 230.837866 
L 799.817379 253.585789 
L 805.598343 275.50206 
L 950.122443 275.50206 
L 950.122443 275.50206 
" style="fill:none;stroke:#7cb5ec;stroke-linecap:square;"/>
   </g>
   <g id="line2d_18">
    <path clip-path="url(#p7388492a23)" d="M 45.690625 275.50206 
L 993.190625 275.50206 
" style="fill:none;stroke:#dedede;stroke-linecap:square;stroke-width:2;"/>
   </g>
   <g id="text_17">
    <!-- Slamdunk: T&gt;C conversions over reads -->
    <g transform="translate(361.698125 19.3575)scale(0.16 -0.16)">
     <defs>
      <path d="M 53.515625 70.515625 
L 53.515625 60.890625 
Q 47.90625 63.578125 42.921875 64.890625 
Q 37.9375 66.21875 33.296875 66.21875 
Q 25.25 66.21875 20.875 63.09375 
Q 16.5 59.96875 16.5 54.203125 
Q 16.5 49.359375 19.40625 46.890625 
Q 22.3125 44.4375 30.421875 42.921875 
L 36.375 41.703125 
Q 47.40625 39.59375 52.65625 34.296875 
Q 57.90625 29 57.90625 20.125 
Q 57.90625 9.515625 50.796875 4.046875 
Q 43.703125 -1.421875 29.984375 -1.421875 
Q 24.8125 -1.421875 18.96875 -0.25 
Q 13.140625 0.921875 6.890625 3.21875 
L 6.890625 13.375 
Q 12.890625 10.015625 18.65625 8.296875 
Q 24.421875 6.59375 29.984375 6.59375 
Q 38.421875 6.59375 43.015625 9.90625 
Q 47.609375 13.234375 47.609375 19.390625 
Q 47.609375 24.75 44.3125 27.78125 
Q 41.015625 30.8125 33.5 32.328125 
L 27.484375 33.5 
Q 16.453125 35.6875 11.515625 40.375 
Q 6.59375 45.0625 6.59375 53.421875 
Q 6.59375 63.09375 13.40625 68.65625 
Q 20.21875 74.21875 32.171875 74.21875 
Q 37.3125 74.21875 42.625 73.28125 
Q 47.953125 72.359375 53.515625 70.515625 
z
" id="DejaVuSans-83"/>
      <path d="M 9.421875 75.984375 
L 18.40625 75.984375 
L 18.40625 0 
L 9.421875 0 
z
" id="DejaVuSans-108"/>
      <path d="M 52 44.1875 
Q 55.375 50.25 60.0625 53.125 
Q 64.75 56 71.09375 56 
Q 79.640625 56 84.28125 50.015625 
Q 88.921875 44.046875 88.921875 33.015625 
L 88.921875 0 
L 79.890625 0 
L 79.890625 32.71875 
Q 79.890625 40.578125 77.09375 44.375 
Q 74.3125 48.1875 68.609375 48.1875 
Q 61.625 48.1875 57.5625 43.546875 
Q 53.515625 38.921875 53.515625 30.90625 
L 53.515625 0 
L 44.484375 0 
L 44.484375 32.71875 
Q 44.484375 40.625 41.703125 44.40625 
Q 38.921875 48.1875 33.109375 48.1875 
Q 26.21875 48.1875 22.15625 43.53125 
Q 18.109375 38.875 18.109375 30.90625 
L 18.109375 0 
L 9.078125 0 
L 9.078125 54.6875 
L 18.109375 54.6875 
L 18.109375 46.1875 
Q 21.1875 51.21875 25.484375 53.609375 
Q 29.78125 56 35.6875 56 
Q 41.65625 56 45.828125 52.96875 
Q 50 49.953125 52 44.1875 
z
" id="DejaVuSans-109"/>
      <path d="M 8.5 21.578125 
L 8.5 54.6875 
L 17.484375 54.6875 
L 17.484375 21.921875 
Q 17.484375 14.15625 20.5 10.265625 
Q 23.53125 6.390625 29.59375 6.390625 
Q 36.859375 6.390625 41.078125 11.03125 
Q 45.3125 15.671875 45.3125 23.6875 
L 45.3125 54.6875 
L 54.296875 54.6875 
L 54.296875 0 
L 45.3125 0 
L 45.3125 8.40625 
Q 42.046875 3.421875 37.71875 1 
Q 33.40625 -1.421875 27.6875 -1.421875 
Q 18.265625 -1.421875 13.375 4.4375 
Q 8.5 10.296875 8.5 21.578125 
z
M 31.109375 56 
z
" id="DejaVuSans-117"/>
      <path d="M 9.078125 75.984375 
L 18.109375 75.984375 
L 18.109375 31.109375 
L 44.921875 54.6875 
L 56.390625 54.6875 
L 27.390625 29.109375 
L 57.625 0 
L 45.90625 0 
L 18.109375 26.703125 
L 18.109375 0 
L 9.078125 0 
z
" id="DejaVuSans-107"/>
      <path d="M 11.71875 12.40625 
L 22.015625 12.40625 
L 22.015625 0 
L 11.71875 0 
z
M 11.71875 51.703125 
L 22.015625 51.703125 
L 22.015625 39.3125 
L 11.71875 39.3125 
z
" id="DejaVuSans-58"/>
      <path d="M -0.296875 72.90625 
L 61.375 72.90625 
L 61.375 64.59375 
L 35.5 64.59375 
L 35.5 0 
L 25.59375 0 
L 25.59375 64.59375 
L -0.296875 64.59375 
z
" id="DejaVuSans-84"/>
      <path d="M 10.59375 49.21875 
L 10.59375 58.109375 
L 73.1875 35.40625 
L 73.1875 27.296875 
L 10.59375 4.59375 
L 10.59375 13.484375 
L 60.890625 31.296875 
z
" id="DejaVuSans-62"/>
      <path d="M 64.40625 67.28125 
L 64.40625 56.890625 
Q 59.421875 61.53125 53.78125 63.8125 
Q 48.140625 66.109375 41.796875 66.109375 
Q 29.296875 66.109375 22.65625 58.46875 
Q 16.015625 50.828125 16.015625 36.375 
Q 16.015625 21.96875 22.65625 14.328125 
Q 29.296875 6.6875 41.796875 6.6875 
Q 48.140625 6.6875 53.78125 8.984375 
Q 59.421875 11.28125 64.40625 15.921875 
L 64.40625 5.609375 
Q 59.234375 2.09375 53.4375 0.328125 
Q 47.65625 -1.421875 41.21875 -1.421875 
Q 24.65625 -1.421875 15.125 8.703125 
Q 5.609375 18.84375 5.609375 36.375 
Q 5.609375 53.953125 15.125 64.078125 
Q 24.65625 74.21875 41.21875 74.21875 
Q 47.75 74.21875 53.53125 72.484375 
Q 59.328125 70.75 64.40625 67.28125 
z
" id="DejaVuSans-67"/>
     </defs>
     <use xlink:href="#DejaVuSans-83"/>
     <use x="63.476562" xlink:href="#DejaVuSans-108"/>
     <use x="91.259766" xlink:href="#DejaVuSans-97"/>
     <use x="152.539062" xlink:href="#DejaVuSans-109"/>
     <use x="249.951172" xlink:href="#DejaVuSans-100"/>
     <use x="313.427734" xlink:href="#DejaVuSans-117"/>
     <use x="376.806641" xlink:href="#DejaVuSans-110"/>
     <use x="440.185547" xlink:href="#DejaVuSans-107"/>
     <use x="498.095703" xlink:href="#DejaVuSans-58"/>
     <use x="531.787109" xlink:href="#DejaVuSans-32"/>
     <use x="563.574219" xlink:href="#DejaVuSans-84"/>
     <use x="624.658203" xlink:href="#DejaVuSans-62"/>
     <use x="708.447266" xlink:href="#DejaVuSans-67"/>
     <use x="778.271484" xlink:href="#DejaVuSans-32"/>
     <use x="810.058594" xlink:href="#DejaVuSans-99"/>
     <use x="865.039062" xlink:href="#DejaVuSans-111"/>
     <use x="926.220703" xlink:href="#DejaVuSans-110"/>
     <use x="989.599609" xlink:href="#DejaVuSans-118"/>
     <use x="1048.779297" xlink:href="#DejaVuSans-101"/>
     <use x="1110.302734" xlink:href="#DejaVuSans-114"/>
     <use x="1151.416016" xlink:href="#DejaVuSans-115"/>
     <use x="1203.515625" xlink:href="#DejaVuSans-105"/>
     <use x="1231.298828" xlink:href="#DejaVuSans-111"/>
     <use x="1292.480469" xlink:href="#DejaVuSans-110"/>
     <use x="1355.859375" xlink:href="#DejaVuSans-115"/>
     <use x="1407.958984" xlink:href="#DejaVuSans-32"/>
     <use x="1439.746094" xlink:href="#DejaVuSans-111"/>
     <use x="1500.927734" xlink:href="#DejaVuSans-118"/>
     <use x="1560.107422" xlink:href="#DejaVuSans-101"/>
     <use x="1621.630859" xlink:href="#DejaVuSans-114"/>
     <use x="1662.744141" xlink:href="#DejaVuSans-32"/>
     <use x="1694.53125" xlink:href="#DejaVuSans-114"/>
     <use x="1733.394531" xlink:href="#DejaVuSans-101"/>
     <use x="1794.917969" xlink:href="#DejaVuSans-97"/>
     <use x="1856.197266" xlink:href="#DejaVuSans-100"/>
     <use x="1919.673828" xlink:href="#DejaVuSans-115"/>
    </g>
   </g>
   <g id="legend_1">
    <g id="line2d_19">
     <path d="M 52.890625 293.354194 
L 68.890625 293.354194 
" style="fill:none;stroke:#7cb5ec;stroke-linecap:square;"/>
    </g>
    <g id="line2d_20"/>
    <g id="text_18">
     <!-- RT_Gad2_1 -->
     <g transform="translate(75.290625 296.154194)scale(0.08 -0.08)">
      <defs>
       <path d="M 44.390625 34.1875 
Q 47.5625 33.109375 50.5625 29.59375 
Q 53.5625 26.078125 56.59375 19.921875 
L 66.609375 0 
L 56 0 
L 46.6875 18.703125 
Q 43.0625 26.03125 39.671875 28.421875 
Q 36.28125 30.8125 30.421875 30.8125 
L 19.671875 30.8125 
L 19.671875 0 
L 9.8125 0 
L 9.8125 72.90625 
L 32.078125 72.90625 
Q 44.578125 72.90625 50.734375 67.671875 
Q 56.890625 62.453125 56.890625 51.90625 
Q 56.890625 45.015625 53.6875 40.46875 
Q 50.484375 35.9375 44.390625 34.1875 
z
M 19.671875 64.796875 
L 19.671875 38.921875 
L 32.078125 38.921875 
Q 39.203125 38.921875 42.84375 42.21875 
Q 46.484375 45.515625 46.484375 51.90625 
Q 46.484375 58.296875 42.84375 61.546875 
Q 39.203125 64.796875 32.078125 64.796875 
z
" id="DejaVuSans-82"/>
       <path d="M 50.984375 -16.609375 
L 50.984375 -23.578125 
L -0.984375 -23.578125 
L -0.984375 -16.609375 
z
" id="DejaVuSans-95"/>
       <path d="M 59.515625 10.40625 
L 59.515625 29.984375 
L 43.40625 29.984375 
L 43.40625 38.09375 
L 69.28125 38.09375 
L 69.28125 6.78125 
Q 63.578125 2.734375 56.6875 0.65625 
Q 49.8125 -1.421875 42 -1.421875 
Q 24.90625 -1.421875 15.25 8.5625 
Q 5.609375 18.5625 5.609375 36.375 
Q 5.609375 54.25 15.25 64.234375 
Q 24.90625 74.21875 42 74.21875 
Q 49.125 74.21875 55.546875 72.453125 
Q 61.96875 70.703125 67.390625 67.28125 
L 67.390625 56.78125 
Q 61.921875 61.421875 55.765625 63.765625 
Q 49.609375 66.109375 42.828125 66.109375 
Q 29.4375 66.109375 22.71875 58.640625 
Q 16.015625 51.171875 16.015625 36.375 
Q 16.015625 21.625 22.71875 14.15625 
Q 29.4375 6.6875 42.828125 6.6875 
Q 48.046875 6.6875 52.140625 7.59375 
Q 56.25 8.5 59.515625 10.40625 
z
" id="DejaVuSans-71"/>
      </defs>
      <use xlink:href="#DejaVuSans-82"/>
      <use x="62.232422" xlink:href="#DejaVuSans-84"/>
      <use x="123.316406" xlink:href="#DejaVuSans-95"/>
      <use x="173.316406" xlink:href="#DejaVuSans-71"/>
      <use x="250.806641" xlink:href="#DejaVuSans-97"/>
      <use x="312.085938" xlink:href="#DejaVuSans-100"/>
      <use x="375.5625" xlink:href="#DejaVuSans-50"/>
      <use x="439.185547" xlink:href="#DejaVuSans-95"/>
      <use x="489.185547" xlink:href="#DejaVuSans-49"/>
     </g>
    </g>
    <g id="line2d_21">
     <path d="M 52.890625 305.319194 
L 68.890625 305.319194 
" style="fill:none;stroke:#434348;stroke-linecap:square;"/>
    </g>
    <g id="line2d_22"/>
    <g id="text_19">
     <!-- RT_Gad2_2 -->
     <g transform="translate(75.290625 308.119194)scale(0.08 -0.08)">
      <use xlink:href="#DejaVuSans-82"/>
      <use x="62.232422" xlink:href="#DejaVuSans-84"/>
      <use x="123.316406" xlink:href="#DejaVuSans-95"/>
      <use x="173.316406" xlink:href="#DejaVuSans-71"/>
      <use x="250.806641" xlink:href="#DejaVuSans-97"/>
      <use x="312.085938" xlink:href="#DejaVuSans-100"/>
      <use x="375.5625" xlink:href="#DejaVuSans-50"/>
      <use x="439.185547" xlink:href="#DejaVuSans-95"/>
      <use x="489.185547" xlink:href="#DejaVuSans-50"/>
     </g>
    </g>
    <g id="line2d_23">
     <path d="M 52.890625 317.284194 
L 68.890625 317.284194 
" style="fill:none;stroke:#90ed7d;stroke-linecap:square;"/>
    </g>
    <g id="line2d_24"/>
    <g id="text_20">
     <!-- RT_Gad2_3 -->
     <g transform="translate(75.290625 320.084194)scale(0.08 -0.08)">
      <defs>
       <path d="M 40.578125 39.3125 
Q 47.65625 37.796875 51.625 33 
Q 55.609375 28.21875 55.609375 21.1875 
Q 55.609375 10.40625 48.1875 4.484375 
Q 40.765625 -1.421875 27.09375 -1.421875 
Q 22.515625 -1.421875 17.65625 -0.515625 
Q 12.796875 0.390625 7.625 2.203125 
L 7.625 11.71875 
Q 11.71875 9.328125 16.59375 8.109375 
Q 21.484375 6.890625 26.8125 6.890625 
Q 36.078125 6.890625 40.9375 10.546875 
Q 45.796875 14.203125 45.796875 21.1875 
Q 45.796875 27.640625 41.28125 31.265625 
Q 36.765625 34.90625 28.71875 34.90625 
L 20.21875 34.90625 
L 20.21875 43.015625 
L 29.109375 43.015625 
Q 36.375 43.015625 40.234375 45.921875 
Q 44.09375 48.828125 44.09375 54.296875 
Q 44.09375 59.90625 40.109375 62.90625 
Q 36.140625 65.921875 28.71875 65.921875 
Q 24.65625 65.921875 20.015625 65.03125 
Q 15.375 64.15625 9.8125 62.3125 
L 9.8125 71.09375 
Q 15.4375 72.65625 20.34375 73.4375 
Q 25.25 74.21875 29.59375 74.21875 
Q 40.828125 74.21875 47.359375 69.109375 
Q 53.90625 64.015625 53.90625 55.328125 
Q 53.90625 49.265625 50.4375 45.09375 
Q 46.96875 40.921875 40.578125 39.3125 
z
" id="DejaVuSans-51"/>
      </defs>
      <use xlink:href="#DejaVuSans-82"/>
      <use x="62.232422" xlink:href="#DejaVuSans-84"/>
      <use x="123.316406" xlink:href="#DejaVuSans-95"/>
      <use x="173.316406" xlink:href="#DejaVuSans-71"/>
      <use x="250.806641" xlink:href="#DejaVuSans-97"/>
      <use x="312.085938" xlink:href="#DejaVuSans-100"/>
      <use x="375.5625" xlink:href="#DejaVuSans-50"/>
      <use x="439.185547" xlink:href="#DejaVuSans-95"/>
      <use x="489.185547" xlink:href="#DejaVuSans-51"/>
     </g>
    </g>
    <g id="line2d_25">
     <path d="M 264.082188 293.354194 
L 280.082188 293.354194 
" style="fill:none;stroke:#f7a35c;stroke-linecap:square;"/>
    </g>
    <g id="line2d_26"/>
    <g id="text_21">
     <!-- RT_vGluT2_1 -->
     <g transform="translate(286.482188 296.154194)scale(0.08 -0.08)">
      <use xlink:href="#DejaVuSans-82"/>
      <use x="62.232422" xlink:href="#DejaVuSans-84"/>
      <use x="123.316406" xlink:href="#DejaVuSans-95"/>
      <use x="173.316406" xlink:href="#DejaVuSans-118"/>
      <use x="232.496094" xlink:href="#DejaVuSans-71"/>
      <use x="309.986328" xlink:href="#DejaVuSans-108"/>
      <use x="337.769531" xlink:href="#DejaVuSans-117"/>
      <use x="401.148438" xlink:href="#DejaVuSans-84"/>
      <use x="462.232422" xlink:href="#DejaVuSans-50"/>
      <use x="525.855469" xlink:href="#DejaVuSans-95"/>
      <use x="575.855469" xlink:href="#DejaVuSans-49"/>
     </g>
    </g>
    <g id="line2d_27">
     <path d="M 264.082188 305.319194 
L 280.082188 305.319194 
" style="fill:none;stroke:#8085e9;stroke-linecap:square;"/>
    </g>
    <g id="line2d_28"/>
    <g id="text_22">
     <!-- RT_vGluT2_3 -->
     <g transform="translate(286.482188 308.119194)scale(0.08 -0.08)">
      <use xlink:href="#DejaVuSans-82"/>
      <use x="62.232422" xlink:href="#DejaVuSans-84"/>
      <use x="123.316406" xlink:href="#DejaVuSans-95"/>
      <use x="173.316406" xlink:href="#DejaVuSans-118"/>
      <use x="232.496094" xlink:href="#DejaVuSans-71"/>
      <use x="309.986328" xlink:href="#DejaVuSans-108"/>
      <use x="337.769531" xlink:href="#DejaVuSans-117"/>
      <use x="401.148438" xlink:href="#DejaVuSans-84"/>
      <use x="462.232422" xlink:href="#DejaVuSans-50"/>
      <use x="525.855469" xlink:href="#DejaVuSans-95"/>
      <use x="575.855469" xlink:href="#DejaVuSans-51"/>
     </g>
    </g>
    <g id="line2d_29">
     <path d="M 482.20625 293.354194 
L 498.20625 293.354194 
" style="fill:none;stroke:#f15c80;stroke-linecap:square;"/>
    </g>
    <g id="line2d_30"/>
    <g id="text_23">
     <!-- S1_Gad2_1 -->
     <g transform="translate(504.60625 296.154194)scale(0.08 -0.08)">
      <use xlink:href="#DejaVuSans-83"/>
      <use x="63.476562" xlink:href="#DejaVuSans-49"/>
      <use x="127.099609" xlink:href="#DejaVuSans-95"/>
      <use x="177.099609" xlink:href="#DejaVuSans-71"/>
      <use x="254.589844" xlink:href="#DejaVuSans-97"/>
      <use x="315.869141" xlink:href="#DejaVuSans-100"/>
      <use x="379.345703" xlink:href="#DejaVuSans-50"/>
      <use x="442.96875" xlink:href="#DejaVuSans-95"/>
      <use x="492.96875" xlink:href="#DejaVuSans-49"/>
     </g>
    </g>
    <g id="line2d_31">
     <path d="M 482.20625 305.319194 
L 498.20625 305.319194 
" style="fill:none;stroke:#e4d354;stroke-linecap:square;"/>
    </g>
    <g id="line2d_32"/>
    <g id="text_24">
     <!-- S1_Gad2_2 -->
     <g transform="translate(504.60625 308.119194)scale(0.08 -0.08)">
      <use xlink:href="#DejaVuSans-83"/>
      <use x="63.476562" xlink:href="#DejaVuSans-49"/>
      <use x="127.099609" xlink:href="#DejaVuSans-95"/>
      <use x="177.099609" xlink:href="#DejaVuSans-71"/>
      <use x="254.589844" xlink:href="#DejaVuSans-97"/>
      <use x="315.869141" xlink:href="#DejaVuSans-100"/>
      <use x="379.345703" xlink:href="#DejaVuSans-50"/>
      <use x="442.96875" xlink:href="#DejaVuSans-95"/>
      <use x="492.96875" xlink:href="#DejaVuSans-50"/>
     </g>
    </g>
    <g id="line2d_33">
     <path d="M 693.701563 293.354194 
L 709.701563 293.354194 
" style="fill:none;stroke:#2b908f;stroke-linecap:square;"/>
    </g>
    <g id="line2d_34"/>
    <g id="text_25">
     <!-- S1_Gad2_3 -->
     <g transform="translate(716.101563 296.154194)scale(0.08 -0.08)">
      <use xlink:href="#DejaVuSans-83"/>
      <use x="63.476562" xlink:href="#DejaVuSans-49"/>
      <use x="127.099609" xlink:href="#DejaVuSans-95"/>
      <use x="177.099609" xlink:href="#DejaVuSans-71"/>
      <use x="254.589844" xlink:href="#DejaVuSans-97"/>
      <use x="315.869141" xlink:href="#DejaVuSans-100"/>
      <use x="379.345703" xlink:href="#DejaVuSans-50"/>
      <use x="442.96875" xlink:href="#DejaVuSans-95"/>
      <use x="492.96875" xlink:href="#DejaVuSans-51"/>
     </g>
    </g>
    <g id="line2d_35">
     <path d="M 693.701563 305.319194 
L 709.701563 305.319194 
" style="fill:none;stroke:#f45b5b;stroke-linecap:square;"/>
    </g>
    <g id="line2d_36"/>
    <g id="text_26">
     <!-- S1_vGluT2_1 -->
     <g transform="translate(716.101563 308.119194)scale(0.08 -0.08)">
      <use xlink:href="#DejaVuSans-83"/>
      <use x="63.476562" xlink:href="#DejaVuSans-49"/>
      <use x="127.099609" xlink:href="#DejaVuSans-95"/>
      <use x="177.099609" xlink:href="#DejaVuSans-118"/>
      <use x="236.279297" xlink:href="#DejaVuSans-71"/>
      <use x="313.769531" xlink:href="#DejaVuSans-108"/>
      <use x="341.552734" xlink:href="#DejaVuSans-117"/>
      <use x="404.931641" xlink:href="#DejaVuSans-84"/>
      <use x="466.015625" xlink:href="#DejaVuSans-50"/>
      <use x="529.638672" xlink:href="#DejaVuSans-95"/>
      <use x="579.638672" xlink:href="#DejaVuSans-49"/>
     </g>
    </g>
    <g id="line2d_37">
     <path d="M 912.129375 293.354194 
L 928.129375 293.354194 
" style="fill:none;stroke:#91e8e1;stroke-linecap:square;"/>
    </g>
    <g id="line2d_38"/>
    <g id="text_27">
     <!-- S1_vGluT2_2 -->
     <g transform="translate(934.529375 296.154194)scale(0.08 -0.08)">
      <use xlink:href="#DejaVuSans-83"/>
      <use x="63.476562" xlink:href="#DejaVuSans-49"/>
      <use x="127.099609" xlink:href="#DejaVuSans-95"/>
      <use x="177.099609" xlink:href="#DejaVuSans-118"/>
      <use x="236.279297" xlink:href="#DejaVuSans-71"/>
      <use x="313.769531" xlink:href="#DejaVuSans-108"/>
      <use x="341.552734" xlink:href="#DejaVuSans-117"/>
      <use x="404.931641" xlink:href="#DejaVuSans-84"/>
      <use x="466.015625" xlink:href="#DejaVuSans-50"/>
      <use x="529.638672" xlink:href="#DejaVuSans-95"/>
      <use x="579.638672" xlink:href="#DejaVuSans-50"/>
     </g>
    </g>
    <g id="line2d_39">
     <path d="M 912.129375 305.319194 
L 928.129375 305.319194 
" style="fill:none;stroke:#7cb5ec;stroke-linecap:square;"/>
    </g>
    <g id="line2d_40"/>
    <g id="text_28">
     <!-- S1_vGluT2_3 -->
     <g transform="translate(934.529375 308.119194)scale(0.08 -0.08)">
      <use xlink:href="#DejaVuSans-83"/>
      <use x="63.476562" xlink:href="#DejaVuSans-49"/>
      <use x="127.099609" xlink:href="#DejaVuSans-95"/>
      <use x="177.099609" xlink:href="#DejaVuSans-118"/>
      <use x="236.279297" xlink:href="#DejaVuSans-71"/>
      <use x="313.769531" xlink:href="#DejaVuSans-108"/>
      <use x="341.552734" xlink:href="#DejaVuSans-117"/>
      <use x="404.931641" xlink:href="#DejaVuSans-84"/>
      <use x="466.015625" xlink:href="#DejaVuSans-50"/>
      <use x="529.638672" xlink:href="#DejaVuSans-95"/>
      <use x="579.638672" xlink:href="#DejaVuSans-51"/>
     </g>
    </g>
   </g>
  </g>
 </g>
 <defs>
  <clipPath id="p7388492a23">
   <rect height="243.9472" width="947.5" x="45.690625" y="31.55486"/>
  </clipPath>
 </defs>
</svg>
