<?xml version="1.0" encoding="utf-8" standalone="no"?>
<!DOCTYPE svg PUBLIC "-//W3C//DTD SVG 1.1//EN"
  "http://www.w3.org/Graphics/SVG/1.1/DTD/svg11.dtd">
<!-- Created with matplotlib (https://matplotlib.org/) -->
<svg height="332.370444pt" version="1.1" viewBox="0 0 1000.683125 332.370444" width="1000.683125pt" xmlns="http://www.w3.org/2000/svg" xmlns:xlink="http://www.w3.org/1999/xlink">
 <metadata>
  <rdf:RDF xmlns:cc="http://creativecommons.org/ns#" xmlns:dc="http://purl.org/dc/elements/1.1/" xmlns:rdf="http://www.w3.org/1999/02/22-rdf-syntax-ns#">
   <cc:Work>
    <dc:type rdf:resource="http://purl.org/dc/dcmitype/StillImage"/>
    <dc:date>2020-12-04T06:38:09.766442</dc:date>
    <dc:format>image/svg+xml</dc:format>
    <dc:creator>
     <cc:Agent>
      <dc:title>Matplotlib v3.3.1, https://matplotlib.org/</dc:title>
     </cc:Agent>
    </dc:creator>
   </cc:Work>
  </rdf:RDF>
 </metadata>
 <defs>
  <style type="text/css">*{stroke-linecap:butt;stroke-linejoin:round;}</style>
 </defs>
 <g id="figure_1">
  <g id="axes_1">
   <g id="patch_1">
    <path d="M 58.418125 275.50206 
L 985.848125 275.50206 
L 985.848125 31.55486 
L 58.418125 31.55486 
z
" style="fill:#ffffff;"/>
   </g>
   <g id="matplotlib.axis_1">
    <g id="xtick_1">
     <g id="text_1">
      <!-- 0 -->
      <g transform="translate(55.873125 288.58081)scale(0.08 -0.08)">
       <defs>
        <path d="M 31.78125 66.40625 
Q 24.171875 66.40625 20.328125 58.90625 
Q 16.5 51.421875 16.5 36.375 
Q 16.5 21.390625 20.328125 13.890625 
Q 24.171875 6.390625 31.78125 6.390625 
Q 39.453125 6.390625 43.28125 13.890625 
Q 47.125 21.390625 47.125 36.375 
Q 47.125 51.421875 43.28125 58.90625 
Q 39.453125 66.40625 31.78125 66.40625 
z
M 31.78125 74.21875 
Q 44.046875 74.21875 50.515625 64.515625 
Q 56.984375 54.828125 56.984375 36.375 
Q 56.984375 17.96875 50.515625 8.265625 
Q 44.046875 -1.421875 31.78125 -1.421875 
Q 19.53125 -1.421875 13.0625 8.265625 
Q 6.59375 17.96875 6.59375 36.375 
Q 6.59375 54.828125 13.0625 64.515625 
Q 19.53125 74.21875 31.78125 74.21875 
z
" id="DejaVuSans-48"/>
       </defs>
       <use xlink:href="#DejaVuSans-48"/>
      </g>
     </g>
    </g>
    <g id="xtick_2">
     <g id="text_2">
      <!-- 20 -->
      <g transform="translate(238.814125 288.58081)scale(0.08 -0.08)">
       <defs>
        <path d="M 19.1875 8.296875 
L 53.609375 8.296875 
L 53.609375 0 
L 7.328125 0 
L 7.328125 8.296875 
Q 12.9375 14.109375 22.625 23.890625 
Q 32.328125 33.6875 34.8125 36.53125 
Q 39.546875 41.84375 41.421875 45.53125 
Q 43.3125 49.21875 43.3125 52.78125 
Q 43.3125 58.59375 39.234375 62.25 
Q 35.15625 65.921875 28.609375 65.921875 
Q 23.96875 65.921875 18.8125 64.3125 
Q 13.671875 62.703125 7.8125 59.421875 
L 7.8125 69.390625 
Q 13.765625 71.78125 18.9375 73 
Q 24.125 74.21875 28.421875 74.21875 
Q 39.75 74.21875 46.484375 68.546875 
Q 53.21875 62.890625 53.21875 53.421875 
Q 53.21875 48.921875 51.53125 44.890625 
Q 49.859375 40.875 45.40625 35.40625 
Q 44.1875 33.984375 37.640625 27.21875 
Q 31.109375 20.453125 19.1875 8.296875 
z
" id="DejaVuSans-50"/>
       </defs>
       <use xlink:href="#DejaVuSans-50"/>
       <use x="63.623047" xlink:href="#DejaVuSans-48"/>
      </g>
     </g>
    </g>
    <g id="xtick_3">
     <g id="text_3">
      <!-- 40 -->
      <g transform="translate(424.300125 288.58081)scale(0.08 -0.08)">
       <defs>
        <path d="M 37.796875 64.3125 
L 12.890625 25.390625 
L 37.796875 25.390625 
z
M 35.203125 72.90625 
L 47.609375 72.90625 
L 47.609375 25.390625 
L 58.015625 25.390625 
L 58.015625 17.1875 
L 47.609375 17.1875 
L 47.609375 0 
L 37.796875 0 
L 37.796875 17.1875 
L 4.890625 17.1875 
L 4.890625 26.703125 
z
" id="DejaVuSans-52"/>
       </defs>
       <use xlink:href="#DejaVuSans-52"/>
       <use x="63.623047" xlink:href="#DejaVuSans-48"/>
      </g>
     </g>
    </g>
    <g id="xtick_4">
     <g id="text_4">
      <!-- 60 -->
      <g transform="translate(609.786125 288.58081)scale(0.08 -0.08)">
       <defs>
        <path d="M 33.015625 40.375 
Q 26.375 40.375 22.484375 35.828125 
Q 18.609375 31.296875 18.609375 23.390625 
Q 18.609375 15.53125 22.484375 10.953125 
Q 26.375 6.390625 33.015625 6.390625 
Q 39.65625 6.390625 43.53125 10.953125 
Q 47.40625 15.53125 47.40625 23.390625 
Q 47.40625 31.296875 43.53125 35.828125 
Q 39.65625 40.375 33.015625 40.375 
z
M 52.59375 71.296875 
L 52.59375 62.3125 
Q 48.875 64.0625 45.09375 64.984375 
Q 41.3125 65.921875 37.59375 65.921875 
Q 27.828125 65.921875 22.671875 59.328125 
Q 17.53125 52.734375 16.796875 39.40625 
Q 19.671875 43.65625 24.015625 45.921875 
Q 28.375 48.1875 33.59375 48.1875 
Q 44.578125 48.1875 50.953125 41.515625 
Q 57.328125 34.859375 57.328125 23.390625 
Q 57.328125 12.15625 50.6875 5.359375 
Q 44.046875 -1.421875 33.015625 -1.421875 
Q 20.359375 -1.421875 13.671875 8.265625 
Q 6.984375 17.96875 6.984375 36.375 
Q 6.984375 53.65625 15.1875 63.9375 
Q 23.390625 74.21875 37.203125 74.21875 
Q 40.921875 74.21875 44.703125 73.484375 
Q 48.484375 72.75 52.59375 71.296875 
z
" id="DejaVuSans-54"/>
       </defs>
       <use xlink:href="#DejaVuSans-54"/>
       <use x="63.623047" xlink:href="#DejaVuSans-48"/>
      </g>
     </g>
    </g>
    <g id="xtick_5">
     <g id="text_5">
      <!-- 80 -->
      <g transform="translate(795.272125 288.58081)scale(0.08 -0.08)">
       <defs>
        <path d="M 31.78125 34.625 
Q 24.75 34.625 20.71875 30.859375 
Q 16.703125 27.09375 16.703125 20.515625 
Q 16.703125 13.921875 20.71875 10.15625 
Q 24.75 6.390625 31.78125 6.390625 
Q 38.8125 6.390625 42.859375 10.171875 
Q 46.921875 13.96875 46.921875 20.515625 
Q 46.921875 27.09375 42.890625 30.859375 
Q 38.875 34.625 31.78125 34.625 
z
M 21.921875 38.8125 
Q 15.578125 40.375 12.03125 44.71875 
Q 8.5 49.078125 8.5 55.328125 
Q 8.5 64.0625 14.71875 69.140625 
Q 20.953125 74.21875 31.78125 74.21875 
Q 42.671875 74.21875 48.875 69.140625 
Q 55.078125 64.0625 55.078125 55.328125 
Q 55.078125 49.078125 51.53125 44.71875 
Q 48 40.375 41.703125 38.8125 
Q 48.828125 37.15625 52.796875 32.3125 
Q 56.78125 27.484375 56.78125 20.515625 
Q 56.78125 9.90625 50.3125 4.234375 
Q 43.84375 -1.421875 31.78125 -1.421875 
Q 19.734375 -1.421875 13.25 4.234375 
Q 6.78125 9.90625 6.78125 20.515625 
Q 6.78125 27.484375 10.78125 32.3125 
Q 14.796875 37.15625 21.921875 38.8125 
z
M 18.3125 54.390625 
Q 18.3125 48.734375 21.84375 45.5625 
Q 25.390625 42.390625 31.78125 42.390625 
Q 38.140625 42.390625 41.71875 45.5625 
Q 45.3125 48.734375 45.3125 54.390625 
Q 45.3125 60.0625 41.71875 63.234375 
Q 38.140625 66.40625 31.78125 66.40625 
Q 25.390625 66.40625 21.84375 63.234375 
Q 18.3125 60.0625 18.3125 54.390625 
z
" id="DejaVuSans-56"/>
       </defs>
       <use xlink:href="#DejaVuSans-56"/>
       <use x="63.623047" xlink:href="#DejaVuSans-48"/>
      </g>
     </g>
    </g>
    <g id="xtick_6">
     <g id="text_6">
      <!-- 100 -->
      <g transform="translate(978.213125 288.58081)scale(0.08 -0.08)">
       <defs>
        <path d="M 12.40625 8.296875 
L 28.515625 8.296875 
L 28.515625 63.921875 
L 10.984375 60.40625 
L 10.984375 69.390625 
L 28.421875 72.90625 
L 38.28125 72.90625 
L 38.28125 8.296875 
L 54.390625 8.296875 
L 54.390625 0 
L 12.40625 0 
z
" id="DejaVuSans-49"/>
       </defs>
       <use xlink:href="#DejaVuSans-49"/>
       <use x="63.623047" xlink:href="#DejaVuSans-48"/>
       <use x="127.246094" xlink:href="#DejaVuSans-48"/>
      </g>
     </g>
    </g>
    <g id="text_7">
     <!-- % GC -->
     <g transform="translate(508.427656 301.842998)scale(0.1 -0.1)">
      <defs>
       <path d="M 72.703125 32.078125 
Q 68.453125 32.078125 66.03125 28.46875 
Q 63.625 24.859375 63.625 18.40625 
Q 63.625 12.0625 66.03125 8.421875 
Q 68.453125 4.78125 72.703125 4.78125 
Q 76.859375 4.78125 79.265625 8.421875 
Q 81.6875 12.0625 81.6875 18.40625 
Q 81.6875 24.8125 79.265625 28.4375 
Q 76.859375 32.078125 72.703125 32.078125 
z
M 72.703125 38.28125 
Q 80.421875 38.28125 84.953125 32.90625 
Q 89.5 27.546875 89.5 18.40625 
Q 89.5 9.28125 84.9375 3.921875 
Q 80.375 -1.421875 72.703125 -1.421875 
Q 64.890625 -1.421875 60.34375 3.921875 
Q 55.8125 9.28125 55.8125 18.40625 
Q 55.8125 27.59375 60.375 32.9375 
Q 64.9375 38.28125 72.703125 38.28125 
z
M 22.3125 68.015625 
Q 18.109375 68.015625 15.6875 64.375 
Q 13.28125 60.75 13.28125 54.390625 
Q 13.28125 47.953125 15.671875 44.328125 
Q 18.0625 40.71875 22.3125 40.71875 
Q 26.5625 40.71875 28.96875 44.328125 
Q 31.390625 47.953125 31.390625 54.390625 
Q 31.390625 60.6875 28.953125 64.34375 
Q 26.515625 68.015625 22.3125 68.015625 
z
M 66.40625 74.21875 
L 74.21875 74.21875 
L 28.609375 -1.421875 
L 20.796875 -1.421875 
z
M 22.3125 74.21875 
Q 30.03125 74.21875 34.609375 68.875 
Q 39.203125 63.53125 39.203125 54.390625 
Q 39.203125 45.171875 34.640625 39.84375 
Q 30.078125 34.515625 22.3125 34.515625 
Q 14.546875 34.515625 10.03125 39.859375 
Q 5.515625 45.21875 5.515625 54.390625 
Q 5.515625 63.484375 10.046875 68.84375 
Q 14.59375 74.21875 22.3125 74.21875 
z
" id="DejaVuSans-37"/>
       <path id="DejaVuSans-32"/>
       <path d="M 59.515625 10.40625 
L 59.515625 29.984375 
L 43.40625 29.984375 
L 43.40625 38.09375 
L 69.28125 38.09375 
L 69.28125 6.78125 
Q 63.578125 2.734375 56.6875 0.65625 
Q 49.8125 -1.421875 42 -1.421875 
Q 24.90625 -1.421875 15.25 8.5625 
Q 5.609375 18.5625 5.609375 36.375 
Q 5.609375 54.25 15.25 64.234375 
Q 24.90625 74.21875 42 74.21875 
Q 49.125 74.21875 55.546875 72.453125 
Q 61.96875 70.703125 67.390625 67.28125 
L 67.390625 56.78125 
Q 61.921875 61.421875 55.765625 63.765625 
Q 49.609375 66.109375 42.828125 66.109375 
Q 29.4375 66.109375 22.71875 58.640625 
Q 16.015625 51.171875 16.015625 36.375 
Q 16.015625 21.625 22.71875 14.15625 
Q 29.4375 6.6875 42.828125 6.6875 
Q 48.046875 6.6875 52.140625 7.59375 
Q 56.25 8.5 59.515625 10.40625 
z
" id="DejaVuSans-71"/>
       <path d="M 64.40625 67.28125 
L 64.40625 56.890625 
Q 59.421875 61.53125 53.78125 63.8125 
Q 48.140625 66.109375 41.796875 66.109375 
Q 29.296875 66.109375 22.65625 58.46875 
Q 16.015625 50.828125 16.015625 36.375 
Q 16.015625 21.96875 22.65625 14.328125 
Q 29.296875 6.6875 41.796875 6.6875 
Q 48.140625 6.6875 53.78125 8.984375 
Q 59.421875 11.28125 64.40625 15.921875 
L 64.40625 5.609375 
Q 59.234375 2.09375 53.4375 0.328125 
Q 47.65625 -1.421875 41.21875 -1.421875 
Q 24.65625 -1.421875 15.125 8.703125 
Q 5.609375 18.84375 5.609375 36.375 
Q 5.609375 53.953125 15.125 64.078125 
Q 24.65625 74.21875 41.21875 74.21875 
Q 47.75 74.21875 53.53125 72.484375 
Q 59.328125 70.75 64.40625 67.28125 
z
" id="DejaVuSans-67"/>
      </defs>
      <use xlink:href="#DejaVuSans-37"/>
      <use x="95.019531" xlink:href="#DejaVuSans-32"/>
      <use x="126.806641" xlink:href="#DejaVuSans-71"/>
      <use x="204.296875" xlink:href="#DejaVuSans-67"/>
     </g>
    </g>
   </g>
   <g id="matplotlib.axis_2">
    <g id="ytick_1">
     <g id="line2d_1">
      <path clip-path="url(#p96803e5ccc)" d="M 58.418125 275.50206 
L 985.848125 275.50206 
" style="fill:none;stroke:#dedede;stroke-linecap:square;"/>
     </g>
     <g id="text_8">
      <!-- 0 -->
      <g transform="translate(46.328125 278.541435)scale(0.08 -0.08)">
       <use xlink:href="#DejaVuSans-48"/>
      </g>
     </g>
    </g>
    <g id="ytick_2">
     <g id="line2d_2">
      <path clip-path="url(#p96803e5ccc)" d="M 58.418125 238.894824 
L 985.848125 238.894824 
" style="fill:none;stroke:#dedede;stroke-linecap:square;"/>
     </g>
     <g id="text_9">
      <!-- 100000 -->
      <g transform="translate(20.878125 241.934199)scale(0.08 -0.08)">
       <use xlink:href="#DejaVuSans-49"/>
       <use x="63.623047" xlink:href="#DejaVuSans-48"/>
       <use x="127.246094" xlink:href="#DejaVuSans-48"/>
       <use x="190.869141" xlink:href="#DejaVuSans-48"/>
       <use x="254.492188" xlink:href="#DejaVuSans-48"/>
       <use x="318.115234" xlink:href="#DejaVuSans-48"/>
      </g>
     </g>
    </g>
    <g id="ytick_3">
     <g id="line2d_3">
      <path clip-path="url(#p96803e5ccc)" d="M 58.418125 202.287587 
L 985.848125 202.287587 
" style="fill:none;stroke:#dedede;stroke-linecap:square;"/>
     </g>
     <g id="text_10">
      <!-- 200000 -->
      <g transform="translate(20.878125 205.326962)scale(0.08 -0.08)">
       <use xlink:href="#DejaVuSans-50"/>
       <use x="63.623047" xlink:href="#DejaVuSans-48"/>
       <use x="127.246094" xlink:href="#DejaVuSans-48"/>
       <use x="190.869141" xlink:href="#DejaVuSans-48"/>
       <use x="254.492188" xlink:href="#DejaVuSans-48"/>
       <use x="318.115234" xlink:href="#DejaVuSans-48"/>
      </g>
     </g>
    </g>
    <g id="ytick_4">
     <g id="line2d_4">
      <path clip-path="url(#p96803e5ccc)" d="M 58.418125 165.680351 
L 985.848125 165.680351 
" style="fill:none;stroke:#dedede;stroke-linecap:square;"/>
     </g>
     <g id="text_11">
      <!-- 300000 -->
      <g transform="translate(20.878125 168.719726)scale(0.08 -0.08)">
       <defs>
        <path d="M 40.578125 39.3125 
Q 47.65625 37.796875 51.625 33 
Q 55.609375 28.21875 55.609375 21.1875 
Q 55.609375 10.40625 48.1875 4.484375 
Q 40.765625 -1.421875 27.09375 -1.421875 
Q 22.515625 -1.421875 17.65625 -0.515625 
Q 12.796875 0.390625 7.625 2.203125 
L 7.625 11.71875 
Q 11.71875 9.328125 16.59375 8.109375 
Q 21.484375 6.890625 26.8125 6.890625 
Q 36.078125 6.890625 40.9375 10.546875 
Q 45.796875 14.203125 45.796875 21.1875 
Q 45.796875 27.640625 41.28125 31.265625 
Q 36.765625 34.90625 28.71875 34.90625 
L 20.21875 34.90625 
L 20.21875 43.015625 
L 29.109375 43.015625 
Q 36.375 43.015625 40.234375 45.921875 
Q 44.09375 48.828125 44.09375 54.296875 
Q 44.09375 59.90625 40.109375 62.90625 
Q 36.140625 65.921875 28.71875 65.921875 
Q 24.65625 65.921875 20.015625 65.03125 
Q 15.375 64.15625 9.8125 62.3125 
L 9.8125 71.09375 
Q 15.4375 72.65625 20.34375 73.4375 
Q 25.25 74.21875 29.59375 74.21875 
Q 40.828125 74.21875 47.359375 69.109375 
Q 53.90625 64.015625 53.90625 55.328125 
Q 53.90625 49.265625 50.4375 45.09375 
Q 46.96875 40.921875 40.578125 39.3125 
z
" id="DejaVuSans-51"/>
       </defs>
       <use xlink:href="#DejaVuSans-51"/>
       <use x="63.623047" xlink:href="#DejaVuSans-48"/>
       <use x="127.246094" xlink:href="#DejaVuSans-48"/>
       <use x="190.869141" xlink:href="#DejaVuSans-48"/>
       <use x="254.492188" xlink:href="#DejaVuSans-48"/>
       <use x="318.115234" xlink:href="#DejaVuSans-48"/>
      </g>
     </g>
    </g>
    <g id="ytick_5">
     <g id="line2d_5">
      <path clip-path="url(#p96803e5ccc)" d="M 58.418125 129.073115 
L 985.848125 129.073115 
" style="fill:none;stroke:#dedede;stroke-linecap:square;"/>
     </g>
     <g id="text_12">
      <!-- 400000 -->
      <g transform="translate(20.878125 132.11249)scale(0.08 -0.08)">
       <use xlink:href="#DejaVuSans-52"/>
       <use x="63.623047" xlink:href="#DejaVuSans-48"/>
       <use x="127.246094" xlink:href="#DejaVuSans-48"/>
       <use x="190.869141" xlink:href="#DejaVuSans-48"/>
       <use x="254.492188" xlink:href="#DejaVuSans-48"/>
       <use x="318.115234" xlink:href="#DejaVuSans-48"/>
      </g>
     </g>
    </g>
    <g id="ytick_6">
     <g id="line2d_6">
      <path clip-path="url(#p96803e5ccc)" d="M 58.418125 92.465878 
L 985.848125 92.465878 
" style="fill:none;stroke:#dedede;stroke-linecap:square;"/>
     </g>
     <g id="text_13">
      <!-- 500000 -->
      <g transform="translate(20.878125 95.505253)scale(0.08 -0.08)">
       <defs>
        <path d="M 10.796875 72.90625 
L 49.515625 72.90625 
L 49.515625 64.59375 
L 19.828125 64.59375 
L 19.828125 46.734375 
Q 21.96875 47.46875 24.109375 47.828125 
Q 26.265625 48.1875 28.421875 48.1875 
Q 40.625 48.1875 47.75 41.5 
Q 54.890625 34.8125 54.890625 23.390625 
Q 54.890625 11.625 47.5625 5.09375 
Q 40.234375 -1.421875 26.90625 -1.421875 
Q 22.3125 -1.421875 17.546875 -0.640625 
Q 12.796875 0.140625 7.71875 1.703125 
L 7.71875 11.625 
Q 12.109375 9.234375 16.796875 8.0625 
Q 21.484375 6.890625 26.703125 6.890625 
Q 35.15625 6.890625 40.078125 11.328125 
Q 45.015625 15.765625 45.015625 23.390625 
Q 45.015625 31 40.078125 35.4375 
Q 35.15625 39.890625 26.703125 39.890625 
Q 22.75 39.890625 18.8125 39.015625 
Q 14.890625 38.140625 10.796875 36.28125 
z
" id="DejaVuSans-53"/>
       </defs>
       <use xlink:href="#DejaVuSans-53"/>
       <use x="63.623047" xlink:href="#DejaVuSans-48"/>
       <use x="127.246094" xlink:href="#DejaVuSans-48"/>
       <use x="190.869141" xlink:href="#DejaVuSans-48"/>
       <use x="254.492188" xlink:href="#DejaVuSans-48"/>
       <use x="318.115234" xlink:href="#DejaVuSans-48"/>
      </g>
     </g>
    </g>
    <g id="ytick_7">
     <g id="line2d_7">
      <path clip-path="url(#p96803e5ccc)" d="M 58.418125 55.858642 
L 985.848125 55.858642 
" style="fill:none;stroke:#dedede;stroke-linecap:square;"/>
     </g>
     <g id="text_14">
      <!-- 600000 -->
      <g transform="translate(20.878125 58.898017)scale(0.08 -0.08)">
       <use xlink:href="#DejaVuSans-54"/>
       <use x="63.623047" xlink:href="#DejaVuSans-48"/>
       <use x="127.246094" xlink:href="#DejaVuSans-48"/>
       <use x="190.869141" xlink:href="#DejaVuSans-48"/>
       <use x="254.492188" xlink:href="#DejaVuSans-48"/>
       <use x="318.115234" xlink:href="#DejaVuSans-48"/>
      </g>
     </g>
    </g>
    <g id="text_15">
     <!-- Count -->
     <g transform="translate(14.798438 168.376897)rotate(-90)scale(0.1 -0.1)">
      <defs>
       <path d="M 30.609375 48.390625 
Q 23.390625 48.390625 19.1875 42.75 
Q 14.984375 37.109375 14.984375 27.296875 
Q 14.984375 17.484375 19.15625 11.84375 
Q 23.34375 6.203125 30.609375 6.203125 
Q 37.796875 6.203125 41.984375 11.859375 
Q 46.1875 17.53125 46.1875 27.296875 
Q 46.1875 37.015625 41.984375 42.703125 
Q 37.796875 48.390625 30.609375 48.390625 
z
M 30.609375 56 
Q 42.328125 56 49.015625 48.375 
Q 55.71875 40.765625 55.71875 27.296875 
Q 55.71875 13.875 49.015625 6.21875 
Q 42.328125 -1.421875 30.609375 -1.421875 
Q 18.84375 -1.421875 12.171875 6.21875 
Q 5.515625 13.875 5.515625 27.296875 
Q 5.515625 40.765625 12.171875 48.375 
Q 18.84375 56 30.609375 56 
z
" id="DejaVuSans-111"/>
       <path d="M 8.5 21.578125 
L 8.5 54.6875 
L 17.484375 54.6875 
L 17.484375 21.921875 
Q 17.484375 14.15625 20.5 10.265625 
Q 23.53125 6.390625 29.59375 6.390625 
Q 36.859375 6.390625 41.078125 11.03125 
Q 45.3125 15.671875 45.3125 23.6875 
L 45.3125 54.6875 
L 54.296875 54.6875 
L 54.296875 0 
L 45.3125 0 
L 45.3125 8.40625 
Q 42.046875 3.421875 37.71875 1 
Q 33.40625 -1.421875 27.6875 -1.421875 
Q 18.265625 -1.421875 13.375 4.4375 
Q 8.5 10.296875 8.5 21.578125 
z
M 31.109375 56 
z
" id="DejaVuSans-117"/>
       <path d="M 54.890625 33.015625 
L 54.890625 0 
L 45.90625 0 
L 45.90625 32.71875 
Q 45.90625 40.484375 42.875 44.328125 
Q 39.84375 48.1875 33.796875 48.1875 
Q 26.515625 48.1875 22.3125 43.546875 
Q 18.109375 38.921875 18.109375 30.90625 
L 18.109375 0 
L 9.078125 0 
L 9.078125 54.6875 
L 18.109375 54.6875 
L 18.109375 46.1875 
Q 21.34375 51.125 25.703125 53.5625 
Q 30.078125 56 35.796875 56 
Q 45.21875 56 50.046875 50.171875 
Q 54.890625 44.34375 54.890625 33.015625 
z
" id="DejaVuSans-110"/>
       <path d="M 18.3125 70.21875 
L 18.3125 54.6875 
L 36.8125 54.6875 
L 36.8125 47.703125 
L 18.3125 47.703125 
L 18.3125 18.015625 
Q 18.3125 11.328125 20.140625 9.421875 
Q 21.96875 7.515625 27.59375 7.515625 
L 36.8125 7.515625 
L 36.8125 0 
L 27.59375 0 
Q 17.1875 0 13.234375 3.875 
Q 9.28125 7.765625 9.28125 18.015625 
L 9.28125 47.703125 
L 2.6875 47.703125 
L 2.6875 54.6875 
L 9.28125 54.6875 
L 9.28125 70.21875 
z
" id="DejaVuSans-116"/>
      </defs>
      <use xlink:href="#DejaVuSans-67"/>
      <use x="69.824219" xlink:href="#DejaVuSans-111"/>
      <use x="131.005859" xlink:href="#DejaVuSans-117"/>
      <use x="194.384766" xlink:href="#DejaVuSans-110"/>
      <use x="257.763672" xlink:href="#DejaVuSans-116"/>
     </g>
    </g>
   </g>
   <g id="line2d_8">
    <path clip-path="url(#p96803e5ccc)" d="M 58.418125 274.917442 
L 67.692425 274.844045 
L 76.966725 274.706768 
L 86.241025 274.520803 
L 95.515325 274.184749 
L 104.789625 273.55364 
L 114.063925 272.483244 
L 123.338225 271.038723 
L 132.612525 269.244968 
L 141.886825 267.449932 
L 151.161125 265.475704 
L 160.435425 263.230948 
L 169.709725 261.460073 
L 178.984025 260.098101 
L 188.258325 258.7332 
L 197.532625 257.322174 
L 206.806925 256.05776 
L 216.081225 255.235379 
L 225.355525 254.035577 
L 234.629825 252.003143 
L 243.904125 249.357721 
L 253.178425 245.745136 
L 262.452725 242.21693 
L 271.727025 239.21349 
L 281.001325 235.448435 
L 290.275625 231.792837 
L 299.549925 228.348462 
L 308.824225 222.33975 
L 318.098525 216.611084 
L 327.372825 212.700333 
L 336.647125 208.6858 
L 345.921425 205.983454 
L 355.195725 202.590512 
L 364.470025 199.103307 
L 373.744325 196.305233 
L 383.018625 193.570672 
L 392.292925 192.833586 
L 401.567225 192.333897 
L 410.841525 190.388039 
L 420.115825 186.973316 
L 429.390125 187.455616 
L 438.664425 190.963871 
L 447.938725 193.331993 
L 457.213025 195.265587 
L 466.487325 196.205295 
L 475.761625 196.979538 
L 485.035925 197.241829 
L 494.310225 198.476042 
L 503.584525 200.230627 
L 512.858825 201.017316 
L 522.133125 202.537249 
L 531.407425 205.750083 
L 540.681725 210.069371 
L 549.956025 214.367426 
L 559.230325 217.976717 
L 568.504625 221.256176 
L 577.778925 224.468827 
L 587.053225 227.586482 
L 596.327525 230.948491 
L 605.601825 234.433317 
L 614.876125 237.925098 
L 624.150425 240.805721 
L 633.424725 242.567262 
L 642.699025 244.453999 
L 651.973325 246.820107 
L 661.247625 248.847599 
L 670.521925 250.410728 
L 679.796225 251.506017 
L 689.070525 252.468055 
L 698.344825 253.707576 
L 707.619125 254.799021 
L 716.893425 255.748246 
L 726.167725 256.833651 
L 735.442025 257.740595 
L 744.716325 258.286958 
L 753.990625 258.584026 
L 763.264925 258.665111 
L 772.539225 258.505137 
L 781.813525 258.096417 
L 791.087825 257.454692 
L 800.362125 257.087156 
L 809.636425 257.237246 
L 818.910725 257.99227 
L 828.185025 259.543684 
L 837.459325 261.894235 
L 846.733625 264.652041 
L 856.007925 267.456705 
L 865.282225 270.075037 
L 874.556525 272.131449 
L 883.830825 273.604158 
L 893.105125 274.437888 
L 902.379425 274.862715 
L 911.653725 275.084371 
L 920.928025 275.203711 
L 930.202325 275.286077 
L 939.476625 275.324515 
L 948.750925 275.356729 
L 958.025225 275.381256 
L 967.299525 275.396814 
L 976.573825 275.422622 
L 985.848125 275.455569 
" style="fill:none;stroke:#f0ad4e;stroke-linecap:square;"/>
   </g>
   <g id="line2d_9">
    <path clip-path="url(#p96803e5ccc)" d="M 58.418125 274.491334 
L 67.692425 274.378767 
L 76.966725 274.291276 
L 86.241025 274.10769 
L 95.515325 273.549613 
L 104.789625 272.560486 
L 114.063925 270.836285 
L 123.338225 268.326859 
L 132.612525 265.167471 
L 141.886825 261.990146 
L 151.161125 258.452423 
L 160.435425 254.13588 
L 169.709725 250.466371 
L 178.984025 246.946219 
L 188.258325 243.910015 
L 197.532625 241.303946 
L 206.806925 239.179994 
L 216.081225 237.665553 
L 225.355525 234.978582 
L 234.629825 231.263862 
L 243.904125 227.262691 
L 253.178425 221.500712 
L 262.452725 215.206098 
L 271.727025 209.824651 
L 281.001325 202.736392 
L 290.275625 196.076072 
L 299.549925 189.84552 
L 308.824225 180.109276 
L 318.098525 170.060224 
L 327.372825 161.900105 
L 336.647125 154.226679 
L 345.921425 149.275733 
L 355.195725 143.973541 
L 364.470025 138.040606 
L 373.744325 133.816497 
L 383.018625 131.633242 
L 392.292925 130.755949 
L 401.567225 128.363117 
L 410.841525 124.969444 
L 420.115825 120.426303 
L 429.390125 121.37205 
L 438.664425 126.048625 
L 447.938725 129.418321 
L 457.213025 132.871299 
L 466.487325 134.57866 
L 475.761625 136.089807 
L 485.035925 137.534328 
L 494.310225 140.741488 
L 503.584525 145.055285 
L 512.858825 147.182898 
L 522.133125 149.899887 
L 531.407425 156.086693 
L 540.681725 164.239307 
L 549.956025 171.940555 
L 559.230325 178.22858 
L 568.504625 183.079587 
L 577.778925 187.83926 
L 587.053225 193.16122 
L 596.327525 199.264379 
L 605.601825 205.274738 
L 614.876125 210.196581 
L 624.150425 214.605373 
L 633.424725 217.976717 
L 642.699025 220.686933 
L 651.973325 223.908004 
L 661.247625 226.923159 
L 670.521925 229.121607 
L 679.796225 230.446606 
L 689.070525 232.00827 
L 698.344825 234.270964 
L 707.619125 236.477282 
L 716.893425 238.69806 
L 726.167725 240.644467 
L 735.442025 242.234685 
L 744.716325 243.185741 
L 753.990625 243.28696 
L 763.264925 242.649628 
L 772.539225 241.401321 
L 781.813525 239.688835 
L 791.087825 237.892884 
L 800.362125 236.552693 
L 809.636425 236.36929 
L 818.910725 237.831017 
L 828.185025 241.52908 
L 837.459325 247.282274 
L 846.733625 254.069987 
L 856.007925 260.872161 
L 865.282225 266.52743 
L 874.556525 270.571248 
L 883.830825 272.998308 
L 893.105125 274.222088 
L 902.379425 274.780897 
L 911.653725 275.03788 
L 920.928025 275.165456 
L 930.202325 275.248921 
L 939.476625 275.309872 
L 948.750925 275.355448 
L 958.025225 275.395899 
L 967.299525 275.422622 
L 976.573825 275.440194 
L 985.848125 275.450261 
" style="fill:none;stroke:#f0ad4e;stroke-linecap:square;"/>
   </g>
   <g id="line2d_10">
    <path clip-path="url(#p96803e5ccc)" d="M 58.418125 273.946252 
L 67.692425 273.816663 
L 76.966725 273.449675 
L 86.241025 272.974696 
L 95.515325 272.407284 
L 104.789625 271.360683 
L 114.063925 269.489138 
L 123.338225 266.437193 
L 132.612525 262.613201 
L 141.886825 259.382979 
L 151.161125 256.151658 
L 160.435425 252.486724 
L 169.709725 249.603172 
L 178.984025 246.936152 
L 188.258325 244.444847 
L 197.532625 241.973858 
L 206.806925 240.148805 
L 216.081225 239.16224 
L 225.355525 237.668847 
L 234.629825 235.394806 
L 243.904125 232.236883 
L 253.178425 227.786541 
L 262.452725 222.680197 
L 271.727025 217.690082 
L 281.001325 212.095764 
L 290.275625 208.291906 
L 299.549925 203.897391 
L 308.824225 194.949484 
L 318.098525 185.08786 
L 327.372825 177.492408 
L 336.647125 170.944106 
L 345.921425 166.026106 
L 355.195725 161.468872 
L 364.470025 157.223896 
L 373.744325 153.69203 
L 383.018625 150.416598 
L 392.292925 148.816312 
L 401.567225 146.714142 
L 410.841525 143.330535 
L 420.115825 139.46353 
L 429.390125 139.897325 
L 438.664425 143.239017 
L 447.938725 146.225984 
L 457.213025 149.457122 
L 466.487325 150.903474 
L 475.761625 151.487543 
L 485.035925 152.336647 
L 494.310225 155.386396 
L 503.584525 159.610139 
L 512.858825 162.445187 
L 522.133125 165.308055 
L 531.407425 170.091889 
L 540.681725 176.878871 
L 549.956025 183.484463 
L 559.230325 188.741263 
L 568.504625 192.944505 
L 577.778925 197.158181 
L 587.053225 201.584911 
L 596.327525 206.135374 
L 605.601825 210.684738 
L 614.876125 214.417761 
L 624.150425 217.195701 
L 633.424725 219.019474 
L 642.699025 220.604018 
L 651.973325 222.831934 
L 661.247625 225.022328 
L 670.521925 226.79961 
L 679.796225 227.750483 
L 689.070525 228.842111 
L 698.344825 230.720794 
L 707.619125 232.362628 
L 716.893425 233.767797 
L 726.167725 234.725443 
L 735.442025 235.029649 
L 744.716325 234.609764 
L 753.990625 233.22601 
L 763.264925 231.118898 
L 772.539225 228.683235 
L 781.813525 226.498332 
L 791.087825 225.403959 
L 800.362125 225.995532 
L 809.636425 229.093785 
L 818.910725 234.855947 
L 828.185025 242.621806 
L 837.459325 251.079359 
L 846.733625 258.94662 
L 856.007925 265.423539 
L 865.282225 269.960274 
L 874.556525 272.679642 
L 883.830825 274.141918 
L 893.105125 274.781813 
L 902.379425 275.05417 
L 911.653725 275.198037 
L 920.928025 275.27418 
L 930.202325 275.312801 
L 939.476625 275.348676 
L 948.750925 275.38272 
L 958.025225 275.408162 
L 967.299525 275.434154 
L 976.573825 275.454105 
L 985.848125 275.466734 
" style="fill:none;stroke:#f0ad4e;stroke-linecap:square;"/>
   </g>
   <g id="line2d_11">
    <path clip-path="url(#p96803e5ccc)" d="M 58.418125 273.769806 
L 67.692425 273.592993 
L 76.966725 273.133206 
L 86.241025 272.611919 
L 95.515325 271.960493 
L 104.789625 270.705231 
L 114.063925 268.242845 
L 123.338225 264.786207 
L 132.612525 260.748063 
L 141.886825 256.811869 
L 151.161125 252.962435 
L 160.435425 248.693666 
L 169.709725 245.010063 
L 178.984025 241.64421 
L 188.258325 238.47384 
L 197.532625 234.975836 
L 206.806925 231.758426 
L 216.081225 229.911957 
L 225.355525 227.510888 
L 234.629825 223.201118 
L 243.904125 217.870556 
L 253.178425 211.059596 
L 262.452725 203.327599 
L 271.727025 195.615552 
L 281.001325 186.742691 
L 290.275625 179.462243 
L 299.549925 172.729807 
L 308.824225 160.952893 
L 318.098525 148.015895 
L 327.372825 135.494756 
L 336.647125 125.574927 
L 345.921425 120.878951 
L 355.195725 114.271345 
L 364.470025 106.797428 
L 373.744325 102.344707 
L 383.018625 98.994596 
L 392.292925 96.699871 
L 401.567225 95.869802 
L 410.841525 96.512259 
L 420.115825 94.154753 
L 429.390125 95.848936 
L 438.664425 102.935914 
L 447.938725 110.47792 
L 457.213025 116.154604 
L 466.487325 118.908017 
L 475.761625 123.113457 
L 485.035925 126.546483 
L 494.310225 130.422091 
L 503.584525 133.967685 
L 512.858825 135.690971 
L 522.133125 138.346094 
L 531.407425 145.961131 
L 540.681725 155.928183 
L 549.956025 163.865547 
L 559.230325 169.897871 
L 568.504625 175.584256 
L 577.778925 181.292605 
L 587.053225 186.810963 
L 596.327525 192.663362 
L 605.601825 198.751694 
L 614.876125 204.07219 
L 624.150425 207.758356 
L 633.424725 207.946151 
L 642.699025 208.747483 
L 651.973325 213.796536 
L 661.247625 219.548998 
L 670.521925 224.048759 
L 679.796225 224.42618 
L 689.070525 226.099313 
L 698.344825 230.365338 
L 707.619125 233.238823 
L 716.893425 236.450925 
L 726.167725 238.974994 
L 735.442025 240.305117 
L 744.716325 240.642636 
L 753.990625 240.548373 
L 763.264925 240.021228 
L 772.539225 239.582308 
L 781.813525 239.53179 
L 791.087825 240.311524 
L 800.362125 242.438587 
L 809.636425 245.822926 
L 818.910725 250.290839 
L 828.185025 255.371924 
L 837.459325 260.314267 
L 846.733625 264.695604 
L 856.007925 268.402453 
L 865.282225 271.137745 
L 874.556525 272.901116 
L 883.830825 273.986337 
L 893.105125 274.599326 
L 902.379425 274.909389 
L 911.653725 275.074671 
L 920.928025 275.188153 
L 930.202325 275.264845 
L 939.476625 275.312251 
L 948.750925 275.351787 
L 958.025225 275.39352 
L 967.299525 275.419511 
L 976.573825 275.427564 
L 985.848125 275.440011 
" style="fill:none;stroke:#f0ad4e;stroke-linecap:square;"/>
   </g>
   <g id="line2d_12">
    <path clip-path="url(#p96803e5ccc)" d="M 58.418125 273.949181 
L 67.692425 273.77969 
L 76.966725 273.702448 
L 86.241025 273.555836 
L 95.515325 272.838701 
L 104.789625 271.481853 
L 114.063925 268.887682 
L 123.338225 265.584611 
L 132.612525 261.654092 
L 141.886825 257.244567 
L 151.161125 252.614118 
L 160.435425 247.516377 
L 169.709725 243.182446 
L 178.984025 239.81092 
L 188.258325 236.890944 
L 197.532625 232.625468 
L 206.806925 228.492145 
L 216.081225 227.119374 
L 225.355525 224.386278 
L 234.629825 218.928322 
L 243.904125 211.946041 
L 253.178425 202.61632 
L 262.452725 192.577884 
L 271.727025 181.984116 
L 281.001325 169.777616 
L 290.275625 159.640889 
L 299.549925 150.730139 
L 308.824225 135.566506 
L 318.098525 118.256226 
L 327.372825 102.992106 
L 336.647125 91.448746 
L 345.921425 84.985556 
L 355.195725 78.219623 
L 364.470025 71.294266 
L 373.744325 66.881447 
L 383.018625 60.905682 
L 392.292925 53.816507 
L 401.567225 49.806917 
L 410.841525 48.329632 
L 420.115825 43.17094 
L 429.390125 45.52204 
L 438.664425 56.931417 
L 447.938725 64.38703 
L 457.213025 68.381062 
L 466.487325 69.756579 
L 475.761625 71.757348 
L 485.035925 73.4087 
L 494.310225 76.912745 
L 503.584525 80.724473 
L 512.858825 81.616775 
L 522.133125 83.34665 
L 531.407425 90.41807 
L 540.681725 100.842712 
L 549.956025 110.135459 
L 559.230325 117.366853 
L 568.504625 123.717842 
L 577.778925 131.230745 
L 587.053225 138.998618 
L 596.327525 147.602966 
L 605.601825 156.537328 
L 614.876125 165.551311 
L 624.150425 173.218879 
L 633.424725 175.573457 
L 642.699025 178.564085 
L 651.973325 186.085774 
L 661.247625 193.747485 
L 670.521925 199.286709 
L 679.796225 199.953876 
L 689.070525 200.894865 
L 698.344825 203.48318 
L 707.619125 204.249186 
L 716.893425 205.444962 
L 726.167725 207.148479 
L 735.442025 209.496467 
L 744.716325 212.420287 
L 753.990625 216.346963 
L 763.264925 221.149283 
L 772.539225 226.042206 
L 781.813525 230.072663 
L 791.087825 233.082144 
L 800.362125 234.752349 
L 809.636425 235.128854 
L 818.910725 234.725443 
L 828.185025 234.342714 
L 837.459325 235.176444 
L 846.733625 237.733276 
L 856.007925 242.180872 
L 865.282225 248.343151 
L 874.556525 255.47296 
L 883.830825 262.450116 
L 893.105125 267.974514 
L 902.379425 271.482952 
L 911.653725 273.43668 
L 920.928025 274.463513 
L 930.202325 274.917076 
L 939.476625 275.112742 
L 948.750925 275.213961 
L 958.025225 275.284247 
L 967.299525 275.334948 
L 976.573825 275.354533 
L 985.848125 275.35014 
" style="fill:none;stroke:#f0ad4e;stroke-linecap:square;"/>
   </g>
   <g id="line2d_13">
    <path clip-path="url(#p96803e5ccc)" d="M 58.418125 275.061309 
L 67.692425 275.002554 
L 76.966725 274.961371 
L 86.241025 274.916344 
L 95.515325 274.712442 
L 104.789625 274.366687 
L 114.063925 273.803667 
L 123.338225 273.037844 
L 132.612525 271.99289 
L 141.886825 270.784852 
L 151.161125 269.630076 
L 160.435425 268.200747 
L 169.709725 266.79814 
L 178.984025 265.193279 
L 188.258325 263.059809 
L 197.532625 260.264298 
L 206.806925 259.186581 
L 216.081225 260.167289 
L 225.355525 259.530689 
L 234.629825 257.259942 
L 243.904125 255.461062 
L 253.178425 253.351387 
L 262.452725 250.613898 
L 271.727025 246.78167 
L 281.001325 243.702086 
L 290.275625 242.514181 
L 299.549925 239.395611 
L 308.824225 231.98173 
L 318.098525 222.897461 
L 327.372825 215.666434 
L 336.647125 209.566021 
L 345.921425 207.804481 
L 355.195725 206.294066 
L 364.470025 202.09723 
L 373.744325 198.428086 
L 383.018625 196.662153 
L 392.292925 193.964749 
L 401.567225 192.978733 
L 410.841525 191.658859 
L 420.115825 187.126517 
L 429.390125 193.543949 
L 438.664425 203.84852 
L 447.938725 209.249552 
L 457.213025 213.502397 
L 466.487325 213.807519 
L 475.761625 213.982135 
L 485.035925 217.694841 
L 494.310225 222.246219 
L 503.584525 226.418528 
L 512.858825 228.859865 
L 522.133125 230.558807 
L 531.407425 232.318517 
L 540.681725 234.170843 
L 549.956025 236.308156 
L 559.230325 238.123143 
L 568.504625 239.961009 
L 577.778925 242.170805 
L 587.053225 244.737156 
L 596.327525 247.080751 
L 605.601825 249.085363 
L 614.876125 251.260199 
L 624.150425 253.163775 
L 633.424725 254.609761 
L 642.699025 256.078993 
L 651.973325 257.272938 
L 661.247625 258.317159 
L 670.521925 259.258514 
L 679.796225 259.611042 
L 689.070525 259.633738 
L 698.344825 259.695238 
L 707.619125 259.36797 
L 716.893425 258.992013 
L 726.167725 258.81154 
L 735.442025 258.846683 
L 744.716325 259.527943 
L 753.990625 260.718228 
L 763.264925 262.134196 
L 772.539225 263.821057 
L 781.813525 265.472043 
L 791.087825 266.728221 
L 800.362125 267.612651 
L 809.636425 268.164323 
L 818.910725 268.381037 
L 828.185025 268.521792 
L 837.459325 268.695677 
L 846.733625 269.120504 
L 856.007925 269.932635 
L 865.282225 270.956723 
L 874.556525 272.148105 
L 883.830825 273.307273 
L 893.105125 274.236182 
L 902.379425 274.831415 
L 911.653725 275.139465 
L 920.928025 275.295229 
L 930.202325 275.373752 
L 939.476625 275.406149 
L 948.750925 275.418779 
L 958.025225 275.428113 
L 967.299525 275.428846 
L 976.573825 275.406515 
L 985.848125 275.366979 
" style="fill:none;stroke:#f0ad4e;stroke-linecap:square;"/>
   </g>
   <g id="line2d_14">
    <path clip-path="url(#p96803e5ccc)" d="M 58.418125 275.074854 
L 67.692425 274.959724 
L 76.966725 274.822264 
L 86.241025 274.708049 
L 95.515325 274.438071 
L 104.789625 273.888962 
L 114.063925 272.971402 
L 123.338225 271.928828 
L 132.612525 270.642449 
L 141.886825 269.322942 
L 151.161125 267.860849 
L 160.435425 265.90291 
L 169.709725 264.072 
L 178.984025 262.411495 
L 188.258325 260.250204 
L 197.532625 257.103812 
L 206.806925 255.954528 
L 216.081225 256.86495 
L 225.355525 256.486431 
L 234.629825 254.394328 
L 243.904125 252.253719 
L 253.178425 250.576925 
L 262.452725 248.210633 
L 271.727025 244.880107 
L 281.001325 241.799974 
L 290.275625 239.966134 
L 299.549925 236.980082 
L 308.824225 230.108355 
L 318.098525 221.616574 
L 327.372825 214.771021 
L 336.647125 208.357982 
L 345.921425 205.717319 
L 355.195725 202.809973 
L 364.470025 197.02365 
L 373.744325 191.837137 
L 383.018625 187.298754 
L 392.292925 183.995501 
L 401.567225 184.72856 
L 410.841525 184.753087 
L 420.115825 177.839445 
L 429.390125 182.282099 
L 438.664425 194.558702 
L 447.938725 200.257899 
L 457.213025 203.54047 
L 466.487325 203.195996 
L 475.761625 203.906176 
L 485.035925 209.415565 
L 494.310225 215.930921 
L 503.584525 221.506203 
L 512.858825 225.588459 
L 522.133125 228.718195 
L 531.407425 231.41084 
L 540.681725 233.942231 
L 549.956025 236.294246 
L 559.230325 238.474024 
L 568.504625 241.05099 
L 577.778925 244.010319 
L 587.053225 246.80583 
L 596.327525 249.135698 
L 605.601825 251.180395 
L 614.876125 253.249985 
L 624.150425 255.100664 
L 633.424725 256.671847 
L 642.699025 258.31661 
L 651.973325 259.754725 
L 661.247625 261.01017 
L 670.521925 262.244749 
L 679.796225 263.066399 
L 689.070525 263.808794 
L 698.344825 264.716653 
L 707.619125 265.487052 
L 716.893425 266.26038 
L 726.167725 266.946949 
L 735.442025 267.417901 
L 744.716325 267.80667 
L 753.990625 268.060175 
L 763.264925 268.172742 
L 772.539225 268.165055 
L 781.813525 268.073537 
L 791.087825 267.911916 
L 800.362125 267.804839 
L 809.636425 267.961518 
L 818.910725 268.437596 
L 828.185025 269.242223 
L 837.459325 270.245993 
L 846.733625 271.443599 
L 856.007925 272.648343 
L 865.282225 273.642229 
L 874.556525 274.397437 
L 883.830825 274.897858 
L 893.105125 275.176622 
L 902.379425 275.323234 
L 911.653725 275.385283 
L 920.928025 275.41585 
L 930.202325 275.436716 
L 939.476625 275.448613 
L 948.750925 275.460145 
L 958.025225 275.470395 
L 967.299525 275.473323 
L 976.573825 275.47973 
L 985.848125 275.484672 
" style="fill:none;stroke:#f0ad4e;stroke-linecap:square;"/>
   </g>
   <g id="line2d_15">
    <path clip-path="url(#p96803e5ccc)" d="M 58.418125 275.240318 
L 67.692425 275.191631 
L 76.966725 275.147519 
L 86.241025 275.114206 
L 95.515325 274.956978 
L 104.789625 274.705487 
L 114.063925 274.254851 
L 123.338225 273.605439 
L 132.612525 272.749745 
L 141.886825 271.740483 
L 151.161125 270.77936 
L 160.435425 269.427455 
L 169.709725 268.083054 
L 178.984025 266.877029 
L 188.258325 264.8726 
L 197.532625 261.651163 
L 206.806925 260.818165 
L 216.081225 262.362991 
L 225.355525 262.406553 
L 234.629825 260.554593 
L 243.904125 258.977004 
L 253.178425 257.339563 
L 262.452725 254.984802 
L 271.727025 252.654752 
L 281.001325 250.846171 
L 290.275625 249.799936 
L 299.549925 247.050001 
L 308.824225 240.57473 
L 318.098525 232.580258 
L 327.372825 226.593877 
L 336.647125 221.765017 
L 345.921425 218.897389 
L 355.195725 216.596258 
L 364.470025 213.132481 
L 373.744325 209.256324 
L 383.018625 207.572574 
L 392.292925 205.720797 
L 401.567225 205.042282 
L 410.841525 204.32899 
L 420.115825 200.450453 
L 429.390125 204.867848 
L 438.664425 212.990811 
L 447.938725 217.707654 
L 457.213025 221.43244 
L 466.487325 221.835119 
L 475.761625 221.807298 
L 485.035925 224.302996 
L 494.310225 227.364459 
L 503.584525 230.192368 
L 512.858825 232.744991 
L 522.133125 235.34502 
L 531.407425 237.680745 
L 540.681725 239.46187 
L 549.956025 241.414866 
L 559.230325 242.997031 
L 568.504625 244.440454 
L 577.778925 246.15294 
L 587.053225 248.085986 
L 596.327525 250.25954 
L 605.601825 252.255916 
L 614.876125 254.258332 
L 624.150425 256.156234 
L 633.424725 257.797702 
L 642.699025 259.256135 
L 651.973325 260.496388 
L 661.247625 261.839507 
L 670.521925 263.062738 
L 679.796225 263.835883 
L 689.070525 264.544782 
L 698.344825 265.207739 
L 707.619125 265.65508 
L 716.893425 266.107911 
L 726.167725 266.583988 
L 735.442025 267.051279 
L 744.716325 267.552982 
L 753.990625 268.010389 
L 763.264925 268.462122 
L 772.539225 268.813369 
L 781.813525 268.990731 
L 791.087825 269.06724 
L 800.362125 268.98103 
L 809.636425 268.764681 
L 818.910725 268.495801 
L 828.185025 268.26847 
L 837.459325 268.175122 
L 846.733625 268.433752 
L 856.007925 269.106044 
L 865.282225 270.138002 
L 874.556525 271.456228 
L 883.830825 272.809964 
L 893.105125 273.936735 
L 902.379425 274.690111 
L 911.653725 275.100479 
L 920.928025 275.297609 
L 930.202325 275.384551 
L 939.476625 275.416033 
L 948.750925 275.440377 
L 958.025225 275.45923 
L 967.299525 275.468198 
L 976.573825 275.468747 
L 985.848125 275.468015 
" style="fill:none;stroke:#f0ad4e;stroke-linecap:square;"/>
   </g>
   <g id="line2d_16">
    <path clip-path="url(#p96803e5ccc)" d="M 58.418125 274.242405 
L 67.692425 274.108789 
L 76.966725 273.895734 
L 86.241025 273.685243 
L 95.515325 273.355046 
L 104.789625 272.816736 
L 114.063925 271.88435 
L 123.338225 270.588088 
L 132.612525 268.894637 
L 141.886825 267.05915 
L 151.161125 264.953502 
L 160.435425 262.125959 
L 169.709725 259.45784 
L 178.984025 256.878312 
L 188.258325 254.02917 
L 197.532625 250.498219 
L 206.806925 248.449312 
L 216.081225 248.88201 
L 225.355525 248.203678 
L 234.629825 245.942449 
L 243.904125 243.7343 
L 253.178425 241.622978 
L 262.452725 239.064498 
L 271.727025 235.011894 
L 281.001325 231.762819 
L 290.275625 230.674852 
L 299.549925 227.73767 
L 308.824225 219.77944 
L 318.098525 210.583885 
L 327.372825 203.235349 
L 336.647125 196.815538 
L 345.921425 194.276643 
L 355.195725 191.746168 
L 364.470025 187.479777 
L 373.744325 184.037233 
L 383.018625 181.921884 
L 392.292925 179.335582 
L 401.567225 179.23235 
L 410.841525 179.280488 
L 420.115825 173.682144 
L 429.390125 177.46239 
L 438.664425 187.556103 
L 447.938725 191.99949 
L 457.213025 194.686827 
L 466.487325 195.627267 
L 475.761625 196.24959 
L 485.035925 199.616906 
L 494.310225 204.675477 
L 503.584525 209.002636 
L 512.858825 211.929384 
L 522.133125 214.349306 
L 531.407425 216.643847 
L 540.681725 219.115385 
L 549.956025 221.829445 
L 559.230325 224.360287 
L 568.504625 226.833471 
L 577.778925 229.158763 
L 587.053225 230.941902 
L 596.327525 232.619611 
L 605.601825 234.323129 
L 614.876125 235.631289 
L 624.150425 236.589117 
L 633.424725 236.64238 
L 642.699025 235.999923 
L 651.973325 234.935751 
L 661.247625 233.298675 
L 670.521925 231.152576 
L 679.796225 228.639856 
L 689.070525 226.52048 
L 698.344825 225.092431 
L 707.619125 224.54314 
L 716.893425 225.02123 
L 726.167725 226.480395 
L 735.442025 229.144303 
L 744.716325 232.877509 
L 753.990625 236.848296 
L 763.264925 240.819083 
L 772.539225 244.291096 
L 781.813525 246.851956 
L 791.087825 248.593728 
L 800.362125 249.516047 
L 809.636425 250.287545 
L 818.910725 251.332132 
L 828.185025 252.884645 
L 837.459325 255.377049 
L 846.733625 258.720754 
L 856.007925 262.338098 
L 865.282225 265.996076 
L 874.556525 269.273888 
L 883.830825 271.742863 
L 893.105125 273.447296 
L 902.379425 274.485111 
L 911.653725 274.999809 
L 920.928025 275.249653 
L 930.202325 275.359841 
L 939.476625 275.407979 
L 948.750925 275.437265 
L 958.025225 275.461243 
L 967.299525 275.46893 
L 976.573825 275.470212 
L 985.848125 275.475886 
" style="fill:none;stroke:#d9534f;stroke-linecap:square;"/>
   </g>
   <g id="line2d_17">
    <path clip-path="url(#p96803e5ccc)" d="M 58.418125 275.305113 
L 67.692425 275.273265 
L 76.966725 275.23318 
L 86.241025 275.191814 
L 95.515325 275.082541 
L 104.789625 274.896027 
L 114.063925 274.589808 
L 123.338225 274.084811 
L 132.612525 273.503671 
L 141.886825 273.057429 
L 151.161125 272.444441 
L 160.435425 271.494666 
L 169.709725 270.651784 
L 178.984025 269.958809 
L 188.258325 269.053146 
L 197.532625 267.823875 
L 206.806925 267.363539 
L 216.081225 267.693553 
L 225.355525 267.609357 
L 234.629825 266.73243 
L 243.904125 265.88241 
L 253.178425 265.255695 
L 262.452725 263.847963 
L 271.727025 261.887463 
L 281.001325 260.184494 
L 290.275625 259.187862 
L 299.549925 257.998859 
L 308.824225 255.342821 
L 318.098525 251.449458 
L 327.372825 248.424786 
L 336.647125 246.746527 
L 345.921425 245.002924 
L 355.195725 242.404176 
L 364.470025 239.558696 
L 373.744325 237.417356 
L 383.018625 235.60786 
L 392.292925 234.404031 
L 401.567225 234.794813 
L 410.841525 234.920376 
L 420.115825 232.438039 
L 429.390125 233.147305 
L 438.664425 236.640733 
L 447.938725 237.902402 
L 457.213025 238.43705 
L 466.487325 238.355965 
L 475.761625 239.637035 
L 485.035925 243.337112 
L 494.310225 247.337368 
L 503.584525 250.194379 
L 512.858825 252.011746 
L 522.133125 253.681036 
L 531.407425 255.1812 
L 540.681725 256.557998 
L 549.956025 257.809783 
L 559.230325 258.680669 
L 568.504625 259.687185 
L 577.778925 260.997907 
L 587.053225 262.223334 
L 596.327525 263.301783 
L 605.601825 264.348201 
L 614.876125 265.283516 
L 624.150425 266.106264 
L 633.424725 266.800154 
L 642.699025 267.337914 
L 651.973325 267.850232 
L 661.247625 268.309104 
L 670.521925 268.701717 
L 679.796225 269.00757 
L 689.070525 269.427089 
L 698.344825 269.812014 
L 707.619125 270.168203 
L 716.893425 270.639338 
L 726.167725 270.880762 
L 735.442025 270.982531 
L 744.716325 271.032499 
L 753.990625 270.999004 
L 763.264925 270.892843 
L 772.539225 270.719874 
L 781.813525 270.510297 
L 791.087825 270.338243 
L 800.362125 270.28498 
L 809.636425 270.463989 
L 818.910725 270.821642 
L 828.185025 271.403514 
L 837.459325 272.258476 
L 846.733625 273.194889 
L 856.007925 273.994757 
L 865.282225 274.605366 
L 874.556525 275.017197 
L 883.830825 275.248555 
L 893.105125 275.368993 
L 902.379425 275.415484 
L 911.653725 275.441841 
L 920.928025 275.457582 
L 930.202325 275.466368 
L 939.476625 275.473689 
L 948.750925 275.479547 
L 958.025225 275.487234 
L 967.299525 275.49181 
L 976.573825 275.492359 
L 985.848125 275.492542 
" style="fill:none;stroke:#f0ad4e;stroke-linecap:square;"/>
   </g>
   <g id="line2d_18">
    <path clip-path="url(#p96803e5ccc)" d="M 58.418125 275.160881 
L 67.692425 275.090961 
L 76.966725 274.998344 
L 86.241025 274.926228 
L 95.515325 274.741179 
L 104.789625 274.421597 
L 114.063925 273.839542 
L 123.338225 272.977625 
L 132.612525 271.9356 
L 141.886825 270.963678 
L 151.161125 269.927144 
L 160.435425 268.35468 
L 169.709725 266.871355 
L 178.984025 265.655995 
L 188.258325 264.005924 
L 197.532625 261.437194 
L 206.806925 260.360026 
L 216.081225 261.120541 
L 225.355525 260.620669 
L 234.629825 258.452606 
L 243.904125 256.303029 
L 253.178425 254.557596 
L 262.452725 252.728149 
L 271.727025 250.183763 
L 281.001325 247.800815 
L 290.275625 246.092538 
L 299.549925 243.637474 
L 308.824225 238.335099 
L 318.098525 230.532999 
L 327.372825 225.155579 
L 336.647125 220.92909 
L 345.921425 218.215945 
L 355.195725 215.733059 
L 364.470025 211.995826 
L 373.744325 209.037596 
L 383.018625 206.343852 
L 392.292925 204.149981 
L 401.567225 204.617089 
L 410.841525 204.420508 
L 420.115825 200.47736 
L 429.390125 204.099096 
L 438.664425 211.975509 
L 447.938725 215.657465 
L 457.213025 218.082329 
L 466.487325 218.554562 
L 475.761625 218.349927 
L 485.035925 220.830434 
L 494.310225 224.679319 
L 503.584525 227.459638 
L 512.858825 229.944354 
L 522.133125 232.415526 
L 531.407425 234.450339 
L 540.681725 236.55251 
L 549.956025 238.797448 
L 559.230325 240.483761 
L 568.504625 242.423944 
L 577.778925 244.700182 
L 587.053225 246.470874 
L 596.327525 248.150414 
L 605.601825 250.154294 
L 614.876125 252.389532 
L 624.150425 254.136247 
L 633.424725 255.123544 
L 642.699025 256.24281 
L 651.973325 257.636813 
L 661.247625 258.754798 
L 670.521925 259.699814 
L 679.796225 260.192548 
L 689.070525 260.612799 
L 698.344825 261.040005 
L 707.619125 261.167764 
L 716.893425 261.376243 
L 726.167725 261.51535 
L 735.442025 261.625538 
L 744.716325 261.655922 
L 753.990625 261.53164 
L 763.264925 261.374412 
L 772.539225 261.122555 
L 781.813525 260.665147 
L 791.087825 259.978395 
L 800.362125 259.164433 
L 809.636425 258.24065 
L 818.910725 257.554813 
L 828.185025 257.414974 
L 837.459325 257.870185 
L 846.733625 259.078956 
L 856.007925 261.056662 
L 865.282225 263.7019 
L 874.556525 266.795578 
L 883.830825 269.769733 
L 893.105125 272.156159 
L 902.379425 273.722399 
L 911.653725 274.611772 
L 920.928025 275.102126 
L 930.202325 275.319756 
L 939.476625 275.409627 
L 948.750925 275.44843 
L 958.025225 275.466002 
L 967.299525 275.47131 
L 976.573825 275.474788 
L 985.848125 275.480828 
" style="fill:none;stroke:#d9534f;stroke-linecap:square;"/>
   </g>
   <g id="line2d_19">
    <path clip-path="url(#p96803e5ccc)" d="M 58.418125 275.50206 
L 985.848125 275.50206 
" style="fill:none;stroke:#dedede;stroke-linecap:square;stroke-width:2;"/>
   </g>
   <g id="text_16">
    <!-- FastQC: Per Sequence GC Content -->
    <g transform="translate(385.496875 19.3575)scale(0.16 -0.16)">
     <defs>
      <path d="M 9.8125 72.90625 
L 51.703125 72.90625 
L 51.703125 64.59375 
L 19.671875 64.59375 
L 19.671875 43.109375 
L 48.578125 43.109375 
L 48.578125 34.8125 
L 19.671875 34.8125 
L 19.671875 0 
L 9.8125 0 
z
" id="DejaVuSans-70"/>
      <path d="M 34.28125 27.484375 
Q 23.390625 27.484375 19.1875 25 
Q 14.984375 22.515625 14.984375 16.5 
Q 14.984375 11.71875 18.140625 8.90625 
Q 21.296875 6.109375 26.703125 6.109375 
Q 34.1875 6.109375 38.703125 11.40625 
Q 43.21875 16.703125 43.21875 25.484375 
L 43.21875 27.484375 
z
M 52.203125 31.203125 
L 52.203125 0 
L 43.21875 0 
L 43.21875 8.296875 
Q 40.140625 3.328125 35.546875 0.953125 
Q 30.953125 -1.421875 24.3125 -1.421875 
Q 15.921875 -1.421875 10.953125 3.296875 
Q 6 8.015625 6 15.921875 
Q 6 25.140625 12.171875 29.828125 
Q 18.359375 34.515625 30.609375 34.515625 
L 43.21875 34.515625 
L 43.21875 35.40625 
Q 43.21875 41.609375 39.140625 45 
Q 35.0625 48.390625 27.6875 48.390625 
Q 23 48.390625 18.546875 47.265625 
Q 14.109375 46.140625 10.015625 43.890625 
L 10.015625 52.203125 
Q 14.9375 54.109375 19.578125 55.046875 
Q 24.21875 56 28.609375 56 
Q 40.484375 56 46.34375 49.84375 
Q 52.203125 43.703125 52.203125 31.203125 
z
" id="DejaVuSans-97"/>
      <path d="M 44.28125 53.078125 
L 44.28125 44.578125 
Q 40.484375 46.53125 36.375 47.5 
Q 32.28125 48.484375 27.875 48.484375 
Q 21.1875 48.484375 17.84375 46.4375 
Q 14.5 44.390625 14.5 40.28125 
Q 14.5 37.15625 16.890625 35.375 
Q 19.28125 33.59375 26.515625 31.984375 
L 29.59375 31.296875 
Q 39.15625 29.25 43.1875 25.515625 
Q 47.21875 21.78125 47.21875 15.09375 
Q 47.21875 7.46875 41.1875 3.015625 
Q 35.15625 -1.421875 24.609375 -1.421875 
Q 20.21875 -1.421875 15.453125 -0.5625 
Q 10.6875 0.296875 5.421875 2 
L 5.421875 11.28125 
Q 10.40625 8.6875 15.234375 7.390625 
Q 20.0625 6.109375 24.8125 6.109375 
Q 31.15625 6.109375 34.5625 8.28125 
Q 37.984375 10.453125 37.984375 14.40625 
Q 37.984375 18.0625 35.515625 20.015625 
Q 33.0625 21.96875 24.703125 23.78125 
L 21.578125 24.515625 
Q 13.234375 26.265625 9.515625 29.90625 
Q 5.8125 33.546875 5.8125 39.890625 
Q 5.8125 47.609375 11.28125 51.796875 
Q 16.75 56 26.8125 56 
Q 31.78125 56 36.171875 55.265625 
Q 40.578125 54.546875 44.28125 53.078125 
z
" id="DejaVuSans-115"/>
      <path d="M 39.40625 66.21875 
Q 28.65625 66.21875 22.328125 58.203125 
Q 16.015625 50.203125 16.015625 36.375 
Q 16.015625 22.609375 22.328125 14.59375 
Q 28.65625 6.59375 39.40625 6.59375 
Q 50.140625 6.59375 56.421875 14.59375 
Q 62.703125 22.609375 62.703125 36.375 
Q 62.703125 50.203125 56.421875 58.203125 
Q 50.140625 66.21875 39.40625 66.21875 
z
M 53.21875 1.3125 
L 66.21875 -12.890625 
L 54.296875 -12.890625 
L 43.5 -1.21875 
Q 41.890625 -1.3125 41.03125 -1.359375 
Q 40.1875 -1.421875 39.40625 -1.421875 
Q 24.03125 -1.421875 14.8125 8.859375 
Q 5.609375 19.140625 5.609375 36.375 
Q 5.609375 53.65625 14.8125 63.9375 
Q 24.03125 74.21875 39.40625 74.21875 
Q 54.734375 74.21875 63.90625 63.9375 
Q 73.09375 53.65625 73.09375 36.375 
Q 73.09375 23.6875 67.984375 14.640625 
Q 62.890625 5.609375 53.21875 1.3125 
z
" id="DejaVuSans-81"/>
      <path d="M 11.71875 12.40625 
L 22.015625 12.40625 
L 22.015625 0 
L 11.71875 0 
z
M 11.71875 51.703125 
L 22.015625 51.703125 
L 22.015625 39.3125 
L 11.71875 39.3125 
z
" id="DejaVuSans-58"/>
      <path d="M 19.671875 64.796875 
L 19.671875 37.40625 
L 32.078125 37.40625 
Q 38.96875 37.40625 42.71875 40.96875 
Q 46.484375 44.53125 46.484375 51.125 
Q 46.484375 57.671875 42.71875 61.234375 
Q 38.96875 64.796875 32.078125 64.796875 
z
M 9.8125 72.90625 
L 32.078125 72.90625 
Q 44.34375 72.90625 50.609375 67.359375 
Q 56.890625 61.8125 56.890625 51.125 
Q 56.890625 40.328125 50.609375 34.8125 
Q 44.34375 29.296875 32.078125 29.296875 
L 19.671875 29.296875 
L 19.671875 0 
L 9.8125 0 
z
" id="DejaVuSans-80"/>
      <path d="M 56.203125 29.59375 
L 56.203125 25.203125 
L 14.890625 25.203125 
Q 15.484375 15.921875 20.484375 11.0625 
Q 25.484375 6.203125 34.421875 6.203125 
Q 39.59375 6.203125 44.453125 7.46875 
Q 49.3125 8.734375 54.109375 11.28125 
L 54.109375 2.78125 
Q 49.265625 0.734375 44.1875 -0.34375 
Q 39.109375 -1.421875 33.890625 -1.421875 
Q 20.796875 -1.421875 13.15625 6.1875 
Q 5.515625 13.8125 5.515625 26.8125 
Q 5.515625 40.234375 12.765625 48.109375 
Q 20.015625 56 32.328125 56 
Q 43.359375 56 49.78125 48.890625 
Q 56.203125 41.796875 56.203125 29.59375 
z
M 47.21875 32.234375 
Q 47.125 39.59375 43.09375 43.984375 
Q 39.0625 48.390625 32.421875 48.390625 
Q 24.90625 48.390625 20.390625 44.140625 
Q 15.875 39.890625 15.1875 32.171875 
z
" id="DejaVuSans-101"/>
      <path d="M 41.109375 46.296875 
Q 39.59375 47.171875 37.8125 47.578125 
Q 36.03125 48 33.890625 48 
Q 26.265625 48 22.1875 43.046875 
Q 18.109375 38.09375 18.109375 28.8125 
L 18.109375 0 
L 9.078125 0 
L 9.078125 54.6875 
L 18.109375 54.6875 
L 18.109375 46.1875 
Q 20.953125 51.171875 25.484375 53.578125 
Q 30.03125 56 36.53125 56 
Q 37.453125 56 38.578125 55.875 
Q 39.703125 55.765625 41.0625 55.515625 
z
" id="DejaVuSans-114"/>
      <path d="M 53.515625 70.515625 
L 53.515625 60.890625 
Q 47.90625 63.578125 42.921875 64.890625 
Q 37.9375 66.21875 33.296875 66.21875 
Q 25.25 66.21875 20.875 63.09375 
Q 16.5 59.96875 16.5 54.203125 
Q 16.5 49.359375 19.40625 46.890625 
Q 22.3125 44.4375 30.421875 42.921875 
L 36.375 41.703125 
Q 47.40625 39.59375 52.65625 34.296875 
Q 57.90625 29 57.90625 20.125 
Q 57.90625 9.515625 50.796875 4.046875 
Q 43.703125 -1.421875 29.984375 -1.421875 
Q 24.8125 -1.421875 18.96875 -0.25 
Q 13.140625 0.921875 6.890625 3.21875 
L 6.890625 13.375 
Q 12.890625 10.015625 18.65625 8.296875 
Q 24.421875 6.59375 29.984375 6.59375 
Q 38.421875 6.59375 43.015625 9.90625 
Q 47.609375 13.234375 47.609375 19.390625 
Q 47.609375 24.75 44.3125 27.78125 
Q 41.015625 30.8125 33.5 32.328125 
L 27.484375 33.5 
Q 16.453125 35.6875 11.515625 40.375 
Q 6.59375 45.0625 6.59375 53.421875 
Q 6.59375 63.09375 13.40625 68.65625 
Q 20.21875 74.21875 32.171875 74.21875 
Q 37.3125 74.21875 42.625 73.28125 
Q 47.953125 72.359375 53.515625 70.515625 
z
" id="DejaVuSans-83"/>
      <path d="M 14.796875 27.296875 
Q 14.796875 17.390625 18.875 11.75 
Q 22.953125 6.109375 30.078125 6.109375 
Q 37.203125 6.109375 41.296875 11.75 
Q 45.40625 17.390625 45.40625 27.296875 
Q 45.40625 37.203125 41.296875 42.84375 
Q 37.203125 48.484375 30.078125 48.484375 
Q 22.953125 48.484375 18.875 42.84375 
Q 14.796875 37.203125 14.796875 27.296875 
z
M 45.40625 8.203125 
Q 42.578125 3.328125 38.25 0.953125 
Q 33.9375 -1.421875 27.875 -1.421875 
Q 17.96875 -1.421875 11.734375 6.484375 
Q 5.515625 14.40625 5.515625 27.296875 
Q 5.515625 40.1875 11.734375 48.09375 
Q 17.96875 56 27.875 56 
Q 33.9375 56 38.25 53.625 
Q 42.578125 51.265625 45.40625 46.390625 
L 45.40625 54.6875 
L 54.390625 54.6875 
L 54.390625 -20.796875 
L 45.40625 -20.796875 
z
" id="DejaVuSans-113"/>
      <path d="M 48.78125 52.59375 
L 48.78125 44.1875 
Q 44.96875 46.296875 41.140625 47.34375 
Q 37.3125 48.390625 33.40625 48.390625 
Q 24.65625 48.390625 19.8125 42.84375 
Q 14.984375 37.3125 14.984375 27.296875 
Q 14.984375 17.28125 19.8125 11.734375 
Q 24.65625 6.203125 33.40625 6.203125 
Q 37.3125 6.203125 41.140625 7.25 
Q 44.96875 8.296875 48.78125 10.40625 
L 48.78125 2.09375 
Q 45.015625 0.34375 40.984375 -0.53125 
Q 36.96875 -1.421875 32.421875 -1.421875 
Q 20.0625 -1.421875 12.78125 6.34375 
Q 5.515625 14.109375 5.515625 27.296875 
Q 5.515625 40.671875 12.859375 48.328125 
Q 20.21875 56 33.015625 56 
Q 37.15625 56 41.109375 55.140625 
Q 45.0625 54.296875 48.78125 52.59375 
z
" id="DejaVuSans-99"/>
     </defs>
     <use xlink:href="#DejaVuSans-70"/>
     <use x="48.394531" xlink:href="#DejaVuSans-97"/>
     <use x="109.673828" xlink:href="#DejaVuSans-115"/>
     <use x="161.773438" xlink:href="#DejaVuSans-116"/>
     <use x="200.982422" xlink:href="#DejaVuSans-81"/>
     <use x="279.693359" xlink:href="#DejaVuSans-67"/>
     <use x="349.517578" xlink:href="#DejaVuSans-58"/>
     <use x="383.208984" xlink:href="#DejaVuSans-32"/>
     <use x="414.996094" xlink:href="#DejaVuSans-80"/>
     <use x="471.673828" xlink:href="#DejaVuSans-101"/>
     <use x="533.197266" xlink:href="#DejaVuSans-114"/>
     <use x="574.310547" xlink:href="#DejaVuSans-32"/>
     <use x="606.097656" xlink:href="#DejaVuSans-83"/>
     <use x="669.574219" xlink:href="#DejaVuSans-101"/>
     <use x="731.097656" xlink:href="#DejaVuSans-113"/>
     <use x="794.574219" xlink:href="#DejaVuSans-117"/>
     <use x="857.953125" xlink:href="#DejaVuSans-101"/>
     <use x="919.476562" xlink:href="#DejaVuSans-110"/>
     <use x="982.855469" xlink:href="#DejaVuSans-99"/>
     <use x="1037.835938" xlink:href="#DejaVuSans-101"/>
     <use x="1099.359375" xlink:href="#DejaVuSans-32"/>
     <use x="1131.146484" xlink:href="#DejaVuSans-71"/>
     <use x="1208.636719" xlink:href="#DejaVuSans-67"/>
     <use x="1278.460938" xlink:href="#DejaVuSans-32"/>
     <use x="1310.248047" xlink:href="#DejaVuSans-67"/>
     <use x="1380.072266" xlink:href="#DejaVuSans-111"/>
     <use x="1441.253906" xlink:href="#DejaVuSans-110"/>
     <use x="1504.632812" xlink:href="#DejaVuSans-116"/>
     <use x="1543.841797" xlink:href="#DejaVuSans-101"/>
     <use x="1605.365234" xlink:href="#DejaVuSans-110"/>
     <use x="1668.744141" xlink:href="#DejaVuSans-116"/>
    </g>
   </g>
   <g id="legend_1">
    <g id="line2d_20">
     <path d="M 65.618125 293.354194 
L 81.618125 293.354194 
" style="fill:none;stroke:#f0ad4e;stroke-linecap:square;"/>
    </g>
    <g id="line2d_21"/>
    <g id="text_17">
     <!-- RT_Gad2_1 -->
     <g transform="translate(88.018125 296.154194)scale(0.08 -0.08)">
      <defs>
       <path d="M 44.390625 34.1875 
Q 47.5625 33.109375 50.5625 29.59375 
Q 53.5625 26.078125 56.59375 19.921875 
L 66.609375 0 
L 56 0 
L 46.6875 18.703125 
Q 43.0625 26.03125 39.671875 28.421875 
Q 36.28125 30.8125 30.421875 30.8125 
L 19.671875 30.8125 
L 19.671875 0 
L 9.8125 0 
L 9.8125 72.90625 
L 32.078125 72.90625 
Q 44.578125 72.90625 50.734375 67.671875 
Q 56.890625 62.453125 56.890625 51.90625 
Q 56.890625 45.015625 53.6875 40.46875 
Q 50.484375 35.9375 44.390625 34.1875 
z
M 19.671875 64.796875 
L 19.671875 38.921875 
L 32.078125 38.921875 
Q 39.203125 38.921875 42.84375 42.21875 
Q 46.484375 45.515625 46.484375 51.90625 
Q 46.484375 58.296875 42.84375 61.546875 
Q 39.203125 64.796875 32.078125 64.796875 
z
" id="DejaVuSans-82"/>
       <path d="M -0.296875 72.90625 
L 61.375 72.90625 
L 61.375 64.59375 
L 35.5 64.59375 
L 35.5 0 
L 25.59375 0 
L 25.59375 64.59375 
L -0.296875 64.59375 
z
" id="DejaVuSans-84"/>
       <path d="M 50.984375 -16.609375 
L 50.984375 -23.578125 
L -0.984375 -23.578125 
L -0.984375 -16.609375 
z
" id="DejaVuSans-95"/>
       <path d="M 45.40625 46.390625 
L 45.40625 75.984375 
L 54.390625 75.984375 
L 54.390625 0 
L 45.40625 0 
L 45.40625 8.203125 
Q 42.578125 3.328125 38.25 0.953125 
Q 33.9375 -1.421875 27.875 -1.421875 
Q 17.96875 -1.421875 11.734375 6.484375 
Q 5.515625 14.40625 5.515625 27.296875 
Q 5.515625 40.1875 11.734375 48.09375 
Q 17.96875 56 27.875 56 
Q 33.9375 56 38.25 53.625 
Q 42.578125 51.265625 45.40625 46.390625 
z
M 14.796875 27.296875 
Q 14.796875 17.390625 18.875 11.75 
Q 22.953125 6.109375 30.078125 6.109375 
Q 37.203125 6.109375 41.296875 11.75 
Q 45.40625 17.390625 45.40625 27.296875 
Q 45.40625 37.203125 41.296875 42.84375 
Q 37.203125 48.484375 30.078125 48.484375 
Q 22.953125 48.484375 18.875 42.84375 
Q 14.796875 37.203125 14.796875 27.296875 
z
" id="DejaVuSans-100"/>
      </defs>
      <use xlink:href="#DejaVuSans-82"/>
      <use x="62.232422" xlink:href="#DejaVuSans-84"/>
      <use x="123.316406" xlink:href="#DejaVuSans-95"/>
      <use x="173.316406" xlink:href="#DejaVuSans-71"/>
      <use x="250.806641" xlink:href="#DejaVuSans-97"/>
      <use x="312.085938" xlink:href="#DejaVuSans-100"/>
      <use x="375.5625" xlink:href="#DejaVuSans-50"/>
      <use x="439.185547" xlink:href="#DejaVuSans-95"/>
      <use x="489.185547" xlink:href="#DejaVuSans-49"/>
     </g>
    </g>
    <g id="line2d_22">
     <path d="M 65.618125 305.319194 
L 81.618125 305.319194 
" style="fill:none;stroke:#f0ad4e;stroke-linecap:square;"/>
    </g>
    <g id="line2d_23"/>
    <g id="text_18">
     <!-- RT_Gad2_2 -->
     <g transform="translate(88.018125 308.119194)scale(0.08 -0.08)">
      <use xlink:href="#DejaVuSans-82"/>
      <use x="62.232422" xlink:href="#DejaVuSans-84"/>
      <use x="123.316406" xlink:href="#DejaVuSans-95"/>
      <use x="173.316406" xlink:href="#DejaVuSans-71"/>
      <use x="250.806641" xlink:href="#DejaVuSans-97"/>
      <use x="312.085938" xlink:href="#DejaVuSans-100"/>
      <use x="375.5625" xlink:href="#DejaVuSans-50"/>
      <use x="439.185547" xlink:href="#DejaVuSans-95"/>
      <use x="489.185547" xlink:href="#DejaVuSans-50"/>
     </g>
    </g>
    <g id="line2d_24">
     <path d="M 65.618125 317.284194 
L 81.618125 317.284194 
" style="fill:none;stroke:#f0ad4e;stroke-linecap:square;"/>
    </g>
    <g id="line2d_25"/>
    <g id="text_19">
     <!-- RT_Gad2_3 -->
     <g transform="translate(88.018125 320.084194)scale(0.08 -0.08)">
      <use xlink:href="#DejaVuSans-82"/>
      <use x="62.232422" xlink:href="#DejaVuSans-84"/>
      <use x="123.316406" xlink:href="#DejaVuSans-95"/>
      <use x="173.316406" xlink:href="#DejaVuSans-71"/>
      <use x="250.806641" xlink:href="#DejaVuSans-97"/>
      <use x="312.085938" xlink:href="#DejaVuSans-100"/>
      <use x="375.5625" xlink:href="#DejaVuSans-50"/>
      <use x="439.185547" xlink:href="#DejaVuSans-95"/>
      <use x="489.185547" xlink:href="#DejaVuSans-51"/>
     </g>
    </g>
    <g id="line2d_26">
     <path d="M 271.792188 293.354194 
L 287.792188 293.354194 
" style="fill:none;stroke:#f0ad4e;stroke-linecap:square;"/>
    </g>
    <g id="line2d_27"/>
    <g id="text_20">
     <!-- RT_vGluT2_1 -->
     <g transform="translate(294.192188 296.154194)scale(0.08 -0.08)">
      <defs>
       <path d="M 2.984375 54.6875 
L 12.5 54.6875 
L 29.59375 8.796875 
L 46.6875 54.6875 
L 56.203125 54.6875 
L 35.6875 0 
L 23.484375 0 
z
" id="DejaVuSans-118"/>
       <path d="M 9.421875 75.984375 
L 18.40625 75.984375 
L 18.40625 0 
L 9.421875 0 
z
" id="DejaVuSans-108"/>
      </defs>
      <use xlink:href="#DejaVuSans-82"/>
      <use x="62.232422" xlink:href="#DejaVuSans-84"/>
      <use x="123.316406" xlink:href="#DejaVuSans-95"/>
      <use x="173.316406" xlink:href="#DejaVuSans-118"/>
      <use x="232.496094" xlink:href="#DejaVuSans-71"/>
      <use x="309.986328" xlink:href="#DejaVuSans-108"/>
      <use x="337.769531" xlink:href="#DejaVuSans-117"/>
      <use x="401.148438" xlink:href="#DejaVuSans-84"/>
      <use x="462.232422" xlink:href="#DejaVuSans-50"/>
      <use x="525.855469" xlink:href="#DejaVuSans-95"/>
      <use x="575.855469" xlink:href="#DejaVuSans-49"/>
     </g>
    </g>
    <g id="line2d_28">
     <path d="M 271.792188 305.319194 
L 287.792188 305.319194 
" style="fill:none;stroke:#f0ad4e;stroke-linecap:square;"/>
    </g>
    <g id="line2d_29"/>
    <g id="text_21">
     <!-- RT_vGluT2_3 -->
     <g transform="translate(294.192188 308.119194)scale(0.08 -0.08)">
      <use xlink:href="#DejaVuSans-82"/>
      <use x="62.232422" xlink:href="#DejaVuSans-84"/>
      <use x="123.316406" xlink:href="#DejaVuSans-95"/>
      <use x="173.316406" xlink:href="#DejaVuSans-118"/>
      <use x="232.496094" xlink:href="#DejaVuSans-71"/>
      <use x="309.986328" xlink:href="#DejaVuSans-108"/>
      <use x="337.769531" xlink:href="#DejaVuSans-117"/>
      <use x="401.148438" xlink:href="#DejaVuSans-84"/>
      <use x="462.232422" xlink:href="#DejaVuSans-50"/>
      <use x="525.855469" xlink:href="#DejaVuSans-95"/>
      <use x="575.855469" xlink:href="#DejaVuSans-51"/>
     </g>
    </g>
    <g id="line2d_30">
     <path d="M 484.89875 293.354194 
L 500.89875 293.354194 
" style="fill:none;stroke:#f0ad4e;stroke-linecap:square;"/>
    </g>
    <g id="line2d_31"/>
    <g id="text_22">
     <!-- S1_Gad2_1 -->
     <g transform="translate(507.29875 296.154194)scale(0.08 -0.08)">
      <use xlink:href="#DejaVuSans-83"/>
      <use x="63.476562" xlink:href="#DejaVuSans-49"/>
      <use x="127.099609" xlink:href="#DejaVuSans-95"/>
      <use x="177.099609" xlink:href="#DejaVuSans-71"/>
      <use x="254.589844" xlink:href="#DejaVuSans-97"/>
      <use x="315.869141" xlink:href="#DejaVuSans-100"/>
      <use x="379.345703" xlink:href="#DejaVuSans-50"/>
      <use x="442.96875" xlink:href="#DejaVuSans-95"/>
      <use x="492.96875" xlink:href="#DejaVuSans-49"/>
     </g>
    </g>
    <g id="line2d_32">
     <path d="M 484.89875 305.319194 
L 500.89875 305.319194 
" style="fill:none;stroke:#f0ad4e;stroke-linecap:square;"/>
    </g>
    <g id="line2d_33"/>
    <g id="text_23">
     <!-- S1_Gad2_2 -->
     <g transform="translate(507.29875 308.119194)scale(0.08 -0.08)">
      <use xlink:href="#DejaVuSans-83"/>
      <use x="63.476562" xlink:href="#DejaVuSans-49"/>
      <use x="127.099609" xlink:href="#DejaVuSans-95"/>
      <use x="177.099609" xlink:href="#DejaVuSans-71"/>
      <use x="254.589844" xlink:href="#DejaVuSans-97"/>
      <use x="315.869141" xlink:href="#DejaVuSans-100"/>
      <use x="379.345703" xlink:href="#DejaVuSans-50"/>
      <use x="442.96875" xlink:href="#DejaVuSans-95"/>
      <use x="492.96875" xlink:href="#DejaVuSans-50"/>
     </g>
    </g>
    <g id="line2d_34">
     <path d="M 691.376563 293.354194 
L 707.376563 293.354194 
" style="fill:none;stroke:#f0ad4e;stroke-linecap:square;"/>
    </g>
    <g id="line2d_35"/>
    <g id="text_24">
     <!-- S1_Gad2_3 -->
     <g transform="translate(713.776563 296.154194)scale(0.08 -0.08)">
      <use xlink:href="#DejaVuSans-83"/>
      <use x="63.476562" xlink:href="#DejaVuSans-49"/>
      <use x="127.099609" xlink:href="#DejaVuSans-95"/>
      <use x="177.099609" xlink:href="#DejaVuSans-71"/>
      <use x="254.589844" xlink:href="#DejaVuSans-97"/>
      <use x="315.869141" xlink:href="#DejaVuSans-100"/>
      <use x="379.345703" xlink:href="#DejaVuSans-50"/>
      <use x="442.96875" xlink:href="#DejaVuSans-95"/>
      <use x="492.96875" xlink:href="#DejaVuSans-51"/>
     </g>
    </g>
    <g id="line2d_36">
     <path d="M 691.376563 305.319194 
L 707.376563 305.319194 
" style="fill:none;stroke:#d9534f;stroke-linecap:square;"/>
    </g>
    <g id="line2d_37"/>
    <g id="text_25">
     <!-- S1_vGluT2_1 -->
     <g transform="translate(713.776563 308.119194)scale(0.08 -0.08)">
      <use xlink:href="#DejaVuSans-83"/>
      <use x="63.476562" xlink:href="#DejaVuSans-49"/>
      <use x="127.099609" xlink:href="#DejaVuSans-95"/>
      <use x="177.099609" xlink:href="#DejaVuSans-118"/>
      <use x="236.279297" xlink:href="#DejaVuSans-71"/>
      <use x="313.769531" xlink:href="#DejaVuSans-108"/>
      <use x="341.552734" xlink:href="#DejaVuSans-117"/>
      <use x="404.931641" xlink:href="#DejaVuSans-84"/>
      <use x="466.015625" xlink:href="#DejaVuSans-50"/>
      <use x="529.638672" xlink:href="#DejaVuSans-95"/>
      <use x="579.638672" xlink:href="#DejaVuSans-49"/>
     </g>
    </g>
    <g id="line2d_38">
     <path d="M 904.786875 293.354194 
L 920.786875 293.354194 
" style="fill:none;stroke:#f0ad4e;stroke-linecap:square;"/>
    </g>
    <g id="line2d_39"/>
    <g id="text_26">
     <!-- S1_vGluT2_2 -->
     <g transform="translate(927.186875 296.154194)scale(0.08 -0.08)">
      <use xlink:href="#DejaVuSans-83"/>
      <use x="63.476562" xlink:href="#DejaVuSans-49"/>
      <use x="127.099609" xlink:href="#DejaVuSans-95"/>
      <use x="177.099609" xlink:href="#DejaVuSans-118"/>
      <use x="236.279297" xlink:href="#DejaVuSans-71"/>
      <use x="313.769531" xlink:href="#DejaVuSans-108"/>
      <use x="341.552734" xlink:href="#DejaVuSans-117"/>
      <use x="404.931641" xlink:href="#DejaVuSans-84"/>
      <use x="466.015625" xlink:href="#DejaVuSans-50"/>
      <use x="529.638672" xlink:href="#DejaVuSans-95"/>
      <use x="579.638672" xlink:href="#DejaVuSans-50"/>
     </g>
    </g>
    <g id="line2d_40">
     <path d="M 904.786875 305.319194 
L 920.786875 305.319194 
" style="fill:none;stroke:#d9534f;stroke-linecap:square;"/>
    </g>
    <g id="line2d_41"/>
    <g id="text_27">
     <!-- S1_vGluT2_3 -->
     <g transform="translate(927.186875 308.119194)scale(0.08 -0.08)">
      <use xlink:href="#DejaVuSans-83"/>
      <use x="63.476562" xlink:href="#DejaVuSans-49"/>
      <use x="127.099609" xlink:href="#DejaVuSans-95"/>
      <use x="177.099609" xlink:href="#DejaVuSans-118"/>
      <use x="236.279297" xlink:href="#DejaVuSans-71"/>
      <use x="313.769531" xlink:href="#DejaVuSans-108"/>
      <use x="341.552734" xlink:href="#DejaVuSans-117"/>
      <use x="404.931641" xlink:href="#DejaVuSans-84"/>
      <use x="466.015625" xlink:href="#DejaVuSans-50"/>
      <use x="529.638672" xlink:href="#DejaVuSans-95"/>
      <use x="579.638672" xlink:href="#DejaVuSans-51"/>
     </g>
    </g>
   </g>
  </g>
 </g>
 <defs>
  <clipPath id="p96803e5ccc">
   <rect height="243.9472" width="927.43" x="58.418125" y="31.55486"/>
  </clipPath>
 </defs>
</svg>
