<?xml version="1.0" encoding="utf-8" standalone="no"?>
<!DOCTYPE svg PUBLIC "-//W3C//DTD SVG 1.1//EN"
  "http://www.w3.org/Graphics/SVG/1.1/DTD/svg11.dtd">
<!-- Created with matplotlib (https://matplotlib.org/) -->
<svg height="332.370444pt" version="1.1" viewBox="0 0 1000.698125 332.370444" width="1000.698125pt" xmlns="http://www.w3.org/2000/svg" xmlns:xlink="http://www.w3.org/1999/xlink">
 <metadata>
  <rdf:RDF xmlns:cc="http://creativecommons.org/ns#" xmlns:dc="http://purl.org/dc/elements/1.1/" xmlns:rdf="http://www.w3.org/1999/02/22-rdf-syntax-ns#">
   <cc:Work>
    <dc:type rdf:resource="http://purl.org/dc/dcmitype/StillImage"/>
    <dc:date>2020-12-04T06:38:04.318315</dc:date>
    <dc:format>image/svg+xml</dc:format>
    <dc:creator>
     <cc:Agent>
      <dc:title>Matplotlib v3.3.1, https://matplotlib.org/</dc:title>
     </cc:Agent>
    </dc:creator>
   </cc:Work>
  </rdf:RDF>
 </metadata>
 <defs>
  <style type="text/css">*{stroke-linecap:butt;stroke-linejoin:round;}</style>
 </defs>
 <g id="figure_1">
  <g id="axes_1">
   <g id="patch_1">
    <path d="M 58.418125 275.50206 
L 993.498125 275.50206 
L 993.498125 31.55486 
L 58.418125 31.55486 
z
" style="fill:#ffffff;"/>
   </g>
   <g id="matplotlib.axis_1">
    <g id="xtick_1">
     <g id="text_1">
      <!-- 0 -->
      <g transform="translate(77.473334 288.58081)scale(0.08 -0.08)">
       <defs>
        <path d="M 31.78125 66.40625 
Q 24.171875 66.40625 20.328125 58.90625 
Q 16.5 51.421875 16.5 36.375 
Q 16.5 21.390625 20.328125 13.890625 
Q 24.171875 6.390625 31.78125 6.390625 
Q 39.453125 6.390625 43.28125 13.890625 
Q 47.125 21.390625 47.125 36.375 
Q 47.125 51.421875 43.28125 58.90625 
Q 39.453125 66.40625 31.78125 66.40625 
z
M 31.78125 74.21875 
Q 44.046875 74.21875 50.515625 64.515625 
Q 56.984375 54.828125 56.984375 36.375 
Q 56.984375 17.96875 50.515625 8.265625 
Q 44.046875 -1.421875 31.78125 -1.421875 
Q 19.53125 -1.421875 13.0625 8.265625 
Q 6.59375 17.96875 6.59375 36.375 
Q 6.59375 54.828125 13.0625 64.515625 
Q 19.53125 74.21875 31.78125 74.21875 
z
" id="DejaVuSans-48"/>
       </defs>
       <use xlink:href="#DejaVuSans-48"/>
      </g>
     </g>
    </g>
    <g id="xtick_2">
     <g id="text_2">
      <!-- 20 -->
      <g transform="translate(214.284518 288.58081)scale(0.08 -0.08)">
       <defs>
        <path d="M 19.1875 8.296875 
L 53.609375 8.296875 
L 53.609375 0 
L 7.328125 0 
L 7.328125 8.296875 
Q 12.9375 14.109375 22.625 23.890625 
Q 32.328125 33.6875 34.8125 36.53125 
Q 39.546875 41.84375 41.421875 45.53125 
Q 43.3125 49.21875 43.3125 52.78125 
Q 43.3125 58.59375 39.234375 62.25 
Q 35.15625 65.921875 28.609375 65.921875 
Q 23.96875 65.921875 18.8125 64.3125 
Q 13.671875 62.703125 7.8125 59.421875 
L 7.8125 69.390625 
Q 13.765625 71.78125 18.9375 73 
Q 24.125 74.21875 28.421875 74.21875 
Q 39.75 74.21875 46.484375 68.546875 
Q 53.21875 62.890625 53.21875 53.421875 
Q 53.21875 48.921875 51.53125 44.890625 
Q 49.859375 40.875 45.40625 35.40625 
Q 44.1875 33.984375 37.640625 27.21875 
Q 31.109375 20.453125 19.1875 8.296875 
z
" id="DejaVuSans-50"/>
       </defs>
       <use xlink:href="#DejaVuSans-50"/>
       <use x="63.623047" xlink:href="#DejaVuSans-48"/>
      </g>
     </g>
    </g>
    <g id="xtick_3">
     <g id="text_3">
      <!-- 40 -->
      <g transform="translate(353.640703 288.58081)scale(0.08 -0.08)">
       <defs>
        <path d="M 37.796875 64.3125 
L 12.890625 25.390625 
L 37.796875 25.390625 
z
M 35.203125 72.90625 
L 47.609375 72.90625 
L 47.609375 25.390625 
L 58.015625 25.390625 
L 58.015625 17.1875 
L 47.609375 17.1875 
L 47.609375 0 
L 37.796875 0 
L 37.796875 17.1875 
L 4.890625 17.1875 
L 4.890625 26.703125 
z
" id="DejaVuSans-52"/>
       </defs>
       <use xlink:href="#DejaVuSans-52"/>
       <use x="63.623047" xlink:href="#DejaVuSans-48"/>
      </g>
     </g>
    </g>
    <g id="xtick_4">
     <g id="text_4">
      <!-- 60 -->
      <g transform="translate(492.996888 288.58081)scale(0.08 -0.08)">
       <defs>
        <path d="M 33.015625 40.375 
Q 26.375 40.375 22.484375 35.828125 
Q 18.609375 31.296875 18.609375 23.390625 
Q 18.609375 15.53125 22.484375 10.953125 
Q 26.375 6.390625 33.015625 6.390625 
Q 39.65625 6.390625 43.53125 10.953125 
Q 47.40625 15.53125 47.40625 23.390625 
Q 47.40625 31.296875 43.53125 35.828125 
Q 39.65625 40.375 33.015625 40.375 
z
M 52.59375 71.296875 
L 52.59375 62.3125 
Q 48.875 64.0625 45.09375 64.984375 
Q 41.3125 65.921875 37.59375 65.921875 
Q 27.828125 65.921875 22.671875 59.328125 
Q 17.53125 52.734375 16.796875 39.40625 
Q 19.671875 43.65625 24.015625 45.921875 
Q 28.375 48.1875 33.59375 48.1875 
Q 44.578125 48.1875 50.953125 41.515625 
Q 57.328125 34.859375 57.328125 23.390625 
Q 57.328125 12.15625 50.6875 5.359375 
Q 44.046875 -1.421875 33.015625 -1.421875 
Q 20.359375 -1.421875 13.671875 8.265625 
Q 6.984375 17.96875 6.984375 36.375 
Q 6.984375 53.65625 15.1875 63.9375 
Q 23.390625 74.21875 37.203125 74.21875 
Q 40.921875 74.21875 44.703125 73.484375 
Q 48.484375 72.75 52.59375 71.296875 
z
" id="DejaVuSans-54"/>
       </defs>
       <use xlink:href="#DejaVuSans-54"/>
       <use x="63.623047" xlink:href="#DejaVuSans-48"/>
      </g>
     </g>
    </g>
    <g id="xtick_5">
     <g id="text_5">
      <!-- 80 -->
      <g transform="translate(632.353073 288.58081)scale(0.08 -0.08)">
       <defs>
        <path d="M 31.78125 34.625 
Q 24.75 34.625 20.71875 30.859375 
Q 16.703125 27.09375 16.703125 20.515625 
Q 16.703125 13.921875 20.71875 10.15625 
Q 24.75 6.390625 31.78125 6.390625 
Q 38.8125 6.390625 42.859375 10.171875 
Q 46.921875 13.96875 46.921875 20.515625 
Q 46.921875 27.09375 42.890625 30.859375 
Q 38.875 34.625 31.78125 34.625 
z
M 21.921875 38.8125 
Q 15.578125 40.375 12.03125 44.71875 
Q 8.5 49.078125 8.5 55.328125 
Q 8.5 64.0625 14.71875 69.140625 
Q 20.953125 74.21875 31.78125 74.21875 
Q 42.671875 74.21875 48.875 69.140625 
Q 55.078125 64.0625 55.078125 55.328125 
Q 55.078125 49.078125 51.53125 44.71875 
Q 48 40.375 41.703125 38.8125 
Q 48.828125 37.15625 52.796875 32.3125 
Q 56.78125 27.484375 56.78125 20.515625 
Q 56.78125 9.90625 50.3125 4.234375 
Q 43.84375 -1.421875 31.78125 -1.421875 
Q 19.734375 -1.421875 13.25 4.234375 
Q 6.78125 9.90625 6.78125 20.515625 
Q 6.78125 27.484375 10.78125 32.3125 
Q 14.796875 37.15625 21.921875 38.8125 
z
M 18.3125 54.390625 
Q 18.3125 48.734375 21.84375 45.5625 
Q 25.390625 42.390625 31.78125 42.390625 
Q 38.140625 42.390625 41.71875 45.5625 
Q 45.3125 48.734375 45.3125 54.390625 
Q 45.3125 60.0625 41.71875 63.234375 
Q 38.140625 66.40625 31.78125 66.40625 
Q 25.390625 66.40625 21.84375 63.234375 
Q 18.3125 60.0625 18.3125 54.390625 
z
" id="DejaVuSans-56"/>
       </defs>
       <use xlink:href="#DejaVuSans-56"/>
       <use x="63.623047" xlink:href="#DejaVuSans-48"/>
      </g>
     </g>
    </g>
    <g id="xtick_6">
     <g id="text_6">
      <!-- 100 -->
      <g transform="translate(769.164258 288.58081)scale(0.08 -0.08)">
       <defs>
        <path d="M 12.40625 8.296875 
L 28.515625 8.296875 
L 28.515625 63.921875 
L 10.984375 60.40625 
L 10.984375 69.390625 
L 28.421875 72.90625 
L 38.28125 72.90625 
L 38.28125 8.296875 
L 54.390625 8.296875 
L 54.390625 0 
L 12.40625 0 
z
" id="DejaVuSans-49"/>
       </defs>
       <use xlink:href="#DejaVuSans-49"/>
       <use x="63.623047" xlink:href="#DejaVuSans-48"/>
       <use x="127.246094" xlink:href="#DejaVuSans-48"/>
      </g>
     </g>
    </g>
    <g id="xtick_7">
     <g id="text_7">
      <!-- 120 -->
      <g transform="translate(908.520442 288.58081)scale(0.08 -0.08)">
       <use xlink:href="#DejaVuSans-49"/>
       <use x="63.623047" xlink:href="#DejaVuSans-50"/>
       <use x="127.246094" xlink:href="#DejaVuSans-48"/>
      </g>
     </g>
    </g>
    <g id="text_8">
     <!-- Length Trimmed (bp) -->
     <g transform="translate(473.530781 301.842998)scale(0.1 -0.1)">
      <defs>
       <path d="M 9.8125 72.90625 
L 19.671875 72.90625 
L 19.671875 8.296875 
L 55.171875 8.296875 
L 55.171875 0 
L 9.8125 0 
z
" id="DejaVuSans-76"/>
       <path d="M 56.203125 29.59375 
L 56.203125 25.203125 
L 14.890625 25.203125 
Q 15.484375 15.921875 20.484375 11.0625 
Q 25.484375 6.203125 34.421875 6.203125 
Q 39.59375 6.203125 44.453125 7.46875 
Q 49.3125 8.734375 54.109375 11.28125 
L 54.109375 2.78125 
Q 49.265625 0.734375 44.1875 -0.34375 
Q 39.109375 -1.421875 33.890625 -1.421875 
Q 20.796875 -1.421875 13.15625 6.1875 
Q 5.515625 13.8125 5.515625 26.8125 
Q 5.515625 40.234375 12.765625 48.109375 
Q 20.015625 56 32.328125 56 
Q 43.359375 56 49.78125 48.890625 
Q 56.203125 41.796875 56.203125 29.59375 
z
M 47.21875 32.234375 
Q 47.125 39.59375 43.09375 43.984375 
Q 39.0625 48.390625 32.421875 48.390625 
Q 24.90625 48.390625 20.390625 44.140625 
Q 15.875 39.890625 15.1875 32.171875 
z
" id="DejaVuSans-101"/>
       <path d="M 54.890625 33.015625 
L 54.890625 0 
L 45.90625 0 
L 45.90625 32.71875 
Q 45.90625 40.484375 42.875 44.328125 
Q 39.84375 48.1875 33.796875 48.1875 
Q 26.515625 48.1875 22.3125 43.546875 
Q 18.109375 38.921875 18.109375 30.90625 
L 18.109375 0 
L 9.078125 0 
L 9.078125 54.6875 
L 18.109375 54.6875 
L 18.109375 46.1875 
Q 21.34375 51.125 25.703125 53.5625 
Q 30.078125 56 35.796875 56 
Q 45.21875 56 50.046875 50.171875 
Q 54.890625 44.34375 54.890625 33.015625 
z
" id="DejaVuSans-110"/>
       <path d="M 45.40625 27.984375 
Q 45.40625 37.75 41.375 43.109375 
Q 37.359375 48.484375 30.078125 48.484375 
Q 22.859375 48.484375 18.828125 43.109375 
Q 14.796875 37.75 14.796875 27.984375 
Q 14.796875 18.265625 18.828125 12.890625 
Q 22.859375 7.515625 30.078125 7.515625 
Q 37.359375 7.515625 41.375 12.890625 
Q 45.40625 18.265625 45.40625 27.984375 
z
M 54.390625 6.78125 
Q 54.390625 -7.171875 48.1875 -13.984375 
Q 42 -20.796875 29.203125 -20.796875 
Q 24.46875 -20.796875 20.265625 -20.09375 
Q 16.0625 -19.390625 12.109375 -17.921875 
L 12.109375 -9.1875 
Q 16.0625 -11.328125 19.921875 -12.34375 
Q 23.78125 -13.375 27.78125 -13.375 
Q 36.625 -13.375 41.015625 -8.765625 
Q 45.40625 -4.15625 45.40625 5.171875 
L 45.40625 9.625 
Q 42.625 4.78125 38.28125 2.390625 
Q 33.9375 0 27.875 0 
Q 17.828125 0 11.671875 7.65625 
Q 5.515625 15.328125 5.515625 27.984375 
Q 5.515625 40.671875 11.671875 48.328125 
Q 17.828125 56 27.875 56 
Q 33.9375 56 38.28125 53.609375 
Q 42.625 51.21875 45.40625 46.390625 
L 45.40625 54.6875 
L 54.390625 54.6875 
z
" id="DejaVuSans-103"/>
       <path d="M 18.3125 70.21875 
L 18.3125 54.6875 
L 36.8125 54.6875 
L 36.8125 47.703125 
L 18.3125 47.703125 
L 18.3125 18.015625 
Q 18.3125 11.328125 20.140625 9.421875 
Q 21.96875 7.515625 27.59375 7.515625 
L 36.8125 7.515625 
L 36.8125 0 
L 27.59375 0 
Q 17.1875 0 13.234375 3.875 
Q 9.28125 7.765625 9.28125 18.015625 
L 9.28125 47.703125 
L 2.6875 47.703125 
L 2.6875 54.6875 
L 9.28125 54.6875 
L 9.28125 70.21875 
z
" id="DejaVuSans-116"/>
       <path d="M 54.890625 33.015625 
L 54.890625 0 
L 45.90625 0 
L 45.90625 32.71875 
Q 45.90625 40.484375 42.875 44.328125 
Q 39.84375 48.1875 33.796875 48.1875 
Q 26.515625 48.1875 22.3125 43.546875 
Q 18.109375 38.921875 18.109375 30.90625 
L 18.109375 0 
L 9.078125 0 
L 9.078125 75.984375 
L 18.109375 75.984375 
L 18.109375 46.1875 
Q 21.34375 51.125 25.703125 53.5625 
Q 30.078125 56 35.796875 56 
Q 45.21875 56 50.046875 50.171875 
Q 54.890625 44.34375 54.890625 33.015625 
z
" id="DejaVuSans-104"/>
       <path id="DejaVuSans-32"/>
       <path d="M -0.296875 72.90625 
L 61.375 72.90625 
L 61.375 64.59375 
L 35.5 64.59375 
L 35.5 0 
L 25.59375 0 
L 25.59375 64.59375 
L -0.296875 64.59375 
z
" id="DejaVuSans-84"/>
       <path d="M 41.109375 46.296875 
Q 39.59375 47.171875 37.8125 47.578125 
Q 36.03125 48 33.890625 48 
Q 26.265625 48 22.1875 43.046875 
Q 18.109375 38.09375 18.109375 28.8125 
L 18.109375 0 
L 9.078125 0 
L 9.078125 54.6875 
L 18.109375 54.6875 
L 18.109375 46.1875 
Q 20.953125 51.171875 25.484375 53.578125 
Q 30.03125 56 36.53125 56 
Q 37.453125 56 38.578125 55.875 
Q 39.703125 55.765625 41.0625 55.515625 
z
" id="DejaVuSans-114"/>
       <path d="M 9.421875 54.6875 
L 18.40625 54.6875 
L 18.40625 0 
L 9.421875 0 
z
M 9.421875 75.984375 
L 18.40625 75.984375 
L 18.40625 64.59375 
L 9.421875 64.59375 
z
" id="DejaVuSans-105"/>
       <path d="M 52 44.1875 
Q 55.375 50.25 60.0625 53.125 
Q 64.75 56 71.09375 56 
Q 79.640625 56 84.28125 50.015625 
Q 88.921875 44.046875 88.921875 33.015625 
L 88.921875 0 
L 79.890625 0 
L 79.890625 32.71875 
Q 79.890625 40.578125 77.09375 44.375 
Q 74.3125 48.1875 68.609375 48.1875 
Q 61.625 48.1875 57.5625 43.546875 
Q 53.515625 38.921875 53.515625 30.90625 
L 53.515625 0 
L 44.484375 0 
L 44.484375 32.71875 
Q 44.484375 40.625 41.703125 44.40625 
Q 38.921875 48.1875 33.109375 48.1875 
Q 26.21875 48.1875 22.15625 43.53125 
Q 18.109375 38.875 18.109375 30.90625 
L 18.109375 0 
L 9.078125 0 
L 9.078125 54.6875 
L 18.109375 54.6875 
L 18.109375 46.1875 
Q 21.1875 51.21875 25.484375 53.609375 
Q 29.78125 56 35.6875 56 
Q 41.65625 56 45.828125 52.96875 
Q 50 49.953125 52 44.1875 
z
" id="DejaVuSans-109"/>
       <path d="M 45.40625 46.390625 
L 45.40625 75.984375 
L 54.390625 75.984375 
L 54.390625 0 
L 45.40625 0 
L 45.40625 8.203125 
Q 42.578125 3.328125 38.25 0.953125 
Q 33.9375 -1.421875 27.875 -1.421875 
Q 17.96875 -1.421875 11.734375 6.484375 
Q 5.515625 14.40625 5.515625 27.296875 
Q 5.515625 40.1875 11.734375 48.09375 
Q 17.96875 56 27.875 56 
Q 33.9375 56 38.25 53.625 
Q 42.578125 51.265625 45.40625 46.390625 
z
M 14.796875 27.296875 
Q 14.796875 17.390625 18.875 11.75 
Q 22.953125 6.109375 30.078125 6.109375 
Q 37.203125 6.109375 41.296875 11.75 
Q 45.40625 17.390625 45.40625 27.296875 
Q 45.40625 37.203125 41.296875 42.84375 
Q 37.203125 48.484375 30.078125 48.484375 
Q 22.953125 48.484375 18.875 42.84375 
Q 14.796875 37.203125 14.796875 27.296875 
z
" id="DejaVuSans-100"/>
       <path d="M 31 75.875 
Q 24.46875 64.65625 21.28125 53.65625 
Q 18.109375 42.671875 18.109375 31.390625 
Q 18.109375 20.125 21.3125 9.0625 
Q 24.515625 -2 31 -13.1875 
L 23.1875 -13.1875 
Q 15.875 -1.703125 12.234375 9.375 
Q 8.59375 20.453125 8.59375 31.390625 
Q 8.59375 42.28125 12.203125 53.3125 
Q 15.828125 64.359375 23.1875 75.875 
z
" id="DejaVuSans-40"/>
       <path d="M 48.6875 27.296875 
Q 48.6875 37.203125 44.609375 42.84375 
Q 40.53125 48.484375 33.40625 48.484375 
Q 26.265625 48.484375 22.1875 42.84375 
Q 18.109375 37.203125 18.109375 27.296875 
Q 18.109375 17.390625 22.1875 11.75 
Q 26.265625 6.109375 33.40625 6.109375 
Q 40.53125 6.109375 44.609375 11.75 
Q 48.6875 17.390625 48.6875 27.296875 
z
M 18.109375 46.390625 
Q 20.953125 51.265625 25.265625 53.625 
Q 29.59375 56 35.59375 56 
Q 45.5625 56 51.78125 48.09375 
Q 58.015625 40.1875 58.015625 27.296875 
Q 58.015625 14.40625 51.78125 6.484375 
Q 45.5625 -1.421875 35.59375 -1.421875 
Q 29.59375 -1.421875 25.265625 0.953125 
Q 20.953125 3.328125 18.109375 8.203125 
L 18.109375 0 
L 9.078125 0 
L 9.078125 75.984375 
L 18.109375 75.984375 
z
" id="DejaVuSans-98"/>
       <path d="M 18.109375 8.203125 
L 18.109375 -20.796875 
L 9.078125 -20.796875 
L 9.078125 54.6875 
L 18.109375 54.6875 
L 18.109375 46.390625 
Q 20.953125 51.265625 25.265625 53.625 
Q 29.59375 56 35.59375 56 
Q 45.5625 56 51.78125 48.09375 
Q 58.015625 40.1875 58.015625 27.296875 
Q 58.015625 14.40625 51.78125 6.484375 
Q 45.5625 -1.421875 35.59375 -1.421875 
Q 29.59375 -1.421875 25.265625 0.953125 
Q 20.953125 3.328125 18.109375 8.203125 
z
M 48.6875 27.296875 
Q 48.6875 37.203125 44.609375 42.84375 
Q 40.53125 48.484375 33.40625 48.484375 
Q 26.265625 48.484375 22.1875 42.84375 
Q 18.109375 37.203125 18.109375 27.296875 
Q 18.109375 17.390625 22.1875 11.75 
Q 26.265625 6.109375 33.40625 6.109375 
Q 40.53125 6.109375 44.609375 11.75 
Q 48.6875 17.390625 48.6875 27.296875 
z
" id="DejaVuSans-112"/>
       <path d="M 8.015625 75.875 
L 15.828125 75.875 
Q 23.140625 64.359375 26.78125 53.3125 
Q 30.421875 42.28125 30.421875 31.390625 
Q 30.421875 20.453125 26.78125 9.375 
Q 23.140625 -1.703125 15.828125 -13.1875 
L 8.015625 -13.1875 
Q 14.5 -2 17.703125 9.0625 
Q 20.90625 20.125 20.90625 31.390625 
Q 20.90625 42.671875 17.703125 53.65625 
Q 14.5 64.65625 8.015625 75.875 
z
" id="DejaVuSans-41"/>
      </defs>
      <use xlink:href="#DejaVuSans-76"/>
      <use x="53.962891" xlink:href="#DejaVuSans-101"/>
      <use x="115.486328" xlink:href="#DejaVuSans-110"/>
      <use x="178.865234" xlink:href="#DejaVuSans-103"/>
      <use x="242.341797" xlink:href="#DejaVuSans-116"/>
      <use x="281.550781" xlink:href="#DejaVuSans-104"/>
      <use x="344.929688" xlink:href="#DejaVuSans-32"/>
      <use x="376.716797" xlink:href="#DejaVuSans-84"/>
      <use x="423.050781" xlink:href="#DejaVuSans-114"/>
      <use x="464.164062" xlink:href="#DejaVuSans-105"/>
      <use x="491.947266" xlink:href="#DejaVuSans-109"/>
      <use x="589.359375" xlink:href="#DejaVuSans-109"/>
      <use x="686.771484" xlink:href="#DejaVuSans-101"/>
      <use x="748.294922" xlink:href="#DejaVuSans-100"/>
      <use x="811.771484" xlink:href="#DejaVuSans-32"/>
      <use x="843.558594" xlink:href="#DejaVuSans-40"/>
      <use x="882.572266" xlink:href="#DejaVuSans-98"/>
      <use x="946.048828" xlink:href="#DejaVuSans-112"/>
      <use x="1009.525391" xlink:href="#DejaVuSans-41"/>
     </g>
    </g>
   </g>
   <g id="matplotlib.axis_2">
    <g id="ytick_1">
     <g id="line2d_1">
      <path clip-path="url(#pd658ce02a6)" d="M 58.418125 275.50206 
L 993.498125 275.50206 
" style="fill:none;stroke:#dedede;stroke-linecap:square;"/>
     </g>
     <g id="text_9">
      <!-- 0 -->
      <g transform="translate(46.328125 278.541435)scale(0.08 -0.08)">
       <use xlink:href="#DejaVuSans-48"/>
      </g>
     </g>
    </g>
    <g id="ytick_2">
     <g id="line2d_2">
      <path clip-path="url(#pd658ce02a6)" d="M 58.418125 232.024666 
L 993.498125 232.024666 
" style="fill:none;stroke:#dedede;stroke-linecap:square;"/>
     </g>
     <g id="text_10">
      <!-- 20000 -->
      <g transform="translate(25.968125 235.064041)scale(0.08 -0.08)">
       <use xlink:href="#DejaVuSans-50"/>
       <use x="63.623047" xlink:href="#DejaVuSans-48"/>
       <use x="127.246094" xlink:href="#DejaVuSans-48"/>
       <use x="190.869141" xlink:href="#DejaVuSans-48"/>
       <use x="254.492188" xlink:href="#DejaVuSans-48"/>
      </g>
     </g>
    </g>
    <g id="ytick_3">
     <g id="line2d_3">
      <path clip-path="url(#pd658ce02a6)" d="M 58.418125 188.547272 
L 993.498125 188.547272 
" style="fill:none;stroke:#dedede;stroke-linecap:square;"/>
     </g>
     <g id="text_11">
      <!-- 40000 -->
      <g transform="translate(25.968125 191.586647)scale(0.08 -0.08)">
       <use xlink:href="#DejaVuSans-52"/>
       <use x="63.623047" xlink:href="#DejaVuSans-48"/>
       <use x="127.246094" xlink:href="#DejaVuSans-48"/>
       <use x="190.869141" xlink:href="#DejaVuSans-48"/>
       <use x="254.492188" xlink:href="#DejaVuSans-48"/>
      </g>
     </g>
    </g>
    <g id="ytick_4">
     <g id="line2d_4">
      <path clip-path="url(#pd658ce02a6)" d="M 58.418125 145.069879 
L 993.498125 145.069879 
" style="fill:none;stroke:#dedede;stroke-linecap:square;"/>
     </g>
     <g id="text_12">
      <!-- 60000 -->
      <g transform="translate(25.968125 148.109254)scale(0.08 -0.08)">
       <use xlink:href="#DejaVuSans-54"/>
       <use x="63.623047" xlink:href="#DejaVuSans-48"/>
       <use x="127.246094" xlink:href="#DejaVuSans-48"/>
       <use x="190.869141" xlink:href="#DejaVuSans-48"/>
       <use x="254.492188" xlink:href="#DejaVuSans-48"/>
      </g>
     </g>
    </g>
    <g id="ytick_5">
     <g id="line2d_5">
      <path clip-path="url(#pd658ce02a6)" d="M 58.418125 101.592485 
L 993.498125 101.592485 
" style="fill:none;stroke:#dedede;stroke-linecap:square;"/>
     </g>
     <g id="text_13">
      <!-- 80000 -->
      <g transform="translate(25.968125 104.63186)scale(0.08 -0.08)">
       <use xlink:href="#DejaVuSans-56"/>
       <use x="63.623047" xlink:href="#DejaVuSans-48"/>
       <use x="127.246094" xlink:href="#DejaVuSans-48"/>
       <use x="190.869141" xlink:href="#DejaVuSans-48"/>
       <use x="254.492188" xlink:href="#DejaVuSans-48"/>
      </g>
     </g>
    </g>
    <g id="ytick_6">
     <g id="line2d_6">
      <path clip-path="url(#pd658ce02a6)" d="M 58.418125 58.115091 
L 993.498125 58.115091 
" style="fill:none;stroke:#dedede;stroke-linecap:square;"/>
     </g>
     <g id="text_14">
      <!-- 100000 -->
      <g transform="translate(20.878125 61.154466)scale(0.08 -0.08)">
       <use xlink:href="#DejaVuSans-49"/>
       <use x="63.623047" xlink:href="#DejaVuSans-48"/>
       <use x="127.246094" xlink:href="#DejaVuSans-48"/>
       <use x="190.869141" xlink:href="#DejaVuSans-48"/>
       <use x="254.492188" xlink:href="#DejaVuSans-48"/>
       <use x="318.115234" xlink:href="#DejaVuSans-48"/>
      </g>
     </g>
    </g>
    <g id="text_15">
     <!-- Count -->
     <g transform="translate(14.798438 168.376897)rotate(-90)scale(0.1 -0.1)">
      <defs>
       <path d="M 64.40625 67.28125 
L 64.40625 56.890625 
Q 59.421875 61.53125 53.78125 63.8125 
Q 48.140625 66.109375 41.796875 66.109375 
Q 29.296875 66.109375 22.65625 58.46875 
Q 16.015625 50.828125 16.015625 36.375 
Q 16.015625 21.96875 22.65625 14.328125 
Q 29.296875 6.6875 41.796875 6.6875 
Q 48.140625 6.6875 53.78125 8.984375 
Q 59.421875 11.28125 64.40625 15.921875 
L 64.40625 5.609375 
Q 59.234375 2.09375 53.4375 0.328125 
Q 47.65625 -1.421875 41.21875 -1.421875 
Q 24.65625 -1.421875 15.125 8.703125 
Q 5.609375 18.84375 5.609375 36.375 
Q 5.609375 53.953125 15.125 64.078125 
Q 24.65625 74.21875 41.21875 74.21875 
Q 47.75 74.21875 53.53125 72.484375 
Q 59.328125 70.75 64.40625 67.28125 
z
" id="DejaVuSans-67"/>
       <path d="M 30.609375 48.390625 
Q 23.390625 48.390625 19.1875 42.75 
Q 14.984375 37.109375 14.984375 27.296875 
Q 14.984375 17.484375 19.15625 11.84375 
Q 23.34375 6.203125 30.609375 6.203125 
Q 37.796875 6.203125 41.984375 11.859375 
Q 46.1875 17.53125 46.1875 27.296875 
Q 46.1875 37.015625 41.984375 42.703125 
Q 37.796875 48.390625 30.609375 48.390625 
z
M 30.609375 56 
Q 42.328125 56 49.015625 48.375 
Q 55.71875 40.765625 55.71875 27.296875 
Q 55.71875 13.875 49.015625 6.21875 
Q 42.328125 -1.421875 30.609375 -1.421875 
Q 18.84375 -1.421875 12.171875 6.21875 
Q 5.515625 13.875 5.515625 27.296875 
Q 5.515625 40.765625 12.171875 48.375 
Q 18.84375 56 30.609375 56 
z
" id="DejaVuSans-111"/>
       <path d="M 8.5 21.578125 
L 8.5 54.6875 
L 17.484375 54.6875 
L 17.484375 21.921875 
Q 17.484375 14.15625 20.5 10.265625 
Q 23.53125 6.390625 29.59375 6.390625 
Q 36.859375 6.390625 41.078125 11.03125 
Q 45.3125 15.671875 45.3125 23.6875 
L 45.3125 54.6875 
L 54.296875 54.6875 
L 54.296875 0 
L 45.3125 0 
L 45.3125 8.40625 
Q 42.046875 3.421875 37.71875 1 
Q 33.40625 -1.421875 27.6875 -1.421875 
Q 18.265625 -1.421875 13.375 4.4375 
Q 8.5 10.296875 8.5 21.578125 
z
M 31.109375 56 
z
" id="DejaVuSans-117"/>
      </defs>
      <use xlink:href="#DejaVuSans-67"/>
      <use x="69.824219" xlink:href="#DejaVuSans-111"/>
      <use x="131.005859" xlink:href="#DejaVuSans-117"/>
      <use x="194.384766" xlink:href="#DejaVuSans-110"/>
      <use x="257.763672" xlink:href="#DejaVuSans-116"/>
     </g>
    </g>
   </g>
   <g id="line2d_7">
    <path clip-path="url(#pd658ce02a6)" d="M 100.921761 183.549546 
L 107.889571 264.241415 
L 114.85738 273.869484 
L 121.825189 275.036852 
L 128.792998 274.699902 
L 135.760808 275.169458 
L 142.728617 275.345541 
L 149.696426 274.523819 
L 156.664235 275.341194 
L 163.632045 275.119459 
L 170.599854 274.952071 
L 177.567663 275.27163 
L 184.535472 274.925985 
L 191.503281 275.312933 
L 198.471091 274.943375 
L 205.4389 274.589035 
L 212.406709 275.306412 
L 219.374518 274.745553 
L 226.342328 275.139024 
L 233.310137 274.508602 
L 240.277946 275.225979 
L 247.245755 275.293369 
L 254.213565 274.571644 
L 261.181374 275.247717 
L 268.149183 274.589035 
L 275.116992 274.282519 
L 282.084802 275.202066 
L 289.052611 274.884681 
L 296.02042 275.215109 
L 302.988229 274.43469 
L 309.956039 275.162936 
L 316.923848 274.582513 
L 323.891657 274.654251 
L 330.859466 275.219457 
L 337.827276 275.212935 
L 344.795085 274.432516 
L 351.762894 275.089025 
L 358.730703 273.739052 
L 365.698512 274.393386 
L 372.666322 275.223805 
L 379.634131 275.012939 
L 386.60194 275.202066 
L 393.569749 274.815117 
L 400.537559 273.997742 
L 407.505368 274.695554 
L 414.473177 275.32815 
L 421.440986 274.793378 
L 428.408796 273.902092 
L 435.376605 274.489037 
L 442.344414 273.812963 
L 449.312223 271.76083 
L 456.280033 274.289041 
L 463.247842 273.673836 
L 470.215651 274.691207 
L 477.18346 274.669468 
L 484.15127 274.199912 
L 491.119079 274.680337 
L 498.086888 272.543423 
L 505.054697 273.949917 
L 512.022507 274.469472 
L 518.990316 273.743399 
L 525.958125 273.258626 
L 532.925934 275.134676 
L 539.893743 275.132502 
L 546.861553 274.971636 
L 553.829362 274.908594 
L 560.797171 274.841204 
L 567.76498 274.999896 
L 574.73279 275.228152 
L 581.700599 275.273804 
L 588.668408 275.182501 
L 595.636217 274.884681 
L 602.604027 274.489037 
L 609.571836 274.04122 
L 616.539645 274.115131 
L 623.507454 273.986873 
L 630.475264 274.143391 
L 637.443073 274.130348 
L 644.410882 274.076001 
L 651.378691 274.086871 
L 658.346501 274.304258 
L 665.31431 274.284693 
L 672.282119 274.50208 
L 679.249928 274.575992 
L 686.217738 274.625991 
L 693.185547 274.521645 
L 700.153356 274.575992 
L 707.121165 274.475994 
L 714.088974 274.460776 
L 721.056784 274.539036 
L 728.024593 274.358605 
L 734.992402 274.421647 
L 741.960211 274.445559 
L 748.928021 274.493384 
L 755.89583 274.53034 
L 762.863639 274.460776 
L 769.831448 274.219477 
L 776.799258 273.984699 
L 783.767067 273.347755 
L 790.734876 272.747767 
L 797.702685 271.699962 
L 804.670495 270.986933 
L 811.638304 270.195644 
L 818.606113 270.206513 
L 825.573922 270.62607 
L 832.541732 271.13693 
L 839.509541 271.908653 
L 846.47735 272.826026 
L 853.445159 273.610793 
L 860.412969 274.347735 
L 867.380778 274.830334 
L 874.348587 275.082503 
L 881.316396 275.258587 
L 888.284205 275.289021 
L 895.252015 275.317281 
L 902.219824 275.230326 
L 909.187633 275.167284 
L 916.155442 275.121633 
L 923.123252 275.217283 
L 930.091061 275.071634 
L 937.05887 275.004244 
L 944.026679 274.869464 
L 950.994489 274.908594 
" style="fill:none;stroke:#7cb5ec;stroke-linecap:square;"/>
   </g>
   <g id="line2d_8">
    <path clip-path="url(#pd658ce02a6)" d="M 100.921761 120.533412 
L 107.889571 258.717612 
L 114.85738 272.841244 
L 121.825189 274.725989 
L 128.792998 273.865136 
L 135.760808 274.958593 
L 142.728617 275.193371 
L 149.696426 273.667314 
L 156.664235 275.160762 
L 163.632045 274.786857 
L 170.599854 274.625991 
L 177.567663 275.215109 
L 184.535472 274.515123 
L 191.503281 275.221631 
L 198.471091 274.565122 
L 205.4389 274.169478 
L 212.406709 275.169458 
L 219.374518 274.13687 
L 226.342328 274.891203 
L 233.310137 273.719487 
L 240.277946 275.00207 
L 247.245755 275.169458 
L 254.213565 273.662966 
L 261.181374 275.09772 
L 268.149183 274.223825 
L 275.116992 273.426014 
L 282.084802 274.941202 
L 289.052611 274.46295 
L 296.02042 274.986853 
L 302.988229 273.360798 
L 309.956039 274.880333 
L 316.923848 273.491231 
L 323.891657 274.032524 
L 330.859466 274.956419 
L 337.827276 275.017287 
L 344.795085 273.454275 
L 351.762894 274.741206 
L 358.730703 271.445619 
L 365.698512 273.369494 
L 372.666322 274.904246 
L 379.634131 274.560774 
L 386.60194 274.958593 
L 393.569749 274.308606 
L 400.537559 272.652117 
L 407.505368 274.126 
L 414.473177 275.254239 
L 421.440986 274.060784 
L 428.408796 272.215169 
L 435.376605 273.302104 
L 442.344414 271.849959 
L 449.312223 267.034838 
L 456.280033 272.645595 
L 463.247842 271.304318 
L 470.215651 273.841224 
L 477.18346 273.60862 
L 484.15127 272.986893 
L 491.119079 274.045567 
L 498.086888 268.954364 
L 505.054697 272.062998 
L 512.022507 273.621663 
L 518.990316 271.79996 
L 525.958125 270.404336 
L 532.925934 274.606426 
L 539.893743 274.691207 
L 546.861553 274.523819 
L 553.829362 274.269476 
L 560.797171 274.191217 
L 567.76498 274.443385 
L 574.73279 275.004244 
L 581.700599 275.008592 
L 588.668408 274.808596 
L 595.636217 273.965134 
L 602.604027 273.062978 
L 609.571836 272.560814 
L 616.539645 272.436904 
L 623.507454 272.145605 
L 630.475264 272.310819 
L 637.443073 272.365166 
L 644.410882 272.393426 
L 651.378691 272.528206 
L 658.346501 272.793418 
L 665.31431 272.902112 
L 672.282119 273.03037 
L 679.249928 273.295582 
L 686.217738 273.180367 
L 693.185547 273.269496 
L 700.153356 273.239062 
L 707.121165 273.297756 
L 714.088974 273.369494 
L 721.056784 273.195584 
L 728.024593 273.341234 
L 734.992402 273.312973 
L 741.960211 273.489057 
L 748.928021 273.5021 
L 755.89583 273.715139 
L 762.863639 273.539056 
L 769.831448 272.869504 
L 776.799258 272.006478 
L 783.767067 270.813023 
L 790.734876 269.343487 
L 797.702685 267.545697 
L 804.670495 266.000076 
L 811.638304 264.804447 
L 818.606113 264.847925 
L 825.573922 266.002249 
L 832.541732 267.223964 
L 839.509541 268.939147 
L 846.47735 270.673895 
L 853.445159 272.482555 
L 860.412969 273.173846 
L 867.380778 274.00209 
L 874.348587 274.584687 
L 881.316396 275.062938 
L 888.284205 275.045547 
L 895.252015 275.093372 
L 902.219824 275.056417 
L 909.187633 274.899898 
L 916.155442 274.882507 
L 923.123252 274.865116 
L 930.091061 274.852073 
L 937.05887 274.97381 
L 944.026679 274.708598 
L 950.994489 274.47382 
" style="fill:none;stroke:#434348;stroke-linecap:square;"/>
   </g>
   <g id="line2d_9">
    <path clip-path="url(#pd658ce02a6)" d="M 100.921761 130.326694 
L 107.889571 249.17215 
L 114.85738 273.419493 
L 121.825189 274.556427 
L 128.792998 273.676009 
L 135.760808 274.852073 
L 142.728617 275.193371 
L 149.696426 273.523839 
L 156.664235 275.193371 
L 163.632045 274.73251 
L 170.599854 274.27165 
L 177.567663 275.145545 
L 184.535472 274.356431 
L 191.503281 275.199892 
L 198.471091 274.23252 
L 205.4389 273.580359 
L 212.406709 275.084677 
L 219.374518 273.749921 
L 226.342328 274.645555 
L 233.310137 273.336886 
L 240.277946 274.891203 
L 247.245755 275.049895 
L 254.213565 273.484709 
L 261.181374 275.071634 
L 268.149183 273.499926 
L 275.116992 272.734724 
L 282.084802 274.682511 
L 289.052611 274.197738 
L 296.02042 274.965114 
L 302.988229 272.912981 
L 309.956039 274.695554 
L 316.923848 272.886895 
L 323.891657 273.545577 
L 330.859466 274.808596 
L 337.827276 274.967288 
L 344.795085 273.352103 
L 351.762894 274.708598 
L 358.730703 270.823892 
L 365.698512 273.078195 
L 372.666322 274.873812 
L 379.634131 274.495558 
L 386.60194 274.865116 
L 393.569749 273.965134 
L 400.537559 272.291254 
L 407.505368 273.804268 
L 414.473177 275.167284 
L 421.440986 273.647749 
L 428.408796 271.678223 
L 435.376605 273.252105 
L 442.344414 271.554313 
L 449.312223 265.847905 
L 456.280033 272.336906 
L 463.247842 270.913021 
L 470.215651 273.806442 
L 477.18346 273.543403 
L 484.15127 272.780375 
L 491.119079 273.889049 
L 498.086888 267.978297 
L 505.054697 271.608659 
L 512.022507 273.312973 
L 518.990316 271.46301 
L 525.958125 270.089124 
L 532.925934 274.717293 
L 539.893743 274.752075 
L 546.861553 274.273824 
L 553.829362 274.049915 
L 560.797171 274.115131 
L 567.76498 274.382517 
L 574.73279 274.991201 
L 581.700599 274.96294 
L 588.668408 274.795552 
L 595.636217 273.921657 
L 602.604027 273.089065 
L 609.571836 272.349949 
L 616.539645 272.104302 
L 623.507454 271.908653 
L 630.475264 271.830394 
L 637.443073 272.008651 
L 644.410882 272.115171 
L 651.378691 272.249951 
L 658.346501 272.326036 
L 665.31431 272.526032 
L 672.282119 272.786897 
L 679.249928 273.021675 
L 686.217738 272.936894 
L 693.185547 272.882547 
L 700.153356 272.782549 
L 707.121165 273.082543 
L 714.088974 272.915155 
L 721.056784 272.936894 
L 728.024593 272.969502 
L 734.992402 272.902112 
L 741.960211 273.04124 
L 748.928021 273.236888 
L 755.89583 273.293408 
L 762.863639 273.139064 
L 769.831448 272.452121 
L 776.799258 271.356491 
L 783.767067 269.765218 
L 790.734876 267.697868 
L 797.702685 265.321828 
L 804.670495 263.421866 
L 811.638304 261.715378 
L 818.606113 261.930592 
L 825.573922 263.089264 
L 832.541732 264.897924 
L 839.509541 267.008751 
L 846.47735 269.160882 
L 853.445159 270.980411 
L 860.412969 272.632552 
L 867.380778 273.536882 
L 874.348587 274.310779 
L 881.316396 275.052069 
L 888.284205 274.982505 
L 895.252015 275.112937 
L 902.219824 274.971636 
L 909.187633 274.689033 
L 916.155442 274.480341 
L 923.123252 274.493384 
L 930.091061 274.602078 
L 937.05887 274.599904 
L 944.026679 274.484689 
L 950.994489 274.465124 
" style="fill:none;stroke:#90ed7d;stroke-linecap:square;"/>
   </g>
   <g id="line2d_10">
    <path clip-path="url(#pd658ce02a6)" d="M 100.921761 50.9348 
L 107.889571 249.217802 
L 114.85738 272.158648 
L 121.825189 274.410777 
L 128.792998 272.404296 
L 135.760808 274.821639 
L 142.728617 275.086851 
L 149.696426 272.832548 
L 156.664235 275.045547 
L 163.632045 274.40643 
L 170.599854 273.754269 
L 177.567663 274.982505 
L 184.535472 273.82818 
L 191.503281 275.015113 
L 198.471091 273.471666 
L 205.4389 272.671682 
L 212.406709 274.899898 
L 219.374518 272.673856 
L 226.342328 274.386865 
L 233.310137 272.102128 
L 240.277946 274.423821 
L 247.245755 274.719467 
L 254.213565 271.806482 
L 261.181374 274.662946 
L 268.149183 272.571684 
L 275.116992 271.508661 
L 282.084802 274.186869 
L 289.052611 273.343407 
L 296.02042 274.543383 
L 302.988229 271.826046 
L 309.956039 274.273824 
L 316.923848 271.330404 
L 323.891657 272.476033 
L 330.859466 274.415125 
L 337.827276 274.560774 
L 344.795085 272.234734 
L 351.762894 274.254259 
L 358.730703 268.489156 
L 365.698512 272.258646 
L 372.666322 274.641208 
L 379.634131 273.852093 
L 386.60194 274.556427 
L 393.569749 273.09776 
L 400.537559 270.539116 
L 407.505368 273.245583 
L 414.473177 275.015113 
L 421.440986 273.082543 
L 428.408796 270.039125 
L 435.376605 272.354297 
L 442.344414 269.739131 
L 449.312223 262.432755 
L 456.280033 270.889109 
L 463.247842 269.180447 
L 470.215651 273.286887 
L 477.18346 272.784723 
L 484.15127 271.484749 
L 491.119079 273.304278 
L 498.086888 265.687038 
L 505.054697 270.410857 
L 512.022507 272.460816 
L 518.990316 270.2326 
L 525.958125 267.926124 
L 532.925934 274.149913 
L 539.893743 274.552079 
L 546.861553 273.865136 
L 553.829362 273.741226 
L 560.797171 273.82818 
L 567.76498 274.252085 
L 574.73279 274.917289 
L 581.700599 274.928158 
L 588.668408 274.552079 
L 595.636217 273.741226 
L 602.604027 272.321689 
L 609.571836 271.386925 
L 616.539645 271.336926 
L 623.507454 271.236928 
L 630.475264 271.282579 
L 637.443073 270.978237 
L 644.410882 271.23258 
L 651.378691 271.523878 
L 658.346501 271.858654 
L 665.31431 272.086911 
L 672.282119 272.245603 
L 679.249928 272.43473 
L 686.217738 272.543423 
L 693.185547 272.604292 
L 700.153356 272.719507 
L 707.121165 272.447773 
L 714.088974 272.419513 
L 721.056784 272.19343 
L 728.024593 272.19343 
L 734.992402 272.143431 
L 741.960211 272.352123 
L 748.928021 272.32821 
L 755.89583 272.33908 
L 762.863639 272.19343 
L 769.831448 271.678223 
L 776.799258 270.508681 
L 783.767067 269.197838 
L 790.734876 267.765258 
L 797.702685 266.102247 
L 804.670495 264.92401 
L 811.638304 264.047941 
L 818.606113 264.602277 
L 825.573922 265.628344 
L 832.541732 267.302224 
L 839.509541 268.360898 
L 846.47735 269.471745 
L 853.445159 271.115191 
L 860.412969 272.356471 
L 867.380778 273.53036 
L 874.348587 274.428168 
L 881.316396 274.971636 
L 888.284205 275.052069 
L 895.252015 275.225979 
L 902.219824 275.112937 
L 909.187633 275.017287 
L 916.155442 275.086851 
L 923.123252 274.930332 
L 930.091061 275.178153 
L 937.05887 275.139024 
L 944.026679 274.945549 
L 950.994489 274.852073 
" style="fill:none;stroke:#f7a35c;stroke-linecap:square;"/>
   </g>
   <g id="line2d_11">
    <path clip-path="url(#pd658ce02a6)" d="M 100.921761 43.169737 
L 107.889571 244.013558 
L 114.85738 271.980391 
L 121.825189 274.73251 
L 128.792998 274.156435 
L 135.760808 274.947723 
L 142.728617 275.16511 
L 149.696426 273.293408 
L 156.664235 275.080329 
L 163.632045 274.628164 
L 170.599854 274.29991 
L 177.567663 275.2325 
L 184.535472 274.586861 
L 191.503281 275.254239 
L 198.471091 274.412951 
L 205.4389 273.847745 
L 212.406709 275.197718 
L 219.374518 273.904266 
L 226.342328 274.921637 
L 233.310137 273.730356 
L 240.277946 274.952071 
L 247.245755 275.106416 
L 254.213565 273.769486 
L 261.181374 275.117285 
L 268.149183 273.817311 
L 275.116992 273.278191 
L 282.084802 274.869464 
L 289.052611 274.391213 
L 296.02042 274.995548 
L 302.988229 273.39558 
L 309.956039 274.819465 
L 316.923848 273.197758 
L 323.891657 273.676009 
L 330.859466 274.845551 
L 337.827276 275.0412 
L 344.795085 273.612967 
L 351.762894 274.858595 
L 358.730703 271.230406 
L 365.698512 273.439058 
L 372.666322 274.986853 
L 379.634131 274.580339 
L 386.60194 274.849899 
L 393.569749 273.89557 
L 400.537559 272.197778 
L 407.505368 274.212955 
L 414.473177 275.193371 
L 421.440986 274.139044 
L 428.408796 272.078215 
L 435.376605 272.995588 
L 442.344414 271.056496 
L 449.312223 266.371807 
L 456.280033 271.963 
L 463.247842 270.486943 
L 470.215651 273.758617 
L 477.18346 273.445579 
L 484.15127 272.423861 
L 491.119079 273.66514 
L 498.086888 268.43481 
L 505.054697 271.195624 
L 512.022507 273.293408 
L 518.990316 271.66518 
L 525.958125 270.282599 
L 532.925934 274.678163 
L 539.893743 274.691207 
L 546.861553 274.297736 
L 553.829362 273.989047 
L 560.797171 273.889049 
L 567.76498 274.275997 
L 574.73279 274.956419 
L 581.700599 274.945549 
L 588.668408 274.717293 
L 595.636217 274.052089 
L 602.604027 273.110803 
L 609.571836 272.276037 
L 616.539645 271.830394 
L 623.507454 271.499966 
L 630.475264 271.565182 
L 637.443073 271.73257 
L 644.410882 271.956479 
L 651.378691 272.219517 
L 658.346501 272.40647 
L 665.31431 272.521685 
L 672.282119 272.478207 
L 679.249928 272.702116 
L 686.217738 272.706464 
L 693.185547 272.69342 
L 700.153356 272.430382 
L 707.121165 272.365166 
L 714.088974 271.891262 
L 721.056784 271.252145 
L 728.024593 270.723894 
L 734.992402 270.508681 
L 741.960211 270.373901 
L 748.928021 270.28912 
L 755.89583 270.378249 
L 762.863639 269.826086 
L 769.831448 268.554372 
L 776.799258 267.50222 
L 783.767067 266.16529 
L 790.734876 264.432716 
L 797.702685 263.217522 
L 804.670495 262.111023 
L 811.638304 261.906679 
L 818.606113 263.111003 
L 825.573922 265.150093 
L 832.541732 267.043533 
L 839.509541 269.391312 
L 846.47735 271.710831 
L 853.445159 272.59777 
L 860.412969 273.902092 
L 867.380778 274.545557 
L 874.348587 274.925985 
L 881.316396 275.208588 
L 888.284205 275.162936 
L 895.252015 275.217283 
L 902.219824 275.145545 
L 909.187633 274.852073 
L 916.155442 274.680337 
L 923.123252 274.606426 
L 930.091061 274.882507 
L 937.05887 274.897724 
L 944.026679 274.697728 
L 950.994489 274.289041 
" style="fill:none;stroke:#8085e9;stroke-linecap:square;"/>
   </g>
   <g id="line2d_12">
    <path clip-path="url(#pd658ce02a6)" d="M 100.921761 176.558381 
L 107.889571 268.239161 
L 114.85738 274.245563 
L 121.825189 275.312933 
L 128.792998 275.258587 
L 135.760808 275.402062 
L 142.728617 275.393367 
L 149.696426 275.067286 
L 156.664235 275.432496 
L 163.632045 275.310759 
L 170.599854 275.236848 
L 177.567663 275.425975 
L 184.535472 275.312933 
L 191.503281 275.443366 
L 198.471091 275.241196 
L 205.4389 275.10859 
L 212.406709 275.428148 
L 219.374518 275.17598 
L 226.342328 275.384671 
L 233.310137 275.084677 
L 240.277946 275.380323 
L 247.245755 275.393367 
L 254.213565 275.169458 
L 261.181374 275.439018 
L 268.149183 275.13685 
L 275.116992 274.97381 
L 282.084802 275.375976 
L 289.052611 275.27163 
L 296.02042 275.423801 
L 302.988229 275.156415 
L 309.956039 275.386845 
L 316.923848 274.97381 
L 323.891657 275.06946 
L 330.859466 275.356411 
L 337.827276 275.36728 
L 344.795085 275.180327 
L 351.762894 275.369454 
L 358.730703 274.53034 
L 365.698512 275.16511 
L 372.666322 275.369454 
L 379.634131 275.312933 
L 386.60194 275.399888 
L 393.569749 275.178153 
L 400.537559 274.854247 
L 407.505368 275.199892 
L 414.473177 275.454235 
L 421.440986 275.180327 
L 428.408796 274.849899 
L 435.376605 275.036852 
L 442.344414 274.63686 
L 449.312223 273.884701 
L 456.280033 274.915115 
L 463.247842 274.632512 
L 470.215651 275.197718 
L 477.18346 275.147719 
L 484.15127 274.925985 
L 491.119079 275.16511 
L 498.086888 274.032524 
L 505.054697 274.77164 
L 512.022507 275.028156 
L 518.990316 274.758597 
L 525.958125 274.591209 
L 532.925934 275.33902 
L 539.893743 275.382497 
L 546.861553 275.282499 
L 553.829362 275.245543 
L 560.797171 275.280325 
L 567.76498 275.315107 
L 574.73279 275.380323 
L 581.700599 275.402062 
L 588.668408 275.386845 
L 595.636217 275.202066 
L 602.604027 275.075982 
L 609.571836 274.925985 
L 616.539645 274.869464 
L 623.507454 274.819465 
L 630.475264 274.736858 
L 637.443073 274.77164 
L 644.410882 274.830334 
L 651.378691 274.89555 
L 658.346501 274.89555 
L 665.31431 274.878159 
L 672.282119 275.004244 
L 679.249928 274.978157 
L 686.217738 274.915115 
L 693.185547 274.82816 
L 700.153356 274.812943 
L 707.121165 274.697728 
L 714.088974 274.691207 
L 721.056784 274.525993 
L 728.024593 274.391213 
L 734.992402 274.219477 
L 741.960211 274.134696 
L 748.928021 274.13687 
L 755.89583 273.930352 
L 762.863639 273.871658 
L 769.831448 273.658619 
L 776.799258 273.310799 
L 783.767067 273.306452 
L 790.734876 273.158628 
L 797.702685 272.958632 
L 804.670495 272.949937 
L 811.638304 273.086891 
L 818.606113 273.534708 
L 825.573922 273.932526 
L 832.541732 274.10861 
L 839.509541 274.506428 
L 846.47735 274.719467 
L 853.445159 275.034678 
L 860.412969 275.160762 
L 867.380778 275.262934 
L 874.348587 275.330324 
L 881.316396 275.428148 
L 888.284205 275.417279 
L 895.252015 275.465104 
L 902.219824 275.421627 
L 909.187633 275.419453 
L 916.155442 275.423801 
L 923.123252 275.378149 
L 930.091061 275.358585 
L 937.05887 275.256413 
L 944.026679 275.282499 
L 950.994489 275.36728 
" style="fill:none;stroke:#f15c80;stroke-linecap:square;"/>
   </g>
   <g id="line2d_13">
    <path clip-path="url(#pd658ce02a6)" d="M 100.921761 152.282778 
L 107.889571 267.36744 
L 114.85738 273.623837 
L 121.825189 275.180327 
L 128.792998 274.830334 
L 135.760808 275.378149 
L 142.728617 275.382497 
L 149.696426 274.993374 
L 156.664235 275.389019 
L 163.632045 275.302064 
L 170.599854 275.228152 
L 177.567663 275.421627 
L 184.535472 275.323803 
L 191.503281 275.441192 
L 198.471091 275.156415 
L 205.4389 274.991201 
L 212.406709 275.393367 
L 219.374518 275.073808 
L 226.342328 275.375976 
L 233.310137 275.006418 
L 240.277946 275.365106 
L 247.245755 275.402062 
L 254.213565 275.125981 
L 261.181374 275.417279 
L 268.149183 275.123807 
L 275.116992 274.904246 
L 282.084802 275.356411 
L 289.052611 275.265108 
L 296.02042 275.397714 
L 302.988229 274.949897 
L 309.956039 275.362932 
L 316.923848 274.969462 
L 323.891657 275.110763 
L 330.859466 275.371628 
L 337.827276 275.40641 
L 344.795085 275.167284 
L 351.762894 275.302064 
L 358.730703 274.549905 
L 365.698512 275.099894 
L 372.666322 275.378149 
L 379.634131 275.297716 
L 386.60194 275.323803 
L 393.569749 275.147719 
L 400.537559 274.706424 
L 407.505368 275.106416 
L 414.473177 275.430322 
L 421.440986 275.145545 
L 428.408796 274.606426 
L 435.376605 274.89555 
L 442.344414 274.391213 
L 449.312223 273.662966 
L 456.280033 274.756423 
L 463.247842 274.536862 
L 470.215651 275.162936 
L 477.18346 275.143372 
L 484.15127 274.90642 
L 491.119079 275.186849 
L 498.086888 274.036872 
L 505.054697 274.615121 
L 512.022507 274.982505 
L 518.990316 274.599904 
L 525.958125 274.478167 
L 532.925934 275.284673 
L 539.893743 275.369454 
L 546.861553 275.295542 
L 553.829362 275.26076 
L 560.797171 275.169458 
L 567.76498 275.278151 
L 574.73279 275.375976 
L 581.700599 275.425975 
L 588.668408 275.36728 
L 595.636217 275.254239 
L 602.604027 274.915115 
L 609.571836 274.773814 
L 616.539645 274.815117 
L 623.507454 274.669468 
L 630.475264 274.649903 
L 637.443073 274.702076 
L 644.410882 274.691207 
L 651.378691 274.706424 
L 658.346501 274.780335 
L 665.31431 274.899898 
L 672.282119 274.849899 
L 679.249928 274.936854 
L 686.217738 274.891203 
L 693.185547 274.886855 
L 700.153356 274.917289 
L 707.121165 274.941202 
L 714.088974 274.997722 
L 721.056784 274.936854 
L 728.024593 274.908594 
L 734.992402 274.893376 
L 741.960211 274.969462 
L 748.928021 275.03033 
L 755.89583 275.043373 
L 762.863639 275.006418 
L 769.831448 274.825987 
L 776.799258 274.565122 
L 783.767067 274.26078 
L 790.734876 273.873832 
L 797.702685 273.519491 
L 804.670495 273.380363 
L 811.638304 273.160802 
L 818.606113 273.184715 
L 825.573922 273.380363 
L 832.541732 273.784703 
L 839.509541 274.256433 
L 846.47735 274.454255 
L 853.445159 274.871638 
L 860.412969 275.00207 
L 867.380778 275.234674 
L 874.348587 275.319455 
L 881.316396 275.419453 
L 888.284205 275.410757 
L 895.252015 275.46293 
L 902.219824 275.399888 
L 909.187633 275.343368 
L 916.155442 275.404236 
L 923.123252 275.384671 
L 930.091061 275.43467 
L 937.05887 275.399888 
L 944.026679 275.265108 
L 950.994489 275.393367 
" style="fill:none;stroke:#e4d354;stroke-linecap:square;"/>
   </g>
   <g id="line2d_14">
    <path clip-path="url(#pd658ce02a6)" d="M 100.921761 199.734006 
L 107.889571 269.506527 
L 114.85738 274.375996 
L 121.825189 275.397714 
L 128.792998 275.32815 
L 135.760808 275.43467 
L 142.728617 275.467278 
L 149.696426 275.245543 
L 156.664235 275.402062 
L 163.632045 275.415105 
L 170.599854 275.371628 
L 177.567663 275.46293 
L 184.535472 275.354237 
L 191.503281 275.465104 
L 198.471091 275.399888 
L 205.4389 275.262934 
L 212.406709 275.425975 
L 219.374518 275.334672 
L 226.342328 275.378149 
L 233.310137 275.230326 
L 240.277946 275.430322 
L 247.245755 275.412931 
L 254.213565 275.219457 
L 261.181374 275.432496 
L 268.149183 275.352063 
L 275.116992 275.256413 
L 282.084802 275.436844 
L 289.052611 275.378149 
L 296.02042 275.445539 
L 302.988229 275.269456 
L 309.956039 275.40641 
L 316.923848 275.219457 
L 323.891657 275.308586 
L 330.859466 275.439018 
L 337.827276 275.445539 
L 344.795085 275.306412 
L 351.762894 275.412931 
L 358.730703 275.082503 
L 365.698512 275.228152 
L 372.666322 275.432496 
L 379.634131 275.389019 
L 386.60194 275.430322 
L 393.569749 275.362932 
L 400.537559 275.215109 
L 407.505368 275.386845 
L 414.473177 275.465104 
L 421.440986 275.269456 
L 428.408796 275.145545 
L 435.376605 275.280325 
L 442.344414 275.132502 
L 449.312223 274.708598 
L 456.280033 275.171632 
L 463.247842 275.086851 
L 470.215651 275.334672 
L 477.18346 275.293369 
L 484.15127 275.2325 
L 491.119079 275.319455 
L 498.086888 274.923811 
L 505.054697 275.112937 
L 512.022507 275.286847 
L 518.990316 275.167284 
L 525.958125 274.984679 
L 532.925934 275.423801 
L 539.893743 275.421627 
L 546.861553 275.343368 
L 553.829362 275.352063 
L 560.797171 275.325977 
L 567.76498 275.393367 
L 574.73279 275.46293 
L 581.700599 275.449887 
L 588.668408 275.423801 
L 595.636217 275.343368 
L 602.604027 275.275978 
L 609.571836 275.182501 
L 616.539645 275.156415 
L 623.507454 275.102068 
L 630.475264 275.049895 
L 637.443073 275.162936 
L 644.410882 275.145545 
L 651.378691 275.123807 
L 658.346501 275.182501 
L 665.31431 275.16511 
L 672.282119 275.189023 
L 679.249928 275.180327 
L 686.217738 275.219457 
L 693.185547 275.197718 
L 700.153356 275.223805 
L 707.121165 275.20424 
L 714.088974 275.215109 
L 721.056784 275.212935 
L 728.024593 275.121633 
L 734.992402 275.143372 
L 741.960211 275.121633 
L 748.928021 275.16511 
L 755.89583 275.099894 
L 762.863639 275.132502 
L 769.831448 274.969462 
L 776.799258 274.862942 
L 783.767067 274.678163 
L 790.734876 274.397734 
L 797.702685 274.112957 
L 804.670495 273.776007 
L 811.638304 273.552099 
L 818.606113 273.521665 
L 825.573922 273.712965 
L 832.541732 274.043393 
L 839.509541 274.245563 
L 846.47735 274.680337 
L 853.445159 274.997722 
L 860.412969 275.132502 
L 867.380778 275.306412 
L 874.348587 275.325977 
L 881.316396 275.425975 
L 888.284205 275.40641 
L 895.252015 275.456409 
L 902.219824 275.441192 
L 909.187633 275.40641 
L 916.155442 275.399888 
L 923.123252 275.404236 
L 930.091061 275.375976 
L 937.05887 275.325977 
L 944.026679 275.452061 
L 950.994489 275.425975 
" style="fill:none;stroke:#2b908f;stroke-linecap:square;"/>
   </g>
   <g id="line2d_15">
    <path clip-path="url(#pd658ce02a6)" d="M 100.921761 164.110803 
L 107.889571 265.404435 
L 114.85738 273.465144 
L 121.825189 275.13685 
L 128.792998 274.86729 
L 135.760808 275.275978 
L 142.728617 275.382497 
L 149.696426 274.69338 
L 156.664235 275.391193 
L 163.632045 275.110763 
L 170.599854 275.006418 
L 177.567663 275.349889 
L 184.535472 275.043373 
L 191.503281 275.419453 
L 198.471091 275.028156 
L 205.4389 274.678163 
L 212.406709 275.415105 
L 219.374518 274.793378 
L 226.342328 275.284673 
L 233.310137 274.612947 
L 240.277946 275.193371 
L 247.245755 275.286847 
L 254.213565 274.615121 
L 261.181374 275.343368 
L 268.149183 274.860768 
L 275.116992 274.486863 
L 282.084802 275.2325 
L 289.052611 275.021635 
L 296.02042 275.321629 
L 302.988229 274.515123 
L 309.956039 275.217283 
L 316.923848 274.519471 
L 323.891657 274.641208 
L 330.859466 275.269456 
L 337.827276 275.358585 
L 344.795085 274.641208 
L 351.762894 275.160762 
L 358.730703 273.534708 
L 365.698512 274.634686 
L 372.666322 275.221631 
L 379.634131 275.121633 
L 386.60194 275.223805 
L 393.569749 274.767292 
L 400.537559 274.156435 
L 407.505368 274.984679 
L 414.473177 275.365106 
L 421.440986 274.991201 
L 428.408796 274.278171 
L 435.376605 274.528166 
L 442.344414 273.819485 
L 449.312223 271.871698 
L 456.280033 274.236868 
L 463.247842 273.486883 
L 470.215651 274.869464 
L 477.18346 274.723815 
L 484.15127 274.206434 
L 491.119079 274.847725 
L 498.086888 272.40647 
L 505.054697 273.897744 
L 512.022507 274.499906 
L 518.990316 273.762964 
L 525.958125 273.539056 
L 532.925934 275.121633 
L 539.893743 275.206414 
L 546.861553 274.991201 
L 553.829362 274.949897 
L 560.797171 274.967288 
L 567.76498 275.065112 
L 574.73279 275.282499 
L 581.700599 275.310759 
L 588.668408 275.191197 
L 595.636217 274.830334 
L 602.604027 274.445559 
L 609.571836 274.154261 
L 616.539645 274.006438 
L 623.507454 273.871658 
L 630.475264 274.032524 
L 637.443073 273.952091 
L 644.410882 273.980351 
L 651.378691 274.191217 
L 658.346501 274.104262 
L 665.31431 273.969482 
L 672.282119 274.015133 
L 679.249928 273.965134 
L 686.217738 273.773834 
L 693.185547 273.584707 
L 700.153356 273.245583 
L 707.121165 272.884721 
L 714.088974 272.008651 
L 721.056784 271.306492 
L 728.024593 270.554333 
L 734.992402 269.576091 
L 741.960211 269.034798 
L 748.928021 268.667414 
L 755.89583 267.769606 
L 762.863639 267.304397 
L 769.831448 266.80006 
L 776.799258 266.195724 
L 783.767067 266.01964 
L 790.734876 266.197898 
L 797.702685 266.228332 
L 804.670495 266.23268 
L 811.638304 266.269635 
L 818.606113 266.876145 
L 825.573922 267.719607 
L 832.541732 269.056536 
L 839.509541 270.676069 
L 846.47735 271.658658 
L 853.445159 272.776027 
L 860.412969 273.821659 
L 867.380778 274.547731 
L 874.348587 274.986853 
L 881.316396 275.258587 
L 888.284205 275.252065 
L 895.252015 275.312933 
L 902.219824 275.291195 
L 909.187633 275.304238 
L 916.155442 275.267282 
L 923.123252 275.217283 
L 930.091061 275.219457 
L 937.05887 275.352063 
L 944.026679 275.236848 
L 950.994489 275.019461 
" style="fill:none;stroke:#f45b5b;stroke-linecap:square;"/>
   </g>
   <g id="line2d_16">
    <path clip-path="url(#pd658ce02a6)" d="M 100.921761 225.907397 
L 107.889571 271.517357 
L 114.85738 274.860768 
L 121.825189 275.384671 
L 128.792998 275.20424 
L 135.760808 275.417279 
L 142.728617 275.452061 
L 149.696426 275.130328 
L 156.664235 275.430322 
L 163.632045 275.408584 
L 170.599854 275.321629 
L 177.567663 275.460756 
L 184.535472 275.304238 
L 191.503281 275.467278 
L 198.471091 275.332498 
L 205.4389 275.225979 
L 212.406709 275.460756 
L 219.374518 275.236848 
L 226.342328 275.410757 
L 233.310137 275.169458 
L 240.277946 275.430322 
L 247.245755 275.39554 
L 254.213565 275.241196 
L 261.181374 275.432496 
L 268.149183 275.256413 
L 275.116992 275.152067 
L 282.084802 275.419453 
L 289.052611 275.308586 
L 296.02042 275.428148 
L 302.988229 275.234674 
L 309.956039 275.384671 
L 316.923848 275.180327 
L 323.891657 275.17598 
L 330.859466 275.40641 
L 337.827276 275.421627 
L 344.795085 275.219457 
L 351.762894 275.399888 
L 358.730703 274.908594 
L 365.698512 275.221631 
L 372.666322 275.439018 
L 379.634131 275.33902 
L 386.60194 275.40641 
L 393.569749 275.323803 
L 400.537559 275.019461 
L 407.505368 275.310759 
L 414.473177 275.46293 
L 421.440986 275.321629 
L 428.408796 274.910767 
L 435.376605 275.169458 
L 442.344414 274.904246 
L 449.312223 274.256433 
L 456.280033 275.036852 
L 463.247842 274.882507 
L 470.215651 275.306412 
L 477.18346 275.273804 
L 484.15127 275.152067 
L 491.119079 275.302064 
L 498.086888 274.556427 
L 505.054697 275.021635 
L 512.022507 275.215109 
L 518.990316 274.978157 
L 525.958125 274.882507 
L 532.925934 275.384671 
L 539.893743 275.417279 
L 546.861553 275.352063 
L 553.829362 275.312933 
L 560.797171 275.330324 
L 567.76498 275.371628 
L 574.73279 275.443366 
L 581.700599 275.430322 
L 588.668408 275.39554 
L 595.636217 275.315107 
L 602.604027 275.182501 
L 609.571836 275.125981 
L 616.539645 275.082503 
L 623.507454 274.989027 
L 630.475264 275.123807 
L 637.443073 275.010765 
L 644.410882 275.067286 
L 651.378691 275.093372 
L 658.346501 275.119459 
L 665.31431 275.212935 
L 672.282119 275.210761 
L 679.249928 275.191197 
L 686.217738 275.17598 
L 693.185547 275.178153 
L 700.153356 275.202066 
L 707.121165 275.241196 
L 714.088974 275.199892 
L 721.056784 275.195544 
L 728.024593 275.189023 
L 734.992402 275.208588 
L 741.960211 275.297716 
L 748.928021 275.208588 
L 755.89583 275.24337 
L 762.863639 275.2325 
L 769.831448 275.012939 
L 776.799258 274.923811 
L 783.767067 274.849899 
L 790.734876 274.565122 
L 797.702685 274.315127 
L 804.670495 274.208608 
L 811.638304 274.210781 
L 818.606113 274.115131 
L 825.573922 274.202086 
L 832.541732 274.491211 
L 839.509541 274.712945 
L 846.47735 274.852073 
L 853.445159 275.102068 
L 860.412969 275.208588 
L 867.380778 275.319455 
L 874.348587 275.391193 
L 881.316396 275.445539 
L 888.284205 275.430322 
L 895.252015 275.467278 
L 902.219824 275.428148 
L 909.187633 275.425975 
L 916.155442 275.425975 
L 923.123252 275.402062 
L 930.091061 275.349889 
L 937.05887 275.404236 
L 944.026679 275.289021 
L 950.994489 275.2325 
" style="fill:none;stroke:#91e8e1;stroke-linecap:square;"/>
   </g>
   <g id="line2d_17">
    <path clip-path="url(#pd658ce02a6)" d="M 100.921761 198.262296 
L 107.889571 268.406549 
L 114.85738 274.160782 
L 121.825189 275.360758 
L 128.792998 275.173806 
L 135.760808 275.412931 
L 142.728617 275.425975 
L 149.696426 275.058591 
L 156.664235 275.410757 
L 163.632045 275.332498 
L 170.599854 275.225979 
L 177.567663 275.410757 
L 184.535472 275.193371 
L 191.503281 275.360758 
L 198.471091 275.130328 
L 205.4389 274.947723 
L 212.406709 275.336846 
L 219.374518 275.047721 
L 226.342328 275.304238 
L 233.310137 274.917289 
L 240.277946 275.341194 
L 247.245755 275.382497 
L 254.213565 274.96294 
L 261.181374 275.29989 
L 268.149183 275.075982 
L 275.116992 274.956419 
L 282.084802 275.254239 
L 289.052611 275.143372 
L 296.02042 275.33902 
L 302.988229 274.995548 
L 309.956039 275.358585 
L 316.923848 274.956419 
L 323.891657 275.00207 
L 330.859466 275.312933 
L 337.827276 275.332498 
L 344.795085 275.034678 
L 351.762894 275.358585 
L 358.730703 274.547731 
L 365.698512 275.058591 
L 372.666322 275.36728 
L 379.634131 275.24337 
L 386.60194 275.360758 
L 393.569749 275.125981 
L 400.537559 274.882507 
L 407.505368 275.219457 
L 414.473177 275.445539 
L 421.440986 275.17598 
L 428.408796 274.773814 
L 435.376605 274.984679 
L 442.344414 274.504254 
L 449.312223 273.402102 
L 456.280033 274.680337 
L 463.247842 274.499906 
L 470.215651 275.139024 
L 477.18346 275.117285 
L 484.15127 274.832508 
L 491.119079 275.119459 
L 498.086888 273.884701 
L 505.054697 274.578165 
L 512.022507 274.967288 
L 518.990316 274.697728 
L 525.958125 274.378169 
L 532.925934 275.280325 
L 539.893743 275.293369 
L 546.861553 275.206414 
L 553.829362 275.208588 
L 560.797171 275.219457 
L 567.76498 275.219457 
L 574.73279 275.397714 
L 581.700599 275.391193 
L 588.668408 275.354237 
L 595.636217 275.178153 
L 602.604027 274.975984 
L 609.571836 274.754249 
L 616.539645 274.741206 
L 623.507454 274.660772 
L 630.475264 274.641208 
L 637.443073 274.634686 
L 644.410882 274.560774 
L 651.378691 274.654251 
L 658.346501 274.725989 
L 665.31431 274.706424 
L 672.282119 274.875986 
L 679.249928 274.891203 
L 686.217738 274.921637 
L 693.185547 274.93468 
L 700.153356 274.849899 
L 707.121165 274.832508 
L 714.088974 274.856421 
L 721.056784 274.7999 
L 728.024593 274.775988 
L 734.992402 274.767292 
L 741.960211 274.756423 
L 748.928021 274.725989 
L 755.89583 274.723815 
L 762.863639 274.565122 
L 769.831448 274.27165 
L 776.799258 273.682531 
L 783.767067 272.936894 
L 790.734876 271.726048 
L 797.702685 270.519551 
L 804.670495 269.321748 
L 811.638304 268.119599 
L 818.606113 267.730476 
L 825.573922 268.467418 
L 832.541732 269.467398 
L 839.509541 270.784763 
L 846.47735 272.858634 
L 853.445159 273.66514 
L 860.412969 274.654251 
L 867.380778 274.921637 
L 874.348587 275.199892 
L 881.316396 275.389019 
L 888.284205 275.389019 
L 895.252015 275.454235 
L 902.219824 275.447713 
L 909.187633 275.399888 
L 916.155442 275.421627 
L 923.123252 275.365106 
L 930.091061 275.399888 
L 937.05887 275.2325 
L 944.026679 275.291195 
L 950.994489 275.219457 
" style="fill:none;stroke:#7cb5ec;stroke-linecap:square;"/>
   </g>
   <g id="line2d_18">
    <path clip-path="url(#pd658ce02a6)" d="M 58.418125 275.50206 
L 993.498125 275.50206 
" style="fill:none;stroke:#dedede;stroke-linecap:square;stroke-width:2;"/>
   </g>
   <g id="text_16">
    <!-- Cutadapt: Lengths of Trimmed Sequences -->
    <g transform="translate(358.293125 19.3575)scale(0.16 -0.16)">
     <defs>
      <path d="M 34.28125 27.484375 
Q 23.390625 27.484375 19.1875 25 
Q 14.984375 22.515625 14.984375 16.5 
Q 14.984375 11.71875 18.140625 8.90625 
Q 21.296875 6.109375 26.703125 6.109375 
Q 34.1875 6.109375 38.703125 11.40625 
Q 43.21875 16.703125 43.21875 25.484375 
L 43.21875 27.484375 
z
M 52.203125 31.203125 
L 52.203125 0 
L 43.21875 0 
L 43.21875 8.296875 
Q 40.140625 3.328125 35.546875 0.953125 
Q 30.953125 -1.421875 24.3125 -1.421875 
Q 15.921875 -1.421875 10.953125 3.296875 
Q 6 8.015625 6 15.921875 
Q 6 25.140625 12.171875 29.828125 
Q 18.359375 34.515625 30.609375 34.515625 
L 43.21875 34.515625 
L 43.21875 35.40625 
Q 43.21875 41.609375 39.140625 45 
Q 35.0625 48.390625 27.6875 48.390625 
Q 23 48.390625 18.546875 47.265625 
Q 14.109375 46.140625 10.015625 43.890625 
L 10.015625 52.203125 
Q 14.9375 54.109375 19.578125 55.046875 
Q 24.21875 56 28.609375 56 
Q 40.484375 56 46.34375 49.84375 
Q 52.203125 43.703125 52.203125 31.203125 
z
" id="DejaVuSans-97"/>
      <path d="M 11.71875 12.40625 
L 22.015625 12.40625 
L 22.015625 0 
L 11.71875 0 
z
M 11.71875 51.703125 
L 22.015625 51.703125 
L 22.015625 39.3125 
L 11.71875 39.3125 
z
" id="DejaVuSans-58"/>
      <path d="M 44.28125 53.078125 
L 44.28125 44.578125 
Q 40.484375 46.53125 36.375 47.5 
Q 32.28125 48.484375 27.875 48.484375 
Q 21.1875 48.484375 17.84375 46.4375 
Q 14.5 44.390625 14.5 40.28125 
Q 14.5 37.15625 16.890625 35.375 
Q 19.28125 33.59375 26.515625 31.984375 
L 29.59375 31.296875 
Q 39.15625 29.25 43.1875 25.515625 
Q 47.21875 21.78125 47.21875 15.09375 
Q 47.21875 7.46875 41.1875 3.015625 
Q 35.15625 -1.421875 24.609375 -1.421875 
Q 20.21875 -1.421875 15.453125 -0.5625 
Q 10.6875 0.296875 5.421875 2 
L 5.421875 11.28125 
Q 10.40625 8.6875 15.234375 7.390625 
Q 20.0625 6.109375 24.8125 6.109375 
Q 31.15625 6.109375 34.5625 8.28125 
Q 37.984375 10.453125 37.984375 14.40625 
Q 37.984375 18.0625 35.515625 20.015625 
Q 33.0625 21.96875 24.703125 23.78125 
L 21.578125 24.515625 
Q 13.234375 26.265625 9.515625 29.90625 
Q 5.8125 33.546875 5.8125 39.890625 
Q 5.8125 47.609375 11.28125 51.796875 
Q 16.75 56 26.8125 56 
Q 31.78125 56 36.171875 55.265625 
Q 40.578125 54.546875 44.28125 53.078125 
z
" id="DejaVuSans-115"/>
      <path d="M 37.109375 75.984375 
L 37.109375 68.5 
L 28.515625 68.5 
Q 23.6875 68.5 21.796875 66.546875 
Q 19.921875 64.59375 19.921875 59.515625 
L 19.921875 54.6875 
L 34.71875 54.6875 
L 34.71875 47.703125 
L 19.921875 47.703125 
L 19.921875 0 
L 10.890625 0 
L 10.890625 47.703125 
L 2.296875 47.703125 
L 2.296875 54.6875 
L 10.890625 54.6875 
L 10.890625 58.5 
Q 10.890625 67.625 15.140625 71.796875 
Q 19.390625 75.984375 28.609375 75.984375 
z
" id="DejaVuSans-102"/>
      <path d="M 53.515625 70.515625 
L 53.515625 60.890625 
Q 47.90625 63.578125 42.921875 64.890625 
Q 37.9375 66.21875 33.296875 66.21875 
Q 25.25 66.21875 20.875 63.09375 
Q 16.5 59.96875 16.5 54.203125 
Q 16.5 49.359375 19.40625 46.890625 
Q 22.3125 44.4375 30.421875 42.921875 
L 36.375 41.703125 
Q 47.40625 39.59375 52.65625 34.296875 
Q 57.90625 29 57.90625 20.125 
Q 57.90625 9.515625 50.796875 4.046875 
Q 43.703125 -1.421875 29.984375 -1.421875 
Q 24.8125 -1.421875 18.96875 -0.25 
Q 13.140625 0.921875 6.890625 3.21875 
L 6.890625 13.375 
Q 12.890625 10.015625 18.65625 8.296875 
Q 24.421875 6.59375 29.984375 6.59375 
Q 38.421875 6.59375 43.015625 9.90625 
Q 47.609375 13.234375 47.609375 19.390625 
Q 47.609375 24.75 44.3125 27.78125 
Q 41.015625 30.8125 33.5 32.328125 
L 27.484375 33.5 
Q 16.453125 35.6875 11.515625 40.375 
Q 6.59375 45.0625 6.59375 53.421875 
Q 6.59375 63.09375 13.40625 68.65625 
Q 20.21875 74.21875 32.171875 74.21875 
Q 37.3125 74.21875 42.625 73.28125 
Q 47.953125 72.359375 53.515625 70.515625 
z
" id="DejaVuSans-83"/>
      <path d="M 14.796875 27.296875 
Q 14.796875 17.390625 18.875 11.75 
Q 22.953125 6.109375 30.078125 6.109375 
Q 37.203125 6.109375 41.296875 11.75 
Q 45.40625 17.390625 45.40625 27.296875 
Q 45.40625 37.203125 41.296875 42.84375 
Q 37.203125 48.484375 30.078125 48.484375 
Q 22.953125 48.484375 18.875 42.84375 
Q 14.796875 37.203125 14.796875 27.296875 
z
M 45.40625 8.203125 
Q 42.578125 3.328125 38.25 0.953125 
Q 33.9375 -1.421875 27.875 -1.421875 
Q 17.96875 -1.421875 11.734375 6.484375 
Q 5.515625 14.40625 5.515625 27.296875 
Q 5.515625 40.1875 11.734375 48.09375 
Q 17.96875 56 27.875 56 
Q 33.9375 56 38.25 53.625 
Q 42.578125 51.265625 45.40625 46.390625 
L 45.40625 54.6875 
L 54.390625 54.6875 
L 54.390625 -20.796875 
L 45.40625 -20.796875 
z
" id="DejaVuSans-113"/>
      <path d="M 48.78125 52.59375 
L 48.78125 44.1875 
Q 44.96875 46.296875 41.140625 47.34375 
Q 37.3125 48.390625 33.40625 48.390625 
Q 24.65625 48.390625 19.8125 42.84375 
Q 14.984375 37.3125 14.984375 27.296875 
Q 14.984375 17.28125 19.8125 11.734375 
Q 24.65625 6.203125 33.40625 6.203125 
Q 37.3125 6.203125 41.140625 7.25 
Q 44.96875 8.296875 48.78125 10.40625 
L 48.78125 2.09375 
Q 45.015625 0.34375 40.984375 -0.53125 
Q 36.96875 -1.421875 32.421875 -1.421875 
Q 20.0625 -1.421875 12.78125 6.34375 
Q 5.515625 14.109375 5.515625 27.296875 
Q 5.515625 40.671875 12.859375 48.328125 
Q 20.21875 56 33.015625 56 
Q 37.15625 56 41.109375 55.140625 
Q 45.0625 54.296875 48.78125 52.59375 
z
" id="DejaVuSans-99"/>
     </defs>
     <use xlink:href="#DejaVuSans-67"/>
     <use x="69.824219" xlink:href="#DejaVuSans-117"/>
     <use x="133.203125" xlink:href="#DejaVuSans-116"/>
     <use x="172.412109" xlink:href="#DejaVuSans-97"/>
     <use x="233.691406" xlink:href="#DejaVuSans-100"/>
     <use x="297.167969" xlink:href="#DejaVuSans-97"/>
     <use x="358.447266" xlink:href="#DejaVuSans-112"/>
     <use x="421.923828" xlink:href="#DejaVuSans-116"/>
     <use x="461.132812" xlink:href="#DejaVuSans-58"/>
     <use x="494.824219" xlink:href="#DejaVuSans-32"/>
     <use x="526.611328" xlink:href="#DejaVuSans-76"/>
     <use x="580.574219" xlink:href="#DejaVuSans-101"/>
     <use x="642.097656" xlink:href="#DejaVuSans-110"/>
     <use x="705.476562" xlink:href="#DejaVuSans-103"/>
     <use x="768.953125" xlink:href="#DejaVuSans-116"/>
     <use x="808.162109" xlink:href="#DejaVuSans-104"/>
     <use x="871.541016" xlink:href="#DejaVuSans-115"/>
     <use x="923.640625" xlink:href="#DejaVuSans-32"/>
     <use x="955.427734" xlink:href="#DejaVuSans-111"/>
     <use x="1016.609375" xlink:href="#DejaVuSans-102"/>
     <use x="1051.814453" xlink:href="#DejaVuSans-32"/>
     <use x="1083.601562" xlink:href="#DejaVuSans-84"/>
     <use x="1129.935547" xlink:href="#DejaVuSans-114"/>
     <use x="1171.048828" xlink:href="#DejaVuSans-105"/>
     <use x="1198.832031" xlink:href="#DejaVuSans-109"/>
     <use x="1296.244141" xlink:href="#DejaVuSans-109"/>
     <use x="1393.65625" xlink:href="#DejaVuSans-101"/>
     <use x="1455.179688" xlink:href="#DejaVuSans-100"/>
     <use x="1518.65625" xlink:href="#DejaVuSans-32"/>
     <use x="1550.443359" xlink:href="#DejaVuSans-83"/>
     <use x="1613.919922" xlink:href="#DejaVuSans-101"/>
     <use x="1675.443359" xlink:href="#DejaVuSans-113"/>
     <use x="1738.919922" xlink:href="#DejaVuSans-117"/>
     <use x="1802.298828" xlink:href="#DejaVuSans-101"/>
     <use x="1863.822266" xlink:href="#DejaVuSans-110"/>
     <use x="1927.201172" xlink:href="#DejaVuSans-99"/>
     <use x="1982.181641" xlink:href="#DejaVuSans-101"/>
     <use x="2043.705078" xlink:href="#DejaVuSans-115"/>
    </g>
   </g>
   <g id="legend_1">
    <g id="line2d_19">
     <path d="M 65.618125 293.354194 
L 81.618125 293.354194 
" style="fill:none;stroke:#7cb5ec;stroke-linecap:square;"/>
    </g>
    <g id="line2d_20"/>
    <g id="text_17">
     <!-- RT_Gad2_1 - Adapter 1 -->
     <g transform="translate(88.018125 296.154194)scale(0.08 -0.08)">
      <defs>
       <path d="M 44.390625 34.1875 
Q 47.5625 33.109375 50.5625 29.59375 
Q 53.5625 26.078125 56.59375 19.921875 
L 66.609375 0 
L 56 0 
L 46.6875 18.703125 
Q 43.0625 26.03125 39.671875 28.421875 
Q 36.28125 30.8125 30.421875 30.8125 
L 19.671875 30.8125 
L 19.671875 0 
L 9.8125 0 
L 9.8125 72.90625 
L 32.078125 72.90625 
Q 44.578125 72.90625 50.734375 67.671875 
Q 56.890625 62.453125 56.890625 51.90625 
Q 56.890625 45.015625 53.6875 40.46875 
Q 50.484375 35.9375 44.390625 34.1875 
z
M 19.671875 64.796875 
L 19.671875 38.921875 
L 32.078125 38.921875 
Q 39.203125 38.921875 42.84375 42.21875 
Q 46.484375 45.515625 46.484375 51.90625 
Q 46.484375 58.296875 42.84375 61.546875 
Q 39.203125 64.796875 32.078125 64.796875 
z
" id="DejaVuSans-82"/>
       <path d="M 50.984375 -16.609375 
L 50.984375 -23.578125 
L -0.984375 -23.578125 
L -0.984375 -16.609375 
z
" id="DejaVuSans-95"/>
       <path d="M 59.515625 10.40625 
L 59.515625 29.984375 
L 43.40625 29.984375 
L 43.40625 38.09375 
L 69.28125 38.09375 
L 69.28125 6.78125 
Q 63.578125 2.734375 56.6875 0.65625 
Q 49.8125 -1.421875 42 -1.421875 
Q 24.90625 -1.421875 15.25 8.5625 
Q 5.609375 18.5625 5.609375 36.375 
Q 5.609375 54.25 15.25 64.234375 
Q 24.90625 74.21875 42 74.21875 
Q 49.125 74.21875 55.546875 72.453125 
Q 61.96875 70.703125 67.390625 67.28125 
L 67.390625 56.78125 
Q 61.921875 61.421875 55.765625 63.765625 
Q 49.609375 66.109375 42.828125 66.109375 
Q 29.4375 66.109375 22.71875 58.640625 
Q 16.015625 51.171875 16.015625 36.375 
Q 16.015625 21.625 22.71875 14.15625 
Q 29.4375 6.6875 42.828125 6.6875 
Q 48.046875 6.6875 52.140625 7.59375 
Q 56.25 8.5 59.515625 10.40625 
z
" id="DejaVuSans-71"/>
       <path d="M 4.890625 31.390625 
L 31.203125 31.390625 
L 31.203125 23.390625 
L 4.890625 23.390625 
z
" id="DejaVuSans-45"/>
       <path d="M 34.1875 63.1875 
L 20.796875 26.90625 
L 47.609375 26.90625 
z
M 28.609375 72.90625 
L 39.796875 72.90625 
L 67.578125 0 
L 57.328125 0 
L 50.6875 18.703125 
L 17.828125 18.703125 
L 11.1875 0 
L 0.78125 0 
z
" id="DejaVuSans-65"/>
      </defs>
      <use xlink:href="#DejaVuSans-82"/>
      <use x="62.232422" xlink:href="#DejaVuSans-84"/>
      <use x="123.316406" xlink:href="#DejaVuSans-95"/>
      <use x="173.316406" xlink:href="#DejaVuSans-71"/>
      <use x="250.806641" xlink:href="#DejaVuSans-97"/>
      <use x="312.085938" xlink:href="#DejaVuSans-100"/>
      <use x="375.5625" xlink:href="#DejaVuSans-50"/>
      <use x="439.185547" xlink:href="#DejaVuSans-95"/>
      <use x="489.185547" xlink:href="#DejaVuSans-49"/>
      <use x="552.808594" xlink:href="#DejaVuSans-32"/>
      <use x="584.595703" xlink:href="#DejaVuSans-45"/>
      <use x="620.679688" xlink:href="#DejaVuSans-32"/>
      <use x="652.466797" xlink:href="#DejaVuSans-65"/>
      <use x="719.125" xlink:href="#DejaVuSans-100"/>
      <use x="782.601562" xlink:href="#DejaVuSans-97"/>
      <use x="843.880859" xlink:href="#DejaVuSans-112"/>
      <use x="907.357422" xlink:href="#DejaVuSans-116"/>
      <use x="946.566406" xlink:href="#DejaVuSans-101"/>
      <use x="1008.089844" xlink:href="#DejaVuSans-114"/>
      <use x="1049.203125" xlink:href="#DejaVuSans-32"/>
      <use x="1080.990234" xlink:href="#DejaVuSans-49"/>
     </g>
    </g>
    <g id="line2d_21">
     <path d="M 65.618125 305.319194 
L 81.618125 305.319194 
" style="fill:none;stroke:#434348;stroke-linecap:square;"/>
    </g>
    <g id="line2d_22"/>
    <g id="text_18">
     <!-- RT_Gad2_2 - Adapter 1 -->
     <g transform="translate(88.018125 308.119194)scale(0.08 -0.08)">
      <use xlink:href="#DejaVuSans-82"/>
      <use x="62.232422" xlink:href="#DejaVuSans-84"/>
      <use x="123.316406" xlink:href="#DejaVuSans-95"/>
      <use x="173.316406" xlink:href="#DejaVuSans-71"/>
      <use x="250.806641" xlink:href="#DejaVuSans-97"/>
      <use x="312.085938" xlink:href="#DejaVuSans-100"/>
      <use x="375.5625" xlink:href="#DejaVuSans-50"/>
      <use x="439.185547" xlink:href="#DejaVuSans-95"/>
      <use x="489.185547" xlink:href="#DejaVuSans-50"/>
      <use x="552.808594" xlink:href="#DejaVuSans-32"/>
      <use x="584.595703" xlink:href="#DejaVuSans-45"/>
      <use x="620.679688" xlink:href="#DejaVuSans-32"/>
      <use x="652.466797" xlink:href="#DejaVuSans-65"/>
      <use x="719.125" xlink:href="#DejaVuSans-100"/>
      <use x="782.601562" xlink:href="#DejaVuSans-97"/>
      <use x="843.880859" xlink:href="#DejaVuSans-112"/>
      <use x="907.357422" xlink:href="#DejaVuSans-116"/>
      <use x="946.566406" xlink:href="#DejaVuSans-101"/>
      <use x="1008.089844" xlink:href="#DejaVuSans-114"/>
      <use x="1049.203125" xlink:href="#DejaVuSans-32"/>
      <use x="1080.990234" xlink:href="#DejaVuSans-49"/>
     </g>
    </g>
    <g id="line2d_23">
     <path d="M 65.618125 317.284194 
L 81.618125 317.284194 
" style="fill:none;stroke:#90ed7d;stroke-linecap:square;"/>
    </g>
    <g id="line2d_24"/>
    <g id="text_19">
     <!-- RT_Gad2_3 - Adapter 1 -->
     <g transform="translate(88.018125 320.084194)scale(0.08 -0.08)">
      <defs>
       <path d="M 40.578125 39.3125 
Q 47.65625 37.796875 51.625 33 
Q 55.609375 28.21875 55.609375 21.1875 
Q 55.609375 10.40625 48.1875 4.484375 
Q 40.765625 -1.421875 27.09375 -1.421875 
Q 22.515625 -1.421875 17.65625 -0.515625 
Q 12.796875 0.390625 7.625 2.203125 
L 7.625 11.71875 
Q 11.71875 9.328125 16.59375 8.109375 
Q 21.484375 6.890625 26.8125 6.890625 
Q 36.078125 6.890625 40.9375 10.546875 
Q 45.796875 14.203125 45.796875 21.1875 
Q 45.796875 27.640625 41.28125 31.265625 
Q 36.765625 34.90625 28.71875 34.90625 
L 20.21875 34.90625 
L 20.21875 43.015625 
L 29.109375 43.015625 
Q 36.375 43.015625 40.234375 45.921875 
Q 44.09375 48.828125 44.09375 54.296875 
Q 44.09375 59.90625 40.109375 62.90625 
Q 36.140625 65.921875 28.71875 65.921875 
Q 24.65625 65.921875 20.015625 65.03125 
Q 15.375 64.15625 9.8125 62.3125 
L 9.8125 71.09375 
Q 15.4375 72.65625 20.34375 73.4375 
Q 25.25 74.21875 29.59375 74.21875 
Q 40.828125 74.21875 47.359375 69.109375 
Q 53.90625 64.015625 53.90625 55.328125 
Q 53.90625 49.265625 50.4375 45.09375 
Q 46.96875 40.921875 40.578125 39.3125 
z
" id="DejaVuSans-51"/>
      </defs>
      <use xlink:href="#DejaVuSans-82"/>
      <use x="62.232422" xlink:href="#DejaVuSans-84"/>
      <use x="123.316406" xlink:href="#DejaVuSans-95"/>
      <use x="173.316406" xlink:href="#DejaVuSans-71"/>
      <use x="250.806641" xlink:href="#DejaVuSans-97"/>
      <use x="312.085938" xlink:href="#DejaVuSans-100"/>
      <use x="375.5625" xlink:href="#DejaVuSans-50"/>
      <use x="439.185547" xlink:href="#DejaVuSans-95"/>
      <use x="489.185547" xlink:href="#DejaVuSans-51"/>
      <use x="552.808594" xlink:href="#DejaVuSans-32"/>
      <use x="584.595703" xlink:href="#DejaVuSans-45"/>
      <use x="620.679688" xlink:href="#DejaVuSans-32"/>
      <use x="652.466797" xlink:href="#DejaVuSans-65"/>
      <use x="719.125" xlink:href="#DejaVuSans-100"/>
      <use x="782.601562" xlink:href="#DejaVuSans-97"/>
      <use x="843.880859" xlink:href="#DejaVuSans-112"/>
      <use x="907.357422" xlink:href="#DejaVuSans-116"/>
      <use x="946.566406" xlink:href="#DejaVuSans-101"/>
      <use x="1008.089844" xlink:href="#DejaVuSans-114"/>
      <use x="1049.203125" xlink:href="#DejaVuSans-32"/>
      <use x="1080.990234" xlink:href="#DejaVuSans-49"/>
     </g>
    </g>
    <g id="line2d_25">
     <path d="M 261.86875 293.354194 
L 277.86875 293.354194 
" style="fill:none;stroke:#f7a35c;stroke-linecap:square;"/>
    </g>
    <g id="line2d_26"/>
    <g id="text_20">
     <!-- RT_vGluT2_1 - Adapter 1 -->
     <g transform="translate(284.26875 296.154194)scale(0.08 -0.08)">
      <defs>
       <path d="M 2.984375 54.6875 
L 12.5 54.6875 
L 29.59375 8.796875 
L 46.6875 54.6875 
L 56.203125 54.6875 
L 35.6875 0 
L 23.484375 0 
z
" id="DejaVuSans-118"/>
       <path d="M 9.421875 75.984375 
L 18.40625 75.984375 
L 18.40625 0 
L 9.421875 0 
z
" id="DejaVuSans-108"/>
      </defs>
      <use xlink:href="#DejaVuSans-82"/>
      <use x="62.232422" xlink:href="#DejaVuSans-84"/>
      <use x="123.316406" xlink:href="#DejaVuSans-95"/>
      <use x="173.316406" xlink:href="#DejaVuSans-118"/>
      <use x="232.496094" xlink:href="#DejaVuSans-71"/>
      <use x="309.986328" xlink:href="#DejaVuSans-108"/>
      <use x="337.769531" xlink:href="#DejaVuSans-117"/>
      <use x="401.148438" xlink:href="#DejaVuSans-84"/>
      <use x="462.232422" xlink:href="#DejaVuSans-50"/>
      <use x="525.855469" xlink:href="#DejaVuSans-95"/>
      <use x="575.855469" xlink:href="#DejaVuSans-49"/>
      <use x="639.478516" xlink:href="#DejaVuSans-32"/>
      <use x="671.265625" xlink:href="#DejaVuSans-45"/>
      <use x="707.349609" xlink:href="#DejaVuSans-32"/>
      <use x="739.136719" xlink:href="#DejaVuSans-65"/>
      <use x="805.794922" xlink:href="#DejaVuSans-100"/>
      <use x="869.271484" xlink:href="#DejaVuSans-97"/>
      <use x="930.550781" xlink:href="#DejaVuSans-112"/>
      <use x="994.027344" xlink:href="#DejaVuSans-116"/>
      <use x="1033.236328" xlink:href="#DejaVuSans-101"/>
      <use x="1094.759766" xlink:href="#DejaVuSans-114"/>
      <use x="1135.873047" xlink:href="#DejaVuSans-32"/>
      <use x="1167.660156" xlink:href="#DejaVuSans-49"/>
     </g>
    </g>
    <g id="line2d_27">
     <path d="M 261.86875 305.319194 
L 277.86875 305.319194 
" style="fill:none;stroke:#8085e9;stroke-linecap:square;"/>
    </g>
    <g id="line2d_28"/>
    <g id="text_21">
     <!-- RT_vGluT2_3 - Adapter 1 -->
     <g transform="translate(284.26875 308.119194)scale(0.08 -0.08)">
      <use xlink:href="#DejaVuSans-82"/>
      <use x="62.232422" xlink:href="#DejaVuSans-84"/>
      <use x="123.316406" xlink:href="#DejaVuSans-95"/>
      <use x="173.316406" xlink:href="#DejaVuSans-118"/>
      <use x="232.496094" xlink:href="#DejaVuSans-71"/>
      <use x="309.986328" xlink:href="#DejaVuSans-108"/>
      <use x="337.769531" xlink:href="#DejaVuSans-117"/>
      <use x="401.148438" xlink:href="#DejaVuSans-84"/>
      <use x="462.232422" xlink:href="#DejaVuSans-50"/>
      <use x="525.855469" xlink:href="#DejaVuSans-95"/>
      <use x="575.855469" xlink:href="#DejaVuSans-51"/>
      <use x="639.478516" xlink:href="#DejaVuSans-32"/>
      <use x="671.265625" xlink:href="#DejaVuSans-45"/>
      <use x="707.349609" xlink:href="#DejaVuSans-32"/>
      <use x="739.136719" xlink:href="#DejaVuSans-65"/>
      <use x="805.794922" xlink:href="#DejaVuSans-100"/>
      <use x="869.271484" xlink:href="#DejaVuSans-97"/>
      <use x="930.550781" xlink:href="#DejaVuSans-112"/>
      <use x="994.027344" xlink:href="#DejaVuSans-116"/>
      <use x="1033.236328" xlink:href="#DejaVuSans-101"/>
      <use x="1094.759766" xlink:href="#DejaVuSans-114"/>
      <use x="1135.873047" xlink:href="#DejaVuSans-32"/>
      <use x="1167.660156" xlink:href="#DejaVuSans-49"/>
     </g>
    </g>
    <g id="line2d_29">
     <path d="M 465.051875 293.354194 
L 481.051875 293.354194 
" style="fill:none;stroke:#f15c80;stroke-linecap:square;"/>
    </g>
    <g id="line2d_30"/>
    <g id="text_22">
     <!-- S1_Gad2_1 - Adapter 1 -->
     <g transform="translate(487.451875 296.154194)scale(0.08 -0.08)">
      <use xlink:href="#DejaVuSans-83"/>
      <use x="63.476562" xlink:href="#DejaVuSans-49"/>
      <use x="127.099609" xlink:href="#DejaVuSans-95"/>
      <use x="177.099609" xlink:href="#DejaVuSans-71"/>
      <use x="254.589844" xlink:href="#DejaVuSans-97"/>
      <use x="315.869141" xlink:href="#DejaVuSans-100"/>
      <use x="379.345703" xlink:href="#DejaVuSans-50"/>
      <use x="442.96875" xlink:href="#DejaVuSans-95"/>
      <use x="492.96875" xlink:href="#DejaVuSans-49"/>
      <use x="556.591797" xlink:href="#DejaVuSans-32"/>
      <use x="588.378906" xlink:href="#DejaVuSans-45"/>
      <use x="624.462891" xlink:href="#DejaVuSans-32"/>
      <use x="656.25" xlink:href="#DejaVuSans-65"/>
      <use x="722.908203" xlink:href="#DejaVuSans-100"/>
      <use x="786.384766" xlink:href="#DejaVuSans-97"/>
      <use x="847.664062" xlink:href="#DejaVuSans-112"/>
      <use x="911.140625" xlink:href="#DejaVuSans-116"/>
      <use x="950.349609" xlink:href="#DejaVuSans-101"/>
      <use x="1011.873047" xlink:href="#DejaVuSans-114"/>
      <use x="1052.986328" xlink:href="#DejaVuSans-32"/>
      <use x="1084.773438" xlink:href="#DejaVuSans-49"/>
     </g>
    </g>
    <g id="line2d_31">
     <path d="M 465.051875 305.319194 
L 481.051875 305.319194 
" style="fill:none;stroke:#e4d354;stroke-linecap:square;"/>
    </g>
    <g id="line2d_32"/>
    <g id="text_23">
     <!-- S1_Gad2_2 - Adapter 1 -->
     <g transform="translate(487.451875 308.119194)scale(0.08 -0.08)">
      <use xlink:href="#DejaVuSans-83"/>
      <use x="63.476562" xlink:href="#DejaVuSans-49"/>
      <use x="127.099609" xlink:href="#DejaVuSans-95"/>
      <use x="177.099609" xlink:href="#DejaVuSans-71"/>
      <use x="254.589844" xlink:href="#DejaVuSans-97"/>
      <use x="315.869141" xlink:href="#DejaVuSans-100"/>
      <use x="379.345703" xlink:href="#DejaVuSans-50"/>
      <use x="442.96875" xlink:href="#DejaVuSans-95"/>
      <use x="492.96875" xlink:href="#DejaVuSans-50"/>
      <use x="556.591797" xlink:href="#DejaVuSans-32"/>
      <use x="588.378906" xlink:href="#DejaVuSans-45"/>
      <use x="624.462891" xlink:href="#DejaVuSans-32"/>
      <use x="656.25" xlink:href="#DejaVuSans-65"/>
      <use x="722.908203" xlink:href="#DejaVuSans-100"/>
      <use x="786.384766" xlink:href="#DejaVuSans-97"/>
      <use x="847.664062" xlink:href="#DejaVuSans-112"/>
      <use x="911.140625" xlink:href="#DejaVuSans-116"/>
      <use x="950.349609" xlink:href="#DejaVuSans-101"/>
      <use x="1011.873047" xlink:href="#DejaVuSans-114"/>
      <use x="1052.986328" xlink:href="#DejaVuSans-32"/>
      <use x="1084.773438" xlink:href="#DejaVuSans-49"/>
     </g>
    </g>
    <g id="line2d_33">
     <path d="M 661.60625 293.354194 
L 677.60625 293.354194 
" style="fill:none;stroke:#2b908f;stroke-linecap:square;"/>
    </g>
    <g id="line2d_34"/>
    <g id="text_24">
     <!-- S1_Gad2_3 - Adapter 1 -->
     <g transform="translate(684.00625 296.154194)scale(0.08 -0.08)">
      <use xlink:href="#DejaVuSans-83"/>
      <use x="63.476562" xlink:href="#DejaVuSans-49"/>
      <use x="127.099609" xlink:href="#DejaVuSans-95"/>
      <use x="177.099609" xlink:href="#DejaVuSans-71"/>
      <use x="254.589844" xlink:href="#DejaVuSans-97"/>
      <use x="315.869141" xlink:href="#DejaVuSans-100"/>
      <use x="379.345703" xlink:href="#DejaVuSans-50"/>
      <use x="442.96875" xlink:href="#DejaVuSans-95"/>
      <use x="492.96875" xlink:href="#DejaVuSans-51"/>
      <use x="556.591797" xlink:href="#DejaVuSans-32"/>
      <use x="588.378906" xlink:href="#DejaVuSans-45"/>
      <use x="624.462891" xlink:href="#DejaVuSans-32"/>
      <use x="656.25" xlink:href="#DejaVuSans-65"/>
      <use x="722.908203" xlink:href="#DejaVuSans-100"/>
      <use x="786.384766" xlink:href="#DejaVuSans-97"/>
      <use x="847.664062" xlink:href="#DejaVuSans-112"/>
      <use x="911.140625" xlink:href="#DejaVuSans-116"/>
      <use x="950.349609" xlink:href="#DejaVuSans-101"/>
      <use x="1011.873047" xlink:href="#DejaVuSans-114"/>
      <use x="1052.986328" xlink:href="#DejaVuSans-32"/>
      <use x="1084.773438" xlink:href="#DejaVuSans-49"/>
     </g>
    </g>
    <g id="line2d_35">
     <path d="M 661.60625 305.319194 
L 677.60625 305.319194 
" style="fill:none;stroke:#f45b5b;stroke-linecap:square;"/>
    </g>
    <g id="line2d_36"/>
    <g id="text_25">
     <!-- S1_vGluT2_1 - Adapter 1 -->
     <g transform="translate(684.00625 308.119194)scale(0.08 -0.08)">
      <use xlink:href="#DejaVuSans-83"/>
      <use x="63.476562" xlink:href="#DejaVuSans-49"/>
      <use x="127.099609" xlink:href="#DejaVuSans-95"/>
      <use x="177.099609" xlink:href="#DejaVuSans-118"/>
      <use x="236.279297" xlink:href="#DejaVuSans-71"/>
      <use x="313.769531" xlink:href="#DejaVuSans-108"/>
      <use x="341.552734" xlink:href="#DejaVuSans-117"/>
      <use x="404.931641" xlink:href="#DejaVuSans-84"/>
      <use x="466.015625" xlink:href="#DejaVuSans-50"/>
      <use x="529.638672" xlink:href="#DejaVuSans-95"/>
      <use x="579.638672" xlink:href="#DejaVuSans-49"/>
      <use x="643.261719" xlink:href="#DejaVuSans-32"/>
      <use x="675.048828" xlink:href="#DejaVuSans-45"/>
      <use x="711.132812" xlink:href="#DejaVuSans-32"/>
      <use x="742.919922" xlink:href="#DejaVuSans-65"/>
      <use x="809.578125" xlink:href="#DejaVuSans-100"/>
      <use x="873.054688" xlink:href="#DejaVuSans-97"/>
      <use x="934.333984" xlink:href="#DejaVuSans-112"/>
      <use x="997.810547" xlink:href="#DejaVuSans-116"/>
      <use x="1037.019531" xlink:href="#DejaVuSans-101"/>
      <use x="1098.542969" xlink:href="#DejaVuSans-114"/>
      <use x="1139.65625" xlink:href="#DejaVuSans-32"/>
      <use x="1171.443359" xlink:href="#DejaVuSans-49"/>
     </g>
    </g>
    <g id="line2d_37">
     <path d="M 865.093125 293.354194 
L 881.093125 293.354194 
" style="fill:none;stroke:#91e8e1;stroke-linecap:square;"/>
    </g>
    <g id="line2d_38"/>
    <g id="text_26">
     <!-- S1_vGluT2_2 - Adapter 1 -->
     <g transform="translate(887.493125 296.154194)scale(0.08 -0.08)">
      <use xlink:href="#DejaVuSans-83"/>
      <use x="63.476562" xlink:href="#DejaVuSans-49"/>
      <use x="127.099609" xlink:href="#DejaVuSans-95"/>
      <use x="177.099609" xlink:href="#DejaVuSans-118"/>
      <use x="236.279297" xlink:href="#DejaVuSans-71"/>
      <use x="313.769531" xlink:href="#DejaVuSans-108"/>
      <use x="341.552734" xlink:href="#DejaVuSans-117"/>
      <use x="404.931641" xlink:href="#DejaVuSans-84"/>
      <use x="466.015625" xlink:href="#DejaVuSans-50"/>
      <use x="529.638672" xlink:href="#DejaVuSans-95"/>
      <use x="579.638672" xlink:href="#DejaVuSans-50"/>
      <use x="643.261719" xlink:href="#DejaVuSans-32"/>
      <use x="675.048828" xlink:href="#DejaVuSans-45"/>
      <use x="711.132812" xlink:href="#DejaVuSans-32"/>
      <use x="742.919922" xlink:href="#DejaVuSans-65"/>
      <use x="809.578125" xlink:href="#DejaVuSans-100"/>
      <use x="873.054688" xlink:href="#DejaVuSans-97"/>
      <use x="934.333984" xlink:href="#DejaVuSans-112"/>
      <use x="997.810547" xlink:href="#DejaVuSans-116"/>
      <use x="1037.019531" xlink:href="#DejaVuSans-101"/>
      <use x="1098.542969" xlink:href="#DejaVuSans-114"/>
      <use x="1139.65625" xlink:href="#DejaVuSans-32"/>
      <use x="1171.443359" xlink:href="#DejaVuSans-49"/>
     </g>
    </g>
    <g id="line2d_39">
     <path d="M 865.093125 305.319194 
L 881.093125 305.319194 
" style="fill:none;stroke:#7cb5ec;stroke-linecap:square;"/>
    </g>
    <g id="line2d_40"/>
    <g id="text_27">
     <!-- S1_vGluT2_3 - Adapter 1 -->
     <g transform="translate(887.493125 308.119194)scale(0.08 -0.08)">
      <use xlink:href="#DejaVuSans-83"/>
      <use x="63.476562" xlink:href="#DejaVuSans-49"/>
      <use x="127.099609" xlink:href="#DejaVuSans-95"/>
      <use x="177.099609" xlink:href="#DejaVuSans-118"/>
      <use x="236.279297" xlink:href="#DejaVuSans-71"/>
      <use x="313.769531" xlink:href="#DejaVuSans-108"/>
      <use x="341.552734" xlink:href="#DejaVuSans-117"/>
      <use x="404.931641" xlink:href="#DejaVuSans-84"/>
      <use x="466.015625" xlink:href="#DejaVuSans-50"/>
      <use x="529.638672" xlink:href="#DejaVuSans-95"/>
      <use x="579.638672" xlink:href="#DejaVuSans-51"/>
      <use x="643.261719" xlink:href="#DejaVuSans-32"/>
      <use x="675.048828" xlink:href="#DejaVuSans-45"/>
      <use x="711.132812" xlink:href="#DejaVuSans-32"/>
      <use x="742.919922" xlink:href="#DejaVuSans-65"/>
      <use x="809.578125" xlink:href="#DejaVuSans-100"/>
      <use x="873.054688" xlink:href="#DejaVuSans-97"/>
      <use x="934.333984" xlink:href="#DejaVuSans-112"/>
      <use x="997.810547" xlink:href="#DejaVuSans-116"/>
      <use x="1037.019531" xlink:href="#DejaVuSans-101"/>
      <use x="1098.542969" xlink:href="#DejaVuSans-114"/>
      <use x="1139.65625" xlink:href="#DejaVuSans-32"/>
      <use x="1171.443359" xlink:href="#DejaVuSans-49"/>
     </g>
    </g>
   </g>
  </g>
 </g>
 <defs>
  <clipPath id="pd658ce02a6">
   <rect height="243.9472" width="935.08" x="58.418125" y="31.55486"/>
  </clipPath>
 </defs>
</svg>
