<?xml version="1.0" encoding="utf-8" standalone="no"?>
<!DOCTYPE svg PUBLIC "-//W3C//DTD SVG 1.1//EN"
  "http://www.w3.org/Graphics/SVG/1.1/DTD/svg11.dtd">
<!-- Created with matplotlib (https://matplotlib.org/) -->
<svg height="330.541644pt" version="1.1" viewBox="0 0 1000.318125 330.541644" width="1000.318125pt" xmlns="http://www.w3.org/2000/svg" xmlns:xlink="http://www.w3.org/1999/xlink">
 <defs>
  <style type="text/css">
*{stroke-linecap:butt;stroke-linejoin:round;}
  </style>
 </defs>
 <g id="figure_1">
  <g id="axes_1">
   <g id="patch_1">
    <path d="M 38.058125 273.99006 
L 993.118125 273.99006 
L 993.118125 31.48286 
L 38.058125 31.48286 
z
" style="fill:#ffffff;"/>
   </g>
   <g id="matplotlib.axis_1">
    <g id="xtick_1">
     <g id="text_1">
      <!-- 0 -->
      <defs>
       <path d="M 31.78125 66.40625 
Q 24.171875 66.40625 20.328125 58.90625 
Q 16.5 51.421875 16.5 36.375 
Q 16.5 21.390625 20.328125 13.890625 
Q 24.171875 6.390625 31.78125 6.390625 
Q 39.453125 6.390625 43.28125 13.890625 
Q 47.125 21.390625 47.125 36.375 
Q 47.125 51.421875 43.28125 58.90625 
Q 39.453125 66.40625 31.78125 66.40625 
z
M 31.78125 74.21875 
Q 44.046875 74.21875 50.515625 64.515625 
Q 56.984375 54.828125 56.984375 36.375 
Q 56.984375 17.96875 50.515625 8.265625 
Q 44.046875 -1.421875 31.78125 -1.421875 
Q 19.53125 -1.421875 13.0625 8.265625 
Q 6.59375 17.96875 6.59375 36.375 
Q 6.59375 54.828125 13.0625 64.515625 
Q 19.53125 74.21875 31.78125 74.21875 
z
" id="DejaVuSans-48"/>
      </defs>
      <g transform="translate(76.021143 287.06881)scale(0.08 -0.08)">
       <use xlink:href="#DejaVuSans-48"/>
      </g>
     </g>
    </g>
    <g id="xtick_2">
     <g id="text_2">
      <!-- 50 -->
      <defs>
       <path d="M 10.796875 72.90625 
L 49.515625 72.90625 
L 49.515625 64.59375 
L 19.828125 64.59375 
L 19.828125 46.734375 
Q 21.96875 47.46875 24.109375 47.828125 
Q 26.265625 48.1875 28.421875 48.1875 
Q 40.625 48.1875 47.75 41.5 
Q 54.890625 34.8125 54.890625 23.390625 
Q 54.890625 11.625 47.5625 5.09375 
Q 40.234375 -1.421875 26.90625 -1.421875 
Q 22.3125 -1.421875 17.546875 -0.640625 
Q 12.796875 0.140625 7.71875 1.703125 
L 7.71875 11.625 
Q 12.109375 9.234375 16.796875 8.0625 
Q 21.484375 6.890625 26.703125 6.890625 
Q 35.15625 6.890625 40.078125 11.328125 
Q 45.015625 15.765625 45.015625 23.390625 
Q 45.015625 31 40.078125 35.4375 
Q 35.15625 39.890625 26.703125 39.890625 
Q 22.75 39.890625 18.8125 39.015625 
Q 14.890625 38.140625 10.796875 36.28125 
z
" id="DejaVuSans-53"/>
      </defs>
      <g transform="translate(218.66617 287.06881)scale(0.08 -0.08)">
       <use xlink:href="#DejaVuSans-53"/>
       <use x="63.623047" xlink:href="#DejaVuSans-48"/>
      </g>
     </g>
    </g>
    <g id="xtick_3">
     <g id="text_3">
      <!-- 100 -->
      <defs>
       <path d="M 12.40625 8.296875 
L 28.515625 8.296875 
L 28.515625 63.921875 
L 10.984375 60.40625 
L 10.984375 69.390625 
L 28.421875 72.90625 
L 38.28125 72.90625 
L 38.28125 8.296875 
L 54.390625 8.296875 
L 54.390625 0 
L 12.40625 0 
z
" id="DejaVuSans-49"/>
      </defs>
      <g transform="translate(361.311197 287.06881)scale(0.08 -0.08)">
       <use xlink:href="#DejaVuSans-49"/>
       <use x="63.623047" xlink:href="#DejaVuSans-48"/>
       <use x="127.246094" xlink:href="#DejaVuSans-48"/>
      </g>
     </g>
    </g>
    <g id="xtick_4">
     <g id="text_4">
      <!-- 150 -->
      <g transform="translate(506.501225 287.06881)scale(0.08 -0.08)">
       <use xlink:href="#DejaVuSans-49"/>
       <use x="63.623047" xlink:href="#DejaVuSans-53"/>
       <use x="127.246094" xlink:href="#DejaVuSans-48"/>
      </g>
     </g>
    </g>
    <g id="xtick_5">
     <g id="text_5">
      <!-- 200 -->
      <defs>
       <path d="M 19.1875 8.296875 
L 53.609375 8.296875 
L 53.609375 0 
L 7.328125 0 
L 7.328125 8.296875 
Q 12.9375 14.109375 22.625 23.890625 
Q 32.328125 33.6875 34.8125 36.53125 
Q 39.546875 41.84375 41.421875 45.53125 
Q 43.3125 49.21875 43.3125 52.78125 
Q 43.3125 58.59375 39.234375 62.25 
Q 35.15625 65.921875 28.609375 65.921875 
Q 23.96875 65.921875 18.8125 64.3125 
Q 13.671875 62.703125 7.8125 59.421875 
L 7.8125 69.390625 
Q 13.765625 71.78125 18.9375 73 
Q 24.125 74.21875 28.421875 74.21875 
Q 39.75 74.21875 46.484375 68.546875 
Q 53.21875 62.890625 53.21875 53.421875 
Q 53.21875 48.921875 51.53125 44.890625 
Q 49.859375 40.875 45.40625 35.40625 
Q 44.1875 33.984375 37.640625 27.21875 
Q 31.109375 20.453125 19.1875 8.296875 
z
" id="DejaVuSans-50"/>
      </defs>
      <g transform="translate(651.691252 287.06881)scale(0.08 -0.08)">
       <use xlink:href="#DejaVuSans-50"/>
       <use x="63.623047" xlink:href="#DejaVuSans-48"/>
       <use x="127.246094" xlink:href="#DejaVuSans-48"/>
      </g>
     </g>
    </g>
    <g id="xtick_6">
     <g id="text_6">
      <!-- 250 -->
      <g transform="translate(796.881279 287.06881)scale(0.08 -0.08)">
       <use xlink:href="#DejaVuSans-50"/>
       <use x="63.623047" xlink:href="#DejaVuSans-53"/>
       <use x="127.246094" xlink:href="#DejaVuSans-48"/>
      </g>
     </g>
    </g>
    <g id="xtick_7">
     <g id="text_7">
      <!-- 300 -->
      <defs>
       <path d="M 40.578125 39.3125 
Q 47.65625 37.796875 51.625 33 
Q 55.609375 28.21875 55.609375 21.1875 
Q 55.609375 10.40625 48.1875 4.484375 
Q 40.765625 -1.421875 27.09375 -1.421875 
Q 22.515625 -1.421875 17.65625 -0.515625 
Q 12.796875 0.390625 7.625 2.203125 
L 7.625 11.71875 
Q 11.71875 9.328125 16.59375 8.109375 
Q 21.484375 6.890625 26.8125 6.890625 
Q 36.078125 6.890625 40.9375 10.546875 
Q 45.796875 14.203125 45.796875 21.1875 
Q 45.796875 27.640625 41.28125 31.265625 
Q 36.765625 34.90625 28.71875 34.90625 
L 20.21875 34.90625 
L 20.21875 43.015625 
L 29.109375 43.015625 
Q 36.375 43.015625 40.234375 45.921875 
Q 44.09375 48.828125 44.09375 54.296875 
Q 44.09375 59.90625 40.109375 62.90625 
Q 36.140625 65.921875 28.71875 65.921875 
Q 24.65625 65.921875 20.015625 65.03125 
Q 15.375 64.15625 9.8125 62.3125 
L 9.8125 71.09375 
Q 15.4375 72.65625 20.34375 73.4375 
Q 25.25 74.21875 29.59375 74.21875 
Q 40.828125 74.21875 47.359375 69.109375 
Q 53.90625 64.015625 53.90625 55.328125 
Q 53.90625 49.265625 50.4375 45.09375 
Q 46.96875 40.921875 40.578125 39.3125 
z
" id="DejaVuSans-51"/>
      </defs>
      <g transform="translate(942.071307 287.06881)scale(0.08 -0.08)">
       <use xlink:href="#DejaVuSans-51"/>
       <use x="63.623047" xlink:href="#DejaVuSans-48"/>
       <use x="127.246094" xlink:href="#DejaVuSans-48"/>
      </g>
     </g>
    </g>
    <g id="text_8">
     <!-- Position in read -->
     <defs>
      <path d="M 19.671875 64.796875 
L 19.671875 37.40625 
L 32.078125 37.40625 
Q 38.96875 37.40625 42.71875 40.96875 
Q 46.484375 44.53125 46.484375 51.125 
Q 46.484375 57.671875 42.71875 61.234375 
Q 38.96875 64.796875 32.078125 64.796875 
z
M 9.8125 72.90625 
L 32.078125 72.90625 
Q 44.34375 72.90625 50.609375 67.359375 
Q 56.890625 61.8125 56.890625 51.125 
Q 56.890625 40.328125 50.609375 34.8125 
Q 44.34375 29.296875 32.078125 29.296875 
L 19.671875 29.296875 
L 19.671875 0 
L 9.8125 0 
z
" id="DejaVuSans-80"/>
      <path d="M 30.609375 48.390625 
Q 23.390625 48.390625 19.1875 42.75 
Q 14.984375 37.109375 14.984375 27.296875 
Q 14.984375 17.484375 19.15625 11.84375 
Q 23.34375 6.203125 30.609375 6.203125 
Q 37.796875 6.203125 41.984375 11.859375 
Q 46.1875 17.53125 46.1875 27.296875 
Q 46.1875 37.015625 41.984375 42.703125 
Q 37.796875 48.390625 30.609375 48.390625 
z
M 30.609375 56 
Q 42.328125 56 49.015625 48.375 
Q 55.71875 40.765625 55.71875 27.296875 
Q 55.71875 13.875 49.015625 6.21875 
Q 42.328125 -1.421875 30.609375 -1.421875 
Q 18.84375 -1.421875 12.171875 6.21875 
Q 5.515625 13.875 5.515625 27.296875 
Q 5.515625 40.765625 12.171875 48.375 
Q 18.84375 56 30.609375 56 
z
" id="DejaVuSans-111"/>
      <path d="M 44.28125 53.078125 
L 44.28125 44.578125 
Q 40.484375 46.53125 36.375 47.5 
Q 32.28125 48.484375 27.875 48.484375 
Q 21.1875 48.484375 17.84375 46.4375 
Q 14.5 44.390625 14.5 40.28125 
Q 14.5 37.15625 16.890625 35.375 
Q 19.28125 33.59375 26.515625 31.984375 
L 29.59375 31.296875 
Q 39.15625 29.25 43.1875 25.515625 
Q 47.21875 21.78125 47.21875 15.09375 
Q 47.21875 7.46875 41.1875 3.015625 
Q 35.15625 -1.421875 24.609375 -1.421875 
Q 20.21875 -1.421875 15.453125 -0.5625 
Q 10.6875 0.296875 5.421875 2 
L 5.421875 11.28125 
Q 10.40625 8.6875 15.234375 7.390625 
Q 20.0625 6.109375 24.8125 6.109375 
Q 31.15625 6.109375 34.5625 8.28125 
Q 37.984375 10.453125 37.984375 14.40625 
Q 37.984375 18.0625 35.515625 20.015625 
Q 33.0625 21.96875 24.703125 23.78125 
L 21.578125 24.515625 
Q 13.234375 26.265625 9.515625 29.90625 
Q 5.8125 33.546875 5.8125 39.890625 
Q 5.8125 47.609375 11.28125 51.796875 
Q 16.75 56 26.8125 56 
Q 31.78125 56 36.171875 55.265625 
Q 40.578125 54.546875 44.28125 53.078125 
z
" id="DejaVuSans-115"/>
      <path d="M 9.421875 54.6875 
L 18.40625 54.6875 
L 18.40625 0 
L 9.421875 0 
z
M 9.421875 75.984375 
L 18.40625 75.984375 
L 18.40625 64.59375 
L 9.421875 64.59375 
z
" id="DejaVuSans-105"/>
      <path d="M 18.3125 70.21875 
L 18.3125 54.6875 
L 36.8125 54.6875 
L 36.8125 47.703125 
L 18.3125 47.703125 
L 18.3125 18.015625 
Q 18.3125 11.328125 20.140625 9.421875 
Q 21.96875 7.515625 27.59375 7.515625 
L 36.8125 7.515625 
L 36.8125 0 
L 27.59375 0 
Q 17.1875 0 13.234375 3.875 
Q 9.28125 7.765625 9.28125 18.015625 
L 9.28125 47.703125 
L 2.6875 47.703125 
L 2.6875 54.6875 
L 9.28125 54.6875 
L 9.28125 70.21875 
z
" id="DejaVuSans-116"/>
      <path d="M 54.890625 33.015625 
L 54.890625 0 
L 45.90625 0 
L 45.90625 32.71875 
Q 45.90625 40.484375 42.875 44.328125 
Q 39.84375 48.1875 33.796875 48.1875 
Q 26.515625 48.1875 22.3125 43.546875 
Q 18.109375 38.921875 18.109375 30.90625 
L 18.109375 0 
L 9.078125 0 
L 9.078125 54.6875 
L 18.109375 54.6875 
L 18.109375 46.1875 
Q 21.34375 51.125 25.703125 53.5625 
Q 30.078125 56 35.796875 56 
Q 45.21875 56 50.046875 50.171875 
Q 54.890625 44.34375 54.890625 33.015625 
z
" id="DejaVuSans-110"/>
      <path id="DejaVuSans-32"/>
      <path d="M 41.109375 46.296875 
Q 39.59375 47.171875 37.8125 47.578125 
Q 36.03125 48 33.890625 48 
Q 26.265625 48 22.1875 43.046875 
Q 18.109375 38.09375 18.109375 28.8125 
L 18.109375 0 
L 9.078125 0 
L 9.078125 54.6875 
L 18.109375 54.6875 
L 18.109375 46.1875 
Q 20.953125 51.171875 25.484375 53.578125 
Q 30.03125 56 36.53125 56 
Q 37.453125 56 38.578125 55.875 
Q 39.703125 55.765625 41.0625 55.515625 
z
" id="DejaVuSans-114"/>
      <path d="M 56.203125 29.59375 
L 56.203125 25.203125 
L 14.890625 25.203125 
Q 15.484375 15.921875 20.484375 11.0625 
Q 25.484375 6.203125 34.421875 6.203125 
Q 39.59375 6.203125 44.453125 7.46875 
Q 49.3125 8.734375 54.109375 11.28125 
L 54.109375 2.78125 
Q 49.265625 0.734375 44.1875 -0.34375 
Q 39.109375 -1.421875 33.890625 -1.421875 
Q 20.796875 -1.421875 13.15625 6.1875 
Q 5.515625 13.8125 5.515625 26.8125 
Q 5.515625 40.234375 12.765625 48.109375 
Q 20.015625 56 32.328125 56 
Q 43.359375 56 49.78125 48.890625 
Q 56.203125 41.796875 56.203125 29.59375 
z
M 47.21875 32.234375 
Q 47.125 39.59375 43.09375 43.984375 
Q 39.0625 48.390625 32.421875 48.390625 
Q 24.90625 48.390625 20.390625 44.140625 
Q 15.875 39.890625 15.1875 32.171875 
z
" id="DejaVuSans-101"/>
      <path d="M 34.28125 27.484375 
Q 23.390625 27.484375 19.1875 25 
Q 14.984375 22.515625 14.984375 16.5 
Q 14.984375 11.71875 18.140625 8.90625 
Q 21.296875 6.109375 26.703125 6.109375 
Q 34.1875 6.109375 38.703125 11.40625 
Q 43.21875 16.703125 43.21875 25.484375 
L 43.21875 27.484375 
z
M 52.203125 31.203125 
L 52.203125 0 
L 43.21875 0 
L 43.21875 8.296875 
Q 40.140625 3.328125 35.546875 0.953125 
Q 30.953125 -1.421875 24.3125 -1.421875 
Q 15.921875 -1.421875 10.953125 3.296875 
Q 6 8.015625 6 15.921875 
Q 6 25.140625 12.171875 29.828125 
Q 18.359375 34.515625 30.609375 34.515625 
L 43.21875 34.515625 
L 43.21875 35.40625 
Q 43.21875 41.609375 39.140625 45 
Q 35.0625 48.390625 27.6875 48.390625 
Q 23 48.390625 18.546875 47.265625 
Q 14.109375 46.140625 10.015625 43.890625 
L 10.015625 52.203125 
Q 14.9375 54.109375 19.578125 55.046875 
Q 24.21875 56 28.609375 56 
Q 40.484375 56 46.34375 49.84375 
Q 52.203125 43.703125 52.203125 31.203125 
z
" id="DejaVuSans-97"/>
      <path d="M 45.40625 46.390625 
L 45.40625 75.984375 
L 54.390625 75.984375 
L 54.390625 0 
L 45.40625 0 
L 45.40625 8.203125 
Q 42.578125 3.328125 38.25 0.953125 
Q 33.9375 -1.421875 27.875 -1.421875 
Q 17.96875 -1.421875 11.734375 6.484375 
Q 5.515625 14.40625 5.515625 27.296875 
Q 5.515625 40.1875 11.734375 48.09375 
Q 17.96875 56 27.875 56 
Q 33.9375 56 38.25 53.625 
Q 42.578125 51.265625 45.40625 46.390625 
z
M 14.796875 27.296875 
Q 14.796875 17.390625 18.875 11.75 
Q 22.953125 6.109375 30.078125 6.109375 
Q 37.203125 6.109375 41.296875 11.75 
Q 45.40625 17.390625 45.40625 27.296875 
Q 45.40625 37.203125 41.296875 42.84375 
Q 37.203125 48.484375 30.078125 48.484375 
Q 22.953125 48.484375 18.875 42.84375 
Q 14.796875 37.203125 14.796875 27.296875 
z
" id="DejaVuSans-100"/>
     </defs>
     <g transform="translate(476.840469 300.330997)scale(0.1 -0.1)">
      <use xlink:href="#DejaVuSans-80"/>
      <use x="60.255859" xlink:href="#DejaVuSans-111"/>
      <use x="121.4375" xlink:href="#DejaVuSans-115"/>
      <use x="173.537109" xlink:href="#DejaVuSans-105"/>
      <use x="201.320312" xlink:href="#DejaVuSans-116"/>
      <use x="240.529297" xlink:href="#DejaVuSans-105"/>
      <use x="268.3125" xlink:href="#DejaVuSans-111"/>
      <use x="329.494141" xlink:href="#DejaVuSans-110"/>
      <use x="392.873047" xlink:href="#DejaVuSans-32"/>
      <use x="424.660156" xlink:href="#DejaVuSans-105"/>
      <use x="452.443359" xlink:href="#DejaVuSans-110"/>
      <use x="515.822266" xlink:href="#DejaVuSans-32"/>
      <use x="547.609375" xlink:href="#DejaVuSans-114"/>
      <use x="588.691406" xlink:href="#DejaVuSans-101"/>
      <use x="650.214844" xlink:href="#DejaVuSans-97"/>
      <use x="711.494141" xlink:href="#DejaVuSans-100"/>
     </g>
    </g>
   </g>
   <g id="matplotlib.axis_2">
    <g id="ytick_1">
     <g id="line2d_1">
      <path clip-path="url(#peeb2c7ef70)" d="M 38.058125 273.99006 
L 993.118125 273.99006 
" style="fill:none;stroke:#dedede;stroke-linecap:square;"/>
     </g>
     <g id="text_9">
      <!-- 0 -->
      <g transform="translate(25.968125 277.029435)scale(0.08 -0.08)">
       <use xlink:href="#DejaVuSans-48"/>
      </g>
     </g>
    </g>
    <g id="ytick_2">
     <g id="line2d_2">
      <path clip-path="url(#peeb2c7ef70)" d="M 38.058125 230.107805 
L 993.118125 230.107805 
" style="fill:none;stroke:#dedede;stroke-linecap:square;"/>
     </g>
     <g id="text_10">
      <!-- 5 -->
      <g transform="translate(25.968125 233.14718)scale(0.08 -0.08)">
       <use xlink:href="#DejaVuSans-53"/>
      </g>
     </g>
    </g>
    <g id="ytick_3">
     <g id="line2d_3">
      <path clip-path="url(#peeb2c7ef70)" d="M 38.058125 186.22555 
L 993.118125 186.22555 
" style="fill:none;stroke:#dedede;stroke-linecap:square;"/>
     </g>
     <g id="text_11">
      <!-- 10 -->
      <g transform="translate(20.878125 189.264925)scale(0.08 -0.08)">
       <use xlink:href="#DejaVuSans-49"/>
       <use x="63.623047" xlink:href="#DejaVuSans-48"/>
      </g>
     </g>
    </g>
    <g id="ytick_4">
     <g id="line2d_4">
      <path clip-path="url(#peeb2c7ef70)" d="M 38.058125 142.343294 
L 993.118125 142.343294 
" style="fill:none;stroke:#dedede;stroke-linecap:square;"/>
     </g>
     <g id="text_12">
      <!-- 15 -->
      <g transform="translate(20.878125 145.382669)scale(0.08 -0.08)">
       <use xlink:href="#DejaVuSans-49"/>
       <use x="63.623047" xlink:href="#DejaVuSans-53"/>
      </g>
     </g>
    </g>
    <g id="ytick_5">
     <g id="line2d_5">
      <path clip-path="url(#peeb2c7ef70)" d="M 38.058125 98.461039 
L 993.118125 98.461039 
" style="fill:none;stroke:#dedede;stroke-linecap:square;"/>
     </g>
     <g id="text_13">
      <!-- 20 -->
      <g transform="translate(20.878125 101.500414)scale(0.08 -0.08)">
       <use xlink:href="#DejaVuSans-50"/>
       <use x="63.623047" xlink:href="#DejaVuSans-48"/>
      </g>
     </g>
    </g>
    <g id="ytick_6">
     <g id="line2d_6">
      <path clip-path="url(#peeb2c7ef70)" d="M 38.058125 54.578784 
L 993.118125 54.578784 
" style="fill:none;stroke:#dedede;stroke-linecap:square;"/>
     </g>
     <g id="text_14">
      <!-- 25 -->
      <g transform="translate(20.878125 57.618159)scale(0.08 -0.08)">
       <use xlink:href="#DejaVuSans-50"/>
       <use x="63.623047" xlink:href="#DejaVuSans-53"/>
      </g>
     </g>
    </g>
    <g id="text_15">
     <!-- Percent mismatches % -->
     <defs>
      <path d="M 48.78125 52.59375 
L 48.78125 44.1875 
Q 44.96875 46.296875 41.140625 47.34375 
Q 37.3125 48.390625 33.40625 48.390625 
Q 24.65625 48.390625 19.8125 42.84375 
Q 14.984375 37.3125 14.984375 27.296875 
Q 14.984375 17.28125 19.8125 11.734375 
Q 24.65625 6.203125 33.40625 6.203125 
Q 37.3125 6.203125 41.140625 7.25 
Q 44.96875 8.296875 48.78125 10.40625 
L 48.78125 2.09375 
Q 45.015625 0.34375 40.984375 -0.53125 
Q 36.96875 -1.421875 32.421875 -1.421875 
Q 20.0625 -1.421875 12.78125 6.34375 
Q 5.515625 14.109375 5.515625 27.296875 
Q 5.515625 40.671875 12.859375 48.328125 
Q 20.21875 56 33.015625 56 
Q 37.15625 56 41.109375 55.140625 
Q 45.0625 54.296875 48.78125 52.59375 
z
" id="DejaVuSans-99"/>
      <path d="M 52 44.1875 
Q 55.375 50.25 60.0625 53.125 
Q 64.75 56 71.09375 56 
Q 79.640625 56 84.28125 50.015625 
Q 88.921875 44.046875 88.921875 33.015625 
L 88.921875 0 
L 79.890625 0 
L 79.890625 32.71875 
Q 79.890625 40.578125 77.09375 44.375 
Q 74.3125 48.1875 68.609375 48.1875 
Q 61.625 48.1875 57.5625 43.546875 
Q 53.515625 38.921875 53.515625 30.90625 
L 53.515625 0 
L 44.484375 0 
L 44.484375 32.71875 
Q 44.484375 40.625 41.703125 44.40625 
Q 38.921875 48.1875 33.109375 48.1875 
Q 26.21875 48.1875 22.15625 43.53125 
Q 18.109375 38.875 18.109375 30.90625 
L 18.109375 0 
L 9.078125 0 
L 9.078125 54.6875 
L 18.109375 54.6875 
L 18.109375 46.1875 
Q 21.1875 51.21875 25.484375 53.609375 
Q 29.78125 56 35.6875 56 
Q 41.65625 56 45.828125 52.96875 
Q 50 49.953125 52 44.1875 
z
" id="DejaVuSans-109"/>
      <path d="M 54.890625 33.015625 
L 54.890625 0 
L 45.90625 0 
L 45.90625 32.71875 
Q 45.90625 40.484375 42.875 44.328125 
Q 39.84375 48.1875 33.796875 48.1875 
Q 26.515625 48.1875 22.3125 43.546875 
Q 18.109375 38.921875 18.109375 30.90625 
L 18.109375 0 
L 9.078125 0 
L 9.078125 75.984375 
L 18.109375 75.984375 
L 18.109375 46.1875 
Q 21.34375 51.125 25.703125 53.5625 
Q 30.078125 56 35.796875 56 
Q 45.21875 56 50.046875 50.171875 
Q 54.890625 44.34375 54.890625 33.015625 
z
" id="DejaVuSans-104"/>
      <path d="M 72.703125 32.078125 
Q 68.453125 32.078125 66.03125 28.46875 
Q 63.625 24.859375 63.625 18.40625 
Q 63.625 12.0625 66.03125 8.421875 
Q 68.453125 4.78125 72.703125 4.78125 
Q 76.859375 4.78125 79.265625 8.421875 
Q 81.6875 12.0625 81.6875 18.40625 
Q 81.6875 24.8125 79.265625 28.4375 
Q 76.859375 32.078125 72.703125 32.078125 
z
M 72.703125 38.28125 
Q 80.421875 38.28125 84.953125 32.90625 
Q 89.5 27.546875 89.5 18.40625 
Q 89.5 9.28125 84.9375 3.921875 
Q 80.375 -1.421875 72.703125 -1.421875 
Q 64.890625 -1.421875 60.34375 3.921875 
Q 55.8125 9.28125 55.8125 18.40625 
Q 55.8125 27.59375 60.375 32.9375 
Q 64.9375 38.28125 72.703125 38.28125 
z
M 22.3125 68.015625 
Q 18.109375 68.015625 15.6875 64.375 
Q 13.28125 60.75 13.28125 54.390625 
Q 13.28125 47.953125 15.671875 44.328125 
Q 18.0625 40.71875 22.3125 40.71875 
Q 26.5625 40.71875 28.96875 44.328125 
Q 31.390625 47.953125 31.390625 54.390625 
Q 31.390625 60.6875 28.953125 64.34375 
Q 26.515625 68.015625 22.3125 68.015625 
z
M 66.40625 74.21875 
L 74.21875 74.21875 
L 28.609375 -1.421875 
L 20.796875 -1.421875 
z
M 22.3125 74.21875 
Q 30.03125 74.21875 34.609375 68.875 
Q 39.203125 63.53125 39.203125 54.390625 
Q 39.203125 45.171875 34.640625 39.84375 
Q 30.078125 34.515625 22.3125 34.515625 
Q 14.546875 34.515625 10.03125 39.859375 
Q 5.515625 45.21875 5.515625 54.390625 
Q 5.515625 63.484375 10.046875 68.84375 
Q 14.59375 74.21875 22.3125 74.21875 
z
" id="DejaVuSans-37"/>
     </defs>
     <g transform="translate(14.798438 210.120835)rotate(-90)scale(0.1 -0.1)">
      <use xlink:href="#DejaVuSans-80"/>
      <use x="60.255859" xlink:href="#DejaVuSans-101"/>
      <use x="121.779297" xlink:href="#DejaVuSans-114"/>
      <use x="162.861328" xlink:href="#DejaVuSans-99"/>
      <use x="217.841797" xlink:href="#DejaVuSans-101"/>
      <use x="279.365234" xlink:href="#DejaVuSans-110"/>
      <use x="342.744141" xlink:href="#DejaVuSans-116"/>
      <use x="381.953125" xlink:href="#DejaVuSans-32"/>
      <use x="413.740234" xlink:href="#DejaVuSans-109"/>
      <use x="511.152344" xlink:href="#DejaVuSans-105"/>
      <use x="538.935547" xlink:href="#DejaVuSans-115"/>
      <use x="591.035156" xlink:href="#DejaVuSans-109"/>
      <use x="688.447266" xlink:href="#DejaVuSans-97"/>
      <use x="749.726562" xlink:href="#DejaVuSans-116"/>
      <use x="788.935547" xlink:href="#DejaVuSans-99"/>
      <use x="843.916016" xlink:href="#DejaVuSans-104"/>
      <use x="907.294922" xlink:href="#DejaVuSans-101"/>
      <use x="968.818359" xlink:href="#DejaVuSans-115"/>
      <use x="1020.917969" xlink:href="#DejaVuSans-32"/>
      <use x="1052.705078" xlink:href="#DejaVuSans-37"/>
     </g>
    </g>
   </g>
   <g id="line2d_7">
    <path clip-path="url(#peeb2c7ef70)" d="M 81.469943 176.666396 
L 84.373744 189.285084 
L 87.277544 199.803242 
L 90.181345 209.850882 
L 93.085145 216.368339 
L 95.988946 221.608675 
L 101.796547 234.869802 
L 104.700348 243.30682 
L 107.604148 248.211071 
L 110.507949 253.835319 
L 113.411749 258.892101 
L 116.31555 263.537826 
L 119.21935 267.189515 
L 125.026951 272.852543 
L 127.930752 272.884858 
L 130.834552 272.690963 
L 136.642154 272.896492 
L 139.545954 272.658648 
L 142.449755 271.499155 
L 145.353555 272.485435 
L 148.257356 270.116038 
L 151.161156 272.908126 
L 154.064957 273.069705 
L 159.872558 272.85125 
L 165.680159 273.01541 
L 168.58396 272.756871 
L 171.48776 272.800809 
L 180.199162 273.418699 
L 183.102962 273.067054 
L 186.006763 273.172966 
L 191.814364 273.009262 
L 197.621965 272.168275 
L 203.429566 272.108396 
L 209.237167 271.794702 
L 212.140968 272.040418 
L 215.044768 272.027761 
L 217.948569 271.640412 
L 220.852369 272.11251 
L 223.75617 271.811076 
L 226.659971 271.946272 
L 229.563771 271.583186 
L 232.467572 270.460719 
L 235.371372 271.543186 
L 238.275173 269.125232 
L 241.178973 271.721359 
L 246.986574 271.490424 
L 249.890375 271.7881 
L 252.794175 271.211934 
L 255.697976 271.25304 
L 258.601777 271.508126 
L 261.505577 270.763438 
L 264.409378 271.033671 
L 267.313178 270.850363 
L 270.216979 271.331147 
L 273.120779 271.581801 
L 276.02458 271.669767 
L 278.92838 271.60401 
L 281.832181 271.220533 
L 284.735981 271.309662 
L 287.639782 272.095577 
L 290.543583 271.662525 
L 293.447383 271.74023 
L 296.351184 270.751791 
L 299.254984 270.560976 
L 302.158785 271.460487 
L 305.062585 271.385347 
L 307.966386 271.635399 
L 310.870186 271.42054 
L 313.773987 271.512215 
L 316.677788 271.30899 
L 319.581588 270.775669 
L 322.485389 271.068437 
L 325.389189 271.111562 
L 328.29299 270.643624 
L 331.19679 269.88294 
L 339.908192 271.06711 
L 342.811992 270.70124 
L 348.619594 271.521793 
L 351.523394 270.089415 
L 354.427195 269.634793 
L 357.330995 269.591839 
L 360.234796 269.190801 
L 363.138596 268.922198 
L 366.042397 271.060391 
L 368.946197 269.594509 
L 371.849998 267.209463 
L 374.753798 269.739963 
L 377.657599 264.946612 
L 380.5614 269.310673 
L 383.4652 266.39688 
L 386.369001 263.999354 
L 389.272801 260.792389 
L 392.176602 269.407057 
L 395.080402 273.99006 
L 397.984203 269.305122 
L 400.888003 272.238273 
L 403.791804 270.045588 
L 406.695604 269.601834 
L 409.599405 266.614891 
L 412.503206 271.338564 
L 415.407006 268.119524 
L 418.310807 267.464818 
L 421.214607 263.287071 
L 424.118408 273.99006 
L 427.022208 265.169506 
L 429.926009 253.579709 
L 432.829809 273.99006 
L 441.541211 273.99006 
L 444.445012 264.553016 
L 447.348812 273.99006 
L 450.252613 261.800545 
L 453.156413 260.059185 
L 456.060214 273.99006 
L 464.771615 273.99006 
L 467.675416 227.798212 
L 470.579217 243.726436 
L 473.483017 211.301124 
L 476.386818 203.778452 
L 479.290618 176.473937 
L 482.194419 114.418223 
L 485.098219 273.99006 
L 949.706307 273.99006 
L 949.706307 273.99006 
" style="fill:none;stroke:#7cb5ec;stroke-linecap:square;"/>
   </g>
   <g id="line2d_8">
    <path clip-path="url(#peeb2c7ef70)" d="M 81.469943 178.133228 
L 84.373744 191.287401 
L 90.181345 208.188875 
L 93.085145 214.053462 
L 95.988946 220.875989 
L 98.892746 227.271161 
L 104.700348 241.579627 
L 110.507949 253.419249 
L 113.411749 258.759026 
L 116.31555 263.329997 
L 119.21935 266.992837 
L 122.123151 270.179955 
L 125.026951 273.02851 
L 130.834552 272.860311 
L 136.642154 273.022013 
L 139.545954 272.713769 
L 142.449755 271.757994 
L 145.353555 272.59177 
L 148.257356 269.87532 
L 151.161156 272.876193 
L 154.064957 272.980866 
L 159.872558 272.705828 
L 162.776359 273.092035 
L 165.680159 273.061712 
L 168.58396 272.750575 
L 180.199162 273.180806 
L 186.006763 273.039883 
L 188.910563 273.08788 
L 197.621965 272.063588 
L 203.429566 272.222743 
L 206.333367 272.052451 
L 212.140968 272.023657 
L 215.044768 271.787747 
L 217.948569 271.707454 
L 220.852369 271.946497 
L 223.75617 271.934386 
L 226.659971 272.081464 
L 229.563771 271.970453 
L 232.467572 270.854307 
L 235.371372 271.663354 
L 238.275173 268.477663 
L 241.178973 271.846822 
L 244.082774 271.963229 
L 246.986574 271.818892 
L 249.890375 271.829356 
L 252.794175 271.607576 
L 255.697976 271.524066 
L 258.601777 271.762201 
L 261.505577 270.801784 
L 264.409378 271.444721 
L 267.313178 271.618633 
L 270.216979 271.20777 
L 273.120779 271.124519 
L 278.92838 271.86819 
L 281.832181 271.304887 
L 284.735981 271.43659 
L 287.639782 271.731361 
L 290.543583 271.316173 
L 293.447383 271.462866 
L 296.351184 271.155352 
L 299.254984 270.360103 
L 302.158785 270.813552 
L 305.062585 271.030238 
L 307.966386 271.647712 
L 313.773987 270.930475 
L 316.677788 271.024191 
L 319.581588 269.972913 
L 322.485389 269.932467 
L 325.389189 271.006222 
L 328.29299 270.370461 
L 331.19679 270.299844 
L 334.100591 270.793236 
L 337.004391 269.164888 
L 339.908192 270.469499 
L 342.811992 270.500651 
L 345.715793 270.172259 
L 348.619594 271.221463 
L 351.523394 271.152654 
L 357.330995 269.60145 
L 360.234796 269.150914 
L 363.138596 268.254487 
L 366.042397 268.405262 
L 368.946197 267.022411 
L 371.849998 267.837565 
L 374.753798 266.370569 
L 377.657599 268.432285 
L 380.5614 265.579053 
L 383.4652 267.48363 
L 386.369001 268.646711 
L 389.272801 265.96771 
L 392.176602 266.263177 
L 395.080402 268.657147 
L 397.984203 266.75175 
L 400.888003 267.750877 
L 403.791804 270.422397 
L 406.695604 260.672228 
L 409.599405 271.025043 
L 412.503206 272.299029 
L 415.407006 272.130642 
L 418.310807 263.541904 
L 421.214607 271.618046 
L 424.118408 273.99006 
L 427.022208 261.88461 
L 429.926009 273.99006 
L 432.829809 273.99006 
L 435.73361 264.847923 
L 438.63741 258.410561 
L 441.541211 268.060026 
L 444.445012 266.854734 
L 447.348812 257.737373 
L 450.252613 273.99006 
L 467.675416 273.99006 
L 470.579217 212.759006 
L 473.483017 248.176969 
L 476.386818 160.74553 
L 479.290618 168.672647 
L 482.194419 43.030822 
L 485.098219 273.99006 
L 949.706307 273.99006 
L 949.706307 273.99006 
" style="fill:none;stroke:#434348;stroke-linecap:square;"/>
   </g>
   <g id="line2d_9">
    <path clip-path="url(#peeb2c7ef70)" d="M 81.469943 176.498427 
L 84.373744 187.662561 
L 87.277544 198.170525 
L 90.181345 204.789424 
L 95.988946 219.704659 
L 101.796547 233.083785 
L 104.700348 239.648845 
L 107.604148 246.81371 
L 113.411749 258.105713 
L 116.31555 262.405305 
L 119.21935 267.096075 
L 122.123151 270.228863 
L 125.026951 273.05628 
L 127.930752 272.822415 
L 130.834552 272.978045 
L 133.738353 272.980569 
L 136.642154 272.770258 
L 139.545954 272.848493 
L 142.449755 271.948364 
L 145.353555 272.677721 
L 148.257356 269.634946 
L 151.161156 272.876254 
L 154.064957 273.086565 
L 159.872558 272.838399 
L 162.776359 273.139563 
L 165.680159 273.127784 
L 168.58396 272.817354 
L 174.391561 272.939327 
L 177.295361 273.175717 
L 180.199162 272.994 
L 186.006763 273.209238 
L 188.910563 273.155022 
L 197.621965 272.129557 
L 203.429566 272.255352 
L 206.333367 271.969475 
L 209.237167 272.190829 
L 215.044768 271.822399 
L 217.948569 271.624925 
L 220.852369 272.170225 
L 223.75617 272.069908 
L 229.563771 271.542316 
L 232.467572 270.916116 
L 235.371372 271.456938 
L 238.275173 268.076637 
L 241.178973 271.711956 
L 246.986574 271.999584 
L 252.794175 271.630663 
L 255.697976 271.611795 
L 261.505577 270.943831 
L 264.409378 271.298951 
L 267.313178 271.980103 
L 270.216979 271.48635 
L 273.120779 271.251286 
L 276.02458 271.450502 
L 278.92838 271.040743 
L 281.832181 271.225155 
L 284.735981 271.28314 
L 287.639782 270.8753 
L 290.543583 271.250993 
L 296.351184 271.380006 
L 299.254984 270.762452 
L 302.158785 271.316957 
L 307.966386 271.577891 
L 310.870186 271.025398 
L 313.773987 271.58401 
L 319.581588 270.674444 
L 322.485389 271.445272 
L 328.29299 270.497548 
L 331.19679 270.313334 
L 334.100591 269.99992 
L 337.004391 269.907825 
L 339.908192 270.733643 
L 342.811992 270.149367 
L 345.715793 270.343261 
L 348.619594 270.83862 
L 351.523394 270.003353 
L 354.427195 270.551204 
L 357.330995 269.204952 
L 360.234796 270.068597 
L 363.138596 270.812489 
L 366.042397 269.134689 
L 368.946197 268.089341 
L 371.849998 270.275597 
L 374.753798 268.287846 
L 377.657599 267.053346 
L 380.5614 266.367832 
L 383.4652 265.057285 
L 386.369001 265.438098 
L 389.272801 266.330612 
L 392.176602 269.342337 
L 395.080402 266.668724 
L 397.984203 270.848132 
L 400.888003 262.911791 
L 403.791804 272.510051 
L 409.599405 272.153982 
L 412.503206 269.964165 
L 415.407006 264.895292 
L 418.310807 266.38042 
L 421.214607 271.064576 
L 424.118408 267.366323 
L 427.022208 270.436841 
L 429.926009 270.000764 
L 432.829809 269.442676 
L 435.73361 263.95983 
L 438.63741 262.517575 
L 441.541211 273.99006 
L 444.445012 273.99006 
L 447.348812 266.153943 
L 450.252613 273.99006 
L 453.156413 253.339587 
L 456.060214 273.99006 
L 458.964014 245.678928 
L 461.867815 273.99006 
L 470.579217 273.99006 
L 473.483017 243.726436 
L 476.386818 273.99006 
L 479.290618 225.231999 
L 482.194419 273.99006 
L 949.706307 273.99006 
L 949.706307 273.99006 
" style="fill:none;stroke:#90ed7d;stroke-linecap:square;"/>
   </g>
   <g id="line2d_10">
    <path clip-path="url(#peeb2c7ef70)" d="M 81.469943 176.796663 
L 84.373744 187.561086 
L 87.277544 199.851453 
L 90.181345 207.540848 
L 93.085145 216.84509 
L 95.988946 222.147533 
L 98.892746 228.754275 
L 104.700348 243.432812 
L 107.604148 248.096502 
L 113.411749 258.904767 
L 116.31555 263.443629 
L 119.21935 267.243876 
L 122.123151 269.993133 
L 125.026951 272.93359 
L 130.834552 273.009096 
L 133.738353 272.828248 
L 136.642154 272.895228 
L 139.545954 272.795975 
L 142.449755 271.695663 
L 145.353555 272.744217 
L 148.257356 269.468247 
L 151.161156 272.661405 
L 154.064957 273.015185 
L 156.968757 272.773445 
L 159.872558 272.795975 
L 162.776359 273.077903 
L 165.680159 272.963424 
L 168.58396 272.668707 
L 171.48776 272.967676 
L 174.391561 272.914088 
L 177.295361 273.133296 
L 188.910563 273.12067 
L 197.621965 272.350489 
L 206.333367 272.225317 
L 209.237167 272.072596 
L 215.044768 272.144682 
L 217.948569 271.803497 
L 220.852369 272.309162 
L 223.75617 272.036233 
L 226.659971 272.05021 
L 229.563771 271.888203 
L 232.467572 270.710795 
L 235.371372 271.619066 
L 238.275173 268.354536 
L 241.178973 271.738572 
L 244.082774 271.896002 
L 249.890375 271.884407 
L 252.794175 271.687318 
L 255.697976 271.642347 
L 261.505577 271.156829 
L 264.409378 271.270292 
L 267.313178 271.779593 
L 270.216979 271.365539 
L 273.120779 271.379812 
L 276.02458 271.091811 
L 278.92838 271.59617 
L 281.832181 271.245868 
L 284.735981 271.89719 
L 287.639782 271.507883 
L 290.543583 271.509481 
L 293.447383 271.718928 
L 296.351184 271.597784 
L 299.254984 270.926848 
L 302.158785 271.608301 
L 305.062585 271.611939 
L 307.966386 271.372734 
L 310.870186 271.435691 
L 313.773987 270.84496 
L 316.677788 271.204289 
L 319.581588 270.697503 
L 322.485389 270.635816 
L 325.389189 270.7186 
L 328.29299 270.160644 
L 331.19679 270.208282 
L 334.100591 269.453557 
L 339.908192 270.976613 
L 342.811992 269.724912 
L 345.715793 270.175423 
L 348.619594 269.91203 
L 351.523394 270.173035 
L 354.427195 270.109108 
L 357.330995 270.367946 
L 360.234796 269.055571 
L 363.138596 269.401466 
L 366.042397 270.281206 
L 368.946197 269.916381 
L 371.849998 269.678148 
L 374.753798 268.103117 
L 377.657599 269.782843 
L 380.5614 267.985244 
L 383.4652 268.489398 
L 386.369001 270.473149 
L 389.272801 269.573442 
L 392.176602 267.679698 
L 395.080402 269.212135 
L 397.984203 271.552157 
L 400.888003 269.279979 
L 403.791804 271.290998 
L 406.695604 269.413695 
L 409.599405 268.907173 
L 412.503206 268.992792 
L 415.407006 267.706205 
L 418.310807 269.382999 
L 421.214607 269.687878 
L 424.118408 273.054404 
L 427.022208 268.839561 
L 429.926009 271.668248 
L 432.829809 270.106675 
L 435.73361 271.13593 
L 438.63741 267.630313 
L 441.541211 268.583622 
L 444.445012 273.99006 
L 447.348812 271.768174 
L 450.252613 269.05947 
L 453.156413 271.289614 
L 456.060214 267.852682 
L 458.964014 267.024623 
L 461.867815 273.99006 
L 464.771615 264.553016 
L 467.675416 240.661765 
L 470.579217 224.194593 
L 473.483017 216.907452 
L 476.386818 205.15515 
L 479.290618 204.702289 
L 482.194419 229.364038 
L 485.098219 200.852968 
L 488.00202 273.99006 
L 949.706307 273.99006 
L 949.706307 273.99006 
" style="fill:none;stroke:#f7a35c;stroke-linecap:square;"/>
   </g>
   <g id="line2d_11">
    <path clip-path="url(#peeb2c7ef70)" d="M 81.469943 178.117841 
L 84.373744 191.058797 
L 87.277544 201.08274 
L 90.181345 208.849437 
L 93.085145 214.477546 
L 95.988946 221.945062 
L 98.892746 227.42635 
L 101.796547 235.402659 
L 104.700348 243.045159 
L 107.604148 247.955326 
L 113.411749 258.796014 
L 116.31555 263.125364 
L 119.21935 266.669825 
L 122.123151 270.01945 
L 125.026951 272.977093 
L 130.834552 272.827964 
L 136.642154 272.706537 
L 139.545954 272.544481 
L 142.449755 271.525512 
L 145.353555 272.46276 
L 148.257356 269.162537 
L 151.161156 272.857975 
L 154.064957 273.032497 
L 156.968757 272.791952 
L 159.872558 272.83489 
L 162.776359 273.084207 
L 165.680159 273.081895 
L 168.58396 272.739772 
L 174.391561 273.006165 
L 177.295361 273.196383 
L 188.910563 273.224162 
L 194.718165 272.441111 
L 200.525766 272.186403 
L 203.429566 272.462866 
L 206.333367 272.062695 
L 209.237167 272.201418 
L 212.140968 272.116629 
L 215.044768 272.194598 
L 220.852369 272.032609 
L 223.75617 272.154191 
L 229.563771 271.787766 
L 232.467572 270.828337 
L 235.371372 271.464447 
L 238.275173 267.892986 
L 241.178973 271.742261 
L 244.082774 272.076199 
L 255.697976 271.715724 
L 258.601777 271.699062 
L 261.505577 270.923092 
L 267.313178 271.452236 
L 273.120779 271.71291 
L 276.02458 271.75177 
L 281.832181 271.384494 
L 284.735981 271.748201 
L 287.639782 271.515118 
L 290.543583 271.493254 
L 296.351184 271.69641 
L 302.158785 271.373885 
L 305.062585 271.324958 
L 307.966386 271.751835 
L 310.870186 271.851792 
L 313.773987 271.372668 
L 316.677788 271.305898 
L 325.389189 270.336131 
L 328.29299 271.100752 
L 331.19679 270.051106 
L 339.908192 271.112535 
L 342.811992 270.684766 
L 345.715793 270.396593 
L 348.619594 270.84401 
L 351.523394 270.666351 
L 354.427195 270.795195 
L 357.330995 271.097591 
L 360.234796 270.402819 
L 363.138596 269.988986 
L 366.042397 270.274929 
L 368.946197 269.902591 
L 371.849998 270.946825 
L 374.753798 269.008696 
L 377.657599 269.391493 
L 380.5614 268.588226 
L 383.4652 268.668749 
L 386.369001 267.844296 
L 389.272801 269.153069 
L 392.176602 267.029645 
L 395.080402 270.690642 
L 397.984203 271.324246 
L 400.888003 271.271841 
L 403.791804 272.452355 
L 406.695604 271.397312 
L 409.599405 272.54498 
L 412.503206 267.468858 
L 415.407006 267.982907 
L 418.310807 269.271538 
L 421.214607 269.426914 
L 424.118408 270.601469 
L 427.022208 271.146717 
L 429.926009 271.877797 
L 432.829809 270.511942 
L 435.73361 271.397312 
L 438.63741 262.442098 
L 441.541211 270.64665 
L 444.445012 264.7322 
L 447.348812 265.749261 
L 450.252613 273.99006 
L 453.156413 271.475318 
L 456.060214 268.452867 
L 458.964014 267.937335 
L 461.867815 260.059185 
L 464.771615 265.975036 
L 467.675416 264.70281 
L 470.579217 242.645592 
L 473.483017 223.356689 
L 476.386818 234.097101 
L 479.290618 233.73111 
L 482.194419 222.363877 
L 485.098219 273.99006 
L 949.706307 273.99006 
L 949.706307 273.99006 
" style="fill:none;stroke:#8085e9;stroke-linecap:square;"/>
   </g>
   <g id="line2d_12">
    <path clip-path="url(#peeb2c7ef70)" d="M 81.469943 172.161553 
L 84.373744 189.232726 
L 87.277544 199.211611 
L 90.181345 205.988654 
L 93.085145 211.777831 
L 95.988946 219.265264 
L 98.892746 225.57307 
L 101.796547 232.414033 
L 104.700348 241.066565 
L 107.604148 248.019389 
L 110.507949 253.685083 
L 116.31555 264.201484 
L 119.21935 267.246431 
L 122.123151 270.539797 
L 125.026951 272.970235 
L 127.930752 273.102435 
L 130.834552 272.923747 
L 133.738353 273.103887 
L 136.642154 273.028345 
L 139.545954 272.503831 
L 142.449755 272.297467 
L 145.353555 272.99336 
L 148.257356 271.48958 
L 151.161156 273.054373 
L 154.064957 273.308633 
L 156.968757 273.118289 
L 177.295361 273.154408 
L 180.199162 273.414525 
L 183.102962 273.250216 
L 188.910563 273.321901 
L 194.718165 272.636947 
L 197.621965 272.6373 
L 200.525766 272.826123 
L 206.333367 272.469518 
L 209.237167 272.70974 
L 215.044768 272.456318 
L 220.852369 272.347014 
L 223.75617 272.400413 
L 226.659971 272.116199 
L 229.563771 272.432666 
L 232.467572 272.041564 
L 235.371372 272.336884 
L 238.275173 270.541623 
L 241.178973 272.252275 
L 244.082774 272.794259 
L 246.986574 272.42164 
L 249.890375 271.919208 
L 252.794175 272.35756 
L 255.697976 272.037613 
L 258.601777 272.025081 
L 261.505577 271.720378 
L 264.409378 271.924742 
L 267.313178 272.433985 
L 276.02458 271.936324 
L 278.92838 271.965196 
L 281.832181 271.728789 
L 284.735981 272.140967 
L 287.639782 272.081257 
L 290.543583 272.42817 
L 293.447383 271.369151 
L 296.351184 272.483398 
L 299.254984 271.830307 
L 302.158785 271.982 
L 305.062585 271.957611 
L 307.966386 271.547058 
L 310.870186 271.851054 
L 313.773987 271.428158 
L 316.677788 272.28558 
L 319.581588 271.59895 
L 322.485389 271.108234 
L 325.389189 271.9165 
L 328.29299 271.982783 
L 331.19679 271.047594 
L 334.100591 271.691838 
L 337.004391 272.221643 
L 339.908192 271.530823 
L 342.811992 271.245704 
L 345.715793 271.128837 
L 348.619594 271.298868 
L 351.523394 270.243252 
L 354.427195 271.000806 
L 357.330995 270.028623 
L 360.234796 271.965698 
L 363.138596 271.510028 
L 366.042397 271.709898 
L 368.946197 270.743223 
L 371.849998 270.503306 
L 374.753798 270.728077 
L 377.657599 269.051377 
L 380.5614 266.291419 
L 383.4652 268.474134 
L 386.369001 271.728088 
L 389.272801 269.899534 
L 392.176602 270.230258 
L 395.080402 267.761209 
L 397.984203 272.524876 
L 400.888003 269.865788 
L 403.791804 273.99006 
L 406.695604 267.895302 
L 409.599405 271.733903 
L 412.503206 272.750448 
L 415.407006 273.99006 
L 418.310807 272.463721 
L 421.214607 272.295764 
L 424.118408 268.435344 
L 427.022208 265.76856 
L 429.926009 269.418992 
L 432.829809 271.416321 
L 435.73361 265.329089 
L 438.63741 270.775243 
L 441.541211 266.968899 
L 444.445012 270.018815 
L 447.348812 269.466116 
L 450.252613 253.697688 
L 453.156413 273.99006 
L 456.060214 267.238944 
L 458.964014 266.614891 
L 461.867815 265.551165 
L 464.771615 273.99006 
L 470.579217 273.99006 
L 473.483017 257.737373 
L 476.386818 234.983611 
L 479.290618 206.478898 
L 482.194419 246.56365 
L 485.098219 273.99006 
L 949.706307 273.99006 
L 949.706307 273.99006 
" style="fill:none;stroke:#f15c80;stroke-linecap:square;"/>
   </g>
   <g id="line2d_13">
    <path clip-path="url(#peeb2c7ef70)" d="M 81.469943 170.562778 
L 84.373744 188.579015 
L 87.277544 201.592947 
L 90.181345 207.12195 
L 93.085145 211.973391 
L 95.988946 219.799749 
L 98.892746 226.179672 
L 101.796547 232.829561 
L 107.604148 248.248041 
L 110.507949 254.324915 
L 113.411749 259.931996 
L 119.21935 267.809964 
L 122.123151 270.394488 
L 125.026951 273.177516 
L 127.930752 273.012096 
L 130.834552 272.670669 
L 133.738353 273.19869 
L 139.545954 272.9128 
L 142.449755 272.358196 
L 145.353555 273.027852 
L 148.257356 271.921347 
L 151.161156 273.088721 
L 154.064957 273.244885 
L 156.968757 273.272669 
L 159.872558 273.025135 
L 162.776359 273.178676 
L 165.680159 273.185276 
L 168.58396 273.054222 
L 171.48776 273.133635 
L 174.391561 273.370567 
L 177.295361 273.1561 
L 180.199162 273.07133 
L 183.102962 273.259245 
L 188.910563 273.251722 
L 194.718165 272.711082 
L 197.621965 272.748014 
L 200.525766 272.340115 
L 206.333367 272.682294 
L 209.237167 272.47393 
L 220.852369 272.662962 
L 223.75617 272.612323 
L 226.659971 272.263602 
L 229.563771 272.423884 
L 232.467572 271.845849 
L 235.371372 272.231926 
L 238.275173 271.49688 
L 241.178973 272.328009 
L 244.082774 272.558266 
L 246.986574 272.637524 
L 249.890375 272.165736 
L 252.794175 272.369428 
L 255.697976 271.604861 
L 258.601777 272.11934 
L 261.505577 271.961889 
L 267.313178 272.02763 
L 270.216979 272.177399 
L 273.120779 271.924062 
L 276.02458 272.370892 
L 278.92838 272.066173 
L 281.832181 271.979154 
L 284.735981 272.059503 
L 287.639782 271.791323 
L 296.351184 271.797063 
L 299.254984 271.499992 
L 302.158785 271.836687 
L 307.966386 271.946027 
L 310.870186 271.972743 
L 313.773987 271.608882 
L 316.677788 271.929628 
L 319.581588 271.459925 
L 322.485389 271.865308 
L 325.389189 271.917564 
L 328.29299 271.280028 
L 331.19679 271.524765 
L 334.100591 270.861314 
L 337.004391 271.260439 
L 339.908192 271.059089 
L 342.811992 270.561583 
L 345.715793 270.93625 
L 348.619594 270.446178 
L 351.523394 269.72563 
L 354.427195 270.849495 
L 357.330995 269.580589 
L 360.234796 270.650604 
L 363.138596 270.128706 
L 366.042397 270.991535 
L 368.946197 269.695772 
L 371.849998 269.744151 
L 374.753798 268.77042 
L 377.657599 269.474263 
L 380.5614 267.44454 
L 383.4652 269.940948 
L 386.369001 268.074301 
L 389.272801 265.365802 
L 392.176602 269.72373 
L 395.080402 271.786767 
L 397.984203 270.47948 
L 400.888003 271.001484 
L 403.791804 270.64027 
L 406.695604 272.730885 
L 409.599405 271.190554 
L 412.503206 267.809461 
L 415.407006 270.588335 
L 418.310807 270.207107 
L 421.214607 273.99006 
L 424.118408 269.407057 
L 427.022208 263.725205 
L 429.926009 268.197023 
L 432.829809 270.751517 
L 435.73361 270.190731 
L 438.63741 269.790801 
L 441.541211 273.99006 
L 453.156413 273.99006 
L 456.060214 256.437158 
L 458.964014 253.579709 
L 461.867815 273.99006 
L 464.771615 273.99006 
L 467.675416 258.317826 
L 470.579217 256.781332 
L 473.483017 254.910819 
L 476.386818 250.894136 
L 479.290618 273.99006 
L 949.706307 273.99006 
L 949.706307 273.99006 
" style="fill:none;stroke:#e4d354;stroke-linecap:square;"/>
   </g>
   <g id="line2d_14">
    <path clip-path="url(#peeb2c7ef70)" d="M 81.469943 175.34269 
L 84.373744 188.555666 
L 87.277544 201.13823 
L 90.181345 208.051904 
L 93.085145 212.711816 
L 95.988946 219.911019 
L 98.892746 226.266465 
L 101.796547 234.092872 
L 104.700348 240.987296 
L 107.604148 248.842576 
L 110.507949 253.767165 
L 113.411749 259.705545 
L 116.31555 263.985285 
L 119.21935 267.737276 
L 122.123151 270.573326 
L 125.026951 273.093368 
L 127.930752 273.147907 
L 130.834552 272.987497 
L 133.738353 273.301901 
L 136.642154 273.271423 
L 139.545954 272.777298 
L 142.449755 272.661773 
L 145.353555 272.969761 
L 148.257356 271.763275 
L 151.161156 273.311424 
L 154.064957 273.232811 
L 156.968757 272.952048 
L 165.680159 273.19426 
L 168.58396 273.106 
L 171.48776 273.240764 
L 177.295361 273.29046 
L 180.199162 273.155656 
L 188.910563 273.270162 
L 194.718165 272.73304 
L 200.525766 272.902487 
L 203.429566 272.659478 
L 206.333367 272.738949 
L 215.044768 272.454546 
L 220.852369 272.748944 
L 223.75617 272.361019 
L 226.659971 272.37073 
L 229.563771 272.547318 
L 232.467572 272.45968 
L 235.371372 272.189449 
L 238.275173 270.711159 
L 241.178973 272.235017 
L 244.082774 272.244954 
L 246.986574 272.387189 
L 252.794175 271.625675 
L 255.697976 272.360518 
L 258.601777 271.975715 
L 264.409378 272.452674 
L 267.313178 272.138605 
L 270.216979 271.955635 
L 273.120779 272.366756 
L 276.02458 271.896072 
L 278.92838 272.286838 
L 287.639782 271.718073 
L 290.543583 271.913982 
L 293.447383 270.362233 
L 296.351184 272.439636 
L 299.254984 270.787023 
L 305.062585 271.369132 
L 307.966386 272.187133 
L 310.870186 271.829604 
L 313.773987 271.616586 
L 316.677788 271.153484 
L 319.581588 271.547634 
L 322.485389 271.071449 
L 325.389189 271.275507 
L 328.29299 272.629528 
L 331.19679 271.156476 
L 334.100591 270.964145 
L 337.004391 271.839808 
L 339.908192 271.289953 
L 342.811992 270.898018 
L 345.715793 271.775357 
L 348.619594 271.096381 
L 351.523394 272.222574 
L 354.427195 268.991512 
L 357.330995 268.883514 
L 360.234796 270.239993 
L 363.138596 269.99673 
L 366.042397 270.035155 
L 368.946197 271.610005 
L 371.849998 268.634306 
L 374.753798 268.179673 
L 377.657599 268.973034 
L 383.4652 265.849584 
L 386.369001 267.852682 
L 389.272801 266.614891 
L 392.176602 271.393477 
L 395.080402 268.881532 
L 397.984203 265.597279 
L 400.888003 272.601381 
L 403.791804 273.99006 
L 406.695604 270.534764 
L 409.599405 270.157549 
L 412.503206 265.32196 
L 415.407006 259.280924 
L 418.310807 273.99006 
L 421.214607 268.019685 
L 424.118408 273.99006 
L 427.022208 273.99006 
L 429.926009 265.631535 
L 432.829809 273.99006 
L 435.73361 268.974945 
L 438.63741 273.99006 
L 441.541211 273.99006 
L 444.445012 266.614891 
L 447.348812 273.99006 
L 450.252613 264.450439 
L 453.156413 273.99006 
L 464.771615 273.99006 
L 467.675416 254.486835 
L 470.579217 227.798212 
L 473.483017 249.611029 
L 476.386818 219.137241 
L 479.290618 273.99006 
L 482.194419 215.480386 
L 485.098219 273.99006 
L 949.706307 273.99006 
L 949.706307 273.99006 
" style="fill:none;stroke:#2b908f;stroke-linecap:square;"/>
   </g>
   <g id="line2d_15">
    <path clip-path="url(#peeb2c7ef70)" d="M 81.469943 175.353576 
L 84.373744 187.322213 
L 87.277544 199.964122 
L 90.181345 206.214473 
L 93.085145 211.28547 
L 95.988946 218.111943 
L 98.892746 227.176251 
L 101.796547 233.43564 
L 104.700348 241.077719 
L 110.507949 253.864223 
L 113.411749 259.218762 
L 116.31555 263.717027 
L 119.21935 267.526205 
L 122.123151 270.559314 
L 125.026951 273.097637 
L 127.930752 273.113452 
L 130.834552 272.944004 
L 133.738353 273.027599 
L 139.545954 272.963131 
L 142.449755 272.287516 
L 145.353555 272.961969 
L 148.257356 271.678541 
L 151.161156 273.08848 
L 156.968757 273.059085 
L 159.872558 273.004808 
L 168.58396 273.086123 
L 171.48776 272.977645 
L 174.391561 273.226216 
L 177.295361 273.313192 
L 180.199162 273.13688 
L 186.006763 273.256446 
L 191.814364 273.05313 
L 194.718165 272.686172 
L 197.621965 272.697873 
L 200.525766 272.466381 
L 212.140968 272.521353 
L 215.044768 272.545051 
L 217.948569 272.311139 
L 220.852369 272.265819 
L 223.75617 272.498094 
L 226.659971 272.231419 
L 229.563771 272.112219 
L 232.467572 271.741402 
L 235.371372 271.767093 
L 238.275173 270.837196 
L 241.178973 272.291232 
L 244.082774 272.517896 
L 246.986574 272.312005 
L 249.890375 272.233829 
L 252.794175 271.851033 
L 255.697976 271.954767 
L 258.601777 271.664054 
L 261.505577 272.027966 
L 267.313178 271.726421 
L 273.120779 271.90956 
L 276.02458 271.86288 
L 278.92838 272.703421 
L 281.832181 271.919156 
L 284.735981 271.795961 
L 287.639782 272.039332 
L 290.543583 272.130588 
L 293.447383 271.140901 
L 296.351184 271.704978 
L 299.254984 271.299188 
L 302.158785 271.314422 
L 305.062585 271.615698 
L 307.966386 271.270376 
L 310.870186 272.174289 
L 313.773987 272.268951 
L 316.677788 271.876075 
L 319.581588 271.740961 
L 322.485389 271.969922 
L 325.389189 271.011871 
L 328.29299 271.290357 
L 331.19679 270.730384 
L 334.100591 271.767527 
L 337.004391 270.8685 
L 339.908192 271.542316 
L 345.715793 270.829565 
L 348.619594 270.704538 
L 351.523394 270.385768 
L 354.427195 271.038144 
L 357.330995 270.737836 
L 360.234796 271.351408 
L 363.138596 271.085599 
L 366.042397 271.431052 
L 368.946197 269.39334 
L 371.849998 269.861787 
L 374.753798 268.09149 
L 377.657599 271.566141 
L 380.5614 269.302739 
L 383.4652 268.798511 
L 386.369001 268.982576 
L 389.272801 267.981536 
L 392.176602 266.819757 
L 395.080402 270.586136 
L 397.984203 263.303362 
L 400.888003 271.653826 
L 403.791804 262.500245 
L 406.695604 268.126062 
L 409.599405 267.552565 
L 412.503206 267.978792 
L 415.407006 268.605734 
L 418.310807 272.524876 
L 421.214607 270.627435 
L 424.118408 264.491736 
L 427.022208 267.552565 
L 429.926009 273.99006 
L 432.829809 271.297897 
L 435.73361 271.004873 
L 438.63741 267.106569 
L 441.541211 273.99006 
L 444.445012 264.75169 
L 447.348812 253.217395 
L 450.252613 273.99006 
L 453.156413 267.676066 
L 456.060214 266.223289 
L 458.964014 273.99006 
L 464.771615 273.99006 
L 467.675416 260.487828 
L 470.579217 244.239378 
L 473.483017 273.99006 
L 476.386818 252.584082 
L 479.290618 249.611029 
L 482.194419 238.884256 
L 485.098219 273.99006 
L 949.706307 273.99006 
L 949.706307 273.99006 
" style="fill:none;stroke:#f45b5b;stroke-linecap:square;"/>
   </g>
   <g id="line2d_16">
    <path clip-path="url(#peeb2c7ef70)" d="M 81.469943 170.003342 
L 84.373744 189.207491 
L 87.277544 197.163126 
L 90.181345 207.403616 
L 93.085145 208.096309 
L 95.988946 221.513367 
L 98.892746 226.974789 
L 101.796547 233.015178 
L 104.700348 242.593991 
L 107.604148 249.332243 
L 113.411749 259.533963 
L 116.31555 263.493687 
L 122.123151 270.710105 
L 125.026951 273.131947 
L 127.930752 272.956189 
L 130.834552 272.948435 
L 136.642154 273.393 
L 139.545954 273.018222 
L 142.449755 272.346206 
L 145.353555 273.059576 
L 148.257356 271.501016 
L 151.161156 273.186226 
L 154.064957 273.287028 
L 156.968757 272.969113 
L 159.872558 273.095762 
L 162.776359 273.010467 
L 165.680159 273.093177 
L 168.58396 273.000129 
L 174.391561 273.48346 
L 177.295361 273.361978 
L 180.199162 273.103505 
L 186.006763 273.400693 
L 188.910563 273.379816 
L 191.814364 273.092561 
L 194.718165 272.489387 
L 197.621965 272.863805 
L 200.525766 272.784561 
L 203.429566 272.540648 
L 206.333367 273.00533 
L 212.140968 272.405611 
L 215.044768 272.505495 
L 217.948569 272.301954 
L 223.75617 272.752323 
L 226.659971 272.490182 
L 229.563771 272.550072 
L 232.467572 271.888577 
L 235.371372 272.022361 
L 238.275173 270.553404 
L 241.178973 272.134691 
L 244.082774 272.14184 
L 246.986574 272.610829 
L 249.890375 272.19321 
L 252.794175 272.714122 
L 255.697976 272.556699 
L 258.601777 271.812521 
L 261.505577 272.421106 
L 264.409378 271.785459 
L 267.313178 271.580091 
L 273.120779 272.143623 
L 276.02458 271.931889 
L 278.92838 272.240983 
L 281.832181 272.297917 
L 284.735981 271.8711 
L 287.639782 272.209507 
L 290.543583 272.030516 
L 293.447383 271.350445 
L 296.351184 272.033695 
L 299.254984 272.410563 
L 302.158785 272.460011 
L 305.062585 271.885095 
L 307.966386 272.132468 
L 313.773987 271.355978 
L 316.677788 272.403426 
L 319.581588 270.960602 
L 322.485389 270.676003 
L 325.389189 270.678018 
L 328.29299 271.783245 
L 331.19679 271.298951 
L 334.100591 271.021336 
L 337.004391 270.867026 
L 339.908192 272.12152 
L 342.811992 271.71731 
L 345.715793 270.632892 
L 348.619594 270.79655 
L 351.523394 269.377619 
L 354.427195 270.52738 
L 357.330995 269.760445 
L 360.234796 272.15858 
L 363.138596 271.891435 
L 366.042397 272.799548 
L 368.946197 271.493598 
L 371.849998 271.728921 
L 374.753798 269.783482 
L 377.657599 266.327006 
L 380.5614 271.315943 
L 383.4652 271.360412 
L 389.272801 265.533094 
L 392.176602 269.557509 
L 395.080402 273.99006 
L 397.984203 270.932063 
L 400.888003 272.21345 
L 403.791804 273.99006 
L 406.695604 262.6216 
L 409.599405 271.453513 
L 412.503206 268.039924 
L 415.407006 267.488985 
L 418.310807 270.521107 
L 421.214607 266.358363 
L 424.118408 273.99006 
L 427.022208 269.167834 
L 429.926009 257.11227 
L 432.829809 273.99006 
L 444.445012 273.99006 
L 447.348812 226.549784 
L 450.252613 260.692407 
L 453.156413 273.99006 
L 470.579217 273.99006 
L 473.483017 190.404812 
L 476.386818 230.107805 
L 479.290618 176.473937 
L 482.194419 156.970713 
L 485.098219 273.99006 
L 949.706307 273.99006 
L 949.706307 273.99006 
" style="fill:none;stroke:#91e8e1;stroke-linecap:square;"/>
   </g>
   <g id="line2d_17">
    <path clip-path="url(#peeb2c7ef70)" d="M 81.469943 172.600708 
L 84.373744 188.900957 
L 87.277544 198.735274 
L 90.181345 205.982596 
L 93.085145 211.763643 
L 95.988946 221.543481 
L 98.892746 226.333002 
L 101.796547 232.241687 
L 104.700348 240.833873 
L 107.604148 248.277321 
L 110.507949 252.982788 
L 113.411749 259.073589 
L 116.31555 264.024992 
L 119.21935 267.418283 
L 122.123151 270.03174 
L 125.026951 273.216452 
L 127.930752 272.979856 
L 133.738353 272.950281 
L 136.642154 273.112163 
L 139.545954 272.82887 
L 142.449755 272.157994 
L 145.353555 272.858444 
L 148.257356 272.238935 
L 151.161156 273.158859 
L 154.064957 272.998534 
L 162.776359 273.14485 
L 168.58396 272.984518 
L 171.48776 272.749477 
L 174.391561 273.102816 
L 180.199162 273.264696 
L 183.102962 273.171276 
L 186.006763 273.272396 
L 191.814364 273.002528 
L 194.718165 272.354069 
L 197.621965 272.796407 
L 203.429566 272.403206 
L 206.333367 272.662169 
L 209.237167 272.431167 
L 212.140968 272.559151 
L 215.044768 272.036582 
L 217.948569 272.037987 
L 220.852369 272.386884 
L 223.75617 272.203317 
L 229.563771 272.402194 
L 232.467572 272.054442 
L 235.371372 272.262606 
L 238.275173 271.294352 
L 241.178973 272.417979 
L 249.890375 271.927099 
L 252.794175 271.760153 
L 255.697976 271.956339 
L 261.505577 271.924199 
L 264.409378 272.339659 
L 267.313178 271.730986 
L 270.216979 271.995628 
L 276.02458 271.829857 
L 278.92838 271.496262 
L 281.832181 271.570557 
L 284.735981 272.155289 
L 287.639782 271.475757 
L 290.543583 271.925685 
L 293.447383 271.109918 
L 296.351184 271.937128 
L 299.254984 271.411303 
L 302.158785 271.724308 
L 305.062585 271.40147 
L 307.966386 271.8514 
L 310.870186 271.70015 
L 313.773987 271.894975 
L 316.677788 271.655018 
L 322.485389 270.782695 
L 325.389189 271.333782 
L 328.29299 270.859913 
L 331.19679 270.766418 
L 334.100591 271.417222 
L 337.004391 271.099806 
L 339.908192 272.107944 
L 342.811992 269.99684 
L 345.715793 270.482624 
L 348.619594 270.649896 
L 354.427195 270.444194 
L 357.330995 271.068148 
L 360.234796 270.700125 
L 363.138596 271.129255 
L 366.042397 271.10212 
L 368.946197 270.163361 
L 371.849998 268.391356 
L 374.753798 271.691356 
L 377.657599 268.444119 
L 380.5614 268.258225 
L 383.4652 266.094578 
L 386.369001 269.991677 
L 389.272801 268.123448 
L 392.176602 268.382104 
L 395.080402 269.923123 
L 397.984203 270.211179 
L 400.888003 271.852069 
L 403.791804 270.353409 
L 406.695604 260.404222 
L 409.599405 266.602475 
L 412.503206 267.403605 
L 415.407006 268.504778 
L 418.310807 269.917461 
L 421.214607 264.965432 
L 424.118408 271.438766 
L 427.022208 268.253817 
L 429.926009 261.628861 
L 432.829809 270.507341 
L 435.73361 273.99006 
L 438.63741 259.523382 
L 441.541211 268.670999 
L 444.445012 267.765627 
L 447.348812 273.99006 
L 461.867815 273.99006 
L 464.771615 259.834494 
L 467.675416 273.99006 
L 470.579217 254.486835 
L 473.483017 273.99006 
L 476.386818 273.99006 
L 479.290618 241.484686 
L 482.194419 232.197436 
L 485.098219 273.99006 
L 949.706307 273.99006 
L 949.706307 273.99006 
" style="fill:none;stroke:#7cb5ec;stroke-linecap:square;"/>
   </g>
   <g id="line2d_18">
    <path clip-path="url(#peeb2c7ef70)" d="M 38.058125 273.99006 
L 993.118125 273.99006 
" style="fill:none;stroke:#dedede;stroke-linecap:square;stroke-width:2;"/>
   </g>
   <g id="text_16">
    <!-- Slamdunk: Non-T&gt;C mismatches over reads -->
    <defs>
     <path d="M 53.515625 70.515625 
L 53.515625 60.890625 
Q 47.90625 63.578125 42.921875 64.890625 
Q 37.9375 66.21875 33.296875 66.21875 
Q 25.25 66.21875 20.875 63.09375 
Q 16.5 59.96875 16.5 54.203125 
Q 16.5 49.359375 19.40625 46.890625 
Q 22.3125 44.4375 30.421875 42.921875 
L 36.375 41.703125 
Q 47.40625 39.59375 52.65625 34.296875 
Q 57.90625 29 57.90625 20.125 
Q 57.90625 9.515625 50.796875 4.046875 
Q 43.703125 -1.421875 29.984375 -1.421875 
Q 24.8125 -1.421875 18.96875 -0.25 
Q 13.140625 0.921875 6.890625 3.21875 
L 6.890625 13.375 
Q 12.890625 10.015625 18.65625 8.296875 
Q 24.421875 6.59375 29.984375 6.59375 
Q 38.421875 6.59375 43.015625 9.90625 
Q 47.609375 13.234375 47.609375 19.390625 
Q 47.609375 24.75 44.3125 27.78125 
Q 41.015625 30.8125 33.5 32.328125 
L 27.484375 33.5 
Q 16.453125 35.6875 11.515625 40.375 
Q 6.59375 45.0625 6.59375 53.421875 
Q 6.59375 63.09375 13.40625 68.65625 
Q 20.21875 74.21875 32.171875 74.21875 
Q 37.3125 74.21875 42.625 73.28125 
Q 47.953125 72.359375 53.515625 70.515625 
z
" id="DejaVuSans-83"/>
     <path d="M 9.421875 75.984375 
L 18.40625 75.984375 
L 18.40625 0 
L 9.421875 0 
z
" id="DejaVuSans-108"/>
     <path d="M 8.5 21.578125 
L 8.5 54.6875 
L 17.484375 54.6875 
L 17.484375 21.921875 
Q 17.484375 14.15625 20.5 10.265625 
Q 23.53125 6.390625 29.59375 6.390625 
Q 36.859375 6.390625 41.078125 11.03125 
Q 45.3125 15.671875 45.3125 23.6875 
L 45.3125 54.6875 
L 54.296875 54.6875 
L 54.296875 0 
L 45.3125 0 
L 45.3125 8.40625 
Q 42.046875 3.421875 37.71875 1 
Q 33.40625 -1.421875 27.6875 -1.421875 
Q 18.265625 -1.421875 13.375 4.4375 
Q 8.5 10.296875 8.5 21.578125 
z
M 31.109375 56 
z
" id="DejaVuSans-117"/>
     <path d="M 9.078125 75.984375 
L 18.109375 75.984375 
L 18.109375 31.109375 
L 44.921875 54.6875 
L 56.390625 54.6875 
L 27.390625 29.109375 
L 57.625 0 
L 45.90625 0 
L 18.109375 26.703125 
L 18.109375 0 
L 9.078125 0 
z
" id="DejaVuSans-107"/>
     <path d="M 11.71875 12.40625 
L 22.015625 12.40625 
L 22.015625 0 
L 11.71875 0 
z
M 11.71875 51.703125 
L 22.015625 51.703125 
L 22.015625 39.3125 
L 11.71875 39.3125 
z
" id="DejaVuSans-58"/>
     <path d="M 9.8125 72.90625 
L 23.09375 72.90625 
L 55.421875 11.921875 
L 55.421875 72.90625 
L 64.984375 72.90625 
L 64.984375 0 
L 51.703125 0 
L 19.390625 60.984375 
L 19.390625 0 
L 9.8125 0 
z
" id="DejaVuSans-78"/>
     <path d="M 4.890625 31.390625 
L 31.203125 31.390625 
L 31.203125 23.390625 
L 4.890625 23.390625 
z
" id="DejaVuSans-45"/>
     <path d="M -0.296875 72.90625 
L 61.375 72.90625 
L 61.375 64.59375 
L 35.5 64.59375 
L 35.5 0 
L 25.59375 0 
L 25.59375 64.59375 
L -0.296875 64.59375 
z
" id="DejaVuSans-84"/>
     <path d="M 10.59375 49.21875 
L 10.59375 58.109375 
L 73.1875 35.40625 
L 73.1875 27.296875 
L 10.59375 4.59375 
L 10.59375 13.484375 
L 60.890625 31.296875 
z
" id="DejaVuSans-62"/>
     <path d="M 64.40625 67.28125 
L 64.40625 56.890625 
Q 59.421875 61.53125 53.78125 63.8125 
Q 48.140625 66.109375 41.796875 66.109375 
Q 29.296875 66.109375 22.65625 58.46875 
Q 16.015625 50.828125 16.015625 36.375 
Q 16.015625 21.96875 22.65625 14.328125 
Q 29.296875 6.6875 41.796875 6.6875 
Q 48.140625 6.6875 53.78125 8.984375 
Q 59.421875 11.28125 64.40625 15.921875 
L 64.40625 5.609375 
Q 59.234375 2.09375 53.4375 0.328125 
Q 47.65625 -1.421875 41.21875 -1.421875 
Q 24.65625 -1.421875 15.125 8.703125 
Q 5.609375 18.84375 5.609375 36.375 
Q 5.609375 53.953125 15.125 64.078125 
Q 24.65625 74.21875 41.21875 74.21875 
Q 47.75 74.21875 53.53125 72.484375 
Q 59.328125 70.75 64.40625 67.28125 
z
" id="DejaVuSans-67"/>
     <path d="M 2.984375 54.6875 
L 12.5 54.6875 
L 29.59375 8.796875 
L 46.6875 54.6875 
L 56.203125 54.6875 
L 35.6875 0 
L 23.484375 0 
z
" id="DejaVuSans-118"/>
    </defs>
    <g transform="translate(338.103125 19.3575)scale(0.16 -0.16)">
     <use xlink:href="#DejaVuSans-83"/>
     <use x="63.476562" xlink:href="#DejaVuSans-108"/>
     <use x="91.259766" xlink:href="#DejaVuSans-97"/>
     <use x="152.539062" xlink:href="#DejaVuSans-109"/>
     <use x="249.951172" xlink:href="#DejaVuSans-100"/>
     <use x="313.427734" xlink:href="#DejaVuSans-117"/>
     <use x="376.806641" xlink:href="#DejaVuSans-110"/>
     <use x="440.185547" xlink:href="#DejaVuSans-107"/>
     <use x="498.095703" xlink:href="#DejaVuSans-58"/>
     <use x="531.787109" xlink:href="#DejaVuSans-32"/>
     <use x="563.574219" xlink:href="#DejaVuSans-78"/>
     <use x="638.378906" xlink:href="#DejaVuSans-111"/>
     <use x="699.560547" xlink:href="#DejaVuSans-110"/>
     <use x="762.939453" xlink:href="#DejaVuSans-45"/>
     <use x="798.882812" xlink:href="#DejaVuSans-84"/>
     <use x="859.966797" xlink:href="#DejaVuSans-62"/>
     <use x="943.755859" xlink:href="#DejaVuSans-67"/>
     <use x="1013.580078" xlink:href="#DejaVuSans-32"/>
     <use x="1045.367188" xlink:href="#DejaVuSans-109"/>
     <use x="1142.779297" xlink:href="#DejaVuSans-105"/>
     <use x="1170.5625" xlink:href="#DejaVuSans-115"/>
     <use x="1222.662109" xlink:href="#DejaVuSans-109"/>
     <use x="1320.074219" xlink:href="#DejaVuSans-97"/>
     <use x="1381.353516" xlink:href="#DejaVuSans-116"/>
     <use x="1420.5625" xlink:href="#DejaVuSans-99"/>
     <use x="1475.542969" xlink:href="#DejaVuSans-104"/>
     <use x="1538.921875" xlink:href="#DejaVuSans-101"/>
     <use x="1600.445312" xlink:href="#DejaVuSans-115"/>
     <use x="1652.544922" xlink:href="#DejaVuSans-32"/>
     <use x="1684.332031" xlink:href="#DejaVuSans-111"/>
     <use x="1745.513672" xlink:href="#DejaVuSans-118"/>
     <use x="1804.693359" xlink:href="#DejaVuSans-101"/>
     <use x="1866.216797" xlink:href="#DejaVuSans-114"/>
     <use x="1907.330078" xlink:href="#DejaVuSans-32"/>
     <use x="1939.117188" xlink:href="#DejaVuSans-114"/>
     <use x="1980.199219" xlink:href="#DejaVuSans-101"/>
     <use x="2041.722656" xlink:href="#DejaVuSans-97"/>
     <use x="2103.001953" xlink:href="#DejaVuSans-100"/>
     <use x="2166.478516" xlink:href="#DejaVuSans-115"/>
    </g>
   </g>
   <g id="legend_1">
    <g id="line2d_19">
     <path d="M 45.258125 291.525394 
L 61.258125 291.525394 
" style="fill:none;stroke:#7cb5ec;stroke-linecap:square;"/>
    </g>
    <g id="line2d_20"/>
    <g id="text_17">
     <!-- RT_Gad2_1 -->
     <defs>
      <path d="M 44.390625 34.1875 
Q 47.5625 33.109375 50.5625 29.59375 
Q 53.5625 26.078125 56.59375 19.921875 
L 66.609375 0 
L 56 0 
L 46.6875 18.703125 
Q 43.0625 26.03125 39.671875 28.421875 
Q 36.28125 30.8125 30.421875 30.8125 
L 19.671875 30.8125 
L 19.671875 0 
L 9.8125 0 
L 9.8125 72.90625 
L 32.078125 72.90625 
Q 44.578125 72.90625 50.734375 67.671875 
Q 56.890625 62.453125 56.890625 51.90625 
Q 56.890625 45.015625 53.6875 40.46875 
Q 50.484375 35.9375 44.390625 34.1875 
z
M 19.671875 64.796875 
L 19.671875 38.921875 
L 32.078125 38.921875 
Q 39.203125 38.921875 42.84375 42.21875 
Q 46.484375 45.515625 46.484375 51.90625 
Q 46.484375 58.296875 42.84375 61.546875 
Q 39.203125 64.796875 32.078125 64.796875 
z
" id="DejaVuSans-82"/>
      <path d="M 50.984375 -16.609375 
L 50.984375 -23.578125 
L -0.984375 -23.578125 
L -0.984375 -16.609375 
z
" id="DejaVuSans-95"/>
      <path d="M 59.515625 10.40625 
L 59.515625 29.984375 
L 43.40625 29.984375 
L 43.40625 38.09375 
L 69.28125 38.09375 
L 69.28125 6.78125 
Q 63.578125 2.734375 56.6875 0.65625 
Q 49.8125 -1.421875 42 -1.421875 
Q 24.90625 -1.421875 15.25 8.5625 
Q 5.609375 18.5625 5.609375 36.375 
Q 5.609375 54.25 15.25 64.234375 
Q 24.90625 74.21875 42 74.21875 
Q 49.125 74.21875 55.546875 72.453125 
Q 61.96875 70.703125 67.390625 67.28125 
L 67.390625 56.78125 
Q 61.921875 61.421875 55.765625 63.765625 
Q 49.609375 66.109375 42.828125 66.109375 
Q 29.4375 66.109375 22.71875 58.640625 
Q 16.015625 51.171875 16.015625 36.375 
Q 16.015625 21.625 22.71875 14.15625 
Q 29.4375 6.6875 42.828125 6.6875 
Q 48.046875 6.6875 52.140625 7.59375 
Q 56.25 8.5 59.515625 10.40625 
z
" id="DejaVuSans-71"/>
     </defs>
     <g transform="translate(67.658125 294.325394)scale(0.08 -0.08)">
      <use xlink:href="#DejaVuSans-82"/>
      <use x="69.373047" xlink:href="#DejaVuSans-84"/>
      <use x="130.457031" xlink:href="#DejaVuSans-95"/>
      <use x="180.457031" xlink:href="#DejaVuSans-71"/>
      <use x="257.947266" xlink:href="#DejaVuSans-97"/>
      <use x="319.226562" xlink:href="#DejaVuSans-100"/>
      <use x="382.703125" xlink:href="#DejaVuSans-50"/>
      <use x="446.326172" xlink:href="#DejaVuSans-95"/>
      <use x="496.326172" xlink:href="#DejaVuSans-49"/>
     </g>
    </g>
    <g id="line2d_21">
     <path d="M 45.258125 303.490394 
L 61.258125 303.490394 
" style="fill:none;stroke:#434348;stroke-linecap:square;"/>
    </g>
    <g id="line2d_22"/>
    <g id="text_18">
     <!-- RT_Gad2_2 -->
     <g transform="translate(67.658125 306.290394)scale(0.08 -0.08)">
      <use xlink:href="#DejaVuSans-82"/>
      <use x="69.373047" xlink:href="#DejaVuSans-84"/>
      <use x="130.457031" xlink:href="#DejaVuSans-95"/>
      <use x="180.457031" xlink:href="#DejaVuSans-71"/>
      <use x="257.947266" xlink:href="#DejaVuSans-97"/>
      <use x="319.226562" xlink:href="#DejaVuSans-100"/>
      <use x="382.703125" xlink:href="#DejaVuSans-50"/>
      <use x="446.326172" xlink:href="#DejaVuSans-95"/>
      <use x="496.326172" xlink:href="#DejaVuSans-50"/>
     </g>
    </g>
    <g id="line2d_23">
     <path d="M 45.258125 315.455394 
L 61.258125 315.455394 
" style="fill:none;stroke:#90ed7d;stroke-linecap:square;"/>
    </g>
    <g id="line2d_24"/>
    <g id="text_19">
     <!-- RT_Gad2_3 -->
     <g transform="translate(67.658125 318.255394)scale(0.08 -0.08)">
      <use xlink:href="#DejaVuSans-82"/>
      <use x="69.373047" xlink:href="#DejaVuSans-84"/>
      <use x="130.457031" xlink:href="#DejaVuSans-95"/>
      <use x="180.457031" xlink:href="#DejaVuSans-71"/>
      <use x="257.947266" xlink:href="#DejaVuSans-97"/>
      <use x="319.226562" xlink:href="#DejaVuSans-100"/>
      <use x="382.703125" xlink:href="#DejaVuSans-50"/>
      <use x="446.326172" xlink:href="#DejaVuSans-95"/>
      <use x="496.326172" xlink:href="#DejaVuSans-51"/>
     </g>
    </g>
    <g id="line2d_25">
     <path d="M 258.625313 291.525394 
L 274.625313 291.525394 
" style="fill:none;stroke:#f7a35c;stroke-linecap:square;"/>
    </g>
    <g id="line2d_26"/>
    <g id="text_20">
     <!-- RT_vGluT2_1 -->
     <g transform="translate(281.025313 294.325394)scale(0.08 -0.08)">
      <use xlink:href="#DejaVuSans-82"/>
      <use x="69.373047" xlink:href="#DejaVuSans-84"/>
      <use x="130.457031" xlink:href="#DejaVuSans-95"/>
      <use x="180.457031" xlink:href="#DejaVuSans-118"/>
      <use x="239.636719" xlink:href="#DejaVuSans-71"/>
      <use x="317.126953" xlink:href="#DejaVuSans-108"/>
      <use x="344.910156" xlink:href="#DejaVuSans-117"/>
      <use x="408.289062" xlink:href="#DejaVuSans-84"/>
      <use x="469.373047" xlink:href="#DejaVuSans-50"/>
      <use x="532.996094" xlink:href="#DejaVuSans-95"/>
      <use x="582.996094" xlink:href="#DejaVuSans-49"/>
     </g>
    </g>
    <g id="line2d_27">
     <path d="M 258.625313 303.490394 
L 274.625313 303.490394 
" style="fill:none;stroke:#8085e9;stroke-linecap:square;"/>
    </g>
    <g id="line2d_28"/>
    <g id="text_21">
     <!-- RT_vGluT2_3 -->
     <g transform="translate(281.025313 306.290394)scale(0.08 -0.08)">
      <use xlink:href="#DejaVuSans-82"/>
      <use x="69.373047" xlink:href="#DejaVuSans-84"/>
      <use x="130.457031" xlink:href="#DejaVuSans-95"/>
      <use x="180.457031" xlink:href="#DejaVuSans-118"/>
      <use x="239.636719" xlink:href="#DejaVuSans-71"/>
      <use x="317.126953" xlink:href="#DejaVuSans-108"/>
      <use x="344.910156" xlink:href="#DejaVuSans-117"/>
      <use x="408.289062" xlink:href="#DejaVuSans-84"/>
      <use x="469.373047" xlink:href="#DejaVuSans-50"/>
      <use x="532.996094" xlink:href="#DejaVuSans-95"/>
      <use x="582.996094" xlink:href="#DejaVuSans-51"/>
     </g>
    </g>
    <g id="line2d_29">
     <path d="M 478.925 291.525394 
L 494.925 291.525394 
" style="fill:none;stroke:#f15c80;stroke-linecap:square;"/>
    </g>
    <g id="line2d_30"/>
    <g id="text_22">
     <!-- S1_Gad2_1 -->
     <g transform="translate(501.325 294.325394)scale(0.08 -0.08)">
      <use xlink:href="#DejaVuSans-83"/>
      <use x="63.476562" xlink:href="#DejaVuSans-49"/>
      <use x="127.099609" xlink:href="#DejaVuSans-95"/>
      <use x="177.099609" xlink:href="#DejaVuSans-71"/>
      <use x="254.589844" xlink:href="#DejaVuSans-97"/>
      <use x="315.869141" xlink:href="#DejaVuSans-100"/>
      <use x="379.345703" xlink:href="#DejaVuSans-50"/>
      <use x="442.96875" xlink:href="#DejaVuSans-95"/>
      <use x="492.96875" xlink:href="#DejaVuSans-49"/>
     </g>
    </g>
    <g id="line2d_31">
     <path d="M 478.925 303.490394 
L 494.925 303.490394 
" style="fill:none;stroke:#e4d354;stroke-linecap:square;"/>
    </g>
    <g id="line2d_32"/>
    <g id="text_23">
     <!-- S1_Gad2_2 -->
     <g transform="translate(501.325 306.290394)scale(0.08 -0.08)">
      <use xlink:href="#DejaVuSans-83"/>
      <use x="63.476562" xlink:href="#DejaVuSans-49"/>
      <use x="127.099609" xlink:href="#DejaVuSans-95"/>
      <use x="177.099609" xlink:href="#DejaVuSans-71"/>
      <use x="254.589844" xlink:href="#DejaVuSans-97"/>
      <use x="315.869141" xlink:href="#DejaVuSans-100"/>
      <use x="379.345703" xlink:href="#DejaVuSans-50"/>
      <use x="442.96875" xlink:href="#DejaVuSans-95"/>
      <use x="492.96875" xlink:href="#DejaVuSans-50"/>
     </g>
    </g>
    <g id="line2d_33">
     <path d="M 692.024688 291.525394 
L 708.024688 291.525394 
" style="fill:none;stroke:#2b908f;stroke-linecap:square;"/>
    </g>
    <g id="line2d_34"/>
    <g id="text_24">
     <!-- S1_Gad2_3 -->
     <g transform="translate(714.424688 294.325394)scale(0.08 -0.08)">
      <use xlink:href="#DejaVuSans-83"/>
      <use x="63.476562" xlink:href="#DejaVuSans-49"/>
      <use x="127.099609" xlink:href="#DejaVuSans-95"/>
      <use x="177.099609" xlink:href="#DejaVuSans-71"/>
      <use x="254.589844" xlink:href="#DejaVuSans-97"/>
      <use x="315.869141" xlink:href="#DejaVuSans-100"/>
      <use x="379.345703" xlink:href="#DejaVuSans-50"/>
      <use x="442.96875" xlink:href="#DejaVuSans-95"/>
      <use x="492.96875" xlink:href="#DejaVuSans-51"/>
     </g>
    </g>
    <g id="line2d_35">
     <path d="M 692.024688 303.490394 
L 708.024688 303.490394 
" style="fill:none;stroke:#f45b5b;stroke-linecap:square;"/>
    </g>
    <g id="line2d_36"/>
    <g id="text_25">
     <!-- S1_vGluT2_1 -->
     <g transform="translate(714.424688 306.290394)scale(0.08 -0.08)">
      <use xlink:href="#DejaVuSans-83"/>
      <use x="63.476562" xlink:href="#DejaVuSans-49"/>
      <use x="127.099609" xlink:href="#DejaVuSans-95"/>
      <use x="177.099609" xlink:href="#DejaVuSans-118"/>
      <use x="236.279297" xlink:href="#DejaVuSans-71"/>
      <use x="313.769531" xlink:href="#DejaVuSans-108"/>
      <use x="341.552734" xlink:href="#DejaVuSans-117"/>
      <use x="404.931641" xlink:href="#DejaVuSans-84"/>
      <use x="466.015625" xlink:href="#DejaVuSans-50"/>
      <use x="529.638672" xlink:href="#DejaVuSans-95"/>
      <use x="579.638672" xlink:href="#DejaVuSans-49"/>
     </g>
    </g>
    <g id="line2d_37">
     <path d="M 912.056875 291.525394 
L 928.056875 291.525394 
" style="fill:none;stroke:#91e8e1;stroke-linecap:square;"/>
    </g>
    <g id="line2d_38"/>
    <g id="text_26">
     <!-- S1_vGluT2_2 -->
     <g transform="translate(934.456875 294.325394)scale(0.08 -0.08)">
      <use xlink:href="#DejaVuSans-83"/>
      <use x="63.476562" xlink:href="#DejaVuSans-49"/>
      <use x="127.099609" xlink:href="#DejaVuSans-95"/>
      <use x="177.099609" xlink:href="#DejaVuSans-118"/>
      <use x="236.279297" xlink:href="#DejaVuSans-71"/>
      <use x="313.769531" xlink:href="#DejaVuSans-108"/>
      <use x="341.552734" xlink:href="#DejaVuSans-117"/>
      <use x="404.931641" xlink:href="#DejaVuSans-84"/>
      <use x="466.015625" xlink:href="#DejaVuSans-50"/>
      <use x="529.638672" xlink:href="#DejaVuSans-95"/>
      <use x="579.638672" xlink:href="#DejaVuSans-50"/>
     </g>
    </g>
    <g id="line2d_39">
     <path d="M 912.056875 303.490394 
L 928.056875 303.490394 
" style="fill:none;stroke:#7cb5ec;stroke-linecap:square;"/>
    </g>
    <g id="line2d_40"/>
    <g id="text_27">
     <!-- S1_vGluT2_3 -->
     <g transform="translate(934.456875 306.290394)scale(0.08 -0.08)">
      <use xlink:href="#DejaVuSans-83"/>
      <use x="63.476562" xlink:href="#DejaVuSans-49"/>
      <use x="127.099609" xlink:href="#DejaVuSans-95"/>
      <use x="177.099609" xlink:href="#DejaVuSans-118"/>
      <use x="236.279297" xlink:href="#DejaVuSans-71"/>
      <use x="313.769531" xlink:href="#DejaVuSans-108"/>
      <use x="341.552734" xlink:href="#DejaVuSans-117"/>
      <use x="404.931641" xlink:href="#DejaVuSans-84"/>
      <use x="466.015625" xlink:href="#DejaVuSans-50"/>
      <use x="529.638672" xlink:href="#DejaVuSans-95"/>
      <use x="579.638672" xlink:href="#DejaVuSans-51"/>
     </g>
    </g>
   </g>
  </g>
 </g>
 <defs>
  <clipPath id="peeb2c7ef70">
   <rect height="242.5072" width="955.06" x="38.058125" y="31.48286"/>
  </clipPath>
 </defs>
</svg>
