<?xml version="1.0" encoding="utf-8" standalone="no"?>
<!DOCTYPE svg PUBLIC "-//W3C//DTD SVG 1.1//EN"
  "http://www.w3.org/Graphics/SVG/1.1/DTD/svg11.dtd">
<!-- Created with matplotlib (https://matplotlib.org/) -->
<svg height="426.2pt" version="1.1" viewBox="0 0 854.32875 426.2" width="854.32875pt" xmlns="http://www.w3.org/2000/svg" xmlns:xlink="http://www.w3.org/1999/xlink">
 <defs>
  <style type="text/css">
*{stroke-linecap:butt;stroke-linejoin:round;}
  </style>
 </defs>
 <g id="figure_1">
  <g id="axes_1">
   <g id="patch_1">
    <path d="M 65.92875 339.84 
L 847.12875 339.84 
L 847.12875 7.2 
L 65.92875 7.2 
z
" style="fill:#ffffff;"/>
   </g>
   <g id="matplotlib.axis_1">
    <g id="xtick_1">
     <g id="line2d_1">
      <path clip-path="url(#p8f63146449)" d="M 65.92875 339.84 
L 65.92875 7.2 
" style="fill:none;stroke:#dedede;stroke-linecap:square;"/>
     </g>
     <g id="text_1">
      <!-- 0 -->
      <defs>
       <path d="M 31.78125 66.40625 
Q 24.171875 66.40625 20.328125 58.90625 
Q 16.5 51.421875 16.5 36.375 
Q 16.5 21.390625 20.328125 13.890625 
Q 24.171875 6.390625 31.78125 6.390625 
Q 39.453125 6.390625 43.28125 13.890625 
Q 47.125 21.390625 47.125 36.375 
Q 47.125 51.421875 43.28125 58.90625 
Q 39.453125 66.40625 31.78125 66.40625 
z
M 31.78125 74.21875 
Q 44.046875 74.21875 50.515625 64.515625 
Q 56.984375 54.828125 56.984375 36.375 
Q 56.984375 17.96875 50.515625 8.265625 
Q 44.046875 -1.421875 31.78125 -1.421875 
Q 19.53125 -1.421875 13.0625 8.265625 
Q 6.59375 17.96875 6.59375 36.375 
Q 6.59375 54.828125 13.0625 64.515625 
Q 19.53125 74.21875 31.78125 74.21875 
z
" id="DejaVuSans-48"/>
      </defs>
      <g transform="translate(63.38375 352.91875)scale(0.08 -0.08)">
       <use xlink:href="#DejaVuSans-48"/>
      </g>
     </g>
    </g>
    <g id="xtick_2">
     <g id="line2d_2">
      <path clip-path="url(#p8f63146449)" d="M 168.26565 339.84 
L 168.26565 7.2 
" style="fill:none;stroke:#dedede;stroke-linecap:square;"/>
     </g>
     <g id="text_2">
      <!-- 1 -->
      <defs>
       <path d="M 12.40625 8.296875 
L 28.515625 8.296875 
L 28.515625 63.921875 
L 10.984375 60.40625 
L 10.984375 69.390625 
L 28.421875 72.90625 
L 38.28125 72.90625 
L 38.28125 8.296875 
L 54.390625 8.296875 
L 54.390625 0 
L 12.40625 0 
z
" id="DejaVuSans-49"/>
      </defs>
      <g transform="translate(165.72065 352.91875)scale(0.08 -0.08)">
       <use xlink:href="#DejaVuSans-49"/>
      </g>
     </g>
    </g>
    <g id="xtick_3">
     <g id="line2d_3">
      <path clip-path="url(#p8f63146449)" d="M 270.602549 339.84 
L 270.602549 7.2 
" style="fill:none;stroke:#dedede;stroke-linecap:square;"/>
     </g>
     <g id="text_3">
      <!-- 2 -->
      <defs>
       <path d="M 19.1875 8.296875 
L 53.609375 8.296875 
L 53.609375 0 
L 7.328125 0 
L 7.328125 8.296875 
Q 12.9375 14.109375 22.625 23.890625 
Q 32.328125 33.6875 34.8125 36.53125 
Q 39.546875 41.84375 41.421875 45.53125 
Q 43.3125 49.21875 43.3125 52.78125 
Q 43.3125 58.59375 39.234375 62.25 
Q 35.15625 65.921875 28.609375 65.921875 
Q 23.96875 65.921875 18.8125 64.3125 
Q 13.671875 62.703125 7.8125 59.421875 
L 7.8125 69.390625 
Q 13.765625 71.78125 18.9375 73 
Q 24.125 74.21875 28.421875 74.21875 
Q 39.75 74.21875 46.484375 68.546875 
Q 53.21875 62.890625 53.21875 53.421875 
Q 53.21875 48.921875 51.53125 44.890625 
Q 49.859375 40.875 45.40625 35.40625 
Q 44.1875 33.984375 37.640625 27.21875 
Q 31.109375 20.453125 19.1875 8.296875 
z
" id="DejaVuSans-50"/>
      </defs>
      <g transform="translate(268.057549 352.91875)scale(0.08 -0.08)">
       <use xlink:href="#DejaVuSans-50"/>
      </g>
     </g>
    </g>
    <g id="xtick_4">
     <g id="line2d_4">
      <path clip-path="url(#p8f63146449)" d="M 372.939449 339.84 
L 372.939449 7.2 
" style="fill:none;stroke:#dedede;stroke-linecap:square;"/>
     </g>
     <g id="text_4">
      <!-- 3 -->
      <defs>
       <path d="M 40.578125 39.3125 
Q 47.65625 37.796875 51.625 33 
Q 55.609375 28.21875 55.609375 21.1875 
Q 55.609375 10.40625 48.1875 4.484375 
Q 40.765625 -1.421875 27.09375 -1.421875 
Q 22.515625 -1.421875 17.65625 -0.515625 
Q 12.796875 0.390625 7.625 2.203125 
L 7.625 11.71875 
Q 11.71875 9.328125 16.59375 8.109375 
Q 21.484375 6.890625 26.8125 6.890625 
Q 36.078125 6.890625 40.9375 10.546875 
Q 45.796875 14.203125 45.796875 21.1875 
Q 45.796875 27.640625 41.28125 31.265625 
Q 36.765625 34.90625 28.71875 34.90625 
L 20.21875 34.90625 
L 20.21875 43.015625 
L 29.109375 43.015625 
Q 36.375 43.015625 40.234375 45.921875 
Q 44.09375 48.828125 44.09375 54.296875 
Q 44.09375 59.90625 40.109375 62.90625 
Q 36.140625 65.921875 28.71875 65.921875 
Q 24.65625 65.921875 20.015625 65.03125 
Q 15.375 64.15625 9.8125 62.3125 
L 9.8125 71.09375 
Q 15.4375 72.65625 20.34375 73.4375 
Q 25.25 74.21875 29.59375 74.21875 
Q 40.828125 74.21875 47.359375 69.109375 
Q 53.90625 64.015625 53.90625 55.328125 
Q 53.90625 49.265625 50.4375 45.09375 
Q 46.96875 40.921875 40.578125 39.3125 
z
" id="DejaVuSans-51"/>
      </defs>
      <g transform="translate(370.394449 352.91875)scale(0.08 -0.08)">
       <use xlink:href="#DejaVuSans-51"/>
      </g>
     </g>
    </g>
    <g id="xtick_5">
     <g id="line2d_5">
      <path clip-path="url(#p8f63146449)" d="M 475.276349 339.84 
L 475.276349 7.2 
" style="fill:none;stroke:#dedede;stroke-linecap:square;"/>
     </g>
     <g id="text_5">
      <!-- 4 -->
      <defs>
       <path d="M 37.796875 64.3125 
L 12.890625 25.390625 
L 37.796875 25.390625 
z
M 35.203125 72.90625 
L 47.609375 72.90625 
L 47.609375 25.390625 
L 58.015625 25.390625 
L 58.015625 17.1875 
L 47.609375 17.1875 
L 47.609375 0 
L 37.796875 0 
L 37.796875 17.1875 
L 4.890625 17.1875 
L 4.890625 26.703125 
z
" id="DejaVuSans-52"/>
      </defs>
      <g transform="translate(472.731349 352.91875)scale(0.08 -0.08)">
       <use xlink:href="#DejaVuSans-52"/>
      </g>
     </g>
    </g>
    <g id="xtick_6">
     <g id="line2d_6">
      <path clip-path="url(#p8f63146449)" d="M 577.613248 339.84 
L 577.613248 7.2 
" style="fill:none;stroke:#dedede;stroke-linecap:square;"/>
     </g>
     <g id="text_6">
      <!-- 5 -->
      <defs>
       <path d="M 10.796875 72.90625 
L 49.515625 72.90625 
L 49.515625 64.59375 
L 19.828125 64.59375 
L 19.828125 46.734375 
Q 21.96875 47.46875 24.109375 47.828125 
Q 26.265625 48.1875 28.421875 48.1875 
Q 40.625 48.1875 47.75 41.5 
Q 54.890625 34.8125 54.890625 23.390625 
Q 54.890625 11.625 47.5625 5.09375 
Q 40.234375 -1.421875 26.90625 -1.421875 
Q 22.3125 -1.421875 17.546875 -0.640625 
Q 12.796875 0.140625 7.71875 1.703125 
L 7.71875 11.625 
Q 12.109375 9.234375 16.796875 8.0625 
Q 21.484375 6.890625 26.703125 6.890625 
Q 35.15625 6.890625 40.078125 11.328125 
Q 45.015625 15.765625 45.015625 23.390625 
Q 45.015625 31 40.078125 35.4375 
Q 35.15625 39.890625 26.703125 39.890625 
Q 22.75 39.890625 18.8125 39.015625 
Q 14.890625 38.140625 10.796875 36.28125 
z
" id="DejaVuSans-53"/>
      </defs>
      <g transform="translate(575.068248 352.91875)scale(0.08 -0.08)">
       <use xlink:href="#DejaVuSans-53"/>
      </g>
     </g>
    </g>
    <g id="xtick_7">
     <g id="line2d_7">
      <path clip-path="url(#p8f63146449)" d="M 679.950148 339.84 
L 679.950148 7.2 
" style="fill:none;stroke:#dedede;stroke-linecap:square;"/>
     </g>
     <g id="text_7">
      <!-- 6 -->
      <defs>
       <path d="M 33.015625 40.375 
Q 26.375 40.375 22.484375 35.828125 
Q 18.609375 31.296875 18.609375 23.390625 
Q 18.609375 15.53125 22.484375 10.953125 
Q 26.375 6.390625 33.015625 6.390625 
Q 39.65625 6.390625 43.53125 10.953125 
Q 47.40625 15.53125 47.40625 23.390625 
Q 47.40625 31.296875 43.53125 35.828125 
Q 39.65625 40.375 33.015625 40.375 
z
M 52.59375 71.296875 
L 52.59375 62.3125 
Q 48.875 64.0625 45.09375 64.984375 
Q 41.3125 65.921875 37.59375 65.921875 
Q 27.828125 65.921875 22.671875 59.328125 
Q 17.53125 52.734375 16.796875 39.40625 
Q 19.671875 43.65625 24.015625 45.921875 
Q 28.375 48.1875 33.59375 48.1875 
Q 44.578125 48.1875 50.953125 41.515625 
Q 57.328125 34.859375 57.328125 23.390625 
Q 57.328125 12.15625 50.6875 5.359375 
Q 44.046875 -1.421875 33.015625 -1.421875 
Q 20.359375 -1.421875 13.671875 8.265625 
Q 6.984375 17.96875 6.984375 36.375 
Q 6.984375 53.65625 15.1875 63.9375 
Q 23.390625 74.21875 37.203125 74.21875 
Q 40.921875 74.21875 44.703125 73.484375 
Q 48.484375 72.75 52.59375 71.296875 
z
" id="DejaVuSans-54"/>
      </defs>
      <g transform="translate(677.405148 352.91875)scale(0.08 -0.08)">
       <use xlink:href="#DejaVuSans-54"/>
      </g>
     </g>
    </g>
    <g id="xtick_8">
     <g id="line2d_8">
      <path clip-path="url(#p8f63146449)" d="M 782.287048 339.84 
L 782.287048 7.2 
" style="fill:none;stroke:#dedede;stroke-linecap:square;"/>
     </g>
     <g id="text_8">
      <!-- 7 -->
      <defs>
       <path d="M 8.203125 72.90625 
L 55.078125 72.90625 
L 55.078125 68.703125 
L 28.609375 0 
L 18.3125 0 
L 43.21875 64.59375 
L 8.203125 64.59375 
z
" id="DejaVuSans-55"/>
      </defs>
      <g transform="translate(779.742048 352.91875)scale(0.08 -0.08)">
       <use xlink:href="#DejaVuSans-55"/>
      </g>
     </g>
    </g>
    <g id="text_9">
     <!-- Number of reads -->
     <defs>
      <path d="M 9.8125 72.90625 
L 23.09375 72.90625 
L 55.421875 11.921875 
L 55.421875 72.90625 
L 64.984375 72.90625 
L 64.984375 0 
L 51.703125 0 
L 19.390625 60.984375 
L 19.390625 0 
L 9.8125 0 
z
" id="DejaVuSans-78"/>
      <path d="M 8.5 21.578125 
L 8.5 54.6875 
L 17.484375 54.6875 
L 17.484375 21.921875 
Q 17.484375 14.15625 20.5 10.265625 
Q 23.53125 6.390625 29.59375 6.390625 
Q 36.859375 6.390625 41.078125 11.03125 
Q 45.3125 15.671875 45.3125 23.6875 
L 45.3125 54.6875 
L 54.296875 54.6875 
L 54.296875 0 
L 45.3125 0 
L 45.3125 8.40625 
Q 42.046875 3.421875 37.71875 1 
Q 33.40625 -1.421875 27.6875 -1.421875 
Q 18.265625 -1.421875 13.375 4.4375 
Q 8.5 10.296875 8.5 21.578125 
z
M 31.109375 56 
z
" id="DejaVuSans-117"/>
      <path d="M 52 44.1875 
Q 55.375 50.25 60.0625 53.125 
Q 64.75 56 71.09375 56 
Q 79.640625 56 84.28125 50.015625 
Q 88.921875 44.046875 88.921875 33.015625 
L 88.921875 0 
L 79.890625 0 
L 79.890625 32.71875 
Q 79.890625 40.578125 77.09375 44.375 
Q 74.3125 48.1875 68.609375 48.1875 
Q 61.625 48.1875 57.5625 43.546875 
Q 53.515625 38.921875 53.515625 30.90625 
L 53.515625 0 
L 44.484375 0 
L 44.484375 32.71875 
Q 44.484375 40.625 41.703125 44.40625 
Q 38.921875 48.1875 33.109375 48.1875 
Q 26.21875 48.1875 22.15625 43.53125 
Q 18.109375 38.875 18.109375 30.90625 
L 18.109375 0 
L 9.078125 0 
L 9.078125 54.6875 
L 18.109375 54.6875 
L 18.109375 46.1875 
Q 21.1875 51.21875 25.484375 53.609375 
Q 29.78125 56 35.6875 56 
Q 41.65625 56 45.828125 52.96875 
Q 50 49.953125 52 44.1875 
z
" id="DejaVuSans-109"/>
      <path d="M 48.6875 27.296875 
Q 48.6875 37.203125 44.609375 42.84375 
Q 40.53125 48.484375 33.40625 48.484375 
Q 26.265625 48.484375 22.1875 42.84375 
Q 18.109375 37.203125 18.109375 27.296875 
Q 18.109375 17.390625 22.1875 11.75 
Q 26.265625 6.109375 33.40625 6.109375 
Q 40.53125 6.109375 44.609375 11.75 
Q 48.6875 17.390625 48.6875 27.296875 
z
M 18.109375 46.390625 
Q 20.953125 51.265625 25.265625 53.625 
Q 29.59375 56 35.59375 56 
Q 45.5625 56 51.78125 48.09375 
Q 58.015625 40.1875 58.015625 27.296875 
Q 58.015625 14.40625 51.78125 6.484375 
Q 45.5625 -1.421875 35.59375 -1.421875 
Q 29.59375 -1.421875 25.265625 0.953125 
Q 20.953125 3.328125 18.109375 8.203125 
L 18.109375 0 
L 9.078125 0 
L 9.078125 75.984375 
L 18.109375 75.984375 
z
" id="DejaVuSans-98"/>
      <path d="M 56.203125 29.59375 
L 56.203125 25.203125 
L 14.890625 25.203125 
Q 15.484375 15.921875 20.484375 11.0625 
Q 25.484375 6.203125 34.421875 6.203125 
Q 39.59375 6.203125 44.453125 7.46875 
Q 49.3125 8.734375 54.109375 11.28125 
L 54.109375 2.78125 
Q 49.265625 0.734375 44.1875 -0.34375 
Q 39.109375 -1.421875 33.890625 -1.421875 
Q 20.796875 -1.421875 13.15625 6.1875 
Q 5.515625 13.8125 5.515625 26.8125 
Q 5.515625 40.234375 12.765625 48.109375 
Q 20.015625 56 32.328125 56 
Q 43.359375 56 49.78125 48.890625 
Q 56.203125 41.796875 56.203125 29.59375 
z
M 47.21875 32.234375 
Q 47.125 39.59375 43.09375 43.984375 
Q 39.0625 48.390625 32.421875 48.390625 
Q 24.90625 48.390625 20.390625 44.140625 
Q 15.875 39.890625 15.1875 32.171875 
z
" id="DejaVuSans-101"/>
      <path d="M 41.109375 46.296875 
Q 39.59375 47.171875 37.8125 47.578125 
Q 36.03125 48 33.890625 48 
Q 26.265625 48 22.1875 43.046875 
Q 18.109375 38.09375 18.109375 28.8125 
L 18.109375 0 
L 9.078125 0 
L 9.078125 54.6875 
L 18.109375 54.6875 
L 18.109375 46.1875 
Q 20.953125 51.171875 25.484375 53.578125 
Q 30.03125 56 36.53125 56 
Q 37.453125 56 38.578125 55.875 
Q 39.703125 55.765625 41.0625 55.515625 
z
" id="DejaVuSans-114"/>
      <path id="DejaVuSans-32"/>
      <path d="M 30.609375 48.390625 
Q 23.390625 48.390625 19.1875 42.75 
Q 14.984375 37.109375 14.984375 27.296875 
Q 14.984375 17.484375 19.15625 11.84375 
Q 23.34375 6.203125 30.609375 6.203125 
Q 37.796875 6.203125 41.984375 11.859375 
Q 46.1875 17.53125 46.1875 27.296875 
Q 46.1875 37.015625 41.984375 42.703125 
Q 37.796875 48.390625 30.609375 48.390625 
z
M 30.609375 56 
Q 42.328125 56 49.015625 48.375 
Q 55.71875 40.765625 55.71875 27.296875 
Q 55.71875 13.875 49.015625 6.21875 
Q 42.328125 -1.421875 30.609375 -1.421875 
Q 18.84375 -1.421875 12.171875 6.21875 
Q 5.515625 13.875 5.515625 27.296875 
Q 5.515625 40.765625 12.171875 48.375 
Q 18.84375 56 30.609375 56 
z
" id="DejaVuSans-111"/>
      <path d="M 37.109375 75.984375 
L 37.109375 68.5 
L 28.515625 68.5 
Q 23.6875 68.5 21.796875 66.546875 
Q 19.921875 64.59375 19.921875 59.515625 
L 19.921875 54.6875 
L 34.71875 54.6875 
L 34.71875 47.703125 
L 19.921875 47.703125 
L 19.921875 0 
L 10.890625 0 
L 10.890625 47.703125 
L 2.296875 47.703125 
L 2.296875 54.6875 
L 10.890625 54.6875 
L 10.890625 58.5 
Q 10.890625 67.625 15.140625 71.796875 
Q 19.390625 75.984375 28.609375 75.984375 
z
" id="DejaVuSans-102"/>
      <path d="M 34.28125 27.484375 
Q 23.390625 27.484375 19.1875 25 
Q 14.984375 22.515625 14.984375 16.5 
Q 14.984375 11.71875 18.140625 8.90625 
Q 21.296875 6.109375 26.703125 6.109375 
Q 34.1875 6.109375 38.703125 11.40625 
Q 43.21875 16.703125 43.21875 25.484375 
L 43.21875 27.484375 
z
M 52.203125 31.203125 
L 52.203125 0 
L 43.21875 0 
L 43.21875 8.296875 
Q 40.140625 3.328125 35.546875 0.953125 
Q 30.953125 -1.421875 24.3125 -1.421875 
Q 15.921875 -1.421875 10.953125 3.296875 
Q 6 8.015625 6 15.921875 
Q 6 25.140625 12.171875 29.828125 
Q 18.359375 34.515625 30.609375 34.515625 
L 43.21875 34.515625 
L 43.21875 35.40625 
Q 43.21875 41.609375 39.140625 45 
Q 35.0625 48.390625 27.6875 48.390625 
Q 23 48.390625 18.546875 47.265625 
Q 14.109375 46.140625 10.015625 43.890625 
L 10.015625 52.203125 
Q 14.9375 54.109375 19.578125 55.046875 
Q 24.21875 56 28.609375 56 
Q 40.484375 56 46.34375 49.84375 
Q 52.203125 43.703125 52.203125 31.203125 
z
" id="DejaVuSans-97"/>
      <path d="M 45.40625 46.390625 
L 45.40625 75.984375 
L 54.390625 75.984375 
L 54.390625 0 
L 45.40625 0 
L 45.40625 8.203125 
Q 42.578125 3.328125 38.25 0.953125 
Q 33.9375 -1.421875 27.875 -1.421875 
Q 17.96875 -1.421875 11.734375 6.484375 
Q 5.515625 14.40625 5.515625 27.296875 
Q 5.515625 40.1875 11.734375 48.09375 
Q 17.96875 56 27.875 56 
Q 33.9375 56 38.25 53.625 
Q 42.578125 51.265625 45.40625 46.390625 
z
M 14.796875 27.296875 
Q 14.796875 17.390625 18.875 11.75 
Q 22.953125 6.109375 30.078125 6.109375 
Q 37.203125 6.109375 41.296875 11.75 
Q 45.40625 17.390625 45.40625 27.296875 
Q 45.40625 37.203125 41.296875 42.84375 
Q 37.203125 48.484375 30.078125 48.484375 
Q 22.953125 48.484375 18.875 42.84375 
Q 14.796875 37.203125 14.796875 27.296875 
z
" id="DejaVuSans-100"/>
      <path d="M 44.28125 53.078125 
L 44.28125 44.578125 
Q 40.484375 46.53125 36.375 47.5 
Q 32.28125 48.484375 27.875 48.484375 
Q 21.1875 48.484375 17.84375 46.4375 
Q 14.5 44.390625 14.5 40.28125 
Q 14.5 37.15625 16.890625 35.375 
Q 19.28125 33.59375 26.515625 31.984375 
L 29.59375 31.296875 
Q 39.15625 29.25 43.1875 25.515625 
Q 47.21875 21.78125 47.21875 15.09375 
Q 47.21875 7.46875 41.1875 3.015625 
Q 35.15625 -1.421875 24.609375 -1.421875 
Q 20.21875 -1.421875 15.453125 -0.5625 
Q 10.6875 0.296875 5.421875 2 
L 5.421875 11.28125 
Q 10.40625 8.6875 15.234375 7.390625 
Q 20.0625 6.109375 24.8125 6.109375 
Q 31.15625 6.109375 34.5625 8.28125 
Q 37.984375 10.453125 37.984375 14.40625 
Q 37.984375 18.0625 35.515625 20.015625 
Q 33.0625 21.96875 24.703125 23.78125 
L 21.578125 24.515625 
Q 13.234375 26.265625 9.515625 29.90625 
Q 5.8125 33.546875 5.8125 39.890625 
Q 5.8125 47.609375 11.28125 51.796875 
Q 16.75 56 26.8125 56 
Q 31.78125 56 36.171875 55.265625 
Q 40.578125 54.546875 44.28125 53.078125 
z
" id="DejaVuSans-115"/>
     </defs>
     <g transform="translate(414.471719 366.180937)scale(0.1 -0.1)">
      <use xlink:href="#DejaVuSans-78"/>
      <use x="74.804688" xlink:href="#DejaVuSans-117"/>
      <use x="138.183594" xlink:href="#DejaVuSans-109"/>
      <use x="235.595703" xlink:href="#DejaVuSans-98"/>
      <use x="299.072266" xlink:href="#DejaVuSans-101"/>
      <use x="360.595703" xlink:href="#DejaVuSans-114"/>
      <use x="401.708984" xlink:href="#DejaVuSans-32"/>
      <use x="433.496094" xlink:href="#DejaVuSans-111"/>
      <use x="494.677734" xlink:href="#DejaVuSans-102"/>
      <use x="529.882812" xlink:href="#DejaVuSans-32"/>
      <use x="561.669922" xlink:href="#DejaVuSans-114"/>
      <use x="602.751953" xlink:href="#DejaVuSans-101"/>
      <use x="664.275391" xlink:href="#DejaVuSans-97"/>
      <use x="725.554688" xlink:href="#DejaVuSans-100"/>
      <use x="789.03125" xlink:href="#DejaVuSans-115"/>
     </g>
    </g>
   </g>
   <g id="matplotlib.axis_2">
    <g id="ytick_1">
     <g id="text_10">
      <!-- RT_Gad2_1 -->
      <defs>
       <path d="M 44.390625 34.1875 
Q 47.5625 33.109375 50.5625 29.59375 
Q 53.5625 26.078125 56.59375 19.921875 
L 66.609375 0 
L 56 0 
L 46.6875 18.703125 
Q 43.0625 26.03125 39.671875 28.421875 
Q 36.28125 30.8125 30.421875 30.8125 
L 19.671875 30.8125 
L 19.671875 0 
L 9.8125 0 
L 9.8125 72.90625 
L 32.078125 72.90625 
Q 44.578125 72.90625 50.734375 67.671875 
Q 56.890625 62.453125 56.890625 51.90625 
Q 56.890625 45.015625 53.6875 40.46875 
Q 50.484375 35.9375 44.390625 34.1875 
z
M 19.671875 64.796875 
L 19.671875 38.921875 
L 32.078125 38.921875 
Q 39.203125 38.921875 42.84375 42.21875 
Q 46.484375 45.515625 46.484375 51.90625 
Q 46.484375 58.296875 42.84375 61.546875 
Q 39.203125 64.796875 32.078125 64.796875 
z
" id="DejaVuSans-82"/>
       <path d="M -0.296875 72.90625 
L 61.375 72.90625 
L 61.375 64.59375 
L 35.5 64.59375 
L 35.5 0 
L 25.59375 0 
L 25.59375 64.59375 
L -0.296875 64.59375 
z
" id="DejaVuSans-84"/>
       <path d="M 50.984375 -16.609375 
L 50.984375 -23.578125 
L -0.984375 -23.578125 
L -0.984375 -16.609375 
z
" id="DejaVuSans-95"/>
       <path d="M 59.515625 10.40625 
L 59.515625 29.984375 
L 43.40625 29.984375 
L 43.40625 38.09375 
L 69.28125 38.09375 
L 69.28125 6.78125 
Q 63.578125 2.734375 56.6875 0.65625 
Q 49.8125 -1.421875 42 -1.421875 
Q 24.90625 -1.421875 15.25 8.5625 
Q 5.609375 18.5625 5.609375 36.375 
Q 5.609375 54.25 15.25 64.234375 
Q 24.90625 74.21875 42 74.21875 
Q 49.125 74.21875 55.546875 72.453125 
Q 61.96875 70.703125 67.390625 67.28125 
L 67.390625 56.78125 
Q 61.921875 61.421875 55.765625 63.765625 
Q 49.609375 66.109375 42.828125 66.109375 
Q 29.4375 66.109375 22.71875 58.640625 
Q 16.015625 51.171875 16.015625 36.375 
Q 16.015625 21.625 22.71875 14.15625 
Q 29.4375 6.6875 42.828125 6.6875 
Q 48.046875 6.6875 52.140625 7.59375 
Q 56.25 8.5 59.515625 10.40625 
z
" id="DejaVuSans-71"/>
      </defs>
      <g transform="translate(14.1325 25.359375)scale(0.08 -0.08)">
       <use xlink:href="#DejaVuSans-82"/>
       <use x="69.373047" xlink:href="#DejaVuSans-84"/>
       <use x="130.457031" xlink:href="#DejaVuSans-95"/>
       <use x="180.457031" xlink:href="#DejaVuSans-71"/>
       <use x="257.947266" xlink:href="#DejaVuSans-97"/>
       <use x="319.226562" xlink:href="#DejaVuSans-100"/>
       <use x="382.703125" xlink:href="#DejaVuSans-50"/>
       <use x="446.326172" xlink:href="#DejaVuSans-95"/>
       <use x="496.326172" xlink:href="#DejaVuSans-49"/>
      </g>
     </g>
    </g>
    <g id="ytick_2">
     <g id="text_11">
      <!-- RT_Gad2_2 -->
      <g transform="translate(14.1325 55.599375)scale(0.08 -0.08)">
       <use xlink:href="#DejaVuSans-82"/>
       <use x="69.373047" xlink:href="#DejaVuSans-84"/>
       <use x="130.457031" xlink:href="#DejaVuSans-95"/>
       <use x="180.457031" xlink:href="#DejaVuSans-71"/>
       <use x="257.947266" xlink:href="#DejaVuSans-97"/>
       <use x="319.226562" xlink:href="#DejaVuSans-100"/>
       <use x="382.703125" xlink:href="#DejaVuSans-50"/>
       <use x="446.326172" xlink:href="#DejaVuSans-95"/>
       <use x="496.326172" xlink:href="#DejaVuSans-50"/>
      </g>
     </g>
    </g>
    <g id="ytick_3">
     <g id="text_12">
      <!-- RT_Gad2_3 -->
      <g transform="translate(14.1325 85.839375)scale(0.08 -0.08)">
       <use xlink:href="#DejaVuSans-82"/>
       <use x="69.373047" xlink:href="#DejaVuSans-84"/>
       <use x="130.457031" xlink:href="#DejaVuSans-95"/>
       <use x="180.457031" xlink:href="#DejaVuSans-71"/>
       <use x="257.947266" xlink:href="#DejaVuSans-97"/>
       <use x="319.226562" xlink:href="#DejaVuSans-100"/>
       <use x="382.703125" xlink:href="#DejaVuSans-50"/>
       <use x="446.326172" xlink:href="#DejaVuSans-95"/>
       <use x="496.326172" xlink:href="#DejaVuSans-51"/>
      </g>
     </g>
    </g>
    <g id="ytick_4">
     <g id="text_13">
      <!-- RT_vGluT2_1 -->
      <defs>
       <path d="M 2.984375 54.6875 
L 12.5 54.6875 
L 29.59375 8.796875 
L 46.6875 54.6875 
L 56.203125 54.6875 
L 35.6875 0 
L 23.484375 0 
z
" id="DejaVuSans-118"/>
       <path d="M 9.421875 75.984375 
L 18.40625 75.984375 
L 18.40625 0 
L 9.421875 0 
z
" id="DejaVuSans-108"/>
      </defs>
      <g transform="translate(7.2 116.079375)scale(0.08 -0.08)">
       <use xlink:href="#DejaVuSans-82"/>
       <use x="69.373047" xlink:href="#DejaVuSans-84"/>
       <use x="130.457031" xlink:href="#DejaVuSans-95"/>
       <use x="180.457031" xlink:href="#DejaVuSans-118"/>
       <use x="239.636719" xlink:href="#DejaVuSans-71"/>
       <use x="317.126953" xlink:href="#DejaVuSans-108"/>
       <use x="344.910156" xlink:href="#DejaVuSans-117"/>
       <use x="408.289062" xlink:href="#DejaVuSans-84"/>
       <use x="469.373047" xlink:href="#DejaVuSans-50"/>
       <use x="532.996094" xlink:href="#DejaVuSans-95"/>
       <use x="582.996094" xlink:href="#DejaVuSans-49"/>
      </g>
     </g>
    </g>
    <g id="ytick_5">
     <g id="text_14">
      <!-- RT_vGluT2_3 -->
      <g transform="translate(7.2 146.319375)scale(0.08 -0.08)">
       <use xlink:href="#DejaVuSans-82"/>
       <use x="69.373047" xlink:href="#DejaVuSans-84"/>
       <use x="130.457031" xlink:href="#DejaVuSans-95"/>
       <use x="180.457031" xlink:href="#DejaVuSans-118"/>
       <use x="239.636719" xlink:href="#DejaVuSans-71"/>
       <use x="317.126953" xlink:href="#DejaVuSans-108"/>
       <use x="344.910156" xlink:href="#DejaVuSans-117"/>
       <use x="408.289062" xlink:href="#DejaVuSans-84"/>
       <use x="469.373047" xlink:href="#DejaVuSans-50"/>
       <use x="532.996094" xlink:href="#DejaVuSans-95"/>
       <use x="582.996094" xlink:href="#DejaVuSans-51"/>
      </g>
     </g>
    </g>
    <g id="ytick_6">
     <g id="text_15">
      <!-- S1_Gad2_1 -->
      <defs>
       <path d="M 53.515625 70.515625 
L 53.515625 60.890625 
Q 47.90625 63.578125 42.921875 64.890625 
Q 37.9375 66.21875 33.296875 66.21875 
Q 25.25 66.21875 20.875 63.09375 
Q 16.5 59.96875 16.5 54.203125 
Q 16.5 49.359375 19.40625 46.890625 
Q 22.3125 44.4375 30.421875 42.921875 
L 36.375 41.703125 
Q 47.40625 39.59375 52.65625 34.296875 
Q 57.90625 29 57.90625 20.125 
Q 57.90625 9.515625 50.796875 4.046875 
Q 43.703125 -1.421875 29.984375 -1.421875 
Q 24.8125 -1.421875 18.96875 -0.25 
Q 13.140625 0.921875 6.890625 3.21875 
L 6.890625 13.375 
Q 12.890625 10.015625 18.65625 8.296875 
Q 24.421875 6.59375 29.984375 6.59375 
Q 38.421875 6.59375 43.015625 9.90625 
Q 47.609375 13.234375 47.609375 19.390625 
Q 47.609375 24.75 44.3125 27.78125 
Q 41.015625 30.8125 33.5 32.328125 
L 27.484375 33.5 
Q 16.453125 35.6875 11.515625 40.375 
Q 6.59375 45.0625 6.59375 53.421875 
Q 6.59375 63.09375 13.40625 68.65625 
Q 20.21875 74.21875 32.171875 74.21875 
Q 37.3125 74.21875 42.625 73.28125 
Q 47.953125 72.359375 53.515625 70.515625 
z
" id="DejaVuSans-83"/>
      </defs>
      <g transform="translate(14.4 176.559375)scale(0.08 -0.08)">
       <use xlink:href="#DejaVuSans-83"/>
       <use x="63.476562" xlink:href="#DejaVuSans-49"/>
       <use x="127.099609" xlink:href="#DejaVuSans-95"/>
       <use x="177.099609" xlink:href="#DejaVuSans-71"/>
       <use x="254.589844" xlink:href="#DejaVuSans-97"/>
       <use x="315.869141" xlink:href="#DejaVuSans-100"/>
       <use x="379.345703" xlink:href="#DejaVuSans-50"/>
       <use x="442.96875" xlink:href="#DejaVuSans-95"/>
       <use x="492.96875" xlink:href="#DejaVuSans-49"/>
      </g>
     </g>
    </g>
    <g id="ytick_7">
     <g id="text_16">
      <!-- S1_Gad2_2 -->
      <g transform="translate(14.4 206.799375)scale(0.08 -0.08)">
       <use xlink:href="#DejaVuSans-83"/>
       <use x="63.476562" xlink:href="#DejaVuSans-49"/>
       <use x="127.099609" xlink:href="#DejaVuSans-95"/>
       <use x="177.099609" xlink:href="#DejaVuSans-71"/>
       <use x="254.589844" xlink:href="#DejaVuSans-97"/>
       <use x="315.869141" xlink:href="#DejaVuSans-100"/>
       <use x="379.345703" xlink:href="#DejaVuSans-50"/>
       <use x="442.96875" xlink:href="#DejaVuSans-95"/>
       <use x="492.96875" xlink:href="#DejaVuSans-50"/>
      </g>
     </g>
    </g>
    <g id="ytick_8">
     <g id="text_17">
      <!-- S1_Gad2_3 -->
      <g transform="translate(14.4 237.039375)scale(0.08 -0.08)">
       <use xlink:href="#DejaVuSans-83"/>
       <use x="63.476562" xlink:href="#DejaVuSans-49"/>
       <use x="127.099609" xlink:href="#DejaVuSans-95"/>
       <use x="177.099609" xlink:href="#DejaVuSans-71"/>
       <use x="254.589844" xlink:href="#DejaVuSans-97"/>
       <use x="315.869141" xlink:href="#DejaVuSans-100"/>
       <use x="379.345703" xlink:href="#DejaVuSans-50"/>
       <use x="442.96875" xlink:href="#DejaVuSans-95"/>
       <use x="492.96875" xlink:href="#DejaVuSans-51"/>
      </g>
     </g>
    </g>
    <g id="ytick_9">
     <g id="text_18">
      <!-- S1_vGluT2_1 -->
      <g transform="translate(7.4675 267.279375)scale(0.08 -0.08)">
       <use xlink:href="#DejaVuSans-83"/>
       <use x="63.476562" xlink:href="#DejaVuSans-49"/>
       <use x="127.099609" xlink:href="#DejaVuSans-95"/>
       <use x="177.099609" xlink:href="#DejaVuSans-118"/>
       <use x="236.279297" xlink:href="#DejaVuSans-71"/>
       <use x="313.769531" xlink:href="#DejaVuSans-108"/>
       <use x="341.552734" xlink:href="#DejaVuSans-117"/>
       <use x="404.931641" xlink:href="#DejaVuSans-84"/>
       <use x="466.015625" xlink:href="#DejaVuSans-50"/>
       <use x="529.638672" xlink:href="#DejaVuSans-95"/>
       <use x="579.638672" xlink:href="#DejaVuSans-49"/>
      </g>
     </g>
    </g>
    <g id="ytick_10">
     <g id="text_19">
      <!-- S1_vGluT2_2 -->
      <g transform="translate(7.4675 297.519375)scale(0.08 -0.08)">
       <use xlink:href="#DejaVuSans-83"/>
       <use x="63.476562" xlink:href="#DejaVuSans-49"/>
       <use x="127.099609" xlink:href="#DejaVuSans-95"/>
       <use x="177.099609" xlink:href="#DejaVuSans-118"/>
       <use x="236.279297" xlink:href="#DejaVuSans-71"/>
       <use x="313.769531" xlink:href="#DejaVuSans-108"/>
       <use x="341.552734" xlink:href="#DejaVuSans-117"/>
       <use x="404.931641" xlink:href="#DejaVuSans-84"/>
       <use x="466.015625" xlink:href="#DejaVuSans-50"/>
       <use x="529.638672" xlink:href="#DejaVuSans-95"/>
       <use x="579.638672" xlink:href="#DejaVuSans-50"/>
      </g>
     </g>
    </g>
    <g id="ytick_11">
     <g id="text_20">
      <!-- S1_vGluT2_3 -->
      <g transform="translate(7.4675 327.759375)scale(0.08 -0.08)">
       <use xlink:href="#DejaVuSans-83"/>
       <use x="63.476562" xlink:href="#DejaVuSans-49"/>
       <use x="127.099609" xlink:href="#DejaVuSans-95"/>
       <use x="177.099609" xlink:href="#DejaVuSans-118"/>
       <use x="236.279297" xlink:href="#DejaVuSans-71"/>
       <use x="313.769531" xlink:href="#DejaVuSans-108"/>
       <use x="341.552734" xlink:href="#DejaVuSans-117"/>
       <use x="404.931641" xlink:href="#DejaVuSans-84"/>
       <use x="466.015625" xlink:href="#DejaVuSans-50"/>
       <use x="529.638672" xlink:href="#DejaVuSans-95"/>
       <use x="579.638672" xlink:href="#DejaVuSans-51"/>
      </g>
     </g>
    </g>
   </g>
   <g id="patch_2">
    <path clip-path="url(#p8f63146449)" d="M 65.92875 10.224 
L 189.228996 10.224 
L 189.228996 34.416 
L 65.92875 34.416 
z
" style="fill:#fdbf6f;"/>
   </g>
   <g id="patch_3">
    <path clip-path="url(#p8f63146449)" d="M 65.92875 40.464 
L 197.667104 40.464 
L 197.667104 64.656 
L 65.92875 64.656 
z
" style="fill:#fdbf6f;"/>
   </g>
   <g id="patch_4">
    <path clip-path="url(#p8f63146449)" d="M 65.92875 70.704 
L 193.319394 70.704 
L 193.319394 94.896 
L 65.92875 94.896 
z
" style="fill:#fdbf6f;"/>
   </g>
   <g id="patch_5">
    <path clip-path="url(#p8f63146449)" d="M 65.92875 100.944 
L 181.445964 100.944 
L 181.445964 125.136 
L 65.92875 125.136 
z
" style="fill:#fdbf6f;"/>
   </g>
   <g id="patch_6">
    <path clip-path="url(#p8f63146449)" d="M 65.92875 131.184 
L 178.064437 131.184 
L 178.064437 155.376 
L 65.92875 155.376 
z
" style="fill:#fdbf6f;"/>
   </g>
   <g id="patch_7">
    <path clip-path="url(#p8f63146449)" d="M 65.92875 161.424 
L 158.69721 161.424 
L 158.69721 185.616 
L 65.92875 185.616 
z
" style="fill:#fdbf6f;"/>
   </g>
   <g id="patch_8">
    <path clip-path="url(#p8f63146449)" d="M 65.92875 191.664 
L 160.658752 191.664 
L 160.658752 215.856 
L 65.92875 215.856 
z
" style="fill:#fdbf6f;"/>
   </g>
   <g id="patch_9">
    <path clip-path="url(#p8f63146449)" d="M 65.92875 221.904 
L 153.630215 221.904 
L 153.630215 246.096 
L 65.92875 246.096 
z
" style="fill:#fdbf6f;"/>
   </g>
   <g id="patch_10">
    <path clip-path="url(#p8f63146449)" d="M 65.92875 252.144 
L 167.326877 252.144 
L 167.326877 276.336 
L 65.92875 276.336 
z
" style="fill:#fdbf6f;"/>
   </g>
   <g id="patch_11">
    <path clip-path="url(#p8f63146449)" d="M 65.92875 282.384 
L 167.349598 282.384 
L 167.349598 306.576 
L 65.92875 306.576 
z
" style="fill:#fdbf6f;"/>
   </g>
   <g id="patch_12">
    <path clip-path="url(#p8f63146449)" d="M 65.92875 312.624 
L 160.603321 312.624 
L 160.603321 336.816 
L 65.92875 336.816 
z
" style="fill:#fdbf6f;"/>
   </g>
   <g id="patch_13">
    <path clip-path="url(#p8f63146449)" d="M 189.228996 10.224 
L 251.737965 10.224 
L 251.737965 34.416 
L 189.228996 34.416 
z
" style="fill:#2171b5;"/>
   </g>
   <g id="patch_14">
    <path clip-path="url(#p8f63146449)" d="M 197.667104 40.464 
L 260.934914 40.464 
L 260.934914 64.656 
L 197.667104 64.656 
z
" style="fill:#2171b5;"/>
   </g>
   <g id="patch_15">
    <path clip-path="url(#p8f63146449)" d="M 193.319394 70.704 
L 256.476845 70.704 
L 256.476845 94.896 
L 193.319394 94.896 
z
" style="fill:#2171b5;"/>
   </g>
   <g id="patch_16">
    <path clip-path="url(#p8f63146449)" d="M 181.445964 100.944 
L 244.256436 100.944 
L 244.256436 125.136 
L 181.445964 125.136 
z
" style="fill:#2171b5;"/>
   </g>
   <g id="patch_17">
    <path clip-path="url(#p8f63146449)" d="M 178.064437 131.184 
L 240.656345 131.184 
L 240.656345 155.376 
L 178.064437 155.376 
z
" style="fill:#2171b5;"/>
   </g>
   <g id="patch_18">
    <path clip-path="url(#p8f63146449)" d="M 158.69721 161.424 
L 226.409973 161.424 
L 226.409973 185.616 
L 158.69721 185.616 
z
" style="fill:#2171b5;"/>
   </g>
   <g id="patch_19">
    <path clip-path="url(#p8f63146449)" d="M 160.658752 191.664 
L 227.821836 191.664 
L 227.821836 215.856 
L 160.658752 215.856 
z
" style="fill:#2171b5;"/>
   </g>
   <g id="patch_20">
    <path clip-path="url(#p8f63146449)" d="M 153.630215 221.904 
L 219.944143 221.904 
L 219.944143 246.096 
L 153.630215 246.096 
z
" style="fill:#2171b5;"/>
   </g>
   <g id="patch_21">
    <path clip-path="url(#p8f63146449)" d="M 167.326877 252.144 
L 232.244126 252.144 
L 232.244126 276.336 
L 167.326877 276.336 
z
" style="fill:#2171b5;"/>
   </g>
   <g id="patch_22">
    <path clip-path="url(#p8f63146449)" d="M 167.349598 282.384 
L 231.38205 282.384 
L 231.38205 306.576 
L 167.349598 306.576 
z
" style="fill:#2171b5;"/>
   </g>
   <g id="patch_23">
    <path clip-path="url(#p8f63146449)" d="M 160.603321 312.624 
L 228.994344 312.624 
L 228.994344 336.816 
L 160.603321 336.816 
z
" style="fill:#2171b5;"/>
   </g>
   <g id="patch_24">
    <path clip-path="url(#p8f63146449)" d="M 251.737965 10.224 
L 316.059197 10.224 
L 316.059197 34.416 
L 251.737965 34.416 
z
" style="fill:#6baed6;"/>
   </g>
   <g id="patch_25">
    <path clip-path="url(#p8f63146449)" d="M 260.934914 40.464 
L 326.658883 40.464 
L 326.658883 64.656 
L 260.934914 64.656 
z
" style="fill:#6baed6;"/>
   </g>
   <g id="patch_26">
    <path clip-path="url(#p8f63146449)" d="M 256.476845 70.704 
L 323.059778 70.704 
L 323.059778 94.896 
L 256.476845 94.896 
z
" style="fill:#6baed6;"/>
   </g>
   <g id="patch_27">
    <path clip-path="url(#p8f63146449)" d="M 244.256436 100.944 
L 307.043503 100.944 
L 307.043503 125.136 
L 244.256436 125.136 
z
" style="fill:#6baed6;"/>
   </g>
   <g id="patch_28">
    <path clip-path="url(#p8f63146449)" d="M 240.656345 131.184 
L 301.99774 131.184 
L 301.99774 155.376 
L 240.656345 155.376 
z
" style="fill:#6baed6;"/>
   </g>
   <g id="patch_29">
    <path clip-path="url(#p8f63146449)" d="M 226.409973 161.424 
L 296.721449 161.424 
L 296.721449 185.616 
L 226.409973 185.616 
z
" style="fill:#6baed6;"/>
   </g>
   <g id="patch_30">
    <path clip-path="url(#p8f63146449)" d="M 227.821836 191.664 
L 294.539312 191.664 
L 294.539312 215.856 
L 227.821836 215.856 
z
" style="fill:#6baed6;"/>
   </g>
   <g id="patch_31">
    <path clip-path="url(#p8f63146449)" d="M 219.944143 221.904 
L 290.341888 221.904 
L 290.341888 246.096 
L 219.944143 246.096 
z
" style="fill:#6baed6;"/>
   </g>
   <g id="patch_32">
    <path clip-path="url(#p8f63146449)" d="M 232.244126 252.144 
L 299.611369 252.144 
L 299.611369 276.336 
L 232.244126 276.336 
z
" style="fill:#6baed6;"/>
   </g>
   <g id="patch_33">
    <path clip-path="url(#p8f63146449)" d="M 231.38205 282.384 
L 293.904269 282.384 
L 293.904269 306.576 
L 231.38205 306.576 
z
" style="fill:#6baed6;"/>
   </g>
   <g id="patch_34">
    <path clip-path="url(#p8f63146449)" d="M 228.994344 312.624 
L 298.244121 312.624 
L 298.244121 336.816 
L 228.994344 336.816 
z
" style="fill:#6baed6;"/>
   </g>
   <g id="patch_35">
    <path clip-path="url(#p8f63146449)" d="M 316.059197 10.224 
L 348.287848 10.224 
L 348.287848 34.416 
L 316.059197 34.416 
z
" style="fill:#c6dbef;"/>
   </g>
   <g id="patch_36">
    <path clip-path="url(#p8f63146449)" d="M 326.658883 40.464 
L 359.4416 40.464 
L 359.4416 64.656 
L 326.658883 64.656 
z
" style="fill:#c6dbef;"/>
   </g>
   <g id="patch_37">
    <path clip-path="url(#p8f63146449)" d="M 323.059778 70.704 
L 357.373099 70.704 
L 357.373099 94.896 
L 323.059778 94.896 
z
" style="fill:#c6dbef;"/>
   </g>
   <g id="patch_38">
    <path clip-path="url(#p8f63146449)" d="M 307.043503 100.944 
L 339.256931 100.944 
L 339.256931 125.136 
L 307.043503 125.136 
z
" style="fill:#c6dbef;"/>
   </g>
   <g id="patch_39">
    <path clip-path="url(#p8f63146449)" d="M 301.99774 131.184 
L 333.270086 131.184 
L 333.270086 155.376 
L 301.99774 155.376 
z
" style="fill:#c6dbef;"/>
   </g>
   <g id="patch_40">
    <path clip-path="url(#p8f63146449)" d="M 296.721449 161.424 
L 331.645249 161.424 
L 331.645249 185.616 
L 296.721449 185.616 
z
" style="fill:#c6dbef;"/>
   </g>
   <g id="patch_41">
    <path clip-path="url(#p8f63146449)" d="M 294.539312 191.664 
L 328.01991 191.664 
L 328.01991 215.856 
L 294.539312 215.856 
z
" style="fill:#c6dbef;"/>
   </g>
   <g id="patch_42">
    <path clip-path="url(#p8f63146449)" d="M 290.341888 221.904 
L 325.593317 221.904 
L 325.593317 246.096 
L 290.341888 246.096 
z
" style="fill:#c6dbef;"/>
   </g>
   <g id="patch_43">
    <path clip-path="url(#p8f63146449)" d="M 299.611369 252.144 
L 332.896816 252.144 
L 332.896816 276.336 
L 299.611369 276.336 
z
" style="fill:#c6dbef;"/>
   </g>
   <g id="patch_44">
    <path clip-path="url(#p8f63146449)" d="M 293.904269 282.384 
L 326.47502 282.384 
L 326.47502 306.576 
L 293.904269 306.576 
z
" style="fill:#c6dbef;"/>
   </g>
   <g id="patch_45">
    <path clip-path="url(#p8f63146449)" d="M 298.244121 312.624 
L 332.959839 312.624 
L 332.959839 336.816 
L 298.244121 336.816 
z
" style="fill:#c6dbef;"/>
   </g>
   <g id="patch_46">
    <path clip-path="url(#p8f63146449)" d="M 348.287848 10.224 
L 383.05405 10.224 
L 383.05405 34.416 
L 348.287848 34.416 
z
" style="fill:#74c476;"/>
   </g>
   <g id="patch_47">
    <path clip-path="url(#p8f63146449)" d="M 359.4416 40.464 
L 395.009924 40.464 
L 395.009924 64.656 
L 359.4416 64.656 
z
" style="fill:#74c476;"/>
   </g>
   <g id="patch_48">
    <path clip-path="url(#p8f63146449)" d="M 357.373099 70.704 
L 394.674733 70.704 
L 394.674733 94.896 
L 357.373099 94.896 
z
" style="fill:#74c476;"/>
   </g>
   <g id="patch_49">
    <path clip-path="url(#p8f63146449)" d="M 339.256931 100.944 
L 372.966385 100.944 
L 372.966385 125.136 
L 339.256931 125.136 
z
" style="fill:#74c476;"/>
   </g>
   <g id="patch_50">
    <path clip-path="url(#p8f63146449)" d="M 333.270086 131.184 
L 367.987087 131.184 
L 367.987087 155.376 
L 333.270086 155.376 
z
" style="fill:#74c476;"/>
   </g>
   <g id="patch_51">
    <path clip-path="url(#p8f63146449)" d="M 331.645249 161.424 
L 363.922494 161.424 
L 363.922494 185.616 
L 331.645249 185.616 
z
" style="fill:#74c476;"/>
   </g>
   <g id="patch_52">
    <path clip-path="url(#p8f63146449)" d="M 328.01991 191.664 
L 361.2627 191.664 
L 361.2627 215.856 
L 328.01991 215.856 
z
" style="fill:#74c476;"/>
   </g>
   <g id="patch_53">
    <path clip-path="url(#p8f63146449)" d="M 325.593317 221.904 
L 358.097557 221.904 
L 358.097557 246.096 
L 325.593317 246.096 
z
" style="fill:#74c476;"/>
   </g>
   <g id="patch_54">
    <path clip-path="url(#p8f63146449)" d="M 332.896816 252.144 
L 366.856442 252.144 
L 366.856442 276.336 
L 332.896816 276.336 
z
" style="fill:#74c476;"/>
   </g>
   <g id="patch_55">
    <path clip-path="url(#p8f63146449)" d="M 326.47502 282.384 
L 361.049315 282.384 
L 361.049315 306.576 
L 326.47502 306.576 
z
" style="fill:#74c476;"/>
   </g>
   <g id="patch_56">
    <path clip-path="url(#p8f63146449)" d="M 332.959839 312.624 
L 366.591044 312.624 
L 366.591044 336.816 
L 332.959839 336.816 
z
" style="fill:#74c476;"/>
   </g>
   <g id="patch_57">
    <path clip-path="url(#p8f63146449)" d="M 383.05405 10.224 
L 425.144989 10.224 
L 425.144989 34.416 
L 383.05405 34.416 
z
" style="fill:#c7e9c0;"/>
   </g>
   <g id="patch_58">
    <path clip-path="url(#p8f63146449)" d="M 395.009924 40.464 
L 436.730279 40.464 
L 436.730279 64.656 
L 395.009924 64.656 
z
" style="fill:#c7e9c0;"/>
   </g>
   <g id="patch_59">
    <path clip-path="url(#p8f63146449)" d="M 394.674733 70.704 
L 437.858782 70.704 
L 437.858782 94.896 
L 394.674733 94.896 
z
" style="fill:#c7e9c0;"/>
   </g>
   <g id="patch_60">
    <path clip-path="url(#p8f63146449)" d="M 372.966385 100.944 
L 413.603868 100.944 
L 413.603868 125.136 
L 372.966385 125.136 
z
" style="fill:#c7e9c0;"/>
   </g>
   <g id="patch_61">
    <path clip-path="url(#p8f63146449)" d="M 367.987087 131.184 
L 408.670476 131.184 
L 408.670476 155.376 
L 367.987087 155.376 
z
" style="fill:#c7e9c0;"/>
   </g>
   <g id="patch_62">
    <path clip-path="url(#p8f63146449)" d="M 363.922494 161.424 
L 401.283917 161.424 
L 401.283917 185.616 
L 363.922494 185.616 
z
" style="fill:#c7e9c0;"/>
   </g>
   <g id="patch_63">
    <path clip-path="url(#p8f63146449)" d="M 361.2627 191.664 
L 397.82921 191.664 
L 397.82921 215.856 
L 361.2627 215.856 
z
" style="fill:#c7e9c0;"/>
   </g>
   <g id="patch_64">
    <path clip-path="url(#p8f63146449)" d="M 358.097557 221.904 
L 394.110503 221.904 
L 394.110503 246.096 
L 358.097557 246.096 
z
" style="fill:#c7e9c0;"/>
   </g>
   <g id="patch_65">
    <path clip-path="url(#p8f63146449)" d="M 366.856442 252.144 
L 404.844978 252.144 
L 404.844978 276.336 
L 366.856442 276.336 
z
" style="fill:#c7e9c0;"/>
   </g>
   <g id="patch_66">
    <path clip-path="url(#p8f63146449)" d="M 361.049315 282.384 
L 399.88566 282.384 
L 399.88566 306.576 
L 361.049315 306.576 
z
" style="fill:#c7e9c0;"/>
   </g>
   <g id="patch_67">
    <path clip-path="url(#p8f63146449)" d="M 366.591044 312.624 
L 402.723556 312.624 
L 402.723556 336.816 
L 366.591044 336.816 
z
" style="fill:#c7e9c0;"/>
   </g>
   <g id="patch_68">
    <path clip-path="url(#p8f63146449)" d="M 425.144989 10.224 
L 474.888838 10.224 
L 474.888838 34.416 
L 425.144989 34.416 
z
" style="fill:#d9d9d9;"/>
   </g>
   <g id="patch_69">
    <path clip-path="url(#p8f63146449)" d="M 436.730279 40.464 
L 488.566659 40.464 
L 488.566659 64.656 
L 436.730279 64.656 
z
" style="fill:#d9d9d9;"/>
   </g>
   <g id="patch_70">
    <path clip-path="url(#p8f63146449)" d="M 437.858782 70.704 
L 491.005475 70.704 
L 491.005475 94.896 
L 437.858782 94.896 
z
" style="fill:#d9d9d9;"/>
   </g>
   <g id="patch_71">
    <path clip-path="url(#p8f63146449)" d="M 413.603868 100.944 
L 465.428804 100.944 
L 465.428804 125.136 
L 413.603868 125.136 
z
" style="fill:#d9d9d9;"/>
   </g>
   <g id="patch_72">
    <path clip-path="url(#p8f63146449)" d="M 408.670476 131.184 
L 461.596171 131.184 
L 461.596171 155.376 
L 408.670476 155.376 
z
" style="fill:#d9d9d9;"/>
   </g>
   <g id="patch_73">
    <path clip-path="url(#p8f63146449)" d="M 401.283917 161.424 
L 448.731893 161.424 
L 448.731893 185.616 
L 401.283917 185.616 
z
" style="fill:#d9d9d9;"/>
   </g>
   <g id="patch_74">
    <path clip-path="url(#p8f63146449)" d="M 397.82921 191.664 
L 444.501633 191.664 
L 444.501633 215.856 
L 397.82921 215.856 
z
" style="fill:#d9d9d9;"/>
   </g>
   <g id="patch_75">
    <path clip-path="url(#p8f63146449)" d="M 394.110503 221.904 
L 435.782136 221.904 
L 435.782136 246.096 
L 394.110503 246.096 
z
" style="fill:#d9d9d9;"/>
   </g>
   <g id="patch_76">
    <path clip-path="url(#p8f63146449)" d="M 404.844978 252.144 
L 450.962691 252.144 
L 450.962691 276.336 
L 404.844978 276.336 
z
" style="fill:#d9d9d9;"/>
   </g>
   <g id="patch_77">
    <path clip-path="url(#p8f63146449)" d="M 399.88566 282.384 
L 444.788943 282.384 
L 444.788943 306.576 
L 399.88566 306.576 
z
" style="fill:#d9d9d9;"/>
   </g>
   <g id="patch_78">
    <path clip-path="url(#p8f63146449)" d="M 402.723556 312.624 
L 448.899348 312.624 
L 448.899348 336.816 
L 402.723556 336.816 
z
" style="fill:#d9d9d9;"/>
   </g>
   <g id="patch_79">
    <path clip-path="url(#p8f63146449)" d="M 474.888838 10.224 
L 527.758843 10.224 
L 527.758843 34.416 
L 474.888838 34.416 
z
" style="fill:#969696;"/>
   </g>
   <g id="patch_80">
    <path clip-path="url(#p8f63146449)" d="M 488.566659 40.464 
L 543.132398 40.464 
L 543.132398 64.656 
L 488.566659 64.656 
z
" style="fill:#969696;"/>
   </g>
   <g id="patch_81">
    <path clip-path="url(#p8f63146449)" d="M 491.005475 70.704 
L 545.835398 70.704 
L 545.835398 94.896 
L 491.005475 94.896 
z
" style="fill:#969696;"/>
   </g>
   <g id="patch_82">
    <path clip-path="url(#p8f63146449)" d="M 465.428804 100.944 
L 517.199616 100.944 
L 517.199616 125.136 
L 465.428804 125.136 
z
" style="fill:#969696;"/>
   </g>
   <g id="patch_83">
    <path clip-path="url(#p8f63146449)" d="M 461.596171 131.184 
L 513.210304 131.184 
L 513.210304 155.376 
L 461.596171 155.376 
z
" style="fill:#969696;"/>
   </g>
   <g id="patch_84">
    <path clip-path="url(#p8f63146449)" d="M 448.731893 161.424 
L 498.497192 161.424 
L 498.497192 185.616 
L 448.731893 185.616 
z
" style="fill:#969696;"/>
   </g>
   <g id="patch_85">
    <path clip-path="url(#p8f63146449)" d="M 444.501633 191.664 
L 496.471088 191.664 
L 496.471088 215.856 
L 444.501633 215.856 
z
" style="fill:#969696;"/>
   </g>
   <g id="patch_86">
    <path clip-path="url(#p8f63146449)" d="M 435.782136 221.904 
L 483.165544 221.904 
L 483.165544 246.096 
L 435.782136 246.096 
z
" style="fill:#969696;"/>
   </g>
   <g id="patch_87">
    <path clip-path="url(#p8f63146449)" d="M 450.962691 252.144 
L 501.613773 252.144 
L 501.613773 276.336 
L 450.962691 276.336 
z
" style="fill:#969696;"/>
   </g>
   <g id="patch_88">
    <path clip-path="url(#p8f63146449)" d="M 444.788943 282.384 
L 495.208583 282.384 
L 495.208583 306.576 
L 444.788943 306.576 
z
" style="fill:#969696;"/>
   </g>
   <g id="patch_89">
    <path clip-path="url(#p8f63146449)" d="M 448.899348 312.624 
L 496.538123 312.624 
L 496.538123 336.816 
L 448.899348 336.816 
z
" style="fill:#969696;"/>
   </g>
   <g id="patch_90">
    <path clip-path="url(#p8f63146449)" d="M 527.758843 10.224 
L 551.524246 10.224 
L 551.524246 34.416 
L 527.758843 34.416 
z
" style="fill:#525252;"/>
   </g>
   <g id="patch_91">
    <path clip-path="url(#p8f63146449)" d="M 543.132398 40.464 
L 566.343518 40.464 
L 566.343518 64.656 
L 543.132398 64.656 
z
" style="fill:#525252;"/>
   </g>
   <g id="patch_92">
    <path clip-path="url(#p8f63146449)" d="M 545.835398 70.704 
L 569.333239 70.704 
L 569.333239 94.896 
L 545.835398 94.896 
z
" style="fill:#525252;"/>
   </g>
   <g id="patch_93">
    <path clip-path="url(#p8f63146449)" d="M 517.199616 100.944 
L 539.69865 100.944 
L 539.69865 125.136 
L 517.199616 125.136 
z
" style="fill:#525252;"/>
   </g>
   <g id="patch_94">
    <path clip-path="url(#p8f63146449)" d="M 513.210304 131.184 
L 536.322282 131.184 
L 536.322282 155.376 
L 513.210304 155.376 
z
" style="fill:#525252;"/>
   </g>
   <g id="patch_95">
    <path clip-path="url(#p8f63146449)" d="M 498.497192 161.424 
L 520.552033 161.424 
L 520.552033 185.616 
L 498.497192 185.616 
z
" style="fill:#525252;"/>
   </g>
   <g id="patch_96">
    <path clip-path="url(#p8f63146449)" d="M 496.471088 191.664 
L 517.603125 191.664 
L 517.603125 215.856 
L 496.471088 215.856 
z
" style="fill:#525252;"/>
   </g>
   <g id="patch_97">
    <path clip-path="url(#p8f63146449)" d="M 483.165544 221.904 
L 503.124986 221.904 
L 503.124986 246.096 
L 483.165544 246.096 
z
" style="fill:#525252;"/>
   </g>
   <g id="patch_98">
    <path clip-path="url(#p8f63146449)" d="M 501.613773 252.144 
L 523.340081 252.144 
L 523.340081 276.336 
L 501.613773 276.336 
z
" style="fill:#525252;"/>
   </g>
   <g id="patch_99">
    <path clip-path="url(#p8f63146449)" d="M 495.208583 282.384 
L 516.597284 282.384 
L 516.597284 306.576 
L 495.208583 306.576 
z
" style="fill:#525252;"/>
   </g>
   <g id="patch_100">
    <path clip-path="url(#p8f63146449)" d="M 496.538123 312.624 
L 518.283101 312.624 
L 518.283101 336.816 
L 496.538123 336.816 
z
" style="fill:#525252;"/>
   </g>
   <g id="patch_101">
    <path clip-path="url(#p8f63146449)" d="M 551.524246 10.224 
L 615.083592 10.224 
L 615.083592 34.416 
L 551.524246 34.416 
z
" style="fill:#dadaeb;"/>
   </g>
   <g id="patch_102">
    <path clip-path="url(#p8f63146449)" d="M 566.343518 40.464 
L 629.189459 40.464 
L 629.189459 64.656 
L 566.343518 64.656 
z
" style="fill:#dadaeb;"/>
   </g>
   <g id="patch_103">
    <path clip-path="url(#p8f63146449)" d="M 569.333239 70.704 
L 634.477071 70.704 
L 634.477071 94.896 
L 569.333239 94.896 
z
" style="fill:#dadaeb;"/>
   </g>
   <g id="patch_104">
    <path clip-path="url(#p8f63146449)" d="M 539.69865 100.944 
L 603.507626 100.944 
L 603.507626 125.136 
L 539.69865 125.136 
z
" style="fill:#dadaeb;"/>
   </g>
   <g id="patch_105">
    <path clip-path="url(#p8f63146449)" d="M 536.322282 131.184 
L 600.497317 131.184 
L 600.497317 155.376 
L 536.322282 155.376 
z
" style="fill:#dadaeb;"/>
   </g>
   <g id="patch_106">
    <path clip-path="url(#p8f63146449)" d="M 520.552033 161.424 
L 577.318479 161.424 
L 577.318479 185.616 
L 520.552033 185.616 
z
" style="fill:#dadaeb;"/>
   </g>
   <g id="patch_107">
    <path clip-path="url(#p8f63146449)" d="M 517.603125 191.664 
L 574.509613 191.664 
L 574.509613 215.856 
L 517.603125 215.856 
z
" style="fill:#dadaeb;"/>
   </g>
   <g id="patch_108">
    <path clip-path="url(#p8f63146449)" d="M 503.124986 221.904 
L 559.942062 221.904 
L 559.942062 246.096 
L 503.124986 246.096 
z
" style="fill:#dadaeb;"/>
   </g>
   <g id="patch_109">
    <path clip-path="url(#p8f63146449)" d="M 523.340081 252.144 
L 583.907565 252.144 
L 583.907565 276.336 
L 523.340081 276.336 
z
" style="fill:#dadaeb;"/>
   </g>
   <g id="patch_110">
    <path clip-path="url(#p8f63146449)" d="M 516.597284 282.384 
L 575.317322 282.384 
L 575.317322 306.576 
L 516.597284 306.576 
z
" style="fill:#dadaeb;"/>
   </g>
   <g id="patch_111">
    <path clip-path="url(#p8f63146449)" d="M 518.283101 312.624 
L 579.414106 312.624 
L 579.414106 336.816 
L 518.283101 336.816 
z
" style="fill:#dadaeb;"/>
   </g>
   <g id="patch_112">
    <path clip-path="url(#p8f63146449)" d="M 615.083592 10.224 
L 731.834569 10.224 
L 731.834569 34.416 
L 615.083592 34.416 
z
" style="fill:#9e9ac8;"/>
   </g>
   <g id="patch_113">
    <path clip-path="url(#p8f63146449)" d="M 629.189459 40.464 
L 748.239608 40.464 
L 748.239608 64.656 
L 629.189459 64.656 
z
" style="fill:#9e9ac8;"/>
   </g>
   <g id="patch_114">
    <path clip-path="url(#p8f63146449)" d="M 634.477071 70.704 
L 756.870751 70.704 
L 756.870751 94.896 
L 634.477071 94.896 
z
" style="fill:#9e9ac8;"/>
   </g>
   <g id="patch_115">
    <path clip-path="url(#p8f63146449)" d="M 603.507626 100.944 
L 719.845124 100.944 
L 719.845124 125.136 
L 603.507626 125.136 
z
" style="fill:#9e9ac8;"/>
   </g>
   <g id="patch_116">
    <path clip-path="url(#p8f63146449)" d="M 600.497317 131.184 
L 721.015099 131.184 
L 721.015099 155.376 
L 600.497317 155.376 
z
" style="fill:#9e9ac8;"/>
   </g>
   <g id="patch_117">
    <path clip-path="url(#p8f63146449)" d="M 577.318479 161.424 
L 687.893779 161.424 
L 687.893779 185.616 
L 577.318479 185.616 
z
" style="fill:#9e9ac8;"/>
   </g>
   <g id="patch_118">
    <path clip-path="url(#p8f63146449)" d="M 574.509613 191.664 
L 683.242937 191.664 
L 683.242937 215.856 
L 574.509613 215.856 
z
" style="fill:#9e9ac8;"/>
   </g>
   <g id="patch_119">
    <path clip-path="url(#p8f63146449)" d="M 559.942062 221.904 
L 670.683326 221.904 
L 670.683326 246.096 
L 559.942062 246.096 
z
" style="fill:#9e9ac8;"/>
   </g>
   <g id="patch_120">
    <path clip-path="url(#p8f63146449)" d="M 583.907565 252.144 
L 694.799282 252.144 
L 694.799282 276.336 
L 583.907565 276.336 
z
" style="fill:#9e9ac8;"/>
   </g>
   <g id="patch_121">
    <path clip-path="url(#p8f63146449)" d="M 575.317322 282.384 
L 684.81416 282.384 
L 684.81416 306.576 
L 575.317322 306.576 
z
" style="fill:#9e9ac8;"/>
   </g>
   <g id="patch_122">
    <path clip-path="url(#p8f63146449)" d="M 579.414106 312.624 
L 690.552203 312.624 
L 690.552203 336.816 
L 579.414106 336.816 
z
" style="fill:#9e9ac8;"/>
   </g>
   <g id="patch_123">
    <path clip-path="url(#p8f63146449)" d="M 731.834569 10.224 
L 782.796485 10.224 
L 782.796485 34.416 
L 731.834569 34.416 
z
" style="fill:#6a51a3;"/>
   </g>
   <g id="patch_124">
    <path clip-path="url(#p8f63146449)" d="M 748.239608 40.464 
L 799.443569 40.464 
L 799.443569 64.656 
L 748.239608 64.656 
z
" style="fill:#6a51a3;"/>
   </g>
   <g id="patch_125">
    <path clip-path="url(#p8f63146449)" d="M 756.870751 70.704 
L 809.92875 70.704 
L 809.92875 94.896 
L 756.870751 94.896 
z
" style="fill:#6a51a3;"/>
   </g>
   <g id="patch_126">
    <path clip-path="url(#p8f63146449)" d="M 719.845124 100.944 
L 769.823769 100.944 
L 769.823769 125.136 
L 719.845124 125.136 
z
" style="fill:#6a51a3;"/>
   </g>
   <g id="patch_127">
    <path clip-path="url(#p8f63146449)" d="M 721.015099 131.184 
L 772.381741 131.184 
L 772.381741 155.376 
L 721.015099 155.376 
z
" style="fill:#6a51a3;"/>
   </g>
   <g id="patch_128">
    <path clip-path="url(#p8f63146449)" d="M 687.893779 161.424 
L 733.255015 161.424 
L 733.255015 185.616 
L 687.893779 185.616 
z
" style="fill:#6a51a3;"/>
   </g>
   <g id="patch_129">
    <path clip-path="url(#p8f63146449)" d="M 683.242937 191.664 
L 730.28719 191.664 
L 730.28719 215.856 
L 683.242937 215.856 
z
" style="fill:#6a51a3;"/>
   </g>
   <g id="patch_130">
    <path clip-path="url(#p8f63146449)" d="M 670.683326 221.904 
L 718.232068 221.904 
L 718.232068 246.096 
L 670.683326 246.096 
z
" style="fill:#6a51a3;"/>
   </g>
   <g id="patch_131">
    <path clip-path="url(#p8f63146449)" d="M 694.799282 252.144 
L 744.125062 252.144 
L 744.125062 276.336 
L 694.799282 276.336 
z
" style="fill:#6a51a3;"/>
   </g>
   <g id="patch_132">
    <path clip-path="url(#p8f63146449)" d="M 684.81416 282.384 
L 733.280948 282.384 
L 733.280948 306.576 
L 684.81416 306.576 
z
" style="fill:#6a51a3;"/>
   </g>
   <g id="patch_133">
    <path clip-path="url(#p8f63146449)" d="M 690.552203 312.624 
L 737.62356 312.624 
L 737.62356 336.816 
L 690.552203 336.816 
z
" style="fill:#6a51a3;"/>
   </g>
   <g id="text_21">
    <!-- Slamdunk: Overall conversion rates in reads -->
    <defs>
     <path d="M 54.890625 33.015625 
L 54.890625 0 
L 45.90625 0 
L 45.90625 32.71875 
Q 45.90625 40.484375 42.875 44.328125 
Q 39.84375 48.1875 33.796875 48.1875 
Q 26.515625 48.1875 22.3125 43.546875 
Q 18.109375 38.921875 18.109375 30.90625 
L 18.109375 0 
L 9.078125 0 
L 9.078125 54.6875 
L 18.109375 54.6875 
L 18.109375 46.1875 
Q 21.34375 51.125 25.703125 53.5625 
Q 30.078125 56 35.796875 56 
Q 45.21875 56 50.046875 50.171875 
Q 54.890625 44.34375 54.890625 33.015625 
z
" id="DejaVuSans-110"/>
     <path d="M 9.078125 75.984375 
L 18.109375 75.984375 
L 18.109375 31.109375 
L 44.921875 54.6875 
L 56.390625 54.6875 
L 27.390625 29.109375 
L 57.625 0 
L 45.90625 0 
L 18.109375 26.703125 
L 18.109375 0 
L 9.078125 0 
z
" id="DejaVuSans-107"/>
     <path d="M 11.71875 12.40625 
L 22.015625 12.40625 
L 22.015625 0 
L 11.71875 0 
z
M 11.71875 51.703125 
L 22.015625 51.703125 
L 22.015625 39.3125 
L 11.71875 39.3125 
z
" id="DejaVuSans-58"/>
     <path d="M 39.40625 66.21875 
Q 28.65625 66.21875 22.328125 58.203125 
Q 16.015625 50.203125 16.015625 36.375 
Q 16.015625 22.609375 22.328125 14.59375 
Q 28.65625 6.59375 39.40625 6.59375 
Q 50.140625 6.59375 56.421875 14.59375 
Q 62.703125 22.609375 62.703125 36.375 
Q 62.703125 50.203125 56.421875 58.203125 
Q 50.140625 66.21875 39.40625 66.21875 
z
M 39.40625 74.21875 
Q 54.734375 74.21875 63.90625 63.9375 
Q 73.09375 53.65625 73.09375 36.375 
Q 73.09375 19.140625 63.90625 8.859375 
Q 54.734375 -1.421875 39.40625 -1.421875 
Q 24.03125 -1.421875 14.8125 8.828125 
Q 5.609375 19.09375 5.609375 36.375 
Q 5.609375 53.65625 14.8125 63.9375 
Q 24.03125 74.21875 39.40625 74.21875 
z
" id="DejaVuSans-79"/>
     <path d="M 48.78125 52.59375 
L 48.78125 44.1875 
Q 44.96875 46.296875 41.140625 47.34375 
Q 37.3125 48.390625 33.40625 48.390625 
Q 24.65625 48.390625 19.8125 42.84375 
Q 14.984375 37.3125 14.984375 27.296875 
Q 14.984375 17.28125 19.8125 11.734375 
Q 24.65625 6.203125 33.40625 6.203125 
Q 37.3125 6.203125 41.140625 7.25 
Q 44.96875 8.296875 48.78125 10.40625 
L 48.78125 2.09375 
Q 45.015625 0.34375 40.984375 -0.53125 
Q 36.96875 -1.421875 32.421875 -1.421875 
Q 20.0625 -1.421875 12.78125 6.34375 
Q 5.515625 14.109375 5.515625 27.296875 
Q 5.515625 40.671875 12.859375 48.328125 
Q 20.21875 56 33.015625 56 
Q 37.15625 56 41.109375 55.140625 
Q 45.0625 54.296875 48.78125 52.59375 
z
" id="DejaVuSans-99"/>
     <path d="M 9.421875 54.6875 
L 18.40625 54.6875 
L 18.40625 0 
L 9.421875 0 
z
M 9.421875 75.984375 
L 18.40625 75.984375 
L 18.40625 64.59375 
L 9.421875 64.59375 
z
" id="DejaVuSans-105"/>
     <path d="M 18.3125 70.21875 
L 18.3125 54.6875 
L 36.8125 54.6875 
L 36.8125 47.703125 
L 18.3125 47.703125 
L 18.3125 18.015625 
Q 18.3125 11.328125 20.140625 9.421875 
Q 21.96875 7.515625 27.59375 7.515625 
L 36.8125 7.515625 
L 36.8125 0 
L 27.59375 0 
Q 17.1875 0 13.234375 3.875 
Q 9.28125 7.765625 9.28125 18.015625 
L 9.28125 47.703125 
L 2.6875 47.703125 
L 2.6875 54.6875 
L 9.28125 54.6875 
L 9.28125 70.21875 
z
" id="DejaVuSans-116"/>
    </defs>
    <g transform="translate(278.95 -20.52)scale(0.16 -0.16)">
     <use xlink:href="#DejaVuSans-83"/>
     <use x="63.476562" xlink:href="#DejaVuSans-108"/>
     <use x="91.259766" xlink:href="#DejaVuSans-97"/>
     <use x="152.539062" xlink:href="#DejaVuSans-109"/>
     <use x="249.951172" xlink:href="#DejaVuSans-100"/>
     <use x="313.427734" xlink:href="#DejaVuSans-117"/>
     <use x="376.806641" xlink:href="#DejaVuSans-110"/>
     <use x="440.185547" xlink:href="#DejaVuSans-107"/>
     <use x="498.095703" xlink:href="#DejaVuSans-58"/>
     <use x="531.787109" xlink:href="#DejaVuSans-32"/>
     <use x="563.574219" xlink:href="#DejaVuSans-79"/>
     <use x="642.285156" xlink:href="#DejaVuSans-118"/>
     <use x="701.464844" xlink:href="#DejaVuSans-101"/>
     <use x="762.988281" xlink:href="#DejaVuSans-114"/>
     <use x="804.101562" xlink:href="#DejaVuSans-97"/>
     <use x="865.380859" xlink:href="#DejaVuSans-108"/>
     <use x="893.164062" xlink:href="#DejaVuSans-108"/>
     <use x="920.947266" xlink:href="#DejaVuSans-32"/>
     <use x="952.734375" xlink:href="#DejaVuSans-99"/>
     <use x="1007.714844" xlink:href="#DejaVuSans-111"/>
     <use x="1068.896484" xlink:href="#DejaVuSans-110"/>
     <use x="1132.275391" xlink:href="#DejaVuSans-118"/>
     <use x="1191.455078" xlink:href="#DejaVuSans-101"/>
     <use x="1252.978516" xlink:href="#DejaVuSans-114"/>
     <use x="1294.091797" xlink:href="#DejaVuSans-115"/>
     <use x="1346.191406" xlink:href="#DejaVuSans-105"/>
     <use x="1373.974609" xlink:href="#DejaVuSans-111"/>
     <use x="1435.15625" xlink:href="#DejaVuSans-110"/>
     <use x="1498.535156" xlink:href="#DejaVuSans-32"/>
     <use x="1530.322266" xlink:href="#DejaVuSans-114"/>
     <use x="1571.435547" xlink:href="#DejaVuSans-97"/>
     <use x="1632.714844" xlink:href="#DejaVuSans-116"/>
     <use x="1671.923828" xlink:href="#DejaVuSans-101"/>
     <use x="1733.447266" xlink:href="#DejaVuSans-115"/>
     <use x="1785.546875" xlink:href="#DejaVuSans-32"/>
     <use x="1817.333984" xlink:href="#DejaVuSans-105"/>
     <use x="1845.117188" xlink:href="#DejaVuSans-110"/>
     <use x="1908.496094" xlink:href="#DejaVuSans-32"/>
     <use x="1940.283203" xlink:href="#DejaVuSans-114"/>
     <use x="1981.365234" xlink:href="#DejaVuSans-101"/>
     <use x="2042.888672" xlink:href="#DejaVuSans-97"/>
     <use x="2104.167969" xlink:href="#DejaVuSans-100"/>
     <use x="2167.644531" xlink:href="#DejaVuSans-115"/>
    </g>
   </g>
   <g id="legend_1">
    <g id="patch_134">
     <path d="M 73.12875 390.65125 
L 89.12875 390.65125 
L 89.12875 385.05125 
L 73.12875 385.05125 
z
" style="fill:#fdbf6f;"/>
    </g>
    <g id="text_22">
     <!-- T&gt;C -->
     <defs>
      <path d="M 10.59375 49.21875 
L 10.59375 58.109375 
L 73.1875 35.40625 
L 73.1875 27.296875 
L 10.59375 4.59375 
L 10.59375 13.484375 
L 60.890625 31.296875 
z
" id="DejaVuSans-62"/>
      <path d="M 64.40625 67.28125 
L 64.40625 56.890625 
Q 59.421875 61.53125 53.78125 63.8125 
Q 48.140625 66.109375 41.796875 66.109375 
Q 29.296875 66.109375 22.65625 58.46875 
Q 16.015625 50.828125 16.015625 36.375 
Q 16.015625 21.96875 22.65625 14.328125 
Q 29.296875 6.6875 41.796875 6.6875 
Q 48.140625 6.6875 53.78125 8.984375 
Q 59.421875 11.28125 64.40625 15.921875 
L 64.40625 5.609375 
Q 59.234375 2.09375 53.4375 0.328125 
Q 47.65625 -1.421875 41.21875 -1.421875 
Q 24.65625 -1.421875 15.125 8.703125 
Q 5.609375 18.84375 5.609375 36.375 
Q 5.609375 53.953125 15.125 64.078125 
Q 24.65625 74.21875 41.21875 74.21875 
Q 47.75 74.21875 53.53125 72.484375 
Q 59.328125 70.75 64.40625 67.28125 
z
" id="DejaVuSans-67"/>
     </defs>
     <g transform="translate(95.52875 390.65125)scale(0.08 -0.08)">
      <use xlink:href="#DejaVuSans-84"/>
      <use x="61.083984" xlink:href="#DejaVuSans-62"/>
      <use x="144.873047" xlink:href="#DejaVuSans-67"/>
     </g>
    </g>
    <g id="patch_135">
     <path d="M 73.12875 402.39375 
L 89.12875 402.39375 
L 89.12875 396.79375 
L 73.12875 396.79375 
z
" style="fill:#2171b5;"/>
    </g>
    <g id="text_23">
     <!-- A&gt;T -->
     <defs>
      <path d="M 34.1875 63.1875 
L 20.796875 26.90625 
L 47.609375 26.90625 
z
M 28.609375 72.90625 
L 39.796875 72.90625 
L 67.578125 0 
L 57.328125 0 
L 50.6875 18.703125 
L 17.828125 18.703125 
L 11.1875 0 
L 0.78125 0 
z
" id="DejaVuSans-65"/>
     </defs>
     <g transform="translate(95.52875 402.39375)scale(0.08 -0.08)">
      <use xlink:href="#DejaVuSans-65"/>
      <use x="68.408203" xlink:href="#DejaVuSans-62"/>
      <use x="152.197266" xlink:href="#DejaVuSans-84"/>
     </g>
    </g>
    <g id="patch_136">
     <path d="M 73.12875 414.13625 
L 89.12875 414.13625 
L 89.12875 408.53625 
L 73.12875 408.53625 
z
" style="fill:#6baed6;"/>
    </g>
    <g id="text_24">
     <!-- A&gt;G -->
     <g transform="translate(95.52875 414.13625)scale(0.08 -0.08)">
      <use xlink:href="#DejaVuSans-65"/>
      <use x="68.408203" xlink:href="#DejaVuSans-62"/>
      <use x="152.197266" xlink:href="#DejaVuSans-71"/>
     </g>
    </g>
    <g id="patch_137">
     <path d="M 254.724688 390.65125 
L 270.724688 390.65125 
L 270.724688 385.05125 
L 254.724688 385.05125 
z
" style="fill:#c6dbef;"/>
    </g>
    <g id="text_25">
     <!-- A&gt;C -->
     <g transform="translate(277.124687 390.65125)scale(0.08 -0.08)">
      <use xlink:href="#DejaVuSans-65"/>
      <use x="68.408203" xlink:href="#DejaVuSans-62"/>
      <use x="152.197266" xlink:href="#DejaVuSans-67"/>
     </g>
    </g>
    <g id="patch_138">
     <path d="M 254.724688 402.39375 
L 270.724688 402.39375 
L 270.724688 396.79375 
L 254.724688 396.79375 
z
" style="fill:#74c476;"/>
    </g>
    <g id="text_26">
     <!-- T&gt;A -->
     <g transform="translate(277.124687 402.39375)scale(0.08 -0.08)">
      <use xlink:href="#DejaVuSans-84"/>
      <use x="61.083984" xlink:href="#DejaVuSans-62"/>
      <use x="144.873047" xlink:href="#DejaVuSans-65"/>
     </g>
    </g>
    <g id="patch_139">
     <path d="M 254.724688 414.13625 
L 270.724688 414.13625 
L 270.724688 408.53625 
L 254.724688 408.53625 
z
" style="fill:#c7e9c0;"/>
    </g>
    <g id="text_27">
     <!-- T&gt;G -->
     <g transform="translate(277.124687 414.13625)scale(0.08 -0.08)">
      <use xlink:href="#DejaVuSans-84"/>
      <use x="61.083984" xlink:href="#DejaVuSans-62"/>
      <use x="144.873047" xlink:href="#DejaVuSans-71"/>
     </g>
    </g>
    <g id="patch_140">
     <path d="M 435.734375 390.65125 
L 451.734375 390.65125 
L 451.734375 385.05125 
L 435.734375 385.05125 
z
" style="fill:#d9d9d9;"/>
    </g>
    <g id="text_28">
     <!-- G&gt;A -->
     <g transform="translate(458.134375 390.65125)scale(0.08 -0.08)">
      <use xlink:href="#DejaVuSans-71"/>
      <use x="77.490234" xlink:href="#DejaVuSans-62"/>
      <use x="161.279297" xlink:href="#DejaVuSans-65"/>
     </g>
    </g>
    <g id="patch_141">
     <path d="M 435.734375 402.39375 
L 451.734375 402.39375 
L 451.734375 396.79375 
L 435.734375 396.79375 
z
" style="fill:#969696;"/>
    </g>
    <g id="text_29">
     <!-- G&gt;T -->
     <g transform="translate(458.134375 402.39375)scale(0.08 -0.08)">
      <use xlink:href="#DejaVuSans-71"/>
      <use x="77.490234" xlink:href="#DejaVuSans-62"/>
      <use x="161.279297" xlink:href="#DejaVuSans-84"/>
     </g>
    </g>
    <g id="patch_142">
     <path d="M 617.330312 390.65125 
L 633.330312 390.65125 
L 633.330312 385.05125 
L 617.330312 385.05125 
z
" style="fill:#525252;"/>
    </g>
    <g id="text_30">
     <!-- G&gt;C -->
     <g transform="translate(639.730312 390.65125)scale(0.08 -0.08)">
      <use xlink:href="#DejaVuSans-71"/>
      <use x="77.490234" xlink:href="#DejaVuSans-62"/>
      <use x="161.279297" xlink:href="#DejaVuSans-67"/>
     </g>
    </g>
    <g id="patch_143">
     <path d="M 617.330312 402.39375 
L 633.330312 402.39375 
L 633.330312 396.79375 
L 617.330312 396.79375 
z
" style="fill:#dadaeb;"/>
    </g>
    <g id="text_31">
     <!-- C&gt;A -->
     <g transform="translate(639.730312 402.39375)scale(0.08 -0.08)">
      <use xlink:href="#DejaVuSans-67"/>
      <use x="69.824219" xlink:href="#DejaVuSans-62"/>
      <use x="153.613281" xlink:href="#DejaVuSans-65"/>
     </g>
    </g>
    <g id="patch_144">
     <path d="M 799.04 390.65125 
L 815.04 390.65125 
L 815.04 385.05125 
L 799.04 385.05125 
z
" style="fill:#9e9ac8;"/>
    </g>
    <g id="text_32">
     <!-- C&gt;T -->
     <g transform="translate(821.44 390.65125)scale(0.08 -0.08)">
      <use xlink:href="#DejaVuSans-67"/>
      <use x="69.824219" xlink:href="#DejaVuSans-62"/>
      <use x="153.613281" xlink:href="#DejaVuSans-84"/>
     </g>
    </g>
    <g id="patch_145">
     <path d="M 799.04 402.39375 
L 815.04 402.39375 
L 815.04 396.79375 
L 799.04 396.79375 
z
" style="fill:#6a51a3;"/>
    </g>
    <g id="text_33">
     <!-- C&gt;G -->
     <g transform="translate(821.44 402.39375)scale(0.08 -0.08)">
      <use xlink:href="#DejaVuSans-67"/>
      <use x="69.824219" xlink:href="#DejaVuSans-62"/>
      <use x="153.613281" xlink:href="#DejaVuSans-71"/>
     </g>
    </g>
   </g>
  </g>
 </g>
 <defs>
  <clipPath id="p8f63146449">
   <rect height="332.64" width="781.2" x="65.92875" y="7.2"/>
  </clipPath>
 </defs>
</svg>
