<?xml version="1.0" encoding="utf-8" standalone="no"?>
<!DOCTYPE svg PUBLIC "-//W3C//DTD SVG 1.1//EN"
  "http://www.w3.org/Graphics/SVG/1.1/DTD/svg11.dtd">
<!-- Created with matplotlib (https://matplotlib.org/) -->
<svg height="330.541644pt" version="1.1" viewBox="0 0 1000.298125 330.541644" width="1000.298125pt" xmlns="http://www.w3.org/2000/svg" xmlns:xlink="http://www.w3.org/1999/xlink">
 <defs>
  <style type="text/css">
*{stroke-linecap:butt;stroke-linejoin:round;}
  </style>
 </defs>
 <g id="figure_1">
  <g id="axes_1">
   <g id="patch_1">
    <path d="M 32.968125 273.99006 
L 985.463125 273.99006 
L 985.463125 31.48286 
L 32.968125 31.48286 
z
" style="fill:#ffffff;"/>
   </g>
   <g id="matplotlib.axis_1">
    <g id="xtick_1">
     <g id="text_1">
      <!-- 0 -->
      <defs>
       <path d="M 31.78125 66.40625 
Q 24.171875 66.40625 20.328125 58.90625 
Q 16.5 51.421875 16.5 36.375 
Q 16.5 21.390625 20.328125 13.890625 
Q 24.171875 6.390625 31.78125 6.390625 
Q 39.453125 6.390625 43.28125 13.890625 
Q 47.125 21.390625 47.125 36.375 
Q 47.125 51.421875 43.28125 58.90625 
Q 39.453125 66.40625 31.78125 66.40625 
z
M 31.78125 74.21875 
Q 44.046875 74.21875 50.515625 64.515625 
Q 56.984375 54.828125 56.984375 36.375 
Q 56.984375 17.96875 50.515625 8.265625 
Q 44.046875 -1.421875 31.78125 -1.421875 
Q 19.53125 -1.421875 13.0625 8.265625 
Q 6.59375 17.96875 6.59375 36.375 
Q 6.59375 54.828125 13.0625 64.515625 
Q 19.53125 74.21875 31.78125 74.21875 
z
" id="DejaVuSans-48"/>
      </defs>
      <g transform="translate(30.423125 287.06881)scale(0.08 -0.08)">
       <use xlink:href="#DejaVuSans-48"/>
      </g>
     </g>
    </g>
    <g id="xtick_2">
     <g id="text_2">
      <!-- 20 -->
      <defs>
       <path d="M 19.1875 8.296875 
L 53.609375 8.296875 
L 53.609375 0 
L 7.328125 0 
L 7.328125 8.296875 
Q 12.9375 14.109375 22.625 23.890625 
Q 32.328125 33.6875 34.8125 36.53125 
Q 39.546875 41.84375 41.421875 45.53125 
Q 43.3125 49.21875 43.3125 52.78125 
Q 43.3125 58.59375 39.234375 62.25 
Q 35.15625 65.921875 28.609375 65.921875 
Q 23.96875 65.921875 18.8125 64.3125 
Q 13.671875 62.703125 7.8125 59.421875 
L 7.8125 69.390625 
Q 13.765625 71.78125 18.9375 73 
Q 24.125 74.21875 28.421875 74.21875 
Q 39.75 74.21875 46.484375 68.546875 
Q 53.21875 62.890625 53.21875 53.421875 
Q 53.21875 48.921875 51.53125 44.890625 
Q 49.859375 40.875 45.40625 35.40625 
Q 44.1875 33.984375 37.640625 27.21875 
Q 31.109375 20.453125 19.1875 8.296875 
z
" id="DejaVuSans-50"/>
      </defs>
      <g transform="translate(218.377125 287.06881)scale(0.08 -0.08)">
       <use xlink:href="#DejaVuSans-50"/>
       <use x="63.623047" xlink:href="#DejaVuSans-48"/>
      </g>
     </g>
    </g>
    <g id="xtick_3">
     <g id="text_3">
      <!-- 40 -->
      <defs>
       <path d="M 37.796875 64.3125 
L 12.890625 25.390625 
L 37.796875 25.390625 
z
M 35.203125 72.90625 
L 47.609375 72.90625 
L 47.609375 25.390625 
L 58.015625 25.390625 
L 58.015625 17.1875 
L 47.609375 17.1875 
L 47.609375 0 
L 37.796875 0 
L 37.796875 17.1875 
L 4.890625 17.1875 
L 4.890625 26.703125 
z
" id="DejaVuSans-52"/>
      </defs>
      <g transform="translate(408.876125 287.06881)scale(0.08 -0.08)">
       <use xlink:href="#DejaVuSans-52"/>
       <use x="63.623047" xlink:href="#DejaVuSans-48"/>
      </g>
     </g>
    </g>
    <g id="xtick_4">
     <g id="text_4">
      <!-- 60 -->
      <defs>
       <path d="M 33.015625 40.375 
Q 26.375 40.375 22.484375 35.828125 
Q 18.609375 31.296875 18.609375 23.390625 
Q 18.609375 15.53125 22.484375 10.953125 
Q 26.375 6.390625 33.015625 6.390625 
Q 39.65625 6.390625 43.53125 10.953125 
Q 47.40625 15.53125 47.40625 23.390625 
Q 47.40625 31.296875 43.53125 35.828125 
Q 39.65625 40.375 33.015625 40.375 
z
M 52.59375 71.296875 
L 52.59375 62.3125 
Q 48.875 64.0625 45.09375 64.984375 
Q 41.3125 65.921875 37.59375 65.921875 
Q 27.828125 65.921875 22.671875 59.328125 
Q 17.53125 52.734375 16.796875 39.40625 
Q 19.671875 43.65625 24.015625 45.921875 
Q 28.375 48.1875 33.59375 48.1875 
Q 44.578125 48.1875 50.953125 41.515625 
Q 57.328125 34.859375 57.328125 23.390625 
Q 57.328125 12.15625 50.6875 5.359375 
Q 44.046875 -1.421875 33.015625 -1.421875 
Q 20.359375 -1.421875 13.671875 8.265625 
Q 6.984375 17.96875 6.984375 36.375 
Q 6.984375 53.65625 15.1875 63.9375 
Q 23.390625 74.21875 37.203125 74.21875 
Q 40.921875 74.21875 44.703125 73.484375 
Q 48.484375 72.75 52.59375 71.296875 
z
" id="DejaVuSans-54"/>
      </defs>
      <g transform="translate(599.375125 287.06881)scale(0.08 -0.08)">
       <use xlink:href="#DejaVuSans-54"/>
       <use x="63.623047" xlink:href="#DejaVuSans-48"/>
      </g>
     </g>
    </g>
    <g id="xtick_5">
     <g id="text_5">
      <!-- 80 -->
      <defs>
       <path d="M 31.78125 34.625 
Q 24.75 34.625 20.71875 30.859375 
Q 16.703125 27.09375 16.703125 20.515625 
Q 16.703125 13.921875 20.71875 10.15625 
Q 24.75 6.390625 31.78125 6.390625 
Q 38.8125 6.390625 42.859375 10.171875 
Q 46.921875 13.96875 46.921875 20.515625 
Q 46.921875 27.09375 42.890625 30.859375 
Q 38.875 34.625 31.78125 34.625 
z
M 21.921875 38.8125 
Q 15.578125 40.375 12.03125 44.71875 
Q 8.5 49.078125 8.5 55.328125 
Q 8.5 64.0625 14.71875 69.140625 
Q 20.953125 74.21875 31.78125 74.21875 
Q 42.671875 74.21875 48.875 69.140625 
Q 55.078125 64.0625 55.078125 55.328125 
Q 55.078125 49.078125 51.53125 44.71875 
Q 48 40.375 41.703125 38.8125 
Q 48.828125 37.15625 52.796875 32.3125 
Q 56.78125 27.484375 56.78125 20.515625 
Q 56.78125 9.90625 50.3125 4.234375 
Q 43.84375 -1.421875 31.78125 -1.421875 
Q 19.734375 -1.421875 13.25 4.234375 
Q 6.78125 9.90625 6.78125 20.515625 
Q 6.78125 27.484375 10.78125 32.3125 
Q 14.796875 37.15625 21.921875 38.8125 
z
M 18.3125 54.390625 
Q 18.3125 48.734375 21.84375 45.5625 
Q 25.390625 42.390625 31.78125 42.390625 
Q 38.140625 42.390625 41.71875 45.5625 
Q 45.3125 48.734375 45.3125 54.390625 
Q 45.3125 60.0625 41.71875 63.234375 
Q 38.140625 66.40625 31.78125 66.40625 
Q 25.390625 66.40625 21.84375 63.234375 
Q 18.3125 60.0625 18.3125 54.390625 
z
" id="DejaVuSans-56"/>
      </defs>
      <g transform="translate(789.874125 287.06881)scale(0.08 -0.08)">
       <use xlink:href="#DejaVuSans-56"/>
       <use x="63.623047" xlink:href="#DejaVuSans-48"/>
      </g>
     </g>
    </g>
    <g id="xtick_6">
     <g id="text_6">
      <!-- 100 -->
      <defs>
       <path d="M 12.40625 8.296875 
L 28.515625 8.296875 
L 28.515625 63.921875 
L 10.984375 60.40625 
L 10.984375 69.390625 
L 28.421875 72.90625 
L 38.28125 72.90625 
L 38.28125 8.296875 
L 54.390625 8.296875 
L 54.390625 0 
L 12.40625 0 
z
" id="DejaVuSans-49"/>
      </defs>
      <g transform="translate(977.828125 287.06881)scale(0.08 -0.08)">
       <use xlink:href="#DejaVuSans-49"/>
       <use x="63.623047" xlink:href="#DejaVuSans-48"/>
       <use x="127.246094" xlink:href="#DejaVuSans-48"/>
      </g>
     </g>
    </g>
    <g id="text_7">
     <!-- % GC -->
     <defs>
      <path d="M 72.703125 32.078125 
Q 68.453125 32.078125 66.03125 28.46875 
Q 63.625 24.859375 63.625 18.40625 
Q 63.625 12.0625 66.03125 8.421875 
Q 68.453125 4.78125 72.703125 4.78125 
Q 76.859375 4.78125 79.265625 8.421875 
Q 81.6875 12.0625 81.6875 18.40625 
Q 81.6875 24.8125 79.265625 28.4375 
Q 76.859375 32.078125 72.703125 32.078125 
z
M 72.703125 38.28125 
Q 80.421875 38.28125 84.953125 32.90625 
Q 89.5 27.546875 89.5 18.40625 
Q 89.5 9.28125 84.9375 3.921875 
Q 80.375 -1.421875 72.703125 -1.421875 
Q 64.890625 -1.421875 60.34375 3.921875 
Q 55.8125 9.28125 55.8125 18.40625 
Q 55.8125 27.59375 60.375 32.9375 
Q 64.9375 38.28125 72.703125 38.28125 
z
M 22.3125 68.015625 
Q 18.109375 68.015625 15.6875 64.375 
Q 13.28125 60.75 13.28125 54.390625 
Q 13.28125 47.953125 15.671875 44.328125 
Q 18.0625 40.71875 22.3125 40.71875 
Q 26.5625 40.71875 28.96875 44.328125 
Q 31.390625 47.953125 31.390625 54.390625 
Q 31.390625 60.6875 28.953125 64.34375 
Q 26.515625 68.015625 22.3125 68.015625 
z
M 66.40625 74.21875 
L 74.21875 74.21875 
L 28.609375 -1.421875 
L 20.796875 -1.421875 
z
M 22.3125 74.21875 
Q 30.03125 74.21875 34.609375 68.875 
Q 39.203125 63.53125 39.203125 54.390625 
Q 39.203125 45.171875 34.640625 39.84375 
Q 30.078125 34.515625 22.3125 34.515625 
Q 14.546875 34.515625 10.03125 39.859375 
Q 5.515625 45.21875 5.515625 54.390625 
Q 5.515625 63.484375 10.046875 68.84375 
Q 14.59375 74.21875 22.3125 74.21875 
z
" id="DejaVuSans-37"/>
      <path id="DejaVuSans-32"/>
      <path d="M 59.515625 10.40625 
L 59.515625 29.984375 
L 43.40625 29.984375 
L 43.40625 38.09375 
L 69.28125 38.09375 
L 69.28125 6.78125 
Q 63.578125 2.734375 56.6875 0.65625 
Q 49.8125 -1.421875 42 -1.421875 
Q 24.90625 -1.421875 15.25 8.5625 
Q 5.609375 18.5625 5.609375 36.375 
Q 5.609375 54.25 15.25 64.234375 
Q 24.90625 74.21875 42 74.21875 
Q 49.125 74.21875 55.546875 72.453125 
Q 61.96875 70.703125 67.390625 67.28125 
L 67.390625 56.78125 
Q 61.921875 61.421875 55.765625 63.765625 
Q 49.609375 66.109375 42.828125 66.109375 
Q 29.4375 66.109375 22.71875 58.640625 
Q 16.015625 51.171875 16.015625 36.375 
Q 16.015625 21.625 22.71875 14.15625 
Q 29.4375 6.6875 42.828125 6.6875 
Q 48.046875 6.6875 52.140625 7.59375 
Q 56.25 8.5 59.515625 10.40625 
z
" id="DejaVuSans-71"/>
      <path d="M 64.40625 67.28125 
L 64.40625 56.890625 
Q 59.421875 61.53125 53.78125 63.8125 
Q 48.140625 66.109375 41.796875 66.109375 
Q 29.296875 66.109375 22.65625 58.46875 
Q 16.015625 50.828125 16.015625 36.375 
Q 16.015625 21.96875 22.65625 14.328125 
Q 29.296875 6.6875 41.796875 6.6875 
Q 48.140625 6.6875 53.78125 8.984375 
Q 59.421875 11.28125 64.40625 15.921875 
L 64.40625 5.609375 
Q 59.234375 2.09375 53.4375 0.328125 
Q 47.65625 -1.421875 41.21875 -1.421875 
Q 24.65625 -1.421875 15.125 8.703125 
Q 5.609375 18.84375 5.609375 36.375 
Q 5.609375 53.953125 15.125 64.078125 
Q 24.65625 74.21875 41.21875 74.21875 
Q 47.75 74.21875 53.53125 72.484375 
Q 59.328125 70.75 64.40625 67.28125 
z
" id="DejaVuSans-67"/>
     </defs>
     <g transform="translate(495.510156 300.330997)scale(0.1 -0.1)">
      <use xlink:href="#DejaVuSans-37"/>
      <use x="95.019531" xlink:href="#DejaVuSans-32"/>
      <use x="126.806641" xlink:href="#DejaVuSans-71"/>
      <use x="204.296875" xlink:href="#DejaVuSans-67"/>
     </g>
    </g>
   </g>
   <g id="matplotlib.axis_2">
    <g id="ytick_1">
     <g id="line2d_1">
      <path clip-path="url(#p793d096cd6)" d="M 32.968125 273.99006 
L 985.463125 273.99006 
" style="fill:none;stroke:#dedede;stroke-linecap:square;"/>
     </g>
     <g id="text_8">
      <!-- 0 -->
      <g transform="translate(20.878125 277.029435)scale(0.08 -0.08)">
       <use xlink:href="#DejaVuSans-48"/>
      </g>
     </g>
    </g>
    <g id="ytick_2">
     <g id="line2d_2">
      <path clip-path="url(#p793d096cd6)" d="M 32.968125 229.846667 
L 985.463125 229.846667 
" style="fill:none;stroke:#dedede;stroke-linecap:square;"/>
     </g>
     <g id="text_9">
      <!-- 1 -->
      <g transform="translate(20.878125 232.886042)scale(0.08 -0.08)">
       <use xlink:href="#DejaVuSans-49"/>
      </g>
     </g>
    </g>
    <g id="ytick_3">
     <g id="line2d_3">
      <path clip-path="url(#p793d096cd6)" d="M 32.968125 185.703273 
L 985.463125 185.703273 
" style="fill:none;stroke:#dedede;stroke-linecap:square;"/>
     </g>
     <g id="text_10">
      <!-- 2 -->
      <g transform="translate(20.878125 188.742648)scale(0.08 -0.08)">
       <use xlink:href="#DejaVuSans-50"/>
      </g>
     </g>
    </g>
    <g id="ytick_4">
     <g id="line2d_4">
      <path clip-path="url(#p793d096cd6)" d="M 32.968125 141.55988 
L 985.463125 141.55988 
" style="fill:none;stroke:#dedede;stroke-linecap:square;"/>
     </g>
     <g id="text_11">
      <!-- 3 -->
      <defs>
       <path d="M 40.578125 39.3125 
Q 47.65625 37.796875 51.625 33 
Q 55.609375 28.21875 55.609375 21.1875 
Q 55.609375 10.40625 48.1875 4.484375 
Q 40.765625 -1.421875 27.09375 -1.421875 
Q 22.515625 -1.421875 17.65625 -0.515625 
Q 12.796875 0.390625 7.625 2.203125 
L 7.625 11.71875 
Q 11.71875 9.328125 16.59375 8.109375 
Q 21.484375 6.890625 26.8125 6.890625 
Q 36.078125 6.890625 40.9375 10.546875 
Q 45.796875 14.203125 45.796875 21.1875 
Q 45.796875 27.640625 41.28125 31.265625 
Q 36.765625 34.90625 28.71875 34.90625 
L 20.21875 34.90625 
L 20.21875 43.015625 
L 29.109375 43.015625 
Q 36.375 43.015625 40.234375 45.921875 
Q 44.09375 48.828125 44.09375 54.296875 
Q 44.09375 59.90625 40.109375 62.90625 
Q 36.140625 65.921875 28.71875 65.921875 
Q 24.65625 65.921875 20.015625 65.03125 
Q 15.375 64.15625 9.8125 62.3125 
L 9.8125 71.09375 
Q 15.4375 72.65625 20.34375 73.4375 
Q 25.25 74.21875 29.59375 74.21875 
Q 40.828125 74.21875 47.359375 69.109375 
Q 53.90625 64.015625 53.90625 55.328125 
Q 53.90625 49.265625 50.4375 45.09375 
Q 46.96875 40.921875 40.578125 39.3125 
z
" id="DejaVuSans-51"/>
      </defs>
      <g transform="translate(20.878125 144.599255)scale(0.08 -0.08)">
       <use xlink:href="#DejaVuSans-51"/>
      </g>
     </g>
    </g>
    <g id="ytick_5">
     <g id="line2d_5">
      <path clip-path="url(#p793d096cd6)" d="M 32.968125 97.416486 
L 985.463125 97.416486 
" style="fill:none;stroke:#dedede;stroke-linecap:square;"/>
     </g>
     <g id="text_12">
      <!-- 4 -->
      <g transform="translate(20.878125 100.455861)scale(0.08 -0.08)">
       <use xlink:href="#DejaVuSans-52"/>
      </g>
     </g>
    </g>
    <g id="ytick_6">
     <g id="line2d_6">
      <path clip-path="url(#p793d096cd6)" d="M 32.968125 53.273093 
L 985.463125 53.273093 
" style="fill:none;stroke:#dedede;stroke-linecap:square;"/>
     </g>
     <g id="text_13">
      <!-- 5 -->
      <defs>
       <path d="M 10.796875 72.90625 
L 49.515625 72.90625 
L 49.515625 64.59375 
L 19.828125 64.59375 
L 19.828125 46.734375 
Q 21.96875 47.46875 24.109375 47.828125 
Q 26.265625 48.1875 28.421875 48.1875 
Q 40.625 48.1875 47.75 41.5 
Q 54.890625 34.8125 54.890625 23.390625 
Q 54.890625 11.625 47.5625 5.09375 
Q 40.234375 -1.421875 26.90625 -1.421875 
Q 22.3125 -1.421875 17.546875 -0.640625 
Q 12.796875 0.140625 7.71875 1.703125 
L 7.71875 11.625 
Q 12.109375 9.234375 16.796875 8.0625 
Q 21.484375 6.890625 26.703125 6.890625 
Q 35.15625 6.890625 40.078125 11.328125 
Q 45.015625 15.765625 45.015625 23.390625 
Q 45.015625 31 40.078125 35.4375 
Q 35.15625 39.890625 26.703125 39.890625 
Q 22.75 39.890625 18.8125 39.015625 
Q 14.890625 38.140625 10.796875 36.28125 
z
" id="DejaVuSans-53"/>
      </defs>
      <g transform="translate(20.878125 56.312468)scale(0.08 -0.08)">
       <use xlink:href="#DejaVuSans-53"/>
      </g>
     </g>
    </g>
    <g id="text_14">
     <!-- Percentage -->
     <defs>
      <path d="M 19.671875 64.796875 
L 19.671875 37.40625 
L 32.078125 37.40625 
Q 38.96875 37.40625 42.71875 40.96875 
Q 46.484375 44.53125 46.484375 51.125 
Q 46.484375 57.671875 42.71875 61.234375 
Q 38.96875 64.796875 32.078125 64.796875 
z
M 9.8125 72.90625 
L 32.078125 72.90625 
Q 44.34375 72.90625 50.609375 67.359375 
Q 56.890625 61.8125 56.890625 51.125 
Q 56.890625 40.328125 50.609375 34.8125 
Q 44.34375 29.296875 32.078125 29.296875 
L 19.671875 29.296875 
L 19.671875 0 
L 9.8125 0 
z
" id="DejaVuSans-80"/>
      <path d="M 56.203125 29.59375 
L 56.203125 25.203125 
L 14.890625 25.203125 
Q 15.484375 15.921875 20.484375 11.0625 
Q 25.484375 6.203125 34.421875 6.203125 
Q 39.59375 6.203125 44.453125 7.46875 
Q 49.3125 8.734375 54.109375 11.28125 
L 54.109375 2.78125 
Q 49.265625 0.734375 44.1875 -0.34375 
Q 39.109375 -1.421875 33.890625 -1.421875 
Q 20.796875 -1.421875 13.15625 6.1875 
Q 5.515625 13.8125 5.515625 26.8125 
Q 5.515625 40.234375 12.765625 48.109375 
Q 20.015625 56 32.328125 56 
Q 43.359375 56 49.78125 48.890625 
Q 56.203125 41.796875 56.203125 29.59375 
z
M 47.21875 32.234375 
Q 47.125 39.59375 43.09375 43.984375 
Q 39.0625 48.390625 32.421875 48.390625 
Q 24.90625 48.390625 20.390625 44.140625 
Q 15.875 39.890625 15.1875 32.171875 
z
" id="DejaVuSans-101"/>
      <path d="M 41.109375 46.296875 
Q 39.59375 47.171875 37.8125 47.578125 
Q 36.03125 48 33.890625 48 
Q 26.265625 48 22.1875 43.046875 
Q 18.109375 38.09375 18.109375 28.8125 
L 18.109375 0 
L 9.078125 0 
L 9.078125 54.6875 
L 18.109375 54.6875 
L 18.109375 46.1875 
Q 20.953125 51.171875 25.484375 53.578125 
Q 30.03125 56 36.53125 56 
Q 37.453125 56 38.578125 55.875 
Q 39.703125 55.765625 41.0625 55.515625 
z
" id="DejaVuSans-114"/>
      <path d="M 48.78125 52.59375 
L 48.78125 44.1875 
Q 44.96875 46.296875 41.140625 47.34375 
Q 37.3125 48.390625 33.40625 48.390625 
Q 24.65625 48.390625 19.8125 42.84375 
Q 14.984375 37.3125 14.984375 27.296875 
Q 14.984375 17.28125 19.8125 11.734375 
Q 24.65625 6.203125 33.40625 6.203125 
Q 37.3125 6.203125 41.140625 7.25 
Q 44.96875 8.296875 48.78125 10.40625 
L 48.78125 2.09375 
Q 45.015625 0.34375 40.984375 -0.53125 
Q 36.96875 -1.421875 32.421875 -1.421875 
Q 20.0625 -1.421875 12.78125 6.34375 
Q 5.515625 14.109375 5.515625 27.296875 
Q 5.515625 40.671875 12.859375 48.328125 
Q 20.21875 56 33.015625 56 
Q 37.15625 56 41.109375 55.140625 
Q 45.0625 54.296875 48.78125 52.59375 
z
" id="DejaVuSans-99"/>
      <path d="M 54.890625 33.015625 
L 54.890625 0 
L 45.90625 0 
L 45.90625 32.71875 
Q 45.90625 40.484375 42.875 44.328125 
Q 39.84375 48.1875 33.796875 48.1875 
Q 26.515625 48.1875 22.3125 43.546875 
Q 18.109375 38.921875 18.109375 30.90625 
L 18.109375 0 
L 9.078125 0 
L 9.078125 54.6875 
L 18.109375 54.6875 
L 18.109375 46.1875 
Q 21.34375 51.125 25.703125 53.5625 
Q 30.078125 56 35.796875 56 
Q 45.21875 56 50.046875 50.171875 
Q 54.890625 44.34375 54.890625 33.015625 
z
" id="DejaVuSans-110"/>
      <path d="M 18.3125 70.21875 
L 18.3125 54.6875 
L 36.8125 54.6875 
L 36.8125 47.703125 
L 18.3125 47.703125 
L 18.3125 18.015625 
Q 18.3125 11.328125 20.140625 9.421875 
Q 21.96875 7.515625 27.59375 7.515625 
L 36.8125 7.515625 
L 36.8125 0 
L 27.59375 0 
Q 17.1875 0 13.234375 3.875 
Q 9.28125 7.765625 9.28125 18.015625 
L 9.28125 47.703125 
L 2.6875 47.703125 
L 2.6875 54.6875 
L 9.28125 54.6875 
L 9.28125 70.21875 
z
" id="DejaVuSans-116"/>
      <path d="M 34.28125 27.484375 
Q 23.390625 27.484375 19.1875 25 
Q 14.984375 22.515625 14.984375 16.5 
Q 14.984375 11.71875 18.140625 8.90625 
Q 21.296875 6.109375 26.703125 6.109375 
Q 34.1875 6.109375 38.703125 11.40625 
Q 43.21875 16.703125 43.21875 25.484375 
L 43.21875 27.484375 
z
M 52.203125 31.203125 
L 52.203125 0 
L 43.21875 0 
L 43.21875 8.296875 
Q 40.140625 3.328125 35.546875 0.953125 
Q 30.953125 -1.421875 24.3125 -1.421875 
Q 15.921875 -1.421875 10.953125 3.296875 
Q 6 8.015625 6 15.921875 
Q 6 25.140625 12.171875 29.828125 
Q 18.359375 34.515625 30.609375 34.515625 
L 43.21875 34.515625 
L 43.21875 35.40625 
Q 43.21875 41.609375 39.140625 45 
Q 35.0625 48.390625 27.6875 48.390625 
Q 23 48.390625 18.546875 47.265625 
Q 14.109375 46.140625 10.015625 43.890625 
L 10.015625 52.203125 
Q 14.9375 54.109375 19.578125 55.046875 
Q 24.21875 56 28.609375 56 
Q 40.484375 56 46.34375 49.84375 
Q 52.203125 43.703125 52.203125 31.203125 
z
" id="DejaVuSans-97"/>
      <path d="M 45.40625 27.984375 
Q 45.40625 37.75 41.375 43.109375 
Q 37.359375 48.484375 30.078125 48.484375 
Q 22.859375 48.484375 18.828125 43.109375 
Q 14.796875 37.75 14.796875 27.984375 
Q 14.796875 18.265625 18.828125 12.890625 
Q 22.859375 7.515625 30.078125 7.515625 
Q 37.359375 7.515625 41.375 12.890625 
Q 45.40625 18.265625 45.40625 27.984375 
z
M 54.390625 6.78125 
Q 54.390625 -7.171875 48.1875 -13.984375 
Q 42 -20.796875 29.203125 -20.796875 
Q 24.46875 -20.796875 20.265625 -20.09375 
Q 16.0625 -19.390625 12.109375 -17.921875 
L 12.109375 -9.1875 
Q 16.0625 -11.328125 19.921875 -12.34375 
Q 23.78125 -13.375 27.78125 -13.375 
Q 36.625 -13.375 41.015625 -8.765625 
Q 45.40625 -4.15625 45.40625 5.171875 
L 45.40625 9.625 
Q 42.625 4.78125 38.28125 2.390625 
Q 33.9375 0 27.875 0 
Q 17.828125 0 11.671875 7.65625 
Q 5.515625 15.328125 5.515625 27.984375 
Q 5.515625 40.671875 11.671875 48.328125 
Q 17.828125 56 27.875 56 
Q 33.9375 56 38.28125 53.609375 
Q 42.625 51.21875 45.40625 46.390625 
L 45.40625 54.6875 
L 54.390625 54.6875 
z
" id="DejaVuSans-103"/>
     </defs>
     <g transform="translate(14.798437 181.14896)rotate(-90)scale(0.1 -0.1)">
      <use xlink:href="#DejaVuSans-80"/>
      <use x="60.255859" xlink:href="#DejaVuSans-101"/>
      <use x="121.779297" xlink:href="#DejaVuSans-114"/>
      <use x="162.861328" xlink:href="#DejaVuSans-99"/>
      <use x="217.841797" xlink:href="#DejaVuSans-101"/>
      <use x="279.365234" xlink:href="#DejaVuSans-110"/>
      <use x="342.744141" xlink:href="#DejaVuSans-116"/>
      <use x="381.953125" xlink:href="#DejaVuSans-97"/>
      <use x="443.232422" xlink:href="#DejaVuSans-103"/>
      <use x="506.708984" xlink:href="#DejaVuSans-101"/>
     </g>
    </g>
   </g>
   <g id="line2d_7">
    <path clip-path="url(#p793d096cd6)" d="M 32.968125 273.975709 
L 42.493075 273.957769 
L 52.018025 273.939318 
L 61.542975 273.927529 
L 71.067925 273.895238 
L 80.592875 273.870636 
L 90.117825 273.836808 
L 99.642775 273.78709 
L 109.167725 273.67843 
L 118.692675 273.49955 
L 128.217625 273.305294 
L 137.742575 272.945997 
L 147.267525 272.538008 
L 156.792475 271.853242 
L 166.317425 270.603647 
L 175.842375 269.245904 
L 185.367325 267.310518 
L 194.892275 264.743671 
L 204.417225 261.524349 
L 213.942175 257.186132 
L 223.467125 252.04475 
L 232.992075 245.343681 
L 242.517025 237.628789 
L 252.041975 228.493624 
L 261.566925 218.424593 
L 271.091875 208.544693 
L 280.616825 196.873434 
L 290.141775 185.421545 
L 299.666725 175.448874 
L 309.191675 165.571537 
L 318.716625 155.396921 
L 328.241575 144.580081 
L 337.766525 134.039506 
L 347.291475 125.262612 
L 356.816425 115.655901 
L 366.341375 107.138869 
L 375.866325 101.323485 
L 385.391275 97.59674 
L 394.916225 98.339423 
L 404.441175 101.815533 
L 413.966125 106.705253 
L 423.491075 112.645186 
L 433.016025 119.28475 
L 442.540975 126.621892 
L 452.065925 134.501825 
L 461.590875 142.604716 
L 471.115825 151.30319 
L 480.640775 159.407107 
L 490.165725 166.707859 
L 499.690675 174.874819 
L 509.215625 183.081758 
L 518.740575 190.48912 
L 528.265525 197.220942 
L 537.790475 202.646789 
L 547.315425 207.798422 
L 556.840375 213.788072 
L 566.365325 220.052962 
L 575.890275 225.671015 
L 585.415225 230.885179 
L 594.940175 236.472478 
L 604.465125 241.546716 
L 613.990075 246.386719 
L 623.515025 250.875625 
L 633.039975 254.420929 
L 642.564925 257.681255 
L 652.089875 260.642252 
L 661.614825 263.269067 
L 671.139775 265.147047 
L 680.664725 266.355639 
L 690.189675 267.390476 
L 699.714625 268.210042 
L 709.239575 268.907109 
L 718.764525 269.943996 
L 728.289475 271.086468 
L 737.814425 272.068 
L 747.339375 272.819397 
L 756.864325 273.206885 
L 766.389275 273.492887 
L 775.914225 273.65229 
L 785.439175 273.737886 
L 794.964125 273.799392 
L 804.489075 273.832195 
L 814.014025 273.849621 
L 823.538975 273.85731 
L 833.063925 273.888063 
L 842.588875 273.921891 
L 852.113825 273.929579 
L 861.638775 273.927016 
L 871.163725 273.93983 
L 880.688675 273.958794 
L 890.213625 273.96802 
L 899.738575 273.972633 
L 909.263525 273.975709 
L 918.788475 273.980322 
L 928.313425 273.986472 
L 937.838375 273.987497 
L 947.363325 273.979296 
L 956.888275 273.934192 
L 966.413225 273.854747 
L 975.938175 273.251476 
L 985.463125 272.68921 
" style="fill:none;stroke:#5cb85c;stroke-linecap:square;"/>
   </g>
   <g id="line2d_8">
    <path clip-path="url(#p793d096cd6)" d="M 32.968125 273.964967 
L 42.493075 273.954701 
L 52.018025 273.944721 
L 61.542975 273.926472 
L 71.067925 273.891683 
L 80.592875 273.867446 
L 90.117825 273.839786 
L 99.642775 273.792451 
L 109.167725 273.691794 
L 118.692675 273.49504 
L 128.217625 273.254945 
L 137.742575 272.868282 
L 147.267525 272.438276 
L 156.792475 271.748785 
L 166.317425 270.571973 
L 175.842375 269.175311 
L 185.367325 267.058076 
L 194.892275 264.379382 
L 204.417225 261.03857 
L 213.942175 256.833756 
L 223.467125 252.100845 
L 232.992075 245.230453 
L 242.517025 236.604681 
L 252.041975 226.696021 
L 261.566925 216.345095 
L 271.091875 206.620642 
L 280.616825 195.073513 
L 290.141775 182.937266 
L 299.666725 171.765394 
L 309.191675 160.88409 
L 318.716625 150.320727 
L 328.241575 139.822949 
L 337.766525 130.215122 
L 347.291475 121.61872 
L 356.816425 111.409228 
L 366.341375 102.411051 
L 375.866325 96.741138 
L 385.391275 93.080104 
L 394.916225 92.919565 
L 404.441175 97.379873 
L 413.966125 104.289615 
L 423.491075 112.301746 
L 433.016025 120.974282 
L 442.540975 129.050856 
L 452.065925 137.129141 
L 461.590875 145.422429 
L 471.115825 154.274039 
L 480.640775 161.783736 
L 490.165725 169.054193 
L 499.690675 177.941732 
L 509.215625 186.13094 
L 518.740575 193.710499 
L 528.265525 201.052813 
L 537.790475 206.709894 
L 547.315425 212.004264 
L 556.840375 217.957045 
L 566.365325 224.044416 
L 575.890275 229.264363 
L 585.415225 233.777709 
L 594.940175 238.970851 
L 604.465125 243.626202 
L 613.990075 247.871793 
L 623.515025 252.153027 
L 633.039975 255.904169 
L 642.564925 259.241273 
L 652.089875 262.007508 
L 661.614825 264.421299 
L 671.139775 265.984488 
L 680.664725 266.837085 
L 690.189675 267.741009 
L 699.714625 268.504354 
L 709.239575 269.022471 
L 718.764525 270.022205 
L 728.289475 271.270589 
L 737.814425 272.276026 
L 747.339375 272.993463 
L 756.864325 273.367579 
L 766.389275 273.576878 
L 775.914225 273.687516 
L 785.439175 273.773346 
L 794.964125 273.825244 
L 804.489075 273.861172 
L 814.014025 273.908792 
L 823.538975 273.941585 
L 833.063925 273.956127 
L 842.588875 273.964967 
L 852.113825 273.968389 
L 861.638775 273.97067 
L 871.163725 273.970955 
L 880.688675 273.972666 
L 890.213625 273.976088 
L 899.738575 273.976943 
L 909.263525 273.976658 
L 918.788475 273.977513 
L 928.313425 273.981791 
L 937.838375 273.985498 
L 947.363325 273.976943 
L 956.888275 273.934456 
L 966.413225 273.867731 
L 975.938175 273.153717 
L 985.463125 272.469073 
" style="fill:none;stroke:#5cb85c;stroke-linecap:square;"/>
   </g>
   <g id="line2d_9">
    <path clip-path="url(#p793d096cd6)" d="M 32.968125 273.971212 
L 42.493075 273.963738 
L 52.018025 273.953664 
L 61.542975 273.935791 
L 71.067925 273.898094 
L 80.592875 273.862673 
L 90.117825 273.801254 
L 99.642775 273.718388 
L 109.167725 273.606599 
L 118.692675 273.441516 
L 128.217625 273.235162 
L 137.742575 272.8621 
L 147.267525 272.41982 
L 156.792475 271.779635 
L 166.317425 270.741366 
L 175.842375 269.380404 
L 185.367325 267.293142 
L 194.892275 264.70933 
L 204.417225 261.479809 
L 213.942175 257.159049 
L 223.467125 252.229951 
L 232.992075 245.648072 
L 242.517025 237.787122 
L 252.041975 228.995143 
L 261.566925 219.00761 
L 271.091875 208.646365 
L 280.616825 196.439634 
L 290.141775 183.382139 
L 299.666725 171.259898 
L 309.191675 161.058212 
L 318.716625 151.40962 
L 328.241575 140.695136 
L 337.766525 130.358914 
L 347.291475 120.363582 
L 356.816425 110.236963 
L 366.341375 102.06762 
L 375.866325 95.168573 
L 385.391275 89.7504 
L 394.916225 89.294471 
L 404.441175 93.898278 
L 413.966125 100.84867 
L 423.491075 109.157098 
L 433.016025 118.039744 
L 442.540975 126.349472 
L 452.065925 135.075809 
L 461.590875 144.001999 
L 471.115825 153.433514 
L 480.640775 162.159525 
L 490.165725 169.907711 
L 499.690675 178.530383 
L 509.215625 186.998045 
L 518.740575 194.707235 
L 528.265525 202.385228 
L 537.790475 208.538476 
L 547.315425 213.882882 
L 556.840375 219.380347 
L 566.365325 225.083841 
L 575.890275 230.88775 
L 585.415225 235.819123 
L 594.940175 240.538617 
L 604.465125 244.900323 
L 613.990075 249.225307 
L 623.515025 253.167481 
L 633.039975 256.4165 
L 642.564925 259.676568 
L 652.089875 262.332847 
L 661.614825 264.478279 
L 671.139775 265.925031 
L 680.664725 266.568466 
L 690.189675 267.16608 
L 699.714625 267.80074 
L 709.239575 268.437026 
L 718.764525 269.591958 
L 728.289475 270.94967 
L 737.814425 272.058132 
L 747.339375 272.85625 
L 756.864325 273.25661 
L 766.389275 273.513334 
L 775.914225 273.665093 
L 785.439175 273.761933 
L 794.964125 273.829851 
L 804.489075 273.870797 
L 814.014025 273.909143 
L 823.538975 273.934491 
L 833.063925 273.947814 
L 842.588875 273.952364 
L 852.113825 273.959188 
L 861.638775 273.960488 
L 871.163725 273.960163 
L 880.688675 273.966337 
L 890.213625 273.971212 
L 899.738575 273.971862 
L 909.263525 273.974462 
L 918.788475 273.978036 
L 928.313425 273.979986 
L 937.838375 273.982911 
L 947.363325 273.977711 
L 956.888275 273.928316 
L 966.413225 273.84675 
L 975.938175 273.06098 
L 985.463125 272.310306 
" style="fill:none;stroke:#5cb85c;stroke-linecap:square;"/>
   </g>
   <g id="line2d_10">
    <path clip-path="url(#p793d096cd6)" d="M 32.968125 273.973819 
L 42.493075 273.961515 
L 52.018025 273.94429 
L 61.542975 273.918453 
L 71.067925 273.88351 
L 80.592875 273.855458 
L 90.117825 273.805997 
L 99.642775 273.736358 
L 109.167725 273.626118 
L 118.692675 273.470107 
L 128.217625 273.266604 
L 137.742575 272.894295 
L 147.267525 272.455301 
L 156.792475 271.792133 
L 166.317425 270.757394 
L 175.842375 269.532195 
L 185.367325 267.607656 
L 194.892275 265.087126 
L 204.417225 261.854215 
L 213.942175 257.579428 
L 223.467125 252.899359 
L 232.992075 246.611201 
L 242.517025 238.816582 
L 252.041975 230.353627 
L 261.566925 221.296897 
L 271.091875 212.245335 
L 280.616825 201.65483 
L 290.141775 190.470058 
L 299.666725 179.483129 
L 309.191675 169.085546 
L 318.716625 159.66635 
L 328.241575 149.05173 
L 337.766525 137.765822 
L 347.291475 128.020579 
L 356.816425 118.715808 
L 366.341375 110.603016 
L 375.866325 104.39114 
L 385.391275 99.537589 
L 394.916225 98.194029 
L 404.441175 101.245584 
L 413.966125 106.815455 
L 423.491075 112.895435 
L 433.016025 119.310567 
L 442.540975 126.222275 
L 452.065925 133.04712 
L 461.590875 140.037571 
L 471.115825 148.033233 
L 480.640775 155.065763 
L 490.165725 161.849267 
L 499.690675 169.896358 
L 509.215625 178.061072 
L 518.740575 186.78388 
L 528.265525 194.982059 
L 537.790475 201.034479 
L 547.315425 206.966816 
L 556.840375 213.433623 
L 566.365325 219.9713 
L 575.890275 226.06949 
L 585.415225 231.336936 
L 594.940175 236.600937 
L 604.465125 241.529294 
L 613.990075 246.280232 
L 623.515025 250.591683 
L 633.039975 254.342579 
L 642.564925 257.777517 
L 652.089875 260.468329 
L 661.614825 262.617288 
L 671.139775 263.83289 
L 680.664725 263.980042 
L 690.189675 264.084869 
L 699.714625 264.473911 
L 709.239575 265.033728 
L 718.764525 266.827603 
L 728.289475 269.239122 
L 737.814425 271.131672 
L 747.339375 272.417405 
L 756.864325 273.046123 
L 766.389275 273.373892 
L 775.914225 273.543929 
L 785.439175 273.637191 
L 794.964125 273.715442 
L 804.489075 273.809196 
L 814.014025 273.879081 
L 823.538975 273.904673 
L 833.063925 273.912547 
L 842.588875 273.922636 
L 852.113825 273.941584 
L 861.638775 273.954872 
L 871.163725 273.961269 
L 880.688675 273.967175 
L 890.213625 273.971112 
L 899.738575 273.971112 
L 909.263525 273.970866 
L 918.788475 273.975296 
L 928.313425 273.982678 
L 937.838375 273.986861 
L 947.363325 273.978741 
L 956.888275 273.932479 
L 966.413225 273.866039 
L 975.938175 273.379798 
L 985.463125 272.920133 
" style="fill:none;stroke:#f0ad4e;stroke-linecap:square;"/>
   </g>
   <g id="line2d_11">
    <path clip-path="url(#p793d096cd6)" d="M 32.968125 273.975909 
L 42.493075 273.965482 
L 52.018025 273.955055 
L 61.542975 273.942207 
L 71.067925 273.911112 
L 80.592875 273.872382 
L 90.117825 273.799951 
L 99.642775 273.727892 
L 109.167725 273.630323 
L 118.692675 273.443379 
L 128.217625 273.216775 
L 137.742575 272.901168 
L 147.267525 272.522811 
L 156.792475 271.84486 
L 166.317425 270.775705 
L 175.842375 269.49931 
L 185.367325 267.555577 
L 194.892275 265.051757 
L 204.417225 261.747468 
L 213.942175 257.196575 
L 223.467125 251.992868 
L 232.992075 245.648319 
L 242.517025 238.456564 
L 252.041975 229.531109 
L 261.566925 219.414166 
L 271.091875 210.166214 
L 280.616825 199.484343 
L 290.141775 187.705945 
L 299.666725 176.388018 
L 309.191675 165.899421 
L 318.716625 155.577845 
L 328.241575 144.331418 
L 337.766525 133.329284 
L 347.291475 124.02268 
L 356.816425 115.082515 
L 366.341375 107.156763 
L 375.866325 101.713977 
L 385.391275 98.296106 
L 394.916225 97.268473 
L 404.441175 99.499511 
L 413.966125 104.963152 
L 423.491075 112.179112 
L 433.016025 119.445161 
L 442.540975 126.859051 
L 452.065925 134.845132 
L 461.590875 143.076436 
L 471.115825 151.46061 
L 480.640775 158.446987 
L 490.165725 165.631667 
L 499.690675 174.538129 
L 509.215625 182.740201 
L 518.740575 190.15707 
L 528.265525 197.512867 
L 537.790475 203.50401 
L 547.315425 209.309326 
L 556.840375 215.365266 
L 566.365325 221.450626 
L 575.890275 227.115362 
L 585.415225 232.327634 
L 594.940175 238.025886 
L 604.465125 242.972452 
L 613.990075 247.275699 
L 623.515025 251.197239 
L 633.039975 254.616041 
L 642.564925 258.048436 
L 652.089875 260.823361 
L 661.614825 262.898737 
L 671.139775 264.200269 
L 680.664725 264.631506 
L 690.189675 264.982491 
L 699.714625 265.375558 
L 709.239575 265.821318 
L 718.764525 267.425424 
L 728.289475 269.630394 
L 737.814425 271.32704 
L 747.339375 272.507915 
L 756.864325 273.122744 
L 766.389275 273.431835 
L 775.914225 273.579119 
L 785.439175 273.690279 
L 794.964125 273.764387 
L 804.489075 273.806281 
L 814.014025 273.854135 
L 823.538975 273.88765 
L 833.063925 273.915953 
L 842.588875 273.943696 
L 852.113825 273.957475 
L 861.638775 273.963434 
L 871.163725 273.965668 
L 880.688675 273.967716 
L 890.213625 273.972371 
L 899.738575 273.976095 
L 909.263525 273.979074 
L 918.788475 273.981309 
L 928.313425 273.983543 
L 937.838375 273.985964 
L 947.363325 273.978702 
L 956.888275 273.934573 
L 966.413225 273.867169 
L 975.938175 273.267235 
L 985.463125 272.691507 
" style="fill:none;stroke:#5cb85c;stroke-linecap:square;"/>
   </g>
   <g id="line2d_12">
    <path clip-path="url(#p793d096cd6)" d="M 32.968125 273.977191 
L 42.493075 273.97333 
L 52.018025 273.961748 
L 61.542975 273.939226 
L 71.067925 273.916062 
L 80.592875 273.892897 
L 90.117825 273.836272 
L 99.642775 273.754552 
L 109.167725 273.678624 
L 118.692675 273.567948 
L 128.217625 273.361396 
L 137.742575 272.908398 
L 147.267525 272.412288 
L 156.792475 271.845397 
L 166.317425 270.949053 
L 175.842375 269.797897 
L 185.367325 268.099154 
L 194.892275 265.83352 
L 204.417225 262.806669 
L 213.942175 258.394441 
L 223.467125 253.078791 
L 232.992075 246.638368 
L 242.517025 239.463752 
L 252.041975 231.533068 
L 261.566925 222.123061 
L 271.091875 211.683514 
L 280.616825 198.715155 
L 290.141775 183.784878 
L 299.666725 169.689172 
L 309.191675 156.512975 
L 318.716625 141.8285 
L 328.241575 127.44774 
L 337.766525 116.681313 
L 347.291475 105.947702 
L 356.816425 94.914881 
L 366.341375 86.971327 
L 375.866325 80.115227 
L 385.391275 74.894166 
L 394.916225 72.319669 
L 404.441175 76.53371 
L 413.966125 88.287853 
L 423.491075 101.601751 
L 433.016025 114.586196 
L 442.540975 127.542972 
L 452.065925 139.588604 
L 461.590875 150.237278 
L 471.115825 161.169075 
L 480.640775 170.598385 
L 490.165725 179.81664 
L 499.690675 189.585055 
L 509.215625 197.926269 
L 518.740575 205.150431 
L 528.265525 210.835429 
L 537.790475 215.201327 
L 547.315425 219.913409 
L 556.840375 225.254797 
L 566.365325 231.103234 
L 575.890275 236.617071 
L 585.415225 241.139331 
L 594.940175 245.213097 
L 604.465125 248.411752 
L 613.990075 251.903827 
L 623.515025 255.658435 
L 633.039975 258.896986 
L 642.564925 261.844048 
L 652.089875 264.232583 
L 661.614825 266.333491 
L 671.139775 267.883594 
L 680.664725 268.824981 
L 690.189675 269.651187 
L 699.714625 270.362214 
L 709.239575 270.830655 
L 718.764525 271.616968 
L 728.289475 272.543555 
L 737.814425 273.053821 
L 747.339375 273.335658 
L 756.864325 273.553148 
L 766.389275 273.687632 
L 775.914225 273.746187 
L 785.439175 273.79123 
L 794.964125 273.832412 
L 804.489075 273.880028 
L 814.014025 273.910914 
L 823.538975 273.924427 
L 833.063925 273.937296 
L 842.588875 273.954026 
L 852.113825 273.964965 
L 861.638775 273.974617 
L 871.163725 273.981052 
L 880.688675 273.976547 
L 890.213625 273.975904 
L 899.738575 273.980408 
L 909.263525 273.980408 
L 918.788475 273.980408 
L 928.313425 273.985556 
L 937.838375 273.98813 
L 947.363325 273.982338 
L 956.888275 273.949522 
L 966.413225 273.893541 
L 975.938175 273.385848 
L 985.463125 272.905181 
" style="fill:none;stroke:#5cb85c;stroke-linecap:square;"/>
   </g>
   <g id="line2d_13">
    <path clip-path="url(#p793d096cd6)" d="M 32.968125 273.963154 
L 42.493075 273.939306 
L 52.018025 273.915458 
L 61.542975 273.902005 
L 71.067925 273.881215 
L 80.592875 273.859813 
L 90.117825 273.813339 
L 99.642775 273.763809 
L 109.167725 273.679423 
L 118.692675 273.547953 
L 128.217625 273.331486 
L 137.742575 272.916896 
L 147.267525 272.500471 
L 156.792475 271.820494 
L 166.317425 270.823766 
L 175.842375 269.816031 
L 185.367325 268.303206 
L 194.892275 266.23209 
L 204.417225 263.311004 
L 213.942175 259.399304 
L 223.467125 254.620512 
L 232.992075 248.235948 
L 242.517025 240.949436 
L 252.041975 232.636845 
L 261.566925 223.223573 
L 271.091875 213.033708 
L 280.616825 200.267637 
L 290.141775 185.832811 
L 299.666725 172.494386 
L 309.191675 160.529978 
L 318.716625 147.179935 
L 328.241575 133.826223 
L 337.766525 124.680782 
L 347.291475 117.136834 
L 356.816425 107.305914 
L 366.341375 95.849042 
L 375.866325 81.995131 
L 385.391275 69.638147 
L 394.916225 61.303543 
L 404.441175 60.236493 
L 413.966125 70.519304 
L 423.491075 87.317538 
L 433.016025 104.427632 
L 442.540975 120.150255 
L 452.065925 133.91978 
L 461.590875 145.802249 
L 471.115825 158.767053 
L 480.640775 169.896166 
L 490.165725 179.684894 
L 499.690675 189.439377 
L 509.215625 197.611937 
L 518.740575 205.185849 
L 528.265525 211.74958 
L 537.790475 216.930732 
L 547.315425 221.807362 
L 556.840375 227.058836 
L 566.365325 232.87288 
L 575.890275 238.151259 
L 585.415225 242.599847 
L 594.940175 246.734129 
L 604.465125 249.883913 
L 613.990075 253.201244 
L 623.515025 256.761337 
L 633.039975 259.963097 
L 642.564925 262.784511 
L 652.089875 264.897819 
L 661.614825 266.841134 
L 671.139775 268.306263 
L 680.664725 269.255295 
L 690.189675 270.068576 
L 699.714625 270.636039 
L 709.239575 271.07142 
L 718.764525 271.693916 
L 728.289475 272.375116 
L 737.814425 272.931571 
L 747.339375 273.326594 
L 756.864325 273.517378 
L 766.389275 273.662302 
L 775.914225 273.755859 
L 785.439175 273.810894 
L 794.964125 273.848194 
L 804.489075 273.87938 
L 814.014025 273.925854 
L 823.538975 273.954594 
L 833.063925 273.962543 
L 842.588875 273.966212 
L 852.113825 273.972327 
L 861.638775 273.977219 
L 871.163725 273.97355 
L 880.688675 273.967435 
L 890.213625 273.967435 
L 899.738575 273.971715 
L 909.263525 273.975384 
L 918.788475 273.980888 
L 928.313425 273.98578 
L 937.838375 273.987614 
L 947.363325 273.983945 
L 956.888275 273.952759 
L 966.413225 273.895279 
L 975.938175 273.443388 
L 985.463125 273.01718 
" style="fill:none;stroke:#5cb85c;stroke-linecap:square;"/>
   </g>
   <g id="line2d_14">
    <path clip-path="url(#p793d096cd6)" d="M 32.968125 273.96831 
L 42.493075 273.955986 
L 52.018025 273.942211 
L 61.542975 273.919011 
L 71.067925 273.888562 
L 80.592875 273.843612 
L 90.117825 273.749364 
L 99.642775 273.690639 
L 109.167725 273.618141 
L 118.692675 273.429643 
L 128.217625 273.173722 
L 137.742575 272.838777 
L 147.267525 272.516882 
L 156.792475 271.944141 
L 166.317425 271.068354 
L 175.842375 270.054094 
L 185.367325 268.375019 
L 194.892275 265.95863 
L 204.417225 262.707054 
L 213.942175 258.481817 
L 223.467125 253.330044 
L 232.992075 246.443372 
L 242.517025 238.804886 
L 252.041975 229.936094 
L 261.566925 219.623123 
L 271.091875 208.222669 
L 280.616825 193.76711 
L 290.141775 179.231802 
L 299.666725 165.462808 
L 309.191675 152.149833 
L 318.716625 138.669384 
L 328.241575 125.59638 
L 337.766525 115.823526 
L 347.291475 105.994123 
L 356.816425 93.958578 
L 366.341375 83.748556 
L 375.866325 75.834574 
L 385.391275 70.890873 
L 394.916225 70.09556 
L 404.441175 75.014611 
L 413.966125 86.931258 
L 423.491075 100.927899 
L 433.016025 114.773017 
L 442.540975 128.594935 
L 452.065925 141.180022 
L 461.590875 152.700099 
L 471.115825 164.507273 
L 480.640775 174.571572 
L 490.165725 184.094305 
L 499.690675 194.002006 
L 509.215625 201.892788 
L 518.740575 208.450315 
L 528.265525 214.324177 
L 537.790475 219.15768 
L 547.315425 224.057157 
L 556.840375 228.871085 
L 566.365325 233.577714 
L 575.890275 238.042198 
L 585.415225 241.753417 
L 594.940175 245.465362 
L 604.465125 248.730713 
L 613.990075 252.153387 
L 623.515025 255.698584 
L 633.039975 259.068333 
L 642.564925 262.129237 
L 652.089875 264.447028 
L 661.614825 266.658245 
L 671.139775 268.268446 
L 680.664725 269.086958 
L 690.189675 269.856172 
L 699.714625 270.465888 
L 709.239575 270.876957 
L 718.764525 271.573671 
L 728.289475 272.364634 
L 737.814425 272.898951 
L 747.339375 273.290445 
L 756.864325 273.519542 
L 766.389275 273.63844 
L 775.914225 273.737764 
L 785.439175 273.824762 
L 794.964125 273.876237 
L 804.489075 273.882762 
L 814.014025 273.876962 
L 823.538975 273.885662 
L 833.063925 273.889287 
L 842.588875 273.896536 
L 852.113825 273.934236 
L 861.638775 273.955261 
L 871.163725 273.955261 
L 880.688675 273.96396 
L 890.213625 273.97556 
L 899.738575 273.97991 
L 909.263525 273.979185 
L 918.788475 273.982085 
L 928.313425 273.98571 
L 937.838375 273.98716 
L 947.363325 273.980635 
L 956.888275 273.948736 
L 966.413225 273.891461 
L 975.938175 273.271596 
L 985.463125 272.674205 
" style="fill:none;stroke:#5cb85c;stroke-linecap:square;"/>
   </g>
   <g id="line2d_15">
    <path clip-path="url(#p793d096cd6)" d="M 32.968125 273.97578 
L 42.493075 273.95793 
L 52.018025 273.939059 
L 61.542975 273.922739 
L 71.067925 273.888569 
L 80.592875 273.851339 
L 90.117825 273.811048 
L 99.642775 273.764638 
L 109.167725 273.666207 
L 118.692675 273.504535 
L 128.217625 273.289313 
L 137.742575 272.860398 
L 147.267525 272.426383 
L 156.792475 271.851607 
L 166.317425 270.832106 
L 175.842375 269.536182 
L 185.367325 267.631312 
L 194.892275 265.078735 
L 204.417225 261.660168 
L 213.942175 257.341442 
L 223.467125 252.110317 
L 232.992075 245.112022 
L 242.517025 237.776614 
L 252.041975 229.160582 
L 261.566925 218.749841 
L 271.091875 208.460481 
L 280.616825 196.22698 
L 290.141775 182.1442 
L 299.666725 168.98708 
L 309.191675 157.284495 
L 318.716625 144.883203 
L 328.241575 131.970375 
L 337.766525 121.292901 
L 347.291475 111.79813 
L 356.816425 100.188366 
L 366.341375 89.547102 
L 375.866325 81.643548 
L 385.391275 76.071228 
L 394.916225 74.756944 
L 404.441175 79.189402 
L 413.966125 88.958556 
L 423.491075 101.383309 
L 433.016025 113.949843 
L 442.540975 126.147643 
L 452.065925 137.351442 
L 461.590875 147.42864 
L 471.115825 158.248405 
L 480.640775 168.07774 
L 490.165725 177.48836 
L 499.690675 187.587998 
L 509.215625 196.498813 
L 518.740575 204.449288 
L 528.265525 211.921378 
L 537.790475 217.586518 
L 547.315425 222.322429 
L 556.840375 226.961438 
L 566.365325 232.043642 
L 575.890275 237.383399 
L 585.415225 241.587374 
L 594.940175 245.236973 
L 604.465125 248.800891 
L 613.990075 252.43825 
L 623.515025 255.824686 
L 633.039975 258.904609 
L 642.564925 261.890181 
L 652.089875 264.328517 
L 661.614825 266.343548 
L 671.139775 267.738923 
L 680.664725 268.40652 
L 690.189675 269.065957 
L 699.714625 269.652974 
L 709.239575 270.084438 
L 718.764525 270.975928 
L 728.289475 271.979109 
L 737.814425 272.694646 
L 747.339375 273.187311 
L 756.864325 273.462714 
L 766.389275 273.633566 
L 775.914225 273.712107 
L 785.439175 273.759028 
L 794.964125 273.795748 
L 804.489075 273.850319 
L 814.014025 273.896729 
L 823.538975 273.915599 
L 833.063925 273.933959 
L 842.588875 273.95436 
L 852.113825 273.97119 
L 861.638775 273.97578 
L 871.163725 273.96762 
L 880.688675 273.96609 
L 890.213625 273.97374 
L 899.738575 273.97731 
L 909.263525 273.97782 
L 918.788475 273.97935 
L 928.313425 273.98343 
L 937.838375 273.98853 
L 947.363325 273.98139 
L 956.888275 273.942119 
L 966.413225 273.888059 
L 975.938175 273.322463 
L 985.463125 272.774717 
" style="fill:none;stroke:#5cb85c;stroke-linecap:square;"/>
   </g>
   <g id="line2d_16">
    <path clip-path="url(#p793d096cd6)" d="M 32.968125 273.984867 
L 42.493075 273.956303 
L 52.018025 273.927739 
L 61.542975 273.931634 
L 71.067925 273.917352 
L 80.592875 273.899175 
L 90.117825 273.877103 
L 99.642775 273.797903 
L 109.167725 273.629117 
L 118.692675 273.412292 
L 128.217625 273.292843 
L 137.742575 273.152621 
L 147.267525 272.953972 
L 156.792475 272.369713 
L 166.317425 271.356995 
L 175.842375 270.254692 
L 185.367325 268.599289 
L 194.892275 266.460897 
L 204.417225 263.470785 
L 213.942175 259.260219 
L 223.467125 254.888656 
L 232.992075 249.908165 
L 242.517025 243.761751 
L 252.041975 235.617168 
L 261.566925 225.492593 
L 271.091875 214.925279 
L 280.616825 202.951846 
L 290.141775 190.205892 
L 299.666725 178.149364 
L 309.191675 166.617372 
L 318.716625 154.851676 
L 328.241575 143.453414 
L 337.766525 134.657057 
L 347.291475 125.760726 
L 356.816425 112.495429 
L 366.341375 97.27481 
L 375.866325 79.579525 
L 385.391275 61.289593 
L 394.916225 46.462375 
L 404.441175 43.030822 
L 413.966125 56.581757 
L 423.491075 76.868559 
L 433.016025 94.762492 
L 442.540975 110.8608 
L 452.065925 125.276439 
L 461.590875 139.163648 
L 471.115825 154.333632 
L 480.640775 165.987669 
L 490.165725 176.665344 
L 499.690675 189.324308 
L 509.215625 199.840987 
L 518.740575 208.833396 
L 528.265525 216.932536 
L 537.790475 221.98184 
L 547.315425 226.459868 
L 556.840375 231.287153 
L 566.365325 236.052117 
L 575.890275 240.422381 
L 585.415225 243.943521 
L 594.940175 247.855465 
L 604.465125 251.632381 
L 613.990075 255.223632 
L 623.515025 258.52535 
L 633.039975 261.050651 
L 642.564925 263.063101 
L 652.089875 265.154752 
L 661.614825 267.273668 
L 671.139775 268.462961 
L 680.664725 269.00048 
L 690.189675 269.401672 
L 699.714625 269.891152 
L 709.239575 270.43776 
L 718.764525 271.263514 
L 728.289475 272.165871 
L 737.814425 272.791678 
L 747.339375 273.243506 
L 756.864325 273.514862 
L 766.389275 273.662874 
L 775.914225 273.744671 
L 785.439175 273.803097 
L 794.964125 273.823871 
L 804.489075 273.845943 
L 814.014025 273.893982 
L 823.538975 273.929037 
L 833.063925 273.931634 
L 842.588875 273.926441 
L 852.113825 273.940722 
L 861.638775 273.962795 
L 871.163725 273.977076 
L 880.688675 273.978375 
L 890.213625 273.97448 
L 899.738575 273.970585 
L 909.263525 273.970585 
L 918.788475 273.973181 
L 928.313425 273.98227 
L 937.838375 273.99006 
L 947.363325 273.98227 
L 956.888275 273.942021 
L 966.413225 273.892683 
L 975.938175 273.344777 
L 985.463125 272.803363 
" style="fill:none;stroke:#5cb85c;stroke-linecap:square;"/>
   </g>
   <g id="line2d_17">
    <path clip-path="url(#p793d096cd6)" d="M 32.968125 273.973085 
L 42.493075 273.95894 
L 52.018025 273.949745 
L 61.542975 273.923576 
L 71.067925 273.864165 
L 80.592875 273.804754 
L 90.117825 273.734734 
L 99.642775 273.651275 
L 109.167725 273.549427 
L 118.692675 273.458896 
L 128.217625 273.301881 
L 137.742575 272.93339 
L 147.267525 272.562071 
L 156.792475 271.895817 
L 166.317425 270.879462 
L 175.842375 269.771869 
L 185.367325 267.900418 
L 194.892275 265.396662 
L 204.417225 262.369523 
L 213.942175 258.352905 
L 223.467125 253.187672 
L 232.992075 245.841201 
L 242.517025 237.720263 
L 252.041975 229.485454 
L 261.566925 220.051813 
L 271.091875 209.296274 
L 280.616825 195.105497 
L 290.141775 180.091452 
L 299.666725 167.18721 
L 309.191675 155.253349 
L 318.716625 142.718305 
L 328.241575 130.200235 
L 337.766525 120.294841 
L 347.291475 111.033068 
L 356.816425 99.870138 
L 366.341375 89.46753 
L 375.866325 79.801195 
L 385.391275 73.083492 
L 394.916225 71.436247 
L 404.441175 75.399112 
L 413.966125 85.933274 
L 423.491075 100.090101 
L 433.016025 113.994431 
L 442.540975 126.560595 
L 452.065925 138.831826 
L 461.590875 149.965758 
L 471.115825 160.98511 
L 480.640775 170.775926 
L 490.165725 180.17491 
L 499.690675 189.986237 
L 509.215625 197.887212 
L 518.740575 204.988258 
L 528.265525 211.647965 
L 537.790475 216.869073 
L 547.315425 221.793125 
L 556.840375 226.895411 
L 566.365325 232.48996 
L 575.890275 237.737945 
L 585.415225 242.089811 
L 594.940175 246.213228 
L 604.465125 249.661903 
L 613.990075 253.17777 
L 623.515025 256.605227 
L 633.039975 259.541835 
L 642.564925 262.121976 
L 652.089875 264.358382 
L 661.614825 266.473843 
L 671.139775 267.891223 
L 680.664725 268.761879 
L 690.189675 269.586562 
L 699.714625 270.152383 
L 709.239575 270.431757 
L 718.764525 271.065476 
L 728.289475 271.942497 
L 737.814425 272.691502 
L 747.339375 273.178815 
L 756.864325 273.424947 
L 766.389275 273.569938 
L 775.914225 273.643495 
L 785.439175 273.745343 
L 794.964125 273.835167 
L 804.489075 273.876896 
L 814.014025 273.903065 
L 823.538975 273.917211 
L 833.063925 273.929942 
L 842.588875 273.946209 
L 852.113825 273.957525 
L 861.638775 273.968134 
L 871.163725 273.975207 
L 880.688675 273.977329 
L 890.213625 273.978036 
L 899.738575 273.976622 
L 909.263525 273.977329 
L 918.788475 273.980865 
L 928.313425 273.983695 
L 937.838375 273.986524 
L 947.363325 273.98228 
L 956.888275 273.940551 
L 966.413225 273.86558 
L 975.938175 273.279955 
L 985.463125 272.724744 
" style="fill:none;stroke:#5cb85c;stroke-linecap:square;"/>
   </g>
   <g id="line2d_18">
    <path clip-path="url(#p793d096cd6)" d="M 32.968125 273.99006 
L 985.463125 273.99006 
" style="fill:none;stroke:#dedede;stroke-linecap:square;stroke-width:2;"/>
   </g>
   <g id="text_15">
    <!-- FastQC: Per Sequence GC Content -->
    <defs>
     <path d="M 9.8125 72.90625 
L 51.703125 72.90625 
L 51.703125 64.59375 
L 19.671875 64.59375 
L 19.671875 43.109375 
L 48.578125 43.109375 
L 48.578125 34.8125 
L 19.671875 34.8125 
L 19.671875 0 
L 9.8125 0 
z
" id="DejaVuSans-70"/>
     <path d="M 44.28125 53.078125 
L 44.28125 44.578125 
Q 40.484375 46.53125 36.375 47.5 
Q 32.28125 48.484375 27.875 48.484375 
Q 21.1875 48.484375 17.84375 46.4375 
Q 14.5 44.390625 14.5 40.28125 
Q 14.5 37.15625 16.890625 35.375 
Q 19.28125 33.59375 26.515625 31.984375 
L 29.59375 31.296875 
Q 39.15625 29.25 43.1875 25.515625 
Q 47.21875 21.78125 47.21875 15.09375 
Q 47.21875 7.46875 41.1875 3.015625 
Q 35.15625 -1.421875 24.609375 -1.421875 
Q 20.21875 -1.421875 15.453125 -0.5625 
Q 10.6875 0.296875 5.421875 2 
L 5.421875 11.28125 
Q 10.40625 8.6875 15.234375 7.390625 
Q 20.0625 6.109375 24.8125 6.109375 
Q 31.15625 6.109375 34.5625 8.28125 
Q 37.984375 10.453125 37.984375 14.40625 
Q 37.984375 18.0625 35.515625 20.015625 
Q 33.0625 21.96875 24.703125 23.78125 
L 21.578125 24.515625 
Q 13.234375 26.265625 9.515625 29.90625 
Q 5.8125 33.546875 5.8125 39.890625 
Q 5.8125 47.609375 11.28125 51.796875 
Q 16.75 56 26.8125 56 
Q 31.78125 56 36.171875 55.265625 
Q 40.578125 54.546875 44.28125 53.078125 
z
" id="DejaVuSans-115"/>
     <path d="M 39.40625 66.21875 
Q 28.65625 66.21875 22.328125 58.203125 
Q 16.015625 50.203125 16.015625 36.375 
Q 16.015625 22.609375 22.328125 14.59375 
Q 28.65625 6.59375 39.40625 6.59375 
Q 50.140625 6.59375 56.421875 14.59375 
Q 62.703125 22.609375 62.703125 36.375 
Q 62.703125 50.203125 56.421875 58.203125 
Q 50.140625 66.21875 39.40625 66.21875 
z
M 53.21875 1.3125 
L 66.21875 -12.890625 
L 54.296875 -12.890625 
L 43.5 -1.21875 
Q 41.890625 -1.3125 41.03125 -1.359375 
Q 40.1875 -1.421875 39.40625 -1.421875 
Q 24.03125 -1.421875 14.8125 8.859375 
Q 5.609375 19.140625 5.609375 36.375 
Q 5.609375 53.65625 14.8125 63.9375 
Q 24.03125 74.21875 39.40625 74.21875 
Q 54.734375 74.21875 63.90625 63.9375 
Q 73.09375 53.65625 73.09375 36.375 
Q 73.09375 23.6875 67.984375 14.640625 
Q 62.890625 5.609375 53.21875 1.3125 
z
" id="DejaVuSans-81"/>
     <path d="M 11.71875 12.40625 
L 22.015625 12.40625 
L 22.015625 0 
L 11.71875 0 
z
M 11.71875 51.703125 
L 22.015625 51.703125 
L 22.015625 39.3125 
L 11.71875 39.3125 
z
" id="DejaVuSans-58"/>
     <path d="M 53.515625 70.515625 
L 53.515625 60.890625 
Q 47.90625 63.578125 42.921875 64.890625 
Q 37.9375 66.21875 33.296875 66.21875 
Q 25.25 66.21875 20.875 63.09375 
Q 16.5 59.96875 16.5 54.203125 
Q 16.5 49.359375 19.40625 46.890625 
Q 22.3125 44.4375 30.421875 42.921875 
L 36.375 41.703125 
Q 47.40625 39.59375 52.65625 34.296875 
Q 57.90625 29 57.90625 20.125 
Q 57.90625 9.515625 50.796875 4.046875 
Q 43.703125 -1.421875 29.984375 -1.421875 
Q 24.8125 -1.421875 18.96875 -0.25 
Q 13.140625 0.921875 6.890625 3.21875 
L 6.890625 13.375 
Q 12.890625 10.015625 18.65625 8.296875 
Q 24.421875 6.59375 29.984375 6.59375 
Q 38.421875 6.59375 43.015625 9.90625 
Q 47.609375 13.234375 47.609375 19.390625 
Q 47.609375 24.75 44.3125 27.78125 
Q 41.015625 30.8125 33.5 32.328125 
L 27.484375 33.5 
Q 16.453125 35.6875 11.515625 40.375 
Q 6.59375 45.0625 6.59375 53.421875 
Q 6.59375 63.09375 13.40625 68.65625 
Q 20.21875 74.21875 32.171875 74.21875 
Q 37.3125 74.21875 42.625 73.28125 
Q 47.953125 72.359375 53.515625 70.515625 
z
" id="DejaVuSans-83"/>
     <path d="M 14.796875 27.296875 
Q 14.796875 17.390625 18.875 11.75 
Q 22.953125 6.109375 30.078125 6.109375 
Q 37.203125 6.109375 41.296875 11.75 
Q 45.40625 17.390625 45.40625 27.296875 
Q 45.40625 37.203125 41.296875 42.84375 
Q 37.203125 48.484375 30.078125 48.484375 
Q 22.953125 48.484375 18.875 42.84375 
Q 14.796875 37.203125 14.796875 27.296875 
z
M 45.40625 8.203125 
Q 42.578125 3.328125 38.25 0.953125 
Q 33.9375 -1.421875 27.875 -1.421875 
Q 17.96875 -1.421875 11.734375 6.484375 
Q 5.515625 14.40625 5.515625 27.296875 
Q 5.515625 40.1875 11.734375 48.09375 
Q 17.96875 56 27.875 56 
Q 33.9375 56 38.25 53.625 
Q 42.578125 51.265625 45.40625 46.390625 
L 45.40625 54.6875 
L 54.390625 54.6875 
L 54.390625 -20.796875 
L 45.40625 -20.796875 
z
" id="DejaVuSans-113"/>
     <path d="M 8.5 21.578125 
L 8.5 54.6875 
L 17.484375 54.6875 
L 17.484375 21.921875 
Q 17.484375 14.15625 20.5 10.265625 
Q 23.53125 6.390625 29.59375 6.390625 
Q 36.859375 6.390625 41.078125 11.03125 
Q 45.3125 15.671875 45.3125 23.6875 
L 45.3125 54.6875 
L 54.296875 54.6875 
L 54.296875 0 
L 45.3125 0 
L 45.3125 8.40625 
Q 42.046875 3.421875 37.71875 1 
Q 33.40625 -1.421875 27.6875 -1.421875 
Q 18.265625 -1.421875 13.375 4.4375 
Q 8.5 10.296875 8.5 21.578125 
z
M 31.109375 56 
z
" id="DejaVuSans-117"/>
     <path d="M 30.609375 48.390625 
Q 23.390625 48.390625 19.1875 42.75 
Q 14.984375 37.109375 14.984375 27.296875 
Q 14.984375 17.484375 19.15625 11.84375 
Q 23.34375 6.203125 30.609375 6.203125 
Q 37.796875 6.203125 41.984375 11.859375 
Q 46.1875 17.53125 46.1875 27.296875 
Q 46.1875 37.015625 41.984375 42.703125 
Q 37.796875 48.390625 30.609375 48.390625 
z
M 30.609375 56 
Q 42.328125 56 49.015625 48.375 
Q 55.71875 40.765625 55.71875 27.296875 
Q 55.71875 13.875 49.015625 6.21875 
Q 42.328125 -1.421875 30.609375 -1.421875 
Q 18.84375 -1.421875 12.171875 6.21875 
Q 5.515625 13.875 5.515625 27.296875 
Q 5.515625 40.765625 12.171875 48.375 
Q 18.84375 56 30.609375 56 
z
" id="DejaVuSans-111"/>
    </defs>
    <g transform="translate(371.574375 19.3575)scale(0.16 -0.16)">
     <use xlink:href="#DejaVuSans-70"/>
     <use x="57.378906" xlink:href="#DejaVuSans-97"/>
     <use x="118.658203" xlink:href="#DejaVuSans-115"/>
     <use x="170.757812" xlink:href="#DejaVuSans-116"/>
     <use x="209.966797" xlink:href="#DejaVuSans-81"/>
     <use x="288.677734" xlink:href="#DejaVuSans-67"/>
     <use x="358.501953" xlink:href="#DejaVuSans-58"/>
     <use x="392.193359" xlink:href="#DejaVuSans-32"/>
     <use x="423.980469" xlink:href="#DejaVuSans-80"/>
     <use x="484.236328" xlink:href="#DejaVuSans-101"/>
     <use x="545.759766" xlink:href="#DejaVuSans-114"/>
     <use x="586.873047" xlink:href="#DejaVuSans-32"/>
     <use x="618.660156" xlink:href="#DejaVuSans-83"/>
     <use x="682.136719" xlink:href="#DejaVuSans-101"/>
     <use x="743.660156" xlink:href="#DejaVuSans-113"/>
     <use x="807.136719" xlink:href="#DejaVuSans-117"/>
     <use x="870.515625" xlink:href="#DejaVuSans-101"/>
     <use x="932.039062" xlink:href="#DejaVuSans-110"/>
     <use x="995.417969" xlink:href="#DejaVuSans-99"/>
     <use x="1050.398438" xlink:href="#DejaVuSans-101"/>
     <use x="1111.921875" xlink:href="#DejaVuSans-32"/>
     <use x="1143.708984" xlink:href="#DejaVuSans-71"/>
     <use x="1221.199219" xlink:href="#DejaVuSans-67"/>
     <use x="1291.023438" xlink:href="#DejaVuSans-32"/>
     <use x="1322.810547" xlink:href="#DejaVuSans-67"/>
     <use x="1392.634766" xlink:href="#DejaVuSans-111"/>
     <use x="1453.816406" xlink:href="#DejaVuSans-110"/>
     <use x="1517.195312" xlink:href="#DejaVuSans-116"/>
     <use x="1556.404297" xlink:href="#DejaVuSans-101"/>
     <use x="1617.927734" xlink:href="#DejaVuSans-110"/>
     <use x="1681.306641" xlink:href="#DejaVuSans-116"/>
    </g>
   </g>
   <g id="legend_1">
    <g id="line2d_19">
     <path d="M 40.168125 291.525394 
L 56.168125 291.525394 
" style="fill:none;stroke:#5cb85c;stroke-linecap:square;"/>
    </g>
    <g id="line2d_20"/>
    <g id="text_16">
     <!-- RT_Gad2_1 -->
     <defs>
      <path d="M 44.390625 34.1875 
Q 47.5625 33.109375 50.5625 29.59375 
Q 53.5625 26.078125 56.59375 19.921875 
L 66.609375 0 
L 56 0 
L 46.6875 18.703125 
Q 43.0625 26.03125 39.671875 28.421875 
Q 36.28125 30.8125 30.421875 30.8125 
L 19.671875 30.8125 
L 19.671875 0 
L 9.8125 0 
L 9.8125 72.90625 
L 32.078125 72.90625 
Q 44.578125 72.90625 50.734375 67.671875 
Q 56.890625 62.453125 56.890625 51.90625 
Q 56.890625 45.015625 53.6875 40.46875 
Q 50.484375 35.9375 44.390625 34.1875 
z
M 19.671875 64.796875 
L 19.671875 38.921875 
L 32.078125 38.921875 
Q 39.203125 38.921875 42.84375 42.21875 
Q 46.484375 45.515625 46.484375 51.90625 
Q 46.484375 58.296875 42.84375 61.546875 
Q 39.203125 64.796875 32.078125 64.796875 
z
" id="DejaVuSans-82"/>
      <path d="M -0.296875 72.90625 
L 61.375 72.90625 
L 61.375 64.59375 
L 35.5 64.59375 
L 35.5 0 
L 25.59375 0 
L 25.59375 64.59375 
L -0.296875 64.59375 
z
" id="DejaVuSans-84"/>
      <path d="M 50.984375 -16.609375 
L 50.984375 -23.578125 
L -0.984375 -23.578125 
L -0.984375 -16.609375 
z
" id="DejaVuSans-95"/>
      <path d="M 45.40625 46.390625 
L 45.40625 75.984375 
L 54.390625 75.984375 
L 54.390625 0 
L 45.40625 0 
L 45.40625 8.203125 
Q 42.578125 3.328125 38.25 0.953125 
Q 33.9375 -1.421875 27.875 -1.421875 
Q 17.96875 -1.421875 11.734375 6.484375 
Q 5.515625 14.40625 5.515625 27.296875 
Q 5.515625 40.1875 11.734375 48.09375 
Q 17.96875 56 27.875 56 
Q 33.9375 56 38.25 53.625 
Q 42.578125 51.265625 45.40625 46.390625 
z
M 14.796875 27.296875 
Q 14.796875 17.390625 18.875 11.75 
Q 22.953125 6.109375 30.078125 6.109375 
Q 37.203125 6.109375 41.296875 11.75 
Q 45.40625 17.390625 45.40625 27.296875 
Q 45.40625 37.203125 41.296875 42.84375 
Q 37.203125 48.484375 30.078125 48.484375 
Q 22.953125 48.484375 18.875 42.84375 
Q 14.796875 37.203125 14.796875 27.296875 
z
" id="DejaVuSans-100"/>
     </defs>
     <g transform="translate(62.568125 294.325394)scale(0.08 -0.08)">
      <use xlink:href="#DejaVuSans-82"/>
      <use x="69.373047" xlink:href="#DejaVuSans-84"/>
      <use x="130.457031" xlink:href="#DejaVuSans-95"/>
      <use x="180.457031" xlink:href="#DejaVuSans-71"/>
      <use x="257.947266" xlink:href="#DejaVuSans-97"/>
      <use x="319.226562" xlink:href="#DejaVuSans-100"/>
      <use x="382.703125" xlink:href="#DejaVuSans-50"/>
      <use x="446.326172" xlink:href="#DejaVuSans-95"/>
      <use x="496.326172" xlink:href="#DejaVuSans-49"/>
     </g>
    </g>
    <g id="line2d_21">
     <path d="M 40.168125 303.490394 
L 56.168125 303.490394 
" style="fill:none;stroke:#5cb85c;stroke-linecap:square;"/>
    </g>
    <g id="line2d_22"/>
    <g id="text_17">
     <!-- RT_Gad2_2 -->
     <g transform="translate(62.568125 306.290394)scale(0.08 -0.08)">
      <use xlink:href="#DejaVuSans-82"/>
      <use x="69.373047" xlink:href="#DejaVuSans-84"/>
      <use x="130.457031" xlink:href="#DejaVuSans-95"/>
      <use x="180.457031" xlink:href="#DejaVuSans-71"/>
      <use x="257.947266" xlink:href="#DejaVuSans-97"/>
      <use x="319.226562" xlink:href="#DejaVuSans-100"/>
      <use x="382.703125" xlink:href="#DejaVuSans-50"/>
      <use x="446.326172" xlink:href="#DejaVuSans-95"/>
      <use x="496.326172" xlink:href="#DejaVuSans-50"/>
     </g>
    </g>
    <g id="line2d_23">
     <path d="M 40.168125 315.455394 
L 56.168125 315.455394 
" style="fill:none;stroke:#5cb85c;stroke-linecap:square;"/>
    </g>
    <g id="line2d_24"/>
    <g id="text_18">
     <!-- RT_Gad2_3 -->
     <g transform="translate(62.568125 318.255394)scale(0.08 -0.08)">
      <use xlink:href="#DejaVuSans-82"/>
      <use x="69.373047" xlink:href="#DejaVuSans-84"/>
      <use x="130.457031" xlink:href="#DejaVuSans-95"/>
      <use x="180.457031" xlink:href="#DejaVuSans-71"/>
      <use x="257.947266" xlink:href="#DejaVuSans-97"/>
      <use x="319.226562" xlink:href="#DejaVuSans-100"/>
      <use x="382.703125" xlink:href="#DejaVuSans-50"/>
      <use x="446.326172" xlink:href="#DejaVuSans-95"/>
      <use x="496.326172" xlink:href="#DejaVuSans-51"/>
     </g>
    </g>
    <g id="line2d_25">
     <path d="M 252.894063 291.525394 
L 268.894063 291.525394 
" style="fill:none;stroke:#f0ad4e;stroke-linecap:square;"/>
    </g>
    <g id="line2d_26"/>
    <g id="text_19">
     <!-- RT_vGluT2_1 -->
     <defs>
      <path d="M 2.984375 54.6875 
L 12.5 54.6875 
L 29.59375 8.796875 
L 46.6875 54.6875 
L 56.203125 54.6875 
L 35.6875 0 
L 23.484375 0 
z
" id="DejaVuSans-118"/>
      <path d="M 9.421875 75.984375 
L 18.40625 75.984375 
L 18.40625 0 
L 9.421875 0 
z
" id="DejaVuSans-108"/>
     </defs>
     <g transform="translate(275.294063 294.325394)scale(0.08 -0.08)">
      <use xlink:href="#DejaVuSans-82"/>
      <use x="69.373047" xlink:href="#DejaVuSans-84"/>
      <use x="130.457031" xlink:href="#DejaVuSans-95"/>
      <use x="180.457031" xlink:href="#DejaVuSans-118"/>
      <use x="239.636719" xlink:href="#DejaVuSans-71"/>
      <use x="317.126953" xlink:href="#DejaVuSans-108"/>
      <use x="344.910156" xlink:href="#DejaVuSans-117"/>
      <use x="408.289062" xlink:href="#DejaVuSans-84"/>
      <use x="469.373047" xlink:href="#DejaVuSans-50"/>
      <use x="532.996094" xlink:href="#DejaVuSans-95"/>
      <use x="582.996094" xlink:href="#DejaVuSans-49"/>
     </g>
    </g>
    <g id="line2d_27">
     <path d="M 252.894063 303.490394 
L 268.894063 303.490394 
" style="fill:none;stroke:#5cb85c;stroke-linecap:square;"/>
    </g>
    <g id="line2d_28"/>
    <g id="text_20">
     <!-- RT_vGluT2_3 -->
     <g transform="translate(275.294063 306.290394)scale(0.08 -0.08)">
      <use xlink:href="#DejaVuSans-82"/>
      <use x="69.373047" xlink:href="#DejaVuSans-84"/>
      <use x="130.457031" xlink:href="#DejaVuSans-95"/>
      <use x="180.457031" xlink:href="#DejaVuSans-118"/>
      <use x="239.636719" xlink:href="#DejaVuSans-71"/>
      <use x="317.126953" xlink:href="#DejaVuSans-108"/>
      <use x="344.910156" xlink:href="#DejaVuSans-117"/>
      <use x="408.289062" xlink:href="#DejaVuSans-84"/>
      <use x="469.373047" xlink:href="#DejaVuSans-50"/>
      <use x="532.996094" xlink:href="#DejaVuSans-95"/>
      <use x="582.996094" xlink:href="#DejaVuSans-51"/>
     </g>
    </g>
    <g id="line2d_29">
     <path d="M 472.5525 291.525394 
L 488.5525 291.525394 
" style="fill:none;stroke:#5cb85c;stroke-linecap:square;"/>
    </g>
    <g id="line2d_30"/>
    <g id="text_21">
     <!-- S1_Gad2_1 -->
     <g transform="translate(494.9525 294.325394)scale(0.08 -0.08)">
      <use xlink:href="#DejaVuSans-83"/>
      <use x="63.476562" xlink:href="#DejaVuSans-49"/>
      <use x="127.099609" xlink:href="#DejaVuSans-95"/>
      <use x="177.099609" xlink:href="#DejaVuSans-71"/>
      <use x="254.589844" xlink:href="#DejaVuSans-97"/>
      <use x="315.869141" xlink:href="#DejaVuSans-100"/>
      <use x="379.345703" xlink:href="#DejaVuSans-50"/>
      <use x="442.96875" xlink:href="#DejaVuSans-95"/>
      <use x="492.96875" xlink:href="#DejaVuSans-49"/>
     </g>
    </g>
    <g id="line2d_31">
     <path d="M 472.5525 303.490394 
L 488.5525 303.490394 
" style="fill:none;stroke:#5cb85c;stroke-linecap:square;"/>
    </g>
    <g id="line2d_32"/>
    <g id="text_22">
     <!-- S1_Gad2_2 -->
     <g transform="translate(494.9525 306.290394)scale(0.08 -0.08)">
      <use xlink:href="#DejaVuSans-83"/>
      <use x="63.476562" xlink:href="#DejaVuSans-49"/>
      <use x="127.099609" xlink:href="#DejaVuSans-95"/>
      <use x="177.099609" xlink:href="#DejaVuSans-71"/>
      <use x="254.589844" xlink:href="#DejaVuSans-97"/>
      <use x="315.869141" xlink:href="#DejaVuSans-100"/>
      <use x="379.345703" xlink:href="#DejaVuSans-50"/>
      <use x="442.96875" xlink:href="#DejaVuSans-95"/>
      <use x="492.96875" xlink:href="#DejaVuSans-50"/>
     </g>
    </g>
    <g id="line2d_33">
     <path d="M 685.010938 291.525394 
L 701.010938 291.525394 
" style="fill:none;stroke:#5cb85c;stroke-linecap:square;"/>
    </g>
    <g id="line2d_34"/>
    <g id="text_23">
     <!-- S1_Gad2_3 -->
     <g transform="translate(707.410938 294.325394)scale(0.08 -0.08)">
      <use xlink:href="#DejaVuSans-83"/>
      <use x="63.476562" xlink:href="#DejaVuSans-49"/>
      <use x="127.099609" xlink:href="#DejaVuSans-95"/>
      <use x="177.099609" xlink:href="#DejaVuSans-71"/>
      <use x="254.589844" xlink:href="#DejaVuSans-97"/>
      <use x="315.869141" xlink:href="#DejaVuSans-100"/>
      <use x="379.345703" xlink:href="#DejaVuSans-50"/>
      <use x="442.96875" xlink:href="#DejaVuSans-95"/>
      <use x="492.96875" xlink:href="#DejaVuSans-51"/>
     </g>
    </g>
    <g id="line2d_35">
     <path d="M 685.010938 303.490394 
L 701.010938 303.490394 
" style="fill:none;stroke:#5cb85c;stroke-linecap:square;"/>
    </g>
    <g id="line2d_36"/>
    <g id="text_24">
     <!-- S1_vGluT2_1 -->
     <g transform="translate(707.410938 306.290394)scale(0.08 -0.08)">
      <use xlink:href="#DejaVuSans-83"/>
      <use x="63.476562" xlink:href="#DejaVuSans-49"/>
      <use x="127.099609" xlink:href="#DejaVuSans-95"/>
      <use x="177.099609" xlink:href="#DejaVuSans-118"/>
      <use x="236.279297" xlink:href="#DejaVuSans-71"/>
      <use x="313.769531" xlink:href="#DejaVuSans-108"/>
      <use x="341.552734" xlink:href="#DejaVuSans-117"/>
      <use x="404.931641" xlink:href="#DejaVuSans-84"/>
      <use x="466.015625" xlink:href="#DejaVuSans-50"/>
      <use x="529.638672" xlink:href="#DejaVuSans-95"/>
      <use x="579.638672" xlink:href="#DejaVuSans-49"/>
     </g>
    </g>
    <g id="line2d_37">
     <path d="M 904.401875 291.525394 
L 920.401875 291.525394 
" style="fill:none;stroke:#5cb85c;stroke-linecap:square;"/>
    </g>
    <g id="line2d_38"/>
    <g id="text_25">
     <!-- S1_vGluT2_2 -->
     <g transform="translate(926.801875 294.325394)scale(0.08 -0.08)">
      <use xlink:href="#DejaVuSans-83"/>
      <use x="63.476562" xlink:href="#DejaVuSans-49"/>
      <use x="127.099609" xlink:href="#DejaVuSans-95"/>
      <use x="177.099609" xlink:href="#DejaVuSans-118"/>
      <use x="236.279297" xlink:href="#DejaVuSans-71"/>
      <use x="313.769531" xlink:href="#DejaVuSans-108"/>
      <use x="341.552734" xlink:href="#DejaVuSans-117"/>
      <use x="404.931641" xlink:href="#DejaVuSans-84"/>
      <use x="466.015625" xlink:href="#DejaVuSans-50"/>
      <use x="529.638672" xlink:href="#DejaVuSans-95"/>
      <use x="579.638672" xlink:href="#DejaVuSans-50"/>
     </g>
    </g>
    <g id="line2d_39">
     <path d="M 904.401875 303.490394 
L 920.401875 303.490394 
" style="fill:none;stroke:#5cb85c;stroke-linecap:square;"/>
    </g>
    <g id="line2d_40"/>
    <g id="text_26">
     <!-- S1_vGluT2_3 -->
     <g transform="translate(926.801875 306.290394)scale(0.08 -0.08)">
      <use xlink:href="#DejaVuSans-83"/>
      <use x="63.476562" xlink:href="#DejaVuSans-49"/>
      <use x="127.099609" xlink:href="#DejaVuSans-95"/>
      <use x="177.099609" xlink:href="#DejaVuSans-118"/>
      <use x="236.279297" xlink:href="#DejaVuSans-71"/>
      <use x="313.769531" xlink:href="#DejaVuSans-108"/>
      <use x="341.552734" xlink:href="#DejaVuSans-117"/>
      <use x="404.931641" xlink:href="#DejaVuSans-84"/>
      <use x="466.015625" xlink:href="#DejaVuSans-50"/>
      <use x="529.638672" xlink:href="#DejaVuSans-95"/>
      <use x="579.638672" xlink:href="#DejaVuSans-51"/>
     </g>
    </g>
   </g>
  </g>
 </g>
 <defs>
  <clipPath id="p793d096cd6">
   <rect height="242.5072" width="952.495" x="32.968125" y="31.48286"/>
  </clipPath>
 </defs>
</svg>
