<?xml version="1.0" encoding="utf-8" standalone="no"?>
<!DOCTYPE svg PUBLIC "-//W3C//DTD SVG 1.1//EN"
  "http://www.w3.org/Graphics/SVG/1.1/DTD/svg11.dtd">
<!-- Created with matplotlib (https://matplotlib.org/) -->
<svg height="330.541644pt" version="1.1" viewBox="0 0 1000.358125 330.541644" width="1000.358125pt" xmlns="http://www.w3.org/2000/svg" xmlns:xlink="http://www.w3.org/1999/xlink">
 <defs>
  <style type="text/css">
*{stroke-linecap:butt;stroke-linejoin:round;}
  </style>
 </defs>
 <g id="figure_1">
  <g id="axes_1">
   <g id="patch_1">
    <path d="M 32.968125 273.99006 
L 993.158125 273.99006 
L 993.158125 31.48286 
L 32.968125 31.48286 
z
" style="fill:#ffffff;"/>
   </g>
   <g id="matplotlib.axis_1">
    <g id="xtick_1">
     <g id="text_1">
      <!-- 0 -->
      <defs>
       <path d="M 31.78125 66.40625 
Q 24.171875 66.40625 20.328125 58.90625 
Q 16.5 51.421875 16.5 36.375 
Q 16.5 21.390625 20.328125 13.890625 
Q 24.171875 6.390625 31.78125 6.390625 
Q 39.453125 6.390625 43.28125 13.890625 
Q 47.125 21.390625 47.125 36.375 
Q 47.125 51.421875 43.28125 58.90625 
Q 39.453125 66.40625 31.78125 66.40625 
z
M 31.78125 74.21875 
Q 44.046875 74.21875 50.515625 64.515625 
Q 56.984375 54.828125 56.984375 36.375 
Q 56.984375 17.96875 50.515625 8.265625 
Q 44.046875 -1.421875 31.78125 -1.421875 
Q 19.53125 -1.421875 13.0625 8.265625 
Q 6.59375 17.96875 6.59375 36.375 
Q 6.59375 54.828125 13.0625 64.515625 
Q 19.53125 74.21875 31.78125 74.21875 
z
" id="DejaVuSans-48"/>
      </defs>
      <g transform="translate(71.148727 287.06881)scale(0.08 -0.08)">
       <use xlink:href="#DejaVuSans-48"/>
      </g>
     </g>
    </g>
    <g id="xtick_2">
     <g id="text_2">
      <!-- 50 -->
      <defs>
       <path d="M 10.796875 72.90625 
L 49.515625 72.90625 
L 49.515625 64.59375 
L 19.828125 64.59375 
L 19.828125 46.734375 
Q 21.96875 47.46875 24.109375 47.828125 
Q 26.265625 48.1875 28.421875 48.1875 
Q 40.625 48.1875 47.75 41.5 
Q 54.890625 34.8125 54.890625 23.390625 
Q 54.890625 11.625 47.5625 5.09375 
Q 40.234375 -1.421875 26.90625 -1.421875 
Q 22.3125 -1.421875 17.546875 -0.640625 
Q 12.796875 0.140625 7.71875 1.703125 
L 7.71875 11.625 
Q 12.109375 9.234375 16.796875 8.0625 
Q 21.484375 6.890625 26.703125 6.890625 
Q 35.15625 6.890625 40.078125 11.328125 
Q 45.015625 15.765625 45.015625 23.390625 
Q 45.015625 31 40.078125 35.4375 
Q 35.15625 39.890625 26.703125 39.890625 
Q 22.75 39.890625 18.8125 39.015625 
Q 14.890625 38.140625 10.796875 36.28125 
z
" id="DejaVuSans-53"/>
      </defs>
      <g transform="translate(214.573627 287.06881)scale(0.08 -0.08)">
       <use xlink:href="#DejaVuSans-53"/>
       <use x="63.623047" xlink:href="#DejaVuSans-48"/>
      </g>
     </g>
    </g>
    <g id="xtick_3">
     <g id="text_3">
      <!-- 100 -->
      <defs>
       <path d="M 12.40625 8.296875 
L 28.515625 8.296875 
L 28.515625 63.921875 
L 10.984375 60.40625 
L 10.984375 69.390625 
L 28.421875 72.90625 
L 38.28125 72.90625 
L 38.28125 8.296875 
L 54.390625 8.296875 
L 54.390625 0 
L 12.40625 0 
z
" id="DejaVuSans-49"/>
      </defs>
      <g transform="translate(357.998526 287.06881)scale(0.08 -0.08)">
       <use xlink:href="#DejaVuSans-49"/>
       <use x="63.623047" xlink:href="#DejaVuSans-48"/>
       <use x="127.246094" xlink:href="#DejaVuSans-48"/>
      </g>
     </g>
    </g>
    <g id="xtick_4">
     <g id="text_4">
      <!-- 150 -->
      <g transform="translate(503.968426 287.06881)scale(0.08 -0.08)">
       <use xlink:href="#DejaVuSans-49"/>
       <use x="63.623047" xlink:href="#DejaVuSans-53"/>
       <use x="127.246094" xlink:href="#DejaVuSans-48"/>
      </g>
     </g>
    </g>
    <g id="xtick_5">
     <g id="text_5">
      <!-- 200 -->
      <defs>
       <path d="M 19.1875 8.296875 
L 53.609375 8.296875 
L 53.609375 0 
L 7.328125 0 
L 7.328125 8.296875 
Q 12.9375 14.109375 22.625 23.890625 
Q 32.328125 33.6875 34.8125 36.53125 
Q 39.546875 41.84375 41.421875 45.53125 
Q 43.3125 49.21875 43.3125 52.78125 
Q 43.3125 58.59375 39.234375 62.25 
Q 35.15625 65.921875 28.609375 65.921875 
Q 23.96875 65.921875 18.8125 64.3125 
Q 13.671875 62.703125 7.8125 59.421875 
L 7.8125 69.390625 
Q 13.765625 71.78125 18.9375 73 
Q 24.125 74.21875 28.421875 74.21875 
Q 39.75 74.21875 46.484375 68.546875 
Q 53.21875 62.890625 53.21875 53.421875 
Q 53.21875 48.921875 51.53125 44.890625 
Q 49.859375 40.875 45.40625 35.40625 
Q 44.1875 33.984375 37.640625 27.21875 
Q 31.109375 20.453125 19.1875 8.296875 
z
" id="DejaVuSans-50"/>
      </defs>
      <g transform="translate(649.938326 287.06881)scale(0.08 -0.08)">
       <use xlink:href="#DejaVuSans-50"/>
       <use x="63.623047" xlink:href="#DejaVuSans-48"/>
       <use x="127.246094" xlink:href="#DejaVuSans-48"/>
      </g>
     </g>
    </g>
    <g id="xtick_6">
     <g id="text_6">
      <!-- 250 -->
      <g transform="translate(795.908225 287.06881)scale(0.08 -0.08)">
       <use xlink:href="#DejaVuSans-50"/>
       <use x="63.623047" xlink:href="#DejaVuSans-53"/>
       <use x="127.246094" xlink:href="#DejaVuSans-48"/>
      </g>
     </g>
    </g>
    <g id="xtick_7">
     <g id="text_7">
      <!-- 300 -->
      <defs>
       <path d="M 40.578125 39.3125 
Q 47.65625 37.796875 51.625 33 
Q 55.609375 28.21875 55.609375 21.1875 
Q 55.609375 10.40625 48.1875 4.484375 
Q 40.765625 -1.421875 27.09375 -1.421875 
Q 22.515625 -1.421875 17.65625 -0.515625 
Q 12.796875 0.390625 7.625 2.203125 
L 7.625 11.71875 
Q 11.71875 9.328125 16.59375 8.109375 
Q 21.484375 6.890625 26.8125 6.890625 
Q 36.078125 6.890625 40.9375 10.546875 
Q 45.796875 14.203125 45.796875 21.1875 
Q 45.796875 27.640625 41.28125 31.265625 
Q 36.765625 34.90625 28.71875 34.90625 
L 20.21875 34.90625 
L 20.21875 43.015625 
L 29.109375 43.015625 
Q 36.375 43.015625 40.234375 45.921875 
Q 44.09375 48.828125 44.09375 54.296875 
Q 44.09375 59.90625 40.109375 62.90625 
Q 36.140625 65.921875 28.71875 65.921875 
Q 24.65625 65.921875 20.015625 65.03125 
Q 15.375 64.15625 9.8125 62.3125 
L 9.8125 71.09375 
Q 15.4375 72.65625 20.34375 73.4375 
Q 25.25 74.21875 29.59375 74.21875 
Q 40.828125 74.21875 47.359375 69.109375 
Q 53.90625 64.015625 53.90625 55.328125 
Q 53.90625 49.265625 50.4375 45.09375 
Q 46.96875 40.921875 40.578125 39.3125 
z
" id="DejaVuSans-51"/>
      </defs>
      <g transform="translate(941.878125 287.06881)scale(0.08 -0.08)">
       <use xlink:href="#DejaVuSans-51"/>
       <use x="63.623047" xlink:href="#DejaVuSans-48"/>
       <use x="127.246094" xlink:href="#DejaVuSans-48"/>
      </g>
     </g>
    </g>
    <g id="text_8">
     <!-- Position in read -->
     <defs>
      <path d="M 19.671875 64.796875 
L 19.671875 37.40625 
L 32.078125 37.40625 
Q 38.96875 37.40625 42.71875 40.96875 
Q 46.484375 44.53125 46.484375 51.125 
Q 46.484375 57.671875 42.71875 61.234375 
Q 38.96875 64.796875 32.078125 64.796875 
z
M 9.8125 72.90625 
L 32.078125 72.90625 
Q 44.34375 72.90625 50.609375 67.359375 
Q 56.890625 61.8125 56.890625 51.125 
Q 56.890625 40.328125 50.609375 34.8125 
Q 44.34375 29.296875 32.078125 29.296875 
L 19.671875 29.296875 
L 19.671875 0 
L 9.8125 0 
z
" id="DejaVuSans-80"/>
      <path d="M 30.609375 48.390625 
Q 23.390625 48.390625 19.1875 42.75 
Q 14.984375 37.109375 14.984375 27.296875 
Q 14.984375 17.484375 19.15625 11.84375 
Q 23.34375 6.203125 30.609375 6.203125 
Q 37.796875 6.203125 41.984375 11.859375 
Q 46.1875 17.53125 46.1875 27.296875 
Q 46.1875 37.015625 41.984375 42.703125 
Q 37.796875 48.390625 30.609375 48.390625 
z
M 30.609375 56 
Q 42.328125 56 49.015625 48.375 
Q 55.71875 40.765625 55.71875 27.296875 
Q 55.71875 13.875 49.015625 6.21875 
Q 42.328125 -1.421875 30.609375 -1.421875 
Q 18.84375 -1.421875 12.171875 6.21875 
Q 5.515625 13.875 5.515625 27.296875 
Q 5.515625 40.765625 12.171875 48.375 
Q 18.84375 56 30.609375 56 
z
" id="DejaVuSans-111"/>
      <path d="M 44.28125 53.078125 
L 44.28125 44.578125 
Q 40.484375 46.53125 36.375 47.5 
Q 32.28125 48.484375 27.875 48.484375 
Q 21.1875 48.484375 17.84375 46.4375 
Q 14.5 44.390625 14.5 40.28125 
Q 14.5 37.15625 16.890625 35.375 
Q 19.28125 33.59375 26.515625 31.984375 
L 29.59375 31.296875 
Q 39.15625 29.25 43.1875 25.515625 
Q 47.21875 21.78125 47.21875 15.09375 
Q 47.21875 7.46875 41.1875 3.015625 
Q 35.15625 -1.421875 24.609375 -1.421875 
Q 20.21875 -1.421875 15.453125 -0.5625 
Q 10.6875 0.296875 5.421875 2 
L 5.421875 11.28125 
Q 10.40625 8.6875 15.234375 7.390625 
Q 20.0625 6.109375 24.8125 6.109375 
Q 31.15625 6.109375 34.5625 8.28125 
Q 37.984375 10.453125 37.984375 14.40625 
Q 37.984375 18.0625 35.515625 20.015625 
Q 33.0625 21.96875 24.703125 23.78125 
L 21.578125 24.515625 
Q 13.234375 26.265625 9.515625 29.90625 
Q 5.8125 33.546875 5.8125 39.890625 
Q 5.8125 47.609375 11.28125 51.796875 
Q 16.75 56 26.8125 56 
Q 31.78125 56 36.171875 55.265625 
Q 40.578125 54.546875 44.28125 53.078125 
z
" id="DejaVuSans-115"/>
      <path d="M 9.421875 54.6875 
L 18.40625 54.6875 
L 18.40625 0 
L 9.421875 0 
z
M 9.421875 75.984375 
L 18.40625 75.984375 
L 18.40625 64.59375 
L 9.421875 64.59375 
z
" id="DejaVuSans-105"/>
      <path d="M 18.3125 70.21875 
L 18.3125 54.6875 
L 36.8125 54.6875 
L 36.8125 47.703125 
L 18.3125 47.703125 
L 18.3125 18.015625 
Q 18.3125 11.328125 20.140625 9.421875 
Q 21.96875 7.515625 27.59375 7.515625 
L 36.8125 7.515625 
L 36.8125 0 
L 27.59375 0 
Q 17.1875 0 13.234375 3.875 
Q 9.28125 7.765625 9.28125 18.015625 
L 9.28125 47.703125 
L 2.6875 47.703125 
L 2.6875 54.6875 
L 9.28125 54.6875 
L 9.28125 70.21875 
z
" id="DejaVuSans-116"/>
      <path d="M 54.890625 33.015625 
L 54.890625 0 
L 45.90625 0 
L 45.90625 32.71875 
Q 45.90625 40.484375 42.875 44.328125 
Q 39.84375 48.1875 33.796875 48.1875 
Q 26.515625 48.1875 22.3125 43.546875 
Q 18.109375 38.921875 18.109375 30.90625 
L 18.109375 0 
L 9.078125 0 
L 9.078125 54.6875 
L 18.109375 54.6875 
L 18.109375 46.1875 
Q 21.34375 51.125 25.703125 53.5625 
Q 30.078125 56 35.796875 56 
Q 45.21875 56 50.046875 50.171875 
Q 54.890625 44.34375 54.890625 33.015625 
z
" id="DejaVuSans-110"/>
      <path id="DejaVuSans-32"/>
      <path d="M 41.109375 46.296875 
Q 39.59375 47.171875 37.8125 47.578125 
Q 36.03125 48 33.890625 48 
Q 26.265625 48 22.1875 43.046875 
Q 18.109375 38.09375 18.109375 28.8125 
L 18.109375 0 
L 9.078125 0 
L 9.078125 54.6875 
L 18.109375 54.6875 
L 18.109375 46.1875 
Q 20.953125 51.171875 25.484375 53.578125 
Q 30.03125 56 36.53125 56 
Q 37.453125 56 38.578125 55.875 
Q 39.703125 55.765625 41.0625 55.515625 
z
" id="DejaVuSans-114"/>
      <path d="M 56.203125 29.59375 
L 56.203125 25.203125 
L 14.890625 25.203125 
Q 15.484375 15.921875 20.484375 11.0625 
Q 25.484375 6.203125 34.421875 6.203125 
Q 39.59375 6.203125 44.453125 7.46875 
Q 49.3125 8.734375 54.109375 11.28125 
L 54.109375 2.78125 
Q 49.265625 0.734375 44.1875 -0.34375 
Q 39.109375 -1.421875 33.890625 -1.421875 
Q 20.796875 -1.421875 13.15625 6.1875 
Q 5.515625 13.8125 5.515625 26.8125 
Q 5.515625 40.234375 12.765625 48.109375 
Q 20.015625 56 32.328125 56 
Q 43.359375 56 49.78125 48.890625 
Q 56.203125 41.796875 56.203125 29.59375 
z
M 47.21875 32.234375 
Q 47.125 39.59375 43.09375 43.984375 
Q 39.0625 48.390625 32.421875 48.390625 
Q 24.90625 48.390625 20.390625 44.140625 
Q 15.875 39.890625 15.1875 32.171875 
z
" id="DejaVuSans-101"/>
      <path d="M 34.28125 27.484375 
Q 23.390625 27.484375 19.1875 25 
Q 14.984375 22.515625 14.984375 16.5 
Q 14.984375 11.71875 18.140625 8.90625 
Q 21.296875 6.109375 26.703125 6.109375 
Q 34.1875 6.109375 38.703125 11.40625 
Q 43.21875 16.703125 43.21875 25.484375 
L 43.21875 27.484375 
z
M 52.203125 31.203125 
L 52.203125 0 
L 43.21875 0 
L 43.21875 8.296875 
Q 40.140625 3.328125 35.546875 0.953125 
Q 30.953125 -1.421875 24.3125 -1.421875 
Q 15.921875 -1.421875 10.953125 3.296875 
Q 6 8.015625 6 15.921875 
Q 6 25.140625 12.171875 29.828125 
Q 18.359375 34.515625 30.609375 34.515625 
L 43.21875 34.515625 
L 43.21875 35.40625 
Q 43.21875 41.609375 39.140625 45 
Q 35.0625 48.390625 27.6875 48.390625 
Q 23 48.390625 18.546875 47.265625 
Q 14.109375 46.140625 10.015625 43.890625 
L 10.015625 52.203125 
Q 14.9375 54.109375 19.578125 55.046875 
Q 24.21875 56 28.609375 56 
Q 40.484375 56 46.34375 49.84375 
Q 52.203125 43.703125 52.203125 31.203125 
z
" id="DejaVuSans-97"/>
      <path d="M 45.40625 46.390625 
L 45.40625 75.984375 
L 54.390625 75.984375 
L 54.390625 0 
L 45.40625 0 
L 45.40625 8.203125 
Q 42.578125 3.328125 38.25 0.953125 
Q 33.9375 -1.421875 27.875 -1.421875 
Q 17.96875 -1.421875 11.734375 6.484375 
Q 5.515625 14.40625 5.515625 27.296875 
Q 5.515625 40.1875 11.734375 48.09375 
Q 17.96875 56 27.875 56 
Q 33.9375 56 38.25 53.625 
Q 42.578125 51.265625 45.40625 46.390625 
z
M 14.796875 27.296875 
Q 14.796875 17.390625 18.875 11.75 
Q 22.953125 6.109375 30.078125 6.109375 
Q 37.203125 6.109375 41.296875 11.75 
Q 45.40625 17.390625 45.40625 27.296875 
Q 45.40625 37.203125 41.296875 42.84375 
Q 37.203125 48.484375 30.078125 48.484375 
Q 22.953125 48.484375 18.875 42.84375 
Q 14.796875 37.203125 14.796875 27.296875 
z
" id="DejaVuSans-100"/>
     </defs>
     <g transform="translate(474.315469 300.330997)scale(0.1 -0.1)">
      <use xlink:href="#DejaVuSans-80"/>
      <use x="60.255859" xlink:href="#DejaVuSans-111"/>
      <use x="121.4375" xlink:href="#DejaVuSans-115"/>
      <use x="173.537109" xlink:href="#DejaVuSans-105"/>
      <use x="201.320312" xlink:href="#DejaVuSans-116"/>
      <use x="240.529297" xlink:href="#DejaVuSans-105"/>
      <use x="268.3125" xlink:href="#DejaVuSans-111"/>
      <use x="329.494141" xlink:href="#DejaVuSans-110"/>
      <use x="392.873047" xlink:href="#DejaVuSans-32"/>
      <use x="424.660156" xlink:href="#DejaVuSans-105"/>
      <use x="452.443359" xlink:href="#DejaVuSans-110"/>
      <use x="515.822266" xlink:href="#DejaVuSans-32"/>
      <use x="547.609375" xlink:href="#DejaVuSans-114"/>
      <use x="588.691406" xlink:href="#DejaVuSans-101"/>
      <use x="650.214844" xlink:href="#DejaVuSans-97"/>
      <use x="711.494141" xlink:href="#DejaVuSans-100"/>
     </g>
    </g>
   </g>
   <g id="matplotlib.axis_2">
    <g id="ytick_1">
     <g id="line2d_1">
      <path clip-path="url(#p09bc9016f1)" d="M 32.968125 273.99006 
L 993.158125 273.99006 
" style="fill:none;stroke:#dedede;stroke-linecap:square;"/>
     </g>
     <g id="text_9">
      <!-- 0 -->
      <g transform="translate(20.878125 277.029435)scale(0.08 -0.08)">
       <use xlink:href="#DejaVuSans-48"/>
      </g>
     </g>
    </g>
    <g id="ytick_2">
     <g id="line2d_2">
      <path clip-path="url(#p09bc9016f1)" d="M 32.968125 239.346174 
L 993.158125 239.346174 
" style="fill:none;stroke:#dedede;stroke-linecap:square;"/>
     </g>
     <g id="text_10">
      <!-- 1 -->
      <g transform="translate(20.878125 242.385549)scale(0.08 -0.08)">
       <use xlink:href="#DejaVuSans-49"/>
      </g>
     </g>
    </g>
    <g id="ytick_3">
     <g id="line2d_3">
      <path clip-path="url(#p09bc9016f1)" d="M 32.968125 204.702289 
L 993.158125 204.702289 
" style="fill:none;stroke:#dedede;stroke-linecap:square;"/>
     </g>
     <g id="text_11">
      <!-- 2 -->
      <g transform="translate(20.878125 207.741664)scale(0.08 -0.08)">
       <use xlink:href="#DejaVuSans-50"/>
      </g>
     </g>
    </g>
    <g id="ytick_4">
     <g id="line2d_4">
      <path clip-path="url(#p09bc9016f1)" d="M 32.968125 170.058403 
L 993.158125 170.058403 
" style="fill:none;stroke:#dedede;stroke-linecap:square;"/>
     </g>
     <g id="text_12">
      <!-- 3 -->
      <g transform="translate(20.878125 173.097778)scale(0.08 -0.08)">
       <use xlink:href="#DejaVuSans-51"/>
      </g>
     </g>
    </g>
    <g id="ytick_5">
     <g id="line2d_5">
      <path clip-path="url(#p09bc9016f1)" d="M 32.968125 135.414517 
L 993.158125 135.414517 
" style="fill:none;stroke:#dedede;stroke-linecap:square;"/>
     </g>
     <g id="text_13">
      <!-- 4 -->
      <defs>
       <path d="M 37.796875 64.3125 
L 12.890625 25.390625 
L 37.796875 25.390625 
z
M 35.203125 72.90625 
L 47.609375 72.90625 
L 47.609375 25.390625 
L 58.015625 25.390625 
L 58.015625 17.1875 
L 47.609375 17.1875 
L 47.609375 0 
L 37.796875 0 
L 37.796875 17.1875 
L 4.890625 17.1875 
L 4.890625 26.703125 
z
" id="DejaVuSans-52"/>
      </defs>
      <g transform="translate(20.878125 138.453892)scale(0.08 -0.08)">
       <use xlink:href="#DejaVuSans-52"/>
      </g>
     </g>
    </g>
    <g id="ytick_6">
     <g id="line2d_6">
      <path clip-path="url(#p09bc9016f1)" d="M 32.968125 100.770631 
L 993.158125 100.770631 
" style="fill:none;stroke:#dedede;stroke-linecap:square;"/>
     </g>
     <g id="text_14">
      <!-- 5 -->
      <g transform="translate(20.878125 103.810006)scale(0.08 -0.08)">
       <use xlink:href="#DejaVuSans-53"/>
      </g>
     </g>
    </g>
    <g id="ytick_7">
     <g id="line2d_7">
      <path clip-path="url(#p09bc9016f1)" d="M 32.968125 66.126746 
L 993.158125 66.126746 
" style="fill:none;stroke:#dedede;stroke-linecap:square;"/>
     </g>
     <g id="text_15">
      <!-- 6 -->
      <defs>
       <path d="M 33.015625 40.375 
Q 26.375 40.375 22.484375 35.828125 
Q 18.609375 31.296875 18.609375 23.390625 
Q 18.609375 15.53125 22.484375 10.953125 
Q 26.375 6.390625 33.015625 6.390625 
Q 39.65625 6.390625 43.53125 10.953125 
Q 47.40625 15.53125 47.40625 23.390625 
Q 47.40625 31.296875 43.53125 35.828125 
Q 39.65625 40.375 33.015625 40.375 
z
M 52.59375 71.296875 
L 52.59375 62.3125 
Q 48.875 64.0625 45.09375 64.984375 
Q 41.3125 65.921875 37.59375 65.921875 
Q 27.828125 65.921875 22.671875 59.328125 
Q 17.53125 52.734375 16.796875 39.40625 
Q 19.671875 43.65625 24.015625 45.921875 
Q 28.375 48.1875 33.59375 48.1875 
Q 44.578125 48.1875 50.953125 41.515625 
Q 57.328125 34.859375 57.328125 23.390625 
Q 57.328125 12.15625 50.6875 5.359375 
Q 44.046875 -1.421875 33.015625 -1.421875 
Q 20.359375 -1.421875 13.671875 8.265625 
Q 6.984375 17.96875 6.984375 36.375 
Q 6.984375 53.65625 15.1875 63.9375 
Q 23.390625 74.21875 37.203125 74.21875 
Q 40.921875 74.21875 44.703125 73.484375 
Q 48.484375 72.75 52.59375 71.296875 
z
" id="DejaVuSans-54"/>
      </defs>
      <g transform="translate(20.878125 69.166121)scale(0.08 -0.08)">
       <use xlink:href="#DejaVuSans-54"/>
      </g>
     </g>
    </g>
    <g id="ytick_8">
     <g id="line2d_8">
      <path clip-path="url(#p09bc9016f1)" d="M 32.968125 31.48286 
L 993.158125 31.48286 
" style="fill:none;stroke:#dedede;stroke-linecap:square;"/>
     </g>
     <g id="text_16">
      <!-- 7 -->
      <defs>
       <path d="M 8.203125 72.90625 
L 55.078125 72.90625 
L 55.078125 68.703125 
L 28.609375 0 
L 18.3125 0 
L 43.21875 64.59375 
L 8.203125 64.59375 
z
" id="DejaVuSans-55"/>
      </defs>
      <g transform="translate(20.878125 34.522235)scale(0.08 -0.08)">
       <use xlink:href="#DejaVuSans-55"/>
      </g>
     </g>
    </g>
    <g id="text_17">
     <!-- Percent converted % -->
     <defs>
      <path d="M 48.78125 52.59375 
L 48.78125 44.1875 
Q 44.96875 46.296875 41.140625 47.34375 
Q 37.3125 48.390625 33.40625 48.390625 
Q 24.65625 48.390625 19.8125 42.84375 
Q 14.984375 37.3125 14.984375 27.296875 
Q 14.984375 17.28125 19.8125 11.734375 
Q 24.65625 6.203125 33.40625 6.203125 
Q 37.3125 6.203125 41.140625 7.25 
Q 44.96875 8.296875 48.78125 10.40625 
L 48.78125 2.09375 
Q 45.015625 0.34375 40.984375 -0.53125 
Q 36.96875 -1.421875 32.421875 -1.421875 
Q 20.0625 -1.421875 12.78125 6.34375 
Q 5.515625 14.109375 5.515625 27.296875 
Q 5.515625 40.671875 12.859375 48.328125 
Q 20.21875 56 33.015625 56 
Q 37.15625 56 41.109375 55.140625 
Q 45.0625 54.296875 48.78125 52.59375 
z
" id="DejaVuSans-99"/>
      <path d="M 2.984375 54.6875 
L 12.5 54.6875 
L 29.59375 8.796875 
L 46.6875 54.6875 
L 56.203125 54.6875 
L 35.6875 0 
L 23.484375 0 
z
" id="DejaVuSans-118"/>
      <path d="M 72.703125 32.078125 
Q 68.453125 32.078125 66.03125 28.46875 
Q 63.625 24.859375 63.625 18.40625 
Q 63.625 12.0625 66.03125 8.421875 
Q 68.453125 4.78125 72.703125 4.78125 
Q 76.859375 4.78125 79.265625 8.421875 
Q 81.6875 12.0625 81.6875 18.40625 
Q 81.6875 24.8125 79.265625 28.4375 
Q 76.859375 32.078125 72.703125 32.078125 
z
M 72.703125 38.28125 
Q 80.421875 38.28125 84.953125 32.90625 
Q 89.5 27.546875 89.5 18.40625 
Q 89.5 9.28125 84.9375 3.921875 
Q 80.375 -1.421875 72.703125 -1.421875 
Q 64.890625 -1.421875 60.34375 3.921875 
Q 55.8125 9.28125 55.8125 18.40625 
Q 55.8125 27.59375 60.375 32.9375 
Q 64.9375 38.28125 72.703125 38.28125 
z
M 22.3125 68.015625 
Q 18.109375 68.015625 15.6875 64.375 
Q 13.28125 60.75 13.28125 54.390625 
Q 13.28125 47.953125 15.671875 44.328125 
Q 18.0625 40.71875 22.3125 40.71875 
Q 26.5625 40.71875 28.96875 44.328125 
Q 31.390625 47.953125 31.390625 54.390625 
Q 31.390625 60.6875 28.953125 64.34375 
Q 26.515625 68.015625 22.3125 68.015625 
z
M 66.40625 74.21875 
L 74.21875 74.21875 
L 28.609375 -1.421875 
L 20.796875 -1.421875 
z
M 22.3125 74.21875 
Q 30.03125 74.21875 34.609375 68.875 
Q 39.203125 63.53125 39.203125 54.390625 
Q 39.203125 45.171875 34.640625 39.84375 
Q 30.078125 34.515625 22.3125 34.515625 
Q 14.546875 34.515625 10.03125 39.859375 
Q 5.515625 45.21875 5.515625 54.390625 
Q 5.515625 63.484375 10.046875 68.84375 
Q 14.59375 74.21875 22.3125 74.21875 
z
" id="DejaVuSans-37"/>
     </defs>
     <g transform="translate(14.798438 205.04271)rotate(-90)scale(0.1 -0.1)">
      <use xlink:href="#DejaVuSans-80"/>
      <use x="60.255859" xlink:href="#DejaVuSans-101"/>
      <use x="121.779297" xlink:href="#DejaVuSans-114"/>
      <use x="162.861328" xlink:href="#DejaVuSans-99"/>
      <use x="217.841797" xlink:href="#DejaVuSans-101"/>
      <use x="279.365234" xlink:href="#DejaVuSans-110"/>
      <use x="342.744141" xlink:href="#DejaVuSans-116"/>
      <use x="381.953125" xlink:href="#DejaVuSans-32"/>
      <use x="413.740234" xlink:href="#DejaVuSans-99"/>
      <use x="468.720703" xlink:href="#DejaVuSans-111"/>
      <use x="529.902344" xlink:href="#DejaVuSans-110"/>
      <use x="593.28125" xlink:href="#DejaVuSans-118"/>
      <use x="652.460938" xlink:href="#DejaVuSans-101"/>
      <use x="713.984375" xlink:href="#DejaVuSans-114"/>
      <use x="755.097656" xlink:href="#DejaVuSans-116"/>
      <use x="794.306641" xlink:href="#DejaVuSans-101"/>
      <use x="855.830078" xlink:href="#DejaVuSans-100"/>
      <use x="919.306641" xlink:href="#DejaVuSans-32"/>
      <use x="951.09375" xlink:href="#DejaVuSans-37"/>
     </g>
    </g>
   </g>
   <g id="line2d_9">
    <path clip-path="url(#p09bc9016f1)" d="M 76.613125 180.89494 
L 79.532523 202.259109 
L 82.451921 214.50511 
L 85.371319 220.469933 
L 88.290717 230.720857 
L 91.210115 242.329045 
L 94.129513 245.82936 
L 97.048911 247.855053 
L 99.968309 248.477558 
L 102.887707 253.534136 
L 105.807105 258.034541 
L 108.726503 260.090849 
L 111.645901 261.218501 
L 114.565299 261.784879 
L 117.484697 264.922917 
L 120.404095 270.066237 
L 126.242891 270.270337 
L 129.162289 270.015212 
L 132.081687 269.902957 
L 135.001085 270.454027 
L 137.920483 270.698947 
L 140.839881 269.90806 
L 143.759279 270.086647 
L 146.678677 270.571385 
L 152.517473 269.469245 
L 155.436871 269.872342 
L 158.356269 269.790702 
L 161.275667 270.311141 
L 164.195065 270.285596 
L 167.114463 269.902861 
L 170.033861 270.341686 
L 172.953259 270.239628 
L 175.872657 269.566062 
L 178.792055 270.377234 
L 181.711453 269.87159 
L 184.630851 270.165826 
L 187.550249 268.427866 
L 190.469647 267.316483 
L 193.389045 267.557172 
L 196.308443 267.542607 
L 199.227841 266.911973 
L 202.147239 266.634917 
L 205.066637 267.072722 
L 207.986035 265.857598 
L 210.905433 265.575783 
L 213.824831 266.899204 
L 216.744229 266.21583 
L 219.663627 265.243298 
L 222.583025 266.836745 
L 228.421821 265.785684 
L 231.341219 265.807527 
L 234.260617 266.476627 
L 237.180015 264.187382 
L 240.099413 265.608057 
L 243.018811 266.678553 
L 245.938209 265.360376 
L 248.857607 264.492942 
L 251.777005 265.511128 
L 254.696403 263.93945 
L 257.615801 263.535781 
L 260.535199 264.729273 
L 263.454597 263.683466 
L 266.373995 264.671439 
L 269.293393 263.558385 
L 272.212791 262.767955 
L 275.132189 264.302337 
L 278.051587 263.137127 
L 280.970985 263.237501 
L 283.890383 264.5093 
L 286.809781 260.942931 
L 289.729179 262.148851 
L 292.648577 259.076977 
L 295.567974 262.361317 
L 298.487372 263.339226 
L 301.40677 262.521942 
L 304.326168 260.419774 
L 307.245566 264.726266 
L 313.084362 262.012208 
L 316.00376 262.680848 
L 318.923158 259.859876 
L 321.842556 262.744707 
L 324.761954 264.383067 
L 327.681352 260.224885 
L 330.60075 261.077098 
L 333.520148 262.32816 
L 336.439546 261.990579 
L 339.358944 263.392359 
L 342.278342 263.988763 
L 345.19774 254.851714 
L 348.117138 255.756436 
L 351.036536 260.515373 
L 353.955934 255.05035 
L 356.875332 247.712285 
L 359.79473 263.273247 
L 362.714128 259.12144 
L 365.633526 253.747389 
L 368.552924 262.35288 
L 371.472322 257.21336 
L 374.39172 265.490579 
L 377.311118 249.361705 
L 380.230516 268.994547 
L 383.149914 249.721138 
L 386.069312 240.49973 
L 388.98871 264.944659 
L 391.908108 273.99006 
L 394.827506 273.99006 
L 397.746904 239.415324 
L 400.666302 258.419774 
L 403.5857 265.329089 
L 406.505098 215.765042 
L 409.424496 273.99006 
L 412.343894 250.816892 
L 415.263292 261.111292 
L 418.18269 259.90718 
L 421.102088 273.99006 
L 424.021486 256.581072 
L 426.940884 253.848266 
L 429.860282 273.99006 
L 432.77968 223.043169 
L 435.699078 245.824299 
L 438.618476 273.99006 
L 450.296068 273.99006 
L 453.215466 214.259223 
L 456.134864 211.001177 
L 459.054262 273.99006 
L 949.513125 273.99006 
L 949.513125 273.99006 
" style="fill:none;stroke:#7cb5ec;stroke-linecap:square;"/>
   </g>
   <g id="line2d_10">
    <path clip-path="url(#p09bc9016f1)" d="M 76.613125 172.594781 
L 79.532523 202.361104 
L 82.451921 215.175498 
L 85.371319 222.920555 
L 88.290717 233.005087 
L 91.210115 238.310935 
L 94.129513 244.26363 
L 99.968309 249.224684 
L 102.887707 251.592654 
L 105.807105 254.214233 
L 108.726503 256.23171 
L 111.645901 260.545917 
L 114.565299 260.96765 
L 117.484697 263.714609 
L 120.404095 268.983413 
L 123.323493 268.581628 
L 126.242891 269.054652 
L 129.162289 269.305412 
L 135.001085 268.838087 
L 137.920483 268.732654 
L 140.839881 269.496331 
L 143.759279 268.934971 
L 149.598075 268.812441 
L 152.517473 269.100245 
L 155.436871 269.171483 
L 158.356269 268.949215 
L 161.275667 269.028982 
L 164.195065 269.464949 
L 167.114463 268.829462 
L 170.033861 268.743957 
L 175.872657 268.806601 
L 178.792055 268.498598 
L 181.711453 268.515066 
L 184.630851 267.962473 
L 187.550249 268.350516 
L 190.469647 266.73251 
L 193.389045 265.745684 
L 196.308443 266.654276 
L 205.066637 266.017068 
L 207.986035 264.280836 
L 210.905433 265.970898 
L 213.824831 266.54768 
L 216.744229 264.943742 
L 219.663627 264.890193 
L 222.583025 265.132216 
L 225.502423 265.588083 
L 231.341219 264.23167 
L 234.260617 265.294375 
L 237.180015 263.721357 
L 240.099413 263.256708 
L 243.018811 264.513625 
L 245.938209 264.895656 
L 248.857607 263.743432 
L 254.696403 264.856338 
L 257.615801 264.744459 
L 260.535199 262.928177 
L 263.454597 263.605315 
L 266.373995 262.715956 
L 272.212791 263.229273 
L 275.132189 262.560872 
L 278.051587 264.132647 
L 280.970985 264.353808 
L 283.890383 261.976847 
L 286.809781 261.594514 
L 289.729179 259.178215 
L 292.648577 257.827249 
L 295.567974 253.043897 
L 298.487372 261.746941 
L 301.40677 260.968497 
L 304.326168 262.737042 
L 307.245566 262.481894 
L 310.164964 262.769299 
L 313.084362 260.291954 
L 316.00376 261.710106 
L 318.923158 262.609693 
L 321.842556 261.326676 
L 324.761954 258.157533 
L 327.681352 259.77655 
L 330.60075 258.19061 
L 336.439546 257.934359 
L 339.358944 261.299425 
L 342.278342 255.905739 
L 345.19774 253.144633 
L 351.036536 259.01239 
L 353.955934 256.666598 
L 356.875332 254.888168 
L 359.79473 254.179692 
L 362.714128 257.104332 
L 365.633526 249.236569 
L 368.552924 255.611341 
L 371.472322 257.368593 
L 374.39172 259.682288 
L 377.311118 241.933589 
L 380.230516 246.879935 
L 383.149914 256.413253 
L 386.069312 252.878612 
L 388.98871 261.281371 
L 391.908108 261.960933 
L 394.827506 270.418525 
L 397.746904 245.256979 
L 400.666302 250.518593 
L 403.5857 252.961905 
L 406.505098 250.582029 
L 409.424496 253.964693 
L 412.343894 259.310447 
L 415.263292 257.492972 
L 418.18269 264.626848 
L 421.102088 263.617639 
L 424.021486 262.043893 
L 426.940884 219.858989 
L 429.860282 257.801328 
L 432.77968 273.99006 
L 441.537874 273.99006 
L 444.457272 241.912388 
L 447.37667 273.99006 
L 473.651252 273.99006 
L 476.57065 135.414517 
L 479.490048 273.99006 
L 949.513125 273.99006 
L 949.513125 273.99006 
" style="fill:none;stroke:#434348;stroke-linecap:square;"/>
   </g>
   <g id="line2d_11">
    <path clip-path="url(#p09bc9016f1)" d="M 76.613125 173.323178 
L 79.532523 200.227452 
L 82.451921 210.91345 
L 85.371319 219.836159 
L 88.290717 230.213332 
L 91.210115 239.830066 
L 94.129513 242.865182 
L 97.048911 246.398402 
L 99.968309 248.297839 
L 102.887707 253.02651 
L 105.807105 256.088191 
L 108.726503 256.018456 
L 111.645901 260.637544 
L 114.565299 262.404154 
L 117.484697 265.266593 
L 120.404095 270.174581 
L 123.323493 270.546499 
L 126.242891 270.798872 
L 129.162289 270.563102 
L 135.001085 270.377143 
L 137.920483 270.07496 
L 143.759279 270.078281 
L 146.678677 270.98151 
L 149.598075 270.413671 
L 152.517473 270.765665 
L 155.436871 269.54697 
L 158.356269 270.317371 
L 161.275667 270.616224 
L 164.195065 270.310687 
L 167.114463 270.539801 
L 170.033861 270.307335 
L 175.872657 270.17115 
L 178.792055 270.469846 
L 181.711453 269.602584 
L 184.630851 270.441326 
L 190.469647 268.330115 
L 193.389045 266.525178 
L 196.308443 267.407533 
L 199.227841 267.442557 
L 202.147239 266.539693 
L 205.066637 266.833552 
L 207.986035 265.601912 
L 210.905433 265.267893 
L 213.824831 266.470015 
L 216.744229 265.885144 
L 219.663627 266.240782 
L 222.583025 265.480713 
L 225.502423 265.350206 
L 228.421821 266.309699 
L 231.341219 266.799939 
L 234.260617 264.44763 
L 237.180015 265.876937 
L 240.099413 264.81296 
L 243.018811 265.850907 
L 248.857607 265.023842 
L 251.777005 266.143744 
L 254.696403 263.735616 
L 257.615801 263.709092 
L 260.535199 265.202316 
L 263.454597 263.525439 
L 266.373995 264.946989 
L 269.293393 262.686424 
L 272.212791 265.108106 
L 275.132189 266.003652 
L 278.051587 263.02246 
L 280.970985 264.117856 
L 283.890383 262.244222 
L 286.809781 261.418382 
L 289.729179 261.731367 
L 292.648577 258.988663 
L 295.567974 257.32933 
L 298.487372 263.438339 
L 301.40677 263.236576 
L 304.326168 263.541449 
L 307.245566 263.116765 
L 310.164964 262.26966 
L 313.084362 257.928164 
L 316.00376 259.574339 
L 318.923158 257.817974 
L 321.842556 261.318027 
L 324.761954 263.328706 
L 327.681352 259.26633 
L 330.60075 261.047747 
L 333.520148 260.818545 
L 336.439546 262.581888 
L 339.358944 259.568974 
L 342.278342 256.842766 
L 348.117138 254.03779 
L 351.036536 259.446027 
L 353.955934 252.508925 
L 356.875332 255.500708 
L 362.714128 251.339405 
L 365.633526 263.028973 
L 368.552924 256.88398 
L 371.472322 268.118215 
L 374.39172 250.179829 
L 377.311118 253.931565 
L 380.230516 247.544346 
L 383.149914 246.561892 
L 386.069312 258.872728 
L 388.98871 240.35522 
L 391.908108 270.377559 
L 394.827506 265.72183 
L 397.746904 259.41339 
L 400.666302 268.147921 
L 403.5857 267.428718 
L 406.505098 244.999361 
L 409.424496 242.206679 
L 412.343894 247.06476 
L 415.263292 263.977376 
L 418.18269 273.99006 
L 421.102088 260.916896 
L 424.021486 245.938331 
L 426.940884 273.99006 
L 429.860282 256.03986 
L 432.77968 273.99006 
L 435.699078 228.703935 
L 438.618476 273.99006 
L 441.537874 220.691774 
L 444.457272 273.99006 
L 447.37667 273.99006 
L 450.296068 233.232547 
L 453.215466 273.99006 
L 456.134864 218.112825 
L 459.054262 273.99006 
L 476.57065 273.99006 
L 479.490048 43.030822 
L 482.409446 273.99006 
L 949.513125 273.99006 
L 949.513125 273.99006 
" style="fill:none;stroke:#90ed7d;stroke-linecap:square;"/>
   </g>
   <g id="line2d_12">
    <path clip-path="url(#p09bc9016f1)" d="M 76.613125 178.1266 
L 79.532523 205.131238 
L 82.451921 214.118362 
L 85.371319 222.728119 
L 88.290717 231.837827 
L 91.210115 240.031758 
L 94.129513 247.653628 
L 97.048911 249.641419 
L 99.968309 250.194251 
L 102.887707 254.352509 
L 105.807105 257.393084 
L 108.726503 259.671713 
L 111.645901 262.618548 
L 114.565299 263.190608 
L 117.484697 265.154364 
L 120.404095 269.843821 
L 123.323493 269.711622 
L 126.242891 270.084182 
L 129.162289 270.324544 
L 132.081687 270.699508 
L 135.001085 269.776519 
L 137.920483 269.745272 
L 140.839881 269.855839 
L 143.759279 270.168309 
L 146.678677 270.014477 
L 149.598075 270.211574 
L 152.517473 269.586634 
L 155.436871 270.211574 
L 158.356269 270.415881 
L 161.275667 270.406257 
L 164.195065 270.274055 
L 167.114463 270.475926 
L 170.033861 270.002398 
L 172.953259 270.439841 
L 175.872657 270.122541 
L 178.792055 269.410874 
L 181.711453 269.571501 
L 184.630851 270.106135 
L 187.550249 269.277513 
L 190.469647 267.65641 
L 193.389045 266.875354 
L 196.308443 267.168183 
L 199.227841 268.208562 
L 202.147239 266.582575 
L 205.066637 267.062708 
L 207.986035 267.062284 
L 210.905433 267.192589 
L 213.824831 266.806961 
L 216.744229 266.845353 
L 219.663627 267.109287 
L 222.583025 266.986476 
L 225.502423 266.531317 
L 228.421821 266.899142 
L 231.341219 266.877077 
L 234.260617 266.98239 
L 237.180015 266.042125 
L 240.099413 266.640285 
L 243.018811 267.486399 
L 245.938209 266.432408 
L 248.857607 265.926093 
L 251.777005 265.102133 
L 257.615801 265.840884 
L 260.535199 264.864524 
L 263.454597 265.519125 
L 266.373995 265.273243 
L 269.293393 264.865251 
L 272.212791 265.123006 
L 275.132189 265.947451 
L 278.051587 265.469764 
L 280.970985 264.26005 
L 283.890383 264.241417 
L 286.809781 264.345043 
L 289.729179 264.020869 
L 295.567974 261.450596 
L 298.487372 262.134952 
L 301.40677 262.306707 
L 304.326168 263.460672 
L 307.245566 262.768235 
L 310.164964 265.056473 
L 313.084362 263.551792 
L 316.00376 261.452921 
L 318.923158 260.343269 
L 321.842556 262.165055 
L 324.761954 264.594683 
L 327.681352 262.337742 
L 330.60075 261.396534 
L 333.520148 257.772352 
L 336.439546 261.490035 
L 339.358944 259.720889 
L 342.278342 259.101471 
L 345.19774 256.082797 
L 348.117138 255.717067 
L 353.955934 262.255057 
L 356.875332 255.729205 
L 359.79473 255.014671 
L 362.714128 257.371441 
L 365.633526 259.28806 
L 368.552924 260.751735 
L 371.472322 257.529857 
L 374.39172 257.768843 
L 377.311118 259.11745 
L 380.230516 259.133701 
L 383.149914 262.884026 
L 386.069312 259.046615 
L 388.98871 264.026331 
L 391.908108 256.308594 
L 394.827506 262.992001 
L 397.746904 256.947004 
L 400.666302 252.681673 
L 403.5857 257.932639 
L 406.505098 253.926034 
L 409.424496 269.058546 
L 412.343894 260.209676 
L 415.263292 264.897177 
L 418.18269 270.593601 
L 421.102088 262.909926 
L 424.021486 249.592957 
L 426.940884 255.659962 
L 429.860282 243.331754 
L 432.77968 262.723756 
L 435.699078 267.713994 
L 438.618476 238.421389 
L 441.537874 258.206969 
L 444.457272 256.448852 
L 447.37667 273.99006 
L 450.296068 252.670746 
L 453.215466 273.99006 
L 456.134864 273.99006 
L 459.054262 241.612597 
L 461.97366 273.99006 
L 464.893058 208.21053 
L 467.812456 273.99006 
L 470.731854 245.824299 
L 473.651252 273.99006 
L 476.57065 273.99006 
L 479.490048 215.27161 
L 482.409446 273.99006 
L 949.513125 273.99006 
L 949.513125 273.99006 
" style="fill:none;stroke:#f7a35c;stroke-linecap:square;"/>
   </g>
   <g id="line2d_13">
    <path clip-path="url(#p09bc9016f1)" d="M 76.613125 174.370645 
L 79.532523 202.856247 
L 82.451921 213.984403 
L 85.371319 222.214792 
L 88.290717 233.299208 
L 91.210115 240.796953 
L 94.129513 246.302712 
L 97.048911 249.404599 
L 99.968309 250.046117 
L 102.887707 253.599983 
L 105.807105 256.087689 
L 111.645901 261.52966 
L 114.565299 263.829649 
L 117.484697 265.960146 
L 120.404095 270.855368 
L 123.323493 271.070423 
L 126.242891 271.052198 
L 129.162289 270.372407 
L 132.081687 270.906398 
L 135.001085 270.798871 
L 137.920483 270.926445 
L 140.839881 271.444034 
L 143.759279 270.598396 
L 149.598075 271.050375 
L 152.517473 270.941025 
L 155.436871 270.16282 
L 161.275667 270.875404 
L 164.195065 270.611132 
L 170.033861 270.527266 
L 172.953259 270.880819 
L 175.872657 270.485319 
L 178.792055 269.542893 
L 181.711453 270.648811 
L 187.550249 269.991829 
L 190.469647 269.010694 
L 196.308443 267.470581 
L 199.227841 267.848153 
L 202.147239 267.540722 
L 205.066637 267.934716 
L 207.986035 267.412158 
L 210.905433 268.337465 
L 213.824831 267.831714 
L 216.744229 267.525456 
L 219.663627 267.520261 
L 222.583025 267.717063 
L 225.502423 267.005331 
L 228.421821 267.608432 
L 231.341219 267.194643 
L 234.260617 267.278149 
L 237.180015 267.011423 
L 240.099413 266.247247 
L 243.018811 267.943116 
L 245.938209 267.30735 
L 248.857607 265.989173 
L 251.777005 266.138731 
L 254.696403 266.042665 
L 257.615801 266.591672 
L 260.535199 265.737236 
L 263.454597 265.523777 
L 266.373995 265.745285 
L 269.293393 265.373257 
L 272.212791 264.8816 
L 275.132189 265.729496 
L 278.051587 264.852445 
L 280.970985 264.282155 
L 283.890383 265.921316 
L 286.809781 265.324665 
L 289.729179 261.752094 
L 292.648577 263.516714 
L 295.567974 264.814677 
L 298.487372 265.179929 
L 301.40677 263.603087 
L 304.326168 264.179306 
L 307.245566 263.634779 
L 310.164964 263.615994 
L 313.084362 264.733531 
L 318.923158 261.510723 
L 321.842556 262.023043 
L 324.761954 262.408892 
L 327.681352 262.200101 
L 330.60075 263.023249 
L 333.520148 260.809191 
L 336.439546 264.343768 
L 339.358944 261.971199 
L 342.278342 261.029384 
L 345.19774 254.915712 
L 348.117138 258.301224 
L 351.036536 256.106811 
L 353.955934 261.534453 
L 356.875332 259.96101 
L 359.79473 258.647596 
L 362.714128 261.050362 
L 365.633526 261.839203 
L 368.552924 256.088678 
L 371.472322 258.821246 
L 374.39172 254.829362 
L 377.311118 262.322743 
L 380.230516 254.938854 
L 383.149914 257.422531 
L 386.069312 257.018163 
L 388.98871 261.501276 
L 391.908108 260.966043 
L 394.827506 261.128678 
L 397.746904 257.89534 
L 400.666302 264.885228 
L 403.5857 267.16704 
L 406.505098 260.680115 
L 409.424496 267.554663 
L 412.343894 257.391347 
L 415.263292 260.685956 
L 418.18269 255.977641 
L 421.102088 263.958047 
L 424.021486 262.766339 
L 426.940884 257.314303 
L 429.860282 246.531234 
L 432.77968 263.75553 
L 435.699078 256.896037 
L 438.618476 267.391225 
L 441.537874 244.754713 
L 444.457272 273.99006 
L 450.296068 273.99006 
L 453.215466 263.061389 
L 456.134864 273.99006 
L 459.054262 246.494913 
L 461.97366 210.713556 
L 464.893058 237.329863 
L 467.812456 273.99006 
L 470.731854 251.782441 
L 473.651252 273.99006 
L 476.57065 242.206679 
L 479.490048 273.99006 
L 949.513125 273.99006 
L 949.513125 273.99006 
" style="fill:none;stroke:#8085e9;stroke-linecap:square;"/>
   </g>
   <g id="line2d_14">
    <path clip-path="url(#p09bc9016f1)" d="M 76.613125 184.508791 
L 79.532523 209.367885 
L 82.451921 223.463306 
L 85.371319 226.783587 
L 88.290717 236.25126 
L 91.210115 243.046653 
L 94.129513 250.862788 
L 97.048911 253.271281 
L 99.968309 252.910007 
L 102.887707 255.880482 
L 105.807105 260.055205 
L 108.726503 262.079486 
L 111.645901 265.571802 
L 114.565299 266.626951 
L 117.484697 268.742985 
L 120.404095 272.155017 
L 123.323493 272.206628 
L 126.242891 272.825955 
L 129.162289 272.980787 
L 132.081687 272.923441 
L 135.001085 272.367114 
L 137.920483 272.653802 
L 140.839881 272.292443 
L 143.759279 272.969191 
L 146.678677 272.567718 
L 149.598075 273.106827 
L 152.517473 272.756963 
L 158.356269 273.060808 
L 161.275667 272.676449 
L 167.114463 272.779682 
L 170.033861 272.659191 
L 172.953259 272.739451 
L 175.872657 272.624655 
L 178.792055 272.148292 
L 181.711453 272.64706 
L 184.630851 272.823597 
L 187.550249 272.667078 
L 190.469647 270.705804 
L 193.389045 270.619098 
L 196.308443 271.527613 
L 199.227841 270.553251 
L 202.147239 270.595185 
L 205.066637 271.129498 
L 207.986035 269.516431 
L 210.905433 269.969361 
L 213.824831 270.547747 
L 216.744229 269.300783 
L 219.663627 270.032033 
L 222.583025 270.589539 
L 225.502423 269.715551 
L 228.421821 270.54494 
L 231.341219 269.688557 
L 234.260617 268.162487 
L 237.180015 269.104965 
L 240.099413 268.912199 
L 243.018811 270.52003 
L 248.857607 268.815683 
L 251.777005 268.235094 
L 254.696403 269.228647 
L 260.535199 269.126508 
L 263.454597 268.107458 
L 266.373995 268.818918 
L 269.293393 266.803578 
L 272.212791 268.263612 
L 275.132189 267.265508 
L 278.051587 266.905473 
L 280.970985 268.995971 
L 283.890383 267.873617 
L 286.809781 267.284443 
L 289.729179 265.685825 
L 292.648577 258.915954 
L 295.567974 267.014781 
L 298.487372 265.711215 
L 301.40677 262.027032 
L 304.326168 268.836694 
L 307.245566 267.465581 
L 310.164964 266.229096 
L 313.084362 267.838552 
L 316.00376 265.403072 
L 318.923158 268.027662 
L 321.842556 265.369579 
L 324.761954 265.873343 
L 327.681352 266.892005 
L 330.60075 267.337311 
L 333.520148 263.384926 
L 336.439546 266.373393 
L 339.358944 264.990349 
L 342.278342 264.917587 
L 345.19774 251.910623 
L 348.117138 252.626683 
L 351.036536 258.519357 
L 353.955934 263.368531 
L 356.875332 261.3378 
L 359.79473 263.447415 
L 362.714128 255.13158 
L 365.633526 263.638301 
L 368.552924 253.344804 
L 371.472322 265.857692 
L 374.39172 259.368959 
L 380.230516 253.426301 
L 383.149914 251.667969 
L 386.069312 265.019608 
L 388.98871 254.90836 
L 391.908108 266.613789 
L 394.827506 256.639199 
L 397.746904 260.966043 
L 400.666302 241.646183 
L 403.5857 261.960933 
L 406.505098 273.99006 
L 409.424496 264.203652 
L 412.343894 268.618915 
L 415.263292 261.940013 
L 418.18269 267.302051 
L 421.102088 266.681223 
L 424.021486 273.99006 
L 426.940884 273.99006 
L 429.860282 263.830563 
L 435.699078 261.299992 
L 438.618476 246.274951 
L 441.537874 273.99006 
L 444.457272 273.99006 
L 447.37667 253.964693 
L 450.296068 273.99006 
L 453.215466 247.340917 
L 456.134864 273.99006 
L 461.97366 273.99006 
L 464.893058 227.798212 
L 467.812456 273.99006 
L 476.57065 273.99006 
L 479.490048 165.727917 
L 482.409446 273.99006 
L 949.513125 273.99006 
L 949.513125 273.99006 
" style="fill:none;stroke:#f15c80;stroke-linecap:square;"/>
   </g>
   <g id="line2d_15">
    <path clip-path="url(#p09bc9016f1)" d="M 76.613125 184.360209 
L 79.532523 212.887346 
L 82.451921 219.81932 
L 85.371319 227.639339 
L 88.290717 236.044423 
L 91.210115 243.436091 
L 94.129513 249.041222 
L 97.048911 250.577017 
L 99.968309 251.271782 
L 102.887707 257.373173 
L 105.807105 261.656683 
L 108.726503 263.114122 
L 111.645901 265.809599 
L 114.565299 267.282709 
L 117.484697 268.332692 
L 120.404095 272.783364 
L 123.323493 273.060225 
L 126.242891 272.553517 
L 129.162289 272.872168 
L 132.081687 272.36546 
L 135.001085 272.663162 
L 140.839881 272.840676 
L 146.678677 272.36 
L 149.598075 272.819738 
L 152.517473 272.6891 
L 155.436871 272.401706 
L 161.275667 272.856242 
L 164.195065 272.506151 
L 175.872657 272.573923 
L 178.792055 272.730575 
L 181.711453 272.353949 
L 184.630851 272.802287 
L 187.550249 272.41349 
L 190.469647 271.659937 
L 193.389045 271.247533 
L 196.308443 270.685156 
L 199.227841 270.989466 
L 202.147239 270.227226 
L 205.066637 271.325851 
L 207.986035 270.118939 
L 210.905433 270.72265 
L 213.824831 270.572885 
L 216.744229 270.623524 
L 219.663627 269.83314 
L 222.583025 269.276515 
L 225.502423 269.842236 
L 228.421821 269.945646 
L 231.341219 269.472329 
L 234.260617 270.422266 
L 237.180015 270.087107 
L 240.099413 269.311187 
L 243.018811 269.47424 
L 245.938209 269.0018 
L 248.857607 269.286214 
L 251.777005 269.409302 
L 254.696403 268.796778 
L 257.615801 269.328961 
L 260.535199 268.624597 
L 263.454597 269.763125 
L 266.373995 270.09928 
L 269.293393 269.47299 
L 272.212791 268.369988 
L 275.132189 267.810854 
L 278.051587 268.984704 
L 280.970985 268.220162 
L 283.890383 267.744537 
L 289.729179 266.144648 
L 292.648577 259.375075 
L 295.567974 266.536239 
L 298.487372 268.456105 
L 301.40677 268.734544 
L 304.326168 268.593896 
L 307.245566 265.750469 
L 310.164964 267.148733 
L 313.084362 268.849825 
L 316.00376 267.548927 
L 318.923158 267.457738 
L 321.842556 268.416257 
L 324.761954 264.392308 
L 327.681352 262.692654 
L 330.60075 262.77396 
L 333.520148 264.207657 
L 336.439546 260.67707 
L 339.358944 260.81274 
L 342.278342 256.59994 
L 345.19774 247.122286 
L 348.117138 258.664242 
L 351.036536 258.493852 
L 353.955934 267.027737 
L 356.875332 264.014445 
L 362.714128 263.974745 
L 365.633526 264.455046 
L 368.552924 260.954375 
L 371.472322 261.480586 
L 374.39172 248.143065 
L 377.311118 262.147837 
L 380.230516 255.342832 
L 383.149914 258.978266 
L 386.069312 259.972303 
L 388.98871 247.525981 
L 391.908108 265.29285 
L 394.827506 267.061283 
L 397.746904 250.39604 
L 400.666302 251.951965 
L 403.5857 264.049203 
L 406.505098 257.414038 
L 409.424496 273.99006 
L 412.343894 260.562197 
L 415.263292 273.99006 
L 418.18269 265.621972 
L 421.102088 264.944659 
L 424.021486 263.860269 
L 426.940884 273.99006 
L 429.860282 235.638895 
L 432.77968 258.992707 
L 435.699078 224.261994 
L 438.618476 273.99006 
L 949.513125 273.99006 
L 949.513125 273.99006 
" style="fill:none;stroke:#e4d354;stroke-linecap:square;"/>
   </g>
   <g id="line2d_16">
    <path clip-path="url(#p09bc9016f1)" d="M 76.613125 191.218473 
L 79.532523 216.647687 
L 82.451921 221.409333 
L 85.371319 229.628238 
L 88.290717 241.696984 
L 91.210115 243.343297 
L 94.129513 250.707385 
L 97.048911 254.671202 
L 99.968309 254.265955 
L 102.887707 257.811862 
L 105.807105 260.81955 
L 108.726503 261.744019 
L 111.645901 265.834475 
L 114.565299 266.157406 
L 117.484697 267.848044 
L 120.404095 273.236555 
L 123.323493 273.0276 
L 126.242891 272.945284 
L 129.162289 272.400734 
L 132.081687 273.173235 
L 135.001085 272.508302 
L 137.920483 272.742574 
L 143.759279 272.780493 
L 146.678677 272.197842 
L 149.598075 272.603149 
L 152.517473 272.862795 
L 155.436871 272.79944 
L 158.356269 273.002082 
L 161.275667 272.552402 
L 164.195065 272.61571 
L 167.114463 272.533354 
L 170.033861 272.97669 
L 172.953259 272.786619 
L 175.872657 272.989282 
L 178.792055 272.590118 
L 181.711453 272.957342 
L 184.630851 273.019568 
L 187.550249 272.916871 
L 190.469647 271.521822 
L 193.389045 270.812188 
L 196.308443 271.418377 
L 199.227841 270.9009 
L 202.147239 270.937522 
L 205.066637 271.355369 
L 207.986035 270.820749 
L 210.905433 271.193901 
L 213.824831 269.901765 
L 216.744229 270.349064 
L 219.663627 270.521408 
L 222.583025 270.502518 
L 225.502423 269.302608 
L 228.421821 270.298992 
L 231.341219 270.845818 
L 234.260617 269.759653 
L 237.180015 270.486647 
L 240.099413 268.9614 
L 243.018811 269.584187 
L 245.938209 270.325771 
L 248.857607 269.260021 
L 251.777005 269.645661 
L 254.696403 269.772069 
L 257.615801 269.579353 
L 260.535199 270.23817 
L 263.454597 269.343242 
L 269.293393 268.654401 
L 272.212791 269.843815 
L 275.132189 269.069216 
L 278.051587 269.080256 
L 280.970985 269.763666 
L 283.890383 268.544979 
L 286.809781 267.526361 
L 289.729179 263.175859 
L 292.648577 256.227976 
L 295.567974 264.596244 
L 298.487372 266.183268 
L 301.40677 265.990135 
L 304.326168 268.244372 
L 307.245566 268.281156 
L 310.164964 267.515564 
L 313.084362 266.30256 
L 316.00376 268.696877 
L 318.923158 268.916666 
L 321.842556 264.703432 
L 324.761954 269.156591 
L 327.681352 268.850915 
L 330.60075 267.164687 
L 333.520148 264.923505 
L 336.439546 265.071875 
L 339.358944 263.737501 
L 342.278342 263.062251 
L 345.19774 258.245646 
L 348.117138 258.640841 
L 351.036536 251.891215 
L 353.955934 261.447665 
L 356.875332 257.145383 
L 359.79473 266.400398 
L 362.714128 263.129908 
L 365.633526 268.509671 
L 368.552924 261.121543 
L 371.472322 266.344814 
L 374.39172 254.186009 
L 377.311118 248.196567 
L 380.230516 259.931672 
L 383.149914 264.299463 
L 386.069312 271.078809 
L 388.98871 263.74039 
L 391.908108 249.79177 
L 394.827506 264.524517 
L 397.746904 273.99006 
L 400.666302 267.825668 
L 403.5857 267.170397 
L 406.505098 243.733391 
L 409.424496 273.99006 
L 418.18269 273.99006 
L 421.102088 261.253337 
L 426.940884 257.492972 
L 429.860282 273.99006 
L 438.618476 273.99006 
L 441.537874 244.877551 
L 444.457272 273.99006 
L 459.054262 273.99006 
L 461.97366 203.288252 
L 464.893058 197.003647 
L 467.812456 273.99006 
L 949.513125 273.99006 
L 949.513125 273.99006 
" style="fill:none;stroke:#2b908f;stroke-linecap:square;"/>
   </g>
   <g id="line2d_17">
    <path clip-path="url(#p09bc9016f1)" d="M 76.613125 179.313533 
L 79.532523 209.947846 
L 88.290717 235.574542 
L 91.210115 243.792743 
L 94.129513 247.846104 
L 97.048911 252.323083 
L 99.968309 252.109045 
L 102.887707 255.845807 
L 105.807105 260.037401 
L 108.726503 261.932537 
L 111.645901 263.466482 
L 114.565299 266.543291 
L 117.484697 267.965758 
L 120.404095 272.179648 
L 123.323493 272.420442 
L 129.162289 271.461726 
L 132.081687 272.398146 
L 135.001085 271.778157 
L 140.839881 271.969852 
L 143.759279 271.813757 
L 146.678677 271.934122 
L 149.598075 272.215077 
L 152.517473 271.715546 
L 155.436871 272.107924 
L 158.356269 271.666377 
L 161.275667 272.188156 
L 164.195065 271.996343 
L 167.114463 271.965111 
L 170.033861 271.465522 
L 172.953259 272.027433 
L 175.872657 272.196866 
L 178.792055 272.000452 
L 181.711453 271.366399 
L 184.630851 271.474891 
L 187.550249 271.32023 
L 190.469647 270.240731 
L 193.389045 269.334478 
L 196.308443 270.088618 
L 199.227841 268.412647 
L 202.147239 269.43813 
L 205.066637 270.071944 
L 207.986035 268.33675 
L 210.905433 269.888253 
L 213.824831 269.792129 
L 216.744229 268.45837 
L 219.663627 268.65477 
L 222.583025 268.704995 
L 225.502423 269.240357 
L 228.421821 268.587785 
L 231.341219 268.748037 
L 234.260617 268.55154 
L 237.180015 269.534283 
L 240.099413 267.770432 
L 243.018811 269.833124 
L 245.938209 268.488727 
L 248.857607 266.960875 
L 251.777005 267.781418 
L 254.696403 267.673214 
L 257.615801 267.07983 
L 260.535199 268.315296 
L 263.454597 267.810697 
L 266.373995 268.762102 
L 269.293393 267.921386 
L 272.212791 268.398097 
L 275.132189 267.801401 
L 278.051587 266.439609 
L 280.970985 269.022451 
L 283.890383 267.383204 
L 286.809781 264.18661 
L 289.729179 265.129871 
L 292.648577 257.855163 
L 295.567974 263.596275 
L 298.487372 266.996005 
L 301.40677 264.084187 
L 304.326168 265.064298 
L 307.245566 266.734055 
L 313.084362 265.282571 
L 316.00376 264.996739 
L 318.923158 263.527869 
L 321.842556 267.506444 
L 324.761954 265.7987 
L 327.681352 262.641956 
L 330.60075 265.317744 
L 333.520148 259.859388 
L 336.439546 265.853514 
L 339.358944 262.86797 
L 342.278342 261.514422 
L 345.19774 253.455547 
L 348.117138 252.852107 
L 351.036536 253.655655 
L 353.955934 254.733472 
L 356.875332 254.894549 
L 359.79473 258.921804 
L 362.714128 259.399223 
L 365.633526 263.189497 
L 368.552924 257.185 
L 371.472322 256.220823 
L 374.39172 255.589866 
L 377.311118 252.84425 
L 380.230516 262.125716 
L 383.149914 247.634879 
L 386.069312 266.084107 
L 388.98871 258.894685 
L 391.908108 256.07467 
L 394.827506 268.717018 
L 397.746904 264.768085 
L 400.666302 256.546009 
L 403.5857 258.558485 
L 406.505098 273.99006 
L 409.424496 269.244322 
L 412.343894 273.99006 
L 415.263292 250.855579 
L 418.18269 267.3533 
L 421.102088 273.99006 
L 424.021486 265.519672 
L 426.940884 245.824299 
L 429.860282 263.363101 
L 432.77968 262.206425 
L 435.699078 246.818385 
L 438.618476 226.962161 
L 441.537874 237.522812 
L 444.457272 273.99006 
L 447.37667 273.99006 
L 450.296068 249.066401 
L 453.215466 273.99006 
L 456.134864 273.99006 
L 459.054262 233.706472 
L 461.97366 273.99006 
L 949.513125 273.99006 
L 949.513125 273.99006 
" style="fill:none;stroke:#f45b5b;stroke-linecap:square;"/>
   </g>
   <g id="line2d_18">
    <path clip-path="url(#p09bc9016f1)" d="M 76.613125 184.961547 
L 79.532523 209.631607 
L 82.451921 217.161179 
L 85.371319 230.669516 
L 88.290717 238.954086 
L 91.210115 244.198259 
L 94.129513 248.483381 
L 97.048911 249.585269 
L 99.968309 254.635592 
L 102.887707 254.604984 
L 105.807105 259.40024 
L 108.726503 263.114012 
L 111.645901 267.541972 
L 114.565299 267.654201 
L 117.484697 268.398996 
L 120.404095 272.276011 
L 123.323493 272.398443 
L 126.242891 271.633243 
L 129.162289 272.612699 
L 132.081687 272.582091 
L 137.920483 272.071958 
L 140.839881 272.786145 
L 143.759279 272.704523 
L 146.678677 272.316822 
L 149.598075 272.051552 
L 152.517473 272.622902 
L 155.436871 271.806688 
L 158.356269 272.439254 
L 161.275667 272.367835 
L 167.114463 272.643299 
L 170.033861 272.12296 
L 172.953259 272.571876 
L 175.872657 271.092467 
L 178.792055 271.347459 
L 181.711453 271.775852 
L 187.550249 271.876657 
L 190.469647 270.262209 
L 193.389045 269.184422 
L 196.308443 270.950802 
L 199.227841 270.781928 
L 202.147239 271.273925 
L 205.066637 270.009742 
L 207.986035 270.310998 
L 210.905433 270.2111 
L 213.824831 270.251609 
L 219.663627 268.395277 
L 222.583025 269.763386 
L 228.421821 269.613924 
L 231.341219 268.983692 
L 234.260617 269.269871 
L 237.180015 269.04748 
L 240.099413 269.851006 
L 243.018811 268.808105 
L 245.938209 269.482683 
L 248.857607 268.497769 
L 251.777005 269.151314 
L 254.696403 268.186697 
L 257.615801 269.132618 
L 260.535199 267.560695 
L 263.454597 266.50554 
L 266.373995 266.886856 
L 269.293393 267.612564 
L 272.212791 265.237297 
L 275.132189 268.582535 
L 278.051587 269.226377 
L 280.970985 268.692659 
L 283.890383 267.562289 
L 286.809781 266.58002 
L 289.729179 265.271675 
L 292.648577 262.020192 
L 295.567974 264.974797 
L 298.487372 262.09375 
L 301.40677 267.461503 
L 304.326168 268.038963 
L 307.245566 266.822595 
L 310.164964 266.038884 
L 313.084362 266.660982 
L 316.00376 268.527588 
L 318.923158 266.958591 
L 321.842556 266.363648 
L 324.761954 263.253109 
L 327.681352 264.497346 
L 330.60075 266.347464 
L 333.520148 259.65545 
L 336.439546 264.690118 
L 339.358944 265.736389 
L 345.19774 249.228348 
L 348.117138 254.771554 
L 351.036536 262.030145 
L 353.955934 259.220656 
L 356.875332 253.747389 
L 359.79473 260.735584 
L 362.714128 259.891897 
L 365.633526 258.660907 
L 368.552924 258.689117 
L 371.472322 258.894685 
L 374.39172 257.975937 
L 377.311118 248.656323 
L 380.230516 271.395012 
L 383.149914 252.162229 
L 386.069312 244.316496 
L 388.98871 265.241604 
L 391.908108 258.431429 
L 394.827506 249.847979 
L 397.746904 259.964195 
L 400.666302 250.097725 
L 403.5857 273.99006 
L 406.505098 273.99006 
L 409.424496 250.50268 
L 412.343894 261.158991 
L 415.263292 273.99006 
L 418.18269 258.927501 
L 421.102088 240.678631 
L 424.021486 254.954958 
L 426.940884 251.782441 
L 429.860282 273.99006 
L 432.77968 246.71141 
L 435.699078 273.99006 
L 438.618476 273.99006 
L 441.537874 232.747339 
L 444.457272 273.99006 
L 447.37667 273.99006 
L 450.296068 217.196805 
L 453.215466 203.288252 
L 456.134864 273.99006 
L 461.97366 273.99006 
L 464.893058 154.528385 
L 467.812456 135.414517 
L 470.731854 273.99006 
L 949.513125 273.99006 
L 949.513125 273.99006 
" style="fill:none;stroke:#91e8e1;stroke-linecap:square;"/>
   </g>
   <g id="line2d_19">
    <path clip-path="url(#p09bc9016f1)" d="M 76.613125 187.822428 
L 79.532523 212.971039 
L 82.451921 217.880333 
L 85.371319 230.347113 
L 94.129513 249.578765 
L 97.048911 252.693924 
L 99.968309 254.371317 
L 102.887707 257.713815 
L 105.807105 262.18072 
L 108.726503 262.832015 
L 111.645901 266.076204 
L 114.565299 267.489393 
L 117.484697 268.730541 
L 120.404095 272.54615 
L 123.323493 272.583016 
L 126.242891 272.042318 
L 129.162289 271.808834 
L 132.081687 272.785778 
L 135.001085 272.687469 
L 137.920483 272.361821 
L 140.839881 272.583016 
L 143.759279 272.583016 
L 146.678677 271.93172 
L 149.598075 272.245079 
L 155.436871 271.851844 
L 158.356269 271.962442 
L 161.275667 272.435547 
L 164.195065 272.343377 
L 167.114463 272.779625 
L 170.033861 272.933231 
L 172.953259 271.403279 
L 175.872657 272.558421 
L 178.792055 272.036087 
L 181.711453 272.306307 
L 184.630851 272.047621 
L 187.550249 272.21929 
L 190.469647 271.154753 
L 193.389045 270.425933 
L 196.308443 271.097146 
L 199.227841 270.277863 
L 205.066637 271.291682 
L 207.986035 269.803748 
L 210.905433 270.364256 
L 213.824831 269.202483 
L 216.744229 270.45606 
L 219.663627 270.059074 
L 222.583025 269.799584 
L 225.502423 269.780127 
L 228.421821 268.859945 
L 231.341219 269.127592 
L 234.260617 268.436701 
L 237.180015 270.444012 
L 240.099413 269.255667 
L 243.018811 269.673201 
L 245.938209 269.318396 
L 248.857607 268.021914 
L 251.777005 268.664658 
L 254.696403 269.554245 
L 257.615801 268.893363 
L 260.535199 268.871334 
L 263.454597 269.448792 
L 266.373995 267.418402 
L 269.293393 268.987469 
L 272.212791 267.841426 
L 275.132189 266.939305 
L 278.051587 267.875303 
L 280.970985 268.183561 
L 283.890383 266.319306 
L 286.809781 266.059484 
L 289.729179 261.464233 
L 292.648577 255.832615 
L 295.567974 265.951263 
L 298.487372 266.700637 
L 301.40677 265.893737 
L 304.326168 266.753991 
L 307.245566 265.926386 
L 310.164964 268.803745 
L 313.084362 268.152454 
L 318.923158 265.203191 
L 321.842556 266.470293 
L 324.761954 265.317208 
L 327.681352 265.1496 
L 330.60075 267.017324 
L 333.520148 260.026931 
L 336.439546 267.132148 
L 339.358944 264.830646 
L 342.278342 257.757825 
L 345.19774 256.230864 
L 348.117138 259.378809 
L 351.036536 255.213811 
L 353.955934 264.762968 
L 356.875332 255.808838 
L 359.79473 244.530974 
L 362.714128 257.460401 
L 365.633526 265.45223 
L 368.552924 260.272727 
L 371.472322 261.286697 
L 374.39172 261.949531 
L 377.311118 259.349924 
L 380.230516 267.428718 
L 383.149914 262.152741 
L 386.069312 262.411221 
L 388.98871 268.455893 
L 391.908108 264.35784 
L 394.827506 262.802583 
L 397.746904 257.111188 
L 400.666302 264.419926 
L 403.5857 268.627229 
L 406.505098 256.493148 
L 409.424496 254.490687 
L 412.343894 273.99006 
L 415.263292 265.952035 
L 418.18269 265.084177 
L 421.102088 263.919163 
L 424.021486 251.346997 
L 426.940884 273.99006 
L 444.457272 273.99006 
L 447.37667 243.600687 
L 450.296068 273.99006 
L 470.731854 273.99006 
L 473.651252 169.008588 
L 476.57065 273.99006 
L 949.513125 273.99006 
L 949.513125 273.99006 
" style="fill:none;stroke:#7cb5ec;stroke-linecap:square;"/>
   </g>
   <g id="line2d_20">
    <path clip-path="url(#p09bc9016f1)" d="M 32.968125 273.99006 
L 993.158125 273.99006 
" style="fill:none;stroke:#dedede;stroke-linecap:square;stroke-width:2;"/>
   </g>
   <g id="text_18">
    <!-- Slamdunk: T&gt;C conversions over reads -->
    <defs>
     <path d="M 53.515625 70.515625 
L 53.515625 60.890625 
Q 47.90625 63.578125 42.921875 64.890625 
Q 37.9375 66.21875 33.296875 66.21875 
Q 25.25 66.21875 20.875 63.09375 
Q 16.5 59.96875 16.5 54.203125 
Q 16.5 49.359375 19.40625 46.890625 
Q 22.3125 44.4375 30.421875 42.921875 
L 36.375 41.703125 
Q 47.40625 39.59375 52.65625 34.296875 
Q 57.90625 29 57.90625 20.125 
Q 57.90625 9.515625 50.796875 4.046875 
Q 43.703125 -1.421875 29.984375 -1.421875 
Q 24.8125 -1.421875 18.96875 -0.25 
Q 13.140625 0.921875 6.890625 3.21875 
L 6.890625 13.375 
Q 12.890625 10.015625 18.65625 8.296875 
Q 24.421875 6.59375 29.984375 6.59375 
Q 38.421875 6.59375 43.015625 9.90625 
Q 47.609375 13.234375 47.609375 19.390625 
Q 47.609375 24.75 44.3125 27.78125 
Q 41.015625 30.8125 33.5 32.328125 
L 27.484375 33.5 
Q 16.453125 35.6875 11.515625 40.375 
Q 6.59375 45.0625 6.59375 53.421875 
Q 6.59375 63.09375 13.40625 68.65625 
Q 20.21875 74.21875 32.171875 74.21875 
Q 37.3125 74.21875 42.625 73.28125 
Q 47.953125 72.359375 53.515625 70.515625 
z
" id="DejaVuSans-83"/>
     <path d="M 9.421875 75.984375 
L 18.40625 75.984375 
L 18.40625 0 
L 9.421875 0 
z
" id="DejaVuSans-108"/>
     <path d="M 52 44.1875 
Q 55.375 50.25 60.0625 53.125 
Q 64.75 56 71.09375 56 
Q 79.640625 56 84.28125 50.015625 
Q 88.921875 44.046875 88.921875 33.015625 
L 88.921875 0 
L 79.890625 0 
L 79.890625 32.71875 
Q 79.890625 40.578125 77.09375 44.375 
Q 74.3125 48.1875 68.609375 48.1875 
Q 61.625 48.1875 57.5625 43.546875 
Q 53.515625 38.921875 53.515625 30.90625 
L 53.515625 0 
L 44.484375 0 
L 44.484375 32.71875 
Q 44.484375 40.625 41.703125 44.40625 
Q 38.921875 48.1875 33.109375 48.1875 
Q 26.21875 48.1875 22.15625 43.53125 
Q 18.109375 38.875 18.109375 30.90625 
L 18.109375 0 
L 9.078125 0 
L 9.078125 54.6875 
L 18.109375 54.6875 
L 18.109375 46.1875 
Q 21.1875 51.21875 25.484375 53.609375 
Q 29.78125 56 35.6875 56 
Q 41.65625 56 45.828125 52.96875 
Q 50 49.953125 52 44.1875 
z
" id="DejaVuSans-109"/>
     <path d="M 8.5 21.578125 
L 8.5 54.6875 
L 17.484375 54.6875 
L 17.484375 21.921875 
Q 17.484375 14.15625 20.5 10.265625 
Q 23.53125 6.390625 29.59375 6.390625 
Q 36.859375 6.390625 41.078125 11.03125 
Q 45.3125 15.671875 45.3125 23.6875 
L 45.3125 54.6875 
L 54.296875 54.6875 
L 54.296875 0 
L 45.3125 0 
L 45.3125 8.40625 
Q 42.046875 3.421875 37.71875 1 
Q 33.40625 -1.421875 27.6875 -1.421875 
Q 18.265625 -1.421875 13.375 4.4375 
Q 8.5 10.296875 8.5 21.578125 
z
M 31.109375 56 
z
" id="DejaVuSans-117"/>
     <path d="M 9.078125 75.984375 
L 18.109375 75.984375 
L 18.109375 31.109375 
L 44.921875 54.6875 
L 56.390625 54.6875 
L 27.390625 29.109375 
L 57.625 0 
L 45.90625 0 
L 18.109375 26.703125 
L 18.109375 0 
L 9.078125 0 
z
" id="DejaVuSans-107"/>
     <path d="M 11.71875 12.40625 
L 22.015625 12.40625 
L 22.015625 0 
L 11.71875 0 
z
M 11.71875 51.703125 
L 22.015625 51.703125 
L 22.015625 39.3125 
L 11.71875 39.3125 
z
" id="DejaVuSans-58"/>
     <path d="M -0.296875 72.90625 
L 61.375 72.90625 
L 61.375 64.59375 
L 35.5 64.59375 
L 35.5 0 
L 25.59375 0 
L 25.59375 64.59375 
L -0.296875 64.59375 
z
" id="DejaVuSans-84"/>
     <path d="M 10.59375 49.21875 
L 10.59375 58.109375 
L 73.1875 35.40625 
L 73.1875 27.296875 
L 10.59375 4.59375 
L 10.59375 13.484375 
L 60.890625 31.296875 
z
" id="DejaVuSans-62"/>
     <path d="M 64.40625 67.28125 
L 64.40625 56.890625 
Q 59.421875 61.53125 53.78125 63.8125 
Q 48.140625 66.109375 41.796875 66.109375 
Q 29.296875 66.109375 22.65625 58.46875 
Q 16.015625 50.828125 16.015625 36.375 
Q 16.015625 21.96875 22.65625 14.328125 
Q 29.296875 6.6875 41.796875 6.6875 
Q 48.140625 6.6875 53.78125 8.984375 
Q 59.421875 11.28125 64.40625 15.921875 
L 64.40625 5.609375 
Q 59.234375 2.09375 53.4375 0.328125 
Q 47.65625 -1.421875 41.21875 -1.421875 
Q 24.65625 -1.421875 15.125 8.703125 
Q 5.609375 18.84375 5.609375 36.375 
Q 5.609375 53.953125 15.125 64.078125 
Q 24.65625 74.21875 41.21875 74.21875 
Q 47.75 74.21875 53.53125 72.484375 
Q 59.328125 70.75 64.40625 67.28125 
z
" id="DejaVuSans-67"/>
    </defs>
    <g transform="translate(355.143125 19.3575)scale(0.16 -0.16)">
     <use xlink:href="#DejaVuSans-83"/>
     <use x="63.476562" xlink:href="#DejaVuSans-108"/>
     <use x="91.259766" xlink:href="#DejaVuSans-97"/>
     <use x="152.539062" xlink:href="#DejaVuSans-109"/>
     <use x="249.951172" xlink:href="#DejaVuSans-100"/>
     <use x="313.427734" xlink:href="#DejaVuSans-117"/>
     <use x="376.806641" xlink:href="#DejaVuSans-110"/>
     <use x="440.185547" xlink:href="#DejaVuSans-107"/>
     <use x="498.095703" xlink:href="#DejaVuSans-58"/>
     <use x="531.787109" xlink:href="#DejaVuSans-32"/>
     <use x="563.574219" xlink:href="#DejaVuSans-84"/>
     <use x="624.658203" xlink:href="#DejaVuSans-62"/>
     <use x="708.447266" xlink:href="#DejaVuSans-67"/>
     <use x="778.271484" xlink:href="#DejaVuSans-32"/>
     <use x="810.058594" xlink:href="#DejaVuSans-99"/>
     <use x="865.039062" xlink:href="#DejaVuSans-111"/>
     <use x="926.220703" xlink:href="#DejaVuSans-110"/>
     <use x="989.599609" xlink:href="#DejaVuSans-118"/>
     <use x="1048.779297" xlink:href="#DejaVuSans-101"/>
     <use x="1110.302734" xlink:href="#DejaVuSans-114"/>
     <use x="1151.416016" xlink:href="#DejaVuSans-115"/>
     <use x="1203.515625" xlink:href="#DejaVuSans-105"/>
     <use x="1231.298828" xlink:href="#DejaVuSans-111"/>
     <use x="1292.480469" xlink:href="#DejaVuSans-110"/>
     <use x="1355.859375" xlink:href="#DejaVuSans-115"/>
     <use x="1407.958984" xlink:href="#DejaVuSans-32"/>
     <use x="1439.746094" xlink:href="#DejaVuSans-111"/>
     <use x="1500.927734" xlink:href="#DejaVuSans-118"/>
     <use x="1560.107422" xlink:href="#DejaVuSans-101"/>
     <use x="1621.630859" xlink:href="#DejaVuSans-114"/>
     <use x="1662.744141" xlink:href="#DejaVuSans-32"/>
     <use x="1694.53125" xlink:href="#DejaVuSans-114"/>
     <use x="1735.613281" xlink:href="#DejaVuSans-101"/>
     <use x="1797.136719" xlink:href="#DejaVuSans-97"/>
     <use x="1858.416016" xlink:href="#DejaVuSans-100"/>
     <use x="1921.892578" xlink:href="#DejaVuSans-115"/>
    </g>
   </g>
   <g id="legend_1">
    <g id="line2d_21">
     <path d="M 40.168125 291.525394 
L 56.168125 291.525394 
" style="fill:none;stroke:#7cb5ec;stroke-linecap:square;"/>
    </g>
    <g id="line2d_22"/>
    <g id="text_19">
     <!-- RT_Gad2_1 -->
     <defs>
      <path d="M 44.390625 34.1875 
Q 47.5625 33.109375 50.5625 29.59375 
Q 53.5625 26.078125 56.59375 19.921875 
L 66.609375 0 
L 56 0 
L 46.6875 18.703125 
Q 43.0625 26.03125 39.671875 28.421875 
Q 36.28125 30.8125 30.421875 30.8125 
L 19.671875 30.8125 
L 19.671875 0 
L 9.8125 0 
L 9.8125 72.90625 
L 32.078125 72.90625 
Q 44.578125 72.90625 50.734375 67.671875 
Q 56.890625 62.453125 56.890625 51.90625 
Q 56.890625 45.015625 53.6875 40.46875 
Q 50.484375 35.9375 44.390625 34.1875 
z
M 19.671875 64.796875 
L 19.671875 38.921875 
L 32.078125 38.921875 
Q 39.203125 38.921875 42.84375 42.21875 
Q 46.484375 45.515625 46.484375 51.90625 
Q 46.484375 58.296875 42.84375 61.546875 
Q 39.203125 64.796875 32.078125 64.796875 
z
" id="DejaVuSans-82"/>
      <path d="M 50.984375 -16.609375 
L 50.984375 -23.578125 
L -0.984375 -23.578125 
L -0.984375 -16.609375 
z
" id="DejaVuSans-95"/>
      <path d="M 59.515625 10.40625 
L 59.515625 29.984375 
L 43.40625 29.984375 
L 43.40625 38.09375 
L 69.28125 38.09375 
L 69.28125 6.78125 
Q 63.578125 2.734375 56.6875 0.65625 
Q 49.8125 -1.421875 42 -1.421875 
Q 24.90625 -1.421875 15.25 8.5625 
Q 5.609375 18.5625 5.609375 36.375 
Q 5.609375 54.25 15.25 64.234375 
Q 24.90625 74.21875 42 74.21875 
Q 49.125 74.21875 55.546875 72.453125 
Q 61.96875 70.703125 67.390625 67.28125 
L 67.390625 56.78125 
Q 61.921875 61.421875 55.765625 63.765625 
Q 49.609375 66.109375 42.828125 66.109375 
Q 29.4375 66.109375 22.71875 58.640625 
Q 16.015625 51.171875 16.015625 36.375 
Q 16.015625 21.625 22.71875 14.15625 
Q 29.4375 6.6875 42.828125 6.6875 
Q 48.046875 6.6875 52.140625 7.59375 
Q 56.25 8.5 59.515625 10.40625 
z
" id="DejaVuSans-71"/>
     </defs>
     <g transform="translate(62.568125 294.325394)scale(0.08 -0.08)">
      <use xlink:href="#DejaVuSans-82"/>
      <use x="69.373047" xlink:href="#DejaVuSans-84"/>
      <use x="130.457031" xlink:href="#DejaVuSans-95"/>
      <use x="180.457031" xlink:href="#DejaVuSans-71"/>
      <use x="257.947266" xlink:href="#DejaVuSans-97"/>
      <use x="319.226562" xlink:href="#DejaVuSans-100"/>
      <use x="382.703125" xlink:href="#DejaVuSans-50"/>
      <use x="446.326172" xlink:href="#DejaVuSans-95"/>
      <use x="496.326172" xlink:href="#DejaVuSans-49"/>
     </g>
    </g>
    <g id="line2d_23">
     <path d="M 40.168125 303.490394 
L 56.168125 303.490394 
" style="fill:none;stroke:#434348;stroke-linecap:square;"/>
    </g>
    <g id="line2d_24"/>
    <g id="text_20">
     <!-- RT_Gad2_2 -->
     <g transform="translate(62.568125 306.290394)scale(0.08 -0.08)">
      <use xlink:href="#DejaVuSans-82"/>
      <use x="69.373047" xlink:href="#DejaVuSans-84"/>
      <use x="130.457031" xlink:href="#DejaVuSans-95"/>
      <use x="180.457031" xlink:href="#DejaVuSans-71"/>
      <use x="257.947266" xlink:href="#DejaVuSans-97"/>
      <use x="319.226562" xlink:href="#DejaVuSans-100"/>
      <use x="382.703125" xlink:href="#DejaVuSans-50"/>
      <use x="446.326172" xlink:href="#DejaVuSans-95"/>
      <use x="496.326172" xlink:href="#DejaVuSans-50"/>
     </g>
    </g>
    <g id="line2d_25">
     <path d="M 40.168125 315.455394 
L 56.168125 315.455394 
" style="fill:none;stroke:#90ed7d;stroke-linecap:square;"/>
    </g>
    <g id="line2d_26"/>
    <g id="text_21">
     <!-- RT_Gad2_3 -->
     <g transform="translate(62.568125 318.255394)scale(0.08 -0.08)">
      <use xlink:href="#DejaVuSans-82"/>
      <use x="69.373047" xlink:href="#DejaVuSans-84"/>
      <use x="130.457031" xlink:href="#DejaVuSans-95"/>
      <use x="180.457031" xlink:href="#DejaVuSans-71"/>
      <use x="257.947266" xlink:href="#DejaVuSans-97"/>
      <use x="319.226562" xlink:href="#DejaVuSans-100"/>
      <use x="382.703125" xlink:href="#DejaVuSans-50"/>
      <use x="446.326172" xlink:href="#DejaVuSans-95"/>
      <use x="496.326172" xlink:href="#DejaVuSans-51"/>
     </g>
    </g>
    <g id="line2d_27">
     <path d="M 254.817813 291.525394 
L 270.817813 291.525394 
" style="fill:none;stroke:#f7a35c;stroke-linecap:square;"/>
    </g>
    <g id="line2d_28"/>
    <g id="text_22">
     <!-- RT_vGluT2_1 -->
     <g transform="translate(277.217813 294.325394)scale(0.08 -0.08)">
      <use xlink:href="#DejaVuSans-82"/>
      <use x="69.373047" xlink:href="#DejaVuSans-84"/>
      <use x="130.457031" xlink:href="#DejaVuSans-95"/>
      <use x="180.457031" xlink:href="#DejaVuSans-118"/>
      <use x="239.636719" xlink:href="#DejaVuSans-71"/>
      <use x="317.126953" xlink:href="#DejaVuSans-108"/>
      <use x="344.910156" xlink:href="#DejaVuSans-117"/>
      <use x="408.289062" xlink:href="#DejaVuSans-84"/>
      <use x="469.373047" xlink:href="#DejaVuSans-50"/>
      <use x="532.996094" xlink:href="#DejaVuSans-95"/>
      <use x="582.996094" xlink:href="#DejaVuSans-49"/>
     </g>
    </g>
    <g id="line2d_29">
     <path d="M 254.817813 303.490394 
L 270.817813 303.490394 
" style="fill:none;stroke:#8085e9;stroke-linecap:square;"/>
    </g>
    <g id="line2d_30"/>
    <g id="text_23">
     <!-- RT_vGluT2_3 -->
     <g transform="translate(277.217813 306.290394)scale(0.08 -0.08)">
      <use xlink:href="#DejaVuSans-82"/>
      <use x="69.373047" xlink:href="#DejaVuSans-84"/>
      <use x="130.457031" xlink:href="#DejaVuSans-95"/>
      <use x="180.457031" xlink:href="#DejaVuSans-118"/>
      <use x="239.636719" xlink:href="#DejaVuSans-71"/>
      <use x="317.126953" xlink:href="#DejaVuSans-108"/>
      <use x="344.910156" xlink:href="#DejaVuSans-117"/>
      <use x="408.289062" xlink:href="#DejaVuSans-84"/>
      <use x="469.373047" xlink:href="#DejaVuSans-50"/>
      <use x="532.996094" xlink:href="#DejaVuSans-95"/>
      <use x="582.996094" xlink:href="#DejaVuSans-51"/>
     </g>
    </g>
    <g id="line2d_31">
     <path d="M 476.4 291.525394 
L 492.4 291.525394 
" style="fill:none;stroke:#f15c80;stroke-linecap:square;"/>
    </g>
    <g id="line2d_32"/>
    <g id="text_24">
     <!-- S1_Gad2_1 -->
     <g transform="translate(498.8 294.325394)scale(0.08 -0.08)">
      <use xlink:href="#DejaVuSans-83"/>
      <use x="63.476562" xlink:href="#DejaVuSans-49"/>
      <use x="127.099609" xlink:href="#DejaVuSans-95"/>
      <use x="177.099609" xlink:href="#DejaVuSans-71"/>
      <use x="254.589844" xlink:href="#DejaVuSans-97"/>
      <use x="315.869141" xlink:href="#DejaVuSans-100"/>
      <use x="379.345703" xlink:href="#DejaVuSans-50"/>
      <use x="442.96875" xlink:href="#DejaVuSans-95"/>
      <use x="492.96875" xlink:href="#DejaVuSans-49"/>
     </g>
    </g>
    <g id="line2d_33">
     <path d="M 476.4 303.490394 
L 492.4 303.490394 
" style="fill:none;stroke:#e4d354;stroke-linecap:square;"/>
    </g>
    <g id="line2d_34"/>
    <g id="text_25">
     <!-- S1_Gad2_2 -->
     <g transform="translate(498.8 306.290394)scale(0.08 -0.08)">
      <use xlink:href="#DejaVuSans-83"/>
      <use x="63.476562" xlink:href="#DejaVuSans-49"/>
      <use x="127.099609" xlink:href="#DejaVuSans-95"/>
      <use x="177.099609" xlink:href="#DejaVuSans-71"/>
      <use x="254.589844" xlink:href="#DejaVuSans-97"/>
      <use x="315.869141" xlink:href="#DejaVuSans-100"/>
      <use x="379.345703" xlink:href="#DejaVuSans-50"/>
      <use x="442.96875" xlink:href="#DejaVuSans-95"/>
      <use x="492.96875" xlink:href="#DejaVuSans-50"/>
     </g>
    </g>
    <g id="line2d_35">
     <path d="M 690.782188 291.525394 
L 706.782188 291.525394 
" style="fill:none;stroke:#2b908f;stroke-linecap:square;"/>
    </g>
    <g id="line2d_36"/>
    <g id="text_26">
     <!-- S1_Gad2_3 -->
     <g transform="translate(713.182188 294.325394)scale(0.08 -0.08)">
      <use xlink:href="#DejaVuSans-83"/>
      <use x="63.476562" xlink:href="#DejaVuSans-49"/>
      <use x="127.099609" xlink:href="#DejaVuSans-95"/>
      <use x="177.099609" xlink:href="#DejaVuSans-71"/>
      <use x="254.589844" xlink:href="#DejaVuSans-97"/>
      <use x="315.869141" xlink:href="#DejaVuSans-100"/>
      <use x="379.345703" xlink:href="#DejaVuSans-50"/>
      <use x="442.96875" xlink:href="#DejaVuSans-95"/>
      <use x="492.96875" xlink:href="#DejaVuSans-51"/>
     </g>
    </g>
    <g id="line2d_37">
     <path d="M 690.782188 303.490394 
L 706.782188 303.490394 
" style="fill:none;stroke:#f45b5b;stroke-linecap:square;"/>
    </g>
    <g id="line2d_38"/>
    <g id="text_27">
     <!-- S1_vGluT2_1 -->
     <g transform="translate(713.182188 306.290394)scale(0.08 -0.08)">
      <use xlink:href="#DejaVuSans-83"/>
      <use x="63.476562" xlink:href="#DejaVuSans-49"/>
      <use x="127.099609" xlink:href="#DejaVuSans-95"/>
      <use x="177.099609" xlink:href="#DejaVuSans-118"/>
      <use x="236.279297" xlink:href="#DejaVuSans-71"/>
      <use x="313.769531" xlink:href="#DejaVuSans-108"/>
      <use x="341.552734" xlink:href="#DejaVuSans-117"/>
      <use x="404.931641" xlink:href="#DejaVuSans-84"/>
      <use x="466.015625" xlink:href="#DejaVuSans-50"/>
      <use x="529.638672" xlink:href="#DejaVuSans-95"/>
      <use x="579.638672" xlink:href="#DejaVuSans-49"/>
     </g>
    </g>
    <g id="line2d_39">
     <path d="M 912.096875 291.525394 
L 928.096875 291.525394 
" style="fill:none;stroke:#91e8e1;stroke-linecap:square;"/>
    </g>
    <g id="line2d_40"/>
    <g id="text_28">
     <!-- S1_vGluT2_2 -->
     <g transform="translate(934.496875 294.325394)scale(0.08 -0.08)">
      <use xlink:href="#DejaVuSans-83"/>
      <use x="63.476562" xlink:href="#DejaVuSans-49"/>
      <use x="127.099609" xlink:href="#DejaVuSans-95"/>
      <use x="177.099609" xlink:href="#DejaVuSans-118"/>
      <use x="236.279297" xlink:href="#DejaVuSans-71"/>
      <use x="313.769531" xlink:href="#DejaVuSans-108"/>
      <use x="341.552734" xlink:href="#DejaVuSans-117"/>
      <use x="404.931641" xlink:href="#DejaVuSans-84"/>
      <use x="466.015625" xlink:href="#DejaVuSans-50"/>
      <use x="529.638672" xlink:href="#DejaVuSans-95"/>
      <use x="579.638672" xlink:href="#DejaVuSans-50"/>
     </g>
    </g>
    <g id="line2d_41">
     <path d="M 912.096875 303.490394 
L 928.096875 303.490394 
" style="fill:none;stroke:#7cb5ec;stroke-linecap:square;"/>
    </g>
    <g id="line2d_42"/>
    <g id="text_29">
     <!-- S1_vGluT2_3 -->
     <g transform="translate(934.496875 306.290394)scale(0.08 -0.08)">
      <use xlink:href="#DejaVuSans-83"/>
      <use x="63.476562" xlink:href="#DejaVuSans-49"/>
      <use x="127.099609" xlink:href="#DejaVuSans-95"/>
      <use x="177.099609" xlink:href="#DejaVuSans-118"/>
      <use x="236.279297" xlink:href="#DejaVuSans-71"/>
      <use x="313.769531" xlink:href="#DejaVuSans-108"/>
      <use x="341.552734" xlink:href="#DejaVuSans-117"/>
      <use x="404.931641" xlink:href="#DejaVuSans-84"/>
      <use x="466.015625" xlink:href="#DejaVuSans-50"/>
      <use x="529.638672" xlink:href="#DejaVuSans-95"/>
      <use x="579.638672" xlink:href="#DejaVuSans-51"/>
     </g>
    </g>
   </g>
  </g>
 </g>
 <defs>
  <clipPath id="p09bc9016f1">
   <rect height="242.5072" width="960.19" x="32.968125" y="31.48286"/>
  </clipPath>
 </defs>
</svg>
