<?xml version="1.0" encoding="utf-8" standalone="no"?>
<!DOCTYPE svg PUBLIC "-//W3C//DTD SVG 1.1//EN"
  "http://www.w3.org/Graphics/SVG/1.1/DTD/svg11.dtd">
<!-- Created with matplotlib (https://matplotlib.org/) -->
<svg height="330.541644pt" version="1.1" viewBox="0 0 1000.318125 330.541644" width="1000.318125pt" xmlns="http://www.w3.org/2000/svg" xmlns:xlink="http://www.w3.org/1999/xlink">
 <defs>
  <style type="text/css">
*{stroke-linecap:butt;stroke-linejoin:round;}
  </style>
 </defs>
 <g id="figure_1">
  <g id="axes_1">
   <g id="patch_1">
    <path d="M 38.058125 273.99006 
L 993.118125 273.99006 
L 993.118125 31.48286 
L 38.058125 31.48286 
z
" style="fill:#ffffff;"/>
   </g>
   <g id="matplotlib.axis_1">
    <g id="xtick_1">
     <g id="text_1">
      <!-- 0 -->
      <defs>
       <path d="M 31.78125 66.40625 
Q 24.171875 66.40625 20.328125 58.90625 
Q 16.5 51.421875 16.5 36.375 
Q 16.5 21.390625 20.328125 13.890625 
Q 24.171875 6.390625 31.78125 6.390625 
Q 39.453125 6.390625 43.28125 13.890625 
Q 47.125 21.390625 47.125 36.375 
Q 47.125 51.421875 43.28125 58.90625 
Q 39.453125 66.40625 31.78125 66.40625 
z
M 31.78125 74.21875 
Q 44.046875 74.21875 50.515625 64.515625 
Q 56.984375 54.828125 56.984375 36.375 
Q 56.984375 17.96875 50.515625 8.265625 
Q 44.046875 -1.421875 31.78125 -1.421875 
Q 19.53125 -1.421875 13.0625 8.265625 
Q 6.59375 17.96875 6.59375 36.375 
Q 6.59375 54.828125 13.0625 64.515625 
Q 19.53125 74.21875 31.78125 74.21875 
z
" id="DejaVuSans-48"/>
      </defs>
      <g transform="translate(76.021143 287.06881)scale(0.08 -0.08)">
       <use xlink:href="#DejaVuSans-48"/>
      </g>
     </g>
    </g>
    <g id="xtick_2">
     <g id="text_2">
      <!-- 50 -->
      <defs>
       <path d="M 10.796875 72.90625 
L 49.515625 72.90625 
L 49.515625 64.59375 
L 19.828125 64.59375 
L 19.828125 46.734375 
Q 21.96875 47.46875 24.109375 47.828125 
Q 26.265625 48.1875 28.421875 48.1875 
Q 40.625 48.1875 47.75 41.5 
Q 54.890625 34.8125 54.890625 23.390625 
Q 54.890625 11.625 47.5625 5.09375 
Q 40.234375 -1.421875 26.90625 -1.421875 
Q 22.3125 -1.421875 17.546875 -0.640625 
Q 12.796875 0.140625 7.71875 1.703125 
L 7.71875 11.625 
Q 12.109375 9.234375 16.796875 8.0625 
Q 21.484375 6.890625 26.703125 6.890625 
Q 35.15625 6.890625 40.078125 11.328125 
Q 45.015625 15.765625 45.015625 23.390625 
Q 45.015625 31 40.078125 35.4375 
Q 35.15625 39.890625 26.703125 39.890625 
Q 22.75 39.890625 18.8125 39.015625 
Q 14.890625 38.140625 10.796875 36.28125 
z
" id="DejaVuSans-53"/>
      </defs>
      <g transform="translate(218.66617 287.06881)scale(0.08 -0.08)">
       <use xlink:href="#DejaVuSans-53"/>
       <use x="63.623047" xlink:href="#DejaVuSans-48"/>
      </g>
     </g>
    </g>
    <g id="xtick_3">
     <g id="text_3">
      <!-- 100 -->
      <defs>
       <path d="M 12.40625 8.296875 
L 28.515625 8.296875 
L 28.515625 63.921875 
L 10.984375 60.40625 
L 10.984375 69.390625 
L 28.421875 72.90625 
L 38.28125 72.90625 
L 38.28125 8.296875 
L 54.390625 8.296875 
L 54.390625 0 
L 12.40625 0 
z
" id="DejaVuSans-49"/>
      </defs>
      <g transform="translate(361.311197 287.06881)scale(0.08 -0.08)">
       <use xlink:href="#DejaVuSans-49"/>
       <use x="63.623047" xlink:href="#DejaVuSans-48"/>
       <use x="127.246094" xlink:href="#DejaVuSans-48"/>
      </g>
     </g>
    </g>
    <g id="xtick_4">
     <g id="text_4">
      <!-- 150 -->
      <g transform="translate(506.501225 287.06881)scale(0.08 -0.08)">
       <use xlink:href="#DejaVuSans-49"/>
       <use x="63.623047" xlink:href="#DejaVuSans-53"/>
       <use x="127.246094" xlink:href="#DejaVuSans-48"/>
      </g>
     </g>
    </g>
    <g id="xtick_5">
     <g id="text_5">
      <!-- 200 -->
      <defs>
       <path d="M 19.1875 8.296875 
L 53.609375 8.296875 
L 53.609375 0 
L 7.328125 0 
L 7.328125 8.296875 
Q 12.9375 14.109375 22.625 23.890625 
Q 32.328125 33.6875 34.8125 36.53125 
Q 39.546875 41.84375 41.421875 45.53125 
Q 43.3125 49.21875 43.3125 52.78125 
Q 43.3125 58.59375 39.234375 62.25 
Q 35.15625 65.921875 28.609375 65.921875 
Q 23.96875 65.921875 18.8125 64.3125 
Q 13.671875 62.703125 7.8125 59.421875 
L 7.8125 69.390625 
Q 13.765625 71.78125 18.9375 73 
Q 24.125 74.21875 28.421875 74.21875 
Q 39.75 74.21875 46.484375 68.546875 
Q 53.21875 62.890625 53.21875 53.421875 
Q 53.21875 48.921875 51.53125 44.890625 
Q 49.859375 40.875 45.40625 35.40625 
Q 44.1875 33.984375 37.640625 27.21875 
Q 31.109375 20.453125 19.1875 8.296875 
z
" id="DejaVuSans-50"/>
      </defs>
      <g transform="translate(651.691252 287.06881)scale(0.08 -0.08)">
       <use xlink:href="#DejaVuSans-50"/>
       <use x="63.623047" xlink:href="#DejaVuSans-48"/>
       <use x="127.246094" xlink:href="#DejaVuSans-48"/>
      </g>
     </g>
    </g>
    <g id="xtick_6">
     <g id="text_6">
      <!-- 250 -->
      <g transform="translate(796.881279 287.06881)scale(0.08 -0.08)">
       <use xlink:href="#DejaVuSans-50"/>
       <use x="63.623047" xlink:href="#DejaVuSans-53"/>
       <use x="127.246094" xlink:href="#DejaVuSans-48"/>
      </g>
     </g>
    </g>
    <g id="xtick_7">
     <g id="text_7">
      <!-- 300 -->
      <defs>
       <path d="M 40.578125 39.3125 
Q 47.65625 37.796875 51.625 33 
Q 55.609375 28.21875 55.609375 21.1875 
Q 55.609375 10.40625 48.1875 4.484375 
Q 40.765625 -1.421875 27.09375 -1.421875 
Q 22.515625 -1.421875 17.65625 -0.515625 
Q 12.796875 0.390625 7.625 2.203125 
L 7.625 11.71875 
Q 11.71875 9.328125 16.59375 8.109375 
Q 21.484375 6.890625 26.8125 6.890625 
Q 36.078125 6.890625 40.9375 10.546875 
Q 45.796875 14.203125 45.796875 21.1875 
Q 45.796875 27.640625 41.28125 31.265625 
Q 36.765625 34.90625 28.71875 34.90625 
L 20.21875 34.90625 
L 20.21875 43.015625 
L 29.109375 43.015625 
Q 36.375 43.015625 40.234375 45.921875 
Q 44.09375 48.828125 44.09375 54.296875 
Q 44.09375 59.90625 40.109375 62.90625 
Q 36.140625 65.921875 28.71875 65.921875 
Q 24.65625 65.921875 20.015625 65.03125 
Q 15.375 64.15625 9.8125 62.3125 
L 9.8125 71.09375 
Q 15.4375 72.65625 20.34375 73.4375 
Q 25.25 74.21875 29.59375 74.21875 
Q 40.828125 74.21875 47.359375 69.109375 
Q 53.90625 64.015625 53.90625 55.328125 
Q 53.90625 49.265625 50.4375 45.09375 
Q 46.96875 40.921875 40.578125 39.3125 
z
" id="DejaVuSans-51"/>
      </defs>
      <g transform="translate(942.071307 287.06881)scale(0.08 -0.08)">
       <use xlink:href="#DejaVuSans-51"/>
       <use x="63.623047" xlink:href="#DejaVuSans-48"/>
       <use x="127.246094" xlink:href="#DejaVuSans-48"/>
      </g>
     </g>
    </g>
    <g id="text_8">
     <!-- Position in read -->
     <defs>
      <path d="M 19.671875 64.796875 
L 19.671875 37.40625 
L 32.078125 37.40625 
Q 38.96875 37.40625 42.71875 40.96875 
Q 46.484375 44.53125 46.484375 51.125 
Q 46.484375 57.671875 42.71875 61.234375 
Q 38.96875 64.796875 32.078125 64.796875 
z
M 9.8125 72.90625 
L 32.078125 72.90625 
Q 44.34375 72.90625 50.609375 67.359375 
Q 56.890625 61.8125 56.890625 51.125 
Q 56.890625 40.328125 50.609375 34.8125 
Q 44.34375 29.296875 32.078125 29.296875 
L 19.671875 29.296875 
L 19.671875 0 
L 9.8125 0 
z
" id="DejaVuSans-80"/>
      <path d="M 30.609375 48.390625 
Q 23.390625 48.390625 19.1875 42.75 
Q 14.984375 37.109375 14.984375 27.296875 
Q 14.984375 17.484375 19.15625 11.84375 
Q 23.34375 6.203125 30.609375 6.203125 
Q 37.796875 6.203125 41.984375 11.859375 
Q 46.1875 17.53125 46.1875 27.296875 
Q 46.1875 37.015625 41.984375 42.703125 
Q 37.796875 48.390625 30.609375 48.390625 
z
M 30.609375 56 
Q 42.328125 56 49.015625 48.375 
Q 55.71875 40.765625 55.71875 27.296875 
Q 55.71875 13.875 49.015625 6.21875 
Q 42.328125 -1.421875 30.609375 -1.421875 
Q 18.84375 -1.421875 12.171875 6.21875 
Q 5.515625 13.875 5.515625 27.296875 
Q 5.515625 40.765625 12.171875 48.375 
Q 18.84375 56 30.609375 56 
z
" id="DejaVuSans-111"/>
      <path d="M 44.28125 53.078125 
L 44.28125 44.578125 
Q 40.484375 46.53125 36.375 47.5 
Q 32.28125 48.484375 27.875 48.484375 
Q 21.1875 48.484375 17.84375 46.4375 
Q 14.5 44.390625 14.5 40.28125 
Q 14.5 37.15625 16.890625 35.375 
Q 19.28125 33.59375 26.515625 31.984375 
L 29.59375 31.296875 
Q 39.15625 29.25 43.1875 25.515625 
Q 47.21875 21.78125 47.21875 15.09375 
Q 47.21875 7.46875 41.1875 3.015625 
Q 35.15625 -1.421875 24.609375 -1.421875 
Q 20.21875 -1.421875 15.453125 -0.5625 
Q 10.6875 0.296875 5.421875 2 
L 5.421875 11.28125 
Q 10.40625 8.6875 15.234375 7.390625 
Q 20.0625 6.109375 24.8125 6.109375 
Q 31.15625 6.109375 34.5625 8.28125 
Q 37.984375 10.453125 37.984375 14.40625 
Q 37.984375 18.0625 35.515625 20.015625 
Q 33.0625 21.96875 24.703125 23.78125 
L 21.578125 24.515625 
Q 13.234375 26.265625 9.515625 29.90625 
Q 5.8125 33.546875 5.8125 39.890625 
Q 5.8125 47.609375 11.28125 51.796875 
Q 16.75 56 26.8125 56 
Q 31.78125 56 36.171875 55.265625 
Q 40.578125 54.546875 44.28125 53.078125 
z
" id="DejaVuSans-115"/>
      <path d="M 9.421875 54.6875 
L 18.40625 54.6875 
L 18.40625 0 
L 9.421875 0 
z
M 9.421875 75.984375 
L 18.40625 75.984375 
L 18.40625 64.59375 
L 9.421875 64.59375 
z
" id="DejaVuSans-105"/>
      <path d="M 18.3125 70.21875 
L 18.3125 54.6875 
L 36.8125 54.6875 
L 36.8125 47.703125 
L 18.3125 47.703125 
L 18.3125 18.015625 
Q 18.3125 11.328125 20.140625 9.421875 
Q 21.96875 7.515625 27.59375 7.515625 
L 36.8125 7.515625 
L 36.8125 0 
L 27.59375 0 
Q 17.1875 0 13.234375 3.875 
Q 9.28125 7.765625 9.28125 18.015625 
L 9.28125 47.703125 
L 2.6875 47.703125 
L 2.6875 54.6875 
L 9.28125 54.6875 
L 9.28125 70.21875 
z
" id="DejaVuSans-116"/>
      <path d="M 54.890625 33.015625 
L 54.890625 0 
L 45.90625 0 
L 45.90625 32.71875 
Q 45.90625 40.484375 42.875 44.328125 
Q 39.84375 48.1875 33.796875 48.1875 
Q 26.515625 48.1875 22.3125 43.546875 
Q 18.109375 38.921875 18.109375 30.90625 
L 18.109375 0 
L 9.078125 0 
L 9.078125 54.6875 
L 18.109375 54.6875 
L 18.109375 46.1875 
Q 21.34375 51.125 25.703125 53.5625 
Q 30.078125 56 35.796875 56 
Q 45.21875 56 50.046875 50.171875 
Q 54.890625 44.34375 54.890625 33.015625 
z
" id="DejaVuSans-110"/>
      <path id="DejaVuSans-32"/>
      <path d="M 41.109375 46.296875 
Q 39.59375 47.171875 37.8125 47.578125 
Q 36.03125 48 33.890625 48 
Q 26.265625 48 22.1875 43.046875 
Q 18.109375 38.09375 18.109375 28.8125 
L 18.109375 0 
L 9.078125 0 
L 9.078125 54.6875 
L 18.109375 54.6875 
L 18.109375 46.1875 
Q 20.953125 51.171875 25.484375 53.578125 
Q 30.03125 56 36.53125 56 
Q 37.453125 56 38.578125 55.875 
Q 39.703125 55.765625 41.0625 55.515625 
z
" id="DejaVuSans-114"/>
      <path d="M 56.203125 29.59375 
L 56.203125 25.203125 
L 14.890625 25.203125 
Q 15.484375 15.921875 20.484375 11.0625 
Q 25.484375 6.203125 34.421875 6.203125 
Q 39.59375 6.203125 44.453125 7.46875 
Q 49.3125 8.734375 54.109375 11.28125 
L 54.109375 2.78125 
Q 49.265625 0.734375 44.1875 -0.34375 
Q 39.109375 -1.421875 33.890625 -1.421875 
Q 20.796875 -1.421875 13.15625 6.1875 
Q 5.515625 13.8125 5.515625 26.8125 
Q 5.515625 40.234375 12.765625 48.109375 
Q 20.015625 56 32.328125 56 
Q 43.359375 56 49.78125 48.890625 
Q 56.203125 41.796875 56.203125 29.59375 
z
M 47.21875 32.234375 
Q 47.125 39.59375 43.09375 43.984375 
Q 39.0625 48.390625 32.421875 48.390625 
Q 24.90625 48.390625 20.390625 44.140625 
Q 15.875 39.890625 15.1875 32.171875 
z
" id="DejaVuSans-101"/>
      <path d="M 34.28125 27.484375 
Q 23.390625 27.484375 19.1875 25 
Q 14.984375 22.515625 14.984375 16.5 
Q 14.984375 11.71875 18.140625 8.90625 
Q 21.296875 6.109375 26.703125 6.109375 
Q 34.1875 6.109375 38.703125 11.40625 
Q 43.21875 16.703125 43.21875 25.484375 
L 43.21875 27.484375 
z
M 52.203125 31.203125 
L 52.203125 0 
L 43.21875 0 
L 43.21875 8.296875 
Q 40.140625 3.328125 35.546875 0.953125 
Q 30.953125 -1.421875 24.3125 -1.421875 
Q 15.921875 -1.421875 10.953125 3.296875 
Q 6 8.015625 6 15.921875 
Q 6 25.140625 12.171875 29.828125 
Q 18.359375 34.515625 30.609375 34.515625 
L 43.21875 34.515625 
L 43.21875 35.40625 
Q 43.21875 41.609375 39.140625 45 
Q 35.0625 48.390625 27.6875 48.390625 
Q 23 48.390625 18.546875 47.265625 
Q 14.109375 46.140625 10.015625 43.890625 
L 10.015625 52.203125 
Q 14.9375 54.109375 19.578125 55.046875 
Q 24.21875 56 28.609375 56 
Q 40.484375 56 46.34375 49.84375 
Q 52.203125 43.703125 52.203125 31.203125 
z
" id="DejaVuSans-97"/>
      <path d="M 45.40625 46.390625 
L 45.40625 75.984375 
L 54.390625 75.984375 
L 54.390625 0 
L 45.40625 0 
L 45.40625 8.203125 
Q 42.578125 3.328125 38.25 0.953125 
Q 33.9375 -1.421875 27.875 -1.421875 
Q 17.96875 -1.421875 11.734375 6.484375 
Q 5.515625 14.40625 5.515625 27.296875 
Q 5.515625 40.1875 11.734375 48.09375 
Q 17.96875 56 27.875 56 
Q 33.9375 56 38.25 53.625 
Q 42.578125 51.265625 45.40625 46.390625 
z
M 14.796875 27.296875 
Q 14.796875 17.390625 18.875 11.75 
Q 22.953125 6.109375 30.078125 6.109375 
Q 37.203125 6.109375 41.296875 11.75 
Q 45.40625 17.390625 45.40625 27.296875 
Q 45.40625 37.203125 41.296875 42.84375 
Q 37.203125 48.484375 30.078125 48.484375 
Q 22.953125 48.484375 18.875 42.84375 
Q 14.796875 37.203125 14.796875 27.296875 
z
" id="DejaVuSans-100"/>
     </defs>
     <g transform="translate(476.840469 300.330997)scale(0.1 -0.1)">
      <use xlink:href="#DejaVuSans-80"/>
      <use x="60.255859" xlink:href="#DejaVuSans-111"/>
      <use x="121.4375" xlink:href="#DejaVuSans-115"/>
      <use x="173.537109" xlink:href="#DejaVuSans-105"/>
      <use x="201.320312" xlink:href="#DejaVuSans-116"/>
      <use x="240.529297" xlink:href="#DejaVuSans-105"/>
      <use x="268.3125" xlink:href="#DejaVuSans-111"/>
      <use x="329.494141" xlink:href="#DejaVuSans-110"/>
      <use x="392.873047" xlink:href="#DejaVuSans-32"/>
      <use x="424.660156" xlink:href="#DejaVuSans-105"/>
      <use x="452.443359" xlink:href="#DejaVuSans-110"/>
      <use x="515.822266" xlink:href="#DejaVuSans-32"/>
      <use x="547.609375" xlink:href="#DejaVuSans-114"/>
      <use x="588.691406" xlink:href="#DejaVuSans-101"/>
      <use x="650.214844" xlink:href="#DejaVuSans-97"/>
      <use x="711.494141" xlink:href="#DejaVuSans-100"/>
     </g>
    </g>
   </g>
   <g id="matplotlib.axis_2">
    <g id="ytick_1">
     <g id="line2d_1">
      <path clip-path="url(#p5f1bfab5db)" d="M 38.058125 273.99006 
L 993.118125 273.99006 
" style="fill:none;stroke:#dedede;stroke-linecap:square;"/>
     </g>
     <g id="text_9">
      <!-- 0 -->
      <g transform="translate(25.968125 277.029435)scale(0.08 -0.08)">
       <use xlink:href="#DejaVuSans-48"/>
      </g>
     </g>
    </g>
    <g id="ytick_2">
     <g id="line2d_2">
      <path clip-path="url(#p5f1bfab5db)" d="M 38.058125 239.346174 
L 993.118125 239.346174 
" style="fill:none;stroke:#dedede;stroke-linecap:square;"/>
     </g>
     <g id="text_10">
      <!-- 5 -->
      <g transform="translate(25.968125 242.385549)scale(0.08 -0.08)">
       <use xlink:href="#DejaVuSans-53"/>
      </g>
     </g>
    </g>
    <g id="ytick_3">
     <g id="line2d_3">
      <path clip-path="url(#p5f1bfab5db)" d="M 38.058125 204.702289 
L 993.118125 204.702289 
" style="fill:none;stroke:#dedede;stroke-linecap:square;"/>
     </g>
     <g id="text_11">
      <!-- 10 -->
      <g transform="translate(20.878125 207.741664)scale(0.08 -0.08)">
       <use xlink:href="#DejaVuSans-49"/>
       <use x="63.623047" xlink:href="#DejaVuSans-48"/>
      </g>
     </g>
    </g>
    <g id="ytick_4">
     <g id="line2d_4">
      <path clip-path="url(#p5f1bfab5db)" d="M 38.058125 170.058403 
L 993.118125 170.058403 
" style="fill:none;stroke:#dedede;stroke-linecap:square;"/>
     </g>
     <g id="text_12">
      <!-- 15 -->
      <g transform="translate(20.878125 173.097778)scale(0.08 -0.08)">
       <use xlink:href="#DejaVuSans-49"/>
       <use x="63.623047" xlink:href="#DejaVuSans-53"/>
      </g>
     </g>
    </g>
    <g id="ytick_5">
     <g id="line2d_5">
      <path clip-path="url(#p5f1bfab5db)" d="M 38.058125 135.414517 
L 993.118125 135.414517 
" style="fill:none;stroke:#dedede;stroke-linecap:square;"/>
     </g>
     <g id="text_13">
      <!-- 20 -->
      <g transform="translate(20.878125 138.453892)scale(0.08 -0.08)">
       <use xlink:href="#DejaVuSans-50"/>
       <use x="63.623047" xlink:href="#DejaVuSans-48"/>
      </g>
     </g>
    </g>
    <g id="ytick_6">
     <g id="line2d_6">
      <path clip-path="url(#p5f1bfab5db)" d="M 38.058125 100.770631 
L 993.118125 100.770631 
" style="fill:none;stroke:#dedede;stroke-linecap:square;"/>
     </g>
     <g id="text_14">
      <!-- 25 -->
      <g transform="translate(20.878125 103.810006)scale(0.08 -0.08)">
       <use xlink:href="#DejaVuSans-50"/>
       <use x="63.623047" xlink:href="#DejaVuSans-53"/>
      </g>
     </g>
    </g>
    <g id="ytick_7">
     <g id="line2d_7">
      <path clip-path="url(#p5f1bfab5db)" d="M 38.058125 66.126746 
L 993.118125 66.126746 
" style="fill:none;stroke:#dedede;stroke-linecap:square;"/>
     </g>
     <g id="text_15">
      <!-- 30 -->
      <g transform="translate(20.878125 69.166121)scale(0.08 -0.08)">
       <use xlink:href="#DejaVuSans-51"/>
       <use x="63.623047" xlink:href="#DejaVuSans-48"/>
      </g>
     </g>
    </g>
    <g id="ytick_8">
     <g id="line2d_8">
      <path clip-path="url(#p5f1bfab5db)" d="M 38.058125 31.48286 
L 993.118125 31.48286 
" style="fill:none;stroke:#dedede;stroke-linecap:square;"/>
     </g>
     <g id="text_16">
      <!-- 35 -->
      <g transform="translate(20.878125 34.522235)scale(0.08 -0.08)">
       <use xlink:href="#DejaVuSans-51"/>
       <use x="63.623047" xlink:href="#DejaVuSans-53"/>
      </g>
     </g>
    </g>
    <g id="text_17">
     <!-- Percent mismatches % -->
     <defs>
      <path d="M 48.78125 52.59375 
L 48.78125 44.1875 
Q 44.96875 46.296875 41.140625 47.34375 
Q 37.3125 48.390625 33.40625 48.390625 
Q 24.65625 48.390625 19.8125 42.84375 
Q 14.984375 37.3125 14.984375 27.296875 
Q 14.984375 17.28125 19.8125 11.734375 
Q 24.65625 6.203125 33.40625 6.203125 
Q 37.3125 6.203125 41.140625 7.25 
Q 44.96875 8.296875 48.78125 10.40625 
L 48.78125 2.09375 
Q 45.015625 0.34375 40.984375 -0.53125 
Q 36.96875 -1.421875 32.421875 -1.421875 
Q 20.0625 -1.421875 12.78125 6.34375 
Q 5.515625 14.109375 5.515625 27.296875 
Q 5.515625 40.671875 12.859375 48.328125 
Q 20.21875 56 33.015625 56 
Q 37.15625 56 41.109375 55.140625 
Q 45.0625 54.296875 48.78125 52.59375 
z
" id="DejaVuSans-99"/>
      <path d="M 52 44.1875 
Q 55.375 50.25 60.0625 53.125 
Q 64.75 56 71.09375 56 
Q 79.640625 56 84.28125 50.015625 
Q 88.921875 44.046875 88.921875 33.015625 
L 88.921875 0 
L 79.890625 0 
L 79.890625 32.71875 
Q 79.890625 40.578125 77.09375 44.375 
Q 74.3125 48.1875 68.609375 48.1875 
Q 61.625 48.1875 57.5625 43.546875 
Q 53.515625 38.921875 53.515625 30.90625 
L 53.515625 0 
L 44.484375 0 
L 44.484375 32.71875 
Q 44.484375 40.625 41.703125 44.40625 
Q 38.921875 48.1875 33.109375 48.1875 
Q 26.21875 48.1875 22.15625 43.53125 
Q 18.109375 38.875 18.109375 30.90625 
L 18.109375 0 
L 9.078125 0 
L 9.078125 54.6875 
L 18.109375 54.6875 
L 18.109375 46.1875 
Q 21.1875 51.21875 25.484375 53.609375 
Q 29.78125 56 35.6875 56 
Q 41.65625 56 45.828125 52.96875 
Q 50 49.953125 52 44.1875 
z
" id="DejaVuSans-109"/>
      <path d="M 54.890625 33.015625 
L 54.890625 0 
L 45.90625 0 
L 45.90625 32.71875 
Q 45.90625 40.484375 42.875 44.328125 
Q 39.84375 48.1875 33.796875 48.1875 
Q 26.515625 48.1875 22.3125 43.546875 
Q 18.109375 38.921875 18.109375 30.90625 
L 18.109375 0 
L 9.078125 0 
L 9.078125 75.984375 
L 18.109375 75.984375 
L 18.109375 46.1875 
Q 21.34375 51.125 25.703125 53.5625 
Q 30.078125 56 35.796875 56 
Q 45.21875 56 50.046875 50.171875 
Q 54.890625 44.34375 54.890625 33.015625 
z
" id="DejaVuSans-104"/>
      <path d="M 72.703125 32.078125 
Q 68.453125 32.078125 66.03125 28.46875 
Q 63.625 24.859375 63.625 18.40625 
Q 63.625 12.0625 66.03125 8.421875 
Q 68.453125 4.78125 72.703125 4.78125 
Q 76.859375 4.78125 79.265625 8.421875 
Q 81.6875 12.0625 81.6875 18.40625 
Q 81.6875 24.8125 79.265625 28.4375 
Q 76.859375 32.078125 72.703125 32.078125 
z
M 72.703125 38.28125 
Q 80.421875 38.28125 84.953125 32.90625 
Q 89.5 27.546875 89.5 18.40625 
Q 89.5 9.28125 84.9375 3.921875 
Q 80.375 -1.421875 72.703125 -1.421875 
Q 64.890625 -1.421875 60.34375 3.921875 
Q 55.8125 9.28125 55.8125 18.40625 
Q 55.8125 27.59375 60.375 32.9375 
Q 64.9375 38.28125 72.703125 38.28125 
z
M 22.3125 68.015625 
Q 18.109375 68.015625 15.6875 64.375 
Q 13.28125 60.75 13.28125 54.390625 
Q 13.28125 47.953125 15.671875 44.328125 
Q 18.0625 40.71875 22.3125 40.71875 
Q 26.5625 40.71875 28.96875 44.328125 
Q 31.390625 47.953125 31.390625 54.390625 
Q 31.390625 60.6875 28.953125 64.34375 
Q 26.515625 68.015625 22.3125 68.015625 
z
M 66.40625 74.21875 
L 74.21875 74.21875 
L 28.609375 -1.421875 
L 20.796875 -1.421875 
z
M 22.3125 74.21875 
Q 30.03125 74.21875 34.609375 68.875 
Q 39.203125 63.53125 39.203125 54.390625 
Q 39.203125 45.171875 34.640625 39.84375 
Q 30.078125 34.515625 22.3125 34.515625 
Q 14.546875 34.515625 10.03125 39.859375 
Q 5.515625 45.21875 5.515625 54.390625 
Q 5.515625 63.484375 10.046875 68.84375 
Q 14.59375 74.21875 22.3125 74.21875 
z
" id="DejaVuSans-37"/>
     </defs>
     <g transform="translate(14.798438 210.120835)rotate(-90)scale(0.1 -0.1)">
      <use xlink:href="#DejaVuSans-80"/>
      <use x="60.255859" xlink:href="#DejaVuSans-101"/>
      <use x="121.779297" xlink:href="#DejaVuSans-114"/>
      <use x="162.861328" xlink:href="#DejaVuSans-99"/>
      <use x="217.841797" xlink:href="#DejaVuSans-101"/>
      <use x="279.365234" xlink:href="#DejaVuSans-110"/>
      <use x="342.744141" xlink:href="#DejaVuSans-116"/>
      <use x="381.953125" xlink:href="#DejaVuSans-32"/>
      <use x="413.740234" xlink:href="#DejaVuSans-109"/>
      <use x="511.152344" xlink:href="#DejaVuSans-105"/>
      <use x="538.935547" xlink:href="#DejaVuSans-115"/>
      <use x="591.035156" xlink:href="#DejaVuSans-109"/>
      <use x="688.447266" xlink:href="#DejaVuSans-97"/>
      <use x="749.726562" xlink:href="#DejaVuSans-116"/>
      <use x="788.935547" xlink:href="#DejaVuSans-99"/>
      <use x="843.916016" xlink:href="#DejaVuSans-104"/>
      <use x="907.294922" xlink:href="#DejaVuSans-101"/>
      <use x="968.818359" xlink:href="#DejaVuSans-115"/>
      <use x="1020.917969" xlink:href="#DejaVuSans-32"/>
      <use x="1052.705078" xlink:href="#DejaVuSans-37"/>
     </g>
    </g>
   </g>
   <g id="line2d_9">
    <path clip-path="url(#p5f1bfab5db)" d="M 81.469943 198.113518 
L 84.373744 204.625443 
L 87.277544 216.267585 
L 90.181345 225.025596 
L 93.085145 229.931635 
L 95.988946 235.92515 
L 98.892746 241.160988 
L 101.796547 244.484851 
L 104.700348 250.490221 
L 107.604148 254.624572 
L 110.507949 258.492712 
L 113.411749 262.634607 
L 116.31555 265.947692 
L 119.21935 268.898644 
L 122.123151 271.20293 
L 125.026951 273.243161 
L 127.930752 273.12245 
L 133.738353 273.320761 
L 136.642154 273.192505 
L 139.545954 273.251783 
L 145.353555 273.107361 
L 148.257356 273.239928 
L 151.161156 273.137539 
L 154.064957 273.24855 
L 162.776359 273.263639 
L 168.58396 273.231299 
L 171.48776 273.122436 
L 174.391561 273.317516 
L 177.295361 273.362777 
L 180.199162 273.142899 
L 186.006763 273.271079 
L 191.814364 273.14004 
L 194.718165 272.624961 
L 197.621965 272.426007 
L 200.525766 272.508587 
L 203.429566 272.424225 
L 206.333367 272.147824 
L 212.140968 272.070545 
L 215.044768 272.223921 
L 217.948569 272.145846 
L 220.852369 272.310477 
L 223.75617 272.345974 
L 226.659971 272.545695 
L 229.563771 272.275758 
L 232.467572 272.206529 
L 235.371372 272.371476 
L 238.275173 272.341972 
L 241.178973 272.506491 
L 246.986574 272.326409 
L 249.890375 272.482345 
L 252.794175 271.697143 
L 255.697976 271.72777 
L 258.601777 271.474476 
L 261.505577 271.727708 
L 267.313178 271.448953 
L 270.216979 271.373333 
L 273.120779 271.969904 
L 276.02458 271.581269 
L 278.92838 271.554384 
L 281.832181 272.052792 
L 284.735981 271.801093 
L 287.639782 272.065179 
L 290.543583 272.175864 
L 293.447383 272.125765 
L 296.351184 272.427397 
L 299.254984 272.344549 
L 302.158785 272.1396 
L 305.062585 272.206052 
L 307.966386 271.4045 
L 310.870186 271.544899 
L 316.677788 271.395345 
L 319.581588 270.887592 
L 322.485389 271.631776 
L 325.389189 271.423749 
L 328.29299 271.366765 
L 331.19679 272.107984 
L 334.100591 270.991785 
L 337.004391 270.167472 
L 339.908192 270.611183 
L 342.811992 271.387258 
L 345.715793 271.492839 
L 348.619594 271.144092 
L 351.523394 271.685785 
L 357.330995 269.931162 
L 360.234796 271.062997 
L 363.138596 269.75626 
L 366.042397 270.781419 
L 368.946197 269.57542 
L 371.849998 270.078443 
L 374.753798 270.832003 
L 377.657599 269.134313 
L 380.5614 267.102608 
L 383.4652 268.936657 
L 386.369001 267.747918 
L 389.272801 267.287494 
L 392.176602 267.921058 
L 395.080402 270.362428 
L 400.888003 269.339874 
L 403.791804 273.99006 
L 406.695604 272.016049 
L 409.599405 269.505415 
L 412.503206 273.99006 
L 415.407006 268.424777 
L 418.310807 273.99006 
L 421.214607 263.330403 
L 424.118408 270.075497 
L 427.022208 269.576826 
L 429.926009 254.333955 
L 432.829809 273.99006 
L 435.73361 267.263092 
L 438.63741 266.539762 
L 441.541211 265.219456 
L 444.445012 273.99006 
L 447.348812 250.50268 
L 450.252613 273.99006 
L 453.156413 273.99006 
L 456.060214 235.496854 
L 458.964014 273.99006 
L 470.579217 273.99006 
L 473.483017 216.25025 
L 476.386818 273.99006 
L 479.290618 175.007529 
L 482.194419 43.030822 
L 485.098219 273.99006 
L 949.706307 273.99006 
L 949.706307 273.99006 
" style="fill:none;stroke:#7cb5ec;stroke-linecap:square;"/>
   </g>
   <g id="line2d_10">
    <path clip-path="url(#p5f1bfab5db)" d="M 81.469943 199.865448 
L 84.373744 205.184698 
L 87.277544 215.092778 
L 90.181345 222.377262 
L 93.085145 228.247714 
L 95.988946 235.08323 
L 98.892746 239.083907 
L 101.796547 245.371917 
L 104.700348 250.063597 
L 107.604148 254.194838 
L 110.507949 258.611842 
L 116.31555 266.209803 
L 122.123151 271.120116 
L 125.026951 273.167261 
L 127.930752 273.09582 
L 130.834552 273.196206 
L 133.738353 273.119839 
L 136.642154 273.236238 
L 139.545954 273.172188 
L 142.449755 273.303367 
L 145.353555 273.191895 
L 148.257356 273.26272 
L 154.064957 273.20606 
L 159.872558 273.345862 
L 162.776359 273.188816 
L 165.680159 273.339085 
L 168.58396 273.353864 
L 171.48776 273.216521 
L 177.295361 273.340305 
L 180.199162 273.129046 
L 186.006763 273.211493 
L 188.910563 273.050377 
L 191.814364 273.061692 
L 194.718165 272.650615 
L 200.525766 272.390761 
L 203.429566 272.411894 
L 206.333367 272.190697 
L 209.237167 272.306718 
L 212.140968 272.139011 
L 226.659971 272.33674 
L 235.371372 272.192791 
L 238.275173 272.363421 
L 241.178973 272.11921 
L 244.082774 272.404677 
L 249.890375 272.595931 
L 252.794175 271.849772 
L 255.697976 271.675091 
L 258.601777 271.19969 
L 264.409378 271.815526 
L 267.313178 271.415045 
L 270.216979 271.435938 
L 273.120779 271.23908 
L 276.02458 271.814532 
L 278.92838 271.101735 
L 281.832181 271.830962 
L 284.735981 271.770732 
L 287.639782 272.069861 
L 290.543583 271.845641 
L 293.447383 272.061244 
L 296.351184 271.750428 
L 299.254984 272.103639 
L 302.158785 272.103683 
L 307.966386 271.770339 
L 310.870186 271.410591 
L 313.773987 271.47827 
L 316.677788 271.384862 
L 319.581588 271.416919 
L 322.485389 270.96214 
L 325.389189 271.436131 
L 328.29299 270.298309 
L 331.19679 271.06186 
L 334.100591 270.815174 
L 337.004391 270.926607 
L 339.908192 271.408641 
L 342.811992 270.932724 
L 345.715793 270.799867 
L 348.619594 270.469622 
L 351.523394 270.485504 
L 354.427195 270.770541 
L 357.330995 269.318651 
L 363.138596 270.38842 
L 366.042397 270.041074 
L 368.946197 269.505415 
L 371.849998 269.121699 
L 374.753798 269.789644 
L 377.657599 265.946703 
L 380.5614 269.261469 
L 383.4652 267.482558 
L 386.369001 269.765196 
L 389.272801 267.849342 
L 392.176602 271.55891 
L 395.080402 271.862493 
L 397.984203 273.18997 
L 400.888003 269.548536 
L 403.791804 271.987523 
L 409.599405 271.488696 
L 412.503206 272.593129 
L 415.407006 272.457145 
L 418.310807 270.499492 
L 421.214607 273.99006 
L 424.118408 271.790448 
L 427.022208 269.12776 
L 429.926009 262.723756 
L 432.829809 270.642825 
L 435.73361 273.99006 
L 438.63741 273.99006 
L 441.541211 268.895371 
L 444.445012 273.99006 
L 464.771615 273.99006 
L 467.675416 240.191147 
L 470.579217 216.25025 
L 473.483017 251.639166 
L 476.386818 175.007529 
L 479.290618 170.058403 
L 482.194419 100.770631 
L 485.098219 273.99006 
L 949.706307 273.99006 
L 949.706307 273.99006 
" style="fill:none;stroke:#434348;stroke-linecap:square;"/>
   </g>
   <g id="line2d_11">
    <path clip-path="url(#p5f1bfab5db)" d="M 81.469943 197.81787 
L 84.373744 203.516783 
L 87.277544 211.9503 
L 90.181345 222.492013 
L 93.085145 228.344793 
L 95.988946 233.625858 
L 98.892746 238.58971 
L 101.796547 243.813167 
L 107.604148 253.805772 
L 110.507949 257.496392 
L 113.411749 261.903843 
L 116.31555 265.504039 
L 119.21935 268.394697 
L 122.123151 270.564149 
L 125.026951 273.192285 
L 127.930752 273.222913 
L 130.834552 273.465745 
L 136.642154 273.076338 
L 139.545954 273.249165 
L 156.968757 273.208328 
L 159.872558 273.355632 
L 162.776359 273.384801 
L 165.680159 273.289269 
L 168.58396 273.321353 
L 171.48776 273.193733 
L 174.391561 273.338848 
L 177.295361 273.34322 
L 180.199162 273.162363 
L 183.102962 273.258612 
L 186.006763 273.045606 
L 188.910563 273.271407 
L 191.814364 273.076217 
L 194.718165 272.640623 
L 197.621965 272.584051 
L 200.525766 272.3716 
L 206.333367 272.363189 
L 209.237167 271.995299 
L 212.140968 272.229644 
L 215.044768 272.069952 
L 217.948569 272.256903 
L 220.852369 272.155521 
L 223.75617 272.454704 
L 229.563771 272.289528 
L 241.178973 272.378761 
L 244.082774 272.031559 
L 246.986574 272.608262 
L 255.697976 271.297267 
L 258.601777 271.662334 
L 261.505577 271.688164 
L 264.409378 271.585727 
L 267.313178 271.357915 
L 270.216979 271.387312 
L 273.120779 271.63239 
L 276.02458 271.331841 
L 281.832181 272.034298 
L 284.735981 271.991194 
L 287.639782 272.156299 
L 290.543583 271.850598 
L 299.254984 272.230057 
L 302.158785 271.877581 
L 305.062585 271.80972 
L 307.966386 271.622917 
L 310.870186 271.821607 
L 313.773987 271.083311 
L 316.677788 271.548684 
L 319.581588 271.393264 
L 322.485389 271.540433 
L 325.389189 270.843668 
L 328.29299 271.160466 
L 331.19679 270.496048 
L 334.100591 271.969581 
L 337.004391 270.460115 
L 339.908192 271.394287 
L 342.811992 269.918214 
L 345.715793 270.931551 
L 348.619594 270.590776 
L 351.523394 269.835876 
L 354.427195 271.603481 
L 357.330995 268.743727 
L 360.234796 271.156419 
L 363.138596 271.444943 
L 366.042397 269.763478 
L 371.849998 268.787975 
L 374.753798 270.366223 
L 377.657599 270.144027 
L 383.4652 270.497293 
L 386.369001 269.185823 
L 389.272801 269.532207 
L 392.176602 268.797186 
L 395.080402 266.800667 
L 397.984203 268.756845 
L 400.888003 273.99006 
L 403.791804 268.391048 
L 406.695604 263.163846 
L 409.599405 270.559972 
L 412.503206 264.550309 
L 415.407006 273.99006 
L 421.214607 273.99006 
L 424.118408 268.310734 
L 427.022208 264.276821 
L 429.926009 266.45878 
L 432.829809 273.99006 
L 435.73361 264.020596 
L 438.63741 273.99006 
L 441.541211 273.99006 
L 444.445012 266.991295 
L 447.348812 273.99006 
L 456.060214 273.99006 
L 458.964014 260.916896 
L 461.867815 273.99006 
L 464.771615 257.090604 
L 467.675416 256.668117 
L 470.579217 235.496854 
L 473.483017 273.99006 
L 476.386818 211.001177 
L 479.290618 208.001706 
L 482.194419 135.414517 
L 485.098219 273.99006 
L 949.706307 273.99006 
L 949.706307 273.99006 
" style="fill:none;stroke:#90ed7d;stroke-linecap:square;"/>
   </g>
   <g id="line2d_12">
    <path clip-path="url(#p5f1bfab5db)" d="M 81.469943 197.577624 
L 84.373744 203.241472 
L 87.277544 215.143582 
L 90.181345 224.488907 
L 93.085145 229.747807 
L 95.988946 235.776699 
L 98.892746 240.208954 
L 101.796547 245.980689 
L 104.700348 250.485362 
L 110.507949 259.209471 
L 113.411749 262.551521 
L 116.31555 266.238909 
L 119.21935 268.296161 
L 122.123151 270.990886 
L 125.026951 273.302831 
L 130.834552 273.241744 
L 136.642154 273.085086 
L 139.545954 273.259479 
L 177.295361 273.316614 
L 180.199162 273.020039 
L 186.006763 273.355491 
L 191.814364 273.1298 
L 194.718165 272.713335 
L 197.621965 272.609976 
L 200.525766 272.685996 
L 203.429566 272.452423 
L 206.333367 272.506298 
L 209.237167 272.332621 
L 212.140968 272.476614 
L 215.044768 272.390001 
L 217.948569 272.556014 
L 223.75617 272.429251 
L 226.659971 272.685783 
L 232.467572 272.519101 
L 235.371372 272.350309 
L 238.275173 272.514159 
L 244.082774 272.264525 
L 246.986574 272.41507 
L 249.890375 272.424393 
L 252.794175 272.009992 
L 255.697976 271.806194 
L 258.601777 271.723493 
L 264.409378 272.060312 
L 267.313178 271.727612 
L 270.216979 271.626863 
L 273.120779 271.795995 
L 278.92838 271.908367 
L 281.832181 272.199588 
L 284.735981 271.956202 
L 287.639782 271.85066 
L 290.543583 271.971187 
L 293.447383 272.290041 
L 296.351184 272.207568 
L 299.254984 272.254407 
L 305.062585 271.780831 
L 307.966386 272.096828 
L 310.870186 271.724584 
L 316.677788 271.334999 
L 319.581588 271.017968 
L 322.485389 271.49266 
L 325.389189 271.809334 
L 328.29299 271.353743 
L 331.19679 271.273128 
L 337.004391 271.704288 
L 339.908192 271.431855 
L 342.811992 271.526944 
L 345.715793 271.247452 
L 348.619594 271.281436 
L 351.523394 270.545244 
L 354.427195 271.171131 
L 357.330995 270.250839 
L 360.234796 271.117081 
L 363.138596 271.166751 
L 366.042397 271.415104 
L 368.946197 270.262203 
L 371.849998 270.908233 
L 374.753798 269.292584 
L 380.5614 271.126929 
L 383.4652 269.519881 
L 386.369001 269.369849 
L 389.272801 270.365275 
L 392.176602 270.790194 
L 395.080402 271.022704 
L 397.984203 273.141984 
L 400.888003 268.93025 
L 403.791804 271.491274 
L 406.695604 271.591176 
L 409.599405 270.964393 
L 412.503206 268.715558 
L 415.407006 271.882447 
L 418.310807 271.093414 
L 421.214607 272.0654 
L 424.118408 271.884049 
L 427.022208 270.829842 
L 429.926009 270.529997 
L 432.829809 272.054647 
L 435.73361 266.50527 
L 438.63741 269.244322 
L 441.541211 268.760794 
L 444.445012 269.431654 
L 447.348812 272.27076 
L 450.252613 270.18304 
L 453.156413 265.107012 
L 456.060214 268.838553 
L 458.964014 268.016976 
L 461.867815 260.916896 
L 464.771615 251.758689 
L 467.675416 260.834154 
L 470.579217 248.885795 
L 473.483017 246.051442 
L 476.386818 236.19673 
L 479.290618 236.333662 
L 482.194419 211.001177 
L 485.098219 273.99006 
L 949.706307 273.99006 
L 949.706307 273.99006 
" style="fill:none;stroke:#f7a35c;stroke-linecap:square;"/>
   </g>
   <g id="line2d_13">
    <path clip-path="url(#p5f1bfab5db)" d="M 81.469943 198.98831 
L 84.373744 204.266234 
L 87.277544 215.250919 
L 90.181345 224.837628 
L 95.988946 235.716143 
L 98.892746 240.364221 
L 101.796547 245.399577 
L 104.700348 251.116918 
L 110.507949 258.3811 
L 113.411749 262.733714 
L 119.21935 268.717426 
L 122.123151 270.934162 
L 125.026951 273.294095 
L 127.930752 273.16601 
L 130.834552 273.291828 
L 148.257356 273.339435 
L 151.161156 273.249889 
L 154.064957 273.333389 
L 159.872558 273.230997 
L 162.776359 273.388553 
L 171.48776 273.182252 
L 174.391561 273.410461 
L 177.295361 273.26726 
L 180.199162 272.985771 
L 183.102962 273.241932 
L 186.006763 273.266078 
L 194.718165 272.871328 
L 203.429566 272.518297 
L 217.948569 272.604841 
L 220.852369 272.498371 
L 223.75617 272.631606 
L 226.659971 272.564728 
L 232.467572 272.710986 
L 235.371372 272.492621 
L 249.890375 272.673739 
L 252.794175 272.206584 
L 255.697976 272.000956 
L 261.505577 271.883927 
L 264.409378 272.020343 
L 267.313178 271.939988 
L 270.216979 271.718953 
L 273.120779 271.95438 
L 276.02458 271.921137 
L 278.92838 272.215876 
L 281.832181 272.044536 
L 284.735981 272.196807 
L 287.639782 271.818905 
L 290.543583 271.801291 
L 293.447383 272.108446 
L 299.254984 272.439751 
L 302.158785 272.122739 
L 307.966386 271.961585 
L 310.870186 271.715969 
L 322.485389 271.676653 
L 325.389189 271.895336 
L 331.19679 271.418245 
L 334.100591 271.845616 
L 339.908192 271.386635 
L 342.811992 271.532369 
L 345.715793 270.915973 
L 348.619594 271.222262 
L 351.523394 270.971583 
L 354.427195 271.42622 
L 357.330995 270.1096 
L 360.234796 271.255897 
L 363.138596 271.129432 
L 366.042397 271.400658 
L 368.946197 270.630323 
L 371.849998 271.263247 
L 374.753798 271.60638 
L 377.657599 270.299223 
L 380.5614 270.336432 
L 383.4652 270.261874 
L 386.369001 269.207824 
L 389.272801 270.912043 
L 392.176602 269.244322 
L 395.080402 270.618939 
L 397.984203 272.185691 
L 400.888003 272.243309 
L 403.791804 271.41191 
L 406.695604 271.493846 
L 409.599405 272.812364 
L 412.503206 270.95872 
L 415.407006 271.152336 
L 418.310807 272.438841 
L 421.214607 271.641322 
L 424.118408 272.672802 
L 427.022208 271.824817 
L 429.926009 269.233462 
L 432.829809 265.061223 
L 435.73361 268.025546 
L 438.63741 263.866847 
L 441.541211 271.423846 
L 444.445012 263.969101 
L 447.348812 267.618771 
L 450.252613 272.176244 
L 453.156413 269.828632 
L 456.060214 266.871453 
L 458.964014 273.99006 
L 461.867815 270.964393 
L 464.771615 260.792389 
L 467.675416 273.99006 
L 470.579217 253.730478 
L 473.483017 246.639624 
L 476.386818 240.463719 
L 479.290618 227.35406 
L 482.194419 230.685203 
L 485.098219 273.99006 
L 949.706307 273.99006 
L 949.706307 273.99006 
" style="fill:none;stroke:#8085e9;stroke-linecap:square;"/>
   </g>
   <g id="line2d_14">
    <path clip-path="url(#p5f1bfab5db)" d="M 81.469943 197.242705 
L 84.373744 204.219571 
L 87.277544 214.469534 
L 90.181345 221.746953 
L 93.085145 229.387235 
L 95.988946 233.721431 
L 98.892746 240.095358 
L 101.796547 245.979969 
L 104.700348 249.322707 
L 107.604148 255.535362 
L 110.507949 257.708874 
L 113.411749 262.358285 
L 116.31555 265.792655 
L 119.21935 268.785359 
L 122.123151 270.464058 
L 125.026951 273.165371 
L 127.930752 273.311983 
L 136.642154 273.181865 
L 139.545954 273.243553 
L 142.449755 273.071044 
L 145.353555 273.35332 
L 151.161156 273.2006 
L 154.064957 273.27189 
L 156.968757 273.172987 
L 162.776359 273.372929 
L 171.48776 273.315597 
L 174.391561 273.350597 
L 183.102962 273.101493 
L 186.006763 273.195078 
L 191.814364 273.020915 
L 194.718165 272.707008 
L 197.621965 272.728411 
L 200.525766 272.437672 
L 203.429566 272.368782 
L 206.333367 272.023758 
L 209.237167 272.540726 
L 212.140968 272.386764 
L 215.044768 272.580538 
L 217.948569 272.435321 
L 220.852369 272.445919 
L 223.75617 272.658638 
L 226.659971 272.253435 
L 229.563771 272.806041 
L 232.467572 272.40066 
L 235.371372 272.602823 
L 238.275173 272.219684 
L 241.178973 272.407364 
L 244.082774 272.161328 
L 246.986574 272.639014 
L 249.890375 272.221325 
L 252.794175 271.350836 
L 255.697976 271.957344 
L 258.601777 271.91677 
L 261.505577 271.007953 
L 264.409378 271.941916 
L 267.313178 271.751999 
L 270.216979 271.350909 
L 273.120779 272.100582 
L 276.02458 272.105075 
L 278.92838 271.631037 
L 281.832181 272.464845 
L 284.735981 272.223957 
L 287.639782 271.212489 
L 290.543583 271.897909 
L 293.447383 271.671599 
L 296.351184 271.599714 
L 305.062585 272.476359 
L 307.966386 272.180421 
L 310.870186 271.387653 
L 313.773987 271.653075 
L 316.677788 271.355623 
L 319.581588 270.765647 
L 322.485389 270.341848 
L 325.389189 271.642584 
L 328.29299 270.967033 
L 331.19679 271.850118 
L 334.100591 271.078474 
L 337.004391 271.979647 
L 339.908192 271.899631 
L 345.715793 270.646414 
L 348.619594 271.419987 
L 351.523394 271.92627 
L 354.427195 272.295764 
L 357.330995 270.448775 
L 360.234796 270.246002 
L 363.138596 270.895129 
L 366.042397 269.834871 
L 368.946197 270.046435 
L 371.849998 271.166104 
L 374.753798 269.864343 
L 377.657599 270.770096 
L 380.5614 271.514234 
L 383.4652 270.542907 
L 386.369001 270.332335 
L 389.272801 266.21164 
L 392.176602 270.396296 
L 395.080402 272.279251 
L 397.984203 269.990766 
L 400.888003 273.99006 
L 403.791804 268.799965 
L 406.695604 272.561446 
L 409.599405 270.889936 
L 412.503206 272.295982 
L 415.407006 273.99006 
L 418.310807 269.865788 
L 421.214607 271.725754 
L 424.118408 271.423846 
L 427.022208 273.99006 
L 429.926009 270.868989 
L 432.829809 267.197141 
L 435.73361 266.204917 
L 438.63741 261.079295 
L 441.541211 273.99006 
L 447.348812 273.99006 
L 450.252613 266.539762 
L 453.156413 273.99006 
L 456.060214 264.991648 
L 458.964014 263.491913 
L 461.867815 273.99006 
L 467.675416 273.99006 
L 470.579217 254.743457 
L 473.483017 227.798212 
L 476.386818 247.340917 
L 479.290618 273.99006 
L 482.194419 240.995883 
L 485.098219 273.99006 
L 949.706307 273.99006 
L 949.706307 273.99006 
" style="fill:none;stroke:#f15c80;stroke-linecap:square;"/>
   </g>
   <g id="line2d_15">
    <path clip-path="url(#p5f1bfab5db)" d="M 81.469943 195.035749 
L 84.373744 203.490849 
L 87.277544 213.767018 
L 90.181345 225.978669 
L 93.085145 231.520058 
L 95.988946 235.053504 
L 98.892746 241.241326 
L 101.796547 246.64542 
L 104.700348 250.272303 
L 107.604148 254.173777 
L 110.507949 259.124034 
L 113.411749 261.704041 
L 116.31555 265.422454 
L 119.21935 268.355234 
L 125.026951 273.425624 
L 127.930752 273.172009 
L 136.642154 273.282608 
L 142.449755 273.068216 
L 145.353555 273.249241 
L 148.257356 273.00272 
L 151.161156 273.287077 
L 154.064957 273.340283 
L 156.968757 273.059622 
L 159.872558 273.256189 
L 162.776359 273.12385 
L 168.58396 273.334528 
L 171.48776 273.15618 
L 174.391561 273.338265 
L 177.295361 273.374654 
L 180.199162 273.056374 
L 183.102962 273.23263 
L 191.814364 273.043603 
L 194.718165 272.650095 
L 197.621965 272.395777 
L 200.525766 272.633522 
L 203.429566 272.332578 
L 206.333367 272.515071 
L 209.237167 271.993446 
L 212.140968 272.119103 
L 215.044768 272.11444 
L 217.948569 272.300322 
L 223.75617 272.16024 
L 226.659971 272.251338 
L 229.563771 272.865846 
L 232.467572 272.249546 
L 235.371372 272.463037 
L 241.178973 272.180383 
L 244.082774 272.126952 
L 246.986574 271.933955 
L 249.890375 272.207287 
L 252.794175 271.31984 
L 255.697976 271.618183 
L 258.601777 271.786171 
L 261.505577 271.420051 
L 264.409378 271.333637 
L 267.313178 271.568266 
L 270.216979 271.311349 
L 273.120779 270.915022 
L 276.02458 272.099296 
L 278.92838 272.297316 
L 281.832181 271.733782 
L 284.735981 271.612125 
L 290.543583 271.946302 
L 293.447383 271.688497 
L 302.158785 272.397984 
L 307.966386 271.679619 
L 310.870186 271.701381 
L 313.773987 271.088112 
L 316.677788 270.934111 
L 319.581588 269.419211 
L 322.485389 270.848623 
L 325.389189 270.612888 
L 328.29299 270.818489 
L 331.19679 270.908382 
L 334.100591 270.785347 
L 337.004391 271.870844 
L 339.908192 271.073808 
L 342.811992 269.200583 
L 345.715793 271.814502 
L 348.619594 269.325074 
L 351.523394 268.678802 
L 354.427195 270.812225 
L 357.330995 268.747606 
L 360.234796 270.068375 
L 363.138596 268.854066 
L 366.042397 270.682768 
L 368.946197 272.064805 
L 371.849998 269.449908 
L 374.753798 269.805294 
L 377.657599 265.070419 
L 380.5614 270.912557 
L 383.4652 268.0029 
L 386.369001 271.340432 
L 389.272801 265.269631 
L 392.176602 272.10211 
L 395.080402 267.380734 
L 397.984203 271.465915 
L 400.888003 272.578904 
L 403.791804 270.804415 
L 406.695604 266.846991 
L 409.599405 272.016049 
L 412.503206 269.673065 
L 415.407006 271.617191 
L 418.310807 265.933342 
L 421.214607 273.99006 
L 424.118408 267.263092 
L 427.022208 266.539762 
L 429.926009 273.99006 
L 432.829809 269.401466 
L 435.73361 273.99006 
L 441.541211 273.99006 
L 444.445012 266.291419 
L 447.348812 273.99006 
L 470.579217 273.99006 
L 473.483017 243.864942 
L 476.386818 233.232547 
L 479.290618 211.001177 
L 482.194419 204.702289 
L 485.098219 273.99006 
L 949.706307 273.99006 
L 949.706307 273.99006 
" style="fill:none;stroke:#e4d354;stroke-linecap:square;"/>
   </g>
   <g id="line2d_16">
    <path clip-path="url(#p5f1bfab5db)" d="M 81.469943 197.251508 
L 84.373744 203.758951 
L 87.277544 216.338248 
L 90.181345 225.727622 
L 93.085145 231.744477 
L 95.988946 234.776004 
L 101.796547 246.301527 
L 104.700348 251.629798 
L 107.604148 255.778899 
L 110.507949 258.735627 
L 113.411749 263.494113 
L 116.31555 266.778634 
L 119.21935 268.707987 
L 122.123151 271.015732 
L 125.026951 273.068282 
L 133.738353 273.314676 
L 136.642154 273.15408 
L 142.449755 273.261227 
L 145.353555 273.217034 
L 148.257356 272.95696 
L 151.161156 273.110975 
L 156.968757 273.119877 
L 159.872558 273.10156 
L 162.776359 273.472811 
L 165.680159 273.187519 
L 168.58396 273.269307 
L 174.391561 273.207312 
L 177.295361 273.313361 
L 180.199162 273.023586 
L 186.006763 273.12684 
L 188.910563 272.742051 
L 191.814364 272.949006 
L 200.525766 272.320952 
L 203.429566 272.321882 
L 206.333367 272.502653 
L 209.237167 272.245419 
L 217.948569 272.430311 
L 220.852369 272.217531 
L 223.75617 272.338661 
L 226.659971 271.684439 
L 229.563771 272.398276 
L 232.467572 272.465317 
L 235.371372 272.287678 
L 241.178973 272.363328 
L 246.986574 271.898612 
L 249.890375 272.464828 
L 252.794175 271.286687 
L 255.697976 271.588212 
L 258.601777 271.585705 
L 261.505577 271.872847 
L 264.409378 271.251497 
L 267.313178 272.193657 
L 270.216979 270.941014 
L 276.02458 271.162137 
L 278.92838 272.516772 
L 281.832181 271.510092 
L 284.735981 271.536615 
L 290.543583 271.320885 
L 293.447383 271.999747 
L 299.254984 272.206705 
L 302.158785 271.794704 
L 305.062585 272.120633 
L 307.966386 271.240362 
L 310.870186 271.610429 
L 313.773987 269.708604 
L 316.677788 271.190431 
L 319.581588 270.488446 
L 322.485389 271.409438 
L 325.389189 271.648085 
L 328.29299 269.938144 
L 331.19679 270.996828 
L 334.100591 271.087029 
L 337.004391 272.565265 
L 339.908192 270.930286 
L 342.811992 270.915828 
L 345.715793 271.240949 
L 348.619594 269.192687 
L 351.523394 270.982665 
L 354.427195 271.777807 
L 357.330995 270.61264 
L 360.234796 271.849146 
L 363.138596 271.088188 
L 366.042397 270.912883 
L 368.946197 271.274076 
L 371.849998 271.839379 
L 374.753798 270.54505 
L 377.657599 267.681613 
L 380.5614 270.196934 
L 383.4652 271.73802 
L 386.369001 269.565554 
L 389.272801 268.84238 
L 392.176602 270.45497 
L 395.080402 269.882089 
L 397.984203 270.861944 
L 400.888003 270.576869 
L 403.791804 272.060039 
L 406.695604 269.778037 
L 409.599405 271.688141 
L 412.503206 268.895371 
L 415.407006 273.99006 
L 418.310807 273.99006 
L 421.214607 263.948354 
L 424.118408 273.99006 
L 427.022208 269.865788 
L 429.926009 269.519881 
L 432.829809 273.99006 
L 435.73361 273.99006 
L 438.63741 267.803652 
L 441.541211 273.99006 
L 447.348812 273.99006 
L 450.252613 264.75169 
L 453.156413 263.800682 
L 456.060214 273.99006 
L 467.675416 273.99006 
L 470.579217 242.495618 
L 473.483017 204.702289 
L 476.386818 235.496854 
L 479.290618 220.691774 
L 482.194419 135.414517 
L 485.098219 273.99006 
L 949.706307 273.99006 
L 949.706307 273.99006 
" style="fill:none;stroke:#2b908f;stroke-linecap:square;"/>
   </g>
   <g id="line2d_17">
    <path clip-path="url(#p5f1bfab5db)" d="M 81.469943 196.199514 
L 84.373744 204.027316 
L 87.277544 215.824598 
L 90.181345 223.606867 
L 93.085145 228.713353 
L 95.988946 236.810341 
L 98.892746 240.230736 
L 101.796547 244.994379 
L 104.700348 250.367372 
L 110.507949 259.415214 
L 113.411749 262.424465 
L 116.31555 266.230558 
L 119.21935 268.359935 
L 122.123151 270.893759 
L 125.026951 273.150362 
L 133.738353 273.205271 
L 136.642154 273.299017 
L 142.449755 273.170026 
L 159.872558 273.162687 
L 165.680159 273.365411 
L 171.48776 273.224224 
L 174.391561 273.361256 
L 180.199162 273.04004 
L 183.102962 273.201156 
L 188.910563 273.215746 
L 194.718165 272.56341 
L 197.621965 272.62851 
L 200.525766 272.289573 
L 209.237167 272.062604 
L 212.140968 271.862883 
L 215.044768 272.264132 
L 217.948569 272.384699 
L 223.75617 272.444659 
L 226.659971 271.973908 
L 229.563771 272.487244 
L 232.467572 272.53763 
L 235.371372 272.202627 
L 241.178973 272.582195 
L 244.082774 272.047621 
L 246.986574 272.626424 
L 252.794175 271.556773 
L 255.697976 272.157683 
L 258.601777 271.822169 
L 261.505577 272.127756 
L 264.409378 271.513333 
L 267.313178 271.683625 
L 270.216979 272.032369 
L 273.120779 271.642685 
L 276.02458 271.532521 
L 278.92838 271.632061 
L 281.832181 272.157821 
L 287.639782 271.807089 
L 290.543583 271.877957 
L 293.447383 271.805042 
L 296.351184 271.442008 
L 299.254984 272.636587 
L 302.158785 272.390867 
L 305.062585 271.766402 
L 307.966386 271.979403 
L 310.870186 271.398423 
L 313.773987 271.132394 
L 316.677788 270.643391 
L 319.581588 271.075434 
L 322.485389 270.960835 
L 325.389189 271.837248 
L 328.29299 272.032188 
L 331.19679 271.056623 
L 334.100591 271.511602 
L 337.004391 271.05398 
L 339.908192 270.397856 
L 342.811992 271.267739 
L 345.715793 270.979385 
L 348.619594 271.093216 
L 351.523394 271.363738 
L 354.427195 269.720567 
L 357.330995 270.095057 
L 360.234796 271.726719 
L 368.946197 270.876336 
L 371.849998 271.211603 
L 374.753798 268.179765 
L 377.657599 266.488677 
L 380.5614 266.919879 
L 383.4652 271.404695 
L 386.369001 268.163792 
L 389.272801 270.7269 
L 392.176602 272.0654 
L 395.080402 271.73802 
L 397.984203 267.263092 
L 400.888003 272.032778 
L 403.791804 270.762369 
L 406.695604 269.161644 
L 409.599405 272.667774 
L 412.503206 266.603304 
L 415.407006 270.576869 
L 418.310807 268.167558 
L 421.214607 267.574526 
L 424.118408 269.110639 
L 427.022208 265.995317 
L 429.926009 264.952525 
L 432.829809 260.792389 
L 435.73361 263.049886 
L 438.63741 269.890192 
L 441.541211 269.308454 
L 444.445012 258.592777 
L 447.348812 273.99006 
L 456.060214 273.99006 
L 458.964014 264.626848 
L 461.867815 273.99006 
L 464.771615 239.346174 
L 467.675416 245.709337 
L 470.579217 239.346174 
L 473.483017 194.804036 
L 476.386818 199.753162 
L 479.290618 183.614706 
L 482.194419 197.003647 
L 485.098219 273.99006 
L 949.706307 273.99006 
L 949.706307 273.99006 
" style="fill:none;stroke:#f45b5b;stroke-linecap:square;"/>
   </g>
   <g id="line2d_18">
    <path clip-path="url(#p5f1bfab5db)" d="M 81.469943 192.668722 
L 84.373744 201.755466 
L 87.277544 211.946207 
L 90.181345 225.109247 
L 93.085145 230.872419 
L 95.988946 235.99867 
L 98.892746 239.974603 
L 104.700348 250.589958 
L 107.604148 254.762757 
L 110.507949 257.765938 
L 116.31555 265.246868 
L 119.21935 268.319531 
L 122.123151 270.840195 
L 125.026951 272.886063 
L 127.930752 272.80114 
L 130.834552 273.39946 
L 133.738353 272.777979 
L 136.642154 273.256635 
L 139.545954 273.175573 
L 142.449755 273.260496 
L 148.257356 273.148552 
L 151.161156 272.970986 
L 154.064957 273.225754 
L 156.968757 273.179433 
L 159.872558 272.700777 
L 162.776359 273.39946 
L 165.680159 272.982555 
L 168.58396 273.360841 
L 171.48776 273.136948 
L 174.391561 273.380139 
L 180.199162 272.7895 
L 183.102962 273.163937 
L 188.910563 272.812032 
L 191.814364 272.776898 
L 194.718165 272.413212 
L 197.621965 272.603327 
L 200.525766 272.580471 
L 203.429566 272.072183 
L 206.333367 272.003468 
L 209.237167 272.335158 
L 212.140968 272.530023 
L 215.044768 271.849115 
L 217.948569 271.752559 
L 220.852369 272.381171 
L 226.659971 271.897505 
L 229.563771 272.656034 
L 235.371372 272.33993 
L 238.275173 272.169891 
L 241.178973 272.244698 
L 244.082774 272.495867 
L 246.986574 272.502164 
L 249.890375 271.990234 
L 255.697976 272.137629 
L 258.601777 271.734044 
L 261.505577 272.234486 
L 264.409378 272.369678 
L 267.313178 271.117371 
L 270.216979 271.751937 
L 273.120779 271.890943 
L 276.02458 271.013174 
L 278.92838 271.510667 
L 281.832181 271.786513 
L 284.735981 272.639818 
L 287.639782 271.716303 
L 290.543583 271.417521 
L 293.447383 271.515413 
L 296.351184 271.376877 
L 299.254984 271.81076 
L 302.158785 270.951123 
L 305.062585 272.673365 
L 307.966386 271.534561 
L 310.870186 272.259308 
L 313.773987 272.143393 
L 316.677788 271.867782 
L 319.581588 270.718876 
L 322.485389 272.159472 
L 325.389189 270.356086 
L 328.29299 271.28295 
L 331.19679 271.514926 
L 334.100591 270.919034 
L 337.004391 270.038864 
L 339.908192 271.801419 
L 342.811992 271.407586 
L 345.715793 270.216532 
L 348.619594 271.579771 
L 351.523394 271.795094 
L 354.427195 272.161887 
L 357.330995 269.384691 
L 360.234796 268.268097 
L 363.138596 270.70061 
L 366.042397 268.852558 
L 368.946197 271.581447 
L 371.849998 268.759 
L 374.753798 271.710857 
L 377.657599 270.511758 
L 380.5614 271.533047 
L 383.4652 269.984987 
L 386.369001 272.815691 
L 389.272801 269.969493 
L 392.176602 270.826235 
L 395.080402 272.166698 
L 397.984203 263.4279 
L 400.888003 271.541729 
L 403.791804 262.859494 
L 406.695604 270.910603 
L 409.599405 267.026465 
L 412.503206 261.904984 
L 415.407006 273.99006 
L 418.310807 273.99006 
L 421.214607 268.402336 
L 424.118408 267.574526 
L 427.022208 266.45878 
L 429.926009 273.99006 
L 435.73361 273.99006 
L 438.63741 262.814613 
L 441.541211 261.617244 
L 444.445012 273.99006 
L 450.252613 273.99006 
L 453.156413 236.537211 
L 456.060214 273.99006 
L 467.675416 273.99006 
L 470.579217 233.232547 
L 473.483017 187.380346 
L 476.386818 273.99006 
L 949.706307 273.99006 
L 949.706307 273.99006 
" style="fill:none;stroke:#91e8e1;stroke-linecap:square;"/>
   </g>
   <g id="line2d_19">
    <path clip-path="url(#p5f1bfab5db)" d="M 81.469943 196.301033 
L 84.373744 202.555974 
L 87.277544 214.423117 
L 90.181345 224.605031 
L 93.085145 230.221153 
L 95.988946 234.604706 
L 98.892746 240.985059 
L 101.796547 244.569108 
L 104.700348 251.308062 
L 110.507949 258.485959 
L 116.31555 265.78339 
L 119.21935 268.424887 
L 122.123151 271.301533 
L 125.026951 273.190556 
L 130.834552 273.086699 
L 133.738353 273.361039 
L 136.642154 273.031831 
L 139.545954 273.241505 
L 148.257356 273.21799 
L 151.161156 272.973044 
L 154.064957 273.180758 
L 159.872558 273.045548 
L 165.680159 273.233667 
L 171.48776 273.261095 
L 174.391561 273.33359 
L 180.199162 272.761362 
L 186.006763 273.143424 
L 188.910563 273.137286 
L 191.814364 272.909476 
L 194.718165 272.475547 
L 200.525766 272.581275 
L 203.429566 272.313166 
L 212.140968 272.514065 
L 215.044768 272.284808 
L 220.852369 272.154843 
L 223.75617 272.584635 
L 226.659971 272.21989 
L 229.563771 272.661998 
L 232.467572 272.532743 
L 235.371372 272.036197 
L 238.275173 272.514116 
L 241.178973 272.440668 
L 244.082774 271.945248 
L 246.986574 272.271913 
L 249.890375 272.128153 
L 252.794175 272.195967 
L 255.697976 271.999164 
L 258.601777 271.356945 
L 261.505577 272.179434 
L 264.409378 271.738828 
L 267.313178 271.947516 
L 270.216979 271.643223 
L 273.120779 271.634335 
L 281.832181 271.947053 
L 284.735981 271.389962 
L 287.639782 271.831367 
L 290.543583 271.673125 
L 293.447383 271.367924 
L 296.351184 271.954603 
L 299.254984 272.209532 
L 302.158785 272.068719 
L 310.870186 271.021733 
L 313.773987 270.398286 
L 316.677788 270.876389 
L 319.581588 271.523328 
L 322.485389 271.846066 
L 325.389189 271.018708 
L 328.29299 271.663536 
L 331.19679 271.900062 
L 334.100591 271.57791 
L 337.004391 270.751031 
L 339.908192 271.083486 
L 342.811992 270.582693 
L 345.715793 270.628094 
L 348.619594 271.424829 
L 351.523394 271.548917 
L 354.427195 270.801798 
L 357.330995 269.292584 
L 360.234796 271.020796 
L 363.138596 269.068812 
L 366.042397 270.740702 
L 368.946197 270.66956 
L 371.849998 272.161197 
L 374.753798 271.475077 
L 377.657599 266.55575 
L 380.5614 269.005328 
L 383.4652 271.802601 
L 386.369001 270.626576 
L 389.272801 269.139108 
L 392.176602 273.99006 
L 395.080402 272.861595 
L 397.984203 268.82896 
L 400.888003 271.054137 
L 403.791804 270.782293 
L 406.695604 266.973577 
L 409.599405 268.199996 
L 412.503206 271.890431 
L 415.407006 271.695763 
L 418.310807 268.987333 
L 421.214607 268.53433 
L 424.118408 270.826235 
L 427.022208 270.559972 
L 429.926009 273.99006 
L 432.829809 273.99006 
L 435.73361 264.689688 
L 438.63741 273.99006 
L 441.541211 268.118215 
L 444.445012 273.99006 
L 447.348812 273.99006 
L 450.252613 266.204917 
L 453.156413 273.99006 
L 456.060214 273.99006 
L 458.964014 253.611304 
L 461.867815 273.99006 
L 464.771615 273.99006 
L 467.675416 258.927501 
L 470.579217 242.495618 
L 473.483017 194.804036 
L 476.386818 227.798212 
L 479.290618 183.614706 
L 482.194419 204.702289 
L 485.098219 273.99006 
L 949.706307 273.99006 
L 949.706307 273.99006 
" style="fill:none;stroke:#7cb5ec;stroke-linecap:square;"/>
   </g>
   <g id="line2d_20">
    <path clip-path="url(#p5f1bfab5db)" d="M 38.058125 273.99006 
L 993.118125 273.99006 
" style="fill:none;stroke:#dedede;stroke-linecap:square;stroke-width:2;"/>
   </g>
   <g id="text_18">
    <!-- Slamdunk: Non-T&gt;C mismatches over reads -->
    <defs>
     <path d="M 53.515625 70.515625 
L 53.515625 60.890625 
Q 47.90625 63.578125 42.921875 64.890625 
Q 37.9375 66.21875 33.296875 66.21875 
Q 25.25 66.21875 20.875 63.09375 
Q 16.5 59.96875 16.5 54.203125 
Q 16.5 49.359375 19.40625 46.890625 
Q 22.3125 44.4375 30.421875 42.921875 
L 36.375 41.703125 
Q 47.40625 39.59375 52.65625 34.296875 
Q 57.90625 29 57.90625 20.125 
Q 57.90625 9.515625 50.796875 4.046875 
Q 43.703125 -1.421875 29.984375 -1.421875 
Q 24.8125 -1.421875 18.96875 -0.25 
Q 13.140625 0.921875 6.890625 3.21875 
L 6.890625 13.375 
Q 12.890625 10.015625 18.65625 8.296875 
Q 24.421875 6.59375 29.984375 6.59375 
Q 38.421875 6.59375 43.015625 9.90625 
Q 47.609375 13.234375 47.609375 19.390625 
Q 47.609375 24.75 44.3125 27.78125 
Q 41.015625 30.8125 33.5 32.328125 
L 27.484375 33.5 
Q 16.453125 35.6875 11.515625 40.375 
Q 6.59375 45.0625 6.59375 53.421875 
Q 6.59375 63.09375 13.40625 68.65625 
Q 20.21875 74.21875 32.171875 74.21875 
Q 37.3125 74.21875 42.625 73.28125 
Q 47.953125 72.359375 53.515625 70.515625 
z
" id="DejaVuSans-83"/>
     <path d="M 9.421875 75.984375 
L 18.40625 75.984375 
L 18.40625 0 
L 9.421875 0 
z
" id="DejaVuSans-108"/>
     <path d="M 8.5 21.578125 
L 8.5 54.6875 
L 17.484375 54.6875 
L 17.484375 21.921875 
Q 17.484375 14.15625 20.5 10.265625 
Q 23.53125 6.390625 29.59375 6.390625 
Q 36.859375 6.390625 41.078125 11.03125 
Q 45.3125 15.671875 45.3125 23.6875 
L 45.3125 54.6875 
L 54.296875 54.6875 
L 54.296875 0 
L 45.3125 0 
L 45.3125 8.40625 
Q 42.046875 3.421875 37.71875 1 
Q 33.40625 -1.421875 27.6875 -1.421875 
Q 18.265625 -1.421875 13.375 4.4375 
Q 8.5 10.296875 8.5 21.578125 
z
M 31.109375 56 
z
" id="DejaVuSans-117"/>
     <path d="M 9.078125 75.984375 
L 18.109375 75.984375 
L 18.109375 31.109375 
L 44.921875 54.6875 
L 56.390625 54.6875 
L 27.390625 29.109375 
L 57.625 0 
L 45.90625 0 
L 18.109375 26.703125 
L 18.109375 0 
L 9.078125 0 
z
" id="DejaVuSans-107"/>
     <path d="M 11.71875 12.40625 
L 22.015625 12.40625 
L 22.015625 0 
L 11.71875 0 
z
M 11.71875 51.703125 
L 22.015625 51.703125 
L 22.015625 39.3125 
L 11.71875 39.3125 
z
" id="DejaVuSans-58"/>
     <path d="M 9.8125 72.90625 
L 23.09375 72.90625 
L 55.421875 11.921875 
L 55.421875 72.90625 
L 64.984375 72.90625 
L 64.984375 0 
L 51.703125 0 
L 19.390625 60.984375 
L 19.390625 0 
L 9.8125 0 
z
" id="DejaVuSans-78"/>
     <path d="M 4.890625 31.390625 
L 31.203125 31.390625 
L 31.203125 23.390625 
L 4.890625 23.390625 
z
" id="DejaVuSans-45"/>
     <path d="M -0.296875 72.90625 
L 61.375 72.90625 
L 61.375 64.59375 
L 35.5 64.59375 
L 35.5 0 
L 25.59375 0 
L 25.59375 64.59375 
L -0.296875 64.59375 
z
" id="DejaVuSans-84"/>
     <path d="M 10.59375 49.21875 
L 10.59375 58.109375 
L 73.1875 35.40625 
L 73.1875 27.296875 
L 10.59375 4.59375 
L 10.59375 13.484375 
L 60.890625 31.296875 
z
" id="DejaVuSans-62"/>
     <path d="M 64.40625 67.28125 
L 64.40625 56.890625 
Q 59.421875 61.53125 53.78125 63.8125 
Q 48.140625 66.109375 41.796875 66.109375 
Q 29.296875 66.109375 22.65625 58.46875 
Q 16.015625 50.828125 16.015625 36.375 
Q 16.015625 21.96875 22.65625 14.328125 
Q 29.296875 6.6875 41.796875 6.6875 
Q 48.140625 6.6875 53.78125 8.984375 
Q 59.421875 11.28125 64.40625 15.921875 
L 64.40625 5.609375 
Q 59.234375 2.09375 53.4375 0.328125 
Q 47.65625 -1.421875 41.21875 -1.421875 
Q 24.65625 -1.421875 15.125 8.703125 
Q 5.609375 18.84375 5.609375 36.375 
Q 5.609375 53.953125 15.125 64.078125 
Q 24.65625 74.21875 41.21875 74.21875 
Q 47.75 74.21875 53.53125 72.484375 
Q 59.328125 70.75 64.40625 67.28125 
z
" id="DejaVuSans-67"/>
     <path d="M 2.984375 54.6875 
L 12.5 54.6875 
L 29.59375 8.796875 
L 46.6875 54.6875 
L 56.203125 54.6875 
L 35.6875 0 
L 23.484375 0 
z
" id="DejaVuSans-118"/>
    </defs>
    <g transform="translate(338.103125 19.3575)scale(0.16 -0.16)">
     <use xlink:href="#DejaVuSans-83"/>
     <use x="63.476562" xlink:href="#DejaVuSans-108"/>
     <use x="91.259766" xlink:href="#DejaVuSans-97"/>
     <use x="152.539062" xlink:href="#DejaVuSans-109"/>
     <use x="249.951172" xlink:href="#DejaVuSans-100"/>
     <use x="313.427734" xlink:href="#DejaVuSans-117"/>
     <use x="376.806641" xlink:href="#DejaVuSans-110"/>
     <use x="440.185547" xlink:href="#DejaVuSans-107"/>
     <use x="498.095703" xlink:href="#DejaVuSans-58"/>
     <use x="531.787109" xlink:href="#DejaVuSans-32"/>
     <use x="563.574219" xlink:href="#DejaVuSans-78"/>
     <use x="638.378906" xlink:href="#DejaVuSans-111"/>
     <use x="699.560547" xlink:href="#DejaVuSans-110"/>
     <use x="762.939453" xlink:href="#DejaVuSans-45"/>
     <use x="798.882812" xlink:href="#DejaVuSans-84"/>
     <use x="859.966797" xlink:href="#DejaVuSans-62"/>
     <use x="943.755859" xlink:href="#DejaVuSans-67"/>
     <use x="1013.580078" xlink:href="#DejaVuSans-32"/>
     <use x="1045.367188" xlink:href="#DejaVuSans-109"/>
     <use x="1142.779297" xlink:href="#DejaVuSans-105"/>
     <use x="1170.5625" xlink:href="#DejaVuSans-115"/>
     <use x="1222.662109" xlink:href="#DejaVuSans-109"/>
     <use x="1320.074219" xlink:href="#DejaVuSans-97"/>
     <use x="1381.353516" xlink:href="#DejaVuSans-116"/>
     <use x="1420.5625" xlink:href="#DejaVuSans-99"/>
     <use x="1475.542969" xlink:href="#DejaVuSans-104"/>
     <use x="1538.921875" xlink:href="#DejaVuSans-101"/>
     <use x="1600.445312" xlink:href="#DejaVuSans-115"/>
     <use x="1652.544922" xlink:href="#DejaVuSans-32"/>
     <use x="1684.332031" xlink:href="#DejaVuSans-111"/>
     <use x="1745.513672" xlink:href="#DejaVuSans-118"/>
     <use x="1804.693359" xlink:href="#DejaVuSans-101"/>
     <use x="1866.216797" xlink:href="#DejaVuSans-114"/>
     <use x="1907.330078" xlink:href="#DejaVuSans-32"/>
     <use x="1939.117188" xlink:href="#DejaVuSans-114"/>
     <use x="1980.199219" xlink:href="#DejaVuSans-101"/>
     <use x="2041.722656" xlink:href="#DejaVuSans-97"/>
     <use x="2103.001953" xlink:href="#DejaVuSans-100"/>
     <use x="2166.478516" xlink:href="#DejaVuSans-115"/>
    </g>
   </g>
   <g id="legend_1">
    <g id="line2d_21">
     <path d="M 45.258125 291.525394 
L 61.258125 291.525394 
" style="fill:none;stroke:#7cb5ec;stroke-linecap:square;"/>
    </g>
    <g id="line2d_22"/>
    <g id="text_19">
     <!-- RT_Gad2_1 -->
     <defs>
      <path d="M 44.390625 34.1875 
Q 47.5625 33.109375 50.5625 29.59375 
Q 53.5625 26.078125 56.59375 19.921875 
L 66.609375 0 
L 56 0 
L 46.6875 18.703125 
Q 43.0625 26.03125 39.671875 28.421875 
Q 36.28125 30.8125 30.421875 30.8125 
L 19.671875 30.8125 
L 19.671875 0 
L 9.8125 0 
L 9.8125 72.90625 
L 32.078125 72.90625 
Q 44.578125 72.90625 50.734375 67.671875 
Q 56.890625 62.453125 56.890625 51.90625 
Q 56.890625 45.015625 53.6875 40.46875 
Q 50.484375 35.9375 44.390625 34.1875 
z
M 19.671875 64.796875 
L 19.671875 38.921875 
L 32.078125 38.921875 
Q 39.203125 38.921875 42.84375 42.21875 
Q 46.484375 45.515625 46.484375 51.90625 
Q 46.484375 58.296875 42.84375 61.546875 
Q 39.203125 64.796875 32.078125 64.796875 
z
" id="DejaVuSans-82"/>
      <path d="M 50.984375 -16.609375 
L 50.984375 -23.578125 
L -0.984375 -23.578125 
L -0.984375 -16.609375 
z
" id="DejaVuSans-95"/>
      <path d="M 59.515625 10.40625 
L 59.515625 29.984375 
L 43.40625 29.984375 
L 43.40625 38.09375 
L 69.28125 38.09375 
L 69.28125 6.78125 
Q 63.578125 2.734375 56.6875 0.65625 
Q 49.8125 -1.421875 42 -1.421875 
Q 24.90625 -1.421875 15.25 8.5625 
Q 5.609375 18.5625 5.609375 36.375 
Q 5.609375 54.25 15.25 64.234375 
Q 24.90625 74.21875 42 74.21875 
Q 49.125 74.21875 55.546875 72.453125 
Q 61.96875 70.703125 67.390625 67.28125 
L 67.390625 56.78125 
Q 61.921875 61.421875 55.765625 63.765625 
Q 49.609375 66.109375 42.828125 66.109375 
Q 29.4375 66.109375 22.71875 58.640625 
Q 16.015625 51.171875 16.015625 36.375 
Q 16.015625 21.625 22.71875 14.15625 
Q 29.4375 6.6875 42.828125 6.6875 
Q 48.046875 6.6875 52.140625 7.59375 
Q 56.25 8.5 59.515625 10.40625 
z
" id="DejaVuSans-71"/>
     </defs>
     <g transform="translate(67.658125 294.325394)scale(0.08 -0.08)">
      <use xlink:href="#DejaVuSans-82"/>
      <use x="69.373047" xlink:href="#DejaVuSans-84"/>
      <use x="130.457031" xlink:href="#DejaVuSans-95"/>
      <use x="180.457031" xlink:href="#DejaVuSans-71"/>
      <use x="257.947266" xlink:href="#DejaVuSans-97"/>
      <use x="319.226562" xlink:href="#DejaVuSans-100"/>
      <use x="382.703125" xlink:href="#DejaVuSans-50"/>
      <use x="446.326172" xlink:href="#DejaVuSans-95"/>
      <use x="496.326172" xlink:href="#DejaVuSans-49"/>
     </g>
    </g>
    <g id="line2d_23">
     <path d="M 45.258125 303.490394 
L 61.258125 303.490394 
" style="fill:none;stroke:#434348;stroke-linecap:square;"/>
    </g>
    <g id="line2d_24"/>
    <g id="text_20">
     <!-- RT_Gad2_2 -->
     <g transform="translate(67.658125 306.290394)scale(0.08 -0.08)">
      <use xlink:href="#DejaVuSans-82"/>
      <use x="69.373047" xlink:href="#DejaVuSans-84"/>
      <use x="130.457031" xlink:href="#DejaVuSans-95"/>
      <use x="180.457031" xlink:href="#DejaVuSans-71"/>
      <use x="257.947266" xlink:href="#DejaVuSans-97"/>
      <use x="319.226562" xlink:href="#DejaVuSans-100"/>
      <use x="382.703125" xlink:href="#DejaVuSans-50"/>
      <use x="446.326172" xlink:href="#DejaVuSans-95"/>
      <use x="496.326172" xlink:href="#DejaVuSans-50"/>
     </g>
    </g>
    <g id="line2d_25">
     <path d="M 45.258125 315.455394 
L 61.258125 315.455394 
" style="fill:none;stroke:#90ed7d;stroke-linecap:square;"/>
    </g>
    <g id="line2d_26"/>
    <g id="text_21">
     <!-- RT_Gad2_3 -->
     <g transform="translate(67.658125 318.255394)scale(0.08 -0.08)">
      <use xlink:href="#DejaVuSans-82"/>
      <use x="69.373047" xlink:href="#DejaVuSans-84"/>
      <use x="130.457031" xlink:href="#DejaVuSans-95"/>
      <use x="180.457031" xlink:href="#DejaVuSans-71"/>
      <use x="257.947266" xlink:href="#DejaVuSans-97"/>
      <use x="319.226562" xlink:href="#DejaVuSans-100"/>
      <use x="382.703125" xlink:href="#DejaVuSans-50"/>
      <use x="446.326172" xlink:href="#DejaVuSans-95"/>
      <use x="496.326172" xlink:href="#DejaVuSans-51"/>
     </g>
    </g>
    <g id="line2d_27">
     <path d="M 258.625313 291.525394 
L 274.625313 291.525394 
" style="fill:none;stroke:#f7a35c;stroke-linecap:square;"/>
    </g>
    <g id="line2d_28"/>
    <g id="text_22">
     <!-- RT_vGluT2_1 -->
     <g transform="translate(281.025313 294.325394)scale(0.08 -0.08)">
      <use xlink:href="#DejaVuSans-82"/>
      <use x="69.373047" xlink:href="#DejaVuSans-84"/>
      <use x="130.457031" xlink:href="#DejaVuSans-95"/>
      <use x="180.457031" xlink:href="#DejaVuSans-118"/>
      <use x="239.636719" xlink:href="#DejaVuSans-71"/>
      <use x="317.126953" xlink:href="#DejaVuSans-108"/>
      <use x="344.910156" xlink:href="#DejaVuSans-117"/>
      <use x="408.289062" xlink:href="#DejaVuSans-84"/>
      <use x="469.373047" xlink:href="#DejaVuSans-50"/>
      <use x="532.996094" xlink:href="#DejaVuSans-95"/>
      <use x="582.996094" xlink:href="#DejaVuSans-49"/>
     </g>
    </g>
    <g id="line2d_29">
     <path d="M 258.625313 303.490394 
L 274.625313 303.490394 
" style="fill:none;stroke:#8085e9;stroke-linecap:square;"/>
    </g>
    <g id="line2d_30"/>
    <g id="text_23">
     <!-- RT_vGluT2_3 -->
     <g transform="translate(281.025313 306.290394)scale(0.08 -0.08)">
      <use xlink:href="#DejaVuSans-82"/>
      <use x="69.373047" xlink:href="#DejaVuSans-84"/>
      <use x="130.457031" xlink:href="#DejaVuSans-95"/>
      <use x="180.457031" xlink:href="#DejaVuSans-118"/>
      <use x="239.636719" xlink:href="#DejaVuSans-71"/>
      <use x="317.126953" xlink:href="#DejaVuSans-108"/>
      <use x="344.910156" xlink:href="#DejaVuSans-117"/>
      <use x="408.289062" xlink:href="#DejaVuSans-84"/>
      <use x="469.373047" xlink:href="#DejaVuSans-50"/>
      <use x="532.996094" xlink:href="#DejaVuSans-95"/>
      <use x="582.996094" xlink:href="#DejaVuSans-51"/>
     </g>
    </g>
    <g id="line2d_31">
     <path d="M 478.925 291.525394 
L 494.925 291.525394 
" style="fill:none;stroke:#f15c80;stroke-linecap:square;"/>
    </g>
    <g id="line2d_32"/>
    <g id="text_24">
     <!-- S1_Gad2_1 -->
     <g transform="translate(501.325 294.325394)scale(0.08 -0.08)">
      <use xlink:href="#DejaVuSans-83"/>
      <use x="63.476562" xlink:href="#DejaVuSans-49"/>
      <use x="127.099609" xlink:href="#DejaVuSans-95"/>
      <use x="177.099609" xlink:href="#DejaVuSans-71"/>
      <use x="254.589844" xlink:href="#DejaVuSans-97"/>
      <use x="315.869141" xlink:href="#DejaVuSans-100"/>
      <use x="379.345703" xlink:href="#DejaVuSans-50"/>
      <use x="442.96875" xlink:href="#DejaVuSans-95"/>
      <use x="492.96875" xlink:href="#DejaVuSans-49"/>
     </g>
    </g>
    <g id="line2d_33">
     <path d="M 478.925 303.490394 
L 494.925 303.490394 
" style="fill:none;stroke:#e4d354;stroke-linecap:square;"/>
    </g>
    <g id="line2d_34"/>
    <g id="text_25">
     <!-- S1_Gad2_2 -->
     <g transform="translate(501.325 306.290394)scale(0.08 -0.08)">
      <use xlink:href="#DejaVuSans-83"/>
      <use x="63.476562" xlink:href="#DejaVuSans-49"/>
      <use x="127.099609" xlink:href="#DejaVuSans-95"/>
      <use x="177.099609" xlink:href="#DejaVuSans-71"/>
      <use x="254.589844" xlink:href="#DejaVuSans-97"/>
      <use x="315.869141" xlink:href="#DejaVuSans-100"/>
      <use x="379.345703" xlink:href="#DejaVuSans-50"/>
      <use x="442.96875" xlink:href="#DejaVuSans-95"/>
      <use x="492.96875" xlink:href="#DejaVuSans-50"/>
     </g>
    </g>
    <g id="line2d_35">
     <path d="M 692.024688 291.525394 
L 708.024688 291.525394 
" style="fill:none;stroke:#2b908f;stroke-linecap:square;"/>
    </g>
    <g id="line2d_36"/>
    <g id="text_26">
     <!-- S1_Gad2_3 -->
     <g transform="translate(714.424688 294.325394)scale(0.08 -0.08)">
      <use xlink:href="#DejaVuSans-83"/>
      <use x="63.476562" xlink:href="#DejaVuSans-49"/>
      <use x="127.099609" xlink:href="#DejaVuSans-95"/>
      <use x="177.099609" xlink:href="#DejaVuSans-71"/>
      <use x="254.589844" xlink:href="#DejaVuSans-97"/>
      <use x="315.869141" xlink:href="#DejaVuSans-100"/>
      <use x="379.345703" xlink:href="#DejaVuSans-50"/>
      <use x="442.96875" xlink:href="#DejaVuSans-95"/>
      <use x="492.96875" xlink:href="#DejaVuSans-51"/>
     </g>
    </g>
    <g id="line2d_37">
     <path d="M 692.024688 303.490394 
L 708.024688 303.490394 
" style="fill:none;stroke:#f45b5b;stroke-linecap:square;"/>
    </g>
    <g id="line2d_38"/>
    <g id="text_27">
     <!-- S1_vGluT2_1 -->
     <g transform="translate(714.424688 306.290394)scale(0.08 -0.08)">
      <use xlink:href="#DejaVuSans-83"/>
      <use x="63.476562" xlink:href="#DejaVuSans-49"/>
      <use x="127.099609" xlink:href="#DejaVuSans-95"/>
      <use x="177.099609" xlink:href="#DejaVuSans-118"/>
      <use x="236.279297" xlink:href="#DejaVuSans-71"/>
      <use x="313.769531" xlink:href="#DejaVuSans-108"/>
      <use x="341.552734" xlink:href="#DejaVuSans-117"/>
      <use x="404.931641" xlink:href="#DejaVuSans-84"/>
      <use x="466.015625" xlink:href="#DejaVuSans-50"/>
      <use x="529.638672" xlink:href="#DejaVuSans-95"/>
      <use x="579.638672" xlink:href="#DejaVuSans-49"/>
     </g>
    </g>
    <g id="line2d_39">
     <path d="M 912.056875 291.525394 
L 928.056875 291.525394 
" style="fill:none;stroke:#91e8e1;stroke-linecap:square;"/>
    </g>
    <g id="line2d_40"/>
    <g id="text_28">
     <!-- S1_vGluT2_2 -->
     <g transform="translate(934.456875 294.325394)scale(0.08 -0.08)">
      <use xlink:href="#DejaVuSans-83"/>
      <use x="63.476562" xlink:href="#DejaVuSans-49"/>
      <use x="127.099609" xlink:href="#DejaVuSans-95"/>
      <use x="177.099609" xlink:href="#DejaVuSans-118"/>
      <use x="236.279297" xlink:href="#DejaVuSans-71"/>
      <use x="313.769531" xlink:href="#DejaVuSans-108"/>
      <use x="341.552734" xlink:href="#DejaVuSans-117"/>
      <use x="404.931641" xlink:href="#DejaVuSans-84"/>
      <use x="466.015625" xlink:href="#DejaVuSans-50"/>
      <use x="529.638672" xlink:href="#DejaVuSans-95"/>
      <use x="579.638672" xlink:href="#DejaVuSans-50"/>
     </g>
    </g>
    <g id="line2d_41">
     <path d="M 912.056875 303.490394 
L 928.056875 303.490394 
" style="fill:none;stroke:#7cb5ec;stroke-linecap:square;"/>
    </g>
    <g id="line2d_42"/>
    <g id="text_29">
     <!-- S1_vGluT2_3 -->
     <g transform="translate(934.456875 306.290394)scale(0.08 -0.08)">
      <use xlink:href="#DejaVuSans-83"/>
      <use x="63.476562" xlink:href="#DejaVuSans-49"/>
      <use x="127.099609" xlink:href="#DejaVuSans-95"/>
      <use x="177.099609" xlink:href="#DejaVuSans-118"/>
      <use x="236.279297" xlink:href="#DejaVuSans-71"/>
      <use x="313.769531" xlink:href="#DejaVuSans-108"/>
      <use x="341.552734" xlink:href="#DejaVuSans-117"/>
      <use x="404.931641" xlink:href="#DejaVuSans-84"/>
      <use x="466.015625" xlink:href="#DejaVuSans-50"/>
      <use x="529.638672" xlink:href="#DejaVuSans-95"/>
      <use x="579.638672" xlink:href="#DejaVuSans-51"/>
     </g>
    </g>
   </g>
  </g>
 </g>
 <defs>
  <clipPath id="p5f1bfab5db">
   <rect height="242.5072" width="955.06" x="38.058125" y="31.48286"/>
  </clipPath>
 </defs>
</svg>
