<?xml version="1.0" encoding="utf-8" standalone="no"?>
<!DOCTYPE svg PUBLIC "-//W3C//DTD SVG 1.1//EN"
  "http://www.w3.org/Graphics/SVG/1.1/DTD/svg11.dtd">
<!-- Created with matplotlib (https://matplotlib.org/) -->
<svg height="330.541644pt" version="1.1" viewBox="0 0 1000.098125 330.541644" width="1000.098125pt" xmlns="http://www.w3.org/2000/svg" xmlns:xlink="http://www.w3.org/1999/xlink">
 <defs>
  <style type="text/css">
*{stroke-linecap:butt;stroke-linejoin:round;}
  </style>
 </defs>
 <g id="figure_1">
  <g id="axes_1">
   <g id="patch_1">
    <path d="M 58.418125 273.99006 
L 985.263125 273.99006 
L 985.263125 31.48286 
L 58.418125 31.48286 
z
" style="fill:#ffffff;"/>
   </g>
   <g id="matplotlib.axis_1">
    <g id="xtick_1">
     <g id="text_1">
      <!-- 0 -->
      <defs>
       <path d="M 31.78125 66.40625 
Q 24.171875 66.40625 20.328125 58.90625 
Q 16.5 51.421875 16.5 36.375 
Q 16.5 21.390625 20.328125 13.890625 
Q 24.171875 6.390625 31.78125 6.390625 
Q 39.453125 6.390625 43.28125 13.890625 
Q 47.125 21.390625 47.125 36.375 
Q 47.125 51.421875 43.28125 58.90625 
Q 39.453125 66.40625 31.78125 66.40625 
z
M 31.78125 74.21875 
Q 44.046875 74.21875 50.515625 64.515625 
Q 56.984375 54.828125 56.984375 36.375 
Q 56.984375 17.96875 50.515625 8.265625 
Q 44.046875 -1.421875 31.78125 -1.421875 
Q 19.53125 -1.421875 13.0625 8.265625 
Q 6.59375 17.96875 6.59375 36.375 
Q 6.59375 54.828125 13.0625 64.515625 
Q 19.53125 74.21875 31.78125 74.21875 
z
" id="DejaVuSans-48"/>
      </defs>
      <g transform="translate(55.873125 287.06881)scale(0.08 -0.08)">
       <use xlink:href="#DejaVuSans-48"/>
      </g>
     </g>
    </g>
    <g id="xtick_2">
     <g id="text_2">
      <!-- 20 -->
      <defs>
       <path d="M 19.1875 8.296875 
L 53.609375 8.296875 
L 53.609375 0 
L 7.328125 0 
L 7.328125 8.296875 
Q 12.9375 14.109375 22.625 23.890625 
Q 32.328125 33.6875 34.8125 36.53125 
Q 39.546875 41.84375 41.421875 45.53125 
Q 43.3125 49.21875 43.3125 52.78125 
Q 43.3125 58.59375 39.234375 62.25 
Q 35.15625 65.921875 28.609375 65.921875 
Q 23.96875 65.921875 18.8125 64.3125 
Q 13.671875 62.703125 7.8125 59.421875 
L 7.8125 69.390625 
Q 13.765625 71.78125 18.9375 73 
Q 24.125 74.21875 28.421875 74.21875 
Q 39.75 74.21875 46.484375 68.546875 
Q 53.21875 62.890625 53.21875 53.421875 
Q 53.21875 48.921875 51.53125 44.890625 
Q 49.859375 40.875 45.40625 35.40625 
Q 44.1875 33.984375 37.640625 27.21875 
Q 31.109375 20.453125 19.1875 8.296875 
z
" id="DejaVuSans-50"/>
      </defs>
      <g transform="translate(238.697125 287.06881)scale(0.08 -0.08)">
       <use xlink:href="#DejaVuSans-50"/>
       <use x="63.623047" xlink:href="#DejaVuSans-48"/>
      </g>
     </g>
    </g>
    <g id="xtick_3">
     <g id="text_3">
      <!-- 40 -->
      <defs>
       <path d="M 37.796875 64.3125 
L 12.890625 25.390625 
L 37.796875 25.390625 
z
M 35.203125 72.90625 
L 47.609375 72.90625 
L 47.609375 25.390625 
L 58.015625 25.390625 
L 58.015625 17.1875 
L 47.609375 17.1875 
L 47.609375 0 
L 37.796875 0 
L 37.796875 17.1875 
L 4.890625 17.1875 
L 4.890625 26.703125 
z
" id="DejaVuSans-52"/>
      </defs>
      <g transform="translate(424.066125 287.06881)scale(0.08 -0.08)">
       <use xlink:href="#DejaVuSans-52"/>
       <use x="63.623047" xlink:href="#DejaVuSans-48"/>
      </g>
     </g>
    </g>
    <g id="xtick_4">
     <g id="text_4">
      <!-- 60 -->
      <defs>
       <path d="M 33.015625 40.375 
Q 26.375 40.375 22.484375 35.828125 
Q 18.609375 31.296875 18.609375 23.390625 
Q 18.609375 15.53125 22.484375 10.953125 
Q 26.375 6.390625 33.015625 6.390625 
Q 39.65625 6.390625 43.53125 10.953125 
Q 47.40625 15.53125 47.40625 23.390625 
Q 47.40625 31.296875 43.53125 35.828125 
Q 39.65625 40.375 33.015625 40.375 
z
M 52.59375 71.296875 
L 52.59375 62.3125 
Q 48.875 64.0625 45.09375 64.984375 
Q 41.3125 65.921875 37.59375 65.921875 
Q 27.828125 65.921875 22.671875 59.328125 
Q 17.53125 52.734375 16.796875 39.40625 
Q 19.671875 43.65625 24.015625 45.921875 
Q 28.375 48.1875 33.59375 48.1875 
Q 44.578125 48.1875 50.953125 41.515625 
Q 57.328125 34.859375 57.328125 23.390625 
Q 57.328125 12.15625 50.6875 5.359375 
Q 44.046875 -1.421875 33.015625 -1.421875 
Q 20.359375 -1.421875 13.671875 8.265625 
Q 6.984375 17.96875 6.984375 36.375 
Q 6.984375 53.65625 15.1875 63.9375 
Q 23.390625 74.21875 37.203125 74.21875 
Q 40.921875 74.21875 44.703125 73.484375 
Q 48.484375 72.75 52.59375 71.296875 
z
" id="DejaVuSans-54"/>
      </defs>
      <g transform="translate(609.435125 287.06881)scale(0.08 -0.08)">
       <use xlink:href="#DejaVuSans-54"/>
       <use x="63.623047" xlink:href="#DejaVuSans-48"/>
      </g>
     </g>
    </g>
    <g id="xtick_5">
     <g id="text_5">
      <!-- 80 -->
      <defs>
       <path d="M 31.78125 34.625 
Q 24.75 34.625 20.71875 30.859375 
Q 16.703125 27.09375 16.703125 20.515625 
Q 16.703125 13.921875 20.71875 10.15625 
Q 24.75 6.390625 31.78125 6.390625 
Q 38.8125 6.390625 42.859375 10.171875 
Q 46.921875 13.96875 46.921875 20.515625 
Q 46.921875 27.09375 42.890625 30.859375 
Q 38.875 34.625 31.78125 34.625 
z
M 21.921875 38.8125 
Q 15.578125 40.375 12.03125 44.71875 
Q 8.5 49.078125 8.5 55.328125 
Q 8.5 64.0625 14.71875 69.140625 
Q 20.953125 74.21875 31.78125 74.21875 
Q 42.671875 74.21875 48.875 69.140625 
Q 55.078125 64.0625 55.078125 55.328125 
Q 55.078125 49.078125 51.53125 44.71875 
Q 48 40.375 41.703125 38.8125 
Q 48.828125 37.15625 52.796875 32.3125 
Q 56.78125 27.484375 56.78125 20.515625 
Q 56.78125 9.90625 50.3125 4.234375 
Q 43.84375 -1.421875 31.78125 -1.421875 
Q 19.734375 -1.421875 13.25 4.234375 
Q 6.78125 9.90625 6.78125 20.515625 
Q 6.78125 27.484375 10.78125 32.3125 
Q 14.796875 37.15625 21.921875 38.8125 
z
M 18.3125 54.390625 
Q 18.3125 48.734375 21.84375 45.5625 
Q 25.390625 42.390625 31.78125 42.390625 
Q 38.140625 42.390625 41.71875 45.5625 
Q 45.3125 48.734375 45.3125 54.390625 
Q 45.3125 60.0625 41.71875 63.234375 
Q 38.140625 66.40625 31.78125 66.40625 
Q 25.390625 66.40625 21.84375 63.234375 
Q 18.3125 60.0625 18.3125 54.390625 
z
" id="DejaVuSans-56"/>
      </defs>
      <g transform="translate(794.804125 287.06881)scale(0.08 -0.08)">
       <use xlink:href="#DejaVuSans-56"/>
       <use x="63.623047" xlink:href="#DejaVuSans-48"/>
      </g>
     </g>
    </g>
    <g id="xtick_6">
     <g id="text_6">
      <!-- 100 -->
      <defs>
       <path d="M 12.40625 8.296875 
L 28.515625 8.296875 
L 28.515625 63.921875 
L 10.984375 60.40625 
L 10.984375 69.390625 
L 28.421875 72.90625 
L 38.28125 72.90625 
L 38.28125 8.296875 
L 54.390625 8.296875 
L 54.390625 0 
L 12.40625 0 
z
" id="DejaVuSans-49"/>
      </defs>
      <g transform="translate(977.628125 287.06881)scale(0.08 -0.08)">
       <use xlink:href="#DejaVuSans-49"/>
       <use x="63.623047" xlink:href="#DejaVuSans-48"/>
       <use x="127.246094" xlink:href="#DejaVuSans-48"/>
      </g>
     </g>
    </g>
    <g id="text_7">
     <!-- % GC -->
     <defs>
      <path d="M 72.703125 32.078125 
Q 68.453125 32.078125 66.03125 28.46875 
Q 63.625 24.859375 63.625 18.40625 
Q 63.625 12.0625 66.03125 8.421875 
Q 68.453125 4.78125 72.703125 4.78125 
Q 76.859375 4.78125 79.265625 8.421875 
Q 81.6875 12.0625 81.6875 18.40625 
Q 81.6875 24.8125 79.265625 28.4375 
Q 76.859375 32.078125 72.703125 32.078125 
z
M 72.703125 38.28125 
Q 80.421875 38.28125 84.953125 32.90625 
Q 89.5 27.546875 89.5 18.40625 
Q 89.5 9.28125 84.9375 3.921875 
Q 80.375 -1.421875 72.703125 -1.421875 
Q 64.890625 -1.421875 60.34375 3.921875 
Q 55.8125 9.28125 55.8125 18.40625 
Q 55.8125 27.59375 60.375 32.9375 
Q 64.9375 38.28125 72.703125 38.28125 
z
M 22.3125 68.015625 
Q 18.109375 68.015625 15.6875 64.375 
Q 13.28125 60.75 13.28125 54.390625 
Q 13.28125 47.953125 15.671875 44.328125 
Q 18.0625 40.71875 22.3125 40.71875 
Q 26.5625 40.71875 28.96875 44.328125 
Q 31.390625 47.953125 31.390625 54.390625 
Q 31.390625 60.6875 28.953125 64.34375 
Q 26.515625 68.015625 22.3125 68.015625 
z
M 66.40625 74.21875 
L 74.21875 74.21875 
L 28.609375 -1.421875 
L 20.796875 -1.421875 
z
M 22.3125 74.21875 
Q 30.03125 74.21875 34.609375 68.875 
Q 39.203125 63.53125 39.203125 54.390625 
Q 39.203125 45.171875 34.640625 39.84375 
Q 30.078125 34.515625 22.3125 34.515625 
Q 14.546875 34.515625 10.03125 39.859375 
Q 5.515625 45.21875 5.515625 54.390625 
Q 5.515625 63.484375 10.046875 68.84375 
Q 14.59375 74.21875 22.3125 74.21875 
z
" id="DejaVuSans-37"/>
      <path id="DejaVuSans-32"/>
      <path d="M 59.515625 10.40625 
L 59.515625 29.984375 
L 43.40625 29.984375 
L 43.40625 38.09375 
L 69.28125 38.09375 
L 69.28125 6.78125 
Q 63.578125 2.734375 56.6875 0.65625 
Q 49.8125 -1.421875 42 -1.421875 
Q 24.90625 -1.421875 15.25 8.5625 
Q 5.609375 18.5625 5.609375 36.375 
Q 5.609375 54.25 15.25 64.234375 
Q 24.90625 74.21875 42 74.21875 
Q 49.125 74.21875 55.546875 72.453125 
Q 61.96875 70.703125 67.390625 67.28125 
L 67.390625 56.78125 
Q 61.921875 61.421875 55.765625 63.765625 
Q 49.609375 66.109375 42.828125 66.109375 
Q 29.4375 66.109375 22.71875 58.640625 
Q 16.015625 51.171875 16.015625 36.375 
Q 16.015625 21.625 22.71875 14.15625 
Q 29.4375 6.6875 42.828125 6.6875 
Q 48.046875 6.6875 52.140625 7.59375 
Q 56.25 8.5 59.515625 10.40625 
z
" id="DejaVuSans-71"/>
      <path d="M 64.40625 67.28125 
L 64.40625 56.890625 
Q 59.421875 61.53125 53.78125 63.8125 
Q 48.140625 66.109375 41.796875 66.109375 
Q 29.296875 66.109375 22.65625 58.46875 
Q 16.015625 50.828125 16.015625 36.375 
Q 16.015625 21.96875 22.65625 14.328125 
Q 29.296875 6.6875 41.796875 6.6875 
Q 48.140625 6.6875 53.78125 8.984375 
Q 59.421875 11.28125 64.40625 15.921875 
L 64.40625 5.609375 
Q 59.234375 2.09375 53.4375 0.328125 
Q 47.65625 -1.421875 41.21875 -1.421875 
Q 24.65625 -1.421875 15.125 8.703125 
Q 5.609375 18.84375 5.609375 36.375 
Q 5.609375 53.953125 15.125 64.078125 
Q 24.65625 74.21875 41.21875 74.21875 
Q 47.75 74.21875 53.53125 72.484375 
Q 59.328125 70.75 64.40625 67.28125 
z
" id="DejaVuSans-67"/>
     </defs>
     <g transform="translate(508.135156 300.330997)scale(0.1 -0.1)">
      <use xlink:href="#DejaVuSans-37"/>
      <use x="95.019531" xlink:href="#DejaVuSans-32"/>
      <use x="126.806641" xlink:href="#DejaVuSans-71"/>
      <use x="204.296875" xlink:href="#DejaVuSans-67"/>
     </g>
    </g>
   </g>
   <g id="matplotlib.axis_2">
    <g id="ytick_1">
     <g id="line2d_1">
      <path clip-path="url(#pa3f741ba5f)" d="M 58.418125 273.99006 
L 985.263125 273.99006 
" style="fill:none;stroke:#dedede;stroke-linecap:square;"/>
     </g>
     <g id="text_8">
      <!-- 0 -->
      <g transform="translate(46.328125 277.029435)scale(0.08 -0.08)">
       <use xlink:href="#DejaVuSans-48"/>
      </g>
     </g>
    </g>
    <g id="ytick_2">
     <g id="line2d_2">
      <path clip-path="url(#pa3f741ba5f)" d="M 58.418125 225.320955 
L 985.263125 225.320955 
" style="fill:none;stroke:#dedede;stroke-linecap:square;"/>
     </g>
     <g id="text_9">
      <!-- 100000 -->
      <g transform="translate(20.878125 228.36033)scale(0.08 -0.08)">
       <use xlink:href="#DejaVuSans-49"/>
       <use x="63.623047" xlink:href="#DejaVuSans-48"/>
       <use x="127.246094" xlink:href="#DejaVuSans-48"/>
       <use x="190.869141" xlink:href="#DejaVuSans-48"/>
       <use x="254.492188" xlink:href="#DejaVuSans-48"/>
       <use x="318.115234" xlink:href="#DejaVuSans-48"/>
      </g>
     </g>
    </g>
    <g id="ytick_3">
     <g id="line2d_3">
      <path clip-path="url(#pa3f741ba5f)" d="M 58.418125 176.65185 
L 985.263125 176.65185 
" style="fill:none;stroke:#dedede;stroke-linecap:square;"/>
     </g>
     <g id="text_10">
      <!-- 200000 -->
      <g transform="translate(20.878125 179.691225)scale(0.08 -0.08)">
       <use xlink:href="#DejaVuSans-50"/>
       <use x="63.623047" xlink:href="#DejaVuSans-48"/>
       <use x="127.246094" xlink:href="#DejaVuSans-48"/>
       <use x="190.869141" xlink:href="#DejaVuSans-48"/>
       <use x="254.492188" xlink:href="#DejaVuSans-48"/>
       <use x="318.115234" xlink:href="#DejaVuSans-48"/>
      </g>
     </g>
    </g>
    <g id="ytick_4">
     <g id="line2d_4">
      <path clip-path="url(#pa3f741ba5f)" d="M 58.418125 127.982745 
L 985.263125 127.982745 
" style="fill:none;stroke:#dedede;stroke-linecap:square;"/>
     </g>
     <g id="text_11">
      <!-- 300000 -->
      <defs>
       <path d="M 40.578125 39.3125 
Q 47.65625 37.796875 51.625 33 
Q 55.609375 28.21875 55.609375 21.1875 
Q 55.609375 10.40625 48.1875 4.484375 
Q 40.765625 -1.421875 27.09375 -1.421875 
Q 22.515625 -1.421875 17.65625 -0.515625 
Q 12.796875 0.390625 7.625 2.203125 
L 7.625 11.71875 
Q 11.71875 9.328125 16.59375 8.109375 
Q 21.484375 6.890625 26.8125 6.890625 
Q 36.078125 6.890625 40.9375 10.546875 
Q 45.796875 14.203125 45.796875 21.1875 
Q 45.796875 27.640625 41.28125 31.265625 
Q 36.765625 34.90625 28.71875 34.90625 
L 20.21875 34.90625 
L 20.21875 43.015625 
L 29.109375 43.015625 
Q 36.375 43.015625 40.234375 45.921875 
Q 44.09375 48.828125 44.09375 54.296875 
Q 44.09375 59.90625 40.109375 62.90625 
Q 36.140625 65.921875 28.71875 65.921875 
Q 24.65625 65.921875 20.015625 65.03125 
Q 15.375 64.15625 9.8125 62.3125 
L 9.8125 71.09375 
Q 15.4375 72.65625 20.34375 73.4375 
Q 25.25 74.21875 29.59375 74.21875 
Q 40.828125 74.21875 47.359375 69.109375 
Q 53.90625 64.015625 53.90625 55.328125 
Q 53.90625 49.265625 50.4375 45.09375 
Q 46.96875 40.921875 40.578125 39.3125 
z
" id="DejaVuSans-51"/>
      </defs>
      <g transform="translate(20.878125 131.02212)scale(0.08 -0.08)">
       <use xlink:href="#DejaVuSans-51"/>
       <use x="63.623047" xlink:href="#DejaVuSans-48"/>
       <use x="127.246094" xlink:href="#DejaVuSans-48"/>
       <use x="190.869141" xlink:href="#DejaVuSans-48"/>
       <use x="254.492188" xlink:href="#DejaVuSans-48"/>
       <use x="318.115234" xlink:href="#DejaVuSans-48"/>
      </g>
     </g>
    </g>
    <g id="ytick_5">
     <g id="line2d_5">
      <path clip-path="url(#pa3f741ba5f)" d="M 58.418125 79.31364 
L 985.263125 79.31364 
" style="fill:none;stroke:#dedede;stroke-linecap:square;"/>
     </g>
     <g id="text_12">
      <!-- 400000 -->
      <g transform="translate(20.878125 82.353015)scale(0.08 -0.08)">
       <use xlink:href="#DejaVuSans-52"/>
       <use x="63.623047" xlink:href="#DejaVuSans-48"/>
       <use x="127.246094" xlink:href="#DejaVuSans-48"/>
       <use x="190.869141" xlink:href="#DejaVuSans-48"/>
       <use x="254.492188" xlink:href="#DejaVuSans-48"/>
       <use x="318.115234" xlink:href="#DejaVuSans-48"/>
      </g>
     </g>
    </g>
    <g id="text_13">
     <!-- Count -->
     <defs>
      <path d="M 30.609375 48.390625 
Q 23.390625 48.390625 19.1875 42.75 
Q 14.984375 37.109375 14.984375 27.296875 
Q 14.984375 17.484375 19.15625 11.84375 
Q 23.34375 6.203125 30.609375 6.203125 
Q 37.796875 6.203125 41.984375 11.859375 
Q 46.1875 17.53125 46.1875 27.296875 
Q 46.1875 37.015625 41.984375 42.703125 
Q 37.796875 48.390625 30.609375 48.390625 
z
M 30.609375 56 
Q 42.328125 56 49.015625 48.375 
Q 55.71875 40.765625 55.71875 27.296875 
Q 55.71875 13.875 49.015625 6.21875 
Q 42.328125 -1.421875 30.609375 -1.421875 
Q 18.84375 -1.421875 12.171875 6.21875 
Q 5.515625 13.875 5.515625 27.296875 
Q 5.515625 40.765625 12.171875 48.375 
Q 18.84375 56 30.609375 56 
z
" id="DejaVuSans-111"/>
      <path d="M 8.5 21.578125 
L 8.5 54.6875 
L 17.484375 54.6875 
L 17.484375 21.921875 
Q 17.484375 14.15625 20.5 10.265625 
Q 23.53125 6.390625 29.59375 6.390625 
Q 36.859375 6.390625 41.078125 11.03125 
Q 45.3125 15.671875 45.3125 23.6875 
L 45.3125 54.6875 
L 54.296875 54.6875 
L 54.296875 0 
L 45.3125 0 
L 45.3125 8.40625 
Q 42.046875 3.421875 37.71875 1 
Q 33.40625 -1.421875 27.6875 -1.421875 
Q 18.265625 -1.421875 13.375 4.4375 
Q 8.5 10.296875 8.5 21.578125 
z
M 31.109375 56 
z
" id="DejaVuSans-117"/>
      <path d="M 54.890625 33.015625 
L 54.890625 0 
L 45.90625 0 
L 45.90625 32.71875 
Q 45.90625 40.484375 42.875 44.328125 
Q 39.84375 48.1875 33.796875 48.1875 
Q 26.515625 48.1875 22.3125 43.546875 
Q 18.109375 38.921875 18.109375 30.90625 
L 18.109375 0 
L 9.078125 0 
L 9.078125 54.6875 
L 18.109375 54.6875 
L 18.109375 46.1875 
Q 21.34375 51.125 25.703125 53.5625 
Q 30.078125 56 35.796875 56 
Q 45.21875 56 50.046875 50.171875 
Q 54.890625 44.34375 54.890625 33.015625 
z
" id="DejaVuSans-110"/>
      <path d="M 18.3125 70.21875 
L 18.3125 54.6875 
L 36.8125 54.6875 
L 36.8125 47.703125 
L 18.3125 47.703125 
L 18.3125 18.015625 
Q 18.3125 11.328125 20.140625 9.421875 
Q 21.96875 7.515625 27.59375 7.515625 
L 36.8125 7.515625 
L 36.8125 0 
L 27.59375 0 
Q 17.1875 0 13.234375 3.875 
Q 9.28125 7.765625 9.28125 18.015625 
L 9.28125 47.703125 
L 2.6875 47.703125 
L 2.6875 54.6875 
L 9.28125 54.6875 
L 9.28125 70.21875 
z
" id="DejaVuSans-116"/>
     </defs>
     <g transform="translate(14.798438 167.584897)rotate(-90)scale(0.1 -0.1)">
      <use xlink:href="#DejaVuSans-67"/>
      <use x="69.824219" xlink:href="#DejaVuSans-111"/>
      <use x="131.005859" xlink:href="#DejaVuSans-117"/>
      <use x="194.384766" xlink:href="#DejaVuSans-110"/>
      <use x="257.763672" xlink:href="#DejaVuSans-116"/>
     </g>
    </g>
   </g>
   <g id="line2d_6">
    <path clip-path="url(#pa3f741ba5f)" d="M 58.418125 273.983246 
L 67.686575 273.974729 
L 76.955025 273.965969 
L 86.223475 273.960372 
L 95.491925 273.945041 
L 104.760375 273.93336 
L 114.028825 273.9173 
L 123.297275 273.893695 
L 132.565725 273.842106 
L 141.834175 273.757178 
L 151.102625 273.66495 
L 160.371075 273.494365 
L 169.639525 273.300662 
L 178.907975 272.975553 
L 188.176425 272.382276 
L 197.444875 271.737654 
L 206.713325 270.818781 
L 215.981775 269.600107 
L 225.250225 268.071653 
L 234.518675 266.011977 
L 243.787125 263.570978 
L 253.055575 260.389479 
L 262.324025 256.726642 
L 271.592475 252.389494 
L 280.860925 247.608972 
L 290.129375 242.918243 
L 299.397825 237.377022 
L 308.666275 231.939953 
L 317.934725 227.205179 
L 327.203175 222.515668 
L 336.471625 217.685016 
L 345.740075 212.549452 
L 355.008525 207.545051 
L 364.276975 203.378002 
L 373.545425 198.816977 
L 382.813875 194.773304 
L 392.082325 192.012306 
L 401.350775 190.242941 
L 410.619225 190.595548 
L 419.887675 192.245918 
L 429.156125 194.567434 
L 438.424575 197.387565 
L 447.693025 200.539863 
L 456.961475 204.023355 
L 466.229925 207.764549 
L 475.498375 211.611598 
L 484.766825 215.741415 
L 494.035275 219.588951 
L 503.303725 223.055165 
L 512.572175 226.932632 
L 521.840625 230.829081 
L 531.109075 234.34591 
L 540.377525 237.542011 
L 549.645975 240.118066 
L 558.914425 242.563932 
L 568.182875 245.407668 
L 577.451325 248.38208 
L 586.719775 251.049391 
L 595.988225 253.524945 
L 605.256675 256.177654 
L 614.525125 258.586775 
L 623.793575 260.884687 
L 633.062025 263.015907 
L 642.330475 264.699128 
L 651.598925 266.247049 
L 660.867375 267.652856 
L 670.135825 268.900002 
L 679.404275 269.79162 
L 688.672725 270.365428 
L 697.941175 270.856743 
L 707.209625 271.245853 
L 716.478075 271.576802 
L 725.746525 272.06909 
L 735.014975 272.611508 
L 744.283425 273.077514 
L 753.551875 273.434259 
L 762.820325 273.618228 
L 772.088775 273.754015 
L 781.357225 273.829695 
L 790.625675 273.870334 
L 799.894125 273.899535 
L 809.162575 273.91511 
L 818.431025 273.923383 
L 827.699475 273.927034 
L 836.967925 273.941634 
L 846.236375 273.957695 
L 855.504825 273.961345 
L 864.773275 273.960129 
L 874.041725 273.966212 
L 883.310175 273.975216 
L 892.578625 273.979596 
L 901.847075 273.981786 
L 911.115525 273.983246 
L 920.383975 273.985436 
L 929.652425 273.988357 
L 938.920875 273.988843 
L 948.189325 273.98495 
L 957.457775 273.963535 
L 966.726225 273.925817 
L 975.994675 273.639399 
L 985.263125 273.372449 
" style="fill:none;stroke:#5cb85c;stroke-linecap:square;"/>
   </g>
   <g id="line2d_7">
    <path clip-path="url(#pa3f741ba5f)" d="M 58.418125 273.968646 
L 67.686575 273.959885 
L 76.955025 273.951368 
L 86.223475 273.935794 
L 95.491925 273.906106 
L 104.760375 273.885421 
L 114.028825 273.861817 
L 123.297275 273.821422 
L 132.565725 273.735521 
L 141.834175 273.567612 
L 151.102625 273.362715 
L 160.371075 273.032739 
L 169.639525 272.665774 
L 178.907975 272.077364 
L 188.176425 271.073077 
L 197.444875 269.881171 
L 206.713325 268.07433 
L 215.981775 265.788342 
L 225.250225 262.937306 
L 234.518675 259.348933 
L 243.787125 255.309884 
L 253.055575 249.446717 
L 262.324025 242.085515 
L 271.592475 233.629501 
L 280.860925 224.796059 
L 290.129375 216.497246 
L 299.397825 206.642969 
L 308.666275 196.28594 
L 317.934725 186.751906 
L 327.203175 177.465841 
L 336.471625 168.451106 
L 345.740075 159.49234 
L 355.008525 151.293056 
L 364.276975 143.956918 
L 373.545425 135.244175 
L 382.813875 127.565164 
L 392.082325 122.726481 
L 401.350775 119.602168 
L 410.619225 119.465165 
L 419.887675 123.271575 
L 429.156125 129.168324 
L 438.424575 136.005847 
L 447.693025 143.406958 
L 456.961475 150.299476 
L 466.229925 157.193455 
L 475.498375 164.270916 
L 484.766825 171.824848 
L 494.035275 178.233596 
L 503.303725 184.438177 
L 512.572175 192.02277 
L 521.840625 199.01141 
L 531.109075 205.479778 
L 540.377525 211.745681 
L 549.645975 216.573413 
L 558.914425 221.09161 
L 568.182875 226.171691 
L 577.451325 231.366631 
L 586.719775 235.821314 
L 595.988225 239.672987 
L 605.256675 244.104796 
L 614.525125 248.077655 
L 623.793575 251.700827 
L 633.062025 255.354416 
L 642.330475 258.555627 
L 651.598925 261.403499 
L 660.867375 263.764194 
L 670.135825 265.824114 
L 679.404275 267.158134 
L 688.672725 267.885737 
L 697.941175 268.657143 
L 707.209625 269.308579 
L 716.478075 269.750738 
L 725.746525 270.603907 
L 735.014975 271.669274 
L 744.283425 272.52731 
L 753.551875 273.139567 
L 762.820325 273.458837 
L 772.088775 273.637452 
L 781.357225 273.73187 
L 790.625675 273.805117 
L 799.894125 273.849406 
L 809.162575 273.880068 
L 818.431025 273.920707 
L 827.699475 273.948691 
L 836.967925 273.961102 
L 846.236375 273.968646 
L 855.504825 273.971566 
L 864.773275 273.973513 
L 874.041725 273.973756 
L 883.310175 273.975216 
L 892.578625 273.978136 
L 901.847075 273.978866 
L 911.115525 273.978623 
L 920.383975 273.979353 
L 929.652425 273.983003 
L 938.920875 273.986166 
L 948.189325 273.978866 
L 957.457775 273.942608 
L 966.726225 273.885665 
L 975.994675 273.276328 
L 985.263125 272.692055 
" style="fill:none;stroke:#5cb85c;stroke-linecap:square;"/>
   </g>
   <g id="line2d_8">
    <path clip-path="url(#pa3f741ba5f)" d="M 58.418125 273.975946 
L 67.686575 273.970349 
L 76.955025 273.962805 
L 86.223475 273.949421 
L 95.491925 273.921193 
L 104.760375 273.894669 
L 114.028825 273.848676 
L 123.297275 273.786623 
L 132.565725 273.702912 
L 141.834175 273.579293 
L 151.102625 273.424768 
L 160.371075 273.145408 
L 169.639525 272.814214 
L 178.907975 272.334824 
L 188.176425 271.557335 
L 197.444875 270.538204 
L 206.713325 268.975195 
L 215.981775 267.040355 
L 225.250225 264.621987 
L 234.518675 261.386465 
L 243.787125 257.6954 
L 253.055575 252.76668 
L 262.324025 246.880152 
L 271.592475 240.296439 
L 280.860925 232.817457 
L 290.129375 225.058628 
L 299.397825 215.91784 
L 308.666275 206.139974 
L 317.934725 197.062456 
L 327.203175 189.42311 
L 336.471625 182.197938 
L 345.740075 174.174592 
L 355.008525 166.434501 
L 364.276975 158.94968 
L 373.545425 151.366546 
L 382.813875 145.249083 
L 392.082325 140.082858 
L 401.350775 136.025558 
L 410.619225 135.684144 
L 419.887675 139.13162 
L 429.156125 144.336294 
L 438.424575 150.557909 
L 447.693025 157.209516 
L 456.961475 163.432104 
L 466.229925 169.966662 
L 475.498375 176.650876 
L 484.766825 183.713494 
L 494.035275 190.247808 
L 503.303725 196.049895 
L 512.572175 202.506825 
L 521.840625 208.84768 
L 531.109075 214.620565 
L 540.377525 220.37009 
L 549.645975 224.977838 
L 558.914425 228.979898 
L 568.182875 233.096575 
L 577.451325 237.367532 
L 586.719775 241.713683 
L 595.988225 245.406451 
L 605.256675 248.940558 
L 614.525125 252.206742 
L 623.793575 255.445428 
L 633.062025 258.397452 
L 642.330475 260.830421 
L 651.598925 263.271663 
L 660.867375 265.260769 
L 670.135825 266.867336 
L 679.404275 267.950711 
L 688.672725 268.432535 
L 697.941175 268.880047 
L 707.209625 269.355301 
L 716.478075 269.831772 
L 725.746525 270.696622 
L 735.014975 271.713319 
L 744.283425 272.543371 
L 753.551875 273.141027 
L 762.820325 273.440829 
L 772.088775 273.633072 
L 781.357225 273.746714 
L 790.625675 273.819231 
L 799.894125 273.870091 
L 809.162575 273.900752 
L 818.431025 273.929467 
L 827.699475 273.948448 
L 836.967925 273.958425 
L 846.236375 273.961832 
L 855.504825 273.966942 
L 864.773275 273.967916 
L 874.041725 273.967672 
L 883.310175 273.972296 
L 892.578625 273.975946 
L 901.847075 273.976433 
L 911.115525 273.978379 
L 920.383975 273.981056 
L 929.652425 273.982516 
L 938.920875 273.984706 
L 948.189325 273.980813 
L 957.457775 273.943824 
L 966.726225 273.882745 
L 975.994675 273.294335 
L 985.263125 272.732207 
" style="fill:none;stroke:#5cb85c;stroke-linecap:square;"/>
   </g>
   <g id="line2d_9">
    <path clip-path="url(#pa3f741ba5f)" d="M 58.418125 273.973999 
L 67.686575 273.961832 
L 76.955025 273.944798 
L 86.223475 273.919246 
L 95.491925 273.884691 
L 104.760375 273.85695 
L 114.028825 273.808038 
L 123.297275 273.739171 
L 132.565725 273.630152 
L 141.834175 273.475871 
L 151.102625 273.274624 
L 160.371075 272.906442 
L 169.639525 272.472314 
L 178.907975 271.816498 
L 188.176425 270.79323 
L 197.444875 269.581612 
L 206.713325 267.678407 
L 215.981775 265.185819 
L 225.250225 261.988745 
L 234.518675 257.761347 
L 243.787125 253.133158 
L 253.055575 246.914707 
L 262.324025 239.206494 
L 271.592475 230.837355 
L 280.860925 221.881023 
L 290.129375 212.929801 
L 299.397825 202.456696 
L 308.666275 191.395912 
L 317.934725 180.530778 
L 327.203175 170.248456 
L 336.471625 160.933676 
L 345.740075 150.436723 
L 355.008525 139.275924 
L 364.276975 129.638711 
L 373.545425 120.437087 
L 382.813875 112.414228 
L 392.082325 106.271214 
L 401.350775 101.471467 
L 410.619225 100.1428 
L 419.887675 103.160528 
L 429.156125 108.668654 
L 438.424575 114.681235 
L 447.693025 121.025253 
L 456.961475 127.860342 
L 466.229925 134.60953 
L 475.498375 141.52249 
L 484.766825 149.429516 
L 494.035275 156.384088 
L 503.303725 163.092394 
L 512.572175 171.050279 
L 521.840625 179.124484 
L 531.109075 187.750596 
L 540.377525 195.857895 
L 549.645975 201.843222 
L 558.914425 207.709796 
L 568.182875 214.104916 
L 577.451325 220.57012 
L 586.719775 226.600709 
L 595.988225 231.809763 
L 605.256675 237.015411 
L 614.525125 241.889135 
L 623.793575 246.587407 
L 633.062025 250.851064 
L 642.330475 254.56038 
L 651.598925 257.95724 
L 660.867375 260.618223 
L 670.135825 262.74336 
L 679.404275 263.945487 
L 688.672725 264.091007 
L 697.941175 264.194673 
L 707.209625 264.579402 
L 716.478075 265.133013 
L 725.746525 266.907002 
L 735.014975 269.291788 
L 744.283425 271.163358 
L 753.551875 272.434839 
L 762.820325 273.056587 
L 772.088775 273.380723 
L 781.357225 273.548875 
L 790.625675 273.641103 
L 799.894125 273.718486 
L 809.162575 273.811201 
L 818.431025 273.880311 
L 827.699475 273.905619 
L 836.967925 273.913406 
L 846.236375 273.923383 
L 855.504825 273.942121 
L 864.773275 273.955262 
L 874.041725 273.961589 
L 883.310175 273.967429 
L 892.578625 273.971322 
L 901.847075 273.971322 
L 911.115525 273.971079 
L 920.383975 273.975459 
L 929.652425 273.98276 
L 938.920875 273.986897 
L 948.189325 273.978866 
L 957.457775 273.933117 
L 966.726225 273.867414 
L 975.994675 273.386563 
L 985.263125 272.931994 
" style="fill:none;stroke:#f0ad4e;stroke-linecap:square;"/>
   </g>
   <g id="line2d_10">
    <path clip-path="url(#pa3f741ba5f)" d="M 58.418125 273.971566 
L 67.686575 273.957938 
L 76.955025 273.944311 
L 86.223475 273.92752 
L 95.491925 273.886881 
L 104.760375 273.836266 
L 114.028825 273.741604 
L 123.297275 273.64743 
L 132.565725 273.519916 
L 141.834175 273.275598 
L 151.102625 272.979446 
L 160.371075 272.566975 
L 169.639525 272.072497 
L 178.907975 271.186476 
L 188.176425 269.789186 
L 197.444875 268.121053 
L 206.713325 265.580769 
L 215.981775 262.308501 
L 225.250225 257.990092 
L 234.518675 252.042484 
L 243.787125 245.241706 
L 253.055575 236.949951 
L 262.324025 227.550973 
L 271.592475 215.886206 
L 280.860925 202.66427 
L 290.129375 190.578028 
L 299.397825 176.617781 
L 308.666275 161.224474 
L 317.934725 146.432959 
L 327.203175 132.725306 
L 336.471625 119.235933 
L 345.740075 104.537864 
L 355.008525 90.159063 
L 364.276975 77.996167 
L 373.545425 66.312175 
L 382.813875 55.953929 
L 392.082325 48.840696 
L 401.350775 44.373846 
L 410.619225 43.030822 
L 419.887675 45.946588 
L 429.156125 53.087076 
L 438.424575 62.517688 
L 447.693025 72.013761 
L 456.961475 81.703049 
L 466.229925 92.140139 
L 475.498375 102.897715 
L 484.766825 113.855077 
L 494.035275 122.985644 
L 503.303725 132.375375 
L 512.572175 144.015321 
L 521.840625 154.734692 
L 531.109075 164.427874 
L 540.377525 174.041239 
L 549.645975 181.871125 
L 558.914425 189.458151 
L 568.182875 197.372721 
L 577.451325 205.32574 
L 586.719775 212.729041 
L 595.988225 219.541012 
L 605.256675 226.988115 
L 614.525125 233.452832 
L 623.793575 239.076791 
L 633.062025 244.201891 
L 642.330475 248.669958 
L 651.598925 253.15579 
L 660.867375 256.782368 
L 670.135825 259.494697 
L 679.404275 261.195682 
L 688.672725 261.759271 
L 697.941175 262.217977 
L 707.209625 262.731679 
L 716.478075 263.314248 
L 725.746525 265.41067 
L 735.014975 268.292368 
L 744.283425 270.509732 
L 753.551875 272.05303 
L 762.820325 272.856557 
L 772.088775 273.26051 
L 781.357225 273.452996 
L 790.625675 273.598274 
L 799.894125 273.695125 
L 809.162575 273.749878 
L 818.431025 273.812418 
L 827.699475 273.85622 
L 836.967925 273.893208 
L 846.236375 273.929467 
L 855.504825 273.947475 
L 864.773275 273.955262 
L 874.041725 273.958182 
L 883.310175 273.960859 
L 892.578625 273.966942 
L 901.847075 273.971809 
L 911.115525 273.975703 
L 920.383975 273.978623 
L 929.652425 273.981543 
L 938.920875 273.984706 
L 948.189325 273.975216 
L 957.457775 273.917543 
L 966.726225 273.829452 
L 975.994675 273.045393 
L 985.263125 272.292968 
" style="fill:none;stroke:#5cb85c;stroke-linecap:square;"/>
   </g>
   <g id="line2d_11">
    <path clip-path="url(#pa3f741ba5f)" d="M 58.418125 273.985193 
L 67.686575 273.983733 
L 76.955025 273.979353 
L 86.223475 273.970836 
L 95.491925 273.962075 
L 104.760375 273.953315 
L 114.028825 273.9319 
L 123.297275 273.900996 
L 132.565725 273.872281 
L 141.834175 273.830425 
L 151.102625 273.752311 
L 160.371075 273.580996 
L 169.639525 273.393377 
L 178.907975 273.178989 
L 188.176425 272.840009 
L 197.444875 272.404664 
L 206.713325 271.762232 
L 215.981775 270.905412 
L 225.250225 269.760715 
L 234.518675 268.092095 
L 243.787125 266.081817 
L 253.055575 263.646172 
L 262.324025 260.932869 
L 271.592475 257.933636 
L 280.860925 254.374951 
L 290.129375 250.426913 
L 299.397825 245.522527 
L 308.666275 239.876181 
L 317.934725 234.545454 
L 327.203175 229.562467 
L 336.471625 224.009079 
L 345.740075 218.57055 
L 355.008525 214.498893 
L 364.276975 210.439646 
L 373.545425 206.267244 
L 382.813875 203.263143 
L 392.082325 200.670297 
L 401.350775 198.695791 
L 410.619225 197.722166 
L 419.887675 199.315835 
L 429.156125 203.761028 
L 438.424575 208.79609 
L 447.693025 213.70656 
L 456.961475 218.606565 
L 466.229925 223.161993 
L 475.498375 227.189119 
L 484.766825 231.323316 
L 494.035275 234.889301 
L 503.303725 238.375469 
L 512.572175 242.069697 
L 521.840625 245.224185 
L 531.109075 247.956226 
L 540.377525 250.106183 
L 549.645975 251.757283 
L 558.914425 253.539302 
L 568.182875 255.559313 
L 577.451325 257.771081 
L 586.719775 259.856309 
L 595.988225 261.566541 
L 605.256675 263.107161 
L 614.525125 264.316832 
L 623.793575 265.637468 
L 633.062025 267.057389 
L 642.330475 268.282147 
L 651.598925 269.39667 
L 660.867375 270.299968 
L 670.135825 271.094492 
L 679.404275 271.680711 
L 688.672725 272.036725 
L 697.941175 272.349181 
L 707.209625 272.618078 
L 716.478075 272.795233 
L 725.746525 273.092602 
L 735.014975 273.443019 
L 744.283425 273.635992 
L 753.551875 273.742578 
L 762.820325 273.824828 
L 772.088775 273.875688 
L 781.357225 273.897832 
L 790.625675 273.914866 
L 799.894125 273.93044 
L 809.162575 273.948448 
L 818.431025 273.960129 
L 827.699475 273.965239 
L 836.967925 273.970106 
L 846.236375 273.976433 
L 855.504825 273.98057 
L 864.773275 273.98422 
L 874.041725 273.986653 
L 883.310175 273.98495 
L 892.578625 273.984706 
L 901.847075 273.98641 
L 911.115525 273.98641 
L 920.383975 273.98641 
L 929.652425 273.988357 
L 938.920875 273.98933 
L 948.189325 273.98714 
L 957.457775 273.974729 
L 966.726225 273.953558 
L 975.994675 273.761559 
L 985.263125 273.579779 
" style="fill:none;stroke:#5cb85c;stroke-linecap:square;"/>
   </g>
   <g id="line2d_12">
    <path clip-path="url(#pa3f741ba5f)" d="M 58.418125 273.979353 
L 67.686575 273.969862 
L 76.955025 273.960372 
L 86.223475 273.955018 
L 95.491925 273.946744 
L 104.760375 273.938227 
L 114.028825 273.919733 
L 123.297275 273.900022 
L 132.565725 273.86644 
L 141.834175 273.814121 
L 151.102625 273.727977 
L 160.371075 273.562989 
L 169.639525 273.39727 
L 178.907975 273.12667 
L 188.176425 272.730017 
L 197.444875 272.328983 
L 206.713325 271.726947 
L 215.981775 270.902735 
L 225.250225 269.740274 
L 234.518675 268.183592 
L 243.787125 266.281847 
L 253.055575 263.741077 
L 262.324025 260.841371 
L 271.592475 257.533332 
L 280.860925 253.787271 
L 290.129375 249.732161 
L 299.397825 244.651837 
L 308.666275 238.907422 
L 317.934725 233.599326 
L 327.203175 228.838028 
L 336.471625 223.525308 
L 345.740075 218.211129 
L 355.008525 214.571653 
L 364.276975 211.569499 
L 373.545425 207.657233 
L 382.813875 203.097912 
L 392.082325 197.584675 
L 401.350775 192.667149 
L 410.619225 189.350349 
L 419.887675 188.925711 
L 429.156125 193.01781 
L 438.424575 199.702755 
L 447.693025 206.511806 
L 456.961475 212.768706 
L 466.229925 218.248361 
L 475.498375 222.977051 
L 484.766825 228.136463 
L 494.035275 232.565351 
L 503.303725 236.460826 
L 512.572175 240.342674 
L 521.840625 243.594987 
L 531.109075 246.609065 
L 540.377525 249.221136 
L 549.645975 251.283002 
L 558.914425 253.223683 
L 568.182875 255.313534 
L 577.451325 257.627264 
L 586.719775 259.727822 
L 595.988225 261.498161 
L 605.256675 263.14342 
L 614.525125 264.396893 
L 623.793575 265.717042 
L 633.062025 267.1338 
L 642.330475 268.407957 
L 651.598925 269.530753 
L 660.867375 270.371755 
L 670.135825 271.145107 
L 679.404275 271.728163 
L 688.672725 272.105836 
L 697.941175 272.429485 
L 707.209625 272.65531 
L 716.478075 272.828572 
L 725.746525 273.076298 
L 735.014975 273.347384 
L 744.283425 273.568829 
L 753.551875 273.72603 
L 762.820325 273.801954 
L 772.088775 273.859627 
L 781.357225 273.896859 
L 790.625675 273.91876 
L 799.894125 273.933604 
L 809.162575 273.946014 
L 818.431025 273.964509 
L 827.699475 273.975946 
L 836.967925 273.979109 
L 846.236375 273.98057 
L 855.504825 273.983003 
L 864.773275 273.98495 
L 874.041725 273.98349 
L 883.310175 273.981056 
L 892.578625 273.981056 
L 901.847075 273.98276 
L 911.115525 273.98422 
L 920.383975 273.98641 
L 929.652425 273.988357 
L 938.920875 273.989087 
L 948.189325 273.987627 
L 957.457775 273.975216 
L 966.726225 273.952341 
L 975.994675 273.772509 
L 985.263125 273.602897 
" style="fill:none;stroke:#5cb85c;stroke-linecap:square;"/>
   </g>
   <g id="line2d_13">
    <path clip-path="url(#pa3f741ba5f)" d="M 58.418125 273.98276 
L 67.686575 273.978623 
L 76.955025 273.973999 
L 86.223475 273.966212 
L 95.491925 273.955992 
L 104.760375 273.940904 
L 114.028825 273.909269 
L 123.297275 273.889558 
L 132.565725 273.865224 
L 141.834175 273.801954 
L 151.102625 273.716053 
L 160.371075 273.603627 
L 169.639525 273.495582 
L 178.907975 273.303339 
L 188.176425 273.009378 
L 197.444875 272.668937 
L 206.713325 272.105349 
L 215.981775 271.294278 
L 225.250225 270.202874 
L 234.518675 268.784656 
L 243.787125 267.055443 
L 253.055575 264.743903 
L 262.324025 262.180015 
L 271.592475 259.203169 
L 280.860925 255.741579 
L 290.129375 251.914971 
L 299.397825 247.062904 
L 308.666275 242.18407 
L 317.934725 237.562452 
L 327.203175 233.093898 
L 336.471625 228.569131 
L 345.740075 224.181124 
L 355.008525 220.900827 
L 364.276975 217.601548 
L 373.545425 213.561769 
L 382.813875 210.134734 
L 392.082325 207.478374 
L 401.350775 205.819001 
L 410.619225 205.552051 
L 419.887675 207.203151 
L 429.156125 211.203021 
L 438.424575 215.90105 
L 447.693025 220.548219 
L 456.961475 225.187602 
L 466.229925 229.411837 
L 475.498375 233.278597 
L 484.766825 237.241722 
L 494.035275 240.619845 
L 503.303725 243.816188 
L 512.572175 247.141748 
L 521.840625 249.790321 
L 531.109075 251.991381 
L 540.377525 253.962967 
L 549.645975 255.585351 
L 558.914425 257.22988 
L 568.182875 258.845695 
L 577.451325 260.425494 
L 586.719775 261.924015 
L 595.988225 263.169701 
L 605.256675 264.41563 
L 614.525125 265.511659 
L 623.793575 266.660493 
L 633.062025 267.850452 
L 642.330475 268.981522 
L 651.598925 270.008927 
L 660.867375 270.786903 
L 670.135825 271.529107 
L 679.404275 272.069577 
L 688.672725 272.344314 
L 697.941175 272.602504 
L 707.209625 272.807157 
L 716.478075 272.945134 
L 725.746525 273.178989 
L 735.014975 273.444479 
L 744.283425 273.623825 
L 753.551875 273.755232 
L 762.820325 273.832129 
L 772.088775 273.872037 
L 781.357225 273.905376 
L 790.625675 273.934577 
L 799.894125 273.951855 
L 809.162575 273.954045 
L 818.431025 273.952098 
L 827.699475 273.955018 
L 836.967925 273.956235 
L 846.236375 273.958668 
L 855.504825 273.971322 
L 864.773275 273.978379 
L 874.041725 273.978379 
L 883.310175 273.9813 
L 892.578625 273.985193 
L 901.847075 273.986653 
L 911.115525 273.98641 
L 920.383975 273.987383 
L 929.652425 273.9886 
L 938.920875 273.989087 
L 948.189325 273.986897 
L 957.457775 273.976189 
L 966.726225 273.956965 
L 975.994675 273.748905 
L 985.263125 273.548388 
" style="fill:none;stroke:#5cb85c;stroke-linecap:square;"/>
   </g>
   <g id="line2d_14">
    <path clip-path="url(#pa3f741ba5f)" d="M 58.418125 273.983246 
L 67.686575 273.974729 
L 76.955025 273.965725 
L 86.223475 273.957938 
L 95.491925 273.941634 
L 104.760375 273.92387 
L 114.028825 273.904646 
L 123.297275 273.882501 
L 132.565725 273.835536 
L 141.834175 273.758395 
L 151.102625 273.655703 
L 160.371075 273.45105 
L 169.639525 273.243963 
L 178.907975 272.969712 
L 188.176425 272.483265 
L 197.444875 271.864924 
L 206.713325 270.956028 
L 215.981775 269.738084 
L 225.250225 268.106939 
L 234.518675 266.046289 
L 243.787125 263.550294 
L 253.055575 260.211106 
L 262.324025 256.711068 
L 271.592475 252.599988 
L 280.860925 247.632576 
L 290.129375 242.72308 
L 299.397825 236.885951 
L 308.666275 230.166451 
L 317.934725 223.888623 
L 327.203175 218.304817 
L 336.471625 212.387627 
L 345.740075 206.226362 
L 355.008525 201.13168 
L 364.276975 196.601316 
L 373.545425 191.061798 
L 382.813875 185.984394 
L 392.082325 182.213269 
L 401.350775 179.554475 
L 410.619225 178.927374 
L 419.887675 181.04229 
L 429.156125 185.703573 
L 438.424575 191.631957 
L 447.693025 197.627991 
L 456.961475 203.448086 
L 466.229925 208.7939 
L 475.498375 213.602164 
L 484.766825 218.76474 
L 494.035275 223.454738 
L 503.303725 227.94495 
L 512.572175 232.763921 
L 521.840625 237.015654 
L 531.109075 240.809168 
L 540.377525 244.374423 
L 549.645975 247.077505 
L 558.914425 249.337212 
L 568.182875 251.550682 
L 577.451325 253.975621 
L 586.719775 256.523448 
L 595.988225 258.529345 
L 605.256675 260.270726 
L 614.525125 261.971225 
L 623.793575 263.706765 
L 633.062025 265.322579 
L 642.330475 266.792143 
L 651.598925 268.216687 
L 660.867375 269.380122 
L 670.135825 270.341581 
L 679.404275 271.007374 
L 688.672725 271.325913 
L 697.941175 271.640559 
L 707.209625 271.92065 
L 716.478075 272.12652 
L 725.746525 272.551888 
L 735.014975 273.030549 
L 744.283425 273.371962 
L 753.551875 273.607034 
L 762.820325 273.738441 
L 772.088775 273.819961 
L 781.357225 273.857437 
L 790.625675 273.879824 
L 799.894125 273.897345 
L 809.162575 273.923383 
L 818.431025 273.945528 
L 827.699475 273.954532 
L 836.967925 273.963292 
L 846.236375 273.973026 
L 855.504825 273.981056 
L 864.773275 273.983246 
L 874.041725 273.979353 
L 883.310175 273.978623 
L 892.578625 273.982273 
L 901.847075 273.983976 
L 911.115525 273.98422 
L 920.383975 273.98495 
L 929.652425 273.986897 
L 938.920875 273.98933 
L 948.189325 273.985923 
L 957.457775 273.967186 
L 966.726225 273.941391 
L 975.994675 273.671521 
L 985.263125 273.410168 
" style="fill:none;stroke:#5cb85c;stroke-linecap:square;"/>
   </g>
   <g id="line2d_15">
    <path clip-path="url(#pa3f741ba5f)" d="M 58.418125 273.989087 
L 67.686575 273.983733 
L 76.955025 273.978379 
L 86.223475 273.979109 
L 95.491925 273.976433 
L 104.760375 273.973026 
L 114.028825 273.968889 
L 123.297275 273.954045 
L 132.565725 273.92241 
L 141.834175 273.881771 
L 151.102625 273.859383 
L 160.371075 273.833102 
L 169.639525 273.79587 
L 178.907975 273.686365 
L 188.176425 273.496555 
L 197.444875 273.289955 
L 206.713325 272.979689 
L 215.981775 272.578899 
L 225.250225 272.018475 
L 234.518675 271.229305 
L 243.787125 270.409961 
L 253.055575 269.476487 
L 262.324025 268.324489 
L 271.592475 266.797983 
L 280.860925 264.900375 
L 290.129375 262.919785 
L 299.397825 260.675653 
L 308.666275 258.28673 
L 317.934725 256.027023 
L 327.203175 253.865628 
L 336.471625 251.660431 
L 345.740075 249.524101 
L 355.008525 247.875435 
L 364.276975 246.208031 
L 373.545425 243.72177 
L 382.813875 240.869031 
L 392.082325 237.552474 
L 401.350775 234.124466 
L 410.619225 231.34546 
L 419.887675 230.702298 
L 429.156125 233.242095 
L 438.424575 237.044369 
L 447.693025 240.398157 
L 456.961475 243.415398 
L 466.229925 246.117264 
L 475.498375 248.720087 
L 484.766825 251.563336 
L 494.035275 253.747606 
L 503.303725 255.748879 
L 512.572175 258.121498 
L 521.840625 260.092597 
L 531.109075 261.778008 
L 540.377525 263.295998 
L 549.645975 264.242368 
L 558.914425 265.081667 
L 568.182875 265.986426 
L 577.451325 266.879504 
L 586.719775 267.698605 
L 595.988225 268.358558 
L 605.256675 269.091758 
L 614.525125 269.79965 
L 623.793575 270.472744 
L 633.062025 271.091571 
L 642.330475 271.564878 
L 651.598925 271.942064 
L 660.867375 272.334094 
L 670.135825 272.731234 
L 679.404275 272.954138 
L 688.672725 273.054883 
L 697.941175 273.130077 
L 707.209625 273.221818 
L 716.478075 273.324267 
L 725.746525 273.479034 
L 735.014975 273.64816 
L 744.283425 273.765452 
L 753.551875 273.850136 
L 762.820325 273.900996 
L 772.088775 273.928737 
L 781.357225 273.944068 
L 790.625675 273.955018 
L 799.894125 273.958912 
L 809.162575 273.963049 
L 818.431025 273.972052 
L 827.699475 273.978623 
L 836.967925 273.979109 
L 846.236375 273.978136 
L 855.504825 273.980813 
L 864.773275 273.98495 
L 874.041725 273.987627 
L 883.310175 273.98787 
L 892.578625 273.98714 
L 901.847075 273.98641 
L 911.115525 273.98641 
L 920.383975 273.986897 
L 929.652425 273.9886 
L 938.920875 273.99006 
L 948.189325 273.9886 
L 957.457775 273.981056 
L 966.726225 273.971809 
L 975.994675 273.869117 
L 985.263125 273.767642 
" style="fill:none;stroke:#5cb85c;stroke-linecap:square;"/>
   </g>
   <g id="line2d_16">
    <path clip-path="url(#pa3f741ba5f)" d="M 58.418125 273.98422 
L 67.686575 273.979353 
L 76.955025 273.976189 
L 86.223475 273.967186 
L 95.491925 273.946744 
L 104.760375 273.926303 
L 114.028825 273.902212 
L 123.297275 273.873497 
L 132.565725 273.838456 
L 141.834175 273.807308 
L 151.102625 273.753285 
L 160.371075 273.626502 
L 169.639525 273.498745 
L 178.907975 273.269514 
L 188.176425 272.919826 
L 197.444875 272.538747 
L 206.713325 271.894855 
L 215.981775 271.033412 
L 225.250225 269.991893 
L 234.518675 268.609934 
L 243.787125 266.832781 
L 253.055575 264.305151 
L 262.324025 261.511058 
L 271.592475 258.677786 
L 280.860925 255.432044 
L 290.129375 251.731488 
L 299.397825 246.849004 
L 308.666275 241.683265 
L 317.934725 237.243426 
L 327.203175 233.137457 
L 336.471625 228.824644 
L 345.740075 224.517671 
L 355.008525 221.109617 
L 364.276975 217.923008 
L 373.545425 214.082285 
L 382.813875 210.503159 
L 392.082325 207.177356 
L 401.350775 204.86606 
L 410.619225 204.299308 
L 419.887675 205.662773 
L 429.156125 209.287162 
L 438.424575 214.157966 
L 447.693025 218.941895 
L 456.961475 223.265415 
L 466.229925 227.48746 
L 475.498375 231.318205 
L 484.766825 235.109529 
L 494.035275 238.478161 
L 503.303725 241.711979 
L 512.572175 245.087669 
L 521.840625 247.806081 
L 531.109075 250.249271 
L 540.377525 252.540612 
L 549.645975 254.336989 
L 558.914425 256.03116 
L 568.182875 257.786655 
L 577.451325 259.711518 
L 586.719775 261.517142 
L 595.988225 263.014447 
L 605.256675 264.433151 
L 614.525125 265.619704 
L 623.793575 266.829375 
L 633.062025 268.008627 
L 642.330475 269.018998 
L 651.598925 269.906722 
L 660.867375 270.676181 
L 670.135825 271.404027 
L 679.404275 271.891692 
L 688.672725 272.19125 
L 697.941175 272.474991 
L 707.209625 272.669667 
L 716.478075 272.765789 
L 725.746525 272.983826 
L 735.014975 273.285575 
L 744.283425 273.543278 
L 753.551875 273.710943 
L 762.820325 273.795627 
L 772.088775 273.845513 
L 781.357225 273.870821 
L 790.625675 273.905862 
L 799.894125 273.936767 
L 809.162575 273.951125 
L 818.431025 273.960129 
L 827.699475 273.964995 
L 836.967925 273.969376 
L 846.236375 273.974973 
L 855.504825 273.978866 
L 864.773275 273.982516 
L 874.041725 273.98495 
L 883.310175 273.98568 
L 892.578625 273.985923 
L 901.847075 273.985436 
L 911.115525 273.98568 
L 920.383975 273.986897 
L 929.652425 273.98787 
L 938.920875 273.988843 
L 948.189325 273.987383 
L 957.457775 273.973026 
L 966.726225 273.947231 
L 975.994675 273.745741 
L 985.263125 273.554715 
" style="fill:none;stroke:#5cb85c;stroke-linecap:square;"/>
   </g>
   <g id="line2d_17">
    <path clip-path="url(#pa3f741ba5f)" d="M 58.418125 273.99006 
L 985.263125 273.99006 
" style="fill:none;stroke:#dedede;stroke-linecap:square;stroke-width:2;"/>
   </g>
   <g id="text_14">
    <!-- FastQC: Per Sequence GC Content -->
    <defs>
     <path d="M 9.8125 72.90625 
L 51.703125 72.90625 
L 51.703125 64.59375 
L 19.671875 64.59375 
L 19.671875 43.109375 
L 48.578125 43.109375 
L 48.578125 34.8125 
L 19.671875 34.8125 
L 19.671875 0 
L 9.8125 0 
z
" id="DejaVuSans-70"/>
     <path d="M 34.28125 27.484375 
Q 23.390625 27.484375 19.1875 25 
Q 14.984375 22.515625 14.984375 16.5 
Q 14.984375 11.71875 18.140625 8.90625 
Q 21.296875 6.109375 26.703125 6.109375 
Q 34.1875 6.109375 38.703125 11.40625 
Q 43.21875 16.703125 43.21875 25.484375 
L 43.21875 27.484375 
z
M 52.203125 31.203125 
L 52.203125 0 
L 43.21875 0 
L 43.21875 8.296875 
Q 40.140625 3.328125 35.546875 0.953125 
Q 30.953125 -1.421875 24.3125 -1.421875 
Q 15.921875 -1.421875 10.953125 3.296875 
Q 6 8.015625 6 15.921875 
Q 6 25.140625 12.171875 29.828125 
Q 18.359375 34.515625 30.609375 34.515625 
L 43.21875 34.515625 
L 43.21875 35.40625 
Q 43.21875 41.609375 39.140625 45 
Q 35.0625 48.390625 27.6875 48.390625 
Q 23 48.390625 18.546875 47.265625 
Q 14.109375 46.140625 10.015625 43.890625 
L 10.015625 52.203125 
Q 14.9375 54.109375 19.578125 55.046875 
Q 24.21875 56 28.609375 56 
Q 40.484375 56 46.34375 49.84375 
Q 52.203125 43.703125 52.203125 31.203125 
z
" id="DejaVuSans-97"/>
     <path d="M 44.28125 53.078125 
L 44.28125 44.578125 
Q 40.484375 46.53125 36.375 47.5 
Q 32.28125 48.484375 27.875 48.484375 
Q 21.1875 48.484375 17.84375 46.4375 
Q 14.5 44.390625 14.5 40.28125 
Q 14.5 37.15625 16.890625 35.375 
Q 19.28125 33.59375 26.515625 31.984375 
L 29.59375 31.296875 
Q 39.15625 29.25 43.1875 25.515625 
Q 47.21875 21.78125 47.21875 15.09375 
Q 47.21875 7.46875 41.1875 3.015625 
Q 35.15625 -1.421875 24.609375 -1.421875 
Q 20.21875 -1.421875 15.453125 -0.5625 
Q 10.6875 0.296875 5.421875 2 
L 5.421875 11.28125 
Q 10.40625 8.6875 15.234375 7.390625 
Q 20.0625 6.109375 24.8125 6.109375 
Q 31.15625 6.109375 34.5625 8.28125 
Q 37.984375 10.453125 37.984375 14.40625 
Q 37.984375 18.0625 35.515625 20.015625 
Q 33.0625 21.96875 24.703125 23.78125 
L 21.578125 24.515625 
Q 13.234375 26.265625 9.515625 29.90625 
Q 5.8125 33.546875 5.8125 39.890625 
Q 5.8125 47.609375 11.28125 51.796875 
Q 16.75 56 26.8125 56 
Q 31.78125 56 36.171875 55.265625 
Q 40.578125 54.546875 44.28125 53.078125 
z
" id="DejaVuSans-115"/>
     <path d="M 39.40625 66.21875 
Q 28.65625 66.21875 22.328125 58.203125 
Q 16.015625 50.203125 16.015625 36.375 
Q 16.015625 22.609375 22.328125 14.59375 
Q 28.65625 6.59375 39.40625 6.59375 
Q 50.140625 6.59375 56.421875 14.59375 
Q 62.703125 22.609375 62.703125 36.375 
Q 62.703125 50.203125 56.421875 58.203125 
Q 50.140625 66.21875 39.40625 66.21875 
z
M 53.21875 1.3125 
L 66.21875 -12.890625 
L 54.296875 -12.890625 
L 43.5 -1.21875 
Q 41.890625 -1.3125 41.03125 -1.359375 
Q 40.1875 -1.421875 39.40625 -1.421875 
Q 24.03125 -1.421875 14.8125 8.859375 
Q 5.609375 19.140625 5.609375 36.375 
Q 5.609375 53.65625 14.8125 63.9375 
Q 24.03125 74.21875 39.40625 74.21875 
Q 54.734375 74.21875 63.90625 63.9375 
Q 73.09375 53.65625 73.09375 36.375 
Q 73.09375 23.6875 67.984375 14.640625 
Q 62.890625 5.609375 53.21875 1.3125 
z
" id="DejaVuSans-81"/>
     <path d="M 11.71875 12.40625 
L 22.015625 12.40625 
L 22.015625 0 
L 11.71875 0 
z
M 11.71875 51.703125 
L 22.015625 51.703125 
L 22.015625 39.3125 
L 11.71875 39.3125 
z
" id="DejaVuSans-58"/>
     <path d="M 19.671875 64.796875 
L 19.671875 37.40625 
L 32.078125 37.40625 
Q 38.96875 37.40625 42.71875 40.96875 
Q 46.484375 44.53125 46.484375 51.125 
Q 46.484375 57.671875 42.71875 61.234375 
Q 38.96875 64.796875 32.078125 64.796875 
z
M 9.8125 72.90625 
L 32.078125 72.90625 
Q 44.34375 72.90625 50.609375 67.359375 
Q 56.890625 61.8125 56.890625 51.125 
Q 56.890625 40.328125 50.609375 34.8125 
Q 44.34375 29.296875 32.078125 29.296875 
L 19.671875 29.296875 
L 19.671875 0 
L 9.8125 0 
z
" id="DejaVuSans-80"/>
     <path d="M 56.203125 29.59375 
L 56.203125 25.203125 
L 14.890625 25.203125 
Q 15.484375 15.921875 20.484375 11.0625 
Q 25.484375 6.203125 34.421875 6.203125 
Q 39.59375 6.203125 44.453125 7.46875 
Q 49.3125 8.734375 54.109375 11.28125 
L 54.109375 2.78125 
Q 49.265625 0.734375 44.1875 -0.34375 
Q 39.109375 -1.421875 33.890625 -1.421875 
Q 20.796875 -1.421875 13.15625 6.1875 
Q 5.515625 13.8125 5.515625 26.8125 
Q 5.515625 40.234375 12.765625 48.109375 
Q 20.015625 56 32.328125 56 
Q 43.359375 56 49.78125 48.890625 
Q 56.203125 41.796875 56.203125 29.59375 
z
M 47.21875 32.234375 
Q 47.125 39.59375 43.09375 43.984375 
Q 39.0625 48.390625 32.421875 48.390625 
Q 24.90625 48.390625 20.390625 44.140625 
Q 15.875 39.890625 15.1875 32.171875 
z
" id="DejaVuSans-101"/>
     <path d="M 41.109375 46.296875 
Q 39.59375 47.171875 37.8125 47.578125 
Q 36.03125 48 33.890625 48 
Q 26.265625 48 22.1875 43.046875 
Q 18.109375 38.09375 18.109375 28.8125 
L 18.109375 0 
L 9.078125 0 
L 9.078125 54.6875 
L 18.109375 54.6875 
L 18.109375 46.1875 
Q 20.953125 51.171875 25.484375 53.578125 
Q 30.03125 56 36.53125 56 
Q 37.453125 56 38.578125 55.875 
Q 39.703125 55.765625 41.0625 55.515625 
z
" id="DejaVuSans-114"/>
     <path d="M 53.515625 70.515625 
L 53.515625 60.890625 
Q 47.90625 63.578125 42.921875 64.890625 
Q 37.9375 66.21875 33.296875 66.21875 
Q 25.25 66.21875 20.875 63.09375 
Q 16.5 59.96875 16.5 54.203125 
Q 16.5 49.359375 19.40625 46.890625 
Q 22.3125 44.4375 30.421875 42.921875 
L 36.375 41.703125 
Q 47.40625 39.59375 52.65625 34.296875 
Q 57.90625 29 57.90625 20.125 
Q 57.90625 9.515625 50.796875 4.046875 
Q 43.703125 -1.421875 29.984375 -1.421875 
Q 24.8125 -1.421875 18.96875 -0.25 
Q 13.140625 0.921875 6.890625 3.21875 
L 6.890625 13.375 
Q 12.890625 10.015625 18.65625 8.296875 
Q 24.421875 6.59375 29.984375 6.59375 
Q 38.421875 6.59375 43.015625 9.90625 
Q 47.609375 13.234375 47.609375 19.390625 
Q 47.609375 24.75 44.3125 27.78125 
Q 41.015625 30.8125 33.5 32.328125 
L 27.484375 33.5 
Q 16.453125 35.6875 11.515625 40.375 
Q 6.59375 45.0625 6.59375 53.421875 
Q 6.59375 63.09375 13.40625 68.65625 
Q 20.21875 74.21875 32.171875 74.21875 
Q 37.3125 74.21875 42.625 73.28125 
Q 47.953125 72.359375 53.515625 70.515625 
z
" id="DejaVuSans-83"/>
     <path d="M 14.796875 27.296875 
Q 14.796875 17.390625 18.875 11.75 
Q 22.953125 6.109375 30.078125 6.109375 
Q 37.203125 6.109375 41.296875 11.75 
Q 45.40625 17.390625 45.40625 27.296875 
Q 45.40625 37.203125 41.296875 42.84375 
Q 37.203125 48.484375 30.078125 48.484375 
Q 22.953125 48.484375 18.875 42.84375 
Q 14.796875 37.203125 14.796875 27.296875 
z
M 45.40625 8.203125 
Q 42.578125 3.328125 38.25 0.953125 
Q 33.9375 -1.421875 27.875 -1.421875 
Q 17.96875 -1.421875 11.734375 6.484375 
Q 5.515625 14.40625 5.515625 27.296875 
Q 5.515625 40.1875 11.734375 48.09375 
Q 17.96875 56 27.875 56 
Q 33.9375 56 38.25 53.625 
Q 42.578125 51.265625 45.40625 46.390625 
L 45.40625 54.6875 
L 54.390625 54.6875 
L 54.390625 -20.796875 
L 45.40625 -20.796875 
z
" id="DejaVuSans-113"/>
     <path d="M 48.78125 52.59375 
L 48.78125 44.1875 
Q 44.96875 46.296875 41.140625 47.34375 
Q 37.3125 48.390625 33.40625 48.390625 
Q 24.65625 48.390625 19.8125 42.84375 
Q 14.984375 37.3125 14.984375 27.296875 
Q 14.984375 17.28125 19.8125 11.734375 
Q 24.65625 6.203125 33.40625 6.203125 
Q 37.3125 6.203125 41.140625 7.25 
Q 44.96875 8.296875 48.78125 10.40625 
L 48.78125 2.09375 
Q 45.015625 0.34375 40.984375 -0.53125 
Q 36.96875 -1.421875 32.421875 -1.421875 
Q 20.0625 -1.421875 12.78125 6.34375 
Q 5.515625 14.109375 5.515625 27.296875 
Q 5.515625 40.671875 12.859375 48.328125 
Q 20.21875 56 33.015625 56 
Q 37.15625 56 41.109375 55.140625 
Q 45.0625 54.296875 48.78125 52.59375 
z
" id="DejaVuSans-99"/>
    </defs>
    <g transform="translate(384.199375 19.3575)scale(0.16 -0.16)">
     <use xlink:href="#DejaVuSans-70"/>
     <use x="57.378906" xlink:href="#DejaVuSans-97"/>
     <use x="118.658203" xlink:href="#DejaVuSans-115"/>
     <use x="170.757812" xlink:href="#DejaVuSans-116"/>
     <use x="209.966797" xlink:href="#DejaVuSans-81"/>
     <use x="288.677734" xlink:href="#DejaVuSans-67"/>
     <use x="358.501953" xlink:href="#DejaVuSans-58"/>
     <use x="392.193359" xlink:href="#DejaVuSans-32"/>
     <use x="423.980469" xlink:href="#DejaVuSans-80"/>
     <use x="484.236328" xlink:href="#DejaVuSans-101"/>
     <use x="545.759766" xlink:href="#DejaVuSans-114"/>
     <use x="586.873047" xlink:href="#DejaVuSans-32"/>
     <use x="618.660156" xlink:href="#DejaVuSans-83"/>
     <use x="682.136719" xlink:href="#DejaVuSans-101"/>
     <use x="743.660156" xlink:href="#DejaVuSans-113"/>
     <use x="807.136719" xlink:href="#DejaVuSans-117"/>
     <use x="870.515625" xlink:href="#DejaVuSans-101"/>
     <use x="932.039062" xlink:href="#DejaVuSans-110"/>
     <use x="995.417969" xlink:href="#DejaVuSans-99"/>
     <use x="1050.398438" xlink:href="#DejaVuSans-101"/>
     <use x="1111.921875" xlink:href="#DejaVuSans-32"/>
     <use x="1143.708984" xlink:href="#DejaVuSans-71"/>
     <use x="1221.199219" xlink:href="#DejaVuSans-67"/>
     <use x="1291.023438" xlink:href="#DejaVuSans-32"/>
     <use x="1322.810547" xlink:href="#DejaVuSans-67"/>
     <use x="1392.634766" xlink:href="#DejaVuSans-111"/>
     <use x="1453.816406" xlink:href="#DejaVuSans-110"/>
     <use x="1517.195312" xlink:href="#DejaVuSans-116"/>
     <use x="1556.404297" xlink:href="#DejaVuSans-101"/>
     <use x="1617.927734" xlink:href="#DejaVuSans-110"/>
     <use x="1681.306641" xlink:href="#DejaVuSans-116"/>
    </g>
   </g>
   <g id="legend_1">
    <g id="line2d_18">
     <path d="M 65.618125 291.525394 
L 81.618125 291.525394 
" style="fill:none;stroke:#5cb85c;stroke-linecap:square;"/>
    </g>
    <g id="line2d_19"/>
    <g id="text_15">
     <!-- RT_Gad2_1 -->
     <defs>
      <path d="M 44.390625 34.1875 
Q 47.5625 33.109375 50.5625 29.59375 
Q 53.5625 26.078125 56.59375 19.921875 
L 66.609375 0 
L 56 0 
L 46.6875 18.703125 
Q 43.0625 26.03125 39.671875 28.421875 
Q 36.28125 30.8125 30.421875 30.8125 
L 19.671875 30.8125 
L 19.671875 0 
L 9.8125 0 
L 9.8125 72.90625 
L 32.078125 72.90625 
Q 44.578125 72.90625 50.734375 67.671875 
Q 56.890625 62.453125 56.890625 51.90625 
Q 56.890625 45.015625 53.6875 40.46875 
Q 50.484375 35.9375 44.390625 34.1875 
z
M 19.671875 64.796875 
L 19.671875 38.921875 
L 32.078125 38.921875 
Q 39.203125 38.921875 42.84375 42.21875 
Q 46.484375 45.515625 46.484375 51.90625 
Q 46.484375 58.296875 42.84375 61.546875 
Q 39.203125 64.796875 32.078125 64.796875 
z
" id="DejaVuSans-82"/>
      <path d="M -0.296875 72.90625 
L 61.375 72.90625 
L 61.375 64.59375 
L 35.5 64.59375 
L 35.5 0 
L 25.59375 0 
L 25.59375 64.59375 
L -0.296875 64.59375 
z
" id="DejaVuSans-84"/>
      <path d="M 50.984375 -16.609375 
L 50.984375 -23.578125 
L -0.984375 -23.578125 
L -0.984375 -16.609375 
z
" id="DejaVuSans-95"/>
      <path d="M 45.40625 46.390625 
L 45.40625 75.984375 
L 54.390625 75.984375 
L 54.390625 0 
L 45.40625 0 
L 45.40625 8.203125 
Q 42.578125 3.328125 38.25 0.953125 
Q 33.9375 -1.421875 27.875 -1.421875 
Q 17.96875 -1.421875 11.734375 6.484375 
Q 5.515625 14.40625 5.515625 27.296875 
Q 5.515625 40.1875 11.734375 48.09375 
Q 17.96875 56 27.875 56 
Q 33.9375 56 38.25 53.625 
Q 42.578125 51.265625 45.40625 46.390625 
z
M 14.796875 27.296875 
Q 14.796875 17.390625 18.875 11.75 
Q 22.953125 6.109375 30.078125 6.109375 
Q 37.203125 6.109375 41.296875 11.75 
Q 45.40625 17.390625 45.40625 27.296875 
Q 45.40625 37.203125 41.296875 42.84375 
Q 37.203125 48.484375 30.078125 48.484375 
Q 22.953125 48.484375 18.875 42.84375 
Q 14.796875 37.203125 14.796875 27.296875 
z
" id="DejaVuSans-100"/>
     </defs>
     <g transform="translate(88.018125 294.325394)scale(0.08 -0.08)">
      <use xlink:href="#DejaVuSans-82"/>
      <use x="69.373047" xlink:href="#DejaVuSans-84"/>
      <use x="130.457031" xlink:href="#DejaVuSans-95"/>
      <use x="180.457031" xlink:href="#DejaVuSans-71"/>
      <use x="257.947266" xlink:href="#DejaVuSans-97"/>
      <use x="319.226562" xlink:href="#DejaVuSans-100"/>
      <use x="382.703125" xlink:href="#DejaVuSans-50"/>
      <use x="446.326172" xlink:href="#DejaVuSans-95"/>
      <use x="496.326172" xlink:href="#DejaVuSans-49"/>
     </g>
    </g>
    <g id="line2d_20">
     <path d="M 65.618125 303.490394 
L 81.618125 303.490394 
" style="fill:none;stroke:#5cb85c;stroke-linecap:square;"/>
    </g>
    <g id="line2d_21"/>
    <g id="text_16">
     <!-- RT_Gad2_2 -->
     <g transform="translate(88.018125 306.290394)scale(0.08 -0.08)">
      <use xlink:href="#DejaVuSans-82"/>
      <use x="69.373047" xlink:href="#DejaVuSans-84"/>
      <use x="130.457031" xlink:href="#DejaVuSans-95"/>
      <use x="180.457031" xlink:href="#DejaVuSans-71"/>
      <use x="257.947266" xlink:href="#DejaVuSans-97"/>
      <use x="319.226562" xlink:href="#DejaVuSans-100"/>
      <use x="382.703125" xlink:href="#DejaVuSans-50"/>
      <use x="446.326172" xlink:href="#DejaVuSans-95"/>
      <use x="496.326172" xlink:href="#DejaVuSans-50"/>
     </g>
    </g>
    <g id="line2d_22">
     <path d="M 65.618125 315.455394 
L 81.618125 315.455394 
" style="fill:none;stroke:#5cb85c;stroke-linecap:square;"/>
    </g>
    <g id="line2d_23"/>
    <g id="text_17">
     <!-- RT_Gad2_3 -->
     <g transform="translate(88.018125 318.255394)scale(0.08 -0.08)">
      <use xlink:href="#DejaVuSans-82"/>
      <use x="69.373047" xlink:href="#DejaVuSans-84"/>
      <use x="130.457031" xlink:href="#DejaVuSans-95"/>
      <use x="180.457031" xlink:href="#DejaVuSans-71"/>
      <use x="257.947266" xlink:href="#DejaVuSans-97"/>
      <use x="319.226562" xlink:href="#DejaVuSans-100"/>
      <use x="382.703125" xlink:href="#DejaVuSans-50"/>
      <use x="446.326172" xlink:href="#DejaVuSans-95"/>
      <use x="496.326172" xlink:href="#DejaVuSans-51"/>
     </g>
    </g>
    <g id="line2d_24">
     <path d="M 271.931563 291.525394 
L 287.931563 291.525394 
" style="fill:none;stroke:#f0ad4e;stroke-linecap:square;"/>
    </g>
    <g id="line2d_25"/>
    <g id="text_18">
     <!-- RT_vGluT2_1 -->
     <defs>
      <path d="M 2.984375 54.6875 
L 12.5 54.6875 
L 29.59375 8.796875 
L 46.6875 54.6875 
L 56.203125 54.6875 
L 35.6875 0 
L 23.484375 0 
z
" id="DejaVuSans-118"/>
      <path d="M 9.421875 75.984375 
L 18.40625 75.984375 
L 18.40625 0 
L 9.421875 0 
z
" id="DejaVuSans-108"/>
     </defs>
     <g transform="translate(294.331563 294.325394)scale(0.08 -0.08)">
      <use xlink:href="#DejaVuSans-82"/>
      <use x="69.373047" xlink:href="#DejaVuSans-84"/>
      <use x="130.457031" xlink:href="#DejaVuSans-95"/>
      <use x="180.457031" xlink:href="#DejaVuSans-118"/>
      <use x="239.636719" xlink:href="#DejaVuSans-71"/>
      <use x="317.126953" xlink:href="#DejaVuSans-108"/>
      <use x="344.910156" xlink:href="#DejaVuSans-117"/>
      <use x="408.289062" xlink:href="#DejaVuSans-84"/>
      <use x="469.373047" xlink:href="#DejaVuSans-50"/>
      <use x="532.996094" xlink:href="#DejaVuSans-95"/>
      <use x="582.996094" xlink:href="#DejaVuSans-49"/>
     </g>
    </g>
    <g id="line2d_26">
     <path d="M 271.931563 303.490394 
L 287.931563 303.490394 
" style="fill:none;stroke:#5cb85c;stroke-linecap:square;"/>
    </g>
    <g id="line2d_27"/>
    <g id="text_19">
     <!-- RT_vGluT2_3 -->
     <g transform="translate(294.331563 306.290394)scale(0.08 -0.08)">
      <use xlink:href="#DejaVuSans-82"/>
      <use x="69.373047" xlink:href="#DejaVuSans-84"/>
      <use x="130.457031" xlink:href="#DejaVuSans-95"/>
      <use x="180.457031" xlink:href="#DejaVuSans-118"/>
      <use x="239.636719" xlink:href="#DejaVuSans-71"/>
      <use x="317.126953" xlink:href="#DejaVuSans-108"/>
      <use x="344.910156" xlink:href="#DejaVuSans-117"/>
      <use x="408.289062" xlink:href="#DejaVuSans-84"/>
      <use x="469.373047" xlink:href="#DejaVuSans-50"/>
      <use x="532.996094" xlink:href="#DejaVuSans-95"/>
      <use x="582.996094" xlink:href="#DejaVuSans-51"/>
     </g>
    </g>
    <g id="line2d_28">
     <path d="M 485.1775 291.525394 
L 501.1775 291.525394 
" style="fill:none;stroke:#5cb85c;stroke-linecap:square;"/>
    </g>
    <g id="line2d_29"/>
    <g id="text_20">
     <!-- S1_Gad2_1 -->
     <g transform="translate(507.5775 294.325394)scale(0.08 -0.08)">
      <use xlink:href="#DejaVuSans-83"/>
      <use x="63.476562" xlink:href="#DejaVuSans-49"/>
      <use x="127.099609" xlink:href="#DejaVuSans-95"/>
      <use x="177.099609" xlink:href="#DejaVuSans-71"/>
      <use x="254.589844" xlink:href="#DejaVuSans-97"/>
      <use x="315.869141" xlink:href="#DejaVuSans-100"/>
      <use x="379.345703" xlink:href="#DejaVuSans-50"/>
      <use x="442.96875" xlink:href="#DejaVuSans-95"/>
      <use x="492.96875" xlink:href="#DejaVuSans-49"/>
     </g>
    </g>
    <g id="line2d_30">
     <path d="M 485.1775 303.490394 
L 501.1775 303.490394 
" style="fill:none;stroke:#5cb85c;stroke-linecap:square;"/>
    </g>
    <g id="line2d_31"/>
    <g id="text_21">
     <!-- S1_Gad2_2 -->
     <g transform="translate(507.5775 306.290394)scale(0.08 -0.08)">
      <use xlink:href="#DejaVuSans-83"/>
      <use x="63.476562" xlink:href="#DejaVuSans-49"/>
      <use x="127.099609" xlink:href="#DejaVuSans-95"/>
      <use x="177.099609" xlink:href="#DejaVuSans-71"/>
      <use x="254.589844" xlink:href="#DejaVuSans-97"/>
      <use x="315.869141" xlink:href="#DejaVuSans-100"/>
      <use x="379.345703" xlink:href="#DejaVuSans-50"/>
      <use x="442.96875" xlink:href="#DejaVuSans-95"/>
      <use x="492.96875" xlink:href="#DejaVuSans-50"/>
     </g>
    </g>
    <g id="line2d_32">
     <path d="M 691.223438 291.525394 
L 707.223438 291.525394 
" style="fill:none;stroke:#5cb85c;stroke-linecap:square;"/>
    </g>
    <g id="line2d_33"/>
    <g id="text_22">
     <!-- S1_Gad2_3 -->
     <g transform="translate(713.623438 294.325394)scale(0.08 -0.08)">
      <use xlink:href="#DejaVuSans-83"/>
      <use x="63.476562" xlink:href="#DejaVuSans-49"/>
      <use x="127.099609" xlink:href="#DejaVuSans-95"/>
      <use x="177.099609" xlink:href="#DejaVuSans-71"/>
      <use x="254.589844" xlink:href="#DejaVuSans-97"/>
      <use x="315.869141" xlink:href="#DejaVuSans-100"/>
      <use x="379.345703" xlink:href="#DejaVuSans-50"/>
      <use x="442.96875" xlink:href="#DejaVuSans-95"/>
      <use x="492.96875" xlink:href="#DejaVuSans-51"/>
     </g>
    </g>
    <g id="line2d_34">
     <path d="M 691.223438 303.490394 
L 707.223438 303.490394 
" style="fill:none;stroke:#5cb85c;stroke-linecap:square;"/>
    </g>
    <g id="line2d_35"/>
    <g id="text_23">
     <!-- S1_vGluT2_1 -->
     <g transform="translate(713.623438 306.290394)scale(0.08 -0.08)">
      <use xlink:href="#DejaVuSans-83"/>
      <use x="63.476562" xlink:href="#DejaVuSans-49"/>
      <use x="127.099609" xlink:href="#DejaVuSans-95"/>
      <use x="177.099609" xlink:href="#DejaVuSans-118"/>
      <use x="236.279297" xlink:href="#DejaVuSans-71"/>
      <use x="313.769531" xlink:href="#DejaVuSans-108"/>
      <use x="341.552734" xlink:href="#DejaVuSans-117"/>
      <use x="404.931641" xlink:href="#DejaVuSans-84"/>
      <use x="466.015625" xlink:href="#DejaVuSans-50"/>
      <use x="529.638672" xlink:href="#DejaVuSans-95"/>
      <use x="579.638672" xlink:href="#DejaVuSans-49"/>
     </g>
    </g>
    <g id="line2d_36">
     <path d="M 904.201875 291.525394 
L 920.201875 291.525394 
" style="fill:none;stroke:#5cb85c;stroke-linecap:square;"/>
    </g>
    <g id="line2d_37"/>
    <g id="text_24">
     <!-- S1_vGluT2_2 -->
     <g transform="translate(926.601875 294.325394)scale(0.08 -0.08)">
      <use xlink:href="#DejaVuSans-83"/>
      <use x="63.476562" xlink:href="#DejaVuSans-49"/>
      <use x="127.099609" xlink:href="#DejaVuSans-95"/>
      <use x="177.099609" xlink:href="#DejaVuSans-118"/>
      <use x="236.279297" xlink:href="#DejaVuSans-71"/>
      <use x="313.769531" xlink:href="#DejaVuSans-108"/>
      <use x="341.552734" xlink:href="#DejaVuSans-117"/>
      <use x="404.931641" xlink:href="#DejaVuSans-84"/>
      <use x="466.015625" xlink:href="#DejaVuSans-50"/>
      <use x="529.638672" xlink:href="#DejaVuSans-95"/>
      <use x="579.638672" xlink:href="#DejaVuSans-50"/>
     </g>
    </g>
    <g id="line2d_38">
     <path d="M 904.201875 303.490394 
L 920.201875 303.490394 
" style="fill:none;stroke:#5cb85c;stroke-linecap:square;"/>
    </g>
    <g id="line2d_39"/>
    <g id="text_25">
     <!-- S1_vGluT2_3 -->
     <g transform="translate(926.601875 306.290394)scale(0.08 -0.08)">
      <use xlink:href="#DejaVuSans-83"/>
      <use x="63.476562" xlink:href="#DejaVuSans-49"/>
      <use x="127.099609" xlink:href="#DejaVuSans-95"/>
      <use x="177.099609" xlink:href="#DejaVuSans-118"/>
      <use x="236.279297" xlink:href="#DejaVuSans-71"/>
      <use x="313.769531" xlink:href="#DejaVuSans-108"/>
      <use x="341.552734" xlink:href="#DejaVuSans-117"/>
      <use x="404.931641" xlink:href="#DejaVuSans-84"/>
      <use x="466.015625" xlink:href="#DejaVuSans-50"/>
      <use x="529.638672" xlink:href="#DejaVuSans-95"/>
      <use x="579.638672" xlink:href="#DejaVuSans-51"/>
     </g>
    </g>
   </g>
  </g>
 </g>
 <defs>
  <clipPath id="pa3f741ba5f">
   <rect height="242.5072" width="926.845" x="58.418125" y="31.48286"/>
  </clipPath>
 </defs>
</svg>
