<?xml version="1.0" encoding="utf-8" standalone="no"?>
<!DOCTYPE svg PUBLIC "-//W3C//DTD SVG 1.1//EN"
  "http://www.w3.org/Graphics/SVG/1.1/DTD/svg11.dtd">
<!-- Created with matplotlib (https://matplotlib.org/) -->
<svg height="330.541644pt" version="1.1" viewBox="0 0 1000.198125 330.541644" width="1000.198125pt" xmlns="http://www.w3.org/2000/svg" xmlns:xlink="http://www.w3.org/1999/xlink">
 <defs>
  <style type="text/css">
*{stroke-linecap:butt;stroke-linejoin:round;}
  </style>
 </defs>
 <g id="figure_1">
  <g id="axes_1">
   <g id="patch_1">
    <path d="M 53.328125 273.99006 
L 992.998125 273.99006 
L 992.998125 31.48286 
L 53.328125 31.48286 
z
" style="fill:#ffffff;"/>
   </g>
   <g id="matplotlib.axis_1">
    <g id="xtick_1">
     <g id="text_1">
      <!-- 0 -->
      <defs>
       <path d="M 31.78125 66.40625 
Q 24.171875 66.40625 20.328125 58.90625 
Q 16.5 51.421875 16.5 36.375 
Q 16.5 21.390625 20.328125 13.890625 
Q 24.171875 6.390625 31.78125 6.390625 
Q 39.453125 6.390625 43.28125 13.890625 
Q 47.125 21.390625 47.125 36.375 
Q 47.125 51.421875 43.28125 58.90625 
Q 39.453125 66.40625 31.78125 66.40625 
z
M 31.78125 74.21875 
Q 44.046875 74.21875 50.515625 64.515625 
Q 56.984375 54.828125 56.984375 36.375 
Q 56.984375 17.96875 50.515625 8.265625 
Q 44.046875 -1.421875 31.78125 -1.421875 
Q 19.53125 -1.421875 13.0625 8.265625 
Q 6.59375 17.96875 6.59375 36.375 
Q 6.59375 54.828125 13.0625 64.515625 
Q 19.53125 74.21875 31.78125 74.21875 
z
" id="DejaVuSans-48"/>
      </defs>
      <g transform="translate(70.407683 287.06881)scale(0.08 -0.08)">
       <use xlink:href="#DejaVuSans-48"/>
      </g>
     </g>
    </g>
    <g id="xtick_2">
     <g id="text_2">
      <!-- 20 -->
      <defs>
       <path d="M 19.1875 8.296875 
L 53.609375 8.296875 
L 53.609375 0 
L 7.328125 0 
L 7.328125 8.296875 
Q 12.9375 14.109375 22.625 23.890625 
Q 32.328125 33.6875 34.8125 36.53125 
Q 39.546875 41.84375 41.421875 45.53125 
Q 43.3125 49.21875 43.3125 52.78125 
Q 43.3125 58.59375 39.234375 62.25 
Q 35.15625 65.921875 28.609375 65.921875 
Q 23.96875 65.921875 18.8125 64.3125 
Q 13.671875 62.703125 7.8125 59.421875 
L 7.8125 69.390625 
Q 13.765625 71.78125 18.9375 73 
Q 24.125 74.21875 28.421875 74.21875 
Q 39.75 74.21875 46.484375 68.546875 
Q 53.21875 62.890625 53.21875 53.421875 
Q 53.21875 48.921875 51.53125 44.890625 
Q 49.859375 40.875 45.40625 35.40625 
Q 44.1875 33.984375 37.640625 27.21875 
Q 31.109375 20.453125 19.1875 8.296875 
z
" id="DejaVuSans-50"/>
      </defs>
      <g transform="translate(221.780783 287.06881)scale(0.08 -0.08)">
       <use xlink:href="#DejaVuSans-50"/>
       <use x="63.623047" xlink:href="#DejaVuSans-48"/>
      </g>
     </g>
    </g>
    <g id="xtick_3">
     <g id="text_3">
      <!-- 40 -->
      <defs>
       <path d="M 37.796875 64.3125 
L 12.890625 25.390625 
L 37.796875 25.390625 
z
M 35.203125 72.90625 
L 47.609375 72.90625 
L 47.609375 25.390625 
L 58.015625 25.390625 
L 58.015625 17.1875 
L 47.609375 17.1875 
L 47.609375 0 
L 37.796875 0 
L 37.796875 17.1875 
L 4.890625 17.1875 
L 4.890625 26.703125 
z
" id="DejaVuSans-52"/>
      </defs>
      <g transform="translate(375.698883 287.06881)scale(0.08 -0.08)">
       <use xlink:href="#DejaVuSans-52"/>
       <use x="63.623047" xlink:href="#DejaVuSans-48"/>
      </g>
     </g>
    </g>
    <g id="xtick_4">
     <g id="text_4">
      <!-- 60 -->
      <defs>
       <path d="M 33.015625 40.375 
Q 26.375 40.375 22.484375 35.828125 
Q 18.609375 31.296875 18.609375 23.390625 
Q 18.609375 15.53125 22.484375 10.953125 
Q 26.375 6.390625 33.015625 6.390625 
Q 39.65625 6.390625 43.53125 10.953125 
Q 47.40625 15.53125 47.40625 23.390625 
Q 47.40625 31.296875 43.53125 35.828125 
Q 39.65625 40.375 33.015625 40.375 
z
M 52.59375 71.296875 
L 52.59375 62.3125 
Q 48.875 64.0625 45.09375 64.984375 
Q 41.3125 65.921875 37.59375 65.921875 
Q 27.828125 65.921875 22.671875 59.328125 
Q 17.53125 52.734375 16.796875 39.40625 
Q 19.671875 43.65625 24.015625 45.921875 
Q 28.375 48.1875 33.59375 48.1875 
Q 44.578125 48.1875 50.953125 41.515625 
Q 57.328125 34.859375 57.328125 23.390625 
Q 57.328125 12.15625 50.6875 5.359375 
Q 44.046875 -1.421875 33.015625 -1.421875 
Q 20.359375 -1.421875 13.671875 8.265625 
Q 6.984375 17.96875 6.984375 36.375 
Q 6.984375 53.65625 15.1875 63.9375 
Q 23.390625 74.21875 37.203125 74.21875 
Q 40.921875 74.21875 44.703125 73.484375 
Q 48.484375 72.75 52.59375 71.296875 
z
" id="DejaVuSans-54"/>
      </defs>
      <g transform="translate(529.616982 287.06881)scale(0.08 -0.08)">
       <use xlink:href="#DejaVuSans-54"/>
       <use x="63.623047" xlink:href="#DejaVuSans-48"/>
      </g>
     </g>
    </g>
    <g id="xtick_5">
     <g id="text_5">
      <!-- 80 -->
      <defs>
       <path d="M 31.78125 34.625 
Q 24.75 34.625 20.71875 30.859375 
Q 16.703125 27.09375 16.703125 20.515625 
Q 16.703125 13.921875 20.71875 10.15625 
Q 24.75 6.390625 31.78125 6.390625 
Q 38.8125 6.390625 42.859375 10.171875 
Q 46.921875 13.96875 46.921875 20.515625 
Q 46.921875 27.09375 42.890625 30.859375 
Q 38.875 34.625 31.78125 34.625 
z
M 21.921875 38.8125 
Q 15.578125 40.375 12.03125 44.71875 
Q 8.5 49.078125 8.5 55.328125 
Q 8.5 64.0625 14.71875 69.140625 
Q 20.953125 74.21875 31.78125 74.21875 
Q 42.671875 74.21875 48.875 69.140625 
Q 55.078125 64.0625 55.078125 55.328125 
Q 55.078125 49.078125 51.53125 44.71875 
Q 48 40.375 41.703125 38.8125 
Q 48.828125 37.15625 52.796875 32.3125 
Q 56.78125 27.484375 56.78125 20.515625 
Q 56.78125 9.90625 50.3125 4.234375 
Q 43.84375 -1.421875 31.78125 -1.421875 
Q 19.734375 -1.421875 13.25 4.234375 
Q 6.78125 9.90625 6.78125 20.515625 
Q 6.78125 27.484375 10.78125 32.3125 
Q 14.796875 37.15625 21.921875 38.8125 
z
M 18.3125 54.390625 
Q 18.3125 48.734375 21.84375 45.5625 
Q 25.390625 42.390625 31.78125 42.390625 
Q 38.140625 42.390625 41.71875 45.5625 
Q 45.3125 48.734375 45.3125 54.390625 
Q 45.3125 60.0625 41.71875 63.234375 
Q 38.140625 66.40625 31.78125 66.40625 
Q 25.390625 66.40625 21.84375 63.234375 
Q 18.3125 60.0625 18.3125 54.390625 
z
" id="DejaVuSans-56"/>
      </defs>
      <g transform="translate(683.535082 287.06881)scale(0.08 -0.08)">
       <use xlink:href="#DejaVuSans-56"/>
       <use x="63.623047" xlink:href="#DejaVuSans-48"/>
      </g>
     </g>
    </g>
    <g id="xtick_6">
     <g id="text_6">
      <!-- 100 -->
      <defs>
       <path d="M 12.40625 8.296875 
L 28.515625 8.296875 
L 28.515625 63.921875 
L 10.984375 60.40625 
L 10.984375 69.390625 
L 28.421875 72.90625 
L 38.28125 72.90625 
L 38.28125 8.296875 
L 54.390625 8.296875 
L 54.390625 0 
L 12.40625 0 
z
" id="DejaVuSans-49"/>
      </defs>
      <g transform="translate(834.908182 287.06881)scale(0.08 -0.08)">
       <use xlink:href="#DejaVuSans-49"/>
       <use x="63.623047" xlink:href="#DejaVuSans-48"/>
       <use x="127.246094" xlink:href="#DejaVuSans-48"/>
      </g>
     </g>
    </g>
    <g id="text_7">
     <!-- Length Trimmed (bp) -->
     <defs>
      <path d="M 9.8125 72.90625 
L 19.671875 72.90625 
L 19.671875 8.296875 
L 55.171875 8.296875 
L 55.171875 0 
L 9.8125 0 
z
" id="DejaVuSans-76"/>
      <path d="M 56.203125 29.59375 
L 56.203125 25.203125 
L 14.890625 25.203125 
Q 15.484375 15.921875 20.484375 11.0625 
Q 25.484375 6.203125 34.421875 6.203125 
Q 39.59375 6.203125 44.453125 7.46875 
Q 49.3125 8.734375 54.109375 11.28125 
L 54.109375 2.78125 
Q 49.265625 0.734375 44.1875 -0.34375 
Q 39.109375 -1.421875 33.890625 -1.421875 
Q 20.796875 -1.421875 13.15625 6.1875 
Q 5.515625 13.8125 5.515625 26.8125 
Q 5.515625 40.234375 12.765625 48.109375 
Q 20.015625 56 32.328125 56 
Q 43.359375 56 49.78125 48.890625 
Q 56.203125 41.796875 56.203125 29.59375 
z
M 47.21875 32.234375 
Q 47.125 39.59375 43.09375 43.984375 
Q 39.0625 48.390625 32.421875 48.390625 
Q 24.90625 48.390625 20.390625 44.140625 
Q 15.875 39.890625 15.1875 32.171875 
z
" id="DejaVuSans-101"/>
      <path d="M 54.890625 33.015625 
L 54.890625 0 
L 45.90625 0 
L 45.90625 32.71875 
Q 45.90625 40.484375 42.875 44.328125 
Q 39.84375 48.1875 33.796875 48.1875 
Q 26.515625 48.1875 22.3125 43.546875 
Q 18.109375 38.921875 18.109375 30.90625 
L 18.109375 0 
L 9.078125 0 
L 9.078125 54.6875 
L 18.109375 54.6875 
L 18.109375 46.1875 
Q 21.34375 51.125 25.703125 53.5625 
Q 30.078125 56 35.796875 56 
Q 45.21875 56 50.046875 50.171875 
Q 54.890625 44.34375 54.890625 33.015625 
z
" id="DejaVuSans-110"/>
      <path d="M 45.40625 27.984375 
Q 45.40625 37.75 41.375 43.109375 
Q 37.359375 48.484375 30.078125 48.484375 
Q 22.859375 48.484375 18.828125 43.109375 
Q 14.796875 37.75 14.796875 27.984375 
Q 14.796875 18.265625 18.828125 12.890625 
Q 22.859375 7.515625 30.078125 7.515625 
Q 37.359375 7.515625 41.375 12.890625 
Q 45.40625 18.265625 45.40625 27.984375 
z
M 54.390625 6.78125 
Q 54.390625 -7.171875 48.1875 -13.984375 
Q 42 -20.796875 29.203125 -20.796875 
Q 24.46875 -20.796875 20.265625 -20.09375 
Q 16.0625 -19.390625 12.109375 -17.921875 
L 12.109375 -9.1875 
Q 16.0625 -11.328125 19.921875 -12.34375 
Q 23.78125 -13.375 27.78125 -13.375 
Q 36.625 -13.375 41.015625 -8.765625 
Q 45.40625 -4.15625 45.40625 5.171875 
L 45.40625 9.625 
Q 42.625 4.78125 38.28125 2.390625 
Q 33.9375 0 27.875 0 
Q 17.828125 0 11.671875 7.65625 
Q 5.515625 15.328125 5.515625 27.984375 
Q 5.515625 40.671875 11.671875 48.328125 
Q 17.828125 56 27.875 56 
Q 33.9375 56 38.28125 53.609375 
Q 42.625 51.21875 45.40625 46.390625 
L 45.40625 54.6875 
L 54.390625 54.6875 
z
" id="DejaVuSans-103"/>
      <path d="M 18.3125 70.21875 
L 18.3125 54.6875 
L 36.8125 54.6875 
L 36.8125 47.703125 
L 18.3125 47.703125 
L 18.3125 18.015625 
Q 18.3125 11.328125 20.140625 9.421875 
Q 21.96875 7.515625 27.59375 7.515625 
L 36.8125 7.515625 
L 36.8125 0 
L 27.59375 0 
Q 17.1875 0 13.234375 3.875 
Q 9.28125 7.765625 9.28125 18.015625 
L 9.28125 47.703125 
L 2.6875 47.703125 
L 2.6875 54.6875 
L 9.28125 54.6875 
L 9.28125 70.21875 
z
" id="DejaVuSans-116"/>
      <path d="M 54.890625 33.015625 
L 54.890625 0 
L 45.90625 0 
L 45.90625 32.71875 
Q 45.90625 40.484375 42.875 44.328125 
Q 39.84375 48.1875 33.796875 48.1875 
Q 26.515625 48.1875 22.3125 43.546875 
Q 18.109375 38.921875 18.109375 30.90625 
L 18.109375 0 
L 9.078125 0 
L 9.078125 75.984375 
L 18.109375 75.984375 
L 18.109375 46.1875 
Q 21.34375 51.125 25.703125 53.5625 
Q 30.078125 56 35.796875 56 
Q 45.21875 56 50.046875 50.171875 
Q 54.890625 44.34375 54.890625 33.015625 
z
" id="DejaVuSans-104"/>
      <path id="DejaVuSans-32"/>
      <path d="M -0.296875 72.90625 
L 61.375 72.90625 
L 61.375 64.59375 
L 35.5 64.59375 
L 35.5 0 
L 25.59375 0 
L 25.59375 64.59375 
L -0.296875 64.59375 
z
" id="DejaVuSans-84"/>
      <path d="M 41.109375 46.296875 
Q 39.59375 47.171875 37.8125 47.578125 
Q 36.03125 48 33.890625 48 
Q 26.265625 48 22.1875 43.046875 
Q 18.109375 38.09375 18.109375 28.8125 
L 18.109375 0 
L 9.078125 0 
L 9.078125 54.6875 
L 18.109375 54.6875 
L 18.109375 46.1875 
Q 20.953125 51.171875 25.484375 53.578125 
Q 30.03125 56 36.53125 56 
Q 37.453125 56 38.578125 55.875 
Q 39.703125 55.765625 41.0625 55.515625 
z
" id="DejaVuSans-114"/>
      <path d="M 9.421875 54.6875 
L 18.40625 54.6875 
L 18.40625 0 
L 9.421875 0 
z
M 9.421875 75.984375 
L 18.40625 75.984375 
L 18.40625 64.59375 
L 9.421875 64.59375 
z
" id="DejaVuSans-105"/>
      <path d="M 52 44.1875 
Q 55.375 50.25 60.0625 53.125 
Q 64.75 56 71.09375 56 
Q 79.640625 56 84.28125 50.015625 
Q 88.921875 44.046875 88.921875 33.015625 
L 88.921875 0 
L 79.890625 0 
L 79.890625 32.71875 
Q 79.890625 40.578125 77.09375 44.375 
Q 74.3125 48.1875 68.609375 48.1875 
Q 61.625 48.1875 57.5625 43.546875 
Q 53.515625 38.921875 53.515625 30.90625 
L 53.515625 0 
L 44.484375 0 
L 44.484375 32.71875 
Q 44.484375 40.625 41.703125 44.40625 
Q 38.921875 48.1875 33.109375 48.1875 
Q 26.21875 48.1875 22.15625 43.53125 
Q 18.109375 38.875 18.109375 30.90625 
L 18.109375 0 
L 9.078125 0 
L 9.078125 54.6875 
L 18.109375 54.6875 
L 18.109375 46.1875 
Q 21.1875 51.21875 25.484375 53.609375 
Q 29.78125 56 35.6875 56 
Q 41.65625 56 45.828125 52.96875 
Q 50 49.953125 52 44.1875 
z
" id="DejaVuSans-109"/>
      <path d="M 45.40625 46.390625 
L 45.40625 75.984375 
L 54.390625 75.984375 
L 54.390625 0 
L 45.40625 0 
L 45.40625 8.203125 
Q 42.578125 3.328125 38.25 0.953125 
Q 33.9375 -1.421875 27.875 -1.421875 
Q 17.96875 -1.421875 11.734375 6.484375 
Q 5.515625 14.40625 5.515625 27.296875 
Q 5.515625 40.1875 11.734375 48.09375 
Q 17.96875 56 27.875 56 
Q 33.9375 56 38.25 53.625 
Q 42.578125 51.265625 45.40625 46.390625 
z
M 14.796875 27.296875 
Q 14.796875 17.390625 18.875 11.75 
Q 22.953125 6.109375 30.078125 6.109375 
Q 37.203125 6.109375 41.296875 11.75 
Q 45.40625 17.390625 45.40625 27.296875 
Q 45.40625 37.203125 41.296875 42.84375 
Q 37.203125 48.484375 30.078125 48.484375 
Q 22.953125 48.484375 18.875 42.84375 
Q 14.796875 37.203125 14.796875 27.296875 
z
" id="DejaVuSans-100"/>
      <path d="M 31 75.875 
Q 24.46875 64.65625 21.28125 53.65625 
Q 18.109375 42.671875 18.109375 31.390625 
Q 18.109375 20.125 21.3125 9.0625 
Q 24.515625 -2 31 -13.1875 
L 23.1875 -13.1875 
Q 15.875 -1.703125 12.234375 9.375 
Q 8.59375 20.453125 8.59375 31.390625 
Q 8.59375 42.28125 12.203125 53.3125 
Q 15.828125 64.359375 23.1875 75.875 
z
" id="DejaVuSans-40"/>
      <path d="M 48.6875 27.296875 
Q 48.6875 37.203125 44.609375 42.84375 
Q 40.53125 48.484375 33.40625 48.484375 
Q 26.265625 48.484375 22.1875 42.84375 
Q 18.109375 37.203125 18.109375 27.296875 
Q 18.109375 17.390625 22.1875 11.75 
Q 26.265625 6.109375 33.40625 6.109375 
Q 40.53125 6.109375 44.609375 11.75 
Q 48.6875 17.390625 48.6875 27.296875 
z
M 18.109375 46.390625 
Q 20.953125 51.265625 25.265625 53.625 
Q 29.59375 56 35.59375 56 
Q 45.5625 56 51.78125 48.09375 
Q 58.015625 40.1875 58.015625 27.296875 
Q 58.015625 14.40625 51.78125 6.484375 
Q 45.5625 -1.421875 35.59375 -1.421875 
Q 29.59375 -1.421875 25.265625 0.953125 
Q 20.953125 3.328125 18.109375 8.203125 
L 18.109375 0 
L 9.078125 0 
L 9.078125 75.984375 
L 18.109375 75.984375 
z
" id="DejaVuSans-98"/>
      <path d="M 18.109375 8.203125 
L 18.109375 -20.796875 
L 9.078125 -20.796875 
L 9.078125 54.6875 
L 18.109375 54.6875 
L 18.109375 46.390625 
Q 20.953125 51.265625 25.265625 53.625 
Q 29.59375 56 35.59375 56 
Q 45.5625 56 51.78125 48.09375 
Q 58.015625 40.1875 58.015625 27.296875 
Q 58.015625 14.40625 51.78125 6.484375 
Q 45.5625 -1.421875 35.59375 -1.421875 
Q 29.59375 -1.421875 25.265625 0.953125 
Q 20.953125 3.328125 18.109375 8.203125 
z
M 48.6875 27.296875 
Q 48.6875 37.203125 44.609375 42.84375 
Q 40.53125 48.484375 33.40625 48.484375 
Q 26.265625 48.484375 22.1875 42.84375 
Q 18.109375 37.203125 18.109375 27.296875 
Q 18.109375 17.390625 22.1875 11.75 
Q 26.265625 6.109375 33.40625 6.109375 
Q 40.53125 6.109375 44.609375 11.75 
Q 48.6875 17.390625 48.6875 27.296875 
z
" id="DejaVuSans-112"/>
      <path d="M 8.015625 75.875 
L 15.828125 75.875 
Q 23.140625 64.359375 26.78125 53.3125 
Q 30.421875 42.28125 30.421875 31.390625 
Q 30.421875 20.453125 26.78125 9.375 
Q 23.140625 -1.703125 15.828125 -13.1875 
L 8.015625 -13.1875 
Q 14.5 -2 17.703125 9.0625 
Q 20.90625 20.125 20.90625 31.390625 
Q 20.90625 42.671875 17.703125 53.65625 
Q 14.5 64.65625 8.015625 75.875 
z
" id="DejaVuSans-41"/>
     </defs>
     <g transform="translate(469.9225 300.330997)scale(0.1 -0.1)">
      <use xlink:href="#DejaVuSans-76"/>
      <use x="55.697266" xlink:href="#DejaVuSans-101"/>
      <use x="117.220703" xlink:href="#DejaVuSans-110"/>
      <use x="180.599609" xlink:href="#DejaVuSans-103"/>
      <use x="244.076172" xlink:href="#DejaVuSans-116"/>
      <use x="283.285156" xlink:href="#DejaVuSans-104"/>
      <use x="346.664062" xlink:href="#DejaVuSans-32"/>
      <use x="378.451172" xlink:href="#DejaVuSans-84"/>
      <use x="439.316406" xlink:href="#DejaVuSans-114"/>
      <use x="480.429688" xlink:href="#DejaVuSans-105"/>
      <use x="508.212891" xlink:href="#DejaVuSans-109"/>
      <use x="605.625" xlink:href="#DejaVuSans-109"/>
      <use x="703.037109" xlink:href="#DejaVuSans-101"/>
      <use x="764.560547" xlink:href="#DejaVuSans-100"/>
      <use x="828.037109" xlink:href="#DejaVuSans-32"/>
      <use x="859.824219" xlink:href="#DejaVuSans-40"/>
      <use x="898.837891" xlink:href="#DejaVuSans-98"/>
      <use x="962.314453" xlink:href="#DejaVuSans-112"/>
      <use x="1025.791016" xlink:href="#DejaVuSans-41"/>
     </g>
    </g>
   </g>
   <g id="matplotlib.axis_2">
    <g id="ytick_1">
     <g id="line2d_1">
      <path clip-path="url(#pe701705aa2)" d="M 53.328125 273.99006 
L 992.998125 273.99006 
" style="fill:none;stroke:#dedede;stroke-linecap:square;"/>
     </g>
     <g id="text_8">
      <!-- 0 -->
      <g transform="translate(41.238125 277.029435)scale(0.08 -0.08)">
       <use xlink:href="#DejaVuSans-48"/>
      </g>
     </g>
    </g>
    <g id="ytick_2">
     <g id="line2d_2">
      <path clip-path="url(#pe701705aa2)" d="M 53.328125 243.600685 
L 992.998125 243.600685 
" style="fill:none;stroke:#dedede;stroke-linecap:square;"/>
     </g>
     <g id="text_9">
      <!-- 2500 -->
      <defs>
       <path d="M 10.796875 72.90625 
L 49.515625 72.90625 
L 49.515625 64.59375 
L 19.828125 64.59375 
L 19.828125 46.734375 
Q 21.96875 47.46875 24.109375 47.828125 
Q 26.265625 48.1875 28.421875 48.1875 
Q 40.625 48.1875 47.75 41.5 
Q 54.890625 34.8125 54.890625 23.390625 
Q 54.890625 11.625 47.5625 5.09375 
Q 40.234375 -1.421875 26.90625 -1.421875 
Q 22.3125 -1.421875 17.546875 -0.640625 
Q 12.796875 0.140625 7.71875 1.703125 
L 7.71875 11.625 
Q 12.109375 9.234375 16.796875 8.0625 
Q 21.484375 6.890625 26.703125 6.890625 
Q 35.15625 6.890625 40.078125 11.328125 
Q 45.015625 15.765625 45.015625 23.390625 
Q 45.015625 31 40.078125 35.4375 
Q 35.15625 39.890625 26.703125 39.890625 
Q 22.75 39.890625 18.8125 39.015625 
Q 14.890625 38.140625 10.796875 36.28125 
z
" id="DejaVuSans-53"/>
      </defs>
      <g transform="translate(25.968125 246.64006)scale(0.08 -0.08)">
       <use xlink:href="#DejaVuSans-50"/>
       <use x="63.623047" xlink:href="#DejaVuSans-53"/>
       <use x="127.246094" xlink:href="#DejaVuSans-48"/>
       <use x="190.869141" xlink:href="#DejaVuSans-48"/>
      </g>
     </g>
    </g>
    <g id="ytick_3">
     <g id="line2d_3">
      <path clip-path="url(#pe701705aa2)" d="M 53.328125 213.21131 
L 992.998125 213.21131 
" style="fill:none;stroke:#dedede;stroke-linecap:square;"/>
     </g>
     <g id="text_10">
      <!-- 5000 -->
      <g transform="translate(25.968125 216.250685)scale(0.08 -0.08)">
       <use xlink:href="#DejaVuSans-53"/>
       <use x="63.623047" xlink:href="#DejaVuSans-48"/>
       <use x="127.246094" xlink:href="#DejaVuSans-48"/>
       <use x="190.869141" xlink:href="#DejaVuSans-48"/>
      </g>
     </g>
    </g>
    <g id="ytick_4">
     <g id="line2d_4">
      <path clip-path="url(#pe701705aa2)" d="M 53.328125 182.821935 
L 992.998125 182.821935 
" style="fill:none;stroke:#dedede;stroke-linecap:square;"/>
     </g>
     <g id="text_11">
      <!-- 7500 -->
      <defs>
       <path d="M 8.203125 72.90625 
L 55.078125 72.90625 
L 55.078125 68.703125 
L 28.609375 0 
L 18.3125 0 
L 43.21875 64.59375 
L 8.203125 64.59375 
z
" id="DejaVuSans-55"/>
      </defs>
      <g transform="translate(25.968125 185.86131)scale(0.08 -0.08)">
       <use xlink:href="#DejaVuSans-55"/>
       <use x="63.623047" xlink:href="#DejaVuSans-53"/>
       <use x="127.246094" xlink:href="#DejaVuSans-48"/>
       <use x="190.869141" xlink:href="#DejaVuSans-48"/>
      </g>
     </g>
    </g>
    <g id="ytick_5">
     <g id="line2d_5">
      <path clip-path="url(#pe701705aa2)" d="M 53.328125 152.43256 
L 992.998125 152.43256 
" style="fill:none;stroke:#dedede;stroke-linecap:square;"/>
     </g>
     <g id="text_12">
      <!-- 10000 -->
      <g transform="translate(20.878125 155.471935)scale(0.08 -0.08)">
       <use xlink:href="#DejaVuSans-49"/>
       <use x="63.623047" xlink:href="#DejaVuSans-48"/>
       <use x="127.246094" xlink:href="#DejaVuSans-48"/>
       <use x="190.869141" xlink:href="#DejaVuSans-48"/>
       <use x="254.492188" xlink:href="#DejaVuSans-48"/>
      </g>
     </g>
    </g>
    <g id="ytick_6">
     <g id="line2d_6">
      <path clip-path="url(#pe701705aa2)" d="M 53.328125 122.043185 
L 992.998125 122.043185 
" style="fill:none;stroke:#dedede;stroke-linecap:square;"/>
     </g>
     <g id="text_13">
      <!-- 12500 -->
      <g transform="translate(20.878125 125.08256)scale(0.08 -0.08)">
       <use xlink:href="#DejaVuSans-49"/>
       <use x="63.623047" xlink:href="#DejaVuSans-50"/>
       <use x="127.246094" xlink:href="#DejaVuSans-53"/>
       <use x="190.869141" xlink:href="#DejaVuSans-48"/>
       <use x="254.492188" xlink:href="#DejaVuSans-48"/>
      </g>
     </g>
    </g>
    <g id="ytick_7">
     <g id="line2d_7">
      <path clip-path="url(#pe701705aa2)" d="M 53.328125 91.65381 
L 992.998125 91.65381 
" style="fill:none;stroke:#dedede;stroke-linecap:square;"/>
     </g>
     <g id="text_14">
      <!-- 15000 -->
      <g transform="translate(20.878125 94.693185)scale(0.08 -0.08)">
       <use xlink:href="#DejaVuSans-49"/>
       <use x="63.623047" xlink:href="#DejaVuSans-53"/>
       <use x="127.246094" xlink:href="#DejaVuSans-48"/>
       <use x="190.869141" xlink:href="#DejaVuSans-48"/>
       <use x="254.492188" xlink:href="#DejaVuSans-48"/>
      </g>
     </g>
    </g>
    <g id="ytick_8">
     <g id="line2d_8">
      <path clip-path="url(#pe701705aa2)" d="M 53.328125 61.264435 
L 992.998125 61.264435 
" style="fill:none;stroke:#dedede;stroke-linecap:square;"/>
     </g>
     <g id="text_15">
      <!-- 17500 -->
      <g transform="translate(20.878125 64.30381)scale(0.08 -0.08)">
       <use xlink:href="#DejaVuSans-49"/>
       <use x="63.623047" xlink:href="#DejaVuSans-55"/>
       <use x="127.246094" xlink:href="#DejaVuSans-53"/>
       <use x="190.869141" xlink:href="#DejaVuSans-48"/>
       <use x="254.492188" xlink:href="#DejaVuSans-48"/>
      </g>
     </g>
    </g>
    <g id="text_16">
     <!-- Observed / Expected -->
     <defs>
      <path d="M 39.40625 66.21875 
Q 28.65625 66.21875 22.328125 58.203125 
Q 16.015625 50.203125 16.015625 36.375 
Q 16.015625 22.609375 22.328125 14.59375 
Q 28.65625 6.59375 39.40625 6.59375 
Q 50.140625 6.59375 56.421875 14.59375 
Q 62.703125 22.609375 62.703125 36.375 
Q 62.703125 50.203125 56.421875 58.203125 
Q 50.140625 66.21875 39.40625 66.21875 
z
M 39.40625 74.21875 
Q 54.734375 74.21875 63.90625 63.9375 
Q 73.09375 53.65625 73.09375 36.375 
Q 73.09375 19.140625 63.90625 8.859375 
Q 54.734375 -1.421875 39.40625 -1.421875 
Q 24.03125 -1.421875 14.8125 8.828125 
Q 5.609375 19.09375 5.609375 36.375 
Q 5.609375 53.65625 14.8125 63.9375 
Q 24.03125 74.21875 39.40625 74.21875 
z
" id="DejaVuSans-79"/>
      <path d="M 44.28125 53.078125 
L 44.28125 44.578125 
Q 40.484375 46.53125 36.375 47.5 
Q 32.28125 48.484375 27.875 48.484375 
Q 21.1875 48.484375 17.84375 46.4375 
Q 14.5 44.390625 14.5 40.28125 
Q 14.5 37.15625 16.890625 35.375 
Q 19.28125 33.59375 26.515625 31.984375 
L 29.59375 31.296875 
Q 39.15625 29.25 43.1875 25.515625 
Q 47.21875 21.78125 47.21875 15.09375 
Q 47.21875 7.46875 41.1875 3.015625 
Q 35.15625 -1.421875 24.609375 -1.421875 
Q 20.21875 -1.421875 15.453125 -0.5625 
Q 10.6875 0.296875 5.421875 2 
L 5.421875 11.28125 
Q 10.40625 8.6875 15.234375 7.390625 
Q 20.0625 6.109375 24.8125 6.109375 
Q 31.15625 6.109375 34.5625 8.28125 
Q 37.984375 10.453125 37.984375 14.40625 
Q 37.984375 18.0625 35.515625 20.015625 
Q 33.0625 21.96875 24.703125 23.78125 
L 21.578125 24.515625 
Q 13.234375 26.265625 9.515625 29.90625 
Q 5.8125 33.546875 5.8125 39.890625 
Q 5.8125 47.609375 11.28125 51.796875 
Q 16.75 56 26.8125 56 
Q 31.78125 56 36.171875 55.265625 
Q 40.578125 54.546875 44.28125 53.078125 
z
" id="DejaVuSans-115"/>
      <path d="M 2.984375 54.6875 
L 12.5 54.6875 
L 29.59375 8.796875 
L 46.6875 54.6875 
L 56.203125 54.6875 
L 35.6875 0 
L 23.484375 0 
z
" id="DejaVuSans-118"/>
      <path d="M 25.390625 72.90625 
L 33.6875 72.90625 
L 8.296875 -9.28125 
L 0 -9.28125 
z
" id="DejaVuSans-47"/>
      <path d="M 9.8125 72.90625 
L 55.90625 72.90625 
L 55.90625 64.59375 
L 19.671875 64.59375 
L 19.671875 43.015625 
L 54.390625 43.015625 
L 54.390625 34.71875 
L 19.671875 34.71875 
L 19.671875 8.296875 
L 56.78125 8.296875 
L 56.78125 0 
L 9.8125 0 
z
" id="DejaVuSans-69"/>
      <path d="M 54.890625 54.6875 
L 35.109375 28.078125 
L 55.90625 0 
L 45.3125 0 
L 29.390625 21.484375 
L 13.484375 0 
L 2.875 0 
L 24.125 28.609375 
L 4.6875 54.6875 
L 15.28125 54.6875 
L 29.78125 35.203125 
L 44.28125 54.6875 
z
" id="DejaVuSans-120"/>
      <path d="M 48.78125 52.59375 
L 48.78125 44.1875 
Q 44.96875 46.296875 41.140625 47.34375 
Q 37.3125 48.390625 33.40625 48.390625 
Q 24.65625 48.390625 19.8125 42.84375 
Q 14.984375 37.3125 14.984375 27.296875 
Q 14.984375 17.28125 19.8125 11.734375 
Q 24.65625 6.203125 33.40625 6.203125 
Q 37.3125 6.203125 41.140625 7.25 
Q 44.96875 8.296875 48.78125 10.40625 
L 48.78125 2.09375 
Q 45.015625 0.34375 40.984375 -0.53125 
Q 36.96875 -1.421875 32.421875 -1.421875 
Q 20.0625 -1.421875 12.78125 6.34375 
Q 5.515625 14.109375 5.515625 27.296875 
Q 5.515625 40.671875 12.859375 48.328125 
Q 20.21875 56 33.015625 56 
Q 37.15625 56 41.109375 55.140625 
Q 45.0625 54.296875 48.78125 52.59375 
z
" id="DejaVuSans-99"/>
     </defs>
     <g transform="translate(14.798438 204.985679)rotate(-90)scale(0.1 -0.1)">
      <use xlink:href="#DejaVuSans-79"/>
      <use x="78.710938" xlink:href="#DejaVuSans-98"/>
      <use x="142.1875" xlink:href="#DejaVuSans-115"/>
      <use x="194.287109" xlink:href="#DejaVuSans-101"/>
      <use x="255.810547" xlink:href="#DejaVuSans-114"/>
      <use x="296.923828" xlink:href="#DejaVuSans-118"/>
      <use x="356.103516" xlink:href="#DejaVuSans-101"/>
      <use x="417.626953" xlink:href="#DejaVuSans-100"/>
      <use x="481.103516" xlink:href="#DejaVuSans-32"/>
      <use x="512.890625" xlink:href="#DejaVuSans-47"/>
      <use x="546.582031" xlink:href="#DejaVuSans-32"/>
      <use x="578.369141" xlink:href="#DejaVuSans-69"/>
      <use x="641.552734" xlink:href="#DejaVuSans-120"/>
      <use x="700.732422" xlink:href="#DejaVuSans-112"/>
      <use x="764.208984" xlink:href="#DejaVuSans-101"/>
      <use x="825.732422" xlink:href="#DejaVuSans-99"/>
      <use x="880.712891" xlink:href="#DejaVuSans-116"/>
      <use x="919.921875" xlink:href="#DejaVuSans-101"/>
      <use x="981.445312" xlink:href="#DejaVuSans-100"/>
     </g>
    </g>
   </g>
   <g id="line2d_9">
    <path clip-path="url(#pe701705aa2)" d="M 96.040398 273.982241 
L 103.736303 273.982284 
L 111.432208 273.983555 
L 119.128113 273.988968 
L 126.824018 273.989274 
L 134.519923 273.989012 
L 142.215828 273.847544 
L 149.911733 273.890604 
L 157.607638 273.50383 
L 165.303543 273.139158 
L 219.174878 273.90497 
L 303.829833 273.953593 
" style="fill:none;stroke:#7cb5ec;stroke-linecap:square;"/>
   </g>
   <g id="line2d_10">
    <path clip-path="url(#pe701705aa2)" d="M 96.040398 273.982325 
L 103.736303 273.982527 
L 111.432208 273.983141 
L 119.128113 273.98922 
L 126.824018 273.989719 
L 134.519923 273.989281 
L 142.215828 273.819412 
L 149.911733 273.77188 
L 157.607638 273.710478 
L 165.303543 273.807724 
L 180.695353 273.868503 
L 203.783068 273.868503 
L 219.174878 273.868503 
L 234.566688 273.139158 
L 249.958498 273.868503 
L 257.654403 273.625388 
L 296.133928 273.868503 
L 303.829833 273.868503 
L 311.525738 273.625388 
L 334.613453 273.868503 
L 350.005263 273.868503 
L 365.397073 273.868503 
L 373.092978 273.868503 
L 388.484788 273.746945 
L 465.443838 273.868503 
L 473.139743 273.868503 
L 488.531553 273.868503 
L 534.706982 273.868503 
L 565.490602 273.868503 
L 573.186507 273.746945 
" style="fill:none;stroke:#434348;stroke-linecap:square;"/>
   </g>
   <g id="line2d_11">
    <path clip-path="url(#pe701705aa2)" d="M 96.040398 273.982351 
L 103.736303 273.982353 
L 111.432208 273.983542 
L 119.128113 273.989143 
L 126.824018 273.989282 
L 134.519923 273.989393 
L 142.215828 273.801069 
L 149.911733 273.839901 
L 157.607638 273.760451 
L 165.303543 273.746945 
L 180.695353 273.868503 
L 242.262593 273.746945 
" style="fill:none;stroke:#90ed7d;stroke-linecap:square;"/>
   </g>
   <g id="line2d_12">
    <path clip-path="url(#pe701705aa2)" d="M 96.040398 273.984285 
L 103.736303 273.982524 
L 111.432208 273.985078 
L 119.128113 273.98869 
L 126.824018 273.98973 
L 134.519923 273.989072 
L 142.215828 273.881055 
L 149.911733 273.810366 
L 157.607638 273.4937 
L 165.303543 273.868503 
L 342.309358 273.868503 
L 411.572503 273.868503 
L 434.660218 273.868503 
L 488.531553 273.868503 
L 611.666032 273.868503 
L 673.233272 273.868503 
" style="fill:none;stroke:#f7a35c;stroke-linecap:square;"/>
   </g>
   <g id="line2d_13">
    <path clip-path="url(#pe701705aa2)" d="M 96.040398 273.98423 
L 103.736303 273.982861 
L 111.432208 273.984373 
L 119.128113 273.988845 
L 126.824018 273.989746 
L 134.519923 273.989182 
L 142.215828 273.792152 
L 149.911733 273.886437 
L 157.607638 273.479519 
L 165.303543 273.746945 
L 180.695353 272.652928 
L 211.478973 273.868503 
L 226.870783 273.868503 
L 234.566688 273.746945 
L 242.262593 273.746945 
L 288.438023 273.746945 
L 296.133928 273.868503 
L 303.829833 273.868503 
L 311.525738 273.868503 
L 342.309358 273.868503 
L 357.701168 273.868503 
L 373.092978 273.868503 
L 396.180693 273.868503 
L 411.572503 273.868503 
L 457.747933 273.868503 
L 542.402887 273.746945 
L 580.882412 273.868503 
L 627.057842 273.868503 
L 634.753747 273.868503 
L 642.449652 273.868503 
L 657.841462 273.625388 
" style="fill:none;stroke:#8085e9;stroke-linecap:square;"/>
   </g>
   <g id="line2d_14">
    <path clip-path="url(#pe701705aa2)" d="M 96.040398 273.965751 
L 103.736303 273.973057 
L 111.432208 273.977111 
L 119.128113 273.962348 
L 126.824018 273.904287 
L 134.519923 273.888039 
L 142.215828 273.818143 
L 149.911733 272.693447 
L 157.607638 263.444947 
L 165.303543 266.575053 
L 172.999448 204.9454 
L 180.695353 244.086915 
L 188.391258 244.451588 
L 196.087163 221.96345 
L 203.783068 266.575053 
L 211.478973 267.790628 
L 219.174878 238.373713 
L 226.870783 232.903625 
L 234.566688 248.098313 
L 242.262593 262.442098 
L 249.958498 231.323378 
L 257.654403 254.783975 
L 265.350308 254.905533 
L 273.046213 258.187585 
L 280.742118 257.822913 
L 288.438023 91.410695 
L 296.133928 241.047978 
L 303.829833 265.359478 
L 311.525738 210.29393 
L 319.221643 43.030811 
L 326.917548 266.21038 
L 334.613453 212.603523 
L 342.309358 166.047 
L 350.005263 256.728895 
L 357.701168 262.077425 
L 365.397073 152.675675 
L 373.092978 255.877993 
L 380.788883 260.618735 
L 388.484788 267.18284 
L 396.180693 264.26546 
L 403.876598 253.446843 
L 411.572503 216.858035 
L 419.268408 263.049885 
L 426.964313 263.77923 
L 434.660218 236.915023 
L 442.356123 265.481035 
L 450.052028 173.82668 
L 457.747933 185.374643 
L 465.443838 270.10022 
L 473.139743 269.492433 
L 480.835648 267.304398 
L 488.531553 261.955868 
L 496.227458 266.088823 
L 503.923363 197.16572 
L 511.619268 270.951123 
L 519.315173 221.841893 
L 527.011077 259.88939 
L 534.706982 270.10022 
L 542.402887 261.591195 
L 550.098792 237.401253 
L 557.794697 192.911208 
L 565.490602 259.88939 
L 573.186507 240.197075 
L 580.882412 263.293 
L 588.578317 265.602593 
L 596.274222 269.370875 
L 603.970127 273.625388 
L 611.666032 273.625388 
L 619.361937 273.0176 
L 627.057842 272.53137 
L 634.753747 273.260715 
L 642.449652 271.07268 
L 650.145557 273.746945 
L 657.841462 273.868503 
L 665.537367 273.382273 
L 673.233272 273.50383 
L 680.929177 273.625388 
L 688.625082 273.868503 
L 696.320987 272.409813 
L 704.016892 271.923583 
L 711.712797 273.625388 
L 719.408702 270.951123 
L 727.104607 273.260715 
L 734.800512 273.139158 
L 742.496417 273.868503 
L 750.192322 273.625388 
L 804.063657 273.868503 
L 811.759562 273.868503 
L 827.151372 273.868503 
L 834.847277 273.868503 
L 857.934992 273.868503 
L 942.589947 273.868503 
" style="fill:none;stroke:#f15c80;stroke-linecap:square;"/>
   </g>
   <g id="line2d_15">
    <path clip-path="url(#pe701705aa2)" d="M 96.040398 273.968124 
L 103.736303 273.974358 
L 111.432208 273.977403 
L 119.128113 273.962521 
L 126.824018 273.927471 
L 134.519923 273.935897 
L 142.215828 273.866837 
L 149.911733 272.808251 
L 157.607638 265.675527 
L 165.303543 267.547513 
L 172.999448 201.663348 
L 180.695353 236.915023 
L 188.391258 242.749783 
L 196.087163 229.864688 
L 203.783068 267.18284 
L 211.478973 266.818168 
L 219.174878 237.158138 
L 226.870783 236.428793 
L 234.566688 252.960613 
L 242.262593 259.160045 
L 249.958498 229.135343 
L 257.654403 258.673815 
L 265.350308 258.187585 
L 273.046213 253.933073 
L 280.742118 251.501923 
L 288.438023 101.986198 
L 296.133928 242.87134 
L 303.829833 259.524718 
L 311.525738 211.144833 
L 319.221643 79.133388 
L 326.917548 266.088823 
L 334.613453 220.140088 
L 342.309358 160.333798 
L 350.005263 256.48578 
L 357.701168 263.657673 
L 365.397073 184.52374 
L 373.092978 260.010948 
L 380.788883 260.983408 
L 388.484788 265.116363 
L 396.180693 263.536115 
L 403.876598 263.049885 
L 411.572503 220.261645 
L 419.268408 263.293 
L 426.964313 264.75169 
L 434.660218 245.78872 
L 442.356123 265.481035 
L 450.052028 194.369898 
L 457.747933 213.819098 
L 465.443838 269.249318 
L 473.139743 268.763088 
L 480.835648 270.708008 
L 488.531553 264.75169 
L 496.227458 267.912185 
L 503.923363 205.43163 
L 511.619268 271.437353 
L 519.315173 221.112548 
L 527.011077 261.83431 
L 534.706982 271.802025 
L 542.402887 266.818168 
L 550.098792 251.258808 
L 557.794697 206.647205 
L 565.490602 266.818168 
L 573.186507 246.518065 
L 580.882412 267.547513 
L 588.578317 267.304398 
L 596.274222 270.343335 
L 603.970127 273.868503 
L 619.361937 273.746945 
L 627.057842 272.774485 
L 634.753747 273.50383 
L 642.449652 271.802025 
L 650.145557 273.382273 
L 657.841462 273.746945 
L 665.537367 273.746945 
L 673.233272 273.868503 
L 680.929177 273.50383 
L 688.625082 272.896043 
L 696.320987 273.382273 
L 704.016892 272.774485 
L 711.712797 273.746945 
L 719.408702 272.409813 
L 727.104607 273.746945 
L 734.800512 273.746945 
L 750.192322 273.868503 
L 757.888227 273.746945 
L 827.151372 273.868503 
" style="fill:none;stroke:#e4d354;stroke-linecap:square;"/>
   </g>
   <g id="line2d_16">
    <path clip-path="url(#pe701705aa2)" d="M 96.040398 273.967086 
L 103.736303 273.974488 
L 111.432208 273.977464 
L 119.128113 273.9639 
L 126.824018 273.922501 
L 134.519923 273.918208 
L 142.215828 273.876345 
L 149.911733 272.871731 
L 157.607638 267.638681 
L 165.303543 268.763088 
L 172.999448 227.433538 
L 180.695353 248.7061 
L 188.391258 250.65102 
L 196.087163 223.665255 
L 203.783068 266.21038 
L 211.478973 270.951123 
L 219.174878 239.224615 
L 226.870783 236.671908 
L 234.566688 257.215125 
L 242.262593 263.77923 
L 249.958498 246.396508 
L 257.654403 261.104965 
L 265.350308 260.132505 
L 273.046213 265.481035 
L 280.742118 261.226523 
L 288.438023 94.935863 
L 296.133928 251.745038 
L 303.829833 261.104965 
L 311.525738 209.929258 
L 319.221643 64.303373 
L 326.917548 267.912185 
L 334.613453 231.323378 
L 342.309358 187.805793 
L 350.005263 262.32054 
L 357.701168 264.143903 
L 365.397073 182.700378 
L 373.092978 259.40316 
L 380.788883 263.293 
L 388.484788 264.75169 
L 396.180693 264.994805 
L 403.876598 264.022345 
L 411.572503 215.399345 
L 419.268408 268.64153 
L 426.964313 266.088823 
L 434.660218 249.19233 
L 442.356123 267.18284 
L 450.052028 203.729825 
L 457.747933 217.344265 
L 465.443838 271.55891 
L 473.139743 270.708008 
L 480.835648 271.315795 
L 488.531553 264.630133 
L 496.227458 268.64153 
L 503.923363 223.179025 
L 511.619268 271.55891 
L 519.315173 232.538953 
L 527.011077 261.83431 
L 534.706982 272.04514 
L 542.402887 267.061283 
L 550.098792 252.352825 
L 557.794697 209.8077 
L 565.490602 265.359478 
L 573.186507 243.965358 
L 580.882412 266.818168 
L 588.578317 268.398415 
L 596.274222 270.343335 
L 603.970127 273.0176 
L 611.666032 273.139158 
L 619.361937 273.382273 
L 627.057842 273.139158 
L 634.753747 273.139158 
L 642.449652 270.221778 
L 650.145557 273.625388 
L 657.841462 273.260715 
L 665.537367 273.625388 
L 673.233272 273.260715 
L 680.929177 273.625388 
L 688.625082 272.896043 
L 696.320987 273.50383 
L 704.016892 273.746945 
L 711.712797 273.746945 
L 719.408702 272.409813 
L 727.104607 273.868503 
L 734.800512 273.868503 
L 742.496417 273.868503 
L 757.888227 273.868503 
L 765.584132 273.625388 
L 773.280037 273.868503 
L 780.975942 273.868503 
L 811.759562 273.868503 
L 819.455467 273.868503 
L 850.239087 273.868503 
" style="fill:none;stroke:#2b908f;stroke-linecap:square;"/>
   </g>
   <g id="line2d_17">
    <path clip-path="url(#pe701705aa2)" d="M 96.040398 273.96693 
L 103.736303 273.972028 
L 111.432208 273.975223 
L 119.128113 273.951876 
L 126.824018 273.899107 
L 134.519923 273.914516 
L 142.215828 273.813249 
L 149.911733 272.741333 
L 157.607638 268.763088 
L 165.303543 268.763088 
L 172.999448 223.300583 
L 180.695353 248.341428 
L 188.391258 249.921675 
L 196.087163 238.738385 
L 203.783068 264.994805 
L 211.478973 266.818168 
L 219.174878 242.141995 
L 226.870783 242.020438 
L 234.566688 252.717498 
L 242.262593 265.359478 
L 249.958498 236.428793 
L 257.654403 260.86185 
L 265.350308 253.203728 
L 273.046213 261.955868 
L 280.742118 262.685213 
L 288.438023 114.263505 
L 296.133928 249.070773 
L 303.829833 261.83431 
L 311.525738 209.078355 
L 319.221643 90.073563 
L 326.917548 266.939725 
L 334.613453 227.31198 
L 342.309358 182.821935 
L 350.005263 257.093568 
L 357.701168 260.254063 
L 365.397073 194.126783 
L 373.092978 262.80677 
L 380.788883 264.75169 
L 388.484788 264.75169 
L 396.180693 265.116363 
L 403.876598 260.983408 
L 411.572503 228.405998 
L 419.268408 262.685213 
L 426.964313 266.818168 
L 434.660218 247.004295 
L 442.356123 263.414558 
L 450.052028 199.232198 
L 457.747933 214.305328 
L 465.443838 271.802025 
L 473.139743 267.425955 
L 480.835648 270.10022 
L 488.531553 260.132505 
L 496.227458 268.276858 
L 503.923363 222.814353 
L 511.619268 271.923583 
L 519.315173 231.809608 
L 527.011077 263.171443 
L 534.706982 271.923583 
L 542.402887 267.912185 
L 550.098792 248.7061 
L 557.794697 211.387948 
L 565.490602 265.845708 
L 573.186507 247.855198 
L 580.882412 268.519973 
L 588.578317 266.453495 
L 596.274222 270.221778 
L 603.970127 273.260715 
L 611.666032 273.868503 
L 619.361937 273.0176 
L 627.057842 272.896043 
L 634.753747 273.260715 
L 642.449652 272.04514 
L 650.145557 273.0176 
L 657.841462 273.868503 
L 673.233272 273.625388 
L 680.929177 273.868503 
L 688.625082 273.382273 
L 696.320987 273.0176 
L 704.016892 273.50383 
L 719.408702 272.04514 
L 727.104607 273.625388 
L 734.800512 273.746945 
L 780.975942 273.868503 
L 804.063657 273.868503 
L 850.239087 273.868503 
L 911.806327 273.868503 
L 927.198137 273.868503 
L 942.589947 273.868503 
L 950.285852 273.868503 
" style="fill:none;stroke:#f45b5b;stroke-linecap:square;"/>
   </g>
   <g id="line2d_18">
    <path clip-path="url(#pe701705aa2)" d="M 96.040398 273.984369 
L 103.736303 273.983663 
L 111.432208 273.98612 
L 119.128113 273.988806 
L 142.215828 273.882395 
L 149.911733 273.882009 
L 157.607638 273.443051 
L 165.303543 273.868503 
L 226.870783 273.965749 
L 288.438023 273.965749 
L 334.613453 273.977904 
" style="fill:none;stroke:#91e8e1;stroke-linecap:square;"/>
   </g>
   <g id="line2d_19">
    <path clip-path="url(#pe701705aa2)" d="M 96.040398 273.984592 
L 103.736303 273.984434 
L 111.432208 273.985054 
L 119.128113 273.989404 
L 126.824018 273.989821 
L 142.215828 273.910288 
L 149.911733 273.906489 
L 157.607638 273.50383 
L 165.303543 273.746945 
L 403.876598 273.977904 
L 411.572503 273.977904 
L 419.268408 273.965749 
L 496.227458 273.977904 
" style="fill:none;stroke:#7cb5ec;stroke-linecap:square;"/>
   </g>
   <g id="line2d_20">
    <path clip-path="url(#pe701705aa2)" d="M 53.328125 273.99006 
L 992.998125 273.99006 
" style="fill:none;stroke:#dedede;stroke-linecap:square;stroke-width:2;"/>
   </g>
   <g id="text_17">
    <!-- Cutadapt: Lengths of Trimmed Sequences -->
    <defs>
     <path d="M 64.40625 67.28125 
L 64.40625 56.890625 
Q 59.421875 61.53125 53.78125 63.8125 
Q 48.140625 66.109375 41.796875 66.109375 
Q 29.296875 66.109375 22.65625 58.46875 
Q 16.015625 50.828125 16.015625 36.375 
Q 16.015625 21.96875 22.65625 14.328125 
Q 29.296875 6.6875 41.796875 6.6875 
Q 48.140625 6.6875 53.78125 8.984375 
Q 59.421875 11.28125 64.40625 15.921875 
L 64.40625 5.609375 
Q 59.234375 2.09375 53.4375 0.328125 
Q 47.65625 -1.421875 41.21875 -1.421875 
Q 24.65625 -1.421875 15.125 8.703125 
Q 5.609375 18.84375 5.609375 36.375 
Q 5.609375 53.953125 15.125 64.078125 
Q 24.65625 74.21875 41.21875 74.21875 
Q 47.75 74.21875 53.53125 72.484375 
Q 59.328125 70.75 64.40625 67.28125 
z
" id="DejaVuSans-67"/>
     <path d="M 8.5 21.578125 
L 8.5 54.6875 
L 17.484375 54.6875 
L 17.484375 21.921875 
Q 17.484375 14.15625 20.5 10.265625 
Q 23.53125 6.390625 29.59375 6.390625 
Q 36.859375 6.390625 41.078125 11.03125 
Q 45.3125 15.671875 45.3125 23.6875 
L 45.3125 54.6875 
L 54.296875 54.6875 
L 54.296875 0 
L 45.3125 0 
L 45.3125 8.40625 
Q 42.046875 3.421875 37.71875 1 
Q 33.40625 -1.421875 27.6875 -1.421875 
Q 18.265625 -1.421875 13.375 4.4375 
Q 8.5 10.296875 8.5 21.578125 
z
M 31.109375 56 
z
" id="DejaVuSans-117"/>
     <path d="M 34.28125 27.484375 
Q 23.390625 27.484375 19.1875 25 
Q 14.984375 22.515625 14.984375 16.5 
Q 14.984375 11.71875 18.140625 8.90625 
Q 21.296875 6.109375 26.703125 6.109375 
Q 34.1875 6.109375 38.703125 11.40625 
Q 43.21875 16.703125 43.21875 25.484375 
L 43.21875 27.484375 
z
M 52.203125 31.203125 
L 52.203125 0 
L 43.21875 0 
L 43.21875 8.296875 
Q 40.140625 3.328125 35.546875 0.953125 
Q 30.953125 -1.421875 24.3125 -1.421875 
Q 15.921875 -1.421875 10.953125 3.296875 
Q 6 8.015625 6 15.921875 
Q 6 25.140625 12.171875 29.828125 
Q 18.359375 34.515625 30.609375 34.515625 
L 43.21875 34.515625 
L 43.21875 35.40625 
Q 43.21875 41.609375 39.140625 45 
Q 35.0625 48.390625 27.6875 48.390625 
Q 23 48.390625 18.546875 47.265625 
Q 14.109375 46.140625 10.015625 43.890625 
L 10.015625 52.203125 
Q 14.9375 54.109375 19.578125 55.046875 
Q 24.21875 56 28.609375 56 
Q 40.484375 56 46.34375 49.84375 
Q 52.203125 43.703125 52.203125 31.203125 
z
" id="DejaVuSans-97"/>
     <path d="M 11.71875 12.40625 
L 22.015625 12.40625 
L 22.015625 0 
L 11.71875 0 
z
M 11.71875 51.703125 
L 22.015625 51.703125 
L 22.015625 39.3125 
L 11.71875 39.3125 
z
" id="DejaVuSans-58"/>
     <path d="M 30.609375 48.390625 
Q 23.390625 48.390625 19.1875 42.75 
Q 14.984375 37.109375 14.984375 27.296875 
Q 14.984375 17.484375 19.15625 11.84375 
Q 23.34375 6.203125 30.609375 6.203125 
Q 37.796875 6.203125 41.984375 11.859375 
Q 46.1875 17.53125 46.1875 27.296875 
Q 46.1875 37.015625 41.984375 42.703125 
Q 37.796875 48.390625 30.609375 48.390625 
z
M 30.609375 56 
Q 42.328125 56 49.015625 48.375 
Q 55.71875 40.765625 55.71875 27.296875 
Q 55.71875 13.875 49.015625 6.21875 
Q 42.328125 -1.421875 30.609375 -1.421875 
Q 18.84375 -1.421875 12.171875 6.21875 
Q 5.515625 13.875 5.515625 27.296875 
Q 5.515625 40.765625 12.171875 48.375 
Q 18.84375 56 30.609375 56 
z
" id="DejaVuSans-111"/>
     <path d="M 37.109375 75.984375 
L 37.109375 68.5 
L 28.515625 68.5 
Q 23.6875 68.5 21.796875 66.546875 
Q 19.921875 64.59375 19.921875 59.515625 
L 19.921875 54.6875 
L 34.71875 54.6875 
L 34.71875 47.703125 
L 19.921875 47.703125 
L 19.921875 0 
L 10.890625 0 
L 10.890625 47.703125 
L 2.296875 47.703125 
L 2.296875 54.6875 
L 10.890625 54.6875 
L 10.890625 58.5 
Q 10.890625 67.625 15.140625 71.796875 
Q 19.390625 75.984375 28.609375 75.984375 
z
" id="DejaVuSans-102"/>
     <path d="M 53.515625 70.515625 
L 53.515625 60.890625 
Q 47.90625 63.578125 42.921875 64.890625 
Q 37.9375 66.21875 33.296875 66.21875 
Q 25.25 66.21875 20.875 63.09375 
Q 16.5 59.96875 16.5 54.203125 
Q 16.5 49.359375 19.40625 46.890625 
Q 22.3125 44.4375 30.421875 42.921875 
L 36.375 41.703125 
Q 47.40625 39.59375 52.65625 34.296875 
Q 57.90625 29 57.90625 20.125 
Q 57.90625 9.515625 50.796875 4.046875 
Q 43.703125 -1.421875 29.984375 -1.421875 
Q 24.8125 -1.421875 18.96875 -0.25 
Q 13.140625 0.921875 6.890625 3.21875 
L 6.890625 13.375 
Q 12.890625 10.015625 18.65625 8.296875 
Q 24.421875 6.59375 29.984375 6.59375 
Q 38.421875 6.59375 43.015625 9.90625 
Q 47.609375 13.234375 47.609375 19.390625 
Q 47.609375 24.75 44.3125 27.78125 
Q 41.015625 30.8125 33.5 32.328125 
L 27.484375 33.5 
Q 16.453125 35.6875 11.515625 40.375 
Q 6.59375 45.0625 6.59375 53.421875 
Q 6.59375 63.09375 13.40625 68.65625 
Q 20.21875 74.21875 32.171875 74.21875 
Q 37.3125 74.21875 42.625 73.28125 
Q 47.953125 72.359375 53.515625 70.515625 
z
" id="DejaVuSans-83"/>
     <path d="M 14.796875 27.296875 
Q 14.796875 17.390625 18.875 11.75 
Q 22.953125 6.109375 30.078125 6.109375 
Q 37.203125 6.109375 41.296875 11.75 
Q 45.40625 17.390625 45.40625 27.296875 
Q 45.40625 37.203125 41.296875 42.84375 
Q 37.203125 48.484375 30.078125 48.484375 
Q 22.953125 48.484375 18.875 42.84375 
Q 14.796875 37.203125 14.796875 27.296875 
z
M 45.40625 8.203125 
Q 42.578125 3.328125 38.25 0.953125 
Q 33.9375 -1.421875 27.875 -1.421875 
Q 17.96875 -1.421875 11.734375 6.484375 
Q 5.515625 14.40625 5.515625 27.296875 
Q 5.515625 40.1875 11.734375 48.09375 
Q 17.96875 56 27.875 56 
Q 33.9375 56 38.25 53.625 
Q 42.578125 51.265625 45.40625 46.390625 
L 45.40625 54.6875 
L 54.390625 54.6875 
L 54.390625 -20.796875 
L 45.40625 -20.796875 
z
" id="DejaVuSans-113"/>
    </defs>
    <g transform="translate(354.196875 19.3575)scale(0.16 -0.16)">
     <use xlink:href="#DejaVuSans-67"/>
     <use x="69.824219" xlink:href="#DejaVuSans-117"/>
     <use x="133.203125" xlink:href="#DejaVuSans-116"/>
     <use x="172.412109" xlink:href="#DejaVuSans-97"/>
     <use x="233.691406" xlink:href="#DejaVuSans-100"/>
     <use x="297.167969" xlink:href="#DejaVuSans-97"/>
     <use x="358.447266" xlink:href="#DejaVuSans-112"/>
     <use x="421.923828" xlink:href="#DejaVuSans-116"/>
     <use x="461.132812" xlink:href="#DejaVuSans-58"/>
     <use x="494.824219" xlink:href="#DejaVuSans-32"/>
     <use x="526.611328" xlink:href="#DejaVuSans-76"/>
     <use x="582.308594" xlink:href="#DejaVuSans-101"/>
     <use x="643.832031" xlink:href="#DejaVuSans-110"/>
     <use x="707.210938" xlink:href="#DejaVuSans-103"/>
     <use x="770.6875" xlink:href="#DejaVuSans-116"/>
     <use x="809.896484" xlink:href="#DejaVuSans-104"/>
     <use x="873.275391" xlink:href="#DejaVuSans-115"/>
     <use x="925.375" xlink:href="#DejaVuSans-32"/>
     <use x="957.162109" xlink:href="#DejaVuSans-111"/>
     <use x="1018.34375" xlink:href="#DejaVuSans-102"/>
     <use x="1053.548828" xlink:href="#DejaVuSans-32"/>
     <use x="1085.335938" xlink:href="#DejaVuSans-84"/>
     <use x="1146.201172" xlink:href="#DejaVuSans-114"/>
     <use x="1187.314453" xlink:href="#DejaVuSans-105"/>
     <use x="1215.097656" xlink:href="#DejaVuSans-109"/>
     <use x="1312.509766" xlink:href="#DejaVuSans-109"/>
     <use x="1409.921875" xlink:href="#DejaVuSans-101"/>
     <use x="1471.445312" xlink:href="#DejaVuSans-100"/>
     <use x="1534.921875" xlink:href="#DejaVuSans-32"/>
     <use x="1566.708984" xlink:href="#DejaVuSans-83"/>
     <use x="1630.185547" xlink:href="#DejaVuSans-101"/>
     <use x="1691.708984" xlink:href="#DejaVuSans-113"/>
     <use x="1755.185547" xlink:href="#DejaVuSans-117"/>
     <use x="1818.564453" xlink:href="#DejaVuSans-101"/>
     <use x="1880.087891" xlink:href="#DejaVuSans-110"/>
     <use x="1943.466797" xlink:href="#DejaVuSans-99"/>
     <use x="1998.447266" xlink:href="#DejaVuSans-101"/>
     <use x="2059.970703" xlink:href="#DejaVuSans-115"/>
    </g>
   </g>
   <g id="legend_1">
    <g id="line2d_21">
     <path d="M 60.528125 291.525394 
L 76.528125 291.525394 
" style="fill:none;stroke:#7cb5ec;stroke-linecap:square;"/>
    </g>
    <g id="line2d_22"/>
    <g id="text_18">
     <!-- RT_Gad2_1.filtered - Adapter 1 -->
     <defs>
      <path d="M 44.390625 34.1875 
Q 47.5625 33.109375 50.5625 29.59375 
Q 53.5625 26.078125 56.59375 19.921875 
L 66.609375 0 
L 56 0 
L 46.6875 18.703125 
Q 43.0625 26.03125 39.671875 28.421875 
Q 36.28125 30.8125 30.421875 30.8125 
L 19.671875 30.8125 
L 19.671875 0 
L 9.8125 0 
L 9.8125 72.90625 
L 32.078125 72.90625 
Q 44.578125 72.90625 50.734375 67.671875 
Q 56.890625 62.453125 56.890625 51.90625 
Q 56.890625 45.015625 53.6875 40.46875 
Q 50.484375 35.9375 44.390625 34.1875 
z
M 19.671875 64.796875 
L 19.671875 38.921875 
L 32.078125 38.921875 
Q 39.203125 38.921875 42.84375 42.21875 
Q 46.484375 45.515625 46.484375 51.90625 
Q 46.484375 58.296875 42.84375 61.546875 
Q 39.203125 64.796875 32.078125 64.796875 
z
" id="DejaVuSans-82"/>
      <path d="M 50.984375 -16.609375 
L 50.984375 -23.578125 
L -0.984375 -23.578125 
L -0.984375 -16.609375 
z
" id="DejaVuSans-95"/>
      <path d="M 59.515625 10.40625 
L 59.515625 29.984375 
L 43.40625 29.984375 
L 43.40625 38.09375 
L 69.28125 38.09375 
L 69.28125 6.78125 
Q 63.578125 2.734375 56.6875 0.65625 
Q 49.8125 -1.421875 42 -1.421875 
Q 24.90625 -1.421875 15.25 8.5625 
Q 5.609375 18.5625 5.609375 36.375 
Q 5.609375 54.25 15.25 64.234375 
Q 24.90625 74.21875 42 74.21875 
Q 49.125 74.21875 55.546875 72.453125 
Q 61.96875 70.703125 67.390625 67.28125 
L 67.390625 56.78125 
Q 61.921875 61.421875 55.765625 63.765625 
Q 49.609375 66.109375 42.828125 66.109375 
Q 29.4375 66.109375 22.71875 58.640625 
Q 16.015625 51.171875 16.015625 36.375 
Q 16.015625 21.625 22.71875 14.15625 
Q 29.4375 6.6875 42.828125 6.6875 
Q 48.046875 6.6875 52.140625 7.59375 
Q 56.25 8.5 59.515625 10.40625 
z
" id="DejaVuSans-71"/>
      <path d="M 10.6875 12.40625 
L 21 12.40625 
L 21 0 
L 10.6875 0 
z
" id="DejaVuSans-46"/>
      <path d="M 9.421875 75.984375 
L 18.40625 75.984375 
L 18.40625 0 
L 9.421875 0 
z
" id="DejaVuSans-108"/>
      <path d="M 4.890625 31.390625 
L 31.203125 31.390625 
L 31.203125 23.390625 
L 4.890625 23.390625 
z
" id="DejaVuSans-45"/>
      <path d="M 34.1875 63.1875 
L 20.796875 26.90625 
L 47.609375 26.90625 
z
M 28.609375 72.90625 
L 39.796875 72.90625 
L 67.578125 0 
L 57.328125 0 
L 50.6875 18.703125 
L 17.828125 18.703125 
L 11.1875 0 
L 0.78125 0 
z
" id="DejaVuSans-65"/>
     </defs>
     <g transform="translate(82.928125 294.325394)scale(0.08 -0.08)">
      <use xlink:href="#DejaVuSans-82"/>
      <use x="69.373047" xlink:href="#DejaVuSans-84"/>
      <use x="130.457031" xlink:href="#DejaVuSans-95"/>
      <use x="180.457031" xlink:href="#DejaVuSans-71"/>
      <use x="257.947266" xlink:href="#DejaVuSans-97"/>
      <use x="319.226562" xlink:href="#DejaVuSans-100"/>
      <use x="382.703125" xlink:href="#DejaVuSans-50"/>
      <use x="446.326172" xlink:href="#DejaVuSans-95"/>
      <use x="496.326172" xlink:href="#DejaVuSans-49"/>
      <use x="559.949219" xlink:href="#DejaVuSans-46"/>
      <use x="591.736328" xlink:href="#DejaVuSans-102"/>
      <use x="626.941406" xlink:href="#DejaVuSans-105"/>
      <use x="654.724609" xlink:href="#DejaVuSans-108"/>
      <use x="682.507812" xlink:href="#DejaVuSans-116"/>
      <use x="721.716797" xlink:href="#DejaVuSans-101"/>
      <use x="783.240234" xlink:href="#DejaVuSans-114"/>
      <use x="824.322266" xlink:href="#DejaVuSans-101"/>
      <use x="885.845703" xlink:href="#DejaVuSans-100"/>
      <use x="949.322266" xlink:href="#DejaVuSans-32"/>
      <use x="981.109375" xlink:href="#DejaVuSans-45"/>
      <use x="1017.193359" xlink:href="#DejaVuSans-32"/>
      <use x="1048.980469" xlink:href="#DejaVuSans-65"/>
      <use x="1117.373047" xlink:href="#DejaVuSans-100"/>
      <use x="1180.849609" xlink:href="#DejaVuSans-97"/>
      <use x="1242.128906" xlink:href="#DejaVuSans-112"/>
      <use x="1305.605469" xlink:href="#DejaVuSans-116"/>
      <use x="1344.814453" xlink:href="#DejaVuSans-101"/>
      <use x="1406.337891" xlink:href="#DejaVuSans-114"/>
      <use x="1447.451172" xlink:href="#DejaVuSans-32"/>
      <use x="1479.238281" xlink:href="#DejaVuSans-49"/>
     </g>
    </g>
    <g id="line2d_23">
     <path d="M 60.528125 303.490394 
L 76.528125 303.490394 
" style="fill:none;stroke:#434348;stroke-linecap:square;"/>
    </g>
    <g id="line2d_24"/>
    <g id="text_19">
     <!-- RT_Gad2_2.filtered - Adapter 1 -->
     <g transform="translate(82.928125 306.290394)scale(0.08 -0.08)">
      <use xlink:href="#DejaVuSans-82"/>
      <use x="69.373047" xlink:href="#DejaVuSans-84"/>
      <use x="130.457031" xlink:href="#DejaVuSans-95"/>
      <use x="180.457031" xlink:href="#DejaVuSans-71"/>
      <use x="257.947266" xlink:href="#DejaVuSans-97"/>
      <use x="319.226562" xlink:href="#DejaVuSans-100"/>
      <use x="382.703125" xlink:href="#DejaVuSans-50"/>
      <use x="446.326172" xlink:href="#DejaVuSans-95"/>
      <use x="496.326172" xlink:href="#DejaVuSans-50"/>
      <use x="559.949219" xlink:href="#DejaVuSans-46"/>
      <use x="591.736328" xlink:href="#DejaVuSans-102"/>
      <use x="626.941406" xlink:href="#DejaVuSans-105"/>
      <use x="654.724609" xlink:href="#DejaVuSans-108"/>
      <use x="682.507812" xlink:href="#DejaVuSans-116"/>
      <use x="721.716797" xlink:href="#DejaVuSans-101"/>
      <use x="783.240234" xlink:href="#DejaVuSans-114"/>
      <use x="824.322266" xlink:href="#DejaVuSans-101"/>
      <use x="885.845703" xlink:href="#DejaVuSans-100"/>
      <use x="949.322266" xlink:href="#DejaVuSans-32"/>
      <use x="981.109375" xlink:href="#DejaVuSans-45"/>
      <use x="1017.193359" xlink:href="#DejaVuSans-32"/>
      <use x="1048.980469" xlink:href="#DejaVuSans-65"/>
      <use x="1117.373047" xlink:href="#DejaVuSans-100"/>
      <use x="1180.849609" xlink:href="#DejaVuSans-97"/>
      <use x="1242.128906" xlink:href="#DejaVuSans-112"/>
      <use x="1305.605469" xlink:href="#DejaVuSans-116"/>
      <use x="1344.814453" xlink:href="#DejaVuSans-101"/>
      <use x="1406.337891" xlink:href="#DejaVuSans-114"/>
      <use x="1447.451172" xlink:href="#DejaVuSans-32"/>
      <use x="1479.238281" xlink:href="#DejaVuSans-49"/>
     </g>
    </g>
    <g id="line2d_25">
     <path d="M 60.528125 315.455394 
L 76.528125 315.455394 
" style="fill:none;stroke:#90ed7d;stroke-linecap:square;"/>
    </g>
    <g id="line2d_26"/>
    <g id="text_20">
     <!-- RT_Gad2_3.filtered - Adapter 1 -->
     <defs>
      <path d="M 40.578125 39.3125 
Q 47.65625 37.796875 51.625 33 
Q 55.609375 28.21875 55.609375 21.1875 
Q 55.609375 10.40625 48.1875 4.484375 
Q 40.765625 -1.421875 27.09375 -1.421875 
Q 22.515625 -1.421875 17.65625 -0.515625 
Q 12.796875 0.390625 7.625 2.203125 
L 7.625 11.71875 
Q 11.71875 9.328125 16.59375 8.109375 
Q 21.484375 6.890625 26.8125 6.890625 
Q 36.078125 6.890625 40.9375 10.546875 
Q 45.796875 14.203125 45.796875 21.1875 
Q 45.796875 27.640625 41.28125 31.265625 
Q 36.765625 34.90625 28.71875 34.90625 
L 20.21875 34.90625 
L 20.21875 43.015625 
L 29.109375 43.015625 
Q 36.375 43.015625 40.234375 45.921875 
Q 44.09375 48.828125 44.09375 54.296875 
Q 44.09375 59.90625 40.109375 62.90625 
Q 36.140625 65.921875 28.71875 65.921875 
Q 24.65625 65.921875 20.015625 65.03125 
Q 15.375 64.15625 9.8125 62.3125 
L 9.8125 71.09375 
Q 15.4375 72.65625 20.34375 73.4375 
Q 25.25 74.21875 29.59375 74.21875 
Q 40.828125 74.21875 47.359375 69.109375 
Q 53.90625 64.015625 53.90625 55.328125 
Q 53.90625 49.265625 50.4375 45.09375 
Q 46.96875 40.921875 40.578125 39.3125 
z
" id="DejaVuSans-51"/>
     </defs>
     <g transform="translate(82.928125 318.255394)scale(0.08 -0.08)">
      <use xlink:href="#DejaVuSans-82"/>
      <use x="69.373047" xlink:href="#DejaVuSans-84"/>
      <use x="130.457031" xlink:href="#DejaVuSans-95"/>
      <use x="180.457031" xlink:href="#DejaVuSans-71"/>
      <use x="257.947266" xlink:href="#DejaVuSans-97"/>
      <use x="319.226562" xlink:href="#DejaVuSans-100"/>
      <use x="382.703125" xlink:href="#DejaVuSans-50"/>
      <use x="446.326172" xlink:href="#DejaVuSans-95"/>
      <use x="496.326172" xlink:href="#DejaVuSans-51"/>
      <use x="559.949219" xlink:href="#DejaVuSans-46"/>
      <use x="591.736328" xlink:href="#DejaVuSans-102"/>
      <use x="626.941406" xlink:href="#DejaVuSans-105"/>
      <use x="654.724609" xlink:href="#DejaVuSans-108"/>
      <use x="682.507812" xlink:href="#DejaVuSans-116"/>
      <use x="721.716797" xlink:href="#DejaVuSans-101"/>
      <use x="783.240234" xlink:href="#DejaVuSans-114"/>
      <use x="824.322266" xlink:href="#DejaVuSans-101"/>
      <use x="885.845703" xlink:href="#DejaVuSans-100"/>
      <use x="949.322266" xlink:href="#DejaVuSans-32"/>
      <use x="981.109375" xlink:href="#DejaVuSans-45"/>
      <use x="1017.193359" xlink:href="#DejaVuSans-32"/>
      <use x="1048.980469" xlink:href="#DejaVuSans-65"/>
      <use x="1117.373047" xlink:href="#DejaVuSans-100"/>
      <use x="1180.849609" xlink:href="#DejaVuSans-97"/>
      <use x="1242.128906" xlink:href="#DejaVuSans-112"/>
      <use x="1305.605469" xlink:href="#DejaVuSans-116"/>
      <use x="1344.814453" xlink:href="#DejaVuSans-101"/>
      <use x="1406.337891" xlink:href="#DejaVuSans-114"/>
      <use x="1447.451172" xlink:href="#DejaVuSans-32"/>
      <use x="1479.238281" xlink:href="#DejaVuSans-49"/>
     </g>
    </g>
    <g id="line2d_27">
     <path d="M 250.389688 291.525394 
L 266.389688 291.525394 
" style="fill:none;stroke:#f7a35c;stroke-linecap:square;"/>
    </g>
    <g id="line2d_28"/>
    <g id="text_21">
     <!-- RT_vGluT2_1.filtered - Adapter 1 -->
     <g transform="translate(272.789688 294.325394)scale(0.08 -0.08)">
      <use xlink:href="#DejaVuSans-82"/>
      <use x="69.373047" xlink:href="#DejaVuSans-84"/>
      <use x="130.457031" xlink:href="#DejaVuSans-95"/>
      <use x="180.457031" xlink:href="#DejaVuSans-118"/>
      <use x="239.636719" xlink:href="#DejaVuSans-71"/>
      <use x="317.126953" xlink:href="#DejaVuSans-108"/>
      <use x="344.910156" xlink:href="#DejaVuSans-117"/>
      <use x="408.289062" xlink:href="#DejaVuSans-84"/>
      <use x="469.373047" xlink:href="#DejaVuSans-50"/>
      <use x="532.996094" xlink:href="#DejaVuSans-95"/>
      <use x="582.996094" xlink:href="#DejaVuSans-49"/>
      <use x="646.619141" xlink:href="#DejaVuSans-46"/>
      <use x="678.40625" xlink:href="#DejaVuSans-102"/>
      <use x="713.611328" xlink:href="#DejaVuSans-105"/>
      <use x="741.394531" xlink:href="#DejaVuSans-108"/>
      <use x="769.177734" xlink:href="#DejaVuSans-116"/>
      <use x="808.386719" xlink:href="#DejaVuSans-101"/>
      <use x="869.910156" xlink:href="#DejaVuSans-114"/>
      <use x="910.992188" xlink:href="#DejaVuSans-101"/>
      <use x="972.515625" xlink:href="#DejaVuSans-100"/>
      <use x="1035.992188" xlink:href="#DejaVuSans-32"/>
      <use x="1067.779297" xlink:href="#DejaVuSans-45"/>
      <use x="1103.863281" xlink:href="#DejaVuSans-32"/>
      <use x="1135.650391" xlink:href="#DejaVuSans-65"/>
      <use x="1204.042969" xlink:href="#DejaVuSans-100"/>
      <use x="1267.519531" xlink:href="#DejaVuSans-97"/>
      <use x="1328.798828" xlink:href="#DejaVuSans-112"/>
      <use x="1392.275391" xlink:href="#DejaVuSans-116"/>
      <use x="1431.484375" xlink:href="#DejaVuSans-101"/>
      <use x="1493.007812" xlink:href="#DejaVuSans-114"/>
      <use x="1534.121094" xlink:href="#DejaVuSans-32"/>
      <use x="1565.908203" xlink:href="#DejaVuSans-49"/>
     </g>
    </g>
    <g id="line2d_29">
     <path d="M 250.389688 303.490394 
L 266.389688 303.490394 
" style="fill:none;stroke:#8085e9;stroke-linecap:square;"/>
    </g>
    <g id="line2d_30"/>
    <g id="text_22">
     <!-- RT_vGluT2_3.filtered - Adapter 1 -->
     <g transform="translate(272.789688 306.290394)scale(0.08 -0.08)">
      <use xlink:href="#DejaVuSans-82"/>
      <use x="69.373047" xlink:href="#DejaVuSans-84"/>
      <use x="130.457031" xlink:href="#DejaVuSans-95"/>
      <use x="180.457031" xlink:href="#DejaVuSans-118"/>
      <use x="239.636719" xlink:href="#DejaVuSans-71"/>
      <use x="317.126953" xlink:href="#DejaVuSans-108"/>
      <use x="344.910156" xlink:href="#DejaVuSans-117"/>
      <use x="408.289062" xlink:href="#DejaVuSans-84"/>
      <use x="469.373047" xlink:href="#DejaVuSans-50"/>
      <use x="532.996094" xlink:href="#DejaVuSans-95"/>
      <use x="582.996094" xlink:href="#DejaVuSans-51"/>
      <use x="646.619141" xlink:href="#DejaVuSans-46"/>
      <use x="678.40625" xlink:href="#DejaVuSans-102"/>
      <use x="713.611328" xlink:href="#DejaVuSans-105"/>
      <use x="741.394531" xlink:href="#DejaVuSans-108"/>
      <use x="769.177734" xlink:href="#DejaVuSans-116"/>
      <use x="808.386719" xlink:href="#DejaVuSans-101"/>
      <use x="869.910156" xlink:href="#DejaVuSans-114"/>
      <use x="910.992188" xlink:href="#DejaVuSans-101"/>
      <use x="972.515625" xlink:href="#DejaVuSans-100"/>
      <use x="1035.992188" xlink:href="#DejaVuSans-32"/>
      <use x="1067.779297" xlink:href="#DejaVuSans-45"/>
      <use x="1103.863281" xlink:href="#DejaVuSans-32"/>
      <use x="1135.650391" xlink:href="#DejaVuSans-65"/>
      <use x="1204.042969" xlink:href="#DejaVuSans-100"/>
      <use x="1267.519531" xlink:href="#DejaVuSans-97"/>
      <use x="1328.798828" xlink:href="#DejaVuSans-112"/>
      <use x="1392.275391" xlink:href="#DejaVuSans-116"/>
      <use x="1431.484375" xlink:href="#DejaVuSans-101"/>
      <use x="1493.007812" xlink:href="#DejaVuSans-114"/>
      <use x="1534.121094" xlink:href="#DejaVuSans-32"/>
      <use x="1565.908203" xlink:href="#DejaVuSans-49"/>
     </g>
    </g>
    <g id="line2d_31">
     <path d="M 447.18375 291.525394 
L 463.18375 291.525394 
" style="fill:none;stroke:#f15c80;stroke-linecap:square;"/>
    </g>
    <g id="line2d_32"/>
    <g id="text_23">
     <!-- S1_Gad2_1.filtered - Adapter 1 -->
     <g transform="translate(469.58375 294.325394)scale(0.08 -0.08)">
      <use xlink:href="#DejaVuSans-83"/>
      <use x="63.476562" xlink:href="#DejaVuSans-49"/>
      <use x="127.099609" xlink:href="#DejaVuSans-95"/>
      <use x="177.099609" xlink:href="#DejaVuSans-71"/>
      <use x="254.589844" xlink:href="#DejaVuSans-97"/>
      <use x="315.869141" xlink:href="#DejaVuSans-100"/>
      <use x="379.345703" xlink:href="#DejaVuSans-50"/>
      <use x="442.96875" xlink:href="#DejaVuSans-95"/>
      <use x="492.96875" xlink:href="#DejaVuSans-49"/>
      <use x="556.591797" xlink:href="#DejaVuSans-46"/>
      <use x="588.378906" xlink:href="#DejaVuSans-102"/>
      <use x="623.583984" xlink:href="#DejaVuSans-105"/>
      <use x="651.367188" xlink:href="#DejaVuSans-108"/>
      <use x="679.150391" xlink:href="#DejaVuSans-116"/>
      <use x="718.359375" xlink:href="#DejaVuSans-101"/>
      <use x="779.882812" xlink:href="#DejaVuSans-114"/>
      <use x="820.964844" xlink:href="#DejaVuSans-101"/>
      <use x="882.488281" xlink:href="#DejaVuSans-100"/>
      <use x="945.964844" xlink:href="#DejaVuSans-32"/>
      <use x="977.751953" xlink:href="#DejaVuSans-45"/>
      <use x="1013.835938" xlink:href="#DejaVuSans-32"/>
      <use x="1045.623047" xlink:href="#DejaVuSans-65"/>
      <use x="1114.015625" xlink:href="#DejaVuSans-100"/>
      <use x="1177.492188" xlink:href="#DejaVuSans-97"/>
      <use x="1238.771484" xlink:href="#DejaVuSans-112"/>
      <use x="1302.248047" xlink:href="#DejaVuSans-116"/>
      <use x="1341.457031" xlink:href="#DejaVuSans-101"/>
      <use x="1402.980469" xlink:href="#DejaVuSans-114"/>
      <use x="1444.09375" xlink:href="#DejaVuSans-32"/>
      <use x="1475.880859" xlink:href="#DejaVuSans-49"/>
     </g>
    </g>
    <g id="line2d_33">
     <path d="M 447.18375 303.490394 
L 463.18375 303.490394 
" style="fill:none;stroke:#e4d354;stroke-linecap:square;"/>
    </g>
    <g id="line2d_34"/>
    <g id="text_24">
     <!-- S1_Gad2_2.filtered - Adapter 1 -->
     <g transform="translate(469.58375 306.290394)scale(0.08 -0.08)">
      <use xlink:href="#DejaVuSans-83"/>
      <use x="63.476562" xlink:href="#DejaVuSans-49"/>
      <use x="127.099609" xlink:href="#DejaVuSans-95"/>
      <use x="177.099609" xlink:href="#DejaVuSans-71"/>
      <use x="254.589844" xlink:href="#DejaVuSans-97"/>
      <use x="315.869141" xlink:href="#DejaVuSans-100"/>
      <use x="379.345703" xlink:href="#DejaVuSans-50"/>
      <use x="442.96875" xlink:href="#DejaVuSans-95"/>
      <use x="492.96875" xlink:href="#DejaVuSans-50"/>
      <use x="556.591797" xlink:href="#DejaVuSans-46"/>
      <use x="588.378906" xlink:href="#DejaVuSans-102"/>
      <use x="623.583984" xlink:href="#DejaVuSans-105"/>
      <use x="651.367188" xlink:href="#DejaVuSans-108"/>
      <use x="679.150391" xlink:href="#DejaVuSans-116"/>
      <use x="718.359375" xlink:href="#DejaVuSans-101"/>
      <use x="779.882812" xlink:href="#DejaVuSans-114"/>
      <use x="820.964844" xlink:href="#DejaVuSans-101"/>
      <use x="882.488281" xlink:href="#DejaVuSans-100"/>
      <use x="945.964844" xlink:href="#DejaVuSans-32"/>
      <use x="977.751953" xlink:href="#DejaVuSans-45"/>
      <use x="1013.835938" xlink:href="#DejaVuSans-32"/>
      <use x="1045.623047" xlink:href="#DejaVuSans-65"/>
      <use x="1114.015625" xlink:href="#DejaVuSans-100"/>
      <use x="1177.492188" xlink:href="#DejaVuSans-97"/>
      <use x="1238.771484" xlink:href="#DejaVuSans-112"/>
      <use x="1302.248047" xlink:href="#DejaVuSans-116"/>
      <use x="1341.457031" xlink:href="#DejaVuSans-101"/>
      <use x="1402.980469" xlink:href="#DejaVuSans-114"/>
      <use x="1444.09375" xlink:href="#DejaVuSans-32"/>
      <use x="1475.880859" xlink:href="#DejaVuSans-49"/>
     </g>
    </g>
    <g id="line2d_35">
     <path d="M 636.777813 291.525394 
L 652.777813 291.525394 
" style="fill:none;stroke:#2b908f;stroke-linecap:square;"/>
    </g>
    <g id="line2d_36"/>
    <g id="text_25">
     <!-- S1_Gad2_3.filtered - Adapter 1 -->
     <g transform="translate(659.177813 294.325394)scale(0.08 -0.08)">
      <use xlink:href="#DejaVuSans-83"/>
      <use x="63.476562" xlink:href="#DejaVuSans-49"/>
      <use x="127.099609" xlink:href="#DejaVuSans-95"/>
      <use x="177.099609" xlink:href="#DejaVuSans-71"/>
      <use x="254.589844" xlink:href="#DejaVuSans-97"/>
      <use x="315.869141" xlink:href="#DejaVuSans-100"/>
      <use x="379.345703" xlink:href="#DejaVuSans-50"/>
      <use x="442.96875" xlink:href="#DejaVuSans-95"/>
      <use x="492.96875" xlink:href="#DejaVuSans-51"/>
      <use x="556.591797" xlink:href="#DejaVuSans-46"/>
      <use x="588.378906" xlink:href="#DejaVuSans-102"/>
      <use x="623.583984" xlink:href="#DejaVuSans-105"/>
      <use x="651.367188" xlink:href="#DejaVuSans-108"/>
      <use x="679.150391" xlink:href="#DejaVuSans-116"/>
      <use x="718.359375" xlink:href="#DejaVuSans-101"/>
      <use x="779.882812" xlink:href="#DejaVuSans-114"/>
      <use x="820.964844" xlink:href="#DejaVuSans-101"/>
      <use x="882.488281" xlink:href="#DejaVuSans-100"/>
      <use x="945.964844" xlink:href="#DejaVuSans-32"/>
      <use x="977.751953" xlink:href="#DejaVuSans-45"/>
      <use x="1013.835938" xlink:href="#DejaVuSans-32"/>
      <use x="1045.623047" xlink:href="#DejaVuSans-65"/>
      <use x="1114.015625" xlink:href="#DejaVuSans-100"/>
      <use x="1177.492188" xlink:href="#DejaVuSans-97"/>
      <use x="1238.771484" xlink:href="#DejaVuSans-112"/>
      <use x="1302.248047" xlink:href="#DejaVuSans-116"/>
      <use x="1341.457031" xlink:href="#DejaVuSans-101"/>
      <use x="1402.980469" xlink:href="#DejaVuSans-114"/>
      <use x="1444.09375" xlink:href="#DejaVuSans-32"/>
      <use x="1475.880859" xlink:href="#DejaVuSans-49"/>
     </g>
    </g>
    <g id="line2d_37">
     <path d="M 636.777813 303.490394 
L 652.777813 303.490394 
" style="fill:none;stroke:#f45b5b;stroke-linecap:square;"/>
    </g>
    <g id="line2d_38"/>
    <g id="text_26">
     <!-- S1_vGluT2_1.filtered - Adapter 1 -->
     <g transform="translate(659.177813 306.290394)scale(0.08 -0.08)">
      <use xlink:href="#DejaVuSans-83"/>
      <use x="63.476562" xlink:href="#DejaVuSans-49"/>
      <use x="127.099609" xlink:href="#DejaVuSans-95"/>
      <use x="177.099609" xlink:href="#DejaVuSans-118"/>
      <use x="236.279297" xlink:href="#DejaVuSans-71"/>
      <use x="313.769531" xlink:href="#DejaVuSans-108"/>
      <use x="341.552734" xlink:href="#DejaVuSans-117"/>
      <use x="404.931641" xlink:href="#DejaVuSans-84"/>
      <use x="466.015625" xlink:href="#DejaVuSans-50"/>
      <use x="529.638672" xlink:href="#DejaVuSans-95"/>
      <use x="579.638672" xlink:href="#DejaVuSans-49"/>
      <use x="643.261719" xlink:href="#DejaVuSans-46"/>
      <use x="675.048828" xlink:href="#DejaVuSans-102"/>
      <use x="710.253906" xlink:href="#DejaVuSans-105"/>
      <use x="738.037109" xlink:href="#DejaVuSans-108"/>
      <use x="765.820312" xlink:href="#DejaVuSans-116"/>
      <use x="805.029297" xlink:href="#DejaVuSans-101"/>
      <use x="866.552734" xlink:href="#DejaVuSans-114"/>
      <use x="907.634766" xlink:href="#DejaVuSans-101"/>
      <use x="969.158203" xlink:href="#DejaVuSans-100"/>
      <use x="1032.634766" xlink:href="#DejaVuSans-32"/>
      <use x="1064.421875" xlink:href="#DejaVuSans-45"/>
      <use x="1100.505859" xlink:href="#DejaVuSans-32"/>
      <use x="1132.292969" xlink:href="#DejaVuSans-65"/>
      <use x="1200.685547" xlink:href="#DejaVuSans-100"/>
      <use x="1264.162109" xlink:href="#DejaVuSans-97"/>
      <use x="1325.441406" xlink:href="#DejaVuSans-112"/>
      <use x="1388.917969" xlink:href="#DejaVuSans-116"/>
      <use x="1428.126953" xlink:href="#DejaVuSans-101"/>
      <use x="1489.650391" xlink:href="#DejaVuSans-114"/>
      <use x="1530.763672" xlink:href="#DejaVuSans-32"/>
      <use x="1562.550781" xlink:href="#DejaVuSans-49"/>
     </g>
    </g>
    <g id="line2d_39">
     <path d="M 833.304375 291.525394 
L 849.304375 291.525394 
" style="fill:none;stroke:#91e8e1;stroke-linecap:square;"/>
    </g>
    <g id="line2d_40"/>
    <g id="text_27">
     <!-- S1_vGluT2_2.filtered - Adapter 1 -->
     <g transform="translate(855.704375 294.325394)scale(0.08 -0.08)">
      <use xlink:href="#DejaVuSans-83"/>
      <use x="63.476562" xlink:href="#DejaVuSans-49"/>
      <use x="127.099609" xlink:href="#DejaVuSans-95"/>
      <use x="177.099609" xlink:href="#DejaVuSans-118"/>
      <use x="236.279297" xlink:href="#DejaVuSans-71"/>
      <use x="313.769531" xlink:href="#DejaVuSans-108"/>
      <use x="341.552734" xlink:href="#DejaVuSans-117"/>
      <use x="404.931641" xlink:href="#DejaVuSans-84"/>
      <use x="466.015625" xlink:href="#DejaVuSans-50"/>
      <use x="529.638672" xlink:href="#DejaVuSans-95"/>
      <use x="579.638672" xlink:href="#DejaVuSans-50"/>
      <use x="643.261719" xlink:href="#DejaVuSans-46"/>
      <use x="675.048828" xlink:href="#DejaVuSans-102"/>
      <use x="710.253906" xlink:href="#DejaVuSans-105"/>
      <use x="738.037109" xlink:href="#DejaVuSans-108"/>
      <use x="765.820312" xlink:href="#DejaVuSans-116"/>
      <use x="805.029297" xlink:href="#DejaVuSans-101"/>
      <use x="866.552734" xlink:href="#DejaVuSans-114"/>
      <use x="907.634766" xlink:href="#DejaVuSans-101"/>
      <use x="969.158203" xlink:href="#DejaVuSans-100"/>
      <use x="1032.634766" xlink:href="#DejaVuSans-32"/>
      <use x="1064.421875" xlink:href="#DejaVuSans-45"/>
      <use x="1100.505859" xlink:href="#DejaVuSans-32"/>
      <use x="1132.292969" xlink:href="#DejaVuSans-65"/>
      <use x="1200.685547" xlink:href="#DejaVuSans-100"/>
      <use x="1264.162109" xlink:href="#DejaVuSans-97"/>
      <use x="1325.441406" xlink:href="#DejaVuSans-112"/>
      <use x="1388.917969" xlink:href="#DejaVuSans-116"/>
      <use x="1428.126953" xlink:href="#DejaVuSans-101"/>
      <use x="1489.650391" xlink:href="#DejaVuSans-114"/>
      <use x="1530.763672" xlink:href="#DejaVuSans-32"/>
      <use x="1562.550781" xlink:href="#DejaVuSans-49"/>
     </g>
    </g>
    <g id="line2d_41">
     <path d="M 833.304375 303.490394 
L 849.304375 303.490394 
" style="fill:none;stroke:#7cb5ec;stroke-linecap:square;"/>
    </g>
    <g id="line2d_42"/>
    <g id="text_28">
     <!-- S1_vGluT2_3.filtered - Adapter 1 -->
     <g transform="translate(855.704375 306.290394)scale(0.08 -0.08)">
      <use xlink:href="#DejaVuSans-83"/>
      <use x="63.476562" xlink:href="#DejaVuSans-49"/>
      <use x="127.099609" xlink:href="#DejaVuSans-95"/>
      <use x="177.099609" xlink:href="#DejaVuSans-118"/>
      <use x="236.279297" xlink:href="#DejaVuSans-71"/>
      <use x="313.769531" xlink:href="#DejaVuSans-108"/>
      <use x="341.552734" xlink:href="#DejaVuSans-117"/>
      <use x="404.931641" xlink:href="#DejaVuSans-84"/>
      <use x="466.015625" xlink:href="#DejaVuSans-50"/>
      <use x="529.638672" xlink:href="#DejaVuSans-95"/>
      <use x="579.638672" xlink:href="#DejaVuSans-51"/>
      <use x="643.261719" xlink:href="#DejaVuSans-46"/>
      <use x="675.048828" xlink:href="#DejaVuSans-102"/>
      <use x="710.253906" xlink:href="#DejaVuSans-105"/>
      <use x="738.037109" xlink:href="#DejaVuSans-108"/>
      <use x="765.820312" xlink:href="#DejaVuSans-116"/>
      <use x="805.029297" xlink:href="#DejaVuSans-101"/>
      <use x="866.552734" xlink:href="#DejaVuSans-114"/>
      <use x="907.634766" xlink:href="#DejaVuSans-101"/>
      <use x="969.158203" xlink:href="#DejaVuSans-100"/>
      <use x="1032.634766" xlink:href="#DejaVuSans-32"/>
      <use x="1064.421875" xlink:href="#DejaVuSans-45"/>
      <use x="1100.505859" xlink:href="#DejaVuSans-32"/>
      <use x="1132.292969" xlink:href="#DejaVuSans-65"/>
      <use x="1200.685547" xlink:href="#DejaVuSans-100"/>
      <use x="1264.162109" xlink:href="#DejaVuSans-97"/>
      <use x="1325.441406" xlink:href="#DejaVuSans-112"/>
      <use x="1388.917969" xlink:href="#DejaVuSans-116"/>
      <use x="1428.126953" xlink:href="#DejaVuSans-101"/>
      <use x="1489.650391" xlink:href="#DejaVuSans-114"/>
      <use x="1530.763672" xlink:href="#DejaVuSans-32"/>
      <use x="1562.550781" xlink:href="#DejaVuSans-49"/>
     </g>
    </g>
   </g>
  </g>
 </g>
 <defs>
  <clipPath id="pe701705aa2">
   <rect height="242.5072" width="939.67" x="53.328125" y="31.48286"/>
  </clipPath>
 </defs>
</svg>
