<?xml version="1.0" encoding="utf-8" standalone="no"?>
<!DOCTYPE svg PUBLIC "-//W3C//DTD SVG 1.1//EN"
  "http://www.w3.org/Graphics/SVG/1.1/DTD/svg11.dtd">
<!-- Created with matplotlib (https://matplotlib.org/) -->
<svg height="330.541644pt" version="1.1" viewBox="0 0 1000.358125 330.541644" width="1000.358125pt" xmlns="http://www.w3.org/2000/svg" xmlns:xlink="http://www.w3.org/1999/xlink">
 <defs>
  <style type="text/css">
*{stroke-linecap:butt;stroke-linejoin:round;}
  </style>
 </defs>
 <g id="figure_1">
  <g id="axes_1">
   <g id="patch_1">
    <path d="M 32.968125 273.99006 
L 993.158125 273.99006 
L 993.158125 31.48286 
L 32.968125 31.48286 
z
" style="fill:#ffffff;"/>
   </g>
   <g id="matplotlib.axis_1">
    <g id="xtick_1">
     <g id="text_1">
      <!-- 0 -->
      <defs>
       <path d="M 31.78125 66.40625 
Q 24.171875 66.40625 20.328125 58.90625 
Q 16.5 51.421875 16.5 36.375 
Q 16.5 21.390625 20.328125 13.890625 
Q 24.171875 6.390625 31.78125 6.390625 
Q 39.453125 6.390625 43.28125 13.890625 
Q 47.125 21.390625 47.125 36.375 
Q 47.125 51.421875 43.28125 58.90625 
Q 39.453125 66.40625 31.78125 66.40625 
z
M 31.78125 74.21875 
Q 44.046875 74.21875 50.515625 64.515625 
Q 56.984375 54.828125 56.984375 36.375 
Q 56.984375 17.96875 50.515625 8.265625 
Q 44.046875 -1.421875 31.78125 -1.421875 
Q 19.53125 -1.421875 13.0625 8.265625 
Q 6.59375 17.96875 6.59375 36.375 
Q 6.59375 54.828125 13.0625 64.515625 
Q 19.53125 74.21875 31.78125 74.21875 
z
" id="DejaVuSans-48"/>
      </defs>
      <g transform="translate(71.148727 287.06881)scale(0.08 -0.08)">
       <use xlink:href="#DejaVuSans-48"/>
      </g>
     </g>
    </g>
    <g id="xtick_2">
     <g id="text_2">
      <!-- 50 -->
      <defs>
       <path d="M 10.796875 72.90625 
L 49.515625 72.90625 
L 49.515625 64.59375 
L 19.828125 64.59375 
L 19.828125 46.734375 
Q 21.96875 47.46875 24.109375 47.828125 
Q 26.265625 48.1875 28.421875 48.1875 
Q 40.625 48.1875 47.75 41.5 
Q 54.890625 34.8125 54.890625 23.390625 
Q 54.890625 11.625 47.5625 5.09375 
Q 40.234375 -1.421875 26.90625 -1.421875 
Q 22.3125 -1.421875 17.546875 -0.640625 
Q 12.796875 0.140625 7.71875 1.703125 
L 7.71875 11.625 
Q 12.109375 9.234375 16.796875 8.0625 
Q 21.484375 6.890625 26.703125 6.890625 
Q 35.15625 6.890625 40.078125 11.328125 
Q 45.015625 15.765625 45.015625 23.390625 
Q 45.015625 31 40.078125 35.4375 
Q 35.15625 39.890625 26.703125 39.890625 
Q 22.75 39.890625 18.8125 39.015625 
Q 14.890625 38.140625 10.796875 36.28125 
z
" id="DejaVuSans-53"/>
      </defs>
      <g transform="translate(214.573627 287.06881)scale(0.08 -0.08)">
       <use xlink:href="#DejaVuSans-53"/>
       <use x="63.623047" xlink:href="#DejaVuSans-48"/>
      </g>
     </g>
    </g>
    <g id="xtick_3">
     <g id="text_3">
      <!-- 100 -->
      <defs>
       <path d="M 12.40625 8.296875 
L 28.515625 8.296875 
L 28.515625 63.921875 
L 10.984375 60.40625 
L 10.984375 69.390625 
L 28.421875 72.90625 
L 38.28125 72.90625 
L 38.28125 8.296875 
L 54.390625 8.296875 
L 54.390625 0 
L 12.40625 0 
z
" id="DejaVuSans-49"/>
      </defs>
      <g transform="translate(357.998526 287.06881)scale(0.08 -0.08)">
       <use xlink:href="#DejaVuSans-49"/>
       <use x="63.623047" xlink:href="#DejaVuSans-48"/>
       <use x="127.246094" xlink:href="#DejaVuSans-48"/>
      </g>
     </g>
    </g>
    <g id="xtick_4">
     <g id="text_4">
      <!-- 150 -->
      <g transform="translate(503.968426 287.06881)scale(0.08 -0.08)">
       <use xlink:href="#DejaVuSans-49"/>
       <use x="63.623047" xlink:href="#DejaVuSans-53"/>
       <use x="127.246094" xlink:href="#DejaVuSans-48"/>
      </g>
     </g>
    </g>
    <g id="xtick_5">
     <g id="text_5">
      <!-- 200 -->
      <defs>
       <path d="M 19.1875 8.296875 
L 53.609375 8.296875 
L 53.609375 0 
L 7.328125 0 
L 7.328125 8.296875 
Q 12.9375 14.109375 22.625 23.890625 
Q 32.328125 33.6875 34.8125 36.53125 
Q 39.546875 41.84375 41.421875 45.53125 
Q 43.3125 49.21875 43.3125 52.78125 
Q 43.3125 58.59375 39.234375 62.25 
Q 35.15625 65.921875 28.609375 65.921875 
Q 23.96875 65.921875 18.8125 64.3125 
Q 13.671875 62.703125 7.8125 59.421875 
L 7.8125 69.390625 
Q 13.765625 71.78125 18.9375 73 
Q 24.125 74.21875 28.421875 74.21875 
Q 39.75 74.21875 46.484375 68.546875 
Q 53.21875 62.890625 53.21875 53.421875 
Q 53.21875 48.921875 51.53125 44.890625 
Q 49.859375 40.875 45.40625 35.40625 
Q 44.1875 33.984375 37.640625 27.21875 
Q 31.109375 20.453125 19.1875 8.296875 
z
" id="DejaVuSans-50"/>
      </defs>
      <g transform="translate(649.938326 287.06881)scale(0.08 -0.08)">
       <use xlink:href="#DejaVuSans-50"/>
       <use x="63.623047" xlink:href="#DejaVuSans-48"/>
       <use x="127.246094" xlink:href="#DejaVuSans-48"/>
      </g>
     </g>
    </g>
    <g id="xtick_6">
     <g id="text_6">
      <!-- 250 -->
      <g transform="translate(795.908225 287.06881)scale(0.08 -0.08)">
       <use xlink:href="#DejaVuSans-50"/>
       <use x="63.623047" xlink:href="#DejaVuSans-53"/>
       <use x="127.246094" xlink:href="#DejaVuSans-48"/>
      </g>
     </g>
    </g>
    <g id="xtick_7">
     <g id="text_7">
      <!-- 300 -->
      <defs>
       <path d="M 40.578125 39.3125 
Q 47.65625 37.796875 51.625 33 
Q 55.609375 28.21875 55.609375 21.1875 
Q 55.609375 10.40625 48.1875 4.484375 
Q 40.765625 -1.421875 27.09375 -1.421875 
Q 22.515625 -1.421875 17.65625 -0.515625 
Q 12.796875 0.390625 7.625 2.203125 
L 7.625 11.71875 
Q 11.71875 9.328125 16.59375 8.109375 
Q 21.484375 6.890625 26.8125 6.890625 
Q 36.078125 6.890625 40.9375 10.546875 
Q 45.796875 14.203125 45.796875 21.1875 
Q 45.796875 27.640625 41.28125 31.265625 
Q 36.765625 34.90625 28.71875 34.90625 
L 20.21875 34.90625 
L 20.21875 43.015625 
L 29.109375 43.015625 
Q 36.375 43.015625 40.234375 45.921875 
Q 44.09375 48.828125 44.09375 54.296875 
Q 44.09375 59.90625 40.109375 62.90625 
Q 36.140625 65.921875 28.71875 65.921875 
Q 24.65625 65.921875 20.015625 65.03125 
Q 15.375 64.15625 9.8125 62.3125 
L 9.8125 71.09375 
Q 15.4375 72.65625 20.34375 73.4375 
Q 25.25 74.21875 29.59375 74.21875 
Q 40.828125 74.21875 47.359375 69.109375 
Q 53.90625 64.015625 53.90625 55.328125 
Q 53.90625 49.265625 50.4375 45.09375 
Q 46.96875 40.921875 40.578125 39.3125 
z
" id="DejaVuSans-51"/>
      </defs>
      <g transform="translate(941.878125 287.06881)scale(0.08 -0.08)">
       <use xlink:href="#DejaVuSans-51"/>
       <use x="63.623047" xlink:href="#DejaVuSans-48"/>
       <use x="127.246094" xlink:href="#DejaVuSans-48"/>
      </g>
     </g>
    </g>
    <g id="text_8">
     <!-- Position in read -->
     <defs>
      <path d="M 19.671875 64.796875 
L 19.671875 37.40625 
L 32.078125 37.40625 
Q 38.96875 37.40625 42.71875 40.96875 
Q 46.484375 44.53125 46.484375 51.125 
Q 46.484375 57.671875 42.71875 61.234375 
Q 38.96875 64.796875 32.078125 64.796875 
z
M 9.8125 72.90625 
L 32.078125 72.90625 
Q 44.34375 72.90625 50.609375 67.359375 
Q 56.890625 61.8125 56.890625 51.125 
Q 56.890625 40.328125 50.609375 34.8125 
Q 44.34375 29.296875 32.078125 29.296875 
L 19.671875 29.296875 
L 19.671875 0 
L 9.8125 0 
z
" id="DejaVuSans-80"/>
      <path d="M 30.609375 48.390625 
Q 23.390625 48.390625 19.1875 42.75 
Q 14.984375 37.109375 14.984375 27.296875 
Q 14.984375 17.484375 19.15625 11.84375 
Q 23.34375 6.203125 30.609375 6.203125 
Q 37.796875 6.203125 41.984375 11.859375 
Q 46.1875 17.53125 46.1875 27.296875 
Q 46.1875 37.015625 41.984375 42.703125 
Q 37.796875 48.390625 30.609375 48.390625 
z
M 30.609375 56 
Q 42.328125 56 49.015625 48.375 
Q 55.71875 40.765625 55.71875 27.296875 
Q 55.71875 13.875 49.015625 6.21875 
Q 42.328125 -1.421875 30.609375 -1.421875 
Q 18.84375 -1.421875 12.171875 6.21875 
Q 5.515625 13.875 5.515625 27.296875 
Q 5.515625 40.765625 12.171875 48.375 
Q 18.84375 56 30.609375 56 
z
" id="DejaVuSans-111"/>
      <path d="M 44.28125 53.078125 
L 44.28125 44.578125 
Q 40.484375 46.53125 36.375 47.5 
Q 32.28125 48.484375 27.875 48.484375 
Q 21.1875 48.484375 17.84375 46.4375 
Q 14.5 44.390625 14.5 40.28125 
Q 14.5 37.15625 16.890625 35.375 
Q 19.28125 33.59375 26.515625 31.984375 
L 29.59375 31.296875 
Q 39.15625 29.25 43.1875 25.515625 
Q 47.21875 21.78125 47.21875 15.09375 
Q 47.21875 7.46875 41.1875 3.015625 
Q 35.15625 -1.421875 24.609375 -1.421875 
Q 20.21875 -1.421875 15.453125 -0.5625 
Q 10.6875 0.296875 5.421875 2 
L 5.421875 11.28125 
Q 10.40625 8.6875 15.234375 7.390625 
Q 20.0625 6.109375 24.8125 6.109375 
Q 31.15625 6.109375 34.5625 8.28125 
Q 37.984375 10.453125 37.984375 14.40625 
Q 37.984375 18.0625 35.515625 20.015625 
Q 33.0625 21.96875 24.703125 23.78125 
L 21.578125 24.515625 
Q 13.234375 26.265625 9.515625 29.90625 
Q 5.8125 33.546875 5.8125 39.890625 
Q 5.8125 47.609375 11.28125 51.796875 
Q 16.75 56 26.8125 56 
Q 31.78125 56 36.171875 55.265625 
Q 40.578125 54.546875 44.28125 53.078125 
z
" id="DejaVuSans-115"/>
      <path d="M 9.421875 54.6875 
L 18.40625 54.6875 
L 18.40625 0 
L 9.421875 0 
z
M 9.421875 75.984375 
L 18.40625 75.984375 
L 18.40625 64.59375 
L 9.421875 64.59375 
z
" id="DejaVuSans-105"/>
      <path d="M 18.3125 70.21875 
L 18.3125 54.6875 
L 36.8125 54.6875 
L 36.8125 47.703125 
L 18.3125 47.703125 
L 18.3125 18.015625 
Q 18.3125 11.328125 20.140625 9.421875 
Q 21.96875 7.515625 27.59375 7.515625 
L 36.8125 7.515625 
L 36.8125 0 
L 27.59375 0 
Q 17.1875 0 13.234375 3.875 
Q 9.28125 7.765625 9.28125 18.015625 
L 9.28125 47.703125 
L 2.6875 47.703125 
L 2.6875 54.6875 
L 9.28125 54.6875 
L 9.28125 70.21875 
z
" id="DejaVuSans-116"/>
      <path d="M 54.890625 33.015625 
L 54.890625 0 
L 45.90625 0 
L 45.90625 32.71875 
Q 45.90625 40.484375 42.875 44.328125 
Q 39.84375 48.1875 33.796875 48.1875 
Q 26.515625 48.1875 22.3125 43.546875 
Q 18.109375 38.921875 18.109375 30.90625 
L 18.109375 0 
L 9.078125 0 
L 9.078125 54.6875 
L 18.109375 54.6875 
L 18.109375 46.1875 
Q 21.34375 51.125 25.703125 53.5625 
Q 30.078125 56 35.796875 56 
Q 45.21875 56 50.046875 50.171875 
Q 54.890625 44.34375 54.890625 33.015625 
z
" id="DejaVuSans-110"/>
      <path id="DejaVuSans-32"/>
      <path d="M 41.109375 46.296875 
Q 39.59375 47.171875 37.8125 47.578125 
Q 36.03125 48 33.890625 48 
Q 26.265625 48 22.1875 43.046875 
Q 18.109375 38.09375 18.109375 28.8125 
L 18.109375 0 
L 9.078125 0 
L 9.078125 54.6875 
L 18.109375 54.6875 
L 18.109375 46.1875 
Q 20.953125 51.171875 25.484375 53.578125 
Q 30.03125 56 36.53125 56 
Q 37.453125 56 38.578125 55.875 
Q 39.703125 55.765625 41.0625 55.515625 
z
" id="DejaVuSans-114"/>
      <path d="M 56.203125 29.59375 
L 56.203125 25.203125 
L 14.890625 25.203125 
Q 15.484375 15.921875 20.484375 11.0625 
Q 25.484375 6.203125 34.421875 6.203125 
Q 39.59375 6.203125 44.453125 7.46875 
Q 49.3125 8.734375 54.109375 11.28125 
L 54.109375 2.78125 
Q 49.265625 0.734375 44.1875 -0.34375 
Q 39.109375 -1.421875 33.890625 -1.421875 
Q 20.796875 -1.421875 13.15625 6.1875 
Q 5.515625 13.8125 5.515625 26.8125 
Q 5.515625 40.234375 12.765625 48.109375 
Q 20.015625 56 32.328125 56 
Q 43.359375 56 49.78125 48.890625 
Q 56.203125 41.796875 56.203125 29.59375 
z
M 47.21875 32.234375 
Q 47.125 39.59375 43.09375 43.984375 
Q 39.0625 48.390625 32.421875 48.390625 
Q 24.90625 48.390625 20.390625 44.140625 
Q 15.875 39.890625 15.1875 32.171875 
z
" id="DejaVuSans-101"/>
      <path d="M 34.28125 27.484375 
Q 23.390625 27.484375 19.1875 25 
Q 14.984375 22.515625 14.984375 16.5 
Q 14.984375 11.71875 18.140625 8.90625 
Q 21.296875 6.109375 26.703125 6.109375 
Q 34.1875 6.109375 38.703125 11.40625 
Q 43.21875 16.703125 43.21875 25.484375 
L 43.21875 27.484375 
z
M 52.203125 31.203125 
L 52.203125 0 
L 43.21875 0 
L 43.21875 8.296875 
Q 40.140625 3.328125 35.546875 0.953125 
Q 30.953125 -1.421875 24.3125 -1.421875 
Q 15.921875 -1.421875 10.953125 3.296875 
Q 6 8.015625 6 15.921875 
Q 6 25.140625 12.171875 29.828125 
Q 18.359375 34.515625 30.609375 34.515625 
L 43.21875 34.515625 
L 43.21875 35.40625 
Q 43.21875 41.609375 39.140625 45 
Q 35.0625 48.390625 27.6875 48.390625 
Q 23 48.390625 18.546875 47.265625 
Q 14.109375 46.140625 10.015625 43.890625 
L 10.015625 52.203125 
Q 14.9375 54.109375 19.578125 55.046875 
Q 24.21875 56 28.609375 56 
Q 40.484375 56 46.34375 49.84375 
Q 52.203125 43.703125 52.203125 31.203125 
z
" id="DejaVuSans-97"/>
      <path d="M 45.40625 46.390625 
L 45.40625 75.984375 
L 54.390625 75.984375 
L 54.390625 0 
L 45.40625 0 
L 45.40625 8.203125 
Q 42.578125 3.328125 38.25 0.953125 
Q 33.9375 -1.421875 27.875 -1.421875 
Q 17.96875 -1.421875 11.734375 6.484375 
Q 5.515625 14.40625 5.515625 27.296875 
Q 5.515625 40.1875 11.734375 48.09375 
Q 17.96875 56 27.875 56 
Q 33.9375 56 38.25 53.625 
Q 42.578125 51.265625 45.40625 46.390625 
z
M 14.796875 27.296875 
Q 14.796875 17.390625 18.875 11.75 
Q 22.953125 6.109375 30.078125 6.109375 
Q 37.203125 6.109375 41.296875 11.75 
Q 45.40625 17.390625 45.40625 27.296875 
Q 45.40625 37.203125 41.296875 42.84375 
Q 37.203125 48.484375 30.078125 48.484375 
Q 22.953125 48.484375 18.875 42.84375 
Q 14.796875 37.203125 14.796875 27.296875 
z
" id="DejaVuSans-100"/>
     </defs>
     <g transform="translate(474.315469 300.330997)scale(0.1 -0.1)">
      <use xlink:href="#DejaVuSans-80"/>
      <use x="60.255859" xlink:href="#DejaVuSans-111"/>
      <use x="121.4375" xlink:href="#DejaVuSans-115"/>
      <use x="173.537109" xlink:href="#DejaVuSans-105"/>
      <use x="201.320312" xlink:href="#DejaVuSans-116"/>
      <use x="240.529297" xlink:href="#DejaVuSans-105"/>
      <use x="268.3125" xlink:href="#DejaVuSans-111"/>
      <use x="329.494141" xlink:href="#DejaVuSans-110"/>
      <use x="392.873047" xlink:href="#DejaVuSans-32"/>
      <use x="424.660156" xlink:href="#DejaVuSans-105"/>
      <use x="452.443359" xlink:href="#DejaVuSans-110"/>
      <use x="515.822266" xlink:href="#DejaVuSans-32"/>
      <use x="547.609375" xlink:href="#DejaVuSans-114"/>
      <use x="588.691406" xlink:href="#DejaVuSans-101"/>
      <use x="650.214844" xlink:href="#DejaVuSans-97"/>
      <use x="711.494141" xlink:href="#DejaVuSans-100"/>
     </g>
    </g>
   </g>
   <g id="matplotlib.axis_2">
    <g id="ytick_1">
     <g id="line2d_1">
      <path clip-path="url(#pc5726b1e14)" d="M 32.968125 273.99006 
L 993.158125 273.99006 
" style="fill:none;stroke:#dedede;stroke-linecap:square;"/>
     </g>
     <g id="text_9">
      <!-- 0 -->
      <g transform="translate(20.878125 277.029435)scale(0.08 -0.08)">
       <use xlink:href="#DejaVuSans-48"/>
      </g>
     </g>
    </g>
    <g id="ytick_2">
     <g id="line2d_2">
      <path clip-path="url(#pc5726b1e14)" d="M 32.968125 237.036582 
L 993.158125 237.036582 
" style="fill:none;stroke:#dedede;stroke-linecap:square;"/>
     </g>
     <g id="text_10">
      <!-- 1 -->
      <g transform="translate(20.878125 240.075957)scale(0.08 -0.08)">
       <use xlink:href="#DejaVuSans-49"/>
      </g>
     </g>
    </g>
    <g id="ytick_3">
     <g id="line2d_3">
      <path clip-path="url(#pc5726b1e14)" d="M 32.968125 200.083104 
L 993.158125 200.083104 
" style="fill:none;stroke:#dedede;stroke-linecap:square;"/>
     </g>
     <g id="text_11">
      <!-- 2 -->
      <g transform="translate(20.878125 203.122479)scale(0.08 -0.08)">
       <use xlink:href="#DejaVuSans-50"/>
      </g>
     </g>
    </g>
    <g id="ytick_4">
     <g id="line2d_4">
      <path clip-path="url(#pc5726b1e14)" d="M 32.968125 163.129626 
L 993.158125 163.129626 
" style="fill:none;stroke:#dedede;stroke-linecap:square;"/>
     </g>
     <g id="text_12">
      <!-- 3 -->
      <g transform="translate(20.878125 166.169001)scale(0.08 -0.08)">
       <use xlink:href="#DejaVuSans-51"/>
      </g>
     </g>
    </g>
    <g id="ytick_5">
     <g id="line2d_5">
      <path clip-path="url(#pc5726b1e14)" d="M 32.968125 126.176148 
L 993.158125 126.176148 
" style="fill:none;stroke:#dedede;stroke-linecap:square;"/>
     </g>
     <g id="text_13">
      <!-- 4 -->
      <defs>
       <path d="M 37.796875 64.3125 
L 12.890625 25.390625 
L 37.796875 25.390625 
z
M 35.203125 72.90625 
L 47.609375 72.90625 
L 47.609375 25.390625 
L 58.015625 25.390625 
L 58.015625 17.1875 
L 47.609375 17.1875 
L 47.609375 0 
L 37.796875 0 
L 37.796875 17.1875 
L 4.890625 17.1875 
L 4.890625 26.703125 
z
" id="DejaVuSans-52"/>
      </defs>
      <g transform="translate(20.878125 129.215523)scale(0.08 -0.08)">
       <use xlink:href="#DejaVuSans-52"/>
      </g>
     </g>
    </g>
    <g id="ytick_6">
     <g id="line2d_6">
      <path clip-path="url(#pc5726b1e14)" d="M 32.968125 89.22267 
L 993.158125 89.22267 
" style="fill:none;stroke:#dedede;stroke-linecap:square;"/>
     </g>
     <g id="text_14">
      <!-- 5 -->
      <g transform="translate(20.878125 92.262045)scale(0.08 -0.08)">
       <use xlink:href="#DejaVuSans-53"/>
      </g>
     </g>
    </g>
    <g id="ytick_7">
     <g id="line2d_7">
      <path clip-path="url(#pc5726b1e14)" d="M 32.968125 52.269191 
L 993.158125 52.269191 
" style="fill:none;stroke:#dedede;stroke-linecap:square;"/>
     </g>
     <g id="text_15">
      <!-- 6 -->
      <defs>
       <path d="M 33.015625 40.375 
Q 26.375 40.375 22.484375 35.828125 
Q 18.609375 31.296875 18.609375 23.390625 
Q 18.609375 15.53125 22.484375 10.953125 
Q 26.375 6.390625 33.015625 6.390625 
Q 39.65625 6.390625 43.53125 10.953125 
Q 47.40625 15.53125 47.40625 23.390625 
Q 47.40625 31.296875 43.53125 35.828125 
Q 39.65625 40.375 33.015625 40.375 
z
M 52.59375 71.296875 
L 52.59375 62.3125 
Q 48.875 64.0625 45.09375 64.984375 
Q 41.3125 65.921875 37.59375 65.921875 
Q 27.828125 65.921875 22.671875 59.328125 
Q 17.53125 52.734375 16.796875 39.40625 
Q 19.671875 43.65625 24.015625 45.921875 
Q 28.375 48.1875 33.59375 48.1875 
Q 44.578125 48.1875 50.953125 41.515625 
Q 57.328125 34.859375 57.328125 23.390625 
Q 57.328125 12.15625 50.6875 5.359375 
Q 44.046875 -1.421875 33.015625 -1.421875 
Q 20.359375 -1.421875 13.671875 8.265625 
Q 6.984375 17.96875 6.984375 36.375 
Q 6.984375 53.65625 15.1875 63.9375 
Q 23.390625 74.21875 37.203125 74.21875 
Q 40.921875 74.21875 44.703125 73.484375 
Q 48.484375 72.75 52.59375 71.296875 
z
" id="DejaVuSans-54"/>
      </defs>
      <g transform="translate(20.878125 55.308566)scale(0.08 -0.08)">
       <use xlink:href="#DejaVuSans-54"/>
      </g>
     </g>
    </g>
    <g id="text_16">
     <!-- Percent converted % -->
     <defs>
      <path d="M 48.78125 52.59375 
L 48.78125 44.1875 
Q 44.96875 46.296875 41.140625 47.34375 
Q 37.3125 48.390625 33.40625 48.390625 
Q 24.65625 48.390625 19.8125 42.84375 
Q 14.984375 37.3125 14.984375 27.296875 
Q 14.984375 17.28125 19.8125 11.734375 
Q 24.65625 6.203125 33.40625 6.203125 
Q 37.3125 6.203125 41.140625 7.25 
Q 44.96875 8.296875 48.78125 10.40625 
L 48.78125 2.09375 
Q 45.015625 0.34375 40.984375 -0.53125 
Q 36.96875 -1.421875 32.421875 -1.421875 
Q 20.0625 -1.421875 12.78125 6.34375 
Q 5.515625 14.109375 5.515625 27.296875 
Q 5.515625 40.671875 12.859375 48.328125 
Q 20.21875 56 33.015625 56 
Q 37.15625 56 41.109375 55.140625 
Q 45.0625 54.296875 48.78125 52.59375 
z
" id="DejaVuSans-99"/>
      <path d="M 2.984375 54.6875 
L 12.5 54.6875 
L 29.59375 8.796875 
L 46.6875 54.6875 
L 56.203125 54.6875 
L 35.6875 0 
L 23.484375 0 
z
" id="DejaVuSans-118"/>
      <path d="M 72.703125 32.078125 
Q 68.453125 32.078125 66.03125 28.46875 
Q 63.625 24.859375 63.625 18.40625 
Q 63.625 12.0625 66.03125 8.421875 
Q 68.453125 4.78125 72.703125 4.78125 
Q 76.859375 4.78125 79.265625 8.421875 
Q 81.6875 12.0625 81.6875 18.40625 
Q 81.6875 24.8125 79.265625 28.4375 
Q 76.859375 32.078125 72.703125 32.078125 
z
M 72.703125 38.28125 
Q 80.421875 38.28125 84.953125 32.90625 
Q 89.5 27.546875 89.5 18.40625 
Q 89.5 9.28125 84.9375 3.921875 
Q 80.375 -1.421875 72.703125 -1.421875 
Q 64.890625 -1.421875 60.34375 3.921875 
Q 55.8125 9.28125 55.8125 18.40625 
Q 55.8125 27.59375 60.375 32.9375 
Q 64.9375 38.28125 72.703125 38.28125 
z
M 22.3125 68.015625 
Q 18.109375 68.015625 15.6875 64.375 
Q 13.28125 60.75 13.28125 54.390625 
Q 13.28125 47.953125 15.671875 44.328125 
Q 18.0625 40.71875 22.3125 40.71875 
Q 26.5625 40.71875 28.96875 44.328125 
Q 31.390625 47.953125 31.390625 54.390625 
Q 31.390625 60.6875 28.953125 64.34375 
Q 26.515625 68.015625 22.3125 68.015625 
z
M 66.40625 74.21875 
L 74.21875 74.21875 
L 28.609375 -1.421875 
L 20.796875 -1.421875 
z
M 22.3125 74.21875 
Q 30.03125 74.21875 34.609375 68.875 
Q 39.203125 63.53125 39.203125 54.390625 
Q 39.203125 45.171875 34.640625 39.84375 
Q 30.078125 34.515625 22.3125 34.515625 
Q 14.546875 34.515625 10.03125 39.859375 
Q 5.515625 45.21875 5.515625 54.390625 
Q 5.515625 63.484375 10.046875 68.84375 
Q 14.59375 74.21875 22.3125 74.21875 
z
" id="DejaVuSans-37"/>
     </defs>
     <g transform="translate(14.798438 205.04271)rotate(-90)scale(0.1 -0.1)">
      <use xlink:href="#DejaVuSans-80"/>
      <use x="60.255859" xlink:href="#DejaVuSans-101"/>
      <use x="121.779297" xlink:href="#DejaVuSans-114"/>
      <use x="162.861328" xlink:href="#DejaVuSans-99"/>
      <use x="217.841797" xlink:href="#DejaVuSans-101"/>
      <use x="279.365234" xlink:href="#DejaVuSans-110"/>
      <use x="342.744141" xlink:href="#DejaVuSans-116"/>
      <use x="381.953125" xlink:href="#DejaVuSans-32"/>
      <use x="413.740234" xlink:href="#DejaVuSans-99"/>
      <use x="468.720703" xlink:href="#DejaVuSans-111"/>
      <use x="529.902344" xlink:href="#DejaVuSans-110"/>
      <use x="593.28125" xlink:href="#DejaVuSans-118"/>
      <use x="652.460938" xlink:href="#DejaVuSans-101"/>
      <use x="713.984375" xlink:href="#DejaVuSans-114"/>
      <use x="755.097656" xlink:href="#DejaVuSans-116"/>
      <use x="794.306641" xlink:href="#DejaVuSans-101"/>
      <use x="855.830078" xlink:href="#DejaVuSans-100"/>
      <use x="919.306641" xlink:href="#DejaVuSans-32"/>
      <use x="951.09375" xlink:href="#DejaVuSans-37"/>
     </g>
    </g>
   </g>
   <g id="line2d_8">
    <path clip-path="url(#pc5726b1e14)" d="M 76.613125 178.421463 
L 79.532523 199.448164 
L 82.451921 210.990432 
L 85.371319 220.503606 
L 88.290717 231.850436 
L 91.210115 238.092918 
L 94.129513 245.709205 
L 97.048911 247.64058 
L 99.968309 247.698062 
L 102.887707 254.021017 
L 105.807105 253.141552 
L 108.726503 257.102021 
L 111.645901 259.723173 
L 114.565299 263.143317 
L 117.484697 263.666398 
L 120.404095 269.759428 
L 123.323493 269.19611 
L 126.242891 269.788169 
L 129.162289 270.207783 
L 132.081687 270.460701 
L 135.001085 269.569739 
L 140.839881 269.483517 
L 143.759279 269.644465 
L 146.678677 269.575488 
L 149.598075 269.075399 
L 152.517473 269.334066 
L 155.436871 269.403043 
L 158.356269 270.18479 
L 161.275667 269.127132 
L 164.195065 268.66724 
L 167.114463 269.477699 
L 170.033861 269.397217 
L 172.953259 268.373969 
L 175.872657 270.006462 
L 178.792055 268.816483 
L 181.711453 268.913717 
L 184.630851 269.7574 
L 187.550249 268.432566 
L 190.469647 267.498017 
L 193.389045 265.630492 
L 196.308443 266.615618 
L 199.227841 266.389158 
L 202.147239 266.375829 
L 205.066637 264.388542 
L 207.986035 264.753467 
L 210.905433 265.670786 
L 213.824831 265.907335 
L 216.744229 265.023433 
L 219.663627 265.695321 
L 222.583025 264.08862 
L 225.502423 266.435423 
L 228.421821 265.299013 
L 231.341219 264.685827 
L 234.260617 264.67146 
L 237.180015 265.646331 
L 240.099413 265.286177 
L 243.018811 264.099729 
L 245.938209 266.875643 
L 248.857607 262.031589 
L 251.777005 264.340802 
L 254.696403 262.577589 
L 257.615801 262.775676 
L 260.535199 262.288429 
L 263.454597 263.695918 
L 266.373995 263.395166 
L 269.293393 263.287249 
L 272.212791 262.678659 
L 275.132189 263.174005 
L 278.051587 265.593369 
L 280.970985 262.056856 
L 283.890383 260.513689 
L 286.809781 260.792389 
L 289.729179 260.377238 
L 295.567974 263.751324 
L 298.487372 261.682684 
L 301.40677 260.388493 
L 304.326168 261.95036 
L 307.245566 259.483067 
L 310.164964 259.7187 
L 313.084362 253.516694 
L 316.00376 260.344575 
L 318.923158 257.749188 
L 321.842556 259.604754 
L 324.761954 264.927769 
L 327.681352 261.397261 
L 330.60075 257.368043 
L 333.520148 257.200656 
L 336.439546 259.573518 
L 339.358944 259.792958 
L 342.278342 248.432911 
L 345.19774 251.837664 
L 348.117138 263.11861 
L 351.036536 255.097689 
L 353.955934 254.889365 
L 356.875332 256.892293 
L 359.79473 258.357566 
L 362.714128 256.877308 
L 365.633526 246.913603 
L 368.552924 261.472886 
L 371.472322 248.725604 
L 377.311118 259.296828 
L 380.230516 256.022405 
L 383.149914 236.999591 
L 386.069312 269.521683 
L 388.98871 236.227382 
L 391.908108 261.091813 
L 394.827506 251.993942 
L 397.746904 257.456065 
L 400.666302 246.344066 
L 403.5857 252.933947 
L 406.505098 262.031006 
L 409.424496 260.453987 
L 412.343894 259.149306 
L 415.263292 273.99006 
L 418.18269 255.039558 
L 421.102088 273.99006 
L 424.021486 250.452813 
L 426.940884 247.78192 
L 429.860282 242.133613 
L 432.77968 238.112897 
L 435.699078 194.520215 
L 438.618476 273.99006 
L 453.215466 273.99006 
L 456.134864 62.827328 
L 459.054262 273.99006 
L 464.893058 273.99006 
L 467.812456 43.030822 
L 470.731854 273.99006 
L 949.513125 273.99006 
L 949.513125 273.99006 
" style="fill:none;stroke:#7cb5ec;stroke-linecap:square;"/>
   </g>
   <g id="line2d_9">
    <path clip-path="url(#pc5726b1e14)" d="M 76.613125 169.157871 
L 79.532523 196.824293 
L 82.451921 208.721216 
L 85.371319 213.789397 
L 88.290717 227.450165 
L 91.210115 235.050794 
L 94.129513 244.362715 
L 97.048911 246.57327 
L 99.968309 248.491492 
L 102.887707 252.091445 
L 105.807105 254.016237 
L 108.726503 257.415827 
L 111.645901 258.407784 
L 114.565299 261.294973 
L 117.484697 262.273792 
L 120.404095 268.961294 
L 123.323493 268.882463 
L 126.242891 267.581751 
L 129.162289 268.508016 
L 132.081687 269.201072 
L 135.001085 268.5113 
L 137.920483 267.578466 
L 140.839881 268.944871 
L 143.759279 268.672247 
L 149.598075 268.974433 
L 152.517473 268.104007 
L 155.436871 268.255099 
L 158.356269 268.639401 
L 161.275667 268.360187 
L 164.195065 268.980962 
L 167.114463 269.040068 
L 170.033861 268.251718 
L 172.953259 268.346944 
L 175.872657 268.172777 
L 178.792055 268.534021 
L 181.711453 268.014477 
L 184.630851 268.99485 
L 187.550249 266.484209 
L 190.469647 265.481421 
L 193.389045 264.745686 
L 196.308443 264.607146 
L 199.227841 265.633321 
L 202.147239 264.409239 
L 205.066637 264.485106 
L 207.986035 265.008529 
L 210.905433 263.061395 
L 213.824831 264.992341 
L 216.744229 264.790213 
L 219.663627 265.156386 
L 222.583025 264.693616 
L 225.502423 262.441297 
L 228.421821 264.053029 
L 231.341219 264.757269 
L 234.260617 264.379132 
L 237.180015 263.616752 
L 240.099413 264.066119 
L 243.018811 263.643547 
L 245.938209 261.458744 
L 248.857607 262.945917 
L 251.777005 262.577095 
L 254.696403 261.338914 
L 257.615801 261.44338 
L 260.535199 259.942684 
L 266.373995 260.510377 
L 269.293393 261.717257 
L 272.212791 263.089991 
L 275.132189 261.421617 
L 278.051587 262.178716 
L 280.970985 259.275028 
L 283.890383 262.259388 
L 286.809781 260.233943 
L 289.729179 261.194013 
L 292.648577 262.627348 
L 295.567974 260.349193 
L 298.487372 261.431325 
L 301.40677 260.941595 
L 304.326168 257.366646 
L 307.245566 256.998594 
L 310.164964 259.439866 
L 313.084362 256.173865 
L 316.00376 259.567765 
L 318.923158 258.492903 
L 321.842556 258.957179 
L 324.761954 256.951211 
L 327.681352 255.642735 
L 330.60075 260.318452 
L 333.520148 256.648411 
L 336.439546 253.919269 
L 339.358944 255.788244 
L 342.278342 256.975695 
L 345.19774 252.496862 
L 348.117138 258.749734 
L 351.036536 256.158876 
L 353.955934 254.058716 
L 356.875332 258.845192 
L 359.79473 252.185535 
L 362.714128 257.742805 
L 365.633526 250.775425 
L 368.552924 251.375738 
L 371.472322 248.532993 
L 374.39172 250.702628 
L 377.311118 251.737865 
L 380.230516 241.11005 
L 383.149914 258.217234 
L 386.069312 257.614811 
L 388.98871 261.023927 
L 391.908108 243.731327 
L 394.827506 261.188624 
L 397.746904 236.089057 
L 400.666302 252.629668 
L 403.5857 232.335576 
L 406.505098 213.957334 
L 409.424496 244.188868 
L 412.343894 241.287867 
L 415.263292 255.373698 
L 418.18269 202.729909 
L 421.102088 262.258797 
L 424.021486 248.057795 
L 426.940884 258.968321 
L 429.860282 273.99006 
L 432.77968 253.345659 
L 435.699078 250.452813 
L 438.618476 273.99006 
L 441.537874 243.195495 
L 444.457272 240.395989 
L 447.37667 273.99006 
L 450.296068 224.718756 
L 453.215466 273.99006 
L 456.134864 146.564273 
L 459.054262 273.99006 
L 461.97366 197.003647 
L 464.893058 273.99006 
L 473.651252 273.99006 
L 476.57065 89.22267 
L 479.490048 273.99006 
L 949.513125 273.99006 
L 949.513125 273.99006 
" style="fill:none;stroke:#434348;stroke-linecap:square;"/>
   </g>
   <g id="line2d_10">
    <path clip-path="url(#pc5726b1e14)" d="M 76.613125 164.656492 
L 79.532523 193.304438 
L 82.451921 206.59388 
L 85.371319 215.484622 
L 88.290717 228.431814 
L 91.210115 236.828626 
L 94.129513 246.092732 
L 97.048911 247.306167 
L 99.968309 249.608581 
L 102.887707 253.696144 
L 105.807105 256.675282 
L 108.726503 256.076343 
L 111.645901 259.05937 
L 114.565299 261.424011 
L 117.484697 261.991837 
L 120.404095 269.221884 
L 123.323493 270.120293 
L 126.242891 269.544689 
L 129.162289 269.59136 
L 132.081687 268.805738 
L 135.001085 269.972503 
L 137.920483 269.781931 
L 140.839881 269.809156 
L 143.759279 269.5408 
L 146.678677 269.828602 
L 149.598075 269.459126 
L 152.517473 269.428013 
L 155.436871 270.08529 
L 158.356269 269.358007 
L 161.275667 269.789692 
L 167.114463 269.564075 
L 170.033861 269.661288 
L 172.953259 269.116763 
L 175.872657 269.178966 
L 178.792055 269.49782 
L 181.711453 268.952972 
L 184.630851 269.993815 
L 187.550249 268.512841 
L 190.469647 266.352984 
L 193.389045 266.58047 
L 196.308443 265.744643 
L 205.066637 266.687332 
L 207.986035 265.648417 
L 210.905433 263.667692 
L 213.824831 265.440394 
L 219.663627 265.440515 
L 222.583025 265.703411 
L 228.421821 264.595837 
L 231.341219 265.129122 
L 234.260617 265.15661 
L 237.180015 265.885598 
L 240.099413 265.616086 
L 243.018811 264.805985 
L 245.938209 264.33946 
L 248.857607 262.914865 
L 251.777005 264.744323 
L 254.696403 262.747809 
L 257.615801 261.298611 
L 260.535199 261.868109 
L 263.454597 260.877223 
L 266.373995 261.225447 
L 272.212791 260.744893 
L 275.132189 260.387363 
L 278.051587 263.014754 
L 280.970985 262.692986 
L 283.890383 259.59302 
L 286.809781 263.181589 
L 289.729179 261.887161 
L 292.648577 260.178239 
L 295.567974 258.036409 
L 298.487372 262.97203 
L 301.40677 261.130332 
L 304.326168 259.511663 
L 310.164964 260.311242 
L 313.084362 261.378417 
L 316.00376 256.639183 
L 318.923158 260.125507 
L 321.842556 258.334842 
L 324.761954 254.804387 
L 327.681352 258.596153 
L 330.60075 261.652452 
L 333.520148 255.522286 
L 336.439546 257.873021 
L 339.358944 254.397989 
L 342.278342 252.864618 
L 345.19774 254.324148 
L 348.117138 263.626934 
L 351.036536 261.26164 
L 353.955934 254.210783 
L 356.875332 258.317576 
L 359.79473 255.245074 
L 362.714128 258.962212 
L 365.633526 258.848842 
L 368.552924 252.648173 
L 371.472322 245.643598 
L 374.39172 259.789321 
L 377.311118 244.892833 
L 380.230516 243.71941 
L 383.149914 256.908329 
L 386.069312 260.404222 
L 388.98871 238.381783 
L 391.908108 250.025418 
L 394.827506 257.243771 
L 397.746904 247.688652 
L 400.666302 251.594013 
L 403.5857 265.741516 
L 406.505098 246.549358 
L 409.424496 273.99006 
L 412.343894 262.723756 
L 415.263292 261.91376 
L 418.18269 208.701229 
L 421.102088 273.99006 
L 424.021486 256.72208 
L 426.940884 273.99006 
L 432.77968 273.99006 
L 435.699078 245.343953 
L 438.618476 242.405891 
L 441.537874 236.663314 
L 444.457272 273.99006 
L 447.37667 221.942908 
L 450.296068 216.25025 
L 453.215466 208.001706 
L 456.134864 273.99006 
L 459.054262 113.322764 
L 461.97366 273.99006 
L 464.893058 181.606365 
L 467.812456 273.99006 
L 949.513125 273.99006 
L 949.513125 273.99006 
" style="fill:none;stroke:#90ed7d;stroke-linecap:square;"/>
   </g>
   <g id="line2d_11">
    <path clip-path="url(#pc5726b1e14)" d="M 76.613125 175.22619 
L 79.532523 198.14235 
L 82.451921 212.033401 
L 85.371319 218.544092 
L 88.290717 230.393654 
L 94.129513 246.323565 
L 97.048911 249.184801 
L 99.968309 251.712357 
L 102.887707 253.906234 
L 105.807105 256.735941 
L 108.726503 257.671294 
L 111.645901 259.662862 
L 114.565299 262.810484 
L 117.484697 264.245043 
L 120.404095 270.206608 
L 123.323493 269.738931 
L 126.242891 270.014808 
L 129.162289 269.604934 
L 132.081687 269.652227 
L 135.001085 269.410506 
L 137.920483 269.570777 
L 143.759279 270.101512 
L 146.678677 269.405251 
L 149.598075 270.009553 
L 152.517473 269.116238 
L 155.436871 269.158276 
L 158.356269 269.444662 
L 161.275667 269.347442 
L 164.195065 269.436764 
L 167.114463 268.890231 
L 170.033861 270.521858 
L 172.953259 269.192354 
L 175.872657 268.70889 
L 178.792055 269.507583 
L 181.711453 269.609827 
L 184.630851 269.377147 
L 187.550249 268.923481 
L 190.469647 266.581207 
L 193.389045 266.689565 
L 196.308443 267.353514 
L 199.227841 266.531343 
L 205.066637 266.15386 
L 207.986035 265.248539 
L 210.905433 265.257374 
L 216.744229 266.005134 
L 219.663627 267.359787 
L 222.583025 266.966338 
L 225.502423 264.963098 
L 228.421821 266.273781 
L 231.341219 266.148086 
L 234.260617 266.715595 
L 237.180015 265.974019 
L 240.099413 265.864427 
L 243.018811 265.475671 
L 245.938209 266.250391 
L 248.857607 264.64216 
L 254.696403 265.155719 
L 257.615801 263.879669 
L 260.535199 262.215325 
L 263.454597 265.058237 
L 266.373995 263.359877 
L 269.293393 265.213802 
L 272.212791 262.911568 
L 275.132189 264.14785 
L 278.051587 264.789812 
L 280.970985 264.130067 
L 283.890383 262.512569 
L 286.809781 262.826665 
L 289.729179 264.090305 
L 292.648577 264.240123 
L 295.567974 262.456977 
L 298.487372 262.797908 
L 301.40677 264.282843 
L 304.326168 262.201896 
L 307.245566 263.842819 
L 310.164964 263.311338 
L 313.084362 262.500323 
L 316.00376 260.717726 
L 318.923158 258.756879 
L 321.842556 260.435349 
L 324.761954 260.549312 
L 327.681352 260.831583 
L 330.60075 261.420646 
L 333.520148 259.85679 
L 336.439546 258.838704 
L 339.358944 259.842932 
L 342.278342 263.394686 
L 345.19774 261.114284 
L 348.117138 261.582758 
L 351.036536 260.566587 
L 353.955934 259.723492 
L 356.875332 257.622784 
L 359.79473 259.936254 
L 362.714128 257.739227 
L 365.633526 260.018991 
L 368.552924 262.927091 
L 371.472322 255.010359 
L 374.39172 251.580154 
L 377.311118 254.76113 
L 380.230516 256.279637 
L 383.149914 255.098529 
L 386.069312 267.223794 
L 388.98871 264.888218 
L 391.908108 262.120634 
L 394.827506 264.943921 
L 397.746904 265.557044 
L 400.666302 266.374712 
L 403.5857 252.666645 
L 406.505098 260.15844 
L 409.424496 261.203389 
L 412.343894 265.559609 
L 415.263292 258.541282 
L 418.18269 263.725205 
L 421.102088 251.52594 
L 424.021486 269.776436 
L 426.940884 260.149806 
L 429.860282 248.184559 
L 432.77968 256.881968 
L 435.699078 267.66241 
L 438.618476 260.045351 
L 441.537874 265.886227 
L 444.457272 264.820462 
L 447.37667 253.685951 
L 450.296068 250.301933 
L 453.215466 260.252708 
L 456.134864 273.99006 
L 461.97366 273.99006 
L 464.893058 250.601783 
L 467.812456 273.99006 
L 949.513125 273.99006 
L 949.513125 273.99006 
" style="fill:none;stroke:#f7a35c;stroke-linecap:square;"/>
   </g>
   <g id="line2d_12">
    <path clip-path="url(#pc5726b1e14)" d="M 76.613125 172.110662 
L 79.532523 197.916026 
L 82.451921 210.701832 
L 85.371319 219.491695 
L 88.290717 233.45835 
L 91.210115 238.842695 
L 94.129513 246.125265 
L 97.048911 248.353965 
L 102.887707 254.757951 
L 105.807105 256.617888 
L 111.645901 261.014835 
L 114.565299 262.449585 
L 117.484697 264.597681 
L 120.404095 270.584542 
L 123.323493 269.973967 
L 132.081687 270.13316 
L 135.001085 270.886807 
L 137.920483 270.701418 
L 140.839881 270.739705 
L 143.759279 270.294368 
L 146.678677 270.792097 
L 149.598075 270.538195 
L 152.517473 270.052556 
L 155.436871 270.262126 
L 158.356269 270.092858 
L 161.275667 270.439445 
L 164.195065 269.865133 
L 167.114463 270.243966 
L 170.033861 270.445465 
L 172.953259 270.217744 
L 178.792055 270.147152 
L 181.711453 269.622992 
L 184.630851 270.313107 
L 187.550249 268.587773 
L 190.469647 267.819764 
L 193.389045 267.185572 
L 196.308443 267.047166 
L 199.227841 267.758125 
L 202.147239 266.758314 
L 205.066637 266.37779 
L 207.986035 266.508053 
L 210.905433 264.860286 
L 213.824831 266.186333 
L 216.744229 267.185588 
L 219.663627 266.77657 
L 222.583025 267.611828 
L 225.502423 266.76891 
L 228.421821 267.117909 
L 231.341219 265.83043 
L 234.260617 266.834207 
L 237.180015 267.077871 
L 240.099413 266.690559 
L 243.018811 266.861116 
L 245.938209 266.42711 
L 248.857607 264.740754 
L 251.777005 264.814105 
L 254.696403 264.607996 
L 257.615801 264.671818 
L 260.535199 265.020708 
L 263.454597 264.469956 
L 266.373995 263.612959 
L 269.293393 263.991627 
L 272.212791 264.530965 
L 275.132189 264.092894 
L 278.051587 265.01359 
L 280.970985 263.752944 
L 283.890383 264.487265 
L 286.809781 263.860419 
L 289.729179 263.980781 
L 292.648577 263.869897 
L 298.487372 264.489099 
L 301.40677 263.803797 
L 304.326168 262.432991 
L 307.245566 261.62291 
L 310.164964 263.21487 
L 313.084362 262.506724 
L 316.00376 262.961072 
L 318.923158 262.496078 
L 321.842556 259.880141 
L 324.761954 260.200995 
L 327.681352 260.957252 
L 330.60075 263.737941 
L 333.520148 260.769296 
L 336.439546 260.757002 
L 339.358944 261.829041 
L 342.278342 259.389423 
L 345.19774 263.537756 
L 348.117138 263.013779 
L 351.036536 261.612902 
L 353.955934 260.057602 
L 356.875332 259.252726 
L 359.79473 261.784715 
L 362.714128 258.737063 
L 365.633526 256.313604 
L 368.552924 258.591589 
L 371.472322 254.061639 
L 374.39172 255.535876 
L 377.311118 257.501894 
L 380.230516 263.144428 
L 383.149914 257.958182 
L 386.069312 266.214018 
L 388.98871 264.878243 
L 391.908108 256.010749 
L 394.827506 260.242486 
L 397.746904 264.674057 
L 400.666302 263.677461 
L 403.5857 258.775041 
L 406.505098 267.709016 
L 409.424496 262.442098 
L 412.343894 248.765843 
L 415.263292 265.716893 
L 418.18269 264.595108 
L 421.102088 270.477372 
L 424.021486 254.743457 
L 426.940884 257.077713 
L 429.860282 269.228014 
L 432.77968 268.68827 
L 435.699078 261.992178 
L 438.618476 239.773877 
L 441.537874 273.99006 
L 444.457272 256.999955 
L 447.37667 273.99006 
L 456.134864 273.99006 
L 459.054262 257.85317 
L 461.97366 256.393166 
L 464.893058 273.99006 
L 470.731854 273.99006 
L 473.651252 244.188868 
L 476.57065 273.99006 
L 949.513125 273.99006 
L 949.513125 273.99006 
" style="fill:none;stroke:#8085e9;stroke-linecap:square;"/>
   </g>
   <g id="line2d_13">
    <path clip-path="url(#pc5726b1e14)" d="M 76.613125 183.384271 
L 79.532523 210.556234 
L 82.451921 216.928939 
L 85.371319 224.415889 
L 88.290717 233.466694 
L 91.210115 244.931699 
L 94.129513 249.584164 
L 97.048911 250.063094 
L 99.968309 253.405832 
L 102.887707 255.614776 
L 105.807105 262.632571 
L 108.726503 261.010072 
L 111.645901 263.209242 
L 114.565299 266.17079 
L 117.484697 266.33695 
L 120.404095 272.484851 
L 129.162289 271.614957 
L 132.081687 272.142758 
L 135.001085 271.877097 
L 137.920483 272.34647 
L 140.839881 271.983809 
L 143.759279 272.815237 
L 146.678677 272.207961 
L 149.598075 272.109227 
L 152.517473 272.174343 
L 155.436871 272.437962 
L 158.356269 271.573118 
L 161.275667 272.614261 
L 164.195065 271.710109 
L 167.114463 272.545309 
L 170.033861 271.916258 
L 172.953259 272.653267 
L 175.872657 271.94533 
L 178.792055 272.544756 
L 181.711453 271.993075 
L 184.630851 272.019707 
L 187.550249 271.01111 
L 190.469647 270.123599 
L 196.308443 269.289497 
L 199.227841 268.824285 
L 202.147239 270.21056 
L 205.066637 268.971198 
L 207.986035 269.478145 
L 210.905433 267.04779 
L 213.824831 268.877631 
L 216.744229 268.285241 
L 219.663627 269.668427 
L 222.583025 270.091107 
L 225.502423 268.222243 
L 228.421821 268.973179 
L 231.341219 267.656137 
L 234.260617 267.808469 
L 237.180015 269.85808 
L 240.099413 269.493304 
L 243.018811 269.658133 
L 245.938209 268.657247 
L 248.857607 266.493901 
L 251.777005 267.653679 
L 254.696403 265.217565 
L 257.615801 265.299646 
L 260.535199 266.855784 
L 263.454597 267.470748 
L 266.373995 266.550167 
L 269.293393 266.975177 
L 272.212791 267.275246 
L 275.132189 267.031827 
L 278.051587 267.153634 
L 280.970985 266.798049 
L 283.890383 267.057043 
L 286.809781 268.790151 
L 289.729179 268.572957 
L 292.648577 266.085982 
L 295.567974 267.177718 
L 298.487372 266.603736 
L 301.40677 265.427709 
L 304.326168 264.689614 
L 307.245566 264.737056 
L 310.164964 269.086223 
L 313.084362 261.277858 
L 316.00376 264.834891 
L 318.923158 264.67256 
L 321.842556 263.607725 
L 324.761954 262.279809 
L 327.681352 265.620507 
L 330.60075 263.141411 
L 333.520148 265.650569 
L 336.439546 265.761069 
L 339.358944 256.573099 
L 342.278342 261.110832 
L 345.19774 263.617154 
L 348.117138 261.289815 
L 351.036536 268.758551 
L 353.955934 268.054192 
L 356.875332 260.677852 
L 359.79473 264.361385 
L 362.714128 265.28395 
L 365.633526 264.845423 
L 368.552924 267.535304 
L 371.472322 267.518348 
L 374.39172 263.061697 
L 377.311118 264.55834 
L 380.230516 241.816634 
L 383.149914 265.629545 
L 386.069312 270.798913 
L 388.98871 254.823318 
L 391.908108 264.865744 
L 394.827506 268.657668 
L 397.746904 255.136245 
L 400.666302 273.99006 
L 403.5857 258.751512 
L 406.505098 265.723063 
L 409.424496 273.99006 
L 412.343894 264.109451 
L 415.263292 273.99006 
L 418.18269 249.83746 
L 421.102088 260.303587 
L 424.021486 244.068215 
L 426.940884 273.99006 
L 429.860282 273.99006 
L 432.77968 232.469298 
L 435.699078 273.99006 
L 447.37667 273.99006 
L 450.296068 230.51538 
L 453.215466 273.99006 
L 459.054262 273.99006 
L 461.97366 190.004883 
L 464.893058 174.115795 
L 467.812456 273.99006 
L 949.513125 273.99006 
L 949.513125 273.99006 
" style="fill:none;stroke:#f15c80;stroke-linecap:square;"/>
   </g>
   <g id="line2d_14">
    <path clip-path="url(#pc5726b1e14)" d="M 76.613125 188.419515 
L 79.532523 204.833927 
L 82.451921 216.458259 
L 85.371319 223.851863 
L 88.290717 236.371158 
L 91.210115 245.727576 
L 94.129513 251.432957 
L 97.048911 254.453452 
L 99.968309 253.47713 
L 102.887707 258.735031 
L 105.807105 259.955433 
L 108.726503 262.986099 
L 111.645901 265.793024 
L 114.565299 265.670984 
L 117.484697 266.352375 
L 120.404095 271.762826 
L 123.323493 272.505237 
L 126.242891 272.230647 
L 129.162289 271.549255 
L 135.001085 272.025651 
L 137.920483 271.536898 
L 140.839881 271.851613 
L 143.759279 271.545582 
L 146.678677 272.319202 
L 149.598075 272.624255 
L 152.517473 270.783941 
L 155.436871 270.311124 
L 158.356269 271.629064 
L 161.275667 272.272706 
L 164.195065 272.507766 
L 167.114463 271.158062 
L 170.033861 272.30306 
L 175.872657 271.67917 
L 178.792055 272.425344 
L 181.711453 271.93336 
L 184.630851 272.217318 
L 187.550249 270.532542 
L 190.469647 269.301146 
L 193.389045 268.428051 
L 196.308443 269.793837 
L 199.227841 269.40123 
L 202.147239 269.467065 
L 205.066637 268.920507 
L 207.986035 268.780434 
L 213.824831 268.91353 
L 216.744229 268.254602 
L 219.663627 269.254527 
L 222.583025 269.753749 
L 225.502423 268.115904 
L 228.421821 268.804777 
L 231.341219 268.592212 
L 234.260617 269.104467 
L 237.180015 270.145949 
L 240.099413 268.330532 
L 243.018811 268.631469 
L 245.938209 268.739307 
L 248.857607 266.906755 
L 251.777005 268.201961 
L 254.696403 266.581093 
L 257.615801 268.377397 
L 260.535199 268.039673 
L 263.454597 267.230788 
L 266.373995 266.080848 
L 269.293393 264.634749 
L 272.212791 264.796947 
L 275.132189 265.092301 
L 278.051587 267.160245 
L 280.970985 266.051129 
L 283.890383 267.851519 
L 286.809781 263.090017 
L 289.729179 266.548738 
L 292.648577 267.05838 
L 295.567974 267.861286 
L 298.487372 265.498987 
L 301.40677 266.653227 
L 304.326168 266.227947 
L 307.245566 263.15172 
L 310.164964 263.786667 
L 313.084362 265.214001 
L 316.00376 261.520923 
L 318.923158 264.908273 
L 321.842556 264.372223 
L 324.761954 260.418685 
L 327.681352 265.328047 
L 330.60075 262.42796 
L 333.520148 265.513195 
L 336.439546 263.197943 
L 339.358944 255.896479 
L 342.278342 262.387084 
L 345.19774 265.395176 
L 348.117138 265.234532 
L 351.036536 265.808047 
L 353.955934 265.33585 
L 356.875332 268.761147 
L 359.79473 264.574071 
L 362.714128 268.110429 
L 365.633526 264.862927 
L 368.552924 259.192526 
L 371.472322 258.048094 
L 374.39172 254.961492 
L 377.311118 250.542422 
L 380.230516 259.475732 
L 383.149914 259.858711 
L 386.069312 261.3058 
L 388.98871 238.748323 
L 391.908108 273.99006 
L 394.827506 273.99006 
L 397.746904 258.937727 
L 400.666302 265.495008 
L 403.5857 245.417783 
L 406.505098 252.933947 
L 409.424496 273.99006 
L 412.343894 261.334759 
L 415.263292 273.99006 
L 418.18269 273.99006 
L 421.102088 256.051478 
L 424.021486 273.99006 
L 432.77968 273.99006 
L 435.699078 239.773877 
L 438.618476 236.663314 
L 441.537874 273.99006 
L 450.296068 273.99006 
L 453.215466 204.266516 
L 456.134864 273.99006 
L 949.513125 273.99006 
L 949.513125 273.99006 
" style="fill:none;stroke:#e4d354;stroke-linecap:square;"/>
   </g>
   <g id="line2d_15">
    <path clip-path="url(#pc5726b1e14)" d="M 76.613125 191.565378 
L 79.532523 209.059357 
L 82.451921 220.170556 
L 85.371319 222.751827 
L 91.210115 245.713408 
L 94.129513 248.623204 
L 97.048911 251.181009 
L 99.968309 257.188331 
L 102.887707 258.502433 
L 108.726503 262.937526 
L 111.645901 266.246246 
L 114.565299 266.387043 
L 117.484697 268.440327 
L 120.404095 272.429564 
L 123.323493 272.511696 
L 126.242891 272.347433 
L 129.162289 272.394365 
L 135.001085 271.759009 
L 140.839881 272.568809 
L 143.759279 272.357071 
L 146.678677 272.591749 
L 149.598075 272.026757 
L 152.517473 272.588344 
L 158.356269 272.221686 
L 161.275667 272.351079 
L 164.195065 272.693 
L 167.114463 272.480604 
L 170.033861 271.525363 
L 172.953259 272.963955 
L 178.792055 272.362122 
L 181.711453 272.514471 
L 187.550249 271.941989 
L 190.469647 269.790963 
L 193.389045 270.279822 
L 196.308443 269.519783 
L 199.227841 270.646964 
L 202.147239 270.20714 
L 207.986035 269.065167 
L 210.905433 269.637337 
L 213.824831 270.915401 
L 216.744229 268.986325 
L 219.663627 270.766904 
L 222.583025 268.398898 
L 225.502423 268.643297 
L 228.421821 268.419345 
L 231.341219 269.773842 
L 234.260617 269.434565 
L 237.180015 269.982038 
L 240.099413 270.000784 
L 243.018811 268.788253 
L 245.938209 268.276156 
L 248.857607 269.824207 
L 251.777005 268.161731 
L 254.696403 267.412344 
L 257.615801 267.850143 
L 260.535199 268.719972 
L 263.454597 268.057171 
L 266.373995 264.087996 
L 269.293393 265.974418 
L 272.212791 267.644775 
L 275.132189 269.746989 
L 278.051587 266.424057 
L 280.970985 267.658589 
L 283.890383 270.526876 
L 286.809781 266.374015 
L 289.729179 268.058147 
L 292.648577 266.274631 
L 295.567974 267.115608 
L 298.487372 264.146575 
L 301.40677 266.059157 
L 304.326168 263.022076 
L 307.245566 262.243795 
L 310.164964 266.476795 
L 313.084362 264.739112 
L 316.00376 260.754184 
L 318.923158 266.594845 
L 321.842556 264.506506 
L 324.761954 266.439501 
L 327.681352 262.756203 
L 330.60075 266.585228 
L 333.520148 264.491428 
L 336.439546 260.67736 
L 339.358944 266.27434 
L 342.278342 267.473649 
L 345.19774 266.679777 
L 348.117138 254.463784 
L 351.036536 262.977955 
L 353.955934 263.182316 
L 356.875332 258.419774 
L 359.79473 263.275456 
L 362.714128 254.84318 
L 365.633526 257.89534 
L 368.552924 262.519762 
L 371.472322 262.506692 
L 374.39172 271.186306 
L 377.311118 253.760054 
L 380.230516 265.982806 
L 383.149914 240.953745 
L 386.069312 268.499201 
L 388.98871 267.705455 
L 394.827506 265.648417 
L 397.746904 264.888218 
L 400.666302 263.696612 
L 403.5857 273.99006 
L 406.505098 261.713157 
L 409.424496 260.404222 
L 412.343894 244.545058 
L 415.263292 273.99006 
L 418.18269 238.286216 
L 421.102088 273.99006 
L 435.699078 273.99006 
L 438.618476 197.003647 
L 441.537874 273.99006 
L 447.37667 273.99006 
L 450.296068 219.64671 
L 453.215466 210.277167 
L 456.134864 190.004883 
L 459.054262 273.99006 
L 949.513125 273.99006 
L 949.513125 273.99006 
" style="fill:none;stroke:#2b908f;stroke-linecap:square;"/>
   </g>
   <g id="line2d_16">
    <path clip-path="url(#pc5726b1e14)" d="M 76.613125 176.051236 
L 79.532523 204.964331 
L 82.451921 213.385413 
L 88.290717 233.863141 
L 91.210115 241.062845 
L 94.129513 244.869831 
L 97.048911 250.569596 
L 99.968309 255.155121 
L 102.887707 255.590818 
L 105.807105 258.447843 
L 108.726503 261.654854 
L 111.645901 262.626242 
L 114.565299 263.890476 
L 117.484697 266.411801 
L 120.404095 271.354454 
L 123.323493 271.268744 
L 126.242891 271.804436 
L 129.162289 270.954471 
L 132.081687 272.025855 
L 135.001085 271.889172 
L 137.920483 270.952897 
L 140.839881 270.923844 
L 143.759279 271.652544 
L 146.678677 271.337847 
L 149.598075 270.457462 
L 152.517473 270.725568 
L 155.436871 271.647628 
L 158.356269 271.575877 
L 161.275667 271.618634 
L 164.195065 271.518169 
L 167.114463 270.951794 
L 170.033861 271.310029 
L 172.953259 272.313158 
L 175.872657 270.607433 
L 178.792055 271.725042 
L 181.711453 271.264687 
L 184.630851 271.174699 
L 187.550249 270.52366 
L 190.469647 269.11207 
L 193.389045 269.731714 
L 196.308443 269.217583 
L 199.227841 268.909414 
L 202.147239 268.163274 
L 205.066637 268.52532 
L 207.986035 266.476481 
L 210.905433 266.99859 
L 213.824831 267.976326 
L 216.744229 268.037979 
L 219.663627 267.661076 
L 222.583025 267.737886 
L 225.502423 268.493355 
L 228.421821 268.366732 
L 231.341219 267.309056 
L 234.260617 268.574963 
L 237.180015 268.643235 
L 240.099413 269.021029 
L 245.938209 267.998974 
L 248.857607 265.971985 
L 251.777005 267.608648 
L 254.696403 266.501863 
L 257.615801 267.086912 
L 260.535199 266.319487 
L 263.454597 264.261522 
L 266.373995 263.698556 
L 269.293393 266.15555 
L 272.212791 265.007331 
L 275.132189 266.03937 
L 278.051587 264.056329 
L 280.970985 264.177185 
L 283.890383 264.645909 
L 286.809781 264.986643 
L 289.729179 267.535852 
L 292.648577 263.871177 
L 295.567974 264.525778 
L 298.487372 269.258202 
L 301.40677 263.018426 
L 304.326168 263.335294 
L 307.245566 262.558839 
L 310.164964 262.883668 
L 313.084362 263.637696 
L 316.00376 262.231909 
L 318.923158 259.83975 
L 321.842556 267.001223 
L 324.761954 261.598908 
L 327.681352 261.474064 
L 330.60075 263.944044 
L 333.520148 259.718481 
L 336.439546 262.183125 
L 339.358944 262.474954 
L 342.278342 260.750134 
L 345.19774 260.116741 
L 348.117138 265.01118 
L 351.036536 266.264311 
L 353.955934 259.679531 
L 356.875332 266.117568 
L 359.79473 261.449287 
L 362.714128 258.434972 
L 365.633526 258.174319 
L 368.552924 261.95008 
L 371.472322 257.389216 
L 374.39172 260.654269 
L 377.311118 267.432211 
L 380.230516 266.110854 
L 383.149914 262.038741 
L 386.069312 259.487125 
L 388.98871 260.303587 
L 391.908108 265.982806 
L 394.827506 247.082188 
L 397.746904 263.551224 
L 400.666302 239.561354 
L 403.5857 241.800619 
L 406.505098 252.833489 
L 409.424496 250.352441 
L 412.343894 264.888218 
L 415.263292 273.99006 
L 418.18269 251.179271 
L 421.102088 273.99006 
L 424.021486 259.777184 
L 426.940884 257.92333 
L 429.860282 256.393166 
L 432.77968 273.99006 
L 435.699078 252.124097 
L 438.618476 249.021494 
L 441.537874 273.99006 
L 450.296068 273.99006 
L 453.215466 229.997824 
L 456.134864 273.99006 
L 459.054262 219.64671 
L 461.97366 273.99006 
L 949.513125 273.99006 
L 949.513125 273.99006 
" style="fill:none;stroke:#f45b5b;stroke-linecap:square;"/>
   </g>
   <g id="line2d_17">
    <path clip-path="url(#pc5726b1e14)" d="M 76.613125 185.835007 
L 79.532523 203.601894 
L 82.451921 218.548314 
L 85.371319 230.447805 
L 88.290717 230.79779 
L 91.210115 243.17079 
L 94.129513 248.46174 
L 97.048911 255.029106 
L 99.968309 256.223173 
L 102.887707 256.017299 
L 105.807105 257.190779 
L 108.726503 262.440554 
L 111.645901 263.243461 
L 114.565299 266.125691 
L 117.484697 265.096323 
L 120.404095 272.034261 
L 123.323493 272.178373 
L 126.242891 269.563779 
L 129.162289 272.404834 
L 132.081687 271.210767 
L 135.001085 272.013674 
L 137.920483 271.375466 
L 140.839881 271.8078 
L 149.598075 271.10783 
L 152.517473 271.560752 
L 155.436871 271.848975 
L 158.356269 271.210767 
L 161.275667 270.819572 
L 164.195065 270.037178 
L 167.114463 271.128338 
L 170.033861 270.284212 
L 172.953259 271.41654 
L 175.872657 270.613565 
L 178.792055 271.06646 
L 181.711453 270.489566 
L 184.630851 270.426363 
L 187.550249 269.930733 
L 190.469647 269.146149 
L 193.389045 267.192662 
L 196.308443 268.948445 
L 199.227841 268.398073 
L 202.147239 268.558519 
L 205.066637 269.347407 
L 207.986035 269.696617 
L 210.905433 266.359244 
L 213.824831 269.100301 
L 216.744229 266.078739 
L 219.663627 269.920399 
L 222.583025 266.869993 
L 225.502423 268.498534 
L 228.421821 268.139848 
L 231.341219 269.457513 
L 234.260617 267.202654 
L 237.180015 266.452569 
L 240.099413 269.165565 
L 243.018811 269.436196 
L 245.938209 268.232449 
L 248.857607 266.507793 
L 251.777005 262.594507 
L 254.696403 265.395712 
L 257.615801 266.746936 
L 260.535199 265.348022 
L 263.454597 266.097419 
L 266.373995 265.302436 
L 269.293393 263.696403 
L 272.212791 265.490399 
L 275.132189 263.428489 
L 278.051587 265.634945 
L 280.970985 268.268486 
L 283.890383 260.799608 
L 286.809781 265.919349 
L 289.729179 264.688528 
L 292.648577 268.797854 
L 295.567974 268.178593 
L 298.487372 261.510157 
L 301.40677 266.44101 
L 304.326168 268.29615 
L 307.245566 261.887616 
L 310.164964 262.126626 
L 313.084362 268.330651 
L 316.00376 263.63131 
L 318.923158 268.498295 
L 321.842556 259.369159 
L 324.761954 259.552139 
L 327.681352 259.08603 
L 330.60075 266.764116 
L 333.520148 256.159021 
L 336.439546 261.088596 
L 339.358944 264.348825 
L 342.278342 263.92732 
L 345.19774 262.849169 
L 348.117138 257.40587 
L 351.036536 262.073078 
L 353.955934 259.25288 
L 356.875332 250.408636 
L 359.79473 248.471905 
L 362.714128 257.550055 
L 365.633526 263.285113 
L 368.552924 261.308702 
L 371.472322 255.756436 
L 374.39172 262.859494 
L 377.311118 260.88599 
L 380.230516 273.99006 
L 383.149914 273.99006 
L 386.069312 259.694711 
L 388.98871 248.679459 
L 391.908108 244.816262 
L 394.827506 273.99006 
L 397.746904 234.816762 
L 400.666302 273.99006 
L 403.5857 273.99006 
L 406.505098 255.420473 
L 409.424496 231.020899 
L 412.343894 249.517558 
L 415.263292 273.99006 
L 418.18269 214.387676 
L 421.102088 239.773877 
L 424.021486 273.99006 
L 432.77968 273.99006 
L 435.699078 214.387676 
L 438.618476 273.99006 
L 949.513125 273.99006 
L 949.513125 273.99006 
" style="fill:none;stroke:#91e8e1;stroke-linecap:square;"/>
   </g>
   <g id="line2d_18">
    <path clip-path="url(#pc5726b1e14)" d="M 76.613125 190.078752 
L 79.532523 210.332845 
L 82.451921 213.624919 
L 85.371319 222.936786 
L 88.290717 235.185391 
L 91.210115 245.22883 
L 94.129513 249.534653 
L 97.048911 251.666663 
L 99.968309 254.854227 
L 102.887707 258.564342 
L 108.726503 260.685901 
L 111.645901 263.821209 
L 117.484697 268.294249 
L 120.404095 271.711736 
L 123.323493 272.014816 
L 126.242891 271.837148 
L 129.162289 271.878952 
L 132.081687 271.586323 
L 135.001085 271.743089 
L 137.920483 272.756839 
L 143.759279 271.513166 
L 146.678677 271.136929 
L 149.598075 271.847599 
L 152.517473 271.189184 
L 155.436871 272.244738 
L 161.275667 271.04287 
L 164.195065 271.784887 
L 167.114463 272.035701 
L 170.033861 272.119284 
L 172.953259 271.398132 
L 178.792055 272.066962 
L 181.711453 271.805529 
L 184.630851 271.9617 
L 190.469647 269.323583 
L 193.389045 269.906791 
L 196.308443 269.972255 
L 199.227841 269.393635 
L 202.147239 269.967264 
L 205.066637 267.777141 
L 207.986035 268.542326 
L 210.905433 267.789142 
L 213.824831 269.421968 
L 216.744229 268.495142 
L 219.663627 269.597213 
L 222.583025 267.514348 
L 225.502423 267.850278 
L 228.421821 267.630857 
L 231.341219 268.507579 
L 234.260617 267.582859 
L 237.180015 267.686005 
L 240.099413 269.061324 
L 243.018811 268.379785 
L 245.938209 270.091548 
L 248.857607 268.754468 
L 251.777005 267.755323 
L 254.696403 267.084002 
L 257.615801 265.958161 
L 260.535199 268.182535 
L 263.454597 266.253546 
L 266.373995 266.49495 
L 269.293393 268.414843 
L 272.212791 267.057423 
L 275.132189 267.196645 
L 278.051587 265.601075 
L 280.970985 266.590775 
L 283.890383 267.059886 
L 286.809781 267.415899 
L 289.729179 265.3076 
L 292.648577 267.519733 
L 295.567974 263.860833 
L 298.487372 266.412332 
L 301.40677 263.879669 
L 304.326168 266.390217 
L 307.245566 262.886317 
L 310.164964 265.423345 
L 313.084362 266.929136 
L 316.00376 265.511809 
L 318.923158 265.169055 
L 321.842556 262.012519 
L 324.761954 263.029545 
L 327.681352 264.46896 
L 330.60075 261.912902 
L 333.520148 264.913459 
L 336.439546 265.744461 
L 339.358944 263.605702 
L 342.278342 255.225599 
L 345.19774 264.082961 
L 348.117138 258.25825 
L 351.036536 263.666163 
L 353.955934 257.287923 
L 356.875332 269.239238 
L 359.79473 264.93949 
L 362.714128 265.83481 
L 365.633526 255.100103 
L 368.552924 246.121675 
L 371.472322 257.223509 
L 374.39172 266.060129 
L 377.311118 257.072183 
L 380.230516 259.406998 
L 383.149914 259.639195 
L 386.069312 261.054187 
L 388.98871 258.968321 
L 391.908108 249.916133 
L 394.827506 246.464192 
L 397.746904 266.160933 
L 400.666302 265.436014 
L 403.5857 273.99006 
L 415.263292 273.99006 
L 418.18269 244.892833 
L 421.102088 273.99006 
L 424.021486 255.696259 
L 426.940884 253.573774 
L 429.860282 273.99006 
L 432.77968 273.99006 
L 435.699078 246.818385 
L 438.618476 273.99006 
L 949.513125 273.99006 
L 949.513125 273.99006 
" style="fill:none;stroke:#7cb5ec;stroke-linecap:square;"/>
   </g>
   <g id="line2d_19">
    <path clip-path="url(#pc5726b1e14)" d="M 32.968125 273.99006 
L 993.158125 273.99006 
" style="fill:none;stroke:#dedede;stroke-linecap:square;stroke-width:2;"/>
   </g>
   <g id="text_17">
    <!-- Slamdunk: T&gt;C conversions over reads -->
    <defs>
     <path d="M 53.515625 70.515625 
L 53.515625 60.890625 
Q 47.90625 63.578125 42.921875 64.890625 
Q 37.9375 66.21875 33.296875 66.21875 
Q 25.25 66.21875 20.875 63.09375 
Q 16.5 59.96875 16.5 54.203125 
Q 16.5 49.359375 19.40625 46.890625 
Q 22.3125 44.4375 30.421875 42.921875 
L 36.375 41.703125 
Q 47.40625 39.59375 52.65625 34.296875 
Q 57.90625 29 57.90625 20.125 
Q 57.90625 9.515625 50.796875 4.046875 
Q 43.703125 -1.421875 29.984375 -1.421875 
Q 24.8125 -1.421875 18.96875 -0.25 
Q 13.140625 0.921875 6.890625 3.21875 
L 6.890625 13.375 
Q 12.890625 10.015625 18.65625 8.296875 
Q 24.421875 6.59375 29.984375 6.59375 
Q 38.421875 6.59375 43.015625 9.90625 
Q 47.609375 13.234375 47.609375 19.390625 
Q 47.609375 24.75 44.3125 27.78125 
Q 41.015625 30.8125 33.5 32.328125 
L 27.484375 33.5 
Q 16.453125 35.6875 11.515625 40.375 
Q 6.59375 45.0625 6.59375 53.421875 
Q 6.59375 63.09375 13.40625 68.65625 
Q 20.21875 74.21875 32.171875 74.21875 
Q 37.3125 74.21875 42.625 73.28125 
Q 47.953125 72.359375 53.515625 70.515625 
z
" id="DejaVuSans-83"/>
     <path d="M 9.421875 75.984375 
L 18.40625 75.984375 
L 18.40625 0 
L 9.421875 0 
z
" id="DejaVuSans-108"/>
     <path d="M 52 44.1875 
Q 55.375 50.25 60.0625 53.125 
Q 64.75 56 71.09375 56 
Q 79.640625 56 84.28125 50.015625 
Q 88.921875 44.046875 88.921875 33.015625 
L 88.921875 0 
L 79.890625 0 
L 79.890625 32.71875 
Q 79.890625 40.578125 77.09375 44.375 
Q 74.3125 48.1875 68.609375 48.1875 
Q 61.625 48.1875 57.5625 43.546875 
Q 53.515625 38.921875 53.515625 30.90625 
L 53.515625 0 
L 44.484375 0 
L 44.484375 32.71875 
Q 44.484375 40.625 41.703125 44.40625 
Q 38.921875 48.1875 33.109375 48.1875 
Q 26.21875 48.1875 22.15625 43.53125 
Q 18.109375 38.875 18.109375 30.90625 
L 18.109375 0 
L 9.078125 0 
L 9.078125 54.6875 
L 18.109375 54.6875 
L 18.109375 46.1875 
Q 21.1875 51.21875 25.484375 53.609375 
Q 29.78125 56 35.6875 56 
Q 41.65625 56 45.828125 52.96875 
Q 50 49.953125 52 44.1875 
z
" id="DejaVuSans-109"/>
     <path d="M 8.5 21.578125 
L 8.5 54.6875 
L 17.484375 54.6875 
L 17.484375 21.921875 
Q 17.484375 14.15625 20.5 10.265625 
Q 23.53125 6.390625 29.59375 6.390625 
Q 36.859375 6.390625 41.078125 11.03125 
Q 45.3125 15.671875 45.3125 23.6875 
L 45.3125 54.6875 
L 54.296875 54.6875 
L 54.296875 0 
L 45.3125 0 
L 45.3125 8.40625 
Q 42.046875 3.421875 37.71875 1 
Q 33.40625 -1.421875 27.6875 -1.421875 
Q 18.265625 -1.421875 13.375 4.4375 
Q 8.5 10.296875 8.5 21.578125 
z
M 31.109375 56 
z
" id="DejaVuSans-117"/>
     <path d="M 9.078125 75.984375 
L 18.109375 75.984375 
L 18.109375 31.109375 
L 44.921875 54.6875 
L 56.390625 54.6875 
L 27.390625 29.109375 
L 57.625 0 
L 45.90625 0 
L 18.109375 26.703125 
L 18.109375 0 
L 9.078125 0 
z
" id="DejaVuSans-107"/>
     <path d="M 11.71875 12.40625 
L 22.015625 12.40625 
L 22.015625 0 
L 11.71875 0 
z
M 11.71875 51.703125 
L 22.015625 51.703125 
L 22.015625 39.3125 
L 11.71875 39.3125 
z
" id="DejaVuSans-58"/>
     <path d="M -0.296875 72.90625 
L 61.375 72.90625 
L 61.375 64.59375 
L 35.5 64.59375 
L 35.5 0 
L 25.59375 0 
L 25.59375 64.59375 
L -0.296875 64.59375 
z
" id="DejaVuSans-84"/>
     <path d="M 10.59375 49.21875 
L 10.59375 58.109375 
L 73.1875 35.40625 
L 73.1875 27.296875 
L 10.59375 4.59375 
L 10.59375 13.484375 
L 60.890625 31.296875 
z
" id="DejaVuSans-62"/>
     <path d="M 64.40625 67.28125 
L 64.40625 56.890625 
Q 59.421875 61.53125 53.78125 63.8125 
Q 48.140625 66.109375 41.796875 66.109375 
Q 29.296875 66.109375 22.65625 58.46875 
Q 16.015625 50.828125 16.015625 36.375 
Q 16.015625 21.96875 22.65625 14.328125 
Q 29.296875 6.6875 41.796875 6.6875 
Q 48.140625 6.6875 53.78125 8.984375 
Q 59.421875 11.28125 64.40625 15.921875 
L 64.40625 5.609375 
Q 59.234375 2.09375 53.4375 0.328125 
Q 47.65625 -1.421875 41.21875 -1.421875 
Q 24.65625 -1.421875 15.125 8.703125 
Q 5.609375 18.84375 5.609375 36.375 
Q 5.609375 53.953125 15.125 64.078125 
Q 24.65625 74.21875 41.21875 74.21875 
Q 47.75 74.21875 53.53125 72.484375 
Q 59.328125 70.75 64.40625 67.28125 
z
" id="DejaVuSans-67"/>
    </defs>
    <g transform="translate(355.143125 19.3575)scale(0.16 -0.16)">
     <use xlink:href="#DejaVuSans-83"/>
     <use x="63.476562" xlink:href="#DejaVuSans-108"/>
     <use x="91.259766" xlink:href="#DejaVuSans-97"/>
     <use x="152.539062" xlink:href="#DejaVuSans-109"/>
     <use x="249.951172" xlink:href="#DejaVuSans-100"/>
     <use x="313.427734" xlink:href="#DejaVuSans-117"/>
     <use x="376.806641" xlink:href="#DejaVuSans-110"/>
     <use x="440.185547" xlink:href="#DejaVuSans-107"/>
     <use x="498.095703" xlink:href="#DejaVuSans-58"/>
     <use x="531.787109" xlink:href="#DejaVuSans-32"/>
     <use x="563.574219" xlink:href="#DejaVuSans-84"/>
     <use x="624.658203" xlink:href="#DejaVuSans-62"/>
     <use x="708.447266" xlink:href="#DejaVuSans-67"/>
     <use x="778.271484" xlink:href="#DejaVuSans-32"/>
     <use x="810.058594" xlink:href="#DejaVuSans-99"/>
     <use x="865.039062" xlink:href="#DejaVuSans-111"/>
     <use x="926.220703" xlink:href="#DejaVuSans-110"/>
     <use x="989.599609" xlink:href="#DejaVuSans-118"/>
     <use x="1048.779297" xlink:href="#DejaVuSans-101"/>
     <use x="1110.302734" xlink:href="#DejaVuSans-114"/>
     <use x="1151.416016" xlink:href="#DejaVuSans-115"/>
     <use x="1203.515625" xlink:href="#DejaVuSans-105"/>
     <use x="1231.298828" xlink:href="#DejaVuSans-111"/>
     <use x="1292.480469" xlink:href="#DejaVuSans-110"/>
     <use x="1355.859375" xlink:href="#DejaVuSans-115"/>
     <use x="1407.958984" xlink:href="#DejaVuSans-32"/>
     <use x="1439.746094" xlink:href="#DejaVuSans-111"/>
     <use x="1500.927734" xlink:href="#DejaVuSans-118"/>
     <use x="1560.107422" xlink:href="#DejaVuSans-101"/>
     <use x="1621.630859" xlink:href="#DejaVuSans-114"/>
     <use x="1662.744141" xlink:href="#DejaVuSans-32"/>
     <use x="1694.53125" xlink:href="#DejaVuSans-114"/>
     <use x="1735.613281" xlink:href="#DejaVuSans-101"/>
     <use x="1797.136719" xlink:href="#DejaVuSans-97"/>
     <use x="1858.416016" xlink:href="#DejaVuSans-100"/>
     <use x="1921.892578" xlink:href="#DejaVuSans-115"/>
    </g>
   </g>
   <g id="legend_1">
    <g id="line2d_20">
     <path d="M 40.168125 291.525394 
L 56.168125 291.525394 
" style="fill:none;stroke:#7cb5ec;stroke-linecap:square;"/>
    </g>
    <g id="line2d_21"/>
    <g id="text_18">
     <!-- RT_Gad2_1 -->
     <defs>
      <path d="M 44.390625 34.1875 
Q 47.5625 33.109375 50.5625 29.59375 
Q 53.5625 26.078125 56.59375 19.921875 
L 66.609375 0 
L 56 0 
L 46.6875 18.703125 
Q 43.0625 26.03125 39.671875 28.421875 
Q 36.28125 30.8125 30.421875 30.8125 
L 19.671875 30.8125 
L 19.671875 0 
L 9.8125 0 
L 9.8125 72.90625 
L 32.078125 72.90625 
Q 44.578125 72.90625 50.734375 67.671875 
Q 56.890625 62.453125 56.890625 51.90625 
Q 56.890625 45.015625 53.6875 40.46875 
Q 50.484375 35.9375 44.390625 34.1875 
z
M 19.671875 64.796875 
L 19.671875 38.921875 
L 32.078125 38.921875 
Q 39.203125 38.921875 42.84375 42.21875 
Q 46.484375 45.515625 46.484375 51.90625 
Q 46.484375 58.296875 42.84375 61.546875 
Q 39.203125 64.796875 32.078125 64.796875 
z
" id="DejaVuSans-82"/>
      <path d="M 50.984375 -16.609375 
L 50.984375 -23.578125 
L -0.984375 -23.578125 
L -0.984375 -16.609375 
z
" id="DejaVuSans-95"/>
      <path d="M 59.515625 10.40625 
L 59.515625 29.984375 
L 43.40625 29.984375 
L 43.40625 38.09375 
L 69.28125 38.09375 
L 69.28125 6.78125 
Q 63.578125 2.734375 56.6875 0.65625 
Q 49.8125 -1.421875 42 -1.421875 
Q 24.90625 -1.421875 15.25 8.5625 
Q 5.609375 18.5625 5.609375 36.375 
Q 5.609375 54.25 15.25 64.234375 
Q 24.90625 74.21875 42 74.21875 
Q 49.125 74.21875 55.546875 72.453125 
Q 61.96875 70.703125 67.390625 67.28125 
L 67.390625 56.78125 
Q 61.921875 61.421875 55.765625 63.765625 
Q 49.609375 66.109375 42.828125 66.109375 
Q 29.4375 66.109375 22.71875 58.640625 
Q 16.015625 51.171875 16.015625 36.375 
Q 16.015625 21.625 22.71875 14.15625 
Q 29.4375 6.6875 42.828125 6.6875 
Q 48.046875 6.6875 52.140625 7.59375 
Q 56.25 8.5 59.515625 10.40625 
z
" id="DejaVuSans-71"/>
     </defs>
     <g transform="translate(62.568125 294.325394)scale(0.08 -0.08)">
      <use xlink:href="#DejaVuSans-82"/>
      <use x="69.373047" xlink:href="#DejaVuSans-84"/>
      <use x="130.457031" xlink:href="#DejaVuSans-95"/>
      <use x="180.457031" xlink:href="#DejaVuSans-71"/>
      <use x="257.947266" xlink:href="#DejaVuSans-97"/>
      <use x="319.226562" xlink:href="#DejaVuSans-100"/>
      <use x="382.703125" xlink:href="#DejaVuSans-50"/>
      <use x="446.326172" xlink:href="#DejaVuSans-95"/>
      <use x="496.326172" xlink:href="#DejaVuSans-49"/>
     </g>
    </g>
    <g id="line2d_22">
     <path d="M 40.168125 303.490394 
L 56.168125 303.490394 
" style="fill:none;stroke:#434348;stroke-linecap:square;"/>
    </g>
    <g id="line2d_23"/>
    <g id="text_19">
     <!-- RT_Gad2_2 -->
     <g transform="translate(62.568125 306.290394)scale(0.08 -0.08)">
      <use xlink:href="#DejaVuSans-82"/>
      <use x="69.373047" xlink:href="#DejaVuSans-84"/>
      <use x="130.457031" xlink:href="#DejaVuSans-95"/>
      <use x="180.457031" xlink:href="#DejaVuSans-71"/>
      <use x="257.947266" xlink:href="#DejaVuSans-97"/>
      <use x="319.226562" xlink:href="#DejaVuSans-100"/>
      <use x="382.703125" xlink:href="#DejaVuSans-50"/>
      <use x="446.326172" xlink:href="#DejaVuSans-95"/>
      <use x="496.326172" xlink:href="#DejaVuSans-50"/>
     </g>
    </g>
    <g id="line2d_24">
     <path d="M 40.168125 315.455394 
L 56.168125 315.455394 
" style="fill:none;stroke:#90ed7d;stroke-linecap:square;"/>
    </g>
    <g id="line2d_25"/>
    <g id="text_20">
     <!-- RT_Gad2_3 -->
     <g transform="translate(62.568125 318.255394)scale(0.08 -0.08)">
      <use xlink:href="#DejaVuSans-82"/>
      <use x="69.373047" xlink:href="#DejaVuSans-84"/>
      <use x="130.457031" xlink:href="#DejaVuSans-95"/>
      <use x="180.457031" xlink:href="#DejaVuSans-71"/>
      <use x="257.947266" xlink:href="#DejaVuSans-97"/>
      <use x="319.226562" xlink:href="#DejaVuSans-100"/>
      <use x="382.703125" xlink:href="#DejaVuSans-50"/>
      <use x="446.326172" xlink:href="#DejaVuSans-95"/>
      <use x="496.326172" xlink:href="#DejaVuSans-51"/>
     </g>
    </g>
    <g id="line2d_26">
     <path d="M 254.817813 291.525394 
L 270.817813 291.525394 
" style="fill:none;stroke:#f7a35c;stroke-linecap:square;"/>
    </g>
    <g id="line2d_27"/>
    <g id="text_21">
     <!-- RT_vGluT2_1 -->
     <g transform="translate(277.217813 294.325394)scale(0.08 -0.08)">
      <use xlink:href="#DejaVuSans-82"/>
      <use x="69.373047" xlink:href="#DejaVuSans-84"/>
      <use x="130.457031" xlink:href="#DejaVuSans-95"/>
      <use x="180.457031" xlink:href="#DejaVuSans-118"/>
      <use x="239.636719" xlink:href="#DejaVuSans-71"/>
      <use x="317.126953" xlink:href="#DejaVuSans-108"/>
      <use x="344.910156" xlink:href="#DejaVuSans-117"/>
      <use x="408.289062" xlink:href="#DejaVuSans-84"/>
      <use x="469.373047" xlink:href="#DejaVuSans-50"/>
      <use x="532.996094" xlink:href="#DejaVuSans-95"/>
      <use x="582.996094" xlink:href="#DejaVuSans-49"/>
     </g>
    </g>
    <g id="line2d_28">
     <path d="M 254.817813 303.490394 
L 270.817813 303.490394 
" style="fill:none;stroke:#8085e9;stroke-linecap:square;"/>
    </g>
    <g id="line2d_29"/>
    <g id="text_22">
     <!-- RT_vGluT2_3 -->
     <g transform="translate(277.217813 306.290394)scale(0.08 -0.08)">
      <use xlink:href="#DejaVuSans-82"/>
      <use x="69.373047" xlink:href="#DejaVuSans-84"/>
      <use x="130.457031" xlink:href="#DejaVuSans-95"/>
      <use x="180.457031" xlink:href="#DejaVuSans-118"/>
      <use x="239.636719" xlink:href="#DejaVuSans-71"/>
      <use x="317.126953" xlink:href="#DejaVuSans-108"/>
      <use x="344.910156" xlink:href="#DejaVuSans-117"/>
      <use x="408.289062" xlink:href="#DejaVuSans-84"/>
      <use x="469.373047" xlink:href="#DejaVuSans-50"/>
      <use x="532.996094" xlink:href="#DejaVuSans-95"/>
      <use x="582.996094" xlink:href="#DejaVuSans-51"/>
     </g>
    </g>
    <g id="line2d_30">
     <path d="M 476.4 291.525394 
L 492.4 291.525394 
" style="fill:none;stroke:#f15c80;stroke-linecap:square;"/>
    </g>
    <g id="line2d_31"/>
    <g id="text_23">
     <!-- S1_Gad2_1 -->
     <g transform="translate(498.8 294.325394)scale(0.08 -0.08)">
      <use xlink:href="#DejaVuSans-83"/>
      <use x="63.476562" xlink:href="#DejaVuSans-49"/>
      <use x="127.099609" xlink:href="#DejaVuSans-95"/>
      <use x="177.099609" xlink:href="#DejaVuSans-71"/>
      <use x="254.589844" xlink:href="#DejaVuSans-97"/>
      <use x="315.869141" xlink:href="#DejaVuSans-100"/>
      <use x="379.345703" xlink:href="#DejaVuSans-50"/>
      <use x="442.96875" xlink:href="#DejaVuSans-95"/>
      <use x="492.96875" xlink:href="#DejaVuSans-49"/>
     </g>
    </g>
    <g id="line2d_32">
     <path d="M 476.4 303.490394 
L 492.4 303.490394 
" style="fill:none;stroke:#e4d354;stroke-linecap:square;"/>
    </g>
    <g id="line2d_33"/>
    <g id="text_24">
     <!-- S1_Gad2_2 -->
     <g transform="translate(498.8 306.290394)scale(0.08 -0.08)">
      <use xlink:href="#DejaVuSans-83"/>
      <use x="63.476562" xlink:href="#DejaVuSans-49"/>
      <use x="127.099609" xlink:href="#DejaVuSans-95"/>
      <use x="177.099609" xlink:href="#DejaVuSans-71"/>
      <use x="254.589844" xlink:href="#DejaVuSans-97"/>
      <use x="315.869141" xlink:href="#DejaVuSans-100"/>
      <use x="379.345703" xlink:href="#DejaVuSans-50"/>
      <use x="442.96875" xlink:href="#DejaVuSans-95"/>
      <use x="492.96875" xlink:href="#DejaVuSans-50"/>
     </g>
    </g>
    <g id="line2d_34">
     <path d="M 690.782188 291.525394 
L 706.782188 291.525394 
" style="fill:none;stroke:#2b908f;stroke-linecap:square;"/>
    </g>
    <g id="line2d_35"/>
    <g id="text_25">
     <!-- S1_Gad2_3 -->
     <g transform="translate(713.182188 294.325394)scale(0.08 -0.08)">
      <use xlink:href="#DejaVuSans-83"/>
      <use x="63.476562" xlink:href="#DejaVuSans-49"/>
      <use x="127.099609" xlink:href="#DejaVuSans-95"/>
      <use x="177.099609" xlink:href="#DejaVuSans-71"/>
      <use x="254.589844" xlink:href="#DejaVuSans-97"/>
      <use x="315.869141" xlink:href="#DejaVuSans-100"/>
      <use x="379.345703" xlink:href="#DejaVuSans-50"/>
      <use x="442.96875" xlink:href="#DejaVuSans-95"/>
      <use x="492.96875" xlink:href="#DejaVuSans-51"/>
     </g>
    </g>
    <g id="line2d_36">
     <path d="M 690.782188 303.490394 
L 706.782188 303.490394 
" style="fill:none;stroke:#f45b5b;stroke-linecap:square;"/>
    </g>
    <g id="line2d_37"/>
    <g id="text_26">
     <!-- S1_vGluT2_1 -->
     <g transform="translate(713.182188 306.290394)scale(0.08 -0.08)">
      <use xlink:href="#DejaVuSans-83"/>
      <use x="63.476562" xlink:href="#DejaVuSans-49"/>
      <use x="127.099609" xlink:href="#DejaVuSans-95"/>
      <use x="177.099609" xlink:href="#DejaVuSans-118"/>
      <use x="236.279297" xlink:href="#DejaVuSans-71"/>
      <use x="313.769531" xlink:href="#DejaVuSans-108"/>
      <use x="341.552734" xlink:href="#DejaVuSans-117"/>
      <use x="404.931641" xlink:href="#DejaVuSans-84"/>
      <use x="466.015625" xlink:href="#DejaVuSans-50"/>
      <use x="529.638672" xlink:href="#DejaVuSans-95"/>
      <use x="579.638672" xlink:href="#DejaVuSans-49"/>
     </g>
    </g>
    <g id="line2d_38">
     <path d="M 912.096875 291.525394 
L 928.096875 291.525394 
" style="fill:none;stroke:#91e8e1;stroke-linecap:square;"/>
    </g>
    <g id="line2d_39"/>
    <g id="text_27">
     <!-- S1_vGluT2_2 -->
     <g transform="translate(934.496875 294.325394)scale(0.08 -0.08)">
      <use xlink:href="#DejaVuSans-83"/>
      <use x="63.476562" xlink:href="#DejaVuSans-49"/>
      <use x="127.099609" xlink:href="#DejaVuSans-95"/>
      <use x="177.099609" xlink:href="#DejaVuSans-118"/>
      <use x="236.279297" xlink:href="#DejaVuSans-71"/>
      <use x="313.769531" xlink:href="#DejaVuSans-108"/>
      <use x="341.552734" xlink:href="#DejaVuSans-117"/>
      <use x="404.931641" xlink:href="#DejaVuSans-84"/>
      <use x="466.015625" xlink:href="#DejaVuSans-50"/>
      <use x="529.638672" xlink:href="#DejaVuSans-95"/>
      <use x="579.638672" xlink:href="#DejaVuSans-50"/>
     </g>
    </g>
    <g id="line2d_40">
     <path d="M 912.096875 303.490394 
L 928.096875 303.490394 
" style="fill:none;stroke:#7cb5ec;stroke-linecap:square;"/>
    </g>
    <g id="line2d_41"/>
    <g id="text_28">
     <!-- S1_vGluT2_3 -->
     <g transform="translate(934.496875 306.290394)scale(0.08 -0.08)">
      <use xlink:href="#DejaVuSans-83"/>
      <use x="63.476562" xlink:href="#DejaVuSans-49"/>
      <use x="127.099609" xlink:href="#DejaVuSans-95"/>
      <use x="177.099609" xlink:href="#DejaVuSans-118"/>
      <use x="236.279297" xlink:href="#DejaVuSans-71"/>
      <use x="313.769531" xlink:href="#DejaVuSans-108"/>
      <use x="341.552734" xlink:href="#DejaVuSans-117"/>
      <use x="404.931641" xlink:href="#DejaVuSans-84"/>
      <use x="466.015625" xlink:href="#DejaVuSans-50"/>
      <use x="529.638672" xlink:href="#DejaVuSans-95"/>
      <use x="579.638672" xlink:href="#DejaVuSans-51"/>
     </g>
    </g>
   </g>
  </g>
 </g>
 <defs>
  <clipPath id="pc5726b1e14">
   <rect height="242.5072" width="960.19" x="32.968125" y="31.48286"/>
  </clipPath>
 </defs>
</svg>
