<?xml version="1.0" encoding="utf-8" standalone="no"?>
<!DOCTYPE svg PUBLIC "-//W3C//DTD SVG 1.1//EN"
  "http://www.w3.org/Graphics/SVG/1.1/DTD/svg11.dtd">
<!-- Created with matplotlib (https://matplotlib.org/) -->
<svg height="332.370444pt" version="1.1" viewBox="0 0 1000.408125 332.370444" width="1000.408125pt" xmlns="http://www.w3.org/2000/svg" xmlns:xlink="http://www.w3.org/1999/xlink">
 <metadata>
  <rdf:RDF xmlns:cc="http://creativecommons.org/ns#" xmlns:dc="http://purl.org/dc/elements/1.1/" xmlns:rdf="http://www.w3.org/1999/02/22-rdf-syntax-ns#">
   <cc:Work>
    <dc:type rdf:resource="http://purl.org/dc/dcmitype/StillImage"/>
    <dc:date>2020-09-26T22:33:11.784080</dc:date>
    <dc:format>image/svg+xml</dc:format>
    <dc:creator>
     <cc:Agent>
      <dc:title>Matplotlib v3.3.1, https://matplotlib.org/</dc:title>
     </cc:Agent>
    </dc:creator>
   </cc:Work>
  </rdf:RDF>
 </metadata>
 <defs>
  <style type="text/css">*{stroke-linecap:butt;stroke-linejoin:round;}</style>
 </defs>
 <g id="figure_1">
  <g id="axes_1">
   <g id="patch_1">
    <path d="M 38.058125 275.50206 
L 993.208125 275.50206 
L 993.208125 31.55486 
L 38.058125 31.55486 
z
" style="fill:#ffffff;"/>
   </g>
   <g id="patch_2">
    <path clip-path="url(#p2002031e0f)" d="M 38.058125 78.42394 
L 956.851713 78.42394 
L 956.851713 -428.34837 
L 38.058125 -428.34837 
z
" style="fill:#c3e6c3;"/>
   </g>
   <g id="patch_3">
    <path clip-path="url(#p2002031e0f)" d="M 38.058125 134.731974 
L 956.851713 134.731974 
L 956.851713 78.42394 
L 38.058125 78.42394 
z
" style="fill:#e6dcc3;"/>
   </g>
   <g id="patch_4">
    <path clip-path="url(#p2002031e0f)" d="M 38.058125 275.50206 
L 956.851713 275.50206 
L 956.851713 134.731974 
L 38.058125 134.731974 
z
" style="fill:#e6c3c3;"/>
   </g>
   <g id="matplotlib.axis_1">
    <g id="xtick_1">
     <g id="text_1">
      <!-- 0 -->
      <g transform="translate(71.869537 288.58081)scale(0.08 -0.08)">
       <defs>
        <path d="M 31.78125 66.40625 
Q 24.171875 66.40625 20.328125 58.90625 
Q 16.5 51.421875 16.5 36.375 
Q 16.5 21.390625 20.328125 13.890625 
Q 24.171875 6.390625 31.78125 6.390625 
Q 39.453125 6.390625 43.28125 13.890625 
Q 47.125 21.390625 47.125 36.375 
Q 47.125 51.421875 43.28125 58.90625 
Q 39.453125 66.40625 31.78125 66.40625 
z
M 31.78125 74.21875 
Q 44.046875 74.21875 50.515625 64.515625 
Q 56.984375 54.828125 56.984375 36.375 
Q 56.984375 17.96875 50.515625 8.265625 
Q 44.046875 -1.421875 31.78125 -1.421875 
Q 19.53125 -1.421875 13.0625 8.265625 
Q 6.59375 17.96875 6.59375 36.375 
Q 6.59375 54.828125 13.0625 64.515625 
Q 19.53125 74.21875 31.78125 74.21875 
z
" id="DejaVuSans-48"/>
       </defs>
       <use xlink:href="#DejaVuSans-48"/>
      </g>
     </g>
    </g>
    <g id="xtick_2">
     <g id="text_2">
      <!-- 20 -->
      <g transform="translate(210.514485 288.58081)scale(0.08 -0.08)">
       <defs>
        <path d="M 19.1875 8.296875 
L 53.609375 8.296875 
L 53.609375 0 
L 7.328125 0 
L 7.328125 8.296875 
Q 12.9375 14.109375 22.625 23.890625 
Q 32.328125 33.6875 34.8125 36.53125 
Q 39.546875 41.84375 41.421875 45.53125 
Q 43.3125 49.21875 43.3125 52.78125 
Q 43.3125 58.59375 39.234375 62.25 
Q 35.15625 65.921875 28.609375 65.921875 
Q 23.96875 65.921875 18.8125 64.3125 
Q 13.671875 62.703125 7.8125 59.421875 
L 7.8125 69.390625 
Q 13.765625 71.78125 18.9375 73 
Q 24.125 74.21875 28.421875 74.21875 
Q 39.75 74.21875 46.484375 68.546875 
Q 53.21875 62.890625 53.21875 53.421875 
Q 53.21875 48.921875 51.53125 44.890625 
Q 49.859375 40.875 45.40625 35.40625 
Q 44.1875 33.984375 37.640625 27.21875 
Q 31.109375 20.453125 19.1875 8.296875 
z
" id="DejaVuSans-50"/>
       </defs>
       <use xlink:href="#DejaVuSans-50"/>
       <use x="63.623047" xlink:href="#DejaVuSans-48"/>
      </g>
     </g>
    </g>
    <g id="xtick_3">
     <g id="text_3">
      <!-- 40 -->
      <g transform="translate(351.704433 288.58081)scale(0.08 -0.08)">
       <defs>
        <path d="M 37.796875 64.3125 
L 12.890625 25.390625 
L 37.796875 25.390625 
z
M 35.203125 72.90625 
L 47.609375 72.90625 
L 47.609375 25.390625 
L 58.015625 25.390625 
L 58.015625 17.1875 
L 47.609375 17.1875 
L 47.609375 0 
L 37.796875 0 
L 37.796875 17.1875 
L 4.890625 17.1875 
L 4.890625 26.703125 
z
" id="DejaVuSans-52"/>
       </defs>
       <use xlink:href="#DejaVuSans-52"/>
       <use x="63.623047" xlink:href="#DejaVuSans-48"/>
      </g>
     </g>
    </g>
    <g id="xtick_4">
     <g id="text_4">
      <!-- 60 -->
      <g transform="translate(492.894381 288.58081)scale(0.08 -0.08)">
       <defs>
        <path d="M 33.015625 40.375 
Q 26.375 40.375 22.484375 35.828125 
Q 18.609375 31.296875 18.609375 23.390625 
Q 18.609375 15.53125 22.484375 10.953125 
Q 26.375 6.390625 33.015625 6.390625 
Q 39.65625 6.390625 43.53125 10.953125 
Q 47.40625 15.53125 47.40625 23.390625 
Q 47.40625 31.296875 43.53125 35.828125 
Q 39.65625 40.375 33.015625 40.375 
z
M 52.59375 71.296875 
L 52.59375 62.3125 
Q 48.875 64.0625 45.09375 64.984375 
Q 41.3125 65.921875 37.59375 65.921875 
Q 27.828125 65.921875 22.671875 59.328125 
Q 17.53125 52.734375 16.796875 39.40625 
Q 19.671875 43.65625 24.015625 45.921875 
Q 28.375 48.1875 33.59375 48.1875 
Q 44.578125 48.1875 50.953125 41.515625 
Q 57.328125 34.859375 57.328125 23.390625 
Q 57.328125 12.15625 50.6875 5.359375 
Q 44.046875 -1.421875 33.015625 -1.421875 
Q 20.359375 -1.421875 13.671875 8.265625 
Q 6.984375 17.96875 6.984375 36.375 
Q 6.984375 53.65625 15.1875 63.9375 
Q 23.390625 74.21875 37.203125 74.21875 
Q 40.921875 74.21875 44.703125 73.484375 
Q 48.484375 72.75 52.59375 71.296875 
z
" id="DejaVuSans-54"/>
       </defs>
       <use xlink:href="#DejaVuSans-54"/>
       <use x="63.623047" xlink:href="#DejaVuSans-48"/>
      </g>
     </g>
    </g>
    <g id="xtick_5">
     <g id="text_5">
      <!-- 80 -->
      <g transform="translate(634.08433 288.58081)scale(0.08 -0.08)">
       <defs>
        <path d="M 31.78125 34.625 
Q 24.75 34.625 20.71875 30.859375 
Q 16.703125 27.09375 16.703125 20.515625 
Q 16.703125 13.921875 20.71875 10.15625 
Q 24.75 6.390625 31.78125 6.390625 
Q 38.8125 6.390625 42.859375 10.171875 
Q 46.921875 13.96875 46.921875 20.515625 
Q 46.921875 27.09375 42.890625 30.859375 
Q 38.875 34.625 31.78125 34.625 
z
M 21.921875 38.8125 
Q 15.578125 40.375 12.03125 44.71875 
Q 8.5 49.078125 8.5 55.328125 
Q 8.5 64.0625 14.71875 69.140625 
Q 20.953125 74.21875 31.78125 74.21875 
Q 42.671875 74.21875 48.875 69.140625 
Q 55.078125 64.0625 55.078125 55.328125 
Q 55.078125 49.078125 51.53125 44.71875 
Q 48 40.375 41.703125 38.8125 
Q 48.828125 37.15625 52.796875 32.3125 
Q 56.78125 27.484375 56.78125 20.515625 
Q 56.78125 9.90625 50.3125 4.234375 
Q 43.84375 -1.421875 31.78125 -1.421875 
Q 19.734375 -1.421875 13.25 4.234375 
Q 6.78125 9.90625 6.78125 20.515625 
Q 6.78125 27.484375 10.78125 32.3125 
Q 14.796875 37.15625 21.921875 38.8125 
z
M 18.3125 54.390625 
Q 18.3125 48.734375 21.84375 45.5625 
Q 25.390625 42.390625 31.78125 42.390625 
Q 38.140625 42.390625 41.71875 45.5625 
Q 45.3125 48.734375 45.3125 54.390625 
Q 45.3125 60.0625 41.71875 63.234375 
Q 38.140625 66.40625 31.78125 66.40625 
Q 25.390625 66.40625 21.84375 63.234375 
Q 18.3125 60.0625 18.3125 54.390625 
z
" id="DejaVuSans-56"/>
       </defs>
       <use xlink:href="#DejaVuSans-56"/>
       <use x="63.623047" xlink:href="#DejaVuSans-48"/>
      </g>
     </g>
    </g>
    <g id="xtick_6">
     <g id="text_6">
      <!-- 100 -->
      <g transform="translate(772.729278 288.58081)scale(0.08 -0.08)">
       <defs>
        <path d="M 12.40625 8.296875 
L 28.515625 8.296875 
L 28.515625 63.921875 
L 10.984375 60.40625 
L 10.984375 69.390625 
L 28.421875 72.90625 
L 38.28125 72.90625 
L 38.28125 8.296875 
L 54.390625 8.296875 
L 54.390625 0 
L 12.40625 0 
z
" id="DejaVuSans-49"/>
       </defs>
       <use xlink:href="#DejaVuSans-49"/>
       <use x="63.623047" xlink:href="#DejaVuSans-48"/>
       <use x="127.246094" xlink:href="#DejaVuSans-48"/>
      </g>
     </g>
    </g>
    <g id="xtick_7">
     <g id="text_7">
      <!-- 120 -->
      <g transform="translate(913.919226 288.58081)scale(0.08 -0.08)">
       <use xlink:href="#DejaVuSans-49"/>
       <use x="63.623047" xlink:href="#DejaVuSans-50"/>
       <use x="127.246094" xlink:href="#DejaVuSans-48"/>
      </g>
     </g>
    </g>
    <g id="text_8">
     <!-- Position (bp) -->
     <g transform="translate(484.33 301.842998)scale(0.1 -0.1)">
      <defs>
       <path d="M 19.671875 64.796875 
L 19.671875 37.40625 
L 32.078125 37.40625 
Q 38.96875 37.40625 42.71875 40.96875 
Q 46.484375 44.53125 46.484375 51.125 
Q 46.484375 57.671875 42.71875 61.234375 
Q 38.96875 64.796875 32.078125 64.796875 
z
M 9.8125 72.90625 
L 32.078125 72.90625 
Q 44.34375 72.90625 50.609375 67.359375 
Q 56.890625 61.8125 56.890625 51.125 
Q 56.890625 40.328125 50.609375 34.8125 
Q 44.34375 29.296875 32.078125 29.296875 
L 19.671875 29.296875 
L 19.671875 0 
L 9.8125 0 
z
" id="DejaVuSans-80"/>
       <path d="M 30.609375 48.390625 
Q 23.390625 48.390625 19.1875 42.75 
Q 14.984375 37.109375 14.984375 27.296875 
Q 14.984375 17.484375 19.15625 11.84375 
Q 23.34375 6.203125 30.609375 6.203125 
Q 37.796875 6.203125 41.984375 11.859375 
Q 46.1875 17.53125 46.1875 27.296875 
Q 46.1875 37.015625 41.984375 42.703125 
Q 37.796875 48.390625 30.609375 48.390625 
z
M 30.609375 56 
Q 42.328125 56 49.015625 48.375 
Q 55.71875 40.765625 55.71875 27.296875 
Q 55.71875 13.875 49.015625 6.21875 
Q 42.328125 -1.421875 30.609375 -1.421875 
Q 18.84375 -1.421875 12.171875 6.21875 
Q 5.515625 13.875 5.515625 27.296875 
Q 5.515625 40.765625 12.171875 48.375 
Q 18.84375 56 30.609375 56 
z
" id="DejaVuSans-111"/>
       <path d="M 44.28125 53.078125 
L 44.28125 44.578125 
Q 40.484375 46.53125 36.375 47.5 
Q 32.28125 48.484375 27.875 48.484375 
Q 21.1875 48.484375 17.84375 46.4375 
Q 14.5 44.390625 14.5 40.28125 
Q 14.5 37.15625 16.890625 35.375 
Q 19.28125 33.59375 26.515625 31.984375 
L 29.59375 31.296875 
Q 39.15625 29.25 43.1875 25.515625 
Q 47.21875 21.78125 47.21875 15.09375 
Q 47.21875 7.46875 41.1875 3.015625 
Q 35.15625 -1.421875 24.609375 -1.421875 
Q 20.21875 -1.421875 15.453125 -0.5625 
Q 10.6875 0.296875 5.421875 2 
L 5.421875 11.28125 
Q 10.40625 8.6875 15.234375 7.390625 
Q 20.0625 6.109375 24.8125 6.109375 
Q 31.15625 6.109375 34.5625 8.28125 
Q 37.984375 10.453125 37.984375 14.40625 
Q 37.984375 18.0625 35.515625 20.015625 
Q 33.0625 21.96875 24.703125 23.78125 
L 21.578125 24.515625 
Q 13.234375 26.265625 9.515625 29.90625 
Q 5.8125 33.546875 5.8125 39.890625 
Q 5.8125 47.609375 11.28125 51.796875 
Q 16.75 56 26.8125 56 
Q 31.78125 56 36.171875 55.265625 
Q 40.578125 54.546875 44.28125 53.078125 
z
" id="DejaVuSans-115"/>
       <path d="M 9.421875 54.6875 
L 18.40625 54.6875 
L 18.40625 0 
L 9.421875 0 
z
M 9.421875 75.984375 
L 18.40625 75.984375 
L 18.40625 64.59375 
L 9.421875 64.59375 
z
" id="DejaVuSans-105"/>
       <path d="M 18.3125 70.21875 
L 18.3125 54.6875 
L 36.8125 54.6875 
L 36.8125 47.703125 
L 18.3125 47.703125 
L 18.3125 18.015625 
Q 18.3125 11.328125 20.140625 9.421875 
Q 21.96875 7.515625 27.59375 7.515625 
L 36.8125 7.515625 
L 36.8125 0 
L 27.59375 0 
Q 17.1875 0 13.234375 3.875 
Q 9.28125 7.765625 9.28125 18.015625 
L 9.28125 47.703125 
L 2.6875 47.703125 
L 2.6875 54.6875 
L 9.28125 54.6875 
L 9.28125 70.21875 
z
" id="DejaVuSans-116"/>
       <path d="M 54.890625 33.015625 
L 54.890625 0 
L 45.90625 0 
L 45.90625 32.71875 
Q 45.90625 40.484375 42.875 44.328125 
Q 39.84375 48.1875 33.796875 48.1875 
Q 26.515625 48.1875 22.3125 43.546875 
Q 18.109375 38.921875 18.109375 30.90625 
L 18.109375 0 
L 9.078125 0 
L 9.078125 54.6875 
L 18.109375 54.6875 
L 18.109375 46.1875 
Q 21.34375 51.125 25.703125 53.5625 
Q 30.078125 56 35.796875 56 
Q 45.21875 56 50.046875 50.171875 
Q 54.890625 44.34375 54.890625 33.015625 
z
" id="DejaVuSans-110"/>
       <path id="DejaVuSans-32"/>
       <path d="M 31 75.875 
Q 24.46875 64.65625 21.28125 53.65625 
Q 18.109375 42.671875 18.109375 31.390625 
Q 18.109375 20.125 21.3125 9.0625 
Q 24.515625 -2 31 -13.1875 
L 23.1875 -13.1875 
Q 15.875 -1.703125 12.234375 9.375 
Q 8.59375 20.453125 8.59375 31.390625 
Q 8.59375 42.28125 12.203125 53.3125 
Q 15.828125 64.359375 23.1875 75.875 
z
" id="DejaVuSans-40"/>
       <path d="M 48.6875 27.296875 
Q 48.6875 37.203125 44.609375 42.84375 
Q 40.53125 48.484375 33.40625 48.484375 
Q 26.265625 48.484375 22.1875 42.84375 
Q 18.109375 37.203125 18.109375 27.296875 
Q 18.109375 17.390625 22.1875 11.75 
Q 26.265625 6.109375 33.40625 6.109375 
Q 40.53125 6.109375 44.609375 11.75 
Q 48.6875 17.390625 48.6875 27.296875 
z
M 18.109375 46.390625 
Q 20.953125 51.265625 25.265625 53.625 
Q 29.59375 56 35.59375 56 
Q 45.5625 56 51.78125 48.09375 
Q 58.015625 40.1875 58.015625 27.296875 
Q 58.015625 14.40625 51.78125 6.484375 
Q 45.5625 -1.421875 35.59375 -1.421875 
Q 29.59375 -1.421875 25.265625 0.953125 
Q 20.953125 3.328125 18.109375 8.203125 
L 18.109375 0 
L 9.078125 0 
L 9.078125 75.984375 
L 18.109375 75.984375 
z
" id="DejaVuSans-98"/>
       <path d="M 18.109375 8.203125 
L 18.109375 -20.796875 
L 9.078125 -20.796875 
L 9.078125 54.6875 
L 18.109375 54.6875 
L 18.109375 46.390625 
Q 20.953125 51.265625 25.265625 53.625 
Q 29.59375 56 35.59375 56 
Q 45.5625 56 51.78125 48.09375 
Q 58.015625 40.1875 58.015625 27.296875 
Q 58.015625 14.40625 51.78125 6.484375 
Q 45.5625 -1.421875 35.59375 -1.421875 
Q 29.59375 -1.421875 25.265625 0.953125 
Q 20.953125 3.328125 18.109375 8.203125 
z
M 48.6875 27.296875 
Q 48.6875 37.203125 44.609375 42.84375 
Q 40.53125 48.484375 33.40625 48.484375 
Q 26.265625 48.484375 22.1875 42.84375 
Q 18.109375 37.203125 18.109375 27.296875 
Q 18.109375 17.390625 22.1875 11.75 
Q 26.265625 6.109375 33.40625 6.109375 
Q 40.53125 6.109375 44.609375 11.75 
Q 48.6875 17.390625 48.6875 27.296875 
z
" id="DejaVuSans-112"/>
       <path d="M 8.015625 75.875 
L 15.828125 75.875 
Q 23.140625 64.359375 26.78125 53.3125 
Q 30.421875 42.28125 30.421875 31.390625 
Q 30.421875 20.453125 26.78125 9.375 
Q 23.140625 -1.703125 15.828125 -13.1875 
L 8.015625 -13.1875 
Q 14.5 -2 17.703125 9.0625 
Q 20.90625 20.125 20.90625 31.390625 
Q 20.90625 42.671875 17.703125 53.65625 
Q 14.5 64.65625 8.015625 75.875 
z
" id="DejaVuSans-41"/>
      </defs>
      <use xlink:href="#DejaVuSans-80"/>
      <use x="56.677734" xlink:href="#DejaVuSans-111"/>
      <use x="117.859375" xlink:href="#DejaVuSans-115"/>
      <use x="169.958984" xlink:href="#DejaVuSans-105"/>
      <use x="197.742188" xlink:href="#DejaVuSans-116"/>
      <use x="236.951172" xlink:href="#DejaVuSans-105"/>
      <use x="264.734375" xlink:href="#DejaVuSans-111"/>
      <use x="325.916016" xlink:href="#DejaVuSans-110"/>
      <use x="389.294922" xlink:href="#DejaVuSans-32"/>
      <use x="421.082031" xlink:href="#DejaVuSans-40"/>
      <use x="460.095703" xlink:href="#DejaVuSans-98"/>
      <use x="523.572266" xlink:href="#DejaVuSans-112"/>
      <use x="587.048828" xlink:href="#DejaVuSans-41"/>
     </g>
    </g>
   </g>
   <g id="matplotlib.axis_2">
    <g id="ytick_1">
     <g id="line2d_1">
      <path clip-path="url(#p2002031e0f)" d="M 38.058125 275.50206 
L 993.208125 275.50206 
" style="fill:none;stroke:#dedede;stroke-linecap:square;"/>
     </g>
     <g id="text_9">
      <!-- 0 -->
      <g transform="translate(25.968125 278.541435)scale(0.08 -0.08)">
       <use xlink:href="#DejaVuSans-48"/>
      </g>
     </g>
    </g>
    <g id="ytick_2">
     <g id="line2d_2">
      <path clip-path="url(#p2002031e0f)" d="M 38.058125 240.309538 
L 993.208125 240.309538 
" style="fill:none;stroke:#dedede;stroke-linecap:square;"/>
     </g>
     <g id="text_10">
      <!-- 5 -->
      <g transform="translate(25.968125 243.348913)scale(0.08 -0.08)">
       <defs>
        <path d="M 10.796875 72.90625 
L 49.515625 72.90625 
L 49.515625 64.59375 
L 19.828125 64.59375 
L 19.828125 46.734375 
Q 21.96875 47.46875 24.109375 47.828125 
Q 26.265625 48.1875 28.421875 48.1875 
Q 40.625 48.1875 47.75 41.5 
Q 54.890625 34.8125 54.890625 23.390625 
Q 54.890625 11.625 47.5625 5.09375 
Q 40.234375 -1.421875 26.90625 -1.421875 
Q 22.3125 -1.421875 17.546875 -0.640625 
Q 12.796875 0.140625 7.71875 1.703125 
L 7.71875 11.625 
Q 12.109375 9.234375 16.796875 8.0625 
Q 21.484375 6.890625 26.703125 6.890625 
Q 35.15625 6.890625 40.078125 11.328125 
Q 45.015625 15.765625 45.015625 23.390625 
Q 45.015625 31 40.078125 35.4375 
Q 35.15625 39.890625 26.703125 39.890625 
Q 22.75 39.890625 18.8125 39.015625 
Q 14.890625 38.140625 10.796875 36.28125 
z
" id="DejaVuSans-53"/>
       </defs>
       <use xlink:href="#DejaVuSans-53"/>
      </g>
     </g>
    </g>
    <g id="ytick_3">
     <g id="line2d_3">
      <path clip-path="url(#p2002031e0f)" d="M 38.058125 205.117017 
L 993.208125 205.117017 
" style="fill:none;stroke:#dedede;stroke-linecap:square;"/>
     </g>
     <g id="text_11">
      <!-- 10 -->
      <g transform="translate(20.878125 208.156392)scale(0.08 -0.08)">
       <use xlink:href="#DejaVuSans-49"/>
       <use x="63.623047" xlink:href="#DejaVuSans-48"/>
      </g>
     </g>
    </g>
    <g id="ytick_4">
     <g id="line2d_4">
      <path clip-path="url(#p2002031e0f)" d="M 38.058125 169.924495 
L 993.208125 169.924495 
" style="fill:none;stroke:#dedede;stroke-linecap:square;"/>
     </g>
     <g id="text_12">
      <!-- 15 -->
      <g transform="translate(20.878125 172.96387)scale(0.08 -0.08)">
       <use xlink:href="#DejaVuSans-49"/>
       <use x="63.623047" xlink:href="#DejaVuSans-53"/>
      </g>
     </g>
    </g>
    <g id="ytick_5">
     <g id="line2d_5">
      <path clip-path="url(#p2002031e0f)" d="M 38.058125 134.731974 
L 993.208125 134.731974 
" style="fill:none;stroke:#dedede;stroke-linecap:square;"/>
     </g>
     <g id="text_13">
      <!-- 20 -->
      <g transform="translate(20.878125 137.771349)scale(0.08 -0.08)">
       <use xlink:href="#DejaVuSans-50"/>
       <use x="63.623047" xlink:href="#DejaVuSans-48"/>
      </g>
     </g>
    </g>
    <g id="ytick_6">
     <g id="line2d_6">
      <path clip-path="url(#p2002031e0f)" d="M 38.058125 99.539452 
L 993.208125 99.539452 
" style="fill:none;stroke:#dedede;stroke-linecap:square;"/>
     </g>
     <g id="text_14">
      <!-- 25 -->
      <g transform="translate(20.878125 102.578827)scale(0.08 -0.08)">
       <use xlink:href="#DejaVuSans-50"/>
       <use x="63.623047" xlink:href="#DejaVuSans-53"/>
      </g>
     </g>
    </g>
    <g id="ytick_7">
     <g id="line2d_7">
      <path clip-path="url(#p2002031e0f)" d="M 38.058125 64.346931 
L 993.208125 64.346931 
" style="fill:none;stroke:#dedede;stroke-linecap:square;"/>
     </g>
     <g id="text_15">
      <!-- 30 -->
      <g transform="translate(20.878125 67.386306)scale(0.08 -0.08)">
       <defs>
        <path d="M 40.578125 39.3125 
Q 47.65625 37.796875 51.625 33 
Q 55.609375 28.21875 55.609375 21.1875 
Q 55.609375 10.40625 48.1875 4.484375 
Q 40.765625 -1.421875 27.09375 -1.421875 
Q 22.515625 -1.421875 17.65625 -0.515625 
Q 12.796875 0.390625 7.625 2.203125 
L 7.625 11.71875 
Q 11.71875 9.328125 16.59375 8.109375 
Q 21.484375 6.890625 26.8125 6.890625 
Q 36.078125 6.890625 40.9375 10.546875 
Q 45.796875 14.203125 45.796875 21.1875 
Q 45.796875 27.640625 41.28125 31.265625 
Q 36.765625 34.90625 28.71875 34.90625 
L 20.21875 34.90625 
L 20.21875 43.015625 
L 29.109375 43.015625 
Q 36.375 43.015625 40.234375 45.921875 
Q 44.09375 48.828125 44.09375 54.296875 
Q 44.09375 59.90625 40.109375 62.90625 
Q 36.140625 65.921875 28.71875 65.921875 
Q 24.65625 65.921875 20.015625 65.03125 
Q 15.375 64.15625 9.8125 62.3125 
L 9.8125 71.09375 
Q 15.4375 72.65625 20.34375 73.4375 
Q 25.25 74.21875 29.59375 74.21875 
Q 40.828125 74.21875 47.359375 69.109375 
Q 53.90625 64.015625 53.90625 55.328125 
Q 53.90625 49.265625 50.4375 45.09375 
Q 46.96875 40.921875 40.578125 39.3125 
z
" id="DejaVuSans-51"/>
       </defs>
       <use xlink:href="#DejaVuSans-51"/>
       <use x="63.623047" xlink:href="#DejaVuSans-48"/>
      </g>
     </g>
    </g>
    <g id="text_16">
     <!-- Phred Score -->
     <g transform="translate(14.798438 183.49721)rotate(-90)scale(0.1 -0.1)">
      <defs>
       <path d="M 54.890625 33.015625 
L 54.890625 0 
L 45.90625 0 
L 45.90625 32.71875 
Q 45.90625 40.484375 42.875 44.328125 
Q 39.84375 48.1875 33.796875 48.1875 
Q 26.515625 48.1875 22.3125 43.546875 
Q 18.109375 38.921875 18.109375 30.90625 
L 18.109375 0 
L 9.078125 0 
L 9.078125 75.984375 
L 18.109375 75.984375 
L 18.109375 46.1875 
Q 21.34375 51.125 25.703125 53.5625 
Q 30.078125 56 35.796875 56 
Q 45.21875 56 50.046875 50.171875 
Q 54.890625 44.34375 54.890625 33.015625 
z
" id="DejaVuSans-104"/>
       <path d="M 41.109375 46.296875 
Q 39.59375 47.171875 37.8125 47.578125 
Q 36.03125 48 33.890625 48 
Q 26.265625 48 22.1875 43.046875 
Q 18.109375 38.09375 18.109375 28.8125 
L 18.109375 0 
L 9.078125 0 
L 9.078125 54.6875 
L 18.109375 54.6875 
L 18.109375 46.1875 
Q 20.953125 51.171875 25.484375 53.578125 
Q 30.03125 56 36.53125 56 
Q 37.453125 56 38.578125 55.875 
Q 39.703125 55.765625 41.0625 55.515625 
z
" id="DejaVuSans-114"/>
       <path d="M 56.203125 29.59375 
L 56.203125 25.203125 
L 14.890625 25.203125 
Q 15.484375 15.921875 20.484375 11.0625 
Q 25.484375 6.203125 34.421875 6.203125 
Q 39.59375 6.203125 44.453125 7.46875 
Q 49.3125 8.734375 54.109375 11.28125 
L 54.109375 2.78125 
Q 49.265625 0.734375 44.1875 -0.34375 
Q 39.109375 -1.421875 33.890625 -1.421875 
Q 20.796875 -1.421875 13.15625 6.1875 
Q 5.515625 13.8125 5.515625 26.8125 
Q 5.515625 40.234375 12.765625 48.109375 
Q 20.015625 56 32.328125 56 
Q 43.359375 56 49.78125 48.890625 
Q 56.203125 41.796875 56.203125 29.59375 
z
M 47.21875 32.234375 
Q 47.125 39.59375 43.09375 43.984375 
Q 39.0625 48.390625 32.421875 48.390625 
Q 24.90625 48.390625 20.390625 44.140625 
Q 15.875 39.890625 15.1875 32.171875 
z
" id="DejaVuSans-101"/>
       <path d="M 45.40625 46.390625 
L 45.40625 75.984375 
L 54.390625 75.984375 
L 54.390625 0 
L 45.40625 0 
L 45.40625 8.203125 
Q 42.578125 3.328125 38.25 0.953125 
Q 33.9375 -1.421875 27.875 -1.421875 
Q 17.96875 -1.421875 11.734375 6.484375 
Q 5.515625 14.40625 5.515625 27.296875 
Q 5.515625 40.1875 11.734375 48.09375 
Q 17.96875 56 27.875 56 
Q 33.9375 56 38.25 53.625 
Q 42.578125 51.265625 45.40625 46.390625 
z
M 14.796875 27.296875 
Q 14.796875 17.390625 18.875 11.75 
Q 22.953125 6.109375 30.078125 6.109375 
Q 37.203125 6.109375 41.296875 11.75 
Q 45.40625 17.390625 45.40625 27.296875 
Q 45.40625 37.203125 41.296875 42.84375 
Q 37.203125 48.484375 30.078125 48.484375 
Q 22.953125 48.484375 18.875 42.84375 
Q 14.796875 37.203125 14.796875 27.296875 
z
" id="DejaVuSans-100"/>
       <path d="M 53.515625 70.515625 
L 53.515625 60.890625 
Q 47.90625 63.578125 42.921875 64.890625 
Q 37.9375 66.21875 33.296875 66.21875 
Q 25.25 66.21875 20.875 63.09375 
Q 16.5 59.96875 16.5 54.203125 
Q 16.5 49.359375 19.40625 46.890625 
Q 22.3125 44.4375 30.421875 42.921875 
L 36.375 41.703125 
Q 47.40625 39.59375 52.65625 34.296875 
Q 57.90625 29 57.90625 20.125 
Q 57.90625 9.515625 50.796875 4.046875 
Q 43.703125 -1.421875 29.984375 -1.421875 
Q 24.8125 -1.421875 18.96875 -0.25 
Q 13.140625 0.921875 6.890625 3.21875 
L 6.890625 13.375 
Q 12.890625 10.015625 18.65625 8.296875 
Q 24.421875 6.59375 29.984375 6.59375 
Q 38.421875 6.59375 43.015625 9.90625 
Q 47.609375 13.234375 47.609375 19.390625 
Q 47.609375 24.75 44.3125 27.78125 
Q 41.015625 30.8125 33.5 32.328125 
L 27.484375 33.5 
Q 16.453125 35.6875 11.515625 40.375 
Q 6.59375 45.0625 6.59375 53.421875 
Q 6.59375 63.09375 13.40625 68.65625 
Q 20.21875 74.21875 32.171875 74.21875 
Q 37.3125 74.21875 42.625 73.28125 
Q 47.953125 72.359375 53.515625 70.515625 
z
" id="DejaVuSans-83"/>
       <path d="M 48.78125 52.59375 
L 48.78125 44.1875 
Q 44.96875 46.296875 41.140625 47.34375 
Q 37.3125 48.390625 33.40625 48.390625 
Q 24.65625 48.390625 19.8125 42.84375 
Q 14.984375 37.3125 14.984375 27.296875 
Q 14.984375 17.28125 19.8125 11.734375 
Q 24.65625 6.203125 33.40625 6.203125 
Q 37.3125 6.203125 41.140625 7.25 
Q 44.96875 8.296875 48.78125 10.40625 
L 48.78125 2.09375 
Q 45.015625 0.34375 40.984375 -0.53125 
Q 36.96875 -1.421875 32.421875 -1.421875 
Q 20.0625 -1.421875 12.78125 6.34375 
Q 5.515625 14.109375 5.515625 27.296875 
Q 5.515625 40.671875 12.859375 48.328125 
Q 20.21875 56 33.015625 56 
Q 37.15625 56 41.109375 55.140625 
Q 45.0625 54.296875 48.78125 52.59375 
z
" id="DejaVuSans-99"/>
      </defs>
      <use xlink:href="#DejaVuSans-80"/>
      <use x="60.302734" xlink:href="#DejaVuSans-104"/>
      <use x="123.681641" xlink:href="#DejaVuSans-114"/>
      <use x="162.544922" xlink:href="#DejaVuSans-101"/>
      <use x="224.068359" xlink:href="#DejaVuSans-100"/>
      <use x="287.544922" xlink:href="#DejaVuSans-32"/>
      <use x="319.332031" xlink:href="#DejaVuSans-83"/>
      <use x="382.808594" xlink:href="#DejaVuSans-99"/>
      <use x="437.789062" xlink:href="#DejaVuSans-111"/>
      <use x="498.970703" xlink:href="#DejaVuSans-114"/>
      <use x="537.833984" xlink:href="#DejaVuSans-101"/>
     </g>
    </g>
   </g>
   <g id="line2d_8">
    <path clip-path="url(#p2002031e0f)" d="M 81.474034 36.200784 
L 88.533532 36.408246 
L 95.593029 37.149463 
L 102.652526 37.39598 
L 109.712024 37.856311 
L 116.771521 38.149376 
L 123.831019 38.808154 
L 130.890516 39.589388 
L 137.950013 40.83469 
L 145.009511 43.365759 
L 159.128506 46.985567 
L 173.2475 49.739104 
L 187.366495 52.188948 
L 201.48549 53.815734 
L 215.604485 55.560024 
L 229.72348 57.180623 
L 243.842475 58.40118 
L 257.961469 58.966027 
L 272.080464 60.511719 
L 286.199459 62.162718 
L 300.318454 63.579348 
L 314.437449 64.411679 
L 328.556444 64.950131 
L 342.675438 65.8375 
L 356.794433 66.657846 
L 370.913428 68.111046 
L 385.032423 70.134427 
L 399.151418 72.197773 
L 413.270413 73.258352 
L 427.389407 74.025523 
L 441.508402 75.021864 
L 455.627397 76.658511 
L 469.746392 78.686815 
L 483.865387 80.688946 
L 497.984381 82.000647 
L 512.103376 82.575273 
L 526.222371 82.718917 
L 540.341366 84.118252 
L 554.460361 86.860556 
L 568.579356 89.758241 
L 582.69835 92.159402 
L 596.817345 93.11369 
L 610.93634 94.092332 
L 625.055335 95.267917 
L 639.17433 97.110106 
L 653.293325 99.835991 
L 667.412319 103.87455 
L 681.531314 107.330278 
L 695.650309 110.615682 
L 709.769304 112.047647 
L 723.888299 112.757745 
L 738.007294 113.070003 
L 752.126288 110.905 
L 766.245283 109.709542 
L 780.364278 108.869869 
L 794.483273 108.503672 
L 808.602268 108.183403 
L 822.721262 108.091994 
L 836.840257 107.437856 
L 850.959252 106.623985 
L 865.078247 104.978146 
L 879.197242 103.280391 
L 893.316237 100.500985 
L 907.435231 98.990296 
L 921.554226 96.521418 
L 935.673221 90.288646 
L 949.792216 67.332437 
" style="fill:none;stroke:#f0ad4e;stroke-linecap:square;"/>
   </g>
   <g id="line2d_9">
    <path clip-path="url(#p2002031e0f)" d="M 81.474034 35.608321 
L 88.533532 35.669284 
L 95.593029 36.245214 
L 102.652526 36.472337 
L 109.712024 36.8344 
L 116.771521 37.12582 
L 123.831019 37.955485 
L 130.890516 38.862283 
L 137.950013 40.429951 
L 145.009511 43.280053 
L 159.128506 47.774405 
L 173.2475 51.743309 
L 187.366495 55.455146 
L 201.48549 58.384735 
L 215.604485 61.37903 
L 229.72348 64.664368 
L 243.842475 67.508658 
L 257.961469 69.493394 
L 272.080464 72.085586 
L 286.199459 74.095587 
L 300.318454 75.645736 
L 314.437449 76.301541 
L 328.556444 76.354024 
L 342.675438 76.175908 
L 356.794433 76.046209 
L 370.913428 77.21777 
L 385.032423 78.998404 
L 399.151418 81.055036 
L 413.270413 81.835291 
L 427.389407 81.937188 
L 441.508402 82.38658 
L 455.627397 83.407903 
L 469.746392 84.868479 
L 483.865387 86.438908 
L 497.984381 87.149058 
L 512.103376 87.412227 
L 526.222371 87.246436 
L 540.341366 88.694881 
L 554.460361 91.08642 
L 568.579356 93.976584 
L 582.69835 95.661766 
L 596.817345 95.998376 
L 610.93634 96.410206 
L 625.055335 97.062785 
L 639.17433 98.681218 
L 653.293325 101.5047 
L 667.412319 105.406928 
L 681.531314 108.998761 
L 695.650309 111.92407 
L 709.769304 113.227683 
L 723.888299 113.647995 
L 738.007294 114.04357 
L 752.126288 112.338592 
L 766.245283 111.636278 
L 780.364278 111.584457 
L 794.483273 111.229881 
L 808.602268 110.122412 
L 822.721262 108.814274 
L 836.840257 106.653742 
L 850.959252 104.659115 
L 865.078247 101.689186 
L 879.197242 99.951839 
L 893.316237 97.118714 
L 907.435231 95.726351 
L 921.554226 93.458639 
L 935.673221 87.783933 
L 949.792216 67.869614 
" style="fill:none;stroke:#f0ad4e;stroke-linecap:square;"/>
   </g>
   <g id="line2d_10">
    <path clip-path="url(#p2002031e0f)" d="M 81.474034 35.92385 
L 88.533532 36.112235 
L 95.593029 36.705907 
L 102.652526 37.108332 
L 109.712024 37.446154 
L 116.771521 37.77952 
L 123.831019 38.405675 
L 130.890516 39.077027 
L 137.950013 40.334336 
L 145.009511 42.775214 
L 159.128506 46.644633 
L 173.2475 49.85801 
L 187.366495 52.098195 
L 201.48549 53.474322 
L 215.604485 55.351596 
L 229.72348 57.283328 
L 243.842475 58.616554 
L 257.961469 59.145419 
L 272.080464 60.748964 
L 286.199459 62.437972 
L 300.318454 64.002589 
L 314.437449 64.99289 
L 328.556444 65.628299 
L 342.675438 66.475241 
L 356.794433 67.172192 
L 370.913428 68.697338 
L 385.032423 70.752815 
L 399.151418 72.960309 
L 413.270413 74.091206 
L 427.389407 74.808185 
L 441.508402 75.775819 
L 455.627397 77.466448 
L 469.746392 79.532099 
L 483.865387 81.581622 
L 497.984381 82.915917 
L 512.103376 83.357165 
L 526.222371 83.49654 
L 540.341366 84.869533 
L 554.460361 87.916441 
L 568.579356 91.023296 
L 582.69835 93.472661 
L 596.817345 94.51152 
L 610.93634 95.405322 
L 625.055335 96.571409 
L 639.17433 98.197701 
L 653.293325 101.147689 
L 667.412319 105.337124 
L 681.531314 109.097119 
L 695.650309 112.398403 
L 709.769304 113.751832 
L 723.888299 114.201576 
L 738.007294 114.28537 
L 752.126288 111.930545 
L 766.245283 110.496884 
L 780.364278 109.767899 
L 794.483273 109.310224 
L 808.602268 109.160112 
L 822.721262 109.042631 
L 836.840257 108.244584 
L 850.959252 107.492892 
L 865.078247 105.715117 
L 879.197242 103.93842 
L 893.316237 101.047928 
L 907.435231 99.453475 
L 921.554226 96.95232 
L 935.673221 90.600999 
L 949.792216 67.836131 
" style="fill:none;stroke:#f0ad4e;stroke-linecap:square;"/>
   </g>
   <g id="line2d_11">
    <path clip-path="url(#p2002031e0f)" d="M 81.474034 36.014111 
L 88.533532 36.077024 
L 95.593029 36.67026 
L 102.652526 37.147205 
L 109.712024 37.504852 
L 116.771521 37.816297 
L 123.831019 38.41186 
L 130.890516 38.923522 
L 137.950013 40.116984 
L 145.009511 42.009701 
L 159.128506 44.972193 
L 173.2475 47.426254 
L 187.366495 49.591324 
L 201.48549 50.957918 
L 215.604485 52.418407 
L 229.72348 54.519847 
L 243.842475 55.521513 
L 257.961469 56.373891 
L 272.080464 57.842469 
L 286.199459 59.024596 
L 300.318454 60.054776 
L 314.437449 60.494888 
L 328.556444 61.338002 
L 342.675438 62.10599 
L 356.794433 63.009074 
L 370.913428 64.373853 
L 385.032423 66.052981 
L 399.151418 67.807861 
L 413.270413 68.936748 
L 427.389407 69.621024 
L 441.508402 70.299478 
L 455.627397 71.764467 
L 469.746392 73.65943 
L 483.865387 75.356638 
L 497.984381 76.834429 
L 512.103376 77.712185 
L 526.222371 77.573604 
L 540.341366 79.041708 
L 554.460361 82.21266 
L 568.579356 86.195576 
L 582.69835 89.016318 
L 596.817345 90.581266 
L 610.93634 91.956067 
L 625.055335 93.355724 
L 639.17433 95.033099 
L 653.293325 97.509614 
L 667.412319 100.874175 
L 681.531314 103.85281 
L 695.650309 107.260936 
L 709.769304 109.51196 
L 723.888299 110.655114 
L 738.007294 111.133998 
L 752.126288 109.122495 
L 766.245283 107.837562 
L 780.364278 107.303297 
L 794.483273 107.069445 
L 808.602268 106.708824 
L 822.721262 106.672124 
L 836.840257 106.316256 
L 850.959252 105.592294 
L 865.078247 104.123346 
L 879.197242 102.627572 
L 893.316237 99.770237 
L 907.435231 98.373596 
L 921.554226 96.224743 
L 935.673221 89.681342 
L 949.792216 66.684454 
" style="fill:none;stroke:#f0ad4e;stroke-linecap:square;"/>
   </g>
   <g id="line2d_12">
    <path clip-path="url(#p2002031e0f)" d="M 81.474034 35.970926 
L 88.533532 36.079202 
L 95.593029 36.689638 
L 102.652526 37.057406 
L 109.712024 37.361589 
L 116.771521 37.632157 
L 123.831019 38.308895 
L 130.890516 38.883141 
L 137.950013 39.876581 
L 145.009511 41.628266 
L 159.128506 44.068489 
L 173.2475 46.060194 
L 187.366495 48.260201 
L 201.48549 50.37758 
L 215.604485 52.429221 
L 229.72348 54.927793 
L 243.842475 56.900709 
L 257.961469 58.135505 
L 272.080464 60.184183 
L 286.199459 61.478791 
L 300.318454 62.585062 
L 314.437449 62.874075 
L 328.556444 63.394378 
L 342.675438 64.026991 
L 356.794433 64.859192 
L 370.913428 66.201662 
L 385.032423 67.731405 
L 399.151418 69.55635 
L 413.270413 70.468068 
L 427.389407 71.02096 
L 441.508402 71.809686 
L 455.627397 72.967727 
L 469.746392 74.860857 
L 483.865387 76.503661 
L 497.984381 77.710949 
L 512.103376 78.736556 
L 526.222371 78.792615 
L 540.341366 80.209256 
L 554.460361 82.649824 
L 568.579356 85.555758 
L 582.69835 87.242647 
L 596.817345 88.562458 
L 610.93634 90.006156 
L 625.055335 91.483445 
L 639.17433 93.256925 
L 653.293325 95.539707 
L 667.412319 98.927983 
L 681.531314 102.157057 
L 695.650309 105.442317 
L 709.769304 107.445212 
L 723.888299 108.690154 
L 738.007294 109.879208 
L 752.126288 108.510831 
L 766.245283 107.783773 
L 780.364278 107.414537 
L 794.483273 107.115274 
L 808.602268 106.294138 
L 822.721262 105.885534 
L 836.840257 104.875844 
L 850.959252 104.042644 
L 865.078247 102.297355 
L 879.197242 100.767366 
L 893.316237 98.024746 
L 907.435231 96.978801 
L 921.554226 94.903443 
L 935.673221 88.553481 
L 949.792216 66.580077 
" style="fill:none;stroke:#5cb85c;stroke-linecap:square;"/>
   </g>
   <g id="line2d_13">
    <path clip-path="url(#p2002031e0f)" d="M 81.474034 35.853862 
L 88.533532 36.061064 
L 95.593029 36.723838 
L 102.652526 37.129964 
L 109.712024 37.482589 
L 116.771521 37.951479 
L 123.831019 38.670435 
L 130.890516 39.566057 
L 137.950013 41.074305 
L 145.009511 44.316993 
L 159.128506 49.539405 
L 173.2475 54.035594 
L 187.366495 57.660578 
L 201.48549 59.658923 
L 215.604485 61.153742 
L 229.72348 62.396021 
L 243.842475 63.06894 
L 257.961469 63.134765 
L 272.080464 64.789556 
L 286.199459 66.728061 
L 300.318454 68.571034 
L 314.437449 69.881223 
L 328.556444 70.46018 
L 342.675438 71.016057 
L 356.794433 71.467513 
L 370.913428 72.927397 
L 385.032423 75.136405 
L 399.151418 77.471317 
L 413.270413 78.56645 
L 427.389407 79.208447 
L 441.508402 80.120184 
L 455.627397 81.812319 
L 469.746392 83.552568 
L 483.865387 85.491661 
L 497.984381 86.567278 
L 512.103376 86.614356 
L 526.222371 86.364438 
L 540.341366 87.905202 
L 554.460361 90.838979 
L 568.579356 94.230372 
L 582.69835 96.57747 
L 596.817345 97.258887 
L 610.93634 97.816776 
L 625.055335 98.645621 
L 639.17433 100.244075 
L 653.293325 103.466164 
L 667.412319 107.954178 
L 681.531314 111.862643 
L 695.650309 115.131682 
L 709.769304 116.392772 
L 723.888299 116.497103 
L 738.007294 116.15668 
L 752.126288 113.568982 
L 766.245283 111.978227 
L 780.364278 111.230514 
L 794.483273 110.813164 
L 808.602268 110.634673 
L 822.721262 110.447276 
L 836.840257 109.551842 
L 850.959252 108.552076 
L 865.078247 106.506293 
L 879.197242 104.63347 
L 893.316237 101.548906 
L 907.435231 99.739785 
L 921.554226 96.987472 
L 935.673221 90.707387 
L 949.792216 68.457348 
" style="fill:none;stroke:#f0ad4e;stroke-linecap:square;"/>
   </g>
   <g id="line2d_14">
    <path clip-path="url(#p2002031e0f)" d="M 81.474034 35.821398 
L 88.533532 36.019729 
L 95.593029 36.625459 
L 102.652526 36.933001 
L 109.712024 37.358604 
L 116.771521 37.677847 
L 123.831019 38.354847 
L 130.890516 39.096536 
L 137.950013 40.315675 
L 145.009511 42.659842 
L 159.128506 45.833219 
L 173.2475 48.363058 
L 187.366495 50.590747 
L 201.48549 52.544181 
L 215.604485 54.78673 
L 229.72348 57.047333 
L 243.842475 58.681761 
L 257.961469 59.38392 
L 272.080464 60.918522 
L 286.199459 62.369111 
L 300.318454 63.648654 
L 314.437449 64.33006 
L 328.556444 64.685998 
L 342.675438 65.40819 
L 356.794433 66.352068 
L 370.913428 67.928439 
L 385.032423 69.79551 
L 399.151418 71.764913 
L 413.270413 72.726209 
L 427.389407 73.262529 
L 441.508402 74.129111 
L 455.627397 75.831173 
L 469.746392 77.693376 
L 483.865387 79.745001 
L 497.984381 81.067019 
L 512.103376 81.685265 
L 526.222371 82.050525 
L 540.341366 83.465996 
L 554.460361 86.080527 
L 568.579356 88.7627 
L 582.69835 90.956362 
L 596.817345 91.986802 
L 610.93634 93.116791 
L 625.055335 94.513165 
L 639.17433 96.258815 
L 653.293325 99.05706 
L 667.412319 102.691074 
L 681.531314 106.116202 
L 695.650309 109.40055 
L 709.769304 110.931666 
L 723.888299 111.868593 
L 738.007294 112.685119 
L 752.126288 111.137427 
L 766.245283 110.394266 
L 780.364278 110.016869 
L 794.483273 109.422795 
L 808.602268 108.888489 
L 822.721262 108.398025 
L 836.840257 107.348883 
L 850.959252 106.415723 
L 865.078247 104.602336 
L 879.197242 102.911886 
L 893.316237 100.050399 
L 907.435231 98.687208 
L 921.554226 96.239766 
L 935.673221 90.120472 
L 949.792216 67.642322 
" style="fill:none;stroke:#f0ad4e;stroke-linecap:square;"/>
   </g>
   <g id="line2d_15">
    <path clip-path="url(#p2002031e0f)" d="M 81.474034 35.894011 
L 88.533532 35.956498 
L 95.593029 36.588489 
L 102.652526 36.993995 
L 109.712024 37.321282 
L 116.771521 37.556676 
L 123.831019 38.148045 
L 130.890516 38.764322 
L 137.950013 39.83701 
L 145.009511 41.615263 
L 159.128506 44.380968 
L 173.2475 46.276496 
L 187.366495 48.089899 
L 201.48549 49.555525 
L 215.604485 51.008421 
L 229.72348 52.631943 
L 243.842475 53.713572 
L 257.961469 54.5118 
L 272.080464 56.367467 
L 286.199459 57.423634 
L 300.318454 58.672535 
L 314.437449 59.052761 
L 328.556444 59.540897 
L 342.675438 60.404546 
L 356.794433 61.268672 
L 370.913428 62.706725 
L 385.032423 64.549847 
L 399.151418 66.287752 
L 413.270413 67.077462 
L 427.389407 67.623733 
L 441.508402 68.56563 
L 455.627397 69.821833 
L 469.746392 71.806265 
L 483.865387 73.689143 
L 497.984381 74.907959 
L 512.103376 75.934599 
L 526.222371 75.862235 
L 540.341366 77.239848 
L 554.460361 80.060742 
L 568.579356 83.180742 
L 582.69835 85.254977 
L 596.817345 86.536111 
L 610.93634 88.053394 
L 625.055335 89.423943 
L 639.17433 91.06224 
L 653.293325 93.614492 
L 667.412319 97.243721 
L 681.531314 100.300812 
L 695.650309 103.733194 
L 709.769304 105.386806 
L 723.888299 106.481878 
L 738.007294 107.277507 
L 752.126288 105.328463 
L 766.245283 104.348915 
L 780.364278 103.691925 
L 794.483273 103.321085 
L 808.602268 102.720913 
L 822.721262 102.718856 
L 836.840257 102.203829 
L 850.959252 101.69869 
L 865.078247 100.249215 
L 879.197242 98.649655 
L 893.316237 95.946833 
L 907.435231 95.005024 
L 921.554226 92.894548 
L 935.673221 86.519954 
L 949.792216 65.024681 
" style="fill:none;stroke:#5cb85c;stroke-linecap:square;"/>
   </g>
   <g id="line2d_16">
    <path clip-path="url(#p2002031e0f)" d="M 81.474034 35.785615 
L 88.533532 35.948261 
L 95.593029 36.710615 
L 102.652526 37.189478 
L 109.712024 37.742093 
L 116.771521 38.221003 
L 123.831019 39.221795 
L 130.890516 40.397226 
L 137.950013 42.375864 
L 145.009511 45.732519 
L 159.128506 50.625618 
L 173.2475 54.210392 
L 187.366495 57.014874 
L 201.48549 58.79212 
L 215.604485 60.102746 
L 229.72348 61.158589 
L 243.842475 61.56758 
L 257.961469 61.784497 
L 272.080464 63.338289 
L 286.199459 64.812016 
L 300.318454 66.370731 
L 314.437449 66.894477 
L 328.556444 67.374635 
L 342.675438 67.905514 
L 356.794433 68.553524 
L 370.913428 69.975787 
L 385.032423 71.942366 
L 399.151418 73.648922 
L 413.270413 74.492686 
L 427.389407 74.835331 
L 441.508402 75.608601 
L 455.627397 76.873767 
L 469.746392 78.823716 
L 483.865387 80.48026 
L 497.984381 81.409734 
L 512.103376 81.620344 
L 526.222371 81.341201 
L 540.341366 82.774382 
L 554.460361 85.551958 
L 568.579356 88.675834 
L 582.69835 90.608172 
L 596.817345 91.383454 
L 610.93634 92.267636 
L 625.055335 93.218177 
L 639.17433 94.973205 
L 653.293325 97.912275 
L 667.412319 102.056915 
L 681.531314 105.608706 
L 695.650309 108.683589 
L 709.769304 109.798283 
L 723.888299 110.175045 
L 738.007294 110.204241 
L 752.126288 107.735729 
L 766.245283 106.317319 
L 780.364278 105.635445 
L 794.483273 105.371158 
L 808.602268 104.859478 
L 822.721262 104.828138 
L 836.840257 104.399946 
L 850.959252 103.662841 
L 865.078247 102.048574 
L 879.197242 100.680519 
L 893.316237 98.007448 
L 907.435231 96.737508 
L 921.554226 94.35068 
L 935.673221 88.110411 
L 949.792216 66.840141 
" style="fill:none;stroke:#5cb85c;stroke-linecap:square;"/>
   </g>
   <g id="line2d_17">
    <path clip-path="url(#p2002031e0f)" d="M 81.474034 43.513936 
L 88.533532 43.348228 
L 95.593029 42.381147 
L 102.652526 41.511861 
L 109.712024 42.028 
L 116.771521 43.234135 
L 123.831019 45.570342 
L 130.890516 46.483093 
L 137.950013 44.11972 
L 145.009511 48.906229 
L 159.128506 52.10629 
L 173.2475 53.647915 
L 187.366495 57.074806 
L 201.48549 57.851731 
L 215.604485 61.58375 
L 229.72348 62.175865 
L 243.842475 62.96769 
L 257.961469 65.984779 
L 272.080464 67.013958 
L 286.199459 66.465332 
L 300.318454 68.215914 
L 314.437449 68.074894 
L 328.556444 68.098237 
L 342.675438 69.999739 
L 356.794433 71.882535 
L 370.913428 71.308063 
L 385.032423 73.182997 
L 399.151418 76.745616 
L 413.270413 78.388024 
L 427.389407 78.277527 
L 441.508402 78.844103 
L 455.627397 81.567706 
L 469.746392 83.007349 
L 483.865387 83.069737 
L 497.984381 83.371807 
L 512.103376 85.787816 
L 526.222371 86.255112 
L 540.341366 89.243247 
L 554.460361 88.901513 
L 568.579356 91.049902 
L 582.69835 91.074069 
L 596.817345 94.388099 
L 610.93634 93.036287 
L 625.055335 99.055242 
L 639.17433 99.154109 
L 653.293325 99.613672 
L 667.412319 105.549927 
L 681.531314 106.669686 
L 695.650309 110.104767 
L 709.769304 113.462247 
L 723.888299 112.619566 
L 738.007294 113.657586 
L 752.126288 111.68555 
L 766.245283 112.086889 
L 780.364278 109.263928 
L 794.483273 112.124731 
L 808.602268 111.136284 
L 822.721262 108.438444 
L 836.840257 109.169657 
L 850.959252 107.515076 
L 865.078247 104.71478 
L 879.197242 103.157366 
L 893.316237 101.658587 
L 907.435231 100.181638 
L 921.554226 99.17017 
L 935.673221 91.373934 
L 949.792216 66.38807 
" style="fill:none;stroke:#f0ad4e;stroke-linecap:square;"/>
   </g>
   <g id="line2d_18">
    <path clip-path="url(#p2002031e0f)" d="M 81.474034 36.053886 
L 88.533532 36.147463 
L 95.593029 36.840899 
L 102.652526 37.292269 
L 109.712024 37.536842 
L 116.771521 37.972393 
L 123.831019 38.522501 
L 130.890516 39.135037 
L 137.950013 40.151269 
L 145.009511 41.924049 
L 159.128506 44.594529 
L 173.2475 46.764561 
L 187.366495 48.681848 
L 201.48549 50.26246 
L 215.604485 51.839321 
L 229.72348 53.725179 
L 243.842475 54.938081 
L 257.961469 55.798742 
L 272.080464 57.638592 
L 286.199459 58.757147 
L 300.318454 59.909715 
L 314.437449 60.348269 
L 328.556444 60.968954 
L 342.675438 61.969014 
L 356.794433 62.802171 
L 370.913428 64.061312 
L 385.032423 65.766282 
L 399.151418 67.529354 
L 413.270413 68.55658 
L 427.389407 69.246275 
L 441.508402 70.049658 
L 455.627397 71.197436 
L 469.746392 73.185615 
L 483.865387 74.982392 
L 497.984381 76.288619 
L 512.103376 77.205978 
L 526.222371 77.108778 
L 540.341366 78.484629 
L 554.460361 81.325832 
L 568.579356 84.7814 
L 582.69835 86.874996 
L 596.817345 88.322712 
L 610.93634 89.897053 
L 625.055335 91.413281 
L 639.17433 92.999414 
L 653.293325 95.146139 
L 667.412319 98.617342 
L 681.531314 101.475583 
L 695.650309 105.183435 
L 709.769304 107.199574 
L 723.888299 108.550602 
L 738.007294 109.361243 
L 752.126288 107.600546 
L 766.245283 106.314035 
L 780.364278 105.775706 
L 794.483273 105.453265 
L 808.602268 104.928253 
L 822.721262 105.018924 
L 836.840257 104.685938 
L 850.959252 104.167268 
L 865.078247 102.489285 
L 879.197242 100.946921 
L 893.316237 98.191099 
L 907.435231 96.97192 
L 921.554226 94.795097 
L 935.673221 88.170412 
L 949.792216 65.58677 
" style="fill:none;stroke:#5cb85c;stroke-linecap:square;"/>
   </g>
   <g id="line2d_19">
    <path clip-path="url(#p2002031e0f)" d="M 81.474034 35.599729 
L 88.533532 35.828666 
L 95.593029 36.510897 
L 102.652526 36.87334 
L 109.712024 37.426707 
L 116.771521 37.74656 
L 123.831019 38.499707 
L 130.890516 39.332329 
L 137.950013 40.592677 
L 145.009511 42.837192 
L 159.128506 46.220608 
L 173.2475 49.211056 
L 187.366495 51.944083 
L 201.48549 53.876415 
L 215.604485 55.638497 
L 229.72348 57.173272 
L 243.842475 58.268325 
L 257.961469 58.752808 
L 272.080464 60.314281 
L 286.199459 61.770249 
L 300.318454 63.085768 
L 314.437449 63.769212 
L 328.556444 64.208031 
L 342.675438 65.032749 
L 356.794433 65.85627 
L 370.913428 67.254619 
L 385.032423 69.228377 
L 399.151418 71.236673 
L 413.270413 72.213783 
L 427.389407 72.815201 
L 441.508402 73.743886 
L 455.627397 75.486055 
L 469.746392 77.316367 
L 483.865387 79.401415 
L 497.984381 80.875113 
L 512.103376 81.348206 
L 526.222371 81.414933 
L 540.341366 82.683325 
L 554.460361 85.310042 
L 568.579356 88.326101 
L 582.69835 90.539856 
L 596.817345 91.654269 
L 610.93634 92.606694 
L 625.055335 93.97179 
L 639.17433 95.508767 
L 653.293325 98.381092 
L 667.412319 102.241559 
L 681.531314 105.911456 
L 695.650309 109.197502 
L 709.769304 110.788745 
L 723.888299 111.646156 
L 738.007294 112.118022 
L 752.126288 110.04268 
L 766.245283 108.929129 
L 780.364278 108.513664 
L 794.483273 108.032931 
L 808.602268 107.916387 
L 822.721262 107.84465 
L 836.840257 107.191819 
L 850.959252 106.47753 
L 865.078247 104.712355 
L 879.197242 102.951097 
L 893.316237 100.154192 
L 907.435231 98.590143 
L 921.554226 96.004195 
L 935.673221 89.471158 
L 949.792216 66.94617 
" style="fill:none;stroke:#f0ad4e;stroke-linecap:square;"/>
   </g>
   <g id="line2d_20">
    <path clip-path="url(#p2002031e0f)" d="M 38.058125 275.50206 
L 993.208125 275.50206 
" style="fill:none;stroke:#dedede;stroke-linecap:square;stroke-width:2;"/>
   </g>
   <g id="text_17">
    <!-- FastQC: Mean Quality Scores -->
    <g transform="translate(400.394375 19.3575)scale(0.16 -0.16)">
     <defs>
      <path d="M 9.8125 72.90625 
L 51.703125 72.90625 
L 51.703125 64.59375 
L 19.671875 64.59375 
L 19.671875 43.109375 
L 48.578125 43.109375 
L 48.578125 34.8125 
L 19.671875 34.8125 
L 19.671875 0 
L 9.8125 0 
z
" id="DejaVuSans-70"/>
      <path d="M 34.28125 27.484375 
Q 23.390625 27.484375 19.1875 25 
Q 14.984375 22.515625 14.984375 16.5 
Q 14.984375 11.71875 18.140625 8.90625 
Q 21.296875 6.109375 26.703125 6.109375 
Q 34.1875 6.109375 38.703125 11.40625 
Q 43.21875 16.703125 43.21875 25.484375 
L 43.21875 27.484375 
z
M 52.203125 31.203125 
L 52.203125 0 
L 43.21875 0 
L 43.21875 8.296875 
Q 40.140625 3.328125 35.546875 0.953125 
Q 30.953125 -1.421875 24.3125 -1.421875 
Q 15.921875 -1.421875 10.953125 3.296875 
Q 6 8.015625 6 15.921875 
Q 6 25.140625 12.171875 29.828125 
Q 18.359375 34.515625 30.609375 34.515625 
L 43.21875 34.515625 
L 43.21875 35.40625 
Q 43.21875 41.609375 39.140625 45 
Q 35.0625 48.390625 27.6875 48.390625 
Q 23 48.390625 18.546875 47.265625 
Q 14.109375 46.140625 10.015625 43.890625 
L 10.015625 52.203125 
Q 14.9375 54.109375 19.578125 55.046875 
Q 24.21875 56 28.609375 56 
Q 40.484375 56 46.34375 49.84375 
Q 52.203125 43.703125 52.203125 31.203125 
z
" id="DejaVuSans-97"/>
      <path d="M 39.40625 66.21875 
Q 28.65625 66.21875 22.328125 58.203125 
Q 16.015625 50.203125 16.015625 36.375 
Q 16.015625 22.609375 22.328125 14.59375 
Q 28.65625 6.59375 39.40625 6.59375 
Q 50.140625 6.59375 56.421875 14.59375 
Q 62.703125 22.609375 62.703125 36.375 
Q 62.703125 50.203125 56.421875 58.203125 
Q 50.140625 66.21875 39.40625 66.21875 
z
M 53.21875 1.3125 
L 66.21875 -12.890625 
L 54.296875 -12.890625 
L 43.5 -1.21875 
Q 41.890625 -1.3125 41.03125 -1.359375 
Q 40.1875 -1.421875 39.40625 -1.421875 
Q 24.03125 -1.421875 14.8125 8.859375 
Q 5.609375 19.140625 5.609375 36.375 
Q 5.609375 53.65625 14.8125 63.9375 
Q 24.03125 74.21875 39.40625 74.21875 
Q 54.734375 74.21875 63.90625 63.9375 
Q 73.09375 53.65625 73.09375 36.375 
Q 73.09375 23.6875 67.984375 14.640625 
Q 62.890625 5.609375 53.21875 1.3125 
z
" id="DejaVuSans-81"/>
      <path d="M 64.40625 67.28125 
L 64.40625 56.890625 
Q 59.421875 61.53125 53.78125 63.8125 
Q 48.140625 66.109375 41.796875 66.109375 
Q 29.296875 66.109375 22.65625 58.46875 
Q 16.015625 50.828125 16.015625 36.375 
Q 16.015625 21.96875 22.65625 14.328125 
Q 29.296875 6.6875 41.796875 6.6875 
Q 48.140625 6.6875 53.78125 8.984375 
Q 59.421875 11.28125 64.40625 15.921875 
L 64.40625 5.609375 
Q 59.234375 2.09375 53.4375 0.328125 
Q 47.65625 -1.421875 41.21875 -1.421875 
Q 24.65625 -1.421875 15.125 8.703125 
Q 5.609375 18.84375 5.609375 36.375 
Q 5.609375 53.953125 15.125 64.078125 
Q 24.65625 74.21875 41.21875 74.21875 
Q 47.75 74.21875 53.53125 72.484375 
Q 59.328125 70.75 64.40625 67.28125 
z
" id="DejaVuSans-67"/>
      <path d="M 11.71875 12.40625 
L 22.015625 12.40625 
L 22.015625 0 
L 11.71875 0 
z
M 11.71875 51.703125 
L 22.015625 51.703125 
L 22.015625 39.3125 
L 11.71875 39.3125 
z
" id="DejaVuSans-58"/>
      <path d="M 9.8125 72.90625 
L 24.515625 72.90625 
L 43.109375 23.296875 
L 61.8125 72.90625 
L 76.515625 72.90625 
L 76.515625 0 
L 66.890625 0 
L 66.890625 64.015625 
L 48.09375 14.015625 
L 38.1875 14.015625 
L 19.390625 64.015625 
L 19.390625 0 
L 9.8125 0 
z
" id="DejaVuSans-77"/>
      <path d="M 8.5 21.578125 
L 8.5 54.6875 
L 17.484375 54.6875 
L 17.484375 21.921875 
Q 17.484375 14.15625 20.5 10.265625 
Q 23.53125 6.390625 29.59375 6.390625 
Q 36.859375 6.390625 41.078125 11.03125 
Q 45.3125 15.671875 45.3125 23.6875 
L 45.3125 54.6875 
L 54.296875 54.6875 
L 54.296875 0 
L 45.3125 0 
L 45.3125 8.40625 
Q 42.046875 3.421875 37.71875 1 
Q 33.40625 -1.421875 27.6875 -1.421875 
Q 18.265625 -1.421875 13.375 4.4375 
Q 8.5 10.296875 8.5 21.578125 
z
M 31.109375 56 
z
" id="DejaVuSans-117"/>
      <path d="M 9.421875 75.984375 
L 18.40625 75.984375 
L 18.40625 0 
L 9.421875 0 
z
" id="DejaVuSans-108"/>
      <path d="M 32.171875 -5.078125 
Q 28.375 -14.84375 24.75 -17.8125 
Q 21.140625 -20.796875 15.09375 -20.796875 
L 7.90625 -20.796875 
L 7.90625 -13.28125 
L 13.1875 -13.28125 
Q 16.890625 -13.28125 18.9375 -11.515625 
Q 21 -9.765625 23.484375 -3.21875 
L 25.09375 0.875 
L 2.984375 54.6875 
L 12.5 54.6875 
L 29.59375 11.921875 
L 46.6875 54.6875 
L 56.203125 54.6875 
z
" id="DejaVuSans-121"/>
     </defs>
     <use xlink:href="#DejaVuSans-70"/>
     <use x="48.394531" xlink:href="#DejaVuSans-97"/>
     <use x="109.673828" xlink:href="#DejaVuSans-115"/>
     <use x="161.773438" xlink:href="#DejaVuSans-116"/>
     <use x="200.982422" xlink:href="#DejaVuSans-81"/>
     <use x="279.693359" xlink:href="#DejaVuSans-67"/>
     <use x="349.517578" xlink:href="#DejaVuSans-58"/>
     <use x="383.208984" xlink:href="#DejaVuSans-32"/>
     <use x="414.996094" xlink:href="#DejaVuSans-77"/>
     <use x="501.275391" xlink:href="#DejaVuSans-101"/>
     <use x="562.798828" xlink:href="#DejaVuSans-97"/>
     <use x="624.078125" xlink:href="#DejaVuSans-110"/>
     <use x="687.457031" xlink:href="#DejaVuSans-32"/>
     <use x="719.244141" xlink:href="#DejaVuSans-81"/>
     <use x="797.955078" xlink:href="#DejaVuSans-117"/>
     <use x="861.333984" xlink:href="#DejaVuSans-97"/>
     <use x="922.613281" xlink:href="#DejaVuSans-108"/>
     <use x="950.396484" xlink:href="#DejaVuSans-105"/>
     <use x="978.179688" xlink:href="#DejaVuSans-116"/>
     <use x="1017.388672" xlink:href="#DejaVuSans-121"/>
     <use x="1076.568359" xlink:href="#DejaVuSans-32"/>
     <use x="1108.355469" xlink:href="#DejaVuSans-83"/>
     <use x="1171.832031" xlink:href="#DejaVuSans-99"/>
     <use x="1226.8125" xlink:href="#DejaVuSans-111"/>
     <use x="1287.994141" xlink:href="#DejaVuSans-114"/>
     <use x="1326.857422" xlink:href="#DejaVuSans-101"/>
     <use x="1388.380859" xlink:href="#DejaVuSans-115"/>
    </g>
   </g>
   <g id="legend_1">
    <g id="line2d_21">
     <path d="M 45.258125 293.354194 
L 61.258125 293.354194 
" style="fill:none;stroke:#f0ad4e;stroke-linecap:square;"/>
    </g>
    <g id="line2d_22"/>
    <g id="text_18">
     <!-- RTS0_BC_AGCAAC -->
     <g transform="translate(67.658125 296.154194)scale(0.08 -0.08)">
      <defs>
       <path d="M 44.390625 34.1875 
Q 47.5625 33.109375 50.5625 29.59375 
Q 53.5625 26.078125 56.59375 19.921875 
L 66.609375 0 
L 56 0 
L 46.6875 18.703125 
Q 43.0625 26.03125 39.671875 28.421875 
Q 36.28125 30.8125 30.421875 30.8125 
L 19.671875 30.8125 
L 19.671875 0 
L 9.8125 0 
L 9.8125 72.90625 
L 32.078125 72.90625 
Q 44.578125 72.90625 50.734375 67.671875 
Q 56.890625 62.453125 56.890625 51.90625 
Q 56.890625 45.015625 53.6875 40.46875 
Q 50.484375 35.9375 44.390625 34.1875 
z
M 19.671875 64.796875 
L 19.671875 38.921875 
L 32.078125 38.921875 
Q 39.203125 38.921875 42.84375 42.21875 
Q 46.484375 45.515625 46.484375 51.90625 
Q 46.484375 58.296875 42.84375 61.546875 
Q 39.203125 64.796875 32.078125 64.796875 
z
" id="DejaVuSans-82"/>
       <path d="M -0.296875 72.90625 
L 61.375 72.90625 
L 61.375 64.59375 
L 35.5 64.59375 
L 35.5 0 
L 25.59375 0 
L 25.59375 64.59375 
L -0.296875 64.59375 
z
" id="DejaVuSans-84"/>
       <path d="M 50.984375 -16.609375 
L 50.984375 -23.578125 
L -0.984375 -23.578125 
L -0.984375 -16.609375 
z
" id="DejaVuSans-95"/>
       <path d="M 19.671875 34.8125 
L 19.671875 8.109375 
L 35.5 8.109375 
Q 43.453125 8.109375 47.28125 11.40625 
Q 51.125 14.703125 51.125 21.484375 
Q 51.125 28.328125 47.28125 31.5625 
Q 43.453125 34.8125 35.5 34.8125 
z
M 19.671875 64.796875 
L 19.671875 42.828125 
L 34.28125 42.828125 
Q 41.5 42.828125 45.03125 45.53125 
Q 48.578125 48.25 48.578125 53.8125 
Q 48.578125 59.328125 45.03125 62.0625 
Q 41.5 64.796875 34.28125 64.796875 
z
M 9.8125 72.90625 
L 35.015625 72.90625 
Q 46.296875 72.90625 52.390625 68.21875 
Q 58.5 63.53125 58.5 54.890625 
Q 58.5 48.1875 55.375 44.234375 
Q 52.25 40.28125 46.1875 39.3125 
Q 53.46875 37.75 57.5 32.78125 
Q 61.53125 27.828125 61.53125 20.40625 
Q 61.53125 10.640625 54.890625 5.3125 
Q 48.25 0 35.984375 0 
L 9.8125 0 
z
" id="DejaVuSans-66"/>
       <path d="M 34.1875 63.1875 
L 20.796875 26.90625 
L 47.609375 26.90625 
z
M 28.609375 72.90625 
L 39.796875 72.90625 
L 67.578125 0 
L 57.328125 0 
L 50.6875 18.703125 
L 17.828125 18.703125 
L 11.1875 0 
L 0.78125 0 
z
" id="DejaVuSans-65"/>
       <path d="M 59.515625 10.40625 
L 59.515625 29.984375 
L 43.40625 29.984375 
L 43.40625 38.09375 
L 69.28125 38.09375 
L 69.28125 6.78125 
Q 63.578125 2.734375 56.6875 0.65625 
Q 49.8125 -1.421875 42 -1.421875 
Q 24.90625 -1.421875 15.25 8.5625 
Q 5.609375 18.5625 5.609375 36.375 
Q 5.609375 54.25 15.25 64.234375 
Q 24.90625 74.21875 42 74.21875 
Q 49.125 74.21875 55.546875 72.453125 
Q 61.96875 70.703125 67.390625 67.28125 
L 67.390625 56.78125 
Q 61.921875 61.421875 55.765625 63.765625 
Q 49.609375 66.109375 42.828125 66.109375 
Q 29.4375 66.109375 22.71875 58.640625 
Q 16.015625 51.171875 16.015625 36.375 
Q 16.015625 21.625 22.71875 14.15625 
Q 29.4375 6.6875 42.828125 6.6875 
Q 48.046875 6.6875 52.140625 7.59375 
Q 56.25 8.5 59.515625 10.40625 
z
" id="DejaVuSans-71"/>
      </defs>
      <use xlink:href="#DejaVuSans-82"/>
      <use x="62.232422" xlink:href="#DejaVuSans-84"/>
      <use x="123.316406" xlink:href="#DejaVuSans-83"/>
      <use x="186.792969" xlink:href="#DejaVuSans-48"/>
      <use x="250.416016" xlink:href="#DejaVuSans-95"/>
      <use x="300.416016" xlink:href="#DejaVuSans-66"/>
      <use x="367.269531" xlink:href="#DejaVuSans-67"/>
      <use x="437.09375" xlink:href="#DejaVuSans-95"/>
      <use x="487.09375" xlink:href="#DejaVuSans-65"/>
      <use x="553.751953" xlink:href="#DejaVuSans-71"/>
      <use x="631.242188" xlink:href="#DejaVuSans-67"/>
      <use x="701.066406" xlink:href="#DejaVuSans-65"/>
      <use x="772.224609" xlink:href="#DejaVuSans-65"/>
      <use x="838.882812" xlink:href="#DejaVuSans-67"/>
     </g>
    </g>
    <g id="line2d_23">
     <path d="M 45.258125 305.319194 
L 61.258125 305.319194 
" style="fill:none;stroke:#f0ad4e;stroke-linecap:square;"/>
    </g>
    <g id="line2d_24"/>
    <g id="text_19">
     <!-- RTS0_BC_ATCGTG -->
     <g transform="translate(67.658125 308.119194)scale(0.08 -0.08)">
      <use xlink:href="#DejaVuSans-82"/>
      <use x="62.232422" xlink:href="#DejaVuSans-84"/>
      <use x="123.316406" xlink:href="#DejaVuSans-83"/>
      <use x="186.792969" xlink:href="#DejaVuSans-48"/>
      <use x="250.416016" xlink:href="#DejaVuSans-95"/>
      <use x="300.416016" xlink:href="#DejaVuSans-66"/>
      <use x="367.269531" xlink:href="#DejaVuSans-67"/>
      <use x="437.09375" xlink:href="#DejaVuSans-95"/>
      <use x="487.09375" xlink:href="#DejaVuSans-65"/>
      <use x="547.751953" xlink:href="#DejaVuSans-84"/>
      <use x="602.960938" xlink:href="#DejaVuSans-67"/>
      <use x="672.785156" xlink:href="#DejaVuSans-71"/>
      <use x="746.650391" xlink:href="#DejaVuSans-84"/>
      <use x="807.734375" xlink:href="#DejaVuSans-71"/>
     </g>
    </g>
    <g id="line2d_25">
     <path d="M 45.258125 317.284194 
L 61.258125 317.284194 
" style="fill:none;stroke:#f0ad4e;stroke-linecap:square;"/>
    </g>
    <g id="line2d_26"/>
    <g id="text_20">
     <!-- RTS0_BC_CCACTA -->
     <g transform="translate(67.658125 320.084194)scale(0.08 -0.08)">
      <use xlink:href="#DejaVuSans-82"/>
      <use x="62.232422" xlink:href="#DejaVuSans-84"/>
      <use x="123.316406" xlink:href="#DejaVuSans-83"/>
      <use x="186.792969" xlink:href="#DejaVuSans-48"/>
      <use x="250.416016" xlink:href="#DejaVuSans-95"/>
      <use x="300.416016" xlink:href="#DejaVuSans-66"/>
      <use x="367.269531" xlink:href="#DejaVuSans-67"/>
      <use x="437.09375" xlink:href="#DejaVuSans-95"/>
      <use x="487.09375" xlink:href="#DejaVuSans-67"/>
      <use x="556.917969" xlink:href="#DejaVuSans-67"/>
      <use x="626.742188" xlink:href="#DejaVuSans-65"/>
      <use x="693.400391" xlink:href="#DejaVuSans-67"/>
      <use x="763.224609" xlink:href="#DejaVuSans-84"/>
      <use x="816.558594" xlink:href="#DejaVuSans-65"/>
     </g>
    </g>
    <g id="line2d_27">
     <path d="M 256.623438 293.354194 
L 272.623438 293.354194 
" style="fill:none;stroke:#f0ad4e;stroke-linecap:square;"/>
    </g>
    <g id="line2d_28"/>
    <g id="text_21">
     <!-- RTS0_BC_CCTATG -->
     <g transform="translate(279.023438 296.154194)scale(0.08 -0.08)">
      <use xlink:href="#DejaVuSans-82"/>
      <use x="62.232422" xlink:href="#DejaVuSans-84"/>
      <use x="123.316406" xlink:href="#DejaVuSans-83"/>
      <use x="186.792969" xlink:href="#DejaVuSans-48"/>
      <use x="250.416016" xlink:href="#DejaVuSans-95"/>
      <use x="300.416016" xlink:href="#DejaVuSans-66"/>
      <use x="367.269531" xlink:href="#DejaVuSans-67"/>
      <use x="437.09375" xlink:href="#DejaVuSans-95"/>
      <use x="487.09375" xlink:href="#DejaVuSans-67"/>
      <use x="556.917969" xlink:href="#DejaVuSans-67"/>
      <use x="626.742188" xlink:href="#DejaVuSans-84"/>
      <use x="680.076172" xlink:href="#DejaVuSans-65"/>
      <use x="740.734375" xlink:href="#DejaVuSans-84"/>
      <use x="801.818359" xlink:href="#DejaVuSans-71"/>
     </g>
    </g>
    <g id="line2d_29">
     <path d="M 256.623438 305.319194 
L 272.623438 305.319194 
" style="fill:none;stroke:#5cb85c;stroke-linecap:square;"/>
    </g>
    <g id="line2d_30"/>
    <g id="text_22">
     <!-- RTS0_BC_CGTCCG -->
     <g transform="translate(279.023438 308.119194)scale(0.08 -0.08)">
      <use xlink:href="#DejaVuSans-82"/>
      <use x="62.232422" xlink:href="#DejaVuSans-84"/>
      <use x="123.316406" xlink:href="#DejaVuSans-83"/>
      <use x="186.792969" xlink:href="#DejaVuSans-48"/>
      <use x="250.416016" xlink:href="#DejaVuSans-95"/>
      <use x="300.416016" xlink:href="#DejaVuSans-66"/>
      <use x="367.269531" xlink:href="#DejaVuSans-67"/>
      <use x="437.09375" xlink:href="#DejaVuSans-95"/>
      <use x="487.09375" xlink:href="#DejaVuSans-67"/>
      <use x="556.917969" xlink:href="#DejaVuSans-71"/>
      <use x="630.783203" xlink:href="#DejaVuSans-84"/>
      <use x="685.992188" xlink:href="#DejaVuSans-67"/>
      <use x="755.816406" xlink:href="#DejaVuSans-67"/>
      <use x="825.640625" xlink:href="#DejaVuSans-71"/>
     </g>
    </g>
    <g id="line2d_31">
     <path d="M 256.623438 317.284194 
L 272.623438 317.284194 
" style="fill:none;stroke:#f0ad4e;stroke-linecap:square;"/>
    </g>
    <g id="line2d_32"/>
    <g id="text_23">
     <!-- RTS0_BC_CTTACA -->
     <g transform="translate(279.023438 320.084194)scale(0.08 -0.08)">
      <use xlink:href="#DejaVuSans-82"/>
      <use x="62.232422" xlink:href="#DejaVuSans-84"/>
      <use x="123.316406" xlink:href="#DejaVuSans-83"/>
      <use x="186.792969" xlink:href="#DejaVuSans-48"/>
      <use x="250.416016" xlink:href="#DejaVuSans-95"/>
      <use x="300.416016" xlink:href="#DejaVuSans-66"/>
      <use x="367.269531" xlink:href="#DejaVuSans-67"/>
      <use x="437.09375" xlink:href="#DejaVuSans-95"/>
      <use x="487.09375" xlink:href="#DejaVuSans-67"/>
      <use x="556.917969" xlink:href="#DejaVuSans-84"/>
      <use x="616.251953" xlink:href="#DejaVuSans-84"/>
      <use x="669.585938" xlink:href="#DejaVuSans-65"/>
      <use x="736.244141" xlink:href="#DejaVuSans-67"/>
      <use x="806.068359" xlink:href="#DejaVuSans-65"/>
     </g>
    </g>
    <g id="line2d_33">
     <path d="M 467.5425 293.354194 
L 483.5425 293.354194 
" style="fill:none;stroke:#f0ad4e;stroke-linecap:square;"/>
    </g>
    <g id="line2d_34"/>
    <g id="text_24">
     <!-- RTS0_BC_GACGCG -->
     <g transform="translate(489.9425 296.154194)scale(0.08 -0.08)">
      <use xlink:href="#DejaVuSans-82"/>
      <use x="62.232422" xlink:href="#DejaVuSans-84"/>
      <use x="123.316406" xlink:href="#DejaVuSans-83"/>
      <use x="186.792969" xlink:href="#DejaVuSans-48"/>
      <use x="250.416016" xlink:href="#DejaVuSans-95"/>
      <use x="300.416016" xlink:href="#DejaVuSans-66"/>
      <use x="367.269531" xlink:href="#DejaVuSans-67"/>
      <use x="437.09375" xlink:href="#DejaVuSans-95"/>
      <use x="487.09375" xlink:href="#DejaVuSans-71"/>
      <use x="564.583984" xlink:href="#DejaVuSans-65"/>
      <use x="631.242188" xlink:href="#DejaVuSans-67"/>
      <use x="701.066406" xlink:href="#DejaVuSans-71"/>
      <use x="778.556641" xlink:href="#DejaVuSans-67"/>
      <use x="848.380859" xlink:href="#DejaVuSans-71"/>
     </g>
    </g>
    <g id="line2d_35">
     <path d="M 467.5425 305.319194 
L 483.5425 305.319194 
" style="fill:none;stroke:#5cb85c;stroke-linecap:square;"/>
    </g>
    <g id="line2d_36"/>
    <g id="text_25">
     <!-- RTS0_BC_GGAGGC -->
     <g transform="translate(489.9425 308.119194)scale(0.08 -0.08)">
      <use xlink:href="#DejaVuSans-82"/>
      <use x="62.232422" xlink:href="#DejaVuSans-84"/>
      <use x="123.316406" xlink:href="#DejaVuSans-83"/>
      <use x="186.792969" xlink:href="#DejaVuSans-48"/>
      <use x="250.416016" xlink:href="#DejaVuSans-95"/>
      <use x="300.416016" xlink:href="#DejaVuSans-66"/>
      <use x="367.269531" xlink:href="#DejaVuSans-67"/>
      <use x="437.09375" xlink:href="#DejaVuSans-95"/>
      <use x="487.09375" xlink:href="#DejaVuSans-71"/>
      <use x="564.583984" xlink:href="#DejaVuSans-71"/>
      <use x="642.074219" xlink:href="#DejaVuSans-65"/>
      <use x="708.732422" xlink:href="#DejaVuSans-71"/>
      <use x="786.222656" xlink:href="#DejaVuSans-71"/>
      <use x="863.712891" xlink:href="#DejaVuSans-67"/>
     </g>
    </g>
    <g id="line2d_37">
     <path d="M 680.892812 293.354194 
L 696.892812 293.354194 
" style="fill:none;stroke:#5cb85c;stroke-linecap:square;"/>
    </g>
    <g id="line2d_38"/>
    <g id="text_26">
     <!-- RTS0_BC_GTGAGG -->
     <g transform="translate(703.292812 296.154194)scale(0.08 -0.08)">
      <use xlink:href="#DejaVuSans-82"/>
      <use x="62.232422" xlink:href="#DejaVuSans-84"/>
      <use x="123.316406" xlink:href="#DejaVuSans-83"/>
      <use x="186.792969" xlink:href="#DejaVuSans-48"/>
      <use x="250.416016" xlink:href="#DejaVuSans-95"/>
      <use x="300.416016" xlink:href="#DejaVuSans-66"/>
      <use x="367.269531" xlink:href="#DejaVuSans-67"/>
      <use x="437.09375" xlink:href="#DejaVuSans-95"/>
      <use x="487.09375" xlink:href="#DejaVuSans-71"/>
      <use x="560.958984" xlink:href="#DejaVuSans-84"/>
      <use x="622.042969" xlink:href="#DejaVuSans-71"/>
      <use x="699.533203" xlink:href="#DejaVuSans-65"/>
      <use x="766.191406" xlink:href="#DejaVuSans-71"/>
      <use x="843.681641" xlink:href="#DejaVuSans-71"/>
     </g>
    </g>
    <g id="line2d_39">
     <path d="M 680.892812 305.319194 
L 696.892812 305.319194 
" style="fill:none;stroke:#f0ad4e;stroke-linecap:square;"/>
    </g>
    <g id="line2d_40"/>
    <g id="text_27">
     <!-- RTS0_BC_TAGGGG -->
     <g transform="translate(703.292812 308.119194)scale(0.08 -0.08)">
      <use xlink:href="#DejaVuSans-82"/>
      <use x="62.232422" xlink:href="#DejaVuSans-84"/>
      <use x="123.316406" xlink:href="#DejaVuSans-83"/>
      <use x="186.792969" xlink:href="#DejaVuSans-48"/>
      <use x="250.416016" xlink:href="#DejaVuSans-95"/>
      <use x="300.416016" xlink:href="#DejaVuSans-66"/>
      <use x="367.269531" xlink:href="#DejaVuSans-67"/>
      <use x="437.09375" xlink:href="#DejaVuSans-95"/>
      <use x="487.09375" xlink:href="#DejaVuSans-84"/>
      <use x="540.427734" xlink:href="#DejaVuSans-65"/>
      <use x="607.085938" xlink:href="#DejaVuSans-71"/>
      <use x="684.576172" xlink:href="#DejaVuSans-71"/>
      <use x="762.066406" xlink:href="#DejaVuSans-71"/>
      <use x="839.556641" xlink:href="#DejaVuSans-71"/>
     </g>
    </g>
    <g id="line2d_41">
     <path d="M 893.253125 293.354194 
L 909.253125 293.354194 
" style="fill:none;stroke:#5cb85c;stroke-linecap:square;"/>
    </g>
    <g id="line2d_42"/>
    <g id="text_28">
     <!-- RTS0_BC_TCCTAG -->
     <g transform="translate(915.653125 296.154194)scale(0.08 -0.08)">
      <use xlink:href="#DejaVuSans-82"/>
      <use x="62.232422" xlink:href="#DejaVuSans-84"/>
      <use x="123.316406" xlink:href="#DejaVuSans-83"/>
      <use x="186.792969" xlink:href="#DejaVuSans-48"/>
      <use x="250.416016" xlink:href="#DejaVuSans-95"/>
      <use x="300.416016" xlink:href="#DejaVuSans-66"/>
      <use x="367.269531" xlink:href="#DejaVuSans-67"/>
      <use x="437.09375" xlink:href="#DejaVuSans-95"/>
      <use x="487.09375" xlink:href="#DejaVuSans-84"/>
      <use x="542.302734" xlink:href="#DejaVuSans-67"/>
      <use x="612.126953" xlink:href="#DejaVuSans-67"/>
      <use x="681.951172" xlink:href="#DejaVuSans-84"/>
      <use x="735.285156" xlink:href="#DejaVuSans-65"/>
      <use x="801.943359" xlink:href="#DejaVuSans-71"/>
     </g>
    </g>
    <g id="line2d_43">
     <path d="M 893.253125 305.319194 
L 909.253125 305.319194 
" style="fill:none;stroke:#f0ad4e;stroke-linecap:square;"/>
    </g>
    <g id="line2d_44"/>
    <g id="text_29">
     <!-- RTS0_BC_TGTTTG -->
     <g transform="translate(915.653125 308.119194)scale(0.08 -0.08)">
      <use xlink:href="#DejaVuSans-82"/>
      <use x="62.232422" xlink:href="#DejaVuSans-84"/>
      <use x="123.316406" xlink:href="#DejaVuSans-83"/>
      <use x="186.792969" xlink:href="#DejaVuSans-48"/>
      <use x="250.416016" xlink:href="#DejaVuSans-95"/>
      <use x="300.416016" xlink:href="#DejaVuSans-66"/>
      <use x="367.269531" xlink:href="#DejaVuSans-67"/>
      <use x="437.09375" xlink:href="#DejaVuSans-95"/>
      <use x="487.09375" xlink:href="#DejaVuSans-84"/>
      <use x="548.177734" xlink:href="#DejaVuSans-71"/>
      <use x="622.042969" xlink:href="#DejaVuSans-84"/>
      <use x="681.376953" xlink:href="#DejaVuSans-84"/>
      <use x="740.710938" xlink:href="#DejaVuSans-84"/>
      <use x="801.794922" xlink:href="#DejaVuSans-71"/>
     </g>
    </g>
   </g>
  </g>
 </g>
 <defs>
  <clipPath id="p2002031e0f">
   <rect height="243.9472" width="955.15" x="38.058125" y="31.55486"/>
  </clipPath>
 </defs>
</svg>
