<?xml version="1.0" encoding="utf-8" standalone="no"?>
<!DOCTYPE svg PUBLIC "-//W3C//DTD SVG 1.1//EN"
  "http://www.w3.org/Graphics/SVG/1.1/DTD/svg11.dtd">
<!-- Created with matplotlib (https://matplotlib.org/) -->
<svg height="332.370444pt" version="1.1" viewBox="0 0 1000.358125 332.370444" width="1000.358125pt" xmlns="http://www.w3.org/2000/svg" xmlns:xlink="http://www.w3.org/1999/xlink">
 <metadata>
  <rdf:RDF xmlns:cc="http://creativecommons.org/ns#" xmlns:dc="http://purl.org/dc/elements/1.1/" xmlns:rdf="http://www.w3.org/1999/02/22-rdf-syntax-ns#">
   <cc:Work>
    <dc:type rdf:resource="http://purl.org/dc/dcmitype/StillImage"/>
    <dc:date>2020-09-26T22:33:15.477734</dc:date>
    <dc:format>image/svg+xml</dc:format>
    <dc:creator>
     <cc:Agent>
      <dc:title>Matplotlib v3.3.1, https://matplotlib.org/</dc:title>
     </cc:Agent>
    </dc:creator>
   </cc:Work>
  </rdf:RDF>
 </metadata>
 <defs>
  <style type="text/css">*{stroke-linecap:butt;stroke-linejoin:round;}</style>
 </defs>
 <g id="figure_1">
  <g id="axes_1">
   <g id="patch_1">
    <path d="M 32.968125 275.50206 
L 993.158125 275.50206 
L 993.158125 31.55486 
L 32.968125 31.55486 
z
" style="fill:#ffffff;"/>
   </g>
   <g id="patch_2">
    <path clip-path="url(#p8d7dc14d8c)" d="M 32.968125 -700.28674 
L 993.158125 -700.28674 
L 993.158125 -4603.44194 
L 32.968125 -4603.44194 
z
" style="fill:#e6c3c3;"/>
   </g>
   <g id="patch_3">
    <path clip-path="url(#p8d7dc14d8c)" d="M 32.968125 31.55486 
L 993.158125 31.55486 
L 993.158125 -700.28674 
L 32.968125 -700.28674 
z
" style="fill:#e6dcc3;"/>
   </g>
   <g id="patch_4">
    <path clip-path="url(#p8d7dc14d8c)" d="M 32.968125 275.50206 
L 993.158125 275.50206 
L 993.158125 31.55486 
L 32.968125 31.55486 
z
" style="fill:#c3e6c3;"/>
   </g>
   <g id="matplotlib.axis_1">
    <g id="xtick_1">
     <g id="text_1">
      <!-- 0 -->
      <g transform="translate(30.423125 288.58081)scale(0.08 -0.08)">
       <defs>
        <path d="M 31.78125 66.40625 
Q 24.171875 66.40625 20.328125 58.90625 
Q 16.5 51.421875 16.5 36.375 
Q 16.5 21.390625 20.328125 13.890625 
Q 24.171875 6.390625 31.78125 6.390625 
Q 39.453125 6.390625 43.28125 13.890625 
Q 47.125 21.390625 47.125 36.375 
Q 47.125 51.421875 43.28125 58.90625 
Q 39.453125 66.40625 31.78125 66.40625 
z
M 31.78125 74.21875 
Q 44.046875 74.21875 50.515625 64.515625 
Q 56.984375 54.828125 56.984375 36.375 
Q 56.984375 17.96875 50.515625 8.265625 
Q 44.046875 -1.421875 31.78125 -1.421875 
Q 19.53125 -1.421875 13.0625 8.265625 
Q 6.59375 17.96875 6.59375 36.375 
Q 6.59375 54.828125 13.0625 64.515625 
Q 19.53125 74.21875 31.78125 74.21875 
z
" id="DejaVuSans-48"/>
       </defs>
       <use xlink:href="#DejaVuSans-48"/>
      </g>
     </g>
    </g>
    <g id="xtick_2">
     <g id="text_2">
      <!-- 20 -->
      <g transform="translate(175.429412 288.58081)scale(0.08 -0.08)">
       <defs>
        <path d="M 19.1875 8.296875 
L 53.609375 8.296875 
L 53.609375 0 
L 7.328125 0 
L 7.328125 8.296875 
Q 12.9375 14.109375 22.625 23.890625 
Q 32.328125 33.6875 34.8125 36.53125 
Q 39.546875 41.84375 41.421875 45.53125 
Q 43.3125 49.21875 43.3125 52.78125 
Q 43.3125 58.59375 39.234375 62.25 
Q 35.15625 65.921875 28.609375 65.921875 
Q 23.96875 65.921875 18.8125 64.3125 
Q 13.671875 62.703125 7.8125 59.421875 
L 7.8125 69.390625 
Q 13.765625 71.78125 18.9375 73 
Q 24.125 74.21875 28.421875 74.21875 
Q 39.75 74.21875 46.484375 68.546875 
Q 53.21875 62.890625 53.21875 53.421875 
Q 53.21875 48.921875 51.53125 44.890625 
Q 49.859375 40.875 45.40625 35.40625 
Q 44.1875 33.984375 37.640625 27.21875 
Q 31.109375 20.453125 19.1875 8.296875 
z
" id="DejaVuSans-50"/>
       </defs>
       <use xlink:href="#DejaVuSans-50"/>
       <use x="63.623047" xlink:href="#DejaVuSans-48"/>
      </g>
     </g>
    </g>
    <g id="xtick_3">
     <g id="text_3">
      <!-- 40 -->
      <g transform="translate(322.980699 288.58081)scale(0.08 -0.08)">
       <defs>
        <path d="M 37.796875 64.3125 
L 12.890625 25.390625 
L 37.796875 25.390625 
z
M 35.203125 72.90625 
L 47.609375 72.90625 
L 47.609375 25.390625 
L 58.015625 25.390625 
L 58.015625 17.1875 
L 47.609375 17.1875 
L 47.609375 0 
L 37.796875 0 
L 37.796875 17.1875 
L 4.890625 17.1875 
L 4.890625 26.703125 
z
" id="DejaVuSans-52"/>
       </defs>
       <use xlink:href="#DejaVuSans-52"/>
       <use x="63.623047" xlink:href="#DejaVuSans-48"/>
      </g>
     </g>
    </g>
    <g id="xtick_4">
     <g id="text_4">
      <!-- 60 -->
      <g transform="translate(470.531986 288.58081)scale(0.08 -0.08)">
       <defs>
        <path d="M 33.015625 40.375 
Q 26.375 40.375 22.484375 35.828125 
Q 18.609375 31.296875 18.609375 23.390625 
Q 18.609375 15.53125 22.484375 10.953125 
Q 26.375 6.390625 33.015625 6.390625 
Q 39.65625 6.390625 43.53125 10.953125 
Q 47.40625 15.53125 47.40625 23.390625 
Q 47.40625 31.296875 43.53125 35.828125 
Q 39.65625 40.375 33.015625 40.375 
z
M 52.59375 71.296875 
L 52.59375 62.3125 
Q 48.875 64.0625 45.09375 64.984375 
Q 41.3125 65.921875 37.59375 65.921875 
Q 27.828125 65.921875 22.671875 59.328125 
Q 17.53125 52.734375 16.796875 39.40625 
Q 19.671875 43.65625 24.015625 45.921875 
Q 28.375 48.1875 33.59375 48.1875 
Q 44.578125 48.1875 50.953125 41.515625 
Q 57.328125 34.859375 57.328125 23.390625 
Q 57.328125 12.15625 50.6875 5.359375 
Q 44.046875 -1.421875 33.015625 -1.421875 
Q 20.359375 -1.421875 13.671875 8.265625 
Q 6.984375 17.96875 6.984375 36.375 
Q 6.984375 53.65625 15.1875 63.9375 
Q 23.390625 74.21875 37.203125 74.21875 
Q 40.921875 74.21875 44.703125 73.484375 
Q 48.484375 72.75 52.59375 71.296875 
z
" id="DejaVuSans-54"/>
       </defs>
       <use xlink:href="#DejaVuSans-54"/>
       <use x="63.623047" xlink:href="#DejaVuSans-48"/>
      </g>
     </g>
    </g>
    <g id="xtick_5">
     <g id="text_5">
      <!-- 80 -->
      <g transform="translate(618.083273 288.58081)scale(0.08 -0.08)">
       <defs>
        <path d="M 31.78125 34.625 
Q 24.75 34.625 20.71875 30.859375 
Q 16.703125 27.09375 16.703125 20.515625 
Q 16.703125 13.921875 20.71875 10.15625 
Q 24.75 6.390625 31.78125 6.390625 
Q 38.8125 6.390625 42.859375 10.171875 
Q 46.921875 13.96875 46.921875 20.515625 
Q 46.921875 27.09375 42.890625 30.859375 
Q 38.875 34.625 31.78125 34.625 
z
M 21.921875 38.8125 
Q 15.578125 40.375 12.03125 44.71875 
Q 8.5 49.078125 8.5 55.328125 
Q 8.5 64.0625 14.71875 69.140625 
Q 20.953125 74.21875 31.78125 74.21875 
Q 42.671875 74.21875 48.875 69.140625 
Q 55.078125 64.0625 55.078125 55.328125 
Q 55.078125 49.078125 51.53125 44.71875 
Q 48 40.375 41.703125 38.8125 
Q 48.828125 37.15625 52.796875 32.3125 
Q 56.78125 27.484375 56.78125 20.515625 
Q 56.78125 9.90625 50.3125 4.234375 
Q 43.84375 -1.421875 31.78125 -1.421875 
Q 19.734375 -1.421875 13.25 4.234375 
Q 6.78125 9.90625 6.78125 20.515625 
Q 6.78125 27.484375 10.78125 32.3125 
Q 14.796875 37.15625 21.921875 38.8125 
z
M 18.3125 54.390625 
Q 18.3125 48.734375 21.84375 45.5625 
Q 25.390625 42.390625 31.78125 42.390625 
Q 38.140625 42.390625 41.71875 45.5625 
Q 45.3125 48.734375 45.3125 54.390625 
Q 45.3125 60.0625 41.71875 63.234375 
Q 38.140625 66.40625 31.78125 66.40625 
Q 25.390625 66.40625 21.84375 63.234375 
Q 18.3125 60.0625 18.3125 54.390625 
z
" id="DejaVuSans-56"/>
       </defs>
       <use xlink:href="#DejaVuSans-56"/>
       <use x="63.623047" xlink:href="#DejaVuSans-48"/>
      </g>
     </g>
    </g>
    <g id="xtick_6">
     <g id="text_6">
      <!-- 100 -->
      <g transform="translate(763.08956 288.58081)scale(0.08 -0.08)">
       <defs>
        <path d="M 12.40625 8.296875 
L 28.515625 8.296875 
L 28.515625 63.921875 
L 10.984375 60.40625 
L 10.984375 69.390625 
L 28.421875 72.90625 
L 38.28125 72.90625 
L 38.28125 8.296875 
L 54.390625 8.296875 
L 54.390625 0 
L 12.40625 0 
z
" id="DejaVuSans-49"/>
       </defs>
       <use xlink:href="#DejaVuSans-49"/>
       <use x="63.623047" xlink:href="#DejaVuSans-48"/>
       <use x="127.246094" xlink:href="#DejaVuSans-48"/>
      </g>
     </g>
    </g>
    <g id="xtick_7">
     <g id="text_7">
      <!-- 120 -->
      <g transform="translate(910.640847 288.58081)scale(0.08 -0.08)">
       <use xlink:href="#DejaVuSans-49"/>
       <use x="63.623047" xlink:href="#DejaVuSans-50"/>
       <use x="127.246094" xlink:href="#DejaVuSans-48"/>
      </g>
     </g>
    </g>
    <g id="text_8">
     <!-- Position in Read (bp) -->
     <g transform="translate(461.46 301.842998)scale(0.1 -0.1)">
      <defs>
       <path d="M 19.671875 64.796875 
L 19.671875 37.40625 
L 32.078125 37.40625 
Q 38.96875 37.40625 42.71875 40.96875 
Q 46.484375 44.53125 46.484375 51.125 
Q 46.484375 57.671875 42.71875 61.234375 
Q 38.96875 64.796875 32.078125 64.796875 
z
M 9.8125 72.90625 
L 32.078125 72.90625 
Q 44.34375 72.90625 50.609375 67.359375 
Q 56.890625 61.8125 56.890625 51.125 
Q 56.890625 40.328125 50.609375 34.8125 
Q 44.34375 29.296875 32.078125 29.296875 
L 19.671875 29.296875 
L 19.671875 0 
L 9.8125 0 
z
" id="DejaVuSans-80"/>
       <path d="M 30.609375 48.390625 
Q 23.390625 48.390625 19.1875 42.75 
Q 14.984375 37.109375 14.984375 27.296875 
Q 14.984375 17.484375 19.15625 11.84375 
Q 23.34375 6.203125 30.609375 6.203125 
Q 37.796875 6.203125 41.984375 11.859375 
Q 46.1875 17.53125 46.1875 27.296875 
Q 46.1875 37.015625 41.984375 42.703125 
Q 37.796875 48.390625 30.609375 48.390625 
z
M 30.609375 56 
Q 42.328125 56 49.015625 48.375 
Q 55.71875 40.765625 55.71875 27.296875 
Q 55.71875 13.875 49.015625 6.21875 
Q 42.328125 -1.421875 30.609375 -1.421875 
Q 18.84375 -1.421875 12.171875 6.21875 
Q 5.515625 13.875 5.515625 27.296875 
Q 5.515625 40.765625 12.171875 48.375 
Q 18.84375 56 30.609375 56 
z
" id="DejaVuSans-111"/>
       <path d="M 44.28125 53.078125 
L 44.28125 44.578125 
Q 40.484375 46.53125 36.375 47.5 
Q 32.28125 48.484375 27.875 48.484375 
Q 21.1875 48.484375 17.84375 46.4375 
Q 14.5 44.390625 14.5 40.28125 
Q 14.5 37.15625 16.890625 35.375 
Q 19.28125 33.59375 26.515625 31.984375 
L 29.59375 31.296875 
Q 39.15625 29.25 43.1875 25.515625 
Q 47.21875 21.78125 47.21875 15.09375 
Q 47.21875 7.46875 41.1875 3.015625 
Q 35.15625 -1.421875 24.609375 -1.421875 
Q 20.21875 -1.421875 15.453125 -0.5625 
Q 10.6875 0.296875 5.421875 2 
L 5.421875 11.28125 
Q 10.40625 8.6875 15.234375 7.390625 
Q 20.0625 6.109375 24.8125 6.109375 
Q 31.15625 6.109375 34.5625 8.28125 
Q 37.984375 10.453125 37.984375 14.40625 
Q 37.984375 18.0625 35.515625 20.015625 
Q 33.0625 21.96875 24.703125 23.78125 
L 21.578125 24.515625 
Q 13.234375 26.265625 9.515625 29.90625 
Q 5.8125 33.546875 5.8125 39.890625 
Q 5.8125 47.609375 11.28125 51.796875 
Q 16.75 56 26.8125 56 
Q 31.78125 56 36.171875 55.265625 
Q 40.578125 54.546875 44.28125 53.078125 
z
" id="DejaVuSans-115"/>
       <path d="M 9.421875 54.6875 
L 18.40625 54.6875 
L 18.40625 0 
L 9.421875 0 
z
M 9.421875 75.984375 
L 18.40625 75.984375 
L 18.40625 64.59375 
L 9.421875 64.59375 
z
" id="DejaVuSans-105"/>
       <path d="M 18.3125 70.21875 
L 18.3125 54.6875 
L 36.8125 54.6875 
L 36.8125 47.703125 
L 18.3125 47.703125 
L 18.3125 18.015625 
Q 18.3125 11.328125 20.140625 9.421875 
Q 21.96875 7.515625 27.59375 7.515625 
L 36.8125 7.515625 
L 36.8125 0 
L 27.59375 0 
Q 17.1875 0 13.234375 3.875 
Q 9.28125 7.765625 9.28125 18.015625 
L 9.28125 47.703125 
L 2.6875 47.703125 
L 2.6875 54.6875 
L 9.28125 54.6875 
L 9.28125 70.21875 
z
" id="DejaVuSans-116"/>
       <path d="M 54.890625 33.015625 
L 54.890625 0 
L 45.90625 0 
L 45.90625 32.71875 
Q 45.90625 40.484375 42.875 44.328125 
Q 39.84375 48.1875 33.796875 48.1875 
Q 26.515625 48.1875 22.3125 43.546875 
Q 18.109375 38.921875 18.109375 30.90625 
L 18.109375 0 
L 9.078125 0 
L 9.078125 54.6875 
L 18.109375 54.6875 
L 18.109375 46.1875 
Q 21.34375 51.125 25.703125 53.5625 
Q 30.078125 56 35.796875 56 
Q 45.21875 56 50.046875 50.171875 
Q 54.890625 44.34375 54.890625 33.015625 
z
" id="DejaVuSans-110"/>
       <path id="DejaVuSans-32"/>
       <path d="M 44.390625 34.1875 
Q 47.5625 33.109375 50.5625 29.59375 
Q 53.5625 26.078125 56.59375 19.921875 
L 66.609375 0 
L 56 0 
L 46.6875 18.703125 
Q 43.0625 26.03125 39.671875 28.421875 
Q 36.28125 30.8125 30.421875 30.8125 
L 19.671875 30.8125 
L 19.671875 0 
L 9.8125 0 
L 9.8125 72.90625 
L 32.078125 72.90625 
Q 44.578125 72.90625 50.734375 67.671875 
Q 56.890625 62.453125 56.890625 51.90625 
Q 56.890625 45.015625 53.6875 40.46875 
Q 50.484375 35.9375 44.390625 34.1875 
z
M 19.671875 64.796875 
L 19.671875 38.921875 
L 32.078125 38.921875 
Q 39.203125 38.921875 42.84375 42.21875 
Q 46.484375 45.515625 46.484375 51.90625 
Q 46.484375 58.296875 42.84375 61.546875 
Q 39.203125 64.796875 32.078125 64.796875 
z
" id="DejaVuSans-82"/>
       <path d="M 56.203125 29.59375 
L 56.203125 25.203125 
L 14.890625 25.203125 
Q 15.484375 15.921875 20.484375 11.0625 
Q 25.484375 6.203125 34.421875 6.203125 
Q 39.59375 6.203125 44.453125 7.46875 
Q 49.3125 8.734375 54.109375 11.28125 
L 54.109375 2.78125 
Q 49.265625 0.734375 44.1875 -0.34375 
Q 39.109375 -1.421875 33.890625 -1.421875 
Q 20.796875 -1.421875 13.15625 6.1875 
Q 5.515625 13.8125 5.515625 26.8125 
Q 5.515625 40.234375 12.765625 48.109375 
Q 20.015625 56 32.328125 56 
Q 43.359375 56 49.78125 48.890625 
Q 56.203125 41.796875 56.203125 29.59375 
z
M 47.21875 32.234375 
Q 47.125 39.59375 43.09375 43.984375 
Q 39.0625 48.390625 32.421875 48.390625 
Q 24.90625 48.390625 20.390625 44.140625 
Q 15.875 39.890625 15.1875 32.171875 
z
" id="DejaVuSans-101"/>
       <path d="M 34.28125 27.484375 
Q 23.390625 27.484375 19.1875 25 
Q 14.984375 22.515625 14.984375 16.5 
Q 14.984375 11.71875 18.140625 8.90625 
Q 21.296875 6.109375 26.703125 6.109375 
Q 34.1875 6.109375 38.703125 11.40625 
Q 43.21875 16.703125 43.21875 25.484375 
L 43.21875 27.484375 
z
M 52.203125 31.203125 
L 52.203125 0 
L 43.21875 0 
L 43.21875 8.296875 
Q 40.140625 3.328125 35.546875 0.953125 
Q 30.953125 -1.421875 24.3125 -1.421875 
Q 15.921875 -1.421875 10.953125 3.296875 
Q 6 8.015625 6 15.921875 
Q 6 25.140625 12.171875 29.828125 
Q 18.359375 34.515625 30.609375 34.515625 
L 43.21875 34.515625 
L 43.21875 35.40625 
Q 43.21875 41.609375 39.140625 45 
Q 35.0625 48.390625 27.6875 48.390625 
Q 23 48.390625 18.546875 47.265625 
Q 14.109375 46.140625 10.015625 43.890625 
L 10.015625 52.203125 
Q 14.9375 54.109375 19.578125 55.046875 
Q 24.21875 56 28.609375 56 
Q 40.484375 56 46.34375 49.84375 
Q 52.203125 43.703125 52.203125 31.203125 
z
" id="DejaVuSans-97"/>
       <path d="M 45.40625 46.390625 
L 45.40625 75.984375 
L 54.390625 75.984375 
L 54.390625 0 
L 45.40625 0 
L 45.40625 8.203125 
Q 42.578125 3.328125 38.25 0.953125 
Q 33.9375 -1.421875 27.875 -1.421875 
Q 17.96875 -1.421875 11.734375 6.484375 
Q 5.515625 14.40625 5.515625 27.296875 
Q 5.515625 40.1875 11.734375 48.09375 
Q 17.96875 56 27.875 56 
Q 33.9375 56 38.25 53.625 
Q 42.578125 51.265625 45.40625 46.390625 
z
M 14.796875 27.296875 
Q 14.796875 17.390625 18.875 11.75 
Q 22.953125 6.109375 30.078125 6.109375 
Q 37.203125 6.109375 41.296875 11.75 
Q 45.40625 17.390625 45.40625 27.296875 
Q 45.40625 37.203125 41.296875 42.84375 
Q 37.203125 48.484375 30.078125 48.484375 
Q 22.953125 48.484375 18.875 42.84375 
Q 14.796875 37.203125 14.796875 27.296875 
z
" id="DejaVuSans-100"/>
       <path d="M 31 75.875 
Q 24.46875 64.65625 21.28125 53.65625 
Q 18.109375 42.671875 18.109375 31.390625 
Q 18.109375 20.125 21.3125 9.0625 
Q 24.515625 -2 31 -13.1875 
L 23.1875 -13.1875 
Q 15.875 -1.703125 12.234375 9.375 
Q 8.59375 20.453125 8.59375 31.390625 
Q 8.59375 42.28125 12.203125 53.3125 
Q 15.828125 64.359375 23.1875 75.875 
z
" id="DejaVuSans-40"/>
       <path d="M 48.6875 27.296875 
Q 48.6875 37.203125 44.609375 42.84375 
Q 40.53125 48.484375 33.40625 48.484375 
Q 26.265625 48.484375 22.1875 42.84375 
Q 18.109375 37.203125 18.109375 27.296875 
Q 18.109375 17.390625 22.1875 11.75 
Q 26.265625 6.109375 33.40625 6.109375 
Q 40.53125 6.109375 44.609375 11.75 
Q 48.6875 17.390625 48.6875 27.296875 
z
M 18.109375 46.390625 
Q 20.953125 51.265625 25.265625 53.625 
Q 29.59375 56 35.59375 56 
Q 45.5625 56 51.78125 48.09375 
Q 58.015625 40.1875 58.015625 27.296875 
Q 58.015625 14.40625 51.78125 6.484375 
Q 45.5625 -1.421875 35.59375 -1.421875 
Q 29.59375 -1.421875 25.265625 0.953125 
Q 20.953125 3.328125 18.109375 8.203125 
L 18.109375 0 
L 9.078125 0 
L 9.078125 75.984375 
L 18.109375 75.984375 
z
" id="DejaVuSans-98"/>
       <path d="M 18.109375 8.203125 
L 18.109375 -20.796875 
L 9.078125 -20.796875 
L 9.078125 54.6875 
L 18.109375 54.6875 
L 18.109375 46.390625 
Q 20.953125 51.265625 25.265625 53.625 
Q 29.59375 56 35.59375 56 
Q 45.5625 56 51.78125 48.09375 
Q 58.015625 40.1875 58.015625 27.296875 
Q 58.015625 14.40625 51.78125 6.484375 
Q 45.5625 -1.421875 35.59375 -1.421875 
Q 29.59375 -1.421875 25.265625 0.953125 
Q 20.953125 3.328125 18.109375 8.203125 
z
M 48.6875 27.296875 
Q 48.6875 37.203125 44.609375 42.84375 
Q 40.53125 48.484375 33.40625 48.484375 
Q 26.265625 48.484375 22.1875 42.84375 
Q 18.109375 37.203125 18.109375 27.296875 
Q 18.109375 17.390625 22.1875 11.75 
Q 26.265625 6.109375 33.40625 6.109375 
Q 40.53125 6.109375 44.609375 11.75 
Q 48.6875 17.390625 48.6875 27.296875 
z
" id="DejaVuSans-112"/>
       <path d="M 8.015625 75.875 
L 15.828125 75.875 
Q 23.140625 64.359375 26.78125 53.3125 
Q 30.421875 42.28125 30.421875 31.390625 
Q 30.421875 20.453125 26.78125 9.375 
Q 23.140625 -1.703125 15.828125 -13.1875 
L 8.015625 -13.1875 
Q 14.5 -2 17.703125 9.0625 
Q 20.90625 20.125 20.90625 31.390625 
Q 20.90625 42.671875 17.703125 53.65625 
Q 14.5 64.65625 8.015625 75.875 
z
" id="DejaVuSans-41"/>
      </defs>
      <use xlink:href="#DejaVuSans-80"/>
      <use x="56.677734" xlink:href="#DejaVuSans-111"/>
      <use x="117.859375" xlink:href="#DejaVuSans-115"/>
      <use x="169.958984" xlink:href="#DejaVuSans-105"/>
      <use x="197.742188" xlink:href="#DejaVuSans-116"/>
      <use x="236.951172" xlink:href="#DejaVuSans-105"/>
      <use x="264.734375" xlink:href="#DejaVuSans-111"/>
      <use x="325.916016" xlink:href="#DejaVuSans-110"/>
      <use x="389.294922" xlink:href="#DejaVuSans-32"/>
      <use x="421.082031" xlink:href="#DejaVuSans-105"/>
      <use x="448.865234" xlink:href="#DejaVuSans-110"/>
      <use x="512.244141" xlink:href="#DejaVuSans-32"/>
      <use x="544.03125" xlink:href="#DejaVuSans-82"/>
      <use x="609.013672" xlink:href="#DejaVuSans-101"/>
      <use x="670.537109" xlink:href="#DejaVuSans-97"/>
      <use x="731.816406" xlink:href="#DejaVuSans-100"/>
      <use x="795.292969" xlink:href="#DejaVuSans-32"/>
      <use x="827.080078" xlink:href="#DejaVuSans-40"/>
      <use x="866.09375" xlink:href="#DejaVuSans-98"/>
      <use x="929.570312" xlink:href="#DejaVuSans-112"/>
      <use x="993.046875" xlink:href="#DejaVuSans-41"/>
     </g>
    </g>
   </g>
   <g id="matplotlib.axis_2">
    <g id="ytick_1">
     <g id="line2d_1">
      <path clip-path="url(#p8d7dc14d8c)" d="M 32.968125 275.50206 
L 993.158125 275.50206 
" style="fill:none;stroke:#dedede;stroke-linecap:square;"/>
     </g>
     <g id="text_9">
      <!-- 0 -->
      <g transform="translate(20.878125 278.541435)scale(0.08 -0.08)">
       <use xlink:href="#DejaVuSans-48"/>
      </g>
     </g>
    </g>
    <g id="ytick_2">
     <g id="line2d_2">
      <path clip-path="url(#p8d7dc14d8c)" d="M 32.968125 226.71262 
L 993.158125 226.71262 
" style="fill:none;stroke:#dedede;stroke-linecap:square;"/>
     </g>
     <g id="text_10">
      <!-- 1 -->
      <g transform="translate(20.878125 229.751995)scale(0.08 -0.08)">
       <use xlink:href="#DejaVuSans-49"/>
      </g>
     </g>
    </g>
    <g id="ytick_3">
     <g id="line2d_3">
      <path clip-path="url(#p8d7dc14d8c)" d="M 32.968125 177.92318 
L 993.158125 177.92318 
" style="fill:none;stroke:#dedede;stroke-linecap:square;"/>
     </g>
     <g id="text_11">
      <!-- 2 -->
      <g transform="translate(20.878125 180.962555)scale(0.08 -0.08)">
       <use xlink:href="#DejaVuSans-50"/>
      </g>
     </g>
    </g>
    <g id="ytick_4">
     <g id="line2d_4">
      <path clip-path="url(#p8d7dc14d8c)" d="M 32.968125 129.13374 
L 993.158125 129.13374 
" style="fill:none;stroke:#dedede;stroke-linecap:square;"/>
     </g>
     <g id="text_12">
      <!-- 3 -->
      <g transform="translate(20.878125 132.173115)scale(0.08 -0.08)">
       <defs>
        <path d="M 40.578125 39.3125 
Q 47.65625 37.796875 51.625 33 
Q 55.609375 28.21875 55.609375 21.1875 
Q 55.609375 10.40625 48.1875 4.484375 
Q 40.765625 -1.421875 27.09375 -1.421875 
Q 22.515625 -1.421875 17.65625 -0.515625 
Q 12.796875 0.390625 7.625 2.203125 
L 7.625 11.71875 
Q 11.71875 9.328125 16.59375 8.109375 
Q 21.484375 6.890625 26.8125 6.890625 
Q 36.078125 6.890625 40.9375 10.546875 
Q 45.796875 14.203125 45.796875 21.1875 
Q 45.796875 27.640625 41.28125 31.265625 
Q 36.765625 34.90625 28.71875 34.90625 
L 20.21875 34.90625 
L 20.21875 43.015625 
L 29.109375 43.015625 
Q 36.375 43.015625 40.234375 45.921875 
Q 44.09375 48.828125 44.09375 54.296875 
Q 44.09375 59.90625 40.109375 62.90625 
Q 36.140625 65.921875 28.71875 65.921875 
Q 24.65625 65.921875 20.015625 65.03125 
Q 15.375 64.15625 9.8125 62.3125 
L 9.8125 71.09375 
Q 15.4375 72.65625 20.34375 73.4375 
Q 25.25 74.21875 29.59375 74.21875 
Q 40.828125 74.21875 47.359375 69.109375 
Q 53.90625 64.015625 53.90625 55.328125 
Q 53.90625 49.265625 50.4375 45.09375 
Q 46.96875 40.921875 40.578125 39.3125 
z
" id="DejaVuSans-51"/>
       </defs>
       <use xlink:href="#DejaVuSans-51"/>
      </g>
     </g>
    </g>
    <g id="ytick_5">
     <g id="line2d_5">
      <path clip-path="url(#p8d7dc14d8c)" d="M 32.968125 80.3443 
L 993.158125 80.3443 
" style="fill:none;stroke:#dedede;stroke-linecap:square;"/>
     </g>
     <g id="text_13">
      <!-- 4 -->
      <g transform="translate(20.878125 83.383675)scale(0.08 -0.08)">
       <use xlink:href="#DejaVuSans-52"/>
      </g>
     </g>
    </g>
    <g id="ytick_6">
     <g id="line2d_6">
      <path clip-path="url(#p8d7dc14d8c)" d="M 32.968125 31.55486 
L 993.158125 31.55486 
" style="fill:none;stroke:#dedede;stroke-linecap:square;"/>
     </g>
     <g id="text_14">
      <!-- 5 -->
      <g transform="translate(20.878125 34.594235)scale(0.08 -0.08)">
       <defs>
        <path d="M 10.796875 72.90625 
L 49.515625 72.90625 
L 49.515625 64.59375 
L 19.828125 64.59375 
L 19.828125 46.734375 
Q 21.96875 47.46875 24.109375 47.828125 
Q 26.265625 48.1875 28.421875 48.1875 
Q 40.625 48.1875 47.75 41.5 
Q 54.890625 34.8125 54.890625 23.390625 
Q 54.890625 11.625 47.5625 5.09375 
Q 40.234375 -1.421875 26.90625 -1.421875 
Q 22.3125 -1.421875 17.546875 -0.640625 
Q 12.796875 0.140625 7.71875 1.703125 
L 7.71875 11.625 
Q 12.109375 9.234375 16.796875 8.0625 
Q 21.484375 6.890625 26.703125 6.890625 
Q 35.15625 6.890625 40.078125 11.328125 
Q 45.015625 15.765625 45.015625 23.390625 
Q 45.015625 31 40.078125 35.4375 
Q 35.15625 39.890625 26.703125 39.890625 
Q 22.75 39.890625 18.8125 39.015625 
Q 14.890625 38.140625 10.796875 36.28125 
z
" id="DejaVuSans-53"/>
       </defs>
       <use xlink:href="#DejaVuSans-53"/>
      </g>
     </g>
    </g>
    <g id="text_15">
     <!-- Percentage N-Count -->
     <g transform="translate(14.798438 203.633148)rotate(-90)scale(0.1 -0.1)">
      <defs>
       <path d="M 41.109375 46.296875 
Q 39.59375 47.171875 37.8125 47.578125 
Q 36.03125 48 33.890625 48 
Q 26.265625 48 22.1875 43.046875 
Q 18.109375 38.09375 18.109375 28.8125 
L 18.109375 0 
L 9.078125 0 
L 9.078125 54.6875 
L 18.109375 54.6875 
L 18.109375 46.1875 
Q 20.953125 51.171875 25.484375 53.578125 
Q 30.03125 56 36.53125 56 
Q 37.453125 56 38.578125 55.875 
Q 39.703125 55.765625 41.0625 55.515625 
z
" id="DejaVuSans-114"/>
       <path d="M 48.78125 52.59375 
L 48.78125 44.1875 
Q 44.96875 46.296875 41.140625 47.34375 
Q 37.3125 48.390625 33.40625 48.390625 
Q 24.65625 48.390625 19.8125 42.84375 
Q 14.984375 37.3125 14.984375 27.296875 
Q 14.984375 17.28125 19.8125 11.734375 
Q 24.65625 6.203125 33.40625 6.203125 
Q 37.3125 6.203125 41.140625 7.25 
Q 44.96875 8.296875 48.78125 10.40625 
L 48.78125 2.09375 
Q 45.015625 0.34375 40.984375 -0.53125 
Q 36.96875 -1.421875 32.421875 -1.421875 
Q 20.0625 -1.421875 12.78125 6.34375 
Q 5.515625 14.109375 5.515625 27.296875 
Q 5.515625 40.671875 12.859375 48.328125 
Q 20.21875 56 33.015625 56 
Q 37.15625 56 41.109375 55.140625 
Q 45.0625 54.296875 48.78125 52.59375 
z
" id="DejaVuSans-99"/>
       <path d="M 45.40625 27.984375 
Q 45.40625 37.75 41.375 43.109375 
Q 37.359375 48.484375 30.078125 48.484375 
Q 22.859375 48.484375 18.828125 43.109375 
Q 14.796875 37.75 14.796875 27.984375 
Q 14.796875 18.265625 18.828125 12.890625 
Q 22.859375 7.515625 30.078125 7.515625 
Q 37.359375 7.515625 41.375 12.890625 
Q 45.40625 18.265625 45.40625 27.984375 
z
M 54.390625 6.78125 
Q 54.390625 -7.171875 48.1875 -13.984375 
Q 42 -20.796875 29.203125 -20.796875 
Q 24.46875 -20.796875 20.265625 -20.09375 
Q 16.0625 -19.390625 12.109375 -17.921875 
L 12.109375 -9.1875 
Q 16.0625 -11.328125 19.921875 -12.34375 
Q 23.78125 -13.375 27.78125 -13.375 
Q 36.625 -13.375 41.015625 -8.765625 
Q 45.40625 -4.15625 45.40625 5.171875 
L 45.40625 9.625 
Q 42.625 4.78125 38.28125 2.390625 
Q 33.9375 0 27.875 0 
Q 17.828125 0 11.671875 7.65625 
Q 5.515625 15.328125 5.515625 27.984375 
Q 5.515625 40.671875 11.671875 48.328125 
Q 17.828125 56 27.875 56 
Q 33.9375 56 38.28125 53.609375 
Q 42.625 51.21875 45.40625 46.390625 
L 45.40625 54.6875 
L 54.390625 54.6875 
z
" id="DejaVuSans-103"/>
       <path d="M 9.8125 72.90625 
L 23.09375 72.90625 
L 55.421875 11.921875 
L 55.421875 72.90625 
L 64.984375 72.90625 
L 64.984375 0 
L 51.703125 0 
L 19.390625 60.984375 
L 19.390625 0 
L 9.8125 0 
z
" id="DejaVuSans-78"/>
       <path d="M 4.890625 31.390625 
L 31.203125 31.390625 
L 31.203125 23.390625 
L 4.890625 23.390625 
z
" id="DejaVuSans-45"/>
       <path d="M 64.40625 67.28125 
L 64.40625 56.890625 
Q 59.421875 61.53125 53.78125 63.8125 
Q 48.140625 66.109375 41.796875 66.109375 
Q 29.296875 66.109375 22.65625 58.46875 
Q 16.015625 50.828125 16.015625 36.375 
Q 16.015625 21.96875 22.65625 14.328125 
Q 29.296875 6.6875 41.796875 6.6875 
Q 48.140625 6.6875 53.78125 8.984375 
Q 59.421875 11.28125 64.40625 15.921875 
L 64.40625 5.609375 
Q 59.234375 2.09375 53.4375 0.328125 
Q 47.65625 -1.421875 41.21875 -1.421875 
Q 24.65625 -1.421875 15.125 8.703125 
Q 5.609375 18.84375 5.609375 36.375 
Q 5.609375 53.953125 15.125 64.078125 
Q 24.65625 74.21875 41.21875 74.21875 
Q 47.75 74.21875 53.53125 72.484375 
Q 59.328125 70.75 64.40625 67.28125 
z
" id="DejaVuSans-67"/>
       <path d="M 8.5 21.578125 
L 8.5 54.6875 
L 17.484375 54.6875 
L 17.484375 21.921875 
Q 17.484375 14.15625 20.5 10.265625 
Q 23.53125 6.390625 29.59375 6.390625 
Q 36.859375 6.390625 41.078125 11.03125 
Q 45.3125 15.671875 45.3125 23.6875 
L 45.3125 54.6875 
L 54.296875 54.6875 
L 54.296875 0 
L 45.3125 0 
L 45.3125 8.40625 
Q 42.046875 3.421875 37.71875 1 
Q 33.40625 -1.421875 27.6875 -1.421875 
Q 18.265625 -1.421875 13.375 4.4375 
Q 8.5 10.296875 8.5 21.578125 
z
M 31.109375 56 
z
" id="DejaVuSans-117"/>
      </defs>
      <use xlink:href="#DejaVuSans-80"/>
      <use x="56.677734" xlink:href="#DejaVuSans-101"/>
      <use x="118.201172" xlink:href="#DejaVuSans-114"/>
      <use x="157.064453" xlink:href="#DejaVuSans-99"/>
      <use x="212.044922" xlink:href="#DejaVuSans-101"/>
      <use x="273.568359" xlink:href="#DejaVuSans-110"/>
      <use x="336.947266" xlink:href="#DejaVuSans-116"/>
      <use x="376.15625" xlink:href="#DejaVuSans-97"/>
      <use x="437.435547" xlink:href="#DejaVuSans-103"/>
      <use x="500.912109" xlink:href="#DejaVuSans-101"/>
      <use x="562.435547" xlink:href="#DejaVuSans-32"/>
      <use x="594.222656" xlink:href="#DejaVuSans-78"/>
      <use x="669.027344" xlink:href="#DejaVuSans-45"/>
      <use x="705.111328" xlink:href="#DejaVuSans-67"/>
      <use x="774.935547" xlink:href="#DejaVuSans-111"/>
      <use x="836.117188" xlink:href="#DejaVuSans-117"/>
      <use x="899.496094" xlink:href="#DejaVuSans-110"/>
      <use x="962.875" xlink:href="#DejaVuSans-116"/>
     </g>
    </g>
   </g>
   <g id="line2d_7">
    <path clip-path="url(#p8d7dc14d8c)" d="M 40.345689 275.50206 
L 47.723254 275.50206 
L 55.100818 275.50206 
L 62.478382 275.50206 
L 69.855947 275.499875 
L 77.233511 275.414666 
L 84.611075 275.42996 
L 91.98864 275.488951 
L 99.366204 275.50206 
L 106.743768 275.500968 
L 121.498897 275.494413 
L 136.254026 275.456178 
L 151.009155 275.463825 
L 165.764283 275.441977 
L 180.519412 275.392784 
L 195.274541 275.400334 
L 210.029669 275.38057 
L 224.784798 275.39475 
L 239.539927 275.39909 
L 254.295055 275.414392 
L 269.050184 275.44286 
L 283.805313 275.37813 
L 298.560442 275.394533 
L 313.31557 275.416437 
L 328.070699 275.364764 
L 342.825828 275.397628 
L 357.580956 275.431635 
L 372.336085 275.417243 
L 387.091214 275.402816 
L 401.846342 275.380617 
L 416.601471 275.46006 
L 431.3566 275.438993 
L 446.111729 275.442251 
L 460.866857 275.436643 
L 475.621986 275.451004 
L 490.377115 275.388724 
L 505.132243 275.426412 
L 519.887372 275.416275 
L 534.642501 275.342485 
L 549.397629 275.355635 
L 564.152758 275.434883 
L 578.907887 275.445982 
L 593.663016 275.3942 
L 608.418144 275.435643 
L 623.173273 275.42423 
L 637.928402 275.384507 
L 652.68353 275.393292 
L 667.438659 275.390717 
L 682.193788 275.407489 
L 696.948916 275.434631 
L 711.704045 275.397709 
L 726.459174 275.38126 
L 741.214302 275.422417 
L 755.969431 275.379296 
L 770.72456 275.390499 
L 785.479689 275.374938 
L 800.234817 275.354509 
L 814.989946 275.302015 
L 829.745075 275.328166 
L 844.500203 275.342649 
L 859.255332 275.412169 
L 874.010461 275.343489 
L 888.765589 275.359787 
L 903.520718 275.377075 
L 918.275847 275.338722 
L 933.030976 275.343409 
L 947.786104 275.464618 
" style="fill:none;stroke:#5cb85c;stroke-linecap:square;"/>
   </g>
   <g id="line2d_8">
    <path clip-path="url(#p8d7dc14d8c)" d="M 40.345689 275.50206 
L 47.723254 275.50206 
L 55.100818 275.50206 
L 62.478382 275.50206 
L 69.855947 275.50206 
L 77.233511 275.398302 
L 84.611075 275.398302 
L 91.98864 275.490741 
L 99.366204 275.50206 
L 106.743768 275.501117 
L 121.498897 275.494514 
L 136.254026 275.457727 
L 151.009155 275.469989 
L 165.764283 275.452067 
L 180.519412 275.387881 
L 195.274541 275.415111 
L 210.029669 275.361982 
L 224.784798 275.374117 
L 239.539927 275.394843 
L 254.295055 275.412789 
L 269.050184 275.430777 
L 283.805313 275.369866 
L 298.560442 275.399296 
L 313.31557 275.403052 
L 328.070699 275.357266 
L 342.825828 275.404802 
L 357.580956 275.426642 
L 372.336085 275.412214 
L 387.091214 275.389149 
L 401.846342 275.386155 
L 416.601471 275.450283 
L 431.3566 275.434883 
L 446.111729 275.433866 
L 460.866857 275.443414 
L 475.621986 275.442396 
L 490.377115 275.390325 
L 505.132243 275.418166 
L 519.887372 275.428675 
L 534.642501 275.325043 
L 549.397629 275.359629 
L 564.152758 275.448684 
L 578.907887 275.442761 
L 593.663016 275.39593 
L 608.418144 275.440617 
L 623.173273 275.421946 
L 637.928402 275.383627 
L 652.68353 275.385343 
L 667.438659 275.395873 
L 682.193788 275.420255 
L 696.948916 275.422005 
L 711.704045 275.384091 
L 726.459174 275.363865 
L 741.214302 275.391415 
L 755.969431 275.362148 
L 770.72456 275.374793 
L 785.479689 275.342215 
L 800.234817 275.354718 
L 814.989946 275.309279 
L 829.745075 275.333696 
L 844.500203 275.312197 
L 859.255332 275.402755 
L 874.010461 275.315034 
L 888.765589 275.333834 
L 903.520718 275.351361 
L 918.275847 275.329874 
L 933.030976 275.3621 
L 947.786104 275.473029 
" style="fill:none;stroke:#5cb85c;stroke-linecap:square;"/>
   </g>
   <g id="line2d_9">
    <path clip-path="url(#p8d7dc14d8c)" d="M 40.345689 275.50206 
L 47.723254 275.50206 
L 55.100818 275.50206 
L 62.478382 275.50206 
L 69.855947 275.50084 
L 77.233511 275.422746 
L 84.611075 275.404443 
L 91.98864 275.488638 
L 99.366204 275.50206 
L 106.743768 275.499009 
L 121.498897 275.494129 
L 136.254026 275.465454 
L 151.009155 275.466674 
L 165.764283 275.453862 
L 180.519412 275.404415 
L 195.274541 275.403712 
L 210.029669 275.372479 
L 224.784798 275.393214 
L 239.539927 275.413362 
L 254.295055 275.421287 
L 269.050184 275.451252 
L 283.805313 275.388771 
L 298.560442 275.391789 
L 313.31557 275.419933 
L 328.070699 275.368375 
L 342.825828 275.392816 
L 357.580956 275.425881 
L 372.336085 275.415958 
L 387.091214 275.393085 
L 401.846342 275.368314 
L 416.601471 275.441593 
L 431.3566 275.432882 
L 446.111729 275.427865 
L 460.866857 275.425931 
L 475.621986 275.432662 
L 490.377115 275.366838 
L 505.132243 275.427535 
L 519.887372 275.417478 
L 534.642501 275.324506 
L 549.397629 275.367883 
L 564.152758 275.45455 
L 578.907887 275.446954 
L 593.663016 275.386641 
L 608.418144 275.441108 
L 623.173273 275.412663 
L 637.928402 275.391666 
L 652.68353 275.388887 
L 667.438659 275.374641 
L 682.193788 275.424506 
L 696.948916 275.42683 
L 711.704045 275.371576 
L 726.459174 275.364079 
L 741.214302 275.408701 
L 755.969431 275.34575 
L 770.72456 275.363385 
L 785.479689 275.333633 
L 800.234817 275.332332 
L 814.989946 275.268549 
L 829.745075 275.31011 
L 844.500203 275.289812 
L 859.255332 275.405184 
L 874.010461 275.300931 
L 888.765589 275.327703 
L 903.520718 275.351009 
L 918.275847 275.306752 
L 933.030976 275.347099 
L 947.786104 275.458925 
" style="fill:none;stroke:#5cb85c;stroke-linecap:square;"/>
   </g>
   <g id="line2d_10">
    <path clip-path="url(#p8d7dc14d8c)" d="M 40.345689 275.50206 
L 47.723254 275.50206 
L 55.100818 275.50206 
L 62.478382 275.50206 
L 69.855947 275.50206 
L 77.233511 275.461438 
L 84.611075 275.391801 
L 91.98864 275.496257 
L 99.366204 275.50206 
L 106.743768 275.50206 
L 121.498897 275.499158 
L 136.254026 275.484651 
L 151.009155 275.484651 
L 165.764283 275.46434 
L 180.519412 275.397585 
L 195.274541 275.435269 
L 210.029669 275.371314 
L 224.784798 275.409051 
L 239.539927 275.423559 
L 254.295055 275.426444 
L 269.050184 275.449694 
L 283.805313 275.371099 
L 298.560442 275.388522 
L 313.31557 275.3943 
L 328.070699 275.35636 
L 342.825828 275.391234 
L 357.580956 275.434906 
L 372.336085 275.4056 
L 387.091214 275.396718 
L 401.846342 275.373176 
L 416.601471 275.455145 
L 431.3566 275.437491 
L 446.111729 275.431554 
L 460.866857 275.440301 
L 475.621986 275.457898 
L 490.377115 275.378275 
L 505.132243 275.431243 
L 519.887372 275.440006 
L 534.642501 275.365863 
L 549.397629 275.368529 
L 564.152758 275.460422 
L 578.907887 275.448395 
L 593.663016 275.415391 
L 608.418144 275.457127 
L 623.173273 275.433 
L 637.928402 275.390704 
L 652.68353 275.381369 
L 667.438659 275.39919 
L 682.193788 275.426209 
L 696.948916 275.419887 
L 711.704045 275.392111 
L 726.459174 275.361095 
L 741.214302 275.425208 
L 755.969431 275.354068 
L 770.72456 275.375267 
L 785.479689 275.35622 
L 800.234817 275.343127 
L 814.989946 275.314011 
L 829.745075 275.331733 
L 844.500203 275.327461 
L 859.255332 275.377207 
L 874.010461 275.311057 
L 888.765589 275.328034 
L 903.520718 275.341276 
L 918.275847 275.305311 
L 933.030976 275.350734 
L 947.786104 275.430569 
" style="fill:none;stroke:#5cb85c;stroke-linecap:square;"/>
   </g>
   <g id="line2d_11">
    <path clip-path="url(#p8d7dc14d8c)" d="M 40.345689 275.50206 
L 47.723254 275.50206 
L 55.100818 275.50206 
L 62.478382 275.50206 
L 69.855947 275.499262 
L 77.233511 275.423727 
L 84.611075 275.395751 
L 91.98864 275.488072 
L 99.366204 275.50206 
L 106.743768 275.497864 
L 121.498897 275.493667 
L 136.254026 275.458697 
L 151.009155 275.457298 
L 165.764283 275.450304 
L 180.519412 275.384538 
L 195.274541 275.416655 
L 210.029669 275.361963 
L 224.784798 275.359084 
L 239.539927 275.392674 
L 254.295055 275.39824 
L 269.050184 275.441708 
L 283.805313 275.38131 
L 298.560442 275.393906 
L 313.31557 275.419154 
L 328.070699 275.381152 
L 342.825828 275.407797 
L 357.580956 275.438689 
L 372.336085 275.418888 
L 387.091214 275.410336 
L 401.846342 275.387641 
L 416.601471 275.44833 
L 431.3566 275.414317 
L 446.111729 275.422737 
L 460.866857 275.43542 
L 475.621986 275.450967 
L 490.377115 275.37278 
L 505.132243 275.42952 
L 519.887372 275.426567 
L 534.642501 275.327975 
L 549.397629 275.364836 
L 564.152758 275.447644 
L 578.907887 275.453281 
L 593.663016 275.394252 
L 608.418144 275.440129 
L 623.173273 275.416903 
L 637.928402 275.393577 
L 652.68353 275.410708 
L 667.438659 275.381366 
L 682.193788 275.440804 
L 696.948916 275.439129 
L 711.704045 275.416861 
L 726.459174 275.37528 
L 741.214302 275.410357 
L 755.969431 275.350733 
L 770.72456 275.385982 
L 785.479689 275.36316 
L 800.234817 275.343067 
L 814.989946 275.293892 
L 829.745075 275.327562 
L 844.500203 275.312798 
L 859.255332 275.403663 
L 874.010461 275.323614 
L 888.765589 275.352867 
L 903.520718 275.364746 
L 918.275847 275.321737 
L 933.030976 275.358769 
L 947.786104 275.470845 
" style="fill:none;stroke:#5cb85c;stroke-linecap:square;"/>
   </g>
   <g id="line2d_12">
    <path clip-path="url(#p8d7dc14d8c)" d="M 40.345689 275.50206 
L 47.723254 275.50206 
L 55.100818 275.50206 
L 62.478382 275.50206 
L 69.855947 275.50206 
L 77.233511 275.425358 
L 84.611075 275.38304 
L 91.98864 275.490158 
L 99.366204 275.50206 
L 106.743768 275.498754 
L 121.498897 275.493464 
L 136.254026 275.472966 
L 151.009155 275.467015 
L 165.764283 275.455113 
L 180.519412 275.389611 
L 195.274541 275.406031 
L 210.029669 275.352933 
L 224.784798 275.378722 
L 239.539927 275.407198 
L 254.295055 275.41446 
L 269.050184 275.438987 
L 283.805313 275.377187 
L 298.560442 275.389755 
L 313.31557 275.404321 
L 328.070699 275.364999 
L 342.825828 275.405486 
L 357.580956 275.436704 
L 372.336085 275.423931 
L 387.091214 275.411795 
L 401.846342 275.394947 
L 416.601471 275.459163 
L 431.3566 275.45643 
L 446.111729 275.442274 
L 460.866857 275.429427 
L 475.621986 275.426651 
L 490.377115 275.38275 
L 505.132243 275.410943 
L 519.887372 275.409451 
L 534.642501 275.323956 
L 549.397629 275.367049 
L 564.152758 275.451086 
L 578.907887 275.439419 
L 593.663016 275.384054 
L 608.418144 275.434407 
L 623.173273 275.427429 
L 637.928402 275.392971 
L 652.68353 275.393409 
L 667.438659 275.401392 
L 682.193788 275.410791 
L 696.948916 275.433402 
L 711.704045 275.377511 
L 726.459174 275.35826 
L 741.214302 275.392107 
L 755.969431 275.346778 
L 770.72456 275.377992 
L 785.479689 275.340756 
L 800.234817 275.358586 
L 814.989946 275.286535 
L 829.745075 275.314052 
L 844.500203 275.286986 
L 859.255332 275.409744 
L 874.010461 275.308249 
L 888.765589 275.356947 
L 903.520718 275.346634 
L 918.275847 275.322088 
L 933.030976 275.343726 
L 947.786104 275.469076 
" style="fill:none;stroke:#5cb85c;stroke-linecap:square;"/>
   </g>
   <g id="line2d_13">
    <path clip-path="url(#p8d7dc14d8c)" d="M 40.345689 275.50206 
L 47.723254 275.50206 
L 55.100818 275.50206 
L 62.478382 275.50206 
L 69.855947 275.499647 
L 77.233511 275.430476 
L 84.611075 275.400716 
L 91.98864 275.488387 
L 99.366204 275.50206 
L 106.743768 275.499245 
L 121.498897 275.49281 
L 136.254026 275.46667 
L 151.009155 275.465866 
L 165.764283 275.449377 
L 180.519412 275.394659 
L 195.274541 275.403019 
L 210.029669 275.361856 
L 224.784798 275.395238 
L 239.539927 275.385512 
L 254.295055 275.419353 
L 269.050184 275.440711 
L 283.805313 275.374468 
L 298.560442 275.392192 
L 313.31557 275.412351 
L 328.070699 275.364185 
L 342.825828 275.392392 
L 357.580956 275.435621 
L 372.336085 275.42419 
L 387.091214 275.396492 
L 401.846342 275.395559 
L 416.601471 275.45445 
L 431.3566 275.45196 
L 446.111729 275.435603 
L 460.866857 275.435533 
L 475.621986 275.44568 
L 490.377115 275.391226 
L 505.132243 275.422618 
L 519.887372 275.42988 
L 534.642501 275.334027 
L 549.397629 275.366666 
L 564.152758 275.452178 
L 578.907887 275.448371 
L 593.663016 275.392423 
L 608.418144 275.447764 
L 623.173273 275.424821 
L 637.928402 275.408445 
L 652.68353 275.414071 
L 667.438659 275.403391 
L 682.193788 275.434145 
L 696.948916 275.433938 
L 711.704045 275.39531 
L 726.459174 275.377594 
L 741.214302 275.416696 
L 755.969431 275.367877 
L 770.72456 275.389249 
L 785.479689 275.368273 
L 800.234817 275.356096 
L 814.989946 275.307303 
L 829.745075 275.333679 
L 844.500203 275.324902 
L 859.255332 275.419258 
L 874.010461 275.320778 
L 888.765589 275.347849 
L 903.520718 275.359834 
L 918.275847 275.341046 
L 933.030976 275.350244 
L 947.786104 275.471585 
" style="fill:none;stroke:#5cb85c;stroke-linecap:square;"/>
   </g>
   <g id="line2d_14">
    <path clip-path="url(#p8d7dc14d8c)" d="M 40.345689 275.50206 
L 47.723254 275.50206 
L 55.100818 275.50206 
L 62.478382 275.50206 
L 69.855947 275.50206 
L 77.233511 275.423084 
L 84.611075 275.367143 
L 91.98864 275.485607 
L 99.366204 275.50206 
L 106.743768 275.495479 
L 121.498897 275.488897 
L 136.254026 275.457636 
L 151.009155 275.457636 
L 165.764283 275.432956 
L 180.519412 275.385225 
L 195.274541 275.385168 
L 210.029669 275.348896 
L 224.784798 275.390042 
L 239.539927 275.383428 
L 254.295055 275.401532 
L 269.050184 275.439421 
L 283.805313 275.340482 
L 298.560442 275.386621 
L 313.31557 275.403082 
L 328.070699 275.327124 
L 342.825828 275.381508 
L 357.580956 275.42769 
L 372.336085 275.39621 
L 387.091214 275.399445 
L 401.846342 275.377841 
L 416.601471 275.449022 
L 431.3566 275.442353 
L 446.111729 275.434015 
L 460.866857 275.422341 
L 475.621986 275.440567 
L 490.377115 275.385635 
L 505.132243 275.427152 
L 519.887372 275.430402 
L 534.642501 275.330194 
L 549.397629 275.370069 
L 564.152758 275.445182 
L 578.907887 275.455159 
L 593.663016 275.374585 
L 608.418144 275.448307 
L 623.173273 275.422985 
L 637.928402 275.384092 
L 652.68353 275.414256 
L 667.438659 275.397134 
L 682.193788 275.444384 
L 696.948916 275.427224 
L 711.704045 275.404837 
L 726.459174 275.380626 
L 741.214302 275.431753 
L 755.969431 275.388593 
L 770.72456 275.402078 
L 785.479689 275.362008 
L 800.234817 275.359792 
L 814.989946 275.315626 
L 829.745075 275.341061 
L 844.500203 275.326279 
L 859.255332 275.404836 
L 874.010461 275.3097 
L 888.765589 275.358043 
L 903.520718 275.386894 
L 918.275847 275.333322 
L 933.030976 275.338722 
L 947.786104 275.463605 
" style="fill:none;stroke:#5cb85c;stroke-linecap:square;"/>
   </g>
   <g id="line2d_15">
    <path clip-path="url(#p8d7dc14d8c)" d="M 40.345689 275.50206 
L 47.723254 275.50206 
L 55.100818 275.50206 
L 62.478382 275.50206 
L 69.855947 275.50206 
L 77.233511 275.445813 
L 84.611075 275.392526 
L 91.98864 275.490218 
L 99.366204 275.50206 
L 106.743768 275.4991 
L 121.498897 275.487258 
L 136.254026 275.447293 
L 151.009155 275.459135 
L 165.764283 275.445813 
L 180.519412 275.411732 
L 195.274541 275.401234 
L 210.029669 275.389288 
L 224.784798 275.405566 
L 239.539927 275.417412 
L 254.295055 275.430755 
L 269.050184 275.460452 
L 283.805313 275.408409 
L 298.560442 275.417297 
L 313.31557 275.420236 
L 328.070699 275.387438 
L 342.825828 275.405209 
L 357.580956 275.433437 
L 372.336085 275.415437 
L 387.091214 275.394407 
L 401.846342 275.386811 
L 416.601471 275.452621 
L 431.3566 275.455577 
L 446.111729 275.436024 
L 460.866857 275.443468 
L 475.621986 275.459952 
L 490.377115 275.404218 
L 505.132243 275.453836 
L 519.887372 275.440182 
L 534.642501 275.353881 
L 549.397629 275.386955 
L 564.152758 275.458065 
L 578.907887 275.45951 
L 593.663016 275.413775 
L 608.418144 275.451745 
L 623.173273 275.419582 
L 637.928402 275.410242 
L 652.68353 275.408506 
L 667.438659 275.392897 
L 682.193788 275.435776 
L 696.948916 275.438675 
L 711.704045 275.399705 
L 726.459174 275.374512 
L 741.214302 275.416267 
L 755.969431 275.35503 
L 770.72456 275.384404 
L 785.479689 275.328914 
L 800.234817 275.348759 
L 814.989946 275.276487 
L 829.745075 275.329591 
L 844.500203 275.299758 
L 859.255332 275.416346 
L 874.010461 275.324094 
L 888.765589 275.333398 
L 903.520718 275.337102 
L 918.275847 275.33254 
L 933.030976 275.340268 
L 947.786104 275.467617 
" style="fill:none;stroke:#5cb85c;stroke-linecap:square;"/>
   </g>
   <g id="line2d_16">
    <path clip-path="url(#p8d7dc14d8c)" d="M 40.345689 275.50206 
L 47.723254 275.50206 
L 55.100818 275.50206 
L 62.478382 275.50206 
L 69.855947 275.50206 
L 77.233511 275.50206 
L 84.611075 275.50206 
L 91.98864 275.50206 
L 99.366204 275.50206 
L 106.743768 275.50206 
L 121.498897 275.50206 
L 136.254026 275.50206 
L 151.009155 275.50206 
L 165.764283 275.50206 
L 180.519412 275.50206 
L 195.274541 275.50206 
L 210.029669 275.50206 
L 224.784798 275.50206 
L 239.539927 275.50206 
L 254.295055 275.50206 
L 269.050184 275.50206 
L 283.805313 275.50206 
L 298.560442 275.50206 
L 313.31557 275.50206 
L 328.070699 275.50206 
L 342.825828 275.50206 
L 357.580956 275.50206 
L 372.336085 275.50206 
L 387.091214 275.50206 
L 401.846342 275.50206 
L 416.601471 275.50206 
L 431.3566 275.50206 
L 446.111729 275.50206 
L 460.866857 275.50206 
L 475.621986 275.50206 
L 490.377115 275.50206 
L 505.132243 275.50206 
L 519.887372 275.50206 
L 534.642501 275.50206 
L 549.397629 275.50206 
L 564.152758 275.50206 
L 578.907887 275.50206 
L 593.663016 275.50206 
L 608.418144 275.50206 
L 623.173273 275.50206 
L 637.928402 275.50206 
L 652.68353 273.487216 
L 667.438659 275.50206 
L 682.193788 275.50206 
L 696.948916 275.50206 
L 711.704045 274.477287 
L 726.459174 275.50206 
L 741.214302 275.50206 
L 755.969431 275.50206 
L 770.72456 273.416596 
L 785.479689 274.455076 
L 800.234817 275.50206 
L 814.989946 274.44418 
L 829.745075 274.437021 
L 844.500203 275.50206 
L 859.255332 275.50206 
L 874.010461 274.412524 
L 888.765589 274.396225 
L 903.520718 274.372675 
L 918.275847 274.335407 
L 933.030976 274.255842 
L 947.786104 275.50206 
" style="fill:none;stroke:#5cb85c;stroke-linecap:square;"/>
   </g>
   <g id="line2d_17">
    <path clip-path="url(#p8d7dc14d8c)" d="M 40.345689 275.50206 
L 47.723254 275.50206 
L 55.100818 275.50206 
L 62.478382 275.50206 
L 69.855947 275.50206 
L 77.233511 275.404871 
L 84.611075 275.41567 
L 91.98864 275.491261 
L 99.366204 275.50206 
L 106.743768 275.49936 
L 121.498897 275.49936 
L 136.254026 275.462914 
L 151.009155 275.471014 
L 165.764283 275.471014 
L 180.519412 275.410255 
L 195.274541 275.418302 
L 210.029669 275.369603 
L 224.784798 275.397944 
L 239.539927 275.404672 
L 254.295055 275.433055 
L 269.050184 275.443856 
L 283.805313 275.400504 
L 298.560442 275.388273 
L 313.31557 275.41397 
L 328.070699 275.362389 
L 342.825828 275.397551 
L 357.580956 275.432761 
L 372.336085 275.436762 
L 387.091214 275.382212 
L 401.846342 275.391628 
L 416.601471 275.446107 
L 431.3566 275.44469 
L 446.111729 275.4214 
L 460.866857 275.426792 
L 475.621986 275.440415 
L 490.377115 275.40882 
L 505.132243 275.42793 
L 519.887372 275.43195 
L 534.642501 275.345051 
L 549.397629 275.404077 
L 564.152758 275.452281 
L 578.907887 275.44386 
L 593.663016 275.397908 
L 608.418144 275.453352 
L 623.173273 275.425341 
L 637.928402 275.404186 
L 652.68353 275.410943 
L 667.438659 275.390977 
L 682.193788 275.416012 
L 696.948916 275.438358 
L 711.704045 275.4239 
L 726.459174 275.375119 
L 741.214302 275.423356 
L 755.969431 275.381484 
L 770.72456 275.395495 
L 785.479689 275.367626 
L 800.234817 275.378624 
L 814.989946 275.320843 
L 829.745075 275.347531 
L 844.500203 275.347909 
L 859.255332 275.413796 
L 874.010461 275.338496 
L 888.765589 275.363631 
L 903.520718 275.362238 
L 918.275847 275.331843 
L 933.030976 275.34736 
L 947.786104 275.472662 
" style="fill:none;stroke:#5cb85c;stroke-linecap:square;"/>
   </g>
   <g id="line2d_18">
    <path clip-path="url(#p8d7dc14d8c)" d="M 40.345689 275.50206 
L 47.723254 275.50206 
L 55.100818 275.50206 
L 62.478382 275.50206 
L 69.855947 275.50206 
L 77.233511 275.413303 
L 84.611075 275.374336 
L 91.98864 275.493401 
L 99.366204 275.50206 
L 106.743768 275.499895 
L 121.498897 275.493942 
L 136.254026 275.462011 
L 151.009155 275.467964 
L 165.764283 275.454434 
L 180.519412 275.395413 
L 195.274541 275.405606 
L 210.029669 275.375168 
L 224.784798 275.388119 
L 239.539927 275.407066 
L 254.295055 275.424402 
L 269.050184 275.442839 
L 283.805313 275.38628 
L 298.560442 275.401455 
L 313.31557 275.418268 
L 328.070699 275.36594 
L 342.825828 275.40068 
L 357.580956 275.433835 
L 372.336085 275.427723 
L 387.091214 275.40463 
L 401.846342 275.394626 
L 416.601471 275.457055 
L 431.3566 275.44271 
L 446.111729 275.435481 
L 460.866857 275.435376 
L 475.621986 275.452948 
L 490.377115 275.411997 
L 505.132243 275.418503 
L 519.887372 275.426121 
L 534.642501 275.352661 
L 549.397629 275.382423 
L 564.152758 275.455225 
L 578.907887 275.447868 
L 593.663016 275.401856 
L 608.418144 275.439232 
L 623.173273 275.432351 
L 637.928402 275.401772 
L 652.68353 275.399831 
L 667.438659 275.402378 
L 682.193788 275.432195 
L 696.948916 275.444506 
L 711.704045 275.387682 
L 726.459174 275.377526 
L 741.214302 275.417993 
L 755.969431 275.359962 
L 770.72456 275.383252 
L 785.479689 275.35779 
L 800.234817 275.372348 
L 814.989946 275.303987 
L 829.745075 275.325746 
L 844.500203 275.325169 
L 859.255332 275.419745 
L 874.010461 275.331262 
L 888.765589 275.360122 
L 903.520718 275.350792 
L 918.275847 275.333817 
L 933.030976 275.347729 
L 947.786104 275.459577 
" style="fill:none;stroke:#5cb85c;stroke-linecap:square;"/>
   </g>
   <g id="line2d_19">
    <path clip-path="url(#p8d7dc14d8c)" d="M 32.968125 275.50206 
L 993.158125 275.50206 
" style="fill:none;stroke:#dedede;stroke-linecap:square;stroke-width:2;"/>
   </g>
   <g id="text_16">
    <!-- FastQC: Per Base N Content -->
    <g transform="translate(402.209375 19.3575)scale(0.16 -0.16)">
     <defs>
      <path d="M 9.8125 72.90625 
L 51.703125 72.90625 
L 51.703125 64.59375 
L 19.671875 64.59375 
L 19.671875 43.109375 
L 48.578125 43.109375 
L 48.578125 34.8125 
L 19.671875 34.8125 
L 19.671875 0 
L 9.8125 0 
z
" id="DejaVuSans-70"/>
      <path d="M 39.40625 66.21875 
Q 28.65625 66.21875 22.328125 58.203125 
Q 16.015625 50.203125 16.015625 36.375 
Q 16.015625 22.609375 22.328125 14.59375 
Q 28.65625 6.59375 39.40625 6.59375 
Q 50.140625 6.59375 56.421875 14.59375 
Q 62.703125 22.609375 62.703125 36.375 
Q 62.703125 50.203125 56.421875 58.203125 
Q 50.140625 66.21875 39.40625 66.21875 
z
M 53.21875 1.3125 
L 66.21875 -12.890625 
L 54.296875 -12.890625 
L 43.5 -1.21875 
Q 41.890625 -1.3125 41.03125 -1.359375 
Q 40.1875 -1.421875 39.40625 -1.421875 
Q 24.03125 -1.421875 14.8125 8.859375 
Q 5.609375 19.140625 5.609375 36.375 
Q 5.609375 53.65625 14.8125 63.9375 
Q 24.03125 74.21875 39.40625 74.21875 
Q 54.734375 74.21875 63.90625 63.9375 
Q 73.09375 53.65625 73.09375 36.375 
Q 73.09375 23.6875 67.984375 14.640625 
Q 62.890625 5.609375 53.21875 1.3125 
z
" id="DejaVuSans-81"/>
      <path d="M 11.71875 12.40625 
L 22.015625 12.40625 
L 22.015625 0 
L 11.71875 0 
z
M 11.71875 51.703125 
L 22.015625 51.703125 
L 22.015625 39.3125 
L 11.71875 39.3125 
z
" id="DejaVuSans-58"/>
      <path d="M 19.671875 34.8125 
L 19.671875 8.109375 
L 35.5 8.109375 
Q 43.453125 8.109375 47.28125 11.40625 
Q 51.125 14.703125 51.125 21.484375 
Q 51.125 28.328125 47.28125 31.5625 
Q 43.453125 34.8125 35.5 34.8125 
z
M 19.671875 64.796875 
L 19.671875 42.828125 
L 34.28125 42.828125 
Q 41.5 42.828125 45.03125 45.53125 
Q 48.578125 48.25 48.578125 53.8125 
Q 48.578125 59.328125 45.03125 62.0625 
Q 41.5 64.796875 34.28125 64.796875 
z
M 9.8125 72.90625 
L 35.015625 72.90625 
Q 46.296875 72.90625 52.390625 68.21875 
Q 58.5 63.53125 58.5 54.890625 
Q 58.5 48.1875 55.375 44.234375 
Q 52.25 40.28125 46.1875 39.3125 
Q 53.46875 37.75 57.5 32.78125 
Q 61.53125 27.828125 61.53125 20.40625 
Q 61.53125 10.640625 54.890625 5.3125 
Q 48.25 0 35.984375 0 
L 9.8125 0 
z
" id="DejaVuSans-66"/>
     </defs>
     <use xlink:href="#DejaVuSans-70"/>
     <use x="48.394531" xlink:href="#DejaVuSans-97"/>
     <use x="109.673828" xlink:href="#DejaVuSans-115"/>
     <use x="161.773438" xlink:href="#DejaVuSans-116"/>
     <use x="200.982422" xlink:href="#DejaVuSans-81"/>
     <use x="279.693359" xlink:href="#DejaVuSans-67"/>
     <use x="349.517578" xlink:href="#DejaVuSans-58"/>
     <use x="383.208984" xlink:href="#DejaVuSans-32"/>
     <use x="414.996094" xlink:href="#DejaVuSans-80"/>
     <use x="471.673828" xlink:href="#DejaVuSans-101"/>
     <use x="533.197266" xlink:href="#DejaVuSans-114"/>
     <use x="574.310547" xlink:href="#DejaVuSans-32"/>
     <use x="606.097656" xlink:href="#DejaVuSans-66"/>
     <use x="674.701172" xlink:href="#DejaVuSans-97"/>
     <use x="735.980469" xlink:href="#DejaVuSans-115"/>
     <use x="788.080078" xlink:href="#DejaVuSans-101"/>
     <use x="849.603516" xlink:href="#DejaVuSans-32"/>
     <use x="881.390625" xlink:href="#DejaVuSans-78"/>
     <use x="956.195312" xlink:href="#DejaVuSans-32"/>
     <use x="987.982422" xlink:href="#DejaVuSans-67"/>
     <use x="1057.806641" xlink:href="#DejaVuSans-111"/>
     <use x="1118.988281" xlink:href="#DejaVuSans-110"/>
     <use x="1182.367188" xlink:href="#DejaVuSans-116"/>
     <use x="1221.576172" xlink:href="#DejaVuSans-101"/>
     <use x="1283.099609" xlink:href="#DejaVuSans-110"/>
     <use x="1346.478516" xlink:href="#DejaVuSans-116"/>
    </g>
   </g>
   <g id="legend_1">
    <g id="line2d_20">
     <path d="M 40.168125 293.354194 
L 56.168125 293.354194 
" style="fill:none;stroke:#5cb85c;stroke-linecap:square;"/>
    </g>
    <g id="line2d_21"/>
    <g id="text_17">
     <!-- RTS0_BC_AGCAAC -->
     <g transform="translate(62.568125 296.154194)scale(0.08 -0.08)">
      <defs>
       <path d="M -0.296875 72.90625 
L 61.375 72.90625 
L 61.375 64.59375 
L 35.5 64.59375 
L 35.5 0 
L 25.59375 0 
L 25.59375 64.59375 
L -0.296875 64.59375 
z
" id="DejaVuSans-84"/>
       <path d="M 53.515625 70.515625 
L 53.515625 60.890625 
Q 47.90625 63.578125 42.921875 64.890625 
Q 37.9375 66.21875 33.296875 66.21875 
Q 25.25 66.21875 20.875 63.09375 
Q 16.5 59.96875 16.5 54.203125 
Q 16.5 49.359375 19.40625 46.890625 
Q 22.3125 44.4375 30.421875 42.921875 
L 36.375 41.703125 
Q 47.40625 39.59375 52.65625 34.296875 
Q 57.90625 29 57.90625 20.125 
Q 57.90625 9.515625 50.796875 4.046875 
Q 43.703125 -1.421875 29.984375 -1.421875 
Q 24.8125 -1.421875 18.96875 -0.25 
Q 13.140625 0.921875 6.890625 3.21875 
L 6.890625 13.375 
Q 12.890625 10.015625 18.65625 8.296875 
Q 24.421875 6.59375 29.984375 6.59375 
Q 38.421875 6.59375 43.015625 9.90625 
Q 47.609375 13.234375 47.609375 19.390625 
Q 47.609375 24.75 44.3125 27.78125 
Q 41.015625 30.8125 33.5 32.328125 
L 27.484375 33.5 
Q 16.453125 35.6875 11.515625 40.375 
Q 6.59375 45.0625 6.59375 53.421875 
Q 6.59375 63.09375 13.40625 68.65625 
Q 20.21875 74.21875 32.171875 74.21875 
Q 37.3125 74.21875 42.625 73.28125 
Q 47.953125 72.359375 53.515625 70.515625 
z
" id="DejaVuSans-83"/>
       <path d="M 50.984375 -16.609375 
L 50.984375 -23.578125 
L -0.984375 -23.578125 
L -0.984375 -16.609375 
z
" id="DejaVuSans-95"/>
       <path d="M 34.1875 63.1875 
L 20.796875 26.90625 
L 47.609375 26.90625 
z
M 28.609375 72.90625 
L 39.796875 72.90625 
L 67.578125 0 
L 57.328125 0 
L 50.6875 18.703125 
L 17.828125 18.703125 
L 11.1875 0 
L 0.78125 0 
z
" id="DejaVuSans-65"/>
       <path d="M 59.515625 10.40625 
L 59.515625 29.984375 
L 43.40625 29.984375 
L 43.40625 38.09375 
L 69.28125 38.09375 
L 69.28125 6.78125 
Q 63.578125 2.734375 56.6875 0.65625 
Q 49.8125 -1.421875 42 -1.421875 
Q 24.90625 -1.421875 15.25 8.5625 
Q 5.609375 18.5625 5.609375 36.375 
Q 5.609375 54.25 15.25 64.234375 
Q 24.90625 74.21875 42 74.21875 
Q 49.125 74.21875 55.546875 72.453125 
Q 61.96875 70.703125 67.390625 67.28125 
L 67.390625 56.78125 
Q 61.921875 61.421875 55.765625 63.765625 
Q 49.609375 66.109375 42.828125 66.109375 
Q 29.4375 66.109375 22.71875 58.640625 
Q 16.015625 51.171875 16.015625 36.375 
Q 16.015625 21.625 22.71875 14.15625 
Q 29.4375 6.6875 42.828125 6.6875 
Q 48.046875 6.6875 52.140625 7.59375 
Q 56.25 8.5 59.515625 10.40625 
z
" id="DejaVuSans-71"/>
      </defs>
      <use xlink:href="#DejaVuSans-82"/>
      <use x="62.232422" xlink:href="#DejaVuSans-84"/>
      <use x="123.316406" xlink:href="#DejaVuSans-83"/>
      <use x="186.792969" xlink:href="#DejaVuSans-48"/>
      <use x="250.416016" xlink:href="#DejaVuSans-95"/>
      <use x="300.416016" xlink:href="#DejaVuSans-66"/>
      <use x="367.269531" xlink:href="#DejaVuSans-67"/>
      <use x="437.09375" xlink:href="#DejaVuSans-95"/>
      <use x="487.09375" xlink:href="#DejaVuSans-65"/>
      <use x="553.751953" xlink:href="#DejaVuSans-71"/>
      <use x="631.242188" xlink:href="#DejaVuSans-67"/>
      <use x="701.066406" xlink:href="#DejaVuSans-65"/>
      <use x="772.224609" xlink:href="#DejaVuSans-65"/>
      <use x="838.882812" xlink:href="#DejaVuSans-67"/>
     </g>
    </g>
    <g id="line2d_22">
     <path d="M 40.168125 305.319194 
L 56.168125 305.319194 
" style="fill:none;stroke:#5cb85c;stroke-linecap:square;"/>
    </g>
    <g id="line2d_23"/>
    <g id="text_18">
     <!-- RTS0_BC_ATCGTG -->
     <g transform="translate(62.568125 308.119194)scale(0.08 -0.08)">
      <use xlink:href="#DejaVuSans-82"/>
      <use x="62.232422" xlink:href="#DejaVuSans-84"/>
      <use x="123.316406" xlink:href="#DejaVuSans-83"/>
      <use x="186.792969" xlink:href="#DejaVuSans-48"/>
      <use x="250.416016" xlink:href="#DejaVuSans-95"/>
      <use x="300.416016" xlink:href="#DejaVuSans-66"/>
      <use x="367.269531" xlink:href="#DejaVuSans-67"/>
      <use x="437.09375" xlink:href="#DejaVuSans-95"/>
      <use x="487.09375" xlink:href="#DejaVuSans-65"/>
      <use x="547.751953" xlink:href="#DejaVuSans-84"/>
      <use x="602.960938" xlink:href="#DejaVuSans-67"/>
      <use x="672.785156" xlink:href="#DejaVuSans-71"/>
      <use x="746.650391" xlink:href="#DejaVuSans-84"/>
      <use x="807.734375" xlink:href="#DejaVuSans-71"/>
     </g>
    </g>
    <g id="line2d_24">
     <path d="M 40.168125 317.284194 
L 56.168125 317.284194 
" style="fill:none;stroke:#5cb85c;stroke-linecap:square;"/>
    </g>
    <g id="line2d_25"/>
    <g id="text_19">
     <!-- RTS0_BC_CCACTA -->
     <g transform="translate(62.568125 320.084194)scale(0.08 -0.08)">
      <use xlink:href="#DejaVuSans-82"/>
      <use x="62.232422" xlink:href="#DejaVuSans-84"/>
      <use x="123.316406" xlink:href="#DejaVuSans-83"/>
      <use x="186.792969" xlink:href="#DejaVuSans-48"/>
      <use x="250.416016" xlink:href="#DejaVuSans-95"/>
      <use x="300.416016" xlink:href="#DejaVuSans-66"/>
      <use x="367.269531" xlink:href="#DejaVuSans-67"/>
      <use x="437.09375" xlink:href="#DejaVuSans-95"/>
      <use x="487.09375" xlink:href="#DejaVuSans-67"/>
      <use x="556.917969" xlink:href="#DejaVuSans-67"/>
      <use x="626.742188" xlink:href="#DejaVuSans-65"/>
      <use x="693.400391" xlink:href="#DejaVuSans-67"/>
      <use x="763.224609" xlink:href="#DejaVuSans-84"/>
      <use x="816.558594" xlink:href="#DejaVuSans-65"/>
     </g>
    </g>
    <g id="line2d_26">
     <path d="M 252.793438 293.354194 
L 268.793437 293.354194 
" style="fill:none;stroke:#5cb85c;stroke-linecap:square;"/>
    </g>
    <g id="line2d_27"/>
    <g id="text_20">
     <!-- RTS0_BC_CCTATG -->
     <g transform="translate(275.193438 296.154194)scale(0.08 -0.08)">
      <use xlink:href="#DejaVuSans-82"/>
      <use x="62.232422" xlink:href="#DejaVuSans-84"/>
      <use x="123.316406" xlink:href="#DejaVuSans-83"/>
      <use x="186.792969" xlink:href="#DejaVuSans-48"/>
      <use x="250.416016" xlink:href="#DejaVuSans-95"/>
      <use x="300.416016" xlink:href="#DejaVuSans-66"/>
      <use x="367.269531" xlink:href="#DejaVuSans-67"/>
      <use x="437.09375" xlink:href="#DejaVuSans-95"/>
      <use x="487.09375" xlink:href="#DejaVuSans-67"/>
      <use x="556.917969" xlink:href="#DejaVuSans-67"/>
      <use x="626.742188" xlink:href="#DejaVuSans-84"/>
      <use x="680.076172" xlink:href="#DejaVuSans-65"/>
      <use x="740.734375" xlink:href="#DejaVuSans-84"/>
      <use x="801.818359" xlink:href="#DejaVuSans-71"/>
     </g>
    </g>
    <g id="line2d_28">
     <path d="M 252.793438 305.319194 
L 268.793437 305.319194 
" style="fill:none;stroke:#5cb85c;stroke-linecap:square;"/>
    </g>
    <g id="line2d_29"/>
    <g id="text_21">
     <!-- RTS0_BC_CGTCCG -->
     <g transform="translate(275.193438 308.119194)scale(0.08 -0.08)">
      <use xlink:href="#DejaVuSans-82"/>
      <use x="62.232422" xlink:href="#DejaVuSans-84"/>
      <use x="123.316406" xlink:href="#DejaVuSans-83"/>
      <use x="186.792969" xlink:href="#DejaVuSans-48"/>
      <use x="250.416016" xlink:href="#DejaVuSans-95"/>
      <use x="300.416016" xlink:href="#DejaVuSans-66"/>
      <use x="367.269531" xlink:href="#DejaVuSans-67"/>
      <use x="437.09375" xlink:href="#DejaVuSans-95"/>
      <use x="487.09375" xlink:href="#DejaVuSans-67"/>
      <use x="556.917969" xlink:href="#DejaVuSans-71"/>
      <use x="630.783203" xlink:href="#DejaVuSans-84"/>
      <use x="685.992188" xlink:href="#DejaVuSans-67"/>
      <use x="755.816406" xlink:href="#DejaVuSans-67"/>
      <use x="825.640625" xlink:href="#DejaVuSans-71"/>
     </g>
    </g>
    <g id="line2d_30">
     <path d="M 252.793438 317.284194 
L 268.793437 317.284194 
" style="fill:none;stroke:#5cb85c;stroke-linecap:square;"/>
    </g>
    <g id="line2d_31"/>
    <g id="text_22">
     <!-- RTS0_BC_CTTACA -->
     <g transform="translate(275.193438 320.084194)scale(0.08 -0.08)">
      <use xlink:href="#DejaVuSans-82"/>
      <use x="62.232422" xlink:href="#DejaVuSans-84"/>
      <use x="123.316406" xlink:href="#DejaVuSans-83"/>
      <use x="186.792969" xlink:href="#DejaVuSans-48"/>
      <use x="250.416016" xlink:href="#DejaVuSans-95"/>
      <use x="300.416016" xlink:href="#DejaVuSans-66"/>
      <use x="367.269531" xlink:href="#DejaVuSans-67"/>
      <use x="437.09375" xlink:href="#DejaVuSans-95"/>
      <use x="487.09375" xlink:href="#DejaVuSans-67"/>
      <use x="556.917969" xlink:href="#DejaVuSans-84"/>
      <use x="616.251953" xlink:href="#DejaVuSans-84"/>
      <use x="669.585938" xlink:href="#DejaVuSans-65"/>
      <use x="736.244141" xlink:href="#DejaVuSans-67"/>
      <use x="806.068359" xlink:href="#DejaVuSans-65"/>
     </g>
    </g>
    <g id="line2d_32">
     <path d="M 464.9725 293.354194 
L 480.9725 293.354194 
" style="fill:none;stroke:#5cb85c;stroke-linecap:square;"/>
    </g>
    <g id="line2d_33"/>
    <g id="text_23">
     <!-- RTS0_BC_GACGCG -->
     <g transform="translate(487.3725 296.154194)scale(0.08 -0.08)">
      <use xlink:href="#DejaVuSans-82"/>
      <use x="62.232422" xlink:href="#DejaVuSans-84"/>
      <use x="123.316406" xlink:href="#DejaVuSans-83"/>
      <use x="186.792969" xlink:href="#DejaVuSans-48"/>
      <use x="250.416016" xlink:href="#DejaVuSans-95"/>
      <use x="300.416016" xlink:href="#DejaVuSans-66"/>
      <use x="367.269531" xlink:href="#DejaVuSans-67"/>
      <use x="437.09375" xlink:href="#DejaVuSans-95"/>
      <use x="487.09375" xlink:href="#DejaVuSans-71"/>
      <use x="564.583984" xlink:href="#DejaVuSans-65"/>
      <use x="631.242188" xlink:href="#DejaVuSans-67"/>
      <use x="701.066406" xlink:href="#DejaVuSans-71"/>
      <use x="778.556641" xlink:href="#DejaVuSans-67"/>
      <use x="848.380859" xlink:href="#DejaVuSans-71"/>
     </g>
    </g>
    <g id="line2d_34">
     <path d="M 464.9725 305.319194 
L 480.9725 305.319194 
" style="fill:none;stroke:#5cb85c;stroke-linecap:square;"/>
    </g>
    <g id="line2d_35"/>
    <g id="text_24">
     <!-- RTS0_BC_GGAGGC -->
     <g transform="translate(487.3725 308.119194)scale(0.08 -0.08)">
      <use xlink:href="#DejaVuSans-82"/>
      <use x="62.232422" xlink:href="#DejaVuSans-84"/>
      <use x="123.316406" xlink:href="#DejaVuSans-83"/>
      <use x="186.792969" xlink:href="#DejaVuSans-48"/>
      <use x="250.416016" xlink:href="#DejaVuSans-95"/>
      <use x="300.416016" xlink:href="#DejaVuSans-66"/>
      <use x="367.269531" xlink:href="#DejaVuSans-67"/>
      <use x="437.09375" xlink:href="#DejaVuSans-95"/>
      <use x="487.09375" xlink:href="#DejaVuSans-71"/>
      <use x="564.583984" xlink:href="#DejaVuSans-71"/>
      <use x="642.074219" xlink:href="#DejaVuSans-65"/>
      <use x="708.732422" xlink:href="#DejaVuSans-71"/>
      <use x="786.222656" xlink:href="#DejaVuSans-71"/>
      <use x="863.712891" xlink:href="#DejaVuSans-67"/>
     </g>
    </g>
    <g id="line2d_36">
     <path d="M 679.582813 293.354194 
L 695.582813 293.354194 
" style="fill:none;stroke:#5cb85c;stroke-linecap:square;"/>
    </g>
    <g id="line2d_37"/>
    <g id="text_25">
     <!-- RTS0_BC_GTGAGG -->
     <g transform="translate(701.982813 296.154194)scale(0.08 -0.08)">
      <use xlink:href="#DejaVuSans-82"/>
      <use x="62.232422" xlink:href="#DejaVuSans-84"/>
      <use x="123.316406" xlink:href="#DejaVuSans-83"/>
      <use x="186.792969" xlink:href="#DejaVuSans-48"/>
      <use x="250.416016" xlink:href="#DejaVuSans-95"/>
      <use x="300.416016" xlink:href="#DejaVuSans-66"/>
      <use x="367.269531" xlink:href="#DejaVuSans-67"/>
      <use x="437.09375" xlink:href="#DejaVuSans-95"/>
      <use x="487.09375" xlink:href="#DejaVuSans-71"/>
      <use x="560.958984" xlink:href="#DejaVuSans-84"/>
      <use x="622.042969" xlink:href="#DejaVuSans-71"/>
      <use x="699.533203" xlink:href="#DejaVuSans-65"/>
      <use x="766.191406" xlink:href="#DejaVuSans-71"/>
      <use x="843.681641" xlink:href="#DejaVuSans-71"/>
     </g>
    </g>
    <g id="line2d_38">
     <path d="M 679.582813 305.319194 
L 695.582813 305.319194 
" style="fill:none;stroke:#5cb85c;stroke-linecap:square;"/>
    </g>
    <g id="line2d_39"/>
    <g id="text_26">
     <!-- RTS0_BC_TAGGGG -->
     <g transform="translate(701.982813 308.119194)scale(0.08 -0.08)">
      <use xlink:href="#DejaVuSans-82"/>
      <use x="62.232422" xlink:href="#DejaVuSans-84"/>
      <use x="123.316406" xlink:href="#DejaVuSans-83"/>
      <use x="186.792969" xlink:href="#DejaVuSans-48"/>
      <use x="250.416016" xlink:href="#DejaVuSans-95"/>
      <use x="300.416016" xlink:href="#DejaVuSans-66"/>
      <use x="367.269531" xlink:href="#DejaVuSans-67"/>
      <use x="437.09375" xlink:href="#DejaVuSans-95"/>
      <use x="487.09375" xlink:href="#DejaVuSans-84"/>
      <use x="540.427734" xlink:href="#DejaVuSans-65"/>
      <use x="607.085938" xlink:href="#DejaVuSans-71"/>
      <use x="684.576172" xlink:href="#DejaVuSans-71"/>
      <use x="762.066406" xlink:href="#DejaVuSans-71"/>
      <use x="839.556641" xlink:href="#DejaVuSans-71"/>
     </g>
    </g>
    <g id="line2d_40">
     <path d="M 893.203125 293.354194 
L 909.203125 293.354194 
" style="fill:none;stroke:#5cb85c;stroke-linecap:square;"/>
    </g>
    <g id="line2d_41"/>
    <g id="text_27">
     <!-- RTS0_BC_TCCTAG -->
     <g transform="translate(915.603125 296.154194)scale(0.08 -0.08)">
      <use xlink:href="#DejaVuSans-82"/>
      <use x="62.232422" xlink:href="#DejaVuSans-84"/>
      <use x="123.316406" xlink:href="#DejaVuSans-83"/>
      <use x="186.792969" xlink:href="#DejaVuSans-48"/>
      <use x="250.416016" xlink:href="#DejaVuSans-95"/>
      <use x="300.416016" xlink:href="#DejaVuSans-66"/>
      <use x="367.269531" xlink:href="#DejaVuSans-67"/>
      <use x="437.09375" xlink:href="#DejaVuSans-95"/>
      <use x="487.09375" xlink:href="#DejaVuSans-84"/>
      <use x="542.302734" xlink:href="#DejaVuSans-67"/>
      <use x="612.126953" xlink:href="#DejaVuSans-67"/>
      <use x="681.951172" xlink:href="#DejaVuSans-84"/>
      <use x="735.285156" xlink:href="#DejaVuSans-65"/>
      <use x="801.943359" xlink:href="#DejaVuSans-71"/>
     </g>
    </g>
    <g id="line2d_42">
     <path d="M 893.203125 305.319194 
L 909.203125 305.319194 
" style="fill:none;stroke:#5cb85c;stroke-linecap:square;"/>
    </g>
    <g id="line2d_43"/>
    <g id="text_28">
     <!-- RTS0_BC_TGTTTG -->
     <g transform="translate(915.603125 308.119194)scale(0.08 -0.08)">
      <use xlink:href="#DejaVuSans-82"/>
      <use x="62.232422" xlink:href="#DejaVuSans-84"/>
      <use x="123.316406" xlink:href="#DejaVuSans-83"/>
      <use x="186.792969" xlink:href="#DejaVuSans-48"/>
      <use x="250.416016" xlink:href="#DejaVuSans-95"/>
      <use x="300.416016" xlink:href="#DejaVuSans-66"/>
      <use x="367.269531" xlink:href="#DejaVuSans-67"/>
      <use x="437.09375" xlink:href="#DejaVuSans-95"/>
      <use x="487.09375" xlink:href="#DejaVuSans-84"/>
      <use x="548.177734" xlink:href="#DejaVuSans-71"/>
      <use x="622.042969" xlink:href="#DejaVuSans-84"/>
      <use x="681.376953" xlink:href="#DejaVuSans-84"/>
      <use x="740.710938" xlink:href="#DejaVuSans-84"/>
      <use x="801.794922" xlink:href="#DejaVuSans-71"/>
     </g>
    </g>
   </g>
  </g>
 </g>
 <defs>
  <clipPath id="p8d7dc14d8c">
   <rect height="243.9472" width="960.19" x="32.968125" y="31.55486"/>
  </clipPath>
 </defs>
</svg>
