<?xml version="1.0" encoding="utf-8" standalone="no"?>
<!DOCTYPE svg PUBLIC "-//W3C//DTD SVG 1.1//EN"
  "http://www.w3.org/Graphics/SVG/1.1/DTD/svg11.dtd">
<!-- Created with matplotlib (https://matplotlib.org/) -->
<svg height="332.370444pt" version="1.1" viewBox="0 0 1000.415625 332.370444" width="1000.415625pt" xmlns="http://www.w3.org/2000/svg" xmlns:xlink="http://www.w3.org/1999/xlink">
 <metadata>
  <rdf:RDF xmlns:cc="http://creativecommons.org/ns#" xmlns:dc="http://purl.org/dc/elements/1.1/" xmlns:rdf="http://www.w3.org/1999/02/22-rdf-syntax-ns#">
   <cc:Work>
    <dc:type rdf:resource="http://purl.org/dc/dcmitype/StillImage"/>
    <dc:date>2020-09-26T22:33:13.655592</dc:date>
    <dc:format>image/svg+xml</dc:format>
    <dc:creator>
     <cc:Agent>
      <dc:title>Matplotlib v3.3.1, https://matplotlib.org/</dc:title>
     </cc:Agent>
    </dc:creator>
   </cc:Work>
  </rdf:RDF>
 </metadata>
 <defs>
  <style type="text/css">*{stroke-linecap:butt;stroke-linejoin:round;}</style>
 </defs>
 <g id="figure_1">
  <g id="axes_1">
   <g id="patch_1">
    <path d="M 40.600625 275.50206 
L 985.580625 275.50206 
L 985.580625 31.55486 
L 40.600625 31.55486 
z
" style="fill:#ffffff;"/>
   </g>
   <g id="matplotlib.axis_1">
    <g id="xtick_1">
     <g id="text_1">
      <!-- 0 -->
      <g transform="translate(38.055625 288.58081)scale(0.08 -0.08)">
       <defs>
        <path d="M 31.78125 66.40625 
Q 24.171875 66.40625 20.328125 58.90625 
Q 16.5 51.421875 16.5 36.375 
Q 16.5 21.390625 20.328125 13.890625 
Q 24.171875 6.390625 31.78125 6.390625 
Q 39.453125 6.390625 43.28125 13.890625 
Q 47.125 21.390625 47.125 36.375 
Q 47.125 51.421875 43.28125 58.90625 
Q 39.453125 66.40625 31.78125 66.40625 
z
M 31.78125 74.21875 
Q 44.046875 74.21875 50.515625 64.515625 
Q 56.984375 54.828125 56.984375 36.375 
Q 56.984375 17.96875 50.515625 8.265625 
Q 44.046875 -1.421875 31.78125 -1.421875 
Q 19.53125 -1.421875 13.0625 8.265625 
Q 6.59375 17.96875 6.59375 36.375 
Q 6.59375 54.828125 13.0625 64.515625 
Q 19.53125 74.21875 31.78125 74.21875 
z
" id="DejaVuSans-48"/>
       </defs>
       <use xlink:href="#DejaVuSans-48"/>
      </g>
     </g>
    </g>
    <g id="xtick_2">
     <g id="text_2">
      <!-- 20 -->
      <g transform="translate(224.506625 288.58081)scale(0.08 -0.08)">
       <defs>
        <path d="M 19.1875 8.296875 
L 53.609375 8.296875 
L 53.609375 0 
L 7.328125 0 
L 7.328125 8.296875 
Q 12.9375 14.109375 22.625 23.890625 
Q 32.328125 33.6875 34.8125 36.53125 
Q 39.546875 41.84375 41.421875 45.53125 
Q 43.3125 49.21875 43.3125 52.78125 
Q 43.3125 58.59375 39.234375 62.25 
Q 35.15625 65.921875 28.609375 65.921875 
Q 23.96875 65.921875 18.8125 64.3125 
Q 13.671875 62.703125 7.8125 59.421875 
L 7.8125 69.390625 
Q 13.765625 71.78125 18.9375 73 
Q 24.125 74.21875 28.421875 74.21875 
Q 39.75 74.21875 46.484375 68.546875 
Q 53.21875 62.890625 53.21875 53.421875 
Q 53.21875 48.921875 51.53125 44.890625 
Q 49.859375 40.875 45.40625 35.40625 
Q 44.1875 33.984375 37.640625 27.21875 
Q 31.109375 20.453125 19.1875 8.296875 
z
" id="DejaVuSans-50"/>
       </defs>
       <use xlink:href="#DejaVuSans-50"/>
       <use x="63.623047" xlink:href="#DejaVuSans-48"/>
      </g>
     </g>
    </g>
    <g id="xtick_3">
     <g id="text_3">
      <!-- 40 -->
      <g transform="translate(413.502625 288.58081)scale(0.08 -0.08)">
       <defs>
        <path d="M 37.796875 64.3125 
L 12.890625 25.390625 
L 37.796875 25.390625 
z
M 35.203125 72.90625 
L 47.609375 72.90625 
L 47.609375 25.390625 
L 58.015625 25.390625 
L 58.015625 17.1875 
L 47.609375 17.1875 
L 47.609375 0 
L 37.796875 0 
L 37.796875 17.1875 
L 4.890625 17.1875 
L 4.890625 26.703125 
z
" id="DejaVuSans-52"/>
       </defs>
       <use xlink:href="#DejaVuSans-52"/>
       <use x="63.623047" xlink:href="#DejaVuSans-48"/>
      </g>
     </g>
    </g>
    <g id="xtick_4">
     <g id="text_4">
      <!-- 60 -->
      <g transform="translate(602.498625 288.58081)scale(0.08 -0.08)">
       <defs>
        <path d="M 33.015625 40.375 
Q 26.375 40.375 22.484375 35.828125 
Q 18.609375 31.296875 18.609375 23.390625 
Q 18.609375 15.53125 22.484375 10.953125 
Q 26.375 6.390625 33.015625 6.390625 
Q 39.65625 6.390625 43.53125 10.953125 
Q 47.40625 15.53125 47.40625 23.390625 
Q 47.40625 31.296875 43.53125 35.828125 
Q 39.65625 40.375 33.015625 40.375 
z
M 52.59375 71.296875 
L 52.59375 62.3125 
Q 48.875 64.0625 45.09375 64.984375 
Q 41.3125 65.921875 37.59375 65.921875 
Q 27.828125 65.921875 22.671875 59.328125 
Q 17.53125 52.734375 16.796875 39.40625 
Q 19.671875 43.65625 24.015625 45.921875 
Q 28.375 48.1875 33.59375 48.1875 
Q 44.578125 48.1875 50.953125 41.515625 
Q 57.328125 34.859375 57.328125 23.390625 
Q 57.328125 12.15625 50.6875 5.359375 
Q 44.046875 -1.421875 33.015625 -1.421875 
Q 20.359375 -1.421875 13.671875 8.265625 
Q 6.984375 17.96875 6.984375 36.375 
Q 6.984375 53.65625 15.1875 63.9375 
Q 23.390625 74.21875 37.203125 74.21875 
Q 40.921875 74.21875 44.703125 73.484375 
Q 48.484375 72.75 52.59375 71.296875 
z
" id="DejaVuSans-54"/>
       </defs>
       <use xlink:href="#DejaVuSans-54"/>
       <use x="63.623047" xlink:href="#DejaVuSans-48"/>
      </g>
     </g>
    </g>
    <g id="xtick_5">
     <g id="text_5">
      <!-- 80 -->
      <g transform="translate(791.494625 288.58081)scale(0.08 -0.08)">
       <defs>
        <path d="M 31.78125 34.625 
Q 24.75 34.625 20.71875 30.859375 
Q 16.703125 27.09375 16.703125 20.515625 
Q 16.703125 13.921875 20.71875 10.15625 
Q 24.75 6.390625 31.78125 6.390625 
Q 38.8125 6.390625 42.859375 10.171875 
Q 46.921875 13.96875 46.921875 20.515625 
Q 46.921875 27.09375 42.890625 30.859375 
Q 38.875 34.625 31.78125 34.625 
z
M 21.921875 38.8125 
Q 15.578125 40.375 12.03125 44.71875 
Q 8.5 49.078125 8.5 55.328125 
Q 8.5 64.0625 14.71875 69.140625 
Q 20.953125 74.21875 31.78125 74.21875 
Q 42.671875 74.21875 48.875 69.140625 
Q 55.078125 64.0625 55.078125 55.328125 
Q 55.078125 49.078125 51.53125 44.71875 
Q 48 40.375 41.703125 38.8125 
Q 48.828125 37.15625 52.796875 32.3125 
Q 56.78125 27.484375 56.78125 20.515625 
Q 56.78125 9.90625 50.3125 4.234375 
Q 43.84375 -1.421875 31.78125 -1.421875 
Q 19.734375 -1.421875 13.25 4.234375 
Q 6.78125 9.90625 6.78125 20.515625 
Q 6.78125 27.484375 10.78125 32.3125 
Q 14.796875 37.15625 21.921875 38.8125 
z
M 18.3125 54.390625 
Q 18.3125 48.734375 21.84375 45.5625 
Q 25.390625 42.390625 31.78125 42.390625 
Q 38.140625 42.390625 41.71875 45.5625 
Q 45.3125 48.734375 45.3125 54.390625 
Q 45.3125 60.0625 41.71875 63.234375 
Q 38.140625 66.40625 31.78125 66.40625 
Q 25.390625 66.40625 21.84375 63.234375 
Q 18.3125 60.0625 18.3125 54.390625 
z
" id="DejaVuSans-56"/>
       </defs>
       <use xlink:href="#DejaVuSans-56"/>
       <use x="63.623047" xlink:href="#DejaVuSans-48"/>
      </g>
     </g>
    </g>
    <g id="xtick_6">
     <g id="text_6">
      <!-- 100 -->
      <g transform="translate(977.945625 288.58081)scale(0.08 -0.08)">
       <defs>
        <path d="M 12.40625 8.296875 
L 28.515625 8.296875 
L 28.515625 63.921875 
L 10.984375 60.40625 
L 10.984375 69.390625 
L 28.421875 72.90625 
L 38.28125 72.90625 
L 38.28125 8.296875 
L 54.390625 8.296875 
L 54.390625 0 
L 12.40625 0 
z
" id="DejaVuSans-49"/>
       </defs>
       <use xlink:href="#DejaVuSans-49"/>
       <use x="63.623047" xlink:href="#DejaVuSans-48"/>
       <use x="127.246094" xlink:href="#DejaVuSans-48"/>
      </g>
     </g>
    </g>
    <g id="text_7">
     <!-- % GC -->
     <g transform="translate(499.385156 301.842998)scale(0.1 -0.1)">
      <defs>
       <path d="M 72.703125 32.078125 
Q 68.453125 32.078125 66.03125 28.46875 
Q 63.625 24.859375 63.625 18.40625 
Q 63.625 12.0625 66.03125 8.421875 
Q 68.453125 4.78125 72.703125 4.78125 
Q 76.859375 4.78125 79.265625 8.421875 
Q 81.6875 12.0625 81.6875 18.40625 
Q 81.6875 24.8125 79.265625 28.4375 
Q 76.859375 32.078125 72.703125 32.078125 
z
M 72.703125 38.28125 
Q 80.421875 38.28125 84.953125 32.90625 
Q 89.5 27.546875 89.5 18.40625 
Q 89.5 9.28125 84.9375 3.921875 
Q 80.375 -1.421875 72.703125 -1.421875 
Q 64.890625 -1.421875 60.34375 3.921875 
Q 55.8125 9.28125 55.8125 18.40625 
Q 55.8125 27.59375 60.375 32.9375 
Q 64.9375 38.28125 72.703125 38.28125 
z
M 22.3125 68.015625 
Q 18.109375 68.015625 15.6875 64.375 
Q 13.28125 60.75 13.28125 54.390625 
Q 13.28125 47.953125 15.671875 44.328125 
Q 18.0625 40.71875 22.3125 40.71875 
Q 26.5625 40.71875 28.96875 44.328125 
Q 31.390625 47.953125 31.390625 54.390625 
Q 31.390625 60.6875 28.953125 64.34375 
Q 26.515625 68.015625 22.3125 68.015625 
z
M 66.40625 74.21875 
L 74.21875 74.21875 
L 28.609375 -1.421875 
L 20.796875 -1.421875 
z
M 22.3125 74.21875 
Q 30.03125 74.21875 34.609375 68.875 
Q 39.203125 63.53125 39.203125 54.390625 
Q 39.203125 45.171875 34.640625 39.84375 
Q 30.078125 34.515625 22.3125 34.515625 
Q 14.546875 34.515625 10.03125 39.859375 
Q 5.515625 45.21875 5.515625 54.390625 
Q 5.515625 63.484375 10.046875 68.84375 
Q 14.59375 74.21875 22.3125 74.21875 
z
" id="DejaVuSans-37"/>
       <path id="DejaVuSans-32"/>
       <path d="M 59.515625 10.40625 
L 59.515625 29.984375 
L 43.40625 29.984375 
L 43.40625 38.09375 
L 69.28125 38.09375 
L 69.28125 6.78125 
Q 63.578125 2.734375 56.6875 0.65625 
Q 49.8125 -1.421875 42 -1.421875 
Q 24.90625 -1.421875 15.25 8.5625 
Q 5.609375 18.5625 5.609375 36.375 
Q 5.609375 54.25 15.25 64.234375 
Q 24.90625 74.21875 42 74.21875 
Q 49.125 74.21875 55.546875 72.453125 
Q 61.96875 70.703125 67.390625 67.28125 
L 67.390625 56.78125 
Q 61.921875 61.421875 55.765625 63.765625 
Q 49.609375 66.109375 42.828125 66.109375 
Q 29.4375 66.109375 22.71875 58.640625 
Q 16.015625 51.171875 16.015625 36.375 
Q 16.015625 21.625 22.71875 14.15625 
Q 29.4375 6.6875 42.828125 6.6875 
Q 48.046875 6.6875 52.140625 7.59375 
Q 56.25 8.5 59.515625 10.40625 
z
" id="DejaVuSans-71"/>
       <path d="M 64.40625 67.28125 
L 64.40625 56.890625 
Q 59.421875 61.53125 53.78125 63.8125 
Q 48.140625 66.109375 41.796875 66.109375 
Q 29.296875 66.109375 22.65625 58.46875 
Q 16.015625 50.828125 16.015625 36.375 
Q 16.015625 21.96875 22.65625 14.328125 
Q 29.296875 6.6875 41.796875 6.6875 
Q 48.140625 6.6875 53.78125 8.984375 
Q 59.421875 11.28125 64.40625 15.921875 
L 64.40625 5.609375 
Q 59.234375 2.09375 53.4375 0.328125 
Q 47.65625 -1.421875 41.21875 -1.421875 
Q 24.65625 -1.421875 15.125 8.703125 
Q 5.609375 18.84375 5.609375 36.375 
Q 5.609375 53.953125 15.125 64.078125 
Q 24.65625 74.21875 41.21875 74.21875 
Q 47.75 74.21875 53.53125 72.484375 
Q 59.328125 70.75 64.40625 67.28125 
z
" id="DejaVuSans-67"/>
      </defs>
      <use xlink:href="#DejaVuSans-37"/>
      <use x="95.019531" xlink:href="#DejaVuSans-32"/>
      <use x="126.806641" xlink:href="#DejaVuSans-71"/>
      <use x="204.296875" xlink:href="#DejaVuSans-67"/>
     </g>
    </g>
   </g>
   <g id="matplotlib.axis_2">
    <g id="ytick_1">
     <g id="line2d_1">
      <path clip-path="url(#p494baea330)" d="M 40.600625 275.50206 
L 985.580625 275.50206 
" style="fill:none;stroke:#dedede;stroke-linecap:square;"/>
     </g>
     <g id="text_8">
      <!-- 0.0 -->
      <g transform="translate(20.878125 278.541435)scale(0.08 -0.08)">
       <defs>
        <path d="M 10.6875 12.40625 
L 21 12.40625 
L 21 0 
L 10.6875 0 
z
" id="DejaVuSans-46"/>
       </defs>
       <use xlink:href="#DejaVuSans-48"/>
       <use x="63.623047" xlink:href="#DejaVuSans-46"/>
       <use x="95.410156" xlink:href="#DejaVuSans-48"/>
      </g>
     </g>
    </g>
    <g id="ytick_2">
     <g id="line2d_2">
      <path clip-path="url(#p494baea330)" d="M 40.600625 243.399007 
L 985.580625 243.399007 
" style="fill:none;stroke:#dedede;stroke-linecap:square;"/>
     </g>
     <g id="text_9">
      <!-- 0.5 -->
      <g transform="translate(20.878125 246.438382)scale(0.08 -0.08)">
       <defs>
        <path d="M 10.796875 72.90625 
L 49.515625 72.90625 
L 49.515625 64.59375 
L 19.828125 64.59375 
L 19.828125 46.734375 
Q 21.96875 47.46875 24.109375 47.828125 
Q 26.265625 48.1875 28.421875 48.1875 
Q 40.625 48.1875 47.75 41.5 
Q 54.890625 34.8125 54.890625 23.390625 
Q 54.890625 11.625 47.5625 5.09375 
Q 40.234375 -1.421875 26.90625 -1.421875 
Q 22.3125 -1.421875 17.546875 -0.640625 
Q 12.796875 0.140625 7.71875 1.703125 
L 7.71875 11.625 
Q 12.109375 9.234375 16.796875 8.0625 
Q 21.484375 6.890625 26.703125 6.890625 
Q 35.15625 6.890625 40.078125 11.328125 
Q 45.015625 15.765625 45.015625 23.390625 
Q 45.015625 31 40.078125 35.4375 
Q 35.15625 39.890625 26.703125 39.890625 
Q 22.75 39.890625 18.8125 39.015625 
Q 14.890625 38.140625 10.796875 36.28125 
z
" id="DejaVuSans-53"/>
       </defs>
       <use xlink:href="#DejaVuSans-48"/>
       <use x="63.623047" xlink:href="#DejaVuSans-46"/>
       <use x="95.410156" xlink:href="#DejaVuSans-53"/>
      </g>
     </g>
    </g>
    <g id="ytick_3">
     <g id="line2d_3">
      <path clip-path="url(#p494baea330)" d="M 40.600625 211.295954 
L 985.580625 211.295954 
" style="fill:none;stroke:#dedede;stroke-linecap:square;"/>
     </g>
     <g id="text_10">
      <!-- 1.0 -->
      <g transform="translate(20.878125 214.335329)scale(0.08 -0.08)">
       <use xlink:href="#DejaVuSans-49"/>
       <use x="63.623047" xlink:href="#DejaVuSans-46"/>
       <use x="95.410156" xlink:href="#DejaVuSans-48"/>
      </g>
     </g>
    </g>
    <g id="ytick_4">
     <g id="line2d_4">
      <path clip-path="url(#p494baea330)" d="M 40.600625 179.192902 
L 985.580625 179.192902 
" style="fill:none;stroke:#dedede;stroke-linecap:square;"/>
     </g>
     <g id="text_11">
      <!-- 1.5 -->
      <g transform="translate(20.878125 182.232277)scale(0.08 -0.08)">
       <use xlink:href="#DejaVuSans-49"/>
       <use x="63.623047" xlink:href="#DejaVuSans-46"/>
       <use x="95.410156" xlink:href="#DejaVuSans-53"/>
      </g>
     </g>
    </g>
    <g id="ytick_5">
     <g id="line2d_5">
      <path clip-path="url(#p494baea330)" d="M 40.600625 147.089849 
L 985.580625 147.089849 
" style="fill:none;stroke:#dedede;stroke-linecap:square;"/>
     </g>
     <g id="text_12">
      <!-- 2.0 -->
      <g transform="translate(20.878125 150.129224)scale(0.08 -0.08)">
       <use xlink:href="#DejaVuSans-50"/>
       <use x="63.623047" xlink:href="#DejaVuSans-46"/>
       <use x="95.410156" xlink:href="#DejaVuSans-48"/>
      </g>
     </g>
    </g>
    <g id="ytick_6">
     <g id="line2d_6">
      <path clip-path="url(#p494baea330)" d="M 40.600625 114.986796 
L 985.580625 114.986796 
" style="fill:none;stroke:#dedede;stroke-linecap:square;"/>
     </g>
     <g id="text_13">
      <!-- 2.5 -->
      <g transform="translate(20.878125 118.026171)scale(0.08 -0.08)">
       <use xlink:href="#DejaVuSans-50"/>
       <use x="63.623047" xlink:href="#DejaVuSans-46"/>
       <use x="95.410156" xlink:href="#DejaVuSans-53"/>
      </g>
     </g>
    </g>
    <g id="ytick_7">
     <g id="line2d_7">
      <path clip-path="url(#p494baea330)" d="M 40.600625 82.883743 
L 985.580625 82.883743 
" style="fill:none;stroke:#dedede;stroke-linecap:square;"/>
     </g>
     <g id="text_14">
      <!-- 3.0 -->
      <g transform="translate(20.878125 85.923118)scale(0.08 -0.08)">
       <defs>
        <path d="M 40.578125 39.3125 
Q 47.65625 37.796875 51.625 33 
Q 55.609375 28.21875 55.609375 21.1875 
Q 55.609375 10.40625 48.1875 4.484375 
Q 40.765625 -1.421875 27.09375 -1.421875 
Q 22.515625 -1.421875 17.65625 -0.515625 
Q 12.796875 0.390625 7.625 2.203125 
L 7.625 11.71875 
Q 11.71875 9.328125 16.59375 8.109375 
Q 21.484375 6.890625 26.8125 6.890625 
Q 36.078125 6.890625 40.9375 10.546875 
Q 45.796875 14.203125 45.796875 21.1875 
Q 45.796875 27.640625 41.28125 31.265625 
Q 36.765625 34.90625 28.71875 34.90625 
L 20.21875 34.90625 
L 20.21875 43.015625 
L 29.109375 43.015625 
Q 36.375 43.015625 40.234375 45.921875 
Q 44.09375 48.828125 44.09375 54.296875 
Q 44.09375 59.90625 40.109375 62.90625 
Q 36.140625 65.921875 28.71875 65.921875 
Q 24.65625 65.921875 20.015625 65.03125 
Q 15.375 64.15625 9.8125 62.3125 
L 9.8125 71.09375 
Q 15.4375 72.65625 20.34375 73.4375 
Q 25.25 74.21875 29.59375 74.21875 
Q 40.828125 74.21875 47.359375 69.109375 
Q 53.90625 64.015625 53.90625 55.328125 
Q 53.90625 49.265625 50.4375 45.09375 
Q 46.96875 40.921875 40.578125 39.3125 
z
" id="DejaVuSans-51"/>
       </defs>
       <use xlink:href="#DejaVuSans-51"/>
       <use x="63.623047" xlink:href="#DejaVuSans-46"/>
       <use x="95.410156" xlink:href="#DejaVuSans-48"/>
      </g>
     </g>
    </g>
    <g id="ytick_8">
     <g id="line2d_8">
      <path clip-path="url(#p494baea330)" d="M 40.600625 50.780691 
L 985.580625 50.780691 
" style="fill:none;stroke:#dedede;stroke-linecap:square;"/>
     </g>
     <g id="text_15">
      <!-- 3.5 -->
      <g transform="translate(20.878125 53.820066)scale(0.08 -0.08)">
       <use xlink:href="#DejaVuSans-51"/>
       <use x="63.623047" xlink:href="#DejaVuSans-46"/>
       <use x="95.410156" xlink:href="#DejaVuSans-53"/>
      </g>
     </g>
    </g>
    <g id="text_16">
     <!-- Percentage -->
     <g transform="translate(14.798438 181.651116)rotate(-90)scale(0.1 -0.1)">
      <defs>
       <path d="M 19.671875 64.796875 
L 19.671875 37.40625 
L 32.078125 37.40625 
Q 38.96875 37.40625 42.71875 40.96875 
Q 46.484375 44.53125 46.484375 51.125 
Q 46.484375 57.671875 42.71875 61.234375 
Q 38.96875 64.796875 32.078125 64.796875 
z
M 9.8125 72.90625 
L 32.078125 72.90625 
Q 44.34375 72.90625 50.609375 67.359375 
Q 56.890625 61.8125 56.890625 51.125 
Q 56.890625 40.328125 50.609375 34.8125 
Q 44.34375 29.296875 32.078125 29.296875 
L 19.671875 29.296875 
L 19.671875 0 
L 9.8125 0 
z
" id="DejaVuSans-80"/>
       <path d="M 56.203125 29.59375 
L 56.203125 25.203125 
L 14.890625 25.203125 
Q 15.484375 15.921875 20.484375 11.0625 
Q 25.484375 6.203125 34.421875 6.203125 
Q 39.59375 6.203125 44.453125 7.46875 
Q 49.3125 8.734375 54.109375 11.28125 
L 54.109375 2.78125 
Q 49.265625 0.734375 44.1875 -0.34375 
Q 39.109375 -1.421875 33.890625 -1.421875 
Q 20.796875 -1.421875 13.15625 6.1875 
Q 5.515625 13.8125 5.515625 26.8125 
Q 5.515625 40.234375 12.765625 48.109375 
Q 20.015625 56 32.328125 56 
Q 43.359375 56 49.78125 48.890625 
Q 56.203125 41.796875 56.203125 29.59375 
z
M 47.21875 32.234375 
Q 47.125 39.59375 43.09375 43.984375 
Q 39.0625 48.390625 32.421875 48.390625 
Q 24.90625 48.390625 20.390625 44.140625 
Q 15.875 39.890625 15.1875 32.171875 
z
" id="DejaVuSans-101"/>
       <path d="M 41.109375 46.296875 
Q 39.59375 47.171875 37.8125 47.578125 
Q 36.03125 48 33.890625 48 
Q 26.265625 48 22.1875 43.046875 
Q 18.109375 38.09375 18.109375 28.8125 
L 18.109375 0 
L 9.078125 0 
L 9.078125 54.6875 
L 18.109375 54.6875 
L 18.109375 46.1875 
Q 20.953125 51.171875 25.484375 53.578125 
Q 30.03125 56 36.53125 56 
Q 37.453125 56 38.578125 55.875 
Q 39.703125 55.765625 41.0625 55.515625 
z
" id="DejaVuSans-114"/>
       <path d="M 48.78125 52.59375 
L 48.78125 44.1875 
Q 44.96875 46.296875 41.140625 47.34375 
Q 37.3125 48.390625 33.40625 48.390625 
Q 24.65625 48.390625 19.8125 42.84375 
Q 14.984375 37.3125 14.984375 27.296875 
Q 14.984375 17.28125 19.8125 11.734375 
Q 24.65625 6.203125 33.40625 6.203125 
Q 37.3125 6.203125 41.140625 7.25 
Q 44.96875 8.296875 48.78125 10.40625 
L 48.78125 2.09375 
Q 45.015625 0.34375 40.984375 -0.53125 
Q 36.96875 -1.421875 32.421875 -1.421875 
Q 20.0625 -1.421875 12.78125 6.34375 
Q 5.515625 14.109375 5.515625 27.296875 
Q 5.515625 40.671875 12.859375 48.328125 
Q 20.21875 56 33.015625 56 
Q 37.15625 56 41.109375 55.140625 
Q 45.0625 54.296875 48.78125 52.59375 
z
" id="DejaVuSans-99"/>
       <path d="M 54.890625 33.015625 
L 54.890625 0 
L 45.90625 0 
L 45.90625 32.71875 
Q 45.90625 40.484375 42.875 44.328125 
Q 39.84375 48.1875 33.796875 48.1875 
Q 26.515625 48.1875 22.3125 43.546875 
Q 18.109375 38.921875 18.109375 30.90625 
L 18.109375 0 
L 9.078125 0 
L 9.078125 54.6875 
L 18.109375 54.6875 
L 18.109375 46.1875 
Q 21.34375 51.125 25.703125 53.5625 
Q 30.078125 56 35.796875 56 
Q 45.21875 56 50.046875 50.171875 
Q 54.890625 44.34375 54.890625 33.015625 
z
" id="DejaVuSans-110"/>
       <path d="M 18.3125 70.21875 
L 18.3125 54.6875 
L 36.8125 54.6875 
L 36.8125 47.703125 
L 18.3125 47.703125 
L 18.3125 18.015625 
Q 18.3125 11.328125 20.140625 9.421875 
Q 21.96875 7.515625 27.59375 7.515625 
L 36.8125 7.515625 
L 36.8125 0 
L 27.59375 0 
Q 17.1875 0 13.234375 3.875 
Q 9.28125 7.765625 9.28125 18.015625 
L 9.28125 47.703125 
L 2.6875 47.703125 
L 2.6875 54.6875 
L 9.28125 54.6875 
L 9.28125 70.21875 
z
" id="DejaVuSans-116"/>
       <path d="M 34.28125 27.484375 
Q 23.390625 27.484375 19.1875 25 
Q 14.984375 22.515625 14.984375 16.5 
Q 14.984375 11.71875 18.140625 8.90625 
Q 21.296875 6.109375 26.703125 6.109375 
Q 34.1875 6.109375 38.703125 11.40625 
Q 43.21875 16.703125 43.21875 25.484375 
L 43.21875 27.484375 
z
M 52.203125 31.203125 
L 52.203125 0 
L 43.21875 0 
L 43.21875 8.296875 
Q 40.140625 3.328125 35.546875 0.953125 
Q 30.953125 -1.421875 24.3125 -1.421875 
Q 15.921875 -1.421875 10.953125 3.296875 
Q 6 8.015625 6 15.921875 
Q 6 25.140625 12.171875 29.828125 
Q 18.359375 34.515625 30.609375 34.515625 
L 43.21875 34.515625 
L 43.21875 35.40625 
Q 43.21875 41.609375 39.140625 45 
Q 35.0625 48.390625 27.6875 48.390625 
Q 23 48.390625 18.546875 47.265625 
Q 14.109375 46.140625 10.015625 43.890625 
L 10.015625 52.203125 
Q 14.9375 54.109375 19.578125 55.046875 
Q 24.21875 56 28.609375 56 
Q 40.484375 56 46.34375 49.84375 
Q 52.203125 43.703125 52.203125 31.203125 
z
" id="DejaVuSans-97"/>
       <path d="M 45.40625 27.984375 
Q 45.40625 37.75 41.375 43.109375 
Q 37.359375 48.484375 30.078125 48.484375 
Q 22.859375 48.484375 18.828125 43.109375 
Q 14.796875 37.75 14.796875 27.984375 
Q 14.796875 18.265625 18.828125 12.890625 
Q 22.859375 7.515625 30.078125 7.515625 
Q 37.359375 7.515625 41.375 12.890625 
Q 45.40625 18.265625 45.40625 27.984375 
z
M 54.390625 6.78125 
Q 54.390625 -7.171875 48.1875 -13.984375 
Q 42 -20.796875 29.203125 -20.796875 
Q 24.46875 -20.796875 20.265625 -20.09375 
Q 16.0625 -19.390625 12.109375 -17.921875 
L 12.109375 -9.1875 
Q 16.0625 -11.328125 19.921875 -12.34375 
Q 23.78125 -13.375 27.78125 -13.375 
Q 36.625 -13.375 41.015625 -8.765625 
Q 45.40625 -4.15625 45.40625 5.171875 
L 45.40625 9.625 
Q 42.625 4.78125 38.28125 2.390625 
Q 33.9375 0 27.875 0 
Q 17.828125 0 11.671875 7.65625 
Q 5.515625 15.328125 5.515625 27.984375 
Q 5.515625 40.671875 11.671875 48.328125 
Q 17.828125 56 27.875 56 
Q 33.9375 56 38.28125 53.609375 
Q 42.625 51.21875 45.40625 46.390625 
L 45.40625 54.6875 
L 54.390625 54.6875 
z
" id="DejaVuSans-103"/>
      </defs>
      <use xlink:href="#DejaVuSans-80"/>
      <use x="56.677734" xlink:href="#DejaVuSans-101"/>
      <use x="118.201172" xlink:href="#DejaVuSans-114"/>
      <use x="157.064453" xlink:href="#DejaVuSans-99"/>
      <use x="212.044922" xlink:href="#DejaVuSans-101"/>
      <use x="273.568359" xlink:href="#DejaVuSans-110"/>
      <use x="336.947266" xlink:href="#DejaVuSans-116"/>
      <use x="376.15625" xlink:href="#DejaVuSans-97"/>
      <use x="437.435547" xlink:href="#DejaVuSans-103"/>
      <use x="500.912109" xlink:href="#DejaVuSans-101"/>
     </g>
    </g>
   </g>
   <g id="line2d_9">
    <path clip-path="url(#p494baea330)" d="M 40.600625 274.423581 
L 50.050425 274.241518 
L 59.500225 273.930205 
L 68.950025 273.600824 
L 78.399825 273.018501 
L 87.849625 271.833008 
L 97.299425 269.908145 
L 106.749225 267.275878 
L 116.199025 263.91536 
L 125.648825 260.524266 
L 135.098625 256.6801 
L 144.548425 252.33005 
L 153.998225 249.189119 
L 163.448025 246.780609 
L 172.897825 244.038548 
L 182.347625 241.605021 
L 191.797425 239.432776 
L 201.247225 237.841463 
L 210.697025 235.738707 
L 220.146825 231.776409 
L 229.596625 226.553569 
L 239.046425 219.740806 
L 248.496225 212.712626 
L 257.946025 207.120101 
L 267.395825 200.390725 
L 276.845625 193.605759 
L 286.295425 186.908349 
L 295.745225 175.220194 
L 305.195025 164.135209 
L 314.644825 156.549722 
L 324.094625 148.841933 
L 333.544425 143.466215 
L 342.994225 137.119033 
L 352.444025 130.57311 
L 361.893825 124.856894 
L 371.343625 119.2602 
L 380.793425 118.156704 
L 390.243225 117.363133 
L 399.693025 113.762181 
L 409.142825 106.835455 
L 418.592625 107.27185 
L 428.042425 114.174949 
L 437.492225 118.650081 
L 446.942025 122.510924 
L 456.391825 123.961868 
L 465.841625 125.810292 
L 475.291425 127.065274 
L 484.741225 128.63018 
L 494.191025 131.344445 
L 503.640825 132.700883 
L 513.090625 135.611108 
L 522.540425 141.499659 
L 531.990225 149.887056 
L 541.440025 158.50377 
L 550.889825 165.298465 
L 560.339625 171.280132 
L 569.789425 177.277087 
L 579.239225 183.786875 
L 588.689025 190.188259 
L 598.138825 196.735571 
L 607.588625 203.619213 
L 617.038425 208.917102 
L 626.488225 212.092778 
L 635.938025 215.757661 
L 645.387825 220.255029 
L 654.837625 223.899065 
L 664.287425 226.763428 
L 673.737225 229.248376 
L 683.187025 231.334455 
L 692.636825 233.70961 
L 702.086625 235.917991 
L 711.536425 237.66357 
L 720.986225 239.507825 
L 730.436025 240.925413 
L 739.885825 241.806541 
L 749.335625 242.295748 
L 758.785425 242.714076 
L 768.235225 242.475032 
L 777.685025 241.532752 
L 787.134825 240.00676 
L 796.584625 238.986652 
L 806.034425 239.170105 
L 815.484225 240.519593 
L 824.934025 243.510427 
L 834.383825 247.914679 
L 843.833625 253.480798 
L 853.283425 259.281792 
L 862.733225 264.435142 
L 872.183025 268.5392 
L 881.632825 271.516135 
L 891.082625 273.279782 
L 900.532425 274.203994 
L 909.982225 274.666795 
L 919.432025 274.910008 
L 928.881825 275.071224 
L 938.331625 275.172679 
L 947.781425 275.226881 
L 957.231225 275.243559 
L 966.681025 275.288032 
L 976.130825 275.360301 
L 985.580625 275.43257 
" style="fill:none;stroke:#f0ad4e;stroke-linecap:square;"/>
   </g>
   <g id="line2d_10">
    <path clip-path="url(#p494baea330)" d="M 40.600625 273.477536 
L 50.050425 273.247314 
L 59.500225 272.854514 
L 68.950025 272.512742 
L 78.399825 271.98347 
L 87.849625 271.12548 
L 97.299425 269.678882 
L 106.749225 267.668598 
L 116.199025 264.987824 
L 125.648825 261.962905 
L 135.098625 258.560612 
L 144.548425 254.100962 
L 153.998225 249.927309 
L 163.448025 245.929289 
L 172.897825 241.383009 
L 182.347625 235.97874 
L 191.797425 232.823282 
L 201.247225 233.435624 
L 210.697025 232.26909 
L 220.146825 228.76118 
L 229.596625 224.898444 
L 239.046425 221.135392 
L 248.496225 217.463717 
L 257.946025 210.835951 
L 267.395825 205.48271 
L 276.845625 203.734688 
L 286.295425 198.432475 
L 295.745225 185.032165 
L 305.195025 169.735495 
L 314.644825 157.506466 
L 324.094625 147.2806 
L 333.544425 143.160349 
L 342.994225 139.226411 
L 352.444025 132.337569 
L 361.893825 126.515578 
L 371.343625 122.969694 
L 380.793425 118.418668 
L 390.243225 117.930931 
L 399.693025 118.195566 
L 409.142825 108.980776 
L 418.592625 114.858543 
L 428.042425 131.885434 
L 437.492225 138.682899 
L 446.942025 142.43527 
L 456.391825 144.719684 
L 465.841625 146.744208 
L 475.291425 152.249348 
L 484.741225 159.685262 
L 494.191025 166.239452 
L 503.640825 171.172599 
L 513.090625 175.613261 
L 522.540425 179.379874 
L 531.990225 183.438416 
L 541.440025 188.061832 
L 550.889825 192.053918 
L 560.339625 195.792049 
L 569.789425 199.735481 
L 579.239225 203.206603 
L 588.689025 205.901618 
L 598.138825 208.601379 
L 607.588625 210.939194 
L 617.038425 212.349004 
L 626.488225 212.212532 
L 635.938025 211.372343 
L 645.387825 209.535318 
L 654.837625 206.416649 
L 664.287425 202.504072 
L 673.737225 198.188014 
L 683.187025 194.867604 
L 692.636825 192.128681 
L 702.086625 190.410327 
L 711.536425 191.136593 
L 720.986225 193.519503 
L 730.436025 197.235087 
L 739.885825 203.443945 
L 749.335625 210.350587 
L 758.785425 216.808654 
L 768.235225 222.614031 
L 777.685025 227.129456 
L 787.134825 229.950261 
L 796.584625 231.517903 
L 806.034425 232.633409 
L 815.484225 234.055086 
L 824.934025 236.456983 
L 834.383825 240.735067 
L 843.833625 246.484668 
L 853.283425 252.41109 
L 862.733225 258.883397 
L 872.183025 264.584344 
L 881.632825 268.776984 
L 891.082625 271.805464 
L 900.532425 273.718437 
L 909.982225 274.639323 
L 919.432025 275.066538 
L 928.881825 275.255225 
L 938.331625 275.338294 
L 947.781425 275.40119 
L 957.231225 275.440351 
L 966.681025 275.458152 
L 976.130825 275.460525 
L 985.580625 275.464085 
" style="fill:none;stroke:#d9534f;stroke-linecap:square;"/>
   </g>
   <g id="line2d_11">
    <path clip-path="url(#p494baea330)" d="M 40.600625 274.41905 
L 50.050425 274.307952 
L 59.500225 274.249684 
L 68.950025 274.09508 
L 78.399825 273.508514 
L 87.849625 272.427058 
L 97.299425 270.639392 
L 106.749225 268.063942 
L 116.199025 264.804813 
L 125.648825 261.41594 
L 135.098625 257.489447 
L 144.548425 252.922004 
L 153.998225 249.060771 
L 163.448025 245.486217 
L 172.897825 242.345955 
L 182.347625 239.664845 
L 191.797425 237.603708 
L 201.247225 235.939571 
L 210.697025 233.119395 
L 220.146825 229.214655 
L 229.596625 224.877954 
L 239.046425 218.838271 
L 248.496225 212.414795 
L 257.946025 206.54137 
L 267.395825 198.966517 
L 276.845625 192.117295 
L 286.295425 185.72645 
L 295.745225 175.280144 
L 305.195025 164.33351 
L 314.644825 155.613494 
L 324.094625 147.359623 
L 333.544425 141.711501 
L 342.994225 136.064156 
L 352.444025 129.792954 
L 361.893825 124.964471 
L 371.343625 122.643847 
L 380.793425 121.362725 
L 390.243225 118.53478 
L 399.693025 115.04724 
L 409.142825 109.910324 
L 418.592625 110.939727 
L 428.042425 115.743349 
L 437.492225 119.261189 
L 446.942025 123.257604 
L 456.391825 124.934948 
L 465.841625 126.884988 
L 475.291425 128.589524 
L 484.741225 131.508367 
L 494.191025 135.709886 
L 503.640825 138.115194 
L 513.090625 141.201072 
L 522.540425 147.504904 
L 531.990225 155.979417 
L 541.440025 164.007208 
L 550.889825 170.798162 
L 560.339625 175.903224 
L 569.789425 180.997411 
L 579.239225 187.180045 
L 588.689025 193.823386 
L 598.138825 200.267838 
L 607.588625 205.484775 
L 617.038425 210.212261 
L 626.488225 213.712232 
L 635.938025 216.380134 
L 645.387825 219.88632 
L 654.837625 223.295393 
L 664.287425 225.561633 
L 673.737225 226.952299 
L 683.187025 228.611774 
L 692.636825 231.146048 
L 702.086625 233.74636 
L 711.536425 236.008716 
L 720.986225 237.858534 
L 730.436025 239.507133 
L 739.885825 240.421554 
L 749.335625 240.259957 
L 758.785425 239.503248 
L 768.235225 237.987501 
L 777.685025 236.178082 
L 787.134825 234.22882 
L 796.584625 232.346371 
L 806.034425 231.984332 
L 815.484225 233.284876 
L 824.934025 237.250992 
L 834.383825 243.724967 
L 843.833625 251.156869 
L 853.283425 258.904196 
L 862.733225 265.291934 
L 872.183025 269.73041 
L 881.632825 272.604193 
L 891.082625 274.028265 
L 900.532425 274.644354 
L 909.982225 274.993185 
L 919.432025 275.167213 
L 928.881825 275.244903 
L 938.331625 275.295402 
L 947.781425 275.339686 
L 957.231225 275.372316 
L 966.681025 275.410385 
L 976.130825 275.443015 
L 985.580625 275.450007 
" style="fill:none;stroke:#f0ad4e;stroke-linecap:square;"/>
   </g>
   <g id="line2d_12">
    <path clip-path="url(#p494baea330)" d="M 40.600625 274.58463 
L 50.050425 274.373769 
L 59.500225 274.137012 
L 68.950025 274.003837 
L 78.399825 273.497031 
L 87.849625 272.535209 
L 97.299425 271.025888 
L 106.749225 268.436366 
L 116.199025 265.691474 
L 125.648825 263.786326 
L 135.098625 260.704796 
L 144.548425 255.562747 
L 153.998225 251.197554 
L 163.448025 247.694302 
L 172.897825 243.255122 
L 182.347625 237.295524 
L 191.797425 235.212809 
L 201.247225 236.977383 
L 210.697025 235.801001 
L 220.146825 231.36922 
L 229.596625 227.496036 
L 239.046425 224.288729 
L 248.496225 216.971482 
L 257.946025 207.530828 
L 267.395825 200.036013 
L 276.845625 194.949454 
L 286.295425 188.187104 
L 295.745225 174.007626 
L 305.195025 153.687283 
L 314.644825 137.247523 
L 324.094625 128.50234 
L 333.544425 119.949521 
L 342.994225 106.791054 
L 352.444025 93.636286 
L 361.893825 83.574147 
L 371.343625 73.271552 
L 380.793425 66.89763 
L 390.243225 69.476053 
L 399.693025 68.458742 
L 409.142825 55.570325 
L 418.592625 59.465704 
L 428.042425 76.793301 
L 437.492225 84.3658 
L 446.942025 86.91093 
L 456.391825 86.822146 
L 465.841625 93.699175 
L 475.291425 112.373322 
L 484.741225 132.257145 
L 494.191025 146.636387 
L 503.640825 156.435875 
L 513.090625 164.800028 
L 522.540425 172.683271 
L 531.990225 179.711971 
L 541.440025 185.619779 
L 550.889825 189.689027 
L 560.339625 194.346465 
L 569.789425 200.672296 
L 579.239225 207.541926 
L 588.689025 213.727182 
L 598.138825 218.702762 
L 607.588625 222.723918 
L 617.038425 226.534214 
L 626.488225 230.392601 
L 635.938025 234.103015 
L 645.387825 237.003278 
L 654.837625 239.119287 
L 664.287425 240.798777 
L 673.737225 242.119432 
L 683.187025 244.316826 
L 692.636825 246.092498 
L 702.086625 247.531532 
L 711.536425 250.35041 
L 720.986225 251.685864 
L 730.436025 251.985508 
L 739.885825 252.725371 
L 749.335625 252.67728 
L 758.785425 251.819039 
L 768.235225 250.413299 
L 777.685025 249.10744 
L 787.134825 248.696816 
L 796.584625 248.286192 
L 806.034425 248.46006 
L 815.484225 250.017472 
L 824.934025 253.346856 
L 834.383825 257.945106 
L 843.833625 262.913288 
L 853.283425 267.185998 
L 862.733225 270.4192 
L 872.183025 272.816357 
L 881.632825 274.170306 
L 891.082625 274.847281 
L 900.532425 275.098835 
L 909.982225 275.195017 
L 919.432025 275.2875 
L 928.881825 275.346689 
L 938.331625 275.398479 
L 947.781425 275.428074 
L 957.231225 275.45027 
L 966.681025 275.461368 
L 976.130825 275.45027 
L 985.580625 275.45027 
" style="fill:none;stroke:#f0ad4e;stroke-linecap:square;"/>
   </g>
   <g id="line2d_13">
    <path clip-path="url(#p494baea330)" d="M 40.600625 274.478825 
L 50.050425 274.343344 
L 59.500225 274.264908 
L 68.950025 274.091992 
L 78.399825 273.610679 
L 87.849625 272.869101 
L 97.299425 271.508947 
L 106.749225 269.597957 
L 116.199025 267.022042 
L 125.648825 264.112774 
L 135.098625 261.435249 
L 144.548425 258.026842 
L 153.998225 254.709349 
L 163.448025 251.18507 
L 172.897825 246.250723 
L 182.347625 239.310906 
L 191.797425 236.449769 
L 201.247225 238.69233 
L 210.697025 237.455178 
L 220.146825 232.023474 
L 229.596625 227.137259 
L 239.046425 221.914124 
L 248.496225 215.600014 
L 257.946025 205.971976 
L 267.395825 198.47241 
L 276.845625 196.163891 
L 286.295425 188.234709 
L 295.745225 170.140915 
L 305.195025 148.020137 
L 314.644825 130.17413 
L 324.094625 115.126867 
L 333.544425 110.126562 
L 342.994225 106.582674 
L 352.444025 96.794199 
L 361.893825 87.463862 
L 371.343625 82.203292 
L 380.793425 75.340129 
L 390.243225 73.336441 
L 399.693025 70.068863 
L 409.142825 59.736682 
L 418.592625 75.500566 
L 428.042425 99.731989 
L 437.492225 112.226512 
L 446.942025 122.547997 
L 456.391825 123.888542 
L 465.841625 124.261114 
L 475.291425 133.072702 
L 484.741225 144.308681 
L 494.191025 155.070478 
L 503.640825 161.095801 
L 513.090625 165.748491 
L 522.540425 170.665011 
L 531.990225 174.670603 
L 541.440025 179.332206 
L 550.889825 183.500018 
L 560.339625 188.266797 
L 569.789425 193.917765 
L 579.239225 200.45114 
L 588.689025 206.121718 
L 598.138825 210.87067 
L 607.588625 216.273851 
L 617.038425 220.8178 
L 626.488225 224.063988 
L 635.938025 227.522309 
L 645.387825 230.577753 
L 654.837625 233.399672 
L 664.287425 235.847237 
L 673.737225 236.65299 
L 683.187025 236.629816 
L 692.636825 236.453334 
L 702.086625 235.560232 
L 711.536425 234.96483 
L 720.986225 234.360515 
L 730.436025 234.057466 
L 739.885825 235.312445 
L 749.335625 237.679791 
L 758.785425 241.385899 
L 768.235225 245.922717 
L 777.685025 250.113703 
L 787.134825 253.650461 
L 796.584625 255.928675 
L 806.034425 256.982215 
L 815.484225 257.256741 
L 824.934025 257.643574 
L 834.383825 258.041103 
L 843.833625 258.960945 
L 853.283425 260.980676 
L 862.733225 263.569069 
L 872.183025 266.827735 
L 881.632825 269.901006 
L 891.082625 272.236264 
L 900.532425 273.755073 
L 909.982225 274.544782 
L 919.432025 274.936963 
L 928.881825 275.174054 
L 938.331625 275.248925 
L 947.781425 275.293491 
L 957.231225 275.327361 
L 966.681025 275.348753 
L 976.130825 275.334492 
L 985.580625 275.261404 
" style="fill:none;stroke:#f0ad4e;stroke-linecap:square;"/>
   </g>
   <g id="line2d_14">
    <path clip-path="url(#p494baea330)" d="M 40.600625 273.794377 
L 50.050425 273.641037 
L 59.500225 273.218725 
L 68.950025 272.643073 
L 78.399825 271.954302 
L 87.849625 270.789592 
L 97.299425 268.809584 
L 106.749225 265.461252 
L 116.199025 261.216343 
L 125.648825 257.504353 
L 135.098625 253.848503 
L 144.548425 249.710849 
L 153.998225 246.278724 
L 163.448025 243.340135 
L 172.897825 240.559075 
L 182.347625 237.53418 
L 191.797425 235.444404 
L 201.247225 234.471578 
L 210.697025 232.772274 
L 220.146825 230.35571 
L 229.596625 226.642881 
L 239.046425 221.563404 
L 248.496225 216.348183 
L 257.946025 210.598368 
L 267.395825 203.819587 
L 276.845625 199.402905 
L 286.295425 194.380406 
L 295.745225 184.123414 
L 305.195025 172.693332 
L 314.644825 163.985656 
L 324.094625 156.899358 
L 333.544425 151.218253 
L 342.994225 145.295826 
L 352.444025 140.322765 
L 361.893825 136.032609 
L 371.343625 131.861438 
L 380.793425 129.602402 
L 390.243225 127.388615 
L 399.693025 123.300398 
L 409.142825 118.18489 
L 418.592625 119.109954 
L 428.042425 122.966067 
L 437.492225 125.85103 
L 446.942025 129.573075 
L 456.391825 131.137474 
L 465.841625 131.744129 
L 475.291425 132.687628 
L 484.741225 136.10886 
L 494.191025 141.128007 
L 503.640825 144.450364 
L 513.090625 147.764342 
L 522.540425 153.136254 
L 531.990225 160.620565 
L 541.440025 167.794846 
L 550.889825 174.406881 
L 560.339625 179.834934 
L 569.789425 184.556619 
L 579.239225 189.927693 
L 588.689025 195.258547 
L 598.138825 199.976881 
L 607.588625 204.340774 
L 617.038425 207.718434 
L 626.488225 209.840888 
L 635.938025 211.799947 
L 645.387825 214.250866 
L 654.837625 216.860991 
L 664.287425 219.043775 
L 673.737225 220.506785 
L 683.187025 221.855838 
L 692.636825 223.504867 
L 702.086625 225.512526 
L 711.536425 227.172448 
L 720.986225 227.980203 
L 730.436025 228.361458 
L 739.885825 227.668497 
L 749.335625 225.721168 
L 758.785425 223.196512 
L 768.235225 220.063525 
L 777.685025 217.367933 
L 787.134825 215.502721 
L 796.584625 215.781748 
L 806.034425 219.513011 
L 815.484225 225.858587 
L 824.934025 235.2366 
L 834.383825 245.564815 
L 843.833625 254.924394 
L 853.283425 262.842748 
L 862.733225 268.49704 
L 872.183025 271.957654 
L 881.632825 273.800242 
L 891.082625 274.656598 
L 900.532425 274.997632 
L 909.982225 275.16354 
L 919.432025 275.254873 
L 928.881825 275.283363 
L 938.331625 275.324421 
L 947.781425 275.367993 
L 957.231225 275.404023 
L 966.681025 275.429999 
L 976.130825 275.452623 
L 985.580625 275.468543 
" style="fill:none;stroke:#f0ad4e;stroke-linecap:square;"/>
   </g>
   <g id="line2d_15">
    <path clip-path="url(#p494baea330)" d="M 40.600625 274.427582 
L 50.050425 274.307342 
L 59.500225 274.25413 
L 68.950025 274.180963 
L 78.399825 273.692332 
L 87.849625 272.746791 
L 97.299425 270.922224 
L 106.749225 268.670936 
L 116.199025 266.08349 
L 125.648825 263.038623 
L 135.098625 259.857144 
L 144.548425 256.152753 
L 153.998225 253.029602 
L 163.448025 250.977349 
L 172.897825 249.026403 
L 182.347625 246.020934 
L 191.797425 243.259525 
L 201.247225 242.345706 
L 210.697025 240.309314 
L 220.146825 236.455519 
L 229.596625 231.700185 
L 239.046425 225.09726 
L 248.496225 218.220087 
L 257.946025 211.133647 
L 267.395825 202.570055 
L 276.845625 195.481568 
L 286.295425 189.215825 
L 295.745225 178.404015 
L 305.195025 166.145241 
L 314.644825 155.375386 
L 324.094625 147.148976 
L 333.544425 142.374199 
L 342.994225 138.047121 
L 352.444025 133.470356 
L 361.893825 129.884156 
L 371.343625 125.365719 
L 380.793425 120.414421 
L 390.243225 117.551704 
L 399.693025 116.561137 
L 409.142825 112.592219 
L 418.592625 113.923037 
L 428.042425 122.105957 
L 437.492225 127.302339 
L 446.942025 130.089842 
L 456.391825 131.00673 
L 465.841625 132.535048 
L 475.291425 133.832608 
L 484.741225 136.031196 
L 494.191025 138.446725 
L 503.640825 138.847352 
L 513.090625 139.930528 
L 522.540425 145.197007 
L 531.990225 152.640583 
L 541.440025 158.965167 
L 550.889825 163.966096 
L 560.339625 168.403692 
L 569.789425 174.098427 
L 579.239225 179.842281 
L 588.689025 185.714049 
L 598.138825 191.871833 
L 607.588625 197.804488 
L 617.038425 203.186089 
L 626.488225 205.095079 
L 635.938025 207.312086 
L 645.387825 212.469582 
L 654.837625 217.707407 
L 664.287425 221.789402 
L 673.737225 222.362457 
L 683.187025 222.900719 
L 692.636825 224.280656 
L 702.086625 224.538019 
L 711.536425 225.505562 
L 720.986225 226.67265 
L 730.436025 228.139568 
L 739.885825 229.943669 
L 749.335625 232.725032 
L 758.785425 236.184341 
L 768.235225 239.666674 
L 777.685025 242.774474 
L 787.134825 244.906035 
L 796.584625 246.153453 
L 806.034425 246.352487 
L 815.484225 245.923207 
L 824.934025 245.48216 
L 834.383825 245.831621 
L 843.833625 247.5426 
L 853.283425 250.861714 
L 862.733225 255.377593 
L 872.183025 260.463457 
L 881.632825 265.764217 
L 891.082625 269.859514 
L 900.532425 272.423936 
L 909.982225 273.912855 
L 919.432025 274.719737 
L 928.881825 275.10655 
L 938.331625 275.246232 
L 947.781425 275.297397 
L 957.231225 275.357261 
L 966.681025 275.395124 
L 976.130825 275.401775 
L 985.580625 275.398194 
" style="fill:none;stroke:#f0ad4e;stroke-linecap:square;"/>
   </g>
   <g id="line2d_16">
    <path clip-path="url(#p494baea330)" d="M 40.600625 274.832875 
L 50.050425 274.699461 
L 59.500225 274.5364 
L 68.950025 274.447458 
L 78.399825 274.028158 
L 87.849625 273.333561 
L 97.299425 272.010014 
L 106.749225 270.053282 
L 116.199025 267.594662 
L 125.648825 264.824743 
L 135.098625 262.120472 
L 144.548425 258.355246 
L 153.998225 254.537078 
L 163.448025 250.826911 
L 172.897825 244.683536 
L 182.347625 235.32553 
L 191.797425 232.921969 
L 201.247225 237.405087 
L 210.697025 237.904858 
L 220.146825 232.365021 
L 229.596625 227.833196 
L 239.046425 223.059957 
L 248.496225 215.997511 
L 257.946025 209.451777 
L 267.395825 204.147001 
L 276.845625 200.845546 
L 286.295425 193.562862 
L 295.745225 174.863792 
L 305.195025 151.042066 
L 314.644825 133.785132 
L 324.094625 119.473885 
L 333.544425 111.164128 
L 342.994225 104.186389 
L 352.444025 93.866959 
L 361.893825 84.085418 
L 371.343625 79.801362 
L 380.793425 73.043861 
L 390.243225 69.727582 
L 399.693025 67.506141 
L 409.142825 57.203652 
L 418.592625 69.755111 
L 428.042425 92.878005 
L 437.492225 107.070662 
L 446.942025 117.652684 
L 456.391825 119.088468 
L 465.841625 119.264235 
L 475.291425 125.403375 
L 484.741225 134.642791 
L 494.191025 143.750911 
L 503.640825 150.169584 
L 513.090625 157.59627 
L 522.540425 165.306724 
L 531.990225 170.787267 
L 541.440025 176.678639 
L 550.889825 180.871636 
L 560.339625 185.136633 
L 569.789425 190.24023 
L 579.239225 195.610654 
L 588.689025 201.751911 
L 598.138825 207.077864 
L 607.588625 213.094178 
L 617.038425 218.646722 
L 626.488225 223.477139 
L 635.938025 228.068258 
L 645.387825 231.689482 
L 654.837625 235.338236 
L 664.287425 238.798517 
L 673.737225 241.005134 
L 683.187025 242.934336 
L 692.636825 244.876244 
L 702.086625 246.481442 
L 711.536425 247.800754 
L 720.986225 248.84265 
L 730.436025 250.305963 
L 739.885825 252.199164 
L 749.335625 253.560829 
L 758.785425 254.642961 
L 768.235225 255.581091 
L 777.685025 256.125334 
L 787.134825 256.584869 
L 796.584625 256.436632 
L 806.034425 255.462502 
L 815.484225 254.371899 
L 824.934025 253.696361 
L 834.383825 253.253767 
L 843.833625 253.666713 
L 853.283425 255.803447 
L 862.733225 259.25314 
L 872.183025 263.253428 
L 881.632825 267.357482 
L 891.082625 270.737291 
L 900.532425 273.003204 
L 909.982225 274.297103 
L 919.432025 274.90064 
L 928.881825 275.148408 
L 938.331625 275.250057 
L 947.781425 275.313587 
L 957.231225 275.372882 
L 966.681025 275.427941 
L 976.130825 275.430059 
L 985.580625 275.419471 
" style="fill:none;stroke:#f0ad4e;stroke-linecap:square;"/>
   </g>
   <g id="line2d_17">
    <path clip-path="url(#p494baea330)" d="M 40.600625 274.606621 
L 50.050425 274.47682 
L 59.500225 274.292465 
L 68.950025 274.074249 
L 78.399825 273.598312 
L 87.849625 272.757428 
L 97.299425 271.265657 
L 106.749225 269.171911 
L 116.199025 266.436685 
L 125.648825 263.897101 
L 135.098625 261.404546 
L 144.548425 257.634675 
L 153.998225 253.62025 
L 163.448025 250.331959 
L 172.897825 246.176447 
L 182.347625 239.428678 
L 191.797425 236.906024 
L 201.247225 239.172838 
L 210.697025 237.852254 
L 220.146825 232.406257 
L 229.596625 226.822934 
L 239.046425 222.067328 
L 248.496225 217.539343 
L 257.946025 211.04177 
L 267.395825 204.670236 
L 276.845625 200.469575 
L 286.295425 194.28804 
L 295.745225 180.551711 
L 305.195025 160.09395 
L 314.644825 146.000198 
L 324.094625 135.032957 
L 333.544425 127.718954 
L 342.994225 121.298509 
L 352.444025 111.612347 
L 361.893825 104.509036 
L 371.343625 98.276709 
L 380.793425 91.901412 
L 390.243225 92.603089 
L 399.693025 92.208043 
L 409.142825 81.682878 
L 418.592625 91.402901 
L 428.042425 111.510764 
L 437.492225 120.356041 
L 446.942025 126.580844 
L 456.391825 127.750934 
L 465.841625 127.284403 
L 475.291425 133.881679 
L 484.741225 143.332694 
L 494.191025 150.404025 
L 503.640825 157.674761 
L 513.090625 163.954118 
L 522.540425 169.142394 
L 531.990225 174.720073 
L 541.440025 179.885776 
L 550.889825 184.193663 
L 560.339625 190.140052 
L 569.789425 195.954759 
L 579.239225 200.86086 
L 588.689025 205.390725 
L 598.138825 210.172668 
L 607.588625 216.009949 
L 617.038425 220.684665 
L 626.488225 223.214844 
L 635.938025 225.765715 
L 645.387825 229.561923 
L 654.837625 232.21814 
L 664.287425 234.609111 
L 673.737225 235.726528 
L 683.187025 236.842064 
L 692.636825 238.002748 
L 702.086625 238.19839 
L 711.536425 239.012938 
L 720.986225 239.417391 
L 730.436025 239.850061 
L 739.885825 239.470064 
L 749.335625 238.738287 
L 758.785425 238.354528 
L 768.235225 237.577603 
L 777.685025 236.503453 
L 787.134825 234.563963 
L 796.584625 231.868242 
L 806.034425 229.456577 
L 815.484225 227.930946 
L 824.934025 226.817291 
L 834.383825 227.2161 
L 843.833625 230.590925 
L 853.283425 236.202465 
L 862.733225 243.413003 
L 872.183025 251.725909 
L 881.632825 259.609907 
L 891.082625 266.17144 
L 900.532425 270.588435 
L 909.982225 273.013268 
L 919.432025 274.348901 
L 928.881825 274.990381 
L 938.331625 275.274438 
L 947.781425 275.368497 
L 957.231225 275.415526 
L 966.681025 275.428694 
L 976.130825 275.42117 
L 985.580625 275.428694 
" style="fill:none;stroke:#d9534f;stroke-linecap:square;"/>
   </g>
   <g id="line2d_18">
    <path clip-path="url(#p494baea330)" d="M 40.600625 275.50206 
L 50.050425 274.347482 
L 59.500225 273.192903 
L 68.950025 272.038325 
L 78.399825 269.729168 
L 87.849625 267.420011 
L 97.299425 269.729168 
L 106.749225 270.883746 
L 116.199025 267.420011 
L 125.648825 266.265433 
L 135.098625 263.956276 
L 144.548425 252.410492 
L 153.998225 253.56507 
L 163.448025 262.801697 
L 172.897825 258.183384 
L 182.347625 247.792178 
L 191.797425 250.101335 
L 201.247225 257.028805 
L 210.697025 242.019286 
L 220.146825 232.782659 
L 229.596625 231.62808 
L 239.046425 230.473502 
L 248.496225 220.082296 
L 257.946025 201.609042 
L 267.395825 188.908679 
L 276.845625 194.681571 
L 286.295425 194.681571 
L 295.745225 184.290365 
L 305.195025 170.435424 
L 314.644825 127.716023 
L 324.094625 106.933612 
L 333.544425 131.179758 
L 342.994225 128.870602 
L 352.444025 132.334337 
L 361.893825 163.507954 
L 371.343625 139.261807 
L 380.793425 139.261807 
L 390.243225 156.580483 
L 399.693025 127.716023 
L 409.142825 103.469877 
L 418.592625 123.09771 
L 428.042425 154.271327 
L 437.492225 145.034699 
L 446.942025 118.479396 
L 456.391825 121.943131 
L 465.841625 155.425905 
L 475.291425 136.95265 
L 484.741225 117.324817 
L 494.191025 141.570964 
L 503.640825 148.498435 
L 513.090625 128.870602 
L 522.540425 104.624455 
L 531.990225 113.861082 
L 541.440025 138.107229 
L 550.889825 142.725543 
L 560.339625 155.425905 
L 569.789425 172.744581 
L 579.239225 170.435424 
L 588.689025 166.971689 
L 598.138825 170.435424 
L 607.588625 180.82663 
L 617.038425 190.063257 
L 626.488225 199.299885 
L 635.938025 203.918198 
L 645.387825 193.526993 
L 654.837625 201.609042 
L 664.287425 217.773139 
L 673.737225 216.618561 
L 683.187025 217.773139 
L 692.636825 221.236875 
L 702.086625 214.309404 
L 711.536425 217.773139 
L 720.986225 224.70061 
L 730.436025 233.937237 
L 739.885825 243.173864 
L 749.335625 245.483021 
L 758.785425 251.255913 
L 768.235225 245.483021 
L 777.685025 247.792178 
L 787.134825 258.183384 
L 796.584625 263.956276 
L 806.034425 265.110854 
L 815.484225 262.801697 
L 824.934025 263.956276 
L 834.383825 266.265433 
L 843.833625 266.265433 
L 853.283425 266.265433 
L 862.733225 267.420011 
L 872.183025 268.57459 
L 881.632825 269.729168 
L 891.082625 267.420011 
L 900.532425 268.57459 
L 909.982225 273.192903 
L 919.432025 273.192903 
L 928.881825 273.192903 
L 938.331625 274.347482 
L 947.781425 273.192903 
L 957.231225 270.883746 
L 966.681025 273.192903 
L 976.130825 273.192903 
L 985.580625 272.038325 
" style="fill:none;stroke:#f0ad4e;stroke-linecap:square;"/>
   </g>
   <g id="line2d_19">
    <path clip-path="url(#p494baea330)" d="M 40.600625 274.593604 
L 50.050425 274.33552 
L 59.500225 273.970762 
L 68.950025 273.654178 
L 78.399825 273.005527 
L 87.849625 271.75296 
L 97.299425 269.738184 
L 106.749225 267.305312 
L 116.199025 264.301214 
L 125.648825 261.190441 
L 135.098625 257.65469 
L 144.548425 253.241454 
L 153.998225 249.038126 
L 163.448025 245.123851 
L 172.897825 240.125625 
L 182.347625 232.575807 
L 191.797425 229.831514 
L 201.247225 232.221372 
L 210.697025 231.29399 
L 220.146825 226.491907 
L 229.596625 221.569384 
L 239.046425 217.266263 
L 248.496225 211.443888 
L 257.946025 203.828689 
L 267.395825 197.354222 
L 276.845625 193.613724 
L 286.295425 186.082833 
L 295.745225 169.133596 
L 305.195025 148.552256 
L 314.644825 131.998748 
L 324.094625 117.38259 
L 333.544425 111.541289 
L 342.994225 104.60399 
L 352.444025 91.353957 
L 361.893825 79.22745 
L 371.343625 66.822212 
L 380.793425 58.486098 
L 390.243225 60.557653 
L 399.693025 59.59586 
L 409.142825 43.171393 
L 418.592625 54.489237 
L 428.042425 82.864714 
L 437.492225 95.290599 
L 446.942025 103.881355 
L 456.391825 103.824577 
L 465.841625 105.55374 
L 475.291425 118.790008 
L 484.741225 133.894805 
L 494.191025 146.995149 
L 503.640825 156.802342 
L 513.090625 164.014929 
L 522.540425 170.685541 
L 531.990225 176.743633 
L 541.440025 182.57117 
L 550.889825 188.023625 
L 560.339625 193.300582 
L 569.789425 199.852475 
L 579.239225 207.125282 
L 588.689025 212.890879 
L 598.138825 217.390144 
L 607.588625 222.20083 
L 617.038425 226.5332 
L 626.488225 230.287462 
L 635.938025 234.349704 
L 645.387825 238.043747 
L 654.837625 241.367869 
L 664.287425 244.406378 
L 673.737225 246.049513 
L 683.187025 247.57737 
L 692.636825 249.771084 
L 702.086625 251.679185 
L 711.536425 253.556316 
L 720.986225 255.113423 
L 730.436025 256.013276 
L 739.885825 256.840866 
L 749.335625 257.443062 
L 758.785425 257.701146 
L 768.235225 257.668455 
L 777.685025 257.379401 
L 787.134825 257.086906 
L 796.584625 256.643001 
L 806.034425 256.902806 
L 815.484225 258.098595 
L 824.934025 260.161546 
L 834.383825 262.649476 
L 843.833625 265.438504 
L 853.283425 268.349692 
L 862.733225 270.804931 
L 872.183025 272.702709 
L 881.632825 273.981085 
L 891.082625 274.714043 
L 900.532425 275.063317 
L 909.982225 275.218168 
L 919.432025 275.31624 
L 928.881825 275.362695 
L 938.331625 275.37818 
L 947.781425 275.412591 
L 957.231225 275.436679 
L 966.681025 275.438399 
L 976.130825 275.459046 
L 985.580625 275.479693 
" style="fill:none;stroke:#f0ad4e;stroke-linecap:square;"/>
   </g>
   <g id="line2d_20">
    <path clip-path="url(#p494baea330)" d="M 40.600625 273.898008 
L 50.050425 273.741849 
L 59.500225 273.337754 
L 68.950025 272.863114 
L 78.399825 272.252862 
L 87.849625 271.091259 
L 97.299425 268.792712 
L 106.749225 265.584608 
L 116.199025 261.905288 
L 125.648825 258.375278 
L 135.098625 254.886362 
L 144.548425 251.049513 
L 153.998225 247.633198 
L 163.448025 244.353178 
L 172.897825 241.334794 
L 182.347625 238.069842 
L 191.797425 235.366515 
L 201.247225 233.806982 
L 210.697025 231.399534 
L 220.146825 227.168864 
L 229.596625 222.106717 
L 239.046425 216.037757 
L 248.496225 208.720896 
L 257.946025 201.171167 
L 267.395825 193.20707 
L 276.845625 186.407314 
L 286.295425 179.831523 
L 295.745225 169.066156 
L 305.195025 156.665916 
L 314.644825 144.296497 
L 324.094625 135.199564 
L 333.544425 130.946977 
L 342.994225 124.268449 
L 352.444025 116.871455 
L 361.893825 112.60243 
L 371.343625 109.594319 
L 380.793425 107.035506 
L 390.243225 105.431454 
L 399.693025 105.87048 
L 409.142825 103.946576 
L 418.592625 105.874589 
L 428.042425 112.276414 
L 437.492225 118.820015 
L 446.942025 124.369131 
L 456.391825 127.310806 
L 465.841625 131.536681 
L 475.291425 134.433838 
L 484.741225 137.869331 
L 494.191025 141.321262 
L 503.640825 143.404748 
L 513.090625 146.071091 
L 522.540425 152.892079 
L 531.990225 162.502693 
L 541.440025 170.307892 
L 550.889825 176.02481 
L 560.339625 181.17531 
L 569.789425 186.575116 
L 579.239225 191.763971 
L 588.689025 197.394591 
L 598.138825 203.305337 
L 607.588625 208.169546 
L 617.038425 211.670105 
L 626.488225 212.052968 
L 635.938025 212.798832 
L 645.387825 217.467158 
L 654.837625 222.520401 
L 664.287425 226.614774 
L 673.737225 226.925037 
L 683.187025 228.518816 
L 692.636825 232.545383 
L 702.086625 235.132277 
L 711.536425 238.025323 
L 720.986225 240.343048 
L 730.436025 241.565607 
L 739.885825 241.921074 
L 749.335625 241.87724 
L 758.785425 241.117678 
L 768.235225 240.647147 
L 777.685025 240.356747 
L 787.134825 240.783444 
L 796.584625 242.806659 
L 806.034425 245.941478 
L 815.484225 250.122149 
L 824.934025 255.193885 
L 834.383825 260.210143 
L 843.833625 264.54081 
L 853.283425 268.277662 
L 862.733225 271.081671 
L 872.183025 272.868593 
L 881.632825 273.992525 
L 891.082625 274.628119 
L 900.532425 274.934272 
L 909.982225 275.122622 
L 919.432025 275.232892 
L 928.881825 275.272616 
L 938.331625 275.324669 
L 947.781425 275.372613 
L 957.231225 275.402064 
L 966.681025 275.423296 
L 976.130825 275.432884 
L 985.580625 275.443843 
" style="fill:none;stroke:#f0ad4e;stroke-linecap:square;"/>
   </g>
   <g id="line2d_21">
    <path clip-path="url(#p494baea330)" d="M 40.600625 275.50206 
L 985.580625 275.50206 
" style="fill:none;stroke:#dedede;stroke-linecap:square;stroke-width:2;"/>
   </g>
   <g id="text_17">
    <!-- FastQC: Per Sequence GC Content -->
    <g transform="translate(376.454375 19.3575)scale(0.16 -0.16)">
     <defs>
      <path d="M 9.8125 72.90625 
L 51.703125 72.90625 
L 51.703125 64.59375 
L 19.671875 64.59375 
L 19.671875 43.109375 
L 48.578125 43.109375 
L 48.578125 34.8125 
L 19.671875 34.8125 
L 19.671875 0 
L 9.8125 0 
z
" id="DejaVuSans-70"/>
      <path d="M 44.28125 53.078125 
L 44.28125 44.578125 
Q 40.484375 46.53125 36.375 47.5 
Q 32.28125 48.484375 27.875 48.484375 
Q 21.1875 48.484375 17.84375 46.4375 
Q 14.5 44.390625 14.5 40.28125 
Q 14.5 37.15625 16.890625 35.375 
Q 19.28125 33.59375 26.515625 31.984375 
L 29.59375 31.296875 
Q 39.15625 29.25 43.1875 25.515625 
Q 47.21875 21.78125 47.21875 15.09375 
Q 47.21875 7.46875 41.1875 3.015625 
Q 35.15625 -1.421875 24.609375 -1.421875 
Q 20.21875 -1.421875 15.453125 -0.5625 
Q 10.6875 0.296875 5.421875 2 
L 5.421875 11.28125 
Q 10.40625 8.6875 15.234375 7.390625 
Q 20.0625 6.109375 24.8125 6.109375 
Q 31.15625 6.109375 34.5625 8.28125 
Q 37.984375 10.453125 37.984375 14.40625 
Q 37.984375 18.0625 35.515625 20.015625 
Q 33.0625 21.96875 24.703125 23.78125 
L 21.578125 24.515625 
Q 13.234375 26.265625 9.515625 29.90625 
Q 5.8125 33.546875 5.8125 39.890625 
Q 5.8125 47.609375 11.28125 51.796875 
Q 16.75 56 26.8125 56 
Q 31.78125 56 36.171875 55.265625 
Q 40.578125 54.546875 44.28125 53.078125 
z
" id="DejaVuSans-115"/>
      <path d="M 39.40625 66.21875 
Q 28.65625 66.21875 22.328125 58.203125 
Q 16.015625 50.203125 16.015625 36.375 
Q 16.015625 22.609375 22.328125 14.59375 
Q 28.65625 6.59375 39.40625 6.59375 
Q 50.140625 6.59375 56.421875 14.59375 
Q 62.703125 22.609375 62.703125 36.375 
Q 62.703125 50.203125 56.421875 58.203125 
Q 50.140625 66.21875 39.40625 66.21875 
z
M 53.21875 1.3125 
L 66.21875 -12.890625 
L 54.296875 -12.890625 
L 43.5 -1.21875 
Q 41.890625 -1.3125 41.03125 -1.359375 
Q 40.1875 -1.421875 39.40625 -1.421875 
Q 24.03125 -1.421875 14.8125 8.859375 
Q 5.609375 19.140625 5.609375 36.375 
Q 5.609375 53.65625 14.8125 63.9375 
Q 24.03125 74.21875 39.40625 74.21875 
Q 54.734375 74.21875 63.90625 63.9375 
Q 73.09375 53.65625 73.09375 36.375 
Q 73.09375 23.6875 67.984375 14.640625 
Q 62.890625 5.609375 53.21875 1.3125 
z
" id="DejaVuSans-81"/>
      <path d="M 11.71875 12.40625 
L 22.015625 12.40625 
L 22.015625 0 
L 11.71875 0 
z
M 11.71875 51.703125 
L 22.015625 51.703125 
L 22.015625 39.3125 
L 11.71875 39.3125 
z
" id="DejaVuSans-58"/>
      <path d="M 53.515625 70.515625 
L 53.515625 60.890625 
Q 47.90625 63.578125 42.921875 64.890625 
Q 37.9375 66.21875 33.296875 66.21875 
Q 25.25 66.21875 20.875 63.09375 
Q 16.5 59.96875 16.5 54.203125 
Q 16.5 49.359375 19.40625 46.890625 
Q 22.3125 44.4375 30.421875 42.921875 
L 36.375 41.703125 
Q 47.40625 39.59375 52.65625 34.296875 
Q 57.90625 29 57.90625 20.125 
Q 57.90625 9.515625 50.796875 4.046875 
Q 43.703125 -1.421875 29.984375 -1.421875 
Q 24.8125 -1.421875 18.96875 -0.25 
Q 13.140625 0.921875 6.890625 3.21875 
L 6.890625 13.375 
Q 12.890625 10.015625 18.65625 8.296875 
Q 24.421875 6.59375 29.984375 6.59375 
Q 38.421875 6.59375 43.015625 9.90625 
Q 47.609375 13.234375 47.609375 19.390625 
Q 47.609375 24.75 44.3125 27.78125 
Q 41.015625 30.8125 33.5 32.328125 
L 27.484375 33.5 
Q 16.453125 35.6875 11.515625 40.375 
Q 6.59375 45.0625 6.59375 53.421875 
Q 6.59375 63.09375 13.40625 68.65625 
Q 20.21875 74.21875 32.171875 74.21875 
Q 37.3125 74.21875 42.625 73.28125 
Q 47.953125 72.359375 53.515625 70.515625 
z
" id="DejaVuSans-83"/>
      <path d="M 14.796875 27.296875 
Q 14.796875 17.390625 18.875 11.75 
Q 22.953125 6.109375 30.078125 6.109375 
Q 37.203125 6.109375 41.296875 11.75 
Q 45.40625 17.390625 45.40625 27.296875 
Q 45.40625 37.203125 41.296875 42.84375 
Q 37.203125 48.484375 30.078125 48.484375 
Q 22.953125 48.484375 18.875 42.84375 
Q 14.796875 37.203125 14.796875 27.296875 
z
M 45.40625 8.203125 
Q 42.578125 3.328125 38.25 0.953125 
Q 33.9375 -1.421875 27.875 -1.421875 
Q 17.96875 -1.421875 11.734375 6.484375 
Q 5.515625 14.40625 5.515625 27.296875 
Q 5.515625 40.1875 11.734375 48.09375 
Q 17.96875 56 27.875 56 
Q 33.9375 56 38.25 53.625 
Q 42.578125 51.265625 45.40625 46.390625 
L 45.40625 54.6875 
L 54.390625 54.6875 
L 54.390625 -20.796875 
L 45.40625 -20.796875 
z
" id="DejaVuSans-113"/>
      <path d="M 8.5 21.578125 
L 8.5 54.6875 
L 17.484375 54.6875 
L 17.484375 21.921875 
Q 17.484375 14.15625 20.5 10.265625 
Q 23.53125 6.390625 29.59375 6.390625 
Q 36.859375 6.390625 41.078125 11.03125 
Q 45.3125 15.671875 45.3125 23.6875 
L 45.3125 54.6875 
L 54.296875 54.6875 
L 54.296875 0 
L 45.3125 0 
L 45.3125 8.40625 
Q 42.046875 3.421875 37.71875 1 
Q 33.40625 -1.421875 27.6875 -1.421875 
Q 18.265625 -1.421875 13.375 4.4375 
Q 8.5 10.296875 8.5 21.578125 
z
M 31.109375 56 
z
" id="DejaVuSans-117"/>
      <path d="M 30.609375 48.390625 
Q 23.390625 48.390625 19.1875 42.75 
Q 14.984375 37.109375 14.984375 27.296875 
Q 14.984375 17.484375 19.15625 11.84375 
Q 23.34375 6.203125 30.609375 6.203125 
Q 37.796875 6.203125 41.984375 11.859375 
Q 46.1875 17.53125 46.1875 27.296875 
Q 46.1875 37.015625 41.984375 42.703125 
Q 37.796875 48.390625 30.609375 48.390625 
z
M 30.609375 56 
Q 42.328125 56 49.015625 48.375 
Q 55.71875 40.765625 55.71875 27.296875 
Q 55.71875 13.875 49.015625 6.21875 
Q 42.328125 -1.421875 30.609375 -1.421875 
Q 18.84375 -1.421875 12.171875 6.21875 
Q 5.515625 13.875 5.515625 27.296875 
Q 5.515625 40.765625 12.171875 48.375 
Q 18.84375 56 30.609375 56 
z
" id="DejaVuSans-111"/>
     </defs>
     <use xlink:href="#DejaVuSans-70"/>
     <use x="48.394531" xlink:href="#DejaVuSans-97"/>
     <use x="109.673828" xlink:href="#DejaVuSans-115"/>
     <use x="161.773438" xlink:href="#DejaVuSans-116"/>
     <use x="200.982422" xlink:href="#DejaVuSans-81"/>
     <use x="279.693359" xlink:href="#DejaVuSans-67"/>
     <use x="349.517578" xlink:href="#DejaVuSans-58"/>
     <use x="383.208984" xlink:href="#DejaVuSans-32"/>
     <use x="414.996094" xlink:href="#DejaVuSans-80"/>
     <use x="471.673828" xlink:href="#DejaVuSans-101"/>
     <use x="533.197266" xlink:href="#DejaVuSans-114"/>
     <use x="574.310547" xlink:href="#DejaVuSans-32"/>
     <use x="606.097656" xlink:href="#DejaVuSans-83"/>
     <use x="669.574219" xlink:href="#DejaVuSans-101"/>
     <use x="731.097656" xlink:href="#DejaVuSans-113"/>
     <use x="794.574219" xlink:href="#DejaVuSans-117"/>
     <use x="857.953125" xlink:href="#DejaVuSans-101"/>
     <use x="919.476562" xlink:href="#DejaVuSans-110"/>
     <use x="982.855469" xlink:href="#DejaVuSans-99"/>
     <use x="1037.835938" xlink:href="#DejaVuSans-101"/>
     <use x="1099.359375" xlink:href="#DejaVuSans-32"/>
     <use x="1131.146484" xlink:href="#DejaVuSans-71"/>
     <use x="1208.636719" xlink:href="#DejaVuSans-67"/>
     <use x="1278.460938" xlink:href="#DejaVuSans-32"/>
     <use x="1310.248047" xlink:href="#DejaVuSans-67"/>
     <use x="1380.072266" xlink:href="#DejaVuSans-111"/>
     <use x="1441.253906" xlink:href="#DejaVuSans-110"/>
     <use x="1504.632812" xlink:href="#DejaVuSans-116"/>
     <use x="1543.841797" xlink:href="#DejaVuSans-101"/>
     <use x="1605.365234" xlink:href="#DejaVuSans-110"/>
     <use x="1668.744141" xlink:href="#DejaVuSans-116"/>
    </g>
   </g>
   <g id="legend_1">
    <g id="line2d_22">
     <path d="M 47.800625 293.354194 
L 63.800625 293.354194 
" style="fill:none;stroke:#f0ad4e;stroke-linecap:square;"/>
    </g>
    <g id="line2d_23"/>
    <g id="text_18">
     <!-- RTS0_BC_AGCAAC -->
     <g transform="translate(70.200625 296.154194)scale(0.08 -0.08)">
      <defs>
       <path d="M 44.390625 34.1875 
Q 47.5625 33.109375 50.5625 29.59375 
Q 53.5625 26.078125 56.59375 19.921875 
L 66.609375 0 
L 56 0 
L 46.6875 18.703125 
Q 43.0625 26.03125 39.671875 28.421875 
Q 36.28125 30.8125 30.421875 30.8125 
L 19.671875 30.8125 
L 19.671875 0 
L 9.8125 0 
L 9.8125 72.90625 
L 32.078125 72.90625 
Q 44.578125 72.90625 50.734375 67.671875 
Q 56.890625 62.453125 56.890625 51.90625 
Q 56.890625 45.015625 53.6875 40.46875 
Q 50.484375 35.9375 44.390625 34.1875 
z
M 19.671875 64.796875 
L 19.671875 38.921875 
L 32.078125 38.921875 
Q 39.203125 38.921875 42.84375 42.21875 
Q 46.484375 45.515625 46.484375 51.90625 
Q 46.484375 58.296875 42.84375 61.546875 
Q 39.203125 64.796875 32.078125 64.796875 
z
" id="DejaVuSans-82"/>
       <path d="M -0.296875 72.90625 
L 61.375 72.90625 
L 61.375 64.59375 
L 35.5 64.59375 
L 35.5 0 
L 25.59375 0 
L 25.59375 64.59375 
L -0.296875 64.59375 
z
" id="DejaVuSans-84"/>
       <path d="M 50.984375 -16.609375 
L 50.984375 -23.578125 
L -0.984375 -23.578125 
L -0.984375 -16.609375 
z
" id="DejaVuSans-95"/>
       <path d="M 19.671875 34.8125 
L 19.671875 8.109375 
L 35.5 8.109375 
Q 43.453125 8.109375 47.28125 11.40625 
Q 51.125 14.703125 51.125 21.484375 
Q 51.125 28.328125 47.28125 31.5625 
Q 43.453125 34.8125 35.5 34.8125 
z
M 19.671875 64.796875 
L 19.671875 42.828125 
L 34.28125 42.828125 
Q 41.5 42.828125 45.03125 45.53125 
Q 48.578125 48.25 48.578125 53.8125 
Q 48.578125 59.328125 45.03125 62.0625 
Q 41.5 64.796875 34.28125 64.796875 
z
M 9.8125 72.90625 
L 35.015625 72.90625 
Q 46.296875 72.90625 52.390625 68.21875 
Q 58.5 63.53125 58.5 54.890625 
Q 58.5 48.1875 55.375 44.234375 
Q 52.25 40.28125 46.1875 39.3125 
Q 53.46875 37.75 57.5 32.78125 
Q 61.53125 27.828125 61.53125 20.40625 
Q 61.53125 10.640625 54.890625 5.3125 
Q 48.25 0 35.984375 0 
L 9.8125 0 
z
" id="DejaVuSans-66"/>
       <path d="M 34.1875 63.1875 
L 20.796875 26.90625 
L 47.609375 26.90625 
z
M 28.609375 72.90625 
L 39.796875 72.90625 
L 67.578125 0 
L 57.328125 0 
L 50.6875 18.703125 
L 17.828125 18.703125 
L 11.1875 0 
L 0.78125 0 
z
" id="DejaVuSans-65"/>
      </defs>
      <use xlink:href="#DejaVuSans-82"/>
      <use x="62.232422" xlink:href="#DejaVuSans-84"/>
      <use x="123.316406" xlink:href="#DejaVuSans-83"/>
      <use x="186.792969" xlink:href="#DejaVuSans-48"/>
      <use x="250.416016" xlink:href="#DejaVuSans-95"/>
      <use x="300.416016" xlink:href="#DejaVuSans-66"/>
      <use x="367.269531" xlink:href="#DejaVuSans-67"/>
      <use x="437.09375" xlink:href="#DejaVuSans-95"/>
      <use x="487.09375" xlink:href="#DejaVuSans-65"/>
      <use x="553.751953" xlink:href="#DejaVuSans-71"/>
      <use x="631.242188" xlink:href="#DejaVuSans-67"/>
      <use x="701.066406" xlink:href="#DejaVuSans-65"/>
      <use x="772.224609" xlink:href="#DejaVuSans-65"/>
      <use x="838.882812" xlink:href="#DejaVuSans-67"/>
     </g>
    </g>
    <g id="line2d_24">
     <path d="M 47.800625 305.319194 
L 63.800625 305.319194 
" style="fill:none;stroke:#d9534f;stroke-linecap:square;"/>
    </g>
    <g id="line2d_25"/>
    <g id="text_19">
     <!-- RTS0_BC_ATCGTG -->
     <g transform="translate(70.200625 308.119194)scale(0.08 -0.08)">
      <use xlink:href="#DejaVuSans-82"/>
      <use x="62.232422" xlink:href="#DejaVuSans-84"/>
      <use x="123.316406" xlink:href="#DejaVuSans-83"/>
      <use x="186.792969" xlink:href="#DejaVuSans-48"/>
      <use x="250.416016" xlink:href="#DejaVuSans-95"/>
      <use x="300.416016" xlink:href="#DejaVuSans-66"/>
      <use x="367.269531" xlink:href="#DejaVuSans-67"/>
      <use x="437.09375" xlink:href="#DejaVuSans-95"/>
      <use x="487.09375" xlink:href="#DejaVuSans-65"/>
      <use x="547.751953" xlink:href="#DejaVuSans-84"/>
      <use x="602.960938" xlink:href="#DejaVuSans-67"/>
      <use x="672.785156" xlink:href="#DejaVuSans-71"/>
      <use x="746.650391" xlink:href="#DejaVuSans-84"/>
      <use x="807.734375" xlink:href="#DejaVuSans-71"/>
     </g>
    </g>
    <g id="line2d_26">
     <path d="M 47.800625 317.284194 
L 63.800625 317.284194 
" style="fill:none;stroke:#f0ad4e;stroke-linecap:square;"/>
    </g>
    <g id="line2d_27"/>
    <g id="text_20">
     <!-- RTS0_BC_CCACTA -->
     <g transform="translate(70.200625 320.084194)scale(0.08 -0.08)">
      <use xlink:href="#DejaVuSans-82"/>
      <use x="62.232422" xlink:href="#DejaVuSans-84"/>
      <use x="123.316406" xlink:href="#DejaVuSans-83"/>
      <use x="186.792969" xlink:href="#DejaVuSans-48"/>
      <use x="250.416016" xlink:href="#DejaVuSans-95"/>
      <use x="300.416016" xlink:href="#DejaVuSans-66"/>
      <use x="367.269531" xlink:href="#DejaVuSans-67"/>
      <use x="437.09375" xlink:href="#DejaVuSans-95"/>
      <use x="487.09375" xlink:href="#DejaVuSans-67"/>
      <use x="556.917969" xlink:href="#DejaVuSans-67"/>
      <use x="626.742188" xlink:href="#DejaVuSans-65"/>
      <use x="693.400391" xlink:href="#DejaVuSans-67"/>
      <use x="763.224609" xlink:href="#DejaVuSans-84"/>
      <use x="816.558594" xlink:href="#DejaVuSans-65"/>
     </g>
    </g>
    <g id="line2d_28">
     <path d="M 256.623438 293.354194 
L 272.623438 293.354194 
" style="fill:none;stroke:#f0ad4e;stroke-linecap:square;"/>
    </g>
    <g id="line2d_29"/>
    <g id="text_21">
     <!-- RTS0_BC_CCTATG -->
     <g transform="translate(279.023438 296.154194)scale(0.08 -0.08)">
      <use xlink:href="#DejaVuSans-82"/>
      <use x="62.232422" xlink:href="#DejaVuSans-84"/>
      <use x="123.316406" xlink:href="#DejaVuSans-83"/>
      <use x="186.792969" xlink:href="#DejaVuSans-48"/>
      <use x="250.416016" xlink:href="#DejaVuSans-95"/>
      <use x="300.416016" xlink:href="#DejaVuSans-66"/>
      <use x="367.269531" xlink:href="#DejaVuSans-67"/>
      <use x="437.09375" xlink:href="#DejaVuSans-95"/>
      <use x="487.09375" xlink:href="#DejaVuSans-67"/>
      <use x="556.917969" xlink:href="#DejaVuSans-67"/>
      <use x="626.742188" xlink:href="#DejaVuSans-84"/>
      <use x="680.076172" xlink:href="#DejaVuSans-65"/>
      <use x="740.734375" xlink:href="#DejaVuSans-84"/>
      <use x="801.818359" xlink:href="#DejaVuSans-71"/>
     </g>
    </g>
    <g id="line2d_30">
     <path d="M 256.623438 305.319194 
L 272.623438 305.319194 
" style="fill:none;stroke:#f0ad4e;stroke-linecap:square;"/>
    </g>
    <g id="line2d_31"/>
    <g id="text_22">
     <!-- RTS0_BC_CGTCCG -->
     <g transform="translate(279.023438 308.119194)scale(0.08 -0.08)">
      <use xlink:href="#DejaVuSans-82"/>
      <use x="62.232422" xlink:href="#DejaVuSans-84"/>
      <use x="123.316406" xlink:href="#DejaVuSans-83"/>
      <use x="186.792969" xlink:href="#DejaVuSans-48"/>
      <use x="250.416016" xlink:href="#DejaVuSans-95"/>
      <use x="300.416016" xlink:href="#DejaVuSans-66"/>
      <use x="367.269531" xlink:href="#DejaVuSans-67"/>
      <use x="437.09375" xlink:href="#DejaVuSans-95"/>
      <use x="487.09375" xlink:href="#DejaVuSans-67"/>
      <use x="556.917969" xlink:href="#DejaVuSans-71"/>
      <use x="630.783203" xlink:href="#DejaVuSans-84"/>
      <use x="685.992188" xlink:href="#DejaVuSans-67"/>
      <use x="755.816406" xlink:href="#DejaVuSans-67"/>
      <use x="825.640625" xlink:href="#DejaVuSans-71"/>
     </g>
    </g>
    <g id="line2d_32">
     <path d="M 256.623438 317.284194 
L 272.623438 317.284194 
" style="fill:none;stroke:#f0ad4e;stroke-linecap:square;"/>
    </g>
    <g id="line2d_33"/>
    <g id="text_23">
     <!-- RTS0_BC_CTTACA -->
     <g transform="translate(279.023438 320.084194)scale(0.08 -0.08)">
      <use xlink:href="#DejaVuSans-82"/>
      <use x="62.232422" xlink:href="#DejaVuSans-84"/>
      <use x="123.316406" xlink:href="#DejaVuSans-83"/>
      <use x="186.792969" xlink:href="#DejaVuSans-48"/>
      <use x="250.416016" xlink:href="#DejaVuSans-95"/>
      <use x="300.416016" xlink:href="#DejaVuSans-66"/>
      <use x="367.269531" xlink:href="#DejaVuSans-67"/>
      <use x="437.09375" xlink:href="#DejaVuSans-95"/>
      <use x="487.09375" xlink:href="#DejaVuSans-67"/>
      <use x="556.917969" xlink:href="#DejaVuSans-84"/>
      <use x="616.251953" xlink:href="#DejaVuSans-84"/>
      <use x="669.585938" xlink:href="#DejaVuSans-65"/>
      <use x="736.244141" xlink:href="#DejaVuSans-67"/>
      <use x="806.068359" xlink:href="#DejaVuSans-65"/>
     </g>
    </g>
    <g id="line2d_34">
     <path d="M 465 293.354194 
L 481 293.354194 
" style="fill:none;stroke:#f0ad4e;stroke-linecap:square;"/>
    </g>
    <g id="line2d_35"/>
    <g id="text_24">
     <!-- RTS0_BC_GACGCG -->
     <g transform="translate(487.4 296.154194)scale(0.08 -0.08)">
      <use xlink:href="#DejaVuSans-82"/>
      <use x="62.232422" xlink:href="#DejaVuSans-84"/>
      <use x="123.316406" xlink:href="#DejaVuSans-83"/>
      <use x="186.792969" xlink:href="#DejaVuSans-48"/>
      <use x="250.416016" xlink:href="#DejaVuSans-95"/>
      <use x="300.416016" xlink:href="#DejaVuSans-66"/>
      <use x="367.269531" xlink:href="#DejaVuSans-67"/>
      <use x="437.09375" xlink:href="#DejaVuSans-95"/>
      <use x="487.09375" xlink:href="#DejaVuSans-71"/>
      <use x="564.583984" xlink:href="#DejaVuSans-65"/>
      <use x="631.242188" xlink:href="#DejaVuSans-67"/>
      <use x="701.066406" xlink:href="#DejaVuSans-71"/>
      <use x="778.556641" xlink:href="#DejaVuSans-67"/>
      <use x="848.380859" xlink:href="#DejaVuSans-71"/>
     </g>
    </g>
    <g id="line2d_36">
     <path d="M 465 305.319194 
L 481 305.319194 
" style="fill:none;stroke:#f0ad4e;stroke-linecap:square;"/>
    </g>
    <g id="line2d_37"/>
    <g id="text_25">
     <!-- RTS0_BC_GGAGGC -->
     <g transform="translate(487.4 308.119194)scale(0.08 -0.08)">
      <use xlink:href="#DejaVuSans-82"/>
      <use x="62.232422" xlink:href="#DejaVuSans-84"/>
      <use x="123.316406" xlink:href="#DejaVuSans-83"/>
      <use x="186.792969" xlink:href="#DejaVuSans-48"/>
      <use x="250.416016" xlink:href="#DejaVuSans-95"/>
      <use x="300.416016" xlink:href="#DejaVuSans-66"/>
      <use x="367.269531" xlink:href="#DejaVuSans-67"/>
      <use x="437.09375" xlink:href="#DejaVuSans-95"/>
      <use x="487.09375" xlink:href="#DejaVuSans-71"/>
      <use x="564.583984" xlink:href="#DejaVuSans-71"/>
      <use x="642.074219" xlink:href="#DejaVuSans-65"/>
      <use x="708.732422" xlink:href="#DejaVuSans-71"/>
      <use x="786.222656" xlink:href="#DejaVuSans-71"/>
      <use x="863.712891" xlink:href="#DejaVuSans-67"/>
     </g>
    </g>
    <g id="line2d_38">
     <path d="M 675.807813 293.354194 
L 691.807813 293.354194 
" style="fill:none;stroke:#d9534f;stroke-linecap:square;"/>
    </g>
    <g id="line2d_39"/>
    <g id="text_26">
     <!-- RTS0_BC_GTGAGG -->
     <g transform="translate(698.207813 296.154194)scale(0.08 -0.08)">
      <use xlink:href="#DejaVuSans-82"/>
      <use x="62.232422" xlink:href="#DejaVuSans-84"/>
      <use x="123.316406" xlink:href="#DejaVuSans-83"/>
      <use x="186.792969" xlink:href="#DejaVuSans-48"/>
      <use x="250.416016" xlink:href="#DejaVuSans-95"/>
      <use x="300.416016" xlink:href="#DejaVuSans-66"/>
      <use x="367.269531" xlink:href="#DejaVuSans-67"/>
      <use x="437.09375" xlink:href="#DejaVuSans-95"/>
      <use x="487.09375" xlink:href="#DejaVuSans-71"/>
      <use x="560.958984" xlink:href="#DejaVuSans-84"/>
      <use x="622.042969" xlink:href="#DejaVuSans-71"/>
      <use x="699.533203" xlink:href="#DejaVuSans-65"/>
      <use x="766.191406" xlink:href="#DejaVuSans-71"/>
      <use x="843.681641" xlink:href="#DejaVuSans-71"/>
     </g>
    </g>
    <g id="line2d_40">
     <path d="M 675.807813 305.319194 
L 691.807813 305.319194 
" style="fill:none;stroke:#f0ad4e;stroke-linecap:square;"/>
    </g>
    <g id="line2d_41"/>
    <g id="text_27">
     <!-- RTS0_BC_TAGGGG -->
     <g transform="translate(698.207813 308.119194)scale(0.08 -0.08)">
      <use xlink:href="#DejaVuSans-82"/>
      <use x="62.232422" xlink:href="#DejaVuSans-84"/>
      <use x="123.316406" xlink:href="#DejaVuSans-83"/>
      <use x="186.792969" xlink:href="#DejaVuSans-48"/>
      <use x="250.416016" xlink:href="#DejaVuSans-95"/>
      <use x="300.416016" xlink:href="#DejaVuSans-66"/>
      <use x="367.269531" xlink:href="#DejaVuSans-67"/>
      <use x="437.09375" xlink:href="#DejaVuSans-95"/>
      <use x="487.09375" xlink:href="#DejaVuSans-84"/>
      <use x="540.427734" xlink:href="#DejaVuSans-65"/>
      <use x="607.085938" xlink:href="#DejaVuSans-71"/>
      <use x="684.576172" xlink:href="#DejaVuSans-71"/>
      <use x="762.066406" xlink:href="#DejaVuSans-71"/>
      <use x="839.556641" xlink:href="#DejaVuSans-71"/>
     </g>
    </g>
    <g id="line2d_42">
     <path d="M 885.625625 293.354194 
L 901.625625 293.354194 
" style="fill:none;stroke:#f0ad4e;stroke-linecap:square;"/>
    </g>
    <g id="line2d_43"/>
    <g id="text_28">
     <!-- RTS0_BC_TCCTAG -->
     <g transform="translate(908.025625 296.154194)scale(0.08 -0.08)">
      <use xlink:href="#DejaVuSans-82"/>
      <use x="62.232422" xlink:href="#DejaVuSans-84"/>
      <use x="123.316406" xlink:href="#DejaVuSans-83"/>
      <use x="186.792969" xlink:href="#DejaVuSans-48"/>
      <use x="250.416016" xlink:href="#DejaVuSans-95"/>
      <use x="300.416016" xlink:href="#DejaVuSans-66"/>
      <use x="367.269531" xlink:href="#DejaVuSans-67"/>
      <use x="437.09375" xlink:href="#DejaVuSans-95"/>
      <use x="487.09375" xlink:href="#DejaVuSans-84"/>
      <use x="542.302734" xlink:href="#DejaVuSans-67"/>
      <use x="612.126953" xlink:href="#DejaVuSans-67"/>
      <use x="681.951172" xlink:href="#DejaVuSans-84"/>
      <use x="735.285156" xlink:href="#DejaVuSans-65"/>
      <use x="801.943359" xlink:href="#DejaVuSans-71"/>
     </g>
    </g>
    <g id="line2d_44">
     <path d="M 885.625625 305.319194 
L 901.625625 305.319194 
" style="fill:none;stroke:#f0ad4e;stroke-linecap:square;"/>
    </g>
    <g id="line2d_45"/>
    <g id="text_29">
     <!-- RTS0_BC_TGTTTG -->
     <g transform="translate(908.025625 308.119194)scale(0.08 -0.08)">
      <use xlink:href="#DejaVuSans-82"/>
      <use x="62.232422" xlink:href="#DejaVuSans-84"/>
      <use x="123.316406" xlink:href="#DejaVuSans-83"/>
      <use x="186.792969" xlink:href="#DejaVuSans-48"/>
      <use x="250.416016" xlink:href="#DejaVuSans-95"/>
      <use x="300.416016" xlink:href="#DejaVuSans-66"/>
      <use x="367.269531" xlink:href="#DejaVuSans-67"/>
      <use x="437.09375" xlink:href="#DejaVuSans-95"/>
      <use x="487.09375" xlink:href="#DejaVuSans-84"/>
      <use x="548.177734" xlink:href="#DejaVuSans-71"/>
      <use x="622.042969" xlink:href="#DejaVuSans-84"/>
      <use x="681.376953" xlink:href="#DejaVuSans-84"/>
      <use x="740.710938" xlink:href="#DejaVuSans-84"/>
      <use x="801.794922" xlink:href="#DejaVuSans-71"/>
     </g>
    </g>
   </g>
  </g>
 </g>
 <defs>
  <clipPath id="p494baea330">
   <rect height="243.9472" width="944.98" x="40.600625" y="31.55486"/>
  </clipPath>
 </defs>
</svg>
