<?xml version="1.0" encoding="utf-8" standalone="no"?>
<!DOCTYPE svg PUBLIC "-//W3C//DTD SVG 1.1//EN"
  "http://www.w3.org/Graphics/SVG/1.1/DTD/svg11.dtd">
<!-- Created with matplotlib (https://matplotlib.org/) -->
<svg height="332.370444pt" version="1.1" viewBox="0 0 1000.558125 332.370444" width="1000.558125pt" xmlns="http://www.w3.org/2000/svg" xmlns:xlink="http://www.w3.org/1999/xlink">
 <metadata>
  <rdf:RDF xmlns:cc="http://creativecommons.org/ns#" xmlns:dc="http://purl.org/dc/elements/1.1/" xmlns:rdf="http://www.w3.org/1999/02/22-rdf-syntax-ns#">
   <cc:Work>
    <dc:type rdf:resource="http://purl.org/dc/dcmitype/StillImage"/>
    <dc:date>2020-09-26T22:33:08.331597</dc:date>
    <dc:format>image/svg+xml</dc:format>
    <dc:creator>
     <cc:Agent>
      <dc:title>Matplotlib v3.3.1, https://matplotlib.org/</dc:title>
     </cc:Agent>
    </dc:creator>
   </cc:Work>
  </rdf:RDF>
 </metadata>
 <defs>
  <style type="text/css">*{stroke-linecap:butt;stroke-linejoin:round;}</style>
 </defs>
 <g id="figure_1">
  <g id="axes_1">
   <g id="patch_1">
    <path d="M 53.328125 275.50206 
L 993.358125 275.50206 
L 993.358125 31.55486 
L 53.328125 31.55486 
z
" style="fill:#ffffff;"/>
   </g>
   <g id="matplotlib.axis_1">
    <g id="xtick_1">
     <g id="text_1">
      <!-- 0 -->
      <g transform="translate(72.497678 288.58081)scale(0.08 -0.08)">
       <defs>
        <path d="M 31.78125 66.40625 
Q 24.171875 66.40625 20.328125 58.90625 
Q 16.5 51.421875 16.5 36.375 
Q 16.5 21.390625 20.328125 13.890625 
Q 24.171875 6.390625 31.78125 6.390625 
Q 39.453125 6.390625 43.28125 13.890625 
Q 47.125 21.390625 47.125 36.375 
Q 47.125 51.421875 43.28125 58.90625 
Q 39.453125 66.40625 31.78125 66.40625 
z
M 31.78125 74.21875 
Q 44.046875 74.21875 50.515625 64.515625 
Q 56.984375 54.828125 56.984375 36.375 
Q 56.984375 17.96875 50.515625 8.265625 
Q 44.046875 -1.421875 31.78125 -1.421875 
Q 19.53125 -1.421875 13.0625 8.265625 
Q 6.59375 17.96875 6.59375 36.375 
Q 6.59375 54.828125 13.0625 64.515625 
Q 19.53125 74.21875 31.78125 74.21875 
z
" id="DejaVuSans-48"/>
       </defs>
       <use xlink:href="#DejaVuSans-48"/>
      </g>
     </g>
    </g>
    <g id="xtick_2">
     <g id="text_2">
      <!-- 20 -->
      <g transform="translate(210.046568 288.58081)scale(0.08 -0.08)">
       <defs>
        <path d="M 19.1875 8.296875 
L 53.609375 8.296875 
L 53.609375 0 
L 7.328125 0 
L 7.328125 8.296875 
Q 12.9375 14.109375 22.625 23.890625 
Q 32.328125 33.6875 34.8125 36.53125 
Q 39.546875 41.84375 41.421875 45.53125 
Q 43.3125 49.21875 43.3125 52.78125 
Q 43.3125 58.59375 39.234375 62.25 
Q 35.15625 65.921875 28.609375 65.921875 
Q 23.96875 65.921875 18.8125 64.3125 
Q 13.671875 62.703125 7.8125 59.421875 
L 7.8125 69.390625 
Q 13.765625 71.78125 18.9375 73 
Q 24.125 74.21875 28.421875 74.21875 
Q 39.75 74.21875 46.484375 68.546875 
Q 53.21875 62.890625 53.21875 53.421875 
Q 53.21875 48.921875 51.53125 44.890625 
Q 49.859375 40.875 45.40625 35.40625 
Q 44.1875 33.984375 37.640625 27.21875 
Q 31.109375 20.453125 19.1875 8.296875 
z
" id="DejaVuSans-50"/>
       </defs>
       <use xlink:href="#DejaVuSans-50"/>
       <use x="63.623047" xlink:href="#DejaVuSans-48"/>
      </g>
     </g>
    </g>
    <g id="xtick_3">
     <g id="text_3">
      <!-- 40 -->
      <g transform="translate(350.140457 288.58081)scale(0.08 -0.08)">
       <defs>
        <path d="M 37.796875 64.3125 
L 12.890625 25.390625 
L 37.796875 25.390625 
z
M 35.203125 72.90625 
L 47.609375 72.90625 
L 47.609375 25.390625 
L 58.015625 25.390625 
L 58.015625 17.1875 
L 47.609375 17.1875 
L 47.609375 0 
L 37.796875 0 
L 37.796875 17.1875 
L 4.890625 17.1875 
L 4.890625 26.703125 
z
" id="DejaVuSans-52"/>
       </defs>
       <use xlink:href="#DejaVuSans-52"/>
       <use x="63.623047" xlink:href="#DejaVuSans-48"/>
      </g>
     </g>
    </g>
    <g id="xtick_4">
     <g id="text_4">
      <!-- 60 -->
      <g transform="translate(490.234347 288.58081)scale(0.08 -0.08)">
       <defs>
        <path d="M 33.015625 40.375 
Q 26.375 40.375 22.484375 35.828125 
Q 18.609375 31.296875 18.609375 23.390625 
Q 18.609375 15.53125 22.484375 10.953125 
Q 26.375 6.390625 33.015625 6.390625 
Q 39.65625 6.390625 43.53125 10.953125 
Q 47.40625 15.53125 47.40625 23.390625 
Q 47.40625 31.296875 43.53125 35.828125 
Q 39.65625 40.375 33.015625 40.375 
z
M 52.59375 71.296875 
L 52.59375 62.3125 
Q 48.875 64.0625 45.09375 64.984375 
Q 41.3125 65.921875 37.59375 65.921875 
Q 27.828125 65.921875 22.671875 59.328125 
Q 17.53125 52.734375 16.796875 39.40625 
Q 19.671875 43.65625 24.015625 45.921875 
Q 28.375 48.1875 33.59375 48.1875 
Q 44.578125 48.1875 50.953125 41.515625 
Q 57.328125 34.859375 57.328125 23.390625 
Q 57.328125 12.15625 50.6875 5.359375 
Q 44.046875 -1.421875 33.015625 -1.421875 
Q 20.359375 -1.421875 13.671875 8.265625 
Q 6.984375 17.96875 6.984375 36.375 
Q 6.984375 53.65625 15.1875 63.9375 
Q 23.390625 74.21875 37.203125 74.21875 
Q 40.921875 74.21875 44.703125 73.484375 
Q 48.484375 72.75 52.59375 71.296875 
z
" id="DejaVuSans-54"/>
       </defs>
       <use xlink:href="#DejaVuSans-54"/>
       <use x="63.623047" xlink:href="#DejaVuSans-48"/>
      </g>
     </g>
    </g>
    <g id="xtick_5">
     <g id="text_5">
      <!-- 80 -->
      <g transform="translate(630.328237 288.58081)scale(0.08 -0.08)">
       <defs>
        <path d="M 31.78125 34.625 
Q 24.75 34.625 20.71875 30.859375 
Q 16.703125 27.09375 16.703125 20.515625 
Q 16.703125 13.921875 20.71875 10.15625 
Q 24.75 6.390625 31.78125 6.390625 
Q 38.8125 6.390625 42.859375 10.171875 
Q 46.921875 13.96875 46.921875 20.515625 
Q 46.921875 27.09375 42.890625 30.859375 
Q 38.875 34.625 31.78125 34.625 
z
M 21.921875 38.8125 
Q 15.578125 40.375 12.03125 44.71875 
Q 8.5 49.078125 8.5 55.328125 
Q 8.5 64.0625 14.71875 69.140625 
Q 20.953125 74.21875 31.78125 74.21875 
Q 42.671875 74.21875 48.875 69.140625 
Q 55.078125 64.0625 55.078125 55.328125 
Q 55.078125 49.078125 51.53125 44.71875 
Q 48 40.375 41.703125 38.8125 
Q 48.828125 37.15625 52.796875 32.3125 
Q 56.78125 27.484375 56.78125 20.515625 
Q 56.78125 9.90625 50.3125 4.234375 
Q 43.84375 -1.421875 31.78125 -1.421875 
Q 19.734375 -1.421875 13.25 4.234375 
Q 6.78125 9.90625 6.78125 20.515625 
Q 6.78125 27.484375 10.78125 32.3125 
Q 14.796875 37.15625 21.921875 38.8125 
z
M 18.3125 54.390625 
Q 18.3125 48.734375 21.84375 45.5625 
Q 25.390625 42.390625 31.78125 42.390625 
Q 38.140625 42.390625 41.71875 45.5625 
Q 45.3125 48.734375 45.3125 54.390625 
Q 45.3125 60.0625 41.71875 63.234375 
Q 38.140625 66.40625 31.78125 66.40625 
Q 25.390625 66.40625 21.84375 63.234375 
Q 18.3125 60.0625 18.3125 54.390625 
z
" id="DejaVuSans-56"/>
       </defs>
       <use xlink:href="#DejaVuSans-56"/>
       <use x="63.623047" xlink:href="#DejaVuSans-48"/>
      </g>
     </g>
    </g>
    <g id="xtick_6">
     <g id="text_6">
      <!-- 100 -->
      <g transform="translate(767.877126 288.58081)scale(0.08 -0.08)">
       <defs>
        <path d="M 12.40625 8.296875 
L 28.515625 8.296875 
L 28.515625 63.921875 
L 10.984375 60.40625 
L 10.984375 69.390625 
L 28.421875 72.90625 
L 38.28125 72.90625 
L 38.28125 8.296875 
L 54.390625 8.296875 
L 54.390625 0 
L 12.40625 0 
z
" id="DejaVuSans-49"/>
       </defs>
       <use xlink:href="#DejaVuSans-49"/>
       <use x="63.623047" xlink:href="#DejaVuSans-48"/>
       <use x="127.246094" xlink:href="#DejaVuSans-48"/>
      </g>
     </g>
    </g>
    <g id="xtick_7">
     <g id="text_7">
      <!-- 120 -->
      <g transform="translate(907.971016 288.58081)scale(0.08 -0.08)">
       <use xlink:href="#DejaVuSans-49"/>
       <use x="63.623047" xlink:href="#DejaVuSans-50"/>
       <use x="127.246094" xlink:href="#DejaVuSans-48"/>
      </g>
     </g>
    </g>
    <g id="text_8">
     <!-- Length Trimmed (bp) -->
     <g transform="translate(470.915781 301.842998)scale(0.1 -0.1)">
      <defs>
       <path d="M 9.8125 72.90625 
L 19.671875 72.90625 
L 19.671875 8.296875 
L 55.171875 8.296875 
L 55.171875 0 
L 9.8125 0 
z
" id="DejaVuSans-76"/>
       <path d="M 56.203125 29.59375 
L 56.203125 25.203125 
L 14.890625 25.203125 
Q 15.484375 15.921875 20.484375 11.0625 
Q 25.484375 6.203125 34.421875 6.203125 
Q 39.59375 6.203125 44.453125 7.46875 
Q 49.3125 8.734375 54.109375 11.28125 
L 54.109375 2.78125 
Q 49.265625 0.734375 44.1875 -0.34375 
Q 39.109375 -1.421875 33.890625 -1.421875 
Q 20.796875 -1.421875 13.15625 6.1875 
Q 5.515625 13.8125 5.515625 26.8125 
Q 5.515625 40.234375 12.765625 48.109375 
Q 20.015625 56 32.328125 56 
Q 43.359375 56 49.78125 48.890625 
Q 56.203125 41.796875 56.203125 29.59375 
z
M 47.21875 32.234375 
Q 47.125 39.59375 43.09375 43.984375 
Q 39.0625 48.390625 32.421875 48.390625 
Q 24.90625 48.390625 20.390625 44.140625 
Q 15.875 39.890625 15.1875 32.171875 
z
" id="DejaVuSans-101"/>
       <path d="M 54.890625 33.015625 
L 54.890625 0 
L 45.90625 0 
L 45.90625 32.71875 
Q 45.90625 40.484375 42.875 44.328125 
Q 39.84375 48.1875 33.796875 48.1875 
Q 26.515625 48.1875 22.3125 43.546875 
Q 18.109375 38.921875 18.109375 30.90625 
L 18.109375 0 
L 9.078125 0 
L 9.078125 54.6875 
L 18.109375 54.6875 
L 18.109375 46.1875 
Q 21.34375 51.125 25.703125 53.5625 
Q 30.078125 56 35.796875 56 
Q 45.21875 56 50.046875 50.171875 
Q 54.890625 44.34375 54.890625 33.015625 
z
" id="DejaVuSans-110"/>
       <path d="M 45.40625 27.984375 
Q 45.40625 37.75 41.375 43.109375 
Q 37.359375 48.484375 30.078125 48.484375 
Q 22.859375 48.484375 18.828125 43.109375 
Q 14.796875 37.75 14.796875 27.984375 
Q 14.796875 18.265625 18.828125 12.890625 
Q 22.859375 7.515625 30.078125 7.515625 
Q 37.359375 7.515625 41.375 12.890625 
Q 45.40625 18.265625 45.40625 27.984375 
z
M 54.390625 6.78125 
Q 54.390625 -7.171875 48.1875 -13.984375 
Q 42 -20.796875 29.203125 -20.796875 
Q 24.46875 -20.796875 20.265625 -20.09375 
Q 16.0625 -19.390625 12.109375 -17.921875 
L 12.109375 -9.1875 
Q 16.0625 -11.328125 19.921875 -12.34375 
Q 23.78125 -13.375 27.78125 -13.375 
Q 36.625 -13.375 41.015625 -8.765625 
Q 45.40625 -4.15625 45.40625 5.171875 
L 45.40625 9.625 
Q 42.625 4.78125 38.28125 2.390625 
Q 33.9375 0 27.875 0 
Q 17.828125 0 11.671875 7.65625 
Q 5.515625 15.328125 5.515625 27.984375 
Q 5.515625 40.671875 11.671875 48.328125 
Q 17.828125 56 27.875 56 
Q 33.9375 56 38.28125 53.609375 
Q 42.625 51.21875 45.40625 46.390625 
L 45.40625 54.6875 
L 54.390625 54.6875 
z
" id="DejaVuSans-103"/>
       <path d="M 18.3125 70.21875 
L 18.3125 54.6875 
L 36.8125 54.6875 
L 36.8125 47.703125 
L 18.3125 47.703125 
L 18.3125 18.015625 
Q 18.3125 11.328125 20.140625 9.421875 
Q 21.96875 7.515625 27.59375 7.515625 
L 36.8125 7.515625 
L 36.8125 0 
L 27.59375 0 
Q 17.1875 0 13.234375 3.875 
Q 9.28125 7.765625 9.28125 18.015625 
L 9.28125 47.703125 
L 2.6875 47.703125 
L 2.6875 54.6875 
L 9.28125 54.6875 
L 9.28125 70.21875 
z
" id="DejaVuSans-116"/>
       <path d="M 54.890625 33.015625 
L 54.890625 0 
L 45.90625 0 
L 45.90625 32.71875 
Q 45.90625 40.484375 42.875 44.328125 
Q 39.84375 48.1875 33.796875 48.1875 
Q 26.515625 48.1875 22.3125 43.546875 
Q 18.109375 38.921875 18.109375 30.90625 
L 18.109375 0 
L 9.078125 0 
L 9.078125 75.984375 
L 18.109375 75.984375 
L 18.109375 46.1875 
Q 21.34375 51.125 25.703125 53.5625 
Q 30.078125 56 35.796875 56 
Q 45.21875 56 50.046875 50.171875 
Q 54.890625 44.34375 54.890625 33.015625 
z
" id="DejaVuSans-104"/>
       <path id="DejaVuSans-32"/>
       <path d="M -0.296875 72.90625 
L 61.375 72.90625 
L 61.375 64.59375 
L 35.5 64.59375 
L 35.5 0 
L 25.59375 0 
L 25.59375 64.59375 
L -0.296875 64.59375 
z
" id="DejaVuSans-84"/>
       <path d="M 41.109375 46.296875 
Q 39.59375 47.171875 37.8125 47.578125 
Q 36.03125 48 33.890625 48 
Q 26.265625 48 22.1875 43.046875 
Q 18.109375 38.09375 18.109375 28.8125 
L 18.109375 0 
L 9.078125 0 
L 9.078125 54.6875 
L 18.109375 54.6875 
L 18.109375 46.1875 
Q 20.953125 51.171875 25.484375 53.578125 
Q 30.03125 56 36.53125 56 
Q 37.453125 56 38.578125 55.875 
Q 39.703125 55.765625 41.0625 55.515625 
z
" id="DejaVuSans-114"/>
       <path d="M 9.421875 54.6875 
L 18.40625 54.6875 
L 18.40625 0 
L 9.421875 0 
z
M 9.421875 75.984375 
L 18.40625 75.984375 
L 18.40625 64.59375 
L 9.421875 64.59375 
z
" id="DejaVuSans-105"/>
       <path d="M 52 44.1875 
Q 55.375 50.25 60.0625 53.125 
Q 64.75 56 71.09375 56 
Q 79.640625 56 84.28125 50.015625 
Q 88.921875 44.046875 88.921875 33.015625 
L 88.921875 0 
L 79.890625 0 
L 79.890625 32.71875 
Q 79.890625 40.578125 77.09375 44.375 
Q 74.3125 48.1875 68.609375 48.1875 
Q 61.625 48.1875 57.5625 43.546875 
Q 53.515625 38.921875 53.515625 30.90625 
L 53.515625 0 
L 44.484375 0 
L 44.484375 32.71875 
Q 44.484375 40.625 41.703125 44.40625 
Q 38.921875 48.1875 33.109375 48.1875 
Q 26.21875 48.1875 22.15625 43.53125 
Q 18.109375 38.875 18.109375 30.90625 
L 18.109375 0 
L 9.078125 0 
L 9.078125 54.6875 
L 18.109375 54.6875 
L 18.109375 46.1875 
Q 21.1875 51.21875 25.484375 53.609375 
Q 29.78125 56 35.6875 56 
Q 41.65625 56 45.828125 52.96875 
Q 50 49.953125 52 44.1875 
z
" id="DejaVuSans-109"/>
       <path d="M 45.40625 46.390625 
L 45.40625 75.984375 
L 54.390625 75.984375 
L 54.390625 0 
L 45.40625 0 
L 45.40625 8.203125 
Q 42.578125 3.328125 38.25 0.953125 
Q 33.9375 -1.421875 27.875 -1.421875 
Q 17.96875 -1.421875 11.734375 6.484375 
Q 5.515625 14.40625 5.515625 27.296875 
Q 5.515625 40.1875 11.734375 48.09375 
Q 17.96875 56 27.875 56 
Q 33.9375 56 38.25 53.625 
Q 42.578125 51.265625 45.40625 46.390625 
z
M 14.796875 27.296875 
Q 14.796875 17.390625 18.875 11.75 
Q 22.953125 6.109375 30.078125 6.109375 
Q 37.203125 6.109375 41.296875 11.75 
Q 45.40625 17.390625 45.40625 27.296875 
Q 45.40625 37.203125 41.296875 42.84375 
Q 37.203125 48.484375 30.078125 48.484375 
Q 22.953125 48.484375 18.875 42.84375 
Q 14.796875 37.203125 14.796875 27.296875 
z
" id="DejaVuSans-100"/>
       <path d="M 31 75.875 
Q 24.46875 64.65625 21.28125 53.65625 
Q 18.109375 42.671875 18.109375 31.390625 
Q 18.109375 20.125 21.3125 9.0625 
Q 24.515625 -2 31 -13.1875 
L 23.1875 -13.1875 
Q 15.875 -1.703125 12.234375 9.375 
Q 8.59375 20.453125 8.59375 31.390625 
Q 8.59375 42.28125 12.203125 53.3125 
Q 15.828125 64.359375 23.1875 75.875 
z
" id="DejaVuSans-40"/>
       <path d="M 48.6875 27.296875 
Q 48.6875 37.203125 44.609375 42.84375 
Q 40.53125 48.484375 33.40625 48.484375 
Q 26.265625 48.484375 22.1875 42.84375 
Q 18.109375 37.203125 18.109375 27.296875 
Q 18.109375 17.390625 22.1875 11.75 
Q 26.265625 6.109375 33.40625 6.109375 
Q 40.53125 6.109375 44.609375 11.75 
Q 48.6875 17.390625 48.6875 27.296875 
z
M 18.109375 46.390625 
Q 20.953125 51.265625 25.265625 53.625 
Q 29.59375 56 35.59375 56 
Q 45.5625 56 51.78125 48.09375 
Q 58.015625 40.1875 58.015625 27.296875 
Q 58.015625 14.40625 51.78125 6.484375 
Q 45.5625 -1.421875 35.59375 -1.421875 
Q 29.59375 -1.421875 25.265625 0.953125 
Q 20.953125 3.328125 18.109375 8.203125 
L 18.109375 0 
L 9.078125 0 
L 9.078125 75.984375 
L 18.109375 75.984375 
z
" id="DejaVuSans-98"/>
       <path d="M 18.109375 8.203125 
L 18.109375 -20.796875 
L 9.078125 -20.796875 
L 9.078125 54.6875 
L 18.109375 54.6875 
L 18.109375 46.390625 
Q 20.953125 51.265625 25.265625 53.625 
Q 29.59375 56 35.59375 56 
Q 45.5625 56 51.78125 48.09375 
Q 58.015625 40.1875 58.015625 27.296875 
Q 58.015625 14.40625 51.78125 6.484375 
Q 45.5625 -1.421875 35.59375 -1.421875 
Q 29.59375 -1.421875 25.265625 0.953125 
Q 20.953125 3.328125 18.109375 8.203125 
z
M 48.6875 27.296875 
Q 48.6875 37.203125 44.609375 42.84375 
Q 40.53125 48.484375 33.40625 48.484375 
Q 26.265625 48.484375 22.1875 42.84375 
Q 18.109375 37.203125 18.109375 27.296875 
Q 18.109375 17.390625 22.1875 11.75 
Q 26.265625 6.109375 33.40625 6.109375 
Q 40.53125 6.109375 44.609375 11.75 
Q 48.6875 17.390625 48.6875 27.296875 
z
" id="DejaVuSans-112"/>
       <path d="M 8.015625 75.875 
L 15.828125 75.875 
Q 23.140625 64.359375 26.78125 53.3125 
Q 30.421875 42.28125 30.421875 31.390625 
Q 30.421875 20.453125 26.78125 9.375 
Q 23.140625 -1.703125 15.828125 -13.1875 
L 8.015625 -13.1875 
Q 14.5 -2 17.703125 9.0625 
Q 20.90625 20.125 20.90625 31.390625 
Q 20.90625 42.671875 17.703125 53.65625 
Q 14.5 64.65625 8.015625 75.875 
z
" id="DejaVuSans-41"/>
      </defs>
      <use xlink:href="#DejaVuSans-76"/>
      <use x="53.962891" xlink:href="#DejaVuSans-101"/>
      <use x="115.486328" xlink:href="#DejaVuSans-110"/>
      <use x="178.865234" xlink:href="#DejaVuSans-103"/>
      <use x="242.341797" xlink:href="#DejaVuSans-116"/>
      <use x="281.550781" xlink:href="#DejaVuSans-104"/>
      <use x="344.929688" xlink:href="#DejaVuSans-32"/>
      <use x="376.716797" xlink:href="#DejaVuSans-84"/>
      <use x="423.050781" xlink:href="#DejaVuSans-114"/>
      <use x="464.164062" xlink:href="#DejaVuSans-105"/>
      <use x="491.947266" xlink:href="#DejaVuSans-109"/>
      <use x="589.359375" xlink:href="#DejaVuSans-109"/>
      <use x="686.771484" xlink:href="#DejaVuSans-101"/>
      <use x="748.294922" xlink:href="#DejaVuSans-100"/>
      <use x="811.771484" xlink:href="#DejaVuSans-32"/>
      <use x="843.558594" xlink:href="#DejaVuSans-40"/>
      <use x="882.572266" xlink:href="#DejaVuSans-98"/>
      <use x="946.048828" xlink:href="#DejaVuSans-112"/>
      <use x="1009.525391" xlink:href="#DejaVuSans-41"/>
     </g>
    </g>
   </g>
   <g id="matplotlib.axis_2">
    <g id="ytick_1">
     <g id="line2d_1">
      <path clip-path="url(#pc30531fabc)" d="M 53.328125 275.50206 
L 993.358125 275.50206 
" style="fill:none;stroke:#dedede;stroke-linecap:square;"/>
     </g>
     <g id="text_9">
      <!-- 0 -->
      <g transform="translate(41.238125 278.541435)scale(0.08 -0.08)">
       <use xlink:href="#DejaVuSans-48"/>
      </g>
     </g>
    </g>
    <g id="ytick_2">
     <g id="line2d_2">
      <path clip-path="url(#pc30531fabc)" d="M 53.328125 247.065012 
L 993.358125 247.065012 
" style="fill:none;stroke:#dedede;stroke-linecap:square;"/>
     </g>
     <g id="text_10">
      <!-- 2000 -->
      <g transform="translate(25.968125 250.104387)scale(0.08 -0.08)">
       <use xlink:href="#DejaVuSans-50"/>
       <use x="63.623047" xlink:href="#DejaVuSans-48"/>
       <use x="127.246094" xlink:href="#DejaVuSans-48"/>
       <use x="190.869141" xlink:href="#DejaVuSans-48"/>
      </g>
     </g>
    </g>
    <g id="ytick_3">
     <g id="line2d_3">
      <path clip-path="url(#pc30531fabc)" d="M 53.328125 218.627964 
L 993.358125 218.627964 
" style="fill:none;stroke:#dedede;stroke-linecap:square;"/>
     </g>
     <g id="text_11">
      <!-- 4000 -->
      <g transform="translate(25.968125 221.667339)scale(0.08 -0.08)">
       <use xlink:href="#DejaVuSans-52"/>
       <use x="63.623047" xlink:href="#DejaVuSans-48"/>
       <use x="127.246094" xlink:href="#DejaVuSans-48"/>
       <use x="190.869141" xlink:href="#DejaVuSans-48"/>
      </g>
     </g>
    </g>
    <g id="ytick_4">
     <g id="line2d_4">
      <path clip-path="url(#pc30531fabc)" d="M 53.328125 190.190916 
L 993.358125 190.190916 
" style="fill:none;stroke:#dedede;stroke-linecap:square;"/>
     </g>
     <g id="text_12">
      <!-- 6000 -->
      <g transform="translate(25.968125 193.230291)scale(0.08 -0.08)">
       <use xlink:href="#DejaVuSans-54"/>
       <use x="63.623047" xlink:href="#DejaVuSans-48"/>
       <use x="127.246094" xlink:href="#DejaVuSans-48"/>
       <use x="190.869141" xlink:href="#DejaVuSans-48"/>
      </g>
     </g>
    </g>
    <g id="ytick_5">
     <g id="line2d_5">
      <path clip-path="url(#pc30531fabc)" d="M 53.328125 161.753867 
L 993.358125 161.753867 
" style="fill:none;stroke:#dedede;stroke-linecap:square;"/>
     </g>
     <g id="text_13">
      <!-- 8000 -->
      <g transform="translate(25.968125 164.793242)scale(0.08 -0.08)">
       <use xlink:href="#DejaVuSans-56"/>
       <use x="63.623047" xlink:href="#DejaVuSans-48"/>
       <use x="127.246094" xlink:href="#DejaVuSans-48"/>
       <use x="190.869141" xlink:href="#DejaVuSans-48"/>
      </g>
     </g>
    </g>
    <g id="ytick_6">
     <g id="line2d_6">
      <path clip-path="url(#pc30531fabc)" d="M 53.328125 133.316819 
L 993.358125 133.316819 
" style="fill:none;stroke:#dedede;stroke-linecap:square;"/>
     </g>
     <g id="text_14">
      <!-- 10000 -->
      <g transform="translate(20.878125 136.356194)scale(0.08 -0.08)">
       <use xlink:href="#DejaVuSans-49"/>
       <use x="63.623047" xlink:href="#DejaVuSans-48"/>
       <use x="127.246094" xlink:href="#DejaVuSans-48"/>
       <use x="190.869141" xlink:href="#DejaVuSans-48"/>
       <use x="254.492188" xlink:href="#DejaVuSans-48"/>
      </g>
     </g>
    </g>
    <g id="ytick_7">
     <g id="line2d_7">
      <path clip-path="url(#pc30531fabc)" d="M 53.328125 104.879771 
L 993.358125 104.879771 
" style="fill:none;stroke:#dedede;stroke-linecap:square;"/>
     </g>
     <g id="text_15">
      <!-- 12000 -->
      <g transform="translate(20.878125 107.919146)scale(0.08 -0.08)">
       <use xlink:href="#DejaVuSans-49"/>
       <use x="63.623047" xlink:href="#DejaVuSans-50"/>
       <use x="127.246094" xlink:href="#DejaVuSans-48"/>
       <use x="190.869141" xlink:href="#DejaVuSans-48"/>
       <use x="254.492188" xlink:href="#DejaVuSans-48"/>
      </g>
     </g>
    </g>
    <g id="ytick_8">
     <g id="line2d_8">
      <path clip-path="url(#pc30531fabc)" d="M 53.328125 76.442723 
L 993.358125 76.442723 
" style="fill:none;stroke:#dedede;stroke-linecap:square;"/>
     </g>
     <g id="text_16">
      <!-- 14000 -->
      <g transform="translate(20.878125 79.482098)scale(0.08 -0.08)">
       <use xlink:href="#DejaVuSans-49"/>
       <use x="63.623047" xlink:href="#DejaVuSans-52"/>
       <use x="127.246094" xlink:href="#DejaVuSans-48"/>
       <use x="190.869141" xlink:href="#DejaVuSans-48"/>
       <use x="254.492188" xlink:href="#DejaVuSans-48"/>
      </g>
     </g>
    </g>
    <g id="ytick_9">
     <g id="line2d_9">
      <path clip-path="url(#pc30531fabc)" d="M 53.328125 48.005675 
L 993.358125 48.005675 
" style="fill:none;stroke:#dedede;stroke-linecap:square;"/>
     </g>
     <g id="text_17">
      <!-- 16000 -->
      <g transform="translate(20.878125 51.04505)scale(0.08 -0.08)">
       <use xlink:href="#DejaVuSans-49"/>
       <use x="63.623047" xlink:href="#DejaVuSans-54"/>
       <use x="127.246094" xlink:href="#DejaVuSans-48"/>
       <use x="190.869141" xlink:href="#DejaVuSans-48"/>
       <use x="254.492188" xlink:href="#DejaVuSans-48"/>
      </g>
     </g>
    </g>
    <g id="text_18">
     <!-- Observed / Expected -->
     <g transform="translate(14.798438 205.777679)rotate(-90)scale(0.1 -0.1)">
      <defs>
       <path d="M 39.40625 66.21875 
Q 28.65625 66.21875 22.328125 58.203125 
Q 16.015625 50.203125 16.015625 36.375 
Q 16.015625 22.609375 22.328125 14.59375 
Q 28.65625 6.59375 39.40625 6.59375 
Q 50.140625 6.59375 56.421875 14.59375 
Q 62.703125 22.609375 62.703125 36.375 
Q 62.703125 50.203125 56.421875 58.203125 
Q 50.140625 66.21875 39.40625 66.21875 
z
M 39.40625 74.21875 
Q 54.734375 74.21875 63.90625 63.9375 
Q 73.09375 53.65625 73.09375 36.375 
Q 73.09375 19.140625 63.90625 8.859375 
Q 54.734375 -1.421875 39.40625 -1.421875 
Q 24.03125 -1.421875 14.8125 8.828125 
Q 5.609375 19.09375 5.609375 36.375 
Q 5.609375 53.65625 14.8125 63.9375 
Q 24.03125 74.21875 39.40625 74.21875 
z
" id="DejaVuSans-79"/>
       <path d="M 44.28125 53.078125 
L 44.28125 44.578125 
Q 40.484375 46.53125 36.375 47.5 
Q 32.28125 48.484375 27.875 48.484375 
Q 21.1875 48.484375 17.84375 46.4375 
Q 14.5 44.390625 14.5 40.28125 
Q 14.5 37.15625 16.890625 35.375 
Q 19.28125 33.59375 26.515625 31.984375 
L 29.59375 31.296875 
Q 39.15625 29.25 43.1875 25.515625 
Q 47.21875 21.78125 47.21875 15.09375 
Q 47.21875 7.46875 41.1875 3.015625 
Q 35.15625 -1.421875 24.609375 -1.421875 
Q 20.21875 -1.421875 15.453125 -0.5625 
Q 10.6875 0.296875 5.421875 2 
L 5.421875 11.28125 
Q 10.40625 8.6875 15.234375 7.390625 
Q 20.0625 6.109375 24.8125 6.109375 
Q 31.15625 6.109375 34.5625 8.28125 
Q 37.984375 10.453125 37.984375 14.40625 
Q 37.984375 18.0625 35.515625 20.015625 
Q 33.0625 21.96875 24.703125 23.78125 
L 21.578125 24.515625 
Q 13.234375 26.265625 9.515625 29.90625 
Q 5.8125 33.546875 5.8125 39.890625 
Q 5.8125 47.609375 11.28125 51.796875 
Q 16.75 56 26.8125 56 
Q 31.78125 56 36.171875 55.265625 
Q 40.578125 54.546875 44.28125 53.078125 
z
" id="DejaVuSans-115"/>
       <path d="M 2.984375 54.6875 
L 12.5 54.6875 
L 29.59375 8.796875 
L 46.6875 54.6875 
L 56.203125 54.6875 
L 35.6875 0 
L 23.484375 0 
z
" id="DejaVuSans-118"/>
       <path d="M 25.390625 72.90625 
L 33.6875 72.90625 
L 8.296875 -9.28125 
L 0 -9.28125 
z
" id="DejaVuSans-47"/>
       <path d="M 9.8125 72.90625 
L 55.90625 72.90625 
L 55.90625 64.59375 
L 19.671875 64.59375 
L 19.671875 43.015625 
L 54.390625 43.015625 
L 54.390625 34.71875 
L 19.671875 34.71875 
L 19.671875 8.296875 
L 56.78125 8.296875 
L 56.78125 0 
L 9.8125 0 
z
" id="DejaVuSans-69"/>
       <path d="M 54.890625 54.6875 
L 35.109375 28.078125 
L 55.90625 0 
L 45.3125 0 
L 29.390625 21.484375 
L 13.484375 0 
L 2.875 0 
L 24.125 28.609375 
L 4.6875 54.6875 
L 15.28125 54.6875 
L 29.78125 35.203125 
L 44.28125 54.6875 
z
" id="DejaVuSans-120"/>
       <path d="M 48.78125 52.59375 
L 48.78125 44.1875 
Q 44.96875 46.296875 41.140625 47.34375 
Q 37.3125 48.390625 33.40625 48.390625 
Q 24.65625 48.390625 19.8125 42.84375 
Q 14.984375 37.3125 14.984375 27.296875 
Q 14.984375 17.28125 19.8125 11.734375 
Q 24.65625 6.203125 33.40625 6.203125 
Q 37.3125 6.203125 41.140625 7.25 
Q 44.96875 8.296875 48.78125 10.40625 
L 48.78125 2.09375 
Q 45.015625 0.34375 40.984375 -0.53125 
Q 36.96875 -1.421875 32.421875 -1.421875 
Q 20.0625 -1.421875 12.78125 6.34375 
Q 5.515625 14.109375 5.515625 27.296875 
Q 5.515625 40.671875 12.859375 48.328125 
Q 20.21875 56 33.015625 56 
Q 37.15625 56 41.109375 55.140625 
Q 45.0625 54.296875 48.78125 52.59375 
z
" id="DejaVuSans-99"/>
      </defs>
      <use xlink:href="#DejaVuSans-79"/>
      <use x="78.710938" xlink:href="#DejaVuSans-98"/>
      <use x="142.1875" xlink:href="#DejaVuSans-115"/>
      <use x="194.287109" xlink:href="#DejaVuSans-101"/>
      <use x="255.810547" xlink:href="#DejaVuSans-114"/>
      <use x="296.923828" xlink:href="#DejaVuSans-118"/>
      <use x="356.103516" xlink:href="#DejaVuSans-101"/>
      <use x="417.626953" xlink:href="#DejaVuSans-100"/>
      <use x="481.103516" xlink:href="#DejaVuSans-32"/>
      <use x="512.890625" xlink:href="#DejaVuSans-47"/>
      <use x="546.582031" xlink:href="#DejaVuSans-32"/>
      <use x="578.369141" xlink:href="#DejaVuSans-69"/>
      <use x="641.552734" xlink:href="#DejaVuSans-120"/>
      <use x="700.732422" xlink:href="#DejaVuSans-112"/>
      <use x="764.208984" xlink:href="#DejaVuSans-101"/>
      <use x="825.732422" xlink:href="#DejaVuSans-99"/>
      <use x="880.712891" xlink:href="#DejaVuSans-116"/>
      <use x="919.921875" xlink:href="#DejaVuSans-101"/>
      <use x="981.445312" xlink:href="#DejaVuSans-100"/>
     </g>
    </g>
   </g>
   <g id="line2d_10">
    <path clip-path="url(#pc30531fabc)" d="M 96.056761 275.497853 
L 103.061456 275.499973 
L 110.06615 275.500828 
L 117.070845 275.500616 
L 124.075539 275.494425 
L 131.080234 275.488872 
L 138.084928 275.468994 
L 145.089623 274.868689 
L 152.094317 275.01863 
L 159.099012 270.383391 
L 166.103706 274.748478 
L 173.108401 275.11816 
L 180.113095 274.63473 
L 187.11779 275.246127 
L 194.122484 274.63473 
L 201.127179 274.222393 
L 208.131873 275.089723 
L 215.136568 274.35036 
L 222.141262 274.933319 
L 229.145957 273.895367 
L 236.150651 275.061286 
L 243.155346 275.246127 
L 250.16004 274.122863 
L 257.164735 275.246127 
L 264.169429 274.108645 
L 271.174124 273.539904 
L 278.178818 275.075504 
L 285.183512 274.435671 
L 292.188207 275.01863 
L 299.192901 273.881148 
L 306.197596 274.933319 
L 313.20229 274.236611 
L 320.206985 273.909585 
L 327.211679 275.004412 
L 334.216374 275.146597 
L 341.221068 273.994896 
L 348.225763 274.805352 
L 355.230457 272.914289 
L 362.235152 273.7674 
L 369.239846 275.061286 
L 376.244541 274.648949 
L 383.249235 274.975975 
L 390.25393 274.63473 
L 397.258624 273.298189 
L 404.263319 274.094426 
L 411.268013 275.246127 
L 418.272708 274.364578 
L 425.277402 273.084911 
L 432.282097 273.838493 
L 439.286791 272.857415 
L 446.291486 269.644028 
L 453.29618 273.781619 
L 460.300875 272.487733 
L 467.305569 274.208174 
L 474.310264 273.881148 
L 481.314958 273.355063 
L 488.319653 274.293485 
L 495.324347 270.554014 
L 502.329042 273.099129 
L 509.333736 273.753182 
L 516.338431 272.103833 
L 523.343125 271.193847 
L 530.347819 274.848008 
L 537.352514 274.919101 
L 544.357208 274.620512 
L 551.361903 274.421452 
L 558.366597 274.25083 
L 565.371292 274.791134 
L 572.375986 275.11816 
L 579.380681 275.203471 
L 586.385375 275.01863 
L 593.39007 274.620512 
L 600.394764 273.994896 
L 607.399459 272.971163 
L 614.404153 273.198659 
L 621.408848 273.070692 
L 628.413542 273.497248 
L 635.418237 273.28397 
L 642.422931 273.056474 
L 649.427626 273.227096 
L 656.43232 273.639433 
L 663.437015 273.724744 
L 670.441709 273.724744 
L 677.446404 274.165519 
L 684.451098 274.1513 
L 691.455793 273.86693 
L 698.460487 274.009115 
L 705.465182 273.824274 
L 712.469876 273.86693 
L 719.474571 274.051771 
L 726.479265 273.86693 
L 733.48396 273.710526 
L 740.488654 273.710526 
L 747.493349 273.653652 
L 754.498043 273.938022 
L 761.502738 273.895367 
L 768.507432 273.625215 
L 775.512126 273.227096 
L 782.516821 272.075396 
L 789.521515 271.321814 
L 796.52621 269.288565 
L 803.530904 268.122646 
L 810.535599 266.530171 
L 817.540293 266.615482 
L 824.544988 266.92829 
L 831.549682 267.937805 
L 838.554377 269.373876 
L 845.559071 271.208066 
L 852.563766 272.217581 
L 859.56846 273.255533 
L 866.573155 274.236611 
L 873.577849 274.691604 
L 880.582544 275.146597 
L 887.587238 275.203471 
L 894.591933 275.146597 
L 901.596627 275.11816 
L 908.601322 274.919101 
L 915.606016 274.862226 
L 922.610711 275.103941 
L 929.615405 274.720041 
L 936.6201 274.592074 
L 943.624794 274.563637 
L 950.629489 274.265048 
" style="fill:none;stroke:#7cb5ec;stroke-linecap:square;"/>
   </g>
   <g id="line2d_11">
    <path clip-path="url(#pc30531fabc)" d="M 96.056761 275.497709 
L 103.061456 275.500435 
L 110.06615 275.500742 
L 117.070845 275.500966 
L 124.075539 275.495362 
L 131.080234 275.494201 
L 138.084928 275.476208 
L 145.089623 275.012943 
L 152.094317 275.288782 
L 159.099012 272.587263 
L 166.103706 274.848008 
L 173.108401 275.189252 
L 180.113095 274.791134 
L 187.11779 275.374093 
L 194.122484 274.819571 
L 201.127179 274.378797 
L 208.131873 275.459404 
L 215.136568 274.307704 
L 222.141262 275.160815 
L 229.145957 274.293485 
L 236.150651 274.990193 
L 243.155346 275.175034 
L 250.16004 274.137082 
L 257.164735 275.274564 
L 264.169429 274.435671 
L 271.174124 274.236611 
L 278.178818 275.146597 
L 285.183512 274.833789 
L 292.188207 275.260345 
L 299.192901 274.25083 
L 306.197596 275.11816 
L 313.20229 274.364578 
L 320.206985 274.378797 
L 327.211679 275.061286 
L 334.216374 275.274564 
L 341.221068 274.208174 
L 348.225763 275.032849 
L 355.230457 272.217581 
L 362.235152 274.065989 
L 369.239846 275.089723 
L 376.244541 274.919101 
L 383.249235 275.203471 
L 390.25393 274.25083 
L 397.258624 273.710526 
L 404.263319 274.691604 
L 411.268013 275.317219 
L 418.272708 274.762697 
L 425.277402 273.312407 
L 432.282097 273.923804 
L 439.286791 273.056474 
L 446.291486 269.587154 
L 453.29618 273.625215 
L 460.300875 272.544607 
L 467.305569 274.464108 
L 474.310264 274.137082 
L 481.314958 273.326626 
L 488.319653 274.620512 
L 495.324347 270.326517 
L 502.329042 272.743666 
L 509.333736 273.980678 
L 516.338431 272.302892 
L 523.343125 272.160707 
L 530.347819 274.961756 
L 537.352514 275.146597 
L 544.357208 274.648949 
L 551.361903 274.691604 
L 558.366597 274.833789 
L 565.371292 274.862226 
L 572.375986 275.075504 
L 579.380681 275.160815 
L 586.385375 274.961756 
L 593.39007 274.606293 
L 600.394764 273.753182 
L 607.399459 273.056474 
L 614.404153 272.985381 
L 621.408848 272.914289 
L 628.413542 273.298189 
L 635.418237 273.312407 
L 642.422931 273.127566 
L 649.427626 273.653652 
L 656.43232 273.255533 
L 663.437015 273.28397 
L 670.441709 273.056474 
L 677.446404 273.497248 
L 684.451098 272.914289 
L 691.455793 272.828977 
L 698.460487 272.146488 
L 705.465182 271.563529 
L 712.469876 270.283862 
L 719.474571 269.103724 
L 726.479265 267.952024 
L 733.48396 266.302675 
L 740.488654 265.77659 
L 747.493349 265.520656 
L 754.498043 262.69117 
L 761.502738 261.681655 
L 768.507432 261.411503 
L 775.512126 261.05604 
L 782.516821 259.70528 
L 789.521515 260.37355 
L 796.52621 260.18871 
L 803.530904 259.946995 
L 810.535599 260.444643 
L 817.540293 260.999165 
L 824.544988 262.648514 
L 831.549682 264.781293 
L 838.554377 267.184223 
L 845.559071 268.918883 
L 852.563766 270.667762 
L 859.56846 272.772103 
L 866.573155 273.781619 
L 873.577849 274.606293 
L 880.582544 274.990193 
L 887.587238 275.132378 
L 894.591933 275.146597 
L 901.596627 275.089723 
L 908.601322 275.260345 
L 915.606016 275.175034 
L 922.610711 274.990193 
L 929.615405 275.075504 
L 936.6201 275.303001 
L 943.624794 275.061286 
L 950.629489 274.63473 
" style="fill:none;stroke:#434348;stroke-linecap:square;"/>
   </g>
   <g id="line2d_12">
    <path clip-path="url(#pc30531fabc)" d="M 96.056761 275.498108 
L 103.061456 275.500347 
L 110.06615 275.501093 
L 117.070845 275.500977 
L 124.075539 275.491896 
L 131.080234 275.488672 
L 138.084928 275.465129 
L 145.089623 274.802359 
L 152.094317 275.047067 
L 159.099012 270.099021 
L 166.103706 263.274129 
L 173.108401 270.383391 
L 180.113095 262.705388 
L 187.11779 271.094318 
L 194.122484 262.847574 
L 201.127179 257.728905 
L 208.131873 270.099021 
L 215.136568 257.302349 
L 222.141262 265.549093 
L 229.145957 249.339976 
L 236.150651 268.250613 
L 243.155346 271.520873 
L 250.16004 249.19779 
L 257.164735 269.672465 
L 264.169429 256.164867 
L 271.174124 245.500974 
L 278.178818 267.539687 
L 285.183512 258.297646 
L 292.188207 267.113131 
L 299.192901 245.074418 
L 306.197596 267.255316 
L 313.20229 250.761828 
L 320.206985 254.60083 
L 327.211679 268.108427 
L 334.216374 266.260019 
L 341.221068 245.074418 
L 348.225763 262.705388 
L 355.230457 217.774852 
L 362.235152 243.510381 
L 369.239846 266.82876 
L 376.244541 260.999165 
L 383.249235 266.970946 
L 390.25393 255.738312 
L 397.258624 231.851191 
L 404.263319 251.757125 
L 411.268013 271.378688 
L 418.272708 253.036792 
L 425.277402 224.884114 
L 432.282097 242.230714 
L 439.286791 217.348297 
L 446.291486 139.288599 
L 453.29618 226.732522 
L 460.300875 210.239034 
L 467.305569 246.638456 
L 474.310264 242.657269 
L 481.314958 232.988673 
L 488.319653 253.178977 
L 495.324347 168.294388 
L 502.329042 221.898224 
L 509.333736 242.799455 
L 516.338431 205.262551 
L 523.343125 185.640988 
L 530.347819 261.141351 
L 537.352514 263.84287 
L 544.357208 260.430424 
L 551.361903 256.875793 
L 558.366597 257.160164 
L 565.371292 261.852277 
L 572.375986 266.970946 
L 579.380681 269.245909 
L 586.385375 263.700685 
L 593.39007 250.477458 
L 600.394764 234.694896 
L 607.399459 226.448152 
L 614.404153 223.320077 
L 621.408848 221.898224 
L 628.413542 227.727819 
L 635.418237 224.173188 
L 642.422931 230.144968 
L 649.427626 225.879411 
L 656.43232 231.851191 
L 663.437015 230.571524 
L 670.441709 235.263637 
L 677.446404 240.097935 
L 684.451098 242.657269 
L 691.455793 242.230714 
L 698.460487 241.377602 
L 705.465182 240.097935 
L 712.469876 240.808861 
L 719.474571 243.22601 
L 726.479265 240.951046 
L 733.48396 239.671379 
L 740.488654 244.363492 
L 747.493349 245.643159 
L 754.498043 246.496271 
L 761.502738 246.780641 
L 768.507432 230.713709 
L 775.512126 222.32478 
L 782.516821 200.001697 
L 789.521515 178.531726 
L 796.52621 149.383751 
L 803.530904 121.373259 
L 810.535599 93.789322 
L 817.540293 102.604807 
L 824.544988 114.548367 
L 831.549682 139.715155 
L 838.554377 165.450684 
L 845.559071 195.167399 
L 852.563766 227.016893 
L 859.56846 238.960453 
L 866.573155 250.477458 
L 873.577849 262.278833 
L 880.582544 267.824057 
L 887.587238 264.553796 
L 894.591933 270.667762 
L 901.596627 268.250613 
L 908.601322 262.989759 
L 915.606016 263.84287 
L 922.610711 266.402205 
L 929.615405 263.985055 
L 936.6201 266.402205 
L 943.624794 260.57261 
L 950.629489 260.003869 
" style="fill:none;stroke:#90ed7d;stroke-linecap:square;"/>
   </g>
   <g id="line2d_13">
    <path clip-path="url(#pc30531fabc)" d="M 96.056761 275.496187 
L 103.061456 275.500033 
L 110.06615 275.500717 
L 117.070845 275.500889 
L 124.075539 275.492967 
L 131.080234 275.495447 
L 138.084928 275.479844 
L 145.089623 274.862226 
L 152.094317 274.862226 
L 159.099012 274.364578 
L 166.103706 275.21769 
L 173.108401 275.459404 
L 180.113095 275.260345 
L 187.11779 275.459404 
L 194.122484 275.303001 
L 201.127179 275.075504 
L 208.131873 275.445186 
L 215.136568 275.274564 
L 222.141262 275.374093 
L 229.145957 275.061286 
L 236.150651 275.317219 
L 243.155346 275.317219 
L 250.16004 275.075504 
L 257.164735 275.416749 
L 264.169429 275.246127 
L 271.174124 275.075504 
L 278.178818 275.388312 
L 285.183512 275.203471 
L 292.188207 275.359875 
L 299.192901 275.089723 
L 306.197596 275.388312 
L 313.20229 275.01863 
L 320.206985 275.146597 
L 327.211679 275.430967 
L 334.216374 275.317219 
L 341.221068 275.004412 
L 348.225763 275.416749 
L 355.230457 274.677386 
L 362.235152 275.132378 
L 369.239846 275.416749 
L 376.244541 275.203471 
L 383.249235 275.388312 
L 390.25393 275.260345 
L 397.258624 274.705823 
L 404.263319 275.203471 
L 411.268013 275.459404 
L 418.272708 275.260345 
L 425.277402 274.592074 
L 432.282097 275.032849 
L 439.286791 274.449889 
L 446.291486 273.682089 
L 453.29618 274.791134 
L 460.300875 274.549419 
L 467.305569 275.317219 
L 474.310264 275.11816 
L 481.314958 274.961756 
L 488.319653 275.11816 
L 495.324347 273.895367 
L 502.329042 274.705823 
L 509.333736 275.11816 
L 516.338431 274.520982 
L 523.343125 274.378797 
L 530.347819 275.303001 
L 537.352514 275.374093 
L 544.357208 275.231908 
L 551.361903 275.203471 
L 558.366597 275.175034 
L 565.371292 275.317219 
L 572.375986 275.345656 
L 579.380681 275.359875 
L 586.385375 275.260345 
L 593.39007 275.189252 
L 600.394764 274.904882 
L 607.399459 274.947538 
L 614.404153 274.919101 
L 621.408848 274.848008 
L 628.413542 274.947538 
L 635.418237 274.848008 
L 642.422931 274.776915 
L 649.427626 274.961756 
L 656.43232 274.947538 
L 663.437015 275.189252 
L 670.441709 275.01863 
L 677.446404 274.947538 
L 684.451098 275.21769 
L 691.455793 274.947538 
L 698.460487 275.075504 
L 705.465182 275.103941 
L 712.469876 275.160815 
L 719.474571 274.961756 
L 726.479265 275.047067 
L 733.48396 275.089723 
L 740.488654 275.231908 
L 747.493349 274.933319 
L 754.498043 275.075504 
L 761.502738 275.01863 
L 768.507432 274.805352 
L 775.512126 274.691604 
L 782.516821 274.478326 
L 789.521515 273.952241 
L 796.52621 273.682089 
L 803.530904 273.355063 
L 810.535599 273.582559 
L 817.540293 273.113348 
L 824.544988 273.696307 
L 831.549682 273.653652 
L 838.554377 274.009115 
L 845.559071 274.407234 
L 852.563766 274.961756 
L 859.56846 275.089723 
L 866.573155 275.274564 
L 873.577849 275.260345 
L 880.582544 275.430967 
L 887.587238 275.445186 
L 894.591933 275.388312 
L 901.596627 275.331438 
L 908.601322 275.374093 
L 915.606016 275.374093 
L 922.610711 275.388312 
L 929.615405 275.274564 
L 936.6201 275.317219 
L 943.624794 275.032849 
L 950.629489 275.061286 
" style="fill:none;stroke:#f7a35c;stroke-linecap:square;"/>
   </g>
   <g id="line2d_14">
    <path clip-path="url(#pc30531fabc)" d="M 96.056761 275.496163 
L 103.061456 275.500269 
L 110.06615 275.500954 
L 117.070845 275.501328 
L 124.075539 275.498732 
L 131.080234 275.496202 
L 138.084928 275.478716 
L 145.089623 275.134051 
L 152.094317 275.324328 
L 159.099012 272.80054 
L 166.103706 275.11816 
L 173.108401 275.459404 
L 180.113095 275.288782 
L 187.11779 275.459404 
L 194.122484 275.203471 
L 201.127179 275.061286 
L 208.131873 275.40253 
L 215.136568 275.132378 
L 222.141262 275.359875 
L 229.145957 274.961756 
L 236.150651 275.288782 
L 243.155346 275.388312 
L 250.16004 274.947538 
L 257.164735 275.459404 
L 264.169429 274.947538 
L 271.174124 274.748478 
L 278.178818 275.359875 
L 285.183512 275.146597 
L 292.188207 275.430967 
L 299.192901 274.904882 
L 306.197596 275.416749 
L 313.20229 274.791134 
L 320.206985 274.904882 
L 327.211679 275.21769 
L 334.216374 275.331438 
L 341.221068 275.103941 
L 348.225763 275.274564 
L 355.230457 274.080208 
L 362.235152 275.047067 
L 369.239846 275.246127 
L 376.244541 275.288782 
L 383.249235 275.331438 
L 390.25393 275.01863 
L 397.258624 274.577856 
L 404.263319 275.032849 
L 411.268013 275.445186 
L 418.272708 275.061286 
L 425.277402 274.563637 
L 432.282097 274.677386 
L 439.286791 273.838493 
L 446.291486 272.985381 
L 453.29618 274.63473 
L 460.300875 274.080208 
L 467.305569 275.061286 
L 474.310264 274.805352 
L 481.314958 274.492545 
L 488.319653 274.961756 
L 495.324347 273.113348 
L 502.329042 274.293485 
L 509.333736 274.705823 
L 516.338431 274.080208 
L 523.343125 273.810056 
L 530.347819 275.21769 
L 537.352514 275.345656 
L 544.357208 274.961756 
L 551.361903 275.089723 
L 558.366597 275.231908 
L 565.371292 275.317219 
L 572.375986 275.303001 
L 579.380681 275.374093 
L 586.385375 275.331438 
L 593.39007 274.990193 
L 600.394764 274.705823 
L 607.399459 274.549419 
L 614.404153 274.364578 
L 621.408848 274.478326 
L 628.413542 274.179737 
L 635.418237 274.435671 
L 642.422931 274.279267 
L 649.427626 274.520982 
L 656.43232 274.449889 
L 663.437015 274.592074 
L 670.441709 274.762697 
L 677.446404 274.520982 
L 684.451098 274.73426 
L 691.455793 274.293485 
L 698.460487 274.435671 
L 705.465182 274.407234 
L 712.469876 274.208174 
L 719.474571 274.208174 
L 726.479265 274.023333 
L 733.48396 273.610996 
L 740.488654 273.525685 
L 747.493349 273.497248 
L 754.498043 273.255533 
L 761.502738 273.013818 
L 768.507432 272.587263 
L 775.512126 272.089614 
L 782.516821 272.089614 
L 789.521515 271.990085 
L 796.52621 271.364469 
L 803.530904 271.151192 
L 810.535599 271.535092 
L 817.540293 272.089614 
L 824.544988 272.715229 
L 831.549682 273.156004 
L 838.554377 274.023333 
L 845.559071 274.165519 
L 852.563766 274.705823 
L 859.56846 274.776915 
L 866.573155 275.203471 
L 873.577849 275.21769 
L 880.582544 275.388312 
L 887.587238 275.303001 
L 894.591933 275.459404 
L 901.596627 275.345656 
L 908.601322 275.374093 
L 915.606016 275.374093 
L 922.610711 275.317219 
L 929.615405 275.288782 
L 936.6201 275.004412 
L 943.624794 275.089723 
L 950.629489 275.288782 
" style="fill:none;stroke:#8085e9;stroke-linecap:square;"/>
   </g>
   <g id="line2d_15">
    <path clip-path="url(#pc30531fabc)" d="M 96.056761 275.498082 
L 103.061456 275.499152 
L 110.06615 275.50114 
L 117.070845 275.50064 
L 124.075539 275.49083 
L 131.080234 275.486345 
L 138.084928 275.468016 
L 145.089623 274.759537 
L 152.094317 275.075504 
L 159.099012 271.663058 
L 166.103706 257.87109 
L 173.108401 269.956836 
L 180.113095 260.999165 
L 187.11779 270.525577 
L 194.122484 257.728905 
L 201.127179 246.638456 
L 208.131873 268.819354 
L 215.136568 250.904013 
L 222.141262 260.57261 
L 229.145957 241.946343 
L 236.150651 265.122537 
L 243.155346 268.677168 
L 250.16004 246.780641 
L 257.164735 268.250613 
L 264.169429 247.349382 
L 271.174124 236.116748 
L 278.178818 261.567906 
L 285.183512 255.453941 
L 292.188207 269.245909 
L 299.192901 236.258934 
L 306.197596 263.985055 
L 313.20229 237.25423 
L 320.206985 247.349382 
L 327.211679 264.695982 
L 334.216374 267.397501 
L 341.221068 240.24012 
L 348.225763 261.852277 
L 355.230457 203.414143 
L 362.235152 239.387009 
L 369.239846 263.84287 
L 376.244541 258.866387 
L 383.249235 265.549093 
L 390.25393 251.188384 
L 397.258624 225.59504 
L 404.263319 245.500974 
L 411.268013 269.672465 
L 418.272708 245.92753 
L 425.277402 211.234331 
L 432.282097 236.96986 
L 439.286791 213.36711 
L 446.291486 122.22637 
L 453.29618 226.732522 
L 460.300875 200.996994 
L 467.305569 247.207197 
L 474.310264 235.263637 
L 481.314958 229.718412 
L 488.319653 249.339976 
L 495.324347 154.786791 
L 502.329042 214.646777 
L 509.333736 233.557414 
L 516.338431 197.868919 
L 523.343125 178.958282 
L 530.347819 260.288239 
L 537.352514 263.416315 
L 544.357208 257.017979 
L 551.361903 251.61494 
L 558.366597 251.61494 
L 565.371292 256.733608 
L 572.375986 265.691278 
L 579.380681 267.255316 
L 586.385375 264.980352 
L 593.39007 250.335272 
L 600.394764 236.401119 
L 607.399459 221.471669 
L 614.404153 220.760742 
L 621.408848 221.471669 
L 628.413542 219.765446 
L 635.418237 225.31067 
L 642.422931 224.315373 
L 649.427626 223.746632 
L 656.43232 225.59504 
L 663.437015 232.846488 
L 670.441709 233.130858 
L 677.446404 234.552711 
L 684.451098 234.552711 
L 691.455793 235.832378 
L 698.460487 235.121452 
L 705.465182 237.680786 
L 712.469876 232.419932 
L 719.474571 234.410525 
L 726.479265 235.974563 
L 733.48396 232.988673 
L 740.488654 237.396415 
L 747.493349 238.818268 
L 754.498043 239.529194 
L 761.502738 237.965156 
L 768.507432 228.723116 
L 775.512126 216.210815 
L 782.516821 185.498803 
L 789.521515 155.497717 
L 796.52621 113.126515 
L 803.530904 81.987947 
L 810.535599 43.171377 
L 817.540293 57.247715 
L 824.544988 69.333461 
L 831.549682 94.358063 
L 838.554377 126.776298 
L 845.559071 169.858426 
L 852.563766 201.70792 
L 859.56846 228.723116 
L 866.573155 242.799455 
L 873.577849 255.169571 
L 880.582544 266.260019 
L 887.587238 266.82876 
L 894.591933 268.108427 
L 901.596627 266.82876 
L 908.601322 261.567906 
L 915.606016 260.999165 
L 922.610711 257.58672 
L 929.615405 260.288239 
L 936.6201 259.577313 
L 943.624794 257.728905 
L 950.629489 258.866387 
" style="fill:none;stroke:#f15c80;stroke-linecap:square;"/>
   </g>
   <g id="line2d_16">
    <path clip-path="url(#pc30531fabc)" d="M 96.056761 275.498153 
L 103.061456 275.499935 
L 110.06615 275.5011 
L 117.070845 275.501162 
L 124.075539 275.496979 
L 131.080234 275.494118 
L 138.084928 275.481922 
L 145.089623 274.994606 
L 152.094317 275.028109 
L 159.099012 272.551716 
L 166.103706 255.880497 
L 173.108401 271.663058 
L 180.113095 262.136647 
L 187.11779 271.947429 
L 194.122484 260.288239 
L 201.127179 251.472754 
L 208.131873 270.099021 
L 215.136568 251.046199 
L 222.141262 266.970946 
L 229.145957 247.775938 
L 236.150651 267.539687 
L 243.155346 269.103724 
L 250.16004 251.89931 
L 257.164735 270.383391 
L 264.169429 250.050902 
L 271.174124 245.074418 
L 278.178818 266.260019 
L 285.183512 260.999165 
L 292.188207 269.956836 
L 299.192901 243.22601 
L 306.197596 264.980352 
L 313.20229 243.936937 
L 320.206985 248.060309 
L 327.211679 265.691278 
L 334.216374 269.103724 
L 341.221068 248.771235 
L 348.225763 266.402205 
L 355.230457 210.239034 
L 362.235152 246.354086 
L 369.239846 267.397501 
L 376.244541 260.003869 
L 383.249235 267.681872 
L 390.25393 251.188384 
L 397.258624 229.860598 
L 404.263319 254.316459 
L 411.268013 270.383391 
L 418.272708 254.032089 
L 425.277402 219.481075 
L 432.282097 236.543304 
L 439.286791 206.115663 
L 446.291486 132.748078 
L 453.29618 220.049816 
L 460.300875 192.465879 
L 467.305569 246.922827 
L 474.310264 236.827675 
L 481.314958 227.016893 
L 488.319653 246.354086 
L 495.324347 164.028831 
L 502.329042 204.978181 
L 509.333736 239.671379 
L 516.338431 206.400033 
L 523.343125 189.053434 
L 530.347819 262.847574 
L 537.352514 262.563203 
L 544.357208 257.160164 
L 551.361903 254.743015 
L 558.366597 248.202494 
L 565.371292 258.724202 
L 572.375986 265.975649 
L 579.380681 264.553796 
L 586.385375 264.980352 
L 593.39007 251.330569 
L 600.394764 235.263637 
L 607.399459 222.893521 
L 614.404153 215.073333 
L 621.408848 212.229628 
L 628.413542 213.224925 
L 635.418237 214.504592 
L 642.422931 221.613854 
L 649.427626 230.002783 
L 656.43232 231.993376 
L 663.437015 233.557414 
L 670.441709 228.438745 
L 677.446404 236.116748 
L 684.451098 236.258934 
L 691.455793 232.562117 
L 698.460487 230.429339 
L 705.465182 222.466965 
L 712.469876 219.33889 
L 719.474571 211.945257 
L 726.479265 201.850105 
L 733.48396 198.011104 
L 740.488654 198.437659 
L 747.493349 197.726733 
L 754.498043 194.029917 
L 761.502738 189.053434 
L 768.507432 169.005315 
L 775.512126 156.635199 
L 782.516821 128.198151 
L 789.521515 92.936211 
L 796.52621 85.116023 
L 803.530904 56.678974 
L 810.535599 58.953938 
L 817.540293 74.025574 
L 824.544988 108.576587 
L 831.549682 138.151117 
L 838.554377 171.138093 
L 845.559071 210.38122 
L 852.563766 228.01219 
L 859.56846 250.904013 
L 866.573155 261.567906 
L 873.577849 264.411611 
L 880.582544 270.525577 
L 887.587238 268.250613 
L 894.591933 271.520873 
L 901.596627 270.525577 
L 908.601322 265.264723 
L 915.606016 260.714795 
L 922.610711 259.435128 
L 929.615405 266.82876 
L 936.6201 266.54439 
L 943.624794 262.136647 
L 950.629489 254.60083 
" style="fill:none;stroke:#e4d354;stroke-linecap:square;"/>
   </g>
   <g id="line2d_17">
    <path clip-path="url(#pc30531fabc)" d="M 96.056761 275.496839 
L 103.061456 275.500378 
L 110.06615 275.500925 
L 117.070845 275.501708 
L 124.075539 275.499244 
L 131.080234 275.500807 
L 138.084928 275.494577 
L 145.089623 275.31925 
L 152.094317 275.004412 
L 159.099012 274.648949 
L 166.103706 275.345656 
L 173.108401 275.459404 
L 180.113095 275.345656 
L 187.11779 275.445186 
L 194.122484 275.40253 
L 201.127179 275.175034 
L 208.131873 275.345656 
L 215.136568 275.288782 
L 222.141262 275.359875 
L 229.145957 275.160815 
L 236.150651 275.388312 
L 243.155346 275.374093 
L 250.16004 274.933319 
L 257.164735 275.359875 
L 264.169429 275.359875 
L 271.174124 275.175034 
L 278.178818 275.416749 
L 285.183512 275.331438 
L 292.188207 275.430967 
L 299.192901 275.146597 
L 306.197596 275.430967 
L 313.20229 275.061286 
L 320.206985 275.21769 
L 327.211679 275.374093 
L 334.216374 275.388312 
L 341.221068 275.246127 
L 348.225763 275.388312 
L 355.230457 275.032849 
L 362.235152 275.032849 
L 369.239846 275.374093 
L 376.244541 275.388312 
L 383.249235 275.359875 
L 390.25393 275.288782 
L 397.258624 275.089723 
L 404.263319 275.288782 
L 411.268013 275.473623 
L 418.272708 275.175034 
L 425.277402 274.848008 
L 432.282097 275.189252 
L 439.286791 274.933319 
L 446.291486 274.35036 
L 453.29618 274.961756 
L 460.300875 274.819571 
L 467.305569 275.260345 
L 474.310264 275.132378 
L 481.314958 275.132378 
L 488.319653 275.11816 
L 495.324347 274.449889 
L 502.329042 274.805352 
L 509.333736 275.103941 
L 516.338431 275.004412 
L 523.343125 274.549419 
L 530.347819 275.459404 
L 537.352514 275.359875 
L 544.357208 275.331438 
L 551.361903 275.260345 
L 558.366597 275.189252 
L 565.371292 275.317219 
L 572.375986 275.445186 
L 579.380681 275.416749 
L 586.385375 275.40253 
L 593.39007 275.288782 
L 600.394764 275.061286 
L 607.399459 275.061286 
L 614.404153 274.961756 
L 621.408848 274.805352 
L 628.413542 274.762697 
L 635.418237 274.947538 
L 642.422931 274.819571 
L 649.427626 274.848008 
L 656.43232 275.004412 
L 663.437015 274.947538 
L 670.441709 274.919101 
L 677.446404 274.947538 
L 684.451098 275.075504 
L 691.455793 275.061286 
L 698.460487 275.103941 
L 705.465182 275.089723 
L 712.469876 275.203471 
L 719.474571 274.990193 
L 726.479265 275.047067 
L 733.48396 274.947538 
L 740.488654 274.890663 
L 747.493349 274.890663 
L 754.498043 274.890663 
L 761.502738 274.876445 
L 768.507432 274.677386 
L 775.512126 274.492545 
L 782.516821 274.208174 
L 789.521515 273.724744 
L 796.52621 272.985381 
L 803.530904 272.942726 
L 810.535599 272.174925 
L 817.540293 272.359766 
L 824.544988 272.658355 
L 831.549682 273.298189 
L 838.554377 273.340844 
L 845.559071 274.122863 
L 852.563766 274.677386 
L 859.56846 274.904882 
L 866.573155 275.203471 
L 873.577849 275.160815 
L 880.582544 275.303001 
L 887.587238 275.345656 
L 894.591933 275.40253 
L 901.596627 275.40253 
L 908.601322 275.388312 
L 915.606016 275.303001 
L 922.610711 275.388312 
L 929.615405 275.317219 
L 936.6201 275.260345 
L 943.624794 275.445186 
L 950.629489 275.317219 
" style="fill:none;stroke:#2b908f;stroke-linecap:square;"/>
   </g>
   <g id="line2d_18">
    <path clip-path="url(#pc30531fabc)" d="M 96.056761 275.497301 
L 103.061456 275.50028 
L 110.06615 275.500685 
L 117.070845 275.501535 
L 124.075539 275.497437 
L 131.080234 275.497582 
L 138.084928 275.486262 
L 145.089623 275.13771 
L 152.094317 275.111051 
L 159.099012 273.084911 
L 166.103706 275.089723 
L 173.108401 275.331438 
L 180.113095 275.047067 
L 187.11779 275.331438 
L 194.122484 274.933319 
L 201.127179 274.776915 
L 208.131873 275.231908 
L 215.136568 275.004412 
L 222.141262 275.189252 
L 229.145957 274.677386 
L 236.150651 275.246127 
L 243.155346 275.303001 
L 250.16004 274.73426 
L 257.164735 275.160815 
L 264.169429 274.975975 
L 271.174124 274.73426 
L 278.178818 275.047067 
L 285.183512 275.032849 
L 292.188207 275.231908 
L 299.192901 274.720041 
L 306.197596 275.331438 
L 313.20229 274.805352 
L 320.206985 274.748478 
L 327.211679 275.231908 
L 334.216374 275.103941 
L 341.221068 274.833789 
L 348.225763 275.246127 
L 355.230457 274.179737 
L 362.235152 274.904882 
L 369.239846 275.231908 
L 376.244541 275.160815 
L 383.249235 275.303001 
L 390.25393 274.919101 
L 397.258624 274.549419 
L 404.263319 274.919101 
L 411.268013 275.416749 
L 418.272708 274.876445 
L 425.277402 274.080208 
L 432.282097 274.393015 
L 439.286791 273.810056 
L 446.291486 272.174925 
L 453.29618 274.1513 
L 460.300875 273.909585 
L 467.305569 274.776915 
L 474.310264 274.862226 
L 481.314958 274.449889 
L 488.319653 274.73426 
L 495.324347 272.715229 
L 502.329042 273.952241 
L 509.333736 274.5352 
L 516.338431 273.923804 
L 523.343125 273.241315 
L 530.347819 275.146597 
L 537.352514 275.146597 
L 544.357208 275.146597 
L 551.361903 275.047067 
L 558.366597 275.11816 
L 565.371292 274.961756 
L 572.375986 275.345656 
L 579.380681 275.317219 
L 586.385375 275.160815 
L 593.39007 274.848008 
L 600.394764 274.677386 
L 607.399459 274.25083 
L 614.404153 274.435671 
L 621.408848 273.909585 
L 628.413542 274.208174 
L 635.418237 274.35036 
L 642.422931 273.994896 
L 649.427626 274.051771 
L 656.43232 274.421452 
L 663.437015 274.065989 
L 670.441709 274.677386 
L 677.446404 274.620512 
L 684.451098 274.63473 
L 691.455793 274.776915 
L 698.460487 274.407234 
L 705.465182 274.577856 
L 712.469876 274.407234 
L 719.474571 274.648949 
L 726.479265 274.35036 
L 733.48396 274.449889 
L 740.488654 274.549419 
L 747.493349 274.25083 
L 754.498043 274.265048 
L 761.502738 274.023333 
L 768.507432 273.710526 
L 775.512126 272.558826 
L 782.516821 271.449781 
L 789.521515 269.786213 
L 796.52621 267.226879 
L 803.530904 265.463782 
L 810.535599 263.658029 
L 817.540293 262.947103 
L 824.544988 263.046633 
L 831.549682 266.004086 
L 838.554377 267.31219 
L 845.559071 270.895258 
L 852.563766 272.359766 
L 859.56846 274.051771 
L 866.573155 274.577856 
L 873.577849 274.947538 
L 880.582544 275.274564 
L 887.587238 275.303001 
L 894.591933 275.40253 
L 901.596627 275.459404 
L 908.601322 275.374093 
L 915.606016 275.374093 
L 922.610711 275.345656 
L 929.615405 275.40253 
L 936.6201 275.175034 
L 943.624794 275.089723 
L 950.629489 274.848008 
" style="fill:none;stroke:#f45b5b;stroke-linecap:square;"/>
   </g>
   <g id="line2d_19">
    <path clip-path="url(#pc30531fabc)" d="M 96.056761 275.497595 
L 110.06615 275.496591 
L 138.084928 275.487841 
L 145.089623 275.487841 
L 159.099012 275.487841 
L 180.113095 275.487841 
L 187.11779 275.487841 
L 201.127179 275.473623 
L 215.136568 275.487841 
L 250.16004 275.473623 
L 257.164735 275.487841 
L 278.178818 275.487841 
L 285.183512 275.473623 
L 292.188207 275.473623 
L 320.206985 275.459404 
L 327.211679 275.487841 
L 334.216374 275.487841 
L 341.221068 275.487841 
L 355.230457 275.487841 
L 362.235152 275.487841 
L 369.239846 275.487841 
L 411.268013 275.487841 
L 418.272708 275.487841 
L 425.277402 275.487841 
L 432.282097 275.487841 
L 446.291486 275.473623 
L 467.305569 275.487841 
L 481.314958 275.487841 
L 488.319653 275.487841 
L 656.43232 275.487841 
L 670.441709 275.473623 
L 677.446404 275.487841 
L 754.498043 275.487841 
L 789.521515 275.473623 
L 796.52621 275.445186 
L 803.530904 275.459404 
L 817.540293 275.487841 
L 824.544988 275.473623 
L 831.549682 275.487841 
L 838.554377 275.487841 
L 845.559071 275.473623 
L 852.563766 275.459404 
L 873.577849 275.487841 
L 880.582544 275.473623 
L 894.591933 275.487841 
L 901.596627 275.473623 
L 908.601322 275.487841 
L 922.610711 275.487841 
L 943.624794 275.487841 
" style="fill:none;stroke:#91e8e1;stroke-linecap:square;"/>
   </g>
   <g id="line2d_20">
    <path clip-path="url(#pc30531fabc)" d="M 96.056761 275.495134 
L 103.061456 275.500124 
L 110.06615 275.500457 
L 117.070845 275.501066 
L 124.075539 275.494111 
L 131.080234 275.496927 
L 138.084928 275.46909 
L 145.089623 274.966774 
L 152.094317 275.21769 
L 159.099012 273.084911 
L 166.103706 275.103941 
L 173.108401 275.416749 
L 180.113095 275.303001 
L 187.11779 275.359875 
L 194.122484 275.061286 
L 201.127179 274.862226 
L 208.131873 275.303001 
L 215.136568 274.776915 
L 222.141262 275.345656 
L 229.145957 274.663167 
L 236.150651 275.359875 
L 243.155346 275.345656 
L 250.16004 274.862226 
L 257.164735 275.40253 
L 264.169429 274.961756 
L 271.174124 274.648949 
L 278.178818 275.260345 
L 285.183512 275.160815 
L 292.188207 275.331438 
L 299.192901 274.620512 
L 306.197596 275.189252 
L 313.20229 274.663167 
L 320.206985 274.975975 
L 327.211679 275.189252 
L 334.216374 275.416749 
L 341.221068 274.990193 
L 348.225763 275.132378 
L 355.230457 274.122863 
L 362.235152 274.947538 
L 369.239846 275.359875 
L 376.244541 275.260345 
L 383.249235 275.359875 
L 390.25393 274.876445 
L 397.258624 274.208174 
L 404.263319 274.833789 
L 411.268013 275.374093 
L 418.272708 274.947538 
L 425.277402 274.122863 
L 432.282097 274.492545 
L 439.286791 273.86693 
L 446.291486 272.601481 
L 453.29618 274.080208 
L 460.300875 273.86693 
L 467.305569 274.919101 
L 474.310264 274.663167 
L 481.314958 274.464108 
L 488.319653 274.990193 
L 495.324347 273.170222 
L 502.329042 274.179737 
L 509.333736 274.805352 
L 516.338431 273.753182 
L 523.343125 273.952241 
L 530.347819 275.11816 
L 537.352514 275.21769 
L 544.357208 275.203471 
L 551.361903 275.075504 
L 558.366597 274.961756 
L 565.371292 275.132378 
L 572.375986 275.359875 
L 579.380681 275.388312 
L 586.385375 275.274564 
L 593.39007 275.160815 
L 600.394764 274.63473 
L 607.399459 274.407234 
L 614.404153 274.364578 
L 621.408848 274.179737 
L 628.413542 274.293485 
L 635.418237 274.108645 
L 642.422931 274.35036 
L 649.427626 274.222393 
L 656.43232 274.321923 
L 663.437015 274.563637 
L 670.441709 274.577856 
L 677.446404 274.819571 
L 684.451098 274.520982 
L 691.455793 274.620512 
L 698.460487 274.449889 
L 705.465182 274.63473 
L 712.469876 274.791134 
L 719.474571 274.648949 
L 726.479265 274.620512 
L 733.48396 274.293485 
L 740.488654 274.73426 
L 747.493349 274.819571 
L 754.498043 274.776915 
L 761.502738 274.904882 
L 768.507432 274.464108 
L 775.512126 273.895367 
L 782.516821 273.411937 
L 789.521515 273.198659 
L 796.52621 272.061177 
L 803.530904 271.876336 
L 810.535599 271.606184 
L 817.540293 272.174925 
L 824.544988 271.805244 
L 831.549682 272.359766 
L 838.554377 273.411937 
L 845.559071 273.923804 
L 852.563766 274.336141 
L 859.56846 274.677386 
L 866.573155 275.146597 
L 873.577849 275.21769 
L 880.582544 275.345656 
L 887.587238 275.359875 
L 894.591933 275.459404 
L 901.596627 275.345656 
L 908.601322 275.288782 
L 915.606016 275.359875 
L 922.610711 275.303001 
L 929.615405 275.345656 
L 936.6201 275.317219 
L 943.624794 275.004412 
L 950.629489 275.374093 
" style="fill:none;stroke:#7cb5ec;stroke-linecap:square;"/>
   </g>
   <g id="line2d_21">
    <path clip-path="url(#pc30531fabc)" d="M 96.056761 275.497035 
L 103.061456 275.499619 
L 110.06615 275.500983 
L 117.070845 275.500803 
L 124.075539 275.487077 
L 131.080234 275.488313 
L 138.084928 275.47576 
L 145.089623 274.569589 
L 152.094317 274.933319 
L 159.099012 270.715157 
L 166.103706 249.482161 
L 173.108401 269.53028 
L 180.113095 253.747718 
L 187.11779 268.108427 
L 194.122484 246.780641 
L 201.127179 237.822971 
L 208.131873 266.117834 
L 215.136568 230.99808 
L 222.141262 256.164867 
L 229.145957 221.613854 
L 236.150651 258.439831 
L 243.155346 264.411611 
L 250.16004 217.206111 
L 257.164735 261.710092 
L 264.169429 230.287153 
L 271.174124 214.362406 
L 278.178818 255.311756 
L 285.183512 244.363492 
L 292.188207 259.150757 
L 299.192901 218.912334 
L 306.197596 260.146054 
L 313.20229 208.959367 
L 320.206985 230.002783 
L 327.211679 257.87109 
L 334.216374 261.425721 
L 341.221068 230.002783 
L 348.225763 258.439831 
L 355.230457 171.280279 
L 362.235152 221.187298 
L 369.239846 261.710092 
L 376.244541 250.050902 
L 383.249235 261.852277 
L 390.25393 237.965156 
L 397.258624 199.575141 
L 404.263319 233.699599 
L 411.268013 268.392798 
L 418.272708 233.130858 
L 425.277402 187.489396 
L 432.282097 226.305967 
L 439.286791 186.636285 
L 446.291486 69.760017 
L 453.29618 201.42355 
L 460.300875 171.706834 
L 467.305569 241.804158 
L 474.310264 225.168485 
L 481.314958 206.684403 
L 488.319653 240.524491 
L 495.324347 115.259294 
L 502.329042 196.162696 
L 509.333736 225.168485 
L 516.338431 173.270872 
L 523.343125 136.160524 
L 530.347819 252.041495 
L 537.352514 260.85698 
L 544.357208 251.61494 
L 551.361903 245.785345 
L 558.366597 250.193087 
L 565.371292 256.875793 
L 572.375986 267.397501 
L 579.380681 266.686575 
L 586.385375 262.847574 
L 593.39007 247.491568 
L 600.394764 222.040409 
L 607.399459 208.248441 
L 614.404153 209.528108 
L 621.408848 201.42355 
L 628.413542 210.66559 
L 635.418237 205.262551 
L 642.422931 208.959367 
L 649.427626 210.807775 
L 656.43232 216.353 
L 663.437015 219.481075 
L 670.441709 218.627964 
L 677.446404 231.566821 
L 684.451098 225.737226 
L 691.455793 230.855894 
L 698.460487 228.580931 
L 705.465182 229.149672 
L 712.469876 229.860598 
L 719.474571 221.471669 
L 726.479265 225.59504 
L 733.48396 218.912334 
L 740.488654 228.154375 
L 747.493349 229.434042 
L 754.498043 222.466965 
L 761.502738 228.580931 
L 768.507432 211.092146 
L 775.512126 199.148586 
L 782.516821 172.13339 
L 789.521515 151.374345 
L 796.52621 125.070075 
L 803.530904 107.581291 
L 810.535599 86.822245 
L 817.540293 93.789322 
L 824.544988 116.823331 
L 831.549682 139.57297 
L 838.554377 157.630495 
L 845.559071 179.100467 
L 852.563766 201.992291 
L 859.56846 225.0263 
L 866.573155 244.079122 
L 873.577849 255.738312 
L 880.582544 267.113131 
L 887.587238 267.824057 
L 894.591933 271.236503 
L 901.596627 268.392798 
L 908.601322 268.392798 
L 915.606016 269.81465 
L 922.610711 265.122537 
L 929.615405 270.099021 
L 936.6201 269.672465 
L 943.624794 266.82876 
L 950.629489 266.54439 
" style="fill:none;stroke:#434348;stroke-linecap:square;"/>
   </g>
   <g id="line2d_22">
    <path clip-path="url(#pc30531fabc)" d="M 53.328125 275.50206 
L 993.358125 275.50206 
" style="fill:none;stroke:#dedede;stroke-linecap:square;stroke-width:2;"/>
   </g>
   <g id="text_19">
    <!-- Cutadapt: Lengths of Trimmed Sequences -->
    <g transform="translate(355.678125 19.3575)scale(0.16 -0.16)">
     <defs>
      <path d="M 64.40625 67.28125 
L 64.40625 56.890625 
Q 59.421875 61.53125 53.78125 63.8125 
Q 48.140625 66.109375 41.796875 66.109375 
Q 29.296875 66.109375 22.65625 58.46875 
Q 16.015625 50.828125 16.015625 36.375 
Q 16.015625 21.96875 22.65625 14.328125 
Q 29.296875 6.6875 41.796875 6.6875 
Q 48.140625 6.6875 53.78125 8.984375 
Q 59.421875 11.28125 64.40625 15.921875 
L 64.40625 5.609375 
Q 59.234375 2.09375 53.4375 0.328125 
Q 47.65625 -1.421875 41.21875 -1.421875 
Q 24.65625 -1.421875 15.125 8.703125 
Q 5.609375 18.84375 5.609375 36.375 
Q 5.609375 53.953125 15.125 64.078125 
Q 24.65625 74.21875 41.21875 74.21875 
Q 47.75 74.21875 53.53125 72.484375 
Q 59.328125 70.75 64.40625 67.28125 
z
" id="DejaVuSans-67"/>
      <path d="M 8.5 21.578125 
L 8.5 54.6875 
L 17.484375 54.6875 
L 17.484375 21.921875 
Q 17.484375 14.15625 20.5 10.265625 
Q 23.53125 6.390625 29.59375 6.390625 
Q 36.859375 6.390625 41.078125 11.03125 
Q 45.3125 15.671875 45.3125 23.6875 
L 45.3125 54.6875 
L 54.296875 54.6875 
L 54.296875 0 
L 45.3125 0 
L 45.3125 8.40625 
Q 42.046875 3.421875 37.71875 1 
Q 33.40625 -1.421875 27.6875 -1.421875 
Q 18.265625 -1.421875 13.375 4.4375 
Q 8.5 10.296875 8.5 21.578125 
z
M 31.109375 56 
z
" id="DejaVuSans-117"/>
      <path d="M 34.28125 27.484375 
Q 23.390625 27.484375 19.1875 25 
Q 14.984375 22.515625 14.984375 16.5 
Q 14.984375 11.71875 18.140625 8.90625 
Q 21.296875 6.109375 26.703125 6.109375 
Q 34.1875 6.109375 38.703125 11.40625 
Q 43.21875 16.703125 43.21875 25.484375 
L 43.21875 27.484375 
z
M 52.203125 31.203125 
L 52.203125 0 
L 43.21875 0 
L 43.21875 8.296875 
Q 40.140625 3.328125 35.546875 0.953125 
Q 30.953125 -1.421875 24.3125 -1.421875 
Q 15.921875 -1.421875 10.953125 3.296875 
Q 6 8.015625 6 15.921875 
Q 6 25.140625 12.171875 29.828125 
Q 18.359375 34.515625 30.609375 34.515625 
L 43.21875 34.515625 
L 43.21875 35.40625 
Q 43.21875 41.609375 39.140625 45 
Q 35.0625 48.390625 27.6875 48.390625 
Q 23 48.390625 18.546875 47.265625 
Q 14.109375 46.140625 10.015625 43.890625 
L 10.015625 52.203125 
Q 14.9375 54.109375 19.578125 55.046875 
Q 24.21875 56 28.609375 56 
Q 40.484375 56 46.34375 49.84375 
Q 52.203125 43.703125 52.203125 31.203125 
z
" id="DejaVuSans-97"/>
      <path d="M 11.71875 12.40625 
L 22.015625 12.40625 
L 22.015625 0 
L 11.71875 0 
z
M 11.71875 51.703125 
L 22.015625 51.703125 
L 22.015625 39.3125 
L 11.71875 39.3125 
z
" id="DejaVuSans-58"/>
      <path d="M 30.609375 48.390625 
Q 23.390625 48.390625 19.1875 42.75 
Q 14.984375 37.109375 14.984375 27.296875 
Q 14.984375 17.484375 19.15625 11.84375 
Q 23.34375 6.203125 30.609375 6.203125 
Q 37.796875 6.203125 41.984375 11.859375 
Q 46.1875 17.53125 46.1875 27.296875 
Q 46.1875 37.015625 41.984375 42.703125 
Q 37.796875 48.390625 30.609375 48.390625 
z
M 30.609375 56 
Q 42.328125 56 49.015625 48.375 
Q 55.71875 40.765625 55.71875 27.296875 
Q 55.71875 13.875 49.015625 6.21875 
Q 42.328125 -1.421875 30.609375 -1.421875 
Q 18.84375 -1.421875 12.171875 6.21875 
Q 5.515625 13.875 5.515625 27.296875 
Q 5.515625 40.765625 12.171875 48.375 
Q 18.84375 56 30.609375 56 
z
" id="DejaVuSans-111"/>
      <path d="M 37.109375 75.984375 
L 37.109375 68.5 
L 28.515625 68.5 
Q 23.6875 68.5 21.796875 66.546875 
Q 19.921875 64.59375 19.921875 59.515625 
L 19.921875 54.6875 
L 34.71875 54.6875 
L 34.71875 47.703125 
L 19.921875 47.703125 
L 19.921875 0 
L 10.890625 0 
L 10.890625 47.703125 
L 2.296875 47.703125 
L 2.296875 54.6875 
L 10.890625 54.6875 
L 10.890625 58.5 
Q 10.890625 67.625 15.140625 71.796875 
Q 19.390625 75.984375 28.609375 75.984375 
z
" id="DejaVuSans-102"/>
      <path d="M 53.515625 70.515625 
L 53.515625 60.890625 
Q 47.90625 63.578125 42.921875 64.890625 
Q 37.9375 66.21875 33.296875 66.21875 
Q 25.25 66.21875 20.875 63.09375 
Q 16.5 59.96875 16.5 54.203125 
Q 16.5 49.359375 19.40625 46.890625 
Q 22.3125 44.4375 30.421875 42.921875 
L 36.375 41.703125 
Q 47.40625 39.59375 52.65625 34.296875 
Q 57.90625 29 57.90625 20.125 
Q 57.90625 9.515625 50.796875 4.046875 
Q 43.703125 -1.421875 29.984375 -1.421875 
Q 24.8125 -1.421875 18.96875 -0.25 
Q 13.140625 0.921875 6.890625 3.21875 
L 6.890625 13.375 
Q 12.890625 10.015625 18.65625 8.296875 
Q 24.421875 6.59375 29.984375 6.59375 
Q 38.421875 6.59375 43.015625 9.90625 
Q 47.609375 13.234375 47.609375 19.390625 
Q 47.609375 24.75 44.3125 27.78125 
Q 41.015625 30.8125 33.5 32.328125 
L 27.484375 33.5 
Q 16.453125 35.6875 11.515625 40.375 
Q 6.59375 45.0625 6.59375 53.421875 
Q 6.59375 63.09375 13.40625 68.65625 
Q 20.21875 74.21875 32.171875 74.21875 
Q 37.3125 74.21875 42.625 73.28125 
Q 47.953125 72.359375 53.515625 70.515625 
z
" id="DejaVuSans-83"/>
      <path d="M 14.796875 27.296875 
Q 14.796875 17.390625 18.875 11.75 
Q 22.953125 6.109375 30.078125 6.109375 
Q 37.203125 6.109375 41.296875 11.75 
Q 45.40625 17.390625 45.40625 27.296875 
Q 45.40625 37.203125 41.296875 42.84375 
Q 37.203125 48.484375 30.078125 48.484375 
Q 22.953125 48.484375 18.875 42.84375 
Q 14.796875 37.203125 14.796875 27.296875 
z
M 45.40625 8.203125 
Q 42.578125 3.328125 38.25 0.953125 
Q 33.9375 -1.421875 27.875 -1.421875 
Q 17.96875 -1.421875 11.734375 6.484375 
Q 5.515625 14.40625 5.515625 27.296875 
Q 5.515625 40.1875 11.734375 48.09375 
Q 17.96875 56 27.875 56 
Q 33.9375 56 38.25 53.625 
Q 42.578125 51.265625 45.40625 46.390625 
L 45.40625 54.6875 
L 54.390625 54.6875 
L 54.390625 -20.796875 
L 45.40625 -20.796875 
z
" id="DejaVuSans-113"/>
     </defs>
     <use xlink:href="#DejaVuSans-67"/>
     <use x="69.824219" xlink:href="#DejaVuSans-117"/>
     <use x="133.203125" xlink:href="#DejaVuSans-116"/>
     <use x="172.412109" xlink:href="#DejaVuSans-97"/>
     <use x="233.691406" xlink:href="#DejaVuSans-100"/>
     <use x="297.167969" xlink:href="#DejaVuSans-97"/>
     <use x="358.447266" xlink:href="#DejaVuSans-112"/>
     <use x="421.923828" xlink:href="#DejaVuSans-116"/>
     <use x="461.132812" xlink:href="#DejaVuSans-58"/>
     <use x="494.824219" xlink:href="#DejaVuSans-32"/>
     <use x="526.611328" xlink:href="#DejaVuSans-76"/>
     <use x="580.574219" xlink:href="#DejaVuSans-101"/>
     <use x="642.097656" xlink:href="#DejaVuSans-110"/>
     <use x="705.476562" xlink:href="#DejaVuSans-103"/>
     <use x="768.953125" xlink:href="#DejaVuSans-116"/>
     <use x="808.162109" xlink:href="#DejaVuSans-104"/>
     <use x="871.541016" xlink:href="#DejaVuSans-115"/>
     <use x="923.640625" xlink:href="#DejaVuSans-32"/>
     <use x="955.427734" xlink:href="#DejaVuSans-111"/>
     <use x="1016.609375" xlink:href="#DejaVuSans-102"/>
     <use x="1051.814453" xlink:href="#DejaVuSans-32"/>
     <use x="1083.601562" xlink:href="#DejaVuSans-84"/>
     <use x="1129.935547" xlink:href="#DejaVuSans-114"/>
     <use x="1171.048828" xlink:href="#DejaVuSans-105"/>
     <use x="1198.832031" xlink:href="#DejaVuSans-109"/>
     <use x="1296.244141" xlink:href="#DejaVuSans-109"/>
     <use x="1393.65625" xlink:href="#DejaVuSans-101"/>
     <use x="1455.179688" xlink:href="#DejaVuSans-100"/>
     <use x="1518.65625" xlink:href="#DejaVuSans-32"/>
     <use x="1550.443359" xlink:href="#DejaVuSans-83"/>
     <use x="1613.919922" xlink:href="#DejaVuSans-101"/>
     <use x="1675.443359" xlink:href="#DejaVuSans-113"/>
     <use x="1738.919922" xlink:href="#DejaVuSans-117"/>
     <use x="1802.298828" xlink:href="#DejaVuSans-101"/>
     <use x="1863.822266" xlink:href="#DejaVuSans-110"/>
     <use x="1927.201172" xlink:href="#DejaVuSans-99"/>
     <use x="1982.181641" xlink:href="#DejaVuSans-101"/>
     <use x="2043.705078" xlink:href="#DejaVuSans-115"/>
    </g>
   </g>
   <g id="legend_1">
    <g id="line2d_23">
     <path d="M 60.528125 293.354194 
L 76.528125 293.354194 
" style="fill:none;stroke:#7cb5ec;stroke-linecap:square;"/>
    </g>
    <g id="line2d_24"/>
    <g id="text_20">
     <!-- RTS0_BC_AGCAAC - Adapter 1 -->
     <g transform="translate(82.928125 296.154194)scale(0.08 -0.08)">
      <defs>
       <path d="M 44.390625 34.1875 
Q 47.5625 33.109375 50.5625 29.59375 
Q 53.5625 26.078125 56.59375 19.921875 
L 66.609375 0 
L 56 0 
L 46.6875 18.703125 
Q 43.0625 26.03125 39.671875 28.421875 
Q 36.28125 30.8125 30.421875 30.8125 
L 19.671875 30.8125 
L 19.671875 0 
L 9.8125 0 
L 9.8125 72.90625 
L 32.078125 72.90625 
Q 44.578125 72.90625 50.734375 67.671875 
Q 56.890625 62.453125 56.890625 51.90625 
Q 56.890625 45.015625 53.6875 40.46875 
Q 50.484375 35.9375 44.390625 34.1875 
z
M 19.671875 64.796875 
L 19.671875 38.921875 
L 32.078125 38.921875 
Q 39.203125 38.921875 42.84375 42.21875 
Q 46.484375 45.515625 46.484375 51.90625 
Q 46.484375 58.296875 42.84375 61.546875 
Q 39.203125 64.796875 32.078125 64.796875 
z
" id="DejaVuSans-82"/>
       <path d="M 50.984375 -16.609375 
L 50.984375 -23.578125 
L -0.984375 -23.578125 
L -0.984375 -16.609375 
z
" id="DejaVuSans-95"/>
       <path d="M 19.671875 34.8125 
L 19.671875 8.109375 
L 35.5 8.109375 
Q 43.453125 8.109375 47.28125 11.40625 
Q 51.125 14.703125 51.125 21.484375 
Q 51.125 28.328125 47.28125 31.5625 
Q 43.453125 34.8125 35.5 34.8125 
z
M 19.671875 64.796875 
L 19.671875 42.828125 
L 34.28125 42.828125 
Q 41.5 42.828125 45.03125 45.53125 
Q 48.578125 48.25 48.578125 53.8125 
Q 48.578125 59.328125 45.03125 62.0625 
Q 41.5 64.796875 34.28125 64.796875 
z
M 9.8125 72.90625 
L 35.015625 72.90625 
Q 46.296875 72.90625 52.390625 68.21875 
Q 58.5 63.53125 58.5 54.890625 
Q 58.5 48.1875 55.375 44.234375 
Q 52.25 40.28125 46.1875 39.3125 
Q 53.46875 37.75 57.5 32.78125 
Q 61.53125 27.828125 61.53125 20.40625 
Q 61.53125 10.640625 54.890625 5.3125 
Q 48.25 0 35.984375 0 
L 9.8125 0 
z
" id="DejaVuSans-66"/>
       <path d="M 34.1875 63.1875 
L 20.796875 26.90625 
L 47.609375 26.90625 
z
M 28.609375 72.90625 
L 39.796875 72.90625 
L 67.578125 0 
L 57.328125 0 
L 50.6875 18.703125 
L 17.828125 18.703125 
L 11.1875 0 
L 0.78125 0 
z
" id="DejaVuSans-65"/>
       <path d="M 59.515625 10.40625 
L 59.515625 29.984375 
L 43.40625 29.984375 
L 43.40625 38.09375 
L 69.28125 38.09375 
L 69.28125 6.78125 
Q 63.578125 2.734375 56.6875 0.65625 
Q 49.8125 -1.421875 42 -1.421875 
Q 24.90625 -1.421875 15.25 8.5625 
Q 5.609375 18.5625 5.609375 36.375 
Q 5.609375 54.25 15.25 64.234375 
Q 24.90625 74.21875 42 74.21875 
Q 49.125 74.21875 55.546875 72.453125 
Q 61.96875 70.703125 67.390625 67.28125 
L 67.390625 56.78125 
Q 61.921875 61.421875 55.765625 63.765625 
Q 49.609375 66.109375 42.828125 66.109375 
Q 29.4375 66.109375 22.71875 58.640625 
Q 16.015625 51.171875 16.015625 36.375 
Q 16.015625 21.625 22.71875 14.15625 
Q 29.4375 6.6875 42.828125 6.6875 
Q 48.046875 6.6875 52.140625 7.59375 
Q 56.25 8.5 59.515625 10.40625 
z
" id="DejaVuSans-71"/>
       <path d="M 4.890625 31.390625 
L 31.203125 31.390625 
L 31.203125 23.390625 
L 4.890625 23.390625 
z
" id="DejaVuSans-45"/>
      </defs>
      <use xlink:href="#DejaVuSans-82"/>
      <use x="62.232422" xlink:href="#DejaVuSans-84"/>
      <use x="123.316406" xlink:href="#DejaVuSans-83"/>
      <use x="186.792969" xlink:href="#DejaVuSans-48"/>
      <use x="250.416016" xlink:href="#DejaVuSans-95"/>
      <use x="300.416016" xlink:href="#DejaVuSans-66"/>
      <use x="367.269531" xlink:href="#DejaVuSans-67"/>
      <use x="437.09375" xlink:href="#DejaVuSans-95"/>
      <use x="487.09375" xlink:href="#DejaVuSans-65"/>
      <use x="553.751953" xlink:href="#DejaVuSans-71"/>
      <use x="631.242188" xlink:href="#DejaVuSans-67"/>
      <use x="701.066406" xlink:href="#DejaVuSans-65"/>
      <use x="772.224609" xlink:href="#DejaVuSans-65"/>
      <use x="838.882812" xlink:href="#DejaVuSans-67"/>
      <use x="908.707031" xlink:href="#DejaVuSans-32"/>
      <use x="940.494141" xlink:href="#DejaVuSans-45"/>
      <use x="976.578125" xlink:href="#DejaVuSans-32"/>
      <use x="1008.365234" xlink:href="#DejaVuSans-65"/>
      <use x="1075.023438" xlink:href="#DejaVuSans-100"/>
      <use x="1138.5" xlink:href="#DejaVuSans-97"/>
      <use x="1199.779297" xlink:href="#DejaVuSans-112"/>
      <use x="1263.255859" xlink:href="#DejaVuSans-116"/>
      <use x="1302.464844" xlink:href="#DejaVuSans-101"/>
      <use x="1363.988281" xlink:href="#DejaVuSans-114"/>
      <use x="1405.101562" xlink:href="#DejaVuSans-32"/>
      <use x="1436.888672" xlink:href="#DejaVuSans-49"/>
     </g>
    </g>
    <g id="line2d_25">
     <path d="M 60.528125 305.319194 
L 76.528125 305.319194 
" style="fill:none;stroke:#434348;stroke-linecap:square;"/>
    </g>
    <g id="line2d_26"/>
    <g id="text_21">
     <!-- RTS0_BC_ATCGTG - Adapter 1 -->
     <g transform="translate(82.928125 308.119194)scale(0.08 -0.08)">
      <use xlink:href="#DejaVuSans-82"/>
      <use x="62.232422" xlink:href="#DejaVuSans-84"/>
      <use x="123.316406" xlink:href="#DejaVuSans-83"/>
      <use x="186.792969" xlink:href="#DejaVuSans-48"/>
      <use x="250.416016" xlink:href="#DejaVuSans-95"/>
      <use x="300.416016" xlink:href="#DejaVuSans-66"/>
      <use x="367.269531" xlink:href="#DejaVuSans-67"/>
      <use x="437.09375" xlink:href="#DejaVuSans-95"/>
      <use x="487.09375" xlink:href="#DejaVuSans-65"/>
      <use x="547.751953" xlink:href="#DejaVuSans-84"/>
      <use x="602.960938" xlink:href="#DejaVuSans-67"/>
      <use x="672.785156" xlink:href="#DejaVuSans-71"/>
      <use x="746.650391" xlink:href="#DejaVuSans-84"/>
      <use x="807.734375" xlink:href="#DejaVuSans-71"/>
      <use x="885.224609" xlink:href="#DejaVuSans-32"/>
      <use x="917.011719" xlink:href="#DejaVuSans-45"/>
      <use x="953.095703" xlink:href="#DejaVuSans-32"/>
      <use x="984.882812" xlink:href="#DejaVuSans-65"/>
      <use x="1051.541016" xlink:href="#DejaVuSans-100"/>
      <use x="1115.017578" xlink:href="#DejaVuSans-97"/>
      <use x="1176.296875" xlink:href="#DejaVuSans-112"/>
      <use x="1239.773438" xlink:href="#DejaVuSans-116"/>
      <use x="1278.982422" xlink:href="#DejaVuSans-101"/>
      <use x="1340.505859" xlink:href="#DejaVuSans-114"/>
      <use x="1381.619141" xlink:href="#DejaVuSans-32"/>
      <use x="1413.40625" xlink:href="#DejaVuSans-49"/>
     </g>
    </g>
    <g id="line2d_27">
     <path d="M 60.528125 317.284194 
L 76.528125 317.284194 
" style="fill:none;stroke:#90ed7d;stroke-linecap:square;"/>
    </g>
    <g id="line2d_28"/>
    <g id="text_22">
     <!-- RTS0_BC_CCACTA - Adapter 1 -->
     <g transform="translate(82.928125 320.084194)scale(0.08 -0.08)">
      <use xlink:href="#DejaVuSans-82"/>
      <use x="62.232422" xlink:href="#DejaVuSans-84"/>
      <use x="123.316406" xlink:href="#DejaVuSans-83"/>
      <use x="186.792969" xlink:href="#DejaVuSans-48"/>
      <use x="250.416016" xlink:href="#DejaVuSans-95"/>
      <use x="300.416016" xlink:href="#DejaVuSans-66"/>
      <use x="367.269531" xlink:href="#DejaVuSans-67"/>
      <use x="437.09375" xlink:href="#DejaVuSans-95"/>
      <use x="487.09375" xlink:href="#DejaVuSans-67"/>
      <use x="556.917969" xlink:href="#DejaVuSans-67"/>
      <use x="626.742188" xlink:href="#DejaVuSans-65"/>
      <use x="693.400391" xlink:href="#DejaVuSans-67"/>
      <use x="763.224609" xlink:href="#DejaVuSans-84"/>
      <use x="816.558594" xlink:href="#DejaVuSans-65"/>
      <use x="884.966797" xlink:href="#DejaVuSans-32"/>
      <use x="916.753906" xlink:href="#DejaVuSans-45"/>
      <use x="952.837891" xlink:href="#DejaVuSans-32"/>
      <use x="984.625" xlink:href="#DejaVuSans-65"/>
      <use x="1051.283203" xlink:href="#DejaVuSans-100"/>
      <use x="1114.759766" xlink:href="#DejaVuSans-97"/>
      <use x="1176.039062" xlink:href="#DejaVuSans-112"/>
      <use x="1239.515625" xlink:href="#DejaVuSans-116"/>
      <use x="1278.724609" xlink:href="#DejaVuSans-101"/>
      <use x="1340.248047" xlink:href="#DejaVuSans-114"/>
      <use x="1381.361328" xlink:href="#DejaVuSans-32"/>
      <use x="1413.148438" xlink:href="#DejaVuSans-49"/>
     </g>
    </g>
    <g id="line2d_29">
     <path d="M 256.2775 293.354194 
L 272.2775 293.354194 
" style="fill:none;stroke:#f7a35c;stroke-linecap:square;"/>
    </g>
    <g id="line2d_30"/>
    <g id="text_23">
     <!-- RTS0_BC_CCTATG - Adapter 1 -->
     <g transform="translate(278.6775 296.154194)scale(0.08 -0.08)">
      <use xlink:href="#DejaVuSans-82"/>
      <use x="62.232422" xlink:href="#DejaVuSans-84"/>
      <use x="123.316406" xlink:href="#DejaVuSans-83"/>
      <use x="186.792969" xlink:href="#DejaVuSans-48"/>
      <use x="250.416016" xlink:href="#DejaVuSans-95"/>
      <use x="300.416016" xlink:href="#DejaVuSans-66"/>
      <use x="367.269531" xlink:href="#DejaVuSans-67"/>
      <use x="437.09375" xlink:href="#DejaVuSans-95"/>
      <use x="487.09375" xlink:href="#DejaVuSans-67"/>
      <use x="556.917969" xlink:href="#DejaVuSans-67"/>
      <use x="626.742188" xlink:href="#DejaVuSans-84"/>
      <use x="680.076172" xlink:href="#DejaVuSans-65"/>
      <use x="740.734375" xlink:href="#DejaVuSans-84"/>
      <use x="801.818359" xlink:href="#DejaVuSans-71"/>
      <use x="879.308594" xlink:href="#DejaVuSans-32"/>
      <use x="911.095703" xlink:href="#DejaVuSans-45"/>
      <use x="947.179688" xlink:href="#DejaVuSans-32"/>
      <use x="978.966797" xlink:href="#DejaVuSans-65"/>
      <use x="1045.625" xlink:href="#DejaVuSans-100"/>
      <use x="1109.101562" xlink:href="#DejaVuSans-97"/>
      <use x="1170.380859" xlink:href="#DejaVuSans-112"/>
      <use x="1233.857422" xlink:href="#DejaVuSans-116"/>
      <use x="1273.066406" xlink:href="#DejaVuSans-101"/>
      <use x="1334.589844" xlink:href="#DejaVuSans-114"/>
      <use x="1375.703125" xlink:href="#DejaVuSans-32"/>
      <use x="1407.490234" xlink:href="#DejaVuSans-49"/>
     </g>
    </g>
    <g id="line2d_31">
     <path d="M 256.2775 305.319194 
L 272.2775 305.319194 
" style="fill:none;stroke:#8085e9;stroke-linecap:square;"/>
    </g>
    <g id="line2d_32"/>
    <g id="text_24">
     <!-- RTS0_BC_CGTCCG - Adapter 1 -->
     <g transform="translate(278.6775 308.119194)scale(0.08 -0.08)">
      <use xlink:href="#DejaVuSans-82"/>
      <use x="62.232422" xlink:href="#DejaVuSans-84"/>
      <use x="123.316406" xlink:href="#DejaVuSans-83"/>
      <use x="186.792969" xlink:href="#DejaVuSans-48"/>
      <use x="250.416016" xlink:href="#DejaVuSans-95"/>
      <use x="300.416016" xlink:href="#DejaVuSans-66"/>
      <use x="367.269531" xlink:href="#DejaVuSans-67"/>
      <use x="437.09375" xlink:href="#DejaVuSans-95"/>
      <use x="487.09375" xlink:href="#DejaVuSans-67"/>
      <use x="556.917969" xlink:href="#DejaVuSans-71"/>
      <use x="630.783203" xlink:href="#DejaVuSans-84"/>
      <use x="685.992188" xlink:href="#DejaVuSans-67"/>
      <use x="755.816406" xlink:href="#DejaVuSans-67"/>
      <use x="825.640625" xlink:href="#DejaVuSans-71"/>
      <use x="903.130859" xlink:href="#DejaVuSans-32"/>
      <use x="934.917969" xlink:href="#DejaVuSans-45"/>
      <use x="971.001953" xlink:href="#DejaVuSans-32"/>
      <use x="1002.789062" xlink:href="#DejaVuSans-65"/>
      <use x="1069.447266" xlink:href="#DejaVuSans-100"/>
      <use x="1132.923828" xlink:href="#DejaVuSans-97"/>
      <use x="1194.203125" xlink:href="#DejaVuSans-112"/>
      <use x="1257.679688" xlink:href="#DejaVuSans-116"/>
      <use x="1296.888672" xlink:href="#DejaVuSans-101"/>
      <use x="1358.412109" xlink:href="#DejaVuSans-114"/>
      <use x="1399.525391" xlink:href="#DejaVuSans-32"/>
      <use x="1431.3125" xlink:href="#DejaVuSans-49"/>
     </g>
    </g>
    <g id="line2d_33">
     <path d="M 256.2775 317.284194 
L 272.2775 317.284194 
" style="fill:none;stroke:#f15c80;stroke-linecap:square;"/>
    </g>
    <g id="line2d_34"/>
    <g id="text_25">
     <!-- RTS0_BC_CTTACA - Adapter 1 -->
     <g transform="translate(278.6775 320.084194)scale(0.08 -0.08)">
      <use xlink:href="#DejaVuSans-82"/>
      <use x="62.232422" xlink:href="#DejaVuSans-84"/>
      <use x="123.316406" xlink:href="#DejaVuSans-83"/>
      <use x="186.792969" xlink:href="#DejaVuSans-48"/>
      <use x="250.416016" xlink:href="#DejaVuSans-95"/>
      <use x="300.416016" xlink:href="#DejaVuSans-66"/>
      <use x="367.269531" xlink:href="#DejaVuSans-67"/>
      <use x="437.09375" xlink:href="#DejaVuSans-95"/>
      <use x="487.09375" xlink:href="#DejaVuSans-67"/>
      <use x="556.917969" xlink:href="#DejaVuSans-84"/>
      <use x="616.251953" xlink:href="#DejaVuSans-84"/>
      <use x="669.585938" xlink:href="#DejaVuSans-65"/>
      <use x="736.244141" xlink:href="#DejaVuSans-67"/>
      <use x="806.068359" xlink:href="#DejaVuSans-65"/>
      <use x="874.476562" xlink:href="#DejaVuSans-32"/>
      <use x="906.263672" xlink:href="#DejaVuSans-45"/>
      <use x="942.347656" xlink:href="#DejaVuSans-32"/>
      <use x="974.134766" xlink:href="#DejaVuSans-65"/>
      <use x="1040.792969" xlink:href="#DejaVuSans-100"/>
      <use x="1104.269531" xlink:href="#DejaVuSans-97"/>
      <use x="1165.548828" xlink:href="#DejaVuSans-112"/>
      <use x="1229.025391" xlink:href="#DejaVuSans-116"/>
      <use x="1268.234375" xlink:href="#DejaVuSans-101"/>
      <use x="1329.757812" xlink:href="#DejaVuSans-114"/>
      <use x="1370.871094" xlink:href="#DejaVuSans-32"/>
      <use x="1402.658203" xlink:href="#DejaVuSans-49"/>
     </g>
    </g>
    <g id="line2d_35">
     <path d="M 451.580625 293.354194 
L 467.580625 293.354194 
" style="fill:none;stroke:#e4d354;stroke-linecap:square;"/>
    </g>
    <g id="line2d_36"/>
    <g id="text_26">
     <!-- RTS0_BC_GACGCG - Adapter 1 -->
     <g transform="translate(473.980625 296.154194)scale(0.08 -0.08)">
      <use xlink:href="#DejaVuSans-82"/>
      <use x="62.232422" xlink:href="#DejaVuSans-84"/>
      <use x="123.316406" xlink:href="#DejaVuSans-83"/>
      <use x="186.792969" xlink:href="#DejaVuSans-48"/>
      <use x="250.416016" xlink:href="#DejaVuSans-95"/>
      <use x="300.416016" xlink:href="#DejaVuSans-66"/>
      <use x="367.269531" xlink:href="#DejaVuSans-67"/>
      <use x="437.09375" xlink:href="#DejaVuSans-95"/>
      <use x="487.09375" xlink:href="#DejaVuSans-71"/>
      <use x="564.583984" xlink:href="#DejaVuSans-65"/>
      <use x="631.242188" xlink:href="#DejaVuSans-67"/>
      <use x="701.066406" xlink:href="#DejaVuSans-71"/>
      <use x="778.556641" xlink:href="#DejaVuSans-67"/>
      <use x="848.380859" xlink:href="#DejaVuSans-71"/>
      <use x="925.871094" xlink:href="#DejaVuSans-32"/>
      <use x="957.658203" xlink:href="#DejaVuSans-45"/>
      <use x="993.742188" xlink:href="#DejaVuSans-32"/>
      <use x="1025.529297" xlink:href="#DejaVuSans-65"/>
      <use x="1092.1875" xlink:href="#DejaVuSans-100"/>
      <use x="1155.664062" xlink:href="#DejaVuSans-97"/>
      <use x="1216.943359" xlink:href="#DejaVuSans-112"/>
      <use x="1280.419922" xlink:href="#DejaVuSans-116"/>
      <use x="1319.628906" xlink:href="#DejaVuSans-101"/>
      <use x="1381.152344" xlink:href="#DejaVuSans-114"/>
      <use x="1422.265625" xlink:href="#DejaVuSans-32"/>
      <use x="1454.052734" xlink:href="#DejaVuSans-49"/>
     </g>
    </g>
    <g id="line2d_37">
     <path d="M 451.580625 305.319194 
L 467.580625 305.319194 
" style="fill:none;stroke:#2b908f;stroke-linecap:square;"/>
    </g>
    <g id="line2d_38"/>
    <g id="text_27">
     <!-- RTS0_BC_GGAGGC - Adapter 1 -->
     <g transform="translate(473.980625 308.119194)scale(0.08 -0.08)">
      <use xlink:href="#DejaVuSans-82"/>
      <use x="62.232422" xlink:href="#DejaVuSans-84"/>
      <use x="123.316406" xlink:href="#DejaVuSans-83"/>
      <use x="186.792969" xlink:href="#DejaVuSans-48"/>
      <use x="250.416016" xlink:href="#DejaVuSans-95"/>
      <use x="300.416016" xlink:href="#DejaVuSans-66"/>
      <use x="367.269531" xlink:href="#DejaVuSans-67"/>
      <use x="437.09375" xlink:href="#DejaVuSans-95"/>
      <use x="487.09375" xlink:href="#DejaVuSans-71"/>
      <use x="564.583984" xlink:href="#DejaVuSans-71"/>
      <use x="642.074219" xlink:href="#DejaVuSans-65"/>
      <use x="708.732422" xlink:href="#DejaVuSans-71"/>
      <use x="786.222656" xlink:href="#DejaVuSans-71"/>
      <use x="863.712891" xlink:href="#DejaVuSans-67"/>
      <use x="933.537109" xlink:href="#DejaVuSans-32"/>
      <use x="965.324219" xlink:href="#DejaVuSans-45"/>
      <use x="1001.408203" xlink:href="#DejaVuSans-32"/>
      <use x="1033.195312" xlink:href="#DejaVuSans-65"/>
      <use x="1099.853516" xlink:href="#DejaVuSans-100"/>
      <use x="1163.330078" xlink:href="#DejaVuSans-97"/>
      <use x="1224.609375" xlink:href="#DejaVuSans-112"/>
      <use x="1288.085938" xlink:href="#DejaVuSans-116"/>
      <use x="1327.294922" xlink:href="#DejaVuSans-101"/>
      <use x="1388.818359" xlink:href="#DejaVuSans-114"/>
      <use x="1429.931641" xlink:href="#DejaVuSans-32"/>
      <use x="1461.71875" xlink:href="#DejaVuSans-49"/>
     </g>
    </g>
    <g id="line2d_39">
     <path d="M 649.315 293.354194 
L 665.315 293.354194 
" style="fill:none;stroke:#f45b5b;stroke-linecap:square;"/>
    </g>
    <g id="line2d_40"/>
    <g id="text_28">
     <!-- RTS0_BC_GTGAGG - Adapter 1 -->
     <g transform="translate(671.715 296.154194)scale(0.08 -0.08)">
      <use xlink:href="#DejaVuSans-82"/>
      <use x="62.232422" xlink:href="#DejaVuSans-84"/>
      <use x="123.316406" xlink:href="#DejaVuSans-83"/>
      <use x="186.792969" xlink:href="#DejaVuSans-48"/>
      <use x="250.416016" xlink:href="#DejaVuSans-95"/>
      <use x="300.416016" xlink:href="#DejaVuSans-66"/>
      <use x="367.269531" xlink:href="#DejaVuSans-67"/>
      <use x="437.09375" xlink:href="#DejaVuSans-95"/>
      <use x="487.09375" xlink:href="#DejaVuSans-71"/>
      <use x="560.958984" xlink:href="#DejaVuSans-84"/>
      <use x="622.042969" xlink:href="#DejaVuSans-71"/>
      <use x="699.533203" xlink:href="#DejaVuSans-65"/>
      <use x="766.191406" xlink:href="#DejaVuSans-71"/>
      <use x="843.681641" xlink:href="#DejaVuSans-71"/>
      <use x="921.171875" xlink:href="#DejaVuSans-32"/>
      <use x="952.958984" xlink:href="#DejaVuSans-45"/>
      <use x="989.042969" xlink:href="#DejaVuSans-32"/>
      <use x="1020.830078" xlink:href="#DejaVuSans-65"/>
      <use x="1087.488281" xlink:href="#DejaVuSans-100"/>
      <use x="1150.964844" xlink:href="#DejaVuSans-97"/>
      <use x="1212.244141" xlink:href="#DejaVuSans-112"/>
      <use x="1275.720703" xlink:href="#DejaVuSans-116"/>
      <use x="1314.929688" xlink:href="#DejaVuSans-101"/>
      <use x="1376.453125" xlink:href="#DejaVuSans-114"/>
      <use x="1417.566406" xlink:href="#DejaVuSans-32"/>
      <use x="1449.353516" xlink:href="#DejaVuSans-49"/>
     </g>
    </g>
    <g id="line2d_41">
     <path d="M 649.315 305.319194 
L 665.315 305.319194 
" style="fill:none;stroke:#91e8e1;stroke-linecap:square;"/>
    </g>
    <g id="line2d_42"/>
    <g id="text_29">
     <!-- RTS0_BC_TAGGGG - Adapter 1 -->
     <g transform="translate(671.715 308.119194)scale(0.08 -0.08)">
      <use xlink:href="#DejaVuSans-82"/>
      <use x="62.232422" xlink:href="#DejaVuSans-84"/>
      <use x="123.316406" xlink:href="#DejaVuSans-83"/>
      <use x="186.792969" xlink:href="#DejaVuSans-48"/>
      <use x="250.416016" xlink:href="#DejaVuSans-95"/>
      <use x="300.416016" xlink:href="#DejaVuSans-66"/>
      <use x="367.269531" xlink:href="#DejaVuSans-67"/>
      <use x="437.09375" xlink:href="#DejaVuSans-95"/>
      <use x="487.09375" xlink:href="#DejaVuSans-84"/>
      <use x="540.427734" xlink:href="#DejaVuSans-65"/>
      <use x="607.085938" xlink:href="#DejaVuSans-71"/>
      <use x="684.576172" xlink:href="#DejaVuSans-71"/>
      <use x="762.066406" xlink:href="#DejaVuSans-71"/>
      <use x="839.556641" xlink:href="#DejaVuSans-71"/>
      <use x="917.046875" xlink:href="#DejaVuSans-32"/>
      <use x="948.833984" xlink:href="#DejaVuSans-45"/>
      <use x="984.917969" xlink:href="#DejaVuSans-32"/>
      <use x="1016.705078" xlink:href="#DejaVuSans-65"/>
      <use x="1083.363281" xlink:href="#DejaVuSans-100"/>
      <use x="1146.839844" xlink:href="#DejaVuSans-97"/>
      <use x="1208.119141" xlink:href="#DejaVuSans-112"/>
      <use x="1271.595703" xlink:href="#DejaVuSans-116"/>
      <use x="1310.804688" xlink:href="#DejaVuSans-101"/>
      <use x="1372.328125" xlink:href="#DejaVuSans-114"/>
      <use x="1413.441406" xlink:href="#DejaVuSans-32"/>
      <use x="1445.228516" xlink:href="#DejaVuSans-49"/>
     </g>
    </g>
    <g id="line2d_43">
     <path d="M 846.059375 293.354194 
L 862.059375 293.354194 
" style="fill:none;stroke:#7cb5ec;stroke-linecap:square;"/>
    </g>
    <g id="line2d_44"/>
    <g id="text_30">
     <!-- RTS0_BC_TCCTAG - Adapter 1 -->
     <g transform="translate(868.459375 296.154194)scale(0.08 -0.08)">
      <use xlink:href="#DejaVuSans-82"/>
      <use x="62.232422" xlink:href="#DejaVuSans-84"/>
      <use x="123.316406" xlink:href="#DejaVuSans-83"/>
      <use x="186.792969" xlink:href="#DejaVuSans-48"/>
      <use x="250.416016" xlink:href="#DejaVuSans-95"/>
      <use x="300.416016" xlink:href="#DejaVuSans-66"/>
      <use x="367.269531" xlink:href="#DejaVuSans-67"/>
      <use x="437.09375" xlink:href="#DejaVuSans-95"/>
      <use x="487.09375" xlink:href="#DejaVuSans-84"/>
      <use x="542.302734" xlink:href="#DejaVuSans-67"/>
      <use x="612.126953" xlink:href="#DejaVuSans-67"/>
      <use x="681.951172" xlink:href="#DejaVuSans-84"/>
      <use x="735.285156" xlink:href="#DejaVuSans-65"/>
      <use x="801.943359" xlink:href="#DejaVuSans-71"/>
      <use x="879.433594" xlink:href="#DejaVuSans-32"/>
      <use x="911.220703" xlink:href="#DejaVuSans-45"/>
      <use x="947.304688" xlink:href="#DejaVuSans-32"/>
      <use x="979.091797" xlink:href="#DejaVuSans-65"/>
      <use x="1045.75" xlink:href="#DejaVuSans-100"/>
      <use x="1109.226562" xlink:href="#DejaVuSans-97"/>
      <use x="1170.505859" xlink:href="#DejaVuSans-112"/>
      <use x="1233.982422" xlink:href="#DejaVuSans-116"/>
      <use x="1273.191406" xlink:href="#DejaVuSans-101"/>
      <use x="1334.714844" xlink:href="#DejaVuSans-114"/>
      <use x="1375.828125" xlink:href="#DejaVuSans-32"/>
      <use x="1407.615234" xlink:href="#DejaVuSans-49"/>
     </g>
    </g>
    <g id="line2d_45">
     <path d="M 846.059375 305.319194 
L 862.059375 305.319194 
" style="fill:none;stroke:#434348;stroke-linecap:square;"/>
    </g>
    <g id="line2d_46"/>
    <g id="text_31">
     <!-- RTS0_BC_TGTTTG - Adapter 1 -->
     <g transform="translate(868.459375 308.119194)scale(0.08 -0.08)">
      <use xlink:href="#DejaVuSans-82"/>
      <use x="62.232422" xlink:href="#DejaVuSans-84"/>
      <use x="123.316406" xlink:href="#DejaVuSans-83"/>
      <use x="186.792969" xlink:href="#DejaVuSans-48"/>
      <use x="250.416016" xlink:href="#DejaVuSans-95"/>
      <use x="300.416016" xlink:href="#DejaVuSans-66"/>
      <use x="367.269531" xlink:href="#DejaVuSans-67"/>
      <use x="437.09375" xlink:href="#DejaVuSans-95"/>
      <use x="487.09375" xlink:href="#DejaVuSans-84"/>
      <use x="548.177734" xlink:href="#DejaVuSans-71"/>
      <use x="622.042969" xlink:href="#DejaVuSans-84"/>
      <use x="681.376953" xlink:href="#DejaVuSans-84"/>
      <use x="740.710938" xlink:href="#DejaVuSans-84"/>
      <use x="801.794922" xlink:href="#DejaVuSans-71"/>
      <use x="879.285156" xlink:href="#DejaVuSans-32"/>
      <use x="911.072266" xlink:href="#DejaVuSans-45"/>
      <use x="947.15625" xlink:href="#DejaVuSans-32"/>
      <use x="978.943359" xlink:href="#DejaVuSans-65"/>
      <use x="1045.601562" xlink:href="#DejaVuSans-100"/>
      <use x="1109.078125" xlink:href="#DejaVuSans-97"/>
      <use x="1170.357422" xlink:href="#DejaVuSans-112"/>
      <use x="1233.833984" xlink:href="#DejaVuSans-116"/>
      <use x="1273.042969" xlink:href="#DejaVuSans-101"/>
      <use x="1334.566406" xlink:href="#DejaVuSans-114"/>
      <use x="1375.679688" xlink:href="#DejaVuSans-32"/>
      <use x="1407.466797" xlink:href="#DejaVuSans-49"/>
     </g>
    </g>
   </g>
  </g>
 </g>
 <defs>
  <clipPath id="pc30531fabc">
   <rect height="243.9472" width="940.03" x="53.328125" y="31.55486"/>
  </clipPath>
 </defs>
</svg>
