<?xml version="1.0" encoding="utf-8" standalone="no"?>
<!DOCTYPE svg PUBLIC "-//W3C//DTD SVG 1.1//EN"
  "http://www.w3.org/Graphics/SVG/1.1/DTD/svg11.dtd">
<!-- Created with matplotlib (https://matplotlib.org/) -->
<svg height="332.370444pt" version="1.1" viewBox="0 0 1000.548125 332.370444" width="1000.548125pt" xmlns="http://www.w3.org/2000/svg" xmlns:xlink="http://www.w3.org/1999/xlink">
 <metadata>
  <rdf:RDF xmlns:cc="http://creativecommons.org/ns#" xmlns:dc="http://purl.org/dc/elements/1.1/" xmlns:rdf="http://www.w3.org/1999/02/22-rdf-syntax-ns#">
   <cc:Work>
    <dc:type rdf:resource="http://purl.org/dc/dcmitype/StillImage"/>
    <dc:date>2020-09-26T22:33:17.287931</dc:date>
    <dc:format>image/svg+xml</dc:format>
    <dc:creator>
     <cc:Agent>
      <dc:title>Matplotlib v3.3.1, https://matplotlib.org/</dc:title>
     </cc:Agent>
    </dc:creator>
   </cc:Work>
  </rdf:RDF>
 </metadata>
 <defs>
  <style type="text/css">*{stroke-linecap:butt;stroke-linejoin:round;}</style>
 </defs>
 <g id="figure_1">
  <g id="axes_1">
   <g id="patch_1">
    <path d="M 43.148125 275.50206 
L 993.348125 275.50206 
L 993.348125 31.55486 
L 43.148125 31.55486 
z
" style="fill:#ffffff;"/>
   </g>
   <g id="matplotlib.axis_1">
    <g id="xtick_1">
     <g id="text_1">
      <!-- 1.0 -->
      <g transform="translate(79.977784 288.58081)scale(0.08 -0.08)">
       <defs>
        <path d="M 12.40625 8.296875 
L 28.515625 8.296875 
L 28.515625 63.921875 
L 10.984375 60.40625 
L 10.984375 69.390625 
L 28.421875 72.90625 
L 38.28125 72.90625 
L 38.28125 8.296875 
L 54.390625 8.296875 
L 54.390625 0 
L 12.40625 0 
z
" id="DejaVuSans-49"/>
        <path d="M 10.6875 12.40625 
L 21 12.40625 
L 21 0 
L 10.6875 0 
z
" id="DejaVuSans-46"/>
        <path d="M 31.78125 66.40625 
Q 24.171875 66.40625 20.328125 58.90625 
Q 16.5 51.421875 16.5 36.375 
Q 16.5 21.390625 20.328125 13.890625 
Q 24.171875 6.390625 31.78125 6.390625 
Q 39.453125 6.390625 43.28125 13.890625 
Q 47.125 21.390625 47.125 36.375 
Q 47.125 51.421875 43.28125 58.90625 
Q 39.453125 66.40625 31.78125 66.40625 
z
M 31.78125 74.21875 
Q 44.046875 74.21875 50.515625 64.515625 
Q 56.984375 54.828125 56.984375 36.375 
Q 56.984375 17.96875 50.515625 8.265625 
Q 44.046875 -1.421875 31.78125 -1.421875 
Q 19.53125 -1.421875 13.0625 8.265625 
Q 6.59375 17.96875 6.59375 36.375 
Q 6.59375 54.828125 13.0625 64.515625 
Q 19.53125 74.21875 31.78125 74.21875 
z
" id="DejaVuSans-48"/>
       </defs>
       <use xlink:href="#DejaVuSans-49"/>
       <use x="63.623047" xlink:href="#DejaVuSans-46"/>
       <use x="95.410156" xlink:href="#DejaVuSans-48"/>
      </g>
     </g>
    </g>
    <g id="xtick_2">
     <g id="text_2">
      <!-- 2.0 -->
      <g transform="translate(137.565663 288.58081)scale(0.08 -0.08)">
       <defs>
        <path d="M 19.1875 8.296875 
L 53.609375 8.296875 
L 53.609375 0 
L 7.328125 0 
L 7.328125 8.296875 
Q 12.9375 14.109375 22.625 23.890625 
Q 32.328125 33.6875 34.8125 36.53125 
Q 39.546875 41.84375 41.421875 45.53125 
Q 43.3125 49.21875 43.3125 52.78125 
Q 43.3125 58.59375 39.234375 62.25 
Q 35.15625 65.921875 28.609375 65.921875 
Q 23.96875 65.921875 18.8125 64.3125 
Q 13.671875 62.703125 7.8125 59.421875 
L 7.8125 69.390625 
Q 13.765625 71.78125 18.9375 73 
Q 24.125 74.21875 28.421875 74.21875 
Q 39.75 74.21875 46.484375 68.546875 
Q 53.21875 62.890625 53.21875 53.421875 
Q 53.21875 48.921875 51.53125 44.890625 
Q 49.859375 40.875 45.40625 35.40625 
Q 44.1875 33.984375 37.640625 27.21875 
Q 31.109375 20.453125 19.1875 8.296875 
z
" id="DejaVuSans-50"/>
       </defs>
       <use xlink:href="#DejaVuSans-50"/>
       <use x="63.623047" xlink:href="#DejaVuSans-46"/>
       <use x="95.410156" xlink:href="#DejaVuSans-48"/>
      </g>
     </g>
    </g>
    <g id="xtick_3">
     <g id="text_3">
      <!-- 3.0 -->
      <g transform="translate(195.153542 288.58081)scale(0.08 -0.08)">
       <defs>
        <path d="M 40.578125 39.3125 
Q 47.65625 37.796875 51.625 33 
Q 55.609375 28.21875 55.609375 21.1875 
Q 55.609375 10.40625 48.1875 4.484375 
Q 40.765625 -1.421875 27.09375 -1.421875 
Q 22.515625 -1.421875 17.65625 -0.515625 
Q 12.796875 0.390625 7.625 2.203125 
L 7.625 11.71875 
Q 11.71875 9.328125 16.59375 8.109375 
Q 21.484375 6.890625 26.8125 6.890625 
Q 36.078125 6.890625 40.9375 10.546875 
Q 45.796875 14.203125 45.796875 21.1875 
Q 45.796875 27.640625 41.28125 31.265625 
Q 36.765625 34.90625 28.71875 34.90625 
L 20.21875 34.90625 
L 20.21875 43.015625 
L 29.109375 43.015625 
Q 36.375 43.015625 40.234375 45.921875 
Q 44.09375 48.828125 44.09375 54.296875 
Q 44.09375 59.90625 40.109375 62.90625 
Q 36.140625 65.921875 28.71875 65.921875 
Q 24.65625 65.921875 20.015625 65.03125 
Q 15.375 64.15625 9.8125 62.3125 
L 9.8125 71.09375 
Q 15.4375 72.65625 20.34375 73.4375 
Q 25.25 74.21875 29.59375 74.21875 
Q 40.828125 74.21875 47.359375 69.109375 
Q 53.90625 64.015625 53.90625 55.328125 
Q 53.90625 49.265625 50.4375 45.09375 
Q 46.96875 40.921875 40.578125 39.3125 
z
" id="DejaVuSans-51"/>
       </defs>
       <use xlink:href="#DejaVuSans-51"/>
       <use x="63.623047" xlink:href="#DejaVuSans-46"/>
       <use x="95.410156" xlink:href="#DejaVuSans-48"/>
      </g>
     </g>
    </g>
    <g id="xtick_4">
     <g id="text_4">
      <!-- 4.0 -->
      <g transform="translate(252.74142 288.58081)scale(0.08 -0.08)">
       <defs>
        <path d="M 37.796875 64.3125 
L 12.890625 25.390625 
L 37.796875 25.390625 
z
M 35.203125 72.90625 
L 47.609375 72.90625 
L 47.609375 25.390625 
L 58.015625 25.390625 
L 58.015625 17.1875 
L 47.609375 17.1875 
L 47.609375 0 
L 37.796875 0 
L 37.796875 17.1875 
L 4.890625 17.1875 
L 4.890625 26.703125 
z
" id="DejaVuSans-52"/>
       </defs>
       <use xlink:href="#DejaVuSans-52"/>
       <use x="63.623047" xlink:href="#DejaVuSans-46"/>
       <use x="95.410156" xlink:href="#DejaVuSans-48"/>
      </g>
     </g>
    </g>
    <g id="xtick_5">
     <g id="text_5">
      <!-- 5.0 -->
      <g transform="translate(310.329299 288.58081)scale(0.08 -0.08)">
       <defs>
        <path d="M 10.796875 72.90625 
L 49.515625 72.90625 
L 49.515625 64.59375 
L 19.828125 64.59375 
L 19.828125 46.734375 
Q 21.96875 47.46875 24.109375 47.828125 
Q 26.265625 48.1875 28.421875 48.1875 
Q 40.625 48.1875 47.75 41.5 
Q 54.890625 34.8125 54.890625 23.390625 
Q 54.890625 11.625 47.5625 5.09375 
Q 40.234375 -1.421875 26.90625 -1.421875 
Q 22.3125 -1.421875 17.546875 -0.640625 
Q 12.796875 0.140625 7.71875 1.703125 
L 7.71875 11.625 
Q 12.109375 9.234375 16.796875 8.0625 
Q 21.484375 6.890625 26.703125 6.890625 
Q 35.15625 6.890625 40.078125 11.328125 
Q 45.015625 15.765625 45.015625 23.390625 
Q 45.015625 31 40.078125 35.4375 
Q 35.15625 39.890625 26.703125 39.890625 
Q 22.75 39.890625 18.8125 39.015625 
Q 14.890625 38.140625 10.796875 36.28125 
z
" id="DejaVuSans-53"/>
       </defs>
       <use xlink:href="#DejaVuSans-53"/>
       <use x="63.623047" xlink:href="#DejaVuSans-46"/>
       <use x="95.410156" xlink:href="#DejaVuSans-48"/>
      </g>
     </g>
    </g>
    <g id="xtick_6">
     <g id="text_6">
      <!-- 6.0 -->
      <g transform="translate(367.917178 288.58081)scale(0.08 -0.08)">
       <defs>
        <path d="M 33.015625 40.375 
Q 26.375 40.375 22.484375 35.828125 
Q 18.609375 31.296875 18.609375 23.390625 
Q 18.609375 15.53125 22.484375 10.953125 
Q 26.375 6.390625 33.015625 6.390625 
Q 39.65625 6.390625 43.53125 10.953125 
Q 47.40625 15.53125 47.40625 23.390625 
Q 47.40625 31.296875 43.53125 35.828125 
Q 39.65625 40.375 33.015625 40.375 
z
M 52.59375 71.296875 
L 52.59375 62.3125 
Q 48.875 64.0625 45.09375 64.984375 
Q 41.3125 65.921875 37.59375 65.921875 
Q 27.828125 65.921875 22.671875 59.328125 
Q 17.53125 52.734375 16.796875 39.40625 
Q 19.671875 43.65625 24.015625 45.921875 
Q 28.375 48.1875 33.59375 48.1875 
Q 44.578125 48.1875 50.953125 41.515625 
Q 57.328125 34.859375 57.328125 23.390625 
Q 57.328125 12.15625 50.6875 5.359375 
Q 44.046875 -1.421875 33.015625 -1.421875 
Q 20.359375 -1.421875 13.671875 8.265625 
Q 6.984375 17.96875 6.984375 36.375 
Q 6.984375 53.65625 15.1875 63.9375 
Q 23.390625 74.21875 37.203125 74.21875 
Q 40.921875 74.21875 44.703125 73.484375 
Q 48.484375 72.75 52.59375 71.296875 
z
" id="DejaVuSans-54"/>
       </defs>
       <use xlink:href="#DejaVuSans-54"/>
       <use x="63.623047" xlink:href="#DejaVuSans-46"/>
       <use x="95.410156" xlink:href="#DejaVuSans-48"/>
      </g>
     </g>
    </g>
    <g id="xtick_7">
     <g id="text_7">
      <!-- 7.0 -->
      <g transform="translate(425.505057 288.58081)scale(0.08 -0.08)">
       <defs>
        <path d="M 8.203125 72.90625 
L 55.078125 72.90625 
L 55.078125 68.703125 
L 28.609375 0 
L 18.3125 0 
L 43.21875 64.59375 
L 8.203125 64.59375 
z
" id="DejaVuSans-55"/>
       </defs>
       <use xlink:href="#DejaVuSans-55"/>
       <use x="63.623047" xlink:href="#DejaVuSans-46"/>
       <use x="95.410156" xlink:href="#DejaVuSans-48"/>
      </g>
     </g>
    </g>
    <g id="xtick_8">
     <g id="text_8">
      <!-- 8.0 -->
      <g transform="translate(483.092936 288.58081)scale(0.08 -0.08)">
       <defs>
        <path d="M 31.78125 34.625 
Q 24.75 34.625 20.71875 30.859375 
Q 16.703125 27.09375 16.703125 20.515625 
Q 16.703125 13.921875 20.71875 10.15625 
Q 24.75 6.390625 31.78125 6.390625 
Q 38.8125 6.390625 42.859375 10.171875 
Q 46.921875 13.96875 46.921875 20.515625 
Q 46.921875 27.09375 42.890625 30.859375 
Q 38.875 34.625 31.78125 34.625 
z
M 21.921875 38.8125 
Q 15.578125 40.375 12.03125 44.71875 
Q 8.5 49.078125 8.5 55.328125 
Q 8.5 64.0625 14.71875 69.140625 
Q 20.953125 74.21875 31.78125 74.21875 
Q 42.671875 74.21875 48.875 69.140625 
Q 55.078125 64.0625 55.078125 55.328125 
Q 55.078125 49.078125 51.53125 44.71875 
Q 48 40.375 41.703125 38.8125 
Q 48.828125 37.15625 52.796875 32.3125 
Q 56.78125 27.484375 56.78125 20.515625 
Q 56.78125 9.90625 50.3125 4.234375 
Q 43.84375 -1.421875 31.78125 -1.421875 
Q 19.734375 -1.421875 13.25 4.234375 
Q 6.78125 9.90625 6.78125 20.515625 
Q 6.78125 27.484375 10.78125 32.3125 
Q 14.796875 37.15625 21.921875 38.8125 
z
M 18.3125 54.390625 
Q 18.3125 48.734375 21.84375 45.5625 
Q 25.390625 42.390625 31.78125 42.390625 
Q 38.140625 42.390625 41.71875 45.5625 
Q 45.3125 48.734375 45.3125 54.390625 
Q 45.3125 60.0625 41.71875 63.234375 
Q 38.140625 66.40625 31.78125 66.40625 
Q 25.390625 66.40625 21.84375 63.234375 
Q 18.3125 60.0625 18.3125 54.390625 
z
" id="DejaVuSans-56"/>
       </defs>
       <use xlink:href="#DejaVuSans-56"/>
       <use x="63.623047" xlink:href="#DejaVuSans-46"/>
       <use x="95.410156" xlink:href="#DejaVuSans-48"/>
      </g>
     </g>
    </g>
    <g id="xtick_9">
     <g id="text_9">
      <!-- 9.0 -->
      <g transform="translate(540.680814 288.58081)scale(0.08 -0.08)">
       <defs>
        <path d="M 10.984375 1.515625 
L 10.984375 10.5 
Q 14.703125 8.734375 18.5 7.8125 
Q 22.3125 6.890625 25.984375 6.890625 
Q 35.75 6.890625 40.890625 13.453125 
Q 46.046875 20.015625 46.78125 33.40625 
Q 43.953125 29.203125 39.59375 26.953125 
Q 35.25 24.703125 29.984375 24.703125 
Q 19.046875 24.703125 12.671875 31.3125 
Q 6.296875 37.9375 6.296875 49.421875 
Q 6.296875 60.640625 12.9375 67.421875 
Q 19.578125 74.21875 30.609375 74.21875 
Q 43.265625 74.21875 49.921875 64.515625 
Q 56.59375 54.828125 56.59375 36.375 
Q 56.59375 19.140625 48.40625 8.859375 
Q 40.234375 -1.421875 26.421875 -1.421875 
Q 22.703125 -1.421875 18.890625 -0.6875 
Q 15.09375 0.046875 10.984375 1.515625 
z
M 30.609375 32.421875 
Q 37.25 32.421875 41.125 36.953125 
Q 45.015625 41.5 45.015625 49.421875 
Q 45.015625 57.28125 41.125 61.84375 
Q 37.25 66.40625 30.609375 66.40625 
Q 23.96875 66.40625 20.09375 61.84375 
Q 16.21875 57.28125 16.21875 49.421875 
Q 16.21875 41.5 20.09375 36.953125 
Q 23.96875 32.421875 30.609375 32.421875 
z
" id="DejaVuSans-57"/>
       </defs>
       <use xlink:href="#DejaVuSans-57"/>
       <use x="63.623047" xlink:href="#DejaVuSans-46"/>
       <use x="95.410156" xlink:href="#DejaVuSans-48"/>
      </g>
     </g>
    </g>
    <g id="xtick_10">
     <g id="text_10">
      <!-- &gt;10 -->
      <g transform="translate(596.188068 288.58081)scale(0.08 -0.08)">
       <defs>
        <path d="M 10.59375 49.21875 
L 10.59375 58.109375 
L 73.1875 35.40625 
L 73.1875 27.296875 
L 10.59375 4.59375 
L 10.59375 13.484375 
L 60.890625 31.296875 
z
" id="DejaVuSans-62"/>
       </defs>
       <use xlink:href="#DejaVuSans-62"/>
       <use x="83.789062" xlink:href="#DejaVuSans-49"/>
       <use x="147.412109" xlink:href="#DejaVuSans-48"/>
      </g>
     </g>
    </g>
    <g id="xtick_11">
     <g id="text_11">
      <!-- &gt;50 -->
      <g transform="translate(653.775947 288.58081)scale(0.08 -0.08)">
       <use xlink:href="#DejaVuSans-62"/>
       <use x="83.789062" xlink:href="#DejaVuSans-53"/>
       <use x="147.412109" xlink:href="#DejaVuSans-48"/>
      </g>
     </g>
    </g>
    <g id="xtick_12">
     <g id="text_12">
      <!-- &gt;100 -->
      <g transform="translate(708.818826 288.58081)scale(0.08 -0.08)">
       <use xlink:href="#DejaVuSans-62"/>
       <use x="83.789062" xlink:href="#DejaVuSans-49"/>
       <use x="147.412109" xlink:href="#DejaVuSans-48"/>
       <use x="211.035156" xlink:href="#DejaVuSans-48"/>
      </g>
     </g>
    </g>
    <g id="xtick_13">
     <g id="text_13">
      <!-- &gt;500 -->
      <g transform="translate(766.406705 288.58081)scale(0.08 -0.08)">
       <use xlink:href="#DejaVuSans-62"/>
       <use x="83.789062" xlink:href="#DejaVuSans-53"/>
       <use x="147.412109" xlink:href="#DejaVuSans-48"/>
       <use x="211.035156" xlink:href="#DejaVuSans-48"/>
      </g>
     </g>
    </g>
    <g id="xtick_14">
     <g id="text_14">
      <!-- &gt;1k -->
      <g transform="translate(826.768333 288.58081)scale(0.08 -0.08)">
       <defs>
        <path d="M 9.078125 75.984375 
L 18.109375 75.984375 
L 18.109375 31.109375 
L 44.921875 54.6875 
L 56.390625 54.6875 
L 27.390625 29.109375 
L 57.625 0 
L 45.90625 0 
L 18.109375 26.703125 
L 18.109375 0 
L 9.078125 0 
z
" id="DejaVuSans-107"/>
       </defs>
       <use xlink:href="#DejaVuSans-62"/>
       <use x="83.789062" xlink:href="#DejaVuSans-49"/>
       <use x="147.412109" xlink:href="#DejaVuSans-107"/>
      </g>
     </g>
    </g>
    <g id="xtick_15">
     <g id="text_15">
      <!-- &gt;5k -->
      <g transform="translate(884.356212 288.58081)scale(0.08 -0.08)">
       <use xlink:href="#DejaVuSans-62"/>
       <use x="83.789062" xlink:href="#DejaVuSans-53"/>
       <use x="147.412109" xlink:href="#DejaVuSans-107"/>
      </g>
     </g>
    </g>
    <g id="xtick_16">
     <g id="text_16">
      <!-- &gt;10k+ -->
      <g transform="translate(936.047216 288.58081)scale(0.08 -0.08)">
       <defs>
        <path d="M 46 62.703125 
L 46 35.5 
L 73.1875 35.5 
L 73.1875 27.203125 
L 46 27.203125 
L 46 0 
L 37.796875 0 
L 37.796875 27.203125 
L 10.59375 27.203125 
L 10.59375 35.5 
L 37.796875 35.5 
L 37.796875 62.703125 
z
" id="DejaVuSans-43"/>
       </defs>
       <use xlink:href="#DejaVuSans-62"/>
       <use x="83.789062" xlink:href="#DejaVuSans-49"/>
       <use x="147.412109" xlink:href="#DejaVuSans-48"/>
       <use x="211.035156" xlink:href="#DejaVuSans-107"/>
       <use x="268.945312" xlink:href="#DejaVuSans-43"/>
      </g>
     </g>
    </g>
    <g id="text_17">
     <!-- Sequence Duplication Level -->
     <g transform="translate(448.843438 301.842998)scale(0.1 -0.1)">
      <defs>
       <path d="M 53.515625 70.515625 
L 53.515625 60.890625 
Q 47.90625 63.578125 42.921875 64.890625 
Q 37.9375 66.21875 33.296875 66.21875 
Q 25.25 66.21875 20.875 63.09375 
Q 16.5 59.96875 16.5 54.203125 
Q 16.5 49.359375 19.40625 46.890625 
Q 22.3125 44.4375 30.421875 42.921875 
L 36.375 41.703125 
Q 47.40625 39.59375 52.65625 34.296875 
Q 57.90625 29 57.90625 20.125 
Q 57.90625 9.515625 50.796875 4.046875 
Q 43.703125 -1.421875 29.984375 -1.421875 
Q 24.8125 -1.421875 18.96875 -0.25 
Q 13.140625 0.921875 6.890625 3.21875 
L 6.890625 13.375 
Q 12.890625 10.015625 18.65625 8.296875 
Q 24.421875 6.59375 29.984375 6.59375 
Q 38.421875 6.59375 43.015625 9.90625 
Q 47.609375 13.234375 47.609375 19.390625 
Q 47.609375 24.75 44.3125 27.78125 
Q 41.015625 30.8125 33.5 32.328125 
L 27.484375 33.5 
Q 16.453125 35.6875 11.515625 40.375 
Q 6.59375 45.0625 6.59375 53.421875 
Q 6.59375 63.09375 13.40625 68.65625 
Q 20.21875 74.21875 32.171875 74.21875 
Q 37.3125 74.21875 42.625 73.28125 
Q 47.953125 72.359375 53.515625 70.515625 
z
" id="DejaVuSans-83"/>
       <path d="M 56.203125 29.59375 
L 56.203125 25.203125 
L 14.890625 25.203125 
Q 15.484375 15.921875 20.484375 11.0625 
Q 25.484375 6.203125 34.421875 6.203125 
Q 39.59375 6.203125 44.453125 7.46875 
Q 49.3125 8.734375 54.109375 11.28125 
L 54.109375 2.78125 
Q 49.265625 0.734375 44.1875 -0.34375 
Q 39.109375 -1.421875 33.890625 -1.421875 
Q 20.796875 -1.421875 13.15625 6.1875 
Q 5.515625 13.8125 5.515625 26.8125 
Q 5.515625 40.234375 12.765625 48.109375 
Q 20.015625 56 32.328125 56 
Q 43.359375 56 49.78125 48.890625 
Q 56.203125 41.796875 56.203125 29.59375 
z
M 47.21875 32.234375 
Q 47.125 39.59375 43.09375 43.984375 
Q 39.0625 48.390625 32.421875 48.390625 
Q 24.90625 48.390625 20.390625 44.140625 
Q 15.875 39.890625 15.1875 32.171875 
z
" id="DejaVuSans-101"/>
       <path d="M 14.796875 27.296875 
Q 14.796875 17.390625 18.875 11.75 
Q 22.953125 6.109375 30.078125 6.109375 
Q 37.203125 6.109375 41.296875 11.75 
Q 45.40625 17.390625 45.40625 27.296875 
Q 45.40625 37.203125 41.296875 42.84375 
Q 37.203125 48.484375 30.078125 48.484375 
Q 22.953125 48.484375 18.875 42.84375 
Q 14.796875 37.203125 14.796875 27.296875 
z
M 45.40625 8.203125 
Q 42.578125 3.328125 38.25 0.953125 
Q 33.9375 -1.421875 27.875 -1.421875 
Q 17.96875 -1.421875 11.734375 6.484375 
Q 5.515625 14.40625 5.515625 27.296875 
Q 5.515625 40.1875 11.734375 48.09375 
Q 17.96875 56 27.875 56 
Q 33.9375 56 38.25 53.625 
Q 42.578125 51.265625 45.40625 46.390625 
L 45.40625 54.6875 
L 54.390625 54.6875 
L 54.390625 -20.796875 
L 45.40625 -20.796875 
z
" id="DejaVuSans-113"/>
       <path d="M 8.5 21.578125 
L 8.5 54.6875 
L 17.484375 54.6875 
L 17.484375 21.921875 
Q 17.484375 14.15625 20.5 10.265625 
Q 23.53125 6.390625 29.59375 6.390625 
Q 36.859375 6.390625 41.078125 11.03125 
Q 45.3125 15.671875 45.3125 23.6875 
L 45.3125 54.6875 
L 54.296875 54.6875 
L 54.296875 0 
L 45.3125 0 
L 45.3125 8.40625 
Q 42.046875 3.421875 37.71875 1 
Q 33.40625 -1.421875 27.6875 -1.421875 
Q 18.265625 -1.421875 13.375 4.4375 
Q 8.5 10.296875 8.5 21.578125 
z
M 31.109375 56 
z
" id="DejaVuSans-117"/>
       <path d="M 54.890625 33.015625 
L 54.890625 0 
L 45.90625 0 
L 45.90625 32.71875 
Q 45.90625 40.484375 42.875 44.328125 
Q 39.84375 48.1875 33.796875 48.1875 
Q 26.515625 48.1875 22.3125 43.546875 
Q 18.109375 38.921875 18.109375 30.90625 
L 18.109375 0 
L 9.078125 0 
L 9.078125 54.6875 
L 18.109375 54.6875 
L 18.109375 46.1875 
Q 21.34375 51.125 25.703125 53.5625 
Q 30.078125 56 35.796875 56 
Q 45.21875 56 50.046875 50.171875 
Q 54.890625 44.34375 54.890625 33.015625 
z
" id="DejaVuSans-110"/>
       <path d="M 48.78125 52.59375 
L 48.78125 44.1875 
Q 44.96875 46.296875 41.140625 47.34375 
Q 37.3125 48.390625 33.40625 48.390625 
Q 24.65625 48.390625 19.8125 42.84375 
Q 14.984375 37.3125 14.984375 27.296875 
Q 14.984375 17.28125 19.8125 11.734375 
Q 24.65625 6.203125 33.40625 6.203125 
Q 37.3125 6.203125 41.140625 7.25 
Q 44.96875 8.296875 48.78125 10.40625 
L 48.78125 2.09375 
Q 45.015625 0.34375 40.984375 -0.53125 
Q 36.96875 -1.421875 32.421875 -1.421875 
Q 20.0625 -1.421875 12.78125 6.34375 
Q 5.515625 14.109375 5.515625 27.296875 
Q 5.515625 40.671875 12.859375 48.328125 
Q 20.21875 56 33.015625 56 
Q 37.15625 56 41.109375 55.140625 
Q 45.0625 54.296875 48.78125 52.59375 
z
" id="DejaVuSans-99"/>
       <path id="DejaVuSans-32"/>
       <path d="M 19.671875 64.796875 
L 19.671875 8.109375 
L 31.59375 8.109375 
Q 46.6875 8.109375 53.6875 14.9375 
Q 60.6875 21.78125 60.6875 36.53125 
Q 60.6875 51.171875 53.6875 57.984375 
Q 46.6875 64.796875 31.59375 64.796875 
z
M 9.8125 72.90625 
L 30.078125 72.90625 
Q 51.265625 72.90625 61.171875 64.09375 
Q 71.09375 55.28125 71.09375 36.53125 
Q 71.09375 17.671875 61.125 8.828125 
Q 51.171875 0 30.078125 0 
L 9.8125 0 
z
" id="DejaVuSans-68"/>
       <path d="M 18.109375 8.203125 
L 18.109375 -20.796875 
L 9.078125 -20.796875 
L 9.078125 54.6875 
L 18.109375 54.6875 
L 18.109375 46.390625 
Q 20.953125 51.265625 25.265625 53.625 
Q 29.59375 56 35.59375 56 
Q 45.5625 56 51.78125 48.09375 
Q 58.015625 40.1875 58.015625 27.296875 
Q 58.015625 14.40625 51.78125 6.484375 
Q 45.5625 -1.421875 35.59375 -1.421875 
Q 29.59375 -1.421875 25.265625 0.953125 
Q 20.953125 3.328125 18.109375 8.203125 
z
M 48.6875 27.296875 
Q 48.6875 37.203125 44.609375 42.84375 
Q 40.53125 48.484375 33.40625 48.484375 
Q 26.265625 48.484375 22.1875 42.84375 
Q 18.109375 37.203125 18.109375 27.296875 
Q 18.109375 17.390625 22.1875 11.75 
Q 26.265625 6.109375 33.40625 6.109375 
Q 40.53125 6.109375 44.609375 11.75 
Q 48.6875 17.390625 48.6875 27.296875 
z
" id="DejaVuSans-112"/>
       <path d="M 9.421875 75.984375 
L 18.40625 75.984375 
L 18.40625 0 
L 9.421875 0 
z
" id="DejaVuSans-108"/>
       <path d="M 9.421875 54.6875 
L 18.40625 54.6875 
L 18.40625 0 
L 9.421875 0 
z
M 9.421875 75.984375 
L 18.40625 75.984375 
L 18.40625 64.59375 
L 9.421875 64.59375 
z
" id="DejaVuSans-105"/>
       <path d="M 34.28125 27.484375 
Q 23.390625 27.484375 19.1875 25 
Q 14.984375 22.515625 14.984375 16.5 
Q 14.984375 11.71875 18.140625 8.90625 
Q 21.296875 6.109375 26.703125 6.109375 
Q 34.1875 6.109375 38.703125 11.40625 
Q 43.21875 16.703125 43.21875 25.484375 
L 43.21875 27.484375 
z
M 52.203125 31.203125 
L 52.203125 0 
L 43.21875 0 
L 43.21875 8.296875 
Q 40.140625 3.328125 35.546875 0.953125 
Q 30.953125 -1.421875 24.3125 -1.421875 
Q 15.921875 -1.421875 10.953125 3.296875 
Q 6 8.015625 6 15.921875 
Q 6 25.140625 12.171875 29.828125 
Q 18.359375 34.515625 30.609375 34.515625 
L 43.21875 34.515625 
L 43.21875 35.40625 
Q 43.21875 41.609375 39.140625 45 
Q 35.0625 48.390625 27.6875 48.390625 
Q 23 48.390625 18.546875 47.265625 
Q 14.109375 46.140625 10.015625 43.890625 
L 10.015625 52.203125 
Q 14.9375 54.109375 19.578125 55.046875 
Q 24.21875 56 28.609375 56 
Q 40.484375 56 46.34375 49.84375 
Q 52.203125 43.703125 52.203125 31.203125 
z
" id="DejaVuSans-97"/>
       <path d="M 18.3125 70.21875 
L 18.3125 54.6875 
L 36.8125 54.6875 
L 36.8125 47.703125 
L 18.3125 47.703125 
L 18.3125 18.015625 
Q 18.3125 11.328125 20.140625 9.421875 
Q 21.96875 7.515625 27.59375 7.515625 
L 36.8125 7.515625 
L 36.8125 0 
L 27.59375 0 
Q 17.1875 0 13.234375 3.875 
Q 9.28125 7.765625 9.28125 18.015625 
L 9.28125 47.703125 
L 2.6875 47.703125 
L 2.6875 54.6875 
L 9.28125 54.6875 
L 9.28125 70.21875 
z
" id="DejaVuSans-116"/>
       <path d="M 30.609375 48.390625 
Q 23.390625 48.390625 19.1875 42.75 
Q 14.984375 37.109375 14.984375 27.296875 
Q 14.984375 17.484375 19.15625 11.84375 
Q 23.34375 6.203125 30.609375 6.203125 
Q 37.796875 6.203125 41.984375 11.859375 
Q 46.1875 17.53125 46.1875 27.296875 
Q 46.1875 37.015625 41.984375 42.703125 
Q 37.796875 48.390625 30.609375 48.390625 
z
M 30.609375 56 
Q 42.328125 56 49.015625 48.375 
Q 55.71875 40.765625 55.71875 27.296875 
Q 55.71875 13.875 49.015625 6.21875 
Q 42.328125 -1.421875 30.609375 -1.421875 
Q 18.84375 -1.421875 12.171875 6.21875 
Q 5.515625 13.875 5.515625 27.296875 
Q 5.515625 40.765625 12.171875 48.375 
Q 18.84375 56 30.609375 56 
z
" id="DejaVuSans-111"/>
       <path d="M 9.8125 72.90625 
L 19.671875 72.90625 
L 19.671875 8.296875 
L 55.171875 8.296875 
L 55.171875 0 
L 9.8125 0 
z
" id="DejaVuSans-76"/>
       <path d="M 2.984375 54.6875 
L 12.5 54.6875 
L 29.59375 8.796875 
L 46.6875 54.6875 
L 56.203125 54.6875 
L 35.6875 0 
L 23.484375 0 
z
" id="DejaVuSans-118"/>
      </defs>
      <use xlink:href="#DejaVuSans-83"/>
      <use x="63.476562" xlink:href="#DejaVuSans-101"/>
      <use x="125" xlink:href="#DejaVuSans-113"/>
      <use x="188.476562" xlink:href="#DejaVuSans-117"/>
      <use x="251.855469" xlink:href="#DejaVuSans-101"/>
      <use x="313.378906" xlink:href="#DejaVuSans-110"/>
      <use x="376.757812" xlink:href="#DejaVuSans-99"/>
      <use x="431.738281" xlink:href="#DejaVuSans-101"/>
      <use x="493.261719" xlink:href="#DejaVuSans-32"/>
      <use x="525.048828" xlink:href="#DejaVuSans-68"/>
      <use x="602.050781" xlink:href="#DejaVuSans-117"/>
      <use x="665.429688" xlink:href="#DejaVuSans-112"/>
      <use x="728.90625" xlink:href="#DejaVuSans-108"/>
      <use x="756.689453" xlink:href="#DejaVuSans-105"/>
      <use x="784.472656" xlink:href="#DejaVuSans-99"/>
      <use x="839.453125" xlink:href="#DejaVuSans-97"/>
      <use x="900.732422" xlink:href="#DejaVuSans-116"/>
      <use x="939.941406" xlink:href="#DejaVuSans-105"/>
      <use x="967.724609" xlink:href="#DejaVuSans-111"/>
      <use x="1028.90625" xlink:href="#DejaVuSans-110"/>
      <use x="1092.285156" xlink:href="#DejaVuSans-32"/>
      <use x="1124.072266" xlink:href="#DejaVuSans-76"/>
      <use x="1178.035156" xlink:href="#DejaVuSans-101"/>
      <use x="1239.558594" xlink:href="#DejaVuSans-118"/>
      <use x="1298.738281" xlink:href="#DejaVuSans-101"/>
      <use x="1360.261719" xlink:href="#DejaVuSans-108"/>
     </g>
    </g>
   </g>
   <g id="matplotlib.axis_2">
    <g id="ytick_1">
     <g id="line2d_1">
      <path clip-path="url(#pdfd43c6c4c)" d="M 43.148125 275.50206 
L 993.348125 275.50206 
" style="fill:none;stroke:#dedede;stroke-linecap:square;"/>
     </g>
     <g id="text_18">
      <!-- 0 -->
      <g transform="translate(31.058125 278.541435)scale(0.08 -0.08)">
       <use xlink:href="#DejaVuSans-48"/>
      </g>
     </g>
    </g>
    <g id="ytick_2">
     <g id="line2d_2">
      <path clip-path="url(#pdfd43c6c4c)" d="M 43.148125 226.71262 
L 993.348125 226.71262 
" style="fill:none;stroke:#dedede;stroke-linecap:square;"/>
     </g>
     <g id="text_19">
      <!-- 20 -->
      <g transform="translate(25.968125 229.751995)scale(0.08 -0.08)">
       <use xlink:href="#DejaVuSans-50"/>
       <use x="63.623047" xlink:href="#DejaVuSans-48"/>
      </g>
     </g>
    </g>
    <g id="ytick_3">
     <g id="line2d_3">
      <path clip-path="url(#pdfd43c6c4c)" d="M 43.148125 177.92318 
L 993.348125 177.92318 
" style="fill:none;stroke:#dedede;stroke-linecap:square;"/>
     </g>
     <g id="text_20">
      <!-- 40 -->
      <g transform="translate(25.968125 180.962555)scale(0.08 -0.08)">
       <use xlink:href="#DejaVuSans-52"/>
       <use x="63.623047" xlink:href="#DejaVuSans-48"/>
      </g>
     </g>
    </g>
    <g id="ytick_4">
     <g id="line2d_4">
      <path clip-path="url(#pdfd43c6c4c)" d="M 43.148125 129.13374 
L 993.348125 129.13374 
" style="fill:none;stroke:#dedede;stroke-linecap:square;"/>
     </g>
     <g id="text_21">
      <!-- 60 -->
      <g transform="translate(25.968125 132.173115)scale(0.08 -0.08)">
       <use xlink:href="#DejaVuSans-54"/>
       <use x="63.623047" xlink:href="#DejaVuSans-48"/>
      </g>
     </g>
    </g>
    <g id="ytick_5">
     <g id="line2d_5">
      <path clip-path="url(#pdfd43c6c4c)" d="M 43.148125 80.3443 
L 993.348125 80.3443 
" style="fill:none;stroke:#dedede;stroke-linecap:square;"/>
     </g>
     <g id="text_22">
      <!-- 80 -->
      <g transform="translate(25.968125 83.383675)scale(0.08 -0.08)">
       <use xlink:href="#DejaVuSans-56"/>
       <use x="63.623047" xlink:href="#DejaVuSans-48"/>
      </g>
     </g>
    </g>
    <g id="ytick_6">
     <g id="line2d_6">
      <path clip-path="url(#pdfd43c6c4c)" d="M 43.148125 31.55486 
L 993.348125 31.55486 
" style="fill:none;stroke:#dedede;stroke-linecap:square;"/>
     </g>
     <g id="text_23">
      <!-- 100 -->
      <g transform="translate(20.878125 34.594235)scale(0.08 -0.08)">
       <use xlink:href="#DejaVuSans-49"/>
       <use x="63.623047" xlink:href="#DejaVuSans-48"/>
       <use x="127.246094" xlink:href="#DejaVuSans-48"/>
      </g>
     </g>
    </g>
    <g id="text_24">
     <!-- % of Library -->
     <g transform="translate(14.798437 183.760491)rotate(-90)scale(0.1 -0.1)">
      <defs>
       <path d="M 72.703125 32.078125 
Q 68.453125 32.078125 66.03125 28.46875 
Q 63.625 24.859375 63.625 18.40625 
Q 63.625 12.0625 66.03125 8.421875 
Q 68.453125 4.78125 72.703125 4.78125 
Q 76.859375 4.78125 79.265625 8.421875 
Q 81.6875 12.0625 81.6875 18.40625 
Q 81.6875 24.8125 79.265625 28.4375 
Q 76.859375 32.078125 72.703125 32.078125 
z
M 72.703125 38.28125 
Q 80.421875 38.28125 84.953125 32.90625 
Q 89.5 27.546875 89.5 18.40625 
Q 89.5 9.28125 84.9375 3.921875 
Q 80.375 -1.421875 72.703125 -1.421875 
Q 64.890625 -1.421875 60.34375 3.921875 
Q 55.8125 9.28125 55.8125 18.40625 
Q 55.8125 27.59375 60.375 32.9375 
Q 64.9375 38.28125 72.703125 38.28125 
z
M 22.3125 68.015625 
Q 18.109375 68.015625 15.6875 64.375 
Q 13.28125 60.75 13.28125 54.390625 
Q 13.28125 47.953125 15.671875 44.328125 
Q 18.0625 40.71875 22.3125 40.71875 
Q 26.5625 40.71875 28.96875 44.328125 
Q 31.390625 47.953125 31.390625 54.390625 
Q 31.390625 60.6875 28.953125 64.34375 
Q 26.515625 68.015625 22.3125 68.015625 
z
M 66.40625 74.21875 
L 74.21875 74.21875 
L 28.609375 -1.421875 
L 20.796875 -1.421875 
z
M 22.3125 74.21875 
Q 30.03125 74.21875 34.609375 68.875 
Q 39.203125 63.53125 39.203125 54.390625 
Q 39.203125 45.171875 34.640625 39.84375 
Q 30.078125 34.515625 22.3125 34.515625 
Q 14.546875 34.515625 10.03125 39.859375 
Q 5.515625 45.21875 5.515625 54.390625 
Q 5.515625 63.484375 10.046875 68.84375 
Q 14.59375 74.21875 22.3125 74.21875 
z
" id="DejaVuSans-37"/>
       <path d="M 37.109375 75.984375 
L 37.109375 68.5 
L 28.515625 68.5 
Q 23.6875 68.5 21.796875 66.546875 
Q 19.921875 64.59375 19.921875 59.515625 
L 19.921875 54.6875 
L 34.71875 54.6875 
L 34.71875 47.703125 
L 19.921875 47.703125 
L 19.921875 0 
L 10.890625 0 
L 10.890625 47.703125 
L 2.296875 47.703125 
L 2.296875 54.6875 
L 10.890625 54.6875 
L 10.890625 58.5 
Q 10.890625 67.625 15.140625 71.796875 
Q 19.390625 75.984375 28.609375 75.984375 
z
" id="DejaVuSans-102"/>
       <path d="M 48.6875 27.296875 
Q 48.6875 37.203125 44.609375 42.84375 
Q 40.53125 48.484375 33.40625 48.484375 
Q 26.265625 48.484375 22.1875 42.84375 
Q 18.109375 37.203125 18.109375 27.296875 
Q 18.109375 17.390625 22.1875 11.75 
Q 26.265625 6.109375 33.40625 6.109375 
Q 40.53125 6.109375 44.609375 11.75 
Q 48.6875 17.390625 48.6875 27.296875 
z
M 18.109375 46.390625 
Q 20.953125 51.265625 25.265625 53.625 
Q 29.59375 56 35.59375 56 
Q 45.5625 56 51.78125 48.09375 
Q 58.015625 40.1875 58.015625 27.296875 
Q 58.015625 14.40625 51.78125 6.484375 
Q 45.5625 -1.421875 35.59375 -1.421875 
Q 29.59375 -1.421875 25.265625 0.953125 
Q 20.953125 3.328125 18.109375 8.203125 
L 18.109375 0 
L 9.078125 0 
L 9.078125 75.984375 
L 18.109375 75.984375 
z
" id="DejaVuSans-98"/>
       <path d="M 41.109375 46.296875 
Q 39.59375 47.171875 37.8125 47.578125 
Q 36.03125 48 33.890625 48 
Q 26.265625 48 22.1875 43.046875 
Q 18.109375 38.09375 18.109375 28.8125 
L 18.109375 0 
L 9.078125 0 
L 9.078125 54.6875 
L 18.109375 54.6875 
L 18.109375 46.1875 
Q 20.953125 51.171875 25.484375 53.578125 
Q 30.03125 56 36.53125 56 
Q 37.453125 56 38.578125 55.875 
Q 39.703125 55.765625 41.0625 55.515625 
z
" id="DejaVuSans-114"/>
       <path d="M 32.171875 -5.078125 
Q 28.375 -14.84375 24.75 -17.8125 
Q 21.140625 -20.796875 15.09375 -20.796875 
L 7.90625 -20.796875 
L 7.90625 -13.28125 
L 13.1875 -13.28125 
Q 16.890625 -13.28125 18.9375 -11.515625 
Q 21 -9.765625 23.484375 -3.21875 
L 25.09375 0.875 
L 2.984375 54.6875 
L 12.5 54.6875 
L 29.59375 11.921875 
L 46.6875 54.6875 
L 56.203125 54.6875 
z
" id="DejaVuSans-121"/>
      </defs>
      <use xlink:href="#DejaVuSans-37"/>
      <use x="95.019531" xlink:href="#DejaVuSans-32"/>
      <use x="126.806641" xlink:href="#DejaVuSans-111"/>
      <use x="187.988281" xlink:href="#DejaVuSans-102"/>
      <use x="223.193359" xlink:href="#DejaVuSans-32"/>
      <use x="254.980469" xlink:href="#DejaVuSans-76"/>
      <use x="310.693359" xlink:href="#DejaVuSans-105"/>
      <use x="338.476562" xlink:href="#DejaVuSans-98"/>
      <use x="401.953125" xlink:href="#DejaVuSans-114"/>
      <use x="443.066406" xlink:href="#DejaVuSans-97"/>
      <use x="504.345703" xlink:href="#DejaVuSans-114"/>
      <use x="545.458984" xlink:href="#DejaVuSans-121"/>
     </g>
    </g>
   </g>
   <g id="line2d_7">
    <path clip-path="url(#pdfd43c6c4c)" d="M 86.339034 195.04198 
L 143.926913 268.535599 
L 201.514792 269.409001 
L 259.10267 268.990536 
L 316.690549 267.749602 
L 374.278428 267.174683 
L 431.866307 266.823645 
L 489.454186 266.951414 
L 547.042064 267.893465 
L 604.629943 205.075372 
L 662.217822 264.916209 
L 719.805701 259.782122 
L 777.39358 271.439176 
L 834.981458 273.9416 
L 892.569337 274.859298 
L 950.157216 275.50206 
" style="fill:none;stroke:#d9534f;stroke-linecap:square;"/>
   </g>
   <g id="line2d_8">
    <path clip-path="url(#pdfd43c6c4c)" d="M 86.339034 177.089741 
L 143.926913 269.374987 
L 201.514792 270.442248 
L 259.10267 270.006814 
L 316.690549 269.289269 
L 374.278428 268.792131 
L 431.866307 268.644306 
L 489.454186 268.927742 
L 547.042064 269.079773 
L 604.629943 222.395042 
L 662.217822 266.686329 
L 719.805701 256.100736 
L 777.39358 269.716615 
L 834.981458 267.590971 
L 892.569337 274.446996 
L 950.157216 275.50206 
" style="fill:none;stroke:#d9534f;stroke-linecap:square;"/>
   </g>
   <g id="line2d_9">
    <path clip-path="url(#pdfd43c6c4c)" d="M 86.339034 194.898316 
L 143.926913 268.817319 
L 201.514792 269.852838 
L 259.10267 269.126186 
L 316.690549 268.659357 
L 374.278428 268.009184 
L 431.866307 267.80012 
L 489.454186 267.979469 
L 547.042064 268.371784 
L 604.629943 209.574278 
L 662.217822 264.114864 
L 719.805701 257.087049 
L 777.39358 269.92952 
L 834.981458 269.512925 
L 892.569337 275.50206 
L 950.157216 274.850493 
" style="fill:none;stroke:#d9534f;stroke-linecap:square;"/>
   </g>
   <g id="line2d_10">
    <path clip-path="url(#pdfd43c6c4c)" d="M 86.339034 207.667514 
L 143.926913 268.880346 
L 201.514792 269.207144 
L 259.10267 268.361937 
L 316.690549 267.151284 
L 374.278428 266.704931 
L 431.866307 266.528685 
L 489.454186 267.053711 
L 547.042064 267.754889 
L 604.629943 215.062261 
L 662.217822 264.843132 
L 719.805701 252.910022 
L 777.39358 271.982234 
L 834.981458 261.590451 
L 892.569337 272.885157 
L 950.157216 275.50206 
" style="fill:none;stroke:#d9534f;stroke-linecap:square;"/>
   </g>
   <g id="line2d_11">
    <path clip-path="url(#pdfd43c6c4c)" d="M 86.339034 205.648897 
L 143.926913 268.258733 
L 201.514792 269.277165 
L 259.10267 268.364493 
L 316.690549 267.836571 
L 374.278428 267.696473 
L 431.866307 267.307714 
L 489.454186 267.958356 
L 547.042064 268.277645 
L 604.629943 218.574395 
L 662.217822 263.917918 
L 719.805701 249.770062 
L 777.39358 266.769962 
L 834.981458 263.423257 
L 892.569337 275.50206 
L 950.157216 275.50206 
" style="fill:none;stroke:#d9534f;stroke-linecap:square;"/>
   </g>
   <g id="line2d_12">
    <path clip-path="url(#pdfd43c6c4c)" d="M 86.339034 183.404434 
L 143.926913 268.865538 
L 201.514792 270.183918 
L 259.10267 270.010749 
L 316.690549 269.331312 
L 374.278428 268.897736 
L 431.866307 268.636388 
L 489.454186 268.668691 
L 547.042064 269.011942 
L 604.629943 213.796839 
L 662.217822 264.897276 
L 719.805701 258.223654 
L 777.39358 270.255095 
L 834.981458 269.60973 
L 892.569337 275.50206 
L 950.157216 274.790397 
" style="fill:none;stroke:#d9534f;stroke-linecap:square;"/>
   </g>
   <g id="line2d_13">
    <path clip-path="url(#pdfd43c6c4c)" d="M 86.339034 197.807549 
L 143.926913 268.797916 
L 201.514792 270.225764 
L 259.10267 269.815818 
L 316.690549 269.056324 
L 374.278428 268.793512 
L 431.866307 268.753323 
L 489.454186 268.979758 
L 547.042064 269.13115 
L 604.629943 212.552076 
L 662.217822 262.08963 
L 719.805701 253.44933 
L 777.39358 268.436568 
L 834.981458 266.337367 
L 892.569337 275.031447 
L 950.157216 274.828227 
" style="fill:none;stroke:#d9534f;stroke-linecap:square;"/>
   </g>
   <g id="line2d_14">
    <path clip-path="url(#pdfd43c6c4c)" d="M 86.339034 211.090853 
L 143.926913 268.563972 
L 201.514792 269.045282 
L 259.10267 268.549925 
L 316.690549 267.783918 
L 374.278428 267.252786 
L 431.866307 267.191963 
L 489.454186 267.483866 
L 547.042064 268.243577 
L 604.629943 217.158921 
L 662.217822 263.225742 
L 719.805701 249.165167 
L 777.39358 265.129154 
L 834.981458 264.105324 
L 892.569337 274.59325 
L 950.157216 275.50206 
" style="fill:none;stroke:#d9534f;stroke-linecap:square;"/>
   </g>
   <g id="line2d_15">
    <path clip-path="url(#pdfd43c6c4c)" d="M 86.339034 194.189563 
L 143.926913 269.084997 
L 201.514792 269.671365 
L 259.10267 268.825293 
L 316.690549 268.231563 
L 374.278428 267.356274 
L 431.866307 267.365753 
L 489.454186 268.018623 
L 547.042064 268.169268 
L 604.629943 218.66648 
L 662.217822 265.259895 
L 719.805701 252.87281 
L 777.39358 269.259216 
L 834.981458 266.110538 
L 892.569337 275.50206 
L 950.157216 275.50206 
" style="fill:none;stroke:#d9534f;stroke-linecap:square;"/>
   </g>
   <g id="line2d_16">
    <path clip-path="url(#pdfd43c6c4c)" d="M 86.339034 110.736487 
L 143.926913 265.710277 
L 201.514792 269.005589 
L 259.10267 269.099741 
L 316.690549 267.499161 
L 374.278428 267.028402 
L 431.866307 270.888624 
L 489.454186 270.982776 
L 547.042064 269.570499 
L 604.629943 250.551845 
L 662.217822 275.50206 
L 719.805701 275.50206 
L 777.39358 275.50206 
L 834.981458 275.50206 
L 892.569337 275.50206 
L 950.157216 275.50206 
" style="fill:none;stroke:#5cb85c;stroke-linecap:square;"/>
   </g>
   <g id="line2d_17">
    <path clip-path="url(#pdfd43c6c4c)" d="M 86.339034 210.908614 
L 143.926913 268.963178 
L 201.514792 269.615691 
L 259.10267 268.787494 
L 316.690549 267.969888 
L 374.278428 267.664115 
L 431.866307 267.64364 
L 489.454186 267.837901 
L 547.042064 268.53758 
L 604.629943 219.388662 
L 662.217822 264.331758 
L 719.805701 248.395472 
L 777.39358 266.341921 
L 834.981458 259.78472 
L 892.569337 274.01509 
L 950.157216 273.900035 
" style="fill:none;stroke:#d9534f;stroke-linecap:square;"/>
   </g>
   <g id="line2d_18">
    <path clip-path="url(#pdfd43c6c4c)" d="M 86.339034 197.056647 
L 143.926913 269.187767 
L 201.514792 270.060511 
L 259.10267 269.245036 
L 316.690549 268.645688 
L 374.278428 268.110095 
L 431.866307 267.861481 
L 489.454186 268.137619 
L 547.042064 268.829605 
L 604.629943 210.443825 
L 662.217822 263.170167 
L 719.805701 255.201688 
L 777.39358 269.621657 
L 834.981458 268.193116 
L 892.569337 275.50206 
L 950.157216 274.8188 
" style="fill:none;stroke:#d9534f;stroke-linecap:square;"/>
   </g>
   <g id="line2d_19">
    <path clip-path="url(#pdfd43c6c4c)" d="M 43.148125 275.50206 
L 993.348125 275.50206 
" style="fill:none;stroke:#dedede;stroke-linecap:square;stroke-width:2;"/>
   </g>
   <g id="text_25">
    <!-- FastQC: Sequence Duplication Levels -->
    <g transform="translate(369.834375 19.3575)scale(0.16 -0.16)">
     <defs>
      <path d="M 9.8125 72.90625 
L 51.703125 72.90625 
L 51.703125 64.59375 
L 19.671875 64.59375 
L 19.671875 43.109375 
L 48.578125 43.109375 
L 48.578125 34.8125 
L 19.671875 34.8125 
L 19.671875 0 
L 9.8125 0 
z
" id="DejaVuSans-70"/>
      <path d="M 44.28125 53.078125 
L 44.28125 44.578125 
Q 40.484375 46.53125 36.375 47.5 
Q 32.28125 48.484375 27.875 48.484375 
Q 21.1875 48.484375 17.84375 46.4375 
Q 14.5 44.390625 14.5 40.28125 
Q 14.5 37.15625 16.890625 35.375 
Q 19.28125 33.59375 26.515625 31.984375 
L 29.59375 31.296875 
Q 39.15625 29.25 43.1875 25.515625 
Q 47.21875 21.78125 47.21875 15.09375 
Q 47.21875 7.46875 41.1875 3.015625 
Q 35.15625 -1.421875 24.609375 -1.421875 
Q 20.21875 -1.421875 15.453125 -0.5625 
Q 10.6875 0.296875 5.421875 2 
L 5.421875 11.28125 
Q 10.40625 8.6875 15.234375 7.390625 
Q 20.0625 6.109375 24.8125 6.109375 
Q 31.15625 6.109375 34.5625 8.28125 
Q 37.984375 10.453125 37.984375 14.40625 
Q 37.984375 18.0625 35.515625 20.015625 
Q 33.0625 21.96875 24.703125 23.78125 
L 21.578125 24.515625 
Q 13.234375 26.265625 9.515625 29.90625 
Q 5.8125 33.546875 5.8125 39.890625 
Q 5.8125 47.609375 11.28125 51.796875 
Q 16.75 56 26.8125 56 
Q 31.78125 56 36.171875 55.265625 
Q 40.578125 54.546875 44.28125 53.078125 
z
" id="DejaVuSans-115"/>
      <path d="M 39.40625 66.21875 
Q 28.65625 66.21875 22.328125 58.203125 
Q 16.015625 50.203125 16.015625 36.375 
Q 16.015625 22.609375 22.328125 14.59375 
Q 28.65625 6.59375 39.40625 6.59375 
Q 50.140625 6.59375 56.421875 14.59375 
Q 62.703125 22.609375 62.703125 36.375 
Q 62.703125 50.203125 56.421875 58.203125 
Q 50.140625 66.21875 39.40625 66.21875 
z
M 53.21875 1.3125 
L 66.21875 -12.890625 
L 54.296875 -12.890625 
L 43.5 -1.21875 
Q 41.890625 -1.3125 41.03125 -1.359375 
Q 40.1875 -1.421875 39.40625 -1.421875 
Q 24.03125 -1.421875 14.8125 8.859375 
Q 5.609375 19.140625 5.609375 36.375 
Q 5.609375 53.65625 14.8125 63.9375 
Q 24.03125 74.21875 39.40625 74.21875 
Q 54.734375 74.21875 63.90625 63.9375 
Q 73.09375 53.65625 73.09375 36.375 
Q 73.09375 23.6875 67.984375 14.640625 
Q 62.890625 5.609375 53.21875 1.3125 
z
" id="DejaVuSans-81"/>
      <path d="M 64.40625 67.28125 
L 64.40625 56.890625 
Q 59.421875 61.53125 53.78125 63.8125 
Q 48.140625 66.109375 41.796875 66.109375 
Q 29.296875 66.109375 22.65625 58.46875 
Q 16.015625 50.828125 16.015625 36.375 
Q 16.015625 21.96875 22.65625 14.328125 
Q 29.296875 6.6875 41.796875 6.6875 
Q 48.140625 6.6875 53.78125 8.984375 
Q 59.421875 11.28125 64.40625 15.921875 
L 64.40625 5.609375 
Q 59.234375 2.09375 53.4375 0.328125 
Q 47.65625 -1.421875 41.21875 -1.421875 
Q 24.65625 -1.421875 15.125 8.703125 
Q 5.609375 18.84375 5.609375 36.375 
Q 5.609375 53.953125 15.125 64.078125 
Q 24.65625 74.21875 41.21875 74.21875 
Q 47.75 74.21875 53.53125 72.484375 
Q 59.328125 70.75 64.40625 67.28125 
z
" id="DejaVuSans-67"/>
      <path d="M 11.71875 12.40625 
L 22.015625 12.40625 
L 22.015625 0 
L 11.71875 0 
z
M 11.71875 51.703125 
L 22.015625 51.703125 
L 22.015625 39.3125 
L 11.71875 39.3125 
z
" id="DejaVuSans-58"/>
     </defs>
     <use xlink:href="#DejaVuSans-70"/>
     <use x="48.394531" xlink:href="#DejaVuSans-97"/>
     <use x="109.673828" xlink:href="#DejaVuSans-115"/>
     <use x="161.773438" xlink:href="#DejaVuSans-116"/>
     <use x="200.982422" xlink:href="#DejaVuSans-81"/>
     <use x="279.693359" xlink:href="#DejaVuSans-67"/>
     <use x="349.517578" xlink:href="#DejaVuSans-58"/>
     <use x="383.208984" xlink:href="#DejaVuSans-32"/>
     <use x="414.996094" xlink:href="#DejaVuSans-83"/>
     <use x="478.472656" xlink:href="#DejaVuSans-101"/>
     <use x="539.996094" xlink:href="#DejaVuSans-113"/>
     <use x="603.472656" xlink:href="#DejaVuSans-117"/>
     <use x="666.851562" xlink:href="#DejaVuSans-101"/>
     <use x="728.375" xlink:href="#DejaVuSans-110"/>
     <use x="791.753906" xlink:href="#DejaVuSans-99"/>
     <use x="846.734375" xlink:href="#DejaVuSans-101"/>
     <use x="908.257812" xlink:href="#DejaVuSans-32"/>
     <use x="940.044922" xlink:href="#DejaVuSans-68"/>
     <use x="1017.046875" xlink:href="#DejaVuSans-117"/>
     <use x="1080.425781" xlink:href="#DejaVuSans-112"/>
     <use x="1143.902344" xlink:href="#DejaVuSans-108"/>
     <use x="1171.685547" xlink:href="#DejaVuSans-105"/>
     <use x="1199.46875" xlink:href="#DejaVuSans-99"/>
     <use x="1254.449219" xlink:href="#DejaVuSans-97"/>
     <use x="1315.728516" xlink:href="#DejaVuSans-116"/>
     <use x="1354.9375" xlink:href="#DejaVuSans-105"/>
     <use x="1382.720703" xlink:href="#DejaVuSans-111"/>
     <use x="1443.902344" xlink:href="#DejaVuSans-110"/>
     <use x="1507.28125" xlink:href="#DejaVuSans-32"/>
     <use x="1539.068359" xlink:href="#DejaVuSans-76"/>
     <use x="1593.03125" xlink:href="#DejaVuSans-101"/>
     <use x="1654.554688" xlink:href="#DejaVuSans-118"/>
     <use x="1713.734375" xlink:href="#DejaVuSans-101"/>
     <use x="1775.257812" xlink:href="#DejaVuSans-108"/>
     <use x="1803.041016" xlink:href="#DejaVuSans-115"/>
    </g>
   </g>
   <g id="legend_1">
    <g id="line2d_20">
     <path d="M 50.348125 293.354194 
L 66.348125 293.354194 
" style="fill:none;stroke:#d9534f;stroke-linecap:square;"/>
    </g>
    <g id="line2d_21"/>
    <g id="text_26">
     <!-- RTS0_BC_AGCAAC -->
     <g transform="translate(72.748125 296.154194)scale(0.08 -0.08)">
      <defs>
       <path d="M 44.390625 34.1875 
Q 47.5625 33.109375 50.5625 29.59375 
Q 53.5625 26.078125 56.59375 19.921875 
L 66.609375 0 
L 56 0 
L 46.6875 18.703125 
Q 43.0625 26.03125 39.671875 28.421875 
Q 36.28125 30.8125 30.421875 30.8125 
L 19.671875 30.8125 
L 19.671875 0 
L 9.8125 0 
L 9.8125 72.90625 
L 32.078125 72.90625 
Q 44.578125 72.90625 50.734375 67.671875 
Q 56.890625 62.453125 56.890625 51.90625 
Q 56.890625 45.015625 53.6875 40.46875 
Q 50.484375 35.9375 44.390625 34.1875 
z
M 19.671875 64.796875 
L 19.671875 38.921875 
L 32.078125 38.921875 
Q 39.203125 38.921875 42.84375 42.21875 
Q 46.484375 45.515625 46.484375 51.90625 
Q 46.484375 58.296875 42.84375 61.546875 
Q 39.203125 64.796875 32.078125 64.796875 
z
" id="DejaVuSans-82"/>
       <path d="M -0.296875 72.90625 
L 61.375 72.90625 
L 61.375 64.59375 
L 35.5 64.59375 
L 35.5 0 
L 25.59375 0 
L 25.59375 64.59375 
L -0.296875 64.59375 
z
" id="DejaVuSans-84"/>
       <path d="M 50.984375 -16.609375 
L 50.984375 -23.578125 
L -0.984375 -23.578125 
L -0.984375 -16.609375 
z
" id="DejaVuSans-95"/>
       <path d="M 19.671875 34.8125 
L 19.671875 8.109375 
L 35.5 8.109375 
Q 43.453125 8.109375 47.28125 11.40625 
Q 51.125 14.703125 51.125 21.484375 
Q 51.125 28.328125 47.28125 31.5625 
Q 43.453125 34.8125 35.5 34.8125 
z
M 19.671875 64.796875 
L 19.671875 42.828125 
L 34.28125 42.828125 
Q 41.5 42.828125 45.03125 45.53125 
Q 48.578125 48.25 48.578125 53.8125 
Q 48.578125 59.328125 45.03125 62.0625 
Q 41.5 64.796875 34.28125 64.796875 
z
M 9.8125 72.90625 
L 35.015625 72.90625 
Q 46.296875 72.90625 52.390625 68.21875 
Q 58.5 63.53125 58.5 54.890625 
Q 58.5 48.1875 55.375 44.234375 
Q 52.25 40.28125 46.1875 39.3125 
Q 53.46875 37.75 57.5 32.78125 
Q 61.53125 27.828125 61.53125 20.40625 
Q 61.53125 10.640625 54.890625 5.3125 
Q 48.25 0 35.984375 0 
L 9.8125 0 
z
" id="DejaVuSans-66"/>
       <path d="M 34.1875 63.1875 
L 20.796875 26.90625 
L 47.609375 26.90625 
z
M 28.609375 72.90625 
L 39.796875 72.90625 
L 67.578125 0 
L 57.328125 0 
L 50.6875 18.703125 
L 17.828125 18.703125 
L 11.1875 0 
L 0.78125 0 
z
" id="DejaVuSans-65"/>
       <path d="M 59.515625 10.40625 
L 59.515625 29.984375 
L 43.40625 29.984375 
L 43.40625 38.09375 
L 69.28125 38.09375 
L 69.28125 6.78125 
Q 63.578125 2.734375 56.6875 0.65625 
Q 49.8125 -1.421875 42 -1.421875 
Q 24.90625 -1.421875 15.25 8.5625 
Q 5.609375 18.5625 5.609375 36.375 
Q 5.609375 54.25 15.25 64.234375 
Q 24.90625 74.21875 42 74.21875 
Q 49.125 74.21875 55.546875 72.453125 
Q 61.96875 70.703125 67.390625 67.28125 
L 67.390625 56.78125 
Q 61.921875 61.421875 55.765625 63.765625 
Q 49.609375 66.109375 42.828125 66.109375 
Q 29.4375 66.109375 22.71875 58.640625 
Q 16.015625 51.171875 16.015625 36.375 
Q 16.015625 21.625 22.71875 14.15625 
Q 29.4375 6.6875 42.828125 6.6875 
Q 48.046875 6.6875 52.140625 7.59375 
Q 56.25 8.5 59.515625 10.40625 
z
" id="DejaVuSans-71"/>
      </defs>
      <use xlink:href="#DejaVuSans-82"/>
      <use x="62.232422" xlink:href="#DejaVuSans-84"/>
      <use x="123.316406" xlink:href="#DejaVuSans-83"/>
      <use x="186.792969" xlink:href="#DejaVuSans-48"/>
      <use x="250.416016" xlink:href="#DejaVuSans-95"/>
      <use x="300.416016" xlink:href="#DejaVuSans-66"/>
      <use x="367.269531" xlink:href="#DejaVuSans-67"/>
      <use x="437.09375" xlink:href="#DejaVuSans-95"/>
      <use x="487.09375" xlink:href="#DejaVuSans-65"/>
      <use x="553.751953" xlink:href="#DejaVuSans-71"/>
      <use x="631.242188" xlink:href="#DejaVuSans-67"/>
      <use x="701.066406" xlink:href="#DejaVuSans-65"/>
      <use x="772.224609" xlink:href="#DejaVuSans-65"/>
      <use x="838.882812" xlink:href="#DejaVuSans-67"/>
     </g>
    </g>
    <g id="line2d_22">
     <path d="M 50.348125 305.319194 
L 66.348125 305.319194 
" style="fill:none;stroke:#d9534f;stroke-linecap:square;"/>
    </g>
    <g id="line2d_23"/>
    <g id="text_27">
     <!-- RTS0_BC_ATCGTG -->
     <g transform="translate(72.748125 308.119194)scale(0.08 -0.08)">
      <use xlink:href="#DejaVuSans-82"/>
      <use x="62.232422" xlink:href="#DejaVuSans-84"/>
      <use x="123.316406" xlink:href="#DejaVuSans-83"/>
      <use x="186.792969" xlink:href="#DejaVuSans-48"/>
      <use x="250.416016" xlink:href="#DejaVuSans-95"/>
      <use x="300.416016" xlink:href="#DejaVuSans-66"/>
      <use x="367.269531" xlink:href="#DejaVuSans-67"/>
      <use x="437.09375" xlink:href="#DejaVuSans-95"/>
      <use x="487.09375" xlink:href="#DejaVuSans-65"/>
      <use x="547.751953" xlink:href="#DejaVuSans-84"/>
      <use x="602.960938" xlink:href="#DejaVuSans-67"/>
      <use x="672.785156" xlink:href="#DejaVuSans-71"/>
      <use x="746.650391" xlink:href="#DejaVuSans-84"/>
      <use x="807.734375" xlink:href="#DejaVuSans-71"/>
     </g>
    </g>
    <g id="line2d_24">
     <path d="M 50.348125 317.284194 
L 66.348125 317.284194 
" style="fill:none;stroke:#d9534f;stroke-linecap:square;"/>
    </g>
    <g id="line2d_25"/>
    <g id="text_28">
     <!-- RTS0_BC_CCACTA -->
     <g transform="translate(72.748125 320.084194)scale(0.08 -0.08)">
      <use xlink:href="#DejaVuSans-82"/>
      <use x="62.232422" xlink:href="#DejaVuSans-84"/>
      <use x="123.316406" xlink:href="#DejaVuSans-83"/>
      <use x="186.792969" xlink:href="#DejaVuSans-48"/>
      <use x="250.416016" xlink:href="#DejaVuSans-95"/>
      <use x="300.416016" xlink:href="#DejaVuSans-66"/>
      <use x="367.269531" xlink:href="#DejaVuSans-67"/>
      <use x="437.09375" xlink:href="#DejaVuSans-95"/>
      <use x="487.09375" xlink:href="#DejaVuSans-67"/>
      <use x="556.917969" xlink:href="#DejaVuSans-67"/>
      <use x="626.742188" xlink:href="#DejaVuSans-65"/>
      <use x="693.400391" xlink:href="#DejaVuSans-67"/>
      <use x="763.224609" xlink:href="#DejaVuSans-84"/>
      <use x="816.558594" xlink:href="#DejaVuSans-65"/>
     </g>
    </g>
    <g id="line2d_26">
     <path d="M 260.475937 293.354194 
L 276.475937 293.354194 
" style="fill:none;stroke:#d9534f;stroke-linecap:square;"/>
    </g>
    <g id="line2d_27"/>
    <g id="text_29">
     <!-- RTS0_BC_CCTATG -->
     <g transform="translate(282.875937 296.154194)scale(0.08 -0.08)">
      <use xlink:href="#DejaVuSans-82"/>
      <use x="62.232422" xlink:href="#DejaVuSans-84"/>
      <use x="123.316406" xlink:href="#DejaVuSans-83"/>
      <use x="186.792969" xlink:href="#DejaVuSans-48"/>
      <use x="250.416016" xlink:href="#DejaVuSans-95"/>
      <use x="300.416016" xlink:href="#DejaVuSans-66"/>
      <use x="367.269531" xlink:href="#DejaVuSans-67"/>
      <use x="437.09375" xlink:href="#DejaVuSans-95"/>
      <use x="487.09375" xlink:href="#DejaVuSans-67"/>
      <use x="556.917969" xlink:href="#DejaVuSans-67"/>
      <use x="626.742188" xlink:href="#DejaVuSans-84"/>
      <use x="680.076172" xlink:href="#DejaVuSans-65"/>
      <use x="740.734375" xlink:href="#DejaVuSans-84"/>
      <use x="801.818359" xlink:href="#DejaVuSans-71"/>
     </g>
    </g>
    <g id="line2d_28">
     <path d="M 260.475937 305.319194 
L 276.475937 305.319194 
" style="fill:none;stroke:#d9534f;stroke-linecap:square;"/>
    </g>
    <g id="line2d_29"/>
    <g id="text_30">
     <!-- RTS0_BC_CGTCCG -->
     <g transform="translate(282.875937 308.119194)scale(0.08 -0.08)">
      <use xlink:href="#DejaVuSans-82"/>
      <use x="62.232422" xlink:href="#DejaVuSans-84"/>
      <use x="123.316406" xlink:href="#DejaVuSans-83"/>
      <use x="186.792969" xlink:href="#DejaVuSans-48"/>
      <use x="250.416016" xlink:href="#DejaVuSans-95"/>
      <use x="300.416016" xlink:href="#DejaVuSans-66"/>
      <use x="367.269531" xlink:href="#DejaVuSans-67"/>
      <use x="437.09375" xlink:href="#DejaVuSans-95"/>
      <use x="487.09375" xlink:href="#DejaVuSans-67"/>
      <use x="556.917969" xlink:href="#DejaVuSans-71"/>
      <use x="630.783203" xlink:href="#DejaVuSans-84"/>
      <use x="685.992188" xlink:href="#DejaVuSans-67"/>
      <use x="755.816406" xlink:href="#DejaVuSans-67"/>
      <use x="825.640625" xlink:href="#DejaVuSans-71"/>
     </g>
    </g>
    <g id="line2d_30">
     <path d="M 260.475937 317.284194 
L 276.475937 317.284194 
" style="fill:none;stroke:#d9534f;stroke-linecap:square;"/>
    </g>
    <g id="line2d_31"/>
    <g id="text_31">
     <!-- RTS0_BC_CTTACA -->
     <g transform="translate(282.875937 320.084194)scale(0.08 -0.08)">
      <use xlink:href="#DejaVuSans-82"/>
      <use x="62.232422" xlink:href="#DejaVuSans-84"/>
      <use x="123.316406" xlink:href="#DejaVuSans-83"/>
      <use x="186.792969" xlink:href="#DejaVuSans-48"/>
      <use x="250.416016" xlink:href="#DejaVuSans-95"/>
      <use x="300.416016" xlink:href="#DejaVuSans-66"/>
      <use x="367.269531" xlink:href="#DejaVuSans-67"/>
      <use x="437.09375" xlink:href="#DejaVuSans-95"/>
      <use x="487.09375" xlink:href="#DejaVuSans-67"/>
      <use x="556.917969" xlink:href="#DejaVuSans-84"/>
      <use x="616.251953" xlink:href="#DejaVuSans-84"/>
      <use x="669.585938" xlink:href="#DejaVuSans-65"/>
      <use x="736.244141" xlink:href="#DejaVuSans-67"/>
      <use x="806.068359" xlink:href="#DejaVuSans-65"/>
     </g>
    </g>
    <g id="line2d_32">
     <path d="M 470.1575 293.354194 
L 486.1575 293.354194 
" style="fill:none;stroke:#d9534f;stroke-linecap:square;"/>
    </g>
    <g id="line2d_33"/>
    <g id="text_32">
     <!-- RTS0_BC_GACGCG -->
     <g transform="translate(492.5575 296.154194)scale(0.08 -0.08)">
      <use xlink:href="#DejaVuSans-82"/>
      <use x="62.232422" xlink:href="#DejaVuSans-84"/>
      <use x="123.316406" xlink:href="#DejaVuSans-83"/>
      <use x="186.792969" xlink:href="#DejaVuSans-48"/>
      <use x="250.416016" xlink:href="#DejaVuSans-95"/>
      <use x="300.416016" xlink:href="#DejaVuSans-66"/>
      <use x="367.269531" xlink:href="#DejaVuSans-67"/>
      <use x="437.09375" xlink:href="#DejaVuSans-95"/>
      <use x="487.09375" xlink:href="#DejaVuSans-71"/>
      <use x="564.583984" xlink:href="#DejaVuSans-65"/>
      <use x="631.242188" xlink:href="#DejaVuSans-67"/>
      <use x="701.066406" xlink:href="#DejaVuSans-71"/>
      <use x="778.556641" xlink:href="#DejaVuSans-67"/>
      <use x="848.380859" xlink:href="#DejaVuSans-71"/>
     </g>
    </g>
    <g id="line2d_34">
     <path d="M 470.1575 305.319194 
L 486.1575 305.319194 
" style="fill:none;stroke:#d9534f;stroke-linecap:square;"/>
    </g>
    <g id="line2d_35"/>
    <g id="text_33">
     <!-- RTS0_BC_GGAGGC -->
     <g transform="translate(492.5575 308.119194)scale(0.08 -0.08)">
      <use xlink:href="#DejaVuSans-82"/>
      <use x="62.232422" xlink:href="#DejaVuSans-84"/>
      <use x="123.316406" xlink:href="#DejaVuSans-83"/>
      <use x="186.792969" xlink:href="#DejaVuSans-48"/>
      <use x="250.416016" xlink:href="#DejaVuSans-95"/>
      <use x="300.416016" xlink:href="#DejaVuSans-66"/>
      <use x="367.269531" xlink:href="#DejaVuSans-67"/>
      <use x="437.09375" xlink:href="#DejaVuSans-95"/>
      <use x="487.09375" xlink:href="#DejaVuSans-71"/>
      <use x="564.583984" xlink:href="#DejaVuSans-71"/>
      <use x="642.074219" xlink:href="#DejaVuSans-65"/>
      <use x="708.732422" xlink:href="#DejaVuSans-71"/>
      <use x="786.222656" xlink:href="#DejaVuSans-71"/>
      <use x="863.712891" xlink:href="#DejaVuSans-67"/>
     </g>
    </g>
    <g id="line2d_36">
     <path d="M 682.270313 293.354194 
L 698.270313 293.354194 
" style="fill:none;stroke:#d9534f;stroke-linecap:square;"/>
    </g>
    <g id="line2d_37"/>
    <g id="text_34">
     <!-- RTS0_BC_GTGAGG -->
     <g transform="translate(704.670313 296.154194)scale(0.08 -0.08)">
      <use xlink:href="#DejaVuSans-82"/>
      <use x="62.232422" xlink:href="#DejaVuSans-84"/>
      <use x="123.316406" xlink:href="#DejaVuSans-83"/>
      <use x="186.792969" xlink:href="#DejaVuSans-48"/>
      <use x="250.416016" xlink:href="#DejaVuSans-95"/>
      <use x="300.416016" xlink:href="#DejaVuSans-66"/>
      <use x="367.269531" xlink:href="#DejaVuSans-67"/>
      <use x="437.09375" xlink:href="#DejaVuSans-95"/>
      <use x="487.09375" xlink:href="#DejaVuSans-71"/>
      <use x="560.958984" xlink:href="#DejaVuSans-84"/>
      <use x="622.042969" xlink:href="#DejaVuSans-71"/>
      <use x="699.533203" xlink:href="#DejaVuSans-65"/>
      <use x="766.191406" xlink:href="#DejaVuSans-71"/>
      <use x="843.681641" xlink:href="#DejaVuSans-71"/>
     </g>
    </g>
    <g id="line2d_38">
     <path d="M 682.270313 305.319194 
L 698.270313 305.319194 
" style="fill:none;stroke:#5cb85c;stroke-linecap:square;"/>
    </g>
    <g id="line2d_39"/>
    <g id="text_35">
     <!-- RTS0_BC_TAGGGG -->
     <g transform="translate(704.670313 308.119194)scale(0.08 -0.08)">
      <use xlink:href="#DejaVuSans-82"/>
      <use x="62.232422" xlink:href="#DejaVuSans-84"/>
      <use x="123.316406" xlink:href="#DejaVuSans-83"/>
      <use x="186.792969" xlink:href="#DejaVuSans-48"/>
      <use x="250.416016" xlink:href="#DejaVuSans-95"/>
      <use x="300.416016" xlink:href="#DejaVuSans-66"/>
      <use x="367.269531" xlink:href="#DejaVuSans-67"/>
      <use x="437.09375" xlink:href="#DejaVuSans-95"/>
      <use x="487.09375" xlink:href="#DejaVuSans-84"/>
      <use x="540.427734" xlink:href="#DejaVuSans-65"/>
      <use x="607.085938" xlink:href="#DejaVuSans-71"/>
      <use x="684.576172" xlink:href="#DejaVuSans-71"/>
      <use x="762.066406" xlink:href="#DejaVuSans-71"/>
      <use x="839.556641" xlink:href="#DejaVuSans-71"/>
     </g>
    </g>
    <g id="line2d_40">
     <path d="M 893.393125 293.354194 
L 909.393125 293.354194 
" style="fill:none;stroke:#d9534f;stroke-linecap:square;"/>
    </g>
    <g id="line2d_41"/>
    <g id="text_36">
     <!-- RTS0_BC_TCCTAG -->
     <g transform="translate(915.793125 296.154194)scale(0.08 -0.08)">
      <use xlink:href="#DejaVuSans-82"/>
      <use x="62.232422" xlink:href="#DejaVuSans-84"/>
      <use x="123.316406" xlink:href="#DejaVuSans-83"/>
      <use x="186.792969" xlink:href="#DejaVuSans-48"/>
      <use x="250.416016" xlink:href="#DejaVuSans-95"/>
      <use x="300.416016" xlink:href="#DejaVuSans-66"/>
      <use x="367.269531" xlink:href="#DejaVuSans-67"/>
      <use x="437.09375" xlink:href="#DejaVuSans-95"/>
      <use x="487.09375" xlink:href="#DejaVuSans-84"/>
      <use x="542.302734" xlink:href="#DejaVuSans-67"/>
      <use x="612.126953" xlink:href="#DejaVuSans-67"/>
      <use x="681.951172" xlink:href="#DejaVuSans-84"/>
      <use x="735.285156" xlink:href="#DejaVuSans-65"/>
      <use x="801.943359" xlink:href="#DejaVuSans-71"/>
     </g>
    </g>
    <g id="line2d_42">
     <path d="M 893.393125 305.319194 
L 909.393125 305.319194 
" style="fill:none;stroke:#d9534f;stroke-linecap:square;"/>
    </g>
    <g id="line2d_43"/>
    <g id="text_37">
     <!-- RTS0_BC_TGTTTG -->
     <g transform="translate(915.793125 308.119194)scale(0.08 -0.08)">
      <use xlink:href="#DejaVuSans-82"/>
      <use x="62.232422" xlink:href="#DejaVuSans-84"/>
      <use x="123.316406" xlink:href="#DejaVuSans-83"/>
      <use x="186.792969" xlink:href="#DejaVuSans-48"/>
      <use x="250.416016" xlink:href="#DejaVuSans-95"/>
      <use x="300.416016" xlink:href="#DejaVuSans-66"/>
      <use x="367.269531" xlink:href="#DejaVuSans-67"/>
      <use x="437.09375" xlink:href="#DejaVuSans-95"/>
      <use x="487.09375" xlink:href="#DejaVuSans-84"/>
      <use x="548.177734" xlink:href="#DejaVuSans-71"/>
      <use x="622.042969" xlink:href="#DejaVuSans-84"/>
      <use x="681.376953" xlink:href="#DejaVuSans-84"/>
      <use x="740.710938" xlink:href="#DejaVuSans-84"/>
      <use x="801.794922" xlink:href="#DejaVuSans-71"/>
     </g>
    </g>
   </g>
  </g>
 </g>
 <defs>
  <clipPath id="pdfd43c6c4c">
   <rect height="243.9472" width="950.2" x="43.148125" y="31.55486"/>
  </clipPath>
 </defs>
</svg>
