<?xml version="1.0" encoding="utf-8" standalone="no"?>
<!DOCTYPE svg PUBLIC "-//W3C//DTD SVG 1.1//EN"
  "http://www.w3.org/Graphics/SVG/1.1/DTD/svg11.dtd">
<!-- Created with matplotlib (https://matplotlib.org/) -->
<svg height="332.370444pt" version="1.1" viewBox="0 0 1000.558125 332.370444" width="1000.558125pt" xmlns="http://www.w3.org/2000/svg" xmlns:xlink="http://www.w3.org/1999/xlink">
 <metadata>
  <rdf:RDF xmlns:cc="http://creativecommons.org/ns#" xmlns:dc="http://purl.org/dc/elements/1.1/" xmlns:rdf="http://www.w3.org/1999/02/22-rdf-syntax-ns#">
   <cc:Work>
    <dc:type rdf:resource="http://purl.org/dc/dcmitype/StillImage"/>
    <dc:date>2020-09-26T22:33:07.387715</dc:date>
    <dc:format>image/svg+xml</dc:format>
    <dc:creator>
     <cc:Agent>
      <dc:title>Matplotlib v3.3.1, https://matplotlib.org/</dc:title>
     </cc:Agent>
    </dc:creator>
   </cc:Work>
  </rdf:RDF>
 </metadata>
 <defs>
  <style type="text/css">*{stroke-linecap:butt;stroke-linejoin:round;}</style>
 </defs>
 <g id="figure_1">
  <g id="axes_1">
   <g id="patch_1">
    <path d="M 53.328125 275.50206 
L 993.358125 275.50206 
L 993.358125 31.55486 
L 53.328125 31.55486 
z
" style="fill:#ffffff;"/>
   </g>
   <g id="matplotlib.axis_1">
    <g id="xtick_1">
     <g id="text_1">
      <!-- 0 -->
      <g transform="translate(72.497678 288.58081)scale(0.08 -0.08)">
       <defs>
        <path d="M 31.78125 66.40625 
Q 24.171875 66.40625 20.328125 58.90625 
Q 16.5 51.421875 16.5 36.375 
Q 16.5 21.390625 20.328125 13.890625 
Q 24.171875 6.390625 31.78125 6.390625 
Q 39.453125 6.390625 43.28125 13.890625 
Q 47.125 21.390625 47.125 36.375 
Q 47.125 51.421875 43.28125 58.90625 
Q 39.453125 66.40625 31.78125 66.40625 
z
M 31.78125 74.21875 
Q 44.046875 74.21875 50.515625 64.515625 
Q 56.984375 54.828125 56.984375 36.375 
Q 56.984375 17.96875 50.515625 8.265625 
Q 44.046875 -1.421875 31.78125 -1.421875 
Q 19.53125 -1.421875 13.0625 8.265625 
Q 6.59375 17.96875 6.59375 36.375 
Q 6.59375 54.828125 13.0625 64.515625 
Q 19.53125 74.21875 31.78125 74.21875 
z
" id="DejaVuSans-48"/>
       </defs>
       <use xlink:href="#DejaVuSans-48"/>
      </g>
     </g>
    </g>
    <g id="xtick_2">
     <g id="text_2">
      <!-- 20 -->
      <g transform="translate(210.046568 288.58081)scale(0.08 -0.08)">
       <defs>
        <path d="M 19.1875 8.296875 
L 53.609375 8.296875 
L 53.609375 0 
L 7.328125 0 
L 7.328125 8.296875 
Q 12.9375 14.109375 22.625 23.890625 
Q 32.328125 33.6875 34.8125 36.53125 
Q 39.546875 41.84375 41.421875 45.53125 
Q 43.3125 49.21875 43.3125 52.78125 
Q 43.3125 58.59375 39.234375 62.25 
Q 35.15625 65.921875 28.609375 65.921875 
Q 23.96875 65.921875 18.8125 64.3125 
Q 13.671875 62.703125 7.8125 59.421875 
L 7.8125 69.390625 
Q 13.765625 71.78125 18.9375 73 
Q 24.125 74.21875 28.421875 74.21875 
Q 39.75 74.21875 46.484375 68.546875 
Q 53.21875 62.890625 53.21875 53.421875 
Q 53.21875 48.921875 51.53125 44.890625 
Q 49.859375 40.875 45.40625 35.40625 
Q 44.1875 33.984375 37.640625 27.21875 
Q 31.109375 20.453125 19.1875 8.296875 
z
" id="DejaVuSans-50"/>
       </defs>
       <use xlink:href="#DejaVuSans-50"/>
       <use x="63.623047" xlink:href="#DejaVuSans-48"/>
      </g>
     </g>
    </g>
    <g id="xtick_3">
     <g id="text_3">
      <!-- 40 -->
      <g transform="translate(350.140457 288.58081)scale(0.08 -0.08)">
       <defs>
        <path d="M 37.796875 64.3125 
L 12.890625 25.390625 
L 37.796875 25.390625 
z
M 35.203125 72.90625 
L 47.609375 72.90625 
L 47.609375 25.390625 
L 58.015625 25.390625 
L 58.015625 17.1875 
L 47.609375 17.1875 
L 47.609375 0 
L 37.796875 0 
L 37.796875 17.1875 
L 4.890625 17.1875 
L 4.890625 26.703125 
z
" id="DejaVuSans-52"/>
       </defs>
       <use xlink:href="#DejaVuSans-52"/>
       <use x="63.623047" xlink:href="#DejaVuSans-48"/>
      </g>
     </g>
    </g>
    <g id="xtick_4">
     <g id="text_4">
      <!-- 60 -->
      <g transform="translate(490.234347 288.58081)scale(0.08 -0.08)">
       <defs>
        <path d="M 33.015625 40.375 
Q 26.375 40.375 22.484375 35.828125 
Q 18.609375 31.296875 18.609375 23.390625 
Q 18.609375 15.53125 22.484375 10.953125 
Q 26.375 6.390625 33.015625 6.390625 
Q 39.65625 6.390625 43.53125 10.953125 
Q 47.40625 15.53125 47.40625 23.390625 
Q 47.40625 31.296875 43.53125 35.828125 
Q 39.65625 40.375 33.015625 40.375 
z
M 52.59375 71.296875 
L 52.59375 62.3125 
Q 48.875 64.0625 45.09375 64.984375 
Q 41.3125 65.921875 37.59375 65.921875 
Q 27.828125 65.921875 22.671875 59.328125 
Q 17.53125 52.734375 16.796875 39.40625 
Q 19.671875 43.65625 24.015625 45.921875 
Q 28.375 48.1875 33.59375 48.1875 
Q 44.578125 48.1875 50.953125 41.515625 
Q 57.328125 34.859375 57.328125 23.390625 
Q 57.328125 12.15625 50.6875 5.359375 
Q 44.046875 -1.421875 33.015625 -1.421875 
Q 20.359375 -1.421875 13.671875 8.265625 
Q 6.984375 17.96875 6.984375 36.375 
Q 6.984375 53.65625 15.1875 63.9375 
Q 23.390625 74.21875 37.203125 74.21875 
Q 40.921875 74.21875 44.703125 73.484375 
Q 48.484375 72.75 52.59375 71.296875 
z
" id="DejaVuSans-54"/>
       </defs>
       <use xlink:href="#DejaVuSans-54"/>
       <use x="63.623047" xlink:href="#DejaVuSans-48"/>
      </g>
     </g>
    </g>
    <g id="xtick_5">
     <g id="text_5">
      <!-- 80 -->
      <g transform="translate(630.328237 288.58081)scale(0.08 -0.08)">
       <defs>
        <path d="M 31.78125 34.625 
Q 24.75 34.625 20.71875 30.859375 
Q 16.703125 27.09375 16.703125 20.515625 
Q 16.703125 13.921875 20.71875 10.15625 
Q 24.75 6.390625 31.78125 6.390625 
Q 38.8125 6.390625 42.859375 10.171875 
Q 46.921875 13.96875 46.921875 20.515625 
Q 46.921875 27.09375 42.890625 30.859375 
Q 38.875 34.625 31.78125 34.625 
z
M 21.921875 38.8125 
Q 15.578125 40.375 12.03125 44.71875 
Q 8.5 49.078125 8.5 55.328125 
Q 8.5 64.0625 14.71875 69.140625 
Q 20.953125 74.21875 31.78125 74.21875 
Q 42.671875 74.21875 48.875 69.140625 
Q 55.078125 64.0625 55.078125 55.328125 
Q 55.078125 49.078125 51.53125 44.71875 
Q 48 40.375 41.703125 38.8125 
Q 48.828125 37.15625 52.796875 32.3125 
Q 56.78125 27.484375 56.78125 20.515625 
Q 56.78125 9.90625 50.3125 4.234375 
Q 43.84375 -1.421875 31.78125 -1.421875 
Q 19.734375 -1.421875 13.25 4.234375 
Q 6.78125 9.90625 6.78125 20.515625 
Q 6.78125 27.484375 10.78125 32.3125 
Q 14.796875 37.15625 21.921875 38.8125 
z
M 18.3125 54.390625 
Q 18.3125 48.734375 21.84375 45.5625 
Q 25.390625 42.390625 31.78125 42.390625 
Q 38.140625 42.390625 41.71875 45.5625 
Q 45.3125 48.734375 45.3125 54.390625 
Q 45.3125 60.0625 41.71875 63.234375 
Q 38.140625 66.40625 31.78125 66.40625 
Q 25.390625 66.40625 21.84375 63.234375 
Q 18.3125 60.0625 18.3125 54.390625 
z
" id="DejaVuSans-56"/>
       </defs>
       <use xlink:href="#DejaVuSans-56"/>
       <use x="63.623047" xlink:href="#DejaVuSans-48"/>
      </g>
     </g>
    </g>
    <g id="xtick_6">
     <g id="text_6">
      <!-- 100 -->
      <g transform="translate(767.877126 288.58081)scale(0.08 -0.08)">
       <defs>
        <path d="M 12.40625 8.296875 
L 28.515625 8.296875 
L 28.515625 63.921875 
L 10.984375 60.40625 
L 10.984375 69.390625 
L 28.421875 72.90625 
L 38.28125 72.90625 
L 38.28125 8.296875 
L 54.390625 8.296875 
L 54.390625 0 
L 12.40625 0 
z
" id="DejaVuSans-49"/>
       </defs>
       <use xlink:href="#DejaVuSans-49"/>
       <use x="63.623047" xlink:href="#DejaVuSans-48"/>
       <use x="127.246094" xlink:href="#DejaVuSans-48"/>
      </g>
     </g>
    </g>
    <g id="xtick_7">
     <g id="text_7">
      <!-- 120 -->
      <g transform="translate(907.971016 288.58081)scale(0.08 -0.08)">
       <use xlink:href="#DejaVuSans-49"/>
       <use x="63.623047" xlink:href="#DejaVuSans-50"/>
       <use x="127.246094" xlink:href="#DejaVuSans-48"/>
      </g>
     </g>
    </g>
    <g id="text_8">
     <!-- Length Trimmed (bp) -->
     <g transform="translate(470.915781 301.842998)scale(0.1 -0.1)">
      <defs>
       <path d="M 9.8125 72.90625 
L 19.671875 72.90625 
L 19.671875 8.296875 
L 55.171875 8.296875 
L 55.171875 0 
L 9.8125 0 
z
" id="DejaVuSans-76"/>
       <path d="M 56.203125 29.59375 
L 56.203125 25.203125 
L 14.890625 25.203125 
Q 15.484375 15.921875 20.484375 11.0625 
Q 25.484375 6.203125 34.421875 6.203125 
Q 39.59375 6.203125 44.453125 7.46875 
Q 49.3125 8.734375 54.109375 11.28125 
L 54.109375 2.78125 
Q 49.265625 0.734375 44.1875 -0.34375 
Q 39.109375 -1.421875 33.890625 -1.421875 
Q 20.796875 -1.421875 13.15625 6.1875 
Q 5.515625 13.8125 5.515625 26.8125 
Q 5.515625 40.234375 12.765625 48.109375 
Q 20.015625 56 32.328125 56 
Q 43.359375 56 49.78125 48.890625 
Q 56.203125 41.796875 56.203125 29.59375 
z
M 47.21875 32.234375 
Q 47.125 39.59375 43.09375 43.984375 
Q 39.0625 48.390625 32.421875 48.390625 
Q 24.90625 48.390625 20.390625 44.140625 
Q 15.875 39.890625 15.1875 32.171875 
z
" id="DejaVuSans-101"/>
       <path d="M 54.890625 33.015625 
L 54.890625 0 
L 45.90625 0 
L 45.90625 32.71875 
Q 45.90625 40.484375 42.875 44.328125 
Q 39.84375 48.1875 33.796875 48.1875 
Q 26.515625 48.1875 22.3125 43.546875 
Q 18.109375 38.921875 18.109375 30.90625 
L 18.109375 0 
L 9.078125 0 
L 9.078125 54.6875 
L 18.109375 54.6875 
L 18.109375 46.1875 
Q 21.34375 51.125 25.703125 53.5625 
Q 30.078125 56 35.796875 56 
Q 45.21875 56 50.046875 50.171875 
Q 54.890625 44.34375 54.890625 33.015625 
z
" id="DejaVuSans-110"/>
       <path d="M 45.40625 27.984375 
Q 45.40625 37.75 41.375 43.109375 
Q 37.359375 48.484375 30.078125 48.484375 
Q 22.859375 48.484375 18.828125 43.109375 
Q 14.796875 37.75 14.796875 27.984375 
Q 14.796875 18.265625 18.828125 12.890625 
Q 22.859375 7.515625 30.078125 7.515625 
Q 37.359375 7.515625 41.375 12.890625 
Q 45.40625 18.265625 45.40625 27.984375 
z
M 54.390625 6.78125 
Q 54.390625 -7.171875 48.1875 -13.984375 
Q 42 -20.796875 29.203125 -20.796875 
Q 24.46875 -20.796875 20.265625 -20.09375 
Q 16.0625 -19.390625 12.109375 -17.921875 
L 12.109375 -9.1875 
Q 16.0625 -11.328125 19.921875 -12.34375 
Q 23.78125 -13.375 27.78125 -13.375 
Q 36.625 -13.375 41.015625 -8.765625 
Q 45.40625 -4.15625 45.40625 5.171875 
L 45.40625 9.625 
Q 42.625 4.78125 38.28125 2.390625 
Q 33.9375 0 27.875 0 
Q 17.828125 0 11.671875 7.65625 
Q 5.515625 15.328125 5.515625 27.984375 
Q 5.515625 40.671875 11.671875 48.328125 
Q 17.828125 56 27.875 56 
Q 33.9375 56 38.28125 53.609375 
Q 42.625 51.21875 45.40625 46.390625 
L 45.40625 54.6875 
L 54.390625 54.6875 
z
" id="DejaVuSans-103"/>
       <path d="M 18.3125 70.21875 
L 18.3125 54.6875 
L 36.8125 54.6875 
L 36.8125 47.703125 
L 18.3125 47.703125 
L 18.3125 18.015625 
Q 18.3125 11.328125 20.140625 9.421875 
Q 21.96875 7.515625 27.59375 7.515625 
L 36.8125 7.515625 
L 36.8125 0 
L 27.59375 0 
Q 17.1875 0 13.234375 3.875 
Q 9.28125 7.765625 9.28125 18.015625 
L 9.28125 47.703125 
L 2.6875 47.703125 
L 2.6875 54.6875 
L 9.28125 54.6875 
L 9.28125 70.21875 
z
" id="DejaVuSans-116"/>
       <path d="M 54.890625 33.015625 
L 54.890625 0 
L 45.90625 0 
L 45.90625 32.71875 
Q 45.90625 40.484375 42.875 44.328125 
Q 39.84375 48.1875 33.796875 48.1875 
Q 26.515625 48.1875 22.3125 43.546875 
Q 18.109375 38.921875 18.109375 30.90625 
L 18.109375 0 
L 9.078125 0 
L 9.078125 75.984375 
L 18.109375 75.984375 
L 18.109375 46.1875 
Q 21.34375 51.125 25.703125 53.5625 
Q 30.078125 56 35.796875 56 
Q 45.21875 56 50.046875 50.171875 
Q 54.890625 44.34375 54.890625 33.015625 
z
" id="DejaVuSans-104"/>
       <path id="DejaVuSans-32"/>
       <path d="M -0.296875 72.90625 
L 61.375 72.90625 
L 61.375 64.59375 
L 35.5 64.59375 
L 35.5 0 
L 25.59375 0 
L 25.59375 64.59375 
L -0.296875 64.59375 
z
" id="DejaVuSans-84"/>
       <path d="M 41.109375 46.296875 
Q 39.59375 47.171875 37.8125 47.578125 
Q 36.03125 48 33.890625 48 
Q 26.265625 48 22.1875 43.046875 
Q 18.109375 38.09375 18.109375 28.8125 
L 18.109375 0 
L 9.078125 0 
L 9.078125 54.6875 
L 18.109375 54.6875 
L 18.109375 46.1875 
Q 20.953125 51.171875 25.484375 53.578125 
Q 30.03125 56 36.53125 56 
Q 37.453125 56 38.578125 55.875 
Q 39.703125 55.765625 41.0625 55.515625 
z
" id="DejaVuSans-114"/>
       <path d="M 9.421875 54.6875 
L 18.40625 54.6875 
L 18.40625 0 
L 9.421875 0 
z
M 9.421875 75.984375 
L 18.40625 75.984375 
L 18.40625 64.59375 
L 9.421875 64.59375 
z
" id="DejaVuSans-105"/>
       <path d="M 52 44.1875 
Q 55.375 50.25 60.0625 53.125 
Q 64.75 56 71.09375 56 
Q 79.640625 56 84.28125 50.015625 
Q 88.921875 44.046875 88.921875 33.015625 
L 88.921875 0 
L 79.890625 0 
L 79.890625 32.71875 
Q 79.890625 40.578125 77.09375 44.375 
Q 74.3125 48.1875 68.609375 48.1875 
Q 61.625 48.1875 57.5625 43.546875 
Q 53.515625 38.921875 53.515625 30.90625 
L 53.515625 0 
L 44.484375 0 
L 44.484375 32.71875 
Q 44.484375 40.625 41.703125 44.40625 
Q 38.921875 48.1875 33.109375 48.1875 
Q 26.21875 48.1875 22.15625 43.53125 
Q 18.109375 38.875 18.109375 30.90625 
L 18.109375 0 
L 9.078125 0 
L 9.078125 54.6875 
L 18.109375 54.6875 
L 18.109375 46.1875 
Q 21.1875 51.21875 25.484375 53.609375 
Q 29.78125 56 35.6875 56 
Q 41.65625 56 45.828125 52.96875 
Q 50 49.953125 52 44.1875 
z
" id="DejaVuSans-109"/>
       <path d="M 45.40625 46.390625 
L 45.40625 75.984375 
L 54.390625 75.984375 
L 54.390625 0 
L 45.40625 0 
L 45.40625 8.203125 
Q 42.578125 3.328125 38.25 0.953125 
Q 33.9375 -1.421875 27.875 -1.421875 
Q 17.96875 -1.421875 11.734375 6.484375 
Q 5.515625 14.40625 5.515625 27.296875 
Q 5.515625 40.1875 11.734375 48.09375 
Q 17.96875 56 27.875 56 
Q 33.9375 56 38.25 53.625 
Q 42.578125 51.265625 45.40625 46.390625 
z
M 14.796875 27.296875 
Q 14.796875 17.390625 18.875 11.75 
Q 22.953125 6.109375 30.078125 6.109375 
Q 37.203125 6.109375 41.296875 11.75 
Q 45.40625 17.390625 45.40625 27.296875 
Q 45.40625 37.203125 41.296875 42.84375 
Q 37.203125 48.484375 30.078125 48.484375 
Q 22.953125 48.484375 18.875 42.84375 
Q 14.796875 37.203125 14.796875 27.296875 
z
" id="DejaVuSans-100"/>
       <path d="M 31 75.875 
Q 24.46875 64.65625 21.28125 53.65625 
Q 18.109375 42.671875 18.109375 31.390625 
Q 18.109375 20.125 21.3125 9.0625 
Q 24.515625 -2 31 -13.1875 
L 23.1875 -13.1875 
Q 15.875 -1.703125 12.234375 9.375 
Q 8.59375 20.453125 8.59375 31.390625 
Q 8.59375 42.28125 12.203125 53.3125 
Q 15.828125 64.359375 23.1875 75.875 
z
" id="DejaVuSans-40"/>
       <path d="M 48.6875 27.296875 
Q 48.6875 37.203125 44.609375 42.84375 
Q 40.53125 48.484375 33.40625 48.484375 
Q 26.265625 48.484375 22.1875 42.84375 
Q 18.109375 37.203125 18.109375 27.296875 
Q 18.109375 17.390625 22.1875 11.75 
Q 26.265625 6.109375 33.40625 6.109375 
Q 40.53125 6.109375 44.609375 11.75 
Q 48.6875 17.390625 48.6875 27.296875 
z
M 18.109375 46.390625 
Q 20.953125 51.265625 25.265625 53.625 
Q 29.59375 56 35.59375 56 
Q 45.5625 56 51.78125 48.09375 
Q 58.015625 40.1875 58.015625 27.296875 
Q 58.015625 14.40625 51.78125 6.484375 
Q 45.5625 -1.421875 35.59375 -1.421875 
Q 29.59375 -1.421875 25.265625 0.953125 
Q 20.953125 3.328125 18.109375 8.203125 
L 18.109375 0 
L 9.078125 0 
L 9.078125 75.984375 
L 18.109375 75.984375 
z
" id="DejaVuSans-98"/>
       <path d="M 18.109375 8.203125 
L 18.109375 -20.796875 
L 9.078125 -20.796875 
L 9.078125 54.6875 
L 18.109375 54.6875 
L 18.109375 46.390625 
Q 20.953125 51.265625 25.265625 53.625 
Q 29.59375 56 35.59375 56 
Q 45.5625 56 51.78125 48.09375 
Q 58.015625 40.1875 58.015625 27.296875 
Q 58.015625 14.40625 51.78125 6.484375 
Q 45.5625 -1.421875 35.59375 -1.421875 
Q 29.59375 -1.421875 25.265625 0.953125 
Q 20.953125 3.328125 18.109375 8.203125 
z
M 48.6875 27.296875 
Q 48.6875 37.203125 44.609375 42.84375 
Q 40.53125 48.484375 33.40625 48.484375 
Q 26.265625 48.484375 22.1875 42.84375 
Q 18.109375 37.203125 18.109375 27.296875 
Q 18.109375 17.390625 22.1875 11.75 
Q 26.265625 6.109375 33.40625 6.109375 
Q 40.53125 6.109375 44.609375 11.75 
Q 48.6875 17.390625 48.6875 27.296875 
z
" id="DejaVuSans-112"/>
       <path d="M 8.015625 75.875 
L 15.828125 75.875 
Q 23.140625 64.359375 26.78125 53.3125 
Q 30.421875 42.28125 30.421875 31.390625 
Q 30.421875 20.453125 26.78125 9.375 
Q 23.140625 -1.703125 15.828125 -13.1875 
L 8.015625 -13.1875 
Q 14.5 -2 17.703125 9.0625 
Q 20.90625 20.125 20.90625 31.390625 
Q 20.90625 42.671875 17.703125 53.65625 
Q 14.5 64.65625 8.015625 75.875 
z
" id="DejaVuSans-41"/>
      </defs>
      <use xlink:href="#DejaVuSans-76"/>
      <use x="53.962891" xlink:href="#DejaVuSans-101"/>
      <use x="115.486328" xlink:href="#DejaVuSans-110"/>
      <use x="178.865234" xlink:href="#DejaVuSans-103"/>
      <use x="242.341797" xlink:href="#DejaVuSans-116"/>
      <use x="281.550781" xlink:href="#DejaVuSans-104"/>
      <use x="344.929688" xlink:href="#DejaVuSans-32"/>
      <use x="376.716797" xlink:href="#DejaVuSans-84"/>
      <use x="423.050781" xlink:href="#DejaVuSans-114"/>
      <use x="464.164062" xlink:href="#DejaVuSans-105"/>
      <use x="491.947266" xlink:href="#DejaVuSans-109"/>
      <use x="589.359375" xlink:href="#DejaVuSans-109"/>
      <use x="686.771484" xlink:href="#DejaVuSans-101"/>
      <use x="748.294922" xlink:href="#DejaVuSans-100"/>
      <use x="811.771484" xlink:href="#DejaVuSans-32"/>
      <use x="843.558594" xlink:href="#DejaVuSans-40"/>
      <use x="882.572266" xlink:href="#DejaVuSans-98"/>
      <use x="946.048828" xlink:href="#DejaVuSans-112"/>
      <use x="1009.525391" xlink:href="#DejaVuSans-41"/>
     </g>
    </g>
   </g>
   <g id="matplotlib.axis_2">
    <g id="ytick_1">
     <g id="line2d_1">
      <path clip-path="url(#p2e5a7b6b90)" d="M 53.328125 275.50206 
L 993.358125 275.50206 
" style="fill:none;stroke:#dedede;stroke-linecap:square;"/>
     </g>
     <g id="text_9">
      <!-- 0 -->
      <g transform="translate(41.238125 278.541435)scale(0.08 -0.08)">
       <use xlink:href="#DejaVuSans-48"/>
      </g>
     </g>
    </g>
    <g id="ytick_2">
     <g id="line2d_2">
      <path clip-path="url(#p2e5a7b6b90)" d="M 53.328125 231.140361 
L 993.358125 231.140361 
" style="fill:none;stroke:#dedede;stroke-linecap:square;"/>
     </g>
     <g id="text_10">
      <!-- 5000 -->
      <g transform="translate(25.968125 234.179736)scale(0.08 -0.08)">
       <defs>
        <path d="M 10.796875 72.90625 
L 49.515625 72.90625 
L 49.515625 64.59375 
L 19.828125 64.59375 
L 19.828125 46.734375 
Q 21.96875 47.46875 24.109375 47.828125 
Q 26.265625 48.1875 28.421875 48.1875 
Q 40.625 48.1875 47.75 41.5 
Q 54.890625 34.8125 54.890625 23.390625 
Q 54.890625 11.625 47.5625 5.09375 
Q 40.234375 -1.421875 26.90625 -1.421875 
Q 22.3125 -1.421875 17.546875 -0.640625 
Q 12.796875 0.140625 7.71875 1.703125 
L 7.71875 11.625 
Q 12.109375 9.234375 16.796875 8.0625 
Q 21.484375 6.890625 26.703125 6.890625 
Q 35.15625 6.890625 40.078125 11.328125 
Q 45.015625 15.765625 45.015625 23.390625 
Q 45.015625 31 40.078125 35.4375 
Q 35.15625 39.890625 26.703125 39.890625 
Q 22.75 39.890625 18.8125 39.015625 
Q 14.890625 38.140625 10.796875 36.28125 
z
" id="DejaVuSans-53"/>
       </defs>
       <use xlink:href="#DejaVuSans-53"/>
       <use x="63.623047" xlink:href="#DejaVuSans-48"/>
       <use x="127.246094" xlink:href="#DejaVuSans-48"/>
       <use x="190.869141" xlink:href="#DejaVuSans-48"/>
      </g>
     </g>
    </g>
    <g id="ytick_3">
     <g id="line2d_3">
      <path clip-path="url(#p2e5a7b6b90)" d="M 53.328125 186.778662 
L 993.358125 186.778662 
" style="fill:none;stroke:#dedede;stroke-linecap:square;"/>
     </g>
     <g id="text_11">
      <!-- 10000 -->
      <g transform="translate(20.878125 189.818037)scale(0.08 -0.08)">
       <use xlink:href="#DejaVuSans-49"/>
       <use x="63.623047" xlink:href="#DejaVuSans-48"/>
       <use x="127.246094" xlink:href="#DejaVuSans-48"/>
       <use x="190.869141" xlink:href="#DejaVuSans-48"/>
       <use x="254.492188" xlink:href="#DejaVuSans-48"/>
      </g>
     </g>
    </g>
    <g id="ytick_4">
     <g id="line2d_4">
      <path clip-path="url(#p2e5a7b6b90)" d="M 53.328125 142.416963 
L 993.358125 142.416963 
" style="fill:none;stroke:#dedede;stroke-linecap:square;"/>
     </g>
     <g id="text_12">
      <!-- 15000 -->
      <g transform="translate(20.878125 145.456338)scale(0.08 -0.08)">
       <use xlink:href="#DejaVuSans-49"/>
       <use x="63.623047" xlink:href="#DejaVuSans-53"/>
       <use x="127.246094" xlink:href="#DejaVuSans-48"/>
       <use x="190.869141" xlink:href="#DejaVuSans-48"/>
       <use x="254.492188" xlink:href="#DejaVuSans-48"/>
      </g>
     </g>
    </g>
    <g id="ytick_5">
     <g id="line2d_5">
      <path clip-path="url(#p2e5a7b6b90)" d="M 53.328125 98.055265 
L 993.358125 98.055265 
" style="fill:none;stroke:#dedede;stroke-linecap:square;"/>
     </g>
     <g id="text_13">
      <!-- 20000 -->
      <g transform="translate(20.878125 101.09464)scale(0.08 -0.08)">
       <use xlink:href="#DejaVuSans-50"/>
       <use x="63.623047" xlink:href="#DejaVuSans-48"/>
       <use x="127.246094" xlink:href="#DejaVuSans-48"/>
       <use x="190.869141" xlink:href="#DejaVuSans-48"/>
       <use x="254.492188" xlink:href="#DejaVuSans-48"/>
      </g>
     </g>
    </g>
    <g id="ytick_6">
     <g id="line2d_6">
      <path clip-path="url(#p2e5a7b6b90)" d="M 53.328125 53.693566 
L 993.358125 53.693566 
" style="fill:none;stroke:#dedede;stroke-linecap:square;"/>
     </g>
     <g id="text_14">
      <!-- 25000 -->
      <g transform="translate(20.878125 56.732941)scale(0.08 -0.08)">
       <use xlink:href="#DejaVuSans-50"/>
       <use x="63.623047" xlink:href="#DejaVuSans-53"/>
       <use x="127.246094" xlink:href="#DejaVuSans-48"/>
       <use x="190.869141" xlink:href="#DejaVuSans-48"/>
       <use x="254.492188" xlink:href="#DejaVuSans-48"/>
      </g>
     </g>
    </g>
    <g id="text_15">
     <!-- Count -->
     <g transform="translate(14.798437 168.376897)rotate(-90)scale(0.1 -0.1)">
      <defs>
       <path d="M 64.40625 67.28125 
L 64.40625 56.890625 
Q 59.421875 61.53125 53.78125 63.8125 
Q 48.140625 66.109375 41.796875 66.109375 
Q 29.296875 66.109375 22.65625 58.46875 
Q 16.015625 50.828125 16.015625 36.375 
Q 16.015625 21.96875 22.65625 14.328125 
Q 29.296875 6.6875 41.796875 6.6875 
Q 48.140625 6.6875 53.78125 8.984375 
Q 59.421875 11.28125 64.40625 15.921875 
L 64.40625 5.609375 
Q 59.234375 2.09375 53.4375 0.328125 
Q 47.65625 -1.421875 41.21875 -1.421875 
Q 24.65625 -1.421875 15.125 8.703125 
Q 5.609375 18.84375 5.609375 36.375 
Q 5.609375 53.953125 15.125 64.078125 
Q 24.65625 74.21875 41.21875 74.21875 
Q 47.75 74.21875 53.53125 72.484375 
Q 59.328125 70.75 64.40625 67.28125 
z
" id="DejaVuSans-67"/>
       <path d="M 30.609375 48.390625 
Q 23.390625 48.390625 19.1875 42.75 
Q 14.984375 37.109375 14.984375 27.296875 
Q 14.984375 17.484375 19.15625 11.84375 
Q 23.34375 6.203125 30.609375 6.203125 
Q 37.796875 6.203125 41.984375 11.859375 
Q 46.1875 17.53125 46.1875 27.296875 
Q 46.1875 37.015625 41.984375 42.703125 
Q 37.796875 48.390625 30.609375 48.390625 
z
M 30.609375 56 
Q 42.328125 56 49.015625 48.375 
Q 55.71875 40.765625 55.71875 27.296875 
Q 55.71875 13.875 49.015625 6.21875 
Q 42.328125 -1.421875 30.609375 -1.421875 
Q 18.84375 -1.421875 12.171875 6.21875 
Q 5.515625 13.875 5.515625 27.296875 
Q 5.515625 40.765625 12.171875 48.375 
Q 18.84375 56 30.609375 56 
z
" id="DejaVuSans-111"/>
       <path d="M 8.5 21.578125 
L 8.5 54.6875 
L 17.484375 54.6875 
L 17.484375 21.921875 
Q 17.484375 14.15625 20.5 10.265625 
Q 23.53125 6.390625 29.59375 6.390625 
Q 36.859375 6.390625 41.078125 11.03125 
Q 45.3125 15.671875 45.3125 23.6875 
L 45.3125 54.6875 
L 54.296875 54.6875 
L 54.296875 0 
L 45.3125 0 
L 45.3125 8.40625 
Q 42.046875 3.421875 37.71875 1 
Q 33.40625 -1.421875 27.6875 -1.421875 
Q 18.265625 -1.421875 13.375 4.4375 
Q 8.5 10.296875 8.5 21.578125 
z
M 31.109375 56 
z
" id="DejaVuSans-117"/>
      </defs>
      <use xlink:href="#DejaVuSans-67"/>
      <use x="69.824219" xlink:href="#DejaVuSans-111"/>
      <use x="131.005859" xlink:href="#DejaVuSans-117"/>
      <use x="194.384766" xlink:href="#DejaVuSans-110"/>
      <use x="257.763672" xlink:href="#DejaVuSans-116"/>
     </g>
    </g>
   </g>
   <g id="line2d_7">
    <path clip-path="url(#p2e5a7b6b90)" d="M 96.056761 182.86596 
L 103.061456 264.01238 
L 110.06615 273.807443 
L 117.070845 275.005209 
L 124.075539 274.845507 
L 131.080234 275.218145 
L 138.084928 275.324613 
L 145.089623 274.632571 
L 152.094317 275.35123 
L 159.099012 275.182656 
L 166.103706 275.031826 
L 173.108401 275.262507 
L 180.113095 274.960847 
L 187.11779 275.342358 
L 194.122484 274.960847 
L 201.127179 274.703549 
L 208.131873 275.244762 
L 215.136568 274.7834 
L 222.141262 275.147166 
L 229.145957 274.499486 
L 236.150651 275.227017 
L 243.155346 275.342358 
L 250.16004 274.641443 
L 257.164735 275.342358 
L 264.169429 274.632571 
L 271.174124 274.277677 
L 278.178818 275.23589 
L 285.183512 274.836635 
L 292.188207 275.2004 
L 299.192901 274.490613 
L 306.197596 275.147166 
L 313.20229 274.712422 
L 320.206985 274.508358 
L 327.211679 275.191528 
L 334.216374 275.280252 
L 341.221068 274.561592 
L 348.225763 275.067315 
L 355.230457 273.887294 
L 362.235152 274.419635 
L 369.239846 275.227017 
L 376.244541 274.96972 
L 383.249235 275.173783 
L 390.25393 274.960847 
L 397.258624 274.126847 
L 404.263319 274.623698 
L 411.268013 275.342358 
L 418.272708 274.792273 
L 425.277402 273.993762 
L 432.282097 274.463996 
L 439.286791 273.851805 
L 446.291486 271.846656 
L 453.29618 274.428507 
L 460.300875 273.621124 
L 467.305569 274.694677 
L 474.310264 274.490613 
L 481.314958 274.162337 
L 488.319653 274.747911 
L 495.324347 272.414486 
L 502.329042 274.002635 
L 509.333736 274.410762 
L 516.338431 273.381571 
L 523.343125 272.813741 
L 530.347819 275.093932 
L 537.352514 275.138294 
L 544.357208 274.951975 
L 551.361903 274.827762 
L 558.366597 274.721294 
L 565.371292 275.058443 
L 572.375986 275.262507 
L 579.380681 275.315741 
L 586.385375 275.2004 
L 593.39007 274.951975 
L 600.394764 274.561592 
L 607.399459 273.922784 
L 614.404153 274.064741 
L 621.408848 273.98489 
L 628.413542 274.25106 
L 635.418237 274.117975 
L 642.422931 273.976018 
L 649.427626 274.082486 
L 656.43232 274.339783 
L 663.437015 274.393018 
L 670.441709 274.393018 
L 677.446404 274.66806 
L 684.451098 274.659188 
L 691.455793 274.481741 
L 698.460487 274.570464 
L 705.465182 274.455124 
L 712.469876 274.481741 
L 719.474571 274.597081 
L 726.479265 274.481741 
L 733.48396 274.384145 
L 740.488654 274.384145 
L 747.493349 274.348656 
L 754.498043 274.526103 
L 761.502738 274.499486 
L 768.507432 274.330911 
L 775.512126 274.082486 
L 782.516821 273.363826 
L 789.521515 272.893592 
L 796.52621 271.624848 
L 803.530904 270.897316 
L 810.535599 269.903614 
L 817.540293 269.956848 
L 824.544988 270.152039 
L 831.549682 270.781975 
L 838.554377 271.678082 
L 845.559071 272.822613 
L 852.563766 273.45255 
L 859.56846 274.10023 
L 866.573155 274.712422 
L 873.577849 274.996337 
L 880.582544 275.280252 
L 887.587238 275.315741 
L 894.591933 275.280252 
L 901.596627 275.262507 
L 908.601322 275.138294 
L 915.606016 275.102805 
L 922.610711 275.253634 
L 929.615405 275.014081 
L 936.6201 274.93423 
L 943.624794 274.916486 
L 950.629489 274.730166 
" style="fill:none;stroke:#7cb5ec;stroke-linecap:square;"/>
   </g>
   <g id="line2d_8">
    <path clip-path="url(#p2e5a7b6b90)" d="M 96.056761 164.863983 
L 103.061456 265.174657 
L 110.06615 273.408188 
L 117.070845 275.067315 
L 124.075539 274.836635 
L 131.080234 275.306869 
L 138.084928 275.342358 
L 145.089623 274.739039 
L 152.094317 275.422209 
L 159.099012 275.138294 
L 166.103706 275.093932 
L 173.108401 275.306869 
L 180.113095 275.058443 
L 187.11779 275.422209 
L 194.122484 275.076188 
L 201.127179 274.801145 
L 208.131873 275.475443 
L 215.136568 274.756783 
L 222.141262 275.289124 
L 229.145957 274.747911 
L 236.150651 275.182656 
L 243.155346 275.297996 
L 250.16004 274.650315 
L 257.164735 275.360103 
L 264.169429 274.836635 
L 271.174124 274.712422 
L 278.178818 275.280252 
L 285.183512 275.08506 
L 292.188207 275.35123 
L 299.192901 274.721294 
L 306.197596 275.262507 
L 313.20229 274.792273 
L 320.206985 274.801145 
L 327.211679 275.227017 
L 334.216374 275.360103 
L 341.221068 274.694677 
L 348.225763 275.209273 
L 355.230457 273.45255 
L 362.235152 274.605954 
L 369.239846 275.244762 
L 376.244541 275.138294 
L 383.249235 275.315741 
L 390.25393 274.721294 
L 397.258624 274.384145 
L 404.263319 274.996337 
L 411.268013 275.38672 
L 418.272708 275.040698 
L 425.277402 274.13572 
L 432.282097 274.51723 
L 439.286791 273.976018 
L 446.291486 271.811167 
L 453.29618 274.330911 
L 460.300875 273.656613 
L 467.305569 274.854379 
L 474.310264 274.650315 
L 481.314958 274.144592 
L 488.319653 274.951975 
L 495.324347 272.272528 
L 502.329042 273.780826 
L 509.333736 274.55272 
L 516.338431 273.505784 
L 523.343125 273.41706 
L 530.347819 275.164911 
L 537.352514 275.280252 
L 544.357208 274.96972 
L 551.361903 274.996337 
L 558.366597 275.08506 
L 565.371292 275.102805 
L 572.375986 275.23589 
L 579.380681 275.289124 
L 586.385375 275.164911 
L 593.39007 274.943103 
L 600.394764 274.410762 
L 607.399459 273.976018 
L 614.404153 273.931656 
L 621.408848 273.887294 
L 628.413542 274.126847 
L 635.418237 274.13572 
L 642.422931 274.020379 
L 649.427626 274.348656 
L 656.43232 274.10023 
L 663.437015 274.117975 
L 670.441709 273.976018 
L 677.446404 274.25106 
L 684.451098 273.887294 
L 691.455793 273.83406 
L 698.460487 273.408188 
L 705.465182 273.044422 
L 712.469876 272.245911 
L 719.474571 271.509507 
L 726.479265 270.790848 
L 733.48396 269.761656 
L 740.488654 269.43338 
L 747.493349 269.273677 
L 754.498043 267.508082 
L 761.502738 266.878146 
L 768.507432 266.709571 
L 775.512126 266.487763 
L 782.516821 265.644891 
L 789.521515 266.06189 
L 796.52621 265.94655 
L 803.530904 265.79572 
L 810.535599 266.106252 
L 817.540293 266.452273 
L 824.544988 267.481465 
L 831.549682 268.812316 
L 838.554377 270.311741 
L 845.559071 271.394167 
L 852.563766 272.485464 
L 859.56846 273.798571 
L 866.573155 274.428507 
L 873.577849 274.943103 
L 880.582544 275.182656 
L 887.587238 275.271379 
L 894.591933 275.280252 
L 901.596627 275.244762 
L 908.601322 275.35123 
L 915.606016 275.297996 
L 922.610711 275.182656 
L 929.615405 275.23589 
L 936.6201 275.377847 
L 943.624794 275.227017 
L 950.629489 274.960847 
" style="fill:none;stroke:#434348;stroke-linecap:square;"/>
   </g>
   <g id="line2d_9">
    <path clip-path="url(#p2e5a7b6b90)" d="M 96.056761 120.076412 
L 103.061456 258.653487 
L 110.06615 273.124273 
L 117.070845 274.836635 
L 124.075539 273.940528 
L 131.080234 274.987464 
L 138.084928 275.147166 
L 145.089623 273.842932 
L 152.094317 275.218145 
L 159.099012 274.827762 
L 166.103706 274.739039 
L 173.108401 275.182656 
L 180.113095 274.703549 
L 187.11779 275.227017 
L 194.122484 274.712422 
L 201.127179 274.393018 
L 208.131873 275.164911 
L 215.136568 274.366401 
L 222.141262 274.880996 
L 229.145957 273.869549 
L 236.150651 275.049571 
L 243.155346 275.253634 
L 250.16004 273.860677 
L 257.164735 275.138294 
L 264.169429 274.295422 
L 271.174124 273.629996 
L 278.178818 275.005209 
L 285.183512 274.428507 
L 292.188207 274.978592 
L 299.192901 273.603379 
L 306.197596 274.987464 
L 313.20229 273.958273 
L 320.206985 274.197826 
L 327.211679 275.040698 
L 334.216374 274.925358 
L 341.221068 273.603379 
L 348.225763 274.703549 
L 355.230457 271.89989 
L 362.235152 273.505784 
L 369.239846 274.960847 
L 376.244541 274.597081 
L 383.249235 274.96972 
L 390.25393 274.268805 
L 397.258624 272.778252 
L 404.263319 274.020379 
L 411.268013 275.244762 
L 418.272708 274.10023 
L 425.277402 272.343507 
L 432.282097 273.425932 
L 439.286791 271.873273 
L 446.291486 267.002359 
L 453.29618 272.458847 
L 460.300875 271.429656 
L 467.305569 273.700975 
L 474.310264 273.45255 
L 481.314958 272.84923 
L 488.319653 274.109103 
L 495.324347 268.812316 
L 502.329042 272.157188 
L 509.333736 273.461422 
L 516.338431 271.119124 
L 523.343125 269.894741 
L 530.347819 274.605954 
L 537.352514 274.774528 
L 544.357208 274.561592 
L 551.361903 274.339783 
L 558.366597 274.357528 
L 565.371292 274.650315 
L 572.375986 274.96972 
L 579.380681 275.111677 
L 586.385375 274.765656 
L 593.39007 273.940528 
L 600.394764 272.955698 
L 607.399459 272.441103 
L 614.404153 272.245911 
L 621.408848 272.157188 
L 628.413542 272.520954 
L 635.418237 272.299145 
L 642.422931 272.671784 
L 649.427626 272.405613 
L 656.43232 272.778252 
L 663.437015 272.698401 
L 670.441709 272.991188 
L 677.446404 273.292847 
L 684.451098 273.45255 
L 691.455793 273.425932 
L 698.460487 273.372698 
L 705.465182 273.292847 
L 712.469876 273.337209 
L 719.474571 273.488039 
L 726.479265 273.346081 
L 733.48396 273.26623 
L 740.488654 273.559018 
L 747.493349 273.638869 
L 754.498043 273.692103 
L 761.502738 273.709847 
L 768.507432 272.707273 
L 775.512126 272.183805 
L 782.516821 270.790848 
L 789.521515 269.451124 
L 796.52621 267.632295 
L 803.530904 265.884444 
L 810.535599 264.16321 
L 817.540293 264.713295 
L 824.544988 265.458571 
L 831.549682 267.028976 
L 838.554377 268.634869 
L 845.559071 270.489188 
L 852.563766 272.476592 
L 859.56846 273.221869 
L 866.573155 273.940528 
L 873.577849 274.676932 
L 880.582544 275.022954 
L 887.587238 274.81889 
L 894.591933 275.2004 
L 901.596627 275.049571 
L 908.601322 274.721294 
L 915.606016 274.774528 
L 922.610711 274.93423 
L 929.615405 274.7834 
L 936.6201 274.93423 
L 943.624794 274.570464 
L 950.629489 274.534975 
" style="fill:none;stroke:#90ed7d;stroke-linecap:square;"/>
   </g>
   <g id="line2d_10">
    <path clip-path="url(#p2e5a7b6b90)" d="M 96.056761 227.067957 
L 103.061456 271.323188 
L 110.06615 274.810017 
L 117.070845 275.35123 
L 124.075539 275.209273 
L 131.080234 275.448826 
L 138.084928 275.457698 
L 145.089623 275.182656 
L 152.094317 275.422209 
L 159.099012 275.431081 
L 166.103706 275.324613 
L 173.108401 275.475443 
L 180.113095 275.35123 
L 187.11779 275.475443 
L 194.122484 275.377847 
L 201.127179 275.23589 
L 208.131873 275.466571 
L 215.136568 275.360103 
L 222.141262 275.422209 
L 229.145957 275.227017 
L 236.150651 275.38672 
L 243.155346 275.38672 
L 250.16004 275.23589 
L 257.164735 275.448826 
L 264.169429 275.342358 
L 271.174124 275.23589 
L 278.178818 275.431081 
L 285.183512 275.315741 
L 292.188207 275.413337 
L 299.192901 275.244762 
L 306.197596 275.431081 
L 313.20229 275.2004 
L 320.206985 275.280252 
L 327.211679 275.457698 
L 334.216374 275.38672 
L 341.221068 275.191528 
L 348.225763 275.448826 
L 355.230457 274.987464 
L 362.235152 275.271379 
L 369.239846 275.448826 
L 376.244541 275.315741 
L 383.249235 275.431081 
L 390.25393 275.35123 
L 397.258624 275.005209 
L 404.263319 275.315741 
L 411.268013 275.475443 
L 418.272708 275.35123 
L 425.277402 274.93423 
L 432.282097 275.209273 
L 439.286791 274.845507 
L 446.291486 274.366401 
L 453.29618 275.058443 
L 460.300875 274.907613 
L 467.305569 275.38672 
L 474.310264 275.262507 
L 481.314958 275.164911 
L 488.319653 275.262507 
L 495.324347 274.499486 
L 502.329042 275.005209 
L 509.333736 275.262507 
L 516.338431 274.889869 
L 523.343125 274.801145 
L 530.347819 275.377847 
L 537.352514 275.422209 
L 544.357208 275.333486 
L 551.361903 275.315741 
L 558.366597 275.297996 
L 565.371292 275.38672 
L 572.375986 275.404464 
L 579.380681 275.413337 
L 586.385375 275.35123 
L 593.39007 275.306869 
L 600.394764 275.129422 
L 607.399459 275.156039 
L 614.404153 275.138294 
L 621.408848 275.093932 
L 628.413542 275.156039 
L 635.418237 275.093932 
L 642.422931 275.049571 
L 649.427626 275.164911 
L 656.43232 275.156039 
L 663.437015 275.306869 
L 670.441709 275.2004 
L 677.446404 275.156039 
L 684.451098 275.324613 
L 691.455793 275.156039 
L 698.460487 275.23589 
L 705.465182 275.253634 
L 712.469876 275.289124 
L 719.474571 275.164911 
L 726.479265 275.218145 
L 733.48396 275.244762 
L 740.488654 275.333486 
L 747.493349 275.147166 
L 754.498043 275.23589 
L 761.502738 275.2004 
L 768.507432 275.067315 
L 775.512126 274.996337 
L 782.516821 274.863252 
L 789.521515 274.534975 
L 796.52621 274.366401 
L 803.530904 274.162337 
L 810.535599 274.304294 
L 817.540293 274.011507 
L 824.544988 274.375273 
L 831.549682 274.348656 
L 838.554377 274.570464 
L 845.559071 274.81889 
L 852.563766 275.164911 
L 859.56846 275.244762 
L 866.573155 275.360103 
L 873.577849 275.35123 
L 880.582544 275.457698 
L 887.587238 275.466571 
L 894.591933 275.431081 
L 901.596627 275.395592 
L 908.601322 275.422209 
L 915.606016 275.422209 
L 922.610711 275.431081 
L 929.615405 275.360103 
L 936.6201 275.38672 
L 943.624794 275.209273 
L 950.629489 275.227017 
" style="fill:none;stroke:#f7a35c;stroke-linecap:square;"/>
   </g>
   <g id="line2d_11">
    <path clip-path="url(#p2e5a7b6b90)" d="M 96.056761 174.871982 
L 103.061456 267.862975 
L 110.06615 274.322039 
L 117.070845 275.306869 
L 124.075539 275.280252 
L 131.080234 275.404464 
L 138.084928 275.404464 
L 145.089623 275.111677 
L 152.094317 275.457698 
L 159.099012 275.333486 
L 166.103706 275.262507 
L 173.108401 275.475443 
L 180.113095 275.368975 
L 187.11779 275.475443 
L 194.122484 275.315741 
L 201.127179 275.227017 
L 208.131873 275.439954 
L 215.136568 275.271379 
L 222.141262 275.413337 
L 229.145957 275.164911 
L 236.150651 275.368975 
L 243.155346 275.431081 
L 250.16004 275.156039 
L 257.164735 275.475443 
L 264.169429 275.156039 
L 271.174124 275.031826 
L 278.178818 275.413337 
L 285.183512 275.280252 
L 292.188207 275.457698 
L 299.192901 275.129422 
L 306.197596 275.448826 
L 313.20229 275.058443 
L 320.206985 275.129422 
L 327.211679 275.324613 
L 334.216374 275.395592 
L 341.221068 275.253634 
L 348.225763 275.360103 
L 355.230457 274.614826 
L 362.235152 275.218145 
L 369.239846 275.342358 
L 376.244541 275.368975 
L 383.249235 275.395592 
L 390.25393 275.2004 
L 397.258624 274.925358 
L 404.263319 275.209273 
L 411.268013 275.466571 
L 418.272708 275.227017 
L 425.277402 274.916486 
L 432.282097 274.987464 
L 439.286791 274.463996 
L 446.291486 273.931656 
L 453.29618 274.960847 
L 460.300875 274.614826 
L 467.305569 275.227017 
L 474.310264 275.067315 
L 481.314958 274.872124 
L 488.319653 275.164911 
L 495.324347 274.011507 
L 502.329042 274.747911 
L 509.333736 275.005209 
L 516.338431 274.614826 
L 523.343125 274.446252 
L 530.347819 275.324613 
L 537.352514 275.404464 
L 544.357208 275.164911 
L 551.361903 275.244762 
L 558.366597 275.333486 
L 565.371292 275.38672 
L 572.375986 275.377847 
L 579.380681 275.422209 
L 586.385375 275.395592 
L 593.39007 275.182656 
L 600.394764 275.005209 
L 607.399459 274.907613 
L 614.404153 274.792273 
L 621.408848 274.863252 
L 628.413542 274.676932 
L 635.418237 274.836635 
L 642.422931 274.739039 
L 649.427626 274.889869 
L 656.43232 274.845507 
L 663.437015 274.93423 
L 670.441709 275.040698 
L 677.446404 274.889869 
L 684.451098 275.022954 
L 691.455793 274.747911 
L 698.460487 274.836635 
L 705.465182 274.81889 
L 712.469876 274.694677 
L 719.474571 274.694677 
L 726.479265 274.579337 
L 733.48396 274.322039 
L 740.488654 274.268805 
L 747.493349 274.25106 
L 754.498043 274.10023 
L 761.502738 273.949401 
L 768.507432 273.68323 
L 775.512126 273.372698 
L 782.516821 273.372698 
L 789.521515 273.310592 
L 796.52621 272.920209 
L 803.530904 272.787124 
L 810.535599 273.026677 
L 817.540293 273.372698 
L 824.544988 273.763081 
L 831.549682 274.038124 
L 838.554377 274.579337 
L 845.559071 274.66806 
L 852.563766 275.005209 
L 859.56846 275.049571 
L 866.573155 275.315741 
L 873.577849 275.324613 
L 880.582544 275.431081 
L 887.587238 275.377847 
L 894.591933 275.475443 
L 901.596627 275.404464 
L 908.601322 275.422209 
L 915.606016 275.422209 
L 922.610711 275.38672 
L 929.615405 275.368975 
L 936.6201 275.191528 
L 943.624794 275.244762 
L 950.629489 275.368975 
" style="fill:none;stroke:#8085e9;stroke-linecap:square;"/>
   </g>
   <g id="line2d_12">
    <path clip-path="url(#p2e5a7b6b90)" d="M 96.056761 130.705475 
L 103.061456 249.044743 
L 110.06615 273.408188 
L 117.070845 274.694677 
L 124.075539 273.905039 
L 131.080234 274.943103 
L 138.084928 275.2004 
L 145.089623 273.83406 
L 152.094317 275.262507 
L 159.099012 275.022954 
L 166.103706 274.40189 
L 173.108401 275.156039 
L 180.113095 274.597081 
L 187.11779 275.191528 
L 194.122484 274.393018 
L 201.127179 273.700975 
L 208.131873 275.08506 
L 215.136568 273.967145 
L 222.141262 274.570464 
L 229.145957 273.408188 
L 236.150651 274.854379 
L 243.155346 275.076188 
L 250.16004 273.709847 
L 257.164735 275.049571 
L 264.169429 273.745337 
L 271.174124 273.044422 
L 278.178818 274.632571 
L 285.183512 274.25106 
L 292.188207 275.111677 
L 299.192901 273.053294 
L 306.197596 274.7834 
L 313.20229 273.115401 
L 320.206985 273.745337 
L 327.211679 274.827762 
L 334.216374 274.996337 
L 341.221068 273.30172 
L 348.225763 274.650315 
L 355.230457 271.003784 
L 362.235152 273.248486 
L 369.239846 274.774528 
L 376.244541 274.463996 
L 383.249235 274.880996 
L 390.25393 273.98489 
L 397.258624 272.387869 
L 404.263319 273.629996 
L 411.268013 275.138294 
L 418.272708 273.656613 
L 425.277402 271.491762 
L 432.282097 273.097656 
L 439.286791 271.624848 
L 446.291486 265.937678 
L 453.29618 272.458847 
L 460.300875 270.852954 
L 467.305569 273.736464 
L 474.310264 272.991188 
L 481.314958 272.645167 
L 488.319653 273.869549 
L 495.324347 267.969444 
L 502.329042 271.704699 
L 509.333736 272.88472 
L 516.338431 270.657762 
L 523.343125 269.477741 
L 530.347819 274.55272 
L 537.352514 274.747911 
L 544.357208 274.348656 
L 551.361903 274.011507 
L 558.366597 274.011507 
L 565.371292 274.330911 
L 572.375986 274.889869 
L 579.380681 274.987464 
L 586.385375 274.845507 
L 593.39007 273.931656 
L 600.394764 273.062167 
L 607.399459 272.130571 
L 614.404153 272.086209 
L 621.408848 272.130571 
L 628.413542 272.024103 
L 635.418237 272.370124 
L 642.422931 272.308018 
L 649.427626 272.272528 
L 656.43232 272.387869 
L 663.437015 272.840358 
L 670.441709 272.858103 
L 677.446404 272.946826 
L 684.451098 272.946826 
L 691.455793 273.026677 
L 698.460487 272.982316 
L 705.465182 273.142018 
L 712.469876 272.813741 
L 719.474571 272.937954 
L 726.479265 273.03555 
L 733.48396 272.84923 
L 740.488654 273.124273 
L 747.493349 273.212996 
L 754.498043 273.257358 
L 761.502738 273.159762 
L 768.507432 272.58306 
L 775.512126 271.802294 
L 782.516821 269.885869 
L 789.521515 268.013805 
L 796.52621 265.369848 
L 803.530904 263.426806 
L 810.535599 261.004657 
L 817.540293 261.883018 
L 824.544988 262.637167 
L 831.549682 264.198699 
L 838.554377 266.221593 
L 845.559071 268.909912 
L 852.563766 270.897316 
L 859.56846 272.58306 
L 866.573155 273.461422 
L 873.577849 274.233315 
L 880.582544 274.925358 
L 887.587238 274.960847 
L 894.591933 275.040698 
L 901.596627 274.960847 
L 908.601322 274.632571 
L 915.606016 274.597081 
L 922.610711 274.384145 
L 929.615405 274.55272 
L 936.6201 274.508358 
L 943.624794 274.393018 
L 950.629489 274.463996 
" style="fill:none;stroke:#f15c80;stroke-linecap:square;"/>
   </g>
   <g id="line2d_13">
    <path clip-path="url(#p2e5a7b6b90)" d="M 96.056761 43.170971 
L 103.061456 243.91653 
L 110.06615 271.935379 
L 117.070845 274.66806 
L 124.075539 274.322039 
L 131.080234 275.040698 
L 138.084928 275.209273 
L 145.089623 273.665486 
L 152.094317 275.058443 
L 159.099012 274.765656 
L 166.103706 274.277677 
L 173.108401 275.262507 
L 180.113095 274.66806 
L 187.11779 275.280252 
L 194.122484 274.55272 
L 201.127179 274.002635 
L 208.131873 275.164911 
L 215.136568 273.976018 
L 222.141262 274.96972 
L 229.145957 273.771954 
L 236.150651 275.005209 
L 243.155346 275.102805 
L 250.16004 274.029252 
L 257.164735 275.182656 
L 264.169429 273.913911 
L 271.174124 273.603379 
L 278.178818 274.925358 
L 285.183512 274.597081 
L 292.188207 275.156039 
L 299.192901 273.488039 
L 306.197596 274.845507 
L 313.20229 273.532401 
L 320.206985 273.789698 
L 327.211679 274.889869 
L 334.216374 275.102805 
L 341.221068 273.83406 
L 348.225763 274.93423 
L 355.230457 271.429656 
L 362.235152 273.68323 
L 369.239846 274.996337 
L 376.244541 274.534975 
L 383.249235 275.014081 
L 390.25393 273.98489 
L 397.258624 272.654039 
L 404.263319 274.180081 
L 411.268013 275.182656 
L 418.272708 274.162337 
L 425.277402 272.006358 
L 432.282097 273.071039 
L 439.286791 271.172358 
L 446.291486 266.594231 
L 453.29618 272.041847 
L 460.300875 270.320614 
L 467.305569 273.71872 
L 474.310264 273.088784 
L 481.314958 272.476592 
L 488.319653 273.68323 
L 495.324347 268.546146 
L 502.329042 271.101379 
L 509.333736 273.26623 
L 516.338431 271.190103 
L 523.343125 270.107677 
L 530.347819 274.712422 
L 537.352514 274.694677 
L 544.357208 274.357528 
L 551.361903 274.206698 
L 558.366597 273.798571 
L 565.371292 274.455124 
L 572.375986 274.907613 
L 579.380681 274.81889 
L 586.385375 274.845507 
L 593.39007 273.993762 
L 600.394764 272.991188 
L 607.399459 272.219294 
L 614.404153 271.731316 
L 621.408848 271.553869 
L 628.413542 271.615975 
L 635.418237 271.695826 
L 642.422931 272.139443 
L 649.427626 272.662911 
L 656.43232 272.787124 
L 663.437015 272.88472 
L 670.441709 272.565316 
L 677.446404 273.044422 
L 684.451098 273.053294 
L 691.455793 272.822613 
L 698.460487 272.689528 
L 705.465182 272.192677 
L 712.469876 271.997486 
L 719.474571 271.536124 
L 726.479265 270.906188 
L 733.48396 270.666635 
L 740.488654 270.693252 
L 747.493349 270.64889 
L 754.498043 270.418209 
L 761.502738 270.107677 
L 768.507432 268.856678 
L 775.512126 268.084784 
L 782.516821 266.310316 
L 789.521515 264.109976 
L 796.52621 263.621997 
L 803.530904 261.847529 
L 810.535599 261.989487 
L 817.540293 262.929955 
L 824.544988 265.085933 
L 831.549682 266.93138 
L 838.554377 268.989763 
L 845.559071 271.438528 
L 852.563766 272.538699 
L 859.56846 273.967145 
L 866.573155 274.632571 
L 873.577849 274.810017 
L 880.582544 275.191528 
L 887.587238 275.049571 
L 894.591933 275.253634 
L 901.596627 275.191528 
L 908.601322 274.863252 
L 915.606016 274.579337 
L 922.610711 274.499486 
L 929.615405 274.960847 
L 936.6201 274.943103 
L 943.624794 274.66806 
L 950.629489 274.197826 
" style="fill:none;stroke:#e4d354;stroke-linecap:square;"/>
   </g>
   <g id="line2d_14">
    <path clip-path="url(#p2e5a7b6b90)" d="M 96.056761 199.723406 
L 103.061456 269.39789 
L 110.06615 274.472869 
L 117.070845 275.422209 
L 124.075539 275.342358 
L 131.080234 275.484315 
L 138.084928 275.475443 
L 145.089623 275.342358 
L 152.094317 275.377847 
L 159.099012 275.448826 
L 166.103706 275.404464 
L 173.108401 275.475443 
L 180.113095 275.404464 
L 187.11779 275.466571 
L 194.122484 275.439954 
L 201.127179 275.297996 
L 208.131873 275.404464 
L 215.136568 275.368975 
L 222.141262 275.413337 
L 229.145957 275.289124 
L 236.150651 275.431081 
L 243.155346 275.422209 
L 250.16004 275.147166 
L 257.164735 275.413337 
L 264.169429 275.413337 
L 271.174124 275.297996 
L 278.178818 275.448826 
L 285.183512 275.395592 
L 292.188207 275.457698 
L 299.192901 275.280252 
L 306.197596 275.457698 
L 313.20229 275.227017 
L 320.206985 275.324613 
L 327.211679 275.422209 
L 334.216374 275.431081 
L 341.221068 275.342358 
L 348.225763 275.431081 
L 355.230457 275.209273 
L 362.235152 275.209273 
L 369.239846 275.422209 
L 376.244541 275.431081 
L 383.249235 275.413337 
L 390.25393 275.368975 
L 397.258624 275.244762 
L 404.263319 275.368975 
L 411.268013 275.484315 
L 418.272708 275.297996 
L 425.277402 275.093932 
L 432.282097 275.306869 
L 439.286791 275.147166 
L 446.291486 274.7834 
L 453.29618 275.164911 
L 460.300875 275.076188 
L 467.305569 275.35123 
L 474.310264 275.271379 
L 481.314958 275.271379 
L 488.319653 275.262507 
L 495.324347 274.845507 
L 502.329042 275.067315 
L 509.333736 275.253634 
L 516.338431 275.191528 
L 523.343125 274.907613 
L 530.347819 275.475443 
L 537.352514 275.413337 
L 544.357208 275.395592 
L 551.361903 275.35123 
L 558.366597 275.306869 
L 565.371292 275.38672 
L 572.375986 275.466571 
L 579.380681 275.448826 
L 586.385375 275.439954 
L 593.39007 275.368975 
L 600.394764 275.227017 
L 607.399459 275.227017 
L 614.404153 275.164911 
L 621.408848 275.067315 
L 628.413542 275.040698 
L 635.418237 275.156039 
L 642.422931 275.076188 
L 649.427626 275.093932 
L 656.43232 275.191528 
L 663.437015 275.156039 
L 670.441709 275.138294 
L 677.446404 275.156039 
L 684.451098 275.23589 
L 691.455793 275.227017 
L 698.460487 275.253634 
L 705.465182 275.244762 
L 712.469876 275.315741 
L 719.474571 275.182656 
L 726.479265 275.218145 
L 733.48396 275.156039 
L 740.488654 275.120549 
L 747.493349 275.120549 
L 754.498043 275.120549 
L 761.502738 275.111677 
L 768.507432 274.987464 
L 775.512126 274.872124 
L 782.516821 274.694677 
L 789.521515 274.393018 
L 796.52621 273.931656 
L 803.530904 273.905039 
L 810.535599 273.425932 
L 817.540293 273.541273 
L 824.544988 273.727592 
L 831.549682 274.126847 
L 838.554377 274.153464 
L 845.559071 274.641443 
L 852.563766 274.987464 
L 859.56846 275.129422 
L 866.573155 275.315741 
L 873.577849 275.289124 
L 880.582544 275.377847 
L 887.587238 275.404464 
L 894.591933 275.439954 
L 901.596627 275.439954 
L 908.601322 275.431081 
L 915.606016 275.377847 
L 922.610711 275.431081 
L 929.615405 275.38672 
L 936.6201 275.35123 
L 943.624794 275.466571 
L 950.629489 275.38672 
" style="fill:none;stroke:#2b908f;stroke-linecap:square;"/>
   </g>
   <g id="line2d_15">
    <path clip-path="url(#p2e5a7b6b90)" d="M 96.056761 198.357066 
L 103.061456 268.288848 
L 110.06615 274.109103 
L 117.070845 275.368975 
L 124.075539 275.209273 
L 131.080234 275.431081 
L 138.084928 275.439954 
L 145.089623 275.138294 
L 152.094317 275.404464 
L 159.099012 275.35123 
L 166.103706 275.244762 
L 173.108401 275.395592 
L 180.113095 275.218145 
L 187.11779 275.395592 
L 194.122484 275.147166 
L 201.127179 275.049571 
L 208.131873 275.333486 
L 215.136568 275.191528 
L 222.141262 275.306869 
L 229.145957 274.987464 
L 236.150651 275.342358 
L 243.155346 275.377847 
L 250.16004 275.022954 
L 257.164735 275.289124 
L 264.169429 275.173783 
L 271.174124 275.022954 
L 278.178818 275.218145 
L 285.183512 275.209273 
L 292.188207 275.333486 
L 299.192901 275.014081 
L 306.197596 275.395592 
L 313.20229 275.067315 
L 320.206985 275.031826 
L 327.211679 275.333486 
L 334.216374 275.253634 
L 341.221068 275.08506 
L 348.225763 275.342358 
L 355.230457 274.676932 
L 362.235152 275.129422 
L 369.239846 275.333486 
L 376.244541 275.289124 
L 383.249235 275.377847 
L 390.25393 275.138294 
L 397.258624 274.907613 
L 404.263319 275.138294 
L 411.268013 275.448826 
L 418.272708 275.111677 
L 425.277402 274.614826 
L 432.282097 274.810017 
L 439.286791 274.446252 
L 446.291486 273.425932 
L 453.29618 274.659188 
L 460.300875 274.508358 
L 467.305569 275.049571 
L 474.310264 275.102805 
L 481.314958 274.845507 
L 488.319653 275.022954 
L 495.324347 273.763081 
L 502.329042 274.534975 
L 509.333736 274.898741 
L 516.338431 274.51723 
L 523.343125 274.091358 
L 530.347819 275.280252 
L 537.352514 275.280252 
L 544.357208 275.280252 
L 551.361903 275.218145 
L 558.366597 275.262507 
L 565.371292 275.164911 
L 572.375986 275.404464 
L 579.380681 275.38672 
L 586.385375 275.289124 
L 593.39007 275.093932 
L 600.394764 274.987464 
L 607.399459 274.721294 
L 614.404153 274.836635 
L 621.408848 274.508358 
L 628.413542 274.694677 
L 635.418237 274.7834 
L 642.422931 274.561592 
L 649.427626 274.597081 
L 656.43232 274.827762 
L 663.437015 274.605954 
L 670.441709 274.987464 
L 677.446404 274.951975 
L 684.451098 274.960847 
L 691.455793 275.049571 
L 698.460487 274.81889 
L 705.465182 274.925358 
L 712.469876 274.81889 
L 719.474571 274.96972 
L 726.479265 274.7834 
L 733.48396 274.845507 
L 740.488654 274.907613 
L 747.493349 274.721294 
L 754.498043 274.730166 
L 761.502738 274.579337 
L 768.507432 274.384145 
L 775.512126 273.665486 
L 782.516821 272.973443 
L 789.521515 271.935379 
L 796.52621 270.338358 
L 803.530904 269.238188 
L 810.535599 268.111401 
L 817.540293 267.667784 
L 824.544988 267.72989 
L 831.549682 269.575337 
L 838.554377 270.391592 
L 845.559071 272.627422 
L 852.563766 273.541273 
L 859.56846 274.597081 
L 866.573155 274.925358 
L 873.577849 275.156039 
L 880.582544 275.360103 
L 887.587238 275.377847 
L 894.591933 275.439954 
L 901.596627 275.475443 
L 908.601322 275.422209 
L 915.606016 275.422209 
L 922.610711 275.404464 
L 929.615405 275.439954 
L 936.6201 275.297996 
L 943.624794 275.244762 
L 950.629489 275.093932 
" style="fill:none;stroke:#f45b5b;stroke-linecap:square;"/>
   </g>
   <g id="line2d_16">
    <path clip-path="url(#p2e5a7b6b90)" d="M 96.056761 275.38672 
L 110.06615 275.493188 
L 138.084928 275.493188 
L 145.089623 275.493188 
L 159.099012 275.493188 
L 180.113095 275.493188 
L 187.11779 275.493188 
L 201.127179 275.484315 
L 215.136568 275.493188 
L 250.16004 275.484315 
L 257.164735 275.493188 
L 278.178818 275.493188 
L 285.183512 275.484315 
L 292.188207 275.484315 
L 320.206985 275.475443 
L 327.211679 275.493188 
L 334.216374 275.493188 
L 341.221068 275.493188 
L 355.230457 275.493188 
L 362.235152 275.493188 
L 369.239846 275.493188 
L 411.268013 275.493188 
L 418.272708 275.493188 
L 425.277402 275.493188 
L 432.282097 275.493188 
L 446.291486 275.484315 
L 467.305569 275.493188 
L 481.314958 275.493188 
L 488.319653 275.493188 
L 656.43232 275.493188 
L 670.441709 275.484315 
L 677.446404 275.493188 
L 754.498043 275.493188 
L 789.521515 275.484315 
L 796.52621 275.466571 
L 803.530904 275.475443 
L 817.540293 275.493188 
L 824.544988 275.484315 
L 831.549682 275.493188 
L 838.554377 275.493188 
L 845.559071 275.484315 
L 852.563766 275.475443 
L 873.577849 275.493188 
L 880.582544 275.484315 
L 894.591933 275.493188 
L 901.596627 275.484315 
L 908.601322 275.493188 
L 922.610711 275.493188 
L 943.624794 275.493188 
" style="fill:none;stroke:#91e8e1;stroke-linecap:square;"/>
   </g>
   <g id="line2d_17">
    <path clip-path="url(#p2e5a7b6b90)" d="M 96.056761 152.850835 
L 103.061456 266.93138 
L 110.06615 273.727592 
L 117.070845 275.227017 
L 124.075539 274.951975 
L 131.080234 275.413337 
L 138.084928 275.360103 
L 145.089623 274.93423 
L 152.094317 275.431081 
L 159.099012 275.35123 
L 166.103706 275.253634 
L 173.108401 275.448826 
L 180.113095 275.377847 
L 187.11779 275.413337 
L 194.122484 275.227017 
L 201.127179 275.102805 
L 208.131873 275.377847 
L 215.136568 275.049571 
L 222.141262 275.404464 
L 229.145957 274.978592 
L 236.150651 275.413337 
L 243.155346 275.404464 
L 250.16004 275.102805 
L 257.164735 275.439954 
L 264.169429 275.164911 
L 271.174124 274.96972 
L 278.178818 275.35123 
L 285.183512 275.289124 
L 292.188207 275.395592 
L 299.192901 274.951975 
L 306.197596 275.306869 
L 313.20229 274.978592 
L 320.206985 275.173783 
L 327.211679 275.306869 
L 334.216374 275.448826 
L 341.221068 275.182656 
L 348.225763 275.271379 
L 355.230457 274.641443 
L 362.235152 275.156039 
L 369.239846 275.413337 
L 376.244541 275.35123 
L 383.249235 275.413337 
L 390.25393 275.111677 
L 397.258624 274.694677 
L 404.263319 275.08506 
L 411.268013 275.422209 
L 418.272708 275.156039 
L 425.277402 274.641443 
L 432.282097 274.872124 
L 439.286791 274.481741 
L 446.291486 273.692103 
L 453.29618 274.614826 
L 460.300875 274.481741 
L 467.305569 275.138294 
L 474.310264 274.978592 
L 481.314958 274.854379 
L 488.319653 275.182656 
L 495.324347 274.046996 
L 502.329042 274.676932 
L 509.333736 275.067315 
L 516.338431 274.410762 
L 523.343125 274.534975 
L 530.347819 275.262507 
L 537.352514 275.324613 
L 544.357208 275.315741 
L 551.361903 275.23589 
L 558.366597 275.164911 
L 565.371292 275.271379 
L 572.375986 275.413337 
L 579.380681 275.431081 
L 586.385375 275.360103 
L 593.39007 275.289124 
L 600.394764 274.960847 
L 607.399459 274.81889 
L 614.404153 274.792273 
L 621.408848 274.676932 
L 628.413542 274.747911 
L 635.418237 274.632571 
L 642.422931 274.7834 
L 649.427626 274.703549 
L 656.43232 274.765656 
L 663.437015 274.916486 
L 670.441709 274.925358 
L 677.446404 275.076188 
L 684.451098 274.889869 
L 691.455793 274.951975 
L 698.460487 274.845507 
L 705.465182 274.960847 
L 712.469876 275.058443 
L 719.474571 274.96972 
L 726.479265 274.951975 
L 733.48396 274.747911 
L 740.488654 275.022954 
L 747.493349 275.076188 
L 754.498043 275.049571 
L 761.502738 275.129422 
L 768.507432 274.854379 
L 775.512126 274.499486 
L 782.516821 274.197826 
L 789.521515 274.064741 
L 796.52621 273.354954 
L 803.530904 273.239613 
L 810.535599 273.071039 
L 817.540293 273.425932 
L 824.544988 273.195252 
L 831.549682 273.541273 
L 838.554377 274.197826 
L 845.559071 274.51723 
L 852.563766 274.774528 
L 859.56846 274.987464 
L 866.573155 275.280252 
L 873.577849 275.324613 
L 880.582544 275.404464 
L 887.587238 275.413337 
L 894.591933 275.475443 
L 901.596627 275.404464 
L 908.601322 275.368975 
L 915.606016 275.413337 
L 922.610711 275.377847 
L 929.615405 275.404464 
L 936.6201 275.38672 
L 943.624794 275.191528 
L 950.629489 275.422209 
" style="fill:none;stroke:#7cb5ec;stroke-linecap:square;"/>
   </g>
   <g id="line2d_18">
    <path clip-path="url(#p2e5a7b6b90)" d="M 96.056761 53.054757 
L 103.061456 248.485785 
L 110.06615 272.520954 
L 117.070845 274.632571 
L 124.075539 272.911337 
L 131.080234 274.907613 
L 138.084928 275.218145 
L 145.089623 273.00006 
L 152.094317 275.111677 
L 159.099012 274.605954 
L 166.103706 273.878422 
L 173.108401 275.129422 
L 180.113095 274.144592 
L 187.11779 275.040698 
L 194.122484 273.709847 
L 201.127179 273.15089 
L 208.131873 274.916486 
L 215.136568 272.725018 
L 222.141262 274.295422 
L 229.145957 272.139443 
L 236.150651 274.437379 
L 243.155346 274.810017 
L 250.16004 271.864401 
L 257.164735 274.641443 
L 264.169429 272.680656 
L 271.174124 271.686954 
L 278.178818 274.242188 
L 285.183512 273.559018 
L 292.188207 274.481741 
L 299.192901 271.970869 
L 306.197596 274.543847 
L 313.20229 271.349805 
L 320.206985 272.662911 
L 327.211679 274.40189 
L 334.216374 274.623698 
L 341.221068 272.662911 
L 348.225763 274.437379 
L 355.230457 268.998635 
L 362.235152 272.112826 
L 369.239846 274.641443 
L 376.244541 273.913911 
L 383.249235 274.650315 
L 390.25393 273.159762 
L 397.258624 270.764231 
L 404.263319 272.893592 
L 411.268013 275.058443 
L 418.272708 272.858103 
L 425.277402 270.010082 
L 432.282097 272.43223 
L 439.286791 269.956848 
L 446.291486 262.663784 
L 453.29618 270.879571 
L 460.300875 269.025252 
L 467.305569 273.399315 
L 474.310264 272.361252 
L 481.314958 271.207848 
L 488.319653 273.319464 
L 495.324347 265.502933 
L 502.329042 270.551294 
L 509.333736 272.361252 
L 516.338431 269.122848 
L 523.343125 266.807167 
L 530.347819 274.038124 
L 537.352514 274.588209 
L 544.357208 274.011507 
L 551.361903 273.647741 
L 558.366597 273.922784 
L 565.371292 274.339783 
L 572.375986 274.996337 
L 579.380681 274.951975 
L 586.385375 274.712422 
L 593.39007 273.754209 
L 600.394764 272.16606 
L 607.399459 271.305443 
L 614.404153 271.385294 
L 621.408848 270.879571 
L 628.413542 271.456273 
L 635.418237 271.119124 
L 642.422931 271.349805 
L 649.427626 271.465145 
L 656.43232 271.811167 
L 663.437015 272.006358 
L 670.441709 271.953124 
L 677.446404 272.760507 
L 684.451098 272.396741 
L 691.455793 272.716145 
L 698.460487 272.574188 
L 705.465182 272.609677 
L 712.469876 272.654039 
L 719.474571 272.130571 
L 726.479265 272.387869 
L 733.48396 271.970869 
L 740.488654 272.547571 
L 747.493349 272.627422 
L 754.498043 272.192677 
L 761.502738 272.574188 
L 768.507432 271.48289 
L 775.512126 270.737614 
L 782.516821 269.051869 
L 789.521515 267.756507 
L 796.52621 266.115125 
L 803.530904 265.023827 
L 810.535599 263.728465 
L 817.540293 264.16321 
L 824.544988 265.600529 
L 831.549682 267.020103 
L 838.554377 268.14689 
L 845.559071 269.486614 
L 852.563766 270.91506 
L 859.56846 272.352379 
L 866.573155 273.541273 
L 873.577849 274.268805 
L 880.582544 274.978592 
L 887.587238 275.022954 
L 894.591933 275.23589 
L 901.596627 275.058443 
L 908.601322 275.058443 
L 915.606016 275.147166 
L 922.610711 274.854379 
L 929.615405 275.164911 
L 936.6201 275.138294 
L 943.624794 274.960847 
L 950.629489 274.943103 
" style="fill:none;stroke:#434348;stroke-linecap:square;"/>
   </g>
   <g id="line2d_19">
    <path clip-path="url(#p2e5a7b6b90)" d="M 53.328125 275.50206 
L 993.358125 275.50206 
" style="fill:none;stroke:#dedede;stroke-linecap:square;stroke-width:2;"/>
   </g>
   <g id="text_16">
    <!-- Cutadapt: Lengths of Trimmed Sequences -->
    <g transform="translate(355.678125 19.3575)scale(0.16 -0.16)">
     <defs>
      <path d="M 34.28125 27.484375 
Q 23.390625 27.484375 19.1875 25 
Q 14.984375 22.515625 14.984375 16.5 
Q 14.984375 11.71875 18.140625 8.90625 
Q 21.296875 6.109375 26.703125 6.109375 
Q 34.1875 6.109375 38.703125 11.40625 
Q 43.21875 16.703125 43.21875 25.484375 
L 43.21875 27.484375 
z
M 52.203125 31.203125 
L 52.203125 0 
L 43.21875 0 
L 43.21875 8.296875 
Q 40.140625 3.328125 35.546875 0.953125 
Q 30.953125 -1.421875 24.3125 -1.421875 
Q 15.921875 -1.421875 10.953125 3.296875 
Q 6 8.015625 6 15.921875 
Q 6 25.140625 12.171875 29.828125 
Q 18.359375 34.515625 30.609375 34.515625 
L 43.21875 34.515625 
L 43.21875 35.40625 
Q 43.21875 41.609375 39.140625 45 
Q 35.0625 48.390625 27.6875 48.390625 
Q 23 48.390625 18.546875 47.265625 
Q 14.109375 46.140625 10.015625 43.890625 
L 10.015625 52.203125 
Q 14.9375 54.109375 19.578125 55.046875 
Q 24.21875 56 28.609375 56 
Q 40.484375 56 46.34375 49.84375 
Q 52.203125 43.703125 52.203125 31.203125 
z
" id="DejaVuSans-97"/>
      <path d="M 11.71875 12.40625 
L 22.015625 12.40625 
L 22.015625 0 
L 11.71875 0 
z
M 11.71875 51.703125 
L 22.015625 51.703125 
L 22.015625 39.3125 
L 11.71875 39.3125 
z
" id="DejaVuSans-58"/>
      <path d="M 44.28125 53.078125 
L 44.28125 44.578125 
Q 40.484375 46.53125 36.375 47.5 
Q 32.28125 48.484375 27.875 48.484375 
Q 21.1875 48.484375 17.84375 46.4375 
Q 14.5 44.390625 14.5 40.28125 
Q 14.5 37.15625 16.890625 35.375 
Q 19.28125 33.59375 26.515625 31.984375 
L 29.59375 31.296875 
Q 39.15625 29.25 43.1875 25.515625 
Q 47.21875 21.78125 47.21875 15.09375 
Q 47.21875 7.46875 41.1875 3.015625 
Q 35.15625 -1.421875 24.609375 -1.421875 
Q 20.21875 -1.421875 15.453125 -0.5625 
Q 10.6875 0.296875 5.421875 2 
L 5.421875 11.28125 
Q 10.40625 8.6875 15.234375 7.390625 
Q 20.0625 6.109375 24.8125 6.109375 
Q 31.15625 6.109375 34.5625 8.28125 
Q 37.984375 10.453125 37.984375 14.40625 
Q 37.984375 18.0625 35.515625 20.015625 
Q 33.0625 21.96875 24.703125 23.78125 
L 21.578125 24.515625 
Q 13.234375 26.265625 9.515625 29.90625 
Q 5.8125 33.546875 5.8125 39.890625 
Q 5.8125 47.609375 11.28125 51.796875 
Q 16.75 56 26.8125 56 
Q 31.78125 56 36.171875 55.265625 
Q 40.578125 54.546875 44.28125 53.078125 
z
" id="DejaVuSans-115"/>
      <path d="M 37.109375 75.984375 
L 37.109375 68.5 
L 28.515625 68.5 
Q 23.6875 68.5 21.796875 66.546875 
Q 19.921875 64.59375 19.921875 59.515625 
L 19.921875 54.6875 
L 34.71875 54.6875 
L 34.71875 47.703125 
L 19.921875 47.703125 
L 19.921875 0 
L 10.890625 0 
L 10.890625 47.703125 
L 2.296875 47.703125 
L 2.296875 54.6875 
L 10.890625 54.6875 
L 10.890625 58.5 
Q 10.890625 67.625 15.140625 71.796875 
Q 19.390625 75.984375 28.609375 75.984375 
z
" id="DejaVuSans-102"/>
      <path d="M 53.515625 70.515625 
L 53.515625 60.890625 
Q 47.90625 63.578125 42.921875 64.890625 
Q 37.9375 66.21875 33.296875 66.21875 
Q 25.25 66.21875 20.875 63.09375 
Q 16.5 59.96875 16.5 54.203125 
Q 16.5 49.359375 19.40625 46.890625 
Q 22.3125 44.4375 30.421875 42.921875 
L 36.375 41.703125 
Q 47.40625 39.59375 52.65625 34.296875 
Q 57.90625 29 57.90625 20.125 
Q 57.90625 9.515625 50.796875 4.046875 
Q 43.703125 -1.421875 29.984375 -1.421875 
Q 24.8125 -1.421875 18.96875 -0.25 
Q 13.140625 0.921875 6.890625 3.21875 
L 6.890625 13.375 
Q 12.890625 10.015625 18.65625 8.296875 
Q 24.421875 6.59375 29.984375 6.59375 
Q 38.421875 6.59375 43.015625 9.90625 
Q 47.609375 13.234375 47.609375 19.390625 
Q 47.609375 24.75 44.3125 27.78125 
Q 41.015625 30.8125 33.5 32.328125 
L 27.484375 33.5 
Q 16.453125 35.6875 11.515625 40.375 
Q 6.59375 45.0625 6.59375 53.421875 
Q 6.59375 63.09375 13.40625 68.65625 
Q 20.21875 74.21875 32.171875 74.21875 
Q 37.3125 74.21875 42.625 73.28125 
Q 47.953125 72.359375 53.515625 70.515625 
z
" id="DejaVuSans-83"/>
      <path d="M 14.796875 27.296875 
Q 14.796875 17.390625 18.875 11.75 
Q 22.953125 6.109375 30.078125 6.109375 
Q 37.203125 6.109375 41.296875 11.75 
Q 45.40625 17.390625 45.40625 27.296875 
Q 45.40625 37.203125 41.296875 42.84375 
Q 37.203125 48.484375 30.078125 48.484375 
Q 22.953125 48.484375 18.875 42.84375 
Q 14.796875 37.203125 14.796875 27.296875 
z
M 45.40625 8.203125 
Q 42.578125 3.328125 38.25 0.953125 
Q 33.9375 -1.421875 27.875 -1.421875 
Q 17.96875 -1.421875 11.734375 6.484375 
Q 5.515625 14.40625 5.515625 27.296875 
Q 5.515625 40.1875 11.734375 48.09375 
Q 17.96875 56 27.875 56 
Q 33.9375 56 38.25 53.625 
Q 42.578125 51.265625 45.40625 46.390625 
L 45.40625 54.6875 
L 54.390625 54.6875 
L 54.390625 -20.796875 
L 45.40625 -20.796875 
z
" id="DejaVuSans-113"/>
      <path d="M 48.78125 52.59375 
L 48.78125 44.1875 
Q 44.96875 46.296875 41.140625 47.34375 
Q 37.3125 48.390625 33.40625 48.390625 
Q 24.65625 48.390625 19.8125 42.84375 
Q 14.984375 37.3125 14.984375 27.296875 
Q 14.984375 17.28125 19.8125 11.734375 
Q 24.65625 6.203125 33.40625 6.203125 
Q 37.3125 6.203125 41.140625 7.25 
Q 44.96875 8.296875 48.78125 10.40625 
L 48.78125 2.09375 
Q 45.015625 0.34375 40.984375 -0.53125 
Q 36.96875 -1.421875 32.421875 -1.421875 
Q 20.0625 -1.421875 12.78125 6.34375 
Q 5.515625 14.109375 5.515625 27.296875 
Q 5.515625 40.671875 12.859375 48.328125 
Q 20.21875 56 33.015625 56 
Q 37.15625 56 41.109375 55.140625 
Q 45.0625 54.296875 48.78125 52.59375 
z
" id="DejaVuSans-99"/>
     </defs>
     <use xlink:href="#DejaVuSans-67"/>
     <use x="69.824219" xlink:href="#DejaVuSans-117"/>
     <use x="133.203125" xlink:href="#DejaVuSans-116"/>
     <use x="172.412109" xlink:href="#DejaVuSans-97"/>
     <use x="233.691406" xlink:href="#DejaVuSans-100"/>
     <use x="297.167969" xlink:href="#DejaVuSans-97"/>
     <use x="358.447266" xlink:href="#DejaVuSans-112"/>
     <use x="421.923828" xlink:href="#DejaVuSans-116"/>
     <use x="461.132812" xlink:href="#DejaVuSans-58"/>
     <use x="494.824219" xlink:href="#DejaVuSans-32"/>
     <use x="526.611328" xlink:href="#DejaVuSans-76"/>
     <use x="580.574219" xlink:href="#DejaVuSans-101"/>
     <use x="642.097656" xlink:href="#DejaVuSans-110"/>
     <use x="705.476562" xlink:href="#DejaVuSans-103"/>
     <use x="768.953125" xlink:href="#DejaVuSans-116"/>
     <use x="808.162109" xlink:href="#DejaVuSans-104"/>
     <use x="871.541016" xlink:href="#DejaVuSans-115"/>
     <use x="923.640625" xlink:href="#DejaVuSans-32"/>
     <use x="955.427734" xlink:href="#DejaVuSans-111"/>
     <use x="1016.609375" xlink:href="#DejaVuSans-102"/>
     <use x="1051.814453" xlink:href="#DejaVuSans-32"/>
     <use x="1083.601562" xlink:href="#DejaVuSans-84"/>
     <use x="1129.935547" xlink:href="#DejaVuSans-114"/>
     <use x="1171.048828" xlink:href="#DejaVuSans-105"/>
     <use x="1198.832031" xlink:href="#DejaVuSans-109"/>
     <use x="1296.244141" xlink:href="#DejaVuSans-109"/>
     <use x="1393.65625" xlink:href="#DejaVuSans-101"/>
     <use x="1455.179688" xlink:href="#DejaVuSans-100"/>
     <use x="1518.65625" xlink:href="#DejaVuSans-32"/>
     <use x="1550.443359" xlink:href="#DejaVuSans-83"/>
     <use x="1613.919922" xlink:href="#DejaVuSans-101"/>
     <use x="1675.443359" xlink:href="#DejaVuSans-113"/>
     <use x="1738.919922" xlink:href="#DejaVuSans-117"/>
     <use x="1802.298828" xlink:href="#DejaVuSans-101"/>
     <use x="1863.822266" xlink:href="#DejaVuSans-110"/>
     <use x="1927.201172" xlink:href="#DejaVuSans-99"/>
     <use x="1982.181641" xlink:href="#DejaVuSans-101"/>
     <use x="2043.705078" xlink:href="#DejaVuSans-115"/>
    </g>
   </g>
   <g id="legend_1">
    <g id="line2d_20">
     <path d="M 60.528125 293.354194 
L 76.528125 293.354194 
" style="fill:none;stroke:#7cb5ec;stroke-linecap:square;"/>
    </g>
    <g id="line2d_21"/>
    <g id="text_17">
     <!-- RTS0_BC_AGCAAC - Adapter 1 -->
     <g transform="translate(82.928125 296.154194)scale(0.08 -0.08)">
      <defs>
       <path d="M 44.390625 34.1875 
Q 47.5625 33.109375 50.5625 29.59375 
Q 53.5625 26.078125 56.59375 19.921875 
L 66.609375 0 
L 56 0 
L 46.6875 18.703125 
Q 43.0625 26.03125 39.671875 28.421875 
Q 36.28125 30.8125 30.421875 30.8125 
L 19.671875 30.8125 
L 19.671875 0 
L 9.8125 0 
L 9.8125 72.90625 
L 32.078125 72.90625 
Q 44.578125 72.90625 50.734375 67.671875 
Q 56.890625 62.453125 56.890625 51.90625 
Q 56.890625 45.015625 53.6875 40.46875 
Q 50.484375 35.9375 44.390625 34.1875 
z
M 19.671875 64.796875 
L 19.671875 38.921875 
L 32.078125 38.921875 
Q 39.203125 38.921875 42.84375 42.21875 
Q 46.484375 45.515625 46.484375 51.90625 
Q 46.484375 58.296875 42.84375 61.546875 
Q 39.203125 64.796875 32.078125 64.796875 
z
" id="DejaVuSans-82"/>
       <path d="M 50.984375 -16.609375 
L 50.984375 -23.578125 
L -0.984375 -23.578125 
L -0.984375 -16.609375 
z
" id="DejaVuSans-95"/>
       <path d="M 19.671875 34.8125 
L 19.671875 8.109375 
L 35.5 8.109375 
Q 43.453125 8.109375 47.28125 11.40625 
Q 51.125 14.703125 51.125 21.484375 
Q 51.125 28.328125 47.28125 31.5625 
Q 43.453125 34.8125 35.5 34.8125 
z
M 19.671875 64.796875 
L 19.671875 42.828125 
L 34.28125 42.828125 
Q 41.5 42.828125 45.03125 45.53125 
Q 48.578125 48.25 48.578125 53.8125 
Q 48.578125 59.328125 45.03125 62.0625 
Q 41.5 64.796875 34.28125 64.796875 
z
M 9.8125 72.90625 
L 35.015625 72.90625 
Q 46.296875 72.90625 52.390625 68.21875 
Q 58.5 63.53125 58.5 54.890625 
Q 58.5 48.1875 55.375 44.234375 
Q 52.25 40.28125 46.1875 39.3125 
Q 53.46875 37.75 57.5 32.78125 
Q 61.53125 27.828125 61.53125 20.40625 
Q 61.53125 10.640625 54.890625 5.3125 
Q 48.25 0 35.984375 0 
L 9.8125 0 
z
" id="DejaVuSans-66"/>
       <path d="M 34.1875 63.1875 
L 20.796875 26.90625 
L 47.609375 26.90625 
z
M 28.609375 72.90625 
L 39.796875 72.90625 
L 67.578125 0 
L 57.328125 0 
L 50.6875 18.703125 
L 17.828125 18.703125 
L 11.1875 0 
L 0.78125 0 
z
" id="DejaVuSans-65"/>
       <path d="M 59.515625 10.40625 
L 59.515625 29.984375 
L 43.40625 29.984375 
L 43.40625 38.09375 
L 69.28125 38.09375 
L 69.28125 6.78125 
Q 63.578125 2.734375 56.6875 0.65625 
Q 49.8125 -1.421875 42 -1.421875 
Q 24.90625 -1.421875 15.25 8.5625 
Q 5.609375 18.5625 5.609375 36.375 
Q 5.609375 54.25 15.25 64.234375 
Q 24.90625 74.21875 42 74.21875 
Q 49.125 74.21875 55.546875 72.453125 
Q 61.96875 70.703125 67.390625 67.28125 
L 67.390625 56.78125 
Q 61.921875 61.421875 55.765625 63.765625 
Q 49.609375 66.109375 42.828125 66.109375 
Q 29.4375 66.109375 22.71875 58.640625 
Q 16.015625 51.171875 16.015625 36.375 
Q 16.015625 21.625 22.71875 14.15625 
Q 29.4375 6.6875 42.828125 6.6875 
Q 48.046875 6.6875 52.140625 7.59375 
Q 56.25 8.5 59.515625 10.40625 
z
" id="DejaVuSans-71"/>
       <path d="M 4.890625 31.390625 
L 31.203125 31.390625 
L 31.203125 23.390625 
L 4.890625 23.390625 
z
" id="DejaVuSans-45"/>
      </defs>
      <use xlink:href="#DejaVuSans-82"/>
      <use x="62.232422" xlink:href="#DejaVuSans-84"/>
      <use x="123.316406" xlink:href="#DejaVuSans-83"/>
      <use x="186.792969" xlink:href="#DejaVuSans-48"/>
      <use x="250.416016" xlink:href="#DejaVuSans-95"/>
      <use x="300.416016" xlink:href="#DejaVuSans-66"/>
      <use x="367.269531" xlink:href="#DejaVuSans-67"/>
      <use x="437.09375" xlink:href="#DejaVuSans-95"/>
      <use x="487.09375" xlink:href="#DejaVuSans-65"/>
      <use x="553.751953" xlink:href="#DejaVuSans-71"/>
      <use x="631.242188" xlink:href="#DejaVuSans-67"/>
      <use x="701.066406" xlink:href="#DejaVuSans-65"/>
      <use x="772.224609" xlink:href="#DejaVuSans-65"/>
      <use x="838.882812" xlink:href="#DejaVuSans-67"/>
      <use x="908.707031" xlink:href="#DejaVuSans-32"/>
      <use x="940.494141" xlink:href="#DejaVuSans-45"/>
      <use x="976.578125" xlink:href="#DejaVuSans-32"/>
      <use x="1008.365234" xlink:href="#DejaVuSans-65"/>
      <use x="1075.023438" xlink:href="#DejaVuSans-100"/>
      <use x="1138.5" xlink:href="#DejaVuSans-97"/>
      <use x="1199.779297" xlink:href="#DejaVuSans-112"/>
      <use x="1263.255859" xlink:href="#DejaVuSans-116"/>
      <use x="1302.464844" xlink:href="#DejaVuSans-101"/>
      <use x="1363.988281" xlink:href="#DejaVuSans-114"/>
      <use x="1405.101562" xlink:href="#DejaVuSans-32"/>
      <use x="1436.888672" xlink:href="#DejaVuSans-49"/>
     </g>
    </g>
    <g id="line2d_22">
     <path d="M 60.528125 305.319194 
L 76.528125 305.319194 
" style="fill:none;stroke:#434348;stroke-linecap:square;"/>
    </g>
    <g id="line2d_23"/>
    <g id="text_18">
     <!-- RTS0_BC_ATCGTG - Adapter 1 -->
     <g transform="translate(82.928125 308.119194)scale(0.08 -0.08)">
      <use xlink:href="#DejaVuSans-82"/>
      <use x="62.232422" xlink:href="#DejaVuSans-84"/>
      <use x="123.316406" xlink:href="#DejaVuSans-83"/>
      <use x="186.792969" xlink:href="#DejaVuSans-48"/>
      <use x="250.416016" xlink:href="#DejaVuSans-95"/>
      <use x="300.416016" xlink:href="#DejaVuSans-66"/>
      <use x="367.269531" xlink:href="#DejaVuSans-67"/>
      <use x="437.09375" xlink:href="#DejaVuSans-95"/>
      <use x="487.09375" xlink:href="#DejaVuSans-65"/>
      <use x="547.751953" xlink:href="#DejaVuSans-84"/>
      <use x="602.960938" xlink:href="#DejaVuSans-67"/>
      <use x="672.785156" xlink:href="#DejaVuSans-71"/>
      <use x="746.650391" xlink:href="#DejaVuSans-84"/>
      <use x="807.734375" xlink:href="#DejaVuSans-71"/>
      <use x="885.224609" xlink:href="#DejaVuSans-32"/>
      <use x="917.011719" xlink:href="#DejaVuSans-45"/>
      <use x="953.095703" xlink:href="#DejaVuSans-32"/>
      <use x="984.882812" xlink:href="#DejaVuSans-65"/>
      <use x="1051.541016" xlink:href="#DejaVuSans-100"/>
      <use x="1115.017578" xlink:href="#DejaVuSans-97"/>
      <use x="1176.296875" xlink:href="#DejaVuSans-112"/>
      <use x="1239.773438" xlink:href="#DejaVuSans-116"/>
      <use x="1278.982422" xlink:href="#DejaVuSans-101"/>
      <use x="1340.505859" xlink:href="#DejaVuSans-114"/>
      <use x="1381.619141" xlink:href="#DejaVuSans-32"/>
      <use x="1413.40625" xlink:href="#DejaVuSans-49"/>
     </g>
    </g>
    <g id="line2d_24">
     <path d="M 60.528125 317.284194 
L 76.528125 317.284194 
" style="fill:none;stroke:#90ed7d;stroke-linecap:square;"/>
    </g>
    <g id="line2d_25"/>
    <g id="text_19">
     <!-- RTS0_BC_CCACTA - Adapter 1 -->
     <g transform="translate(82.928125 320.084194)scale(0.08 -0.08)">
      <use xlink:href="#DejaVuSans-82"/>
      <use x="62.232422" xlink:href="#DejaVuSans-84"/>
      <use x="123.316406" xlink:href="#DejaVuSans-83"/>
      <use x="186.792969" xlink:href="#DejaVuSans-48"/>
      <use x="250.416016" xlink:href="#DejaVuSans-95"/>
      <use x="300.416016" xlink:href="#DejaVuSans-66"/>
      <use x="367.269531" xlink:href="#DejaVuSans-67"/>
      <use x="437.09375" xlink:href="#DejaVuSans-95"/>
      <use x="487.09375" xlink:href="#DejaVuSans-67"/>
      <use x="556.917969" xlink:href="#DejaVuSans-67"/>
      <use x="626.742188" xlink:href="#DejaVuSans-65"/>
      <use x="693.400391" xlink:href="#DejaVuSans-67"/>
      <use x="763.224609" xlink:href="#DejaVuSans-84"/>
      <use x="816.558594" xlink:href="#DejaVuSans-65"/>
      <use x="884.966797" xlink:href="#DejaVuSans-32"/>
      <use x="916.753906" xlink:href="#DejaVuSans-45"/>
      <use x="952.837891" xlink:href="#DejaVuSans-32"/>
      <use x="984.625" xlink:href="#DejaVuSans-65"/>
      <use x="1051.283203" xlink:href="#DejaVuSans-100"/>
      <use x="1114.759766" xlink:href="#DejaVuSans-97"/>
      <use x="1176.039062" xlink:href="#DejaVuSans-112"/>
      <use x="1239.515625" xlink:href="#DejaVuSans-116"/>
      <use x="1278.724609" xlink:href="#DejaVuSans-101"/>
      <use x="1340.248047" xlink:href="#DejaVuSans-114"/>
      <use x="1381.361328" xlink:href="#DejaVuSans-32"/>
      <use x="1413.148438" xlink:href="#DejaVuSans-49"/>
     </g>
    </g>
    <g id="line2d_26">
     <path d="M 256.2775 293.354194 
L 272.2775 293.354194 
" style="fill:none;stroke:#f7a35c;stroke-linecap:square;"/>
    </g>
    <g id="line2d_27"/>
    <g id="text_20">
     <!-- RTS0_BC_CCTATG - Adapter 1 -->
     <g transform="translate(278.6775 296.154194)scale(0.08 -0.08)">
      <use xlink:href="#DejaVuSans-82"/>
      <use x="62.232422" xlink:href="#DejaVuSans-84"/>
      <use x="123.316406" xlink:href="#DejaVuSans-83"/>
      <use x="186.792969" xlink:href="#DejaVuSans-48"/>
      <use x="250.416016" xlink:href="#DejaVuSans-95"/>
      <use x="300.416016" xlink:href="#DejaVuSans-66"/>
      <use x="367.269531" xlink:href="#DejaVuSans-67"/>
      <use x="437.09375" xlink:href="#DejaVuSans-95"/>
      <use x="487.09375" xlink:href="#DejaVuSans-67"/>
      <use x="556.917969" xlink:href="#DejaVuSans-67"/>
      <use x="626.742188" xlink:href="#DejaVuSans-84"/>
      <use x="680.076172" xlink:href="#DejaVuSans-65"/>
      <use x="740.734375" xlink:href="#DejaVuSans-84"/>
      <use x="801.818359" xlink:href="#DejaVuSans-71"/>
      <use x="879.308594" xlink:href="#DejaVuSans-32"/>
      <use x="911.095703" xlink:href="#DejaVuSans-45"/>
      <use x="947.179688" xlink:href="#DejaVuSans-32"/>
      <use x="978.966797" xlink:href="#DejaVuSans-65"/>
      <use x="1045.625" xlink:href="#DejaVuSans-100"/>
      <use x="1109.101562" xlink:href="#DejaVuSans-97"/>
      <use x="1170.380859" xlink:href="#DejaVuSans-112"/>
      <use x="1233.857422" xlink:href="#DejaVuSans-116"/>
      <use x="1273.066406" xlink:href="#DejaVuSans-101"/>
      <use x="1334.589844" xlink:href="#DejaVuSans-114"/>
      <use x="1375.703125" xlink:href="#DejaVuSans-32"/>
      <use x="1407.490234" xlink:href="#DejaVuSans-49"/>
     </g>
    </g>
    <g id="line2d_28">
     <path d="M 256.2775 305.319194 
L 272.2775 305.319194 
" style="fill:none;stroke:#8085e9;stroke-linecap:square;"/>
    </g>
    <g id="line2d_29"/>
    <g id="text_21">
     <!-- RTS0_BC_CGTCCG - Adapter 1 -->
     <g transform="translate(278.6775 308.119194)scale(0.08 -0.08)">
      <use xlink:href="#DejaVuSans-82"/>
      <use x="62.232422" xlink:href="#DejaVuSans-84"/>
      <use x="123.316406" xlink:href="#DejaVuSans-83"/>
      <use x="186.792969" xlink:href="#DejaVuSans-48"/>
      <use x="250.416016" xlink:href="#DejaVuSans-95"/>
      <use x="300.416016" xlink:href="#DejaVuSans-66"/>
      <use x="367.269531" xlink:href="#DejaVuSans-67"/>
      <use x="437.09375" xlink:href="#DejaVuSans-95"/>
      <use x="487.09375" xlink:href="#DejaVuSans-67"/>
      <use x="556.917969" xlink:href="#DejaVuSans-71"/>
      <use x="630.783203" xlink:href="#DejaVuSans-84"/>
      <use x="685.992188" xlink:href="#DejaVuSans-67"/>
      <use x="755.816406" xlink:href="#DejaVuSans-67"/>
      <use x="825.640625" xlink:href="#DejaVuSans-71"/>
      <use x="903.130859" xlink:href="#DejaVuSans-32"/>
      <use x="934.917969" xlink:href="#DejaVuSans-45"/>
      <use x="971.001953" xlink:href="#DejaVuSans-32"/>
      <use x="1002.789062" xlink:href="#DejaVuSans-65"/>
      <use x="1069.447266" xlink:href="#DejaVuSans-100"/>
      <use x="1132.923828" xlink:href="#DejaVuSans-97"/>
      <use x="1194.203125" xlink:href="#DejaVuSans-112"/>
      <use x="1257.679688" xlink:href="#DejaVuSans-116"/>
      <use x="1296.888672" xlink:href="#DejaVuSans-101"/>
      <use x="1358.412109" xlink:href="#DejaVuSans-114"/>
      <use x="1399.525391" xlink:href="#DejaVuSans-32"/>
      <use x="1431.3125" xlink:href="#DejaVuSans-49"/>
     </g>
    </g>
    <g id="line2d_30">
     <path d="M 256.2775 317.284194 
L 272.2775 317.284194 
" style="fill:none;stroke:#f15c80;stroke-linecap:square;"/>
    </g>
    <g id="line2d_31"/>
    <g id="text_22">
     <!-- RTS0_BC_CTTACA - Adapter 1 -->
     <g transform="translate(278.6775 320.084194)scale(0.08 -0.08)">
      <use xlink:href="#DejaVuSans-82"/>
      <use x="62.232422" xlink:href="#DejaVuSans-84"/>
      <use x="123.316406" xlink:href="#DejaVuSans-83"/>
      <use x="186.792969" xlink:href="#DejaVuSans-48"/>
      <use x="250.416016" xlink:href="#DejaVuSans-95"/>
      <use x="300.416016" xlink:href="#DejaVuSans-66"/>
      <use x="367.269531" xlink:href="#DejaVuSans-67"/>
      <use x="437.09375" xlink:href="#DejaVuSans-95"/>
      <use x="487.09375" xlink:href="#DejaVuSans-67"/>
      <use x="556.917969" xlink:href="#DejaVuSans-84"/>
      <use x="616.251953" xlink:href="#DejaVuSans-84"/>
      <use x="669.585938" xlink:href="#DejaVuSans-65"/>
      <use x="736.244141" xlink:href="#DejaVuSans-67"/>
      <use x="806.068359" xlink:href="#DejaVuSans-65"/>
      <use x="874.476562" xlink:href="#DejaVuSans-32"/>
      <use x="906.263672" xlink:href="#DejaVuSans-45"/>
      <use x="942.347656" xlink:href="#DejaVuSans-32"/>
      <use x="974.134766" xlink:href="#DejaVuSans-65"/>
      <use x="1040.792969" xlink:href="#DejaVuSans-100"/>
      <use x="1104.269531" xlink:href="#DejaVuSans-97"/>
      <use x="1165.548828" xlink:href="#DejaVuSans-112"/>
      <use x="1229.025391" xlink:href="#DejaVuSans-116"/>
      <use x="1268.234375" xlink:href="#DejaVuSans-101"/>
      <use x="1329.757812" xlink:href="#DejaVuSans-114"/>
      <use x="1370.871094" xlink:href="#DejaVuSans-32"/>
      <use x="1402.658203" xlink:href="#DejaVuSans-49"/>
     </g>
    </g>
    <g id="line2d_32">
     <path d="M 451.580625 293.354194 
L 467.580625 293.354194 
" style="fill:none;stroke:#e4d354;stroke-linecap:square;"/>
    </g>
    <g id="line2d_33"/>
    <g id="text_23">
     <!-- RTS0_BC_GACGCG - Adapter 1 -->
     <g transform="translate(473.980625 296.154194)scale(0.08 -0.08)">
      <use xlink:href="#DejaVuSans-82"/>
      <use x="62.232422" xlink:href="#DejaVuSans-84"/>
      <use x="123.316406" xlink:href="#DejaVuSans-83"/>
      <use x="186.792969" xlink:href="#DejaVuSans-48"/>
      <use x="250.416016" xlink:href="#DejaVuSans-95"/>
      <use x="300.416016" xlink:href="#DejaVuSans-66"/>
      <use x="367.269531" xlink:href="#DejaVuSans-67"/>
      <use x="437.09375" xlink:href="#DejaVuSans-95"/>
      <use x="487.09375" xlink:href="#DejaVuSans-71"/>
      <use x="564.583984" xlink:href="#DejaVuSans-65"/>
      <use x="631.242188" xlink:href="#DejaVuSans-67"/>
      <use x="701.066406" xlink:href="#DejaVuSans-71"/>
      <use x="778.556641" xlink:href="#DejaVuSans-67"/>
      <use x="848.380859" xlink:href="#DejaVuSans-71"/>
      <use x="925.871094" xlink:href="#DejaVuSans-32"/>
      <use x="957.658203" xlink:href="#DejaVuSans-45"/>
      <use x="993.742188" xlink:href="#DejaVuSans-32"/>
      <use x="1025.529297" xlink:href="#DejaVuSans-65"/>
      <use x="1092.1875" xlink:href="#DejaVuSans-100"/>
      <use x="1155.664062" xlink:href="#DejaVuSans-97"/>
      <use x="1216.943359" xlink:href="#DejaVuSans-112"/>
      <use x="1280.419922" xlink:href="#DejaVuSans-116"/>
      <use x="1319.628906" xlink:href="#DejaVuSans-101"/>
      <use x="1381.152344" xlink:href="#DejaVuSans-114"/>
      <use x="1422.265625" xlink:href="#DejaVuSans-32"/>
      <use x="1454.052734" xlink:href="#DejaVuSans-49"/>
     </g>
    </g>
    <g id="line2d_34">
     <path d="M 451.580625 305.319194 
L 467.580625 305.319194 
" style="fill:none;stroke:#2b908f;stroke-linecap:square;"/>
    </g>
    <g id="line2d_35"/>
    <g id="text_24">
     <!-- RTS0_BC_GGAGGC - Adapter 1 -->
     <g transform="translate(473.980625 308.119194)scale(0.08 -0.08)">
      <use xlink:href="#DejaVuSans-82"/>
      <use x="62.232422" xlink:href="#DejaVuSans-84"/>
      <use x="123.316406" xlink:href="#DejaVuSans-83"/>
      <use x="186.792969" xlink:href="#DejaVuSans-48"/>
      <use x="250.416016" xlink:href="#DejaVuSans-95"/>
      <use x="300.416016" xlink:href="#DejaVuSans-66"/>
      <use x="367.269531" xlink:href="#DejaVuSans-67"/>
      <use x="437.09375" xlink:href="#DejaVuSans-95"/>
      <use x="487.09375" xlink:href="#DejaVuSans-71"/>
      <use x="564.583984" xlink:href="#DejaVuSans-71"/>
      <use x="642.074219" xlink:href="#DejaVuSans-65"/>
      <use x="708.732422" xlink:href="#DejaVuSans-71"/>
      <use x="786.222656" xlink:href="#DejaVuSans-71"/>
      <use x="863.712891" xlink:href="#DejaVuSans-67"/>
      <use x="933.537109" xlink:href="#DejaVuSans-32"/>
      <use x="965.324219" xlink:href="#DejaVuSans-45"/>
      <use x="1001.408203" xlink:href="#DejaVuSans-32"/>
      <use x="1033.195312" xlink:href="#DejaVuSans-65"/>
      <use x="1099.853516" xlink:href="#DejaVuSans-100"/>
      <use x="1163.330078" xlink:href="#DejaVuSans-97"/>
      <use x="1224.609375" xlink:href="#DejaVuSans-112"/>
      <use x="1288.085938" xlink:href="#DejaVuSans-116"/>
      <use x="1327.294922" xlink:href="#DejaVuSans-101"/>
      <use x="1388.818359" xlink:href="#DejaVuSans-114"/>
      <use x="1429.931641" xlink:href="#DejaVuSans-32"/>
      <use x="1461.71875" xlink:href="#DejaVuSans-49"/>
     </g>
    </g>
    <g id="line2d_36">
     <path d="M 649.315 293.354194 
L 665.315 293.354194 
" style="fill:none;stroke:#f45b5b;stroke-linecap:square;"/>
    </g>
    <g id="line2d_37"/>
    <g id="text_25">
     <!-- RTS0_BC_GTGAGG - Adapter 1 -->
     <g transform="translate(671.715 296.154194)scale(0.08 -0.08)">
      <use xlink:href="#DejaVuSans-82"/>
      <use x="62.232422" xlink:href="#DejaVuSans-84"/>
      <use x="123.316406" xlink:href="#DejaVuSans-83"/>
      <use x="186.792969" xlink:href="#DejaVuSans-48"/>
      <use x="250.416016" xlink:href="#DejaVuSans-95"/>
      <use x="300.416016" xlink:href="#DejaVuSans-66"/>
      <use x="367.269531" xlink:href="#DejaVuSans-67"/>
      <use x="437.09375" xlink:href="#DejaVuSans-95"/>
      <use x="487.09375" xlink:href="#DejaVuSans-71"/>
      <use x="560.958984" xlink:href="#DejaVuSans-84"/>
      <use x="622.042969" xlink:href="#DejaVuSans-71"/>
      <use x="699.533203" xlink:href="#DejaVuSans-65"/>
      <use x="766.191406" xlink:href="#DejaVuSans-71"/>
      <use x="843.681641" xlink:href="#DejaVuSans-71"/>
      <use x="921.171875" xlink:href="#DejaVuSans-32"/>
      <use x="952.958984" xlink:href="#DejaVuSans-45"/>
      <use x="989.042969" xlink:href="#DejaVuSans-32"/>
      <use x="1020.830078" xlink:href="#DejaVuSans-65"/>
      <use x="1087.488281" xlink:href="#DejaVuSans-100"/>
      <use x="1150.964844" xlink:href="#DejaVuSans-97"/>
      <use x="1212.244141" xlink:href="#DejaVuSans-112"/>
      <use x="1275.720703" xlink:href="#DejaVuSans-116"/>
      <use x="1314.929688" xlink:href="#DejaVuSans-101"/>
      <use x="1376.453125" xlink:href="#DejaVuSans-114"/>
      <use x="1417.566406" xlink:href="#DejaVuSans-32"/>
      <use x="1449.353516" xlink:href="#DejaVuSans-49"/>
     </g>
    </g>
    <g id="line2d_38">
     <path d="M 649.315 305.319194 
L 665.315 305.319194 
" style="fill:none;stroke:#91e8e1;stroke-linecap:square;"/>
    </g>
    <g id="line2d_39"/>
    <g id="text_26">
     <!-- RTS0_BC_TAGGGG - Adapter 1 -->
     <g transform="translate(671.715 308.119194)scale(0.08 -0.08)">
      <use xlink:href="#DejaVuSans-82"/>
      <use x="62.232422" xlink:href="#DejaVuSans-84"/>
      <use x="123.316406" xlink:href="#DejaVuSans-83"/>
      <use x="186.792969" xlink:href="#DejaVuSans-48"/>
      <use x="250.416016" xlink:href="#DejaVuSans-95"/>
      <use x="300.416016" xlink:href="#DejaVuSans-66"/>
      <use x="367.269531" xlink:href="#DejaVuSans-67"/>
      <use x="437.09375" xlink:href="#DejaVuSans-95"/>
      <use x="487.09375" xlink:href="#DejaVuSans-84"/>
      <use x="540.427734" xlink:href="#DejaVuSans-65"/>
      <use x="607.085938" xlink:href="#DejaVuSans-71"/>
      <use x="684.576172" xlink:href="#DejaVuSans-71"/>
      <use x="762.066406" xlink:href="#DejaVuSans-71"/>
      <use x="839.556641" xlink:href="#DejaVuSans-71"/>
      <use x="917.046875" xlink:href="#DejaVuSans-32"/>
      <use x="948.833984" xlink:href="#DejaVuSans-45"/>
      <use x="984.917969" xlink:href="#DejaVuSans-32"/>
      <use x="1016.705078" xlink:href="#DejaVuSans-65"/>
      <use x="1083.363281" xlink:href="#DejaVuSans-100"/>
      <use x="1146.839844" xlink:href="#DejaVuSans-97"/>
      <use x="1208.119141" xlink:href="#DejaVuSans-112"/>
      <use x="1271.595703" xlink:href="#DejaVuSans-116"/>
      <use x="1310.804688" xlink:href="#DejaVuSans-101"/>
      <use x="1372.328125" xlink:href="#DejaVuSans-114"/>
      <use x="1413.441406" xlink:href="#DejaVuSans-32"/>
      <use x="1445.228516" xlink:href="#DejaVuSans-49"/>
     </g>
    </g>
    <g id="line2d_40">
     <path d="M 846.059375 293.354194 
L 862.059375 293.354194 
" style="fill:none;stroke:#7cb5ec;stroke-linecap:square;"/>
    </g>
    <g id="line2d_41"/>
    <g id="text_27">
     <!-- RTS0_BC_TCCTAG - Adapter 1 -->
     <g transform="translate(868.459375 296.154194)scale(0.08 -0.08)">
      <use xlink:href="#DejaVuSans-82"/>
      <use x="62.232422" xlink:href="#DejaVuSans-84"/>
      <use x="123.316406" xlink:href="#DejaVuSans-83"/>
      <use x="186.792969" xlink:href="#DejaVuSans-48"/>
      <use x="250.416016" xlink:href="#DejaVuSans-95"/>
      <use x="300.416016" xlink:href="#DejaVuSans-66"/>
      <use x="367.269531" xlink:href="#DejaVuSans-67"/>
      <use x="437.09375" xlink:href="#DejaVuSans-95"/>
      <use x="487.09375" xlink:href="#DejaVuSans-84"/>
      <use x="542.302734" xlink:href="#DejaVuSans-67"/>
      <use x="612.126953" xlink:href="#DejaVuSans-67"/>
      <use x="681.951172" xlink:href="#DejaVuSans-84"/>
      <use x="735.285156" xlink:href="#DejaVuSans-65"/>
      <use x="801.943359" xlink:href="#DejaVuSans-71"/>
      <use x="879.433594" xlink:href="#DejaVuSans-32"/>
      <use x="911.220703" xlink:href="#DejaVuSans-45"/>
      <use x="947.304688" xlink:href="#DejaVuSans-32"/>
      <use x="979.091797" xlink:href="#DejaVuSans-65"/>
      <use x="1045.75" xlink:href="#DejaVuSans-100"/>
      <use x="1109.226562" xlink:href="#DejaVuSans-97"/>
      <use x="1170.505859" xlink:href="#DejaVuSans-112"/>
      <use x="1233.982422" xlink:href="#DejaVuSans-116"/>
      <use x="1273.191406" xlink:href="#DejaVuSans-101"/>
      <use x="1334.714844" xlink:href="#DejaVuSans-114"/>
      <use x="1375.828125" xlink:href="#DejaVuSans-32"/>
      <use x="1407.615234" xlink:href="#DejaVuSans-49"/>
     </g>
    </g>
    <g id="line2d_42">
     <path d="M 846.059375 305.319194 
L 862.059375 305.319194 
" style="fill:none;stroke:#434348;stroke-linecap:square;"/>
    </g>
    <g id="line2d_43"/>
    <g id="text_28">
     <!-- RTS0_BC_TGTTTG - Adapter 1 -->
     <g transform="translate(868.459375 308.119194)scale(0.08 -0.08)">
      <use xlink:href="#DejaVuSans-82"/>
      <use x="62.232422" xlink:href="#DejaVuSans-84"/>
      <use x="123.316406" xlink:href="#DejaVuSans-83"/>
      <use x="186.792969" xlink:href="#DejaVuSans-48"/>
      <use x="250.416016" xlink:href="#DejaVuSans-95"/>
      <use x="300.416016" xlink:href="#DejaVuSans-66"/>
      <use x="367.269531" xlink:href="#DejaVuSans-67"/>
      <use x="437.09375" xlink:href="#DejaVuSans-95"/>
      <use x="487.09375" xlink:href="#DejaVuSans-84"/>
      <use x="548.177734" xlink:href="#DejaVuSans-71"/>
      <use x="622.042969" xlink:href="#DejaVuSans-84"/>
      <use x="681.376953" xlink:href="#DejaVuSans-84"/>
      <use x="740.710938" xlink:href="#DejaVuSans-84"/>
      <use x="801.794922" xlink:href="#DejaVuSans-71"/>
      <use x="879.285156" xlink:href="#DejaVuSans-32"/>
      <use x="911.072266" xlink:href="#DejaVuSans-45"/>
      <use x="947.15625" xlink:href="#DejaVuSans-32"/>
      <use x="978.943359" xlink:href="#DejaVuSans-65"/>
      <use x="1045.601562" xlink:href="#DejaVuSans-100"/>
      <use x="1109.078125" xlink:href="#DejaVuSans-97"/>
      <use x="1170.357422" xlink:href="#DejaVuSans-112"/>
      <use x="1233.833984" xlink:href="#DejaVuSans-116"/>
      <use x="1273.042969" xlink:href="#DejaVuSans-101"/>
      <use x="1334.566406" xlink:href="#DejaVuSans-114"/>
      <use x="1375.679688" xlink:href="#DejaVuSans-32"/>
      <use x="1407.466797" xlink:href="#DejaVuSans-49"/>
     </g>
    </g>
   </g>
  </g>
 </g>
 <defs>
  <clipPath id="p2e5a7b6b90">
   <rect height="243.9472" width="940.03" x="53.328125" y="31.55486"/>
  </clipPath>
 </defs>
</svg>
