<?xml version="1.0" encoding="utf-8" standalone="no"?>
<!DOCTYPE svg PUBLIC "-//W3C//DTD SVG 1.1//EN"
  "http://www.w3.org/Graphics/SVG/1.1/DTD/svg11.dtd">
<!-- Created with matplotlib (https://matplotlib.org/) -->
<svg height="332.370444pt" version="1.1" viewBox="0 0 1000.683125 332.370444" width="1000.683125pt" xmlns="http://www.w3.org/2000/svg" xmlns:xlink="http://www.w3.org/1999/xlink">
 <metadata>
  <rdf:RDF xmlns:cc="http://creativecommons.org/ns#" xmlns:dc="http://purl.org/dc/elements/1.1/" xmlns:rdf="http://www.w3.org/1999/02/22-rdf-syntax-ns#">
   <cc:Work>
    <dc:type rdf:resource="http://purl.org/dc/dcmitype/StillImage"/>
    <dc:date>2020-09-26T22:33:14.584879</dc:date>
    <dc:format>image/svg+xml</dc:format>
    <dc:creator>
     <cc:Agent>
      <dc:title>Matplotlib v3.3.1, https://matplotlib.org/</dc:title>
     </cc:Agent>
    </dc:creator>
   </cc:Work>
  </rdf:RDF>
 </metadata>
 <defs>
  <style type="text/css">*{stroke-linecap:butt;stroke-linejoin:round;}</style>
 </defs>
 <g id="figure_1">
  <g id="axes_1">
   <g id="patch_1">
    <path d="M 58.418125 275.50206 
L 985.848125 275.50206 
L 985.848125 31.55486 
L 58.418125 31.55486 
z
" style="fill:#ffffff;"/>
   </g>
   <g id="matplotlib.axis_1">
    <g id="xtick_1">
     <g id="text_1">
      <!-- 0 -->
      <g transform="translate(55.873125 288.58081)scale(0.08 -0.08)">
       <defs>
        <path d="M 31.78125 66.40625 
Q 24.171875 66.40625 20.328125 58.90625 
Q 16.5 51.421875 16.5 36.375 
Q 16.5 21.390625 20.328125 13.890625 
Q 24.171875 6.390625 31.78125 6.390625 
Q 39.453125 6.390625 43.28125 13.890625 
Q 47.125 21.390625 47.125 36.375 
Q 47.125 51.421875 43.28125 58.90625 
Q 39.453125 66.40625 31.78125 66.40625 
z
M 31.78125 74.21875 
Q 44.046875 74.21875 50.515625 64.515625 
Q 56.984375 54.828125 56.984375 36.375 
Q 56.984375 17.96875 50.515625 8.265625 
Q 44.046875 -1.421875 31.78125 -1.421875 
Q 19.53125 -1.421875 13.0625 8.265625 
Q 6.59375 17.96875 6.59375 36.375 
Q 6.59375 54.828125 13.0625 64.515625 
Q 19.53125 74.21875 31.78125 74.21875 
z
" id="DejaVuSans-48"/>
       </defs>
       <use xlink:href="#DejaVuSans-48"/>
      </g>
     </g>
    </g>
    <g id="xtick_2">
     <g id="text_2">
      <!-- 20 -->
      <g transform="translate(238.814125 288.58081)scale(0.08 -0.08)">
       <defs>
        <path d="M 19.1875 8.296875 
L 53.609375 8.296875 
L 53.609375 0 
L 7.328125 0 
L 7.328125 8.296875 
Q 12.9375 14.109375 22.625 23.890625 
Q 32.328125 33.6875 34.8125 36.53125 
Q 39.546875 41.84375 41.421875 45.53125 
Q 43.3125 49.21875 43.3125 52.78125 
Q 43.3125 58.59375 39.234375 62.25 
Q 35.15625 65.921875 28.609375 65.921875 
Q 23.96875 65.921875 18.8125 64.3125 
Q 13.671875 62.703125 7.8125 59.421875 
L 7.8125 69.390625 
Q 13.765625 71.78125 18.9375 73 
Q 24.125 74.21875 28.421875 74.21875 
Q 39.75 74.21875 46.484375 68.546875 
Q 53.21875 62.890625 53.21875 53.421875 
Q 53.21875 48.921875 51.53125 44.890625 
Q 49.859375 40.875 45.40625 35.40625 
Q 44.1875 33.984375 37.640625 27.21875 
Q 31.109375 20.453125 19.1875 8.296875 
z
" id="DejaVuSans-50"/>
       </defs>
       <use xlink:href="#DejaVuSans-50"/>
       <use x="63.623047" xlink:href="#DejaVuSans-48"/>
      </g>
     </g>
    </g>
    <g id="xtick_3">
     <g id="text_3">
      <!-- 40 -->
      <g transform="translate(424.300125 288.58081)scale(0.08 -0.08)">
       <defs>
        <path d="M 37.796875 64.3125 
L 12.890625 25.390625 
L 37.796875 25.390625 
z
M 35.203125 72.90625 
L 47.609375 72.90625 
L 47.609375 25.390625 
L 58.015625 25.390625 
L 58.015625 17.1875 
L 47.609375 17.1875 
L 47.609375 0 
L 37.796875 0 
L 37.796875 17.1875 
L 4.890625 17.1875 
L 4.890625 26.703125 
z
" id="DejaVuSans-52"/>
       </defs>
       <use xlink:href="#DejaVuSans-52"/>
       <use x="63.623047" xlink:href="#DejaVuSans-48"/>
      </g>
     </g>
    </g>
    <g id="xtick_4">
     <g id="text_4">
      <!-- 60 -->
      <g transform="translate(609.786125 288.58081)scale(0.08 -0.08)">
       <defs>
        <path d="M 33.015625 40.375 
Q 26.375 40.375 22.484375 35.828125 
Q 18.609375 31.296875 18.609375 23.390625 
Q 18.609375 15.53125 22.484375 10.953125 
Q 26.375 6.390625 33.015625 6.390625 
Q 39.65625 6.390625 43.53125 10.953125 
Q 47.40625 15.53125 47.40625 23.390625 
Q 47.40625 31.296875 43.53125 35.828125 
Q 39.65625 40.375 33.015625 40.375 
z
M 52.59375 71.296875 
L 52.59375 62.3125 
Q 48.875 64.0625 45.09375 64.984375 
Q 41.3125 65.921875 37.59375 65.921875 
Q 27.828125 65.921875 22.671875 59.328125 
Q 17.53125 52.734375 16.796875 39.40625 
Q 19.671875 43.65625 24.015625 45.921875 
Q 28.375 48.1875 33.59375 48.1875 
Q 44.578125 48.1875 50.953125 41.515625 
Q 57.328125 34.859375 57.328125 23.390625 
Q 57.328125 12.15625 50.6875 5.359375 
Q 44.046875 -1.421875 33.015625 -1.421875 
Q 20.359375 -1.421875 13.671875 8.265625 
Q 6.984375 17.96875 6.984375 36.375 
Q 6.984375 53.65625 15.1875 63.9375 
Q 23.390625 74.21875 37.203125 74.21875 
Q 40.921875 74.21875 44.703125 73.484375 
Q 48.484375 72.75 52.59375 71.296875 
z
" id="DejaVuSans-54"/>
       </defs>
       <use xlink:href="#DejaVuSans-54"/>
       <use x="63.623047" xlink:href="#DejaVuSans-48"/>
      </g>
     </g>
    </g>
    <g id="xtick_5">
     <g id="text_5">
      <!-- 80 -->
      <g transform="translate(795.272125 288.58081)scale(0.08 -0.08)">
       <defs>
        <path d="M 31.78125 34.625 
Q 24.75 34.625 20.71875 30.859375 
Q 16.703125 27.09375 16.703125 20.515625 
Q 16.703125 13.921875 20.71875 10.15625 
Q 24.75 6.390625 31.78125 6.390625 
Q 38.8125 6.390625 42.859375 10.171875 
Q 46.921875 13.96875 46.921875 20.515625 
Q 46.921875 27.09375 42.890625 30.859375 
Q 38.875 34.625 31.78125 34.625 
z
M 21.921875 38.8125 
Q 15.578125 40.375 12.03125 44.71875 
Q 8.5 49.078125 8.5 55.328125 
Q 8.5 64.0625 14.71875 69.140625 
Q 20.953125 74.21875 31.78125 74.21875 
Q 42.671875 74.21875 48.875 69.140625 
Q 55.078125 64.0625 55.078125 55.328125 
Q 55.078125 49.078125 51.53125 44.71875 
Q 48 40.375 41.703125 38.8125 
Q 48.828125 37.15625 52.796875 32.3125 
Q 56.78125 27.484375 56.78125 20.515625 
Q 56.78125 9.90625 50.3125 4.234375 
Q 43.84375 -1.421875 31.78125 -1.421875 
Q 19.734375 -1.421875 13.25 4.234375 
Q 6.78125 9.90625 6.78125 20.515625 
Q 6.78125 27.484375 10.78125 32.3125 
Q 14.796875 37.15625 21.921875 38.8125 
z
M 18.3125 54.390625 
Q 18.3125 48.734375 21.84375 45.5625 
Q 25.390625 42.390625 31.78125 42.390625 
Q 38.140625 42.390625 41.71875 45.5625 
Q 45.3125 48.734375 45.3125 54.390625 
Q 45.3125 60.0625 41.71875 63.234375 
Q 38.140625 66.40625 31.78125 66.40625 
Q 25.390625 66.40625 21.84375 63.234375 
Q 18.3125 60.0625 18.3125 54.390625 
z
" id="DejaVuSans-56"/>
       </defs>
       <use xlink:href="#DejaVuSans-56"/>
       <use x="63.623047" xlink:href="#DejaVuSans-48"/>
      </g>
     </g>
    </g>
    <g id="xtick_6">
     <g id="text_6">
      <!-- 100 -->
      <g transform="translate(978.213125 288.58081)scale(0.08 -0.08)">
       <defs>
        <path d="M 12.40625 8.296875 
L 28.515625 8.296875 
L 28.515625 63.921875 
L 10.984375 60.40625 
L 10.984375 69.390625 
L 28.421875 72.90625 
L 38.28125 72.90625 
L 38.28125 8.296875 
L 54.390625 8.296875 
L 54.390625 0 
L 12.40625 0 
z
" id="DejaVuSans-49"/>
       </defs>
       <use xlink:href="#DejaVuSans-49"/>
       <use x="63.623047" xlink:href="#DejaVuSans-48"/>
       <use x="127.246094" xlink:href="#DejaVuSans-48"/>
      </g>
     </g>
    </g>
    <g id="text_7">
     <!-- % GC -->
     <g transform="translate(508.427656 301.842998)scale(0.1 -0.1)">
      <defs>
       <path d="M 72.703125 32.078125 
Q 68.453125 32.078125 66.03125 28.46875 
Q 63.625 24.859375 63.625 18.40625 
Q 63.625 12.0625 66.03125 8.421875 
Q 68.453125 4.78125 72.703125 4.78125 
Q 76.859375 4.78125 79.265625 8.421875 
Q 81.6875 12.0625 81.6875 18.40625 
Q 81.6875 24.8125 79.265625 28.4375 
Q 76.859375 32.078125 72.703125 32.078125 
z
M 72.703125 38.28125 
Q 80.421875 38.28125 84.953125 32.90625 
Q 89.5 27.546875 89.5 18.40625 
Q 89.5 9.28125 84.9375 3.921875 
Q 80.375 -1.421875 72.703125 -1.421875 
Q 64.890625 -1.421875 60.34375 3.921875 
Q 55.8125 9.28125 55.8125 18.40625 
Q 55.8125 27.59375 60.375 32.9375 
Q 64.9375 38.28125 72.703125 38.28125 
z
M 22.3125 68.015625 
Q 18.109375 68.015625 15.6875 64.375 
Q 13.28125 60.75 13.28125 54.390625 
Q 13.28125 47.953125 15.671875 44.328125 
Q 18.0625 40.71875 22.3125 40.71875 
Q 26.5625 40.71875 28.96875 44.328125 
Q 31.390625 47.953125 31.390625 54.390625 
Q 31.390625 60.6875 28.953125 64.34375 
Q 26.515625 68.015625 22.3125 68.015625 
z
M 66.40625 74.21875 
L 74.21875 74.21875 
L 28.609375 -1.421875 
L 20.796875 -1.421875 
z
M 22.3125 74.21875 
Q 30.03125 74.21875 34.609375 68.875 
Q 39.203125 63.53125 39.203125 54.390625 
Q 39.203125 45.171875 34.640625 39.84375 
Q 30.078125 34.515625 22.3125 34.515625 
Q 14.546875 34.515625 10.03125 39.859375 
Q 5.515625 45.21875 5.515625 54.390625 
Q 5.515625 63.484375 10.046875 68.84375 
Q 14.59375 74.21875 22.3125 74.21875 
z
" id="DejaVuSans-37"/>
       <path id="DejaVuSans-32"/>
       <path d="M 59.515625 10.40625 
L 59.515625 29.984375 
L 43.40625 29.984375 
L 43.40625 38.09375 
L 69.28125 38.09375 
L 69.28125 6.78125 
Q 63.578125 2.734375 56.6875 0.65625 
Q 49.8125 -1.421875 42 -1.421875 
Q 24.90625 -1.421875 15.25 8.5625 
Q 5.609375 18.5625 5.609375 36.375 
Q 5.609375 54.25 15.25 64.234375 
Q 24.90625 74.21875 42 74.21875 
Q 49.125 74.21875 55.546875 72.453125 
Q 61.96875 70.703125 67.390625 67.28125 
L 67.390625 56.78125 
Q 61.921875 61.421875 55.765625 63.765625 
Q 49.609375 66.109375 42.828125 66.109375 
Q 29.4375 66.109375 22.71875 58.640625 
Q 16.015625 51.171875 16.015625 36.375 
Q 16.015625 21.625 22.71875 14.15625 
Q 29.4375 6.6875 42.828125 6.6875 
Q 48.046875 6.6875 52.140625 7.59375 
Q 56.25 8.5 59.515625 10.40625 
z
" id="DejaVuSans-71"/>
       <path d="M 64.40625 67.28125 
L 64.40625 56.890625 
Q 59.421875 61.53125 53.78125 63.8125 
Q 48.140625 66.109375 41.796875 66.109375 
Q 29.296875 66.109375 22.65625 58.46875 
Q 16.015625 50.828125 16.015625 36.375 
Q 16.015625 21.96875 22.65625 14.328125 
Q 29.296875 6.6875 41.796875 6.6875 
Q 48.140625 6.6875 53.78125 8.984375 
Q 59.421875 11.28125 64.40625 15.921875 
L 64.40625 5.609375 
Q 59.234375 2.09375 53.4375 0.328125 
Q 47.65625 -1.421875 41.21875 -1.421875 
Q 24.65625 -1.421875 15.125 8.703125 
Q 5.609375 18.84375 5.609375 36.375 
Q 5.609375 53.953125 15.125 64.078125 
Q 24.65625 74.21875 41.21875 74.21875 
Q 47.75 74.21875 53.53125 72.484375 
Q 59.328125 70.75 64.40625 67.28125 
z
" id="DejaVuSans-67"/>
      </defs>
      <use xlink:href="#DejaVuSans-37"/>
      <use x="95.019531" xlink:href="#DejaVuSans-32"/>
      <use x="126.806641" xlink:href="#DejaVuSans-71"/>
      <use x="204.296875" xlink:href="#DejaVuSans-67"/>
     </g>
    </g>
   </g>
   <g id="matplotlib.axis_2">
    <g id="ytick_1">
     <g id="line2d_1">
      <path clip-path="url(#pbfa15af6c3)" d="M 58.418125 275.50206 
L 985.848125 275.50206 
" style="fill:none;stroke:#dedede;stroke-linecap:square;"/>
     </g>
     <g id="text_8">
      <!-- 0 -->
      <g transform="translate(46.328125 278.541435)scale(0.08 -0.08)">
       <use xlink:href="#DejaVuSans-48"/>
      </g>
     </g>
    </g>
    <g id="ytick_2">
     <g id="line2d_2">
      <path clip-path="url(#pbfa15af6c3)" d="M 58.418125 246.314515 
L 985.848125 246.314515 
" style="fill:none;stroke:#dedede;stroke-linecap:square;"/>
     </g>
     <g id="text_9">
      <!-- 20000 -->
      <g transform="translate(25.968125 249.35389)scale(0.08 -0.08)">
       <use xlink:href="#DejaVuSans-50"/>
       <use x="63.623047" xlink:href="#DejaVuSans-48"/>
       <use x="127.246094" xlink:href="#DejaVuSans-48"/>
       <use x="190.869141" xlink:href="#DejaVuSans-48"/>
       <use x="254.492188" xlink:href="#DejaVuSans-48"/>
      </g>
     </g>
    </g>
    <g id="ytick_3">
     <g id="line2d_3">
      <path clip-path="url(#pbfa15af6c3)" d="M 58.418125 217.126971 
L 985.848125 217.126971 
" style="fill:none;stroke:#dedede;stroke-linecap:square;"/>
     </g>
     <g id="text_10">
      <!-- 40000 -->
      <g transform="translate(25.968125 220.166346)scale(0.08 -0.08)">
       <use xlink:href="#DejaVuSans-52"/>
       <use x="63.623047" xlink:href="#DejaVuSans-48"/>
       <use x="127.246094" xlink:href="#DejaVuSans-48"/>
       <use x="190.869141" xlink:href="#DejaVuSans-48"/>
       <use x="254.492188" xlink:href="#DejaVuSans-48"/>
      </g>
     </g>
    </g>
    <g id="ytick_4">
     <g id="line2d_4">
      <path clip-path="url(#pbfa15af6c3)" d="M 58.418125 187.939426 
L 985.848125 187.939426 
" style="fill:none;stroke:#dedede;stroke-linecap:square;"/>
     </g>
     <g id="text_11">
      <!-- 60000 -->
      <g transform="translate(25.968125 190.978801)scale(0.08 -0.08)">
       <use xlink:href="#DejaVuSans-54"/>
       <use x="63.623047" xlink:href="#DejaVuSans-48"/>
       <use x="127.246094" xlink:href="#DejaVuSans-48"/>
       <use x="190.869141" xlink:href="#DejaVuSans-48"/>
       <use x="254.492188" xlink:href="#DejaVuSans-48"/>
      </g>
     </g>
    </g>
    <g id="ytick_5">
     <g id="line2d_5">
      <path clip-path="url(#pbfa15af6c3)" d="M 58.418125 158.751881 
L 985.848125 158.751881 
" style="fill:none;stroke:#dedede;stroke-linecap:square;"/>
     </g>
     <g id="text_12">
      <!-- 80000 -->
      <g transform="translate(25.968125 161.791256)scale(0.08 -0.08)">
       <use xlink:href="#DejaVuSans-56"/>
       <use x="63.623047" xlink:href="#DejaVuSans-48"/>
       <use x="127.246094" xlink:href="#DejaVuSans-48"/>
       <use x="190.869141" xlink:href="#DejaVuSans-48"/>
       <use x="254.492188" xlink:href="#DejaVuSans-48"/>
      </g>
     </g>
    </g>
    <g id="ytick_6">
     <g id="line2d_6">
      <path clip-path="url(#pbfa15af6c3)" d="M 58.418125 129.564337 
L 985.848125 129.564337 
" style="fill:none;stroke:#dedede;stroke-linecap:square;"/>
     </g>
     <g id="text_13">
      <!-- 100000 -->
      <g transform="translate(20.878125 132.603712)scale(0.08 -0.08)">
       <use xlink:href="#DejaVuSans-49"/>
       <use x="63.623047" xlink:href="#DejaVuSans-48"/>
       <use x="127.246094" xlink:href="#DejaVuSans-48"/>
       <use x="190.869141" xlink:href="#DejaVuSans-48"/>
       <use x="254.492188" xlink:href="#DejaVuSans-48"/>
       <use x="318.115234" xlink:href="#DejaVuSans-48"/>
      </g>
     </g>
    </g>
    <g id="ytick_7">
     <g id="line2d_7">
      <path clip-path="url(#pbfa15af6c3)" d="M 58.418125 100.376792 
L 985.848125 100.376792 
" style="fill:none;stroke:#dedede;stroke-linecap:square;"/>
     </g>
     <g id="text_14">
      <!-- 120000 -->
      <g transform="translate(20.878125 103.416167)scale(0.08 -0.08)">
       <use xlink:href="#DejaVuSans-49"/>
       <use x="63.623047" xlink:href="#DejaVuSans-50"/>
       <use x="127.246094" xlink:href="#DejaVuSans-48"/>
       <use x="190.869141" xlink:href="#DejaVuSans-48"/>
       <use x="254.492188" xlink:href="#DejaVuSans-48"/>
       <use x="318.115234" xlink:href="#DejaVuSans-48"/>
      </g>
     </g>
    </g>
    <g id="ytick_8">
     <g id="line2d_8">
      <path clip-path="url(#pbfa15af6c3)" d="M 58.418125 71.189247 
L 985.848125 71.189247 
" style="fill:none;stroke:#dedede;stroke-linecap:square;"/>
     </g>
     <g id="text_15">
      <!-- 140000 -->
      <g transform="translate(20.878125 74.228622)scale(0.08 -0.08)">
       <use xlink:href="#DejaVuSans-49"/>
       <use x="63.623047" xlink:href="#DejaVuSans-52"/>
       <use x="127.246094" xlink:href="#DejaVuSans-48"/>
       <use x="190.869141" xlink:href="#DejaVuSans-48"/>
       <use x="254.492188" xlink:href="#DejaVuSans-48"/>
       <use x="318.115234" xlink:href="#DejaVuSans-48"/>
      </g>
     </g>
    </g>
    <g id="ytick_9">
     <g id="line2d_9">
      <path clip-path="url(#pbfa15af6c3)" d="M 58.418125 42.001702 
L 985.848125 42.001702 
" style="fill:none;stroke:#dedede;stroke-linecap:square;"/>
     </g>
     <g id="text_16">
      <!-- 160000 -->
      <g transform="translate(20.878125 45.041077)scale(0.08 -0.08)">
       <use xlink:href="#DejaVuSans-49"/>
       <use x="63.623047" xlink:href="#DejaVuSans-54"/>
       <use x="127.246094" xlink:href="#DejaVuSans-48"/>
       <use x="190.869141" xlink:href="#DejaVuSans-48"/>
       <use x="254.492188" xlink:href="#DejaVuSans-48"/>
       <use x="318.115234" xlink:href="#DejaVuSans-48"/>
      </g>
     </g>
    </g>
    <g id="text_17">
     <!-- Count -->
     <g transform="translate(14.798438 168.376897)rotate(-90)scale(0.1 -0.1)">
      <defs>
       <path d="M 30.609375 48.390625 
Q 23.390625 48.390625 19.1875 42.75 
Q 14.984375 37.109375 14.984375 27.296875 
Q 14.984375 17.484375 19.15625 11.84375 
Q 23.34375 6.203125 30.609375 6.203125 
Q 37.796875 6.203125 41.984375 11.859375 
Q 46.1875 17.53125 46.1875 27.296875 
Q 46.1875 37.015625 41.984375 42.703125 
Q 37.796875 48.390625 30.609375 48.390625 
z
M 30.609375 56 
Q 42.328125 56 49.015625 48.375 
Q 55.71875 40.765625 55.71875 27.296875 
Q 55.71875 13.875 49.015625 6.21875 
Q 42.328125 -1.421875 30.609375 -1.421875 
Q 18.84375 -1.421875 12.171875 6.21875 
Q 5.515625 13.875 5.515625 27.296875 
Q 5.515625 40.765625 12.171875 48.375 
Q 18.84375 56 30.609375 56 
z
" id="DejaVuSans-111"/>
       <path d="M 8.5 21.578125 
L 8.5 54.6875 
L 17.484375 54.6875 
L 17.484375 21.921875 
Q 17.484375 14.15625 20.5 10.265625 
Q 23.53125 6.390625 29.59375 6.390625 
Q 36.859375 6.390625 41.078125 11.03125 
Q 45.3125 15.671875 45.3125 23.6875 
L 45.3125 54.6875 
L 54.296875 54.6875 
L 54.296875 0 
L 45.3125 0 
L 45.3125 8.40625 
Q 42.046875 3.421875 37.71875 1 
Q 33.40625 -1.421875 27.6875 -1.421875 
Q 18.265625 -1.421875 13.375 4.4375 
Q 8.5 10.296875 8.5 21.578125 
z
M 31.109375 56 
z
" id="DejaVuSans-117"/>
       <path d="M 54.890625 33.015625 
L 54.890625 0 
L 45.90625 0 
L 45.90625 32.71875 
Q 45.90625 40.484375 42.875 44.328125 
Q 39.84375 48.1875 33.796875 48.1875 
Q 26.515625 48.1875 22.3125 43.546875 
Q 18.109375 38.921875 18.109375 30.90625 
L 18.109375 0 
L 9.078125 0 
L 9.078125 54.6875 
L 18.109375 54.6875 
L 18.109375 46.1875 
Q 21.34375 51.125 25.703125 53.5625 
Q 30.078125 56 35.796875 56 
Q 45.21875 56 50.046875 50.171875 
Q 54.890625 44.34375 54.890625 33.015625 
z
" id="DejaVuSans-110"/>
       <path d="M 18.3125 70.21875 
L 18.3125 54.6875 
L 36.8125 54.6875 
L 36.8125 47.703125 
L 18.3125 47.703125 
L 18.3125 18.015625 
Q 18.3125 11.328125 20.140625 9.421875 
Q 21.96875 7.515625 27.59375 7.515625 
L 36.8125 7.515625 
L 36.8125 0 
L 27.59375 0 
Q 17.1875 0 13.234375 3.875 
Q 9.28125 7.765625 9.28125 18.015625 
L 9.28125 47.703125 
L 2.6875 47.703125 
L 2.6875 54.6875 
L 9.28125 54.6875 
L 9.28125 70.21875 
z
" id="DejaVuSans-116"/>
      </defs>
      <use xlink:href="#DejaVuSans-67"/>
      <use x="69.824219" xlink:href="#DejaVuSans-111"/>
      <use x="131.005859" xlink:href="#DejaVuSans-117"/>
      <use x="194.384766" xlink:href="#DejaVuSans-110"/>
      <use x="257.763672" xlink:href="#DejaVuSans-116"/>
     </g>
    </g>
   </g>
   <g id="line2d_10">
    <path clip-path="url(#pbfa15af6c3)" d="M 58.418125 274.935822 
L 67.692425 274.840232 
L 76.966725 274.676782 
L 86.241025 274.503846 
L 95.515325 274.198106 
L 104.789625 273.575682 
L 114.063925 272.565063 
L 123.338225 271.183033 
L 132.612525 269.418646 
L 141.886825 267.638206 
L 151.161125 265.619887 
L 160.435425 263.335962 
L 169.709725 261.686865 
L 178.984025 260.422315 
L 188.258325 258.982639 
L 197.532625 257.704955 
L 206.806925 256.564451 
L 216.081225 255.728958 
L 225.355525 254.624939 
L 234.629825 252.544597 
L 243.904125 249.802427 
L 253.178425 246.225493 
L 262.452725 242.535458 
L 271.727025 239.599191 
L 281.001325 236.066039 
L 290.275625 232.503699 
L 299.549925 228.987329 
L 308.824225 222.850648 
L 318.098525 217.030652 
L 327.372825 213.048011 
L 336.647125 209.001158 
L 345.921425 206.178723 
L 355.195725 202.846235 
L 364.470025 199.409401 
L 373.744325 196.408192 
L 383.018625 193.469736 
L 392.292925 192.890363 
L 401.567225 192.473711 
L 410.841525 190.583088 
L 420.115825 186.94632 
L 429.390125 187.175442 
L 438.664425 190.799805 
L 447.938725 193.149403 
L 457.213025 195.176478 
L 466.487325 195.938273 
L 475.761625 196.908758 
L 485.035925 197.567667 
L 494.310225 198.389297 
L 503.584525 199.814378 
L 512.858825 200.526555 
L 522.133125 202.054523 
L 531.407425 205.146213 
L 540.681725 209.549884 
L 549.956025 214.073953 
L 559.230325 217.641401 
L 568.504625 220.781981 
L 577.778925 223.930587 
L 587.053225 227.348449 
L 596.327525 230.709395 
L 605.601825 234.146958 
L 614.876125 237.761105 
L 624.150425 240.542678 
L 633.424725 242.210017 
L 642.699025 244.134206 
L 651.973325 246.495478 
L 661.247625 248.408722 
L 670.521925 249.91261 
L 679.796225 251.217293 
L 689.070525 252.312556 
L 698.344825 253.559594 
L 707.619125 254.719069 
L 716.893425 255.635558 
L 726.167725 256.603855 
L 735.442025 257.348137 
L 744.716325 257.810759 
L 753.990625 258.06761 
L 763.264925 258.287246 
L 772.539225 258.16174 
L 781.813525 257.667011 
L 791.087825 256.865813 
L 800.362125 256.330221 
L 809.636425 256.42654 
L 818.910725 257.135068 
L 828.185025 258.705358 
L 837.459325 261.017741 
L 846.733625 263.940144 
L 856.007925 266.985864 
L 865.282225 269.69155 
L 874.556525 271.84632 
L 883.830825 273.409313 
L 893.105125 274.335288 
L 902.379425 274.820531 
L 911.653725 275.063517 
L 920.928025 275.191213 
L 930.202325 275.275857 
L 939.476625 275.329124 
L 948.750925 275.357582 
L 958.025225 275.366338 
L 967.299525 275.389688 
L 976.573825 275.427632 
L 985.848125 275.465576 
" style="fill:none;stroke:#f0ad4e;stroke-linecap:square;"/>
   </g>
   <g id="line2d_11">
    <path clip-path="url(#pbfa15af6c3)" d="M 58.418125 274.257211 
L 67.692425 274.115652 
L 76.966725 273.874125 
L 86.241025 273.663974 
L 95.515325 273.338533 
L 104.789625 272.810968 
L 114.063925 271.921478 
L 123.338225 270.685385 
L 132.612525 269.037019 
L 141.886825 267.177043 
L 151.161125 265.085025 
L 160.435425 262.342855 
L 169.709725 259.776541 
L 178.984025 257.31822 
L 188.258325 254.522783 
L 197.532625 251.199781 
L 206.806925 249.259539 
L 216.081225 249.636058 
L 225.355525 248.918774 
L 234.629825 246.761814 
L 243.904125 244.386678 
L 253.178425 242.072835 
L 262.452725 239.815179 
L 271.727025 235.739868 
L 281.001325 232.448243 
L 290.275625 231.373411 
L 299.549925 228.113162 
L 308.824225 219.873519 
L 318.098525 210.467832 
L 327.372825 202.948391 
L 336.647125 196.660664 
L 345.921425 194.127185 
L 355.195725 191.708268 
L 364.470025 187.472425 
L 373.744325 183.892573 
L 383.018625 181.712263 
L 392.292925 178.913907 
L 401.567225 178.614005 
L 410.841525 178.776726 
L 420.115825 173.110694 
L 429.390125 176.724842 
L 438.664425 187.194414 
L 447.938725 191.37407 
L 457.213025 193.681346 
L 466.487325 195.085996 
L 475.761625 196.330845 
L 485.035925 199.715871 
L 494.310225 204.288099 
L 503.584525 208.31817 
L 512.858825 211.351485 
L 522.133125 214.08198 
L 531.407425 216.398012 
L 540.681725 218.893547 
L 549.956025 221.736414 
L 559.230325 224.191086 
L 568.504625 226.489605 
L 577.778925 228.914361 
L 587.053225 231.0487 
L 596.327525 232.705823 
L 605.601825 234.365864 
L 614.876125 235.803351 
L 624.150425 236.670221 
L 633.424725 236.586307 
L 642.699025 236.069687 
L 651.973325 234.940129 
L 661.247625 233.022507 
L 670.521925 230.616724 
L 679.796225 227.962847 
L 689.070525 225.921178 
L 698.344825 224.237057 
L 707.619125 223.180467 
L 716.893425 223.627037 
L 726.167725 225.092252 
L 735.442025 227.376907 
L 744.716325 231.194637 
L 753.990625 235.441425 
L 763.264925 239.412391 
L 772.539225 242.982027 
L 781.813525 245.758493 
L 791.087825 247.492962 
L 800.362125 248.456881 
L 809.636425 249.142788 
L 818.910725 250.016955 
L 828.185025 251.493845 
L 837.459325 254.124373 
L 846.733625 257.659714 
L 856.007925 261.303779 
L 865.282225 265.283501 
L 874.556525 268.788925 
L 883.830825 271.366915 
L 893.105125 273.22908 
L 902.379425 274.405338 
L 911.653725 274.971576 
L 920.928025 275.234264 
L 930.202325 275.350285 
L 939.476625 275.401363 
L 948.750925 275.440036 
L 958.025225 275.464116 
L 967.299525 275.475062 
L 976.573825 275.476521 
L 985.848125 275.47871 
" style="fill:none;stroke:#d9534f;stroke-linecap:square;"/>
   </g>
   <g id="line2d_12">
    <path clip-path="url(#pbfa15af6c3)" d="M 58.418125 274.484874 
L 67.692425 274.380529 
L 76.966725 274.325802 
L 86.241025 274.180594 
L 95.515325 273.629679 
L 104.789625 272.613952 
L 114.063925 270.934939 
L 123.338225 268.516021 
L 132.612525 265.454977 
L 141.886825 262.272076 
L 151.161125 258.584229 
L 160.435425 254.29439 
L 169.709725 250.667838 
L 178.984025 247.31054 
L 188.258325 244.361139 
L 197.532625 241.842983 
L 206.806925 239.90712 
L 216.081225 238.344127 
L 225.355525 235.695357 
L 234.629825 232.027942 
L 243.904125 227.95482 
L 253.178425 222.282221 
L 262.452725 216.249155 
L 271.727025 210.732709 
L 281.001325 203.618245 
L 290.275625 197.18531 
L 299.549925 191.182892 
L 308.824225 181.371499 
L 318.098525 171.090186 
L 327.372825 162.900161 
L 336.647125 155.147949 
L 345.921425 149.843113 
L 355.195725 144.539006 
L 364.470025 138.64896 
L 373.744325 134.113945 
L 383.018625 131.934365 
L 392.292925 130.731109 
L 401.567225 128.075042 
L 410.841525 124.79947 
L 420.115825 119.974769 
L 429.390125 120.941606 
L 438.664425 125.453271 
L 447.938725 128.757301 
L 457.213025 132.510819 
L 466.487325 134.086217 
L 475.761625 135.917735 
L 485.035925 137.518672 
L 494.310225 140.260112 
L 503.584525 144.206268 
L 512.858825 146.465384 
L 522.133125 149.363707 
L 531.407425 155.284401 
L 540.681725 163.243844 
L 549.956025 170.783717 
L 559.230325 177.161925 
L 568.504625 181.956709 
L 577.778925 186.741277 
L 587.053225 192.548139 
L 596.327525 198.787707 
L 605.601825 204.840474 
L 614.876125 209.740333 
L 624.150425 214.180488 
L 633.424725 217.467735 
L 642.699025 219.973486 
L 651.973325 223.266571 
L 661.247625 226.468444 
L 670.521925 228.596946 
L 679.796225 229.903089 
L 689.070525 231.461704 
L 698.344825 233.841948 
L 707.619125 236.284216 
L 716.893425 238.409069 
L 726.167725 240.146457 
L 735.442025 241.694857 
L 744.716325 242.5537 
L 753.990625 242.401925 
L 763.264925 241.691208 
L 772.539225 240.267586 
L 781.813525 238.568141 
L 791.087825 236.737352 
L 800.362125 234.969317 
L 809.636425 234.629282 
L 818.910725 235.850781 
L 828.185025 239.575841 
L 837.459325 245.656336 
L 846.733625 252.636537 
L 856.007925 259.912992 
L 865.282225 265.912492 
L 874.556525 270.081203 
L 883.830825 272.780321 
L 893.105125 274.117841 
L 902.379425 274.696484 
L 911.653725 275.024114 
L 920.928025 275.187564 
L 930.202325 275.260533 
L 939.476625 275.307963 
L 948.750925 275.349555 
L 958.025225 275.380202 
L 967.299525 275.415957 
L 976.573825 275.446604 
L 985.848125 275.453171 
" style="fill:none;stroke:#f0ad4e;stroke-linecap:square;"/>
   </g>
   <g id="line2d_13">
    <path clip-path="url(#pbfa15af6c3)" d="M 58.418125 275.321097 
L 67.692425 275.279505 
L 76.966725 275.232805 
L 86.241025 275.206536 
L 95.515325 275.106569 
L 104.789625 274.91685 
L 114.063925 274.619137 
L 123.338225 274.108355 
L 132.612525 273.566926 
L 141.886825 273.191136 
L 151.161125 272.583306 
L 160.435425 271.569038 
L 169.709725 270.708006 
L 178.984025 270.016991 
L 188.258325 269.141364 
L 197.532625 267.965836 
L 206.806925 267.555021 
L 216.081225 267.903083 
L 225.355525 267.671042 
L 234.629825 266.796875 
L 243.904125 266.032891 
L 253.178425 265.400251 
L 262.452725 263.956927 
L 271.727025 262.094761 
L 281.001325 260.616412 
L 290.275625 259.61309 
L 299.549925 258.27922 
L 308.824225 255.482323 
L 318.098525 251.474144 
L 327.372825 248.231407 
L 336.647125 246.506423 
L 345.921425 244.819383 
L 355.195725 242.223881 
L 364.470025 239.629108 
L 373.744325 237.644355 
L 383.018625 235.612172 
L 392.292925 234.354919 
L 401.567225 234.863512 
L 410.841525 234.662847 
L 420.115825 232.120612 
L 429.390125 232.888974 
L 438.664425 236.306836 
L 447.938725 237.800509 
L 457.213025 238.302534 
L 466.487325 238.285022 
L 475.761625 239.641513 
L 485.035925 243.324981 
L 494.310225 247.247057 
L 503.584525 250.083357 
L 512.858825 252.016302 
L 522.133125 253.666128 
L 531.407425 255.221095 
L 540.681725 256.607503 
L 549.956025 257.772816 
L 559.230325 258.575473 
L 568.504625 259.494151 
L 577.778925 260.741919 
L 587.053225 262.09695 
L 596.327525 263.31699 
L 605.601825 264.298421 
L 614.876125 265.091592 
L 624.150425 265.843172 
L 633.424725 266.604237 
L 642.699025 267.336115 
L 651.973325 267.908191 
L 661.247625 268.325572 
L 670.521925 268.656851 
L 679.796225 268.91735 
L 689.070525 269.350785 
L 698.344825 269.701035 
L 707.619125 269.984884 
L 716.893425 270.540907 
L 726.167725 270.804325 
L 735.442025 270.863429 
L 744.716325 271.009367 
L 753.990625 270.999881 
L 763.264925 270.830593 
L 772.539225 270.553312 
L 781.813525 270.295732 
L 791.087825 270.214736 
L 800.362125 270.133741 
L 809.636425 270.168036 
L 818.910725 270.475235 
L 828.185025 271.131955 
L 837.459325 272.038958 
L 846.733625 273.01893 
L 856.007925 273.86172 
L 865.282225 274.499468 
L 874.556525 274.972306 
L 883.830825 275.239372 
L 893.105125 275.372905 
L 902.379425 275.422524 
L 911.653725 275.441496 
L 920.928025 275.459738 
L 930.202325 275.471413 
L 939.476625 275.481629 
L 948.750925 275.487466 
L 958.025225 275.491844 
L 967.299525 275.494033 
L 976.573825 275.491844 
L 985.848125 275.491844 
" style="fill:none;stroke:#f0ad4e;stroke-linecap:square;"/>
   </g>
   <g id="line2d_14">
    <path clip-path="url(#pbfa15af6c3)" d="M 58.418125 275.083219 
L 67.692425 275.027762 
L 76.966725 274.995656 
L 86.241025 274.924876 
L 95.515325 274.72786 
L 104.789625 274.42431 
L 114.063925 273.867557 
L 123.338225 273.085331 
L 132.612525 272.030931 
L 141.886825 270.840079 
L 151.161125 269.744087 
L 160.435425 268.348922 
L 169.709725 266.990972 
L 178.984025 265.548378 
L 188.258325 263.528599 
L 197.532625 260.687922 
L 206.806925 259.516771 
L 216.081225 260.43472 
L 225.355525 259.928316 
L 234.629825 257.704955 
L 243.904125 255.704878 
L 253.178425 253.56689 
L 262.452725 250.982333 
L 271.727025 247.041285 
L 281.001325 243.971485 
L 290.275625 243.026538 
L 299.549925 239.780883 
L 308.824225 232.374544 
L 318.098525 223.319838 
L 327.372825 216.014925 
L 336.647125 209.855624 
L 345.921425 207.808847 
L 355.195725 206.358226 
L 364.470025 202.351506 
L 373.744325 198.532316 
L 383.018625 196.379004 
L 392.292925 193.569703 
L 401.567225 192.749533 
L 410.841525 191.412014 
L 420.115825 187.182739 
L 429.390125 193.635375 
L 438.664425 203.554033 
L 447.938725 208.66842 
L 457.213025 212.893317 
L 466.487325 213.442043 
L 475.761625 213.594548 
L 485.035925 217.201399 
L 494.310225 221.800626 
L 503.584525 226.205756 
L 512.858825 228.672104 
L 522.133125 230.576591 
L 531.407425 232.589072 
L 540.681725 234.228683 
L 549.956025 236.136818 
L 559.230325 237.84283 
L 568.504625 239.794018 
L 577.778925 242.107131 
L 587.053225 244.78144 
L 596.327525 247.102579 
L 605.601825 249.046469 
L 614.876125 251.258156 
L 624.150425 253.118132 
L 633.424725 254.446895 
L 642.699025 255.862491 
L 651.973325 257.113177 
L 661.247625 258.268274 
L 670.521925 259.270137 
L 679.796225 259.599956 
L 689.070525 259.59047 
L 698.344825 259.518231 
L 707.619125 259.152657 
L 716.893425 258.908941 
L 726.167725 258.661576 
L 735.442025 258.537529 
L 744.716325 259.05123 
L 753.990625 260.020257 
L 763.264925 261.537279 
L 772.539225 263.394337 
L 781.813525 265.109835 
L 791.087825 266.557537 
L 800.362125 267.490079 
L 809.636425 267.921325 
L 818.910725 268.033697 
L 828.185025 268.192039 
L 837.459325 268.35476 
L 846.733625 268.731279 
L 856.007925 269.558017 
L 865.282225 270.617524 
L 874.556525 271.951395 
L 883.830825 273.209378 
L 893.105125 274.16527 
L 902.379425 274.786965 
L 911.653725 275.110217 
L 920.928025 275.270749 
L 930.202325 275.367797 
L 939.476625 275.398444 
L 948.750925 275.416686 
L 958.025225 275.430551 
L 967.299525 275.439307 
L 976.573825 275.433469 
L 985.848125 275.403552 
" style="fill:none;stroke:#f0ad4e;stroke-linecap:square;"/>
   </g>
   <g id="line2d_15">
    <path clip-path="url(#pbfa15af6c3)" d="M 58.418125 274.014955 
L 67.692425 273.881422 
L 76.966725 273.513659 
L 86.241025 273.012362 
L 95.515325 272.412558 
L 104.789625 271.398291 
L 114.063925 269.674037 
L 123.338225 266.758201 
L 132.612525 263.061599 
L 141.886825 259.829078 
L 151.161125 256.645447 
L 160.435425 253.042244 
L 169.709725 250.05344 
L 178.984025 247.494422 
L 188.258325 245.072585 
L 197.532625 242.438409 
L 206.806925 240.618566 
L 216.081225 239.771397 
L 225.355525 238.291589 
L 234.629825 236.187167 
L 243.904125 232.953917 
L 253.178425 228.530544 
L 262.452725 223.988962 
L 271.727025 218.981839 
L 281.001325 213.078658 
L 290.275625 209.232469 
L 299.549925 204.858716 
L 308.824225 195.926598 
L 318.098525 185.972915 
L 327.372825 178.389991 
L 336.647125 172.219014 
L 345.921425 167.271726 
L 355.195725 162.114286 
L 364.470025 157.783584 
L 373.744325 154.047579 
L 383.018625 150.415189 
L 392.292925 148.447948 
L 401.567225 146.520111 
L 410.841525 142.95996 
L 420.115825 138.505211 
L 429.390125 139.310787 
L 438.664425 142.668814 
L 447.938725 145.181132 
L 457.213025 148.422409 
L 466.487325 149.784738 
L 475.761625 150.313032 
L 485.035925 151.134662 
L 494.310225 154.11398 
L 503.584525 158.484815 
L 512.858825 161.378031 
L 522.133125 164.263949 
L 531.407425 168.941983 
L 540.681725 175.459562 
L 549.956025 181.707155 
L 559.230325 187.465128 
L 568.504625 192.192051 
L 577.778925 196.303847 
L 587.053225 200.981151 
L 596.327525 205.62343 
L 605.601825 209.732306 
L 614.876125 213.532524 
L 624.150425 216.473899 
L 633.424725 218.322201 
L 642.699025 220.028213 
L 651.973325 222.162552 
L 661.247625 224.435532 
L 670.521925 226.336371 
L 679.796225 227.610407 
L 689.070525 228.785206 
L 698.344825 230.221233 
L 707.619125 231.969567 
L 716.893425 233.41508 
L 726.167725 234.1185 
L 735.442025 234.450508 
L 744.716325 233.847056 
L 753.990625 232.151259 
L 763.264925 229.952707 
L 772.539225 227.224402 
L 781.813525 224.876993 
L 791.087825 223.252707 
L 800.362125 223.495693 
L 809.636425 226.744996 
L 818.910725 232.270928 
L 828.185025 240.437603 
L 837.459325 249.431745 
L 846.733625 257.582367 
L 856.007925 264.477924 
L 865.282225 269.401863 
L 874.556525 272.415477 
L 883.830825 274.020062 
L 893.105125 274.765804 
L 902.379425 275.062787 
L 911.653725 275.207266 
L 920.928025 275.286802 
L 930.202325 275.311611 
L 939.476625 275.347366 
L 948.750925 275.38531 
L 958.025225 275.416686 
L 967.299525 275.439307 
L 976.573825 275.459008 
L 985.848125 275.472872 
" style="fill:none;stroke:#f0ad4e;stroke-linecap:square;"/>
   </g>
   <g id="line2d_16">
    <path clip-path="url(#pbfa15af6c3)" d="M 58.418125 273.969714 
L 67.692425 273.798237 
L 76.966725 273.722349 
L 86.241025 273.618004 
L 95.515325 272.921151 
L 104.789625 271.572687 
L 114.063925 268.970617 
L 123.338225 265.759987 
L 132.612525 262.069952 
L 141.886825 257.727575 
L 151.161125 253.190371 
L 160.435425 247.907426 
L 169.709725 243.453406 
L 178.984025 240.526625 
L 188.258325 237.744323 
L 197.532625 233.458132 
L 206.806925 229.520002 
L 216.081225 228.216778 
L 225.355525 225.312618 
L 234.629825 219.816603 
L 243.904125 213.034877 
L 253.178425 203.618245 
L 262.452725 193.810501 
L 271.727025 183.704313 
L 281.001325 171.491515 
L 290.275625 161.382409 
L 299.549925 152.446642 
L 308.824225 137.027592 
L 318.098525 119.544982 
L 327.372825 104.185766 
L 336.647125 92.453833 
L 345.921425 85.644379 
L 355.195725 79.473402 
L 364.470025 72.946337 
L 373.744325 67.83195 
L 383.018625 61.38807 
L 392.292925 54.326873 
L 401.567225 50.244265 
L 410.841525 48.831588 
L 420.115825 43.171393 
L 429.390125 45.069313 
L 438.664425 56.739223 
L 447.938725 64.149941 
L 457.213025 68.125285 
L 466.487325 69.432887 
L 475.761625 71.612467 
L 485.035925 73.462957 
L 494.310225 76.598429 
L 503.584525 80.043289 
L 512.858825 80.614635 
L 522.133125 82.159386 
L 531.407425 89.670071 
L 540.681725 100.285581 
L 549.956025 109.305262 
L 559.230325 116.437238 
L 568.504625 122.765828 
L 577.778925 130.887262 
L 587.053225 139.078746 
L 596.327525 147.452653 
L 605.601825 156.234456 
L 614.876125 164.695195 
L 624.150425 172.37006 
L 633.424725 175.092528 
L 642.699025 178.254269 
L 651.973325 185.60953 
L 661.247625 193.079353 
L 670.521925 198.900808 
L 679.796225 199.71806 
L 689.070525 200.485692 
L 698.344825 202.453662 
L 707.619125 202.820696 
L 716.893425 204.200537 
L 726.167725 205.864957 
L 735.442025 207.956974 
L 744.716325 210.529856 
L 753.990625 214.496443 
L 763.264925 219.429868 
L 772.539225 224.396129 
L 781.813525 228.828257 
L 791.087825 231.86814 
L 800.362125 233.647121 
L 809.636425 233.93097 
L 818.910725 233.318761 
L 828.185025 232.689769 
L 837.459325 233.188147 
L 846.733625 235.628226 
L 856.007925 240.361716 
L 865.282225 246.801947 
L 874.556525 254.055052 
L 883.830825 261.614626 
L 893.105125 267.455054 
L 902.379425 271.112253 
L 911.653725 273.235647 
L 920.928025 274.386366 
L 930.202325 274.938011 
L 939.476625 275.137216 
L 948.750925 275.210185 
L 958.025225 275.295558 
L 967.299525 275.349555 
L 976.573825 275.359041 
L 985.848125 275.353933 
" style="fill:none;stroke:#f0ad4e;stroke-linecap:square;"/>
   </g>
   <g id="line2d_17">
    <path clip-path="url(#pbfa15af6c3)" d="M 58.418125 275.271478 
L 67.692425 275.225508 
L 76.966725 275.169322 
L 86.241025 275.138675 
L 95.515325 274.994197 
L 104.789625 274.754859 
L 114.063925 274.298803 
L 123.338225 273.624571 
L 132.612525 272.777403 
L 141.886825 271.82297 
L 151.161125 270.891158 
L 160.435425 269.593771 
L 169.709725 268.278143 
L 178.984025 266.999728 
L 188.258325 264.882902 
L 197.532625 261.658408 
L 206.806925 260.830211 
L 216.081225 262.374962 
L 225.355525 262.547168 
L 234.629825 260.638303 
L 243.904125 259.076769 
L 253.178425 257.432051 
L 262.452725 254.99854 
L 271.727025 252.743072 
L 281.001325 250.915202 
L 290.275625 249.777617 
L 299.549925 247.268218 
L 308.824225 240.825068 
L 318.098525 232.616801 
L 327.372825 226.670568 
L 336.647125 221.739332 
L 345.921425 218.876034 
L 355.195725 216.47171 
L 364.470025 212.915938 
L 373.744325 209.545506 
L 383.018625 208.069346 
L 392.292925 205.740909 
L 401.567225 204.598217 
L 410.841525 203.832774 
L 420.115825 200.282839 
L 429.390125 204.607703 
L 438.664425 212.575173 
L 447.938725 217.465546 
L 457.213025 221.1118 
L 466.487325 221.606529 
L 475.761625 221.667093 
L 485.035925 223.78246 
L 494.310225 226.966092 
L 503.584525 230.104483 
L 512.858825 232.316169 
L 522.133125 234.875187 
L 531.407425 237.531983 
L 540.681725 239.420417 
L 549.956025 241.450411 
L 559.230325 242.895194 
L 568.504625 244.364787 
L 577.778925 246.123337 
L 587.053225 247.973827 
L 596.327525 250.089924 
L 605.601825 251.925091 
L 614.876125 253.998136 
L 624.150425 255.91138 
L 633.424725 257.5758 
L 642.699025 259.157765 
L 651.973325 260.405532 
L 661.247625 261.662786 
L 670.521925 262.855097 
L 679.796225 263.615432 
L 689.070525 264.280179 
L 698.344825 264.949303 
L 707.619125 265.502407 
L 716.893425 265.957003 
L 726.167725 266.31601 
L 735.442025 266.820225 
L 744.716325 267.472566 
L 753.990625 267.941756 
L 763.264925 268.314627 
L 772.539225 268.637879 
L 781.813525 268.825409 
L 791.087825 268.983752 
L 800.362125 268.932673 
L 809.636425 268.597017 
L 818.910725 268.221227 
L 828.185025 267.988456 
L 837.459325 267.835951 
L 846.733625 267.978241 
L 856.007925 268.714496 
L 865.282225 269.903159 
L 874.556525 271.281541 
L 883.830825 272.695678 
L 893.105125 273.860261 
L 902.379425 274.641027 
L 911.653725 275.086867 
L 920.928025 275.294828 
L 930.202325 275.380202 
L 939.476625 275.415227 
L 948.750925 275.437118 
L 958.025225 275.457549 
L 967.299525 275.476521 
L 976.573825 275.477251 
L 985.848125 275.473602 
" style="fill:none;stroke:#f0ad4e;stroke-linecap:square;"/>
   </g>
   <g id="line2d_18">
    <path clip-path="url(#pbfa15af6c3)" d="M 58.418125 275.154728 
L 67.692425 275.10438 
L 76.966725 275.03287 
L 86.241025 274.948226 
L 95.515325 274.763615 
L 104.789625 274.437444 
L 114.063925 273.858801 
L 123.338225 273.046658 
L 132.612525 271.985691 
L 141.886825 271.000611 
L 151.161125 270.033774 
L 160.435425 268.571478 
L 169.709725 267.014322 
L 178.984025 265.738826 
L 188.258325 264.126944 
L 197.532625 261.509551 
L 206.806925 260.531039 
L 216.081225 261.410313 
L 225.355525 260.898072 
L 234.629825 258.785623 
L 243.904125 256.619908 
L 253.178425 254.775255 
L 262.452725 253.018894 
L 271.727025 250.49855 
L 281.001325 248.027094 
L 290.275625 246.3977 
L 299.549925 243.999943 
L 308.824225 238.671757 
L 318.098525 230.736393 
L 327.372825 225.269566 
L 336.647125 221.015481 
L 345.921425 218.178452 
L 355.195725 215.688025 
L 364.470025 211.930858 
L 373.744325 209.175554 
L 383.018625 206.758095 
L 392.292925 204.285181 
L 401.567225 204.557354 
L 410.841525 204.40412 
L 420.115825 200.321512 
L 429.390125 204.091813 
L 438.664425 211.891455 
L 447.938725 215.322451 
L 457.213025 217.73699 
L 466.487325 218.190857 
L 475.761625 218.009894 
L 485.035925 220.568912 
L 494.310225 224.234867 
L 503.584525 226.977767 
L 512.858825 229.798013 
L 522.133125 232.233714 
L 531.407425 234.246195 
L 540.681725 236.409722 
L 549.956025 238.413447 
L 559.230325 240.084434 
L 568.504625 242.39098 
L 577.778925 244.646447 
L 587.053225 246.549475 
L 596.327525 248.306565 
L 605.601825 250.161434 
L 614.876125 252.425657 
L 624.150425 254.238934 
L 633.424725 255.220365 
L 642.699025 256.209823 
L 651.973325 257.682334 
L 661.247625 258.712655 
L 670.521925 259.640089 
L 679.796225 260.073524 
L 689.070525 260.506229 
L 698.344825 260.956447 
L 707.619125 261.032335 
L 716.893425 261.34829 
L 726.167725 261.505173 
L 735.442025 261.673001 
L 744.716325 261.525604 
L 753.990625 261.241755 
L 763.264925 261.092899 
L 772.539225 260.791537 
L 781.813525 260.374885 
L 791.087825 259.622576 
L 800.362125 258.576933 
L 809.636425 257.641472 
L 818.910725 257.049694 
L 828.185025 256.617719 
L 837.459325 256.772413 
L 846.733625 258.081474 
L 856.007925 260.258135 
L 865.282225 263.055032 
L 874.556525 266.279526 
L 883.830825 269.337651 
L 893.105125 271.882804 
L 902.379425 273.596113 
L 911.653725 274.536682 
L 920.928025 275.054761 
L 930.202325 275.303585 
L 939.476625 275.413768 
L 948.750925 275.450252 
L 958.025225 275.468494 
L 967.299525 275.473602 
L 976.573825 275.470683 
L 985.848125 275.473602 
" style="fill:none;stroke:#d9534f;stroke-linecap:square;"/>
   </g>
   <g id="line2d_19">
    <path clip-path="url(#pbfa15af6c3)" d="M 58.418125 275.50206 
L 67.692425 275.50133 
L 76.966725 275.500601 
L 86.241025 275.499871 
L 95.515325 275.498412 
L 104.789625 275.496952 
L 114.063925 275.498412 
L 123.338225 275.499141 
L 132.612525 275.496952 
L 141.886825 275.496222 
L 151.161125 275.494763 
L 160.435425 275.487466 
L 169.709725 275.488196 
L 178.984025 275.494033 
L 188.258325 275.491115 
L 197.532625 275.484547 
L 206.806925 275.486007 
L 216.081225 275.490385 
L 225.355525 275.480899 
L 234.629825 275.475062 
L 243.904125 275.474332 
L 253.178425 275.473602 
L 262.452725 275.467035 
L 271.727025 275.45536 
L 281.001325 275.447333 
L 290.275625 275.450982 
L 299.549925 275.450982 
L 308.824225 275.444415 
L 318.098525 275.435658 
L 327.372825 275.40866 
L 336.647125 275.395525 
L 345.921425 275.410849 
L 355.195725 275.40939 
L 364.470025 275.411579 
L 373.744325 275.43128 
L 383.018625 275.415957 
L 392.292925 275.415957 
L 401.567225 275.426902 
L 410.841525 275.40866 
L 420.115825 275.393336 
L 429.390125 275.405741 
L 438.664425 275.425443 
L 447.938725 275.419605 
L 457.213025 275.402822 
L 466.487325 275.405011 
L 475.761625 275.426172 
L 485.035925 275.414497 
L 494.310225 275.402093 
L 503.584525 275.417416 
L 512.858825 275.421794 
L 522.133125 275.40939 
L 531.407425 275.394066 
L 540.681725 275.399904 
L 549.956025 275.415227 
L 559.230325 275.418146 
L 568.504625 275.426172 
L 577.778925 275.437118 
L 587.053225 275.435658 
L 596.327525 275.433469 
L 605.601825 275.435658 
L 614.876125 275.442226 
L 624.150425 275.448063 
L 633.424725 275.453901 
L 642.699025 275.456819 
L 651.973325 275.450252 
L 661.247625 275.45536 
L 670.521925 275.465576 
L 679.796225 275.464846 
L 689.070525 275.465576 
L 698.344825 275.467765 
L 707.619125 275.463387 
L 716.893425 275.465576 
L 726.167725 275.469954 
L 735.442025 275.475791 
L 744.716325 275.481629 
L 753.990625 275.483088 
L 763.264925 275.486737 
L 772.539225 275.483088 
L 781.813525 275.484547 
L 791.087825 275.491115 
L 800.362125 275.494763 
L 809.636425 275.495493 
L 818.910725 275.494033 
L 828.185025 275.494763 
L 837.459325 275.496222 
L 846.733625 275.496222 
L 856.007925 275.496222 
L 865.282225 275.496952 
L 874.556525 275.497682 
L 883.830825 275.498412 
L 893.105125 275.496952 
L 902.379425 275.497682 
L 911.653725 275.500601 
L 920.928025 275.500601 
L 930.202325 275.500601 
L 939.476625 275.50133 
L 948.750925 275.500601 
L 958.025225 275.499141 
L 967.299525 275.500601 
L 976.573825 275.500601 
L 985.848125 275.499871 
" style="fill:none;stroke:#f0ad4e;stroke-linecap:square;"/>
   </g>
   <g id="line2d_20">
    <path clip-path="url(#pbfa15af6c3)" d="M 58.418125 275.116784 
L 67.692425 275.007331 
L 76.966725 274.852637 
L 86.241025 274.718374 
L 95.515325 274.443282 
L 104.789625 273.912069 
L 114.063925 273.057603 
L 123.338225 272.025823 
L 132.612525 270.751787 
L 141.886825 269.43251 
L 151.161125 267.933 
L 160.435425 266.061349 
L 169.709725 264.278719 
L 178.984025 262.618678 
L 188.258325 260.498932 
L 197.532625 257.297059 
L 206.806925 256.133205 
L 216.081225 257.146743 
L 225.355525 256.753441 
L 234.629825 254.71688 
L 243.904125 252.629241 
L 253.178425 250.804289 
L 262.452725 248.335023 
L 271.727025 245.105421 
L 281.001325 242.359603 
L 290.275625 240.77326 
L 299.549925 237.579413 
L 308.824225 230.39125 
L 318.098525 221.662715 
L 327.372825 214.642381 
L 336.647125 208.443676 
L 345.921425 205.966383 
L 355.195725 203.024279 
L 364.470025 197.404947 
L 373.744325 192.262101 
L 383.018625 187.001046 
L 392.292925 183.465705 
L 401.567225 184.34425 
L 410.841525 183.936354 
L 420.115825 176.970747 
L 429.390125 181.770638 
L 438.664425 193.804663 
L 447.938725 199.074474 
L 457.213025 202.717809 
L 466.487325 202.69373 
L 475.761625 203.427067 
L 485.035925 209.040561 
L 494.310225 215.446498 
L 503.584525 221.002347 
L 512.858825 225.161572 
L 522.133125 228.220427 
L 531.407425 231.049429 
L 540.681725 233.618663 
L 549.956025 236.090118 
L 559.230325 238.402502 
L 568.504625 240.640457 
L 577.778925 243.419111 
L 587.053225 246.503505 
L 596.327525 248.948691 
L 605.601825 250.856827 
L 614.876125 252.897036 
L 624.150425 254.734392 
L 633.424725 256.326573 
L 642.699025 258.049368 
L 651.973325 259.616009 
L 661.247625 261.025768 
L 670.521925 262.314398 
L 679.796225 263.01125 
L 689.070525 263.659214 
L 698.344825 264.589567 
L 707.619125 265.398791 
L 716.893425 266.194882 
L 726.167725 266.85525 
L 735.442025 267.236877 
L 744.716325 267.587857 
L 753.990625 267.843248 
L 763.264925 267.952702 
L 772.539225 267.938837 
L 781.813525 267.81625 
L 791.087825 267.692203 
L 800.362125 267.503943 
L 809.636425 267.614126 
L 818.910725 268.12126 
L 828.185025 268.996156 
L 837.459325 270.051286 
L 846.733625 271.234111 
L 856.007925 272.468744 
L 865.282225 273.51001 
L 874.556525 274.314857 
L 883.830825 274.857015 
L 893.105125 275.167863 
L 902.379425 275.315989 
L 911.653725 275.381661 
L 920.928025 275.423254 
L 930.202325 275.442955 
L 939.476625 275.449522 
L 948.750925 275.464116 
L 958.025225 275.474332 
L 967.299525 275.475062 
L 976.573825 275.483818 
L 985.848125 275.492574 
" style="fill:none;stroke:#f0ad4e;stroke-linecap:square;"/>
   </g>
   <g id="line2d_21">
    <path clip-path="url(#pbfa15af6c3)" d="M 58.418125 273.793129 
L 67.692425 273.62676 
L 76.966725 273.196244 
L 86.241025 272.69057 
L 95.515325 272.040417 
L 104.789625 270.802865 
L 114.063925 268.35403 
L 123.338225 264.936169 
L 132.612525 261.016282 
L 141.886825 257.255466 
L 151.161125 253.538433 
L 160.435425 249.450717 
L 169.709725 245.81103 
L 178.984025 242.316551 
L 188.258325 239.100814 
L 197.532625 235.622388 
L 206.806925 232.742307 
L 216.081225 231.080806 
L 225.355525 228.515951 
L 234.629825 224.008664 
L 243.904125 218.615535 
L 253.178425 212.149765 
L 262.452725 204.354501 
L 271.727025 196.311143 
L 281.001325 187.826324 
L 290.275625 180.581976 
L 299.549925 173.576235 
L 308.824225 162.10699 
L 318.098525 148.895977 
L 327.372825 135.717801 
L 336.647125 126.026076 
L 345.921425 121.49544 
L 355.195725 114.380246 
L 364.470025 106.499609 
L 373.744325 101.95146 
L 383.018625 98.746667 
L 392.292925 96.020551 
L 401.567225 94.31162 
L 410.841525 94.77935 
L 420.115825 92.729655 
L 429.390125 94.783729 
L 438.664425 101.604128 
L 447.938725 108.575573 
L 457.213025 114.48751 
L 466.487325 117.621523 
L 475.761625 122.123702 
L 485.035925 125.210285 
L 494.310225 128.870403 
L 503.584525 132.548033 
L 512.858825 134.767746 
L 522.133125 137.608424 
L 531.407425 144.875393 
L 540.681725 155.114383 
L 549.956025 163.429915 
L 559.230325 169.520626 
L 568.504625 175.007884 
L 577.778925 180.760749 
L 587.053225 186.28887 
L 596.327525 192.28764 
L 605.601825 198.584853 
L 614.876125 203.767102 
L 624.150425 207.49654 
L 633.424725 207.904436 
L 642.699025 208.699067 
L 651.973325 213.672625 
L 661.247625 219.056267 
L 670.521925 223.418346 
L 679.796225 223.748895 
L 689.070525 225.44688 
L 698.344825 229.73672 
L 707.619125 232.492754 
L 716.893425 235.574958 
L 726.167725 238.044225 
L 735.442025 239.346719 
L 744.716325 239.725427 
L 753.990625 239.678727 
L 763.264925 238.869502 
L 772.539225 238.368206 
L 781.813525 238.058818 
L 791.087825 238.513414 
L 800.362125 240.668914 
L 809.636425 244.008699 
L 818.910725 248.462719 
L 828.185025 253.866063 
L 837.459325 259.210302 
L 846.733625 263.824123 
L 856.007925 267.805304 
L 865.282225 270.79265 
L 874.556525 272.696407 
L 883.830825 273.893826 
L 893.105125 274.570977 
L 902.379425 274.897148 
L 911.653725 275.097813 
L 920.928025 275.215292 
L 930.202325 275.257614 
L 939.476625 275.313071 
L 948.750925 275.364149 
L 958.025225 275.395525 
L 967.299525 275.418146 
L 976.573825 275.428361 
L 985.848125 275.440036 
" style="fill:none;stroke:#f0ad4e;stroke-linecap:square;"/>
   </g>
   <g id="line2d_22">
    <path clip-path="url(#pbfa15af6c3)" d="M 58.418125 275.50206 
L 985.848125 275.50206 
" style="fill:none;stroke:#dedede;stroke-linecap:square;stroke-width:2;"/>
   </g>
   <g id="text_18">
    <!-- FastQC: Per Sequence GC Content -->
    <g transform="translate(385.496875 19.3575)scale(0.16 -0.16)">
     <defs>
      <path d="M 9.8125 72.90625 
L 51.703125 72.90625 
L 51.703125 64.59375 
L 19.671875 64.59375 
L 19.671875 43.109375 
L 48.578125 43.109375 
L 48.578125 34.8125 
L 19.671875 34.8125 
L 19.671875 0 
L 9.8125 0 
z
" id="DejaVuSans-70"/>
      <path d="M 34.28125 27.484375 
Q 23.390625 27.484375 19.1875 25 
Q 14.984375 22.515625 14.984375 16.5 
Q 14.984375 11.71875 18.140625 8.90625 
Q 21.296875 6.109375 26.703125 6.109375 
Q 34.1875 6.109375 38.703125 11.40625 
Q 43.21875 16.703125 43.21875 25.484375 
L 43.21875 27.484375 
z
M 52.203125 31.203125 
L 52.203125 0 
L 43.21875 0 
L 43.21875 8.296875 
Q 40.140625 3.328125 35.546875 0.953125 
Q 30.953125 -1.421875 24.3125 -1.421875 
Q 15.921875 -1.421875 10.953125 3.296875 
Q 6 8.015625 6 15.921875 
Q 6 25.140625 12.171875 29.828125 
Q 18.359375 34.515625 30.609375 34.515625 
L 43.21875 34.515625 
L 43.21875 35.40625 
Q 43.21875 41.609375 39.140625 45 
Q 35.0625 48.390625 27.6875 48.390625 
Q 23 48.390625 18.546875 47.265625 
Q 14.109375 46.140625 10.015625 43.890625 
L 10.015625 52.203125 
Q 14.9375 54.109375 19.578125 55.046875 
Q 24.21875 56 28.609375 56 
Q 40.484375 56 46.34375 49.84375 
Q 52.203125 43.703125 52.203125 31.203125 
z
" id="DejaVuSans-97"/>
      <path d="M 44.28125 53.078125 
L 44.28125 44.578125 
Q 40.484375 46.53125 36.375 47.5 
Q 32.28125 48.484375 27.875 48.484375 
Q 21.1875 48.484375 17.84375 46.4375 
Q 14.5 44.390625 14.5 40.28125 
Q 14.5 37.15625 16.890625 35.375 
Q 19.28125 33.59375 26.515625 31.984375 
L 29.59375 31.296875 
Q 39.15625 29.25 43.1875 25.515625 
Q 47.21875 21.78125 47.21875 15.09375 
Q 47.21875 7.46875 41.1875 3.015625 
Q 35.15625 -1.421875 24.609375 -1.421875 
Q 20.21875 -1.421875 15.453125 -0.5625 
Q 10.6875 0.296875 5.421875 2 
L 5.421875 11.28125 
Q 10.40625 8.6875 15.234375 7.390625 
Q 20.0625 6.109375 24.8125 6.109375 
Q 31.15625 6.109375 34.5625 8.28125 
Q 37.984375 10.453125 37.984375 14.40625 
Q 37.984375 18.0625 35.515625 20.015625 
Q 33.0625 21.96875 24.703125 23.78125 
L 21.578125 24.515625 
Q 13.234375 26.265625 9.515625 29.90625 
Q 5.8125 33.546875 5.8125 39.890625 
Q 5.8125 47.609375 11.28125 51.796875 
Q 16.75 56 26.8125 56 
Q 31.78125 56 36.171875 55.265625 
Q 40.578125 54.546875 44.28125 53.078125 
z
" id="DejaVuSans-115"/>
      <path d="M 39.40625 66.21875 
Q 28.65625 66.21875 22.328125 58.203125 
Q 16.015625 50.203125 16.015625 36.375 
Q 16.015625 22.609375 22.328125 14.59375 
Q 28.65625 6.59375 39.40625 6.59375 
Q 50.140625 6.59375 56.421875 14.59375 
Q 62.703125 22.609375 62.703125 36.375 
Q 62.703125 50.203125 56.421875 58.203125 
Q 50.140625 66.21875 39.40625 66.21875 
z
M 53.21875 1.3125 
L 66.21875 -12.890625 
L 54.296875 -12.890625 
L 43.5 -1.21875 
Q 41.890625 -1.3125 41.03125 -1.359375 
Q 40.1875 -1.421875 39.40625 -1.421875 
Q 24.03125 -1.421875 14.8125 8.859375 
Q 5.609375 19.140625 5.609375 36.375 
Q 5.609375 53.65625 14.8125 63.9375 
Q 24.03125 74.21875 39.40625 74.21875 
Q 54.734375 74.21875 63.90625 63.9375 
Q 73.09375 53.65625 73.09375 36.375 
Q 73.09375 23.6875 67.984375 14.640625 
Q 62.890625 5.609375 53.21875 1.3125 
z
" id="DejaVuSans-81"/>
      <path d="M 11.71875 12.40625 
L 22.015625 12.40625 
L 22.015625 0 
L 11.71875 0 
z
M 11.71875 51.703125 
L 22.015625 51.703125 
L 22.015625 39.3125 
L 11.71875 39.3125 
z
" id="DejaVuSans-58"/>
      <path d="M 19.671875 64.796875 
L 19.671875 37.40625 
L 32.078125 37.40625 
Q 38.96875 37.40625 42.71875 40.96875 
Q 46.484375 44.53125 46.484375 51.125 
Q 46.484375 57.671875 42.71875 61.234375 
Q 38.96875 64.796875 32.078125 64.796875 
z
M 9.8125 72.90625 
L 32.078125 72.90625 
Q 44.34375 72.90625 50.609375 67.359375 
Q 56.890625 61.8125 56.890625 51.125 
Q 56.890625 40.328125 50.609375 34.8125 
Q 44.34375 29.296875 32.078125 29.296875 
L 19.671875 29.296875 
L 19.671875 0 
L 9.8125 0 
z
" id="DejaVuSans-80"/>
      <path d="M 56.203125 29.59375 
L 56.203125 25.203125 
L 14.890625 25.203125 
Q 15.484375 15.921875 20.484375 11.0625 
Q 25.484375 6.203125 34.421875 6.203125 
Q 39.59375 6.203125 44.453125 7.46875 
Q 49.3125 8.734375 54.109375 11.28125 
L 54.109375 2.78125 
Q 49.265625 0.734375 44.1875 -0.34375 
Q 39.109375 -1.421875 33.890625 -1.421875 
Q 20.796875 -1.421875 13.15625 6.1875 
Q 5.515625 13.8125 5.515625 26.8125 
Q 5.515625 40.234375 12.765625 48.109375 
Q 20.015625 56 32.328125 56 
Q 43.359375 56 49.78125 48.890625 
Q 56.203125 41.796875 56.203125 29.59375 
z
M 47.21875 32.234375 
Q 47.125 39.59375 43.09375 43.984375 
Q 39.0625 48.390625 32.421875 48.390625 
Q 24.90625 48.390625 20.390625 44.140625 
Q 15.875 39.890625 15.1875 32.171875 
z
" id="DejaVuSans-101"/>
      <path d="M 41.109375 46.296875 
Q 39.59375 47.171875 37.8125 47.578125 
Q 36.03125 48 33.890625 48 
Q 26.265625 48 22.1875 43.046875 
Q 18.109375 38.09375 18.109375 28.8125 
L 18.109375 0 
L 9.078125 0 
L 9.078125 54.6875 
L 18.109375 54.6875 
L 18.109375 46.1875 
Q 20.953125 51.171875 25.484375 53.578125 
Q 30.03125 56 36.53125 56 
Q 37.453125 56 38.578125 55.875 
Q 39.703125 55.765625 41.0625 55.515625 
z
" id="DejaVuSans-114"/>
      <path d="M 53.515625 70.515625 
L 53.515625 60.890625 
Q 47.90625 63.578125 42.921875 64.890625 
Q 37.9375 66.21875 33.296875 66.21875 
Q 25.25 66.21875 20.875 63.09375 
Q 16.5 59.96875 16.5 54.203125 
Q 16.5 49.359375 19.40625 46.890625 
Q 22.3125 44.4375 30.421875 42.921875 
L 36.375 41.703125 
Q 47.40625 39.59375 52.65625 34.296875 
Q 57.90625 29 57.90625 20.125 
Q 57.90625 9.515625 50.796875 4.046875 
Q 43.703125 -1.421875 29.984375 -1.421875 
Q 24.8125 -1.421875 18.96875 -0.25 
Q 13.140625 0.921875 6.890625 3.21875 
L 6.890625 13.375 
Q 12.890625 10.015625 18.65625 8.296875 
Q 24.421875 6.59375 29.984375 6.59375 
Q 38.421875 6.59375 43.015625 9.90625 
Q 47.609375 13.234375 47.609375 19.390625 
Q 47.609375 24.75 44.3125 27.78125 
Q 41.015625 30.8125 33.5 32.328125 
L 27.484375 33.5 
Q 16.453125 35.6875 11.515625 40.375 
Q 6.59375 45.0625 6.59375 53.421875 
Q 6.59375 63.09375 13.40625 68.65625 
Q 20.21875 74.21875 32.171875 74.21875 
Q 37.3125 74.21875 42.625 73.28125 
Q 47.953125 72.359375 53.515625 70.515625 
z
" id="DejaVuSans-83"/>
      <path d="M 14.796875 27.296875 
Q 14.796875 17.390625 18.875 11.75 
Q 22.953125 6.109375 30.078125 6.109375 
Q 37.203125 6.109375 41.296875 11.75 
Q 45.40625 17.390625 45.40625 27.296875 
Q 45.40625 37.203125 41.296875 42.84375 
Q 37.203125 48.484375 30.078125 48.484375 
Q 22.953125 48.484375 18.875 42.84375 
Q 14.796875 37.203125 14.796875 27.296875 
z
M 45.40625 8.203125 
Q 42.578125 3.328125 38.25 0.953125 
Q 33.9375 -1.421875 27.875 -1.421875 
Q 17.96875 -1.421875 11.734375 6.484375 
Q 5.515625 14.40625 5.515625 27.296875 
Q 5.515625 40.1875 11.734375 48.09375 
Q 17.96875 56 27.875 56 
Q 33.9375 56 38.25 53.625 
Q 42.578125 51.265625 45.40625 46.390625 
L 45.40625 54.6875 
L 54.390625 54.6875 
L 54.390625 -20.796875 
L 45.40625 -20.796875 
z
" id="DejaVuSans-113"/>
      <path d="M 48.78125 52.59375 
L 48.78125 44.1875 
Q 44.96875 46.296875 41.140625 47.34375 
Q 37.3125 48.390625 33.40625 48.390625 
Q 24.65625 48.390625 19.8125 42.84375 
Q 14.984375 37.3125 14.984375 27.296875 
Q 14.984375 17.28125 19.8125 11.734375 
Q 24.65625 6.203125 33.40625 6.203125 
Q 37.3125 6.203125 41.140625 7.25 
Q 44.96875 8.296875 48.78125 10.40625 
L 48.78125 2.09375 
Q 45.015625 0.34375 40.984375 -0.53125 
Q 36.96875 -1.421875 32.421875 -1.421875 
Q 20.0625 -1.421875 12.78125 6.34375 
Q 5.515625 14.109375 5.515625 27.296875 
Q 5.515625 40.671875 12.859375 48.328125 
Q 20.21875 56 33.015625 56 
Q 37.15625 56 41.109375 55.140625 
Q 45.0625 54.296875 48.78125 52.59375 
z
" id="DejaVuSans-99"/>
     </defs>
     <use xlink:href="#DejaVuSans-70"/>
     <use x="48.394531" xlink:href="#DejaVuSans-97"/>
     <use x="109.673828" xlink:href="#DejaVuSans-115"/>
     <use x="161.773438" xlink:href="#DejaVuSans-116"/>
     <use x="200.982422" xlink:href="#DejaVuSans-81"/>
     <use x="279.693359" xlink:href="#DejaVuSans-67"/>
     <use x="349.517578" xlink:href="#DejaVuSans-58"/>
     <use x="383.208984" xlink:href="#DejaVuSans-32"/>
     <use x="414.996094" xlink:href="#DejaVuSans-80"/>
     <use x="471.673828" xlink:href="#DejaVuSans-101"/>
     <use x="533.197266" xlink:href="#DejaVuSans-114"/>
     <use x="574.310547" xlink:href="#DejaVuSans-32"/>
     <use x="606.097656" xlink:href="#DejaVuSans-83"/>
     <use x="669.574219" xlink:href="#DejaVuSans-101"/>
     <use x="731.097656" xlink:href="#DejaVuSans-113"/>
     <use x="794.574219" xlink:href="#DejaVuSans-117"/>
     <use x="857.953125" xlink:href="#DejaVuSans-101"/>
     <use x="919.476562" xlink:href="#DejaVuSans-110"/>
     <use x="982.855469" xlink:href="#DejaVuSans-99"/>
     <use x="1037.835938" xlink:href="#DejaVuSans-101"/>
     <use x="1099.359375" xlink:href="#DejaVuSans-32"/>
     <use x="1131.146484" xlink:href="#DejaVuSans-71"/>
     <use x="1208.636719" xlink:href="#DejaVuSans-67"/>
     <use x="1278.460938" xlink:href="#DejaVuSans-32"/>
     <use x="1310.248047" xlink:href="#DejaVuSans-67"/>
     <use x="1380.072266" xlink:href="#DejaVuSans-111"/>
     <use x="1441.253906" xlink:href="#DejaVuSans-110"/>
     <use x="1504.632812" xlink:href="#DejaVuSans-116"/>
     <use x="1543.841797" xlink:href="#DejaVuSans-101"/>
     <use x="1605.365234" xlink:href="#DejaVuSans-110"/>
     <use x="1668.744141" xlink:href="#DejaVuSans-116"/>
    </g>
   </g>
   <g id="legend_1">
    <g id="line2d_23">
     <path d="M 65.618125 293.354194 
L 81.618125 293.354194 
" style="fill:none;stroke:#f0ad4e;stroke-linecap:square;"/>
    </g>
    <g id="line2d_24"/>
    <g id="text_19">
     <!-- RTS0_BC_AGCAAC -->
     <g transform="translate(88.018125 296.154194)scale(0.08 -0.08)">
      <defs>
       <path d="M 44.390625 34.1875 
Q 47.5625 33.109375 50.5625 29.59375 
Q 53.5625 26.078125 56.59375 19.921875 
L 66.609375 0 
L 56 0 
L 46.6875 18.703125 
Q 43.0625 26.03125 39.671875 28.421875 
Q 36.28125 30.8125 30.421875 30.8125 
L 19.671875 30.8125 
L 19.671875 0 
L 9.8125 0 
L 9.8125 72.90625 
L 32.078125 72.90625 
Q 44.578125 72.90625 50.734375 67.671875 
Q 56.890625 62.453125 56.890625 51.90625 
Q 56.890625 45.015625 53.6875 40.46875 
Q 50.484375 35.9375 44.390625 34.1875 
z
M 19.671875 64.796875 
L 19.671875 38.921875 
L 32.078125 38.921875 
Q 39.203125 38.921875 42.84375 42.21875 
Q 46.484375 45.515625 46.484375 51.90625 
Q 46.484375 58.296875 42.84375 61.546875 
Q 39.203125 64.796875 32.078125 64.796875 
z
" id="DejaVuSans-82"/>
       <path d="M -0.296875 72.90625 
L 61.375 72.90625 
L 61.375 64.59375 
L 35.5 64.59375 
L 35.5 0 
L 25.59375 0 
L 25.59375 64.59375 
L -0.296875 64.59375 
z
" id="DejaVuSans-84"/>
       <path d="M 50.984375 -16.609375 
L 50.984375 -23.578125 
L -0.984375 -23.578125 
L -0.984375 -16.609375 
z
" id="DejaVuSans-95"/>
       <path d="M 19.671875 34.8125 
L 19.671875 8.109375 
L 35.5 8.109375 
Q 43.453125 8.109375 47.28125 11.40625 
Q 51.125 14.703125 51.125 21.484375 
Q 51.125 28.328125 47.28125 31.5625 
Q 43.453125 34.8125 35.5 34.8125 
z
M 19.671875 64.796875 
L 19.671875 42.828125 
L 34.28125 42.828125 
Q 41.5 42.828125 45.03125 45.53125 
Q 48.578125 48.25 48.578125 53.8125 
Q 48.578125 59.328125 45.03125 62.0625 
Q 41.5 64.796875 34.28125 64.796875 
z
M 9.8125 72.90625 
L 35.015625 72.90625 
Q 46.296875 72.90625 52.390625 68.21875 
Q 58.5 63.53125 58.5 54.890625 
Q 58.5 48.1875 55.375 44.234375 
Q 52.25 40.28125 46.1875 39.3125 
Q 53.46875 37.75 57.5 32.78125 
Q 61.53125 27.828125 61.53125 20.40625 
Q 61.53125 10.640625 54.890625 5.3125 
Q 48.25 0 35.984375 0 
L 9.8125 0 
z
" id="DejaVuSans-66"/>
       <path d="M 34.1875 63.1875 
L 20.796875 26.90625 
L 47.609375 26.90625 
z
M 28.609375 72.90625 
L 39.796875 72.90625 
L 67.578125 0 
L 57.328125 0 
L 50.6875 18.703125 
L 17.828125 18.703125 
L 11.1875 0 
L 0.78125 0 
z
" id="DejaVuSans-65"/>
      </defs>
      <use xlink:href="#DejaVuSans-82"/>
      <use x="62.232422" xlink:href="#DejaVuSans-84"/>
      <use x="123.316406" xlink:href="#DejaVuSans-83"/>
      <use x="186.792969" xlink:href="#DejaVuSans-48"/>
      <use x="250.416016" xlink:href="#DejaVuSans-95"/>
      <use x="300.416016" xlink:href="#DejaVuSans-66"/>
      <use x="367.269531" xlink:href="#DejaVuSans-67"/>
      <use x="437.09375" xlink:href="#DejaVuSans-95"/>
      <use x="487.09375" xlink:href="#DejaVuSans-65"/>
      <use x="553.751953" xlink:href="#DejaVuSans-71"/>
      <use x="631.242188" xlink:href="#DejaVuSans-67"/>
      <use x="701.066406" xlink:href="#DejaVuSans-65"/>
      <use x="772.224609" xlink:href="#DejaVuSans-65"/>
      <use x="838.882812" xlink:href="#DejaVuSans-67"/>
     </g>
    </g>
    <g id="line2d_25">
     <path d="M 65.618125 305.319194 
L 81.618125 305.319194 
" style="fill:none;stroke:#d9534f;stroke-linecap:square;"/>
    </g>
    <g id="line2d_26"/>
    <g id="text_20">
     <!-- RTS0_BC_ATCGTG -->
     <g transform="translate(88.018125 308.119194)scale(0.08 -0.08)">
      <use xlink:href="#DejaVuSans-82"/>
      <use x="62.232422" xlink:href="#DejaVuSans-84"/>
      <use x="123.316406" xlink:href="#DejaVuSans-83"/>
      <use x="186.792969" xlink:href="#DejaVuSans-48"/>
      <use x="250.416016" xlink:href="#DejaVuSans-95"/>
      <use x="300.416016" xlink:href="#DejaVuSans-66"/>
      <use x="367.269531" xlink:href="#DejaVuSans-67"/>
      <use x="437.09375" xlink:href="#DejaVuSans-95"/>
      <use x="487.09375" xlink:href="#DejaVuSans-65"/>
      <use x="547.751953" xlink:href="#DejaVuSans-84"/>
      <use x="602.960938" xlink:href="#DejaVuSans-67"/>
      <use x="672.785156" xlink:href="#DejaVuSans-71"/>
      <use x="746.650391" xlink:href="#DejaVuSans-84"/>
      <use x="807.734375" xlink:href="#DejaVuSans-71"/>
     </g>
    </g>
    <g id="line2d_27">
     <path d="M 65.618125 317.284194 
L 81.618125 317.284194 
" style="fill:none;stroke:#f0ad4e;stroke-linecap:square;"/>
    </g>
    <g id="line2d_28"/>
    <g id="text_21">
     <!-- RTS0_BC_CCACTA -->
     <g transform="translate(88.018125 320.084194)scale(0.08 -0.08)">
      <use xlink:href="#DejaVuSans-82"/>
      <use x="62.232422" xlink:href="#DejaVuSans-84"/>
      <use x="123.316406" xlink:href="#DejaVuSans-83"/>
      <use x="186.792969" xlink:href="#DejaVuSans-48"/>
      <use x="250.416016" xlink:href="#DejaVuSans-95"/>
      <use x="300.416016" xlink:href="#DejaVuSans-66"/>
      <use x="367.269531" xlink:href="#DejaVuSans-67"/>
      <use x="437.09375" xlink:href="#DejaVuSans-95"/>
      <use x="487.09375" xlink:href="#DejaVuSans-67"/>
      <use x="556.917969" xlink:href="#DejaVuSans-67"/>
      <use x="626.742188" xlink:href="#DejaVuSans-65"/>
      <use x="693.400391" xlink:href="#DejaVuSans-67"/>
      <use x="763.224609" xlink:href="#DejaVuSans-84"/>
      <use x="816.558594" xlink:href="#DejaVuSans-65"/>
     </g>
    </g>
    <g id="line2d_29">
     <path d="M 270.053438 293.354194 
L 286.053438 293.354194 
" style="fill:none;stroke:#f0ad4e;stroke-linecap:square;"/>
    </g>
    <g id="line2d_30"/>
    <g id="text_22">
     <!-- RTS0_BC_CCTATG -->
     <g transform="translate(292.453438 296.154194)scale(0.08 -0.08)">
      <use xlink:href="#DejaVuSans-82"/>
      <use x="62.232422" xlink:href="#DejaVuSans-84"/>
      <use x="123.316406" xlink:href="#DejaVuSans-83"/>
      <use x="186.792969" xlink:href="#DejaVuSans-48"/>
      <use x="250.416016" xlink:href="#DejaVuSans-95"/>
      <use x="300.416016" xlink:href="#DejaVuSans-66"/>
      <use x="367.269531" xlink:href="#DejaVuSans-67"/>
      <use x="437.09375" xlink:href="#DejaVuSans-95"/>
      <use x="487.09375" xlink:href="#DejaVuSans-67"/>
      <use x="556.917969" xlink:href="#DejaVuSans-67"/>
      <use x="626.742188" xlink:href="#DejaVuSans-84"/>
      <use x="680.076172" xlink:href="#DejaVuSans-65"/>
      <use x="740.734375" xlink:href="#DejaVuSans-84"/>
      <use x="801.818359" xlink:href="#DejaVuSans-71"/>
     </g>
    </g>
    <g id="line2d_31">
     <path d="M 270.053438 305.319194 
L 286.053438 305.319194 
" style="fill:none;stroke:#f0ad4e;stroke-linecap:square;"/>
    </g>
    <g id="line2d_32"/>
    <g id="text_23">
     <!-- RTS0_BC_CGTCCG -->
     <g transform="translate(292.453438 308.119194)scale(0.08 -0.08)">
      <use xlink:href="#DejaVuSans-82"/>
      <use x="62.232422" xlink:href="#DejaVuSans-84"/>
      <use x="123.316406" xlink:href="#DejaVuSans-83"/>
      <use x="186.792969" xlink:href="#DejaVuSans-48"/>
      <use x="250.416016" xlink:href="#DejaVuSans-95"/>
      <use x="300.416016" xlink:href="#DejaVuSans-66"/>
      <use x="367.269531" xlink:href="#DejaVuSans-67"/>
      <use x="437.09375" xlink:href="#DejaVuSans-95"/>
      <use x="487.09375" xlink:href="#DejaVuSans-67"/>
      <use x="556.917969" xlink:href="#DejaVuSans-71"/>
      <use x="630.783203" xlink:href="#DejaVuSans-84"/>
      <use x="685.992188" xlink:href="#DejaVuSans-67"/>
      <use x="755.816406" xlink:href="#DejaVuSans-67"/>
      <use x="825.640625" xlink:href="#DejaVuSans-71"/>
     </g>
    </g>
    <g id="line2d_33">
     <path d="M 270.053438 317.284194 
L 286.053438 317.284194 
" style="fill:none;stroke:#f0ad4e;stroke-linecap:square;"/>
    </g>
    <g id="line2d_34"/>
    <g id="text_24">
     <!-- RTS0_BC_CTTACA -->
     <g transform="translate(292.453438 320.084194)scale(0.08 -0.08)">
      <use xlink:href="#DejaVuSans-82"/>
      <use x="62.232422" xlink:href="#DejaVuSans-84"/>
      <use x="123.316406" xlink:href="#DejaVuSans-83"/>
      <use x="186.792969" xlink:href="#DejaVuSans-48"/>
      <use x="250.416016" xlink:href="#DejaVuSans-95"/>
      <use x="300.416016" xlink:href="#DejaVuSans-66"/>
      <use x="367.269531" xlink:href="#DejaVuSans-67"/>
      <use x="437.09375" xlink:href="#DejaVuSans-95"/>
      <use x="487.09375" xlink:href="#DejaVuSans-67"/>
      <use x="556.917969" xlink:href="#DejaVuSans-84"/>
      <use x="616.251953" xlink:href="#DejaVuSans-84"/>
      <use x="669.585938" xlink:href="#DejaVuSans-65"/>
      <use x="736.244141" xlink:href="#DejaVuSans-67"/>
      <use x="806.068359" xlink:href="#DejaVuSans-65"/>
     </g>
    </g>
    <g id="line2d_35">
     <path d="M 474.0425 293.354194 
L 490.0425 293.354194 
" style="fill:none;stroke:#f0ad4e;stroke-linecap:square;"/>
    </g>
    <g id="line2d_36"/>
    <g id="text_25">
     <!-- RTS0_BC_GACGCG -->
     <g transform="translate(496.4425 296.154194)scale(0.08 -0.08)">
      <use xlink:href="#DejaVuSans-82"/>
      <use x="62.232422" xlink:href="#DejaVuSans-84"/>
      <use x="123.316406" xlink:href="#DejaVuSans-83"/>
      <use x="186.792969" xlink:href="#DejaVuSans-48"/>
      <use x="250.416016" xlink:href="#DejaVuSans-95"/>
      <use x="300.416016" xlink:href="#DejaVuSans-66"/>
      <use x="367.269531" xlink:href="#DejaVuSans-67"/>
      <use x="437.09375" xlink:href="#DejaVuSans-95"/>
      <use x="487.09375" xlink:href="#DejaVuSans-71"/>
      <use x="564.583984" xlink:href="#DejaVuSans-65"/>
      <use x="631.242188" xlink:href="#DejaVuSans-67"/>
      <use x="701.066406" xlink:href="#DejaVuSans-71"/>
      <use x="778.556641" xlink:href="#DejaVuSans-67"/>
      <use x="848.380859" xlink:href="#DejaVuSans-71"/>
     </g>
    </g>
    <g id="line2d_37">
     <path d="M 474.0425 305.319194 
L 490.0425 305.319194 
" style="fill:none;stroke:#f0ad4e;stroke-linecap:square;"/>
    </g>
    <g id="line2d_38"/>
    <g id="text_26">
     <!-- RTS0_BC_GGAGGC -->
     <g transform="translate(496.4425 308.119194)scale(0.08 -0.08)">
      <use xlink:href="#DejaVuSans-82"/>
      <use x="62.232422" xlink:href="#DejaVuSans-84"/>
      <use x="123.316406" xlink:href="#DejaVuSans-83"/>
      <use x="186.792969" xlink:href="#DejaVuSans-48"/>
      <use x="250.416016" xlink:href="#DejaVuSans-95"/>
      <use x="300.416016" xlink:href="#DejaVuSans-66"/>
      <use x="367.269531" xlink:href="#DejaVuSans-67"/>
      <use x="437.09375" xlink:href="#DejaVuSans-95"/>
      <use x="487.09375" xlink:href="#DejaVuSans-71"/>
      <use x="564.583984" xlink:href="#DejaVuSans-71"/>
      <use x="642.074219" xlink:href="#DejaVuSans-65"/>
      <use x="708.732422" xlink:href="#DejaVuSans-71"/>
      <use x="786.222656" xlink:href="#DejaVuSans-71"/>
      <use x="863.712891" xlink:href="#DejaVuSans-67"/>
     </g>
    </g>
    <g id="line2d_39">
     <path d="M 680.462813 293.354194 
L 696.462813 293.354194 
" style="fill:none;stroke:#d9534f;stroke-linecap:square;"/>
    </g>
    <g id="line2d_40"/>
    <g id="text_27">
     <!-- RTS0_BC_GTGAGG -->
     <g transform="translate(702.862813 296.154194)scale(0.08 -0.08)">
      <use xlink:href="#DejaVuSans-82"/>
      <use x="62.232422" xlink:href="#DejaVuSans-84"/>
      <use x="123.316406" xlink:href="#DejaVuSans-83"/>
      <use x="186.792969" xlink:href="#DejaVuSans-48"/>
      <use x="250.416016" xlink:href="#DejaVuSans-95"/>
      <use x="300.416016" xlink:href="#DejaVuSans-66"/>
      <use x="367.269531" xlink:href="#DejaVuSans-67"/>
      <use x="437.09375" xlink:href="#DejaVuSans-95"/>
      <use x="487.09375" xlink:href="#DejaVuSans-71"/>
      <use x="560.958984" xlink:href="#DejaVuSans-84"/>
      <use x="622.042969" xlink:href="#DejaVuSans-71"/>
      <use x="699.533203" xlink:href="#DejaVuSans-65"/>
      <use x="766.191406" xlink:href="#DejaVuSans-71"/>
      <use x="843.681641" xlink:href="#DejaVuSans-71"/>
     </g>
    </g>
    <g id="line2d_41">
     <path d="M 680.462813 305.319194 
L 696.462813 305.319194 
" style="fill:none;stroke:#f0ad4e;stroke-linecap:square;"/>
    </g>
    <g id="line2d_42"/>
    <g id="text_28">
     <!-- RTS0_BC_TAGGGG -->
     <g transform="translate(702.862813 308.119194)scale(0.08 -0.08)">
      <use xlink:href="#DejaVuSans-82"/>
      <use x="62.232422" xlink:href="#DejaVuSans-84"/>
      <use x="123.316406" xlink:href="#DejaVuSans-83"/>
      <use x="186.792969" xlink:href="#DejaVuSans-48"/>
      <use x="250.416016" xlink:href="#DejaVuSans-95"/>
      <use x="300.416016" xlink:href="#DejaVuSans-66"/>
      <use x="367.269531" xlink:href="#DejaVuSans-67"/>
      <use x="437.09375" xlink:href="#DejaVuSans-95"/>
      <use x="487.09375" xlink:href="#DejaVuSans-84"/>
      <use x="540.427734" xlink:href="#DejaVuSans-65"/>
      <use x="607.085938" xlink:href="#DejaVuSans-71"/>
      <use x="684.576172" xlink:href="#DejaVuSans-71"/>
      <use x="762.066406" xlink:href="#DejaVuSans-71"/>
      <use x="839.556641" xlink:href="#DejaVuSans-71"/>
     </g>
    </g>
    <g id="line2d_43">
     <path d="M 885.893125 293.354194 
L 901.893125 293.354194 
" style="fill:none;stroke:#f0ad4e;stroke-linecap:square;"/>
    </g>
    <g id="line2d_44"/>
    <g id="text_29">
     <!-- RTS0_BC_TCCTAG -->
     <g transform="translate(908.293125 296.154194)scale(0.08 -0.08)">
      <use xlink:href="#DejaVuSans-82"/>
      <use x="62.232422" xlink:href="#DejaVuSans-84"/>
      <use x="123.316406" xlink:href="#DejaVuSans-83"/>
      <use x="186.792969" xlink:href="#DejaVuSans-48"/>
      <use x="250.416016" xlink:href="#DejaVuSans-95"/>
      <use x="300.416016" xlink:href="#DejaVuSans-66"/>
      <use x="367.269531" xlink:href="#DejaVuSans-67"/>
      <use x="437.09375" xlink:href="#DejaVuSans-95"/>
      <use x="487.09375" xlink:href="#DejaVuSans-84"/>
      <use x="542.302734" xlink:href="#DejaVuSans-67"/>
      <use x="612.126953" xlink:href="#DejaVuSans-67"/>
      <use x="681.951172" xlink:href="#DejaVuSans-84"/>
      <use x="735.285156" xlink:href="#DejaVuSans-65"/>
      <use x="801.943359" xlink:href="#DejaVuSans-71"/>
     </g>
    </g>
    <g id="line2d_45">
     <path d="M 885.893125 305.319194 
L 901.893125 305.319194 
" style="fill:none;stroke:#f0ad4e;stroke-linecap:square;"/>
    </g>
    <g id="line2d_46"/>
    <g id="text_30">
     <!-- RTS0_BC_TGTTTG -->
     <g transform="translate(908.293125 308.119194)scale(0.08 -0.08)">
      <use xlink:href="#DejaVuSans-82"/>
      <use x="62.232422" xlink:href="#DejaVuSans-84"/>
      <use x="123.316406" xlink:href="#DejaVuSans-83"/>
      <use x="186.792969" xlink:href="#DejaVuSans-48"/>
      <use x="250.416016" xlink:href="#DejaVuSans-95"/>
      <use x="300.416016" xlink:href="#DejaVuSans-66"/>
      <use x="367.269531" xlink:href="#DejaVuSans-67"/>
      <use x="437.09375" xlink:href="#DejaVuSans-95"/>
      <use x="487.09375" xlink:href="#DejaVuSans-84"/>
      <use x="548.177734" xlink:href="#DejaVuSans-71"/>
      <use x="622.042969" xlink:href="#DejaVuSans-84"/>
      <use x="681.376953" xlink:href="#DejaVuSans-84"/>
      <use x="740.710938" xlink:href="#DejaVuSans-84"/>
      <use x="801.794922" xlink:href="#DejaVuSans-71"/>
     </g>
    </g>
   </g>
  </g>
 </g>
 <defs>
  <clipPath id="pbfa15af6c3">
   <rect height="243.9472" width="927.43" x="58.418125" y="31.55486"/>
  </clipPath>
 </defs>
</svg>
