<?xml version="1.0" encoding="utf-8" standalone="no"?>
<!DOCTYPE svg PUBLIC "-//W3C//DTD SVG 1.1//EN"
  "http://www.w3.org/Graphics/SVG/1.1/DTD/svg11.dtd">
<!-- Created with matplotlib (https://matplotlib.org/) -->
<svg height="388.844525pt" version="1.1" viewBox="0 0 1000.340625 388.844525" width="1000.340625pt" xmlns="http://www.w3.org/2000/svg" xmlns:xlink="http://www.w3.org/1999/xlink">
 <defs>
  <style type="text/css">
*{stroke-linecap:butt;stroke-linejoin:round;}
  </style>
 </defs>
 <g id="figure_1">
  <g id="axes_1">
   <g id="patch_1">
    <path d="M 40.600625 353.2239 
L 993.140625 353.2239 
L 993.140625 35.2559 
L 40.600625 35.2559 
z
" style="fill:#ffffff;"/>
   </g>
   <g id="matplotlib.axis_1">
    <g id="xtick_1">
     <g id="text_1">
      <!-- 20 -->
      <defs>
       <path d="M 19.1875 8.296875 
L 53.609375 8.296875 
L 53.609375 0 
L 7.328125 0 
L 7.328125 8.296875 
Q 12.9375 14.109375 22.625 23.890625 
Q 32.328125 33.6875 34.8125 36.53125 
Q 39.546875 41.84375 41.421875 45.53125 
Q 43.3125 49.21875 43.3125 52.78125 
Q 43.3125 58.59375 39.234375 62.25 
Q 35.15625 65.921875 28.609375 65.921875 
Q 23.96875 65.921875 18.8125 64.3125 
Q 13.671875 62.703125 7.8125 59.421875 
L 7.8125 69.390625 
Q 13.765625 71.78125 18.9375 73 
Q 24.125 74.21875 28.421875 74.21875 
Q 39.75 74.21875 46.484375 68.546875 
Q 53.21875 62.890625 53.21875 53.421875 
Q 53.21875 48.921875 51.53125 44.890625 
Q 49.859375 40.875 45.40625 35.40625 
Q 44.1875 33.984375 37.640625 27.21875 
Q 31.109375 20.453125 19.1875 8.296875 
z
" id="DejaVuSans-50"/>
       <path d="M 31.78125 66.40625 
Q 24.171875 66.40625 20.328125 58.90625 
Q 16.5 51.421875 16.5 36.375 
Q 16.5 21.390625 20.328125 13.890625 
Q 24.171875 6.390625 31.78125 6.390625 
Q 39.453125 6.390625 43.28125 13.890625 
Q 47.125 21.390625 47.125 36.375 
Q 47.125 51.421875 43.28125 58.90625 
Q 39.453125 66.40625 31.78125 66.40625 
z
M 31.78125 74.21875 
Q 44.046875 74.21875 50.515625 64.515625 
Q 56.984375 54.828125 56.984375 36.375 
Q 56.984375 17.96875 50.515625 8.265625 
Q 44.046875 -1.421875 31.78125 -1.421875 
Q 19.53125 -1.421875 13.0625 8.265625 
Q 6.59375 17.96875 6.59375 36.375 
Q 6.59375 54.828125 13.0625 64.515625 
Q 19.53125 74.21875 31.78125 74.21875 
z
" id="DejaVuSans-48"/>
      </defs>
      <g transform="translate(78.807898 366.30265)scale(0.08 -0.08)">
       <use xlink:href="#DejaVuSans-50"/>
       <use x="63.623047" xlink:href="#DejaVuSans-48"/>
      </g>
     </g>
    </g>
    <g id="xtick_2">
     <g id="text_2">
      <!-- 25 -->
      <defs>
       <path d="M 10.796875 72.90625 
L 49.515625 72.90625 
L 49.515625 64.59375 
L 19.828125 64.59375 
L 19.828125 46.734375 
Q 21.96875 47.46875 24.109375 47.828125 
Q 26.265625 48.1875 28.421875 48.1875 
Q 40.625 48.1875 47.75 41.5 
Q 54.890625 34.8125 54.890625 23.390625 
Q 54.890625 11.625 47.5625 5.09375 
Q 40.234375 -1.421875 26.90625 -1.421875 
Q 22.3125 -1.421875 17.546875 -0.640625 
Q 12.796875 0.140625 7.71875 1.703125 
L 7.71875 11.625 
Q 12.109375 9.234375 16.796875 8.0625 
Q 21.484375 6.890625 26.703125 6.890625 
Q 35.15625 6.890625 40.078125 11.328125 
Q 45.015625 15.765625 45.015625 23.390625 
Q 45.015625 31 40.078125 35.4375 
Q 35.15625 39.890625 26.703125 39.890625 
Q 22.75 39.890625 18.8125 39.015625 
Q 14.890625 38.140625 10.796875 36.28125 
z
" id="DejaVuSans-53"/>
      </defs>
      <g transform="translate(218.476519 366.30265)scale(0.08 -0.08)">
       <use xlink:href="#DejaVuSans-50"/>
       <use x="63.623047" xlink:href="#DejaVuSans-53"/>
      </g>
     </g>
    </g>
    <g id="xtick_3">
     <g id="text_3">
      <!-- 30 -->
      <defs>
       <path d="M 40.578125 39.3125 
Q 47.65625 37.796875 51.625 33 
Q 55.609375 28.21875 55.609375 21.1875 
Q 55.609375 10.40625 48.1875 4.484375 
Q 40.765625 -1.421875 27.09375 -1.421875 
Q 22.515625 -1.421875 17.65625 -0.515625 
Q 12.796875 0.390625 7.625 2.203125 
L 7.625 11.71875 
Q 11.71875 9.328125 16.59375 8.109375 
Q 21.484375 6.890625 26.8125 6.890625 
Q 36.078125 6.890625 40.9375 10.546875 
Q 45.796875 14.203125 45.796875 21.1875 
Q 45.796875 27.640625 41.28125 31.265625 
Q 36.765625 34.90625 28.71875 34.90625 
L 20.21875 34.90625 
L 20.21875 43.015625 
L 29.109375 43.015625 
Q 36.375 43.015625 40.234375 45.921875 
Q 44.09375 48.828125 44.09375 54.296875 
Q 44.09375 59.90625 40.109375 62.90625 
Q 36.140625 65.921875 28.71875 65.921875 
Q 24.65625 65.921875 20.015625 65.03125 
Q 15.375 64.15625 9.8125 62.3125 
L 9.8125 71.09375 
Q 15.4375 72.65625 20.34375 73.4375 
Q 25.25 74.21875 29.59375 74.21875 
Q 40.828125 74.21875 47.359375 69.109375 
Q 53.90625 64.015625 53.90625 55.328125 
Q 53.90625 49.265625 50.4375 45.09375 
Q 46.96875 40.921875 40.578125 39.3125 
z
" id="DejaVuSans-51"/>
      </defs>
      <g transform="translate(358.145141 366.30265)scale(0.08 -0.08)">
       <use xlink:href="#DejaVuSans-51"/>
       <use x="63.623047" xlink:href="#DejaVuSans-48"/>
      </g>
     </g>
    </g>
    <g id="xtick_4">
     <g id="text_4">
      <!-- 35 -->
      <g transform="translate(497.813763 366.30265)scale(0.08 -0.08)">
       <use xlink:href="#DejaVuSans-51"/>
       <use x="63.623047" xlink:href="#DejaVuSans-53"/>
      </g>
     </g>
    </g>
    <g id="xtick_5">
     <g id="text_5">
      <!-- 40 -->
      <defs>
       <path d="M 37.796875 64.3125 
L 12.890625 25.390625 
L 37.796875 25.390625 
z
M 35.203125 72.90625 
L 47.609375 72.90625 
L 47.609375 25.390625 
L 58.015625 25.390625 
L 58.015625 17.1875 
L 47.609375 17.1875 
L 47.609375 0 
L 37.796875 0 
L 37.796875 17.1875 
L 4.890625 17.1875 
L 4.890625 26.703125 
z
" id="DejaVuSans-52"/>
      </defs>
      <g transform="translate(637.482385 366.30265)scale(0.08 -0.08)">
       <use xlink:href="#DejaVuSans-52"/>
       <use x="63.623047" xlink:href="#DejaVuSans-48"/>
      </g>
     </g>
    </g>
    <g id="xtick_6">
     <g id="text_6">
      <!-- 45 -->
      <g transform="translate(777.151006 366.30265)scale(0.08 -0.08)">
       <use xlink:href="#DejaVuSans-52"/>
       <use x="63.623047" xlink:href="#DejaVuSans-53"/>
      </g>
     </g>
    </g>
    <g id="xtick_7">
     <g id="text_7">
      <!-- 50 -->
      <g transform="translate(916.819628 366.30265)scale(0.08 -0.08)">
       <use xlink:href="#DejaVuSans-53"/>
       <use x="63.623047" xlink:href="#DejaVuSans-48"/>
      </g>
     </g>
    </g>
    <g id="text_8">
     <!-- Sequence Length (bp) -->
     <defs>
      <path d="M 53.515625 70.515625 
L 53.515625 60.890625 
Q 47.90625 63.578125 42.921875 64.890625 
Q 37.9375 66.21875 33.296875 66.21875 
Q 25.25 66.21875 20.875 63.09375 
Q 16.5 59.96875 16.5 54.203125 
Q 16.5 49.359375 19.40625 46.890625 
Q 22.3125 44.4375 30.421875 42.921875 
L 36.375 41.703125 
Q 47.40625 39.59375 52.65625 34.296875 
Q 57.90625 29 57.90625 20.125 
Q 57.90625 9.515625 50.796875 4.046875 
Q 43.703125 -1.421875 29.984375 -1.421875 
Q 24.8125 -1.421875 18.96875 -0.25 
Q 13.140625 0.921875 6.890625 3.21875 
L 6.890625 13.375 
Q 12.890625 10.015625 18.65625 8.296875 
Q 24.421875 6.59375 29.984375 6.59375 
Q 38.421875 6.59375 43.015625 9.90625 
Q 47.609375 13.234375 47.609375 19.390625 
Q 47.609375 24.75 44.3125 27.78125 
Q 41.015625 30.8125 33.5 32.328125 
L 27.484375 33.5 
Q 16.453125 35.6875 11.515625 40.375 
Q 6.59375 45.0625 6.59375 53.421875 
Q 6.59375 63.09375 13.40625 68.65625 
Q 20.21875 74.21875 32.171875 74.21875 
Q 37.3125 74.21875 42.625 73.28125 
Q 47.953125 72.359375 53.515625 70.515625 
z
" id="DejaVuSans-83"/>
      <path d="M 56.203125 29.59375 
L 56.203125 25.203125 
L 14.890625 25.203125 
Q 15.484375 15.921875 20.484375 11.0625 
Q 25.484375 6.203125 34.421875 6.203125 
Q 39.59375 6.203125 44.453125 7.46875 
Q 49.3125 8.734375 54.109375 11.28125 
L 54.109375 2.78125 
Q 49.265625 0.734375 44.1875 -0.34375 
Q 39.109375 -1.421875 33.890625 -1.421875 
Q 20.796875 -1.421875 13.15625 6.1875 
Q 5.515625 13.8125 5.515625 26.8125 
Q 5.515625 40.234375 12.765625 48.109375 
Q 20.015625 56 32.328125 56 
Q 43.359375 56 49.78125 48.890625 
Q 56.203125 41.796875 56.203125 29.59375 
z
M 47.21875 32.234375 
Q 47.125 39.59375 43.09375 43.984375 
Q 39.0625 48.390625 32.421875 48.390625 
Q 24.90625 48.390625 20.390625 44.140625 
Q 15.875 39.890625 15.1875 32.171875 
z
" id="DejaVuSans-101"/>
      <path d="M 14.796875 27.296875 
Q 14.796875 17.390625 18.875 11.75 
Q 22.953125 6.109375 30.078125 6.109375 
Q 37.203125 6.109375 41.296875 11.75 
Q 45.40625 17.390625 45.40625 27.296875 
Q 45.40625 37.203125 41.296875 42.84375 
Q 37.203125 48.484375 30.078125 48.484375 
Q 22.953125 48.484375 18.875 42.84375 
Q 14.796875 37.203125 14.796875 27.296875 
z
M 45.40625 8.203125 
Q 42.578125 3.328125 38.25 0.953125 
Q 33.9375 -1.421875 27.875 -1.421875 
Q 17.96875 -1.421875 11.734375 6.484375 
Q 5.515625 14.40625 5.515625 27.296875 
Q 5.515625 40.1875 11.734375 48.09375 
Q 17.96875 56 27.875 56 
Q 33.9375 56 38.25 53.625 
Q 42.578125 51.265625 45.40625 46.390625 
L 45.40625 54.6875 
L 54.390625 54.6875 
L 54.390625 -20.796875 
L 45.40625 -20.796875 
z
" id="DejaVuSans-113"/>
      <path d="M 8.5 21.578125 
L 8.5 54.6875 
L 17.484375 54.6875 
L 17.484375 21.921875 
Q 17.484375 14.15625 20.5 10.265625 
Q 23.53125 6.390625 29.59375 6.390625 
Q 36.859375 6.390625 41.078125 11.03125 
Q 45.3125 15.671875 45.3125 23.6875 
L 45.3125 54.6875 
L 54.296875 54.6875 
L 54.296875 0 
L 45.3125 0 
L 45.3125 8.40625 
Q 42.046875 3.421875 37.71875 1 
Q 33.40625 -1.421875 27.6875 -1.421875 
Q 18.265625 -1.421875 13.375 4.4375 
Q 8.5 10.296875 8.5 21.578125 
z
M 31.109375 56 
z
" id="DejaVuSans-117"/>
      <path d="M 54.890625 33.015625 
L 54.890625 0 
L 45.90625 0 
L 45.90625 32.71875 
Q 45.90625 40.484375 42.875 44.328125 
Q 39.84375 48.1875 33.796875 48.1875 
Q 26.515625 48.1875 22.3125 43.546875 
Q 18.109375 38.921875 18.109375 30.90625 
L 18.109375 0 
L 9.078125 0 
L 9.078125 54.6875 
L 18.109375 54.6875 
L 18.109375 46.1875 
Q 21.34375 51.125 25.703125 53.5625 
Q 30.078125 56 35.796875 56 
Q 45.21875 56 50.046875 50.171875 
Q 54.890625 44.34375 54.890625 33.015625 
z
" id="DejaVuSans-110"/>
      <path d="M 48.78125 52.59375 
L 48.78125 44.1875 
Q 44.96875 46.296875 41.140625 47.34375 
Q 37.3125 48.390625 33.40625 48.390625 
Q 24.65625 48.390625 19.8125 42.84375 
Q 14.984375 37.3125 14.984375 27.296875 
Q 14.984375 17.28125 19.8125 11.734375 
Q 24.65625 6.203125 33.40625 6.203125 
Q 37.3125 6.203125 41.140625 7.25 
Q 44.96875 8.296875 48.78125 10.40625 
L 48.78125 2.09375 
Q 45.015625 0.34375 40.984375 -0.53125 
Q 36.96875 -1.421875 32.421875 -1.421875 
Q 20.0625 -1.421875 12.78125 6.34375 
Q 5.515625 14.109375 5.515625 27.296875 
Q 5.515625 40.671875 12.859375 48.328125 
Q 20.21875 56 33.015625 56 
Q 37.15625 56 41.109375 55.140625 
Q 45.0625 54.296875 48.78125 52.59375 
z
" id="DejaVuSans-99"/>
      <path id="DejaVuSans-32"/>
      <path d="M 9.8125 72.90625 
L 19.671875 72.90625 
L 19.671875 8.296875 
L 55.171875 8.296875 
L 55.171875 0 
L 9.8125 0 
z
" id="DejaVuSans-76"/>
      <path d="M 45.40625 27.984375 
Q 45.40625 37.75 41.375 43.109375 
Q 37.359375 48.484375 30.078125 48.484375 
Q 22.859375 48.484375 18.828125 43.109375 
Q 14.796875 37.75 14.796875 27.984375 
Q 14.796875 18.265625 18.828125 12.890625 
Q 22.859375 7.515625 30.078125 7.515625 
Q 37.359375 7.515625 41.375 12.890625 
Q 45.40625 18.265625 45.40625 27.984375 
z
M 54.390625 6.78125 
Q 54.390625 -7.171875 48.1875 -13.984375 
Q 42 -20.796875 29.203125 -20.796875 
Q 24.46875 -20.796875 20.265625 -20.09375 
Q 16.0625 -19.390625 12.109375 -17.921875 
L 12.109375 -9.1875 
Q 16.0625 -11.328125 19.921875 -12.34375 
Q 23.78125 -13.375 27.78125 -13.375 
Q 36.625 -13.375 41.015625 -8.765625 
Q 45.40625 -4.15625 45.40625 5.171875 
L 45.40625 9.625 
Q 42.625 4.78125 38.28125 2.390625 
Q 33.9375 0 27.875 0 
Q 17.828125 0 11.671875 7.65625 
Q 5.515625 15.328125 5.515625 27.984375 
Q 5.515625 40.671875 11.671875 48.328125 
Q 17.828125 56 27.875 56 
Q 33.9375 56 38.28125 53.609375 
Q 42.625 51.21875 45.40625 46.390625 
L 45.40625 54.6875 
L 54.390625 54.6875 
z
" id="DejaVuSans-103"/>
      <path d="M 18.3125 70.21875 
L 18.3125 54.6875 
L 36.8125 54.6875 
L 36.8125 47.703125 
L 18.3125 47.703125 
L 18.3125 18.015625 
Q 18.3125 11.328125 20.140625 9.421875 
Q 21.96875 7.515625 27.59375 7.515625 
L 36.8125 7.515625 
L 36.8125 0 
L 27.59375 0 
Q 17.1875 0 13.234375 3.875 
Q 9.28125 7.765625 9.28125 18.015625 
L 9.28125 47.703125 
L 2.6875 47.703125 
L 2.6875 54.6875 
L 9.28125 54.6875 
L 9.28125 70.21875 
z
" id="DejaVuSans-116"/>
      <path d="M 54.890625 33.015625 
L 54.890625 0 
L 45.90625 0 
L 45.90625 32.71875 
Q 45.90625 40.484375 42.875 44.328125 
Q 39.84375 48.1875 33.796875 48.1875 
Q 26.515625 48.1875 22.3125 43.546875 
Q 18.109375 38.921875 18.109375 30.90625 
L 18.109375 0 
L 9.078125 0 
L 9.078125 75.984375 
L 18.109375 75.984375 
L 18.109375 46.1875 
Q 21.34375 51.125 25.703125 53.5625 
Q 30.078125 56 35.796875 56 
Q 45.21875 56 50.046875 50.171875 
Q 54.890625 44.34375 54.890625 33.015625 
z
" id="DejaVuSans-104"/>
      <path d="M 31 75.875 
Q 24.46875 64.65625 21.28125 53.65625 
Q 18.109375 42.671875 18.109375 31.390625 
Q 18.109375 20.125 21.3125 9.0625 
Q 24.515625 -2 31 -13.1875 
L 23.1875 -13.1875 
Q 15.875 -1.703125 12.234375 9.375 
Q 8.59375 20.453125 8.59375 31.390625 
Q 8.59375 42.28125 12.203125 53.3125 
Q 15.828125 64.359375 23.1875 75.875 
z
" id="DejaVuSans-40"/>
      <path d="M 48.6875 27.296875 
Q 48.6875 37.203125 44.609375 42.84375 
Q 40.53125 48.484375 33.40625 48.484375 
Q 26.265625 48.484375 22.1875 42.84375 
Q 18.109375 37.203125 18.109375 27.296875 
Q 18.109375 17.390625 22.1875 11.75 
Q 26.265625 6.109375 33.40625 6.109375 
Q 40.53125 6.109375 44.609375 11.75 
Q 48.6875 17.390625 48.6875 27.296875 
z
M 18.109375 46.390625 
Q 20.953125 51.265625 25.265625 53.625 
Q 29.59375 56 35.59375 56 
Q 45.5625 56 51.78125 48.09375 
Q 58.015625 40.1875 58.015625 27.296875 
Q 58.015625 14.40625 51.78125 6.484375 
Q 45.5625 -1.421875 35.59375 -1.421875 
Q 29.59375 -1.421875 25.265625 0.953125 
Q 20.953125 3.328125 18.109375 8.203125 
L 18.109375 0 
L 9.078125 0 
L 9.078125 75.984375 
L 18.109375 75.984375 
z
" id="DejaVuSans-98"/>
      <path d="M 18.109375 8.203125 
L 18.109375 -20.796875 
L 9.078125 -20.796875 
L 9.078125 54.6875 
L 18.109375 54.6875 
L 18.109375 46.390625 
Q 20.953125 51.265625 25.265625 53.625 
Q 29.59375 56 35.59375 56 
Q 45.5625 56 51.78125 48.09375 
Q 58.015625 40.1875 58.015625 27.296875 
Q 58.015625 14.40625 51.78125 6.484375 
Q 45.5625 -1.421875 35.59375 -1.421875 
Q 29.59375 -1.421875 25.265625 0.953125 
Q 20.953125 3.328125 18.109375 8.203125 
z
M 48.6875 27.296875 
Q 48.6875 37.203125 44.609375 42.84375 
Q 40.53125 48.484375 33.40625 48.484375 
Q 26.265625 48.484375 22.1875 42.84375 
Q 18.109375 37.203125 18.109375 27.296875 
Q 18.109375 17.390625 22.1875 11.75 
Q 26.265625 6.109375 33.40625 6.109375 
Q 40.53125 6.109375 44.609375 11.75 
Q 48.6875 17.390625 48.6875 27.296875 
z
" id="DejaVuSans-112"/>
      <path d="M 8.015625 75.875 
L 15.828125 75.875 
Q 23.140625 64.359375 26.78125 53.3125 
Q 30.421875 42.28125 30.421875 31.390625 
Q 30.421875 20.453125 26.78125 9.375 
Q 23.140625 -1.703125 15.828125 -13.1875 
L 8.015625 -13.1875 
Q 14.5 -2 17.703125 9.0625 
Q 20.90625 20.125 20.90625 31.390625 
Q 20.90625 42.671875 17.703125 53.65625 
Q 14.5 64.65625 8.015625 75.875 
z
" id="DejaVuSans-41"/>
     </defs>
     <g transform="translate(461.444063 379.564837)scale(0.1 -0.1)">
      <use xlink:href="#DejaVuSans-83"/>
      <use x="63.476562" xlink:href="#DejaVuSans-101"/>
      <use x="125" xlink:href="#DejaVuSans-113"/>
      <use x="188.476562" xlink:href="#DejaVuSans-117"/>
      <use x="251.855469" xlink:href="#DejaVuSans-101"/>
      <use x="313.378906" xlink:href="#DejaVuSans-110"/>
      <use x="376.757812" xlink:href="#DejaVuSans-99"/>
      <use x="431.738281" xlink:href="#DejaVuSans-101"/>
      <use x="493.261719" xlink:href="#DejaVuSans-32"/>
      <use x="525.048828" xlink:href="#DejaVuSans-76"/>
      <use x="580.746094" xlink:href="#DejaVuSans-101"/>
      <use x="642.269531" xlink:href="#DejaVuSans-110"/>
      <use x="705.648438" xlink:href="#DejaVuSans-103"/>
      <use x="769.125" xlink:href="#DejaVuSans-116"/>
      <use x="808.333984" xlink:href="#DejaVuSans-104"/>
      <use x="871.712891" xlink:href="#DejaVuSans-32"/>
      <use x="903.5" xlink:href="#DejaVuSans-40"/>
      <use x="942.513672" xlink:href="#DejaVuSans-98"/>
      <use x="1005.990234" xlink:href="#DejaVuSans-112"/>
      <use x="1069.466797" xlink:href="#DejaVuSans-41"/>
     </g>
    </g>
   </g>
   <g id="matplotlib.axis_2">
    <g id="ytick_1">
     <g id="line2d_1">
      <path clip-path="url(#p6e1a0fec1a)" d="M 40.600625 353.2239 
L 993.140625 353.2239 
" style="fill:none;stroke:#dedede;stroke-linecap:square;"/>
     </g>
     <g id="text_9">
      <!-- 0.0 -->
      <defs>
       <path d="M 10.6875 12.40625 
L 21 12.40625 
L 21 0 
L 10.6875 0 
z
" id="DejaVuSans-46"/>
      </defs>
      <g transform="translate(20.878125 356.263275)scale(0.08 -0.08)">
       <use xlink:href="#DejaVuSans-48"/>
       <use x="63.623047" xlink:href="#DejaVuSans-46"/>
       <use x="95.410156" xlink:href="#DejaVuSans-48"/>
      </g>
     </g>
    </g>
    <g id="ytick_2">
     <g id="line2d_2">
      <path clip-path="url(#p6e1a0fec1a)" d="M 40.600625 301.586227 
L 993.140625 301.586227 
" style="fill:none;stroke:#dedede;stroke-linecap:square;"/>
     </g>
     <g id="text_10">
      <!-- 0.5 -->
      <g transform="translate(20.878125 304.625602)scale(0.08 -0.08)">
       <use xlink:href="#DejaVuSans-48"/>
       <use x="63.623047" xlink:href="#DejaVuSans-46"/>
       <use x="95.410156" xlink:href="#DejaVuSans-53"/>
      </g>
     </g>
    </g>
    <g id="ytick_3">
     <g id="line2d_3">
      <path clip-path="url(#p6e1a0fec1a)" d="M 40.600625 249.948553 
L 993.140625 249.948553 
" style="fill:none;stroke:#dedede;stroke-linecap:square;"/>
     </g>
     <g id="text_11">
      <!-- 1.0 -->
      <defs>
       <path d="M 12.40625 8.296875 
L 28.515625 8.296875 
L 28.515625 63.921875 
L 10.984375 60.40625 
L 10.984375 69.390625 
L 28.421875 72.90625 
L 38.28125 72.90625 
L 38.28125 8.296875 
L 54.390625 8.296875 
L 54.390625 0 
L 12.40625 0 
z
" id="DejaVuSans-49"/>
      </defs>
      <g transform="translate(20.878125 252.987928)scale(0.08 -0.08)">
       <use xlink:href="#DejaVuSans-49"/>
       <use x="63.623047" xlink:href="#DejaVuSans-46"/>
       <use x="95.410156" xlink:href="#DejaVuSans-48"/>
      </g>
     </g>
    </g>
    <g id="ytick_4">
     <g id="line2d_4">
      <path clip-path="url(#p6e1a0fec1a)" d="M 40.600625 198.31088 
L 993.140625 198.31088 
" style="fill:none;stroke:#dedede;stroke-linecap:square;"/>
     </g>
     <g id="text_12">
      <!-- 1.5 -->
      <g transform="translate(20.878125 201.350255)scale(0.08 -0.08)">
       <use xlink:href="#DejaVuSans-49"/>
       <use x="63.623047" xlink:href="#DejaVuSans-46"/>
       <use x="95.410156" xlink:href="#DejaVuSans-53"/>
      </g>
     </g>
    </g>
    <g id="ytick_5">
     <g id="line2d_5">
      <path clip-path="url(#p6e1a0fec1a)" d="M 40.600625 146.673207 
L 993.140625 146.673207 
" style="fill:none;stroke:#dedede;stroke-linecap:square;"/>
     </g>
     <g id="text_13">
      <!-- 2.0 -->
      <g transform="translate(20.878125 149.712582)scale(0.08 -0.08)">
       <use xlink:href="#DejaVuSans-50"/>
       <use x="63.623047" xlink:href="#DejaVuSans-46"/>
       <use x="95.410156" xlink:href="#DejaVuSans-48"/>
      </g>
     </g>
    </g>
    <g id="ytick_6">
     <g id="line2d_6">
      <path clip-path="url(#p6e1a0fec1a)" d="M 40.600625 95.035533 
L 993.140625 95.035533 
" style="fill:none;stroke:#dedede;stroke-linecap:square;"/>
     </g>
     <g id="text_14">
      <!-- 2.5 -->
      <g transform="translate(20.878125 98.074908)scale(0.08 -0.08)">
       <use xlink:href="#DejaVuSans-50"/>
       <use x="63.623047" xlink:href="#DejaVuSans-46"/>
       <use x="95.410156" xlink:href="#DejaVuSans-53"/>
      </g>
     </g>
    </g>
    <g id="ytick_7">
     <g id="line2d_7">
      <path clip-path="url(#p6e1a0fec1a)" d="M 40.600625 43.39786 
L 993.140625 43.39786 
" style="fill:none;stroke:#dedede;stroke-linecap:square;"/>
     </g>
     <g id="text_15">
      <!-- 3.0 -->
      <g transform="translate(20.878125 46.437235)scale(0.08 -0.08)">
       <use xlink:href="#DejaVuSans-51"/>
       <use x="63.623047" xlink:href="#DejaVuSans-46"/>
       <use x="95.410156" xlink:href="#DejaVuSans-48"/>
      </g>
     </g>
    </g>
    <g id="text_16">
     <!-- Read Count -->
     <defs>
      <path d="M 44.390625 34.1875 
Q 47.5625 33.109375 50.5625 29.59375 
Q 53.5625 26.078125 56.59375 19.921875 
L 66.609375 0 
L 56 0 
L 46.6875 18.703125 
Q 43.0625 26.03125 39.671875 28.421875 
Q 36.28125 30.8125 30.421875 30.8125 
L 19.671875 30.8125 
L 19.671875 0 
L 9.8125 0 
L 9.8125 72.90625 
L 32.078125 72.90625 
Q 44.578125 72.90625 50.734375 67.671875 
Q 56.890625 62.453125 56.890625 51.90625 
Q 56.890625 45.015625 53.6875 40.46875 
Q 50.484375 35.9375 44.390625 34.1875 
z
M 19.671875 64.796875 
L 19.671875 38.921875 
L 32.078125 38.921875 
Q 39.203125 38.921875 42.84375 42.21875 
Q 46.484375 45.515625 46.484375 51.90625 
Q 46.484375 58.296875 42.84375 61.546875 
Q 39.203125 64.796875 32.078125 64.796875 
z
" id="DejaVuSans-82"/>
      <path d="M 34.28125 27.484375 
Q 23.390625 27.484375 19.1875 25 
Q 14.984375 22.515625 14.984375 16.5 
Q 14.984375 11.71875 18.140625 8.90625 
Q 21.296875 6.109375 26.703125 6.109375 
Q 34.1875 6.109375 38.703125 11.40625 
Q 43.21875 16.703125 43.21875 25.484375 
L 43.21875 27.484375 
z
M 52.203125 31.203125 
L 52.203125 0 
L 43.21875 0 
L 43.21875 8.296875 
Q 40.140625 3.328125 35.546875 0.953125 
Q 30.953125 -1.421875 24.3125 -1.421875 
Q 15.921875 -1.421875 10.953125 3.296875 
Q 6 8.015625 6 15.921875 
Q 6 25.140625 12.171875 29.828125 
Q 18.359375 34.515625 30.609375 34.515625 
L 43.21875 34.515625 
L 43.21875 35.40625 
Q 43.21875 41.609375 39.140625 45 
Q 35.0625 48.390625 27.6875 48.390625 
Q 23 48.390625 18.546875 47.265625 
Q 14.109375 46.140625 10.015625 43.890625 
L 10.015625 52.203125 
Q 14.9375 54.109375 19.578125 55.046875 
Q 24.21875 56 28.609375 56 
Q 40.484375 56 46.34375 49.84375 
Q 52.203125 43.703125 52.203125 31.203125 
z
" id="DejaVuSans-97"/>
      <path d="M 45.40625 46.390625 
L 45.40625 75.984375 
L 54.390625 75.984375 
L 54.390625 0 
L 45.40625 0 
L 45.40625 8.203125 
Q 42.578125 3.328125 38.25 0.953125 
Q 33.9375 -1.421875 27.875 -1.421875 
Q 17.96875 -1.421875 11.734375 6.484375 
Q 5.515625 14.40625 5.515625 27.296875 
Q 5.515625 40.1875 11.734375 48.09375 
Q 17.96875 56 27.875 56 
Q 33.9375 56 38.25 53.625 
Q 42.578125 51.265625 45.40625 46.390625 
z
M 14.796875 27.296875 
Q 14.796875 17.390625 18.875 11.75 
Q 22.953125 6.109375 30.078125 6.109375 
Q 37.203125 6.109375 41.296875 11.75 
Q 45.40625 17.390625 45.40625 27.296875 
Q 45.40625 37.203125 41.296875 42.84375 
Q 37.203125 48.484375 30.078125 48.484375 
Q 22.953125 48.484375 18.875 42.84375 
Q 14.796875 37.203125 14.796875 27.296875 
z
" id="DejaVuSans-100"/>
      <path d="M 64.40625 67.28125 
L 64.40625 56.890625 
Q 59.421875 61.53125 53.78125 63.8125 
Q 48.140625 66.109375 41.796875 66.109375 
Q 29.296875 66.109375 22.65625 58.46875 
Q 16.015625 50.828125 16.015625 36.375 
Q 16.015625 21.96875 22.65625 14.328125 
Q 29.296875 6.6875 41.796875 6.6875 
Q 48.140625 6.6875 53.78125 8.984375 
Q 59.421875 11.28125 64.40625 15.921875 
L 64.40625 5.609375 
Q 59.234375 2.09375 53.4375 0.328125 
Q 47.65625 -1.421875 41.21875 -1.421875 
Q 24.65625 -1.421875 15.125 8.703125 
Q 5.609375 18.84375 5.609375 36.375 
Q 5.609375 53.953125 15.125 64.078125 
Q 24.65625 74.21875 41.21875 74.21875 
Q 47.75 74.21875 53.53125 72.484375 
Q 59.328125 70.75 64.40625 67.28125 
z
" id="DejaVuSans-67"/>
      <path d="M 30.609375 48.390625 
Q 23.390625 48.390625 19.1875 42.75 
Q 14.984375 37.109375 14.984375 27.296875 
Q 14.984375 17.484375 19.15625 11.84375 
Q 23.34375 6.203125 30.609375 6.203125 
Q 37.796875 6.203125 41.984375 11.859375 
Q 46.1875 17.53125 46.1875 27.296875 
Q 46.1875 37.015625 41.984375 42.703125 
Q 37.796875 48.390625 30.609375 48.390625 
z
M 30.609375 56 
Q 42.328125 56 49.015625 48.375 
Q 55.71875 40.765625 55.71875 27.296875 
Q 55.71875 13.875 49.015625 6.21875 
Q 42.328125 -1.421875 30.609375 -1.421875 
Q 18.84375 -1.421875 12.171875 6.21875 
Q 5.515625 13.875 5.515625 27.296875 
Q 5.515625 40.765625 12.171875 48.375 
Q 18.84375 56 30.609375 56 
z
" id="DejaVuSans-111"/>
     </defs>
     <g transform="translate(14.798438 223.463338)rotate(-90)scale(0.1 -0.1)">
      <use xlink:href="#DejaVuSans-82"/>
      <use x="69.419922" xlink:href="#DejaVuSans-101"/>
      <use x="130.943359" xlink:href="#DejaVuSans-97"/>
      <use x="192.222656" xlink:href="#DejaVuSans-100"/>
      <use x="255.699219" xlink:href="#DejaVuSans-32"/>
      <use x="287.486328" xlink:href="#DejaVuSans-67"/>
      <use x="357.310547" xlink:href="#DejaVuSans-111"/>
      <use x="418.492188" xlink:href="#DejaVuSans-117"/>
      <use x="481.871094" xlink:href="#DejaVuSans-110"/>
      <use x="545.25" xlink:href="#DejaVuSans-116"/>
     </g>
    </g>
    <g id="text_17">
     <!-- 1e7 -->
     <defs>
      <path d="M 8.203125 72.90625 
L 55.078125 72.90625 
L 55.078125 68.703125 
L 28.609375 0 
L 18.3125 0 
L 43.21875 64.59375 
L 8.203125 64.59375 
z
" id="DejaVuSans-55"/>
     </defs>
     <g transform="translate(40.600625 32.2559)scale(0.1 -0.1)">
      <use xlink:href="#DejaVuSans-49"/>
      <use x="63.623047" xlink:href="#DejaVuSans-101"/>
      <use x="125.146484" xlink:href="#DejaVuSans-55"/>
     </g>
    </g>
   </g>
   <g id="line2d_8">
    <path clip-path="url(#p6e1a0fec1a)" d="M 83.897898 353.219118 
L 111.831622 353.216444 
L 139.765346 353.214285 
L 167.699071 353.208274 
L 195.632795 353.204298 
L 223.566519 353.19804 
L 251.500244 353.196418 
L 279.433968 353.198773 
L 307.367692 353.196697 
L 335.301417 353.195902 
L 363.235141 353.195076 
L 391.168865 353.192546 
L 419.10259 353.189943 
L 447.036314 353.193547 
L 474.970038 353.191885 
L 502.903763 353.188446 
L 530.837487 353.18923 
L 558.771212 353.186773 
L 586.704936 353.18448 
L 614.63866 353.179357 
L 642.572385 353.169939 
L 670.506109 353.165209 
L 698.439833 353.161222 
L 726.373558 353.157762 
L 754.307282 353.135579 
L 782.241006 353.110545 
L 810.174731 352.838683 
L 838.108455 351.762719 
L 866.042179 347.015327 
L 893.975904 352.717221 
L 921.909628 350.572739 
L 949.843352 59.488469 
" style="fill:none;stroke:#f0ad4e;stroke-linecap:square;"/>
   </g>
   <g id="line2d_9">
    <path clip-path="url(#p6e1a0fec1a)" d="M 83.897898 353.219325 
L 111.831622 353.21601 
L 139.765346 353.213965 
L 167.699071 353.209793 
L 195.632795 353.203958 
L 223.566519 353.198401 
L 251.500244 353.196522 
L 279.433968 353.197802 
L 307.367692 353.197761 
L 335.301417 353.195066 
L 363.235141 353.19457 
L 391.168865 353.193196 
L 419.10259 353.189076 
L 447.036314 353.192639 
L 474.970038 353.190253 
L 502.903763 353.187805 
L 530.837487 353.188662 
L 558.771212 353.187196 
L 586.704936 353.183623 
L 614.63866 353.178862 
L 642.572385 353.169267 
L 670.506109 353.164217 
L 698.439833 353.159394 
L 726.373558 353.154902 
L 754.307282 353.135517 
L 782.241006 353.107984 
L 810.174731 352.832497 
L 838.108455 351.678622 
L 866.042179 346.90726 
L 893.975904 352.697299 
L 921.909628 350.472521 
L 949.843352 53.932906 
" style="fill:none;stroke:#f0ad4e;stroke-linecap:square;"/>
   </g>
   <g id="line2d_10">
    <path clip-path="url(#p6e1a0fec1a)" d="M 83.897898 353.218829 
L 111.831622 353.216423 
L 139.765346 353.214585 
L 167.699071 353.209328 
L 195.632795 353.203689 
L 223.566519 353.198071 
L 251.500244 353.197771 
L 279.433968 353.198288 
L 307.367692 353.19678 
L 335.301417 353.195293 
L 363.235141 353.193733 
L 391.168865 353.192442 
L 419.10259 353.18891 
L 447.036314 353.192525 
L 474.970038 353.190842 
L 502.903763 353.187609 
L 530.837487 353.187082 
L 558.771212 353.186421 
L 586.704936 353.183117 
L 614.63866 353.177519 
L 642.572385 353.167791 
L 670.506109 353.161532 
L 698.439833 353.158269 
L 726.373558 353.152888 
L 754.307282 353.13466 
L 782.241006 353.104297 
L 810.174731 352.825763 
L 838.108455 351.645595 
L 866.042179 346.807392 
L 893.975904 352.687911 
L 921.909628 350.463722 
L 949.843352 50.397016 
" style="fill:none;stroke:#f0ad4e;stroke-linecap:square;"/>
   </g>
   <g id="line2d_11">
    <path clip-path="url(#p6e1a0fec1a)" d="M 83.897898 353.219046 
L 111.831622 353.216826 
L 139.765346 353.213882 
L 167.699071 353.209235 
L 195.632795 353.203235 
L 223.566519 353.198122 
L 251.500244 353.19679 
L 279.433968 353.196666 
L 307.367692 353.195809 
L 335.301417 353.194818 
L 363.235141 353.192504 
L 391.168865 353.191451 
L 419.10259 353.187919 
L 447.036314 353.190573 
L 474.970038 353.188807 
L 502.903763 353.187289 
L 530.837487 353.187516 
L 558.771212 353.186204 
L 586.704936 353.1826 
L 614.63866 353.17913 
L 642.572385 353.167522 
L 670.506109 353.159962 
L 698.439833 353.157102 
L 726.373558 353.152867 
L 754.307282 353.132718 
L 782.241006 353.103977 
L 810.174731 352.819205 
L 838.108455 351.677527 
L 866.042179 346.870669 
L 893.975904 352.676313 
L 921.909628 350.392865 
L 949.843352 52.16982 
" style="fill:none;stroke:#f0ad4e;stroke-linecap:square;"/>
   </g>
   <g id="line2d_12">
    <path clip-path="url(#p6e1a0fec1a)" d="M 83.897898 353.217032 
L 111.831622 353.215504 
L 139.765346 353.212891 
L 167.699071 353.207737 
L 195.632795 353.200498 
L 223.566519 353.193114 
L 251.500244 353.193186 
L 279.433968 353.193537 
L 307.367692 353.190656 
L 335.301417 353.189117 
L 363.235141 353.188786 
L 391.168865 353.1889 
L 419.10259 353.185482 
L 447.036314 353.187299 
L 474.970038 353.185554 
L 502.903763 353.183685 
L 530.837487 353.182507 
L 558.771212 353.178345 
L 586.704936 353.17566 
L 614.63866 353.167357 
L 642.572385 353.161728 
L 670.506109 353.153838 
L 698.439833 353.149098 
L 726.373558 353.146609 
L 754.307282 353.122824 
L 782.241006 353.093474 
L 810.174731 352.750651 
L 838.108455 351.756543 
L 866.042179 346.882918 
L 893.975904 352.588746 
L 921.909628 350.339554 
L 949.843352 60.13964 
" style="fill:none;stroke:#f0ad4e;stroke-linecap:square;"/>
   </g>
   <g id="line2d_13">
    <path clip-path="url(#p6e1a0fec1a)" d="M 83.897898 353.2179 
L 111.831622 353.214915 
L 139.765346 353.213872 
L 167.699071 353.207996 
L 195.632795 353.199692 
L 223.566519 353.191936 
L 251.500244 353.19268 
L 279.433968 353.193795 
L 307.367692 353.191058 
L 335.301417 353.189592 
L 363.235141 353.191482 
L 391.168865 353.189757 
L 419.10259 353.189024 
L 447.036314 353.189416 
L 474.970038 353.185223 
L 502.903763 353.184005 
L 530.837487 353.184593 
L 558.771212 353.179192 
L 586.704936 353.17628 
L 614.63866 353.170372 
L 642.572385 353.163825 
L 670.506109 353.157577 
L 698.439833 353.153766 
L 726.373558 353.150151 
L 754.307282 353.132109 
L 782.241006 353.098803 
L 810.174731 352.791434 
L 838.108455 351.807974 
L 866.042179 346.840988 
L 893.975904 352.633609 
L 921.909628 350.531997 
L 949.843352 68.300438 
" style="fill:none;stroke:#f0ad4e;stroke-linecap:square;"/>
   </g>
   <g id="line2d_14">
    <path clip-path="url(#p6e1a0fec1a)" d="M 83.897898 353.21633 
L 111.831622 353.213211 
L 139.765346 353.21222 
L 167.699071 353.207262 
L 195.632795 353.197203 
L 223.566519 353.19016 
L 251.500244 353.191141 
L 279.433968 353.191348 
L 307.367692 353.188373 
L 335.301417 353.188053 
L 363.235141 353.187805 
L 391.168865 353.18763 
L 419.10259 353.185564 
L 447.036314 353.187299 
L 474.970038 353.183199 
L 502.903763 353.180287 
L 530.837487 353.180132 
L 558.771212 353.174669 
L 586.704936 353.171209 
L 614.63866 353.166024 
L 642.572385 353.158558 
L 670.506109 353.14981 
L 698.439833 353.14443 
L 726.373558 353.142447 
L 754.307282 353.119695 
L 782.241006 353.083631 
L 810.174731 352.765182 
L 838.108455 351.800921 
L 866.042179 346.878239 
L 893.975904 352.54755 
L 921.909628 350.111749 
L 949.843352 62.3591 
" style="fill:none;stroke:#f0ad4e;stroke-linecap:square;"/>
   </g>
   <g id="line2d_15">
    <path clip-path="url(#p6e1a0fec1a)" d="M 83.897898 353.215917 
L 111.831622 353.212942 
L 139.765346 353.210867 
L 167.699071 353.205486 
L 195.632795 353.19614 
L 223.566519 353.187681 
L 251.500244 353.189613 
L 279.433968 353.18828 
L 307.367692 353.185554 
L 335.301417 353.184686 
L 363.235141 353.185667 
L 391.168865 353.18481 
L 419.10259 353.182962 
L 447.036314 353.182549 
L 474.970038 353.181268 
L 502.903763 353.178077 
L 530.837487 353.176775 
L 558.771212 353.171508 
L 586.704936 353.166789 
L 614.63866 353.160623 
L 642.572385 353.152568 
L 670.506109 353.144223 
L 698.439833 353.136622 
L 726.373558 353.134226 
L 754.307282 353.110731 
L 782.241006 353.074719 
L 810.174731 352.724264 
L 838.108455 351.746815 
L 866.042179 346.641976 
L 893.975904 352.469381 
L 921.909628 349.792732 
L 949.843352 51.355504 
" style="fill:none;stroke:#f0ad4e;stroke-linecap:square;"/>
   </g>
   <g id="line2d_16">
    <path clip-path="url(#p6e1a0fec1a)" d="M 83.897898 353.216413 
L 111.831622 353.214048 
L 139.765346 353.212757 
L 167.699071 353.20814 
L 195.632795 353.197699 
L 223.566519 353.19111 
L 251.500244 353.191905 
L 279.433968 353.192102 
L 307.367692 353.188755 
L 335.301417 353.18765 
L 363.235141 353.187733 
L 391.168865 353.188198 
L 419.10259 353.185409 
L 447.036314 353.186752 
L 474.970038 353.184118 
L 502.903763 353.179915 
L 530.837487 353.18134 
L 558.771212 353.177695 
L 586.704936 353.173388 
L 614.63866 353.167099 
L 642.572385 353.161584 
L 670.506109 353.151752 
L 698.439833 353.148561 
L 726.373558 353.142591 
L 754.307282 353.122453 
L 782.241006 353.086998 
L 810.174731 352.756197 
L 838.108455 351.795375 
L 866.042179 346.824247 
L 893.975904 352.56333 
L 921.909628 350.211296 
L 949.843352 64.079667 
" style="fill:none;stroke:#f0ad4e;stroke-linecap:square;"/>
   </g>
   <g id="line2d_17">
    <path clip-path="url(#p6e1a0fec1a)" d="M 83.897898 353.216103 
L 111.831622 353.21413 
L 139.765346 353.210898 
L 167.699071 353.206044 
L 195.632795 353.19521 
L 223.566519 353.18858 
L 251.500244 353.190119 
L 279.433968 353.190893 
L 307.367692 353.188435 
L 335.301417 353.186143 
L 363.235141 353.185977 
L 391.168865 353.185368 
L 419.10259 353.184645 
L 447.036314 353.183984 
L 474.970038 353.182135 
L 502.903763 353.178748 
L 530.837487 353.178655 
L 558.771212 353.174111 
L 586.704936 353.171178 
L 614.63866 353.164909 
L 642.572385 353.157298 
L 670.506109 353.14979 
L 698.439833 353.143273 
L 726.373558 353.138037 
L 754.307282 353.116783 
L 782.241006 353.081246 
L 810.174731 352.753264 
L 838.108455 351.791058 
L 866.042179 346.853536 
L 893.975904 352.515576 
L 921.909628 349.997609 
L 949.843352 61.521702 
" style="fill:none;stroke:#f0ad4e;stroke-linecap:square;"/>
   </g>
   <g id="line2d_18">
    <path clip-path="url(#p6e1a0fec1a)" d="M 83.897898 353.219335 
L 111.831622 353.216588 
L 139.765346 353.214244 
L 167.699071 353.210082 
L 195.632795 353.202522 
L 223.566519 353.196687 
L 251.500244 353.195644 
L 279.433968 353.197079 
L 307.367692 353.194993 
L 335.301417 353.193764 
L 363.235141 353.19299 
L 391.168865 353.192515 
L 419.10259 353.18953 
L 447.036314 353.191079 
L 474.970038 353.189737 
L 502.903763 353.187413 
L 530.837487 353.186256 
L 558.771212 353.18512 
L 586.704936 353.182332 
L 614.63866 353.175867 
L 642.572385 353.164506 
L 670.506109 353.157959 
L 698.439833 353.153229 
L 726.373558 353.148313 
L 754.307282 353.128567 
L 782.241006 353.095766 
L 810.174731 352.817728 
L 838.108455 351.639667 
L 866.042179 346.890643 
L 893.975904 352.685319 
L 921.909628 350.432068 
L 949.843352 52.99531 
" style="fill:none;stroke:#f0ad4e;stroke-linecap:square;"/>
   </g>
   <g id="line2d_19">
    <path clip-path="url(#p6e1a0fec1a)" d="M 83.897898 353.217889 
L 111.831622 353.215607 
L 139.765346 353.213893 
L 167.699071 353.207324 
L 195.632795 353.201417 
L 223.566519 353.193537 
L 251.500244 353.192205 
L 279.433968 353.192742 
L 307.367692 353.189871 
L 335.301417 353.189664 
L 363.235141 353.187382 
L 391.168865 353.186556 
L 419.10259 353.183788 
L 447.036314 353.186029 
L 474.970038 353.18417 
L 502.903763 353.1826 
L 530.837487 353.181237 
L 558.771212 353.177788 
L 586.704936 353.171725 
L 614.63866 353.16369 
L 642.572385 353.156255 
L 670.506109 353.145886 
L 698.439833 353.142251 
L 726.373558 353.133214 
L 754.307282 353.114087 
L 782.241006 353.078581 
L 810.174731 352.796794 
L 838.108455 351.601145 
L 866.042179 346.728903 
L 893.975904 352.570374 
L 921.909628 350.269285 
L 949.843352 51.659836 
" style="fill:none;stroke:#f0ad4e;stroke-linecap:square;"/>
   </g>
   <g id="line2d_20">
    <path clip-path="url(#p6e1a0fec1a)" d="M 83.897898 353.216877 
L 111.831622 353.215617 
L 139.765346 353.213304 
L 167.699071 353.208192 
L 195.632795 353.201675 
L 223.566519 353.1949 
L 251.500244 353.194312 
L 279.433968 353.196088 
L 307.367692 353.19236 
L 335.301417 353.191358 
L 363.235141 353.192484 
L 391.168865 353.189169 
L 419.10259 353.18952 
L 447.036314 353.191544 
L 474.970038 353.189427 
L 502.903763 353.186896 
L 530.837487 353.185957 
L 558.771212 353.182094 
L 586.704936 353.181154 
L 614.63866 353.177065 
L 642.572385 353.168297 
L 670.506109 353.16084 
L 698.439833 353.155449 
L 726.373558 353.154034 
L 754.307282 353.133896 
L 782.241006 353.098875 
L 810.174731 352.741274 
L 838.108455 351.779605 
L 866.042179 346.902984 
L 893.975904 352.672213 
L 921.909628 350.408562 
L 949.843352 57.935166 
" style="fill:none;stroke:#f0ad4e;stroke-linecap:square;"/>
   </g>
   <g id="line2d_21">
    <path clip-path="url(#p6e1a0fec1a)" d="M 83.897898 353.217993 
L 111.831622 353.215638 
L 139.765346 353.213376 
L 167.699071 353.207448 
L 195.632795 353.200911 
L 223.566519 353.193599 
L 251.500244 353.192732 
L 279.433968 353.191544 
L 307.367692 353.190666 
L 335.301417 353.190057 
L 363.235141 353.187867 
L 391.168865 353.187475 
L 419.10259 353.185378 
L 447.036314 353.185998 
L 474.970038 353.183189 
L 502.903763 353.181857 
L 530.837487 353.180235 
L 558.771212 353.178562 
L 586.704936 353.171095 
L 614.63866 353.164114 
L 642.572385 353.154613 
L 670.506109 353.145948 
L 698.439833 353.140732 
L 726.373558 353.134164 
L 754.307282 353.112796 
L 782.241006 353.078488 
L 810.174731 352.797321 
L 838.108455 351.606567 
L 866.042179 346.822553 
L 893.975904 352.558228 
L 921.909628 350.146904 
L 949.843352 51.287487 
" style="fill:none;stroke:#f0ad4e;stroke-linecap:square;"/>
   </g>
   <g id="line2d_22">
    <path clip-path="url(#p6e1a0fec1a)" d="M 83.897898 353.217115 
L 111.831622 353.214605 
L 139.765346 353.213211 
L 167.699071 353.208522 
L 195.632795 353.202026 
L 223.566519 353.194725 
L 251.500244 353.196346 
L 279.433968 353.196016 
L 307.367692 353.192938 
L 335.301417 353.191585 
L 363.235141 353.193021 
L 391.168865 353.190635 
L 419.10259 353.188704 
L 447.036314 353.191967 
L 474.970038 353.190088 
L 502.903763 353.187485 
L 530.837487 353.186452 
L 558.771212 353.182177 
L 586.704936 353.18069 
L 614.63866 353.177726 
L 642.572385 353.169102 
L 670.506109 353.161315 
L 698.439833 353.156255 
L 726.373558 353.155057 
L 754.307282 353.132346 
L 782.241006 353.101632 
L 810.174731 352.745745 
L 838.108455 351.802718 
L 866.042179 346.998318 
L 893.975904 352.660058 
L 921.909628 350.325829 
L 949.843352 59.743972 
" style="fill:none;stroke:#f0ad4e;stroke-linecap:square;"/>
   </g>
   <g id="line2d_23">
    <path clip-path="url(#p6e1a0fec1a)" d="M 83.897898 353.218602 
L 111.831622 353.216371 
L 139.765346 353.213758 
L 167.699071 353.208378 
L 195.632795 353.201314 
L 223.566519 353.193733 
L 251.500244 353.193558 
L 279.433968 353.193413 
L 307.367692 353.19111 
L 335.301417 353.191771 
L 363.235141 353.18923 
L 391.168865 353.18828 
L 419.10259 353.185977 
L 447.036314 353.187124 
L 474.970038 353.185874 
L 502.903763 353.18259 
L 530.837487 353.181733 
L 558.771212 353.180576 
L 586.704936 353.173564 
L 614.63866 353.166706 
L 642.572385 353.157122 
L 670.506109 353.14886 
L 698.439833 353.145442 
L 726.373558 353.136952 
L 754.307282 353.11259 
L 782.241006 353.081865 
L 810.174731 352.79634 
L 838.108455 351.621511 
L 866.042179 346.822718 
L 893.975904 352.562504 
L 921.909628 350.199017 
L 949.843352 53.530948 
" style="fill:none;stroke:#f0ad4e;stroke-linecap:square;"/>
   </g>
   <g id="line2d_24">
    <path clip-path="url(#p6e1a0fec1a)" d="M 83.897898 353.217156 
L 111.831622 353.214574 
L 139.765346 353.213356 
L 167.699071 353.207975 
L 195.632795 353.200756 
L 223.566519 353.19457 
L 251.500244 353.196646 
L 279.433968 353.195861 
L 307.367692 353.193558 
L 335.301417 353.190253 
L 363.235141 353.192194 
L 391.168865 353.190873 
L 419.10259 353.189138 
L 447.036314 353.191451 
L 474.970038 353.188105 
L 502.903763 353.186587 
L 530.837487 353.186463 
L 558.771212 353.182611 
L 586.704936 353.181474 
L 614.63866 353.178335 
L 642.572385 353.168049 
L 670.506109 353.160778 
L 698.439833 353.156533 
L 726.373558 353.155315 
L 754.307282 353.13279 
L 782.241006 353.101539 
L 810.174731 352.758469 
L 838.108455 351.821018 
L 866.042179 347.040526 
L 893.975904 352.674744 
L 921.909628 350.428546 
L 949.843352 64.882788 
" style="fill:none;stroke:#f0ad4e;stroke-linecap:square;"/>
   </g>
   <g id="line2d_25">
    <path clip-path="url(#p6e1a0fec1a)" d="M 40.600625 353.2239 
L 993.140625 353.2239 
" style="fill:none;stroke:#dedede;stroke-linecap:square;stroke-width:2;"/>
   </g>
   <g id="text_18">
    <!-- FastQC: Sequence Length Distribution -->
    <defs>
     <path d="M 9.8125 72.90625 
L 51.703125 72.90625 
L 51.703125 64.59375 
L 19.671875 64.59375 
L 19.671875 43.109375 
L 48.578125 43.109375 
L 48.578125 34.8125 
L 19.671875 34.8125 
L 19.671875 0 
L 9.8125 0 
z
" id="DejaVuSans-70"/>
     <path d="M 44.28125 53.078125 
L 44.28125 44.578125 
Q 40.484375 46.53125 36.375 47.5 
Q 32.28125 48.484375 27.875 48.484375 
Q 21.1875 48.484375 17.84375 46.4375 
Q 14.5 44.390625 14.5 40.28125 
Q 14.5 37.15625 16.890625 35.375 
Q 19.28125 33.59375 26.515625 31.984375 
L 29.59375 31.296875 
Q 39.15625 29.25 43.1875 25.515625 
Q 47.21875 21.78125 47.21875 15.09375 
Q 47.21875 7.46875 41.1875 3.015625 
Q 35.15625 -1.421875 24.609375 -1.421875 
Q 20.21875 -1.421875 15.453125 -0.5625 
Q 10.6875 0.296875 5.421875 2 
L 5.421875 11.28125 
Q 10.40625 8.6875 15.234375 7.390625 
Q 20.0625 6.109375 24.8125 6.109375 
Q 31.15625 6.109375 34.5625 8.28125 
Q 37.984375 10.453125 37.984375 14.40625 
Q 37.984375 18.0625 35.515625 20.015625 
Q 33.0625 21.96875 24.703125 23.78125 
L 21.578125 24.515625 
Q 13.234375 26.265625 9.515625 29.90625 
Q 5.8125 33.546875 5.8125 39.890625 
Q 5.8125 47.609375 11.28125 51.796875 
Q 16.75 56 26.8125 56 
Q 31.78125 56 36.171875 55.265625 
Q 40.578125 54.546875 44.28125 53.078125 
z
" id="DejaVuSans-115"/>
     <path d="M 39.40625 66.21875 
Q 28.65625 66.21875 22.328125 58.203125 
Q 16.015625 50.203125 16.015625 36.375 
Q 16.015625 22.609375 22.328125 14.59375 
Q 28.65625 6.59375 39.40625 6.59375 
Q 50.140625 6.59375 56.421875 14.59375 
Q 62.703125 22.609375 62.703125 36.375 
Q 62.703125 50.203125 56.421875 58.203125 
Q 50.140625 66.21875 39.40625 66.21875 
z
M 53.21875 1.3125 
L 66.21875 -12.890625 
L 54.296875 -12.890625 
L 43.5 -1.21875 
Q 41.890625 -1.3125 41.03125 -1.359375 
Q 40.1875 -1.421875 39.40625 -1.421875 
Q 24.03125 -1.421875 14.8125 8.859375 
Q 5.609375 19.140625 5.609375 36.375 
Q 5.609375 53.65625 14.8125 63.9375 
Q 24.03125 74.21875 39.40625 74.21875 
Q 54.734375 74.21875 63.90625 63.9375 
Q 73.09375 53.65625 73.09375 36.375 
Q 73.09375 23.6875 67.984375 14.640625 
Q 62.890625 5.609375 53.21875 1.3125 
z
" id="DejaVuSans-81"/>
     <path d="M 11.71875 12.40625 
L 22.015625 12.40625 
L 22.015625 0 
L 11.71875 0 
z
M 11.71875 51.703125 
L 22.015625 51.703125 
L 22.015625 39.3125 
L 11.71875 39.3125 
z
" id="DejaVuSans-58"/>
     <path d="M 19.671875 64.796875 
L 19.671875 8.109375 
L 31.59375 8.109375 
Q 46.6875 8.109375 53.6875 14.9375 
Q 60.6875 21.78125 60.6875 36.53125 
Q 60.6875 51.171875 53.6875 57.984375 
Q 46.6875 64.796875 31.59375 64.796875 
z
M 9.8125 72.90625 
L 30.078125 72.90625 
Q 51.265625 72.90625 61.171875 64.09375 
Q 71.09375 55.28125 71.09375 36.53125 
Q 71.09375 17.671875 61.125 8.828125 
Q 51.171875 0 30.078125 0 
L 9.8125 0 
z
" id="DejaVuSans-68"/>
     <path d="M 9.421875 54.6875 
L 18.40625 54.6875 
L 18.40625 0 
L 9.421875 0 
z
M 9.421875 75.984375 
L 18.40625 75.984375 
L 18.40625 64.59375 
L 9.421875 64.59375 
z
" id="DejaVuSans-105"/>
     <path d="M 41.109375 46.296875 
Q 39.59375 47.171875 37.8125 47.578125 
Q 36.03125 48 33.890625 48 
Q 26.265625 48 22.1875 43.046875 
Q 18.109375 38.09375 18.109375 28.8125 
L 18.109375 0 
L 9.078125 0 
L 9.078125 54.6875 
L 18.109375 54.6875 
L 18.109375 46.1875 
Q 20.953125 51.171875 25.484375 53.578125 
Q 30.03125 56 36.53125 56 
Q 37.453125 56 38.578125 55.875 
Q 39.703125 55.765625 41.0625 55.515625 
z
" id="DejaVuSans-114"/>
    </defs>
    <g transform="translate(364.000625 19.3575)scale(0.16 -0.16)">
     <use xlink:href="#DejaVuSans-70"/>
     <use x="57.378906" xlink:href="#DejaVuSans-97"/>
     <use x="118.658203" xlink:href="#DejaVuSans-115"/>
     <use x="170.757812" xlink:href="#DejaVuSans-116"/>
     <use x="209.966797" xlink:href="#DejaVuSans-81"/>
     <use x="288.677734" xlink:href="#DejaVuSans-67"/>
     <use x="358.501953" xlink:href="#DejaVuSans-58"/>
     <use x="392.193359" xlink:href="#DejaVuSans-32"/>
     <use x="423.980469" xlink:href="#DejaVuSans-83"/>
     <use x="487.457031" xlink:href="#DejaVuSans-101"/>
     <use x="548.980469" xlink:href="#DejaVuSans-113"/>
     <use x="612.457031" xlink:href="#DejaVuSans-117"/>
     <use x="675.835938" xlink:href="#DejaVuSans-101"/>
     <use x="737.359375" xlink:href="#DejaVuSans-110"/>
     <use x="800.738281" xlink:href="#DejaVuSans-99"/>
     <use x="855.71875" xlink:href="#DejaVuSans-101"/>
     <use x="917.242188" xlink:href="#DejaVuSans-32"/>
     <use x="949.029297" xlink:href="#DejaVuSans-76"/>
     <use x="1004.726562" xlink:href="#DejaVuSans-101"/>
     <use x="1066.25" xlink:href="#DejaVuSans-110"/>
     <use x="1129.628906" xlink:href="#DejaVuSans-103"/>
     <use x="1193.105469" xlink:href="#DejaVuSans-116"/>
     <use x="1232.314453" xlink:href="#DejaVuSans-104"/>
     <use x="1295.693359" xlink:href="#DejaVuSans-32"/>
     <use x="1327.480469" xlink:href="#DejaVuSans-68"/>
     <use x="1404.482422" xlink:href="#DejaVuSans-105"/>
     <use x="1432.265625" xlink:href="#DejaVuSans-115"/>
     <use x="1484.365234" xlink:href="#DejaVuSans-116"/>
     <use x="1523.574219" xlink:href="#DejaVuSans-114"/>
     <use x="1564.6875" xlink:href="#DejaVuSans-105"/>
     <use x="1592.470703" xlink:href="#DejaVuSans-98"/>
     <use x="1655.947266" xlink:href="#DejaVuSans-117"/>
     <use x="1719.326172" xlink:href="#DejaVuSans-116"/>
     <use x="1758.535156" xlink:href="#DejaVuSans-105"/>
     <use x="1786.318359" xlink:href="#DejaVuSans-111"/>
     <use x="1847.5" xlink:href="#DejaVuSans-110"/>
    </g>
   </g>
  </g>
 </g>
 <defs>
  <clipPath id="p6e1a0fec1a">
   <rect height="317.968" width="952.54" x="40.600625" y="35.2559"/>
  </clipPath>
 </defs>
</svg>
