<?xml version="1.0" encoding="utf-8" standalone="no"?>
<!DOCTYPE svg PUBLIC "-//W3C//DTD SVG 1.1//EN"
  "http://www.w3.org/Graphics/SVG/1.1/DTD/svg11.dtd">
<!-- Created with matplotlib (https://matplotlib.org/) -->
<svg height="388.844525pt" version="1.1" viewBox="0 0 1000.260625 388.844525" width="1000.260625pt" xmlns="http://www.w3.org/2000/svg" xmlns:xlink="http://www.w3.org/1999/xlink">
 <defs>
  <style type="text/css">
*{stroke-linecap:butt;stroke-linejoin:round;}
  </style>
 </defs>
 <g id="figure_1">
  <g id="axes_1">
   <g id="patch_1">
    <path d="M 50.780625 353.2239 
L 993.060625 353.2239 
L 993.060625 35.2559 
L 50.780625 35.2559 
z
" style="fill:#ffffff;"/>
   </g>
   <g id="matplotlib.axis_1">
    <g id="xtick_1">
     <g id="text_1">
      <!-- 0 -->
      <defs>
       <path d="M 31.78125 66.40625 
Q 24.171875 66.40625 20.328125 58.90625 
Q 16.5 51.421875 16.5 36.375 
Q 16.5 21.390625 20.328125 13.890625 
Q 24.171875 6.390625 31.78125 6.390625 
Q 39.453125 6.390625 43.28125 13.890625 
Q 47.125 21.390625 47.125 36.375 
Q 47.125 51.421875 43.28125 58.90625 
Q 39.453125 66.40625 31.78125 66.40625 
z
M 31.78125 74.21875 
Q 44.046875 74.21875 50.515625 64.515625 
Q 56.984375 54.828125 56.984375 36.375 
Q 56.984375 17.96875 50.515625 8.265625 
Q 44.046875 -1.421875 31.78125 -1.421875 
Q 19.53125 -1.421875 13.0625 8.265625 
Q 6.59375 17.96875 6.59375 36.375 
Q 6.59375 54.828125 13.0625 64.515625 
Q 19.53125 74.21875 31.78125 74.21875 
z
" id="DejaVuSans-48"/>
      </defs>
      <g transform="translate(82.413825 366.30265)scale(0.08 -0.08)">
       <use xlink:href="#DejaVuSans-48"/>
      </g>
     </g>
    </g>
    <g id="xtick_2">
     <g id="text_2">
      <!-- 20 -->
      <defs>
       <path d="M 19.1875 8.296875 
L 53.609375 8.296875 
L 53.609375 0 
L 7.328125 0 
L 7.328125 8.296875 
Q 12.9375 14.109375 22.625 23.890625 
Q 32.328125 33.6875 34.8125 36.53125 
Q 39.546875 41.84375 41.421875 45.53125 
Q 43.3125 49.21875 43.3125 52.78125 
Q 43.3125 58.59375 39.234375 62.25 
Q 35.15625 65.921875 28.609375 65.921875 
Q 23.96875 65.921875 18.8125 64.3125 
Q 13.671875 62.703125 7.8125 59.421875 
L 7.8125 69.390625 
Q 13.765625 71.78125 18.9375 73 
Q 24.125 74.21875 28.421875 74.21875 
Q 39.75 74.21875 46.484375 68.546875 
Q 53.21875 62.890625 53.21875 53.421875 
Q 53.21875 48.921875 51.53125 44.890625 
Q 49.859375 40.875 45.40625 35.40625 
Q 44.1875 33.984375 37.640625 27.21875 
Q 31.109375 20.453125 19.1875 8.296875 
z
" id="DejaVuSans-50"/>
      </defs>
      <g transform="translate(252.923003 366.30265)scale(0.08 -0.08)">
       <use xlink:href="#DejaVuSans-50"/>
       <use x="63.623047" xlink:href="#DejaVuSans-48"/>
      </g>
     </g>
    </g>
    <g id="xtick_3">
     <g id="text_3">
      <!-- 40 -->
      <defs>
       <path d="M 37.796875 64.3125 
L 12.890625 25.390625 
L 37.796875 25.390625 
z
M 35.203125 72.90625 
L 47.609375 72.90625 
L 47.609375 25.390625 
L 58.015625 25.390625 
L 58.015625 17.1875 
L 47.609375 17.1875 
L 47.609375 0 
L 37.796875 0 
L 37.796875 17.1875 
L 4.890625 17.1875 
L 4.890625 26.703125 
z
" id="DejaVuSans-52"/>
      </defs>
      <g transform="translate(425.977181 366.30265)scale(0.08 -0.08)">
       <use xlink:href="#DejaVuSans-52"/>
       <use x="63.623047" xlink:href="#DejaVuSans-48"/>
      </g>
     </g>
    </g>
    <g id="xtick_4">
     <g id="text_4">
      <!-- 60 -->
      <defs>
       <path d="M 33.015625 40.375 
Q 26.375 40.375 22.484375 35.828125 
Q 18.609375 31.296875 18.609375 23.390625 
Q 18.609375 15.53125 22.484375 10.953125 
Q 26.375 6.390625 33.015625 6.390625 
Q 39.65625 6.390625 43.53125 10.953125 
Q 47.40625 15.53125 47.40625 23.390625 
Q 47.40625 31.296875 43.53125 35.828125 
Q 39.65625 40.375 33.015625 40.375 
z
M 52.59375 71.296875 
L 52.59375 62.3125 
Q 48.875 64.0625 45.09375 64.984375 
Q 41.3125 65.921875 37.59375 65.921875 
Q 27.828125 65.921875 22.671875 59.328125 
Q 17.53125 52.734375 16.796875 39.40625 
Q 19.671875 43.65625 24.015625 45.921875 
Q 28.375 48.1875 33.59375 48.1875 
Q 44.578125 48.1875 50.953125 41.515625 
Q 57.328125 34.859375 57.328125 23.390625 
Q 57.328125 12.15625 50.6875 5.359375 
Q 44.046875 -1.421875 33.015625 -1.421875 
Q 20.359375 -1.421875 13.671875 8.265625 
Q 6.984375 17.96875 6.984375 36.375 
Q 6.984375 53.65625 15.1875 63.9375 
Q 23.390625 74.21875 37.203125 74.21875 
Q 40.921875 74.21875 44.703125 73.484375 
Q 48.484375 72.75 52.59375 71.296875 
z
" id="DejaVuSans-54"/>
      </defs>
      <g transform="translate(599.03136 366.30265)scale(0.08 -0.08)">
       <use xlink:href="#DejaVuSans-54"/>
       <use x="63.623047" xlink:href="#DejaVuSans-48"/>
      </g>
     </g>
    </g>
    <g id="xtick_5">
     <g id="text_5">
      <!-- 80 -->
      <defs>
       <path d="M 31.78125 34.625 
Q 24.75 34.625 20.71875 30.859375 
Q 16.703125 27.09375 16.703125 20.515625 
Q 16.703125 13.921875 20.71875 10.15625 
Q 24.75 6.390625 31.78125 6.390625 
Q 38.8125 6.390625 42.859375 10.171875 
Q 46.921875 13.96875 46.921875 20.515625 
Q 46.921875 27.09375 42.890625 30.859375 
Q 38.875 34.625 31.78125 34.625 
z
M 21.921875 38.8125 
Q 15.578125 40.375 12.03125 44.71875 
Q 8.5 49.078125 8.5 55.328125 
Q 8.5 64.0625 14.71875 69.140625 
Q 20.953125 74.21875 31.78125 74.21875 
Q 42.671875 74.21875 48.875 69.140625 
Q 55.078125 64.0625 55.078125 55.328125 
Q 55.078125 49.078125 51.53125 44.71875 
Q 48 40.375 41.703125 38.8125 
Q 48.828125 37.15625 52.796875 32.3125 
Q 56.78125 27.484375 56.78125 20.515625 
Q 56.78125 9.90625 50.3125 4.234375 
Q 43.84375 -1.421875 31.78125 -1.421875 
Q 19.734375 -1.421875 13.25 4.234375 
Q 6.78125 9.90625 6.78125 20.515625 
Q 6.78125 27.484375 10.78125 32.3125 
Q 14.796875 37.15625 21.921875 38.8125 
z
M 18.3125 54.390625 
Q 18.3125 48.734375 21.84375 45.5625 
Q 25.390625 42.390625 31.78125 42.390625 
Q 38.140625 42.390625 41.71875 45.5625 
Q 45.3125 48.734375 45.3125 54.390625 
Q 45.3125 60.0625 41.71875 63.234375 
Q 38.140625 66.40625 31.78125 66.40625 
Q 25.390625 66.40625 21.84375 63.234375 
Q 18.3125 60.0625 18.3125 54.390625 
z
" id="DejaVuSans-56"/>
      </defs>
      <g transform="translate(772.085538 366.30265)scale(0.08 -0.08)">
       <use xlink:href="#DejaVuSans-56"/>
       <use x="63.623047" xlink:href="#DejaVuSans-48"/>
      </g>
     </g>
    </g>
    <g id="xtick_6">
     <g id="text_6">
      <!-- 100 -->
      <defs>
       <path d="M 12.40625 8.296875 
L 28.515625 8.296875 
L 28.515625 63.921875 
L 10.984375 60.40625 
L 10.984375 69.390625 
L 28.421875 72.90625 
L 38.28125 72.90625 
L 38.28125 8.296875 
L 54.390625 8.296875 
L 54.390625 0 
L 12.40625 0 
z
" id="DejaVuSans-49"/>
      </defs>
      <g transform="translate(942.594716 366.30265)scale(0.08 -0.08)">
       <use xlink:href="#DejaVuSans-49"/>
       <use x="63.623047" xlink:href="#DejaVuSans-48"/>
       <use x="127.246094" xlink:href="#DejaVuSans-48"/>
      </g>
     </g>
    </g>
    <g id="text_7">
     <!-- Position in read -->
     <defs>
      <path d="M 19.671875 64.796875 
L 19.671875 37.40625 
L 32.078125 37.40625 
Q 38.96875 37.40625 42.71875 40.96875 
Q 46.484375 44.53125 46.484375 51.125 
Q 46.484375 57.671875 42.71875 61.234375 
Q 38.96875 64.796875 32.078125 64.796875 
z
M 9.8125 72.90625 
L 32.078125 72.90625 
Q 44.34375 72.90625 50.609375 67.359375 
Q 56.890625 61.8125 56.890625 51.125 
Q 56.890625 40.328125 50.609375 34.8125 
Q 44.34375 29.296875 32.078125 29.296875 
L 19.671875 29.296875 
L 19.671875 0 
L 9.8125 0 
z
" id="DejaVuSans-80"/>
      <path d="M 30.609375 48.390625 
Q 23.390625 48.390625 19.1875 42.75 
Q 14.984375 37.109375 14.984375 27.296875 
Q 14.984375 17.484375 19.15625 11.84375 
Q 23.34375 6.203125 30.609375 6.203125 
Q 37.796875 6.203125 41.984375 11.859375 
Q 46.1875 17.53125 46.1875 27.296875 
Q 46.1875 37.015625 41.984375 42.703125 
Q 37.796875 48.390625 30.609375 48.390625 
z
M 30.609375 56 
Q 42.328125 56 49.015625 48.375 
Q 55.71875 40.765625 55.71875 27.296875 
Q 55.71875 13.875 49.015625 6.21875 
Q 42.328125 -1.421875 30.609375 -1.421875 
Q 18.84375 -1.421875 12.171875 6.21875 
Q 5.515625 13.875 5.515625 27.296875 
Q 5.515625 40.765625 12.171875 48.375 
Q 18.84375 56 30.609375 56 
z
" id="DejaVuSans-111"/>
      <path d="M 44.28125 53.078125 
L 44.28125 44.578125 
Q 40.484375 46.53125 36.375 47.5 
Q 32.28125 48.484375 27.875 48.484375 
Q 21.1875 48.484375 17.84375 46.4375 
Q 14.5 44.390625 14.5 40.28125 
Q 14.5 37.15625 16.890625 35.375 
Q 19.28125 33.59375 26.515625 31.984375 
L 29.59375 31.296875 
Q 39.15625 29.25 43.1875 25.515625 
Q 47.21875 21.78125 47.21875 15.09375 
Q 47.21875 7.46875 41.1875 3.015625 
Q 35.15625 -1.421875 24.609375 -1.421875 
Q 20.21875 -1.421875 15.453125 -0.5625 
Q 10.6875 0.296875 5.421875 2 
L 5.421875 11.28125 
Q 10.40625 8.6875 15.234375 7.390625 
Q 20.0625 6.109375 24.8125 6.109375 
Q 31.15625 6.109375 34.5625 8.28125 
Q 37.984375 10.453125 37.984375 14.40625 
Q 37.984375 18.0625 35.515625 20.015625 
Q 33.0625 21.96875 24.703125 23.78125 
L 21.578125 24.515625 
Q 13.234375 26.265625 9.515625 29.90625 
Q 5.8125 33.546875 5.8125 39.890625 
Q 5.8125 47.609375 11.28125 51.796875 
Q 16.75 56 26.8125 56 
Q 31.78125 56 36.171875 55.265625 
Q 40.578125 54.546875 44.28125 53.078125 
z
" id="DejaVuSans-115"/>
      <path d="M 9.421875 54.6875 
L 18.40625 54.6875 
L 18.40625 0 
L 9.421875 0 
z
M 9.421875 75.984375 
L 18.40625 75.984375 
L 18.40625 64.59375 
L 9.421875 64.59375 
z
" id="DejaVuSans-105"/>
      <path d="M 18.3125 70.21875 
L 18.3125 54.6875 
L 36.8125 54.6875 
L 36.8125 47.703125 
L 18.3125 47.703125 
L 18.3125 18.015625 
Q 18.3125 11.328125 20.140625 9.421875 
Q 21.96875 7.515625 27.59375 7.515625 
L 36.8125 7.515625 
L 36.8125 0 
L 27.59375 0 
Q 17.1875 0 13.234375 3.875 
Q 9.28125 7.765625 9.28125 18.015625 
L 9.28125 47.703125 
L 2.6875 47.703125 
L 2.6875 54.6875 
L 9.28125 54.6875 
L 9.28125 70.21875 
z
" id="DejaVuSans-116"/>
      <path d="M 54.890625 33.015625 
L 54.890625 0 
L 45.90625 0 
L 45.90625 32.71875 
Q 45.90625 40.484375 42.875 44.328125 
Q 39.84375 48.1875 33.796875 48.1875 
Q 26.515625 48.1875 22.3125 43.546875 
Q 18.109375 38.921875 18.109375 30.90625 
L 18.109375 0 
L 9.078125 0 
L 9.078125 54.6875 
L 18.109375 54.6875 
L 18.109375 46.1875 
Q 21.34375 51.125 25.703125 53.5625 
Q 30.078125 56 35.796875 56 
Q 45.21875 56 50.046875 50.171875 
Q 54.890625 44.34375 54.890625 33.015625 
z
" id="DejaVuSans-110"/>
      <path id="DejaVuSans-32"/>
      <path d="M 41.109375 46.296875 
Q 39.59375 47.171875 37.8125 47.578125 
Q 36.03125 48 33.890625 48 
Q 26.265625 48 22.1875 43.046875 
Q 18.109375 38.09375 18.109375 28.8125 
L 18.109375 0 
L 9.078125 0 
L 9.078125 54.6875 
L 18.109375 54.6875 
L 18.109375 46.1875 
Q 20.953125 51.171875 25.484375 53.578125 
Q 30.03125 56 36.53125 56 
Q 37.453125 56 38.578125 55.875 
Q 39.703125 55.765625 41.0625 55.515625 
z
" id="DejaVuSans-114"/>
      <path d="M 56.203125 29.59375 
L 56.203125 25.203125 
L 14.890625 25.203125 
Q 15.484375 15.921875 20.484375 11.0625 
Q 25.484375 6.203125 34.421875 6.203125 
Q 39.59375 6.203125 44.453125 7.46875 
Q 49.3125 8.734375 54.109375 11.28125 
L 54.109375 2.78125 
Q 49.265625 0.734375 44.1875 -0.34375 
Q 39.109375 -1.421875 33.890625 -1.421875 
Q 20.796875 -1.421875 13.15625 6.1875 
Q 5.515625 13.8125 5.515625 26.8125 
Q 5.515625 40.234375 12.765625 48.109375 
Q 20.015625 56 32.328125 56 
Q 43.359375 56 49.78125 48.890625 
Q 56.203125 41.796875 56.203125 29.59375 
z
M 47.21875 32.234375 
Q 47.125 39.59375 43.09375 43.984375 
Q 39.0625 48.390625 32.421875 48.390625 
Q 24.90625 48.390625 20.390625 44.140625 
Q 15.875 39.890625 15.1875 32.171875 
z
" id="DejaVuSans-101"/>
      <path d="M 34.28125 27.484375 
Q 23.390625 27.484375 19.1875 25 
Q 14.984375 22.515625 14.984375 16.5 
Q 14.984375 11.71875 18.140625 8.90625 
Q 21.296875 6.109375 26.703125 6.109375 
Q 34.1875 6.109375 38.703125 11.40625 
Q 43.21875 16.703125 43.21875 25.484375 
L 43.21875 27.484375 
z
M 52.203125 31.203125 
L 52.203125 0 
L 43.21875 0 
L 43.21875 8.296875 
Q 40.140625 3.328125 35.546875 0.953125 
Q 30.953125 -1.421875 24.3125 -1.421875 
Q 15.921875 -1.421875 10.953125 3.296875 
Q 6 8.015625 6 15.921875 
Q 6 25.140625 12.171875 29.828125 
Q 18.359375 34.515625 30.609375 34.515625 
L 43.21875 34.515625 
L 43.21875 35.40625 
Q 43.21875 41.609375 39.140625 45 
Q 35.0625 48.390625 27.6875 48.390625 
Q 23 48.390625 18.546875 47.265625 
Q 14.109375 46.140625 10.015625 43.890625 
L 10.015625 52.203125 
Q 14.9375 54.109375 19.578125 55.046875 
Q 24.21875 56 28.609375 56 
Q 40.484375 56 46.34375 49.84375 
Q 52.203125 43.703125 52.203125 31.203125 
z
" id="DejaVuSans-97"/>
      <path d="M 45.40625 46.390625 
L 45.40625 75.984375 
L 54.390625 75.984375 
L 54.390625 0 
L 45.40625 0 
L 45.40625 8.203125 
Q 42.578125 3.328125 38.25 0.953125 
Q 33.9375 -1.421875 27.875 -1.421875 
Q 17.96875 -1.421875 11.734375 6.484375 
Q 5.515625 14.40625 5.515625 27.296875 
Q 5.515625 40.1875 11.734375 48.09375 
Q 17.96875 56 27.875 56 
Q 33.9375 56 38.25 53.625 
Q 42.578125 51.265625 45.40625 46.390625 
z
M 14.796875 27.296875 
Q 14.796875 17.390625 18.875 11.75 
Q 22.953125 6.109375 30.078125 6.109375 
Q 37.203125 6.109375 41.296875 11.75 
Q 45.40625 17.390625 45.40625 27.296875 
Q 45.40625 37.203125 41.296875 42.84375 
Q 37.203125 48.484375 30.078125 48.484375 
Q 22.953125 48.484375 18.875 42.84375 
Q 14.796875 37.203125 14.796875 27.296875 
z
" id="DejaVuSans-100"/>
     </defs>
     <g transform="translate(483.172969 379.564837)scale(0.1 -0.1)">
      <use xlink:href="#DejaVuSans-80"/>
      <use x="60.255859" xlink:href="#DejaVuSans-111"/>
      <use x="121.4375" xlink:href="#DejaVuSans-115"/>
      <use x="173.537109" xlink:href="#DejaVuSans-105"/>
      <use x="201.320312" xlink:href="#DejaVuSans-116"/>
      <use x="240.529297" xlink:href="#DejaVuSans-105"/>
      <use x="268.3125" xlink:href="#DejaVuSans-111"/>
      <use x="329.494141" xlink:href="#DejaVuSans-110"/>
      <use x="392.873047" xlink:href="#DejaVuSans-32"/>
      <use x="424.660156" xlink:href="#DejaVuSans-105"/>
      <use x="452.443359" xlink:href="#DejaVuSans-110"/>
      <use x="515.822266" xlink:href="#DejaVuSans-32"/>
      <use x="547.609375" xlink:href="#DejaVuSans-114"/>
      <use x="588.691406" xlink:href="#DejaVuSans-101"/>
      <use x="650.214844" xlink:href="#DejaVuSans-97"/>
      <use x="711.494141" xlink:href="#DejaVuSans-100"/>
     </g>
    </g>
   </g>
   <g id="matplotlib.axis_2">
    <g id="ytick_1">
     <g id="line2d_1">
      <path clip-path="url(#p91c7df489f)" d="M 50.780625 353.2239 
L 993.060625 353.2239 
" style="fill:none;stroke:#dedede;stroke-linecap:square;"/>
     </g>
     <g id="text_8">
      <!-- 0.000 -->
      <defs>
       <path d="M 10.6875 12.40625 
L 21 12.40625 
L 21 0 
L 10.6875 0 
z
" id="DejaVuSans-46"/>
      </defs>
      <g transform="translate(20.878125 356.263275)scale(0.08 -0.08)">
       <use xlink:href="#DejaVuSans-48"/>
       <use x="63.623047" xlink:href="#DejaVuSans-46"/>
       <use x="95.410156" xlink:href="#DejaVuSans-48"/>
       <use x="159.033203" xlink:href="#DejaVuSans-48"/>
       <use x="222.65625" xlink:href="#DejaVuSans-48"/>
      </g>
     </g>
    </g>
    <g id="ytick_2">
     <g id="line2d_2">
      <path clip-path="url(#p91c7df489f)" d="M 50.780625 283.719875 
L 993.060625 283.719875 
" style="fill:none;stroke:#dedede;stroke-linecap:square;"/>
     </g>
     <g id="text_9">
      <!-- 0.005 -->
      <defs>
       <path d="M 10.796875 72.90625 
L 49.515625 72.90625 
L 49.515625 64.59375 
L 19.828125 64.59375 
L 19.828125 46.734375 
Q 21.96875 47.46875 24.109375 47.828125 
Q 26.265625 48.1875 28.421875 48.1875 
Q 40.625 48.1875 47.75 41.5 
Q 54.890625 34.8125 54.890625 23.390625 
Q 54.890625 11.625 47.5625 5.09375 
Q 40.234375 -1.421875 26.90625 -1.421875 
Q 22.3125 -1.421875 17.546875 -0.640625 
Q 12.796875 0.140625 7.71875 1.703125 
L 7.71875 11.625 
Q 12.109375 9.234375 16.796875 8.0625 
Q 21.484375 6.890625 26.703125 6.890625 
Q 35.15625 6.890625 40.078125 11.328125 
Q 45.015625 15.765625 45.015625 23.390625 
Q 45.015625 31 40.078125 35.4375 
Q 35.15625 39.890625 26.703125 39.890625 
Q 22.75 39.890625 18.8125 39.015625 
Q 14.890625 38.140625 10.796875 36.28125 
z
" id="DejaVuSans-53"/>
      </defs>
      <g transform="translate(20.878125 286.75925)scale(0.08 -0.08)">
       <use xlink:href="#DejaVuSans-48"/>
       <use x="63.623047" xlink:href="#DejaVuSans-46"/>
       <use x="95.410156" xlink:href="#DejaVuSans-48"/>
       <use x="159.033203" xlink:href="#DejaVuSans-48"/>
       <use x="222.65625" xlink:href="#DejaVuSans-53"/>
      </g>
     </g>
    </g>
    <g id="ytick_3">
     <g id="line2d_3">
      <path clip-path="url(#p91c7df489f)" d="M 50.780625 214.21585 
L 993.060625 214.21585 
" style="fill:none;stroke:#dedede;stroke-linecap:square;"/>
     </g>
     <g id="text_10">
      <!-- 0.010 -->
      <g transform="translate(20.878125 217.255225)scale(0.08 -0.08)">
       <use xlink:href="#DejaVuSans-48"/>
       <use x="63.623047" xlink:href="#DejaVuSans-46"/>
       <use x="95.410156" xlink:href="#DejaVuSans-48"/>
       <use x="159.033203" xlink:href="#DejaVuSans-49"/>
       <use x="222.65625" xlink:href="#DejaVuSans-48"/>
      </g>
     </g>
    </g>
    <g id="ytick_4">
     <g id="line2d_4">
      <path clip-path="url(#p91c7df489f)" d="M 50.780625 144.711825 
L 993.060625 144.711825 
" style="fill:none;stroke:#dedede;stroke-linecap:square;"/>
     </g>
     <g id="text_11">
      <!-- 0.015 -->
      <g transform="translate(20.878125 147.7512)scale(0.08 -0.08)">
       <use xlink:href="#DejaVuSans-48"/>
       <use x="63.623047" xlink:href="#DejaVuSans-46"/>
       <use x="95.410156" xlink:href="#DejaVuSans-48"/>
       <use x="159.033203" xlink:href="#DejaVuSans-49"/>
       <use x="222.65625" xlink:href="#DejaVuSans-53"/>
      </g>
     </g>
    </g>
    <g id="ytick_5">
     <g id="line2d_5">
      <path clip-path="url(#p91c7df489f)" d="M 50.780625 75.2078 
L 993.060625 75.2078 
" style="fill:none;stroke:#dedede;stroke-linecap:square;"/>
     </g>
     <g id="text_12">
      <!-- 0.020 -->
      <g transform="translate(20.878125 78.247175)scale(0.08 -0.08)">
       <use xlink:href="#DejaVuSans-48"/>
       <use x="63.623047" xlink:href="#DejaVuSans-46"/>
       <use x="95.410156" xlink:href="#DejaVuSans-48"/>
       <use x="159.033203" xlink:href="#DejaVuSans-50"/>
       <use x="222.65625" xlink:href="#DejaVuSans-48"/>
      </g>
     </g>
    </g>
    <g id="text_13">
     <!-- Percent converted % -->
     <defs>
      <path d="M 48.78125 52.59375 
L 48.78125 44.1875 
Q 44.96875 46.296875 41.140625 47.34375 
Q 37.3125 48.390625 33.40625 48.390625 
Q 24.65625 48.390625 19.8125 42.84375 
Q 14.984375 37.3125 14.984375 27.296875 
Q 14.984375 17.28125 19.8125 11.734375 
Q 24.65625 6.203125 33.40625 6.203125 
Q 37.3125 6.203125 41.140625 7.25 
Q 44.96875 8.296875 48.78125 10.40625 
L 48.78125 2.09375 
Q 45.015625 0.34375 40.984375 -0.53125 
Q 36.96875 -1.421875 32.421875 -1.421875 
Q 20.0625 -1.421875 12.78125 6.34375 
Q 5.515625 14.109375 5.515625 27.296875 
Q 5.515625 40.671875 12.859375 48.328125 
Q 20.21875 56 33.015625 56 
Q 37.15625 56 41.109375 55.140625 
Q 45.0625 54.296875 48.78125 52.59375 
z
" id="DejaVuSans-99"/>
      <path d="M 2.984375 54.6875 
L 12.5 54.6875 
L 29.59375 8.796875 
L 46.6875 54.6875 
L 56.203125 54.6875 
L 35.6875 0 
L 23.484375 0 
z
" id="DejaVuSans-118"/>
      <path d="M 72.703125 32.078125 
Q 68.453125 32.078125 66.03125 28.46875 
Q 63.625 24.859375 63.625 18.40625 
Q 63.625 12.0625 66.03125 8.421875 
Q 68.453125 4.78125 72.703125 4.78125 
Q 76.859375 4.78125 79.265625 8.421875 
Q 81.6875 12.0625 81.6875 18.40625 
Q 81.6875 24.8125 79.265625 28.4375 
Q 76.859375 32.078125 72.703125 32.078125 
z
M 72.703125 38.28125 
Q 80.421875 38.28125 84.953125 32.90625 
Q 89.5 27.546875 89.5 18.40625 
Q 89.5 9.28125 84.9375 3.921875 
Q 80.375 -1.421875 72.703125 -1.421875 
Q 64.890625 -1.421875 60.34375 3.921875 
Q 55.8125 9.28125 55.8125 18.40625 
Q 55.8125 27.59375 60.375 32.9375 
Q 64.9375 38.28125 72.703125 38.28125 
z
M 22.3125 68.015625 
Q 18.109375 68.015625 15.6875 64.375 
Q 13.28125 60.75 13.28125 54.390625 
Q 13.28125 47.953125 15.671875 44.328125 
Q 18.0625 40.71875 22.3125 40.71875 
Q 26.5625 40.71875 28.96875 44.328125 
Q 31.390625 47.953125 31.390625 54.390625 
Q 31.390625 60.6875 28.953125 64.34375 
Q 26.515625 68.015625 22.3125 68.015625 
z
M 66.40625 74.21875 
L 74.21875 74.21875 
L 28.609375 -1.421875 
L 20.796875 -1.421875 
z
M 22.3125 74.21875 
Q 30.03125 74.21875 34.609375 68.875 
Q 39.203125 63.53125 39.203125 54.390625 
Q 39.203125 45.171875 34.640625 39.84375 
Q 30.078125 34.515625 22.3125 34.515625 
Q 14.546875 34.515625 10.03125 39.859375 
Q 5.515625 45.21875 5.515625 54.390625 
Q 5.515625 63.484375 10.046875 68.84375 
Q 14.59375 74.21875 22.3125 74.21875 
z
" id="DejaVuSans-37"/>
     </defs>
     <g transform="translate(14.798438 246.54615)rotate(-90)scale(0.1 -0.1)">
      <use xlink:href="#DejaVuSans-80"/>
      <use x="60.255859" xlink:href="#DejaVuSans-101"/>
      <use x="121.779297" xlink:href="#DejaVuSans-114"/>
      <use x="162.861328" xlink:href="#DejaVuSans-99"/>
      <use x="217.841797" xlink:href="#DejaVuSans-101"/>
      <use x="279.365234" xlink:href="#DejaVuSans-110"/>
      <use x="342.744141" xlink:href="#DejaVuSans-116"/>
      <use x="381.953125" xlink:href="#DejaVuSans-32"/>
      <use x="413.740234" xlink:href="#DejaVuSans-99"/>
      <use x="468.720703" xlink:href="#DejaVuSans-111"/>
      <use x="529.902344" xlink:href="#DejaVuSans-110"/>
      <use x="593.28125" xlink:href="#DejaVuSans-118"/>
      <use x="652.460938" xlink:href="#DejaVuSans-101"/>
      <use x="713.984375" xlink:href="#DejaVuSans-114"/>
      <use x="755.097656" xlink:href="#DejaVuSans-116"/>
      <use x="794.306641" xlink:href="#DejaVuSans-101"/>
      <use x="855.830078" xlink:href="#DejaVuSans-100"/>
      <use x="919.306641" xlink:href="#DejaVuSans-32"/>
      <use x="951.09375" xlink:href="#DejaVuSans-37"/>
     </g>
    </g>
   </g>
   <g id="line2d_6">
    <path clip-path="url(#p91c7df489f)" d="M 93.611534 353.2239 
L 102.264243 155.685105 
L 110.916952 162.363648 
L 119.569661 171.859702 
L 128.22237 172.277111 
L 136.875079 176.138144 
L 145.527788 180.207882 
L 154.180496 193.14756 
L 162.833205 201.07833 
L 171.485914 198.052115 
L 180.138623 200.765274 
L 188.791332 215.374588 
L 197.444041 210.783089 
L 206.09675 233.322885 
L 214.749459 239.270233 
L 223.402168 259.617971 
L 232.054877 254.499719 
L 240.707586 261.590283 
L 249.360294 263.567205 
L 258.013003 249.67679 
L 266.665712 229.518045 
L 275.318421 210.815922 
L 283.97113 218.003737 
L 292.623839 211.091795 
L 301.276548 211.694996 
L 309.929257 206.653022 
L 318.581966 203.597158 
L 327.234675 198.344983 
L 335.887383 183.784643 
L 344.540092 166.173411 
L 353.192801 177.927141 
L 361.84551 174.141274 
L 370.498219 177.778942 
L 379.150928 166.829979 
L 387.803637 191.057095 
L 396.456346 353.2239 
L 405.109055 353.2239 
L 413.761764 353.2239 
L 422.414473 353.2239 
L 431.067181 353.2239 
L 439.71989 353.2239 
L 448.372599 353.2239 
L 457.025308 353.2239 
L 465.678017 353.2239 
L 474.330726 353.2239 
L 482.983435 353.2239 
L 491.636144 353.2239 
L 500.288853 353.2239 
L 508.941562 353.2239 
L 517.594271 353.2239 
L 526.246979 353.2239 
L 534.899688 353.2239 
L 543.552397 353.2239 
L 552.205106 353.2239 
L 560.857815 353.2239 
L 569.510524 353.2239 
L 578.163233 353.2239 
L 586.815942 353.2239 
L 595.468651 353.2239 
L 604.12136 353.2239 
L 612.774069 353.2239 
L 621.426777 353.2239 
L 630.079486 353.2239 
L 638.732195 353.2239 
L 647.384904 353.2239 
L 656.037613 353.2239 
L 664.690322 353.2239 
L 673.343031 353.2239 
L 681.99574 353.2239 
L 690.648449 353.2239 
L 699.301158 353.2239 
L 707.953867 353.2239 
L 716.606575 353.2239 
L 725.259284 353.2239 
L 733.911993 353.2239 
L 742.564702 353.2239 
L 751.217411 353.2239 
L 759.87012 353.2239 
L 768.522829 353.2239 
L 777.175538 353.2239 
L 785.828247 353.2239 
L 794.480956 353.2239 
L 803.133664 353.2239 
L 811.786373 353.2239 
L 820.439082 353.2239 
L 829.091791 353.2239 
L 837.7445 353.2239 
L 846.397209 353.2239 
L 855.049918 353.2239 
L 863.702627 353.2239 
L 872.355336 353.2239 
L 881.008045 353.2239 
L 889.660754 353.2239 
L 898.313462 353.2239 
L 906.966171 353.2239 
L 915.61888 353.2239 
L 924.271589 353.2239 
L 932.924298 353.2239 
L 941.577007 353.2239 
L 950.229716 353.2239 
" style="fill:none;stroke:#7cb5ec;stroke-linecap:square;"/>
   </g>
   <g id="line2d_7">
    <path clip-path="url(#p91c7df489f)" d="M 93.611534 353.2239 
L 102.264243 159.81244 
L 110.916952 149.307664 
L 119.569661 161.35726 
L 128.22237 159.606464 
L 136.875079 163.520008 
L 145.527788 168.360444 
L 154.180496 175.466616 
L 162.833205 189.987923 
L 171.485914 191.738719 
L 180.138623 184.735535 
L 188.791332 200.904651 
L 197.444041 205.951063 
L 206.09675 219.648071 
L 214.749459 227.886318 
L 223.402168 246.32003 
L 232.054877 255.48115 
L 240.707586 257.741186 
L 249.360294 248.051609 
L 258.013003 235.783423 
L 266.665712 215.988708 
L 275.318421 196.396124 
L 283.97113 200.60091 
L 292.623839 203.979896 
L 301.276548 202.306151 
L 309.929257 192.481319 
L 318.581966 190.391452 
L 327.234675 185.926685 
L 335.887383 168.149611 
L 344.540092 151.384745 
L 353.192801 155.028882 
L 361.84551 168.728217 
L 370.498219 165.604002 
L 379.150928 155.517906 
L 387.803637 168.2392 
L 396.456346 353.2239 
L 405.109055 353.2239 
L 413.761764 353.2239 
L 422.414473 353.2239 
L 431.067181 353.2239 
L 439.71989 353.2239 
L 448.372599 353.2239 
L 457.025308 353.2239 
L 465.678017 353.2239 
L 474.330726 353.2239 
L 482.983435 353.2239 
L 491.636144 353.2239 
L 500.288853 353.2239 
L 508.941562 353.2239 
L 517.594271 353.2239 
L 526.246979 353.2239 
L 534.899688 353.2239 
L 543.552397 353.2239 
L 552.205106 353.2239 
L 560.857815 353.2239 
L 569.510524 353.2239 
L 578.163233 353.2239 
L 586.815942 353.2239 
L 595.468651 353.2239 
L 604.12136 353.2239 
L 612.774069 353.2239 
L 621.426777 353.2239 
L 630.079486 353.2239 
L 638.732195 353.2239 
L 647.384904 353.2239 
L 656.037613 353.2239 
L 664.690322 353.2239 
L 673.343031 353.2239 
L 681.99574 353.2239 
L 690.648449 353.2239 
L 699.301158 353.2239 
L 707.953867 353.2239 
L 716.606575 353.2239 
L 725.259284 353.2239 
L 733.911993 353.2239 
L 742.564702 353.2239 
L 751.217411 353.2239 
L 759.87012 353.2239 
L 768.522829 353.2239 
L 777.175538 353.2239 
L 785.828247 353.2239 
L 794.480956 353.2239 
L 803.133664 353.2239 
L 811.786373 353.2239 
L 820.439082 353.2239 
L 829.091791 353.2239 
L 837.7445 353.2239 
L 846.397209 353.2239 
L 855.049918 353.2239 
L 863.702627 353.2239 
L 872.355336 353.2239 
L 881.008045 353.2239 
L 889.660754 353.2239 
L 898.313462 353.2239 
L 906.966171 353.2239 
L 915.61888 353.2239 
L 924.271589 353.2239 
L 932.924298 353.2239 
L 941.577007 353.2239 
L 950.229716 353.2239 
" style="fill:none;stroke:#434348;stroke-linecap:square;"/>
   </g>
   <g id="line2d_8">
    <path clip-path="url(#p91c7df489f)" d="M 93.611534 353.2239 
L 102.264243 167.575724 
L 110.916952 155.28047 
L 119.569661 159.751471 
L 128.22237 170.420907 
L 136.875079 167.982178 
L 145.527788 169.201542 
L 154.180496 182.41132 
L 162.833205 204.664714 
L 171.485914 191.658164 
L 180.138623 199.279189 
L 188.791332 192.572687 
L 197.444041 209.643783 
L 206.09675 222.446724 
L 214.749459 230.473401 
L 223.402168 246.32392 
L 232.054877 246.115379 
L 240.707586 254.442068 
L 249.360294 253.113644 
L 258.013003 242.738237 
L 266.665712 230.425754 
L 275.318421 202.453822 
L 283.97113 199.689458 
L 292.623839 202.006947 
L 301.276548 201.8799 
L 309.929257 203.171956 
L 318.581966 193.3767 
L 327.234675 185.918282 
L 335.887383 168.27339 
L 344.540092 153.053968 
L 353.192801 166.528907 
L 361.84551 172.306059 
L 370.498219 164.19624 
L 379.150928 159.988934 
L 387.803637 176.425088 
L 396.456346 353.2239 
L 405.109055 353.2239 
L 413.761764 353.2239 
L 422.414473 353.2239 
L 431.067181 353.2239 
L 439.71989 353.2239 
L 448.372599 353.2239 
L 457.025308 353.2239 
L 465.678017 353.2239 
L 474.330726 353.2239 
L 482.983435 353.2239 
L 491.636144 353.2239 
L 500.288853 353.2239 
L 508.941562 353.2239 
L 517.594271 353.2239 
L 526.246979 353.2239 
L 534.899688 353.2239 
L 543.552397 353.2239 
L 552.205106 353.2239 
L 560.857815 353.2239 
L 569.510524 353.2239 
L 578.163233 353.2239 
L 586.815942 353.2239 
L 595.468651 353.2239 
L 604.12136 353.2239 
L 612.774069 353.2239 
L 621.426777 353.2239 
L 630.079486 353.2239 
L 638.732195 353.2239 
L 647.384904 353.2239 
L 656.037613 353.2239 
L 664.690322 353.2239 
L 673.343031 353.2239 
L 681.99574 353.2239 
L 690.648449 353.2239 
L 699.301158 353.2239 
L 707.953867 353.2239 
L 716.606575 353.2239 
L 725.259284 353.2239 
L 733.911993 353.2239 
L 742.564702 353.2239 
L 751.217411 353.2239 
L 759.87012 353.2239 
L 768.522829 353.2239 
L 777.175538 353.2239 
L 785.828247 353.2239 
L 794.480956 353.2239 
L 803.133664 353.2239 
L 811.786373 353.2239 
L 820.439082 353.2239 
L 829.091791 353.2239 
L 837.7445 353.2239 
L 846.397209 353.2239 
L 855.049918 353.2239 
L 863.702627 353.2239 
L 872.355336 353.2239 
L 881.008045 353.2239 
L 889.660754 353.2239 
L 898.313462 353.2239 
L 906.966171 353.2239 
L 915.61888 353.2239 
L 924.271589 353.2239 
L 932.924298 353.2239 
L 941.577007 353.2239 
L 950.229716 353.2239 
" style="fill:none;stroke:#90ed7d;stroke-linecap:square;"/>
   </g>
   <g id="line2d_9">
    <path clip-path="url(#p91c7df489f)" d="M 93.611534 353.2239 
L 102.264243 162.053947 
L 110.916952 163.792785 
L 119.569661 158.3717 
L 128.22237 160.519677 
L 136.875079 170.748139 
L 145.527788 181.897163 
L 154.180496 183.022294 
L 162.833205 199.694687 
L 171.485914 184.556563 
L 180.138623 202.047233 
L 188.791332 208.491164 
L 197.444041 208.900302 
L 206.09675 227.20886 
L 214.749459 231.299468 
L 223.402168 246.231866 
L 232.054877 253.079749 
L 240.707586 257.165397 
L 249.360294 255.112534 
L 258.013003 248.146282 
L 266.665712 225.008402 
L 275.318421 205.345249 
L 283.97113 208.090461 
L 292.623839 207.557611 
L 301.276548 207.226087 
L 309.929257 189.685005 
L 318.581966 196.517408 
L 327.234675 195.054311 
L 335.887383 175.75802 
L 344.540092 150.088058 
L 353.192801 161.804345 
L 361.84551 175.720652 
L 370.498219 169.354762 
L 379.150928 162.551128 
L 387.803637 176.031312 
L 396.456346 353.2239 
L 405.109055 353.2239 
L 413.761764 353.2239 
L 422.414473 353.2239 
L 431.067181 353.2239 
L 439.71989 353.2239 
L 448.372599 353.2239 
L 457.025308 353.2239 
L 465.678017 353.2239 
L 474.330726 353.2239 
L 482.983435 353.2239 
L 491.636144 353.2239 
L 500.288853 353.2239 
L 508.941562 353.2239 
L 517.594271 353.2239 
L 526.246979 353.2239 
L 534.899688 353.2239 
L 543.552397 353.2239 
L 552.205106 353.2239 
L 560.857815 353.2239 
L 569.510524 353.2239 
L 578.163233 353.2239 
L 586.815942 353.2239 
L 595.468651 353.2239 
L 604.12136 353.2239 
L 612.774069 353.2239 
L 621.426777 353.2239 
L 630.079486 353.2239 
L 638.732195 353.2239 
L 647.384904 353.2239 
L 656.037613 353.2239 
L 664.690322 353.2239 
L 673.343031 353.2239 
L 681.99574 353.2239 
L 690.648449 353.2239 
L 699.301158 353.2239 
L 707.953867 353.2239 
L 716.606575 353.2239 
L 725.259284 353.2239 
L 733.911993 353.2239 
L 742.564702 353.2239 
L 751.217411 353.2239 
L 759.87012 353.2239 
L 768.522829 353.2239 
L 777.175538 353.2239 
L 785.828247 353.2239 
L 794.480956 353.2239 
L 803.133664 353.2239 
L 811.786373 353.2239 
L 820.439082 353.2239 
L 829.091791 353.2239 
L 837.7445 353.2239 
L 846.397209 353.2239 
L 855.049918 353.2239 
L 863.702627 353.2239 
L 872.355336 353.2239 
L 881.008045 353.2239 
L 889.660754 353.2239 
L 898.313462 353.2239 
L 906.966171 353.2239 
L 915.61888 353.2239 
L 924.271589 353.2239 
L 932.924298 353.2239 
L 941.577007 353.2239 
L 950.229716 353.2239 
" style="fill:none;stroke:#f7a35c;stroke-linecap:square;"/>
   </g>
   <g id="line2d_10">
    <path clip-path="url(#p91c7df489f)" d="M 93.611534 353.2239 
L 102.264243 93.093979 
L 110.916952 50.397233 
L 119.569661 67.048964 
L 128.22237 98.110846 
L 136.875079 94.481623 
L 145.527788 102.380521 
L 154.180496 113.695158 
L 162.833205 142.942429 
L 171.485914 135.150273 
L 180.138623 137.712078 
L 188.791332 90.425432 
L 197.444041 128.745761 
L 206.09675 162.262222 
L 214.749459 188.306328 
L 223.402168 197.056968 
L 232.054877 218.398781 
L 240.707586 192.554954 
L 249.360294 222.223135 
L 258.013003 207.68882 
L 266.665712 174.033022 
L 275.318421 138.016939 
L 283.97113 159.667888 
L 292.623839 129.82855 
L 301.276548 157.246337 
L 309.929257 151.429406 
L 318.581966 111.724238 
L 327.234675 130.490883 
L 335.887383 105.840116 
L 344.540092 102.237959 
L 353.192801 89.619074 
L 361.84551 115.414628 
L 370.498219 95.691209 
L 379.150928 106.447748 
L 387.803637 132.922285 
L 396.456346 353.2239 
L 405.109055 353.2239 
L 413.761764 353.2239 
L 422.414473 353.2239 
L 431.067181 353.2239 
L 439.71989 353.2239 
L 448.372599 353.2239 
L 457.025308 353.2239 
L 465.678017 353.2239 
L 474.330726 353.2239 
L 482.983435 353.2239 
L 491.636144 353.2239 
L 500.288853 353.2239 
L 508.941562 353.2239 
L 517.594271 353.2239 
L 526.246979 353.2239 
L 534.899688 353.2239 
L 543.552397 353.2239 
L 552.205106 353.2239 
L 560.857815 353.2239 
L 569.510524 353.2239 
L 578.163233 353.2239 
L 586.815942 353.2239 
L 595.468651 353.2239 
L 604.12136 353.2239 
L 612.774069 353.2239 
L 621.426777 353.2239 
L 630.079486 353.2239 
L 638.732195 353.2239 
L 647.384904 353.2239 
L 656.037613 353.2239 
L 664.690322 353.2239 
L 673.343031 353.2239 
L 681.99574 353.2239 
L 690.648449 353.2239 
L 699.301158 353.2239 
L 707.953867 353.2239 
L 716.606575 353.2239 
L 725.259284 353.2239 
L 733.911993 353.2239 
L 742.564702 353.2239 
L 751.217411 353.2239 
L 759.87012 353.2239 
L 768.522829 353.2239 
L 777.175538 353.2239 
L 785.828247 353.2239 
L 794.480956 353.2239 
L 803.133664 353.2239 
L 811.786373 353.2239 
L 820.439082 353.2239 
L 829.091791 353.2239 
L 837.7445 353.2239 
L 846.397209 353.2239 
L 855.049918 353.2239 
L 863.702627 353.2239 
L 872.355336 353.2239 
L 881.008045 353.2239 
L 889.660754 353.2239 
L 898.313462 353.2239 
L 906.966171 353.2239 
L 915.61888 353.2239 
L 924.271589 353.2239 
L 932.924298 353.2239 
L 941.577007 353.2239 
L 950.229716 353.2239 
" style="fill:none;stroke:#8085e9;stroke-linecap:square;"/>
   </g>
   <g id="line2d_11">
    <path clip-path="url(#p91c7df489f)" d="M 93.611534 353.2239 
L 102.264243 194.053777 
L 110.916952 191.114556 
L 119.569661 195.0712 
L 128.22237 196.653857 
L 136.875079 200.27136 
L 145.527788 207.73246 
L 154.180496 227.628725 
L 162.833205 230.002711 
L 171.485914 224.689504 
L 180.138623 227.967866 
L 188.791332 231.698416 
L 197.444041 236.898576 
L 206.09675 238.593963 
L 214.749459 252.498057 
L 223.402168 262.445152 
L 232.054877 266.058206 
L 240.707586 271.027876 
L 249.360294 275.205057 
L 258.013003 256.76493 
L 266.665712 260.711829 
L 275.318421 233.665968 
L 283.97113 237.946087 
L 292.623839 232.382322 
L 301.276548 231.901745 
L 309.929257 229.383855 
L 318.581966 223.357896 
L 327.234675 220.952248 
L 335.887383 217.977313 
L 344.540092 210.913988 
L 353.192801 203.832599 
L 361.84551 211.579898 
L 370.498219 192.676224 
L 379.150928 195.610159 
L 387.803637 196.930198 
L 396.456346 353.2239 
L 405.109055 353.2239 
L 413.761764 353.2239 
L 422.414473 353.2239 
L 431.067181 353.2239 
L 439.71989 353.2239 
L 448.372599 353.2239 
L 457.025308 353.2239 
L 465.678017 353.2239 
L 474.330726 353.2239 
L 482.983435 353.2239 
L 491.636144 353.2239 
L 500.288853 353.2239 
L 508.941562 353.2239 
L 517.594271 353.2239 
L 526.246979 353.2239 
L 534.899688 353.2239 
L 543.552397 353.2239 
L 552.205106 353.2239 
L 560.857815 353.2239 
L 569.510524 353.2239 
L 578.163233 353.2239 
L 586.815942 353.2239 
L 595.468651 353.2239 
L 604.12136 353.2239 
L 612.774069 353.2239 
L 621.426777 353.2239 
L 630.079486 353.2239 
L 638.732195 353.2239 
L 647.384904 353.2239 
L 656.037613 353.2239 
L 664.690322 353.2239 
L 673.343031 353.2239 
L 681.99574 353.2239 
L 690.648449 353.2239 
L 699.301158 353.2239 
L 707.953867 353.2239 
L 716.606575 353.2239 
L 725.259284 353.2239 
L 733.911993 353.2239 
L 742.564702 353.2239 
L 751.217411 353.2239 
L 759.87012 353.2239 
L 768.522829 353.2239 
L 777.175538 353.2239 
L 785.828247 353.2239 
L 794.480956 353.2239 
L 803.133664 353.2239 
L 811.786373 353.2239 
L 820.439082 353.2239 
L 829.091791 353.2239 
L 837.7445 353.2239 
L 846.397209 353.2239 
L 855.049918 353.2239 
L 863.702627 353.2239 
L 872.355336 353.2239 
L 881.008045 353.2239 
L 889.660754 353.2239 
L 898.313462 353.2239 
L 906.966171 353.2239 
L 915.61888 353.2239 
L 924.271589 353.2239 
L 932.924298 353.2239 
L 941.577007 353.2239 
L 950.229716 353.2239 
" style="fill:none;stroke:#f15c80;stroke-linecap:square;"/>
   </g>
   <g id="line2d_12">
    <path clip-path="url(#p91c7df489f)" d="M 93.611534 353.2239 
L 102.264243 203.820568 
L 110.916952 200.165779 
L 119.569661 205.260333 
L 128.22237 214.341929 
L 136.875079 208.472117 
L 145.527788 219.879488 
L 154.180496 221.430004 
L 162.833205 228.407328 
L 171.485914 228.518079 
L 180.138623 233.391131 
L 188.791332 247.345779 
L 197.444041 250.225309 
L 206.09675 249.671174 
L 214.749459 254.654217 
L 223.402168 274.809827 
L 232.054877 273.254736 
L 240.707586 275.574992 
L 249.360294 270.25099 
L 258.013003 268.802167 
L 266.665712 250.508829 
L 275.318421 223.454976 
L 283.97113 243.717749 
L 292.623839 229.175826 
L 301.276548 229.482382 
L 309.929257 237.327047 
L 318.581966 211.451736 
L 327.234675 224.731263 
L 335.887383 222.923345 
L 344.540092 215.665113 
L 353.192801 211.938049 
L 361.84551 216.411248 
L 370.498219 211.981811 
L 379.150928 214.020577 
L 387.803637 207.413359 
L 396.456346 353.2239 
L 405.109055 353.2239 
L 413.761764 353.2239 
L 422.414473 353.2239 
L 431.067181 353.2239 
L 439.71989 353.2239 
L 448.372599 353.2239 
L 457.025308 353.2239 
L 465.678017 353.2239 
L 474.330726 353.2239 
L 482.983435 353.2239 
L 491.636144 353.2239 
L 500.288853 353.2239 
L 508.941562 353.2239 
L 517.594271 353.2239 
L 526.246979 353.2239 
L 534.899688 353.2239 
L 543.552397 353.2239 
L 552.205106 353.2239 
L 560.857815 353.2239 
L 569.510524 353.2239 
L 578.163233 353.2239 
L 586.815942 353.2239 
L 595.468651 353.2239 
L 604.12136 353.2239 
L 612.774069 353.2239 
L 621.426777 353.2239 
L 630.079486 353.2239 
L 638.732195 353.2239 
L 647.384904 353.2239 
L 656.037613 353.2239 
L 664.690322 353.2239 
L 673.343031 353.2239 
L 681.99574 353.2239 
L 690.648449 353.2239 
L 699.301158 353.2239 
L 707.953867 353.2239 
L 716.606575 353.2239 
L 725.259284 353.2239 
L 733.911993 353.2239 
L 742.564702 353.2239 
L 751.217411 353.2239 
L 759.87012 353.2239 
L 768.522829 353.2239 
L 777.175538 353.2239 
L 785.828247 353.2239 
L 794.480956 353.2239 
L 803.133664 353.2239 
L 811.786373 353.2239 
L 820.439082 353.2239 
L 829.091791 353.2239 
L 837.7445 353.2239 
L 846.397209 353.2239 
L 855.049918 353.2239 
L 863.702627 353.2239 
L 872.355336 353.2239 
L 881.008045 353.2239 
L 889.660754 353.2239 
L 898.313462 353.2239 
L 906.966171 353.2239 
L 915.61888 353.2239 
L 924.271589 353.2239 
L 932.924298 353.2239 
L 941.577007 353.2239 
L 950.229716 353.2239 
" style="fill:none;stroke:#e4d354;stroke-linecap:square;"/>
   </g>
   <g id="line2d_13">
    <path clip-path="url(#p91c7df489f)" d="M 93.611534 353.2239 
L 102.264243 207.227199 
L 110.916952 206.033174 
L 119.569661 212.0033 
L 128.22237 203.536577 
L 136.875079 222.858073 
L 145.527788 221.664048 
L 154.180496 224.811932 
L 162.833205 243.807785 
L 171.485914 239.140233 
L 180.138623 241.853926 
L 188.791332 244.676167 
L 197.444041 244.133429 
L 206.09675 259.221204 
L 214.749459 267.361611 
L 223.402168 275.718331 
L 232.054877 276.907979 
L 240.707586 276.142412 
L 249.360294 277.112635 
L 258.013003 260.924842 
L 266.665712 260.695387 
L 275.318421 225.924853 
L 283.97113 246.110378 
L 292.623839 236.854792 
L 301.276548 231.178412 
L 309.929257 232.017589 
L 318.581966 229.812805 
L 327.234675 226.844393 
L 335.887383 222.02339 
L 344.540092 207.070013 
L 353.192801 214.841445 
L 361.84551 219.009169 
L 370.498219 220.921417 
L 379.150928 215.113411 
L 387.803637 212.42272 
L 396.456346 353.2239 
L 405.109055 353.2239 
L 413.761764 353.2239 
L 422.414473 353.2239 
L 431.067181 353.2239 
L 439.71989 353.2239 
L 448.372599 353.2239 
L 457.025308 353.2239 
L 465.678017 353.2239 
L 474.330726 353.2239 
L 482.983435 353.2239 
L 491.636144 353.2239 
L 500.288853 353.2239 
L 508.941562 353.2239 
L 517.594271 353.2239 
L 526.246979 353.2239 
L 534.899688 353.2239 
L 543.552397 353.2239 
L 552.205106 353.2239 
L 560.857815 353.2239 
L 569.510524 353.2239 
L 578.163233 353.2239 
L 586.815942 353.2239 
L 595.468651 353.2239 
L 604.12136 353.2239 
L 612.774069 353.2239 
L 621.426777 353.2239 
L 630.079486 353.2239 
L 638.732195 353.2239 
L 647.384904 353.2239 
L 656.037613 353.2239 
L 664.690322 353.2239 
L 673.343031 353.2239 
L 681.99574 353.2239 
L 690.648449 353.2239 
L 699.301158 353.2239 
L 707.953867 353.2239 
L 716.606575 353.2239 
L 725.259284 353.2239 
L 733.911993 353.2239 
L 742.564702 353.2239 
L 751.217411 353.2239 
L 759.87012 353.2239 
L 768.522829 353.2239 
L 777.175538 353.2239 
L 785.828247 353.2239 
L 794.480956 353.2239 
L 803.133664 353.2239 
L 811.786373 353.2239 
L 820.439082 353.2239 
L 829.091791 353.2239 
L 837.7445 353.2239 
L 846.397209 353.2239 
L 855.049918 353.2239 
L 863.702627 353.2239 
L 872.355336 353.2239 
L 881.008045 353.2239 
L 889.660754 353.2239 
L 898.313462 353.2239 
L 906.966171 353.2239 
L 915.61888 353.2239 
L 924.271589 353.2239 
L 932.924298 353.2239 
L 941.577007 353.2239 
L 950.229716 353.2239 
" style="fill:none;stroke:#2b908f;stroke-linecap:square;"/>
   </g>
   <g id="line2d_14">
    <path clip-path="url(#p91c7df489f)" d="M 93.611534 353.2239 
L 102.264243 205.936457 
L 110.916952 210.588834 
L 119.569661 216.148992 
L 128.22237 216.148992 
L 136.875079 222.843876 
L 145.527788 232.60252 
L 154.180496 232.035157 
L 162.833205 241.566856 
L 171.485914 239.637821 
L 180.138623 234.985444 
L 188.791332 250.531192 
L 197.444041 245.878815 
L 206.09675 254.275351 
L 214.749459 270.274477 
L 223.402168 271.294451 
L 232.054877 279.120142 
L 240.707586 276.618097 
L 249.360294 273.433782 
L 258.013003 258.328414 
L 266.665712 257.520869 
L 275.318421 216.178763 
L 283.97113 247.727838 
L 292.623839 236.352497 
L 301.276548 228.490569 
L 309.929257 238.007041 
L 318.581966 240.025384 
L 327.234675 238.635258 
L 335.887383 223.028349 
L 344.540092 209.907063 
L 353.192801 207.453432 
L 361.84551 225.1439 
L 370.498219 212.536322 
L 379.150928 218.416532 
L 387.803637 199.254098 
L 396.456346 353.2239 
L 405.109055 353.2239 
L 413.761764 353.2239 
L 422.414473 353.2239 
L 431.067181 353.2239 
L 439.71989 353.2239 
L 448.372599 353.2239 
L 457.025308 353.2239 
L 465.678017 353.2239 
L 474.330726 353.2239 
L 482.983435 353.2239 
L 491.636144 353.2239 
L 500.288853 353.2239 
L 508.941562 353.2239 
L 517.594271 353.2239 
L 526.246979 353.2239 
L 534.899688 353.2239 
L 543.552397 353.2239 
L 552.205106 353.2239 
L 560.857815 353.2239 
L 569.510524 353.2239 
L 578.163233 353.2239 
L 586.815942 353.2239 
L 595.468651 353.2239 
L 604.12136 353.2239 
L 612.774069 353.2239 
L 621.426777 353.2239 
L 630.079486 353.2239 
L 638.732195 353.2239 
L 647.384904 353.2239 
L 656.037613 353.2239 
L 664.690322 353.2239 
L 673.343031 353.2239 
L 681.99574 353.2239 
L 690.648449 353.2239 
L 699.301158 353.2239 
L 707.953867 353.2239 
L 716.606575 353.2239 
L 725.259284 353.2239 
L 733.911993 353.2239 
L 742.564702 353.2239 
L 751.217411 353.2239 
L 759.87012 353.2239 
L 768.522829 353.2239 
L 777.175538 353.2239 
L 785.828247 353.2239 
L 794.480956 353.2239 
L 803.133664 353.2239 
L 811.786373 353.2239 
L 820.439082 353.2239 
L 829.091791 353.2239 
L 837.7445 353.2239 
L 846.397209 353.2239 
L 855.049918 353.2239 
L 863.702627 353.2239 
L 872.355336 353.2239 
L 881.008045 353.2239 
L 889.660754 353.2239 
L 898.313462 353.2239 
L 906.966171 353.2239 
L 915.61888 353.2239 
L 924.271589 353.2239 
L 932.924298 353.2239 
L 941.577007 353.2239 
L 950.229716 353.2239 
" style="fill:none;stroke:#f45b5b;stroke-linecap:square;"/>
   </g>
   <g id="line2d_15">
    <path clip-path="url(#p91c7df489f)" d="M 93.611534 353.2239 
L 102.264243 201.86226 
L 110.916952 203.657506 
L 119.569661 209.267648 
L 128.22237 203.4331 
L 136.875079 223.180801 
L 145.527788 229.800769 
L 154.180496 234.625491 
L 162.833205 236.981751 
L 171.485914 245.396965 
L 180.138623 240.572242 
L 188.791332 256.953858 
L 197.444041 248.538644 
L 206.09675 258.973212 
L 214.749459 267.499971 
L 223.402168 276.699613 
L 232.054877 275.124062 
L 240.707586 275.567182 
L 249.360294 274.213696 
L 258.013003 264.215546 
L 266.665712 260.948494 
L 275.318421 221.751275 
L 283.97113 243.178311 
L 292.623839 235.522166 
L 301.276548 241.338934 
L 309.929257 231.312443 
L 318.581966 232.182232 
L 327.234675 231.590634 
L 335.887383 222.113179 
L 344.540092 211.609263 
L 353.192801 206.931987 
L 361.84551 214.053443 
L 370.498219 211.720926 
L 379.150928 208.728444 
L 387.803637 205.488574 
L 396.456346 353.2239 
L 405.109055 353.2239 
L 413.761764 353.2239 
L 422.414473 353.2239 
L 431.067181 353.2239 
L 439.71989 353.2239 
L 448.372599 353.2239 
L 457.025308 353.2239 
L 465.678017 353.2239 
L 474.330726 353.2239 
L 482.983435 353.2239 
L 491.636144 353.2239 
L 500.288853 353.2239 
L 508.941562 353.2239 
L 517.594271 353.2239 
L 526.246979 353.2239 
L 534.899688 353.2239 
L 543.552397 353.2239 
L 552.205106 353.2239 
L 560.857815 353.2239 
L 569.510524 353.2239 
L 578.163233 353.2239 
L 586.815942 353.2239 
L 595.468651 353.2239 
L 604.12136 353.2239 
L 612.774069 353.2239 
L 621.426777 353.2239 
L 630.079486 353.2239 
L 638.732195 353.2239 
L 647.384904 353.2239 
L 656.037613 353.2239 
L 664.690322 353.2239 
L 673.343031 353.2239 
L 681.99574 353.2239 
L 690.648449 353.2239 
L 699.301158 353.2239 
L 707.953867 353.2239 
L 716.606575 353.2239 
L 725.259284 353.2239 
L 733.911993 353.2239 
L 742.564702 353.2239 
L 751.217411 353.2239 
L 759.87012 353.2239 
L 768.522829 353.2239 
L 777.175538 353.2239 
L 785.828247 353.2239 
L 794.480956 353.2239 
L 803.133664 353.2239 
L 811.786373 353.2239 
L 820.439082 353.2239 
L 829.091791 353.2239 
L 837.7445 353.2239 
L 846.397209 353.2239 
L 855.049918 353.2239 
L 863.702627 353.2239 
L 872.355336 353.2239 
L 881.008045 353.2239 
L 889.660754 353.2239 
L 898.313462 353.2239 
L 906.966171 353.2239 
L 915.61888 353.2239 
L 924.271589 353.2239 
L 932.924298 353.2239 
L 941.577007 353.2239 
L 950.229716 353.2239 
" style="fill:none;stroke:#91e8e1;stroke-linecap:square;"/>
   </g>
   <g id="line2d_16">
    <path clip-path="url(#p91c7df489f)" d="M 93.611534 353.2239 
L 102.264243 171.599893 
L 110.916952 171.089999 
L 119.569661 167.724703 
L 128.22237 180.675994 
L 136.875079 181.083909 
L 145.527788 174.86321 
L 154.180496 203.723173 
L 162.833205 210.249808 
L 171.485914 202.499429 
L 180.138623 211.57553 
L 188.791332 220.243717 
L 197.444041 214.940826 
L 206.09675 233.806538 
L 214.749459 245.329377 
L 223.402168 262.052824 
L 232.054877 262.456127 
L 240.707586 267.039862 
L 249.360294 264.891218 
L 258.013003 253.254399 
L 266.665712 234.981726 
L 275.318421 214.254622 
L 283.97113 219.337554 
L 292.623839 216.968775 
L 301.276548 221.127241 
L 309.929257 207.520048 
L 318.581966 210.863414 
L 327.234675 204.809186 
L 335.887383 199.262002 
L 344.540092 187.978182 
L 353.192801 189.142892 
L 361.84551 177.262568 
L 370.498219 187.368182 
L 379.150928 180.247407 
L 387.803637 185.723951 
L 396.456346 353.2239 
L 405.109055 353.2239 
L 413.761764 353.2239 
L 422.414473 353.2239 
L 431.067181 353.2239 
L 439.71989 353.2239 
L 448.372599 353.2239 
L 457.025308 353.2239 
L 465.678017 353.2239 
L 474.330726 353.2239 
L 482.983435 353.2239 
L 491.636144 353.2239 
L 500.288853 353.2239 
L 508.941562 353.2239 
L 517.594271 353.2239 
L 526.246979 353.2239 
L 534.899688 353.2239 
L 543.552397 353.2239 
L 552.205106 353.2239 
L 560.857815 353.2239 
L 569.510524 353.2239 
L 578.163233 353.2239 
L 586.815942 353.2239 
L 595.468651 353.2239 
L 604.12136 353.2239 
L 612.774069 353.2239 
L 621.426777 353.2239 
L 630.079486 353.2239 
L 638.732195 353.2239 
L 647.384904 353.2239 
L 656.037613 353.2239 
L 664.690322 353.2239 
L 673.343031 353.2239 
L 681.99574 353.2239 
L 690.648449 353.2239 
L 699.301158 353.2239 
L 707.953867 353.2239 
L 716.606575 353.2239 
L 725.259284 353.2239 
L 733.911993 353.2239 
L 742.564702 353.2239 
L 751.217411 353.2239 
L 759.87012 353.2239 
L 768.522829 353.2239 
L 777.175538 353.2239 
L 785.828247 353.2239 
L 794.480956 353.2239 
L 803.133664 353.2239 
L 811.786373 353.2239 
L 820.439082 353.2239 
L 829.091791 353.2239 
L 837.7445 353.2239 
L 846.397209 353.2239 
L 855.049918 353.2239 
L 863.702627 353.2239 
L 872.355336 353.2239 
L 881.008045 353.2239 
L 889.660754 353.2239 
L 898.313462 353.2239 
L 906.966171 353.2239 
L 915.61888 353.2239 
L 924.271589 353.2239 
L 932.924298 353.2239 
L 941.577007 353.2239 
L 950.229716 353.2239 
" style="fill:none;stroke:#7cb5ec;stroke-linecap:square;"/>
   </g>
   <g id="line2d_17">
    <path clip-path="url(#p91c7df489f)" d="M 93.611534 353.2239 
L 102.264243 157.335118 
L 110.916952 154.995843 
L 119.569661 138.112387 
L 128.22237 167.810997 
L 136.875079 165.980261 
L 145.527788 171.47247 
L 154.180496 178.693708 
L 162.833205 198.831807 
L 171.485914 186.220068 
L 180.138623 193.746428 
L 188.791332 205.137676 
L 197.444041 198.730099 
L 206.09675 218.562652 
L 214.749459 227.817207 
L 223.402168 244.902872 
L 232.054877 245.303757 
L 240.707586 247.329862 
L 249.360294 256.374724 
L 258.013003 235.100625 
L 266.665712 225.113487 
L 275.318421 199.34864 
L 283.97113 213.574266 
L 292.623839 210.698183 
L 301.276548 201.297147 
L 309.929257 194.947072 
L 318.581966 186.150235 
L 327.234675 184.78774 
L 335.887383 170.06694 
L 344.540092 165.114313 
L 353.192801 165.239083 
L 361.84551 161.919329 
L 370.498219 165.944642 
L 379.150928 163.748328 
L 387.803637 157.864477 
L 396.456346 353.2239 
L 405.109055 353.2239 
L 413.761764 353.2239 
L 422.414473 353.2239 
L 431.067181 353.2239 
L 439.71989 353.2239 
L 448.372599 353.2239 
L 457.025308 353.2239 
L 465.678017 353.2239 
L 474.330726 353.2239 
L 482.983435 353.2239 
L 491.636144 353.2239 
L 500.288853 353.2239 
L 508.941562 353.2239 
L 517.594271 353.2239 
L 526.246979 353.2239 
L 534.899688 353.2239 
L 543.552397 353.2239 
L 552.205106 353.2239 
L 560.857815 353.2239 
L 569.510524 353.2239 
L 578.163233 353.2239 
L 586.815942 353.2239 
L 595.468651 353.2239 
L 604.12136 353.2239 
L 612.774069 353.2239 
L 621.426777 353.2239 
L 630.079486 353.2239 
L 638.732195 353.2239 
L 647.384904 353.2239 
L 656.037613 353.2239 
L 664.690322 353.2239 
L 673.343031 353.2239 
L 681.99574 353.2239 
L 690.648449 353.2239 
L 699.301158 353.2239 
L 707.953867 353.2239 
L 716.606575 353.2239 
L 725.259284 353.2239 
L 733.911993 353.2239 
L 742.564702 353.2239 
L 751.217411 353.2239 
L 759.87012 353.2239 
L 768.522829 353.2239 
L 777.175538 353.2239 
L 785.828247 353.2239 
L 794.480956 353.2239 
L 803.133664 353.2239 
L 811.786373 353.2239 
L 820.439082 353.2239 
L 829.091791 353.2239 
L 837.7445 353.2239 
L 846.397209 353.2239 
L 855.049918 353.2239 
L 863.702627 353.2239 
L 872.355336 353.2239 
L 881.008045 353.2239 
L 889.660754 353.2239 
L 898.313462 353.2239 
L 906.966171 353.2239 
L 915.61888 353.2239 
L 924.271589 353.2239 
L 932.924298 353.2239 
L 941.577007 353.2239 
L 950.229716 353.2239 
" style="fill:none;stroke:#434348;stroke-linecap:square;"/>
   </g>
   <g id="line2d_18">
    <path clip-path="url(#p91c7df489f)" d="M 93.611534 353.2239 
L 102.264243 200.988608 
L 110.916952 200.126085 
L 119.569661 213.926452 
L 128.22237 204.977777 
L 136.875079 212.740483 
L 145.527788 213.49519 
L 154.180496 221.473527 
L 162.833205 237.969278 
L 171.485914 233.764479 
L 180.138623 245.947614 
L 188.791332 237.21457 
L 197.444041 243.899123 
L 206.09675 257.160062 
L 214.749459 261.364264 
L 223.402168 275.055804 
L 232.054877 275.590812 
L 240.707586 283.350099 
L 249.360294 276.119925 
L 258.013003 259.721025 
L 266.665712 248.385849 
L 275.318421 215.473114 
L 283.97113 242.534013 
L 292.623839 233.778336 
L 301.276548 245.197381 
L 309.929257 240.318306 
L 318.581966 226.476856 
L 327.234675 227.099158 
L 335.887383 228.909982 
L 344.540092 217.209897 
L 353.192801 221.698745 
L 361.84551 220.011115 
L 370.498219 209.845572 
L 379.150928 218.944097 
L 387.803637 214.035316 
L 396.456346 353.2239 
L 405.109055 353.2239 
L 413.761764 353.2239 
L 422.414473 353.2239 
L 431.067181 353.2239 
L 439.71989 353.2239 
L 448.372599 353.2239 
L 457.025308 353.2239 
L 465.678017 353.2239 
L 474.330726 353.2239 
L 482.983435 353.2239 
L 491.636144 353.2239 
L 500.288853 353.2239 
L 508.941562 353.2239 
L 517.594271 353.2239 
L 526.246979 353.2239 
L 534.899688 353.2239 
L 543.552397 353.2239 
L 552.205106 353.2239 
L 560.857815 353.2239 
L 569.510524 353.2239 
L 578.163233 353.2239 
L 586.815942 353.2239 
L 595.468651 353.2239 
L 604.12136 353.2239 
L 612.774069 353.2239 
L 621.426777 353.2239 
L 630.079486 353.2239 
L 638.732195 353.2239 
L 647.384904 353.2239 
L 656.037613 353.2239 
L 664.690322 353.2239 
L 673.343031 353.2239 
L 681.99574 353.2239 
L 690.648449 353.2239 
L 699.301158 353.2239 
L 707.953867 353.2239 
L 716.606575 353.2239 
L 725.259284 353.2239 
L 733.911993 353.2239 
L 742.564702 353.2239 
L 751.217411 353.2239 
L 759.87012 353.2239 
L 768.522829 353.2239 
L 777.175538 353.2239 
L 785.828247 353.2239 
L 794.480956 353.2239 
L 803.133664 353.2239 
L 811.786373 353.2239 
L 820.439082 353.2239 
L 829.091791 353.2239 
L 837.7445 353.2239 
L 846.397209 353.2239 
L 855.049918 353.2239 
L 863.702627 353.2239 
L 872.355336 353.2239 
L 881.008045 353.2239 
L 889.660754 353.2239 
L 898.313462 353.2239 
L 906.966171 353.2239 
L 915.61888 353.2239 
L 924.271589 353.2239 
L 932.924298 353.2239 
L 941.577007 353.2239 
L 950.229716 353.2239 
" style="fill:none;stroke:#90ed7d;stroke-linecap:square;"/>
   </g>
   <g id="line2d_19">
    <path clip-path="url(#p91c7df489f)" d="M 93.611534 353.2239 
L 102.264243 169.157644 
L 110.916952 166.914177 
L 119.569661 156.206722 
L 128.22237 181.29276 
L 136.875079 175.378166 
L 145.527788 181.802639 
L 154.180496 195.161464 
L 162.833205 210.355853 
L 171.485914 189.144894 
L 180.138623 201.585937 
L 188.791332 216.576375 
L 197.444041 208.520289 
L 206.09675 224.22398 
L 214.749459 248.493529 
L 223.402168 255.018753 
L 232.054877 262.25391 
L 240.707586 263.471084 
L 249.360294 261.321076 
L 258.013003 250.089866 
L 266.665712 238.649961 
L 275.318421 211.288407 
L 283.97113 216.573182 
L 292.623839 215.628004 
L 301.276548 212.124982 
L 309.929257 201.57305 
L 318.581966 195.205188 
L 327.234675 199.664475 
L 335.887383 191.449822 
L 344.540092 178.924544 
L 353.192801 177.417907 
L 361.84551 181.171699 
L 370.498219 181.816735 
L 379.150928 168.77704 
L 387.803637 180.586638 
L 396.456346 353.2239 
L 405.109055 353.2239 
L 413.761764 353.2239 
L 422.414473 353.2239 
L 431.067181 353.2239 
L 439.71989 353.2239 
L 448.372599 353.2239 
L 457.025308 353.2239 
L 465.678017 353.2239 
L 474.330726 353.2239 
L 482.983435 353.2239 
L 491.636144 353.2239 
L 500.288853 353.2239 
L 508.941562 353.2239 
L 517.594271 353.2239 
L 526.246979 353.2239 
L 534.899688 353.2239 
L 543.552397 353.2239 
L 552.205106 353.2239 
L 560.857815 353.2239 
L 569.510524 353.2239 
L 578.163233 353.2239 
L 586.815942 353.2239 
L 595.468651 353.2239 
L 604.12136 353.2239 
L 612.774069 353.2239 
L 621.426777 353.2239 
L 630.079486 353.2239 
L 638.732195 353.2239 
L 647.384904 353.2239 
L 656.037613 353.2239 
L 664.690322 353.2239 
L 673.343031 353.2239 
L 681.99574 353.2239 
L 690.648449 353.2239 
L 699.301158 353.2239 
L 707.953867 353.2239 
L 716.606575 353.2239 
L 725.259284 353.2239 
L 733.911993 353.2239 
L 742.564702 353.2239 
L 751.217411 353.2239 
L 759.87012 353.2239 
L 768.522829 353.2239 
L 777.175538 353.2239 
L 785.828247 353.2239 
L 794.480956 353.2239 
L 803.133664 353.2239 
L 811.786373 353.2239 
L 820.439082 353.2239 
L 829.091791 353.2239 
L 837.7445 353.2239 
L 846.397209 353.2239 
L 855.049918 353.2239 
L 863.702627 353.2239 
L 872.355336 353.2239 
L 881.008045 353.2239 
L 889.660754 353.2239 
L 898.313462 353.2239 
L 906.966171 353.2239 
L 915.61888 353.2239 
L 924.271589 353.2239 
L 932.924298 353.2239 
L 941.577007 353.2239 
L 950.229716 353.2239 
" style="fill:none;stroke:#f7a35c;stroke-linecap:square;"/>
   </g>
   <g id="line2d_20">
    <path clip-path="url(#p91c7df489f)" d="M 93.611534 353.2239 
L 102.264243 206.321609 
L 110.916952 199.052441 
L 119.569661 221.727906 
L 128.22237 199.269431 
L 136.875079 211.095391 
L 145.527788 213.916262 
L 154.180496 225.199747 
L 162.833205 239.629588 
L 171.485914 231.70945 
L 180.138623 236.591727 
L 188.791332 242.450459 
L 197.444041 243.7524 
L 206.09675 261.111348 
L 214.749459 257.964373 
L 223.402168 278.577625 
L 232.054877 283.456386 
L 240.707586 281.607735 
L 249.360294 281.603 
L 258.013003 262.170988 
L 266.665712 250.11394 
L 275.318421 209.178865 
L 283.97113 250.087753 
L 292.623839 238.780729 
L 301.276548 247.124074 
L 309.929257 232.222177 
L 318.581966 246.864461 
L 327.234675 236.301383 
L 335.887383 223.560738 
L 344.540092 227.657264 
L 353.192801 212.384095 
L 361.84551 220.25697 
L 370.498219 221.63991 
L 379.150928 221.93635 
L 387.803637 211.630484 
L 396.456346 353.2239 
L 405.109055 353.2239 
L 413.761764 353.2239 
L 422.414473 353.2239 
L 431.067181 353.2239 
L 439.71989 353.2239 
L 448.372599 353.2239 
L 457.025308 353.2239 
L 465.678017 353.2239 
L 474.330726 353.2239 
L 482.983435 353.2239 
L 491.636144 353.2239 
L 500.288853 353.2239 
L 508.941562 353.2239 
L 517.594271 353.2239 
L 526.246979 353.2239 
L 534.899688 353.2239 
L 543.552397 353.2239 
L 552.205106 353.2239 
L 560.857815 353.2239 
L 569.510524 353.2239 
L 578.163233 353.2239 
L 586.815942 353.2239 
L 595.468651 353.2239 
L 604.12136 353.2239 
L 612.774069 353.2239 
L 621.426777 353.2239 
L 630.079486 353.2239 
L 638.732195 353.2239 
L 647.384904 353.2239 
L 656.037613 353.2239 
L 664.690322 353.2239 
L 673.343031 353.2239 
L 681.99574 353.2239 
L 690.648449 353.2239 
L 699.301158 353.2239 
L 707.953867 353.2239 
L 716.606575 353.2239 
L 725.259284 353.2239 
L 733.911993 353.2239 
L 742.564702 353.2239 
L 751.217411 353.2239 
L 759.87012 353.2239 
L 768.522829 353.2239 
L 777.175538 353.2239 
L 785.828247 353.2239 
L 794.480956 353.2239 
L 803.133664 353.2239 
L 811.786373 353.2239 
L 820.439082 353.2239 
L 829.091791 353.2239 
L 837.7445 353.2239 
L 846.397209 353.2239 
L 855.049918 353.2239 
L 863.702627 353.2239 
L 872.355336 353.2239 
L 881.008045 353.2239 
L 889.660754 353.2239 
L 898.313462 353.2239 
L 906.966171 353.2239 
L 915.61888 353.2239 
L 924.271589 353.2239 
L 932.924298 353.2239 
L 941.577007 353.2239 
L 950.229716 353.2239 
" style="fill:none;stroke:#8085e9;stroke-linecap:square;"/>
   </g>
   <g id="line2d_21">
    <path clip-path="url(#p91c7df489f)" d="M 93.611534 353.2239 
L 102.264243 169.182176 
L 110.916952 156.851072 
L 119.569661 155.720721 
L 128.22237 177.711189 
L 136.875079 173.087025 
L 145.527788 179.869132 
L 154.180496 188.809183 
L 162.833205 196.105086 
L 171.485914 188.911942 
L 180.138623 195.077494 
L 188.791332 212.546558 
L 197.444041 208.127912 
L 206.09675 221.178037 
L 214.749459 240.084994 
L 223.402168 250.667931 
L 232.054877 263.199768 
L 240.707586 255.484968 
L 249.360294 252.70187 
L 258.013003 247.552284 
L 266.665712 233.352045 
L 275.318421 211.024833 
L 283.97113 217.379683 
L 292.623839 214.577934 
L 301.276548 209.917576 
L 309.929257 209.370352 
L 318.581966 192.253914 
L 327.234675 193.351219 
L 335.887383 182.602468 
L 344.540092 173.893443 
L 353.192801 171.034796 
L 361.84551 171.193326 
L 370.498219 166.819705 
L 379.150928 170.193499 
L 387.803637 176.901318 
L 396.456346 353.2239 
L 405.109055 353.2239 
L 413.761764 353.2239 
L 422.414473 353.2239 
L 431.067181 353.2239 
L 439.71989 353.2239 
L 448.372599 353.2239 
L 457.025308 353.2239 
L 465.678017 353.2239 
L 474.330726 353.2239 
L 482.983435 353.2239 
L 491.636144 353.2239 
L 500.288853 353.2239 
L 508.941562 353.2239 
L 517.594271 353.2239 
L 526.246979 353.2239 
L 534.899688 353.2239 
L 543.552397 353.2239 
L 552.205106 353.2239 
L 560.857815 353.2239 
L 569.510524 353.2239 
L 578.163233 353.2239 
L 586.815942 353.2239 
L 595.468651 353.2239 
L 604.12136 353.2239 
L 612.774069 353.2239 
L 621.426777 353.2239 
L 630.079486 353.2239 
L 638.732195 353.2239 
L 647.384904 353.2239 
L 656.037613 353.2239 
L 664.690322 353.2239 
L 673.343031 353.2239 
L 681.99574 353.2239 
L 690.648449 353.2239 
L 699.301158 353.2239 
L 707.953867 353.2239 
L 716.606575 353.2239 
L 725.259284 353.2239 
L 733.911993 353.2239 
L 742.564702 353.2239 
L 751.217411 353.2239 
L 759.87012 353.2239 
L 768.522829 353.2239 
L 777.175538 353.2239 
L 785.828247 353.2239 
L 794.480956 353.2239 
L 803.133664 353.2239 
L 811.786373 353.2239 
L 820.439082 353.2239 
L 829.091791 353.2239 
L 837.7445 353.2239 
L 846.397209 353.2239 
L 855.049918 353.2239 
L 863.702627 353.2239 
L 872.355336 353.2239 
L 881.008045 353.2239 
L 889.660754 353.2239 
L 898.313462 353.2239 
L 906.966171 353.2239 
L 915.61888 353.2239 
L 924.271589 353.2239 
L 932.924298 353.2239 
L 941.577007 353.2239 
L 950.229716 353.2239 
" style="fill:none;stroke:#f15c80;stroke-linecap:square;"/>
   </g>
   <g id="line2d_22">
    <path clip-path="url(#p91c7df489f)" d="M 93.611534 353.2239 
L 102.264243 199.623845 
L 110.916952 200.500307 
L 119.569661 206.416429 
L 128.22237 205.430409 
L 136.875079 202.801021 
L 145.527788 212.661224 
L 154.180496 215.40017 
L 162.833205 234.901461 
L 171.485914 231.9434 
L 180.138623 233.038978 
L 188.791332 236.983059 
L 197.444041 246.185916 
L 206.09675 252.211229 
L 214.749459 263.60476 
L 223.402168 271.272614 
L 232.054877 273.569437 
L 240.707586 276.413478 
L 249.360294 276.079184 
L 258.013003 263.797779 
L 266.665712 255.238578 
L 275.318421 221.903694 
L 283.97113 246.003887 
L 292.623839 237.765048 
L 301.276548 240.268346 
L 309.929257 234.321809 
L 318.581966 229.799317 
L 327.234675 229.883368 
L 335.887383 218.991908 
L 344.540092 215.33291 
L 353.192801 217.698994 
L 361.84551 221.590019 
L 370.498219 210.847584 
L 379.150928 210.356838 
L 387.803637 213.150683 
L 396.456346 353.2239 
L 405.109055 353.2239 
L 413.761764 353.2239 
L 422.414473 353.2239 
L 431.067181 353.2239 
L 439.71989 353.2239 
L 448.372599 353.2239 
L 457.025308 353.2239 
L 465.678017 353.2239 
L 474.330726 353.2239 
L 482.983435 353.2239 
L 491.636144 353.2239 
L 500.288853 353.2239 
L 508.941562 353.2239 
L 517.594271 353.2239 
L 526.246979 353.2239 
L 534.899688 353.2239 
L 543.552397 353.2239 
L 552.205106 353.2239 
L 560.857815 353.2239 
L 569.510524 353.2239 
L 578.163233 353.2239 
L 586.815942 353.2239 
L 595.468651 353.2239 
L 604.12136 353.2239 
L 612.774069 353.2239 
L 621.426777 353.2239 
L 630.079486 353.2239 
L 638.732195 353.2239 
L 647.384904 353.2239 
L 656.037613 353.2239 
L 664.690322 353.2239 
L 673.343031 353.2239 
L 681.99574 353.2239 
L 690.648449 353.2239 
L 699.301158 353.2239 
L 707.953867 353.2239 
L 716.606575 353.2239 
L 725.259284 353.2239 
L 733.911993 353.2239 
L 742.564702 353.2239 
L 751.217411 353.2239 
L 759.87012 353.2239 
L 768.522829 353.2239 
L 777.175538 353.2239 
L 785.828247 353.2239 
L 794.480956 353.2239 
L 803.133664 353.2239 
L 811.786373 353.2239 
L 820.439082 353.2239 
L 829.091791 353.2239 
L 837.7445 353.2239 
L 846.397209 353.2239 
L 855.049918 353.2239 
L 863.702627 353.2239 
L 872.355336 353.2239 
L 881.008045 353.2239 
L 889.660754 353.2239 
L 898.313462 353.2239 
L 906.966171 353.2239 
L 915.61888 353.2239 
L 924.271589 353.2239 
L 932.924298 353.2239 
L 941.577007 353.2239 
L 950.229716 353.2239 
" style="fill:none;stroke:#e4d354;stroke-linecap:square;"/>
   </g>
   <g id="line2d_23">
    <path clip-path="url(#p91c7df489f)" d="M 50.780625 353.2239 
L 993.060625 353.2239 
" style="fill:none;stroke:#dedede;stroke-linecap:square;stroke-width:2;"/>
   </g>
   <g id="text_14">
    <!-- Slamdunk: T&gt;C conversions over reads -->
    <defs>
     <path d="M 53.515625 70.515625 
L 53.515625 60.890625 
Q 47.90625 63.578125 42.921875 64.890625 
Q 37.9375 66.21875 33.296875 66.21875 
Q 25.25 66.21875 20.875 63.09375 
Q 16.5 59.96875 16.5 54.203125 
Q 16.5 49.359375 19.40625 46.890625 
Q 22.3125 44.4375 30.421875 42.921875 
L 36.375 41.703125 
Q 47.40625 39.59375 52.65625 34.296875 
Q 57.90625 29 57.90625 20.125 
Q 57.90625 9.515625 50.796875 4.046875 
Q 43.703125 -1.421875 29.984375 -1.421875 
Q 24.8125 -1.421875 18.96875 -0.25 
Q 13.140625 0.921875 6.890625 3.21875 
L 6.890625 13.375 
Q 12.890625 10.015625 18.65625 8.296875 
Q 24.421875 6.59375 29.984375 6.59375 
Q 38.421875 6.59375 43.015625 9.90625 
Q 47.609375 13.234375 47.609375 19.390625 
Q 47.609375 24.75 44.3125 27.78125 
Q 41.015625 30.8125 33.5 32.328125 
L 27.484375 33.5 
Q 16.453125 35.6875 11.515625 40.375 
Q 6.59375 45.0625 6.59375 53.421875 
Q 6.59375 63.09375 13.40625 68.65625 
Q 20.21875 74.21875 32.171875 74.21875 
Q 37.3125 74.21875 42.625 73.28125 
Q 47.953125 72.359375 53.515625 70.515625 
z
" id="DejaVuSans-83"/>
     <path d="M 9.421875 75.984375 
L 18.40625 75.984375 
L 18.40625 0 
L 9.421875 0 
z
" id="DejaVuSans-108"/>
     <path d="M 52 44.1875 
Q 55.375 50.25 60.0625 53.125 
Q 64.75 56 71.09375 56 
Q 79.640625 56 84.28125 50.015625 
Q 88.921875 44.046875 88.921875 33.015625 
L 88.921875 0 
L 79.890625 0 
L 79.890625 32.71875 
Q 79.890625 40.578125 77.09375 44.375 
Q 74.3125 48.1875 68.609375 48.1875 
Q 61.625 48.1875 57.5625 43.546875 
Q 53.515625 38.921875 53.515625 30.90625 
L 53.515625 0 
L 44.484375 0 
L 44.484375 32.71875 
Q 44.484375 40.625 41.703125 44.40625 
Q 38.921875 48.1875 33.109375 48.1875 
Q 26.21875 48.1875 22.15625 43.53125 
Q 18.109375 38.875 18.109375 30.90625 
L 18.109375 0 
L 9.078125 0 
L 9.078125 54.6875 
L 18.109375 54.6875 
L 18.109375 46.1875 
Q 21.1875 51.21875 25.484375 53.609375 
Q 29.78125 56 35.6875 56 
Q 41.65625 56 45.828125 52.96875 
Q 50 49.953125 52 44.1875 
z
" id="DejaVuSans-109"/>
     <path d="M 8.5 21.578125 
L 8.5 54.6875 
L 17.484375 54.6875 
L 17.484375 21.921875 
Q 17.484375 14.15625 20.5 10.265625 
Q 23.53125 6.390625 29.59375 6.390625 
Q 36.859375 6.390625 41.078125 11.03125 
Q 45.3125 15.671875 45.3125 23.6875 
L 45.3125 54.6875 
L 54.296875 54.6875 
L 54.296875 0 
L 45.3125 0 
L 45.3125 8.40625 
Q 42.046875 3.421875 37.71875 1 
Q 33.40625 -1.421875 27.6875 -1.421875 
Q 18.265625 -1.421875 13.375 4.4375 
Q 8.5 10.296875 8.5 21.578125 
z
M 31.109375 56 
z
" id="DejaVuSans-117"/>
     <path d="M 9.078125 75.984375 
L 18.109375 75.984375 
L 18.109375 31.109375 
L 44.921875 54.6875 
L 56.390625 54.6875 
L 27.390625 29.109375 
L 57.625 0 
L 45.90625 0 
L 18.109375 26.703125 
L 18.109375 0 
L 9.078125 0 
z
" id="DejaVuSans-107"/>
     <path d="M 11.71875 12.40625 
L 22.015625 12.40625 
L 22.015625 0 
L 11.71875 0 
z
M 11.71875 51.703125 
L 22.015625 51.703125 
L 22.015625 39.3125 
L 11.71875 39.3125 
z
" id="DejaVuSans-58"/>
     <path d="M -0.296875 72.90625 
L 61.375 72.90625 
L 61.375 64.59375 
L 35.5 64.59375 
L 35.5 0 
L 25.59375 0 
L 25.59375 64.59375 
L -0.296875 64.59375 
z
" id="DejaVuSans-84"/>
     <path d="M 10.59375 49.21875 
L 10.59375 58.109375 
L 73.1875 35.40625 
L 73.1875 27.296875 
L 10.59375 4.59375 
L 10.59375 13.484375 
L 60.890625 31.296875 
z
" id="DejaVuSans-62"/>
     <path d="M 64.40625 67.28125 
L 64.40625 56.890625 
Q 59.421875 61.53125 53.78125 63.8125 
Q 48.140625 66.109375 41.796875 66.109375 
Q 29.296875 66.109375 22.65625 58.46875 
Q 16.015625 50.828125 16.015625 36.375 
Q 16.015625 21.96875 22.65625 14.328125 
Q 29.296875 6.6875 41.796875 6.6875 
Q 48.140625 6.6875 53.78125 8.984375 
Q 59.421875 11.28125 64.40625 15.921875 
L 64.40625 5.609375 
Q 59.234375 2.09375 53.4375 0.328125 
Q 47.65625 -1.421875 41.21875 -1.421875 
Q 24.65625 -1.421875 15.125 8.703125 
Q 5.609375 18.84375 5.609375 36.375 
Q 5.609375 53.953125 15.125 64.078125 
Q 24.65625 74.21875 41.21875 74.21875 
Q 47.75 74.21875 53.53125 72.484375 
Q 59.328125 70.75 64.40625 67.28125 
z
" id="DejaVuSans-67"/>
    </defs>
    <g transform="translate(364.000625 19.3575)scale(0.16 -0.16)">
     <use xlink:href="#DejaVuSans-83"/>
     <use x="63.476562" xlink:href="#DejaVuSans-108"/>
     <use x="91.259766" xlink:href="#DejaVuSans-97"/>
     <use x="152.539062" xlink:href="#DejaVuSans-109"/>
     <use x="249.951172" xlink:href="#DejaVuSans-100"/>
     <use x="313.427734" xlink:href="#DejaVuSans-117"/>
     <use x="376.806641" xlink:href="#DejaVuSans-110"/>
     <use x="440.185547" xlink:href="#DejaVuSans-107"/>
     <use x="498.095703" xlink:href="#DejaVuSans-58"/>
     <use x="531.787109" xlink:href="#DejaVuSans-32"/>
     <use x="563.574219" xlink:href="#DejaVuSans-84"/>
     <use x="624.658203" xlink:href="#DejaVuSans-62"/>
     <use x="708.447266" xlink:href="#DejaVuSans-67"/>
     <use x="778.271484" xlink:href="#DejaVuSans-32"/>
     <use x="810.058594" xlink:href="#DejaVuSans-99"/>
     <use x="865.039062" xlink:href="#DejaVuSans-111"/>
     <use x="926.220703" xlink:href="#DejaVuSans-110"/>
     <use x="989.599609" xlink:href="#DejaVuSans-118"/>
     <use x="1048.779297" xlink:href="#DejaVuSans-101"/>
     <use x="1110.302734" xlink:href="#DejaVuSans-114"/>
     <use x="1151.416016" xlink:href="#DejaVuSans-115"/>
     <use x="1203.515625" xlink:href="#DejaVuSans-105"/>
     <use x="1231.298828" xlink:href="#DejaVuSans-111"/>
     <use x="1292.480469" xlink:href="#DejaVuSans-110"/>
     <use x="1355.859375" xlink:href="#DejaVuSans-115"/>
     <use x="1407.958984" xlink:href="#DejaVuSans-32"/>
     <use x="1439.746094" xlink:href="#DejaVuSans-111"/>
     <use x="1500.927734" xlink:href="#DejaVuSans-118"/>
     <use x="1560.107422" xlink:href="#DejaVuSans-101"/>
     <use x="1621.630859" xlink:href="#DejaVuSans-114"/>
     <use x="1662.744141" xlink:href="#DejaVuSans-32"/>
     <use x="1694.53125" xlink:href="#DejaVuSans-114"/>
     <use x="1735.613281" xlink:href="#DejaVuSans-101"/>
     <use x="1797.136719" xlink:href="#DejaVuSans-97"/>
     <use x="1858.416016" xlink:href="#DejaVuSans-100"/>
     <use x="1921.892578" xlink:href="#DejaVuSans-115"/>
    </g>
   </g>
  </g>
 </g>
 <defs>
  <clipPath id="p91c7df489f">
   <rect height="317.968" width="942.28" x="50.780625" y="35.2559"/>
  </clipPath>
 </defs>
</svg>
