<?xml version="1.0" encoding="utf-8" standalone="no"?>
<!DOCTYPE svg PUBLIC "-//W3C//DTD SVG 1.1//EN"
  "http://www.w3.org/Graphics/SVG/1.1/DTD/svg11.dtd">
<!-- Created with matplotlib (https://matplotlib.org/) -->
<svg height="388.844525pt" version="1.1" viewBox="0 0 1000.358125 388.844525" width="1000.358125pt" xmlns="http://www.w3.org/2000/svg" xmlns:xlink="http://www.w3.org/1999/xlink">
 <defs>
  <style type="text/css">
*{stroke-linecap:butt;stroke-linejoin:round;}
  </style>
 </defs>
 <g id="figure_1">
  <g id="axes_1">
   <g id="patch_1">
    <path d="M 32.968125 353.2239 
L 993.158125 353.2239 
L 993.158125 35.2559 
L 32.968125 35.2559 
z
" style="fill:#ffffff;"/>
   </g>
   <g id="patch_2">
    <path clip-path="url(#p9100194e33)" d="M 32.968125 -918.6481 
L 993.158125 -918.6481 
L 993.158125 -6006.1361 
L 32.968125 -6006.1361 
z
" style="fill:#e6c3c3;"/>
   </g>
   <g id="patch_3">
    <path clip-path="url(#p9100194e33)" d="M 32.968125 35.2559 
L 993.158125 35.2559 
L 993.158125 -918.6481 
L 32.968125 -918.6481 
z
" style="fill:#e6dcc3;"/>
   </g>
   <g id="patch_4">
    <path clip-path="url(#p9100194e33)" d="M 32.968125 353.2239 
L 993.158125 353.2239 
L 993.158125 35.2559 
L 32.968125 35.2559 
z
" style="fill:#c3e6c3;"/>
   </g>
   <g id="matplotlib.axis_1">
    <g id="xtick_1">
     <g id="text_1">
      <!-- 0 -->
      <defs>
       <path d="M 31.78125 66.40625 
Q 24.171875 66.40625 20.328125 58.90625 
Q 16.5 51.421875 16.5 36.375 
Q 16.5 21.390625 20.328125 13.890625 
Q 24.171875 6.390625 31.78125 6.390625 
Q 39.453125 6.390625 43.28125 13.890625 
Q 47.125 21.390625 47.125 36.375 
Q 47.125 51.421875 43.28125 58.90625 
Q 39.453125 66.40625 31.78125 66.40625 
z
M 31.78125 74.21875 
Q 44.046875 74.21875 50.515625 64.515625 
Q 56.984375 54.828125 56.984375 36.375 
Q 56.984375 17.96875 50.515625 8.265625 
Q 44.046875 -1.421875 31.78125 -1.421875 
Q 19.53125 -1.421875 13.0625 8.265625 
Q 6.59375 17.96875 6.59375 36.375 
Q 6.59375 54.828125 13.0625 64.515625 
Q 19.53125 74.21875 31.78125 74.21875 
z
" id="DejaVuSans-48"/>
      </defs>
      <g transform="translate(30.423125 366.30265)scale(0.08 -0.08)">
       <use xlink:href="#DejaVuSans-48"/>
      </g>
     </g>
    </g>
    <g id="xtick_2">
     <g id="text_2">
      <!-- 10 -->
      <defs>
       <path d="M 12.40625 8.296875 
L 28.515625 8.296875 
L 28.515625 63.921875 
L 10.984375 60.40625 
L 10.984375 69.390625 
L 28.421875 72.90625 
L 38.28125 72.90625 
L 38.28125 8.296875 
L 54.390625 8.296875 
L 54.390625 0 
L 12.40625 0 
z
" id="DejaVuSans-49"/>
      </defs>
      <g transform="translate(207.352891 366.30265)scale(0.08 -0.08)">
       <use xlink:href="#DejaVuSans-49"/>
       <use x="63.623047" xlink:href="#DejaVuSans-48"/>
      </g>
     </g>
    </g>
    <g id="xtick_3">
     <g id="text_3">
      <!-- 20 -->
      <defs>
       <path d="M 19.1875 8.296875 
L 53.609375 8.296875 
L 53.609375 0 
L 7.328125 0 
L 7.328125 8.296875 
Q 12.9375 14.109375 22.625 23.890625 
Q 32.328125 33.6875 34.8125 36.53125 
Q 39.546875 41.84375 41.421875 45.53125 
Q 43.3125 49.21875 43.3125 52.78125 
Q 43.3125 58.59375 39.234375 62.25 
Q 35.15625 65.921875 28.609375 65.921875 
Q 23.96875 65.921875 18.8125 64.3125 
Q 13.671875 62.703125 7.8125 59.421875 
L 7.8125 69.390625 
Q 13.765625 71.78125 18.9375 73 
Q 24.125 74.21875 28.421875 74.21875 
Q 39.75 74.21875 46.484375 68.546875 
Q 53.21875 62.890625 53.21875 53.421875 
Q 53.21875 48.921875 51.53125 44.890625 
Q 49.859375 40.875 45.40625 35.40625 
Q 44.1875 33.984375 37.640625 27.21875 
Q 31.109375 20.453125 19.1875 8.296875 
z
" id="DejaVuSans-50"/>
      </defs>
      <g transform="translate(386.827658 366.30265)scale(0.08 -0.08)">
       <use xlink:href="#DejaVuSans-50"/>
       <use x="63.623047" xlink:href="#DejaVuSans-48"/>
      </g>
     </g>
    </g>
    <g id="xtick_4">
     <g id="text_4">
      <!-- 30 -->
      <defs>
       <path d="M 40.578125 39.3125 
Q 47.65625 37.796875 51.625 33 
Q 55.609375 28.21875 55.609375 21.1875 
Q 55.609375 10.40625 48.1875 4.484375 
Q 40.765625 -1.421875 27.09375 -1.421875 
Q 22.515625 -1.421875 17.65625 -0.515625 
Q 12.796875 0.390625 7.625 2.203125 
L 7.625 11.71875 
Q 11.71875 9.328125 16.59375 8.109375 
Q 21.484375 6.890625 26.8125 6.890625 
Q 36.078125 6.890625 40.9375 10.546875 
Q 45.796875 14.203125 45.796875 21.1875 
Q 45.796875 27.640625 41.28125 31.265625 
Q 36.765625 34.90625 28.71875 34.90625 
L 20.21875 34.90625 
L 20.21875 43.015625 
L 29.109375 43.015625 
Q 36.375 43.015625 40.234375 45.921875 
Q 44.09375 48.828125 44.09375 54.296875 
Q 44.09375 59.90625 40.109375 62.90625 
Q 36.140625 65.921875 28.71875 65.921875 
Q 24.65625 65.921875 20.015625 65.03125 
Q 15.375 64.15625 9.8125 62.3125 
L 9.8125 71.09375 
Q 15.4375 72.65625 20.34375 73.4375 
Q 25.25 74.21875 29.59375 74.21875 
Q 40.828125 74.21875 47.359375 69.109375 
Q 53.90625 64.015625 53.90625 55.328125 
Q 53.90625 49.265625 50.4375 45.09375 
Q 46.96875 40.921875 40.578125 39.3125 
z
" id="DejaVuSans-51"/>
      </defs>
      <g transform="translate(566.302424 366.30265)scale(0.08 -0.08)">
       <use xlink:href="#DejaVuSans-51"/>
       <use x="63.623047" xlink:href="#DejaVuSans-48"/>
      </g>
     </g>
    </g>
    <g id="xtick_5">
     <g id="text_5">
      <!-- 40 -->
      <defs>
       <path d="M 37.796875 64.3125 
L 12.890625 25.390625 
L 37.796875 25.390625 
z
M 35.203125 72.90625 
L 47.609375 72.90625 
L 47.609375 25.390625 
L 58.015625 25.390625 
L 58.015625 17.1875 
L 47.609375 17.1875 
L 47.609375 0 
L 37.796875 0 
L 37.796875 17.1875 
L 4.890625 17.1875 
L 4.890625 26.703125 
z
" id="DejaVuSans-52"/>
      </defs>
      <g transform="translate(745.77719 366.30265)scale(0.08 -0.08)">
       <use xlink:href="#DejaVuSans-52"/>
       <use x="63.623047" xlink:href="#DejaVuSans-48"/>
      </g>
     </g>
    </g>
    <g id="xtick_6">
     <g id="text_6">
      <!-- 50 -->
      <defs>
       <path d="M 10.796875 72.90625 
L 49.515625 72.90625 
L 49.515625 64.59375 
L 19.828125 64.59375 
L 19.828125 46.734375 
Q 21.96875 47.46875 24.109375 47.828125 
Q 26.265625 48.1875 28.421875 48.1875 
Q 40.625 48.1875 47.75 41.5 
Q 54.890625 34.8125 54.890625 23.390625 
Q 54.890625 11.625 47.5625 5.09375 
Q 40.234375 -1.421875 26.90625 -1.421875 
Q 22.3125 -1.421875 17.546875 -0.640625 
Q 12.796875 0.140625 7.71875 1.703125 
L 7.71875 11.625 
Q 12.109375 9.234375 16.796875 8.0625 
Q 21.484375 6.890625 26.703125 6.890625 
Q 35.15625 6.890625 40.078125 11.328125 
Q 45.015625 15.765625 45.015625 23.390625 
Q 45.015625 31 40.078125 35.4375 
Q 35.15625 39.890625 26.703125 39.890625 
Q 22.75 39.890625 18.8125 39.015625 
Q 14.890625 38.140625 10.796875 36.28125 
z
" id="DejaVuSans-53"/>
      </defs>
      <g transform="translate(925.251957 366.30265)scale(0.08 -0.08)">
       <use xlink:href="#DejaVuSans-53"/>
       <use x="63.623047" xlink:href="#DejaVuSans-48"/>
      </g>
     </g>
    </g>
    <g id="text_7">
     <!-- Position in Read (bp) -->
     <defs>
      <path d="M 19.671875 64.796875 
L 19.671875 37.40625 
L 32.078125 37.40625 
Q 38.96875 37.40625 42.71875 40.96875 
Q 46.484375 44.53125 46.484375 51.125 
Q 46.484375 57.671875 42.71875 61.234375 
Q 38.96875 64.796875 32.078125 64.796875 
z
M 9.8125 72.90625 
L 32.078125 72.90625 
Q 44.34375 72.90625 50.609375 67.359375 
Q 56.890625 61.8125 56.890625 51.125 
Q 56.890625 40.328125 50.609375 34.8125 
Q 44.34375 29.296875 32.078125 29.296875 
L 19.671875 29.296875 
L 19.671875 0 
L 9.8125 0 
z
" id="DejaVuSans-80"/>
      <path d="M 30.609375 48.390625 
Q 23.390625 48.390625 19.1875 42.75 
Q 14.984375 37.109375 14.984375 27.296875 
Q 14.984375 17.484375 19.15625 11.84375 
Q 23.34375 6.203125 30.609375 6.203125 
Q 37.796875 6.203125 41.984375 11.859375 
Q 46.1875 17.53125 46.1875 27.296875 
Q 46.1875 37.015625 41.984375 42.703125 
Q 37.796875 48.390625 30.609375 48.390625 
z
M 30.609375 56 
Q 42.328125 56 49.015625 48.375 
Q 55.71875 40.765625 55.71875 27.296875 
Q 55.71875 13.875 49.015625 6.21875 
Q 42.328125 -1.421875 30.609375 -1.421875 
Q 18.84375 -1.421875 12.171875 6.21875 
Q 5.515625 13.875 5.515625 27.296875 
Q 5.515625 40.765625 12.171875 48.375 
Q 18.84375 56 30.609375 56 
z
" id="DejaVuSans-111"/>
      <path d="M 44.28125 53.078125 
L 44.28125 44.578125 
Q 40.484375 46.53125 36.375 47.5 
Q 32.28125 48.484375 27.875 48.484375 
Q 21.1875 48.484375 17.84375 46.4375 
Q 14.5 44.390625 14.5 40.28125 
Q 14.5 37.15625 16.890625 35.375 
Q 19.28125 33.59375 26.515625 31.984375 
L 29.59375 31.296875 
Q 39.15625 29.25 43.1875 25.515625 
Q 47.21875 21.78125 47.21875 15.09375 
Q 47.21875 7.46875 41.1875 3.015625 
Q 35.15625 -1.421875 24.609375 -1.421875 
Q 20.21875 -1.421875 15.453125 -0.5625 
Q 10.6875 0.296875 5.421875 2 
L 5.421875 11.28125 
Q 10.40625 8.6875 15.234375 7.390625 
Q 20.0625 6.109375 24.8125 6.109375 
Q 31.15625 6.109375 34.5625 8.28125 
Q 37.984375 10.453125 37.984375 14.40625 
Q 37.984375 18.0625 35.515625 20.015625 
Q 33.0625 21.96875 24.703125 23.78125 
L 21.578125 24.515625 
Q 13.234375 26.265625 9.515625 29.90625 
Q 5.8125 33.546875 5.8125 39.890625 
Q 5.8125 47.609375 11.28125 51.796875 
Q 16.75 56 26.8125 56 
Q 31.78125 56 36.171875 55.265625 
Q 40.578125 54.546875 44.28125 53.078125 
z
" id="DejaVuSans-115"/>
      <path d="M 9.421875 54.6875 
L 18.40625 54.6875 
L 18.40625 0 
L 9.421875 0 
z
M 9.421875 75.984375 
L 18.40625 75.984375 
L 18.40625 64.59375 
L 9.421875 64.59375 
z
" id="DejaVuSans-105"/>
      <path d="M 18.3125 70.21875 
L 18.3125 54.6875 
L 36.8125 54.6875 
L 36.8125 47.703125 
L 18.3125 47.703125 
L 18.3125 18.015625 
Q 18.3125 11.328125 20.140625 9.421875 
Q 21.96875 7.515625 27.59375 7.515625 
L 36.8125 7.515625 
L 36.8125 0 
L 27.59375 0 
Q 17.1875 0 13.234375 3.875 
Q 9.28125 7.765625 9.28125 18.015625 
L 9.28125 47.703125 
L 2.6875 47.703125 
L 2.6875 54.6875 
L 9.28125 54.6875 
L 9.28125 70.21875 
z
" id="DejaVuSans-116"/>
      <path d="M 54.890625 33.015625 
L 54.890625 0 
L 45.90625 0 
L 45.90625 32.71875 
Q 45.90625 40.484375 42.875 44.328125 
Q 39.84375 48.1875 33.796875 48.1875 
Q 26.515625 48.1875 22.3125 43.546875 
Q 18.109375 38.921875 18.109375 30.90625 
L 18.109375 0 
L 9.078125 0 
L 9.078125 54.6875 
L 18.109375 54.6875 
L 18.109375 46.1875 
Q 21.34375 51.125 25.703125 53.5625 
Q 30.078125 56 35.796875 56 
Q 45.21875 56 50.046875 50.171875 
Q 54.890625 44.34375 54.890625 33.015625 
z
" id="DejaVuSans-110"/>
      <path id="DejaVuSans-32"/>
      <path d="M 44.390625 34.1875 
Q 47.5625 33.109375 50.5625 29.59375 
Q 53.5625 26.078125 56.59375 19.921875 
L 66.609375 0 
L 56 0 
L 46.6875 18.703125 
Q 43.0625 26.03125 39.671875 28.421875 
Q 36.28125 30.8125 30.421875 30.8125 
L 19.671875 30.8125 
L 19.671875 0 
L 9.8125 0 
L 9.8125 72.90625 
L 32.078125 72.90625 
Q 44.578125 72.90625 50.734375 67.671875 
Q 56.890625 62.453125 56.890625 51.90625 
Q 56.890625 45.015625 53.6875 40.46875 
Q 50.484375 35.9375 44.390625 34.1875 
z
M 19.671875 64.796875 
L 19.671875 38.921875 
L 32.078125 38.921875 
Q 39.203125 38.921875 42.84375 42.21875 
Q 46.484375 45.515625 46.484375 51.90625 
Q 46.484375 58.296875 42.84375 61.546875 
Q 39.203125 64.796875 32.078125 64.796875 
z
" id="DejaVuSans-82"/>
      <path d="M 56.203125 29.59375 
L 56.203125 25.203125 
L 14.890625 25.203125 
Q 15.484375 15.921875 20.484375 11.0625 
Q 25.484375 6.203125 34.421875 6.203125 
Q 39.59375 6.203125 44.453125 7.46875 
Q 49.3125 8.734375 54.109375 11.28125 
L 54.109375 2.78125 
Q 49.265625 0.734375 44.1875 -0.34375 
Q 39.109375 -1.421875 33.890625 -1.421875 
Q 20.796875 -1.421875 13.15625 6.1875 
Q 5.515625 13.8125 5.515625 26.8125 
Q 5.515625 40.234375 12.765625 48.109375 
Q 20.015625 56 32.328125 56 
Q 43.359375 56 49.78125 48.890625 
Q 56.203125 41.796875 56.203125 29.59375 
z
M 47.21875 32.234375 
Q 47.125 39.59375 43.09375 43.984375 
Q 39.0625 48.390625 32.421875 48.390625 
Q 24.90625 48.390625 20.390625 44.140625 
Q 15.875 39.890625 15.1875 32.171875 
z
" id="DejaVuSans-101"/>
      <path d="M 34.28125 27.484375 
Q 23.390625 27.484375 19.1875 25 
Q 14.984375 22.515625 14.984375 16.5 
Q 14.984375 11.71875 18.140625 8.90625 
Q 21.296875 6.109375 26.703125 6.109375 
Q 34.1875 6.109375 38.703125 11.40625 
Q 43.21875 16.703125 43.21875 25.484375 
L 43.21875 27.484375 
z
M 52.203125 31.203125 
L 52.203125 0 
L 43.21875 0 
L 43.21875 8.296875 
Q 40.140625 3.328125 35.546875 0.953125 
Q 30.953125 -1.421875 24.3125 -1.421875 
Q 15.921875 -1.421875 10.953125 3.296875 
Q 6 8.015625 6 15.921875 
Q 6 25.140625 12.171875 29.828125 
Q 18.359375 34.515625 30.609375 34.515625 
L 43.21875 34.515625 
L 43.21875 35.40625 
Q 43.21875 41.609375 39.140625 45 
Q 35.0625 48.390625 27.6875 48.390625 
Q 23 48.390625 18.546875 47.265625 
Q 14.109375 46.140625 10.015625 43.890625 
L 10.015625 52.203125 
Q 14.9375 54.109375 19.578125 55.046875 
Q 24.21875 56 28.609375 56 
Q 40.484375 56 46.34375 49.84375 
Q 52.203125 43.703125 52.203125 31.203125 
z
" id="DejaVuSans-97"/>
      <path d="M 45.40625 46.390625 
L 45.40625 75.984375 
L 54.390625 75.984375 
L 54.390625 0 
L 45.40625 0 
L 45.40625 8.203125 
Q 42.578125 3.328125 38.25 0.953125 
Q 33.9375 -1.421875 27.875 -1.421875 
Q 17.96875 -1.421875 11.734375 6.484375 
Q 5.515625 14.40625 5.515625 27.296875 
Q 5.515625 40.1875 11.734375 48.09375 
Q 17.96875 56 27.875 56 
Q 33.9375 56 38.25 53.625 
Q 42.578125 51.265625 45.40625 46.390625 
z
M 14.796875 27.296875 
Q 14.796875 17.390625 18.875 11.75 
Q 22.953125 6.109375 30.078125 6.109375 
Q 37.203125 6.109375 41.296875 11.75 
Q 45.40625 17.390625 45.40625 27.296875 
Q 45.40625 37.203125 41.296875 42.84375 
Q 37.203125 48.484375 30.078125 48.484375 
Q 22.953125 48.484375 18.875 42.84375 
Q 14.796875 37.203125 14.796875 27.296875 
z
" id="DejaVuSans-100"/>
      <path d="M 31 75.875 
Q 24.46875 64.65625 21.28125 53.65625 
Q 18.109375 42.671875 18.109375 31.390625 
Q 18.109375 20.125 21.3125 9.0625 
Q 24.515625 -2 31 -13.1875 
L 23.1875 -13.1875 
Q 15.875 -1.703125 12.234375 9.375 
Q 8.59375 20.453125 8.59375 31.390625 
Q 8.59375 42.28125 12.203125 53.3125 
Q 15.828125 64.359375 23.1875 75.875 
z
" id="DejaVuSans-40"/>
      <path d="M 48.6875 27.296875 
Q 48.6875 37.203125 44.609375 42.84375 
Q 40.53125 48.484375 33.40625 48.484375 
Q 26.265625 48.484375 22.1875 42.84375 
Q 18.109375 37.203125 18.109375 27.296875 
Q 18.109375 17.390625 22.1875 11.75 
Q 26.265625 6.109375 33.40625 6.109375 
Q 40.53125 6.109375 44.609375 11.75 
Q 48.6875 17.390625 48.6875 27.296875 
z
M 18.109375 46.390625 
Q 20.953125 51.265625 25.265625 53.625 
Q 29.59375 56 35.59375 56 
Q 45.5625 56 51.78125 48.09375 
Q 58.015625 40.1875 58.015625 27.296875 
Q 58.015625 14.40625 51.78125 6.484375 
Q 45.5625 -1.421875 35.59375 -1.421875 
Q 29.59375 -1.421875 25.265625 0.953125 
Q 20.953125 3.328125 18.109375 8.203125 
L 18.109375 0 
L 9.078125 0 
L 9.078125 75.984375 
L 18.109375 75.984375 
z
" id="DejaVuSans-98"/>
      <path d="M 18.109375 8.203125 
L 18.109375 -20.796875 
L 9.078125 -20.796875 
L 9.078125 54.6875 
L 18.109375 54.6875 
L 18.109375 46.390625 
Q 20.953125 51.265625 25.265625 53.625 
Q 29.59375 56 35.59375 56 
Q 45.5625 56 51.78125 48.09375 
Q 58.015625 40.1875 58.015625 27.296875 
Q 58.015625 14.40625 51.78125 6.484375 
Q 45.5625 -1.421875 35.59375 -1.421875 
Q 29.59375 -1.421875 25.265625 0.953125 
Q 20.953125 3.328125 18.109375 8.203125 
z
M 48.6875 27.296875 
Q 48.6875 37.203125 44.609375 42.84375 
Q 40.53125 48.484375 33.40625 48.484375 
Q 26.265625 48.484375 22.1875 42.84375 
Q 18.109375 37.203125 18.109375 27.296875 
Q 18.109375 17.390625 22.1875 11.75 
Q 26.265625 6.109375 33.40625 6.109375 
Q 40.53125 6.109375 44.609375 11.75 
Q 48.6875 17.390625 48.6875 27.296875 
z
" id="DejaVuSans-112"/>
      <path d="M 8.015625 75.875 
L 15.828125 75.875 
Q 23.140625 64.359375 26.78125 53.3125 
Q 30.421875 42.28125 30.421875 31.390625 
Q 30.421875 20.453125 26.78125 9.375 
Q 23.140625 -1.703125 15.828125 -13.1875 
L 8.015625 -13.1875 
Q 14.5 -2 17.703125 9.0625 
Q 20.90625 20.125 20.90625 31.390625 
Q 20.90625 42.671875 17.703125 53.65625 
Q 14.5 64.65625 8.015625 75.875 
z
" id="DejaVuSans-41"/>
     </defs>
     <g transform="translate(461.059219 379.564837)scale(0.1 -0.1)">
      <use xlink:href="#DejaVuSans-80"/>
      <use x="60.255859" xlink:href="#DejaVuSans-111"/>
      <use x="121.4375" xlink:href="#DejaVuSans-115"/>
      <use x="173.537109" xlink:href="#DejaVuSans-105"/>
      <use x="201.320312" xlink:href="#DejaVuSans-116"/>
      <use x="240.529297" xlink:href="#DejaVuSans-105"/>
      <use x="268.3125" xlink:href="#DejaVuSans-111"/>
      <use x="329.494141" xlink:href="#DejaVuSans-110"/>
      <use x="392.873047" xlink:href="#DejaVuSans-32"/>
      <use x="424.660156" xlink:href="#DejaVuSans-105"/>
      <use x="452.443359" xlink:href="#DejaVuSans-110"/>
      <use x="515.822266" xlink:href="#DejaVuSans-32"/>
      <use x="547.609375" xlink:href="#DejaVuSans-82"/>
      <use x="617.029297" xlink:href="#DejaVuSans-101"/>
      <use x="678.552734" xlink:href="#DejaVuSans-97"/>
      <use x="739.832031" xlink:href="#DejaVuSans-100"/>
      <use x="803.308594" xlink:href="#DejaVuSans-32"/>
      <use x="835.095703" xlink:href="#DejaVuSans-40"/>
      <use x="874.109375" xlink:href="#DejaVuSans-98"/>
      <use x="937.585938" xlink:href="#DejaVuSans-112"/>
      <use x="1001.0625" xlink:href="#DejaVuSans-41"/>
     </g>
    </g>
   </g>
   <g id="matplotlib.axis_2">
    <g id="ytick_1">
     <g id="line2d_1">
      <path clip-path="url(#p9100194e33)" d="M 32.968125 353.2239 
L 993.158125 353.2239 
" style="fill:none;stroke:#dedede;stroke-linecap:square;"/>
     </g>
     <g id="text_8">
      <!-- 0 -->
      <g transform="translate(20.878125 356.263275)scale(0.08 -0.08)">
       <use xlink:href="#DejaVuSans-48"/>
      </g>
     </g>
    </g>
    <g id="ytick_2">
     <g id="line2d_2">
      <path clip-path="url(#p9100194e33)" d="M 32.968125 289.6303 
L 993.158125 289.6303 
" style="fill:none;stroke:#dedede;stroke-linecap:square;"/>
     </g>
     <g id="text_9">
      <!-- 1 -->
      <g transform="translate(20.878125 292.669675)scale(0.08 -0.08)">
       <use xlink:href="#DejaVuSans-49"/>
      </g>
     </g>
    </g>
    <g id="ytick_3">
     <g id="line2d_3">
      <path clip-path="url(#p9100194e33)" d="M 32.968125 226.0367 
L 993.158125 226.0367 
" style="fill:none;stroke:#dedede;stroke-linecap:square;"/>
     </g>
     <g id="text_10">
      <!-- 2 -->
      <g transform="translate(20.878125 229.076075)scale(0.08 -0.08)">
       <use xlink:href="#DejaVuSans-50"/>
      </g>
     </g>
    </g>
    <g id="ytick_4">
     <g id="line2d_4">
      <path clip-path="url(#p9100194e33)" d="M 32.968125 162.4431 
L 993.158125 162.4431 
" style="fill:none;stroke:#dedede;stroke-linecap:square;"/>
     </g>
     <g id="text_11">
      <!-- 3 -->
      <g transform="translate(20.878125 165.482475)scale(0.08 -0.08)">
       <use xlink:href="#DejaVuSans-51"/>
      </g>
     </g>
    </g>
    <g id="ytick_5">
     <g id="line2d_5">
      <path clip-path="url(#p9100194e33)" d="M 32.968125 98.8495 
L 993.158125 98.8495 
" style="fill:none;stroke:#dedede;stroke-linecap:square;"/>
     </g>
     <g id="text_12">
      <!-- 4 -->
      <g transform="translate(20.878125 101.888875)scale(0.08 -0.08)">
       <use xlink:href="#DejaVuSans-52"/>
      </g>
     </g>
    </g>
    <g id="ytick_6">
     <g id="line2d_6">
      <path clip-path="url(#p9100194e33)" d="M 32.968125 35.2559 
L 993.158125 35.2559 
" style="fill:none;stroke:#dedede;stroke-linecap:square;"/>
     </g>
     <g id="text_13">
      <!-- 5 -->
      <g transform="translate(20.878125 38.295275)scale(0.08 -0.08)">
       <use xlink:href="#DejaVuSans-53"/>
      </g>
     </g>
    </g>
    <g id="text_14">
     <!-- Percentage N-Count -->
     <defs>
      <path d="M 41.109375 46.296875 
Q 39.59375 47.171875 37.8125 47.578125 
Q 36.03125 48 33.890625 48 
Q 26.265625 48 22.1875 43.046875 
Q 18.109375 38.09375 18.109375 28.8125 
L 18.109375 0 
L 9.078125 0 
L 9.078125 54.6875 
L 18.109375 54.6875 
L 18.109375 46.1875 
Q 20.953125 51.171875 25.484375 53.578125 
Q 30.03125 56 36.53125 56 
Q 37.453125 56 38.578125 55.875 
Q 39.703125 55.765625 41.0625 55.515625 
z
" id="DejaVuSans-114"/>
      <path d="M 48.78125 52.59375 
L 48.78125 44.1875 
Q 44.96875 46.296875 41.140625 47.34375 
Q 37.3125 48.390625 33.40625 48.390625 
Q 24.65625 48.390625 19.8125 42.84375 
Q 14.984375 37.3125 14.984375 27.296875 
Q 14.984375 17.28125 19.8125 11.734375 
Q 24.65625 6.203125 33.40625 6.203125 
Q 37.3125 6.203125 41.140625 7.25 
Q 44.96875 8.296875 48.78125 10.40625 
L 48.78125 2.09375 
Q 45.015625 0.34375 40.984375 -0.53125 
Q 36.96875 -1.421875 32.421875 -1.421875 
Q 20.0625 -1.421875 12.78125 6.34375 
Q 5.515625 14.109375 5.515625 27.296875 
Q 5.515625 40.671875 12.859375 48.328125 
Q 20.21875 56 33.015625 56 
Q 37.15625 56 41.109375 55.140625 
Q 45.0625 54.296875 48.78125 52.59375 
z
" id="DejaVuSans-99"/>
      <path d="M 45.40625 27.984375 
Q 45.40625 37.75 41.375 43.109375 
Q 37.359375 48.484375 30.078125 48.484375 
Q 22.859375 48.484375 18.828125 43.109375 
Q 14.796875 37.75 14.796875 27.984375 
Q 14.796875 18.265625 18.828125 12.890625 
Q 22.859375 7.515625 30.078125 7.515625 
Q 37.359375 7.515625 41.375 12.890625 
Q 45.40625 18.265625 45.40625 27.984375 
z
M 54.390625 6.78125 
Q 54.390625 -7.171875 48.1875 -13.984375 
Q 42 -20.796875 29.203125 -20.796875 
Q 24.46875 -20.796875 20.265625 -20.09375 
Q 16.0625 -19.390625 12.109375 -17.921875 
L 12.109375 -9.1875 
Q 16.0625 -11.328125 19.921875 -12.34375 
Q 23.78125 -13.375 27.78125 -13.375 
Q 36.625 -13.375 41.015625 -8.765625 
Q 45.40625 -4.15625 45.40625 5.171875 
L 45.40625 9.625 
Q 42.625 4.78125 38.28125 2.390625 
Q 33.9375 0 27.875 0 
Q 17.828125 0 11.671875 7.65625 
Q 5.515625 15.328125 5.515625 27.984375 
Q 5.515625 40.671875 11.671875 48.328125 
Q 17.828125 56 27.875 56 
Q 33.9375 56 38.28125 53.609375 
Q 42.625 51.21875 45.40625 46.390625 
L 45.40625 54.6875 
L 54.390625 54.6875 
z
" id="DejaVuSans-103"/>
      <path d="M 9.8125 72.90625 
L 23.09375 72.90625 
L 55.421875 11.921875 
L 55.421875 72.90625 
L 64.984375 72.90625 
L 64.984375 0 
L 51.703125 0 
L 19.390625 60.984375 
L 19.390625 0 
L 9.8125 0 
z
" id="DejaVuSans-78"/>
      <path d="M 4.890625 31.390625 
L 31.203125 31.390625 
L 31.203125 23.390625 
L 4.890625 23.390625 
z
" id="DejaVuSans-45"/>
      <path d="M 64.40625 67.28125 
L 64.40625 56.890625 
Q 59.421875 61.53125 53.78125 63.8125 
Q 48.140625 66.109375 41.796875 66.109375 
Q 29.296875 66.109375 22.65625 58.46875 
Q 16.015625 50.828125 16.015625 36.375 
Q 16.015625 21.96875 22.65625 14.328125 
Q 29.296875 6.6875 41.796875 6.6875 
Q 48.140625 6.6875 53.78125 8.984375 
Q 59.421875 11.28125 64.40625 15.921875 
L 64.40625 5.609375 
Q 59.234375 2.09375 53.4375 0.328125 
Q 47.65625 -1.421875 41.21875 -1.421875 
Q 24.65625 -1.421875 15.125 8.703125 
Q 5.609375 18.84375 5.609375 36.375 
Q 5.609375 53.953125 15.125 64.078125 
Q 24.65625 74.21875 41.21875 74.21875 
Q 47.75 74.21875 53.53125 72.484375 
Q 59.328125 70.75 64.40625 67.28125 
z
" id="DejaVuSans-67"/>
      <path d="M 8.5 21.578125 
L 8.5 54.6875 
L 17.484375 54.6875 
L 17.484375 21.921875 
Q 17.484375 14.15625 20.5 10.265625 
Q 23.53125 6.390625 29.59375 6.390625 
Q 36.859375 6.390625 41.078125 11.03125 
Q 45.3125 15.671875 45.3125 23.6875 
L 45.3125 54.6875 
L 54.296875 54.6875 
L 54.296875 0 
L 45.3125 0 
L 45.3125 8.40625 
Q 42.046875 3.421875 37.71875 1 
Q 33.40625 -1.421875 27.6875 -1.421875 
Q 18.265625 -1.421875 13.375 4.4375 
Q 8.5 10.296875 8.5 21.578125 
z
M 31.109375 56 
z
" id="DejaVuSans-117"/>
     </defs>
     <g transform="translate(14.798438 244.634431)rotate(-90)scale(0.1 -0.1)">
      <use xlink:href="#DejaVuSans-80"/>
      <use x="60.255859" xlink:href="#DejaVuSans-101"/>
      <use x="121.779297" xlink:href="#DejaVuSans-114"/>
      <use x="162.861328" xlink:href="#DejaVuSans-99"/>
      <use x="217.841797" xlink:href="#DejaVuSans-101"/>
      <use x="279.365234" xlink:href="#DejaVuSans-110"/>
      <use x="342.744141" xlink:href="#DejaVuSans-116"/>
      <use x="381.953125" xlink:href="#DejaVuSans-97"/>
      <use x="443.232422" xlink:href="#DejaVuSans-103"/>
      <use x="506.708984" xlink:href="#DejaVuSans-101"/>
      <use x="568.232422" xlink:href="#DejaVuSans-32"/>
      <use x="600.019531" xlink:href="#DejaVuSans-78"/>
      <use x="674.824219" xlink:href="#DejaVuSans-45"/>
      <use x="710.908203" xlink:href="#DejaVuSans-67"/>
      <use x="780.732422" xlink:href="#DejaVuSans-111"/>
      <use x="841.914062" xlink:href="#DejaVuSans-117"/>
      <use x="905.292969" xlink:href="#DejaVuSans-110"/>
      <use x="968.671875" xlink:href="#DejaVuSans-116"/>
     </g>
    </g>
   </g>
   <g id="line2d_7">
    <path clip-path="url(#p9100194e33)" d="M 50.915602 352.826101 
L 68.863078 352.707384 
L 86.810555 353.078563 
L 104.758032 353.160785 
L 122.705508 353.221324 
L 140.652985 353.140819 
L 158.600461 353.2239 
L 176.547938 353.221324 
L 194.495415 353.104754 
L 212.442891 353.2239 
L 230.390368 353.2239 
L 248.337845 353.223685 
L 266.285321 353.2239 
L 284.232798 353.2239 
L 302.180275 353.221539 
L 320.127751 353.218748 
L 338.075228 353.2239 
L 356.022704 353.2239 
L 373.970181 353.223471 
L 391.917658 353.2239 
L 409.865134 353.2239 
L 427.812611 353.2239 
L 445.760088 353.2239 
L 463.707564 353.2239 
L 481.655041 353.2239 
L 499.602518 353.161626 
L 517.549994 353.2239 
L 535.497471 353.2239 
L 553.444947 353.2239 
L 571.392424 353.2239 
L 589.339901 353.2239 
L 607.287377 353.2239 
L 625.234854 353.223255 
L 643.182331 353.2239 
L 661.129807 353.223255 
L 679.077284 353.201116 
L 697.024761 353.172737 
L 714.972237 352.928278 
L 732.919714 353.157242 
L 750.86719 353.112501 
L 768.814667 353.22347 
L 786.762144 353.2239 
L 804.70962 353.2239 
L 822.657097 353.2239 
L 840.604574 353.130895 
L 858.55205 353.2239 
L 876.499527 353.009552 
L 894.447004 353.2239 
L 912.39448 353.180542 
L 930.341957 353.2239 
L 948.289433 353.2239 
" style="fill:none;stroke:#5cb85c;stroke-linecap:square;"/>
   </g>
   <g id="line2d_8">
    <path clip-path="url(#p9100194e33)" d="M 50.915602 352.832981 
L 68.863078 352.682595 
L 86.810555 353.084256 
L 104.758032 353.174193 
L 122.705508 353.221794 
L 140.652985 353.141546 
L 158.600461 353.223479 
L 176.547938 353.22053 
L 194.495415 353.117535 
L 212.442891 353.223479 
L 230.390368 353.2239 
L 248.337845 353.2239 
L 266.285321 353.2239 
L 284.232798 353.223058 
L 302.180275 353.221373 
L 320.127751 353.217581 
L 338.075228 353.2239 
L 356.022704 353.2239 
L 373.970181 353.223268 
L 391.917658 353.2239 
L 409.865134 353.2239 
L 427.812611 353.2239 
L 445.760088 353.2239 
L 463.707564 353.2239 
L 481.655041 353.2239 
L 499.602518 353.163435 
L 517.549994 353.2239 
L 535.497471 353.2239 
L 553.444947 353.2239 
L 571.392424 353.2239 
L 589.339901 353.2239 
L 607.287377 353.2239 
L 625.234854 353.223689 
L 643.182331 353.2239 
L 661.129807 353.223478 
L 679.077284 353.19775 
L 697.024761 353.165267 
L 714.972237 352.917201 
L 732.919714 353.152173 
L 750.86719 353.115239 
L 768.814667 353.223478 
L 786.762144 353.2239 
L 804.70962 353.2239 
L 822.657097 353.2239 
L 840.604574 353.129907 
L 858.55205 353.2239 
L 876.499527 352.987581 
L 894.447004 353.2239 
L 912.39448 353.183092 
L 930.341957 353.2239 
L 948.289433 353.2239 
" style="fill:none;stroke:#5cb85c;stroke-linecap:square;"/>
   </g>
   <g id="line2d_9">
    <path clip-path="url(#p9100194e33)" d="M 50.915602 352.85423 
L 68.863078 352.691459 
L 86.810555 353.08902 
L 104.758032 353.178732 
L 122.705508 353.221402 
L 140.652985 353.154379 
L 158.600461 353.2239 
L 176.547938 353.222443 
L 194.495415 353.112333 
L 212.442891 353.2239 
L 230.390368 353.2239 
L 248.337845 353.2239 
L 266.285321 353.2239 
L 284.232798 353.223692 
L 302.180275 353.222651 
L 320.127751 353.218072 
L 338.075228 353.2239 
L 356.022704 353.2239 
L 373.970181 353.2239 
L 391.917658 353.2239 
L 409.865134 353.2239 
L 427.812611 353.2239 
L 445.760088 353.2239 
L 463.707564 353.2239 
L 481.655041 353.2239 
L 499.602518 353.163105 
L 517.549994 353.2239 
L 535.497471 353.2239 
L 553.444947 353.2239 
L 571.392424 353.2239 
L 589.339901 353.2239 
L 607.287377 353.2239 
L 625.234854 353.223483 
L 643.182331 353.2239 
L 661.129807 353.2239 
L 679.077284 353.203893 
L 697.024761 353.168875 
L 714.972237 352.909554 
L 732.919714 353.153225 
L 750.86719 353.112556 
L 768.814667 353.2239 
L 786.762144 353.2239 
L 804.70962 353.2239 
L 822.657097 353.2239 
L 840.604574 353.13122 
L 858.55205 353.2239 
L 876.499527 352.95962 
L 894.447004 353.2239 
L 912.39448 353.1885 
L 930.341957 353.2239 
L 948.289433 353.2239 
" style="fill:none;stroke:#5cb85c;stroke-linecap:square;"/>
   </g>
   <g id="line2d_10">
    <path clip-path="url(#p9100194e33)" d="M 50.915602 352.853618 
L 68.863078 352.711701 
L 86.810555 353.085332 
L 104.758032 353.174083 
L 122.705508 353.222225 
L 140.652985 353.15043 
L 158.600461 353.2239 
L 176.547938 353.221179 
L 194.495415 353.112962 
L 212.442891 353.223691 
L 230.390368 353.2239 
L 248.337845 353.223481 
L 266.285321 353.2239 
L 284.232798 353.223272 
L 302.180275 353.220551 
L 320.127751 353.220342 
L 338.075228 353.2239 
L 356.022704 353.2239 
L 373.970181 353.223691 
L 391.917658 353.2239 
L 409.865134 353.2239 
L 427.812611 353.2239 
L 445.760088 353.2239 
L 463.707564 353.2239 
L 481.655041 353.2239 
L 499.602518 353.166113 
L 517.549994 353.2239 
L 535.497471 353.2239 
L 553.444947 353.2239 
L 571.392424 353.2239 
L 589.339901 353.2239 
L 607.287377 353.2239 
L 625.234854 353.223481 
L 643.182331 353.2239 
L 661.129807 353.222852 
L 679.077284 353.19875 
L 697.024761 353.165419 
L 714.972237 352.905467 
L 732.919714 353.148632 
L 750.86719 353.10857 
L 768.814667 353.222851 
L 786.762144 353.2239 
L 804.70962 353.2239 
L 822.657097 353.2239 
L 840.604574 353.125865 
L 858.55205 353.2239 
L 876.499527 352.985025 
L 894.447004 353.2239 
L 912.39448 353.184421 
L 930.341957 353.2239 
L 948.289433 353.2239 
" style="fill:none;stroke:#5cb85c;stroke-linecap:square;"/>
   </g>
   <g id="line2d_11">
    <path clip-path="url(#p9100194e33)" d="M 50.915602 351.700888 
L 68.863078 353.192783 
L 86.810555 352.991274 
L 104.758032 353.102222 
L 122.705508 353.221325 
L 140.652985 353.126686 
L 158.600461 353.209736 
L 176.547938 353.220681 
L 194.495415 353.2239 
L 212.442891 353.2239 
L 230.390368 353.2239 
L 248.337845 353.223685 
L 266.285321 353.2239 
L 284.232798 353.2239 
L 302.180275 353.2239 
L 320.127751 353.2239 
L 338.075228 353.223042 
L 356.022704 353.206303 
L 373.970181 353.217891 
L 391.917658 353.221325 
L 409.865134 306.701347 
L 427.812611 353.218749 
L 445.760088 353.223042 
L 463.707564 353.197071 
L 481.655041 353.223685 
L 499.602518 353.2239 
L 517.549994 353.2239 
L 535.497471 353.2239 
L 553.444947 322.882069 
L 571.392424 353.212733 
L 589.339901 353.2239 
L 607.287377 353.2239 
L 625.234854 353.2239 
L 643.182331 353.2239 
L 661.129807 353.203271 
L 679.077284 353.2239 
L 697.024761 353.196817 
L 714.972237 353.2239 
L 732.919714 353.22261 
L 750.86719 353.219384 
L 768.814667 353.2239 
L 786.762144 353.213788 
L 804.70962 353.175911 
L 822.657097 353.196994 
L 840.604574 353.188157 
L 858.55205 353.113393 
L 876.499527 353.202109 
L 894.447004 353.19008 
L 912.39448 353.206186 
L 930.341957 353.2239 
L 948.289433 353.2239 
" style="fill:none;stroke:#5cb85c;stroke-linecap:square;"/>
   </g>
   <g id="line2d_12">
    <path clip-path="url(#p9100194e33)" d="M 50.915602 351.724737 
L 68.863078 353.185273 
L 86.810555 352.993463 
L 104.758032 353.100956 
L 122.705508 353.221031 
L 140.652985 353.097204 
L 158.600461 353.209111 
L 176.547938 353.221693 
L 194.495415 353.2239 
L 212.442891 353.2239 
L 230.390368 353.2239 
L 248.337845 353.223017 
L 266.285321 353.2239 
L 284.232798 353.223017 
L 302.180275 353.2239 
L 320.127751 353.2239 
L 338.075228 353.222134 
L 356.022704 353.203814 
L 373.970181 353.213305 
L 391.917658 353.221251 
L 409.865134 308.763296 
L 427.812611 353.217057 
L 445.760088 353.222355 
L 463.707564 353.202708 
L 481.655041 353.223679 
L 499.602518 353.2239 
L 517.549994 353.2239 
L 535.497471 353.2239 
L 553.444947 324.343145 
L 571.392424 353.212634 
L 589.339901 353.2239 
L 607.287377 353.2239 
L 625.234854 353.2239 
L 643.182331 353.2239 
L 661.129807 353.205334 
L 679.077284 353.2239 
L 697.024761 353.198697 
L 714.972237 353.2239 
L 732.919714 353.219035 
L 750.86719 353.219919 
L 768.814667 353.2239 
L 786.762144 353.210844 
L 804.70962 353.168123 
L 822.657097 353.199547 
L 840.604574 353.191567 
L 858.55205 353.112459 
L 876.499527 353.200381 
L 894.447004 353.196478 
L 912.39448 353.202935 
L 930.341957 353.2239 
L 948.289433 353.2239 
" style="fill:none;stroke:#5cb85c;stroke-linecap:square;"/>
   </g>
   <g id="line2d_13">
    <path clip-path="url(#p9100194e33)" d="M 50.915602 351.760724 
L 68.863078 353.183082 
L 86.810555 352.986552 
L 104.758032 353.090216 
L 122.705508 353.218933 
L 140.652985 353.094536 
L 158.600461 353.219365 
L 176.547938 353.223252 
L 194.495415 353.2239 
L 212.442891 353.2239 
L 230.390368 353.2239 
L 248.337845 353.223468 
L 266.285321 353.2239 
L 284.232798 353.223468 
L 302.180275 353.2239 
L 320.127751 353.2239 
L 338.075228 353.223684 
L 356.022704 353.205759 
L 373.970181 353.215045 
L 391.917658 353.221308 
L 409.865134 309.518216 
L 427.812611 353.218069 
L 445.760088 353.223036 
L 463.707564 353.2023 
L 481.655041 353.2239 
L 499.602518 353.2239 
L 517.549994 353.2239 
L 535.497471 353.2239 
L 553.444947 324.967333 
L 571.392424 353.222387 
L 589.339901 353.2239 
L 607.287377 353.2239 
L 625.234854 353.2239 
L 643.182331 353.2239 
L 661.129807 353.201191 
L 679.077284 353.2239 
L 697.024761 353.199887 
L 714.972237 353.2239 
L 732.919714 353.223684 
L 750.86719 353.217406 
L 768.814667 353.2239 
L 786.762144 353.214588 
L 804.70962 353.176463 
L 822.657097 353.198767 
L 840.604574 353.189655 
L 858.55205 353.120468 
L 876.499527 353.207395 
L 894.447004 353.19248 
L 912.39448 353.198044 
L 930.341957 353.2239 
L 948.289433 353.2239 
" style="fill:none;stroke:#5cb85c;stroke-linecap:square;"/>
   </g>
   <g id="line2d_14">
    <path clip-path="url(#p9100194e33)" d="M 50.915602 351.743162 
L 68.863078 353.198331 
L 86.810555 352.99918 
L 104.758032 353.101666 
L 122.705508 353.221613 
L 140.652985 353.137837 
L 158.600461 353.216001 
L 176.547938 353.222445 
L 194.495415 353.2239 
L 212.442891 353.2239 
L 230.390368 353.2239 
L 248.337845 353.223692 
L 266.285321 353.2239 
L 284.232798 353.223484 
L 302.180275 353.2239 
L 320.127751 353.2239 
L 338.075228 353.222861 
L 356.022704 353.208517 
L 373.970181 353.214753 
L 391.917658 353.220158 
L 409.865134 305.226443 
L 427.812611 353.218911 
L 445.760088 353.221197 
L 463.707564 353.198534 
L 481.655041 353.2239 
L 499.602518 353.2239 
L 517.549994 353.2239 
L 535.497471 353.2239 
L 553.444947 322.280801 
L 571.392424 353.215162 
L 589.339901 353.2239 
L 607.287377 353.2239 
L 625.234854 353.2239 
L 643.182331 353.2239 
L 661.129807 353.20787 
L 679.077284 353.2239 
L 697.024761 353.199951 
L 714.972237 353.2239 
L 732.919714 353.222858 
L 750.86719 353.218483 
L 768.814667 353.2239 
L 786.762144 353.212435 
L 804.70962 353.1676 
L 822.657097 353.196576 
L 840.604574 353.190933 
L 858.55205 353.117436 
L 876.499527 353.202991 
L 894.447004 353.192389 
L 912.39448 353.208664 
L 930.341957 353.2239 
L 948.289433 353.2239 
" style="fill:none;stroke:#5cb85c;stroke-linecap:square;"/>
   </g>
   <g id="line2d_15">
    <path clip-path="url(#p9100194e33)" d="M 50.915602 351.775929 
L 68.863078 353.180233 
L 86.810555 352.9695 
L 104.758032 353.089205 
L 122.705508 353.220207 
L 140.652985 353.09355 
L 158.600461 353.218686 
L 176.547938 353.223248 
L 194.495415 353.2239 
L 212.442891 353.2239 
L 230.390368 353.2239 
L 248.337845 353.2239 
L 266.285321 353.2239 
L 284.232798 353.223683 
L 302.180275 353.2239 
L 320.127751 353.2239 
L 338.075228 353.223466 
L 356.022704 353.207824 
L 373.970181 353.214776 
L 391.917658 353.219555 
L 409.865134 309.305084 
L 427.812611 353.219772 
L 445.760088 353.222814 
L 463.707564 353.200651 
L 481.655041 353.2239 
L 499.602518 353.2239 
L 517.549994 353.2239 
L 535.497471 353.2239 
L 553.444947 324.736198 
L 571.392424 353.222595 
L 589.339901 353.2239 
L 607.287377 353.2239 
L 625.234854 353.2239 
L 643.182331 353.2239 
L 661.129807 353.209106 
L 679.077284 353.2239 
L 697.024761 353.198874 
L 714.972237 353.2239 
L 732.919714 353.2239 
L 750.86719 353.220852 
L 768.814667 353.2239 
L 786.762144 353.214751 
L 804.70962 353.180977 
L 822.657097 353.204067 
L 840.604574 353.187274 
L 858.55205 353.119642 
L 876.499527 353.20271 
L 894.447004 353.191634 
L 912.39448 353.204835 
L 930.341957 353.2239 
L 948.289433 353.2239 
" style="fill:none;stroke:#5cb85c;stroke-linecap:square;"/>
   </g>
   <g id="line2d_16">
    <path clip-path="url(#p9100194e33)" d="M 50.915602 351.75055 
L 68.863078 353.18839 
L 86.810555 352.98695 
L 104.758032 353.099722 
L 122.705508 353.219165 
L 140.652985 353.113496 
L 158.600461 353.217228 
L 176.547938 353.221963 
L 194.495415 353.2239 
L 212.442891 353.2239 
L 230.390368 353.2239 
L 248.337845 353.223254 
L 266.285321 353.2239 
L 284.232798 353.222824 
L 302.180275 353.2239 
L 320.127751 353.2239 
L 338.075228 353.223685 
L 356.022704 353.204316 
L 373.970181 353.215076 
L 391.917658 353.220672 
L 409.865134 308.395543 
L 427.812611 353.217874 
L 445.760088 353.222824 
L 463.707564 353.195272 
L 481.655041 353.223685 
L 499.602518 353.2239 
L 517.549994 353.2239 
L 535.497471 353.2239 
L 553.444947 324.213181 
L 571.392424 353.214854 
L 589.339901 353.2239 
L 607.287377 353.2239 
L 625.234854 353.2239 
L 643.182331 353.2239 
L 661.129807 353.206658 
L 679.077284 353.2239 
L 697.024761 353.199107 
L 714.972237 353.2239 
L 732.919714 353.223469 
L 750.86719 353.218076 
L 768.814667 353.2239 
L 786.762144 353.214836 
L 804.70962 353.175978 
L 822.657097 353.201444 
L 840.604574 353.189339 
L 858.55205 353.126221 
L 876.499527 353.200524 
L 894.447004 353.190845 
L 912.39448 353.205683 
L 930.341957 353.2239 
L 948.289433 353.2239 
" style="fill:none;stroke:#5cb85c;stroke-linecap:square;"/>
   </g>
   <g id="line2d_17">
    <path clip-path="url(#p9100194e33)" d="M 50.915602 352.827879 
L 68.863078 352.697341 
L 86.810555 353.089584 
L 104.758032 353.177099 
L 122.705508 353.221801 
L 140.652985 353.148138 
L 158.600461 353.223061 
L 176.547938 353.220752 
L 194.495415 353.109102 
L 212.442891 353.22369 
L 230.390368 353.2239 
L 248.337845 353.2239 
L 266.285321 353.2239 
L 284.232798 353.22369 
L 302.180275 353.221591 
L 320.127751 353.220332 
L 338.075228 353.2239 
L 356.022704 353.2239 
L 373.970181 353.22348 
L 391.917658 353.2239 
L 409.865134 353.2239 
L 427.812611 353.2239 
L 445.760088 353.2239 
L 463.707564 353.22369 
L 481.655041 353.2239 
L 499.602518 353.163862 
L 517.549994 353.2239 
L 535.497471 353.2239 
L 553.444947 353.2239 
L 571.392424 353.2239 
L 589.339901 353.2239 
L 607.287377 353.2239 
L 625.234854 353.22327 
L 643.182331 353.2239 
L 661.129807 353.222429 
L 679.077284 353.200155 
L 697.024761 353.166316 
L 714.972237 352.901263 
L 732.919714 353.153268 
L 750.86719 353.111208 
L 768.814667 353.222218 
L 786.762144 353.2239 
L 804.70962 353.2239 
L 822.657097 353.2239 
L 840.604574 353.121179 
L 858.55205 353.2239 
L 876.499527 352.98226 
L 894.447004 353.2239 
L 912.39448 353.187336 
L 930.341957 353.2239 
L 948.289433 353.2239 
" style="fill:none;stroke:#5cb85c;stroke-linecap:square;"/>
   </g>
   <g id="line2d_18">
    <path clip-path="url(#p9100194e33)" d="M 50.915602 351.67139 
L 68.863078 353.195957 
L 86.810555 352.999104 
L 104.758032 353.103995 
L 122.705508 353.222232 
L 140.652985 353.140279 
L 158.600461 353.219312 
L 176.547938 353.223066 
L 194.495415 353.223691 
L 212.442891 353.2239 
L 230.390368 353.2239 
L 248.337845 353.223691 
L 266.285321 353.2239 
L 284.232798 353.223274 
L 302.180275 353.2239 
L 320.127751 353.2239 
L 338.075228 353.222857 
L 356.022704 353.200753 
L 373.970181 353.213891 
L 391.917658 353.221189 
L 409.865134 305.145216 
L 427.812611 353.218061 
L 445.760088 353.222232 
L 463.707564 353.19491 
L 481.655041 353.2239 
L 499.602518 353.2239 
L 517.549994 353.2239 
L 535.497471 353.2239 
L 553.444947 321.911392 
L 571.392424 353.213257 
L 589.339901 353.2239 
L 607.287377 353.2239 
L 625.234854 353.2239 
L 643.182331 353.2239 
L 661.129807 353.203019 
L 679.077284 353.2239 
L 697.024761 353.199463 
L 714.972237 353.2239 
L 732.919714 353.223273 
L 750.86719 353.219721 
L 768.814667 353.2239 
L 786.762144 353.215746 
L 804.70962 353.172038 
L 822.657097 353.201518 
L 840.604574 353.19042 
L 858.55205 353.107502 
L 876.499527 353.203985 
L 894.447004 353.192923 
L 912.39448 353.206037 
L 930.341957 353.2239 
L 948.289433 353.2239 
" style="fill:none;stroke:#5cb85c;stroke-linecap:square;"/>
   </g>
   <g id="line2d_19">
    <path clip-path="url(#p9100194e33)" d="M 50.915602 352.805696 
L 68.863078 352.697146 
L 86.810555 353.064808 
L 104.758032 353.168239 
L 122.705508 353.221341 
L 140.652985 353.130492 
L 158.600461 353.223687 
L 176.547938 353.221767 
L 194.495415 353.116843 
L 212.442891 353.2239 
L 230.390368 353.2239 
L 248.337845 353.223473 
L 266.285321 353.2239 
L 284.232798 353.223473 
L 302.180275 353.221554 
L 320.127751 353.217929 
L 338.075228 353.2239 
L 356.022704 353.2239 
L 373.970181 353.2239 
L 391.917658 353.2239 
L 409.865134 353.2239 
L 427.812611 353.2239 
L 445.760088 353.2239 
L 463.707564 353.2239 
L 481.655041 353.2239 
L 499.602518 353.173769 
L 517.549994 353.2239 
L 535.497471 353.2239 
L 553.444947 353.2239 
L 571.392424 353.2239 
L 589.339901 353.2239 
L 607.287377 353.2239 
L 625.234854 353.22326 
L 643.182331 353.2239 
L 661.129807 353.223686 
L 679.077284 353.202972 
L 697.024761 353.171146 
L 714.972237 352.936599 
L 732.919714 353.160664 
L 750.86719 353.113647 
L 768.814667 353.223686 
L 786.762144 353.2239 
L 804.70962 353.2239 
L 822.657097 353.2239 
L 840.604574 353.141545 
L 858.55205 353.2239 
L 876.499527 352.991347 
L 894.447004 353.2239 
L 912.39448 353.188935 
L 930.341957 353.2239 
L 948.289433 353.2239 
" style="fill:none;stroke:#5cb85c;stroke-linecap:square;"/>
   </g>
   <g id="line2d_20">
    <path clip-path="url(#p9100194e33)" d="M 50.915602 351.699442 
L 68.863078 353.201616 
L 86.810555 352.99294 
L 104.758032 353.111023 
L 122.705508 353.221193 
L 140.652985 353.141846 
L 158.600461 353.219943 
L 176.547938 353.223275 
L 194.495415 353.223483 
L 212.442891 353.2239 
L 230.390368 353.2239 
L 248.337845 353.2239 
L 266.285321 353.2239 
L 284.232798 353.223483 
L 302.180275 353.2239 
L 320.127751 353.2239 
L 338.075228 353.223275 
L 356.022704 353.200367 
L 373.970181 353.215153 
L 391.917658 353.219943 
L 409.865134 305.063651 
L 427.812611 353.218277 
L 445.760088 353.222234 
L 463.707564 353.195781 
L 481.655041 353.2239 
L 499.602518 353.2239 
L 517.549994 353.2239 
L 535.497471 353.2239 
L 553.444947 321.901449 
L 571.392424 353.220565 
L 589.339901 353.2239 
L 607.287377 353.2239 
L 625.234854 353.2239 
L 643.182331 353.2239 
L 661.129807 353.200336 
L 679.077284 353.2239 
L 697.024761 353.199286 
L 714.972237 353.2239 
L 732.919714 353.2239 
L 750.86719 353.218057 
L 768.814667 353.2239 
L 786.762144 353.214087 
L 804.70962 353.171897 
L 822.657097 353.198204 
L 840.604574 353.192344 
L 858.55205 353.117897 
L 876.499527 353.203382 
L 894.447004 353.194227 
L 912.39448 353.20886 
L 930.341957 353.2239 
L 948.289433 353.2239 
" style="fill:none;stroke:#5cb85c;stroke-linecap:square;"/>
   </g>
   <g id="line2d_21">
    <path clip-path="url(#p9100194e33)" d="M 50.915602 352.835354 
L 68.863078 352.700833 
L 86.810555 353.062346 
L 104.758032 353.160179 
L 122.705508 353.220896 
L 140.652985 353.135506 
L 158.600461 353.223685 
L 176.547938 353.222184 
L 194.495415 353.125423 
L 212.442891 353.223685 
L 230.390368 353.2239 
L 248.337845 353.223685 
L 266.285321 353.2239 
L 284.232798 353.223685 
L 302.180275 353.221969 
L 320.127751 353.219395 
L 338.075228 353.2239 
L 356.022704 353.2239 
L 373.970181 353.223685 
L 391.917658 353.2239 
L 409.865134 353.2239 
L 427.812611 353.2239 
L 445.760088 353.2239 
L 463.707564 353.2239 
L 481.655041 353.2239 
L 499.602518 353.172608 
L 517.549994 353.2239 
L 535.497471 353.2239 
L 553.444947 353.2239 
L 571.392424 353.2239 
L 589.339901 353.2239 
L 607.287377 353.2239 
L 625.234854 353.2239 
L 643.182331 353.2239 
L 661.129807 353.2239 
L 679.077284 353.203276 
L 697.024761 353.173837 
L 714.972237 352.936373 
L 732.919714 353.160498 
L 750.86719 353.122226 
L 768.814667 353.2239 
L 786.762144 353.2239 
L 804.70962 353.2239 
L 822.657097 353.2239 
L 840.604574 353.136744 
L 858.55205 353.2239 
L 876.499527 352.984989 
L 894.447004 353.2239 
L 912.39448 353.187848 
L 930.341957 353.2239 
L 948.289433 353.2239 
" style="fill:none;stroke:#5cb85c;stroke-linecap:square;"/>
   </g>
   <g id="line2d_22">
    <path clip-path="url(#p9100194e33)" d="M 50.915602 351.702665 
L 68.863078 353.203127 
L 86.810555 352.999387 
L 104.758032 353.110804 
L 122.705508 353.221382 
L 140.652985 353.153818 
L 158.600461 353.220753 
L 176.547938 353.221592 
L 194.495415 353.2239 
L 212.442891 353.2239 
L 230.390368 353.2239 
L 248.337845 353.2239 
L 266.285321 353.2239 
L 284.232798 353.223271 
L 302.180275 353.2239 
L 320.127751 353.2239 
L 338.075228 353.223061 
L 356.022704 353.202288 
L 373.970181 353.213199 
L 391.917658 353.222431 
L 409.865134 303.989384 
L 427.812611 353.215507 
L 445.760088 353.222641 
L 463.707564 353.190953 
L 481.655041 353.2239 
L 499.602518 353.22369 
L 517.549994 353.2239 
L 535.497471 353.2239 
L 553.444947 321.16481 
L 571.392424 353.211932 
L 589.339901 353.2239 
L 607.287377 353.2239 
L 625.234854 353.2239 
L 643.182331 353.2239 
L 661.129807 353.205832 
L 679.077284 353.2239 
L 697.024761 353.191537 
L 714.972237 353.2239 
L 732.919714 353.223269 
L 750.86719 353.218433 
L 768.814667 353.2239 
L 786.762144 353.214645 
L 804.70962 353.172983 
L 822.657097 353.199908 
L 840.604574 353.18032 
L 858.55205 353.100682 
L 876.499527 353.200066 
L 894.447004 353.187858 
L 912.39448 353.210045 
L 930.341957 353.2239 
L 948.289433 353.2239 
" style="fill:none;stroke:#5cb85c;stroke-linecap:square;"/>
   </g>
   <g id="line2d_23">
    <path clip-path="url(#p9100194e33)" d="M 50.915602 352.813629 
L 68.863078 352.734588 
L 86.810555 353.057302 
L 104.758032 353.159051 
L 122.705508 353.22128 
L 140.652985 353.116692 
L 158.600461 353.2239 
L 176.547938 353.221062 
L 194.495415 353.122151 
L 212.442891 353.223682 
L 230.390368 353.2239 
L 248.337845 353.223027 
L 266.285321 353.2239 
L 284.232798 353.223463 
L 302.180275 353.221717 
L 320.127751 353.21997 
L 338.075228 353.2239 
L 356.022704 353.2239 
L 373.970181 353.2239 
L 391.917658 353.2239 
L 409.865134 353.2239 
L 427.812611 353.2239 
L 445.760088 353.2239 
L 463.707564 353.2239 
L 481.655041 353.2239 
L 499.602518 353.171481 
L 517.549994 353.2239 
L 535.497471 353.2239 
L 553.444947 353.2239 
L 571.392424 353.2239 
L 589.339901 353.2239 
L 607.287377 353.2239 
L 625.234854 353.223463 
L 643.182331 353.2239 
L 661.129807 353.223681 
L 679.077284 353.205315 
L 697.024761 353.17929 
L 714.972237 352.941548 
L 732.919714 353.166591 
L 750.86719 353.121734 
L 768.814667 353.223681 
L 786.762144 353.2239 
L 804.70962 353.2239 
L 822.657097 353.2239 
L 840.604574 353.14308 
L 858.55205 353.2239 
L 876.499527 353.008615 
L 894.447004 353.2239 
L 912.39448 353.184722 
L 930.341957 353.2239 
L 948.289433 353.2239 
" style="fill:none;stroke:#5cb85c;stroke-linecap:square;"/>
   </g>
   <g id="line2d_24">
    <path clip-path="url(#p9100194e33)" d="M 32.968125 353.2239 
L 993.158125 353.2239 
" style="fill:none;stroke:#dedede;stroke-linecap:square;stroke-width:2;"/>
   </g>
   <g id="text_15">
    <!-- FastQC: Per Base N Content -->
    <defs>
     <path d="M 9.8125 72.90625 
L 51.703125 72.90625 
L 51.703125 64.59375 
L 19.671875 64.59375 
L 19.671875 43.109375 
L 48.578125 43.109375 
L 48.578125 34.8125 
L 19.671875 34.8125 
L 19.671875 0 
L 9.8125 0 
z
" id="DejaVuSans-70"/>
     <path d="M 39.40625 66.21875 
Q 28.65625 66.21875 22.328125 58.203125 
Q 16.015625 50.203125 16.015625 36.375 
Q 16.015625 22.609375 22.328125 14.59375 
Q 28.65625 6.59375 39.40625 6.59375 
Q 50.140625 6.59375 56.421875 14.59375 
Q 62.703125 22.609375 62.703125 36.375 
Q 62.703125 50.203125 56.421875 58.203125 
Q 50.140625 66.21875 39.40625 66.21875 
z
M 53.21875 1.3125 
L 66.21875 -12.890625 
L 54.296875 -12.890625 
L 43.5 -1.21875 
Q 41.890625 -1.3125 41.03125 -1.359375 
Q 40.1875 -1.421875 39.40625 -1.421875 
Q 24.03125 -1.421875 14.8125 8.859375 
Q 5.609375 19.140625 5.609375 36.375 
Q 5.609375 53.65625 14.8125 63.9375 
Q 24.03125 74.21875 39.40625 74.21875 
Q 54.734375 74.21875 63.90625 63.9375 
Q 73.09375 53.65625 73.09375 36.375 
Q 73.09375 23.6875 67.984375 14.640625 
Q 62.890625 5.609375 53.21875 1.3125 
z
" id="DejaVuSans-81"/>
     <path d="M 11.71875 12.40625 
L 22.015625 12.40625 
L 22.015625 0 
L 11.71875 0 
z
M 11.71875 51.703125 
L 22.015625 51.703125 
L 22.015625 39.3125 
L 11.71875 39.3125 
z
" id="DejaVuSans-58"/>
     <path d="M 19.671875 34.8125 
L 19.671875 8.109375 
L 35.5 8.109375 
Q 43.453125 8.109375 47.28125 11.40625 
Q 51.125 14.703125 51.125 21.484375 
Q 51.125 28.328125 47.28125 31.5625 
Q 43.453125 34.8125 35.5 34.8125 
z
M 19.671875 64.796875 
L 19.671875 42.828125 
L 34.28125 42.828125 
Q 41.5 42.828125 45.03125 45.53125 
Q 48.578125 48.25 48.578125 53.8125 
Q 48.578125 59.328125 45.03125 62.0625 
Q 41.5 64.796875 34.28125 64.796875 
z
M 9.8125 72.90625 
L 35.015625 72.90625 
Q 46.296875 72.90625 52.390625 68.21875 
Q 58.5 63.53125 58.5 54.890625 
Q 58.5 48.1875 55.375 44.234375 
Q 52.25 40.28125 46.1875 39.3125 
Q 53.46875 37.75 57.5 32.78125 
Q 61.53125 27.828125 61.53125 20.40625 
Q 61.53125 10.640625 54.890625 5.3125 
Q 48.25 0 35.984375 0 
L 9.8125 0 
z
" id="DejaVuSans-66"/>
    </defs>
    <g transform="translate(401.204375 19.3575)scale(0.16 -0.16)">
     <use xlink:href="#DejaVuSans-70"/>
     <use x="57.378906" xlink:href="#DejaVuSans-97"/>
     <use x="118.658203" xlink:href="#DejaVuSans-115"/>
     <use x="170.757812" xlink:href="#DejaVuSans-116"/>
     <use x="209.966797" xlink:href="#DejaVuSans-81"/>
     <use x="288.677734" xlink:href="#DejaVuSans-67"/>
     <use x="358.501953" xlink:href="#DejaVuSans-58"/>
     <use x="392.193359" xlink:href="#DejaVuSans-32"/>
     <use x="423.980469" xlink:href="#DejaVuSans-80"/>
     <use x="484.236328" xlink:href="#DejaVuSans-101"/>
     <use x="545.759766" xlink:href="#DejaVuSans-114"/>
     <use x="586.873047" xlink:href="#DejaVuSans-32"/>
     <use x="618.660156" xlink:href="#DejaVuSans-66"/>
     <use x="687.263672" xlink:href="#DejaVuSans-97"/>
     <use x="748.542969" xlink:href="#DejaVuSans-115"/>
     <use x="800.642578" xlink:href="#DejaVuSans-101"/>
     <use x="862.166016" xlink:href="#DejaVuSans-32"/>
     <use x="893.953125" xlink:href="#DejaVuSans-78"/>
     <use x="968.757812" xlink:href="#DejaVuSans-32"/>
     <use x="1000.544922" xlink:href="#DejaVuSans-67"/>
     <use x="1070.369141" xlink:href="#DejaVuSans-111"/>
     <use x="1131.550781" xlink:href="#DejaVuSans-110"/>
     <use x="1194.929688" xlink:href="#DejaVuSans-116"/>
     <use x="1234.138672" xlink:href="#DejaVuSans-101"/>
     <use x="1295.662109" xlink:href="#DejaVuSans-110"/>
     <use x="1359.041016" xlink:href="#DejaVuSans-116"/>
    </g>
   </g>
  </g>
 </g>
 <defs>
  <clipPath id="p9100194e33">
   <rect height="317.968" width="960.19" x="32.968125" y="35.2559"/>
  </clipPath>
 </defs>
</svg>
