<?xml version="1.0" encoding="utf-8" standalone="no"?>
<!DOCTYPE svg PUBLIC "-//W3C//DTD SVG 1.1//EN"
  "http://www.w3.org/Graphics/SVG/1.1/DTD/svg11.dtd">
<!-- Created with matplotlib (https://matplotlib.org/) -->
<svg height="388.844525pt" version="1.1" viewBox="0 0 1000.318125 388.844525" width="1000.318125pt" xmlns="http://www.w3.org/2000/svg" xmlns:xlink="http://www.w3.org/1999/xlink">
 <defs>
  <style type="text/css">
*{stroke-linecap:butt;stroke-linejoin:round;}
  </style>
 </defs>
 <g id="figure_1">
  <g id="axes_1">
   <g id="patch_1">
    <path d="M 38.058125 353.2239 
L 993.118125 353.2239 
L 993.118125 35.2559 
L 38.058125 35.2559 
z
" style="fill:#ffffff;"/>
   </g>
   <g id="patch_2">
    <path clip-path="url(#pf6ae635332)" d="M 38.058125 130.758987 
L 967.071034 130.758987 
L 967.071034 -441.293646 
L 38.058125 -441.293646 
z
" style="fill:#c3e6c3;"/>
   </g>
   <g id="patch_3">
    <path clip-path="url(#pf6ae635332)" d="M 38.058125 194.320391 
L 967.071034 194.320391 
L 967.071034 130.758987 
L 38.058125 130.758987 
z
" style="fill:#e6dcc3;"/>
   </g>
   <g id="patch_4">
    <path clip-path="url(#pf6ae635332)" d="M 38.058125 353.2239 
L 967.071034 353.2239 
L 967.071034 194.320391 
L 38.058125 194.320391 
z
" style="fill:#e6c3c3;"/>
   </g>
   <g id="matplotlib.axis_1">
    <g id="xtick_1">
     <g id="text_1">
      <!-- 0 -->
      <defs>
       <path d="M 31.78125 66.40625 
Q 24.171875 66.40625 20.328125 58.90625 
Q 16.5 51.421875 16.5 36.375 
Q 16.5 21.390625 20.328125 13.890625 
Q 24.171875 6.390625 31.78125 6.390625 
Q 39.453125 6.390625 43.28125 13.890625 
Q 47.125 21.390625 47.125 36.375 
Q 47.125 51.421875 43.28125 58.90625 
Q 39.453125 66.40625 31.78125 66.40625 
z
M 31.78125 74.21875 
Q 44.046875 74.21875 50.515625 64.515625 
Q 56.984375 54.828125 56.984375 36.375 
Q 56.984375 17.96875 50.515625 8.265625 
Q 44.046875 -1.421875 31.78125 -1.421875 
Q 19.53125 -1.421875 13.0625 8.265625 
Q 6.59375 17.96875 6.59375 36.375 
Q 6.59375 54.828125 13.0625 64.515625 
Q 19.53125 74.21875 31.78125 74.21875 
z
" id="DejaVuSans-48"/>
      </defs>
      <g transform="translate(61.560216 366.30265)scale(0.08 -0.08)">
       <use xlink:href="#DejaVuSans-48"/>
      </g>
     </g>
    </g>
    <g id="xtick_2">
     <g id="text_2">
      <!-- 10 -->
      <defs>
       <path d="M 12.40625 8.296875 
L 28.515625 8.296875 
L 28.515625 63.921875 
L 10.984375 60.40625 
L 10.984375 69.390625 
L 28.421875 72.90625 
L 38.28125 72.90625 
L 38.28125 8.296875 
L 54.390625 8.296875 
L 54.390625 0 
L 12.40625 0 
z
" id="DejaVuSans-49"/>
      </defs>
      <g transform="translate(232.662489 366.30265)scale(0.08 -0.08)">
       <use xlink:href="#DejaVuSans-49"/>
       <use x="63.623047" xlink:href="#DejaVuSans-48"/>
      </g>
     </g>
    </g>
    <g id="xtick_3">
     <g id="text_3">
      <!-- 20 -->
      <defs>
       <path d="M 19.1875 8.296875 
L 53.609375 8.296875 
L 53.609375 0 
L 7.328125 0 
L 7.328125 8.296875 
Q 12.9375 14.109375 22.625 23.890625 
Q 32.328125 33.6875 34.8125 36.53125 
Q 39.546875 41.84375 41.421875 45.53125 
Q 43.3125 49.21875 43.3125 52.78125 
Q 43.3125 58.59375 39.234375 62.25 
Q 35.15625 65.921875 28.609375 65.921875 
Q 23.96875 65.921875 18.8125 64.3125 
Q 13.671875 62.703125 7.8125 59.421875 
L 7.8125 69.390625 
Q 13.765625 71.78125 18.9375 73 
Q 24.125 74.21875 28.421875 74.21875 
Q 39.75 74.21875 46.484375 68.546875 
Q 53.21875 62.890625 53.21875 53.421875 
Q 53.21875 48.921875 51.53125 44.890625 
Q 49.859375 40.875 45.40625 35.40625 
Q 44.1875 33.984375 37.640625 27.21875 
Q 31.109375 20.453125 19.1875 8.296875 
z
" id="DejaVuSans-50"/>
      </defs>
      <g transform="translate(406.309761 366.30265)scale(0.08 -0.08)">
       <use xlink:href="#DejaVuSans-50"/>
       <use x="63.623047" xlink:href="#DejaVuSans-48"/>
      </g>
     </g>
    </g>
    <g id="xtick_4">
     <g id="text_4">
      <!-- 30 -->
      <defs>
       <path d="M 40.578125 39.3125 
Q 47.65625 37.796875 51.625 33 
Q 55.609375 28.21875 55.609375 21.1875 
Q 55.609375 10.40625 48.1875 4.484375 
Q 40.765625 -1.421875 27.09375 -1.421875 
Q 22.515625 -1.421875 17.65625 -0.515625 
Q 12.796875 0.390625 7.625 2.203125 
L 7.625 11.71875 
Q 11.71875 9.328125 16.59375 8.109375 
Q 21.484375 6.890625 26.8125 6.890625 
Q 36.078125 6.890625 40.9375 10.546875 
Q 45.796875 14.203125 45.796875 21.1875 
Q 45.796875 27.640625 41.28125 31.265625 
Q 36.765625 34.90625 28.71875 34.90625 
L 20.21875 34.90625 
L 20.21875 43.015625 
L 29.109375 43.015625 
Q 36.375 43.015625 40.234375 45.921875 
Q 44.09375 48.828125 44.09375 54.296875 
Q 44.09375 59.90625 40.109375 62.90625 
Q 36.140625 65.921875 28.71875 65.921875 
Q 24.65625 65.921875 20.015625 65.03125 
Q 15.375 64.15625 9.8125 62.3125 
L 9.8125 71.09375 
Q 15.4375 72.65625 20.34375 73.4375 
Q 25.25 74.21875 29.59375 74.21875 
Q 40.828125 74.21875 47.359375 69.109375 
Q 53.90625 64.015625 53.90625 55.328125 
Q 53.90625 49.265625 50.4375 45.09375 
Q 46.96875 40.921875 40.578125 39.3125 
z
" id="DejaVuSans-51"/>
      </defs>
      <g transform="translate(579.957034 366.30265)scale(0.08 -0.08)">
       <use xlink:href="#DejaVuSans-51"/>
       <use x="63.623047" xlink:href="#DejaVuSans-48"/>
      </g>
     </g>
    </g>
    <g id="xtick_5">
     <g id="text_5">
      <!-- 40 -->
      <defs>
       <path d="M 37.796875 64.3125 
L 12.890625 25.390625 
L 37.796875 25.390625 
z
M 35.203125 72.90625 
L 47.609375 72.90625 
L 47.609375 25.390625 
L 58.015625 25.390625 
L 58.015625 17.1875 
L 47.609375 17.1875 
L 47.609375 0 
L 37.796875 0 
L 37.796875 17.1875 
L 4.890625 17.1875 
L 4.890625 26.703125 
z
" id="DejaVuSans-52"/>
      </defs>
      <g transform="translate(753.604307 366.30265)scale(0.08 -0.08)">
       <use xlink:href="#DejaVuSans-52"/>
       <use x="63.623047" xlink:href="#DejaVuSans-48"/>
      </g>
     </g>
    </g>
    <g id="xtick_6">
     <g id="text_6">
      <!-- 50 -->
      <defs>
       <path d="M 10.796875 72.90625 
L 49.515625 72.90625 
L 49.515625 64.59375 
L 19.828125 64.59375 
L 19.828125 46.734375 
Q 21.96875 47.46875 24.109375 47.828125 
Q 26.265625 48.1875 28.421875 48.1875 
Q 40.625 48.1875 47.75 41.5 
Q 54.890625 34.8125 54.890625 23.390625 
Q 54.890625 11.625 47.5625 5.09375 
Q 40.234375 -1.421875 26.90625 -1.421875 
Q 22.3125 -1.421875 17.546875 -0.640625 
Q 12.796875 0.140625 7.71875 1.703125 
L 7.71875 11.625 
Q 12.109375 9.234375 16.796875 8.0625 
Q 21.484375 6.890625 26.703125 6.890625 
Q 35.15625 6.890625 40.078125 11.328125 
Q 45.015625 15.765625 45.015625 23.390625 
Q 45.015625 31 40.078125 35.4375 
Q 35.15625 39.890625 26.703125 39.890625 
Q 22.75 39.890625 18.8125 39.015625 
Q 14.890625 38.140625 10.796875 36.28125 
z
" id="DejaVuSans-53"/>
      </defs>
      <g transform="translate(927.25158 366.30265)scale(0.08 -0.08)">
       <use xlink:href="#DejaVuSans-53"/>
       <use x="63.623047" xlink:href="#DejaVuSans-48"/>
      </g>
     </g>
    </g>
    <g id="text_7">
     <!-- Position (bp) -->
     <defs>
      <path d="M 19.671875 64.796875 
L 19.671875 37.40625 
L 32.078125 37.40625 
Q 38.96875 37.40625 42.71875 40.96875 
Q 46.484375 44.53125 46.484375 51.125 
Q 46.484375 57.671875 42.71875 61.234375 
Q 38.96875 64.796875 32.078125 64.796875 
z
M 9.8125 72.90625 
L 32.078125 72.90625 
Q 44.34375 72.90625 50.609375 67.359375 
Q 56.890625 61.8125 56.890625 51.125 
Q 56.890625 40.328125 50.609375 34.8125 
Q 44.34375 29.296875 32.078125 29.296875 
L 19.671875 29.296875 
L 19.671875 0 
L 9.8125 0 
z
" id="DejaVuSans-80"/>
      <path d="M 30.609375 48.390625 
Q 23.390625 48.390625 19.1875 42.75 
Q 14.984375 37.109375 14.984375 27.296875 
Q 14.984375 17.484375 19.15625 11.84375 
Q 23.34375 6.203125 30.609375 6.203125 
Q 37.796875 6.203125 41.984375 11.859375 
Q 46.1875 17.53125 46.1875 27.296875 
Q 46.1875 37.015625 41.984375 42.703125 
Q 37.796875 48.390625 30.609375 48.390625 
z
M 30.609375 56 
Q 42.328125 56 49.015625 48.375 
Q 55.71875 40.765625 55.71875 27.296875 
Q 55.71875 13.875 49.015625 6.21875 
Q 42.328125 -1.421875 30.609375 -1.421875 
Q 18.84375 -1.421875 12.171875 6.21875 
Q 5.515625 13.875 5.515625 27.296875 
Q 5.515625 40.765625 12.171875 48.375 
Q 18.84375 56 30.609375 56 
z
" id="DejaVuSans-111"/>
      <path d="M 44.28125 53.078125 
L 44.28125 44.578125 
Q 40.484375 46.53125 36.375 47.5 
Q 32.28125 48.484375 27.875 48.484375 
Q 21.1875 48.484375 17.84375 46.4375 
Q 14.5 44.390625 14.5 40.28125 
Q 14.5 37.15625 16.890625 35.375 
Q 19.28125 33.59375 26.515625 31.984375 
L 29.59375 31.296875 
Q 39.15625 29.25 43.1875 25.515625 
Q 47.21875 21.78125 47.21875 15.09375 
Q 47.21875 7.46875 41.1875 3.015625 
Q 35.15625 -1.421875 24.609375 -1.421875 
Q 20.21875 -1.421875 15.453125 -0.5625 
Q 10.6875 0.296875 5.421875 2 
L 5.421875 11.28125 
Q 10.40625 8.6875 15.234375 7.390625 
Q 20.0625 6.109375 24.8125 6.109375 
Q 31.15625 6.109375 34.5625 8.28125 
Q 37.984375 10.453125 37.984375 14.40625 
Q 37.984375 18.0625 35.515625 20.015625 
Q 33.0625 21.96875 24.703125 23.78125 
L 21.578125 24.515625 
Q 13.234375 26.265625 9.515625 29.90625 
Q 5.8125 33.546875 5.8125 39.890625 
Q 5.8125 47.609375 11.28125 51.796875 
Q 16.75 56 26.8125 56 
Q 31.78125 56 36.171875 55.265625 
Q 40.578125 54.546875 44.28125 53.078125 
z
" id="DejaVuSans-115"/>
      <path d="M 9.421875 54.6875 
L 18.40625 54.6875 
L 18.40625 0 
L 9.421875 0 
z
M 9.421875 75.984375 
L 18.40625 75.984375 
L 18.40625 64.59375 
L 9.421875 64.59375 
z
" id="DejaVuSans-105"/>
      <path d="M 18.3125 70.21875 
L 18.3125 54.6875 
L 36.8125 54.6875 
L 36.8125 47.703125 
L 18.3125 47.703125 
L 18.3125 18.015625 
Q 18.3125 11.328125 20.140625 9.421875 
Q 21.96875 7.515625 27.59375 7.515625 
L 36.8125 7.515625 
L 36.8125 0 
L 27.59375 0 
Q 17.1875 0 13.234375 3.875 
Q 9.28125 7.765625 9.28125 18.015625 
L 9.28125 47.703125 
L 2.6875 47.703125 
L 2.6875 54.6875 
L 9.28125 54.6875 
L 9.28125 70.21875 
z
" id="DejaVuSans-116"/>
      <path d="M 54.890625 33.015625 
L 54.890625 0 
L 45.90625 0 
L 45.90625 32.71875 
Q 45.90625 40.484375 42.875 44.328125 
Q 39.84375 48.1875 33.796875 48.1875 
Q 26.515625 48.1875 22.3125 43.546875 
Q 18.109375 38.921875 18.109375 30.90625 
L 18.109375 0 
L 9.078125 0 
L 9.078125 54.6875 
L 18.109375 54.6875 
L 18.109375 46.1875 
Q 21.34375 51.125 25.703125 53.5625 
Q 30.078125 56 35.796875 56 
Q 45.21875 56 50.046875 50.171875 
Q 54.890625 44.34375 54.890625 33.015625 
z
" id="DejaVuSans-110"/>
      <path id="DejaVuSans-32"/>
      <path d="M 31 75.875 
Q 24.46875 64.65625 21.28125 53.65625 
Q 18.109375 42.671875 18.109375 31.390625 
Q 18.109375 20.125 21.3125 9.0625 
Q 24.515625 -2 31 -13.1875 
L 23.1875 -13.1875 
Q 15.875 -1.703125 12.234375 9.375 
Q 8.59375 20.453125 8.59375 31.390625 
Q 8.59375 42.28125 12.203125 53.3125 
Q 15.828125 64.359375 23.1875 75.875 
z
" id="DejaVuSans-40"/>
      <path d="M 48.6875 27.296875 
Q 48.6875 37.203125 44.609375 42.84375 
Q 40.53125 48.484375 33.40625 48.484375 
Q 26.265625 48.484375 22.1875 42.84375 
Q 18.109375 37.203125 18.109375 27.296875 
Q 18.109375 17.390625 22.1875 11.75 
Q 26.265625 6.109375 33.40625 6.109375 
Q 40.53125 6.109375 44.609375 11.75 
Q 48.6875 17.390625 48.6875 27.296875 
z
M 18.109375 46.390625 
Q 20.953125 51.265625 25.265625 53.625 
Q 29.59375 56 35.59375 56 
Q 45.5625 56 51.78125 48.09375 
Q 58.015625 40.1875 58.015625 27.296875 
Q 58.015625 14.40625 51.78125 6.484375 
Q 45.5625 -1.421875 35.59375 -1.421875 
Q 29.59375 -1.421875 25.265625 0.953125 
Q 20.953125 3.328125 18.109375 8.203125 
L 18.109375 0 
L 9.078125 0 
L 9.078125 75.984375 
L 18.109375 75.984375 
z
" id="DejaVuSans-98"/>
      <path d="M 18.109375 8.203125 
L 18.109375 -20.796875 
L 9.078125 -20.796875 
L 9.078125 54.6875 
L 18.109375 54.6875 
L 18.109375 46.390625 
Q 20.953125 51.265625 25.265625 53.625 
Q 29.59375 56 35.59375 56 
Q 45.5625 56 51.78125 48.09375 
Q 58.015625 40.1875 58.015625 27.296875 
Q 58.015625 14.40625 51.78125 6.484375 
Q 45.5625 -1.421875 35.59375 -1.421875 
Q 29.59375 -1.421875 25.265625 0.953125 
Q 20.953125 3.328125 18.109375 8.203125 
z
M 48.6875 27.296875 
Q 48.6875 37.203125 44.609375 42.84375 
Q 40.53125 48.484375 33.40625 48.484375 
Q 26.265625 48.484375 22.1875 42.84375 
Q 18.109375 37.203125 18.109375 27.296875 
Q 18.109375 17.390625 22.1875 11.75 
Q 26.265625 6.109375 33.40625 6.109375 
Q 40.53125 6.109375 44.609375 11.75 
Q 48.6875 17.390625 48.6875 27.296875 
z
" id="DejaVuSans-112"/>
      <path d="M 8.015625 75.875 
L 15.828125 75.875 
Q 23.140625 64.359375 26.78125 53.3125 
Q 30.421875 42.28125 30.421875 31.390625 
Q 30.421875 20.453125 26.78125 9.375 
Q 23.140625 -1.703125 15.828125 -13.1875 
L 8.015625 -13.1875 
Q 14.5 -2 17.703125 9.0625 
Q 20.90625 20.125 20.90625 31.390625 
Q 20.90625 42.671875 17.703125 53.65625 
Q 14.5 64.65625 8.015625 75.875 
z
" id="DejaVuSans-41"/>
     </defs>
     <g transform="translate(484.106094 379.564837)scale(0.1 -0.1)">
      <use xlink:href="#DejaVuSans-80"/>
      <use x="60.255859" xlink:href="#DejaVuSans-111"/>
      <use x="121.4375" xlink:href="#DejaVuSans-115"/>
      <use x="173.537109" xlink:href="#DejaVuSans-105"/>
      <use x="201.320312" xlink:href="#DejaVuSans-116"/>
      <use x="240.529297" xlink:href="#DejaVuSans-105"/>
      <use x="268.3125" xlink:href="#DejaVuSans-111"/>
      <use x="329.494141" xlink:href="#DejaVuSans-110"/>
      <use x="392.873047" xlink:href="#DejaVuSans-32"/>
      <use x="424.660156" xlink:href="#DejaVuSans-40"/>
      <use x="463.673828" xlink:href="#DejaVuSans-98"/>
      <use x="527.150391" xlink:href="#DejaVuSans-112"/>
      <use x="590.626953" xlink:href="#DejaVuSans-41"/>
     </g>
    </g>
   </g>
   <g id="matplotlib.axis_2">
    <g id="ytick_1">
     <g id="line2d_1">
      <path clip-path="url(#pf6ae635332)" d="M 38.058125 353.2239 
L 993.118125 353.2239 
" style="fill:none;stroke:#dedede;stroke-linecap:square;"/>
     </g>
     <g id="text_8">
      <!-- 0 -->
      <g transform="translate(25.968125 356.263275)scale(0.08 -0.08)">
       <use xlink:href="#DejaVuSans-48"/>
      </g>
     </g>
    </g>
    <g id="ytick_2">
     <g id="line2d_2">
      <path clip-path="url(#pf6ae635332)" d="M 38.058125 313.498023 
L 993.118125 313.498023 
" style="fill:none;stroke:#dedede;stroke-linecap:square;"/>
     </g>
     <g id="text_9">
      <!-- 5 -->
      <g transform="translate(25.968125 316.537398)scale(0.08 -0.08)">
       <use xlink:href="#DejaVuSans-53"/>
      </g>
     </g>
    </g>
    <g id="ytick_3">
     <g id="line2d_3">
      <path clip-path="url(#pf6ae635332)" d="M 38.058125 273.772145 
L 993.118125 273.772145 
" style="fill:none;stroke:#dedede;stroke-linecap:square;"/>
     </g>
     <g id="text_10">
      <!-- 10 -->
      <g transform="translate(20.878125 276.81152)scale(0.08 -0.08)">
       <use xlink:href="#DejaVuSans-49"/>
       <use x="63.623047" xlink:href="#DejaVuSans-48"/>
      </g>
     </g>
    </g>
    <g id="ytick_4">
     <g id="line2d_4">
      <path clip-path="url(#pf6ae635332)" d="M 38.058125 234.046268 
L 993.118125 234.046268 
" style="fill:none;stroke:#dedede;stroke-linecap:square;"/>
     </g>
     <g id="text_11">
      <!-- 15 -->
      <g transform="translate(20.878125 237.085643)scale(0.08 -0.08)">
       <use xlink:href="#DejaVuSans-49"/>
       <use x="63.623047" xlink:href="#DejaVuSans-53"/>
      </g>
     </g>
    </g>
    <g id="ytick_5">
     <g id="line2d_5">
      <path clip-path="url(#pf6ae635332)" d="M 38.058125 194.320391 
L 993.118125 194.320391 
" style="fill:none;stroke:#dedede;stroke-linecap:square;"/>
     </g>
     <g id="text_12">
      <!-- 20 -->
      <g transform="translate(20.878125 197.359766)scale(0.08 -0.08)">
       <use xlink:href="#DejaVuSans-50"/>
       <use x="63.623047" xlink:href="#DejaVuSans-48"/>
      </g>
     </g>
    </g>
    <g id="ytick_6">
     <g id="line2d_6">
      <path clip-path="url(#pf6ae635332)" d="M 38.058125 154.594514 
L 993.118125 154.594514 
" style="fill:none;stroke:#dedede;stroke-linecap:square;"/>
     </g>
     <g id="text_13">
      <!-- 25 -->
      <g transform="translate(20.878125 157.633889)scale(0.08 -0.08)">
       <use xlink:href="#DejaVuSans-50"/>
       <use x="63.623047" xlink:href="#DejaVuSans-53"/>
      </g>
     </g>
    </g>
    <g id="ytick_7">
     <g id="line2d_7">
      <path clip-path="url(#pf6ae635332)" d="M 38.058125 114.868636 
L 993.118125 114.868636 
" style="fill:none;stroke:#dedede;stroke-linecap:square;"/>
     </g>
     <g id="text_14">
      <!-- 30 -->
      <g transform="translate(20.878125 117.908011)scale(0.08 -0.08)">
       <use xlink:href="#DejaVuSans-51"/>
       <use x="63.623047" xlink:href="#DejaVuSans-48"/>
      </g>
     </g>
    </g>
    <g id="ytick_8">
     <g id="line2d_8">
      <path clip-path="url(#pf6ae635332)" d="M 38.058125 75.142759 
L 993.118125 75.142759 
" style="fill:none;stroke:#dedede;stroke-linecap:square;"/>
     </g>
     <g id="text_15">
      <!-- 35 -->
      <g transform="translate(20.878125 78.182134)scale(0.08 -0.08)">
       <use xlink:href="#DejaVuSans-51"/>
       <use x="63.623047" xlink:href="#DejaVuSans-53"/>
      </g>
     </g>
    </g>
    <g id="ytick_9">
     <g id="line2d_9">
      <path clip-path="url(#pf6ae635332)" d="M 38.058125 35.416882 
L 993.118125 35.416882 
" style="fill:none;stroke:#dedede;stroke-linecap:square;"/>
     </g>
     <g id="text_16">
      <!-- 40 -->
      <g transform="translate(20.878125 38.456257)scale(0.08 -0.08)">
       <use xlink:href="#DejaVuSans-52"/>
       <use x="63.623047" xlink:href="#DejaVuSans-48"/>
      </g>
     </g>
    </g>
    <g id="text_17">
     <!-- Phred Score -->
     <defs>
      <path d="M 54.890625 33.015625 
L 54.890625 0 
L 45.90625 0 
L 45.90625 32.71875 
Q 45.90625 40.484375 42.875 44.328125 
Q 39.84375 48.1875 33.796875 48.1875 
Q 26.515625 48.1875 22.3125 43.546875 
Q 18.109375 38.921875 18.109375 30.90625 
L 18.109375 0 
L 9.078125 0 
L 9.078125 75.984375 
L 18.109375 75.984375 
L 18.109375 46.1875 
Q 21.34375 51.125 25.703125 53.5625 
Q 30.078125 56 35.796875 56 
Q 45.21875 56 50.046875 50.171875 
Q 54.890625 44.34375 54.890625 33.015625 
z
" id="DejaVuSans-104"/>
      <path d="M 41.109375 46.296875 
Q 39.59375 47.171875 37.8125 47.578125 
Q 36.03125 48 33.890625 48 
Q 26.265625 48 22.1875 43.046875 
Q 18.109375 38.09375 18.109375 28.8125 
L 18.109375 0 
L 9.078125 0 
L 9.078125 54.6875 
L 18.109375 54.6875 
L 18.109375 46.1875 
Q 20.953125 51.171875 25.484375 53.578125 
Q 30.03125 56 36.53125 56 
Q 37.453125 56 38.578125 55.875 
Q 39.703125 55.765625 41.0625 55.515625 
z
" id="DejaVuSans-114"/>
      <path d="M 56.203125 29.59375 
L 56.203125 25.203125 
L 14.890625 25.203125 
Q 15.484375 15.921875 20.484375 11.0625 
Q 25.484375 6.203125 34.421875 6.203125 
Q 39.59375 6.203125 44.453125 7.46875 
Q 49.3125 8.734375 54.109375 11.28125 
L 54.109375 2.78125 
Q 49.265625 0.734375 44.1875 -0.34375 
Q 39.109375 -1.421875 33.890625 -1.421875 
Q 20.796875 -1.421875 13.15625 6.1875 
Q 5.515625 13.8125 5.515625 26.8125 
Q 5.515625 40.234375 12.765625 48.109375 
Q 20.015625 56 32.328125 56 
Q 43.359375 56 49.78125 48.890625 
Q 56.203125 41.796875 56.203125 29.59375 
z
M 47.21875 32.234375 
Q 47.125 39.59375 43.09375 43.984375 
Q 39.0625 48.390625 32.421875 48.390625 
Q 24.90625 48.390625 20.390625 44.140625 
Q 15.875 39.890625 15.1875 32.171875 
z
" id="DejaVuSans-101"/>
      <path d="M 45.40625 46.390625 
L 45.40625 75.984375 
L 54.390625 75.984375 
L 54.390625 0 
L 45.40625 0 
L 45.40625 8.203125 
Q 42.578125 3.328125 38.25 0.953125 
Q 33.9375 -1.421875 27.875 -1.421875 
Q 17.96875 -1.421875 11.734375 6.484375 
Q 5.515625 14.40625 5.515625 27.296875 
Q 5.515625 40.1875 11.734375 48.09375 
Q 17.96875 56 27.875 56 
Q 33.9375 56 38.25 53.625 
Q 42.578125 51.265625 45.40625 46.390625 
z
M 14.796875 27.296875 
Q 14.796875 17.390625 18.875 11.75 
Q 22.953125 6.109375 30.078125 6.109375 
Q 37.203125 6.109375 41.296875 11.75 
Q 45.40625 17.390625 45.40625 27.296875 
Q 45.40625 37.203125 41.296875 42.84375 
Q 37.203125 48.484375 30.078125 48.484375 
Q 22.953125 48.484375 18.875 42.84375 
Q 14.796875 37.203125 14.796875 27.296875 
z
" id="DejaVuSans-100"/>
      <path d="M 53.515625 70.515625 
L 53.515625 60.890625 
Q 47.90625 63.578125 42.921875 64.890625 
Q 37.9375 66.21875 33.296875 66.21875 
Q 25.25 66.21875 20.875 63.09375 
Q 16.5 59.96875 16.5 54.203125 
Q 16.5 49.359375 19.40625 46.890625 
Q 22.3125 44.4375 30.421875 42.921875 
L 36.375 41.703125 
Q 47.40625 39.59375 52.65625 34.296875 
Q 57.90625 29 57.90625 20.125 
Q 57.90625 9.515625 50.796875 4.046875 
Q 43.703125 -1.421875 29.984375 -1.421875 
Q 24.8125 -1.421875 18.96875 -0.25 
Q 13.140625 0.921875 6.890625 3.21875 
L 6.890625 13.375 
Q 12.890625 10.015625 18.65625 8.296875 
Q 24.421875 6.59375 29.984375 6.59375 
Q 38.421875 6.59375 43.015625 9.90625 
Q 47.609375 13.234375 47.609375 19.390625 
Q 47.609375 24.75 44.3125 27.78125 
Q 41.015625 30.8125 33.5 32.328125 
L 27.484375 33.5 
Q 16.453125 35.6875 11.515625 40.375 
Q 6.59375 45.0625 6.59375 53.421875 
Q 6.59375 63.09375 13.40625 68.65625 
Q 20.21875 74.21875 32.171875 74.21875 
Q 37.3125 74.21875 42.625 73.28125 
Q 47.953125 72.359375 53.515625 70.515625 
z
" id="DejaVuSans-83"/>
      <path d="M 48.78125 52.59375 
L 48.78125 44.1875 
Q 44.96875 46.296875 41.140625 47.34375 
Q 37.3125 48.390625 33.40625 48.390625 
Q 24.65625 48.390625 19.8125 42.84375 
Q 14.984375 37.3125 14.984375 27.296875 
Q 14.984375 17.28125 19.8125 11.734375 
Q 24.65625 6.203125 33.40625 6.203125 
Q 37.3125 6.203125 41.140625 7.25 
Q 44.96875 8.296875 48.78125 10.40625 
L 48.78125 2.09375 
Q 45.015625 0.34375 40.984375 -0.53125 
Q 36.96875 -1.421875 32.421875 -1.421875 
Q 20.0625 -1.421875 12.78125 6.34375 
Q 5.515625 14.109375 5.515625 27.296875 
Q 5.515625 40.671875 12.859375 48.328125 
Q 20.21875 56 33.015625 56 
Q 37.15625 56 41.109375 55.140625 
Q 45.0625 54.296875 48.78125 52.59375 
z
" id="DejaVuSans-99"/>
     </defs>
     <g transform="translate(14.798438 224.430525)rotate(-90)scale(0.1 -0.1)">
      <use xlink:href="#DejaVuSans-80"/>
      <use x="60.302734" xlink:href="#DejaVuSans-104"/>
      <use x="123.681641" xlink:href="#DejaVuSans-114"/>
      <use x="164.763672" xlink:href="#DejaVuSans-101"/>
      <use x="226.287109" xlink:href="#DejaVuSans-100"/>
      <use x="289.763672" xlink:href="#DejaVuSans-32"/>
      <use x="321.550781" xlink:href="#DejaVuSans-83"/>
      <use x="385.027344" xlink:href="#DejaVuSans-99"/>
      <use x="440.007812" xlink:href="#DejaVuSans-111"/>
      <use x="501.189453" xlink:href="#DejaVuSans-114"/>
      <use x="542.271484" xlink:href="#DejaVuSans-101"/>
     </g>
    </g>
   </g>
   <g id="line2d_10">
    <path clip-path="url(#pf6ae635332)" d="M 81.469943 91.405558 
L 98.83467 90.679527 
L 116.199398 90.391051 
L 133.564125 65.087687 
L 150.928852 64.395711 
L 168.29358 64.65336 
L 185.658307 64.670211 
L 203.023034 64.927505 
L 220.387761 50.352169 
L 237.752489 50.274941 
L 255.117216 50.236967 
L 272.481943 50.37499 
L 289.84667 50.488315 
L 307.211398 37.984003 
L 324.576125 38.050334 
L 341.940852 38.157418 
L 359.30558 38.22878 
L 376.670307 38.261271 
L 394.035034 37.986261 
L 411.399761 38.100304 
L 428.764489 38.162388 
L 446.129216 38.157897 
L 463.493943 38.307327 
L 480.85867 38.298811 
L 498.223398 38.400979 
L 515.588125 38.724118 
L 532.952852 38.944013 
L 550.31758 39.087661 
L 567.682307 39.208011 
L 585.047034 39.455949 
L 602.411761 39.577797 
L 619.776489 39.798546 
L 637.141216 40.035752 
L 654.505943 40.132469 
L 671.87067 40.330173 
L 689.235398 40.577814 
L 706.600125 40.799206 
L 723.964852 41.100739 
L 741.32958 41.438601 
L 758.694307 41.427952 
L 776.059034 41.602262 
L 793.423761 41.839831 
L 810.788489 42.038995 
L 828.153216 42.219948 
L 845.517943 42.508218 
L 862.88267 42.794616 
L 880.247398 43.076791 
L 897.612125 43.398017 
L 914.976852 43.59412 
L 932.34158 43.752868 
L 949.706307 46.437893 
" style="fill:none;stroke:#5cb85c;stroke-linecap:square;"/>
   </g>
   <g id="line2d_11">
    <path clip-path="url(#pf6ae635332)" d="M 81.469943 91.541971 
L 98.83467 90.780224 
L 116.199398 90.503682 
L 133.564125 65.210789 
L 150.928852 64.525957 
L 168.29358 64.823923 
L 185.658307 64.822982 
L 203.023034 65.108688 
L 220.387761 50.57826 
L 237.752489 50.488266 
L 255.117216 50.468744 
L 272.481943 50.614584 
L 289.84667 50.720411 
L 307.211398 38.288365 
L 324.576125 38.364269 
L 341.940852 38.483749 
L 359.30558 38.547344 
L 376.670307 38.586362 
L 394.035034 38.296902 
L 411.399761 38.403532 
L 428.764489 38.473183 
L 446.129216 38.4716 
L 463.493943 38.607908 
L 480.85867 38.588514 
L 498.223398 38.676236 
L 515.588125 39.009436 
L 532.952852 39.229213 
L 550.31758 39.368238 
L 567.682307 39.478496 
L 585.047034 39.739386 
L 602.411761 39.856935 
L 619.776489 40.081564 
L 637.141216 40.310395 
L 654.505943 40.411517 
L 671.87067 40.591548 
L 689.235398 40.850068 
L 706.600125 41.054957 
L 723.964852 41.345849 
L 741.32958 41.670981 
L 758.694307 41.629678 
L 776.059034 41.780038 
L 793.423761 42.005175 
L 810.788489 42.186488 
L 828.153216 42.32827 
L 845.517943 42.595788 
L 862.88267 42.880377 
L 880.247398 43.122479 
L 897.612125 43.411763 
L 914.976852 43.562448 
L 932.34158 43.667066 
L 949.706307 46.264644 
" style="fill:none;stroke:#5cb85c;stroke-linecap:square;"/>
   </g>
   <g id="line2d_12">
    <path clip-path="url(#pf6ae635332)" d="M 81.469943 91.713629 
L 98.83467 90.920311 
L 116.199398 90.606572 
L 133.564125 65.307933 
L 150.928852 64.609958 
L 168.29358 64.923761 
L 185.658307 64.903457 
L 203.023034 65.175225 
L 220.387761 50.646146 
L 237.752489 50.573155 
L 255.117216 50.525163 
L 272.481943 50.667205 
L 289.84667 50.764507 
L 307.211398 38.401159 
L 324.576125 38.47235 
L 341.940852 38.581497 
L 359.30558 38.626475 
L 376.670307 38.656661 
L 394.035034 38.368552 
L 411.399761 38.468164 
L 428.764489 38.54803 
L 446.129216 38.548964 
L 463.493943 38.685722 
L 480.85867 38.688408 
L 498.223398 38.782135 
L 515.588125 39.108843 
L 532.952852 39.346916 
L 550.31758 39.482051 
L 567.682307 39.588621 
L 585.047034 39.844263 
L 602.411761 39.95545 
L 619.776489 40.183934 
L 637.141216 40.419893 
L 654.505943 40.518668 
L 671.87067 40.703683 
L 689.235398 40.964942 
L 706.600125 41.178046 
L 723.964852 41.468849 
L 741.32958 41.805053 
L 758.694307 41.750894 
L 776.059034 41.906027 
L 793.423761 42.143512 
L 810.788489 42.312209 
L 828.153216 42.448238 
L 845.517943 42.711753 
L 862.88267 42.982669 
L 880.247398 43.22847 
L 897.612125 43.528152 
L 914.976852 43.67979 
L 932.34158 43.788788 
L 949.706307 46.435003 
" style="fill:none;stroke:#5cb85c;stroke-linecap:square;"/>
   </g>
   <g id="line2d_13">
    <path clip-path="url(#pf6ae635332)" d="M 81.469943 91.757749 
L 98.83467 90.986426 
L 116.199398 90.674752 
L 133.564125 65.349927 
L 150.928852 64.668336 
L 168.29358 64.984553 
L 185.658307 64.976981 
L 203.023034 65.241338 
L 220.387761 50.70933 
L 237.752489 50.615944 
L 255.117216 50.579834 
L 272.481943 50.740093 
L 289.84667 50.841743 
L 307.211398 38.51983 
L 324.576125 38.5874 
L 341.940852 38.712319 
L 359.30558 38.775626 
L 376.670307 38.809635 
L 394.035034 38.50633 
L 411.399761 38.615395 
L 428.764489 38.682236 
L 446.129216 38.675845 
L 463.493943 38.826295 
L 480.85867 38.819196 
L 498.223398 38.925517 
L 515.588125 39.274565 
L 532.952852 39.504067 
L 550.31758 39.642956 
L 567.682307 39.767409 
L 585.047034 40.025215 
L 602.411761 40.130146 
L 619.776489 40.362458 
L 637.141216 40.606556 
L 654.505943 40.707308 
L 671.87067 40.906465 
L 689.235398 41.171763 
L 706.600125 41.386642 
L 723.964852 41.702756 
L 741.32958 42.035181 
L 758.694307 41.992292 
L 776.059034 42.157968 
L 793.423761 42.40692 
L 810.788489 42.591863 
L 828.153216 42.742315 
L 845.517943 43.019622 
L 862.88267 43.292843 
L 880.247398 43.567526 
L 897.612125 43.883153 
L 914.976852 44.043077 
L 932.34158 44.16767 
L 949.706307 46.791194 
" style="fill:none;stroke:#5cb85c;stroke-linecap:square;"/>
   </g>
   <g id="line2d_14">
    <path clip-path="url(#pf6ae635332)" d="M 81.469943 91.891533 
L 98.83467 91.04144 
L 116.199398 90.847292 
L 133.564125 64.619289 
L 150.928852 64.593334 
L 168.29358 64.866451 
L 185.658307 65.034886 
L 203.023034 65.155215 
L 220.387761 50.724155 
L 237.752489 50.634843 
L 255.117216 50.650491 
L 272.481943 50.787101 
L 289.84667 52.372862 
L 307.211398 39.793638 
L 324.576125 39.266146 
L 341.940852 38.944829 
L 359.30558 38.848708 
L 376.670307 38.835616 
L 394.035034 38.542872 
L 411.399761 38.617986 
L 428.764489 40.946909 
L 446.129216 40.144524 
L 463.493943 39.542672 
L 480.85867 39.199741 
L 498.223398 39.208687 
L 515.588125 39.513679 
L 532.952852 39.719057 
L 550.31758 40.321912 
L 567.682307 42.292689 
L 585.047034 41.712449 
L 602.411761 40.982025 
L 619.776489 40.779104 
L 637.141216 40.878989 
L 654.505943 41.015852 
L 671.87067 41.127988 
L 689.235398 41.330929 
L 706.600125 41.55104 
L 723.964852 41.830809 
L 741.32958 42.055057 
L 758.694307 42.293946 
L 776.059034 42.62176 
L 793.423761 42.964624 
L 810.788489 43.315221 
L 828.153216 43.633344 
L 845.517943 44.218076 
L 862.88267 44.461678 
L 880.247398 44.647125 
L 897.612125 44.927337 
L 914.976852 45.166673 
L 932.34158 45.438931 
L 949.706307 47.883308 
" style="fill:none;stroke:#5cb85c;stroke-linecap:square;"/>
   </g>
   <g id="line2d_15">
    <path clip-path="url(#pf6ae635332)" d="M 81.469943 91.58415 
L 98.83467 90.737184 
L 116.199398 90.567381 
L 133.564125 64.446335 
L 150.928852 64.407631 
L 168.29358 64.665158 
L 185.658307 64.84108 
L 203.023034 64.951793 
L 220.387761 50.460591 
L 237.752489 50.358452 
L 255.117216 50.373461 
L 272.481943 50.491345 
L 289.84667 52.007168 
L 307.211398 39.313972 
L 324.576125 38.803606 
L 341.940852 38.486629 
L 359.30558 38.409227 
L 376.670307 38.393939 
L 394.035034 38.122043 
L 411.399761 38.197727 
L 428.764489 40.435778 
L 446.129216 39.653395 
L 463.493943 39.073633 
L 480.85867 38.748044 
L 498.223398 38.754848 
L 515.588125 39.042943 
L 532.952852 39.25799 
L 550.31758 39.832994 
L 567.682307 41.724971 
L 585.047034 41.183057 
L 602.411761 40.475302 
L 619.776489 40.288761 
L 637.141216 40.385775 
L 654.505943 40.519701 
L 671.87067 40.631921 
L 689.235398 40.839409 
L 706.600125 41.045834 
L 723.964852 41.326126 
L 741.32958 41.537958 
L 758.694307 41.770307 
L 776.059034 42.057351 
L 793.423761 42.391676 
L 810.788489 42.724421 
L 828.153216 43.002372 
L 845.517943 43.538212 
L 862.88267 43.765906 
L 880.247398 43.934739 
L 897.612125 44.181406 
L 914.976852 44.437297 
L 932.34158 44.682423 
L 949.706307 47.088886 
" style="fill:none;stroke:#5cb85c;stroke-linecap:square;"/>
   </g>
   <g id="line2d_16">
    <path clip-path="url(#pf6ae635332)" d="M 81.469943 92.070806 
L 98.83467 91.20951 
L 116.199398 91.082149 
L 133.564125 64.853458 
L 150.928852 64.784044 
L 168.29358 65.090919 
L 185.658307 65.272186 
L 203.023034 65.413072 
L 220.387761 51.00707 
L 237.752489 50.922243 
L 255.117216 50.953467 
L 272.481943 51.077325 
L 289.84667 52.588741 
L 307.211398 40.091229 
L 324.576125 39.629539 
L 341.940852 39.332857 
L 359.30558 39.242444 
L 376.670307 39.227738 
L 394.035034 38.943164 
L 411.399761 39.024425 
L 428.764489 41.22258 
L 446.129216 40.460996 
L 463.493943 39.909821 
L 480.85867 39.602992 
L 498.223398 39.62343 
L 515.588125 39.97233 
L 532.952852 40.183466 
L 550.31758 40.775894 
L 567.682307 42.625676 
L 585.047034 42.104314 
L 602.411761 41.430739 
L 619.776489 41.264162 
L 637.141216 41.375226 
L 654.505943 41.526987 
L 671.87067 41.66885 
L 689.235398 41.888569 
L 706.600125 42.101487 
L 723.964852 42.407434 
L 741.32958 42.640521 
L 758.694307 42.881509 
L 776.059034 43.19236 
L 793.423761 43.547019 
L 810.788489 43.898606 
L 828.153216 44.210136 
L 845.517943 44.781401 
L 862.88267 45.048458 
L 880.247398 45.259592 
L 897.612125 45.541039 
L 914.976852 45.811509 
L 932.34158 46.078633 
L 949.706307 48.503896 
" style="fill:none;stroke:#5cb85c;stroke-linecap:square;"/>
   </g>
   <g id="line2d_17">
    <path clip-path="url(#pf6ae635332)" d="M 81.469943 92.546067 
L 98.83467 91.721553 
L 116.199398 91.560638 
L 133.564125 65.182976 
L 150.928852 65.102091 
L 168.29358 65.42911 
L 185.658307 65.637347 
L 203.023034 65.778256 
L 220.387761 51.512897 
L 237.752489 51.438182 
L 255.117216 51.457305 
L 272.481943 51.577006 
L 289.84667 53.214043 
L 307.211398 40.846797 
L 324.576125 40.324177 
L 341.940852 39.989964 
L 359.30558 39.892124 
L 376.670307 39.886212 
L 394.035034 39.599215 
L 411.399761 39.672603 
L 428.764489 42.083618 
L 446.129216 41.244565 
L 463.493943 40.636725 
L 480.85867 40.289487 
L 498.223398 40.298257 
L 515.588125 40.640558 
L 532.952852 40.888655 
L 550.31758 41.556727 
L 567.682307 43.58416 
L 585.047034 42.994432 
L 602.411761 42.253311 
L 619.776489 42.063438 
L 637.141216 42.170378 
L 654.505943 42.321425 
L 671.87067 42.457666 
L 689.235398 42.69153 
L 706.600125 42.92091 
L 723.964852 43.227097 
L 741.32958 43.474999 
L 758.694307 43.726916 
L 776.059034 44.066449 
L 793.423761 44.44359 
L 810.788489 44.804571 
L 828.153216 45.131245 
L 845.517943 45.755114 
L 862.88267 46.025241 
L 880.247398 46.230552 
L 897.612125 46.522817 
L 914.976852 46.792872 
L 932.34158 47.068463 
L 949.706307 49.455094 
" style="fill:none;stroke:#5cb85c;stroke-linecap:square;"/>
   </g>
   <g id="line2d_18">
    <path clip-path="url(#pf6ae635332)" d="M 81.469943 92.015754 
L 98.83467 91.17117 
L 116.199398 91.003986 
L 133.564125 64.792544 
L 150.928852 64.722047 
L 168.29358 65.010482 
L 185.658307 65.195541 
L 203.023034 65.330979 
L 220.387761 50.931908 
L 237.752489 50.852766 
L 255.117216 50.864478 
L 272.481943 50.984434 
L 289.84667 52.496196 
L 307.211398 39.943984 
L 324.576125 39.471685 
L 341.940852 39.18622 
L 359.30558 39.081288 
L 376.670307 39.077437 
L 394.035034 38.799706 
L 411.399761 38.868767 
L 428.764489 41.076291 
L 446.129216 40.315455 
L 463.493943 39.763286 
L 480.85867 39.451092 
L 498.223398 39.464243 
L 515.588125 39.792105 
L 532.952852 40.021827 
L 550.31758 40.615039 
L 567.682307 42.484492 
L 585.047034 41.961849 
L 602.411761 41.286993 
L 619.776489 41.112556 
L 637.141216 41.227893 
L 654.505943 41.376969 
L 671.87067 41.510796 
L 689.235398 41.740763 
L 706.600125 41.96348 
L 723.964852 42.250093 
L 741.32958 42.487734 
L 758.694307 42.730579 
L 776.059034 43.06449 
L 793.423761 43.425533 
L 810.788489 43.774625 
L 828.153216 44.090869 
L 845.517943 44.6691 
L 862.88267 44.942169 
L 880.247398 45.136825 
L 897.612125 45.431932 
L 914.976852 45.72575 
L 932.34158 46.002192 
L 949.706307 48.427757 
" style="fill:none;stroke:#5cb85c;stroke-linecap:square;"/>
   </g>
   <g id="line2d_19">
    <path clip-path="url(#pf6ae635332)" d="M 81.469943 92.344192 
L 98.83467 91.550435 
L 116.199398 91.376711 
L 133.564125 65.053239 
L 150.928852 64.973251 
L 168.29358 65.26758 
L 185.658307 65.464304 
L 203.023034 65.591632 
L 220.387761 51.242032 
L 237.752489 51.154387 
L 255.117216 51.171061 
L 272.481943 51.320118 
L 289.84667 52.856431 
L 307.211398 40.454087 
L 324.576125 39.95753 
L 341.940852 39.65049 
L 359.30558 39.563958 
L 376.670307 39.553653 
L 394.035034 39.269295 
L 411.399761 39.346823 
L 428.764489 41.594275 
L 446.129216 40.81609 
L 463.493943 40.261957 
L 480.85867 39.950396 
L 498.223398 39.97076 
L 515.588125 40.324362 
L 532.952852 40.56742 
L 550.31758 41.179638 
L 567.682307 43.089392 
L 585.047034 42.547066 
L 602.411761 41.852733 
L 619.776489 41.694376 
L 637.141216 41.806283 
L 654.505943 41.958805 
L 671.87067 42.115487 
L 689.235398 42.348014 
L 706.600125 42.579366 
L 723.964852 42.890993 
L 741.32958 43.133608 
L 758.694307 43.372671 
L 776.059034 43.715082 
L 793.423761 44.084032 
L 810.788489 44.431808 
L 828.153216 44.771415 
L 845.517943 45.372778 
L 862.88267 45.659228 
L 880.247398 45.876373 
L 897.612125 46.178831 
L 914.976852 46.460452 
L 932.34158 46.733759 
L 949.706307 49.176067 
" style="fill:none;stroke:#5cb85c;stroke-linecap:square;"/>
   </g>
   <g id="line2d_20">
    <path clip-path="url(#pf6ae635332)" d="M 81.469943 91.521092 
L 98.83467 90.752619 
L 116.199398 90.465751 
L 133.564125 65.091776 
L 150.928852 64.485138 
L 168.29358 64.808054 
L 185.658307 64.800141 
L 203.023034 65.084106 
L 220.387761 50.53164 
L 237.752489 50.453021 
L 255.117216 50.436202 
L 272.481943 50.593251 
L 289.84667 50.694366 
L 307.211398 38.295817 
L 324.576125 38.367388 
L 341.940852 38.46971 
L 359.30558 38.5299 
L 376.670307 38.593646 
L 394.035034 38.311099 
L 411.399761 38.420454 
L 428.764489 38.494102 
L 446.129216 38.503494 
L 463.493943 38.649606 
L 480.85867 38.630512 
L 498.223398 38.723375 
L 515.588125 39.062131 
L 532.952852 39.279959 
L 550.31758 39.421983 
L 567.682307 39.54236 
L 585.047034 39.808301 
L 602.411761 39.915797 
L 619.776489 40.149978 
L 637.141216 40.397546 
L 654.505943 40.496132 
L 671.87067 40.691702 
L 689.235398 40.952337 
L 706.600125 41.159221 
L 723.964852 41.460042 
L 741.32958 41.810745 
L 758.694307 41.76168 
L 776.059034 41.93228 
L 793.423761 42.167093 
L 810.788489 42.359027 
L 828.153216 42.510065 
L 845.517943 42.777971 
L 862.88267 43.043837 
L 880.247398 43.301521 
L 897.612125 43.612112 
L 914.976852 43.763663 
L 932.34158 43.874106 
L 949.706307 46.513417 
" style="fill:none;stroke:#5cb85c;stroke-linecap:square;"/>
   </g>
   <g id="line2d_21">
    <path clip-path="url(#pf6ae635332)" d="M 81.469943 91.990951 
L 98.83467 91.009663 
L 116.199398 90.849025 
L 133.564125 64.565577 
L 150.928852 64.595094 
L 168.29358 64.990218 
L 185.658307 65.090404 
L 203.023034 65.288499 
L 220.387761 50.799105 
L 237.752489 50.766349 
L 255.117216 50.783771 
L 272.481943 50.92323 
L 289.84667 52.526499 
L 307.211398 40.073338 
L 324.576125 39.513068 
L 341.940852 39.159377 
L 359.30558 39.049605 
L 376.670307 39.059038 
L 394.035034 38.752682 
L 411.399761 38.829324 
L 428.764489 41.274083 
L 446.129216 40.414488 
L 463.493943 39.796959 
L 480.85867 39.453267 
L 498.223398 39.413771 
L 515.588125 39.727014 
L 532.952852 39.93704 
L 550.31758 40.526418 
L 567.682307 42.530597 
L 585.047034 41.970774 
L 602.411761 41.170644 
L 619.776489 40.986925 
L 637.141216 41.083525 
L 654.505943 41.199213 
L 671.87067 41.332703 
L 689.235398 41.57433 
L 706.600125 41.720589 
L 723.964852 42.000944 
L 741.32958 42.144692 
L 758.694307 42.308482 
L 776.059034 42.596942 
L 793.423761 42.942715 
L 810.788489 43.254848 
L 828.153216 43.411047 
L 845.517943 43.928353 
L 862.88267 44.133353 
L 880.247398 44.212332 
L 897.612125 44.381658 
L 914.976852 44.502586 
L 932.34158 44.647569 
L 949.706307 46.939086 
" style="fill:none;stroke:#5cb85c;stroke-linecap:square;"/>
   </g>
   <g id="line2d_22">
    <path clip-path="url(#pf6ae635332)" d="M 81.469943 91.596908 
L 98.83467 90.867956 
L 116.199398 90.578349 
L 133.564125 65.31165 
L 150.928852 64.564965 
L 168.29358 64.786205 
L 185.658307 64.860937 
L 203.023034 65.078912 
L 220.387761 50.606636 
L 237.752489 50.484414 
L 255.117216 50.426483 
L 272.481943 50.565884 
L 289.84667 50.680986 
L 307.211398 38.173246 
L 324.576125 38.242592 
L 341.940852 38.345995 
L 359.30558 38.402747 
L 376.670307 38.433237 
L 394.035034 38.159724 
L 411.399761 38.283737 
L 428.764489 38.327142 
L 446.129216 38.33773 
L 463.493943 38.475269 
L 480.85867 38.450356 
L 498.223398 38.589253 
L 515.588125 38.929663 
L 532.952852 39.157886 
L 550.31758 39.371562 
L 567.682307 39.505912 
L 585.047034 39.718917 
L 602.411761 39.860046 
L 619.776489 40.068156 
L 637.141216 40.324838 
L 654.505943 40.435557 
L 671.87067 40.628677 
L 689.235398 40.845824 
L 706.600125 41.132562 
L 723.964852 41.441165 
L 741.32958 41.844246 
L 758.694307 41.882004 
L 776.059034 42.096192 
L 793.423761 42.350393 
L 810.788489 42.57222 
L 828.153216 42.897824 
L 845.517943 43.246528 
L 862.88267 43.547523 
L 880.247398 43.897109 
L 897.612125 44.307579 
L 914.976852 44.573803 
L 932.34158 44.824141 
L 949.706307 47.494227 
" style="fill:none;stroke:#5cb85c;stroke-linecap:square;"/>
   </g>
   <g id="line2d_23">
    <path clip-path="url(#pf6ae635332)" d="M 81.469943 92.11978 
L 98.83467 91.158636 
L 116.199398 91.002851 
L 133.564125 64.651563 
L 150.928852 64.686221 
L 168.29358 65.086619 
L 185.658307 65.202707 
L 203.023034 65.408628 
L 220.387761 50.963092 
L 237.752489 50.926728 
L 255.117216 50.959491 
L 272.481943 51.106289 
L 289.84667 52.738137 
L 307.211398 40.337411 
L 324.576125 39.792313 
L 341.940852 39.436171 
L 359.30558 39.337279 
L 376.670307 39.335699 
L 394.035034 39.036993 
L 411.399761 39.121791 
L 428.764489 41.556002 
L 446.129216 40.710494 
L 463.493943 40.095718 
L 480.85867 39.755746 
L 498.223398 39.712065 
L 515.588125 40.032607 
L 532.952852 40.247959 
L 550.31758 40.837223 
L 567.682307 42.848871 
L 585.047034 42.292948 
L 602.411761 41.501429 
L 619.776489 41.327321 
L 637.141216 41.434287 
L 654.505943 41.549959 
L 671.87067 41.698833 
L 689.235398 41.950087 
L 706.600125 42.09981 
L 723.964852 42.389126 
L 741.32958 42.550677 
L 758.694307 42.71197 
L 776.059034 43.009572 
L 793.423761 43.362016 
L 810.788489 43.688216 
L 828.153216 43.884295 
L 845.517943 44.412017 
L 862.88267 44.634757 
L 880.247398 44.729759 
L 897.612125 44.904531 
L 914.976852 45.044787 
L 932.34158 45.204366 
L 949.706307 47.524725 
" style="fill:none;stroke:#5cb85c;stroke-linecap:square;"/>
   </g>
   <g id="line2d_24">
    <path clip-path="url(#pf6ae635332)" d="M 81.469943 91.702792 
L 98.83467 90.999802 
L 116.199398 90.716899 
L 133.564125 65.399213 
L 150.928852 64.650018 
L 168.29358 64.868017 
L 185.658307 64.955229 
L 203.023034 65.171384 
L 220.387761 50.739336 
L 237.752489 50.617412 
L 255.117216 50.575083 
L 272.481943 50.720292 
L 289.84667 50.863003 
L 307.211398 38.397488 
L 324.576125 38.475627 
L 341.940852 38.585876 
L 359.30558 38.632864 
L 376.670307 38.651996 
L 394.035034 38.365267 
L 411.399761 38.490321 
L 428.764489 38.542033 
L 446.129216 38.565244 
L 463.493943 38.703512 
L 480.85867 38.673804 
L 498.223398 38.825877 
L 515.588125 39.181929 
L 532.952852 39.399272 
L 550.31758 39.611716 
L 567.682307 39.740332 
L 585.047034 39.949215 
L 602.411761 40.100532 
L 619.776489 40.321954 
L 637.141216 40.588595 
L 654.505943 40.698885 
L 671.87067 40.898014 
L 689.235398 41.113569 
L 706.600125 41.399383 
L 723.964852 41.720077 
L 741.32958 42.124688 
L 758.694307 42.162863 
L 776.059034 42.375273 
L 793.423761 42.651604 
L 810.788489 42.893063 
L 828.153216 43.227402 
L 845.517943 43.575688 
L 862.88267 43.896059 
L 880.247398 44.26178 
L 897.612125 44.674884 
L 914.976852 44.946265 
L 932.34158 45.194695 
L 949.706307 47.856514 
" style="fill:none;stroke:#5cb85c;stroke-linecap:square;"/>
   </g>
   <g id="line2d_25">
    <path clip-path="url(#pf6ae635332)" d="M 81.469943 92.212415 
L 98.83467 91.235616 
L 116.199398 91.089881 
L 133.564125 64.714052 
L 150.928852 64.733452 
L 168.29358 65.138791 
L 185.658307 65.244042 
L 203.023034 65.454312 
L 220.387761 51.032567 
L 237.752489 51.011341 
L 255.117216 51.044351 
L 272.481943 51.172308 
L 289.84667 52.82699 
L 307.211398 40.40741 
L 324.576125 39.858244 
L 341.940852 39.500688 
L 359.30558 39.399395 
L 376.670307 39.396559 
L 394.035034 39.094356 
L 411.399761 39.169916 
L 428.764489 41.665905 
L 446.129216 40.791601 
L 463.493943 40.1555 
L 480.85867 39.799394 
L 498.223398 39.768036 
L 515.588125 40.065368 
L 532.952852 40.295078 
L 550.31758 40.897022 
L 567.682307 42.93885 
L 585.047034 42.354411 
L 602.411761 41.537634 
L 619.776489 41.352373 
L 637.141216 41.446732 
L 654.505943 41.553927 
L 671.87067 41.690503 
L 689.235398 41.922819 
L 706.600125 42.067273 
L 723.964852 42.359273 
L 741.32958 42.504406 
L 758.694307 42.678486 
L 776.059034 42.97201 
L 793.423761 43.305143 
L 810.788489 43.626417 
L 828.153216 43.797654 
L 845.517943 44.33959 
L 862.88267 44.55535 
L 880.247398 44.630781 
L 897.612125 44.807255 
L 914.976852 44.939093 
L 932.34158 45.104164 
L 949.706307 47.42489 
" style="fill:none;stroke:#5cb85c;stroke-linecap:square;"/>
   </g>
   <g id="line2d_26">
    <path clip-path="url(#pf6ae635332)" d="M 81.469943 91.61087 
L 98.83467 90.872725 
L 116.199398 90.619806 
L 133.564125 65.31264 
L 150.928852 64.574403 
L 168.29358 64.781108 
L 185.658307 64.872001 
L 203.023034 65.079661 
L 220.387761 50.621399 
L 237.752489 50.510673 
L 255.117216 50.470584 
L 272.481943 50.613455 
L 289.84667 50.741198 
L 307.211398 38.207745 
L 324.576125 38.283816 
L 341.940852 38.402749 
L 359.30558 38.459841 
L 376.670307 38.480618 
L 394.035034 38.203437 
L 411.399761 38.319076 
L 428.764489 38.367717 
L 446.129216 38.383063 
L 463.493943 38.522107 
L 480.85867 38.500464 
L 498.223398 38.643612 
L 515.588125 38.998944 
L 532.952852 39.215958 
L 550.31758 39.418878 
L 567.682307 39.561074 
L 585.047034 39.771954 
L 602.411761 39.919063 
L 619.776489 40.129348 
L 637.141216 40.38596 
L 654.505943 40.504978 
L 671.87067 40.705513 
L 689.235398 40.921231 
L 706.600125 41.214521 
L 723.964852 41.520341 
L 741.32958 41.924454 
L 758.694307 41.973146 
L 776.059034 42.181956 
L 793.423761 42.450001 
L 810.788489 42.685378 
L 828.153216 43.002959 
L 845.517943 43.348649 
L 862.88267 43.667419 
L 880.247398 44.032518 
L 897.612125 44.431019 
L 914.976852 44.714212 
L 932.34158 44.957183 
L 949.706307 47.613008 
" style="fill:none;stroke:#5cb85c;stroke-linecap:square;"/>
   </g>
   <g id="line2d_27">
    <path clip-path="url(#pf6ae635332)" d="M 38.058125 353.2239 
L 993.118125 353.2239 
" style="fill:none;stroke:#dedede;stroke-linecap:square;stroke-width:2;"/>
   </g>
   <g id="text_18">
    <!-- FastQC: Mean Quality Scores -->
    <defs>
     <path d="M 9.8125 72.90625 
L 51.703125 72.90625 
L 51.703125 64.59375 
L 19.671875 64.59375 
L 19.671875 43.109375 
L 48.578125 43.109375 
L 48.578125 34.8125 
L 19.671875 34.8125 
L 19.671875 0 
L 9.8125 0 
z
" id="DejaVuSans-70"/>
     <path d="M 34.28125 27.484375 
Q 23.390625 27.484375 19.1875 25 
Q 14.984375 22.515625 14.984375 16.5 
Q 14.984375 11.71875 18.140625 8.90625 
Q 21.296875 6.109375 26.703125 6.109375 
Q 34.1875 6.109375 38.703125 11.40625 
Q 43.21875 16.703125 43.21875 25.484375 
L 43.21875 27.484375 
z
M 52.203125 31.203125 
L 52.203125 0 
L 43.21875 0 
L 43.21875 8.296875 
Q 40.140625 3.328125 35.546875 0.953125 
Q 30.953125 -1.421875 24.3125 -1.421875 
Q 15.921875 -1.421875 10.953125 3.296875 
Q 6 8.015625 6 15.921875 
Q 6 25.140625 12.171875 29.828125 
Q 18.359375 34.515625 30.609375 34.515625 
L 43.21875 34.515625 
L 43.21875 35.40625 
Q 43.21875 41.609375 39.140625 45 
Q 35.0625 48.390625 27.6875 48.390625 
Q 23 48.390625 18.546875 47.265625 
Q 14.109375 46.140625 10.015625 43.890625 
L 10.015625 52.203125 
Q 14.9375 54.109375 19.578125 55.046875 
Q 24.21875 56 28.609375 56 
Q 40.484375 56 46.34375 49.84375 
Q 52.203125 43.703125 52.203125 31.203125 
z
" id="DejaVuSans-97"/>
     <path d="M 39.40625 66.21875 
Q 28.65625 66.21875 22.328125 58.203125 
Q 16.015625 50.203125 16.015625 36.375 
Q 16.015625 22.609375 22.328125 14.59375 
Q 28.65625 6.59375 39.40625 6.59375 
Q 50.140625 6.59375 56.421875 14.59375 
Q 62.703125 22.609375 62.703125 36.375 
Q 62.703125 50.203125 56.421875 58.203125 
Q 50.140625 66.21875 39.40625 66.21875 
z
M 53.21875 1.3125 
L 66.21875 -12.890625 
L 54.296875 -12.890625 
L 43.5 -1.21875 
Q 41.890625 -1.3125 41.03125 -1.359375 
Q 40.1875 -1.421875 39.40625 -1.421875 
Q 24.03125 -1.421875 14.8125 8.859375 
Q 5.609375 19.140625 5.609375 36.375 
Q 5.609375 53.65625 14.8125 63.9375 
Q 24.03125 74.21875 39.40625 74.21875 
Q 54.734375 74.21875 63.90625 63.9375 
Q 73.09375 53.65625 73.09375 36.375 
Q 73.09375 23.6875 67.984375 14.640625 
Q 62.890625 5.609375 53.21875 1.3125 
z
" id="DejaVuSans-81"/>
     <path d="M 64.40625 67.28125 
L 64.40625 56.890625 
Q 59.421875 61.53125 53.78125 63.8125 
Q 48.140625 66.109375 41.796875 66.109375 
Q 29.296875 66.109375 22.65625 58.46875 
Q 16.015625 50.828125 16.015625 36.375 
Q 16.015625 21.96875 22.65625 14.328125 
Q 29.296875 6.6875 41.796875 6.6875 
Q 48.140625 6.6875 53.78125 8.984375 
Q 59.421875 11.28125 64.40625 15.921875 
L 64.40625 5.609375 
Q 59.234375 2.09375 53.4375 0.328125 
Q 47.65625 -1.421875 41.21875 -1.421875 
Q 24.65625 -1.421875 15.125 8.703125 
Q 5.609375 18.84375 5.609375 36.375 
Q 5.609375 53.953125 15.125 64.078125 
Q 24.65625 74.21875 41.21875 74.21875 
Q 47.75 74.21875 53.53125 72.484375 
Q 59.328125 70.75 64.40625 67.28125 
z
" id="DejaVuSans-67"/>
     <path d="M 11.71875 12.40625 
L 22.015625 12.40625 
L 22.015625 0 
L 11.71875 0 
z
M 11.71875 51.703125 
L 22.015625 51.703125 
L 22.015625 39.3125 
L 11.71875 39.3125 
z
" id="DejaVuSans-58"/>
     <path d="M 9.8125 72.90625 
L 24.515625 72.90625 
L 43.109375 23.296875 
L 61.8125 72.90625 
L 76.515625 72.90625 
L 76.515625 0 
L 66.890625 0 
L 66.890625 64.015625 
L 48.09375 14.015625 
L 38.1875 14.015625 
L 19.390625 64.015625 
L 19.390625 0 
L 9.8125 0 
z
" id="DejaVuSans-77"/>
     <path d="M 8.5 21.578125 
L 8.5 54.6875 
L 17.484375 54.6875 
L 17.484375 21.921875 
Q 17.484375 14.15625 20.5 10.265625 
Q 23.53125 6.390625 29.59375 6.390625 
Q 36.859375 6.390625 41.078125 11.03125 
Q 45.3125 15.671875 45.3125 23.6875 
L 45.3125 54.6875 
L 54.296875 54.6875 
L 54.296875 0 
L 45.3125 0 
L 45.3125 8.40625 
Q 42.046875 3.421875 37.71875 1 
Q 33.40625 -1.421875 27.6875 -1.421875 
Q 18.265625 -1.421875 13.375 4.4375 
Q 8.5 10.296875 8.5 21.578125 
z
M 31.109375 56 
z
" id="DejaVuSans-117"/>
     <path d="M 9.421875 75.984375 
L 18.40625 75.984375 
L 18.40625 0 
L 9.421875 0 
z
" id="DejaVuSans-108"/>
     <path d="M 32.171875 -5.078125 
Q 28.375 -14.84375 24.75 -17.8125 
Q 21.140625 -20.796875 15.09375 -20.796875 
L 7.90625 -20.796875 
L 7.90625 -13.28125 
L 13.1875 -13.28125 
Q 16.890625 -13.28125 18.9375 -11.515625 
Q 21 -9.765625 23.484375 -3.21875 
L 25.09375 0.875 
L 2.984375 54.6875 
L 12.5 54.6875 
L 29.59375 11.921875 
L 46.6875 54.6875 
L 56.203125 54.6875 
z
" id="DejaVuSans-121"/>
    </defs>
    <g transform="translate(399.453125 19.3575)scale(0.16 -0.16)">
     <use xlink:href="#DejaVuSans-70"/>
     <use x="57.378906" xlink:href="#DejaVuSans-97"/>
     <use x="118.658203" xlink:href="#DejaVuSans-115"/>
     <use x="170.757812" xlink:href="#DejaVuSans-116"/>
     <use x="209.966797" xlink:href="#DejaVuSans-81"/>
     <use x="288.677734" xlink:href="#DejaVuSans-67"/>
     <use x="358.501953" xlink:href="#DejaVuSans-58"/>
     <use x="392.193359" xlink:href="#DejaVuSans-32"/>
     <use x="423.980469" xlink:href="#DejaVuSans-77"/>
     <use x="510.259766" xlink:href="#DejaVuSans-101"/>
     <use x="571.783203" xlink:href="#DejaVuSans-97"/>
     <use x="633.0625" xlink:href="#DejaVuSans-110"/>
     <use x="696.441406" xlink:href="#DejaVuSans-32"/>
     <use x="728.228516" xlink:href="#DejaVuSans-81"/>
     <use x="806.939453" xlink:href="#DejaVuSans-117"/>
     <use x="870.318359" xlink:href="#DejaVuSans-97"/>
     <use x="931.597656" xlink:href="#DejaVuSans-108"/>
     <use x="959.380859" xlink:href="#DejaVuSans-105"/>
     <use x="987.164062" xlink:href="#DejaVuSans-116"/>
     <use x="1026.373047" xlink:href="#DejaVuSans-121"/>
     <use x="1085.552734" xlink:href="#DejaVuSans-32"/>
     <use x="1117.339844" xlink:href="#DejaVuSans-83"/>
     <use x="1180.816406" xlink:href="#DejaVuSans-99"/>
     <use x="1235.796875" xlink:href="#DejaVuSans-111"/>
     <use x="1296.978516" xlink:href="#DejaVuSans-114"/>
     <use x="1338.060547" xlink:href="#DejaVuSans-101"/>
     <use x="1399.583984" xlink:href="#DejaVuSans-115"/>
    </g>
   </g>
  </g>
 </g>
 <defs>
  <clipPath id="pf6ae635332">
   <rect height="317.968" width="955.06" x="38.058125" y="35.2559"/>
  </clipPath>
 </defs>
</svg>
