<?xml version="1.0" encoding="utf-8" standalone="no"?>
<!DOCTYPE svg PUBLIC "-//W3C//DTD SVG 1.1//EN"
  "http://www.w3.org/Graphics/SVG/1.1/DTD/svg11.dtd">
<!-- Created with matplotlib (https://matplotlib.org/) -->
<svg height="388.844525pt" version="1.1" viewBox="0 0 1000.158125 388.844525" width="1000.158125pt" xmlns="http://www.w3.org/2000/svg" xmlns:xlink="http://www.w3.org/1999/xlink">
 <defs>
  <style type="text/css">
*{stroke-linecap:butt;stroke-linejoin:round;}
  </style>
 </defs>
 <g id="figure_1">
  <g id="axes_1">
   <g id="patch_1">
    <path d="M 58.418125 353.2239 
L 992.958125 353.2239 
L 992.958125 35.2559 
L 58.418125 35.2559 
z
" style="fill:#ffffff;"/>
   </g>
   <g id="matplotlib.axis_1">
    <g id="xtick_1">
     <g id="text_1">
      <!-- 10 -->
      <defs>
       <path d="M 12.40625 8.296875 
L 28.515625 8.296875 
L 28.515625 63.921875 
L 10.984375 60.40625 
L 10.984375 69.390625 
L 28.421875 72.90625 
L 38.28125 72.90625 
L 38.28125 8.296875 
L 54.390625 8.296875 
L 54.390625 0 
L 12.40625 0 
z
" id="DejaVuSans-49"/>
       <path d="M 31.78125 66.40625 
Q 24.171875 66.40625 20.328125 58.90625 
Q 16.5 51.421875 16.5 36.375 
Q 16.5 21.390625 20.328125 13.890625 
Q 24.171875 6.390625 31.78125 6.390625 
Q 39.453125 6.390625 43.28125 13.890625 
Q 47.125 21.390625 47.125 36.375 
Q 47.125 51.421875 43.28125 58.90625 
Q 39.453125 66.40625 31.78125 66.40625 
z
M 31.78125 74.21875 
Q 44.046875 74.21875 50.515625 64.515625 
Q 56.984375 54.828125 56.984375 36.375 
Q 56.984375 17.96875 50.515625 8.265625 
Q 44.046875 -1.421875 31.78125 -1.421875 
Q 19.53125 -1.421875 13.0625 8.265625 
Q 6.59375 17.96875 6.59375 36.375 
Q 6.59375 54.828125 13.0625 64.515625 
Q 19.53125 74.21875 31.78125 74.21875 
z
" id="DejaVuSans-48"/>
      </defs>
      <g transform="translate(219.704564 366.30265)scale(0.08 -0.08)">
       <use xlink:href="#DejaVuSans-49"/>
       <use x="63.623047" xlink:href="#DejaVuSans-48"/>
      </g>
     </g>
    </g>
    <g id="xtick_2">
     <g id="text_2">
      <!-- 20 -->
      <defs>
       <path d="M 19.1875 8.296875 
L 53.609375 8.296875 
L 53.609375 0 
L 7.328125 0 
L 7.328125 8.296875 
Q 12.9375 14.109375 22.625 23.890625 
Q 32.328125 33.6875 34.8125 36.53125 
Q 39.546875 41.84375 41.421875 45.53125 
Q 43.3125 49.21875 43.3125 52.78125 
Q 43.3125 58.59375 39.234375 62.25 
Q 35.15625 65.921875 28.609375 65.921875 
Q 23.96875 65.921875 18.8125 64.3125 
Q 13.671875 62.703125 7.8125 59.421875 
L 7.8125 69.390625 
Q 13.765625 71.78125 18.9375 73 
Q 24.125 74.21875 28.421875 74.21875 
Q 39.75 74.21875 46.484375 68.546875 
Q 53.21875 62.890625 53.21875 53.421875 
Q 53.21875 48.921875 51.53125 44.890625 
Q 49.859375 40.875 45.40625 35.40625 
Q 44.1875 33.984375 37.640625 27.21875 
Q 31.109375 20.453125 19.1875 8.296875 
z
" id="DejaVuSans-50"/>
      </defs>
      <g transform="translate(396.700777 366.30265)scale(0.08 -0.08)">
       <use xlink:href="#DejaVuSans-50"/>
       <use x="63.623047" xlink:href="#DejaVuSans-48"/>
      </g>
     </g>
    </g>
    <g id="xtick_3">
     <g id="text_3">
      <!-- 30 -->
      <defs>
       <path d="M 40.578125 39.3125 
Q 47.65625 37.796875 51.625 33 
Q 55.609375 28.21875 55.609375 21.1875 
Q 55.609375 10.40625 48.1875 4.484375 
Q 40.765625 -1.421875 27.09375 -1.421875 
Q 22.515625 -1.421875 17.65625 -0.515625 
Q 12.796875 0.390625 7.625 2.203125 
L 7.625 11.71875 
Q 11.71875 9.328125 16.59375 8.109375 
Q 21.484375 6.890625 26.8125 6.890625 
Q 36.078125 6.890625 40.9375 10.546875 
Q 45.796875 14.203125 45.796875 21.1875 
Q 45.796875 27.640625 41.28125 31.265625 
Q 36.765625 34.90625 28.71875 34.90625 
L 20.21875 34.90625 
L 20.21875 43.015625 
L 29.109375 43.015625 
Q 36.375 43.015625 40.234375 45.921875 
Q 44.09375 48.828125 44.09375 54.296875 
Q 44.09375 59.90625 40.109375 62.90625 
Q 36.140625 65.921875 28.71875 65.921875 
Q 24.65625 65.921875 20.015625 65.03125 
Q 15.375 64.15625 9.8125 62.3125 
L 9.8125 71.09375 
Q 15.4375 72.65625 20.34375 73.4375 
Q 25.25 74.21875 29.59375 74.21875 
Q 40.828125 74.21875 47.359375 69.109375 
Q 53.90625 64.015625 53.90625 55.328125 
Q 53.90625 49.265625 50.4375 45.09375 
Q 46.96875 40.921875 40.578125 39.3125 
z
" id="DejaVuSans-51"/>
      </defs>
      <g transform="translate(573.696989 366.30265)scale(0.08 -0.08)">
       <use xlink:href="#DejaVuSans-51"/>
       <use x="63.623047" xlink:href="#DejaVuSans-48"/>
      </g>
     </g>
    </g>
    <g id="xtick_4">
     <g id="text_4">
      <!-- 40 -->
      <defs>
       <path d="M 37.796875 64.3125 
L 12.890625 25.390625 
L 37.796875 25.390625 
z
M 35.203125 72.90625 
L 47.609375 72.90625 
L 47.609375 25.390625 
L 58.015625 25.390625 
L 58.015625 17.1875 
L 47.609375 17.1875 
L 47.609375 0 
L 37.796875 0 
L 37.796875 17.1875 
L 4.890625 17.1875 
L 4.890625 26.703125 
z
" id="DejaVuSans-52"/>
      </defs>
      <g transform="translate(750.693201 366.30265)scale(0.08 -0.08)">
       <use xlink:href="#DejaVuSans-52"/>
       <use x="63.623047" xlink:href="#DejaVuSans-48"/>
      </g>
     </g>
    </g>
    <g id="xtick_5">
     <g id="text_5">
      <!-- 50 -->
      <defs>
       <path d="M 10.796875 72.90625 
L 49.515625 72.90625 
L 49.515625 64.59375 
L 19.828125 64.59375 
L 19.828125 46.734375 
Q 21.96875 47.46875 24.109375 47.828125 
Q 26.265625 48.1875 28.421875 48.1875 
Q 40.625 48.1875 47.75 41.5 
Q 54.890625 34.8125 54.890625 23.390625 
Q 54.890625 11.625 47.5625 5.09375 
Q 40.234375 -1.421875 26.90625 -1.421875 
Q 22.3125 -1.421875 17.546875 -0.640625 
Q 12.796875 0.140625 7.71875 1.703125 
L 7.71875 11.625 
Q 12.109375 9.234375 16.796875 8.0625 
Q 21.484375 6.890625 26.703125 6.890625 
Q 35.15625 6.890625 40.078125 11.328125 
Q 45.015625 15.765625 45.015625 23.390625 
Q 45.015625 31 40.078125 35.4375 
Q 35.15625 39.890625 26.703125 39.890625 
Q 22.75 39.890625 18.8125 39.015625 
Q 14.890625 38.140625 10.796875 36.28125 
z
" id="DejaVuSans-53"/>
      </defs>
      <g transform="translate(927.689413 366.30265)scale(0.08 -0.08)">
       <use xlink:href="#DejaVuSans-53"/>
       <use x="63.623047" xlink:href="#DejaVuSans-48"/>
      </g>
     </g>
    </g>
    <g id="text_6">
     <!-- Length Trimmed (bp) -->
     <defs>
      <path d="M 9.8125 72.90625 
L 19.671875 72.90625 
L 19.671875 8.296875 
L 55.171875 8.296875 
L 55.171875 0 
L 9.8125 0 
z
" id="DejaVuSans-76"/>
      <path d="M 56.203125 29.59375 
L 56.203125 25.203125 
L 14.890625 25.203125 
Q 15.484375 15.921875 20.484375 11.0625 
Q 25.484375 6.203125 34.421875 6.203125 
Q 39.59375 6.203125 44.453125 7.46875 
Q 49.3125 8.734375 54.109375 11.28125 
L 54.109375 2.78125 
Q 49.265625 0.734375 44.1875 -0.34375 
Q 39.109375 -1.421875 33.890625 -1.421875 
Q 20.796875 -1.421875 13.15625 6.1875 
Q 5.515625 13.8125 5.515625 26.8125 
Q 5.515625 40.234375 12.765625 48.109375 
Q 20.015625 56 32.328125 56 
Q 43.359375 56 49.78125 48.890625 
Q 56.203125 41.796875 56.203125 29.59375 
z
M 47.21875 32.234375 
Q 47.125 39.59375 43.09375 43.984375 
Q 39.0625 48.390625 32.421875 48.390625 
Q 24.90625 48.390625 20.390625 44.140625 
Q 15.875 39.890625 15.1875 32.171875 
z
" id="DejaVuSans-101"/>
      <path d="M 54.890625 33.015625 
L 54.890625 0 
L 45.90625 0 
L 45.90625 32.71875 
Q 45.90625 40.484375 42.875 44.328125 
Q 39.84375 48.1875 33.796875 48.1875 
Q 26.515625 48.1875 22.3125 43.546875 
Q 18.109375 38.921875 18.109375 30.90625 
L 18.109375 0 
L 9.078125 0 
L 9.078125 54.6875 
L 18.109375 54.6875 
L 18.109375 46.1875 
Q 21.34375 51.125 25.703125 53.5625 
Q 30.078125 56 35.796875 56 
Q 45.21875 56 50.046875 50.171875 
Q 54.890625 44.34375 54.890625 33.015625 
z
" id="DejaVuSans-110"/>
      <path d="M 45.40625 27.984375 
Q 45.40625 37.75 41.375 43.109375 
Q 37.359375 48.484375 30.078125 48.484375 
Q 22.859375 48.484375 18.828125 43.109375 
Q 14.796875 37.75 14.796875 27.984375 
Q 14.796875 18.265625 18.828125 12.890625 
Q 22.859375 7.515625 30.078125 7.515625 
Q 37.359375 7.515625 41.375 12.890625 
Q 45.40625 18.265625 45.40625 27.984375 
z
M 54.390625 6.78125 
Q 54.390625 -7.171875 48.1875 -13.984375 
Q 42 -20.796875 29.203125 -20.796875 
Q 24.46875 -20.796875 20.265625 -20.09375 
Q 16.0625 -19.390625 12.109375 -17.921875 
L 12.109375 -9.1875 
Q 16.0625 -11.328125 19.921875 -12.34375 
Q 23.78125 -13.375 27.78125 -13.375 
Q 36.625 -13.375 41.015625 -8.765625 
Q 45.40625 -4.15625 45.40625 5.171875 
L 45.40625 9.625 
Q 42.625 4.78125 38.28125 2.390625 
Q 33.9375 0 27.875 0 
Q 17.828125 0 11.671875 7.65625 
Q 5.515625 15.328125 5.515625 27.984375 
Q 5.515625 40.671875 11.671875 48.328125 
Q 17.828125 56 27.875 56 
Q 33.9375 56 38.28125 53.609375 
Q 42.625 51.21875 45.40625 46.390625 
L 45.40625 54.6875 
L 54.390625 54.6875 
z
" id="DejaVuSans-103"/>
      <path d="M 18.3125 70.21875 
L 18.3125 54.6875 
L 36.8125 54.6875 
L 36.8125 47.703125 
L 18.3125 47.703125 
L 18.3125 18.015625 
Q 18.3125 11.328125 20.140625 9.421875 
Q 21.96875 7.515625 27.59375 7.515625 
L 36.8125 7.515625 
L 36.8125 0 
L 27.59375 0 
Q 17.1875 0 13.234375 3.875 
Q 9.28125 7.765625 9.28125 18.015625 
L 9.28125 47.703125 
L 2.6875 47.703125 
L 2.6875 54.6875 
L 9.28125 54.6875 
L 9.28125 70.21875 
z
" id="DejaVuSans-116"/>
      <path d="M 54.890625 33.015625 
L 54.890625 0 
L 45.90625 0 
L 45.90625 32.71875 
Q 45.90625 40.484375 42.875 44.328125 
Q 39.84375 48.1875 33.796875 48.1875 
Q 26.515625 48.1875 22.3125 43.546875 
Q 18.109375 38.921875 18.109375 30.90625 
L 18.109375 0 
L 9.078125 0 
L 9.078125 75.984375 
L 18.109375 75.984375 
L 18.109375 46.1875 
Q 21.34375 51.125 25.703125 53.5625 
Q 30.078125 56 35.796875 56 
Q 45.21875 56 50.046875 50.171875 
Q 54.890625 44.34375 54.890625 33.015625 
z
" id="DejaVuSans-104"/>
      <path id="DejaVuSans-32"/>
      <path d="M -0.296875 72.90625 
L 61.375 72.90625 
L 61.375 64.59375 
L 35.5 64.59375 
L 35.5 0 
L 25.59375 0 
L 25.59375 64.59375 
L -0.296875 64.59375 
z
" id="DejaVuSans-84"/>
      <path d="M 41.109375 46.296875 
Q 39.59375 47.171875 37.8125 47.578125 
Q 36.03125 48 33.890625 48 
Q 26.265625 48 22.1875 43.046875 
Q 18.109375 38.09375 18.109375 28.8125 
L 18.109375 0 
L 9.078125 0 
L 9.078125 54.6875 
L 18.109375 54.6875 
L 18.109375 46.1875 
Q 20.953125 51.171875 25.484375 53.578125 
Q 30.03125 56 36.53125 56 
Q 37.453125 56 38.578125 55.875 
Q 39.703125 55.765625 41.0625 55.515625 
z
" id="DejaVuSans-114"/>
      <path d="M 9.421875 54.6875 
L 18.40625 54.6875 
L 18.40625 0 
L 9.421875 0 
z
M 9.421875 75.984375 
L 18.40625 75.984375 
L 18.40625 64.59375 
L 9.421875 64.59375 
z
" id="DejaVuSans-105"/>
      <path d="M 52 44.1875 
Q 55.375 50.25 60.0625 53.125 
Q 64.75 56 71.09375 56 
Q 79.640625 56 84.28125 50.015625 
Q 88.921875 44.046875 88.921875 33.015625 
L 88.921875 0 
L 79.890625 0 
L 79.890625 32.71875 
Q 79.890625 40.578125 77.09375 44.375 
Q 74.3125 48.1875 68.609375 48.1875 
Q 61.625 48.1875 57.5625 43.546875 
Q 53.515625 38.921875 53.515625 30.90625 
L 53.515625 0 
L 44.484375 0 
L 44.484375 32.71875 
Q 44.484375 40.625 41.703125 44.40625 
Q 38.921875 48.1875 33.109375 48.1875 
Q 26.21875 48.1875 22.15625 43.53125 
Q 18.109375 38.875 18.109375 30.90625 
L 18.109375 0 
L 9.078125 0 
L 9.078125 54.6875 
L 18.109375 54.6875 
L 18.109375 46.1875 
Q 21.1875 51.21875 25.484375 53.609375 
Q 29.78125 56 35.6875 56 
Q 41.65625 56 45.828125 52.96875 
Q 50 49.953125 52 44.1875 
z
" id="DejaVuSans-109"/>
      <path d="M 45.40625 46.390625 
L 45.40625 75.984375 
L 54.390625 75.984375 
L 54.390625 0 
L 45.40625 0 
L 45.40625 8.203125 
Q 42.578125 3.328125 38.25 0.953125 
Q 33.9375 -1.421875 27.875 -1.421875 
Q 17.96875 -1.421875 11.734375 6.484375 
Q 5.515625 14.40625 5.515625 27.296875 
Q 5.515625 40.1875 11.734375 48.09375 
Q 17.96875 56 27.875 56 
Q 33.9375 56 38.25 53.625 
Q 42.578125 51.265625 45.40625 46.390625 
z
M 14.796875 27.296875 
Q 14.796875 17.390625 18.875 11.75 
Q 22.953125 6.109375 30.078125 6.109375 
Q 37.203125 6.109375 41.296875 11.75 
Q 45.40625 17.390625 45.40625 27.296875 
Q 45.40625 37.203125 41.296875 42.84375 
Q 37.203125 48.484375 30.078125 48.484375 
Q 22.953125 48.484375 18.875 42.84375 
Q 14.796875 37.203125 14.796875 27.296875 
z
" id="DejaVuSans-100"/>
      <path d="M 31 75.875 
Q 24.46875 64.65625 21.28125 53.65625 
Q 18.109375 42.671875 18.109375 31.390625 
Q 18.109375 20.125 21.3125 9.0625 
Q 24.515625 -2 31 -13.1875 
L 23.1875 -13.1875 
Q 15.875 -1.703125 12.234375 9.375 
Q 8.59375 20.453125 8.59375 31.390625 
Q 8.59375 42.28125 12.203125 53.3125 
Q 15.828125 64.359375 23.1875 75.875 
z
" id="DejaVuSans-40"/>
      <path d="M 48.6875 27.296875 
Q 48.6875 37.203125 44.609375 42.84375 
Q 40.53125 48.484375 33.40625 48.484375 
Q 26.265625 48.484375 22.1875 42.84375 
Q 18.109375 37.203125 18.109375 27.296875 
Q 18.109375 17.390625 22.1875 11.75 
Q 26.265625 6.109375 33.40625 6.109375 
Q 40.53125 6.109375 44.609375 11.75 
Q 48.6875 17.390625 48.6875 27.296875 
z
M 18.109375 46.390625 
Q 20.953125 51.265625 25.265625 53.625 
Q 29.59375 56 35.59375 56 
Q 45.5625 56 51.78125 48.09375 
Q 58.015625 40.1875 58.015625 27.296875 
Q 58.015625 14.40625 51.78125 6.484375 
Q 45.5625 -1.421875 35.59375 -1.421875 
Q 29.59375 -1.421875 25.265625 0.953125 
Q 20.953125 3.328125 18.109375 8.203125 
L 18.109375 0 
L 9.078125 0 
L 9.078125 75.984375 
L 18.109375 75.984375 
z
" id="DejaVuSans-98"/>
      <path d="M 18.109375 8.203125 
L 18.109375 -20.796875 
L 9.078125 -20.796875 
L 9.078125 54.6875 
L 18.109375 54.6875 
L 18.109375 46.390625 
Q 20.953125 51.265625 25.265625 53.625 
Q 29.59375 56 35.59375 56 
Q 45.5625 56 51.78125 48.09375 
Q 58.015625 40.1875 58.015625 27.296875 
Q 58.015625 14.40625 51.78125 6.484375 
Q 45.5625 -1.421875 35.59375 -1.421875 
Q 29.59375 -1.421875 25.265625 0.953125 
Q 20.953125 3.328125 18.109375 8.203125 
z
M 48.6875 27.296875 
Q 48.6875 37.203125 44.609375 42.84375 
Q 40.53125 48.484375 33.40625 48.484375 
Q 26.265625 48.484375 22.1875 42.84375 
Q 18.109375 37.203125 18.109375 27.296875 
Q 18.109375 17.390625 22.1875 11.75 
Q 26.265625 6.109375 33.40625 6.109375 
Q 40.53125 6.109375 44.609375 11.75 
Q 48.6875 17.390625 48.6875 27.296875 
z
" id="DejaVuSans-112"/>
      <path d="M 8.015625 75.875 
L 15.828125 75.875 
Q 23.140625 64.359375 26.78125 53.3125 
Q 30.421875 42.28125 30.421875 31.390625 
Q 30.421875 20.453125 26.78125 9.375 
Q 23.140625 -1.703125 15.828125 -13.1875 
L 8.015625 -13.1875 
Q 14.5 -2 17.703125 9.0625 
Q 20.90625 20.125 20.90625 31.390625 
Q 20.90625 42.671875 17.703125 53.65625 
Q 14.5 64.65625 8.015625 75.875 
z
" id="DejaVuSans-41"/>
     </defs>
     <g transform="translate(472.4475 379.564837)scale(0.1 -0.1)">
      <use xlink:href="#DejaVuSans-76"/>
      <use x="55.697266" xlink:href="#DejaVuSans-101"/>
      <use x="117.220703" xlink:href="#DejaVuSans-110"/>
      <use x="180.599609" xlink:href="#DejaVuSans-103"/>
      <use x="244.076172" xlink:href="#DejaVuSans-116"/>
      <use x="283.285156" xlink:href="#DejaVuSans-104"/>
      <use x="346.664062" xlink:href="#DejaVuSans-32"/>
      <use x="378.451172" xlink:href="#DejaVuSans-84"/>
      <use x="439.316406" xlink:href="#DejaVuSans-114"/>
      <use x="480.429688" xlink:href="#DejaVuSans-105"/>
      <use x="508.212891" xlink:href="#DejaVuSans-109"/>
      <use x="605.625" xlink:href="#DejaVuSans-109"/>
      <use x="703.037109" xlink:href="#DejaVuSans-101"/>
      <use x="764.560547" xlink:href="#DejaVuSans-100"/>
      <use x="828.037109" xlink:href="#DejaVuSans-32"/>
      <use x="859.824219" xlink:href="#DejaVuSans-40"/>
      <use x="898.837891" xlink:href="#DejaVuSans-98"/>
      <use x="962.314453" xlink:href="#DejaVuSans-112"/>
      <use x="1025.791016" xlink:href="#DejaVuSans-41"/>
     </g>
    </g>
   </g>
   <g id="matplotlib.axis_2">
    <g id="ytick_1">
     <g id="line2d_1">
      <path clip-path="url(#p137a36c566)" d="M 58.418125 353.2239 
L 992.958125 353.2239 
" style="fill:none;stroke:#dedede;stroke-linecap:square;"/>
     </g>
     <g id="text_7">
      <!-- 0 -->
      <g transform="translate(46.328125 356.263275)scale(0.08 -0.08)">
       <use xlink:href="#DejaVuSans-48"/>
      </g>
     </g>
    </g>
    <g id="ytick_2">
     <g id="line2d_2">
      <path clip-path="url(#p137a36c566)" d="M 58.418125 303.434107 
L 992.958125 303.434107 
" style="fill:none;stroke:#dedede;stroke-linecap:square;"/>
     </g>
     <g id="text_8">
      <!-- 100000 -->
      <g transform="translate(20.878125 306.473482)scale(0.08 -0.08)">
       <use xlink:href="#DejaVuSans-49"/>
       <use x="63.623047" xlink:href="#DejaVuSans-48"/>
       <use x="127.246094" xlink:href="#DejaVuSans-48"/>
       <use x="190.869141" xlink:href="#DejaVuSans-48"/>
       <use x="254.492188" xlink:href="#DejaVuSans-48"/>
       <use x="318.115234" xlink:href="#DejaVuSans-48"/>
      </g>
     </g>
    </g>
    <g id="ytick_3">
     <g id="line2d_3">
      <path clip-path="url(#p137a36c566)" d="M 58.418125 253.644314 
L 992.958125 253.644314 
" style="fill:none;stroke:#dedede;stroke-linecap:square;"/>
     </g>
     <g id="text_9">
      <!-- 200000 -->
      <g transform="translate(20.878125 256.683689)scale(0.08 -0.08)">
       <use xlink:href="#DejaVuSans-50"/>
       <use x="63.623047" xlink:href="#DejaVuSans-48"/>
       <use x="127.246094" xlink:href="#DejaVuSans-48"/>
       <use x="190.869141" xlink:href="#DejaVuSans-48"/>
       <use x="254.492188" xlink:href="#DejaVuSans-48"/>
       <use x="318.115234" xlink:href="#DejaVuSans-48"/>
      </g>
     </g>
    </g>
    <g id="ytick_4">
     <g id="line2d_4">
      <path clip-path="url(#p137a36c566)" d="M 58.418125 203.854521 
L 992.958125 203.854521 
" style="fill:none;stroke:#dedede;stroke-linecap:square;"/>
     </g>
     <g id="text_10">
      <!-- 300000 -->
      <g transform="translate(20.878125 206.893896)scale(0.08 -0.08)">
       <use xlink:href="#DejaVuSans-51"/>
       <use x="63.623047" xlink:href="#DejaVuSans-48"/>
       <use x="127.246094" xlink:href="#DejaVuSans-48"/>
       <use x="190.869141" xlink:href="#DejaVuSans-48"/>
       <use x="254.492188" xlink:href="#DejaVuSans-48"/>
       <use x="318.115234" xlink:href="#DejaVuSans-48"/>
      </g>
     </g>
    </g>
    <g id="ytick_5">
     <g id="line2d_5">
      <path clip-path="url(#p137a36c566)" d="M 58.418125 154.064728 
L 992.958125 154.064728 
" style="fill:none;stroke:#dedede;stroke-linecap:square;"/>
     </g>
     <g id="text_11">
      <!-- 400000 -->
      <g transform="translate(20.878125 157.104103)scale(0.08 -0.08)">
       <use xlink:href="#DejaVuSans-52"/>
       <use x="63.623047" xlink:href="#DejaVuSans-48"/>
       <use x="127.246094" xlink:href="#DejaVuSans-48"/>
       <use x="190.869141" xlink:href="#DejaVuSans-48"/>
       <use x="254.492188" xlink:href="#DejaVuSans-48"/>
       <use x="318.115234" xlink:href="#DejaVuSans-48"/>
      </g>
     </g>
    </g>
    <g id="ytick_6">
     <g id="line2d_6">
      <path clip-path="url(#p137a36c566)" d="M 58.418125 104.274934 
L 992.958125 104.274934 
" style="fill:none;stroke:#dedede;stroke-linecap:square;"/>
     </g>
     <g id="text_12">
      <!-- 500000 -->
      <g transform="translate(20.878125 107.314309)scale(0.08 -0.08)">
       <use xlink:href="#DejaVuSans-53"/>
       <use x="63.623047" xlink:href="#DejaVuSans-48"/>
       <use x="127.246094" xlink:href="#DejaVuSans-48"/>
       <use x="190.869141" xlink:href="#DejaVuSans-48"/>
       <use x="254.492188" xlink:href="#DejaVuSans-48"/>
       <use x="318.115234" xlink:href="#DejaVuSans-48"/>
      </g>
     </g>
    </g>
    <g id="ytick_7">
     <g id="line2d_7">
      <path clip-path="url(#p137a36c566)" d="M 58.418125 54.485141 
L 992.958125 54.485141 
" style="fill:none;stroke:#dedede;stroke-linecap:square;"/>
     </g>
     <g id="text_13">
      <!-- 600000 -->
      <defs>
       <path d="M 33.015625 40.375 
Q 26.375 40.375 22.484375 35.828125 
Q 18.609375 31.296875 18.609375 23.390625 
Q 18.609375 15.53125 22.484375 10.953125 
Q 26.375 6.390625 33.015625 6.390625 
Q 39.65625 6.390625 43.53125 10.953125 
Q 47.40625 15.53125 47.40625 23.390625 
Q 47.40625 31.296875 43.53125 35.828125 
Q 39.65625 40.375 33.015625 40.375 
z
M 52.59375 71.296875 
L 52.59375 62.3125 
Q 48.875 64.0625 45.09375 64.984375 
Q 41.3125 65.921875 37.59375 65.921875 
Q 27.828125 65.921875 22.671875 59.328125 
Q 17.53125 52.734375 16.796875 39.40625 
Q 19.671875 43.65625 24.015625 45.921875 
Q 28.375 48.1875 33.59375 48.1875 
Q 44.578125 48.1875 50.953125 41.515625 
Q 57.328125 34.859375 57.328125 23.390625 
Q 57.328125 12.15625 50.6875 5.359375 
Q 44.046875 -1.421875 33.015625 -1.421875 
Q 20.359375 -1.421875 13.671875 8.265625 
Q 6.984375 17.96875 6.984375 36.375 
Q 6.984375 53.65625 15.1875 63.9375 
Q 23.390625 74.21875 37.203125 74.21875 
Q 40.921875 74.21875 44.703125 73.484375 
Q 48.484375 72.75 52.59375 71.296875 
z
" id="DejaVuSans-54"/>
      </defs>
      <g transform="translate(20.878125 57.524516)scale(0.08 -0.08)">
       <use xlink:href="#DejaVuSans-54"/>
       <use x="63.623047" xlink:href="#DejaVuSans-48"/>
       <use x="127.246094" xlink:href="#DejaVuSans-48"/>
       <use x="190.869141" xlink:href="#DejaVuSans-48"/>
       <use x="254.492188" xlink:href="#DejaVuSans-48"/>
       <use x="318.115234" xlink:href="#DejaVuSans-48"/>
      </g>
     </g>
    </g>
    <g id="text_14">
     <!-- Count -->
     <defs>
      <path d="M 64.40625 67.28125 
L 64.40625 56.890625 
Q 59.421875 61.53125 53.78125 63.8125 
Q 48.140625 66.109375 41.796875 66.109375 
Q 29.296875 66.109375 22.65625 58.46875 
Q 16.015625 50.828125 16.015625 36.375 
Q 16.015625 21.96875 22.65625 14.328125 
Q 29.296875 6.6875 41.796875 6.6875 
Q 48.140625 6.6875 53.78125 8.984375 
Q 59.421875 11.28125 64.40625 15.921875 
L 64.40625 5.609375 
Q 59.234375 2.09375 53.4375 0.328125 
Q 47.65625 -1.421875 41.21875 -1.421875 
Q 24.65625 -1.421875 15.125 8.703125 
Q 5.609375 18.84375 5.609375 36.375 
Q 5.609375 53.953125 15.125 64.078125 
Q 24.65625 74.21875 41.21875 74.21875 
Q 47.75 74.21875 53.53125 72.484375 
Q 59.328125 70.75 64.40625 67.28125 
z
" id="DejaVuSans-67"/>
      <path d="M 30.609375 48.390625 
Q 23.390625 48.390625 19.1875 42.75 
Q 14.984375 37.109375 14.984375 27.296875 
Q 14.984375 17.484375 19.15625 11.84375 
Q 23.34375 6.203125 30.609375 6.203125 
Q 37.796875 6.203125 41.984375 11.859375 
Q 46.1875 17.53125 46.1875 27.296875 
Q 46.1875 37.015625 41.984375 42.703125 
Q 37.796875 48.390625 30.609375 48.390625 
z
M 30.609375 56 
Q 42.328125 56 49.015625 48.375 
Q 55.71875 40.765625 55.71875 27.296875 
Q 55.71875 13.875 49.015625 6.21875 
Q 42.328125 -1.421875 30.609375 -1.421875 
Q 18.84375 -1.421875 12.171875 6.21875 
Q 5.515625 13.875 5.515625 27.296875 
Q 5.515625 40.765625 12.171875 48.375 
Q 18.84375 56 30.609375 56 
z
" id="DejaVuSans-111"/>
      <path d="M 8.5 21.578125 
L 8.5 54.6875 
L 17.484375 54.6875 
L 17.484375 21.921875 
Q 17.484375 14.15625 20.5 10.265625 
Q 23.53125 6.390625 29.59375 6.390625 
Q 36.859375 6.390625 41.078125 11.03125 
Q 45.3125 15.671875 45.3125 23.6875 
L 45.3125 54.6875 
L 54.296875 54.6875 
L 54.296875 0 
L 45.3125 0 
L 45.3125 8.40625 
Q 42.046875 3.421875 37.71875 1 
Q 33.40625 -1.421875 27.6875 -1.421875 
Q 18.265625 -1.421875 13.375 4.4375 
Q 8.5 10.296875 8.5 21.578125 
z
M 31.109375 56 
z
" id="DejaVuSans-117"/>
     </defs>
     <g transform="translate(14.798438 209.088338)rotate(-90)scale(0.1 -0.1)">
      <use xlink:href="#DejaVuSans-67"/>
      <use x="69.824219" xlink:href="#DejaVuSans-111"/>
      <use x="131.005859" xlink:href="#DejaVuSans-117"/>
      <use x="194.384766" xlink:href="#DejaVuSans-110"/>
      <use x="257.763672" xlink:href="#DejaVuSans-116"/>
     </g>
    </g>
   </g>
   <g id="line2d_8">
    <path clip-path="url(#p137a36c566)" d="M 100.897216 64.903158 
L 118.596837 292.142778 
L 136.296458 341.102575 
L 153.99608 352.485019 
L 171.695701 352.850974 
L 189.395322 353.110379 
L 207.094943 352.905245 
L 224.794564 352.848485 
L 242.494186 352.898773 
L 260.193807 353.1054 
L 277.893428 353.173114 
L 295.593049 353.162161 
L 313.29267 353.182077 
L 330.992292 353.175106 
L 348.691913 353.187056 
L 366.391534 353.18357 
L 384.091155 353.191537 
L 401.790777 353.193528 
L 419.490398 353.198009 
L 437.190019 353.197014 
L 454.88964 353.196018 
L 472.589261 353.202988 
L 490.288883 353.202988 
L 507.988504 353.193528 
L 525.688125 353.201992 
L 543.387746 353.196018 
L 561.087367 353.193528 
L 578.786989 353.181579 
L 596.48661 353.187056 
L 614.186231 353.184068 
L 631.885852 353.192035 
L 649.585473 353.20249 
L 667.285095 353.188051 
L 684.984716 353.089965 
L 702.684337 353.189545 
L 720.383958 353.193528 
L 738.08358 353.172617 
L 755.783201 353.205976 
L 773.482822 353.200499 
L 791.182443 353.196516 
L 808.882064 353.198009 
L 826.581686 353.188549 
L 844.281307 353.188051 
L 861.980928 353.168633 
L 879.680549 353.194524 
L 897.38017 353.16714 
L 915.079792 353.197511 
L 932.779413 353.210457 
L 950.479034 353.128801 
" style="fill:none;stroke:#7cb5ec;stroke-linecap:square;"/>
   </g>
   <g id="line2d_9">
    <path clip-path="url(#p137a36c566)" d="M 100.897216 60.143253 
L 118.596837 288.609694 
L 136.296458 340.954201 
L 153.99608 352.505433 
L 171.695701 352.859937 
L 189.395322 353.099426 
L 207.094943 352.92068 
L 224.794564 352.832552 
L 242.494186 352.943086 
L 260.193807 353.104404 
L 277.893428 353.176102 
L 295.593049 353.179089 
L 313.29267 353.18606 
L 330.992292 353.190043 
L 348.691913 353.19552 
L 366.391534 353.183072 
L 384.091155 353.199005 
L 401.790777 353.20249 
L 419.490398 353.205478 
L 437.190019 353.203486 
L 454.88964 353.191537 
L 472.589261 353.209461 
L 490.288883 353.198507 
L 507.988504 353.189545 
L 525.688125 353.201495 
L 543.387746 353.206971 
L 561.087367 353.201495 
L 578.786989 353.188051 
L 596.48661 353.186558 
L 614.186231 353.181579 
L 631.885852 353.196018 
L 649.585473 353.198507 
L 667.285095 353.188051 
L 684.984716 353.113865 
L 702.684337 353.191039 
L 720.383958 353.196018 
L 738.08358 353.182077 
L 755.783201 353.207967 
L 773.482822 353.198009 
L 791.182443 353.203984 
L 808.882064 353.191039 
L 826.581686 353.191537 
L 844.281307 353.196516 
L 861.980928 353.172119 
L 879.680549 353.189047 
L 897.38017 353.173612 
L 915.079792 353.200499 
L 932.779413 353.212946 
L 950.479034 353.181579 
" style="fill:none;stroke:#434348;stroke-linecap:square;"/>
   </g>
   <g id="line2d_10">
    <path clip-path="url(#p137a36c566)" d="M 100.897216 55.314639 
L 118.596837 287.038328 
L 136.296458 340.76749 
L 153.99608 352.501948 
L 171.695701 352.869895 
L 189.395322 353.09843 
L 207.094943 352.928647 
L 224.794564 352.850477 
L 242.494186 352.91371 
L 260.193807 353.104902 
L 277.893428 353.165148 
L 295.593049 353.16465 
L 313.29267 353.188549 
L 330.992292 353.181579 
L 348.691913 353.188051 
L 366.391534 353.195022 
L 384.091155 353.200499 
L 401.790777 353.194524 
L 419.490398 353.204482 
L 437.190019 353.206474 
L 454.88964 353.19552 
L 472.589261 353.204482 
L 490.288883 353.203486 
L 507.988504 353.19552 
L 525.688125 353.206474 
L 543.387746 353.203486 
L 561.087367 353.201495 
L 578.786989 353.189545 
L 596.48661 353.178591 
L 614.186231 353.190043 
L 631.885852 353.200997 
L 649.585473 353.201495 
L 667.285095 353.196516 
L 684.984716 353.136768 
L 702.684337 353.194026 
L 720.383958 353.203486 
L 738.08358 353.186558 
L 755.783201 353.210457 
L 773.482822 353.19552 
L 791.182443 353.205976 
L 808.882064 353.198009 
L 826.581686 353.193528 
L 844.281307 353.198507 
L 861.980928 353.15519 
L 879.680549 353.19552 
L 897.38017 353.176102 
L 915.079792 353.210955 
L 932.779413 353.213444 
L 950.479034 353.160667 
" style="fill:none;stroke:#90ed7d;stroke-linecap:square;"/>
   </g>
   <g id="line2d_11">
    <path clip-path="url(#p137a36c566)" d="M 100.897216 58.938838 
L 118.596837 288.738152 
L 136.296458 340.647496 
L 153.99608 352.446681 
L 171.695701 352.87089 
L 189.395322 353.096438 
L 207.094943 352.877861 
L 224.794564 352.85197 
L 242.494186 352.933128 
L 260.193807 353.101417 
L 277.893428 353.163156 
L 295.593049 353.170625 
L 313.29267 353.18357 
L 330.992292 353.189545 
L 348.691913 353.194026 
L 366.391534 353.185562 
L 384.091155 353.194524 
L 401.790777 353.191039 
L 419.490398 353.205478 
L 437.190019 353.199005 
L 454.88964 353.199005 
L 472.589261 353.206971 
L 490.288883 353.200499 
L 507.988504 353.198009 
L 525.688125 353.20498 
L 543.387746 353.198507 
L 561.087367 353.201495 
L 578.786989 353.19303 
L 596.48661 353.179587 
L 614.186231 353.19303 
L 631.885852 353.191537 
L 649.585473 353.20498 
L 667.285095 353.19303 
L 684.984716 353.137266 
L 702.684337 353.197511 
L 720.383958 353.196516 
L 738.08358 353.189545 
L 755.783201 353.207469 
L 773.482822 353.207967 
L 791.182443 353.19303 
L 808.882064 353.189545 
L 826.581686 353.189545 
L 844.281307 353.189047 
L 861.980928 353.180583 
L 879.680549 353.194524 
L 897.38017 353.175604 
L 915.079792 353.211453 
L 932.779413 353.212448 
L 950.479034 353.141249 
" style="fill:none;stroke:#f7a35c;stroke-linecap:square;"/>
   </g>
   <g id="line2d_12">
    <path clip-path="url(#p137a36c566)" d="M 100.897216 59.691162 
L 118.596837 293.506022 
L 136.296458 337.665088 
L 153.99608 352.165867 
L 171.695701 352.806164 
L 189.395322 353.150709 
L 207.094943 352.90425 
L 224.794564 352.765834 
L 242.494186 352.870392 
L 260.193807 352.952546 
L 277.893428 353.151705 
L 295.593049 353.080505 
L 313.29267 353.160667 
L 330.992292 353.16714 
L 348.691913 353.1766 
L 366.391534 353.183072 
L 384.091155 353.194524 
L 401.790777 353.197014 
L 419.490398 353.199503 
L 437.190019 353.127308 
L 454.88964 353.154194 
L 472.589261 353.181579 
L 490.288883 353.175106 
L 507.988504 353.156684 
L 525.688125 353.181579 
L 543.387746 353.192035 
L 561.087367 353.187553 
L 578.786989 353.138262 
L 596.48661 353.127308 
L 614.186231 353.190043 
L 631.885852 353.207967 
L 649.585473 353.191039 
L 667.285095 353.206474 
L 684.984716 353.206971 
L 702.684337 353.202988 
L 720.383958 353.191537 
L 738.08358 353.210457 
L 755.783201 353.209461 
L 773.482822 353.205478 
L 791.182443 353.201992 
L 808.882064 353.170127 
L 826.581686 353.210457 
L 844.281307 353.171123 
L 861.980928 353.157182 
L 879.680549 353.181579 
L 897.38017 353.170625 
L 915.079792 353.197511 
L 932.779413 353.199503 
L 950.479034 352.472572 
" style="fill:none;stroke:#8085e9;stroke-linecap:square;"/>
   </g>
   <g id="line2d_13">
    <path clip-path="url(#p137a36c566)" d="M 100.897216 56.824764 
L 118.596837 295.346751 
L 136.296458 339.107996 
L 153.99608 352.286856 
L 171.695701 352.945077 
L 189.395322 353.160667 
L 207.094943 352.910224 
L 224.794564 352.819109 
L 242.494186 352.948562 
L 260.193807 353.085484 
L 277.893428 353.143738 
L 295.593049 353.057104 
L 313.29267 353.136768 
L 330.992292 353.146726 
L 348.691913 353.170625 
L 366.391534 353.182077 
L 384.091155 353.186558 
L 401.790777 353.195022 
L 419.490398 353.204482 
L 437.190019 353.067062 
L 454.88964 353.141747 
L 472.589261 353.181081 
L 490.288883 353.15519 
L 507.988504 353.115856 
L 525.688125 353.171621 
L 543.387746 353.184566 
L 561.087367 353.185562 
L 578.786989 353.143738 
L 596.48661 353.140253 
L 614.186231 353.185562 
L 631.885852 353.199005 
L 649.585473 353.192532 
L 667.285095 353.197014 
L 684.984716 353.196018 
L 702.684337 353.201992 
L 720.383958 353.196018 
L 738.08358 353.203984 
L 755.783201 353.199005 
L 773.482822 353.20249 
L 791.182443 353.196516 
L 808.882064 353.142245 
L 826.581686 353.207967 
L 844.281307 353.162659 
L 861.980928 353.146726 
L 879.680549 353.200997 
L 897.38017 353.151207 
L 915.079792 353.207967 
L 932.779413 353.207469 
L 950.479034 352.816122 
" style="fill:none;stroke:#f15c80;stroke-linecap:square;"/>
   </g>
   <g id="line2d_14">
    <path clip-path="url(#p137a36c566)" d="M 100.897216 60.573437 
L 118.596837 296.323129 
L 136.296458 338.836143 
L 153.99608 352.196239 
L 171.695701 352.829067 
L 189.395322 353.106894 
L 207.094943 352.800687 
L 224.794564 352.689158 
L 242.494186 352.875371 
L 260.193807 353.050134 
L 277.893428 353.115358 
L 295.593049 353.024741 
L 313.29267 353.118844 
L 330.992292 353.122329 
L 348.691913 353.15519 
L 366.391534 353.170127 
L 384.091155 353.183072 
L 401.790777 353.180085 
L 419.490398 353.20498 
L 437.190019 353.069054 
L 454.88964 353.107392 
L 472.589261 353.183072 
L 490.288883 353.158675 
L 507.988504 353.102413 
L 525.688125 353.146228 
L 543.387746 353.180583 
L 561.087367 353.172617 
L 578.786989 353.102413 
L 596.48661 353.11486 
L 614.186231 353.180085 
L 631.885852 353.19552 
L 649.585473 353.181081 
L 667.285095 353.18606 
L 684.984716 353.196018 
L 702.684337 353.196018 
L 720.383958 353.180085 
L 738.08358 353.198009 
L 755.783201 353.200001 
L 773.482822 353.205478 
L 791.182443 353.188051 
L 808.882064 353.104404 
L 826.581686 353.202988 
L 844.281307 353.175106 
L 861.980928 353.130295 
L 879.680549 353.18606 
L 897.38017 353.144236 
L 915.079792 353.201495 
L 932.779413 353.205478 
L 950.479034 352.911718 
" style="fill:none;stroke:#e4d354;stroke-linecap:square;"/>
   </g>
   <g id="line2d_15">
    <path clip-path="url(#p137a36c566)" d="M 100.897216 50.396901 
L 118.596837 295.061953 
L 136.296458 337.714877 
L 153.99608 352.25748 
L 171.695701 352.875371 
L 189.395322 353.127806 
L 207.094943 352.850974 
L 224.794564 352.759859 
L 242.494186 352.881346 
L 260.193807 353.077518 
L 277.893428 353.140751 
L 295.593049 353.047146 
L 313.29267 353.127308 
L 330.992292 353.121333 
L 348.691913 353.159671 
L 366.391534 353.166642 
L 384.091155 353.176102 
L 401.790777 353.169131 
L 419.490398 353.199503 
L 437.190019 353.031214 
L 454.88964 353.113367 
L 472.589261 353.165148 
L 490.288883 353.147224 
L 507.988504 353.085484 
L 525.688125 353.137266 
L 543.387746 353.16465 
L 561.087367 353.165148 
L 578.786989 353.112371 
L 596.48661 353.126312 
L 614.186231 353.173114 
L 631.885852 353.182077 
L 649.585473 353.194026 
L 667.285095 353.192532 
L 684.984716 353.196516 
L 702.684337 353.192035 
L 720.383958 353.18357 
L 738.08358 353.202988 
L 755.783201 353.202988 
L 773.482822 353.201495 
L 791.182443 353.197014 
L 808.882064 353.1054 
L 826.581686 353.201992 
L 844.281307 353.168135 
L 861.980928 353.123325 
L 879.680549 353.181081 
L 897.38017 353.160169 
L 915.079792 353.196516 
L 932.779413 353.20249 
L 950.479034 353.058598 
" style="fill:none;stroke:#2b908f;stroke-linecap:square;"/>
   </g>
   <g id="line2d_16">
    <path clip-path="url(#p137a36c566)" d="M 100.897216 57.491947 
L 118.596837 295.782411 
L 136.296458 338.272025 
L 153.99608 352.292333 
L 171.695701 352.940098 
L 189.395322 353.142245 
L 207.094943 352.914207 
L 224.794564 352.770813 
L 242.494186 352.937111 
L 260.193807 353.056108 
L 277.893428 353.136768 
L 295.593049 353.053121 
L 313.29267 353.140751 
L 330.992292 353.124818 
L 348.691913 353.168135 
L 366.391534 353.173612 
L 384.091155 353.183072 
L 401.790777 353.176102 
L 419.490398 353.206971 
L 437.190019 353.067062 
L 454.88964 353.12681 
L 472.589261 353.17411 
L 490.288883 353.139755 
L 507.988504 353.120835 
L 525.688125 353.151207 
L 543.387746 353.184068 
L 561.087367 353.179587 
L 578.786989 353.111375 
L 596.48661 353.116354 
L 614.186231 353.172119 
L 631.885852 353.189545 
L 649.585473 353.175106 
L 667.285095 353.200997 
L 684.984716 353.199005 
L 702.684337 353.200997 
L 720.383958 353.189047 
L 738.08358 353.200997 
L 755.783201 353.197511 
L 773.482822 353.199005 
L 791.182443 353.189047 
L 808.882064 353.102413 
L 826.581686 353.206971 
L 844.281307 353.163156 
L 861.980928 353.1054 
L 879.680549 353.18357 
L 897.38017 353.163654 
L 915.079792 353.20249 
L 932.779413 353.207967 
L 950.479034 353.066066 
" style="fill:none;stroke:#f45b5b;stroke-linecap:square;"/>
   </g>
   <g id="line2d_17">
    <path clip-path="url(#p137a36c566)" d="M 100.897216 59.723028 
L 118.596837 296.3062 
L 136.296458 338.532924 
L 153.99608 352.296316 
L 171.695701 352.909726 
L 189.395322 353.126312 
L 207.094943 352.859937 
L 224.794564 352.73845 
L 242.494186 352.906739 
L 260.193807 353.06756 
L 277.893428 353.132785 
L 295.593049 353.037686 
L 313.29267 353.12681 
L 330.992292 353.119839 
L 348.691913 353.162161 
L 366.391534 353.166144 
L 384.091155 353.176102 
L 401.790777 353.178591 
L 419.490398 353.199005 
L 437.190019 353.03669 
L 454.88964 353.103907 
L 472.589261 353.175604 
L 490.288883 353.141249 
L 507.988504 353.089468 
L 525.688125 353.129797 
L 543.387746 353.177098 
L 561.087367 353.165148 
L 578.786989 353.135274 
L 596.48661 353.127806 
L 614.186231 353.177098 
L 631.885852 353.189047 
L 649.585473 353.179089 
L 667.285095 353.188051 
L 684.984716 353.200499 
L 702.684337 353.201992 
L 720.383958 353.185064 
L 738.08358 353.20498 
L 755.783201 353.208963 
L 773.482822 353.196018 
L 791.182443 353.193528 
L 808.882064 353.100421 
L 826.581686 353.210457 
L 844.281307 353.169131 
L 861.980928 353.131789 
L 879.680549 353.187553 
L 897.38017 353.156684 
L 915.079792 353.207967 
L 932.779413 353.202988 
L 950.479034 352.926655 
" style="fill:none;stroke:#91e8e1;stroke-linecap:square;"/>
   </g>
   <g id="line2d_18">
    <path clip-path="url(#p137a36c566)" d="M 100.897216 59.851485 
L 118.596837 286.983559 
L 136.296458 340.623099 
L 153.99608 352.412824 
L 171.695701 352.84251 
L 189.395322 353.087476 
L 207.094943 352.883836 
L 224.794564 352.813134 
L 242.494186 352.895287 
L 260.193807 353.108886 
L 277.893428 353.158177 
L 295.593049 353.166642 
L 313.29267 353.1766 
L 330.992292 353.175106 
L 348.691913 353.178591 
L 366.391534 353.191039 
L 384.091155 353.19552 
L 401.790777 353.19552 
L 419.490398 353.211453 
L 437.190019 353.20249 
L 454.88964 353.19552 
L 472.589261 353.201495 
L 490.288883 353.200499 
L 507.988504 353.20249 
L 525.688125 353.198507 
L 543.387746 353.208465 
L 561.087367 353.209461 
L 578.786989 353.198507 
L 596.48661 353.19552 
L 614.186231 353.201495 
L 631.885852 353.196516 
L 649.585473 353.201992 
L 667.285095 353.201992 
L 684.984716 353.201992 
L 702.684337 353.206474 
L 720.383958 353.203984 
L 738.08358 353.189545 
L 755.783201 353.197511 
L 773.482822 353.199005 
L 791.182443 353.207967 
L 808.882064 353.200499 
L 826.581686 353.203984 
L 844.281307 353.196018 
L 861.980928 353.168633 
L 879.680549 353.206971 
L 897.38017 353.172119 
L 915.079792 353.209959 
L 932.779413 353.215436 
L 950.479034 353.150709 
" style="fill:none;stroke:#7cb5ec;stroke-linecap:square;"/>
   </g>
   <g id="line2d_19">
    <path clip-path="url(#p137a36c566)" d="M 100.897216 53.282718 
L 118.596837 286.516531 
L 136.296458 340.620112 
L 153.99608 352.402368 
L 171.695701 352.803674 
L 189.395322 353.040176 
L 207.094943 352.840519 
L 224.794564 352.752391 
L 242.494186 352.875371 
L 260.193807 353.089468 
L 277.893428 353.146228 
L 295.593049 353.14822 
L 313.29267 353.171621 
L 330.992292 353.170625 
L 348.691913 353.179089 
L 366.391534 353.176102 
L 384.091155 353.188549 
L 401.790777 353.188051 
L 419.490398 353.20249 
L 437.190019 353.202988 
L 454.88964 353.191039 
L 472.589261 353.206971 
L 490.288883 353.200001 
L 507.988504 353.195022 
L 525.688125 353.198009 
L 543.387746 353.201992 
L 561.087367 353.202988 
L 578.786989 353.188549 
L 596.48661 353.196018 
L 614.186231 353.191537 
L 631.885852 353.194524 
L 649.585473 353.192532 
L 667.285095 353.190541 
L 684.984716 353.19552 
L 702.684337 353.196018 
L 720.383958 353.197511 
L 738.08358 353.183072 
L 755.783201 353.194026 
L 773.482822 353.204482 
L 791.182443 353.199005 
L 808.882064 353.197014 
L 826.581686 353.196018 
L 844.281307 353.192532 
L 861.980928 353.167638 
L 879.680549 353.200499 
L 897.38017 353.170625 
L 915.079792 353.20249 
L 932.779413 353.209959 
L 950.479034 353.140253 
" style="fill:none;stroke:#434348;stroke-linecap:square;"/>
   </g>
   <g id="line2d_20">
    <path clip-path="url(#p137a36c566)" d="M 100.897216 60.025252 
L 118.596837 293.655392 
L 136.296458 336.553779 
L 153.99608 352.093672 
L 171.695701 352.813134 
L 189.395322 353.132785 
L 207.094943 352.833548 
L 224.794564 352.765336 
L 242.494186 352.850477 
L 260.193807 353.057104 
L 277.893428 353.144236 
L 295.593049 353.062581 
L 313.29267 353.117848 
L 330.992292 353.130793 
L 348.691913 353.163654 
L 366.391534 353.18357 
L 384.091155 353.188051 
L 401.790777 353.177595 
L 419.490398 353.204482 
L 437.190019 353.068556 
L 454.88964 353.130793 
L 472.589261 353.175106 
L 490.288883 353.154692 
L 507.988504 353.118844 
L 525.688125 353.159671 
L 543.387746 353.186558 
L 561.087367 353.188549 
L 578.786989 353.134278 
L 596.48661 353.110379 
L 614.186231 353.177098 
L 631.885852 353.196516 
L 649.585473 353.193528 
L 667.285095 353.191537 
L 684.984716 353.205478 
L 702.684337 353.200001 
L 720.383958 353.187553 
L 738.08358 353.210955 
L 755.783201 353.205478 
L 773.482822 353.203486 
L 791.182443 353.195022 
L 808.882064 353.16714 
L 826.581686 353.208963 
L 844.281307 353.166144 
L 861.980928 353.141249 
L 879.680549 353.190541 
L 897.38017 353.160667 
L 915.079792 353.203486 
L 932.779413 353.207469 
L 950.479034 353.066066 
" style="fill:none;stroke:#90ed7d;stroke-linecap:square;"/>
   </g>
   <g id="line2d_21">
    <path clip-path="url(#p137a36c566)" d="M 100.897216 58.074985 
L 118.596837 287.096084 
L 136.296458 340.588246 
L 153.99608 352.367516 
L 171.695701 352.776788 
L 189.395322 353.050134 
L 207.094943 352.841514 
L 224.794564 352.767825 
L 242.494186 352.859937 
L 260.193807 353.060092 
L 277.893428 353.138262 
L 295.593049 353.139257 
L 313.29267 353.159173 
L 330.992292 353.170625 
L 348.691913 353.174608 
L 366.391534 353.1766 
L 384.091155 353.180583 
L 401.790777 353.194524 
L 419.490398 353.199503 
L 437.190019 353.198507 
L 454.88964 353.195022 
L 472.589261 353.203486 
L 490.288883 353.208465 
L 507.988504 353.207967 
L 525.688125 353.203984 
L 543.387746 353.213942 
L 561.087367 353.210457 
L 578.786989 353.202988 
L 596.48661 353.186558 
L 614.186231 353.199503 
L 631.885852 353.20498 
L 649.585473 353.196018 
L 667.285095 353.200997 
L 684.984716 353.200001 
L 702.684337 353.211453 
L 720.383958 353.207469 
L 738.08358 353.197014 
L 755.783201 353.204482 
L 773.482822 353.207469 
L 791.182443 353.198507 
L 808.882064 353.197511 
L 826.581686 353.203984 
L 844.281307 353.189047 
L 861.980928 353.17411 
L 879.680549 353.206971 
L 897.38017 353.169629 
L 915.079792 353.207469 
L 932.779413 353.214938 
L 950.479034 353.140253 
" style="fill:none;stroke:#f7a35c;stroke-linecap:square;"/>
   </g>
   <g id="line2d_22">
    <path clip-path="url(#p137a36c566)" d="M 100.897216 64.835941 
L 118.596837 294.849849 
L 136.296458 336.928697 
L 153.99608 352.196737 
L 171.695701 352.810645 
L 189.395322 353.109383 
L 207.094943 352.831059 
L 224.794564 352.788737 
L 242.494186 352.85446 
L 260.193807 353.043661 
L 277.893428 353.137764 
L 295.593049 353.037686 
L 313.29267 353.126312 
L 330.992292 353.134776 
L 348.691913 353.152203 
L 366.391534 353.186558 
L 384.091155 353.171621 
L 401.790777 353.188051 
L 419.490398 353.198507 
L 437.190019 353.075526 
L 454.88964 353.127308 
L 472.589261 353.179587 
L 490.288883 353.156684 
L 507.988504 353.110379 
L 525.688125 353.15519 
L 543.387746 353.187056 
L 561.087367 353.176102 
L 578.786989 353.121333 
L 596.48661 353.119839 
L 614.186231 353.169629 
L 631.885852 353.201495 
L 649.585473 353.195022 
L 667.285095 353.194524 
L 684.984716 353.206971 
L 702.684337 353.199005 
L 720.383958 353.173612 
L 738.08358 353.201495 
L 755.783201 353.203486 
L 773.482822 353.20498 
L 791.182443 353.197014 
L 808.882064 353.157182 
L 826.581686 353.207967 
L 844.281307 353.180085 
L 861.980928 353.128801 
L 879.680549 353.187056 
L 897.38017 353.14822 
L 915.079792 353.20249 
L 932.779413 353.205976 
L 950.479034 352.999348 
" style="fill:none;stroke:#8085e9;stroke-linecap:square;"/>
   </g>
   <g id="line2d_23">
    <path clip-path="url(#p137a36c566)" d="M 100.897216 57.850931 
L 118.596837 287.662692 
L 136.296458 340.490658 
L 153.99608 352.459129 
L 171.695701 352.806662 
L 189.395322 353.090961 
L 207.094943 352.864916 
L 224.794564 352.832054 
L 242.494186 352.88284 
L 260.193807 353.102911 
L 277.893428 353.162161 
L 295.593049 353.161663 
L 313.29267 353.180583 
L 330.992292 353.182077 
L 348.691913 353.19303 
L 366.391534 353.181579 
L 384.091155 353.199005 
L 401.790777 353.191537 
L 419.490398 353.20498 
L 437.190019 353.199503 
L 454.88964 353.189545 
L 472.589261 353.208465 
L 490.288883 353.20498 
L 507.988504 353.198507 
L 525.688125 353.200997 
L 543.387746 353.205976 
L 561.087367 353.205478 
L 578.786989 353.192035 
L 596.48661 353.19552 
L 614.186231 353.201992 
L 631.885852 353.199005 
L 649.585473 353.19552 
L 667.285095 353.194026 
L 684.984716 353.194524 
L 702.684337 353.203984 
L 720.383958 353.200997 
L 738.08358 353.192532 
L 755.783201 353.203984 
L 773.482822 353.203984 
L 791.182443 353.206474 
L 808.882064 353.203486 
L 826.581686 353.200499 
L 844.281307 353.19552 
L 861.980928 353.180085 
L 879.680549 353.205478 
L 897.38017 353.173114 
L 915.079792 353.209959 
L 932.779413 353.216929 
L 950.479034 353.177595 
" style="fill:none;stroke:#f15c80;stroke-linecap:square;"/>
   </g>
   <g id="line2d_24">
    <path clip-path="url(#p137a36c566)" d="M 100.897216 66.65526 
L 118.596837 295.724655 
L 136.296458 337.425599 
L 153.99608 352.190762 
L 171.695701 352.821598 
L 189.395322 353.11735 
L 207.094943 352.849979 
L 224.794564 352.775294 
L 242.494186 352.836038 
L 260.193807 353.066564 
L 277.893428 353.143738 
L 295.593049 353.028724 
L 313.29267 353.135772 
L 330.992292 353.120835 
L 348.691913 353.16714 
L 366.391534 353.185064 
L 384.091155 353.188549 
L 401.790777 353.187553 
L 419.490398 353.202988 
L 437.190019 353.068058 
L 454.88964 353.134776 
L 472.589261 353.194026 
L 490.288883 353.154692 
L 507.988504 353.119341 
L 525.688125 353.152701 
L 543.387746 353.194026 
L 561.087367 353.178591 
L 578.786989 353.133283 
L 596.48661 353.113865 
L 614.186231 353.18357 
L 631.885852 353.203486 
L 649.585473 353.180085 
L 667.285095 353.197511 
L 684.984716 353.206971 
L 702.684337 353.212448 
L 720.383958 353.190541 
L 738.08358 353.212448 
L 755.783201 353.212448 
L 773.482822 353.203486 
L 791.182443 353.20249 
L 808.882064 353.172119 
L 826.581686 353.210955 
L 844.281307 353.180085 
L 861.980928 353.146228 
L 879.680549 353.187553 
L 897.38017 353.159671 
L 915.079792 353.197511 
L 932.779413 353.210955 
L 950.479034 352.831556 
" style="fill:none;stroke:#e4d354;stroke-linecap:square;"/>
   </g>
   <g id="line2d_25">
    <path clip-path="url(#p137a36c566)" d="M 58.418125 353.2239 
L 992.958125 353.2239 
" style="fill:none;stroke:#dedede;stroke-linecap:square;stroke-width:2;"/>
   </g>
   <g id="text_15">
    <!-- Cutadapt: Lengths of Trimmed Sequences -->
    <defs>
     <path d="M 34.28125 27.484375 
Q 23.390625 27.484375 19.1875 25 
Q 14.984375 22.515625 14.984375 16.5 
Q 14.984375 11.71875 18.140625 8.90625 
Q 21.296875 6.109375 26.703125 6.109375 
Q 34.1875 6.109375 38.703125 11.40625 
Q 43.21875 16.703125 43.21875 25.484375 
L 43.21875 27.484375 
z
M 52.203125 31.203125 
L 52.203125 0 
L 43.21875 0 
L 43.21875 8.296875 
Q 40.140625 3.328125 35.546875 0.953125 
Q 30.953125 -1.421875 24.3125 -1.421875 
Q 15.921875 -1.421875 10.953125 3.296875 
Q 6 8.015625 6 15.921875 
Q 6 25.140625 12.171875 29.828125 
Q 18.359375 34.515625 30.609375 34.515625 
L 43.21875 34.515625 
L 43.21875 35.40625 
Q 43.21875 41.609375 39.140625 45 
Q 35.0625 48.390625 27.6875 48.390625 
Q 23 48.390625 18.546875 47.265625 
Q 14.109375 46.140625 10.015625 43.890625 
L 10.015625 52.203125 
Q 14.9375 54.109375 19.578125 55.046875 
Q 24.21875 56 28.609375 56 
Q 40.484375 56 46.34375 49.84375 
Q 52.203125 43.703125 52.203125 31.203125 
z
" id="DejaVuSans-97"/>
     <path d="M 11.71875 12.40625 
L 22.015625 12.40625 
L 22.015625 0 
L 11.71875 0 
z
M 11.71875 51.703125 
L 22.015625 51.703125 
L 22.015625 39.3125 
L 11.71875 39.3125 
z
" id="DejaVuSans-58"/>
     <path d="M 44.28125 53.078125 
L 44.28125 44.578125 
Q 40.484375 46.53125 36.375 47.5 
Q 32.28125 48.484375 27.875 48.484375 
Q 21.1875 48.484375 17.84375 46.4375 
Q 14.5 44.390625 14.5 40.28125 
Q 14.5 37.15625 16.890625 35.375 
Q 19.28125 33.59375 26.515625 31.984375 
L 29.59375 31.296875 
Q 39.15625 29.25 43.1875 25.515625 
Q 47.21875 21.78125 47.21875 15.09375 
Q 47.21875 7.46875 41.1875 3.015625 
Q 35.15625 -1.421875 24.609375 -1.421875 
Q 20.21875 -1.421875 15.453125 -0.5625 
Q 10.6875 0.296875 5.421875 2 
L 5.421875 11.28125 
Q 10.40625 8.6875 15.234375 7.390625 
Q 20.0625 6.109375 24.8125 6.109375 
Q 31.15625 6.109375 34.5625 8.28125 
Q 37.984375 10.453125 37.984375 14.40625 
Q 37.984375 18.0625 35.515625 20.015625 
Q 33.0625 21.96875 24.703125 23.78125 
L 21.578125 24.515625 
Q 13.234375 26.265625 9.515625 29.90625 
Q 5.8125 33.546875 5.8125 39.890625 
Q 5.8125 47.609375 11.28125 51.796875 
Q 16.75 56 26.8125 56 
Q 31.78125 56 36.171875 55.265625 
Q 40.578125 54.546875 44.28125 53.078125 
z
" id="DejaVuSans-115"/>
     <path d="M 37.109375 75.984375 
L 37.109375 68.5 
L 28.515625 68.5 
Q 23.6875 68.5 21.796875 66.546875 
Q 19.921875 64.59375 19.921875 59.515625 
L 19.921875 54.6875 
L 34.71875 54.6875 
L 34.71875 47.703125 
L 19.921875 47.703125 
L 19.921875 0 
L 10.890625 0 
L 10.890625 47.703125 
L 2.296875 47.703125 
L 2.296875 54.6875 
L 10.890625 54.6875 
L 10.890625 58.5 
Q 10.890625 67.625 15.140625 71.796875 
Q 19.390625 75.984375 28.609375 75.984375 
z
" id="DejaVuSans-102"/>
     <path d="M 53.515625 70.515625 
L 53.515625 60.890625 
Q 47.90625 63.578125 42.921875 64.890625 
Q 37.9375 66.21875 33.296875 66.21875 
Q 25.25 66.21875 20.875 63.09375 
Q 16.5 59.96875 16.5 54.203125 
Q 16.5 49.359375 19.40625 46.890625 
Q 22.3125 44.4375 30.421875 42.921875 
L 36.375 41.703125 
Q 47.40625 39.59375 52.65625 34.296875 
Q 57.90625 29 57.90625 20.125 
Q 57.90625 9.515625 50.796875 4.046875 
Q 43.703125 -1.421875 29.984375 -1.421875 
Q 24.8125 -1.421875 18.96875 -0.25 
Q 13.140625 0.921875 6.890625 3.21875 
L 6.890625 13.375 
Q 12.890625 10.015625 18.65625 8.296875 
Q 24.421875 6.59375 29.984375 6.59375 
Q 38.421875 6.59375 43.015625 9.90625 
Q 47.609375 13.234375 47.609375 19.390625 
Q 47.609375 24.75 44.3125 27.78125 
Q 41.015625 30.8125 33.5 32.328125 
L 27.484375 33.5 
Q 16.453125 35.6875 11.515625 40.375 
Q 6.59375 45.0625 6.59375 53.421875 
Q 6.59375 63.09375 13.40625 68.65625 
Q 20.21875 74.21875 32.171875 74.21875 
Q 37.3125 74.21875 42.625 73.28125 
Q 47.953125 72.359375 53.515625 70.515625 
z
" id="DejaVuSans-83"/>
     <path d="M 14.796875 27.296875 
Q 14.796875 17.390625 18.875 11.75 
Q 22.953125 6.109375 30.078125 6.109375 
Q 37.203125 6.109375 41.296875 11.75 
Q 45.40625 17.390625 45.40625 27.296875 
Q 45.40625 37.203125 41.296875 42.84375 
Q 37.203125 48.484375 30.078125 48.484375 
Q 22.953125 48.484375 18.875 42.84375 
Q 14.796875 37.203125 14.796875 27.296875 
z
M 45.40625 8.203125 
Q 42.578125 3.328125 38.25 0.953125 
Q 33.9375 -1.421875 27.875 -1.421875 
Q 17.96875 -1.421875 11.734375 6.484375 
Q 5.515625 14.40625 5.515625 27.296875 
Q 5.515625 40.1875 11.734375 48.09375 
Q 17.96875 56 27.875 56 
Q 33.9375 56 38.25 53.625 
Q 42.578125 51.265625 45.40625 46.390625 
L 45.40625 54.6875 
L 54.390625 54.6875 
L 54.390625 -20.796875 
L 45.40625 -20.796875 
z
" id="DejaVuSans-113"/>
     <path d="M 48.78125 52.59375 
L 48.78125 44.1875 
Q 44.96875 46.296875 41.140625 47.34375 
Q 37.3125 48.390625 33.40625 48.390625 
Q 24.65625 48.390625 19.8125 42.84375 
Q 14.984375 37.3125 14.984375 27.296875 
Q 14.984375 17.28125 19.8125 11.734375 
Q 24.65625 6.203125 33.40625 6.203125 
Q 37.3125 6.203125 41.140625 7.25 
Q 44.96875 8.296875 48.78125 10.40625 
L 48.78125 2.09375 
Q 45.015625 0.34375 40.984375 -0.53125 
Q 36.96875 -1.421875 32.421875 -1.421875 
Q 20.0625 -1.421875 12.78125 6.34375 
Q 5.515625 14.109375 5.515625 27.296875 
Q 5.515625 40.671875 12.859375 48.328125 
Q 20.21875 56 33.015625 56 
Q 37.15625 56 41.109375 55.140625 
Q 45.0625 54.296875 48.78125 52.59375 
z
" id="DejaVuSans-99"/>
    </defs>
    <g transform="translate(356.721875 19.3575)scale(0.16 -0.16)">
     <use xlink:href="#DejaVuSans-67"/>
     <use x="69.824219" xlink:href="#DejaVuSans-117"/>
     <use x="133.203125" xlink:href="#DejaVuSans-116"/>
     <use x="172.412109" xlink:href="#DejaVuSans-97"/>
     <use x="233.691406" xlink:href="#DejaVuSans-100"/>
     <use x="297.167969" xlink:href="#DejaVuSans-97"/>
     <use x="358.447266" xlink:href="#DejaVuSans-112"/>
     <use x="421.923828" xlink:href="#DejaVuSans-116"/>
     <use x="461.132812" xlink:href="#DejaVuSans-58"/>
     <use x="494.824219" xlink:href="#DejaVuSans-32"/>
     <use x="526.611328" xlink:href="#DejaVuSans-76"/>
     <use x="582.308594" xlink:href="#DejaVuSans-101"/>
     <use x="643.832031" xlink:href="#DejaVuSans-110"/>
     <use x="707.210938" xlink:href="#DejaVuSans-103"/>
     <use x="770.6875" xlink:href="#DejaVuSans-116"/>
     <use x="809.896484" xlink:href="#DejaVuSans-104"/>
     <use x="873.275391" xlink:href="#DejaVuSans-115"/>
     <use x="925.375" xlink:href="#DejaVuSans-32"/>
     <use x="957.162109" xlink:href="#DejaVuSans-111"/>
     <use x="1018.34375" xlink:href="#DejaVuSans-102"/>
     <use x="1053.548828" xlink:href="#DejaVuSans-32"/>
     <use x="1085.335938" xlink:href="#DejaVuSans-84"/>
     <use x="1146.201172" xlink:href="#DejaVuSans-114"/>
     <use x="1187.314453" xlink:href="#DejaVuSans-105"/>
     <use x="1215.097656" xlink:href="#DejaVuSans-109"/>
     <use x="1312.509766" xlink:href="#DejaVuSans-109"/>
     <use x="1409.921875" xlink:href="#DejaVuSans-101"/>
     <use x="1471.445312" xlink:href="#DejaVuSans-100"/>
     <use x="1534.921875" xlink:href="#DejaVuSans-32"/>
     <use x="1566.708984" xlink:href="#DejaVuSans-83"/>
     <use x="1630.185547" xlink:href="#DejaVuSans-101"/>
     <use x="1691.708984" xlink:href="#DejaVuSans-113"/>
     <use x="1755.185547" xlink:href="#DejaVuSans-117"/>
     <use x="1818.564453" xlink:href="#DejaVuSans-101"/>
     <use x="1880.087891" xlink:href="#DejaVuSans-110"/>
     <use x="1943.466797" xlink:href="#DejaVuSans-99"/>
     <use x="1998.447266" xlink:href="#DejaVuSans-101"/>
     <use x="2059.970703" xlink:href="#DejaVuSans-115"/>
    </g>
   </g>
  </g>
 </g>
 <defs>
  <clipPath id="p137a36c566">
   <rect height="317.968" width="934.54" x="58.418125" y="35.2559"/>
  </clipPath>
 </defs>
</svg>
