<?xml version="1.0" encoding="utf-8" standalone="no"?>
<!DOCTYPE svg PUBLIC "-//W3C//DTD SVG 1.1//EN"
  "http://www.w3.org/Graphics/SVG/1.1/DTD/svg11.dtd">
<!-- Created with matplotlib (https://matplotlib.org/) -->
<svg height="388.844525pt" version="1.1" viewBox="0 0 1000.300625 388.844525" width="1000.300625pt" xmlns="http://www.w3.org/2000/svg" xmlns:xlink="http://www.w3.org/1999/xlink">
 <defs>
  <style type="text/css">
*{stroke-linecap:butt;stroke-linejoin:round;}
  </style>
 </defs>
 <g id="figure_1">
  <g id="axes_1">
   <g id="patch_1">
    <path d="M 45.690625 353.2239 
L 993.100625 353.2239 
L 993.100625 35.2559 
L 45.690625 35.2559 
z
" style="fill:#ffffff;"/>
   </g>
   <g id="patch_2">
    <path clip-path="url(#p5f95dd99d2)" d="M 683.370433 353.2239 
L 2323.11851 353.2239 
L 2323.11851 35.2559 
L 683.370433 35.2559 
z
" style="fill:#c3e6c3;"/>
   </g>
   <g id="patch_3">
    <path clip-path="url(#p5f95dd99d2)" d="M 501.176202 353.2239 
L 683.370433 353.2239 
L 683.370433 35.2559 
L 501.176202 35.2559 
z
" style="fill:#e6dcc3;"/>
   </g>
   <g id="patch_4">
    <path clip-path="url(#p5f95dd99d2)" d="M 45.690625 353.2239 
L 501.176202 353.2239 
L 501.176202 35.2559 
L 45.690625 35.2559 
z
" style="fill:#e6c3c3;"/>
   </g>
   <g id="matplotlib.axis_1">
    <g id="xtick_1">
     <g id="text_1">
      <!-- 0 -->
      <defs>
       <path d="M 31.78125 66.40625 
Q 24.171875 66.40625 20.328125 58.90625 
Q 16.5 51.421875 16.5 36.375 
Q 16.5 21.390625 20.328125 13.890625 
Q 24.171875 6.390625 31.78125 6.390625 
Q 39.453125 6.390625 43.28125 13.890625 
Q 47.125 21.390625 47.125 36.375 
Q 47.125 51.421875 43.28125 58.90625 
Q 39.453125 66.40625 31.78125 66.40625 
z
M 31.78125 74.21875 
Q 44.046875 74.21875 50.515625 64.515625 
Q 56.984375 54.828125 56.984375 36.375 
Q 56.984375 17.96875 50.515625 8.265625 
Q 44.046875 -1.421875 31.78125 -1.421875 
Q 19.53125 -1.421875 13.0625 8.265625 
Q 6.59375 17.96875 6.59375 36.375 
Q 6.59375 54.828125 13.0625 64.515625 
Q 19.53125 74.21875 31.78125 74.21875 
z
" id="DejaVuSans-48"/>
      </defs>
      <g transform="translate(43.145625 366.30265)scale(0.08 -0.08)">
       <use xlink:href="#DejaVuSans-48"/>
      </g>
     </g>
    </g>
    <g id="xtick_2">
     <g id="text_2">
      <!-- 5 -->
      <defs>
       <path d="M 10.796875 72.90625 
L 49.515625 72.90625 
L 49.515625 64.59375 
L 19.828125 64.59375 
L 19.828125 46.734375 
Q 21.96875 47.46875 24.109375 47.828125 
Q 26.265625 48.1875 28.421875 48.1875 
Q 40.625 48.1875 47.75 41.5 
Q 54.890625 34.8125 54.890625 23.390625 
Q 54.890625 11.625 47.5625 5.09375 
Q 40.234375 -1.421875 26.90625 -1.421875 
Q 22.3125 -1.421875 17.546875 -0.640625 
Q 12.796875 0.140625 7.71875 1.703125 
L 7.71875 11.625 
Q 12.109375 9.234375 16.796875 8.0625 
Q 21.484375 6.890625 26.703125 6.890625 
Q 35.15625 6.890625 40.078125 11.328125 
Q 45.015625 15.765625 45.015625 23.390625 
Q 45.015625 31 40.078125 35.4375 
Q 35.15625 39.890625 26.703125 39.890625 
Q 22.75 39.890625 18.8125 39.015625 
Q 14.890625 38.140625 10.796875 36.28125 
z
" id="DejaVuSans-53"/>
      </defs>
      <g transform="translate(157.017019 366.30265)scale(0.08 -0.08)">
       <use xlink:href="#DejaVuSans-53"/>
      </g>
     </g>
    </g>
    <g id="xtick_3">
     <g id="text_3">
      <!-- 10 -->
      <defs>
       <path d="M 12.40625 8.296875 
L 28.515625 8.296875 
L 28.515625 63.921875 
L 10.984375 60.40625 
L 10.984375 69.390625 
L 28.421875 72.90625 
L 38.28125 72.90625 
L 38.28125 8.296875 
L 54.390625 8.296875 
L 54.390625 0 
L 12.40625 0 
z
" id="DejaVuSans-49"/>
      </defs>
      <g transform="translate(268.343413 366.30265)scale(0.08 -0.08)">
       <use xlink:href="#DejaVuSans-49"/>
       <use x="63.623047" xlink:href="#DejaVuSans-48"/>
      </g>
     </g>
    </g>
    <g id="xtick_4">
     <g id="text_4">
      <!-- 15 -->
      <g transform="translate(382.214808 366.30265)scale(0.08 -0.08)">
       <use xlink:href="#DejaVuSans-49"/>
       <use x="63.623047" xlink:href="#DejaVuSans-53"/>
      </g>
     </g>
    </g>
    <g id="xtick_5">
     <g id="text_5">
      <!-- 20 -->
      <defs>
       <path d="M 19.1875 8.296875 
L 53.609375 8.296875 
L 53.609375 0 
L 7.328125 0 
L 7.328125 8.296875 
Q 12.9375 14.109375 22.625 23.890625 
Q 32.328125 33.6875 34.8125 36.53125 
Q 39.546875 41.84375 41.421875 45.53125 
Q 43.3125 49.21875 43.3125 52.78125 
Q 43.3125 58.59375 39.234375 62.25 
Q 35.15625 65.921875 28.609375 65.921875 
Q 23.96875 65.921875 18.8125 64.3125 
Q 13.671875 62.703125 7.8125 59.421875 
L 7.8125 69.390625 
Q 13.765625 71.78125 18.9375 73 
Q 24.125 74.21875 28.421875 74.21875 
Q 39.75 74.21875 46.484375 68.546875 
Q 53.21875 62.890625 53.21875 53.421875 
Q 53.21875 48.921875 51.53125 44.890625 
Q 49.859375 40.875 45.40625 35.40625 
Q 44.1875 33.984375 37.640625 27.21875 
Q 31.109375 20.453125 19.1875 8.296875 
z
" id="DejaVuSans-50"/>
      </defs>
      <g transform="translate(496.086202 366.30265)scale(0.08 -0.08)">
       <use xlink:href="#DejaVuSans-50"/>
       <use x="63.623047" xlink:href="#DejaVuSans-48"/>
      </g>
     </g>
    </g>
    <g id="xtick_6">
     <g id="text_6">
      <!-- 25 -->
      <g transform="translate(609.957596 366.30265)scale(0.08 -0.08)">
       <use xlink:href="#DejaVuSans-50"/>
       <use x="63.623047" xlink:href="#DejaVuSans-53"/>
      </g>
     </g>
    </g>
    <g id="xtick_7">
     <g id="text_7">
      <!-- 30 -->
      <defs>
       <path d="M 40.578125 39.3125 
Q 47.65625 37.796875 51.625 33 
Q 55.609375 28.21875 55.609375 21.1875 
Q 55.609375 10.40625 48.1875 4.484375 
Q 40.765625 -1.421875 27.09375 -1.421875 
Q 22.515625 -1.421875 17.65625 -0.515625 
Q 12.796875 0.390625 7.625 2.203125 
L 7.625 11.71875 
Q 11.71875 9.328125 16.59375 8.109375 
Q 21.484375 6.890625 26.8125 6.890625 
Q 36.078125 6.890625 40.9375 10.546875 
Q 45.796875 14.203125 45.796875 21.1875 
Q 45.796875 27.640625 41.28125 31.265625 
Q 36.765625 34.90625 28.71875 34.90625 
L 20.21875 34.90625 
L 20.21875 43.015625 
L 29.109375 43.015625 
Q 36.375 43.015625 40.234375 45.921875 
Q 44.09375 48.828125 44.09375 54.296875 
Q 44.09375 59.90625 40.109375 62.90625 
Q 36.140625 65.921875 28.71875 65.921875 
Q 24.65625 65.921875 20.015625 65.03125 
Q 15.375 64.15625 9.8125 62.3125 
L 9.8125 71.09375 
Q 15.4375 72.65625 20.34375 73.4375 
Q 25.25 74.21875 29.59375 74.21875 
Q 40.828125 74.21875 47.359375 69.109375 
Q 53.90625 64.015625 53.90625 55.328125 
Q 53.90625 49.265625 50.4375 45.09375 
Q 46.96875 40.921875 40.578125 39.3125 
z
" id="DejaVuSans-51"/>
      </defs>
      <g transform="translate(723.82899 366.30265)scale(0.08 -0.08)">
       <use xlink:href="#DejaVuSans-51"/>
       <use x="63.623047" xlink:href="#DejaVuSans-48"/>
      </g>
     </g>
    </g>
    <g id="xtick_8">
     <g id="text_8">
      <!-- 35 -->
      <g transform="translate(837.700385 366.30265)scale(0.08 -0.08)">
       <use xlink:href="#DejaVuSans-51"/>
       <use x="63.623047" xlink:href="#DejaVuSans-53"/>
      </g>
     </g>
    </g>
    <g id="xtick_9">
     <g id="text_9">
      <!-- 40 -->
      <defs>
       <path d="M 37.796875 64.3125 
L 12.890625 25.390625 
L 37.796875 25.390625 
z
M 35.203125 72.90625 
L 47.609375 72.90625 
L 47.609375 25.390625 
L 58.015625 25.390625 
L 58.015625 17.1875 
L 47.609375 17.1875 
L 47.609375 0 
L 37.796875 0 
L 37.796875 17.1875 
L 4.890625 17.1875 
L 4.890625 26.703125 
z
" id="DejaVuSans-52"/>
      </defs>
      <g transform="translate(951.571779 366.30265)scale(0.08 -0.08)">
       <use xlink:href="#DejaVuSans-52"/>
       <use x="63.623047" xlink:href="#DejaVuSans-48"/>
      </g>
     </g>
    </g>
    <g id="text_10">
     <!-- Mean Sequence Quality (Phred Score) -->
     <defs>
      <path d="M 9.8125 72.90625 
L 24.515625 72.90625 
L 43.109375 23.296875 
L 61.8125 72.90625 
L 76.515625 72.90625 
L 76.515625 0 
L 66.890625 0 
L 66.890625 64.015625 
L 48.09375 14.015625 
L 38.1875 14.015625 
L 19.390625 64.015625 
L 19.390625 0 
L 9.8125 0 
z
" id="DejaVuSans-77"/>
      <path d="M 56.203125 29.59375 
L 56.203125 25.203125 
L 14.890625 25.203125 
Q 15.484375 15.921875 20.484375 11.0625 
Q 25.484375 6.203125 34.421875 6.203125 
Q 39.59375 6.203125 44.453125 7.46875 
Q 49.3125 8.734375 54.109375 11.28125 
L 54.109375 2.78125 
Q 49.265625 0.734375 44.1875 -0.34375 
Q 39.109375 -1.421875 33.890625 -1.421875 
Q 20.796875 -1.421875 13.15625 6.1875 
Q 5.515625 13.8125 5.515625 26.8125 
Q 5.515625 40.234375 12.765625 48.109375 
Q 20.015625 56 32.328125 56 
Q 43.359375 56 49.78125 48.890625 
Q 56.203125 41.796875 56.203125 29.59375 
z
M 47.21875 32.234375 
Q 47.125 39.59375 43.09375 43.984375 
Q 39.0625 48.390625 32.421875 48.390625 
Q 24.90625 48.390625 20.390625 44.140625 
Q 15.875 39.890625 15.1875 32.171875 
z
" id="DejaVuSans-101"/>
      <path d="M 34.28125 27.484375 
Q 23.390625 27.484375 19.1875 25 
Q 14.984375 22.515625 14.984375 16.5 
Q 14.984375 11.71875 18.140625 8.90625 
Q 21.296875 6.109375 26.703125 6.109375 
Q 34.1875 6.109375 38.703125 11.40625 
Q 43.21875 16.703125 43.21875 25.484375 
L 43.21875 27.484375 
z
M 52.203125 31.203125 
L 52.203125 0 
L 43.21875 0 
L 43.21875 8.296875 
Q 40.140625 3.328125 35.546875 0.953125 
Q 30.953125 -1.421875 24.3125 -1.421875 
Q 15.921875 -1.421875 10.953125 3.296875 
Q 6 8.015625 6 15.921875 
Q 6 25.140625 12.171875 29.828125 
Q 18.359375 34.515625 30.609375 34.515625 
L 43.21875 34.515625 
L 43.21875 35.40625 
Q 43.21875 41.609375 39.140625 45 
Q 35.0625 48.390625 27.6875 48.390625 
Q 23 48.390625 18.546875 47.265625 
Q 14.109375 46.140625 10.015625 43.890625 
L 10.015625 52.203125 
Q 14.9375 54.109375 19.578125 55.046875 
Q 24.21875 56 28.609375 56 
Q 40.484375 56 46.34375 49.84375 
Q 52.203125 43.703125 52.203125 31.203125 
z
" id="DejaVuSans-97"/>
      <path d="M 54.890625 33.015625 
L 54.890625 0 
L 45.90625 0 
L 45.90625 32.71875 
Q 45.90625 40.484375 42.875 44.328125 
Q 39.84375 48.1875 33.796875 48.1875 
Q 26.515625 48.1875 22.3125 43.546875 
Q 18.109375 38.921875 18.109375 30.90625 
L 18.109375 0 
L 9.078125 0 
L 9.078125 54.6875 
L 18.109375 54.6875 
L 18.109375 46.1875 
Q 21.34375 51.125 25.703125 53.5625 
Q 30.078125 56 35.796875 56 
Q 45.21875 56 50.046875 50.171875 
Q 54.890625 44.34375 54.890625 33.015625 
z
" id="DejaVuSans-110"/>
      <path id="DejaVuSans-32"/>
      <path d="M 53.515625 70.515625 
L 53.515625 60.890625 
Q 47.90625 63.578125 42.921875 64.890625 
Q 37.9375 66.21875 33.296875 66.21875 
Q 25.25 66.21875 20.875 63.09375 
Q 16.5 59.96875 16.5 54.203125 
Q 16.5 49.359375 19.40625 46.890625 
Q 22.3125 44.4375 30.421875 42.921875 
L 36.375 41.703125 
Q 47.40625 39.59375 52.65625 34.296875 
Q 57.90625 29 57.90625 20.125 
Q 57.90625 9.515625 50.796875 4.046875 
Q 43.703125 -1.421875 29.984375 -1.421875 
Q 24.8125 -1.421875 18.96875 -0.25 
Q 13.140625 0.921875 6.890625 3.21875 
L 6.890625 13.375 
Q 12.890625 10.015625 18.65625 8.296875 
Q 24.421875 6.59375 29.984375 6.59375 
Q 38.421875 6.59375 43.015625 9.90625 
Q 47.609375 13.234375 47.609375 19.390625 
Q 47.609375 24.75 44.3125 27.78125 
Q 41.015625 30.8125 33.5 32.328125 
L 27.484375 33.5 
Q 16.453125 35.6875 11.515625 40.375 
Q 6.59375 45.0625 6.59375 53.421875 
Q 6.59375 63.09375 13.40625 68.65625 
Q 20.21875 74.21875 32.171875 74.21875 
Q 37.3125 74.21875 42.625 73.28125 
Q 47.953125 72.359375 53.515625 70.515625 
z
" id="DejaVuSans-83"/>
      <path d="M 14.796875 27.296875 
Q 14.796875 17.390625 18.875 11.75 
Q 22.953125 6.109375 30.078125 6.109375 
Q 37.203125 6.109375 41.296875 11.75 
Q 45.40625 17.390625 45.40625 27.296875 
Q 45.40625 37.203125 41.296875 42.84375 
Q 37.203125 48.484375 30.078125 48.484375 
Q 22.953125 48.484375 18.875 42.84375 
Q 14.796875 37.203125 14.796875 27.296875 
z
M 45.40625 8.203125 
Q 42.578125 3.328125 38.25 0.953125 
Q 33.9375 -1.421875 27.875 -1.421875 
Q 17.96875 -1.421875 11.734375 6.484375 
Q 5.515625 14.40625 5.515625 27.296875 
Q 5.515625 40.1875 11.734375 48.09375 
Q 17.96875 56 27.875 56 
Q 33.9375 56 38.25 53.625 
Q 42.578125 51.265625 45.40625 46.390625 
L 45.40625 54.6875 
L 54.390625 54.6875 
L 54.390625 -20.796875 
L 45.40625 -20.796875 
z
" id="DejaVuSans-113"/>
      <path d="M 8.5 21.578125 
L 8.5 54.6875 
L 17.484375 54.6875 
L 17.484375 21.921875 
Q 17.484375 14.15625 20.5 10.265625 
Q 23.53125 6.390625 29.59375 6.390625 
Q 36.859375 6.390625 41.078125 11.03125 
Q 45.3125 15.671875 45.3125 23.6875 
L 45.3125 54.6875 
L 54.296875 54.6875 
L 54.296875 0 
L 45.3125 0 
L 45.3125 8.40625 
Q 42.046875 3.421875 37.71875 1 
Q 33.40625 -1.421875 27.6875 -1.421875 
Q 18.265625 -1.421875 13.375 4.4375 
Q 8.5 10.296875 8.5 21.578125 
z
M 31.109375 56 
z
" id="DejaVuSans-117"/>
      <path d="M 48.78125 52.59375 
L 48.78125 44.1875 
Q 44.96875 46.296875 41.140625 47.34375 
Q 37.3125 48.390625 33.40625 48.390625 
Q 24.65625 48.390625 19.8125 42.84375 
Q 14.984375 37.3125 14.984375 27.296875 
Q 14.984375 17.28125 19.8125 11.734375 
Q 24.65625 6.203125 33.40625 6.203125 
Q 37.3125 6.203125 41.140625 7.25 
Q 44.96875 8.296875 48.78125 10.40625 
L 48.78125 2.09375 
Q 45.015625 0.34375 40.984375 -0.53125 
Q 36.96875 -1.421875 32.421875 -1.421875 
Q 20.0625 -1.421875 12.78125 6.34375 
Q 5.515625 14.109375 5.515625 27.296875 
Q 5.515625 40.671875 12.859375 48.328125 
Q 20.21875 56 33.015625 56 
Q 37.15625 56 41.109375 55.140625 
Q 45.0625 54.296875 48.78125 52.59375 
z
" id="DejaVuSans-99"/>
      <path d="M 39.40625 66.21875 
Q 28.65625 66.21875 22.328125 58.203125 
Q 16.015625 50.203125 16.015625 36.375 
Q 16.015625 22.609375 22.328125 14.59375 
Q 28.65625 6.59375 39.40625 6.59375 
Q 50.140625 6.59375 56.421875 14.59375 
Q 62.703125 22.609375 62.703125 36.375 
Q 62.703125 50.203125 56.421875 58.203125 
Q 50.140625 66.21875 39.40625 66.21875 
z
M 53.21875 1.3125 
L 66.21875 -12.890625 
L 54.296875 -12.890625 
L 43.5 -1.21875 
Q 41.890625 -1.3125 41.03125 -1.359375 
Q 40.1875 -1.421875 39.40625 -1.421875 
Q 24.03125 -1.421875 14.8125 8.859375 
Q 5.609375 19.140625 5.609375 36.375 
Q 5.609375 53.65625 14.8125 63.9375 
Q 24.03125 74.21875 39.40625 74.21875 
Q 54.734375 74.21875 63.90625 63.9375 
Q 73.09375 53.65625 73.09375 36.375 
Q 73.09375 23.6875 67.984375 14.640625 
Q 62.890625 5.609375 53.21875 1.3125 
z
" id="DejaVuSans-81"/>
      <path d="M 9.421875 75.984375 
L 18.40625 75.984375 
L 18.40625 0 
L 9.421875 0 
z
" id="DejaVuSans-108"/>
      <path d="M 9.421875 54.6875 
L 18.40625 54.6875 
L 18.40625 0 
L 9.421875 0 
z
M 9.421875 75.984375 
L 18.40625 75.984375 
L 18.40625 64.59375 
L 9.421875 64.59375 
z
" id="DejaVuSans-105"/>
      <path d="M 18.3125 70.21875 
L 18.3125 54.6875 
L 36.8125 54.6875 
L 36.8125 47.703125 
L 18.3125 47.703125 
L 18.3125 18.015625 
Q 18.3125 11.328125 20.140625 9.421875 
Q 21.96875 7.515625 27.59375 7.515625 
L 36.8125 7.515625 
L 36.8125 0 
L 27.59375 0 
Q 17.1875 0 13.234375 3.875 
Q 9.28125 7.765625 9.28125 18.015625 
L 9.28125 47.703125 
L 2.6875 47.703125 
L 2.6875 54.6875 
L 9.28125 54.6875 
L 9.28125 70.21875 
z
" id="DejaVuSans-116"/>
      <path d="M 32.171875 -5.078125 
Q 28.375 -14.84375 24.75 -17.8125 
Q 21.140625 -20.796875 15.09375 -20.796875 
L 7.90625 -20.796875 
L 7.90625 -13.28125 
L 13.1875 -13.28125 
Q 16.890625 -13.28125 18.9375 -11.515625 
Q 21 -9.765625 23.484375 -3.21875 
L 25.09375 0.875 
L 2.984375 54.6875 
L 12.5 54.6875 
L 29.59375 11.921875 
L 46.6875 54.6875 
L 56.203125 54.6875 
z
" id="DejaVuSans-121"/>
      <path d="M 31 75.875 
Q 24.46875 64.65625 21.28125 53.65625 
Q 18.109375 42.671875 18.109375 31.390625 
Q 18.109375 20.125 21.3125 9.0625 
Q 24.515625 -2 31 -13.1875 
L 23.1875 -13.1875 
Q 15.875 -1.703125 12.234375 9.375 
Q 8.59375 20.453125 8.59375 31.390625 
Q 8.59375 42.28125 12.203125 53.3125 
Q 15.828125 64.359375 23.1875 75.875 
z
" id="DejaVuSans-40"/>
      <path d="M 19.671875 64.796875 
L 19.671875 37.40625 
L 32.078125 37.40625 
Q 38.96875 37.40625 42.71875 40.96875 
Q 46.484375 44.53125 46.484375 51.125 
Q 46.484375 57.671875 42.71875 61.234375 
Q 38.96875 64.796875 32.078125 64.796875 
z
M 9.8125 72.90625 
L 32.078125 72.90625 
Q 44.34375 72.90625 50.609375 67.359375 
Q 56.890625 61.8125 56.890625 51.125 
Q 56.890625 40.328125 50.609375 34.8125 
Q 44.34375 29.296875 32.078125 29.296875 
L 19.671875 29.296875 
L 19.671875 0 
L 9.8125 0 
z
" id="DejaVuSans-80"/>
      <path d="M 54.890625 33.015625 
L 54.890625 0 
L 45.90625 0 
L 45.90625 32.71875 
Q 45.90625 40.484375 42.875 44.328125 
Q 39.84375 48.1875 33.796875 48.1875 
Q 26.515625 48.1875 22.3125 43.546875 
Q 18.109375 38.921875 18.109375 30.90625 
L 18.109375 0 
L 9.078125 0 
L 9.078125 75.984375 
L 18.109375 75.984375 
L 18.109375 46.1875 
Q 21.34375 51.125 25.703125 53.5625 
Q 30.078125 56 35.796875 56 
Q 45.21875 56 50.046875 50.171875 
Q 54.890625 44.34375 54.890625 33.015625 
z
" id="DejaVuSans-104"/>
      <path d="M 41.109375 46.296875 
Q 39.59375 47.171875 37.8125 47.578125 
Q 36.03125 48 33.890625 48 
Q 26.265625 48 22.1875 43.046875 
Q 18.109375 38.09375 18.109375 28.8125 
L 18.109375 0 
L 9.078125 0 
L 9.078125 54.6875 
L 18.109375 54.6875 
L 18.109375 46.1875 
Q 20.953125 51.171875 25.484375 53.578125 
Q 30.03125 56 36.53125 56 
Q 37.453125 56 38.578125 55.875 
Q 39.703125 55.765625 41.0625 55.515625 
z
" id="DejaVuSans-114"/>
      <path d="M 45.40625 46.390625 
L 45.40625 75.984375 
L 54.390625 75.984375 
L 54.390625 0 
L 45.40625 0 
L 45.40625 8.203125 
Q 42.578125 3.328125 38.25 0.953125 
Q 33.9375 -1.421875 27.875 -1.421875 
Q 17.96875 -1.421875 11.734375 6.484375 
Q 5.515625 14.40625 5.515625 27.296875 
Q 5.515625 40.1875 11.734375 48.09375 
Q 17.96875 56 27.875 56 
Q 33.9375 56 38.25 53.625 
Q 42.578125 51.265625 45.40625 46.390625 
z
M 14.796875 27.296875 
Q 14.796875 17.390625 18.875 11.75 
Q 22.953125 6.109375 30.078125 6.109375 
Q 37.203125 6.109375 41.296875 11.75 
Q 45.40625 17.390625 45.40625 27.296875 
Q 45.40625 37.203125 41.296875 42.84375 
Q 37.203125 48.484375 30.078125 48.484375 
Q 22.953125 48.484375 18.875 42.84375 
Q 14.796875 37.203125 14.796875 27.296875 
z
" id="DejaVuSans-100"/>
      <path d="M 30.609375 48.390625 
Q 23.390625 48.390625 19.1875 42.75 
Q 14.984375 37.109375 14.984375 27.296875 
Q 14.984375 17.484375 19.15625 11.84375 
Q 23.34375 6.203125 30.609375 6.203125 
Q 37.796875 6.203125 41.984375 11.859375 
Q 46.1875 17.53125 46.1875 27.296875 
Q 46.1875 37.015625 41.984375 42.703125 
Q 37.796875 48.390625 30.609375 48.390625 
z
M 30.609375 56 
Q 42.328125 56 49.015625 48.375 
Q 55.71875 40.765625 55.71875 27.296875 
Q 55.71875 13.875 49.015625 6.21875 
Q 42.328125 -1.421875 30.609375 -1.421875 
Q 18.84375 -1.421875 12.171875 6.21875 
Q 5.515625 13.875 5.515625 27.296875 
Q 5.515625 40.765625 12.171875 48.375 
Q 18.84375 56 30.609375 56 
z
" id="DejaVuSans-111"/>
      <path d="M 8.015625 75.875 
L 15.828125 75.875 
Q 23.140625 64.359375 26.78125 53.3125 
Q 30.421875 42.28125 30.421875 31.390625 
Q 30.421875 20.453125 26.78125 9.375 
Q 23.140625 -1.703125 15.828125 -13.1875 
L 8.015625 -13.1875 
Q 14.5 -2 17.703125 9.0625 
Q 20.90625 20.125 20.90625 31.390625 
Q 20.90625 42.671875 17.703125 53.65625 
Q 14.5 64.65625 8.015625 75.875 
z
" id="DejaVuSans-41"/>
     </defs>
     <g transform="translate(424.381562 379.564837)scale(0.1 -0.1)">
      <use xlink:href="#DejaVuSans-77"/>
      <use x="86.279297" xlink:href="#DejaVuSans-101"/>
      <use x="147.802734" xlink:href="#DejaVuSans-97"/>
      <use x="209.082031" xlink:href="#DejaVuSans-110"/>
      <use x="272.460938" xlink:href="#DejaVuSans-32"/>
      <use x="304.248047" xlink:href="#DejaVuSans-83"/>
      <use x="367.724609" xlink:href="#DejaVuSans-101"/>
      <use x="429.248047" xlink:href="#DejaVuSans-113"/>
      <use x="492.724609" xlink:href="#DejaVuSans-117"/>
      <use x="556.103516" xlink:href="#DejaVuSans-101"/>
      <use x="617.626953" xlink:href="#DejaVuSans-110"/>
      <use x="681.005859" xlink:href="#DejaVuSans-99"/>
      <use x="735.986328" xlink:href="#DejaVuSans-101"/>
      <use x="797.509766" xlink:href="#DejaVuSans-32"/>
      <use x="829.296875" xlink:href="#DejaVuSans-81"/>
      <use x="908.007812" xlink:href="#DejaVuSans-117"/>
      <use x="971.386719" xlink:href="#DejaVuSans-97"/>
      <use x="1032.666016" xlink:href="#DejaVuSans-108"/>
      <use x="1060.449219" xlink:href="#DejaVuSans-105"/>
      <use x="1088.232422" xlink:href="#DejaVuSans-116"/>
      <use x="1127.441406" xlink:href="#DejaVuSans-121"/>
      <use x="1186.621094" xlink:href="#DejaVuSans-32"/>
      <use x="1218.408203" xlink:href="#DejaVuSans-40"/>
      <use x="1257.421875" xlink:href="#DejaVuSans-80"/>
      <use x="1317.724609" xlink:href="#DejaVuSans-104"/>
      <use x="1381.103516" xlink:href="#DejaVuSans-114"/>
      <use x="1422.185547" xlink:href="#DejaVuSans-101"/>
      <use x="1483.708984" xlink:href="#DejaVuSans-100"/>
      <use x="1547.185547" xlink:href="#DejaVuSans-32"/>
      <use x="1578.972656" xlink:href="#DejaVuSans-83"/>
      <use x="1642.449219" xlink:href="#DejaVuSans-99"/>
      <use x="1697.429688" xlink:href="#DejaVuSans-111"/>
      <use x="1758.611328" xlink:href="#DejaVuSans-114"/>
      <use x="1799.693359" xlink:href="#DejaVuSans-101"/>
      <use x="1861.216797" xlink:href="#DejaVuSans-41"/>
     </g>
    </g>
   </g>
   <g id="matplotlib.axis_2">
    <g id="ytick_1">
     <g id="line2d_1">
      <path clip-path="url(#p5f95dd99d2)" d="M 45.690625 353.2239 
L 993.100625 353.2239 
" style="fill:none;stroke:#dedede;stroke-linecap:square;"/>
     </g>
     <g id="text_11">
      <!-- 0.00 -->
      <defs>
       <path d="M 10.6875 12.40625 
L 21 12.40625 
L 21 0 
L 10.6875 0 
z
" id="DejaVuSans-46"/>
      </defs>
      <g transform="translate(20.878125 356.263275)scale(0.08 -0.08)">
       <use xlink:href="#DejaVuSans-48"/>
       <use x="63.623047" xlink:href="#DejaVuSans-46"/>
       <use x="95.410156" xlink:href="#DejaVuSans-48"/>
       <use x="159.033203" xlink:href="#DejaVuSans-48"/>
      </g>
     </g>
    </g>
    <g id="ytick_2">
     <g id="line2d_2">
      <path clip-path="url(#p5f95dd99d2)" d="M 45.690625 316.185187 
L 993.100625 316.185187 
" style="fill:none;stroke:#dedede;stroke-linecap:square;"/>
     </g>
     <g id="text_12">
      <!-- 0.25 -->
      <g transform="translate(20.878125 319.224562)scale(0.08 -0.08)">
       <use xlink:href="#DejaVuSans-48"/>
       <use x="63.623047" xlink:href="#DejaVuSans-46"/>
       <use x="95.410156" xlink:href="#DejaVuSans-50"/>
       <use x="159.033203" xlink:href="#DejaVuSans-53"/>
      </g>
     </g>
    </g>
    <g id="ytick_3">
     <g id="line2d_3">
      <path clip-path="url(#p5f95dd99d2)" d="M 45.690625 279.146474 
L 993.100625 279.146474 
" style="fill:none;stroke:#dedede;stroke-linecap:square;"/>
     </g>
     <g id="text_13">
      <!-- 0.50 -->
      <g transform="translate(20.878125 282.185849)scale(0.08 -0.08)">
       <use xlink:href="#DejaVuSans-48"/>
       <use x="63.623047" xlink:href="#DejaVuSans-46"/>
       <use x="95.410156" xlink:href="#DejaVuSans-53"/>
       <use x="159.033203" xlink:href="#DejaVuSans-48"/>
      </g>
     </g>
    </g>
    <g id="ytick_4">
     <g id="line2d_4">
      <path clip-path="url(#p5f95dd99d2)" d="M 45.690625 242.10776 
L 993.100625 242.10776 
" style="fill:none;stroke:#dedede;stroke-linecap:square;"/>
     </g>
     <g id="text_14">
      <!-- 0.75 -->
      <defs>
       <path d="M 8.203125 72.90625 
L 55.078125 72.90625 
L 55.078125 68.703125 
L 28.609375 0 
L 18.3125 0 
L 43.21875 64.59375 
L 8.203125 64.59375 
z
" id="DejaVuSans-55"/>
      </defs>
      <g transform="translate(20.878125 245.147135)scale(0.08 -0.08)">
       <use xlink:href="#DejaVuSans-48"/>
       <use x="63.623047" xlink:href="#DejaVuSans-46"/>
       <use x="95.410156" xlink:href="#DejaVuSans-55"/>
       <use x="159.033203" xlink:href="#DejaVuSans-53"/>
      </g>
     </g>
    </g>
    <g id="ytick_5">
     <g id="line2d_5">
      <path clip-path="url(#p5f95dd99d2)" d="M 45.690625 205.069047 
L 993.100625 205.069047 
" style="fill:none;stroke:#dedede;stroke-linecap:square;"/>
     </g>
     <g id="text_15">
      <!-- 1.00 -->
      <g transform="translate(20.878125 208.108422)scale(0.08 -0.08)">
       <use xlink:href="#DejaVuSans-49"/>
       <use x="63.623047" xlink:href="#DejaVuSans-46"/>
       <use x="95.410156" xlink:href="#DejaVuSans-48"/>
       <use x="159.033203" xlink:href="#DejaVuSans-48"/>
      </g>
     </g>
    </g>
    <g id="ytick_6">
     <g id="line2d_6">
      <path clip-path="url(#p5f95dd99d2)" d="M 45.690625 168.030334 
L 993.100625 168.030334 
" style="fill:none;stroke:#dedede;stroke-linecap:square;"/>
     </g>
     <g id="text_16">
      <!-- 1.25 -->
      <g transform="translate(20.878125 171.069709)scale(0.08 -0.08)">
       <use xlink:href="#DejaVuSans-49"/>
       <use x="63.623047" xlink:href="#DejaVuSans-46"/>
       <use x="95.410156" xlink:href="#DejaVuSans-50"/>
       <use x="159.033203" xlink:href="#DejaVuSans-53"/>
      </g>
     </g>
    </g>
    <g id="ytick_7">
     <g id="line2d_7">
      <path clip-path="url(#p5f95dd99d2)" d="M 45.690625 130.991621 
L 993.100625 130.991621 
" style="fill:none;stroke:#dedede;stroke-linecap:square;"/>
     </g>
     <g id="text_17">
      <!-- 1.50 -->
      <g transform="translate(20.878125 134.030996)scale(0.08 -0.08)">
       <use xlink:href="#DejaVuSans-49"/>
       <use x="63.623047" xlink:href="#DejaVuSans-46"/>
       <use x="95.410156" xlink:href="#DejaVuSans-53"/>
       <use x="159.033203" xlink:href="#DejaVuSans-48"/>
      </g>
     </g>
    </g>
    <g id="ytick_8">
     <g id="line2d_8">
      <path clip-path="url(#p5f95dd99d2)" d="M 45.690625 93.952907 
L 993.100625 93.952907 
" style="fill:none;stroke:#dedede;stroke-linecap:square;"/>
     </g>
     <g id="text_18">
      <!-- 1.75 -->
      <g transform="translate(20.878125 96.992282)scale(0.08 -0.08)">
       <use xlink:href="#DejaVuSans-49"/>
       <use x="63.623047" xlink:href="#DejaVuSans-46"/>
       <use x="95.410156" xlink:href="#DejaVuSans-55"/>
       <use x="159.033203" xlink:href="#DejaVuSans-53"/>
      </g>
     </g>
    </g>
    <g id="ytick_9">
     <g id="line2d_9">
      <path clip-path="url(#p5f95dd99d2)" d="M 45.690625 56.914194 
L 993.100625 56.914194 
" style="fill:none;stroke:#dedede;stroke-linecap:square;"/>
     </g>
     <g id="text_19">
      <!-- 2.00 -->
      <g transform="translate(20.878125 59.953569)scale(0.08 -0.08)">
       <use xlink:href="#DejaVuSans-50"/>
       <use x="63.623047" xlink:href="#DejaVuSans-46"/>
       <use x="95.410156" xlink:href="#DejaVuSans-48"/>
       <use x="159.033203" xlink:href="#DejaVuSans-48"/>
      </g>
     </g>
    </g>
    <g id="text_20">
     <!-- Count -->
     <defs>
      <path d="M 64.40625 67.28125 
L 64.40625 56.890625 
Q 59.421875 61.53125 53.78125 63.8125 
Q 48.140625 66.109375 41.796875 66.109375 
Q 29.296875 66.109375 22.65625 58.46875 
Q 16.015625 50.828125 16.015625 36.375 
Q 16.015625 21.96875 22.65625 14.328125 
Q 29.296875 6.6875 41.796875 6.6875 
Q 48.140625 6.6875 53.78125 8.984375 
Q 59.421875 11.28125 64.40625 15.921875 
L 64.40625 5.609375 
Q 59.234375 2.09375 53.4375 0.328125 
Q 47.65625 -1.421875 41.21875 -1.421875 
Q 24.65625 -1.421875 15.125 8.703125 
Q 5.609375 18.84375 5.609375 36.375 
Q 5.609375 53.953125 15.125 64.078125 
Q 24.65625 74.21875 41.21875 74.21875 
Q 47.75 74.21875 53.53125 72.484375 
Q 59.328125 70.75 64.40625 67.28125 
z
" id="DejaVuSans-67"/>
     </defs>
     <g transform="translate(14.798438 209.088338)rotate(-90)scale(0.1 -0.1)">
      <use xlink:href="#DejaVuSans-67"/>
      <use x="69.824219" xlink:href="#DejaVuSans-111"/>
      <use x="131.005859" xlink:href="#DejaVuSans-117"/>
      <use x="194.384766" xlink:href="#DejaVuSans-110"/>
      <use x="257.763672" xlink:href="#DejaVuSans-116"/>
     </g>
    </g>
    <g id="text_21">
     <!-- 1e7 -->
     <g transform="translate(45.690625 32.2559)scale(0.1 -0.1)">
      <use xlink:href="#DejaVuSans-49"/>
      <use x="63.623047" xlink:href="#DejaVuSans-101"/>
      <use x="125.146484" xlink:href="#DejaVuSans-55"/>
     </g>
    </g>
   </g>
   <g id="line2d_10">
    <path clip-path="url(#p5f95dd99d2)" d="M 273.433413 353.223856 
L 296.207692 353.223841 
L 318.981971 353.223781 
L 341.75625 353.223604 
L 364.530529 353.223426 
L 387.304808 353.222981 
L 410.079087 353.222611 
L 432.853365 353.222196 
L 455.627644 353.220907 
L 478.401923 353.218226 
L 501.176202 353.211959 
L 523.950481 353.198269 
L 546.72476 353.167586 
L 569.499038 353.112547 
L 592.273317 352.998838 
L 615.047596 352.812089 
L 637.821875 352.518935 
L 660.596154 352.102931 
L 683.370433 351.518104 
L 706.144712 350.802027 
L 728.91899 349.917543 
L 751.693269 348.897482 
L 774.467548 347.716495 
L 797.241827 346.22099 
L 820.016106 344.013898 
L 842.790385 340.865118 
L 865.564663 336.324854 
L 888.338942 328.203864 
L 911.113221 306.316281 
L 933.8875 57.135567 
L 956.661779 347.784854 
" style="fill:none;stroke:#5cb85c;stroke-linecap:square;"/>
   </g>
   <g id="line2d_11">
    <path clip-path="url(#p5f95dd99d2)" d="M 250.659135 353.223885 
L 273.433413 353.22387 
L 296.207692 353.223722 
L 318.981971 353.223722 
L 341.75625 353.223604 
L 364.530529 353.223589 
L 387.304808 353.222922 
L 410.079087 353.222685 
L 432.853365 353.222285 
L 455.627644 353.220374 
L 478.401923 353.217989 
L 501.176202 353.211648 
L 523.950481 353.197291 
L 546.72476 353.166105 
L 569.499038 353.103391 
L 592.273317 352.989801 
L 615.047596 352.786295 
L 637.821875 352.473599 
L 660.596154 352.019149 
L 683.370433 351.403729 
L 706.144712 350.636909 
L 728.91899 349.717578 
L 751.693269 348.6435 
L 774.467548 347.387147 
L 797.241827 345.86976 
L 820.016106 343.656311 
L 842.790385 340.496968 
L 865.564663 335.886834 
L 888.338942 327.769489 
L 911.113221 305.65194 
L 933.8875 52.431814 
L 956.661779 347.894844 
" style="fill:none;stroke:#5cb85c;stroke-linecap:square;"/>
   </g>
   <g id="line2d_12">
    <path clip-path="url(#p5f95dd99d2)" d="M 273.433413 353.223856 
L 296.207692 353.223856 
L 318.981971 353.223722 
L 341.75625 353.223678 
L 364.530529 353.2235 
L 387.304808 353.223248 
L 410.079087 353.222789 
L 432.853365 353.222093 
L 455.627644 353.220863 
L 478.401923 353.217974 
L 501.176202 353.211574 
L 523.950481 353.19538 
L 546.72476 353.166594 
L 569.499038 353.106087 
L 592.273317 352.987934 
L 615.047596 352.789273 
L 637.821875 352.483748 
L 660.596154 352.025831 
L 683.370433 351.401921 
L 706.144712 350.631886 
L 728.91899 349.690762 
L 751.693269 348.598002 
L 774.467548 347.336878 
L 797.241827 345.749488 
L 820.016106 343.417071 
L 842.790385 340.16928 
L 865.564663 335.377952 
L 888.338942 326.928014 
L 911.113221 303.93767 
L 933.8875 50.397233 
L 956.661779 348.467359 
" style="fill:none;stroke:#5cb85c;stroke-linecap:square;"/>
   </g>
   <g id="line2d_13">
    <path clip-path="url(#p5f95dd99d2)" d="M 250.659135 353.22387 
L 273.433413 353.223781 
L 296.207692 353.223796 
L 318.981971 353.223781 
L 341.75625 353.223663 
L 364.530529 353.22353 
L 387.304808 353.222878 
L 410.079087 353.22267 
L 432.853365 353.222033 
L 455.627644 353.220641 
L 478.401923 353.218018 
L 501.176202 353.210981 
L 523.950481 353.196832 
L 546.72476 353.163971 
L 569.499038 353.102769 
L 592.273317 352.983504 
L 615.047596 352.775717 
L 637.821875 352.463303 
L 660.596154 351.995267 
L 683.370433 351.367164 
L 706.144712 350.585618 
L 728.91899 349.654701 
L 751.693269 348.542577 
L 774.467548 347.26523 
L 797.241827 345.688566 
L 820.016106 343.365735 
L 842.790385 340.070727 
L 865.564663 335.285192 
L 888.338942 326.710359 
L 911.113221 303.398519 
L 933.8875 54.079177 
L 956.661779 348.693799 
" style="fill:none;stroke:#5cb85c;stroke-linecap:square;"/>
   </g>
   <g id="line2d_14">
    <path clip-path="url(#p5f95dd99d2)" d="M 227.884856 353.223885 
L 250.659135 353.223885 
L 273.433413 353.223841 
L 296.207692 353.223811 
L 318.981971 353.223411 
L 341.75625 353.22267 
L 364.530529 353.221663 
L 387.304808 353.221322 
L 410.079087 353.220107 
L 432.853365 353.2195 
L 455.627644 353.218596 
L 478.401923 353.215811 
L 501.176202 353.209588 
L 523.950481 353.195247 
L 546.72476 353.162682 
L 569.499038 353.09585 
L 592.273317 352.975859 
L 615.047596 352.764635 
L 637.821875 352.443331 
L 660.596154 351.968614 
L 683.370433 351.329725 
L 706.144712 350.52483 
L 728.91899 349.555956 
L 751.693269 348.424438 
L 774.467548 347.069577 
L 797.241827 345.216012 
L 820.016106 342.095204 
L 842.790385 339.166775 
L 865.564663 335.168905 
L 888.338942 326.475415 
L 911.113221 303.186791 
L 933.8875 69.411604 
L 956.661779 348.252564 
" style="fill:none;stroke:#5cb85c;stroke-linecap:square;"/>
   </g>
   <g id="line2d_15">
    <path clip-path="url(#p5f95dd99d2)" d="M 273.433413 353.223885 
L 296.207692 353.223856 
L 318.981971 353.223544 
L 341.75625 353.222952 
L 364.530529 353.222241 
L 387.304808 353.221826 
L 410.079087 353.220715 
L 432.853365 353.219678 
L 455.627644 353.218418 
L 478.401923 353.216537 
L 501.176202 353.20981 
L 523.950481 353.195795 
L 546.72476 353.16606 
L 569.499038 353.102354 
L 592.273317 352.987756 
L 615.047596 352.794132 
L 637.821875 352.488148 
L 660.596154 352.045965 
L 683.370433 351.448768 
L 706.144712 350.710616 
L 728.91899 349.814723 
L 751.693269 348.761757 
L 774.467548 347.515894 
L 797.241827 345.815283 
L 820.016106 342.88078 
L 842.790385 340.105514 
L 865.564663 336.444222 
L 888.338942 328.39731 
L 911.113221 306.371928 
L 933.8875 71.991765 
L 956.661779 347.62578 
" style="fill:none;stroke:#5cb85c;stroke-linecap:square;"/>
   </g>
   <g id="line2d_16">
    <path clip-path="url(#p5f95dd99d2)" d="M 250.659135 353.223885 
L 273.433413 353.223841 
L 296.207692 353.223737 
L 318.981971 353.223426 
L 341.75625 353.222967 
L 364.530529 353.22233 
L 387.304808 353.22113 
L 410.079087 353.220107 
L 432.853365 353.219307 
L 455.627644 353.216892 
L 478.401923 353.214803 
L 501.176202 353.206758 
L 523.950481 353.18895 
L 546.72476 353.1504 
L 569.499038 353.071063 
L 592.273317 352.92722 
L 615.047596 352.687846 
L 637.821875 352.318111 
L 660.596154 351.800621 
L 683.370433 351.106086 
L 706.144712 350.262847 
L 728.91899 349.276566 
L 751.693269 348.136262 
L 774.467548 346.792602 
L 797.241827 345.046004 
L 820.016106 342.002459 
L 842.790385 339.119291 
L 865.564663 335.172979 
L 888.338942 326.5357 
L 911.113221 303.269654 
L 933.8875 74.316552 
L 956.661779 348.087934 
" style="fill:none;stroke:#5cb85c;stroke-linecap:square;"/>
   </g>
   <g id="line2d_17">
    <path clip-path="url(#p5f95dd99d2)" d="M 273.433413 353.223796 
L 296.207692 353.223722 
L 318.981971 353.223485 
L 341.75625 353.222641 
L 364.530529 353.221678 
L 387.304808 353.220774 
L 410.079087 353.219707 
L 432.853365 353.219055 
L 455.627644 353.216655 
L 478.401923 353.212877 
L 501.176202 353.204077 
L 523.950481 353.184343 
L 546.72476 353.139096 
L 569.499038 353.053655 
L 592.273317 352.890418 
L 615.047596 352.616998 
L 637.821875 352.202802 
L 660.596154 351.612509 
L 683.370433 350.856534 
L 706.144712 349.923143 
L 728.91899 348.816382 
L 751.693269 347.551199 
L 774.467548 346.07245 
L 797.241827 344.108228 
L 820.016106 340.773914 
L 842.790385 337.599134 
L 865.564663 333.347889 
L 888.338942 324.103886 
L 911.113221 299.276866 
L 933.8875 71.521537 
L 956.661779 348.656301 
" style="fill:none;stroke:#5cb85c;stroke-linecap:square;"/>
   </g>
   <g id="line2d_18">
    <path clip-path="url(#p5f95dd99d2)" d="M 273.433413 353.223856 
L 296.207692 353.223811 
L 318.981971 353.223663 
L 341.75625 353.223174 
L 364.530529 353.222152 
L 387.304808 353.221752 
L 410.079087 353.220626 
L 432.853365 353.219811 
L 455.627644 353.218729 
L 478.401923 353.215277 
L 501.176202 353.207736 
L 523.950481 353.190728 
L 546.72476 353.152638 
L 569.499038 353.075301 
L 592.273317 352.936746 
L 615.047596 352.701936 
L 637.821875 352.354572 
L 660.596154 351.847453 
L 683.370433 351.171896 
L 706.144712 350.360215 
L 728.91899 349.377104 
L 751.693269 348.274595 
L 774.467548 346.95652 
L 797.241827 345.199626 
L 820.016106 342.165177 
L 842.790385 339.256201 
L 865.564663 335.375566 
L 888.338942 326.784792 
L 911.113221 303.418728 
L 933.8875 75.055593 
L 956.661779 348.184709 
" style="fill:none;stroke:#5cb85c;stroke-linecap:square;"/>
   </g>
   <g id="line2d_19">
    <path clip-path="url(#p5f95dd99d2)" d="M 250.659135 353.223885 
L 273.433413 353.223856 
L 296.207692 353.223722 
L 318.981971 353.223485 
L 341.75625 353.222922 
L 364.530529 353.222359 
L 387.304808 353.221367 
L 410.079087 353.220892 
L 432.853365 353.219426 
L 455.627644 353.218003 
L 478.401923 353.214655 
L 501.176202 353.206833 
L 523.950481 353.186328 
L 546.72476 353.146637 
L 569.499038 353.064545 
L 592.273317 352.916434 
L 615.047596 352.668142 
L 637.821875 352.283161 
L 660.596154 351.738959 
L 683.370433 351.035075 
L 706.144712 350.154694 
L 728.91899 349.13013 
L 751.693269 347.950624 
L 774.467548 346.553583 
L 797.241827 344.708641 
L 820.016106 341.593774 
L 842.790385 338.588897 
L 865.564663 334.444354 
L 888.338942 325.55727 
L 911.113221 301.482729 
L 933.8875 77.844964 
L 956.661779 348.690184 
" style="fill:none;stroke:#5cb85c;stroke-linecap:square;"/>
   </g>
   <g id="line2d_20">
    <path clip-path="url(#p5f95dd99d2)" d="M 250.659135 353.22387 
L 273.433413 353.22387 
L 296.207692 353.223841 
L 318.981971 353.223693 
L 341.75625 353.223633 
L 364.530529 353.223559 
L 387.304808 353.223115 
L 410.079087 353.222818 
L 432.853365 353.222063 
L 455.627644 353.220863 
L 478.401923 353.218552 
L 501.176202 353.211203 
L 523.950481 353.198284 
L 546.72476 353.16606 
L 569.499038 353.106665 
L 592.273317 352.989208 
L 615.047596 352.78871 
L 637.821875 352.483141 
L 660.596154 352.03275 
L 683.370433 351.414381 
L 706.144712 350.642272 
L 728.91899 349.72223 
L 751.693269 348.629425 
L 774.467548 347.367279 
L 797.241827 345.810765 
L 820.016106 343.568426 
L 842.790385 340.302826 
L 865.564663 335.615444 
L 888.338942 327.284696 
L 911.113221 304.823873 
L 933.8875 52.260695 
L 956.661779 348.362065 
" style="fill:none;stroke:#5cb85c;stroke-linecap:square;"/>
   </g>
   <g id="line2d_21">
    <path clip-path="url(#p5f95dd99d2)" d="M 273.433413 353.22387 
L 296.207692 353.223663 
L 318.981971 353.223619 
L 341.75625 353.223085 
L 364.530529 353.22227 
L 387.304808 353.221752 
L 410.079087 353.220685 
L 432.853365 353.219559 
L 455.627644 353.218433 
L 478.401923 353.215248 
L 501.176202 353.207262 
L 523.950481 353.193736 
L 546.72476 353.159705 
L 569.499038 353.089064 
L 592.273317 352.966614 
L 615.047596 352.747241 
L 637.821875 352.414693 
L 660.596154 351.917278 
L 683.370433 351.24107 
L 706.144712 350.416988 
L 728.91899 349.39623 
L 751.693269 348.219881 
L 774.467548 346.807995 
L 797.241827 344.920754 
L 820.016106 341.742269 
L 842.790385 338.692694 
L 865.564663 334.73133 
L 888.338942 326.094332 
L 911.113221 302.38231 
L 933.8875 60.287991 
L 956.661779 348.28541 
" style="fill:none;stroke:#5cb85c;stroke-linecap:square;"/>
   </g>
   <g id="line2d_22">
    <path clip-path="url(#p5f95dd99d2)" d="M 296.207692 353.223856 
L 318.981971 353.223796 
L 341.75625 353.223693 
L 364.530529 353.223559 
L 387.304808 353.223278 
L 410.079087 353.222878 
L 432.853365 353.222181 
L 455.627644 353.220433 
L 478.401923 353.218166 
L 501.176202 353.210877 
L 523.950481 353.195617 
L 546.72476 353.162119 
L 569.499038 353.096679 
L 592.273317 352.976496 
L 615.047596 352.765346 
L 637.821875 352.444709 
L 660.596154 351.976673 
L 683.370433 351.36549 
L 706.144712 350.604285 
L 728.91899 349.684881 
L 751.693269 348.671175 
L 774.467548 347.485344 
L 797.241827 345.981735 
L 820.016106 343.69095 
L 842.790385 340.563564 
L 865.564663 335.933043 
L 888.338942 327.351796 
L 911.113221 304.831873 
L 933.8875 58.960776 
L 956.661779 347.968936 
" style="fill:none;stroke:#5cb85c;stroke-linecap:square;"/>
   </g>
   <g id="line2d_23">
    <path clip-path="url(#p5f95dd99d2)" d="M 250.659135 353.223885 
L 273.433413 353.22387 
L 296.207692 353.223841 
L 318.981971 353.223663 
L 341.75625 353.223396 
L 364.530529 353.222567 
L 387.304808 353.222033 
L 410.079087 353.221204 
L 432.853365 353.219989 
L 455.627644 353.218922 
L 478.401923 353.216152 
L 501.176202 353.210003 
L 523.950481 353.193306 
L 546.72476 353.16006 
L 569.499038 353.091198 
L 592.273317 352.961444 
L 615.047596 352.736767 
L 637.821875 352.392573 
L 660.596154 351.879632 
L 683.370433 351.209172 
L 706.144712 350.340229 
L 728.91899 349.277929 
L 751.693269 348.068511 
L 774.467548 346.583837 
L 797.241827 344.620814 
L 820.016106 341.379912 
L 842.790385 338.258956 
L 865.564663 334.08016 
L 888.338942 325.200113 
L 911.113221 300.931815 
L 933.8875 64.269949 
L 956.661779 348.476589 
" style="fill:none;stroke:#5cb85c;stroke-linecap:square;"/>
   </g>
   <g id="line2d_24">
    <path clip-path="url(#p5f95dd99d2)" d="M 250.659135 353.22387 
L 273.433413 353.22387 
L 296.207692 353.22387 
L 318.981971 353.223737 
L 341.75625 353.223619 
L 364.530529 353.223574 
L 387.304808 353.223233 
L 410.079087 353.222833 
L 432.853365 353.222226 
L 455.627644 353.221011 
L 478.401923 353.218122 
L 501.176202 353.210611 
L 523.950481 353.196314 
L 546.72476 353.162342 
L 569.499038 353.095687 
L 592.273317 352.968185 
L 615.047596 352.762931 
L 637.821875 352.428634 
L 660.596154 351.953902 
L 683.370433 351.333385 
L 706.144712 350.554505 
L 728.91899 349.643086 
L 751.693269 348.578742 
L 774.467548 347.370465 
L 797.241827 345.87976 
L 820.016106 343.551596 
L 842.790385 340.39129 
L 865.564663 335.68484 
L 888.338942 327.027885 
L 911.113221 303.938455 
L 933.8875 63.688012 
L 956.661779 348.15133 
" style="fill:none;stroke:#5cb85c;stroke-linecap:square;"/>
   </g>
   <g id="line2d_25">
    <path clip-path="url(#p5f95dd99d2)" d="M 273.433413 353.223796 
L 296.207692 353.223841 
L 318.981971 353.223663 
L 341.75625 353.222907 
L 364.530529 353.222596 
L 387.304808 353.221663 
L 410.079087 353.221055 
L 432.853365 353.219248 
L 455.627644 353.217796 
L 478.401923 353.215233 
L 501.176202 353.208788 
L 523.950481 353.193365 
L 546.72476 353.158179 
L 569.499038 353.091272 
L 592.273317 352.950406 
L 615.047596 352.731093 
L 637.821875 352.373743 
L 660.596154 351.871483 
L 683.370433 351.19449 
L 706.144712 350.314568 
L 728.91899 349.254594 
L 751.693269 348.035636 
L 774.467548 346.583051 
L 797.241827 344.660268 
L 820.016106 341.469383 
L 842.790385 338.35216 
L 865.564663 334.338705 
L 888.338942 325.665586 
L 911.113221 301.953106 
L 933.8875 65.728282 
L 956.661779 348.575586 
" style="fill:none;stroke:#5cb85c;stroke-linecap:square;"/>
   </g>
   <g id="line2d_26">
    <path clip-path="url(#p5f95dd99d2)" d="M 273.433413 353.223885 
L 296.207692 353.223826 
L 318.981971 353.223737 
L 341.75625 353.223737 
L 364.530529 353.223544 
L 387.304808 353.222981 
L 410.079087 353.222789 
L 432.853365 353.221796 
L 455.627644 353.220952 
L 478.401923 353.217855 
L 501.176202 353.210848 
L 523.950481 353.19664 
L 546.72476 353.160623 
L 569.499038 353.096324 
L 592.273317 352.969237 
L 615.047596 352.764724 
L 637.821875 352.445005 
L 660.596154 351.975666 
L 683.370433 351.372735 
L 706.144712 350.621516 
L 728.91899 349.746365 
L 751.693269 348.707651 
L 774.467548 347.546888 
L 797.241827 346.110556 
L 820.016106 343.89773 
L 842.790385 340.840184 
L 865.564663 336.292437 
L 888.338942 327.96692 
L 911.113221 305.996666 
L 933.8875 66.333717 
L 956.661779 347.959025 
" style="fill:none;stroke:#5cb85c;stroke-linecap:square;"/>
   </g>
   <g id="line2d_27">
    <path clip-path="url(#p5f95dd99d2)" d="M 45.690625 353.2239 
L 993.100625 353.2239 
" style="fill:none;stroke:#dedede;stroke-linecap:square;stroke-width:2;"/>
   </g>
   <g id="text_22">
    <!-- FastQC: Per Sequence Quality Scores -->
    <defs>
     <path d="M 9.8125 72.90625 
L 51.703125 72.90625 
L 51.703125 64.59375 
L 19.671875 64.59375 
L 19.671875 43.109375 
L 48.578125 43.109375 
L 48.578125 34.8125 
L 19.671875 34.8125 
L 19.671875 0 
L 9.8125 0 
z
" id="DejaVuSans-70"/>
     <path d="M 44.28125 53.078125 
L 44.28125 44.578125 
Q 40.484375 46.53125 36.375 47.5 
Q 32.28125 48.484375 27.875 48.484375 
Q 21.1875 48.484375 17.84375 46.4375 
Q 14.5 44.390625 14.5 40.28125 
Q 14.5 37.15625 16.890625 35.375 
Q 19.28125 33.59375 26.515625 31.984375 
L 29.59375 31.296875 
Q 39.15625 29.25 43.1875 25.515625 
Q 47.21875 21.78125 47.21875 15.09375 
Q 47.21875 7.46875 41.1875 3.015625 
Q 35.15625 -1.421875 24.609375 -1.421875 
Q 20.21875 -1.421875 15.453125 -0.5625 
Q 10.6875 0.296875 5.421875 2 
L 5.421875 11.28125 
Q 10.40625 8.6875 15.234375 7.390625 
Q 20.0625 6.109375 24.8125 6.109375 
Q 31.15625 6.109375 34.5625 8.28125 
Q 37.984375 10.453125 37.984375 14.40625 
Q 37.984375 18.0625 35.515625 20.015625 
Q 33.0625 21.96875 24.703125 23.78125 
L 21.578125 24.515625 
Q 13.234375 26.265625 9.515625 29.90625 
Q 5.8125 33.546875 5.8125 39.890625 
Q 5.8125 47.609375 11.28125 51.796875 
Q 16.75 56 26.8125 56 
Q 31.78125 56 36.171875 55.265625 
Q 40.578125 54.546875 44.28125 53.078125 
z
" id="DejaVuSans-115"/>
     <path d="M 11.71875 12.40625 
L 22.015625 12.40625 
L 22.015625 0 
L 11.71875 0 
z
M 11.71875 51.703125 
L 22.015625 51.703125 
L 22.015625 39.3125 
L 11.71875 39.3125 
z
" id="DejaVuSans-58"/>
    </defs>
    <g transform="translate(370.020625 19.3575)scale(0.16 -0.16)">
     <use xlink:href="#DejaVuSans-70"/>
     <use x="57.378906" xlink:href="#DejaVuSans-97"/>
     <use x="118.658203" xlink:href="#DejaVuSans-115"/>
     <use x="170.757812" xlink:href="#DejaVuSans-116"/>
     <use x="209.966797" xlink:href="#DejaVuSans-81"/>
     <use x="288.677734" xlink:href="#DejaVuSans-67"/>
     <use x="358.501953" xlink:href="#DejaVuSans-58"/>
     <use x="392.193359" xlink:href="#DejaVuSans-32"/>
     <use x="423.980469" xlink:href="#DejaVuSans-80"/>
     <use x="484.236328" xlink:href="#DejaVuSans-101"/>
     <use x="545.759766" xlink:href="#DejaVuSans-114"/>
     <use x="586.873047" xlink:href="#DejaVuSans-32"/>
     <use x="618.660156" xlink:href="#DejaVuSans-83"/>
     <use x="682.136719" xlink:href="#DejaVuSans-101"/>
     <use x="743.660156" xlink:href="#DejaVuSans-113"/>
     <use x="807.136719" xlink:href="#DejaVuSans-117"/>
     <use x="870.515625" xlink:href="#DejaVuSans-101"/>
     <use x="932.039062" xlink:href="#DejaVuSans-110"/>
     <use x="995.417969" xlink:href="#DejaVuSans-99"/>
     <use x="1050.398438" xlink:href="#DejaVuSans-101"/>
     <use x="1111.921875" xlink:href="#DejaVuSans-32"/>
     <use x="1143.708984" xlink:href="#DejaVuSans-81"/>
     <use x="1222.419922" xlink:href="#DejaVuSans-117"/>
     <use x="1285.798828" xlink:href="#DejaVuSans-97"/>
     <use x="1347.078125" xlink:href="#DejaVuSans-108"/>
     <use x="1374.861328" xlink:href="#DejaVuSans-105"/>
     <use x="1402.644531" xlink:href="#DejaVuSans-116"/>
     <use x="1441.853516" xlink:href="#DejaVuSans-121"/>
     <use x="1501.033203" xlink:href="#DejaVuSans-32"/>
     <use x="1532.820312" xlink:href="#DejaVuSans-83"/>
     <use x="1596.296875" xlink:href="#DejaVuSans-99"/>
     <use x="1651.277344" xlink:href="#DejaVuSans-111"/>
     <use x="1712.458984" xlink:href="#DejaVuSans-114"/>
     <use x="1753.541016" xlink:href="#DejaVuSans-101"/>
     <use x="1815.064453" xlink:href="#DejaVuSans-115"/>
    </g>
   </g>
  </g>
 </g>
 <defs>
  <clipPath id="p5f95dd99d2">
   <rect height="317.968" width="947.41" x="45.690625" y="35.2559"/>
  </clipPath>
 </defs>
</svg>
