<?xml version="1.0" encoding="utf-8" standalone="no"?>
<!DOCTYPE svg PUBLIC "-//W3C//DTD SVG 1.1//EN"
  "http://www.w3.org/Graphics/SVG/1.1/DTD/svg11.dtd">
<!-- Created with matplotlib (https://matplotlib.org/) -->
<svg height="388.844525pt" version="1.1" viewBox="0 0 1000.260625 388.844525" width="1000.260625pt" xmlns="http://www.w3.org/2000/svg" xmlns:xlink="http://www.w3.org/1999/xlink">
 <defs>
  <style type="text/css">
*{stroke-linecap:butt;stroke-linejoin:round;}
  </style>
 </defs>
 <g id="figure_1">
  <g id="axes_1">
   <g id="patch_1">
    <path d="M 50.780625 353.2239 
L 993.060625 353.2239 
L 993.060625 35.2559 
L 50.780625 35.2559 
z
" style="fill:#ffffff;"/>
   </g>
   <g id="matplotlib.axis_1">
    <g id="xtick_1">
     <g id="text_1">
      <!-- 0 -->
      <defs>
       <path d="M 31.78125 66.40625 
Q 24.171875 66.40625 20.328125 58.90625 
Q 16.5 51.421875 16.5 36.375 
Q 16.5 21.390625 20.328125 13.890625 
Q 24.171875 6.390625 31.78125 6.390625 
Q 39.453125 6.390625 43.28125 13.890625 
Q 47.125 21.390625 47.125 36.375 
Q 47.125 51.421875 43.28125 58.90625 
Q 39.453125 66.40625 31.78125 66.40625 
z
M 31.78125 74.21875 
Q 44.046875 74.21875 50.515625 64.515625 
Q 56.984375 54.828125 56.984375 36.375 
Q 56.984375 17.96875 50.515625 8.265625 
Q 44.046875 -1.421875 31.78125 -1.421875 
Q 19.53125 -1.421875 13.0625 8.265625 
Q 6.59375 17.96875 6.59375 36.375 
Q 6.59375 54.828125 13.0625 64.515625 
Q 19.53125 74.21875 31.78125 74.21875 
z
" id="DejaVuSans-48"/>
      </defs>
      <g transform="translate(82.413825 366.30265)scale(0.08 -0.08)">
       <use xlink:href="#DejaVuSans-48"/>
      </g>
     </g>
    </g>
    <g id="xtick_2">
     <g id="text_2">
      <!-- 20 -->
      <defs>
       <path d="M 19.1875 8.296875 
L 53.609375 8.296875 
L 53.609375 0 
L 7.328125 0 
L 7.328125 8.296875 
Q 12.9375 14.109375 22.625 23.890625 
Q 32.328125 33.6875 34.8125 36.53125 
Q 39.546875 41.84375 41.421875 45.53125 
Q 43.3125 49.21875 43.3125 52.78125 
Q 43.3125 58.59375 39.234375 62.25 
Q 35.15625 65.921875 28.609375 65.921875 
Q 23.96875 65.921875 18.8125 64.3125 
Q 13.671875 62.703125 7.8125 59.421875 
L 7.8125 69.390625 
Q 13.765625 71.78125 18.9375 73 
Q 24.125 74.21875 28.421875 74.21875 
Q 39.75 74.21875 46.484375 68.546875 
Q 53.21875 62.890625 53.21875 53.421875 
Q 53.21875 48.921875 51.53125 44.890625 
Q 49.859375 40.875 45.40625 35.40625 
Q 44.1875 33.984375 37.640625 27.21875 
Q 31.109375 20.453125 19.1875 8.296875 
z
" id="DejaVuSans-50"/>
      </defs>
      <g transform="translate(252.923003 366.30265)scale(0.08 -0.08)">
       <use xlink:href="#DejaVuSans-50"/>
       <use x="63.623047" xlink:href="#DejaVuSans-48"/>
      </g>
     </g>
    </g>
    <g id="xtick_3">
     <g id="text_3">
      <!-- 40 -->
      <defs>
       <path d="M 37.796875 64.3125 
L 12.890625 25.390625 
L 37.796875 25.390625 
z
M 35.203125 72.90625 
L 47.609375 72.90625 
L 47.609375 25.390625 
L 58.015625 25.390625 
L 58.015625 17.1875 
L 47.609375 17.1875 
L 47.609375 0 
L 37.796875 0 
L 37.796875 17.1875 
L 4.890625 17.1875 
L 4.890625 26.703125 
z
" id="DejaVuSans-52"/>
      </defs>
      <g transform="translate(425.977181 366.30265)scale(0.08 -0.08)">
       <use xlink:href="#DejaVuSans-52"/>
       <use x="63.623047" xlink:href="#DejaVuSans-48"/>
      </g>
     </g>
    </g>
    <g id="xtick_4">
     <g id="text_4">
      <!-- 60 -->
      <defs>
       <path d="M 33.015625 40.375 
Q 26.375 40.375 22.484375 35.828125 
Q 18.609375 31.296875 18.609375 23.390625 
Q 18.609375 15.53125 22.484375 10.953125 
Q 26.375 6.390625 33.015625 6.390625 
Q 39.65625 6.390625 43.53125 10.953125 
Q 47.40625 15.53125 47.40625 23.390625 
Q 47.40625 31.296875 43.53125 35.828125 
Q 39.65625 40.375 33.015625 40.375 
z
M 52.59375 71.296875 
L 52.59375 62.3125 
Q 48.875 64.0625 45.09375 64.984375 
Q 41.3125 65.921875 37.59375 65.921875 
Q 27.828125 65.921875 22.671875 59.328125 
Q 17.53125 52.734375 16.796875 39.40625 
Q 19.671875 43.65625 24.015625 45.921875 
Q 28.375 48.1875 33.59375 48.1875 
Q 44.578125 48.1875 50.953125 41.515625 
Q 57.328125 34.859375 57.328125 23.390625 
Q 57.328125 12.15625 50.6875 5.359375 
Q 44.046875 -1.421875 33.015625 -1.421875 
Q 20.359375 -1.421875 13.671875 8.265625 
Q 6.984375 17.96875 6.984375 36.375 
Q 6.984375 53.65625 15.1875 63.9375 
Q 23.390625 74.21875 37.203125 74.21875 
Q 40.921875 74.21875 44.703125 73.484375 
Q 48.484375 72.75 52.59375 71.296875 
z
" id="DejaVuSans-54"/>
      </defs>
      <g transform="translate(599.03136 366.30265)scale(0.08 -0.08)">
       <use xlink:href="#DejaVuSans-54"/>
       <use x="63.623047" xlink:href="#DejaVuSans-48"/>
      </g>
     </g>
    </g>
    <g id="xtick_5">
     <g id="text_5">
      <!-- 80 -->
      <defs>
       <path d="M 31.78125 34.625 
Q 24.75 34.625 20.71875 30.859375 
Q 16.703125 27.09375 16.703125 20.515625 
Q 16.703125 13.921875 20.71875 10.15625 
Q 24.75 6.390625 31.78125 6.390625 
Q 38.8125 6.390625 42.859375 10.171875 
Q 46.921875 13.96875 46.921875 20.515625 
Q 46.921875 27.09375 42.890625 30.859375 
Q 38.875 34.625 31.78125 34.625 
z
M 21.921875 38.8125 
Q 15.578125 40.375 12.03125 44.71875 
Q 8.5 49.078125 8.5 55.328125 
Q 8.5 64.0625 14.71875 69.140625 
Q 20.953125 74.21875 31.78125 74.21875 
Q 42.671875 74.21875 48.875 69.140625 
Q 55.078125 64.0625 55.078125 55.328125 
Q 55.078125 49.078125 51.53125 44.71875 
Q 48 40.375 41.703125 38.8125 
Q 48.828125 37.15625 52.796875 32.3125 
Q 56.78125 27.484375 56.78125 20.515625 
Q 56.78125 9.90625 50.3125 4.234375 
Q 43.84375 -1.421875 31.78125 -1.421875 
Q 19.734375 -1.421875 13.25 4.234375 
Q 6.78125 9.90625 6.78125 20.515625 
Q 6.78125 27.484375 10.78125 32.3125 
Q 14.796875 37.15625 21.921875 38.8125 
z
M 18.3125 54.390625 
Q 18.3125 48.734375 21.84375 45.5625 
Q 25.390625 42.390625 31.78125 42.390625 
Q 38.140625 42.390625 41.71875 45.5625 
Q 45.3125 48.734375 45.3125 54.390625 
Q 45.3125 60.0625 41.71875 63.234375 
Q 38.140625 66.40625 31.78125 66.40625 
Q 25.390625 66.40625 21.84375 63.234375 
Q 18.3125 60.0625 18.3125 54.390625 
z
" id="DejaVuSans-56"/>
      </defs>
      <g transform="translate(772.085538 366.30265)scale(0.08 -0.08)">
       <use xlink:href="#DejaVuSans-56"/>
       <use x="63.623047" xlink:href="#DejaVuSans-48"/>
      </g>
     </g>
    </g>
    <g id="xtick_6">
     <g id="text_6">
      <!-- 100 -->
      <defs>
       <path d="M 12.40625 8.296875 
L 28.515625 8.296875 
L 28.515625 63.921875 
L 10.984375 60.40625 
L 10.984375 69.390625 
L 28.421875 72.90625 
L 38.28125 72.90625 
L 38.28125 8.296875 
L 54.390625 8.296875 
L 54.390625 0 
L 12.40625 0 
z
" id="DejaVuSans-49"/>
      </defs>
      <g transform="translate(942.594716 366.30265)scale(0.08 -0.08)">
       <use xlink:href="#DejaVuSans-49"/>
       <use x="63.623047" xlink:href="#DejaVuSans-48"/>
       <use x="127.246094" xlink:href="#DejaVuSans-48"/>
      </g>
     </g>
    </g>
    <g id="text_7">
     <!-- Position in read -->
     <defs>
      <path d="M 19.671875 64.796875 
L 19.671875 37.40625 
L 32.078125 37.40625 
Q 38.96875 37.40625 42.71875 40.96875 
Q 46.484375 44.53125 46.484375 51.125 
Q 46.484375 57.671875 42.71875 61.234375 
Q 38.96875 64.796875 32.078125 64.796875 
z
M 9.8125 72.90625 
L 32.078125 72.90625 
Q 44.34375 72.90625 50.609375 67.359375 
Q 56.890625 61.8125 56.890625 51.125 
Q 56.890625 40.328125 50.609375 34.8125 
Q 44.34375 29.296875 32.078125 29.296875 
L 19.671875 29.296875 
L 19.671875 0 
L 9.8125 0 
z
" id="DejaVuSans-80"/>
      <path d="M 30.609375 48.390625 
Q 23.390625 48.390625 19.1875 42.75 
Q 14.984375 37.109375 14.984375 27.296875 
Q 14.984375 17.484375 19.15625 11.84375 
Q 23.34375 6.203125 30.609375 6.203125 
Q 37.796875 6.203125 41.984375 11.859375 
Q 46.1875 17.53125 46.1875 27.296875 
Q 46.1875 37.015625 41.984375 42.703125 
Q 37.796875 48.390625 30.609375 48.390625 
z
M 30.609375 56 
Q 42.328125 56 49.015625 48.375 
Q 55.71875 40.765625 55.71875 27.296875 
Q 55.71875 13.875 49.015625 6.21875 
Q 42.328125 -1.421875 30.609375 -1.421875 
Q 18.84375 -1.421875 12.171875 6.21875 
Q 5.515625 13.875 5.515625 27.296875 
Q 5.515625 40.765625 12.171875 48.375 
Q 18.84375 56 30.609375 56 
z
" id="DejaVuSans-111"/>
      <path d="M 44.28125 53.078125 
L 44.28125 44.578125 
Q 40.484375 46.53125 36.375 47.5 
Q 32.28125 48.484375 27.875 48.484375 
Q 21.1875 48.484375 17.84375 46.4375 
Q 14.5 44.390625 14.5 40.28125 
Q 14.5 37.15625 16.890625 35.375 
Q 19.28125 33.59375 26.515625 31.984375 
L 29.59375 31.296875 
Q 39.15625 29.25 43.1875 25.515625 
Q 47.21875 21.78125 47.21875 15.09375 
Q 47.21875 7.46875 41.1875 3.015625 
Q 35.15625 -1.421875 24.609375 -1.421875 
Q 20.21875 -1.421875 15.453125 -0.5625 
Q 10.6875 0.296875 5.421875 2 
L 5.421875 11.28125 
Q 10.40625 8.6875 15.234375 7.390625 
Q 20.0625 6.109375 24.8125 6.109375 
Q 31.15625 6.109375 34.5625 8.28125 
Q 37.984375 10.453125 37.984375 14.40625 
Q 37.984375 18.0625 35.515625 20.015625 
Q 33.0625 21.96875 24.703125 23.78125 
L 21.578125 24.515625 
Q 13.234375 26.265625 9.515625 29.90625 
Q 5.8125 33.546875 5.8125 39.890625 
Q 5.8125 47.609375 11.28125 51.796875 
Q 16.75 56 26.8125 56 
Q 31.78125 56 36.171875 55.265625 
Q 40.578125 54.546875 44.28125 53.078125 
z
" id="DejaVuSans-115"/>
      <path d="M 9.421875 54.6875 
L 18.40625 54.6875 
L 18.40625 0 
L 9.421875 0 
z
M 9.421875 75.984375 
L 18.40625 75.984375 
L 18.40625 64.59375 
L 9.421875 64.59375 
z
" id="DejaVuSans-105"/>
      <path d="M 18.3125 70.21875 
L 18.3125 54.6875 
L 36.8125 54.6875 
L 36.8125 47.703125 
L 18.3125 47.703125 
L 18.3125 18.015625 
Q 18.3125 11.328125 20.140625 9.421875 
Q 21.96875 7.515625 27.59375 7.515625 
L 36.8125 7.515625 
L 36.8125 0 
L 27.59375 0 
Q 17.1875 0 13.234375 3.875 
Q 9.28125 7.765625 9.28125 18.015625 
L 9.28125 47.703125 
L 2.6875 47.703125 
L 2.6875 54.6875 
L 9.28125 54.6875 
L 9.28125 70.21875 
z
" id="DejaVuSans-116"/>
      <path d="M 54.890625 33.015625 
L 54.890625 0 
L 45.90625 0 
L 45.90625 32.71875 
Q 45.90625 40.484375 42.875 44.328125 
Q 39.84375 48.1875 33.796875 48.1875 
Q 26.515625 48.1875 22.3125 43.546875 
Q 18.109375 38.921875 18.109375 30.90625 
L 18.109375 0 
L 9.078125 0 
L 9.078125 54.6875 
L 18.109375 54.6875 
L 18.109375 46.1875 
Q 21.34375 51.125 25.703125 53.5625 
Q 30.078125 56 35.796875 56 
Q 45.21875 56 50.046875 50.171875 
Q 54.890625 44.34375 54.890625 33.015625 
z
" id="DejaVuSans-110"/>
      <path id="DejaVuSans-32"/>
      <path d="M 41.109375 46.296875 
Q 39.59375 47.171875 37.8125 47.578125 
Q 36.03125 48 33.890625 48 
Q 26.265625 48 22.1875 43.046875 
Q 18.109375 38.09375 18.109375 28.8125 
L 18.109375 0 
L 9.078125 0 
L 9.078125 54.6875 
L 18.109375 54.6875 
L 18.109375 46.1875 
Q 20.953125 51.171875 25.484375 53.578125 
Q 30.03125 56 36.53125 56 
Q 37.453125 56 38.578125 55.875 
Q 39.703125 55.765625 41.0625 55.515625 
z
" id="DejaVuSans-114"/>
      <path d="M 56.203125 29.59375 
L 56.203125 25.203125 
L 14.890625 25.203125 
Q 15.484375 15.921875 20.484375 11.0625 
Q 25.484375 6.203125 34.421875 6.203125 
Q 39.59375 6.203125 44.453125 7.46875 
Q 49.3125 8.734375 54.109375 11.28125 
L 54.109375 2.78125 
Q 49.265625 0.734375 44.1875 -0.34375 
Q 39.109375 -1.421875 33.890625 -1.421875 
Q 20.796875 -1.421875 13.15625 6.1875 
Q 5.515625 13.8125 5.515625 26.8125 
Q 5.515625 40.234375 12.765625 48.109375 
Q 20.015625 56 32.328125 56 
Q 43.359375 56 49.78125 48.890625 
Q 56.203125 41.796875 56.203125 29.59375 
z
M 47.21875 32.234375 
Q 47.125 39.59375 43.09375 43.984375 
Q 39.0625 48.390625 32.421875 48.390625 
Q 24.90625 48.390625 20.390625 44.140625 
Q 15.875 39.890625 15.1875 32.171875 
z
" id="DejaVuSans-101"/>
      <path d="M 34.28125 27.484375 
Q 23.390625 27.484375 19.1875 25 
Q 14.984375 22.515625 14.984375 16.5 
Q 14.984375 11.71875 18.140625 8.90625 
Q 21.296875 6.109375 26.703125 6.109375 
Q 34.1875 6.109375 38.703125 11.40625 
Q 43.21875 16.703125 43.21875 25.484375 
L 43.21875 27.484375 
z
M 52.203125 31.203125 
L 52.203125 0 
L 43.21875 0 
L 43.21875 8.296875 
Q 40.140625 3.328125 35.546875 0.953125 
Q 30.953125 -1.421875 24.3125 -1.421875 
Q 15.921875 -1.421875 10.953125 3.296875 
Q 6 8.015625 6 15.921875 
Q 6 25.140625 12.171875 29.828125 
Q 18.359375 34.515625 30.609375 34.515625 
L 43.21875 34.515625 
L 43.21875 35.40625 
Q 43.21875 41.609375 39.140625 45 
Q 35.0625 48.390625 27.6875 48.390625 
Q 23 48.390625 18.546875 47.265625 
Q 14.109375 46.140625 10.015625 43.890625 
L 10.015625 52.203125 
Q 14.9375 54.109375 19.578125 55.046875 
Q 24.21875 56 28.609375 56 
Q 40.484375 56 46.34375 49.84375 
Q 52.203125 43.703125 52.203125 31.203125 
z
" id="DejaVuSans-97"/>
      <path d="M 45.40625 46.390625 
L 45.40625 75.984375 
L 54.390625 75.984375 
L 54.390625 0 
L 45.40625 0 
L 45.40625 8.203125 
Q 42.578125 3.328125 38.25 0.953125 
Q 33.9375 -1.421875 27.875 -1.421875 
Q 17.96875 -1.421875 11.734375 6.484375 
Q 5.515625 14.40625 5.515625 27.296875 
Q 5.515625 40.1875 11.734375 48.09375 
Q 17.96875 56 27.875 56 
Q 33.9375 56 38.25 53.625 
Q 42.578125 51.265625 45.40625 46.390625 
z
M 14.796875 27.296875 
Q 14.796875 17.390625 18.875 11.75 
Q 22.953125 6.109375 30.078125 6.109375 
Q 37.203125 6.109375 41.296875 11.75 
Q 45.40625 17.390625 45.40625 27.296875 
Q 45.40625 37.203125 41.296875 42.84375 
Q 37.203125 48.484375 30.078125 48.484375 
Q 22.953125 48.484375 18.875 42.84375 
Q 14.796875 37.203125 14.796875 27.296875 
z
" id="DejaVuSans-100"/>
     </defs>
     <g transform="translate(483.172969 379.564837)scale(0.1 -0.1)">
      <use xlink:href="#DejaVuSans-80"/>
      <use x="60.255859" xlink:href="#DejaVuSans-111"/>
      <use x="121.4375" xlink:href="#DejaVuSans-115"/>
      <use x="173.537109" xlink:href="#DejaVuSans-105"/>
      <use x="201.320312" xlink:href="#DejaVuSans-116"/>
      <use x="240.529297" xlink:href="#DejaVuSans-105"/>
      <use x="268.3125" xlink:href="#DejaVuSans-111"/>
      <use x="329.494141" xlink:href="#DejaVuSans-110"/>
      <use x="392.873047" xlink:href="#DejaVuSans-32"/>
      <use x="424.660156" xlink:href="#DejaVuSans-105"/>
      <use x="452.443359" xlink:href="#DejaVuSans-110"/>
      <use x="515.822266" xlink:href="#DejaVuSans-32"/>
      <use x="547.609375" xlink:href="#DejaVuSans-114"/>
      <use x="588.691406" xlink:href="#DejaVuSans-101"/>
      <use x="650.214844" xlink:href="#DejaVuSans-97"/>
      <use x="711.494141" xlink:href="#DejaVuSans-100"/>
     </g>
    </g>
   </g>
   <g id="matplotlib.axis_2">
    <g id="ytick_1">
     <g id="line2d_1">
      <path clip-path="url(#p2eafc0939a)" d="M 50.780625 353.2239 
L 993.060625 353.2239 
" style="fill:none;stroke:#dedede;stroke-linecap:square;"/>
     </g>
     <g id="text_8">
      <!-- 0.000 -->
      <defs>
       <path d="M 10.6875 12.40625 
L 21 12.40625 
L 21 0 
L 10.6875 0 
z
" id="DejaVuSans-46"/>
      </defs>
      <g transform="translate(20.878125 356.263275)scale(0.08 -0.08)">
       <use xlink:href="#DejaVuSans-48"/>
       <use x="63.623047" xlink:href="#DejaVuSans-46"/>
       <use x="95.410156" xlink:href="#DejaVuSans-48"/>
       <use x="159.033203" xlink:href="#DejaVuSans-48"/>
       <use x="222.65625" xlink:href="#DejaVuSans-48"/>
      </g>
     </g>
    </g>
    <g id="ytick_2">
     <g id="line2d_2">
      <path clip-path="url(#p2eafc0939a)" d="M 50.780625 298.054927 
L 993.060625 298.054927 
" style="fill:none;stroke:#dedede;stroke-linecap:square;"/>
     </g>
     <g id="text_9">
      <!-- 0.005 -->
      <defs>
       <path d="M 10.796875 72.90625 
L 49.515625 72.90625 
L 49.515625 64.59375 
L 19.828125 64.59375 
L 19.828125 46.734375 
Q 21.96875 47.46875 24.109375 47.828125 
Q 26.265625 48.1875 28.421875 48.1875 
Q 40.625 48.1875 47.75 41.5 
Q 54.890625 34.8125 54.890625 23.390625 
Q 54.890625 11.625 47.5625 5.09375 
Q 40.234375 -1.421875 26.90625 -1.421875 
Q 22.3125 -1.421875 17.546875 -0.640625 
Q 12.796875 0.140625 7.71875 1.703125 
L 7.71875 11.625 
Q 12.109375 9.234375 16.796875 8.0625 
Q 21.484375 6.890625 26.703125 6.890625 
Q 35.15625 6.890625 40.078125 11.328125 
Q 45.015625 15.765625 45.015625 23.390625 
Q 45.015625 31 40.078125 35.4375 
Q 35.15625 39.890625 26.703125 39.890625 
Q 22.75 39.890625 18.8125 39.015625 
Q 14.890625 38.140625 10.796875 36.28125 
z
" id="DejaVuSans-53"/>
      </defs>
      <g transform="translate(20.878125 301.094302)scale(0.08 -0.08)">
       <use xlink:href="#DejaVuSans-48"/>
       <use x="63.623047" xlink:href="#DejaVuSans-46"/>
       <use x="95.410156" xlink:href="#DejaVuSans-48"/>
       <use x="159.033203" xlink:href="#DejaVuSans-48"/>
       <use x="222.65625" xlink:href="#DejaVuSans-53"/>
      </g>
     </g>
    </g>
    <g id="ytick_3">
     <g id="line2d_3">
      <path clip-path="url(#p2eafc0939a)" d="M 50.780625 242.885953 
L 993.060625 242.885953 
" style="fill:none;stroke:#dedede;stroke-linecap:square;"/>
     </g>
     <g id="text_10">
      <!-- 0.010 -->
      <g transform="translate(20.878125 245.925328)scale(0.08 -0.08)">
       <use xlink:href="#DejaVuSans-48"/>
       <use x="63.623047" xlink:href="#DejaVuSans-46"/>
       <use x="95.410156" xlink:href="#DejaVuSans-48"/>
       <use x="159.033203" xlink:href="#DejaVuSans-49"/>
       <use x="222.65625" xlink:href="#DejaVuSans-48"/>
      </g>
     </g>
    </g>
    <g id="ytick_4">
     <g id="line2d_4">
      <path clip-path="url(#p2eafc0939a)" d="M 50.780625 187.71698 
L 993.060625 187.71698 
" style="fill:none;stroke:#dedede;stroke-linecap:square;"/>
     </g>
     <g id="text_11">
      <!-- 0.015 -->
      <g transform="translate(20.878125 190.756355)scale(0.08 -0.08)">
       <use xlink:href="#DejaVuSans-48"/>
       <use x="63.623047" xlink:href="#DejaVuSans-46"/>
       <use x="95.410156" xlink:href="#DejaVuSans-48"/>
       <use x="159.033203" xlink:href="#DejaVuSans-49"/>
       <use x="222.65625" xlink:href="#DejaVuSans-53"/>
      </g>
     </g>
    </g>
    <g id="ytick_5">
     <g id="line2d_5">
      <path clip-path="url(#p2eafc0939a)" d="M 50.780625 132.548006 
L 993.060625 132.548006 
" style="fill:none;stroke:#dedede;stroke-linecap:square;"/>
     </g>
     <g id="text_12">
      <!-- 0.020 -->
      <g transform="translate(20.878125 135.587381)scale(0.08 -0.08)">
       <use xlink:href="#DejaVuSans-48"/>
       <use x="63.623047" xlink:href="#DejaVuSans-46"/>
       <use x="95.410156" xlink:href="#DejaVuSans-48"/>
       <use x="159.033203" xlink:href="#DejaVuSans-50"/>
       <use x="222.65625" xlink:href="#DejaVuSans-48"/>
      </g>
     </g>
    </g>
    <g id="ytick_6">
     <g id="line2d_6">
      <path clip-path="url(#p2eafc0939a)" d="M 50.780625 77.379033 
L 993.060625 77.379033 
" style="fill:none;stroke:#dedede;stroke-linecap:square;"/>
     </g>
     <g id="text_13">
      <!-- 0.025 -->
      <g transform="translate(20.878125 80.418408)scale(0.08 -0.08)">
       <use xlink:href="#DejaVuSans-48"/>
       <use x="63.623047" xlink:href="#DejaVuSans-46"/>
       <use x="95.410156" xlink:href="#DejaVuSans-48"/>
       <use x="159.033203" xlink:href="#DejaVuSans-50"/>
       <use x="222.65625" xlink:href="#DejaVuSans-53"/>
      </g>
     </g>
    </g>
    <g id="text_14">
     <!-- Percent converted % -->
     <defs>
      <path d="M 48.78125 52.59375 
L 48.78125 44.1875 
Q 44.96875 46.296875 41.140625 47.34375 
Q 37.3125 48.390625 33.40625 48.390625 
Q 24.65625 48.390625 19.8125 42.84375 
Q 14.984375 37.3125 14.984375 27.296875 
Q 14.984375 17.28125 19.8125 11.734375 
Q 24.65625 6.203125 33.40625 6.203125 
Q 37.3125 6.203125 41.140625 7.25 
Q 44.96875 8.296875 48.78125 10.40625 
L 48.78125 2.09375 
Q 45.015625 0.34375 40.984375 -0.53125 
Q 36.96875 -1.421875 32.421875 -1.421875 
Q 20.0625 -1.421875 12.78125 6.34375 
Q 5.515625 14.109375 5.515625 27.296875 
Q 5.515625 40.671875 12.859375 48.328125 
Q 20.21875 56 33.015625 56 
Q 37.15625 56 41.109375 55.140625 
Q 45.0625 54.296875 48.78125 52.59375 
z
" id="DejaVuSans-99"/>
      <path d="M 2.984375 54.6875 
L 12.5 54.6875 
L 29.59375 8.796875 
L 46.6875 54.6875 
L 56.203125 54.6875 
L 35.6875 0 
L 23.484375 0 
z
" id="DejaVuSans-118"/>
      <path d="M 72.703125 32.078125 
Q 68.453125 32.078125 66.03125 28.46875 
Q 63.625 24.859375 63.625 18.40625 
Q 63.625 12.0625 66.03125 8.421875 
Q 68.453125 4.78125 72.703125 4.78125 
Q 76.859375 4.78125 79.265625 8.421875 
Q 81.6875 12.0625 81.6875 18.40625 
Q 81.6875 24.8125 79.265625 28.4375 
Q 76.859375 32.078125 72.703125 32.078125 
z
M 72.703125 38.28125 
Q 80.421875 38.28125 84.953125 32.90625 
Q 89.5 27.546875 89.5 18.40625 
Q 89.5 9.28125 84.9375 3.921875 
Q 80.375 -1.421875 72.703125 -1.421875 
Q 64.890625 -1.421875 60.34375 3.921875 
Q 55.8125 9.28125 55.8125 18.40625 
Q 55.8125 27.59375 60.375 32.9375 
Q 64.9375 38.28125 72.703125 38.28125 
z
M 22.3125 68.015625 
Q 18.109375 68.015625 15.6875 64.375 
Q 13.28125 60.75 13.28125 54.390625 
Q 13.28125 47.953125 15.671875 44.328125 
Q 18.0625 40.71875 22.3125 40.71875 
Q 26.5625 40.71875 28.96875 44.328125 
Q 31.390625 47.953125 31.390625 54.390625 
Q 31.390625 60.6875 28.953125 64.34375 
Q 26.515625 68.015625 22.3125 68.015625 
z
M 66.40625 74.21875 
L 74.21875 74.21875 
L 28.609375 -1.421875 
L 20.796875 -1.421875 
z
M 22.3125 74.21875 
Q 30.03125 74.21875 34.609375 68.875 
Q 39.203125 63.53125 39.203125 54.390625 
Q 39.203125 45.171875 34.640625 39.84375 
Q 30.078125 34.515625 22.3125 34.515625 
Q 14.546875 34.515625 10.03125 39.859375 
Q 5.515625 45.21875 5.515625 54.390625 
Q 5.515625 63.484375 10.046875 68.84375 
Q 14.59375 74.21875 22.3125 74.21875 
z
" id="DejaVuSans-37"/>
     </defs>
     <g transform="translate(14.798438 246.54615)rotate(-90)scale(0.1 -0.1)">
      <use xlink:href="#DejaVuSans-80"/>
      <use x="60.255859" xlink:href="#DejaVuSans-101"/>
      <use x="121.779297" xlink:href="#DejaVuSans-114"/>
      <use x="162.861328" xlink:href="#DejaVuSans-99"/>
      <use x="217.841797" xlink:href="#DejaVuSans-101"/>
      <use x="279.365234" xlink:href="#DejaVuSans-110"/>
      <use x="342.744141" xlink:href="#DejaVuSans-116"/>
      <use x="381.953125" xlink:href="#DejaVuSans-32"/>
      <use x="413.740234" xlink:href="#DejaVuSans-99"/>
      <use x="468.720703" xlink:href="#DejaVuSans-111"/>
      <use x="529.902344" xlink:href="#DejaVuSans-110"/>
      <use x="593.28125" xlink:href="#DejaVuSans-118"/>
      <use x="652.460938" xlink:href="#DejaVuSans-101"/>
      <use x="713.984375" xlink:href="#DejaVuSans-114"/>
      <use x="755.097656" xlink:href="#DejaVuSans-116"/>
      <use x="794.306641" xlink:href="#DejaVuSans-101"/>
      <use x="855.830078" xlink:href="#DejaVuSans-100"/>
      <use x="919.306641" xlink:href="#DejaVuSans-32"/>
      <use x="951.09375" xlink:href="#DejaVuSans-37"/>
     </g>
    </g>
   </g>
   <g id="line2d_7">
    <path clip-path="url(#p2eafc0939a)" d="M 93.611534 353.2239 
L 102.264243 199.109009 
L 110.916952 182.141372 
L 119.569661 176.610485 
L 128.22237 191.140782 
L 136.875079 192.921915 
L 145.527788 195.265511 
L 154.180496 207.545956 
L 162.833205 208.014675 
L 171.485914 221.513789 
L 180.138623 223.669898 
L 188.791332 223.576154 
L 197.444041 237.169012 
L 206.09675 240.730887 
L 214.749459 246.542391 
L 223.402168 271.008587 
L 232.054877 273.347006 
L 240.707586 268.935202 
L 249.360294 267.709942 
L 258.013003 255.698743 
L 266.665712 243.402368 
L 275.318421 234.947476 
L 283.97113 231.460441 
L 292.623839 231.255777 
L 301.276548 231.517475 
L 309.929257 225.202903 
L 318.581966 224.24071 
L 327.234675 215.671532 
L 335.887383 214.421484 
L 344.540092 210.813483 
L 353.192801 198.265115 
L 361.84551 190.905423 
L 370.498219 190.780907 
L 379.150928 184.680366 
L 387.803637 200.63565 
L 396.456346 353.2239 
L 405.109055 353.2239 
L 413.761764 353.2239 
L 422.414473 353.2239 
L 431.067181 353.2239 
L 439.71989 353.2239 
L 448.372599 353.2239 
L 457.025308 353.2239 
L 465.678017 353.2239 
L 474.330726 353.2239 
L 482.983435 353.2239 
L 491.636144 353.2239 
L 500.288853 353.2239 
L 508.941562 353.2239 
L 517.594271 353.2239 
L 526.246979 353.2239 
L 534.899688 353.2239 
L 543.552397 353.2239 
L 552.205106 353.2239 
L 560.857815 353.2239 
L 569.510524 353.2239 
L 578.163233 353.2239 
L 586.815942 353.2239 
L 595.468651 353.2239 
L 604.12136 353.2239 
L 612.774069 353.2239 
L 621.426777 353.2239 
L 630.079486 353.2239 
L 638.732195 353.2239 
L 647.384904 353.2239 
L 656.037613 353.2239 
L 664.690322 353.2239 
L 673.343031 353.2239 
L 681.99574 353.2239 
L 690.648449 353.2239 
L 699.301158 353.2239 
L 707.953867 353.2239 
L 716.606575 353.2239 
L 725.259284 353.2239 
L 733.911993 353.2239 
L 742.564702 353.2239 
L 751.217411 353.2239 
L 759.87012 353.2239 
L 768.522829 353.2239 
L 777.175538 353.2239 
L 785.828247 353.2239 
L 794.480956 353.2239 
L 803.133664 353.2239 
L 811.786373 353.2239 
L 820.439082 353.2239 
L 829.091791 353.2239 
L 837.7445 353.2239 
L 846.397209 353.2239 
L 855.049918 353.2239 
L 863.702627 353.2239 
L 872.355336 353.2239 
L 881.008045 353.2239 
L 889.660754 353.2239 
L 898.313462 353.2239 
L 906.966171 353.2239 
L 915.61888 353.2239 
L 924.271589 353.2239 
L 932.924298 353.2239 
L 941.577007 353.2239 
L 950.229716 353.2239 
" style="fill:none;stroke:#7cb5ec;stroke-linecap:square;"/>
   </g>
   <g id="line2d_8">
    <path clip-path="url(#p2eafc0939a)" d="M 93.611534 353.2239 
L 102.264243 185.923847 
L 110.916952 176.166256 
L 119.569661 162.61931 
L 128.22237 172.092699 
L 136.875079 178.155668 
L 145.527788 182.039758 
L 154.180496 207.617908 
L 162.833205 193.028889 
L 171.485914 200.702334 
L 180.138623 214.912418 
L 188.791332 222.585863 
L 197.444041 224.859477 
L 206.09675 224.195996 
L 214.749459 238.121223 
L 223.402168 256.593157 
L 232.054877 265.492761 
L 240.707586 262.549973 
L 249.360294 253.920725 
L 258.013003 246.13995 
L 266.665712 238.641751 
L 275.318421 227.34887 
L 283.97113 223.540186 
L 292.623839 227.125058 
L 301.276548 224.828716 
L 309.929257 207.727884 
L 318.581966 212.444191 
L 327.234675 204.732215 
L 335.887383 208.970858 
L 344.540092 195.83073 
L 353.192801 182.672054 
L 361.84551 182.817085 
L 370.498219 186.363302 
L 379.150928 189.892846 
L 387.803637 193.214709 
L 396.456346 353.2239 
L 405.109055 353.2239 
L 413.761764 353.2239 
L 422.414473 353.2239 
L 431.067181 353.2239 
L 439.71989 353.2239 
L 448.372599 353.2239 
L 457.025308 353.2239 
L 465.678017 353.2239 
L 474.330726 353.2239 
L 482.983435 353.2239 
L 491.636144 353.2239 
L 500.288853 353.2239 
L 508.941562 353.2239 
L 517.594271 353.2239 
L 526.246979 353.2239 
L 534.899688 353.2239 
L 543.552397 353.2239 
L 552.205106 353.2239 
L 560.857815 353.2239 
L 569.510524 353.2239 
L 578.163233 353.2239 
L 586.815942 353.2239 
L 595.468651 353.2239 
L 604.12136 353.2239 
L 612.774069 353.2239 
L 621.426777 353.2239 
L 630.079486 353.2239 
L 638.732195 353.2239 
L 647.384904 353.2239 
L 656.037613 353.2239 
L 664.690322 353.2239 
L 673.343031 353.2239 
L 681.99574 353.2239 
L 690.648449 353.2239 
L 699.301158 353.2239 
L 707.953867 353.2239 
L 716.606575 353.2239 
L 725.259284 353.2239 
L 733.911993 353.2239 
L 742.564702 353.2239 
L 751.217411 353.2239 
L 759.87012 353.2239 
L 768.522829 353.2239 
L 777.175538 353.2239 
L 785.828247 353.2239 
L 794.480956 353.2239 
L 803.133664 353.2239 
L 811.786373 353.2239 
L 820.439082 353.2239 
L 829.091791 353.2239 
L 837.7445 353.2239 
L 846.397209 353.2239 
L 855.049918 353.2239 
L 863.702627 353.2239 
L 872.355336 353.2239 
L 881.008045 353.2239 
L 889.660754 353.2239 
L 898.313462 353.2239 
L 906.966171 353.2239 
L 915.61888 353.2239 
L 924.271589 353.2239 
L 932.924298 353.2239 
L 941.577007 353.2239 
L 950.229716 353.2239 
" style="fill:none;stroke:#434348;stroke-linecap:square;"/>
   </g>
   <g id="line2d_9">
    <path clip-path="url(#p2eafc0939a)" d="M 93.611534 353.2239 
L 102.264243 176.290488 
L 110.916952 169.258763 
L 119.569661 161.466851 
L 128.22237 184.65254 
L 136.875079 177.335744 
L 145.527788 184.36747 
L 154.180496 199.096083 
L 162.833205 191.589241 
L 171.485914 208.598415 
L 180.138623 211.734184 
L 188.791332 220.951446 
L 197.444041 226.842891 
L 206.09675 234.349365 
L 214.749459 237.959487 
L 223.402168 252.40174 
L 232.054877 260.853251 
L 240.707586 261.892691 
L 249.360294 254.94788 
L 258.013003 248.568513 
L 266.665712 239.526685 
L 275.318421 221.353243 
L 283.97113 225.32946 
L 292.623839 223.407737 
L 301.276548 212.827321 
L 309.929257 218.313835 
L 318.581966 214.101668 
L 327.234675 210.458286 
L 335.887383 201.764209 
L 344.540092 197.722419 
L 353.192801 185.759287 
L 361.84551 189.055028 
L 370.498219 186.230847 
L 379.150928 187.013735 
L 387.803637 195.1456 
L 396.456346 353.2239 
L 405.109055 353.2239 
L 413.761764 353.2239 
L 422.414473 353.2239 
L 431.067181 353.2239 
L 439.71989 353.2239 
L 448.372599 353.2239 
L 457.025308 353.2239 
L 465.678017 353.2239 
L 474.330726 353.2239 
L 482.983435 353.2239 
L 491.636144 353.2239 
L 500.288853 353.2239 
L 508.941562 353.2239 
L 517.594271 353.2239 
L 526.246979 353.2239 
L 534.899688 353.2239 
L 543.552397 353.2239 
L 552.205106 353.2239 
L 560.857815 353.2239 
L 569.510524 353.2239 
L 578.163233 353.2239 
L 586.815942 353.2239 
L 595.468651 353.2239 
L 604.12136 353.2239 
L 612.774069 353.2239 
L 621.426777 353.2239 
L 630.079486 353.2239 
L 638.732195 353.2239 
L 647.384904 353.2239 
L 656.037613 353.2239 
L 664.690322 353.2239 
L 673.343031 353.2239 
L 681.99574 353.2239 
L 690.648449 353.2239 
L 699.301158 353.2239 
L 707.953867 353.2239 
L 716.606575 353.2239 
L 725.259284 353.2239 
L 733.911993 353.2239 
L 742.564702 353.2239 
L 751.217411 353.2239 
L 759.87012 353.2239 
L 768.522829 353.2239 
L 777.175538 353.2239 
L 785.828247 353.2239 
L 794.480956 353.2239 
L 803.133664 353.2239 
L 811.786373 353.2239 
L 820.439082 353.2239 
L 829.091791 353.2239 
L 837.7445 353.2239 
L 846.397209 353.2239 
L 855.049918 353.2239 
L 863.702627 353.2239 
L 872.355336 353.2239 
L 881.008045 353.2239 
L 889.660754 353.2239 
L 898.313462 353.2239 
L 906.966171 353.2239 
L 915.61888 353.2239 
L 924.271589 353.2239 
L 932.924298 353.2239 
L 941.577007 353.2239 
L 950.229716 353.2239 
" style="fill:none;stroke:#90ed7d;stroke-linecap:square;"/>
   </g>
   <g id="line2d_10">
    <path clip-path="url(#p2eafc0939a)" d="M 93.611534 353.2239 
L 102.264243 177.916971 
L 110.916952 187.942541 
L 119.569661 170.327521 
L 128.22237 185.131633 
L 136.875079 185.881209 
L 145.527788 196.000476 
L 154.180496 201.622291 
L 162.833205 202.55926 
L 171.485914 207.150409 
L 180.138623 223.359975 
L 188.791332 220.736461 
L 197.444041 230.19985 
L 206.09675 234.884294 
L 214.749459 237.975412 
L 223.402168 261.398443 
L 232.054877 266.452539 
L 240.707586 261.666977 
L 249.360294 264.845914 
L 258.013003 250.027553 
L 266.665712 247.48593 
L 275.318421 234.535381 
L 283.97113 224.299214 
L 292.623839 231.313682 
L 301.276548 221.164711 
L 309.929257 217.851093 
L 318.581966 217.074192 
L 327.234675 215.826514 
L 335.887383 205.189204 
L 344.540092 204.583956 
L 353.192801 190.817214 
L 361.84551 193.60083 
L 370.498219 183.456692 
L 379.150928 176.52245 
L 387.803637 199.696257 
L 396.456346 353.2239 
L 405.109055 353.2239 
L 413.761764 353.2239 
L 422.414473 353.2239 
L 431.067181 353.2239 
L 439.71989 353.2239 
L 448.372599 353.2239 
L 457.025308 353.2239 
L 465.678017 353.2239 
L 474.330726 353.2239 
L 482.983435 353.2239 
L 491.636144 353.2239 
L 500.288853 353.2239 
L 508.941562 353.2239 
L 517.594271 353.2239 
L 526.246979 353.2239 
L 534.899688 353.2239 
L 543.552397 353.2239 
L 552.205106 353.2239 
L 560.857815 353.2239 
L 569.510524 353.2239 
L 578.163233 353.2239 
L 586.815942 353.2239 
L 595.468651 353.2239 
L 604.12136 353.2239 
L 612.774069 353.2239 
L 621.426777 353.2239 
L 630.079486 353.2239 
L 638.732195 353.2239 
L 647.384904 353.2239 
L 656.037613 353.2239 
L 664.690322 353.2239 
L 673.343031 353.2239 
L 681.99574 353.2239 
L 690.648449 353.2239 
L 699.301158 353.2239 
L 707.953867 353.2239 
L 716.606575 353.2239 
L 725.259284 353.2239 
L 733.911993 353.2239 
L 742.564702 353.2239 
L 751.217411 353.2239 
L 759.87012 353.2239 
L 768.522829 353.2239 
L 777.175538 353.2239 
L 785.828247 353.2239 
L 794.480956 353.2239 
L 803.133664 353.2239 
L 811.786373 353.2239 
L 820.439082 353.2239 
L 829.091791 353.2239 
L 837.7445 353.2239 
L 846.397209 353.2239 
L 855.049918 353.2239 
L 863.702627 353.2239 
L 872.355336 353.2239 
L 881.008045 353.2239 
L 889.660754 353.2239 
L 898.313462 353.2239 
L 906.966171 353.2239 
L 915.61888 353.2239 
L 924.271589 353.2239 
L 932.924298 353.2239 
L 941.577007 353.2239 
L 950.229716 353.2239 
" style="fill:none;stroke:#f7a35c;stroke-linecap:square;"/>
   </g>
   <g id="line2d_11">
    <path clip-path="url(#p2eafc0939a)" d="M 93.611534 353.2239 
L 102.264243 148.649802 
L 110.916952 154.133231 
L 119.569661 110.518877 
L 128.22237 136.333175 
L 136.875079 151.011894 
L 145.527788 126.294281 
L 154.180496 83.27045 
L 162.833205 125.703758 
L 171.485914 183.575029 
L 180.138623 174.295379 
L 188.791332 175.307705 
L 197.444041 168.89631 
L 206.09675 202.386972 
L 214.749459 223.898159 
L 223.402168 224.992325 
L 232.054877 240.001741 
L 240.707586 226.155169 
L 249.360294 212.81167 
L 258.013003 221.826463 
L 266.665712 211.598994 
L 275.318421 172.328805 
L 283.97113 194.334054 
L 292.623839 185.778719 
L 301.276548 95.885699 
L 309.929257 150.47228 
L 318.581966 109.789594 
L 327.234675 144.135221 
L 335.887383 170.71443 
L 344.540092 155.523165 
L 353.192801 90.564694 
L 361.84551 92.631826 
L 370.498219 96.229531 
L 379.150928 50.397233 
L 387.803637 89.952968 
L 396.456346 353.2239 
L 405.109055 353.2239 
L 413.761764 353.2239 
L 422.414473 353.2239 
L 431.067181 353.2239 
L 439.71989 353.2239 
L 448.372599 353.2239 
L 457.025308 353.2239 
L 465.678017 353.2239 
L 474.330726 353.2239 
L 482.983435 353.2239 
L 491.636144 353.2239 
L 500.288853 353.2239 
L 508.941562 353.2239 
L 517.594271 353.2239 
L 526.246979 353.2239 
L 534.899688 353.2239 
L 543.552397 353.2239 
L 552.205106 353.2239 
L 560.857815 353.2239 
L 569.510524 353.2239 
L 578.163233 353.2239 
L 586.815942 353.2239 
L 595.468651 353.2239 
L 604.12136 353.2239 
L 612.774069 353.2239 
L 621.426777 353.2239 
L 630.079486 353.2239 
L 638.732195 353.2239 
L 647.384904 353.2239 
L 656.037613 353.2239 
L 664.690322 353.2239 
L 673.343031 353.2239 
L 681.99574 353.2239 
L 690.648449 353.2239 
L 699.301158 353.2239 
L 707.953867 353.2239 
L 716.606575 353.2239 
L 725.259284 353.2239 
L 733.911993 353.2239 
L 742.564702 353.2239 
L 751.217411 353.2239 
L 759.87012 353.2239 
L 768.522829 353.2239 
L 777.175538 353.2239 
L 785.828247 353.2239 
L 794.480956 353.2239 
L 803.133664 353.2239 
L 811.786373 353.2239 
L 820.439082 353.2239 
L 829.091791 353.2239 
L 837.7445 353.2239 
L 846.397209 353.2239 
L 855.049918 353.2239 
L 863.702627 353.2239 
L 872.355336 353.2239 
L 881.008045 353.2239 
L 889.660754 353.2239 
L 898.313462 353.2239 
L 906.966171 353.2239 
L 915.61888 353.2239 
L 924.271589 353.2239 
L 932.924298 353.2239 
L 941.577007 353.2239 
L 950.229716 353.2239 
" style="fill:none;stroke:#8085e9;stroke-linecap:square;"/>
   </g>
   <g id="line2d_12">
    <path clip-path="url(#p2eafc0939a)" d="M 93.611534 353.2239 
L 102.264243 222.405909 
L 110.916952 234.260239 
L 119.569661 208.870114 
L 128.22237 232.830993 
L 136.875079 242.415345 
L 145.527788 244.012737 
L 154.180496 249.477498 
L 162.833205 255.110407 
L 171.485914 255.362627 
L 180.138623 264.946978 
L 188.791332 262.92922 
L 197.444041 261.836267 
L 206.09675 269.150359 
L 214.749459 277.809537 
L 223.402168 280.751 
L 232.054877 292.265971 
L 240.707586 291.504873 
L 249.360294 286.62267 
L 258.013003 282.494954 
L 266.665712 271.384595 
L 275.318421 265.822389 
L 283.97113 267.742941 
L 292.623839 258.892214 
L 301.276548 267.627797 
L 309.929257 263.132387 
L 318.581966 254.862731 
L 327.234675 254.085221 
L 335.887383 244.374735 
L 344.540092 241.816314 
L 353.192801 238.318668 
L 361.84551 241.680627 
L 370.498219 225.16586 
L 379.150928 193.084916 
L 387.803637 205.020345 
L 396.456346 353.2239 
L 405.109055 353.2239 
L 413.761764 353.2239 
L 422.414473 353.2239 
L 431.067181 353.2239 
L 439.71989 353.2239 
L 448.372599 353.2239 
L 457.025308 353.2239 
L 465.678017 353.2239 
L 474.330726 353.2239 
L 482.983435 353.2239 
L 491.636144 353.2239 
L 500.288853 353.2239 
L 508.941562 353.2239 
L 517.594271 353.2239 
L 526.246979 353.2239 
L 534.899688 353.2239 
L 543.552397 353.2239 
L 552.205106 353.2239 
L 560.857815 353.2239 
L 569.510524 353.2239 
L 578.163233 353.2239 
L 586.815942 353.2239 
L 595.468651 353.2239 
L 604.12136 353.2239 
L 612.774069 353.2239 
L 621.426777 353.2239 
L 630.079486 353.2239 
L 638.732195 353.2239 
L 647.384904 353.2239 
L 656.037613 353.2239 
L 664.690322 353.2239 
L 673.343031 353.2239 
L 681.99574 353.2239 
L 690.648449 353.2239 
L 699.301158 353.2239 
L 707.953867 353.2239 
L 716.606575 353.2239 
L 725.259284 353.2239 
L 733.911993 353.2239 
L 742.564702 353.2239 
L 751.217411 353.2239 
L 759.87012 353.2239 
L 768.522829 353.2239 
L 777.175538 353.2239 
L 785.828247 353.2239 
L 794.480956 353.2239 
L 803.133664 353.2239 
L 811.786373 353.2239 
L 820.439082 353.2239 
L 829.091791 353.2239 
L 837.7445 353.2239 
L 846.397209 353.2239 
L 855.049918 353.2239 
L 863.702627 353.2239 
L 872.355336 353.2239 
L 881.008045 353.2239 
L 889.660754 353.2239 
L 898.313462 353.2239 
L 906.966171 353.2239 
L 915.61888 353.2239 
L 924.271589 353.2239 
L 932.924298 353.2239 
L 941.577007 353.2239 
L 950.229716 353.2239 
" style="fill:none;stroke:#f15c80;stroke-linecap:square;"/>
   </g>
   <g id="line2d_13">
    <path clip-path="url(#p2eafc0939a)" d="M 93.611534 353.2239 
L 102.264243 231.330264 
L 110.916952 239.972284 
L 119.569661 217.173811 
L 128.22237 242.852957 
L 136.875079 237.58544 
L 145.527788 245.239801 
L 154.180496 260.301607 
L 162.833205 264.33455 
L 171.485914 257.338629 
L 180.138623 259.231643 
L 188.791332 266.392174 
L 197.444041 264.746075 
L 206.09675 270.507119 
L 214.749459 286.473796 
L 223.402168 288.448012 
L 232.054877 293.712051 
L 240.707586 289.591263 
L 249.360294 283.576588 
L 258.013003 278.711449 
L 266.665712 283.06712 
L 275.318421 274.657926 
L 283.97113 271.844591 
L 292.623839 274.713981 
L 301.276548 271.485966 
L 309.929257 267.337242 
L 318.581966 263.197083 
L 327.234675 258.146836 
L 335.887383 253.009279 
L 344.540092 247.944465 
L 353.192801 241.628249 
L 361.84551 248.638529 
L 370.498219 232.918438 
L 379.150928 214.882525 
L 387.803637 224.862051 
L 396.456346 353.2239 
L 405.109055 353.2239 
L 413.761764 353.2239 
L 422.414473 353.2239 
L 431.067181 353.2239 
L 439.71989 353.2239 
L 448.372599 353.2239 
L 457.025308 353.2239 
L 465.678017 353.2239 
L 474.330726 353.2239 
L 482.983435 353.2239 
L 491.636144 353.2239 
L 500.288853 353.2239 
L 508.941562 353.2239 
L 517.594271 353.2239 
L 526.246979 353.2239 
L 534.899688 353.2239 
L 543.552397 353.2239 
L 552.205106 353.2239 
L 560.857815 353.2239 
L 569.510524 353.2239 
L 578.163233 353.2239 
L 586.815942 353.2239 
L 595.468651 353.2239 
L 604.12136 353.2239 
L 612.774069 353.2239 
L 621.426777 353.2239 
L 630.079486 353.2239 
L 638.732195 353.2239 
L 647.384904 353.2239 
L 656.037613 353.2239 
L 664.690322 353.2239 
L 673.343031 353.2239 
L 681.99574 353.2239 
L 690.648449 353.2239 
L 699.301158 353.2239 
L 707.953867 353.2239 
L 716.606575 353.2239 
L 725.259284 353.2239 
L 733.911993 353.2239 
L 742.564702 353.2239 
L 751.217411 353.2239 
L 759.87012 353.2239 
L 768.522829 353.2239 
L 777.175538 353.2239 
L 785.828247 353.2239 
L 794.480956 353.2239 
L 803.133664 353.2239 
L 811.786373 353.2239 
L 820.439082 353.2239 
L 829.091791 353.2239 
L 837.7445 353.2239 
L 846.397209 353.2239 
L 855.049918 353.2239 
L 863.702627 353.2239 
L 872.355336 353.2239 
L 881.008045 353.2239 
L 889.660754 353.2239 
L 898.313462 353.2239 
L 906.966171 353.2239 
L 915.61888 353.2239 
L 924.271589 353.2239 
L 932.924298 353.2239 
L 941.577007 353.2239 
L 950.229716 353.2239 
" style="fill:none;stroke:#e4d354;stroke-linecap:square;"/>
   </g>
   <g id="line2d_14">
    <path clip-path="url(#p2eafc0939a)" d="M 93.611534 353.2239 
L 102.264243 241.903483 
L 110.916952 249.128988 
L 119.569661 233.963368 
L 128.22237 248.970186 
L 136.875079 250.320005 
L 145.527788 253.813656 
L 154.180496 264.771015 
L 162.833205 262.071376 
L 171.485914 265.009219 
L 180.138623 267.708858 
L 188.791332 268.264666 
L 197.444041 268.979276 
L 206.09675 279.936456 
L 214.749459 283.429593 
L 223.402168 290.733367 
L 232.054877 299.464456 
L 240.707586 295.171898 
L 249.360294 291.910383 
L 258.013003 288.647276 
L 266.665712 281.887239 
L 275.318421 268.76848 
L 283.97113 273.60114 
L 292.623839 272.791713 
L 301.276548 275.001654 
L 309.929257 276.565458 
L 318.581966 267.322078 
L 327.234675 265.153036 
L 335.887383 264.891025 
L 344.540092 253.158773 
L 353.192801 254.470314 
L 361.84551 255.647558 
L 370.498219 232.704213 
L 379.150928 224.792673 
L 387.803637 231.287564 
L 396.456346 353.2239 
L 405.109055 353.2239 
L 413.761764 353.2239 
L 422.414473 353.2239 
L 431.067181 353.2239 
L 439.71989 353.2239 
L 448.372599 353.2239 
L 457.025308 353.2239 
L 465.678017 353.2239 
L 474.330726 353.2239 
L 482.983435 353.2239 
L 491.636144 353.2239 
L 500.288853 353.2239 
L 508.941562 353.2239 
L 517.594271 353.2239 
L 526.246979 353.2239 
L 534.899688 353.2239 
L 543.552397 353.2239 
L 552.205106 353.2239 
L 560.857815 353.2239 
L 569.510524 353.2239 
L 578.163233 353.2239 
L 586.815942 353.2239 
L 595.468651 353.2239 
L 604.12136 353.2239 
L 612.774069 353.2239 
L 621.426777 353.2239 
L 630.079486 353.2239 
L 638.732195 353.2239 
L 647.384904 353.2239 
L 656.037613 353.2239 
L 664.690322 353.2239 
L 673.343031 353.2239 
L 681.99574 353.2239 
L 690.648449 353.2239 
L 699.301158 353.2239 
L 707.953867 353.2239 
L 716.606575 353.2239 
L 725.259284 353.2239 
L 733.911993 353.2239 
L 742.564702 353.2239 
L 751.217411 353.2239 
L 759.87012 353.2239 
L 768.522829 353.2239 
L 777.175538 353.2239 
L 785.828247 353.2239 
L 794.480956 353.2239 
L 803.133664 353.2239 
L 811.786373 353.2239 
L 820.439082 353.2239 
L 829.091791 353.2239 
L 837.7445 353.2239 
L 846.397209 353.2239 
L 855.049918 353.2239 
L 863.702627 353.2239 
L 872.355336 353.2239 
L 881.008045 353.2239 
L 889.660754 353.2239 
L 898.313462 353.2239 
L 906.966171 353.2239 
L 915.61888 353.2239 
L 924.271589 353.2239 
L 932.924298 353.2239 
L 941.577007 353.2239 
L 950.229716 353.2239 
" style="fill:none;stroke:#2b908f;stroke-linecap:square;"/>
   </g>
   <g id="line2d_15">
    <path clip-path="url(#p2eafc0939a)" d="M 93.611534 353.2239 
L 102.264243 230.298806 
L 110.916952 244.114355 
L 119.569661 218.813591 
L 128.22237 244.530486 
L 136.875079 250.273094 
L 145.527788 241.784022 
L 154.180496 252.686653 
L 162.833205 262.17444 
L 171.485914 266.33575 
L 180.138623 277.571287 
L 188.791332 277.238382 
L 197.444041 274.491917 
L 206.09675 276.405865 
L 214.749459 282.397695 
L 223.402168 293.216205 
L 232.054877 294.544527 
L 240.707586 295.039501 
L 249.360294 292.53729 
L 258.013003 282.873062 
L 266.665712 284.53025 
L 275.318421 278.025704 
L 283.97113 271.516809 
L 292.623839 275.667777 
L 301.276548 274.153152 
L 309.929257 275.127817 
L 318.581966 263.774491 
L 327.234675 266.923252 
L 335.887383 261.146983 
L 344.540092 249.187521 
L 353.192801 242.969408 
L 361.84551 249.462393 
L 370.498219 235.908806 
L 379.150928 217.274177 
L 387.803637 225.658779 
L 396.456346 353.2239 
L 405.109055 353.2239 
L 413.761764 353.2239 
L 422.414473 353.2239 
L 431.067181 353.2239 
L 439.71989 353.2239 
L 448.372599 353.2239 
L 457.025308 353.2239 
L 465.678017 353.2239 
L 474.330726 353.2239 
L 482.983435 353.2239 
L 491.636144 353.2239 
L 500.288853 353.2239 
L 508.941562 353.2239 
L 517.594271 353.2239 
L 526.246979 353.2239 
L 534.899688 353.2239 
L 543.552397 353.2239 
L 552.205106 353.2239 
L 560.857815 353.2239 
L 569.510524 353.2239 
L 578.163233 353.2239 
L 586.815942 353.2239 
L 595.468651 353.2239 
L 604.12136 353.2239 
L 612.774069 353.2239 
L 621.426777 353.2239 
L 630.079486 353.2239 
L 638.732195 353.2239 
L 647.384904 353.2239 
L 656.037613 353.2239 
L 664.690322 353.2239 
L 673.343031 353.2239 
L 681.99574 353.2239 
L 690.648449 353.2239 
L 699.301158 353.2239 
L 707.953867 353.2239 
L 716.606575 353.2239 
L 725.259284 353.2239 
L 733.911993 353.2239 
L 742.564702 353.2239 
L 751.217411 353.2239 
L 759.87012 353.2239 
L 768.522829 353.2239 
L 777.175538 353.2239 
L 785.828247 353.2239 
L 794.480956 353.2239 
L 803.133664 353.2239 
L 811.786373 353.2239 
L 820.439082 353.2239 
L 829.091791 353.2239 
L 837.7445 353.2239 
L 846.397209 353.2239 
L 855.049918 353.2239 
L 863.702627 353.2239 
L 872.355336 353.2239 
L 881.008045 353.2239 
L 889.660754 353.2239 
L 898.313462 353.2239 
L 906.966171 353.2239 
L 915.61888 353.2239 
L 924.271589 353.2239 
L 932.924298 353.2239 
L 941.577007 353.2239 
L 950.229716 353.2239 
" style="fill:none;stroke:#f45b5b;stroke-linecap:square;"/>
   </g>
   <g id="line2d_16">
    <path clip-path="url(#p2eafc0939a)" d="M 93.611534 353.2239 
L 102.264243 243.367726 
L 110.916952 247.828052 
L 119.569661 232.382109 
L 128.22237 243.367726 
L 136.875079 249.72782 
L 145.527788 250.471208 
L 154.180496 270.047083 
L 162.833205 268.642906 
L 171.485914 268.064716 
L 180.138623 272.772837 
L 188.791332 277.315762 
L 197.444041 268.477709 
L 206.09675 276.489552 
L 214.749459 281.197094 
L 223.402168 290.529557 
L 232.054877 293.664512 
L 240.707586 295.229722 
L 249.360294 289.523583 
L 258.013003 283.980488 
L 266.665712 278.600269 
L 275.318421 272.474125 
L 283.97113 270.640783 
L 292.623839 270.130103 
L 301.276548 277.225707 
L 309.929257 273.145935 
L 318.581966 263.613729 
L 327.234675 267.399761 
L 335.887383 258.850143 
L 344.540092 249.792302 
L 353.192801 245.440632 
L 361.84551 254.54737 
L 370.498219 229.776918 
L 379.150928 223.881335 
L 387.803637 233.307412 
L 396.456346 353.2239 
L 405.109055 353.2239 
L 413.761764 353.2239 
L 422.414473 353.2239 
L 431.067181 353.2239 
L 439.71989 353.2239 
L 448.372599 353.2239 
L 457.025308 353.2239 
L 465.678017 353.2239 
L 474.330726 353.2239 
L 482.983435 353.2239 
L 491.636144 353.2239 
L 500.288853 353.2239 
L 508.941562 353.2239 
L 517.594271 353.2239 
L 526.246979 353.2239 
L 534.899688 353.2239 
L 543.552397 353.2239 
L 552.205106 353.2239 
L 560.857815 353.2239 
L 569.510524 353.2239 
L 578.163233 353.2239 
L 586.815942 353.2239 
L 595.468651 353.2239 
L 604.12136 353.2239 
L 612.774069 353.2239 
L 621.426777 353.2239 
L 630.079486 353.2239 
L 638.732195 353.2239 
L 647.384904 353.2239 
L 656.037613 353.2239 
L 664.690322 353.2239 
L 673.343031 353.2239 
L 681.99574 353.2239 
L 690.648449 353.2239 
L 699.301158 353.2239 
L 707.953867 353.2239 
L 716.606575 353.2239 
L 725.259284 353.2239 
L 733.911993 353.2239 
L 742.564702 353.2239 
L 751.217411 353.2239 
L 759.87012 353.2239 
L 768.522829 353.2239 
L 777.175538 353.2239 
L 785.828247 353.2239 
L 794.480956 353.2239 
L 803.133664 353.2239 
L 811.786373 353.2239 
L 820.439082 353.2239 
L 829.091791 353.2239 
L 837.7445 353.2239 
L 846.397209 353.2239 
L 855.049918 353.2239 
L 863.702627 353.2239 
L 872.355336 353.2239 
L 881.008045 353.2239 
L 889.660754 353.2239 
L 898.313462 353.2239 
L 906.966171 353.2239 
L 915.61888 353.2239 
L 924.271589 353.2239 
L 932.924298 353.2239 
L 941.577007 353.2239 
L 950.229716 353.2239 
" style="fill:none;stroke:#91e8e1;stroke-linecap:square;"/>
   </g>
   <g id="line2d_17">
    <path clip-path="url(#p2eafc0939a)" d="M 93.611534 353.2239 
L 102.264243 198.254281 
L 110.916952 196.190521 
L 119.569661 177.61668 
L 128.22237 189.99924 
L 136.875079 197.691437 
L 145.527788 190.374469 
L 154.180496 206.415514 
L 162.833205 198.910932 
L 171.485914 224.614125 
L 180.138623 229.585911 
L 188.791332 233.619624 
L 197.444041 230.054947 
L 206.09675 242.530957 
L 214.749459 253.787123 
L 223.402168 267.575651 
L 232.054877 274.23178 
L 240.707586 273.194632 
L 249.360294 265.682071 
L 258.013003 254.412672 
L 266.665712 250.366676 
L 275.318421 233.927842 
L 283.97113 234.28675 
L 292.623839 241.029144 
L 301.276548 235.470303 
L 309.929257 228.398984 
L 318.581966 226.966405 
L 327.234675 222.713821 
L 335.887383 222.403702 
L 344.540092 212.967279 
L 353.192801 197.305399 
L 361.84551 205.843066 
L 370.498219 192.800774 
L 379.150928 199.693703 
L 387.803637 210.936343 
L 396.456346 353.2239 
L 405.109055 353.2239 
L 413.761764 353.2239 
L 422.414473 353.2239 
L 431.067181 353.2239 
L 439.71989 353.2239 
L 448.372599 353.2239 
L 457.025308 353.2239 
L 465.678017 353.2239 
L 474.330726 353.2239 
L 482.983435 353.2239 
L 491.636144 353.2239 
L 500.288853 353.2239 
L 508.941562 353.2239 
L 517.594271 353.2239 
L 526.246979 353.2239 
L 534.899688 353.2239 
L 543.552397 353.2239 
L 552.205106 353.2239 
L 560.857815 353.2239 
L 569.510524 353.2239 
L 578.163233 353.2239 
L 586.815942 353.2239 
L 595.468651 353.2239 
L 604.12136 353.2239 
L 612.774069 353.2239 
L 621.426777 353.2239 
L 630.079486 353.2239 
L 638.732195 353.2239 
L 647.384904 353.2239 
L 656.037613 353.2239 
L 664.690322 353.2239 
L 673.343031 353.2239 
L 681.99574 353.2239 
L 690.648449 353.2239 
L 699.301158 353.2239 
L 707.953867 353.2239 
L 716.606575 353.2239 
L 725.259284 353.2239 
L 733.911993 353.2239 
L 742.564702 353.2239 
L 751.217411 353.2239 
L 759.87012 353.2239 
L 768.522829 353.2239 
L 777.175538 353.2239 
L 785.828247 353.2239 
L 794.480956 353.2239 
L 803.133664 353.2239 
L 811.786373 353.2239 
L 820.439082 353.2239 
L 829.091791 353.2239 
L 837.7445 353.2239 
L 846.397209 353.2239 
L 855.049918 353.2239 
L 863.702627 353.2239 
L 872.355336 353.2239 
L 881.008045 353.2239 
L 889.660754 353.2239 
L 898.313462 353.2239 
L 906.966171 353.2239 
L 915.61888 353.2239 
L 924.271589 353.2239 
L 932.924298 353.2239 
L 941.577007 353.2239 
L 950.229716 353.2239 
" style="fill:none;stroke:#7cb5ec;stroke-linecap:square;"/>
   </g>
   <g id="line2d_18">
    <path clip-path="url(#p2eafc0939a)" d="M 93.611534 353.2239 
L 102.264243 186.666852 
L 110.916952 171.140347 
L 119.569661 155.613843 
L 128.22237 184.408451 
L 136.875079 181.67955 
L 145.527788 179.044749 
L 154.180496 198.147055 
L 162.833205 196.923755 
L 171.485914 208.309858 
L 180.138623 219.507761 
L 188.791332 222.613062 
L 197.444041 222.236662 
L 206.09675 226.847057 
L 214.749459 244.254925 
L 223.402168 257.145158 
L 232.054877 265.420382 
L 240.707586 264.754845 
L 249.360294 255.993065 
L 258.013003 245.438316 
L 266.665712 243.730605 
L 275.318421 230.155355 
L 283.97113 224.390859 
L 292.623839 232.374298 
L 301.276548 227.073774 
L 309.929257 220.539417 
L 318.581966 213.158649 
L 327.234675 205.303107 
L 335.887383 202.247823 
L 344.540092 188.238424 
L 353.192801 182.4139 
L 361.84551 190.67237 
L 370.498219 177.587081 
L 379.150928 188.296308 
L 387.803637 189.680224 
L 396.456346 353.2239 
L 405.109055 353.2239 
L 413.761764 353.2239 
L 422.414473 353.2239 
L 431.067181 353.2239 
L 439.71989 353.2239 
L 448.372599 353.2239 
L 457.025308 353.2239 
L 465.678017 353.2239 
L 474.330726 353.2239 
L 482.983435 353.2239 
L 491.636144 353.2239 
L 500.288853 353.2239 
L 508.941562 353.2239 
L 517.594271 353.2239 
L 526.246979 353.2239 
L 534.899688 353.2239 
L 543.552397 353.2239 
L 552.205106 353.2239 
L 560.857815 353.2239 
L 569.510524 353.2239 
L 578.163233 353.2239 
L 586.815942 353.2239 
L 595.468651 353.2239 
L 604.12136 353.2239 
L 612.774069 353.2239 
L 621.426777 353.2239 
L 630.079486 353.2239 
L 638.732195 353.2239 
L 647.384904 353.2239 
L 656.037613 353.2239 
L 664.690322 353.2239 
L 673.343031 353.2239 
L 681.99574 353.2239 
L 690.648449 353.2239 
L 699.301158 353.2239 
L 707.953867 353.2239 
L 716.606575 353.2239 
L 725.259284 353.2239 
L 733.911993 353.2239 
L 742.564702 353.2239 
L 751.217411 353.2239 
L 759.87012 353.2239 
L 768.522829 353.2239 
L 777.175538 353.2239 
L 785.828247 353.2239 
L 794.480956 353.2239 
L 803.133664 353.2239 
L 811.786373 353.2239 
L 820.439082 353.2239 
L 829.091791 353.2239 
L 837.7445 353.2239 
L 846.397209 353.2239 
L 855.049918 353.2239 
L 863.702627 353.2239 
L 872.355336 353.2239 
L 881.008045 353.2239 
L 889.660754 353.2239 
L 898.313462 353.2239 
L 906.966171 353.2239 
L 915.61888 353.2239 
L 924.271589 353.2239 
L 932.924298 353.2239 
L 941.577007 353.2239 
L 950.229716 353.2239 
" style="fill:none;stroke:#434348;stroke-linecap:square;"/>
   </g>
   <g id="line2d_19">
    <path clip-path="url(#p2eafc0939a)" d="M 93.611534 353.2239 
L 102.264243 235.434673 
L 110.916952 245.436425 
L 119.569661 227.251421 
L 128.22237 241.055492 
L 136.875079 239.732946 
L 145.527788 246.097697 
L 154.180496 258.083268 
L 162.833205 255.934131 
L 171.485914 262.298882 
L 180.138623 266.679815 
L 188.791332 274.036476 
L 197.444041 275.689658 
L 206.09675 273.705595 
L 214.749459 282.880241 
L 223.402168 292.632918 
L 232.054877 299.90322 
L 240.707586 297.915341 
L 249.360294 286.749515 
L 258.013003 285.750524 
L 266.665712 275.820068 
L 275.318421 273.081831 
L 283.97113 268.685938 
L 292.623839 270.576566 
L 301.276548 272.79797 
L 309.929257 273.937532 
L 318.581966 262.582673 
L 327.234675 264.468741 
L 335.887383 254.760558 
L 344.540092 243.219776 
L 353.192801 244.920271 
L 361.84551 252.602085 
L 370.498219 225.550983 
L 379.150928 214.771132 
L 387.803637 225.526188 
L 396.456346 353.2239 
L 405.109055 353.2239 
L 413.761764 353.2239 
L 422.414473 353.2239 
L 431.067181 353.2239 
L 439.71989 353.2239 
L 448.372599 353.2239 
L 457.025308 353.2239 
L 465.678017 353.2239 
L 474.330726 353.2239 
L 482.983435 353.2239 
L 491.636144 353.2239 
L 500.288853 353.2239 
L 508.941562 353.2239 
L 517.594271 353.2239 
L 526.246979 353.2239 
L 534.899688 353.2239 
L 543.552397 353.2239 
L 552.205106 353.2239 
L 560.857815 353.2239 
L 569.510524 353.2239 
L 578.163233 353.2239 
L 586.815942 353.2239 
L 595.468651 353.2239 
L 604.12136 353.2239 
L 612.774069 353.2239 
L 621.426777 353.2239 
L 630.079486 353.2239 
L 638.732195 353.2239 
L 647.384904 353.2239 
L 656.037613 353.2239 
L 664.690322 353.2239 
L 673.343031 353.2239 
L 681.99574 353.2239 
L 690.648449 353.2239 
L 699.301158 353.2239 
L 707.953867 353.2239 
L 716.606575 353.2239 
L 725.259284 353.2239 
L 733.911993 353.2239 
L 742.564702 353.2239 
L 751.217411 353.2239 
L 759.87012 353.2239 
L 768.522829 353.2239 
L 777.175538 353.2239 
L 785.828247 353.2239 
L 794.480956 353.2239 
L 803.133664 353.2239 
L 811.786373 353.2239 
L 820.439082 353.2239 
L 829.091791 353.2239 
L 837.7445 353.2239 
L 846.397209 353.2239 
L 855.049918 353.2239 
L 863.702627 353.2239 
L 872.355336 353.2239 
L 881.008045 353.2239 
L 889.660754 353.2239 
L 898.313462 353.2239 
L 906.966171 353.2239 
L 915.61888 353.2239 
L 924.271589 353.2239 
L 932.924298 353.2239 
L 941.577007 353.2239 
L 950.229716 353.2239 
" style="fill:none;stroke:#90ed7d;stroke-linecap:square;"/>
   </g>
   <g id="line2d_20">
    <path clip-path="url(#p2eafc0939a)" d="M 93.611534 353.2239 
L 102.264243 199.114632 
L 110.916952 193.544417 
L 119.569661 174.512851 
L 128.22237 196.515198 
L 136.875079 198.650447 
L 145.527788 189.738104 
L 154.180496 215.175417 
L 162.833205 194.194276 
L 171.485914 219.167404 
L 180.138623 229.936486 
L 188.791332 224.830456 
L 197.444041 225.758825 
L 206.09675 231.885662 
L 214.749459 252.773224 
L 223.402168 265.676102 
L 232.054877 270.126778 
L 240.707586 274.205782 
L 249.360294 260.269018 
L 258.013003 252.735667 
L 266.665712 254.488671 
L 275.318421 234.036568 
L 283.97113 231.973348 
L 292.623839 238.549939 
L 301.276548 231.928243 
L 309.929257 226.597514 
L 318.581966 212.249275 
L 327.234675 216.588435 
L 335.887383 214.22709 
L 344.540092 203.75817 
L 353.192801 190.475038 
L 361.84551 192.291692 
L 370.498219 185.375309 
L 379.150928 196.208352 
L 387.803637 202.090829 
L 396.456346 353.2239 
L 405.109055 353.2239 
L 413.761764 353.2239 
L 422.414473 353.2239 
L 431.067181 353.2239 
L 439.71989 353.2239 
L 448.372599 353.2239 
L 457.025308 353.2239 
L 465.678017 353.2239 
L 474.330726 353.2239 
L 482.983435 353.2239 
L 491.636144 353.2239 
L 500.288853 353.2239 
L 508.941562 353.2239 
L 517.594271 353.2239 
L 526.246979 353.2239 
L 534.899688 353.2239 
L 543.552397 353.2239 
L 552.205106 353.2239 
L 560.857815 353.2239 
L 569.510524 353.2239 
L 578.163233 353.2239 
L 586.815942 353.2239 
L 595.468651 353.2239 
L 604.12136 353.2239 
L 612.774069 353.2239 
L 621.426777 353.2239 
L 630.079486 353.2239 
L 638.732195 353.2239 
L 647.384904 353.2239 
L 656.037613 353.2239 
L 664.690322 353.2239 
L 673.343031 353.2239 
L 681.99574 353.2239 
L 690.648449 353.2239 
L 699.301158 353.2239 
L 707.953867 353.2239 
L 716.606575 353.2239 
L 725.259284 353.2239 
L 733.911993 353.2239 
L 742.564702 353.2239 
L 751.217411 353.2239 
L 759.87012 353.2239 
L 768.522829 353.2239 
L 777.175538 353.2239 
L 785.828247 353.2239 
L 794.480956 353.2239 
L 803.133664 353.2239 
L 811.786373 353.2239 
L 820.439082 353.2239 
L 829.091791 353.2239 
L 837.7445 353.2239 
L 846.397209 353.2239 
L 855.049918 353.2239 
L 863.702627 353.2239 
L 872.355336 353.2239 
L 881.008045 353.2239 
L 889.660754 353.2239 
L 898.313462 353.2239 
L 906.966171 353.2239 
L 915.61888 353.2239 
L 924.271589 353.2239 
L 932.924298 353.2239 
L 941.577007 353.2239 
L 950.229716 353.2239 
" style="fill:none;stroke:#f7a35c;stroke-linecap:square;"/>
   </g>
   <g id="line2d_21">
    <path clip-path="url(#p2eafc0939a)" d="M 93.611534 353.2239 
L 102.264243 238.440894 
L 110.916952 242.439141 
L 119.569661 233.443085 
L 128.22237 241.106392 
L 136.875079 243.272109 
L 145.527788 250.935415 
L 154.180496 260.764439 
L 162.833205 258.265535 
L 171.485914 264.013015 
L 180.138623 271.259837 
L 188.791332 272.925774 
L 197.444041 269.760495 
L 206.09675 277.673441 
L 214.749459 285.502943 
L 223.402168 289.08368 
L 232.054877 295.993763 
L 240.707586 292.240427 
L 249.360294 291.819237 
L 258.013003 284.480537 
L 266.665712 277.973442 
L 275.318421 269.796783 
L 283.97113 264.950568 
L 292.623839 273.024206 
L 301.276548 272.511474 
L 309.929257 269.323788 
L 318.581966 268.891676 
L 327.234675 266.873253 
L 335.887383 257.592097 
L 344.540092 258.232297 
L 353.192801 249.51517 
L 361.84551 249.487999 
L 370.498219 229.283834 
L 379.150928 232.202372 
L 387.803637 232.393267 
L 396.456346 353.2239 
L 405.109055 353.2239 
L 413.761764 353.2239 
L 422.414473 353.2239 
L 431.067181 353.2239 
L 439.71989 353.2239 
L 448.372599 353.2239 
L 457.025308 353.2239 
L 465.678017 353.2239 
L 474.330726 353.2239 
L 482.983435 353.2239 
L 491.636144 353.2239 
L 500.288853 353.2239 
L 508.941562 353.2239 
L 517.594271 353.2239 
L 526.246979 353.2239 
L 534.899688 353.2239 
L 543.552397 353.2239 
L 552.205106 353.2239 
L 560.857815 353.2239 
L 569.510524 353.2239 
L 578.163233 353.2239 
L 586.815942 353.2239 
L 595.468651 353.2239 
L 604.12136 353.2239 
L 612.774069 353.2239 
L 621.426777 353.2239 
L 630.079486 353.2239 
L 638.732195 353.2239 
L 647.384904 353.2239 
L 656.037613 353.2239 
L 664.690322 353.2239 
L 673.343031 353.2239 
L 681.99574 353.2239 
L 690.648449 353.2239 
L 699.301158 353.2239 
L 707.953867 353.2239 
L 716.606575 353.2239 
L 725.259284 353.2239 
L 733.911993 353.2239 
L 742.564702 353.2239 
L 751.217411 353.2239 
L 759.87012 353.2239 
L 768.522829 353.2239 
L 777.175538 353.2239 
L 785.828247 353.2239 
L 794.480956 353.2239 
L 803.133664 353.2239 
L 811.786373 353.2239 
L 820.439082 353.2239 
L 829.091791 353.2239 
L 837.7445 353.2239 
L 846.397209 353.2239 
L 855.049918 353.2239 
L 863.702627 353.2239 
L 872.355336 353.2239 
L 881.008045 353.2239 
L 889.660754 353.2239 
L 898.313462 353.2239 
L 906.966171 353.2239 
L 915.61888 353.2239 
L 924.271589 353.2239 
L 932.924298 353.2239 
L 941.577007 353.2239 
L 950.229716 353.2239 
" style="fill:none;stroke:#8085e9;stroke-linecap:square;"/>
   </g>
   <g id="line2d_22">
    <path clip-path="url(#p2eafc0939a)" d="M 93.611534 353.2239 
L 102.264243 193.119945 
L 110.916952 191.061332 
L 119.569661 163.457202 
L 128.22237 185.259786 
L 136.875079 192.277785 
L 145.527788 191.154906 
L 154.180496 206.313784 
L 162.833205 199.670078 
L 171.485914 212.208903 
L 180.138623 225.215595 
L 188.791332 221.472662 
L 197.444041 220.536929 
L 206.09675 233.543174 
L 214.749459 244.9584 
L 223.402168 265.543377 
L 232.054877 267.970838 
L 240.707586 267.590432 
L 249.360294 259.439531 
L 258.013003 251.28505 
L 266.665712 248.370702 
L 275.318421 233.655873 
L 283.97113 228.674047 
L 292.623839 237.83122 
L 301.276548 226.286246 
L 309.929257 224.09932 
L 318.581966 211.700516 
L 327.234675 210.451336 
L 335.887383 206.570801 
L 344.540092 204.36532 
L 353.192801 188.164812 
L 361.84551 193.940682 
L 370.498219 187.083004 
L 379.150928 184.828055 
L 387.803637 195.56579 
L 396.456346 353.2239 
L 405.109055 353.2239 
L 413.761764 353.2239 
L 422.414473 353.2239 
L 431.067181 353.2239 
L 439.71989 353.2239 
L 448.372599 353.2239 
L 457.025308 353.2239 
L 465.678017 353.2239 
L 474.330726 353.2239 
L 482.983435 353.2239 
L 491.636144 353.2239 
L 500.288853 353.2239 
L 508.941562 353.2239 
L 517.594271 353.2239 
L 526.246979 353.2239 
L 534.899688 353.2239 
L 543.552397 353.2239 
L 552.205106 353.2239 
L 560.857815 353.2239 
L 569.510524 353.2239 
L 578.163233 353.2239 
L 586.815942 353.2239 
L 595.468651 353.2239 
L 604.12136 353.2239 
L 612.774069 353.2239 
L 621.426777 353.2239 
L 630.079486 353.2239 
L 638.732195 353.2239 
L 647.384904 353.2239 
L 656.037613 353.2239 
L 664.690322 353.2239 
L 673.343031 353.2239 
L 681.99574 353.2239 
L 690.648449 353.2239 
L 699.301158 353.2239 
L 707.953867 353.2239 
L 716.606575 353.2239 
L 725.259284 353.2239 
L 733.911993 353.2239 
L 742.564702 353.2239 
L 751.217411 353.2239 
L 759.87012 353.2239 
L 768.522829 353.2239 
L 777.175538 353.2239 
L 785.828247 353.2239 
L 794.480956 353.2239 
L 803.133664 353.2239 
L 811.786373 353.2239 
L 820.439082 353.2239 
L 829.091791 353.2239 
L 837.7445 353.2239 
L 846.397209 353.2239 
L 855.049918 353.2239 
L 863.702627 353.2239 
L 872.355336 353.2239 
L 881.008045 353.2239 
L 889.660754 353.2239 
L 898.313462 353.2239 
L 906.966171 353.2239 
L 915.61888 353.2239 
L 924.271589 353.2239 
L 932.924298 353.2239 
L 941.577007 353.2239 
L 950.229716 353.2239 
" style="fill:none;stroke:#f15c80;stroke-linecap:square;"/>
   </g>
   <g id="line2d_23">
    <path clip-path="url(#p2eafc0939a)" d="M 93.611534 353.2239 
L 102.264243 243.282051 
L 110.916952 239.955649 
L 119.569661 235.093984 
L 128.22237 246.437868 
L 136.875079 248.3143 
L 145.527788 244.390851 
L 154.180496 256.161197 
L 162.833205 257.696459 
L 171.485914 258.80526 
L 180.138623 271.769698 
L 188.791332 273.219668 
L 197.444041 270.319728 
L 206.09675 278.166364 
L 214.749459 283.624583 
L 223.402168 292.408747 
L 232.054877 290.613502 
L 240.707586 297.945338 
L 249.360294 283.182355 
L 258.013003 288.720968 
L 266.665712 270.027123 
L 275.318421 265.835557 
L 283.97113 265.054723 
L 292.623839 264.102512 
L 301.276548 270.150113 
L 309.929257 265.775002 
L 318.581966 257.388542 
L 327.234675 261.128754 
L 335.887383 258.374758 
L 344.540092 252.36463 
L 353.192801 245.57341 
L 361.84551 247.172733 
L 370.498219 228.460448 
L 379.150928 214.929371 
L 387.803637 226.646313 
L 396.456346 353.2239 
L 405.109055 353.2239 
L 413.761764 353.2239 
L 422.414473 353.2239 
L 431.067181 353.2239 
L 439.71989 353.2239 
L 448.372599 353.2239 
L 457.025308 353.2239 
L 465.678017 353.2239 
L 474.330726 353.2239 
L 482.983435 353.2239 
L 491.636144 353.2239 
L 500.288853 353.2239 
L 508.941562 353.2239 
L 517.594271 353.2239 
L 526.246979 353.2239 
L 534.899688 353.2239 
L 543.552397 353.2239 
L 552.205106 353.2239 
L 560.857815 353.2239 
L 569.510524 353.2239 
L 578.163233 353.2239 
L 586.815942 353.2239 
L 595.468651 353.2239 
L 604.12136 353.2239 
L 612.774069 353.2239 
L 621.426777 353.2239 
L 630.079486 353.2239 
L 638.732195 353.2239 
L 647.384904 353.2239 
L 656.037613 353.2239 
L 664.690322 353.2239 
L 673.343031 353.2239 
L 681.99574 353.2239 
L 690.648449 353.2239 
L 699.301158 353.2239 
L 707.953867 353.2239 
L 716.606575 353.2239 
L 725.259284 353.2239 
L 733.911993 353.2239 
L 742.564702 353.2239 
L 751.217411 353.2239 
L 759.87012 353.2239 
L 768.522829 353.2239 
L 777.175538 353.2239 
L 785.828247 353.2239 
L 794.480956 353.2239 
L 803.133664 353.2239 
L 811.786373 353.2239 
L 820.439082 353.2239 
L 829.091791 353.2239 
L 837.7445 353.2239 
L 846.397209 353.2239 
L 855.049918 353.2239 
L 863.702627 353.2239 
L 872.355336 353.2239 
L 881.008045 353.2239 
L 889.660754 353.2239 
L 898.313462 353.2239 
L 906.966171 353.2239 
L 915.61888 353.2239 
L 924.271589 353.2239 
L 932.924298 353.2239 
L 941.577007 353.2239 
L 950.229716 353.2239 
" style="fill:none;stroke:#e4d354;stroke-linecap:square;"/>
   </g>
   <g id="line2d_24">
    <path clip-path="url(#p2eafc0939a)" d="M 50.780625 353.2239 
L 993.060625 353.2239 
" style="fill:none;stroke:#dedede;stroke-linecap:square;stroke-width:2;"/>
   </g>
   <g id="text_15">
    <!-- Slamdunk: T&gt;C conversions over reads -->
    <defs>
     <path d="M 53.515625 70.515625 
L 53.515625 60.890625 
Q 47.90625 63.578125 42.921875 64.890625 
Q 37.9375 66.21875 33.296875 66.21875 
Q 25.25 66.21875 20.875 63.09375 
Q 16.5 59.96875 16.5 54.203125 
Q 16.5 49.359375 19.40625 46.890625 
Q 22.3125 44.4375 30.421875 42.921875 
L 36.375 41.703125 
Q 47.40625 39.59375 52.65625 34.296875 
Q 57.90625 29 57.90625 20.125 
Q 57.90625 9.515625 50.796875 4.046875 
Q 43.703125 -1.421875 29.984375 -1.421875 
Q 24.8125 -1.421875 18.96875 -0.25 
Q 13.140625 0.921875 6.890625 3.21875 
L 6.890625 13.375 
Q 12.890625 10.015625 18.65625 8.296875 
Q 24.421875 6.59375 29.984375 6.59375 
Q 38.421875 6.59375 43.015625 9.90625 
Q 47.609375 13.234375 47.609375 19.390625 
Q 47.609375 24.75 44.3125 27.78125 
Q 41.015625 30.8125 33.5 32.328125 
L 27.484375 33.5 
Q 16.453125 35.6875 11.515625 40.375 
Q 6.59375 45.0625 6.59375 53.421875 
Q 6.59375 63.09375 13.40625 68.65625 
Q 20.21875 74.21875 32.171875 74.21875 
Q 37.3125 74.21875 42.625 73.28125 
Q 47.953125 72.359375 53.515625 70.515625 
z
" id="DejaVuSans-83"/>
     <path d="M 9.421875 75.984375 
L 18.40625 75.984375 
L 18.40625 0 
L 9.421875 0 
z
" id="DejaVuSans-108"/>
     <path d="M 52 44.1875 
Q 55.375 50.25 60.0625 53.125 
Q 64.75 56 71.09375 56 
Q 79.640625 56 84.28125 50.015625 
Q 88.921875 44.046875 88.921875 33.015625 
L 88.921875 0 
L 79.890625 0 
L 79.890625 32.71875 
Q 79.890625 40.578125 77.09375 44.375 
Q 74.3125 48.1875 68.609375 48.1875 
Q 61.625 48.1875 57.5625 43.546875 
Q 53.515625 38.921875 53.515625 30.90625 
L 53.515625 0 
L 44.484375 0 
L 44.484375 32.71875 
Q 44.484375 40.625 41.703125 44.40625 
Q 38.921875 48.1875 33.109375 48.1875 
Q 26.21875 48.1875 22.15625 43.53125 
Q 18.109375 38.875 18.109375 30.90625 
L 18.109375 0 
L 9.078125 0 
L 9.078125 54.6875 
L 18.109375 54.6875 
L 18.109375 46.1875 
Q 21.1875 51.21875 25.484375 53.609375 
Q 29.78125 56 35.6875 56 
Q 41.65625 56 45.828125 52.96875 
Q 50 49.953125 52 44.1875 
z
" id="DejaVuSans-109"/>
     <path d="M 8.5 21.578125 
L 8.5 54.6875 
L 17.484375 54.6875 
L 17.484375 21.921875 
Q 17.484375 14.15625 20.5 10.265625 
Q 23.53125 6.390625 29.59375 6.390625 
Q 36.859375 6.390625 41.078125 11.03125 
Q 45.3125 15.671875 45.3125 23.6875 
L 45.3125 54.6875 
L 54.296875 54.6875 
L 54.296875 0 
L 45.3125 0 
L 45.3125 8.40625 
Q 42.046875 3.421875 37.71875 1 
Q 33.40625 -1.421875 27.6875 -1.421875 
Q 18.265625 -1.421875 13.375 4.4375 
Q 8.5 10.296875 8.5 21.578125 
z
M 31.109375 56 
z
" id="DejaVuSans-117"/>
     <path d="M 9.078125 75.984375 
L 18.109375 75.984375 
L 18.109375 31.109375 
L 44.921875 54.6875 
L 56.390625 54.6875 
L 27.390625 29.109375 
L 57.625 0 
L 45.90625 0 
L 18.109375 26.703125 
L 18.109375 0 
L 9.078125 0 
z
" id="DejaVuSans-107"/>
     <path d="M 11.71875 12.40625 
L 22.015625 12.40625 
L 22.015625 0 
L 11.71875 0 
z
M 11.71875 51.703125 
L 22.015625 51.703125 
L 22.015625 39.3125 
L 11.71875 39.3125 
z
" id="DejaVuSans-58"/>
     <path d="M -0.296875 72.90625 
L 61.375 72.90625 
L 61.375 64.59375 
L 35.5 64.59375 
L 35.5 0 
L 25.59375 0 
L 25.59375 64.59375 
L -0.296875 64.59375 
z
" id="DejaVuSans-84"/>
     <path d="M 10.59375 49.21875 
L 10.59375 58.109375 
L 73.1875 35.40625 
L 73.1875 27.296875 
L 10.59375 4.59375 
L 10.59375 13.484375 
L 60.890625 31.296875 
z
" id="DejaVuSans-62"/>
     <path d="M 64.40625 67.28125 
L 64.40625 56.890625 
Q 59.421875 61.53125 53.78125 63.8125 
Q 48.140625 66.109375 41.796875 66.109375 
Q 29.296875 66.109375 22.65625 58.46875 
Q 16.015625 50.828125 16.015625 36.375 
Q 16.015625 21.96875 22.65625 14.328125 
Q 29.296875 6.6875 41.796875 6.6875 
Q 48.140625 6.6875 53.78125 8.984375 
Q 59.421875 11.28125 64.40625 15.921875 
L 64.40625 5.609375 
Q 59.234375 2.09375 53.4375 0.328125 
Q 47.65625 -1.421875 41.21875 -1.421875 
Q 24.65625 -1.421875 15.125 8.703125 
Q 5.609375 18.84375 5.609375 36.375 
Q 5.609375 53.953125 15.125 64.078125 
Q 24.65625 74.21875 41.21875 74.21875 
Q 47.75 74.21875 53.53125 72.484375 
Q 59.328125 70.75 64.40625 67.28125 
z
" id="DejaVuSans-67"/>
    </defs>
    <g transform="translate(364.000625 19.3575)scale(0.16 -0.16)">
     <use xlink:href="#DejaVuSans-83"/>
     <use x="63.476562" xlink:href="#DejaVuSans-108"/>
     <use x="91.259766" xlink:href="#DejaVuSans-97"/>
     <use x="152.539062" xlink:href="#DejaVuSans-109"/>
     <use x="249.951172" xlink:href="#DejaVuSans-100"/>
     <use x="313.427734" xlink:href="#DejaVuSans-117"/>
     <use x="376.806641" xlink:href="#DejaVuSans-110"/>
     <use x="440.185547" xlink:href="#DejaVuSans-107"/>
     <use x="498.095703" xlink:href="#DejaVuSans-58"/>
     <use x="531.787109" xlink:href="#DejaVuSans-32"/>
     <use x="563.574219" xlink:href="#DejaVuSans-84"/>
     <use x="624.658203" xlink:href="#DejaVuSans-62"/>
     <use x="708.447266" xlink:href="#DejaVuSans-67"/>
     <use x="778.271484" xlink:href="#DejaVuSans-32"/>
     <use x="810.058594" xlink:href="#DejaVuSans-99"/>
     <use x="865.039062" xlink:href="#DejaVuSans-111"/>
     <use x="926.220703" xlink:href="#DejaVuSans-110"/>
     <use x="989.599609" xlink:href="#DejaVuSans-118"/>
     <use x="1048.779297" xlink:href="#DejaVuSans-101"/>
     <use x="1110.302734" xlink:href="#DejaVuSans-114"/>
     <use x="1151.416016" xlink:href="#DejaVuSans-115"/>
     <use x="1203.515625" xlink:href="#DejaVuSans-105"/>
     <use x="1231.298828" xlink:href="#DejaVuSans-111"/>
     <use x="1292.480469" xlink:href="#DejaVuSans-110"/>
     <use x="1355.859375" xlink:href="#DejaVuSans-115"/>
     <use x="1407.958984" xlink:href="#DejaVuSans-32"/>
     <use x="1439.746094" xlink:href="#DejaVuSans-111"/>
     <use x="1500.927734" xlink:href="#DejaVuSans-118"/>
     <use x="1560.107422" xlink:href="#DejaVuSans-101"/>
     <use x="1621.630859" xlink:href="#DejaVuSans-114"/>
     <use x="1662.744141" xlink:href="#DejaVuSans-32"/>
     <use x="1694.53125" xlink:href="#DejaVuSans-114"/>
     <use x="1735.613281" xlink:href="#DejaVuSans-101"/>
     <use x="1797.136719" xlink:href="#DejaVuSans-97"/>
     <use x="1858.416016" xlink:href="#DejaVuSans-100"/>
     <use x="1921.892578" xlink:href="#DejaVuSans-115"/>
    </g>
   </g>
  </g>
 </g>
 <defs>
  <clipPath id="p2eafc0939a">
   <rect height="317.968" width="942.28" x="50.780625" y="35.2559"/>
  </clipPath>
 </defs>
</svg>
