<?xml version="1.0" encoding="utf-8" standalone="no"?>
<!DOCTYPE svg PUBLIC "-//W3C//DTD SVG 1.1//EN"
  "http://www.w3.org/Graphics/SVG/1.1/DTD/svg11.dtd">
<!-- Created with matplotlib (https://matplotlib.org/) -->
<svg height="388.844525pt" version="1.1" viewBox="0 0 1000.300625 388.844525" width="1000.300625pt" xmlns="http://www.w3.org/2000/svg" xmlns:xlink="http://www.w3.org/1999/xlink">
 <defs>
  <style type="text/css">
*{stroke-linecap:butt;stroke-linejoin:round;}
  </style>
 </defs>
 <g id="figure_1">
  <g id="axes_1">
   <g id="patch_1">
    <path d="M 45.690625 353.2239 
L 993.100625 353.2239 
L 993.100625 35.2559 
L 45.690625 35.2559 
z
" style="fill:#ffffff;"/>
   </g>
   <g id="matplotlib.axis_1">
    <g id="xtick_1">
     <g id="text_1">
      <!-- 0 -->
      <defs>
       <path d="M 31.78125 66.40625 
Q 24.171875 66.40625 20.328125 58.90625 
Q 16.5 51.421875 16.5 36.375 
Q 16.5 21.390625 20.328125 13.890625 
Q 24.171875 6.390625 31.78125 6.390625 
Q 39.453125 6.390625 43.28125 13.890625 
Q 47.125 21.390625 47.125 36.375 
Q 47.125 51.421875 43.28125 58.90625 
Q 39.453125 66.40625 31.78125 66.40625 
z
M 31.78125 74.21875 
Q 44.046875 74.21875 50.515625 64.515625 
Q 56.984375 54.828125 56.984375 36.375 
Q 56.984375 17.96875 50.515625 8.265625 
Q 44.046875 -1.421875 31.78125 -1.421875 
Q 19.53125 -1.421875 13.0625 8.265625 
Q 6.59375 17.96875 6.59375 36.375 
Q 6.59375 54.828125 13.0625 64.515625 
Q 19.53125 74.21875 31.78125 74.21875 
z
" id="DejaVuSans-48"/>
      </defs>
      <g transform="translate(77.5099 366.30265)scale(0.08 -0.08)">
       <use xlink:href="#DejaVuSans-48"/>
      </g>
     </g>
    </g>
    <g id="xtick_2">
     <g id="text_2">
      <!-- 20 -->
      <defs>
       <path d="M 19.1875 8.296875 
L 53.609375 8.296875 
L 53.609375 0 
L 7.328125 0 
L 7.328125 8.296875 
Q 12.9375 14.109375 22.625 23.890625 
Q 32.328125 33.6875 34.8125 36.53125 
Q 39.546875 41.84375 41.421875 45.53125 
Q 43.3125 49.21875 43.3125 52.78125 
Q 43.3125 58.59375 39.234375 62.25 
Q 35.15625 65.921875 28.609375 65.921875 
Q 23.96875 65.921875 18.8125 64.3125 
Q 13.671875 62.703125 7.8125 59.421875 
L 7.8125 69.390625 
Q 13.765625 71.78125 18.9375 73 
Q 24.125 74.21875 28.421875 74.21875 
Q 39.75 74.21875 46.484375 68.546875 
Q 53.21875 62.890625 53.21875 53.421875 
Q 53.21875 48.921875 51.53125 44.890625 
Q 49.859375 40.875 45.40625 35.40625 
Q 44.1875 33.984375 37.640625 27.21875 
Q 31.109375 20.453125 19.1875 8.296875 
z
" id="DejaVuSans-50"/>
      </defs>
      <g transform="translate(248.961226 366.30265)scale(0.08 -0.08)">
       <use xlink:href="#DejaVuSans-50"/>
       <use x="63.623047" xlink:href="#DejaVuSans-48"/>
      </g>
     </g>
    </g>
    <g id="xtick_3">
     <g id="text_3">
      <!-- 40 -->
      <defs>
       <path d="M 37.796875 64.3125 
L 12.890625 25.390625 
L 37.796875 25.390625 
z
M 35.203125 72.90625 
L 47.609375 72.90625 
L 47.609375 25.390625 
L 58.015625 25.390625 
L 58.015625 17.1875 
L 47.609375 17.1875 
L 47.609375 0 
L 37.796875 0 
L 37.796875 17.1875 
L 4.890625 17.1875 
L 4.890625 26.703125 
z
" id="DejaVuSans-52"/>
      </defs>
      <g transform="translate(422.957553 366.30265)scale(0.08 -0.08)">
       <use xlink:href="#DejaVuSans-52"/>
       <use x="63.623047" xlink:href="#DejaVuSans-48"/>
      </g>
     </g>
    </g>
    <g id="xtick_4">
     <g id="text_4">
      <!-- 60 -->
      <defs>
       <path d="M 33.015625 40.375 
Q 26.375 40.375 22.484375 35.828125 
Q 18.609375 31.296875 18.609375 23.390625 
Q 18.609375 15.53125 22.484375 10.953125 
Q 26.375 6.390625 33.015625 6.390625 
Q 39.65625 6.390625 43.53125 10.953125 
Q 47.40625 15.53125 47.40625 23.390625 
Q 47.40625 31.296875 43.53125 35.828125 
Q 39.65625 40.375 33.015625 40.375 
z
M 52.59375 71.296875 
L 52.59375 62.3125 
Q 48.875 64.0625 45.09375 64.984375 
Q 41.3125 65.921875 37.59375 65.921875 
Q 27.828125 65.921875 22.671875 59.328125 
Q 17.53125 52.734375 16.796875 39.40625 
Q 19.671875 43.65625 24.015625 45.921875 
Q 28.375 48.1875 33.59375 48.1875 
Q 44.578125 48.1875 50.953125 41.515625 
Q 57.328125 34.859375 57.328125 23.390625 
Q 57.328125 12.15625 50.6875 5.359375 
Q 44.046875 -1.421875 33.015625 -1.421875 
Q 20.359375 -1.421875 13.671875 8.265625 
Q 6.984375 17.96875 6.984375 36.375 
Q 6.984375 53.65625 15.1875 63.9375 
Q 23.390625 74.21875 37.203125 74.21875 
Q 40.921875 74.21875 44.703125 73.484375 
Q 48.484375 72.75 52.59375 71.296875 
z
" id="DejaVuSans-54"/>
      </defs>
      <g transform="translate(596.95388 366.30265)scale(0.08 -0.08)">
       <use xlink:href="#DejaVuSans-54"/>
       <use x="63.623047" xlink:href="#DejaVuSans-48"/>
      </g>
     </g>
    </g>
    <g id="xtick_5">
     <g id="text_5">
      <!-- 80 -->
      <defs>
       <path d="M 31.78125 34.625 
Q 24.75 34.625 20.71875 30.859375 
Q 16.703125 27.09375 16.703125 20.515625 
Q 16.703125 13.921875 20.71875 10.15625 
Q 24.75 6.390625 31.78125 6.390625 
Q 38.8125 6.390625 42.859375 10.171875 
Q 46.921875 13.96875 46.921875 20.515625 
Q 46.921875 27.09375 42.890625 30.859375 
Q 38.875 34.625 31.78125 34.625 
z
M 21.921875 38.8125 
Q 15.578125 40.375 12.03125 44.71875 
Q 8.5 49.078125 8.5 55.328125 
Q 8.5 64.0625 14.71875 69.140625 
Q 20.953125 74.21875 31.78125 74.21875 
Q 42.671875 74.21875 48.875 69.140625 
Q 55.078125 64.0625 55.078125 55.328125 
Q 55.078125 49.078125 51.53125 44.71875 
Q 48 40.375 41.703125 38.8125 
Q 48.828125 37.15625 52.796875 32.3125 
Q 56.78125 27.484375 56.78125 20.515625 
Q 56.78125 9.90625 50.3125 4.234375 
Q 43.84375 -1.421875 31.78125 -1.421875 
Q 19.734375 -1.421875 13.25 4.234375 
Q 6.78125 9.90625 6.78125 20.515625 
Q 6.78125 27.484375 10.78125 32.3125 
Q 14.796875 37.15625 21.921875 38.8125 
z
M 18.3125 54.390625 
Q 18.3125 48.734375 21.84375 45.5625 
Q 25.390625 42.390625 31.78125 42.390625 
Q 38.140625 42.390625 41.71875 45.5625 
Q 45.3125 48.734375 45.3125 54.390625 
Q 45.3125 60.0625 41.71875 63.234375 
Q 38.140625 66.40625 31.78125 66.40625 
Q 25.390625 66.40625 21.84375 63.234375 
Q 18.3125 60.0625 18.3125 54.390625 
z
" id="DejaVuSans-56"/>
      </defs>
      <g transform="translate(770.950207 366.30265)scale(0.08 -0.08)">
       <use xlink:href="#DejaVuSans-56"/>
       <use x="63.623047" xlink:href="#DejaVuSans-48"/>
      </g>
     </g>
    </g>
    <g id="xtick_6">
     <g id="text_6">
      <!-- 100 -->
      <defs>
       <path d="M 12.40625 8.296875 
L 28.515625 8.296875 
L 28.515625 63.921875 
L 10.984375 60.40625 
L 10.984375 69.390625 
L 28.421875 72.90625 
L 38.28125 72.90625 
L 38.28125 8.296875 
L 54.390625 8.296875 
L 54.390625 0 
L 12.40625 0 
z
" id="DejaVuSans-49"/>
      </defs>
      <g transform="translate(942.401534 366.30265)scale(0.08 -0.08)">
       <use xlink:href="#DejaVuSans-49"/>
       <use x="63.623047" xlink:href="#DejaVuSans-48"/>
       <use x="127.246094" xlink:href="#DejaVuSans-48"/>
      </g>
     </g>
    </g>
    <g id="text_7">
     <!-- Position in read -->
     <defs>
      <path d="M 19.671875 64.796875 
L 19.671875 37.40625 
L 32.078125 37.40625 
Q 38.96875 37.40625 42.71875 40.96875 
Q 46.484375 44.53125 46.484375 51.125 
Q 46.484375 57.671875 42.71875 61.234375 
Q 38.96875 64.796875 32.078125 64.796875 
z
M 9.8125 72.90625 
L 32.078125 72.90625 
Q 44.34375 72.90625 50.609375 67.359375 
Q 56.890625 61.8125 56.890625 51.125 
Q 56.890625 40.328125 50.609375 34.8125 
Q 44.34375 29.296875 32.078125 29.296875 
L 19.671875 29.296875 
L 19.671875 0 
L 9.8125 0 
z
" id="DejaVuSans-80"/>
      <path d="M 30.609375 48.390625 
Q 23.390625 48.390625 19.1875 42.75 
Q 14.984375 37.109375 14.984375 27.296875 
Q 14.984375 17.484375 19.15625 11.84375 
Q 23.34375 6.203125 30.609375 6.203125 
Q 37.796875 6.203125 41.984375 11.859375 
Q 46.1875 17.53125 46.1875 27.296875 
Q 46.1875 37.015625 41.984375 42.703125 
Q 37.796875 48.390625 30.609375 48.390625 
z
M 30.609375 56 
Q 42.328125 56 49.015625 48.375 
Q 55.71875 40.765625 55.71875 27.296875 
Q 55.71875 13.875 49.015625 6.21875 
Q 42.328125 -1.421875 30.609375 -1.421875 
Q 18.84375 -1.421875 12.171875 6.21875 
Q 5.515625 13.875 5.515625 27.296875 
Q 5.515625 40.765625 12.171875 48.375 
Q 18.84375 56 30.609375 56 
z
" id="DejaVuSans-111"/>
      <path d="M 44.28125 53.078125 
L 44.28125 44.578125 
Q 40.484375 46.53125 36.375 47.5 
Q 32.28125 48.484375 27.875 48.484375 
Q 21.1875 48.484375 17.84375 46.4375 
Q 14.5 44.390625 14.5 40.28125 
Q 14.5 37.15625 16.890625 35.375 
Q 19.28125 33.59375 26.515625 31.984375 
L 29.59375 31.296875 
Q 39.15625 29.25 43.1875 25.515625 
Q 47.21875 21.78125 47.21875 15.09375 
Q 47.21875 7.46875 41.1875 3.015625 
Q 35.15625 -1.421875 24.609375 -1.421875 
Q 20.21875 -1.421875 15.453125 -0.5625 
Q 10.6875 0.296875 5.421875 2 
L 5.421875 11.28125 
Q 10.40625 8.6875 15.234375 7.390625 
Q 20.0625 6.109375 24.8125 6.109375 
Q 31.15625 6.109375 34.5625 8.28125 
Q 37.984375 10.453125 37.984375 14.40625 
Q 37.984375 18.0625 35.515625 20.015625 
Q 33.0625 21.96875 24.703125 23.78125 
L 21.578125 24.515625 
Q 13.234375 26.265625 9.515625 29.90625 
Q 5.8125 33.546875 5.8125 39.890625 
Q 5.8125 47.609375 11.28125 51.796875 
Q 16.75 56 26.8125 56 
Q 31.78125 56 36.171875 55.265625 
Q 40.578125 54.546875 44.28125 53.078125 
z
" id="DejaVuSans-115"/>
      <path d="M 9.421875 54.6875 
L 18.40625 54.6875 
L 18.40625 0 
L 9.421875 0 
z
M 9.421875 75.984375 
L 18.40625 75.984375 
L 18.40625 64.59375 
L 9.421875 64.59375 
z
" id="DejaVuSans-105"/>
      <path d="M 18.3125 70.21875 
L 18.3125 54.6875 
L 36.8125 54.6875 
L 36.8125 47.703125 
L 18.3125 47.703125 
L 18.3125 18.015625 
Q 18.3125 11.328125 20.140625 9.421875 
Q 21.96875 7.515625 27.59375 7.515625 
L 36.8125 7.515625 
L 36.8125 0 
L 27.59375 0 
Q 17.1875 0 13.234375 3.875 
Q 9.28125 7.765625 9.28125 18.015625 
L 9.28125 47.703125 
L 2.6875 47.703125 
L 2.6875 54.6875 
L 9.28125 54.6875 
L 9.28125 70.21875 
z
" id="DejaVuSans-116"/>
      <path d="M 54.890625 33.015625 
L 54.890625 0 
L 45.90625 0 
L 45.90625 32.71875 
Q 45.90625 40.484375 42.875 44.328125 
Q 39.84375 48.1875 33.796875 48.1875 
Q 26.515625 48.1875 22.3125 43.546875 
Q 18.109375 38.921875 18.109375 30.90625 
L 18.109375 0 
L 9.078125 0 
L 9.078125 54.6875 
L 18.109375 54.6875 
L 18.109375 46.1875 
Q 21.34375 51.125 25.703125 53.5625 
Q 30.078125 56 35.796875 56 
Q 45.21875 56 50.046875 50.171875 
Q 54.890625 44.34375 54.890625 33.015625 
z
" id="DejaVuSans-110"/>
      <path id="DejaVuSans-32"/>
      <path d="M 41.109375 46.296875 
Q 39.59375 47.171875 37.8125 47.578125 
Q 36.03125 48 33.890625 48 
Q 26.265625 48 22.1875 43.046875 
Q 18.109375 38.09375 18.109375 28.8125 
L 18.109375 0 
L 9.078125 0 
L 9.078125 54.6875 
L 18.109375 54.6875 
L 18.109375 46.1875 
Q 20.953125 51.171875 25.484375 53.578125 
Q 30.03125 56 36.53125 56 
Q 37.453125 56 38.578125 55.875 
Q 39.703125 55.765625 41.0625 55.515625 
z
" id="DejaVuSans-114"/>
      <path d="M 56.203125 29.59375 
L 56.203125 25.203125 
L 14.890625 25.203125 
Q 15.484375 15.921875 20.484375 11.0625 
Q 25.484375 6.203125 34.421875 6.203125 
Q 39.59375 6.203125 44.453125 7.46875 
Q 49.3125 8.734375 54.109375 11.28125 
L 54.109375 2.78125 
Q 49.265625 0.734375 44.1875 -0.34375 
Q 39.109375 -1.421875 33.890625 -1.421875 
Q 20.796875 -1.421875 13.15625 6.1875 
Q 5.515625 13.8125 5.515625 26.8125 
Q 5.515625 40.234375 12.765625 48.109375 
Q 20.015625 56 32.328125 56 
Q 43.359375 56 49.78125 48.890625 
Q 56.203125 41.796875 56.203125 29.59375 
z
M 47.21875 32.234375 
Q 47.125 39.59375 43.09375 43.984375 
Q 39.0625 48.390625 32.421875 48.390625 
Q 24.90625 48.390625 20.390625 44.140625 
Q 15.875 39.890625 15.1875 32.171875 
z
" id="DejaVuSans-101"/>
      <path d="M 34.28125 27.484375 
Q 23.390625 27.484375 19.1875 25 
Q 14.984375 22.515625 14.984375 16.5 
Q 14.984375 11.71875 18.140625 8.90625 
Q 21.296875 6.109375 26.703125 6.109375 
Q 34.1875 6.109375 38.703125 11.40625 
Q 43.21875 16.703125 43.21875 25.484375 
L 43.21875 27.484375 
z
M 52.203125 31.203125 
L 52.203125 0 
L 43.21875 0 
L 43.21875 8.296875 
Q 40.140625 3.328125 35.546875 0.953125 
Q 30.953125 -1.421875 24.3125 -1.421875 
Q 15.921875 -1.421875 10.953125 3.296875 
Q 6 8.015625 6 15.921875 
Q 6 25.140625 12.171875 29.828125 
Q 18.359375 34.515625 30.609375 34.515625 
L 43.21875 34.515625 
L 43.21875 35.40625 
Q 43.21875 41.609375 39.140625 45 
Q 35.0625 48.390625 27.6875 48.390625 
Q 23 48.390625 18.546875 47.265625 
Q 14.109375 46.140625 10.015625 43.890625 
L 10.015625 52.203125 
Q 14.9375 54.109375 19.578125 55.046875 
Q 24.21875 56 28.609375 56 
Q 40.484375 56 46.34375 49.84375 
Q 52.203125 43.703125 52.203125 31.203125 
z
" id="DejaVuSans-97"/>
      <path d="M 45.40625 46.390625 
L 45.40625 75.984375 
L 54.390625 75.984375 
L 54.390625 0 
L 45.40625 0 
L 45.40625 8.203125 
Q 42.578125 3.328125 38.25 0.953125 
Q 33.9375 -1.421875 27.875 -1.421875 
Q 17.96875 -1.421875 11.734375 6.484375 
Q 5.515625 14.40625 5.515625 27.296875 
Q 5.515625 40.1875 11.734375 48.09375 
Q 17.96875 56 27.875 56 
Q 33.9375 56 38.25 53.625 
Q 42.578125 51.265625 45.40625 46.390625 
z
M 14.796875 27.296875 
Q 14.796875 17.390625 18.875 11.75 
Q 22.953125 6.109375 30.078125 6.109375 
Q 37.203125 6.109375 41.296875 11.75 
Q 45.40625 17.390625 45.40625 27.296875 
Q 45.40625 37.203125 41.296875 42.84375 
Q 37.203125 48.484375 30.078125 48.484375 
Q 22.953125 48.484375 18.875 42.84375 
Q 14.796875 37.203125 14.796875 27.296875 
z
" id="DejaVuSans-100"/>
     </defs>
     <g transform="translate(480.647969 379.564837)scale(0.1 -0.1)">
      <use xlink:href="#DejaVuSans-80"/>
      <use x="60.255859" xlink:href="#DejaVuSans-111"/>
      <use x="121.4375" xlink:href="#DejaVuSans-115"/>
      <use x="173.537109" xlink:href="#DejaVuSans-105"/>
      <use x="201.320312" xlink:href="#DejaVuSans-116"/>
      <use x="240.529297" xlink:href="#DejaVuSans-105"/>
      <use x="268.3125" xlink:href="#DejaVuSans-111"/>
      <use x="329.494141" xlink:href="#DejaVuSans-110"/>
      <use x="392.873047" xlink:href="#DejaVuSans-32"/>
      <use x="424.660156" xlink:href="#DejaVuSans-105"/>
      <use x="452.443359" xlink:href="#DejaVuSans-110"/>
      <use x="515.822266" xlink:href="#DejaVuSans-32"/>
      <use x="547.609375" xlink:href="#DejaVuSans-114"/>
      <use x="588.691406" xlink:href="#DejaVuSans-101"/>
      <use x="650.214844" xlink:href="#DejaVuSans-97"/>
      <use x="711.494141" xlink:href="#DejaVuSans-100"/>
     </g>
    </g>
   </g>
   <g id="matplotlib.axis_2">
    <g id="ytick_1">
     <g id="line2d_1">
      <path clip-path="url(#p2fa8415123)" d="M 45.690625 353.2239 
L 993.100625 353.2239 
" style="fill:none;stroke:#dedede;stroke-linecap:square;"/>
     </g>
     <g id="text_8">
      <!-- 0.00 -->
      <defs>
       <path d="M 10.6875 12.40625 
L 21 12.40625 
L 21 0 
L 10.6875 0 
z
" id="DejaVuSans-46"/>
      </defs>
      <g transform="translate(20.878125 356.263275)scale(0.08 -0.08)">
       <use xlink:href="#DejaVuSans-48"/>
       <use x="63.623047" xlink:href="#DejaVuSans-46"/>
       <use x="95.410156" xlink:href="#DejaVuSans-48"/>
       <use x="159.033203" xlink:href="#DejaVuSans-48"/>
      </g>
     </g>
    </g>
    <g id="ytick_2">
     <g id="line2d_2">
      <path clip-path="url(#p2fa8415123)" d="M 45.690625 317.734696 
L 993.100625 317.734696 
" style="fill:none;stroke:#dedede;stroke-linecap:square;"/>
     </g>
     <g id="text_9">
      <!-- 0.02 -->
      <g transform="translate(20.878125 320.774071)scale(0.08 -0.08)">
       <use xlink:href="#DejaVuSans-48"/>
       <use x="63.623047" xlink:href="#DejaVuSans-46"/>
       <use x="95.410156" xlink:href="#DejaVuSans-48"/>
       <use x="159.033203" xlink:href="#DejaVuSans-50"/>
      </g>
     </g>
    </g>
    <g id="ytick_3">
     <g id="line2d_3">
      <path clip-path="url(#p2fa8415123)" d="M 45.690625 282.245491 
L 993.100625 282.245491 
" style="fill:none;stroke:#dedede;stroke-linecap:square;"/>
     </g>
     <g id="text_10">
      <!-- 0.04 -->
      <g transform="translate(20.878125 285.284866)scale(0.08 -0.08)">
       <use xlink:href="#DejaVuSans-48"/>
       <use x="63.623047" xlink:href="#DejaVuSans-46"/>
       <use x="95.410156" xlink:href="#DejaVuSans-48"/>
       <use x="159.033203" xlink:href="#DejaVuSans-52"/>
      </g>
     </g>
    </g>
    <g id="ytick_4">
     <g id="line2d_4">
      <path clip-path="url(#p2fa8415123)" d="M 45.690625 246.756287 
L 993.100625 246.756287 
" style="fill:none;stroke:#dedede;stroke-linecap:square;"/>
     </g>
     <g id="text_11">
      <!-- 0.06 -->
      <g transform="translate(20.878125 249.795662)scale(0.08 -0.08)">
       <use xlink:href="#DejaVuSans-48"/>
       <use x="63.623047" xlink:href="#DejaVuSans-46"/>
       <use x="95.410156" xlink:href="#DejaVuSans-48"/>
       <use x="159.033203" xlink:href="#DejaVuSans-54"/>
      </g>
     </g>
    </g>
    <g id="ytick_5">
     <g id="line2d_5">
      <path clip-path="url(#p2fa8415123)" d="M 45.690625 211.267083 
L 993.100625 211.267083 
" style="fill:none;stroke:#dedede;stroke-linecap:square;"/>
     </g>
     <g id="text_12">
      <!-- 0.08 -->
      <g transform="translate(20.878125 214.306458)scale(0.08 -0.08)">
       <use xlink:href="#DejaVuSans-48"/>
       <use x="63.623047" xlink:href="#DejaVuSans-46"/>
       <use x="95.410156" xlink:href="#DejaVuSans-48"/>
       <use x="159.033203" xlink:href="#DejaVuSans-56"/>
      </g>
     </g>
    </g>
    <g id="ytick_6">
     <g id="line2d_6">
      <path clip-path="url(#p2fa8415123)" d="M 45.690625 175.777879 
L 993.100625 175.777879 
" style="fill:none;stroke:#dedede;stroke-linecap:square;"/>
     </g>
     <g id="text_13">
      <!-- 0.10 -->
      <g transform="translate(20.878125 178.817254)scale(0.08 -0.08)">
       <use xlink:href="#DejaVuSans-48"/>
       <use x="63.623047" xlink:href="#DejaVuSans-46"/>
       <use x="95.410156" xlink:href="#DejaVuSans-49"/>
       <use x="159.033203" xlink:href="#DejaVuSans-48"/>
      </g>
     </g>
    </g>
    <g id="ytick_7">
     <g id="line2d_7">
      <path clip-path="url(#p2fa8415123)" d="M 45.690625 140.288674 
L 993.100625 140.288674 
" style="fill:none;stroke:#dedede;stroke-linecap:square;"/>
     </g>
     <g id="text_14">
      <!-- 0.12 -->
      <g transform="translate(20.878125 143.328049)scale(0.08 -0.08)">
       <use xlink:href="#DejaVuSans-48"/>
       <use x="63.623047" xlink:href="#DejaVuSans-46"/>
       <use x="95.410156" xlink:href="#DejaVuSans-49"/>
       <use x="159.033203" xlink:href="#DejaVuSans-50"/>
      </g>
     </g>
    </g>
    <g id="ytick_8">
     <g id="line2d_8">
      <path clip-path="url(#p2fa8415123)" d="M 45.690625 104.79947 
L 993.100625 104.79947 
" style="fill:none;stroke:#dedede;stroke-linecap:square;"/>
     </g>
     <g id="text_15">
      <!-- 0.14 -->
      <g transform="translate(20.878125 107.838845)scale(0.08 -0.08)">
       <use xlink:href="#DejaVuSans-48"/>
       <use x="63.623047" xlink:href="#DejaVuSans-46"/>
       <use x="95.410156" xlink:href="#DejaVuSans-49"/>
       <use x="159.033203" xlink:href="#DejaVuSans-52"/>
      </g>
     </g>
    </g>
    <g id="ytick_9">
     <g id="line2d_9">
      <path clip-path="url(#p2fa8415123)" d="M 45.690625 69.310266 
L 993.100625 69.310266 
" style="fill:none;stroke:#dedede;stroke-linecap:square;"/>
     </g>
     <g id="text_16">
      <!-- 0.16 -->
      <g transform="translate(20.878125 72.349641)scale(0.08 -0.08)">
       <use xlink:href="#DejaVuSans-48"/>
       <use x="63.623047" xlink:href="#DejaVuSans-46"/>
       <use x="95.410156" xlink:href="#DejaVuSans-49"/>
       <use x="159.033203" xlink:href="#DejaVuSans-54"/>
      </g>
     </g>
    </g>
    <g id="text_17">
     <!-- Percent mismatches % -->
     <defs>
      <path d="M 48.78125 52.59375 
L 48.78125 44.1875 
Q 44.96875 46.296875 41.140625 47.34375 
Q 37.3125 48.390625 33.40625 48.390625 
Q 24.65625 48.390625 19.8125 42.84375 
Q 14.984375 37.3125 14.984375 27.296875 
Q 14.984375 17.28125 19.8125 11.734375 
Q 24.65625 6.203125 33.40625 6.203125 
Q 37.3125 6.203125 41.140625 7.25 
Q 44.96875 8.296875 48.78125 10.40625 
L 48.78125 2.09375 
Q 45.015625 0.34375 40.984375 -0.53125 
Q 36.96875 -1.421875 32.421875 -1.421875 
Q 20.0625 -1.421875 12.78125 6.34375 
Q 5.515625 14.109375 5.515625 27.296875 
Q 5.515625 40.671875 12.859375 48.328125 
Q 20.21875 56 33.015625 56 
Q 37.15625 56 41.109375 55.140625 
Q 45.0625 54.296875 48.78125 52.59375 
z
" id="DejaVuSans-99"/>
      <path d="M 52 44.1875 
Q 55.375 50.25 60.0625 53.125 
Q 64.75 56 71.09375 56 
Q 79.640625 56 84.28125 50.015625 
Q 88.921875 44.046875 88.921875 33.015625 
L 88.921875 0 
L 79.890625 0 
L 79.890625 32.71875 
Q 79.890625 40.578125 77.09375 44.375 
Q 74.3125 48.1875 68.609375 48.1875 
Q 61.625 48.1875 57.5625 43.546875 
Q 53.515625 38.921875 53.515625 30.90625 
L 53.515625 0 
L 44.484375 0 
L 44.484375 32.71875 
Q 44.484375 40.625 41.703125 44.40625 
Q 38.921875 48.1875 33.109375 48.1875 
Q 26.21875 48.1875 22.15625 43.53125 
Q 18.109375 38.875 18.109375 30.90625 
L 18.109375 0 
L 9.078125 0 
L 9.078125 54.6875 
L 18.109375 54.6875 
L 18.109375 46.1875 
Q 21.1875 51.21875 25.484375 53.609375 
Q 29.78125 56 35.6875 56 
Q 41.65625 56 45.828125 52.96875 
Q 50 49.953125 52 44.1875 
z
" id="DejaVuSans-109"/>
      <path d="M 54.890625 33.015625 
L 54.890625 0 
L 45.90625 0 
L 45.90625 32.71875 
Q 45.90625 40.484375 42.875 44.328125 
Q 39.84375 48.1875 33.796875 48.1875 
Q 26.515625 48.1875 22.3125 43.546875 
Q 18.109375 38.921875 18.109375 30.90625 
L 18.109375 0 
L 9.078125 0 
L 9.078125 75.984375 
L 18.109375 75.984375 
L 18.109375 46.1875 
Q 21.34375 51.125 25.703125 53.5625 
Q 30.078125 56 35.796875 56 
Q 45.21875 56 50.046875 50.171875 
Q 54.890625 44.34375 54.890625 33.015625 
z
" id="DejaVuSans-104"/>
      <path d="M 72.703125 32.078125 
Q 68.453125 32.078125 66.03125 28.46875 
Q 63.625 24.859375 63.625 18.40625 
Q 63.625 12.0625 66.03125 8.421875 
Q 68.453125 4.78125 72.703125 4.78125 
Q 76.859375 4.78125 79.265625 8.421875 
Q 81.6875 12.0625 81.6875 18.40625 
Q 81.6875 24.8125 79.265625 28.4375 
Q 76.859375 32.078125 72.703125 32.078125 
z
M 72.703125 38.28125 
Q 80.421875 38.28125 84.953125 32.90625 
Q 89.5 27.546875 89.5 18.40625 
Q 89.5 9.28125 84.9375 3.921875 
Q 80.375 -1.421875 72.703125 -1.421875 
Q 64.890625 -1.421875 60.34375 3.921875 
Q 55.8125 9.28125 55.8125 18.40625 
Q 55.8125 27.59375 60.375 32.9375 
Q 64.9375 38.28125 72.703125 38.28125 
z
M 22.3125 68.015625 
Q 18.109375 68.015625 15.6875 64.375 
Q 13.28125 60.75 13.28125 54.390625 
Q 13.28125 47.953125 15.671875 44.328125 
Q 18.0625 40.71875 22.3125 40.71875 
Q 26.5625 40.71875 28.96875 44.328125 
Q 31.390625 47.953125 31.390625 54.390625 
Q 31.390625 60.6875 28.953125 64.34375 
Q 26.515625 68.015625 22.3125 68.015625 
z
M 66.40625 74.21875 
L 74.21875 74.21875 
L 28.609375 -1.421875 
L 20.796875 -1.421875 
z
M 22.3125 74.21875 
Q 30.03125 74.21875 34.609375 68.875 
Q 39.203125 63.53125 39.203125 54.390625 
Q 39.203125 45.171875 34.640625 39.84375 
Q 30.078125 34.515625 22.3125 34.515625 
Q 14.546875 34.515625 10.03125 39.859375 
Q 5.515625 45.21875 5.515625 54.390625 
Q 5.515625 63.484375 10.046875 68.84375 
Q 14.59375 74.21875 22.3125 74.21875 
z
" id="DejaVuSans-37"/>
     </defs>
     <g transform="translate(14.798438 251.624275)rotate(-90)scale(0.1 -0.1)">
      <use xlink:href="#DejaVuSans-80"/>
      <use x="60.255859" xlink:href="#DejaVuSans-101"/>
      <use x="121.779297" xlink:href="#DejaVuSans-114"/>
      <use x="162.861328" xlink:href="#DejaVuSans-99"/>
      <use x="217.841797" xlink:href="#DejaVuSans-101"/>
      <use x="279.365234" xlink:href="#DejaVuSans-110"/>
      <use x="342.744141" xlink:href="#DejaVuSans-116"/>
      <use x="381.953125" xlink:href="#DejaVuSans-32"/>
      <use x="413.740234" xlink:href="#DejaVuSans-109"/>
      <use x="511.152344" xlink:href="#DejaVuSans-105"/>
      <use x="538.935547" xlink:href="#DejaVuSans-115"/>
      <use x="591.035156" xlink:href="#DejaVuSans-109"/>
      <use x="688.447266" xlink:href="#DejaVuSans-97"/>
      <use x="749.726562" xlink:href="#DejaVuSans-116"/>
      <use x="788.935547" xlink:href="#DejaVuSans-99"/>
      <use x="843.916016" xlink:href="#DejaVuSans-104"/>
      <use x="907.294922" xlink:href="#DejaVuSans-101"/>
      <use x="968.818359" xlink:href="#DejaVuSans-115"/>
      <use x="1020.917969" xlink:href="#DejaVuSans-32"/>
      <use x="1052.705078" xlink:href="#DejaVuSans-37"/>
     </g>
    </g>
   </g>
   <g id="line2d_10">
    <path clip-path="url(#p2fa8415123)" d="M 88.754716 353.2239 
L 97.454532 310.184614 
L 106.154349 126.75813 
L 114.854165 101.395455 
L 123.553981 112.118645 
L 132.253798 121.163422 
L 140.953614 129.035975 
L 149.65343 128.716277 
L 158.353247 149.643148 
L 167.053063 139.839089 
L 175.752879 143.249196 
L 184.452696 156.370118 
L 193.152512 156.143665 
L 201.852328 154.984285 
L 210.552145 167.437987 
L 219.251961 177.226685 
L 227.951777 195.508633 
L 236.651594 204.651073 
L 245.35141 187.573759 
L 254.051226 182.363165 
L 262.751043 163.342421 
L 271.450859 138.159234 
L 280.150676 147.037394 
L 288.850492 104.748735 
L 297.550308 103.867673 
L 306.250125 151.321163 
L 314.949941 142.282554 
L 323.649757 128.824224 
L 332.349574 127.164789 
L 341.04939 129.092291 
L 349.749206 112.885691 
L 358.449023 121.587379 
L 367.148839 130.461276 
L 375.848655 130.273181 
L 384.548472 314.708764 
L 393.248288 353.2239 
L 401.948104 353.2239 
L 410.647921 353.2239 
L 419.347737 353.2239 
L 428.047553 353.2239 
L 436.74737 353.2239 
L 445.447186 353.2239 
L 454.147002 353.2239 
L 462.846819 353.2239 
L 471.546635 353.2239 
L 480.246451 353.2239 
L 488.946268 353.2239 
L 497.646084 353.2239 
L 506.3459 353.2239 
L 515.045717 353.2239 
L 523.745533 353.2239 
L 532.44535 353.2239 
L 541.145166 353.2239 
L 549.844982 353.2239 
L 558.544799 353.2239 
L 567.244615 353.2239 
L 575.944431 353.2239 
L 584.644248 353.2239 
L 593.344064 353.2239 
L 602.04388 353.2239 
L 610.743697 353.2239 
L 619.443513 353.2239 
L 628.143329 353.2239 
L 636.843146 353.2239 
L 645.542962 353.2239 
L 654.242778 353.2239 
L 662.942595 353.2239 
L 671.642411 353.2239 
L 680.342227 353.2239 
L 689.042044 353.2239 
L 697.74186 353.2239 
L 706.441676 353.2239 
L 715.141493 353.2239 
L 723.841309 353.2239 
L 732.541125 353.2239 
L 741.240942 353.2239 
L 749.940758 353.2239 
L 758.640574 353.2239 
L 767.340391 353.2239 
L 776.040207 353.2239 
L 784.740024 353.2239 
L 793.43984 353.2239 
L 802.139656 353.2239 
L 810.839473 353.2239 
L 819.539289 353.2239 
L 828.239105 353.2239 
L 836.938922 353.2239 
L 845.638738 353.2239 
L 854.338554 353.2239 
L 863.038371 353.2239 
L 871.738187 353.2239 
L 880.438003 353.2239 
L 889.13782 353.2239 
L 897.837636 353.2239 
L 906.537452 353.2239 
L 915.237269 353.2239 
L 923.937085 353.2239 
L 932.636901 353.2239 
L 941.336718 353.2239 
L 950.036534 353.2239 
" style="fill:none;stroke:#7cb5ec;stroke-linecap:square;"/>
   </g>
   <g id="line2d_11">
    <path clip-path="url(#p2fa8415123)" d="M 88.754716 353.2239 
L 97.454532 313.902466 
L 106.154349 135.897715 
L 114.854165 117.321592 
L 123.553981 117.347885 
L 132.253798 133.518183 
L 140.953614 137.633064 
L 149.65343 138.132634 
L 158.353247 158.562426 
L 167.053063 151.068873 
L 175.752879 152.909395 
L 184.452696 163.650155 
L 193.152512 165.885074 
L 201.852328 160.520696 
L 210.552145 176.269197 
L 219.251961 181.118216 
L 227.951777 199.581692 
L 236.651594 210.393349 
L 245.35141 191.303691 
L 254.051226 190.237727 
L 262.751043 167.966627 
L 271.450859 145.072965 
L 280.150676 151.675978 
L 288.850492 95.729576 
L 297.550308 79.422904 
L 306.250125 154.364164 
L 314.949941 151.368396 
L 323.649757 131.450523 
L 332.349574 126.955618 
L 341.04939 139.357811 
L 349.749206 121.927341 
L 358.449023 136.355209 
L 367.148839 143.959928 
L 375.848655 138.386892 
L 384.548472 317.884932 
L 393.248288 353.2239 
L 401.948104 353.2239 
L 410.647921 353.2239 
L 419.347737 353.2239 
L 428.047553 353.2239 
L 436.74737 353.2239 
L 445.447186 353.2239 
L 454.147002 353.2239 
L 462.846819 353.2239 
L 471.546635 353.2239 
L 480.246451 353.2239 
L 488.946268 353.2239 
L 497.646084 353.2239 
L 506.3459 353.2239 
L 515.045717 353.2239 
L 523.745533 353.2239 
L 532.44535 353.2239 
L 541.145166 353.2239 
L 549.844982 353.2239 
L 558.544799 353.2239 
L 567.244615 353.2239 
L 575.944431 353.2239 
L 584.644248 353.2239 
L 593.344064 353.2239 
L 602.04388 353.2239 
L 610.743697 353.2239 
L 619.443513 353.2239 
L 628.143329 353.2239 
L 636.843146 353.2239 
L 645.542962 353.2239 
L 654.242778 353.2239 
L 662.942595 353.2239 
L 671.642411 353.2239 
L 680.342227 353.2239 
L 689.042044 353.2239 
L 697.74186 353.2239 
L 706.441676 353.2239 
L 715.141493 353.2239 
L 723.841309 353.2239 
L 732.541125 353.2239 
L 741.240942 353.2239 
L 749.940758 353.2239 
L 758.640574 353.2239 
L 767.340391 353.2239 
L 776.040207 353.2239 
L 784.740024 353.2239 
L 793.43984 353.2239 
L 802.139656 353.2239 
L 810.839473 353.2239 
L 819.539289 353.2239 
L 828.239105 353.2239 
L 836.938922 353.2239 
L 845.638738 353.2239 
L 854.338554 353.2239 
L 863.038371 353.2239 
L 871.738187 353.2239 
L 880.438003 353.2239 
L 889.13782 353.2239 
L 897.837636 353.2239 
L 906.537452 353.2239 
L 915.237269 353.2239 
L 923.937085 353.2239 
L 932.636901 353.2239 
L 941.336718 353.2239 
L 950.036534 353.2239 
" style="fill:none;stroke:#434348;stroke-linecap:square;"/>
   </g>
   <g id="line2d_12">
    <path clip-path="url(#p2fa8415123)" d="M 88.754716 353.2239 
L 97.454532 314.829298 
L 106.154349 137.617458 
L 114.854165 116.669052 
L 123.553981 124.023694 
L 132.253798 135.801497 
L 140.953614 139.965236 
L 149.65343 138.304929 
L 158.353247 156.464538 
L 167.053063 152.391597 
L 175.752879 156.905557 
L 184.452696 165.946448 
L 193.152512 165.751881 
L 201.852328 161.885919 
L 210.552145 172.482163 
L 219.251961 187.319179 
L 227.951777 198.726389 
L 236.651594 209.043071 
L 245.35141 193.282357 
L 254.051226 191.686887 
L 262.751043 167.857321 
L 271.450859 148.551371 
L 280.150676 153.042353 
L 288.850492 90.795364 
L 297.550308 72.70446 
L 306.250125 156.290973 
L 314.949941 153.085871 
L 323.649757 137.135367 
L 332.349574 131.554397 
L 341.04939 143.518018 
L 349.749206 128.400378 
L 358.449023 136.72966 
L 367.148839 142.220002 
L 375.848655 141.223498 
L 384.548472 317.073872 
L 393.248288 353.2239 
L 401.948104 353.2239 
L 410.647921 353.2239 
L 419.347737 353.2239 
L 428.047553 353.2239 
L 436.74737 353.2239 
L 445.447186 353.2239 
L 454.147002 353.2239 
L 462.846819 353.2239 
L 471.546635 353.2239 
L 480.246451 353.2239 
L 488.946268 353.2239 
L 497.646084 353.2239 
L 506.3459 353.2239 
L 515.045717 353.2239 
L 523.745533 353.2239 
L 532.44535 353.2239 
L 541.145166 353.2239 
L 549.844982 353.2239 
L 558.544799 353.2239 
L 567.244615 353.2239 
L 575.944431 353.2239 
L 584.644248 353.2239 
L 593.344064 353.2239 
L 602.04388 353.2239 
L 610.743697 353.2239 
L 619.443513 353.2239 
L 628.143329 353.2239 
L 636.843146 353.2239 
L 645.542962 353.2239 
L 654.242778 353.2239 
L 662.942595 353.2239 
L 671.642411 353.2239 
L 680.342227 353.2239 
L 689.042044 353.2239 
L 697.74186 353.2239 
L 706.441676 353.2239 
L 715.141493 353.2239 
L 723.841309 353.2239 
L 732.541125 353.2239 
L 741.240942 353.2239 
L 749.940758 353.2239 
L 758.640574 353.2239 
L 767.340391 353.2239 
L 776.040207 353.2239 
L 784.740024 353.2239 
L 793.43984 353.2239 
L 802.139656 353.2239 
L 810.839473 353.2239 
L 819.539289 353.2239 
L 828.239105 353.2239 
L 836.938922 353.2239 
L 845.638738 353.2239 
L 854.338554 353.2239 
L 863.038371 353.2239 
L 871.738187 353.2239 
L 880.438003 353.2239 
L 889.13782 353.2239 
L 897.837636 353.2239 
L 906.537452 353.2239 
L 915.237269 353.2239 
L 923.937085 353.2239 
L 932.636901 353.2239 
L 941.336718 353.2239 
L 950.036534 353.2239 
" style="fill:none;stroke:#90ed7d;stroke-linecap:square;"/>
   </g>
   <g id="line2d_13">
    <path clip-path="url(#p2fa8415123)" d="M 88.754716 353.2239 
L 97.454532 313.283158 
L 106.154349 132.433465 
L 114.854165 114.597881 
L 123.553981 116.92199 
L 132.253798 128.124722 
L 140.953614 131.349751 
L 149.65343 138.831296 
L 158.353247 155.126178 
L 167.053063 149.459528 
L 175.752879 153.219886 
L 184.452696 159.539375 
L 193.152512 161.040907 
L 201.852328 161.432018 
L 210.552145 172.86864 
L 219.251961 181.666922 
L 227.951777 196.491415 
L 236.651594 208.71746 
L 245.35141 188.295293 
L 254.051226 189.024918 
L 262.751043 164.135738 
L 271.450859 146.191456 
L 280.150676 149.197029 
L 288.850492 98.074967 
L 297.550308 85.407303 
L 306.250125 154.999902 
L 314.949941 147.602762 
L 323.649757 129.85881 
L 332.349574 122.879685 
L 341.04939 140.571896 
L 349.749206 122.249529 
L 358.449023 129.691605 
L 367.148839 137.070286 
L 375.848655 132.928875 
L 384.548472 316.127793 
L 393.248288 353.2239 
L 401.948104 353.2239 
L 410.647921 353.2239 
L 419.347737 353.2239 
L 428.047553 353.2239 
L 436.74737 353.2239 
L 445.447186 353.2239 
L 454.147002 353.2239 
L 462.846819 353.2239 
L 471.546635 353.2239 
L 480.246451 353.2239 
L 488.946268 353.2239 
L 497.646084 353.2239 
L 506.3459 353.2239 
L 515.045717 353.2239 
L 523.745533 353.2239 
L 532.44535 353.2239 
L 541.145166 353.2239 
L 549.844982 353.2239 
L 558.544799 353.2239 
L 567.244615 353.2239 
L 575.944431 353.2239 
L 584.644248 353.2239 
L 593.344064 353.2239 
L 602.04388 353.2239 
L 610.743697 353.2239 
L 619.443513 353.2239 
L 628.143329 353.2239 
L 636.843146 353.2239 
L 645.542962 353.2239 
L 654.242778 353.2239 
L 662.942595 353.2239 
L 671.642411 353.2239 
L 680.342227 353.2239 
L 689.042044 353.2239 
L 697.74186 353.2239 
L 706.441676 353.2239 
L 715.141493 353.2239 
L 723.841309 353.2239 
L 732.541125 353.2239 
L 741.240942 353.2239 
L 749.940758 353.2239 
L 758.640574 353.2239 
L 767.340391 353.2239 
L 776.040207 353.2239 
L 784.740024 353.2239 
L 793.43984 353.2239 
L 802.139656 353.2239 
L 810.839473 353.2239 
L 819.539289 353.2239 
L 828.239105 353.2239 
L 836.938922 353.2239 
L 845.638738 353.2239 
L 854.338554 353.2239 
L 863.038371 353.2239 
L 871.738187 353.2239 
L 880.438003 353.2239 
L 889.13782 353.2239 
L 897.837636 353.2239 
L 906.537452 353.2239 
L 915.237269 353.2239 
L 923.937085 353.2239 
L 932.636901 353.2239 
L 941.336718 353.2239 
L 950.036534 353.2239 
" style="fill:none;stroke:#f7a35c;stroke-linecap:square;"/>
   </g>
   <g id="line2d_14">
    <path clip-path="url(#p2fa8415123)" d="M 88.754716 353.2239 
L 97.454532 326.558266 
L 106.154349 145.499017 
L 114.854165 107.265102 
L 123.553981 122.280702 
L 132.253798 122.580469 
L 140.953614 120.304966 
L 149.65343 128.180661 
L 158.353247 150.186282 
L 167.053063 153.320209 
L 175.752879 159.819702 
L 184.452696 166.550833 
L 193.152512 163.021759 
L 201.852328 162.48987 
L 210.552145 179.916251 
L 219.251961 189.888029 
L 227.951777 200.958073 
L 236.651594 196.464757 
L 245.35141 178.040126 
L 254.051226 192.429942 
L 262.751043 164.179381 
L 271.450859 158.182952 
L 280.150676 148.894183 
L 288.850492 167.162498 
L 297.550308 145.382144 
L 306.250125 150.164023 
L 314.949941 134.385939 
L 323.649757 116.49795 
L 332.349574 108.41544 
L 341.04939 110.256469 
L 349.749206 118.97472 
L 358.449023 129.00266 
L 367.148839 135.361859 
L 375.848655 129.332617 
L 384.548472 320.897825 
L 393.248288 353.2239 
L 401.948104 353.2239 
L 410.647921 353.2239 
L 419.347737 353.2239 
L 428.047553 353.2239 
L 436.74737 353.2239 
L 445.447186 353.2239 
L 454.147002 353.2239 
L 462.846819 353.2239 
L 471.546635 353.2239 
L 480.246451 353.2239 
L 488.946268 353.2239 
L 497.646084 353.2239 
L 506.3459 353.2239 
L 515.045717 353.2239 
L 523.745533 353.2239 
L 532.44535 353.2239 
L 541.145166 353.2239 
L 549.844982 353.2239 
L 558.544799 353.2239 
L 567.244615 353.2239 
L 575.944431 353.2239 
L 584.644248 353.2239 
L 593.344064 353.2239 
L 602.04388 353.2239 
L 610.743697 353.2239 
L 619.443513 353.2239 
L 628.143329 353.2239 
L 636.843146 353.2239 
L 645.542962 353.2239 
L 654.242778 353.2239 
L 662.942595 353.2239 
L 671.642411 353.2239 
L 680.342227 353.2239 
L 689.042044 353.2239 
L 697.74186 353.2239 
L 706.441676 353.2239 
L 715.141493 353.2239 
L 723.841309 353.2239 
L 732.541125 353.2239 
L 741.240942 353.2239 
L 749.940758 353.2239 
L 758.640574 353.2239 
L 767.340391 353.2239 
L 776.040207 353.2239 
L 784.740024 353.2239 
L 793.43984 353.2239 
L 802.139656 353.2239 
L 810.839473 353.2239 
L 819.539289 353.2239 
L 828.239105 353.2239 
L 836.938922 353.2239 
L 845.638738 353.2239 
L 854.338554 353.2239 
L 863.038371 353.2239 
L 871.738187 353.2239 
L 880.438003 353.2239 
L 889.13782 353.2239 
L 897.837636 353.2239 
L 906.537452 353.2239 
L 915.237269 353.2239 
L 923.937085 353.2239 
L 932.636901 353.2239 
L 941.336718 353.2239 
L 950.036534 353.2239 
" style="fill:none;stroke:#8085e9;stroke-linecap:square;"/>
   </g>
   <g id="line2d_15">
    <path clip-path="url(#p2fa8415123)" d="M 88.754716 353.2239 
L 97.454532 303.30836 
L 106.154349 75.059128 
L 114.854165 56.443618 
L 123.553981 71.278303 
L 132.253798 73.082132 
L 140.953614 93.126273 
L 149.65343 89.533047 
L 158.353247 108.307293 
L 167.053063 103.574047 
L 175.752879 106.965245 
L 184.452696 130.761349 
L 193.152512 133.806211 
L 201.852328 147.601323 
L 210.552145 158.321913 
L 219.251961 158.492644 
L 227.951777 165.23656 
L 236.651594 178.012887 
L 245.35141 151.051503 
L 254.051226 160.587444 
L 262.751043 140.122062 
L 271.450859 120.066899 
L 280.150676 115.856861 
L 288.850492 126.042609 
L 297.550308 112.655796 
L 306.250125 115.390121 
L 314.949941 103.027802 
L 323.649757 82.25932 
L 332.349574 79.176136 
L 341.04939 64.576877 
L 349.749206 81.598803 
L 358.449023 85.861437 
L 367.148839 88.997571 
L 375.848655 83.013897 
L 384.548472 299.568883 
L 393.248288 353.2239 
L 401.948104 353.2239 
L 410.647921 353.2239 
L 419.347737 353.2239 
L 428.047553 353.2239 
L 436.74737 353.2239 
L 445.447186 353.2239 
L 454.147002 353.2239 
L 462.846819 353.2239 
L 471.546635 353.2239 
L 480.246451 353.2239 
L 488.946268 353.2239 
L 497.646084 353.2239 
L 506.3459 353.2239 
L 515.045717 353.2239 
L 523.745533 353.2239 
L 532.44535 353.2239 
L 541.145166 353.2239 
L 549.844982 353.2239 
L 558.544799 353.2239 
L 567.244615 353.2239 
L 575.944431 353.2239 
L 584.644248 353.2239 
L 593.344064 353.2239 
L 602.04388 353.2239 
L 610.743697 353.2239 
L 619.443513 353.2239 
L 628.143329 353.2239 
L 636.843146 353.2239 
L 645.542962 353.2239 
L 654.242778 353.2239 
L 662.942595 353.2239 
L 671.642411 353.2239 
L 680.342227 353.2239 
L 689.042044 353.2239 
L 697.74186 353.2239 
L 706.441676 353.2239 
L 715.141493 353.2239 
L 723.841309 353.2239 
L 732.541125 353.2239 
L 741.240942 353.2239 
L 749.940758 353.2239 
L 758.640574 353.2239 
L 767.340391 353.2239 
L 776.040207 353.2239 
L 784.740024 353.2239 
L 793.43984 353.2239 
L 802.139656 353.2239 
L 810.839473 353.2239 
L 819.539289 353.2239 
L 828.239105 353.2239 
L 836.938922 353.2239 
L 845.638738 353.2239 
L 854.338554 353.2239 
L 863.038371 353.2239 
L 871.738187 353.2239 
L 880.438003 353.2239 
L 889.13782 353.2239 
L 897.837636 353.2239 
L 906.537452 353.2239 
L 915.237269 353.2239 
L 923.937085 353.2239 
L 932.636901 353.2239 
L 941.336718 353.2239 
L 950.036534 353.2239 
" style="fill:none;stroke:#f15c80;stroke-linecap:square;"/>
   </g>
   <g id="line2d_16">
    <path clip-path="url(#p2fa8415123)" d="M 88.754716 353.2239 
L 97.454532 300.490778 
L 106.154349 79.393381 
L 114.854165 50.397233 
L 123.553981 75.293487 
L 132.253798 82.800535 
L 140.953614 91.523413 
L 149.65343 88.441424 
L 158.353247 114.581784 
L 167.053063 110.566715 
L 175.752879 109.49226 
L 184.452696 132.239604 
L 193.152512 130.642059 
L 201.852328 140.735502 
L 210.552145 160.795264 
L 219.251961 164.354752 
L 227.951777 169.716785 
L 236.651594 179.304206 
L 245.35141 156.564697 
L 254.051226 160.914442 
L 262.751043 141.328488 
L 271.450859 126.134779 
L 280.150676 119.25151 
L 288.850492 135.992337 
L 297.550308 116.796372 
L 306.250125 121.836331 
L 314.949941 106.713466 
L 323.649757 83.931683 
L 332.349574 84.161931 
L 341.04939 63.795185 
L 349.749206 78.850952 
L 358.449023 83.932049 
L 367.148839 90.223031 
L 375.848655 84.073796 
L 384.548472 297.954384 
L 393.248288 353.2239 
L 401.948104 353.2239 
L 410.647921 353.2239 
L 419.347737 353.2239 
L 428.047553 353.2239 
L 436.74737 353.2239 
L 445.447186 353.2239 
L 454.147002 353.2239 
L 462.846819 353.2239 
L 471.546635 353.2239 
L 480.246451 353.2239 
L 488.946268 353.2239 
L 497.646084 353.2239 
L 506.3459 353.2239 
L 515.045717 353.2239 
L 523.745533 353.2239 
L 532.44535 353.2239 
L 541.145166 353.2239 
L 549.844982 353.2239 
L 558.544799 353.2239 
L 567.244615 353.2239 
L 575.944431 353.2239 
L 584.644248 353.2239 
L 593.344064 353.2239 
L 602.04388 353.2239 
L 610.743697 353.2239 
L 619.443513 353.2239 
L 628.143329 353.2239 
L 636.843146 353.2239 
L 645.542962 353.2239 
L 654.242778 353.2239 
L 662.942595 353.2239 
L 671.642411 353.2239 
L 680.342227 353.2239 
L 689.042044 353.2239 
L 697.74186 353.2239 
L 706.441676 353.2239 
L 715.141493 353.2239 
L 723.841309 353.2239 
L 732.541125 353.2239 
L 741.240942 353.2239 
L 749.940758 353.2239 
L 758.640574 353.2239 
L 767.340391 353.2239 
L 776.040207 353.2239 
L 784.740024 353.2239 
L 793.43984 353.2239 
L 802.139656 353.2239 
L 810.839473 353.2239 
L 819.539289 353.2239 
L 828.239105 353.2239 
L 836.938922 353.2239 
L 845.638738 353.2239 
L 854.338554 353.2239 
L 863.038371 353.2239 
L 871.738187 353.2239 
L 880.438003 353.2239 
L 889.13782 353.2239 
L 897.837636 353.2239 
L 906.537452 353.2239 
L 915.237269 353.2239 
L 923.937085 353.2239 
L 932.636901 353.2239 
L 941.336718 353.2239 
L 950.036534 353.2239 
" style="fill:none;stroke:#e4d354;stroke-linecap:square;"/>
   </g>
   <g id="line2d_17">
    <path clip-path="url(#p2fa8415123)" d="M 88.754716 353.2239 
L 97.454532 300.071158 
L 106.154349 83.150885 
L 114.854165 54.232801 
L 123.553981 77.760787 
L 132.253798 78.536739 
L 140.953614 95.385992 
L 149.65343 99.501311 
L 158.353247 116.766253 
L 167.053063 117.611487 
L 175.752879 110.711053 
L 184.452696 142.691378 
L 193.152512 136.608465 
L 201.852328 149.549464 
L 210.552145 162.891565 
L 219.251961 168.43044 
L 227.951777 172.133567 
L 236.651594 177.954712 
L 245.35141 155.444431 
L 254.051226 169.644548 
L 262.751043 139.814382 
L 271.450859 138.85517 
L 280.150676 122.30467 
L 288.850492 140.583865 
L 297.550308 119.978279 
L 306.250125 128.759321 
L 314.949941 115.670329 
L 323.649757 83.454929 
L 332.349574 88.978355 
L 341.04939 60.661144 
L 349.749206 84.402912 
L 358.449023 82.704958 
L 367.148839 89.45097 
L 375.848655 91.157475 
L 384.548472 294.924512 
L 393.248288 353.2239 
L 401.948104 353.2239 
L 410.647921 353.2239 
L 419.347737 353.2239 
L 428.047553 353.2239 
L 436.74737 353.2239 
L 445.447186 353.2239 
L 454.147002 353.2239 
L 462.846819 353.2239 
L 471.546635 353.2239 
L 480.246451 353.2239 
L 488.946268 353.2239 
L 497.646084 353.2239 
L 506.3459 353.2239 
L 515.045717 353.2239 
L 523.745533 353.2239 
L 532.44535 353.2239 
L 541.145166 353.2239 
L 549.844982 353.2239 
L 558.544799 353.2239 
L 567.244615 353.2239 
L 575.944431 353.2239 
L 584.644248 353.2239 
L 593.344064 353.2239 
L 602.04388 353.2239 
L 610.743697 353.2239 
L 619.443513 353.2239 
L 628.143329 353.2239 
L 636.843146 353.2239 
L 645.542962 353.2239 
L 654.242778 353.2239 
L 662.942595 353.2239 
L 671.642411 353.2239 
L 680.342227 353.2239 
L 689.042044 353.2239 
L 697.74186 353.2239 
L 706.441676 353.2239 
L 715.141493 353.2239 
L 723.841309 353.2239 
L 732.541125 353.2239 
L 741.240942 353.2239 
L 749.940758 353.2239 
L 758.640574 353.2239 
L 767.340391 353.2239 
L 776.040207 353.2239 
L 784.740024 353.2239 
L 793.43984 353.2239 
L 802.139656 353.2239 
L 810.839473 353.2239 
L 819.539289 353.2239 
L 828.239105 353.2239 
L 836.938922 353.2239 
L 845.638738 353.2239 
L 854.338554 353.2239 
L 863.038371 353.2239 
L 871.738187 353.2239 
L 880.438003 353.2239 
L 889.13782 353.2239 
L 897.837636 353.2239 
L 906.537452 353.2239 
L 915.237269 353.2239 
L 923.937085 353.2239 
L 932.636901 353.2239 
L 941.336718 353.2239 
L 950.036534 353.2239 
" style="fill:none;stroke:#2b908f;stroke-linecap:square;"/>
   </g>
   <g id="line2d_18">
    <path clip-path="url(#p2fa8415123)" d="M 88.754716 353.2239 
L 97.454532 295.486844 
L 106.154349 78.9077 
L 114.854165 58.368025 
L 123.553981 78.154482 
L 132.253798 82.963489 
L 140.953614 98.505853 
L 149.65343 102.011213 
L 158.353247 113.888882 
L 167.053063 113.034269 
L 175.752879 108.601871 
L 184.452696 138.513316 
L 193.152512 142.598075 
L 201.852328 151.882048 
L 210.552145 159.673633 
L 219.251961 171.273353 
L 227.951777 165.845383 
L 236.651594 180.826317 
L 245.35141 157.732069 
L 254.051226 166.869209 
L 262.751043 136.70087 
L 271.450859 131.627983 
L 280.150676 129.594793 
L 288.850492 140.503807 
L 297.550308 120.739294 
L 306.250125 130.854576 
L 314.949941 119.645013 
L 323.649757 80.773593 
L 332.349574 91.010466 
L 341.04939 58.985337 
L 349.749206 86.97642 
L 358.449023 82.000596 
L 367.148839 87.857441 
L 375.848655 91.381932 
L 384.548472 295.172841 
L 393.248288 353.2239 
L 401.948104 353.2239 
L 410.647921 353.2239 
L 419.347737 353.2239 
L 428.047553 353.2239 
L 436.74737 353.2239 
L 445.447186 353.2239 
L 454.147002 353.2239 
L 462.846819 353.2239 
L 471.546635 353.2239 
L 480.246451 353.2239 
L 488.946268 353.2239 
L 497.646084 353.2239 
L 506.3459 353.2239 
L 515.045717 353.2239 
L 523.745533 353.2239 
L 532.44535 353.2239 
L 541.145166 353.2239 
L 549.844982 353.2239 
L 558.544799 353.2239 
L 567.244615 353.2239 
L 575.944431 353.2239 
L 584.644248 353.2239 
L 593.344064 353.2239 
L 602.04388 353.2239 
L 610.743697 353.2239 
L 619.443513 353.2239 
L 628.143329 353.2239 
L 636.843146 353.2239 
L 645.542962 353.2239 
L 654.242778 353.2239 
L 662.942595 353.2239 
L 671.642411 353.2239 
L 680.342227 353.2239 
L 689.042044 353.2239 
L 697.74186 353.2239 
L 706.441676 353.2239 
L 715.141493 353.2239 
L 723.841309 353.2239 
L 732.541125 353.2239 
L 741.240942 353.2239 
L 749.940758 353.2239 
L 758.640574 353.2239 
L 767.340391 353.2239 
L 776.040207 353.2239 
L 784.740024 353.2239 
L 793.43984 353.2239 
L 802.139656 353.2239 
L 810.839473 353.2239 
L 819.539289 353.2239 
L 828.239105 353.2239 
L 836.938922 353.2239 
L 845.638738 353.2239 
L 854.338554 353.2239 
L 863.038371 353.2239 
L 871.738187 353.2239 
L 880.438003 353.2239 
L 889.13782 353.2239 
L 897.837636 353.2239 
L 906.537452 353.2239 
L 915.237269 353.2239 
L 923.937085 353.2239 
L 932.636901 353.2239 
L 941.336718 353.2239 
L 950.036534 353.2239 
" style="fill:none;stroke:#f45b5b;stroke-linecap:square;"/>
   </g>
   <g id="line2d_19">
    <path clip-path="url(#p2fa8415123)" d="M 88.754716 353.2239 
L 97.454532 298.582134 
L 106.154349 79.62835 
L 114.854165 56.582845 
L 123.553981 78.224708 
L 132.253798 82.077562 
L 140.953614 91.258524 
L 149.65343 100.740267 
L 158.353247 114.70507 
L 167.053063 111.539715 
L 175.752879 112.499347 
L 184.452696 141.331294 
L 193.152512 137.807866 
L 201.852328 148.062399 
L 210.552145 162.971038 
L 219.251961 167.422847 
L 227.951777 169.001708 
L 236.651594 179.388175 
L 245.35141 157.167222 
L 254.051226 162.676564 
L 262.751043 135.339123 
L 271.450859 132.884769 
L 280.150676 120.56581 
L 288.850492 138.933889 
L 297.550308 120.233181 
L 306.250125 124.079552 
L 314.949941 115.38787 
L 323.649757 83.745546 
L 332.349574 86.975829 
L 341.04939 61.028657 
L 349.749206 83.479388 
L 358.449023 80.385776 
L 367.148839 87.104108 
L 375.848655 89.710133 
L 384.548472 295.923177 
L 393.248288 353.2239 
L 401.948104 353.2239 
L 410.647921 353.2239 
L 419.347737 353.2239 
L 428.047553 353.2239 
L 436.74737 353.2239 
L 445.447186 353.2239 
L 454.147002 353.2239 
L 462.846819 353.2239 
L 471.546635 353.2239 
L 480.246451 353.2239 
L 488.946268 353.2239 
L 497.646084 353.2239 
L 506.3459 353.2239 
L 515.045717 353.2239 
L 523.745533 353.2239 
L 532.44535 353.2239 
L 541.145166 353.2239 
L 549.844982 353.2239 
L 558.544799 353.2239 
L 567.244615 353.2239 
L 575.944431 353.2239 
L 584.644248 353.2239 
L 593.344064 353.2239 
L 602.04388 353.2239 
L 610.743697 353.2239 
L 619.443513 353.2239 
L 628.143329 353.2239 
L 636.843146 353.2239 
L 645.542962 353.2239 
L 654.242778 353.2239 
L 662.942595 353.2239 
L 671.642411 353.2239 
L 680.342227 353.2239 
L 689.042044 353.2239 
L 697.74186 353.2239 
L 706.441676 353.2239 
L 715.141493 353.2239 
L 723.841309 353.2239 
L 732.541125 353.2239 
L 741.240942 353.2239 
L 749.940758 353.2239 
L 758.640574 353.2239 
L 767.340391 353.2239 
L 776.040207 353.2239 
L 784.740024 353.2239 
L 793.43984 353.2239 
L 802.139656 353.2239 
L 810.839473 353.2239 
L 819.539289 353.2239 
L 828.239105 353.2239 
L 836.938922 353.2239 
L 845.638738 353.2239 
L 854.338554 353.2239 
L 863.038371 353.2239 
L 871.738187 353.2239 
L 880.438003 353.2239 
L 889.13782 353.2239 
L 897.837636 353.2239 
L 906.537452 353.2239 
L 915.237269 353.2239 
L 923.937085 353.2239 
L 932.636901 353.2239 
L 941.336718 353.2239 
L 950.036534 353.2239 
" style="fill:none;stroke:#91e8e1;stroke-linecap:square;"/>
   </g>
   <g id="line2d_20">
    <path clip-path="url(#p2fa8415123)" d="M 88.754716 353.2239 
L 97.454532 313.832214 
L 106.154349 140.019327 
L 114.854165 118.878514 
L 123.553981 118.579106 
L 132.253798 135.189745 
L 140.953614 136.608678 
L 149.65343 140.305717 
L 158.353247 163.46428 
L 167.053063 149.847722 
L 175.752879 158.309254 
L 184.452696 165.976704 
L 193.152512 167.473744 
L 201.852328 167.36907 
L 210.552145 170.153545 
L 219.251961 188.389373 
L 227.951777 205.539642 
L 236.651594 217.221534 
L 245.35141 196.078698 
L 254.051226 197.054624 
L 262.751043 171.225697 
L 271.450859 151.471168 
L 280.150676 156.73171 
L 288.850492 97.381196 
L 297.550308 76.819459 
L 306.250125 158.106871 
L 314.949941 156.663176 
L 323.649757 139.687455 
L 332.349574 129.015065 
L 341.04939 145.898557 
L 349.749206 121.717389 
L 358.449023 139.909158 
L 367.148839 147.180216 
L 375.848655 134.965421 
L 384.548472 317.879016 
L 393.248288 353.2239 
L 401.948104 353.2239 
L 410.647921 353.2239 
L 419.347737 353.2239 
L 428.047553 353.2239 
L 436.74737 353.2239 
L 445.447186 353.2239 
L 454.147002 353.2239 
L 462.846819 353.2239 
L 471.546635 353.2239 
L 480.246451 353.2239 
L 488.946268 353.2239 
L 497.646084 353.2239 
L 506.3459 353.2239 
L 515.045717 353.2239 
L 523.745533 353.2239 
L 532.44535 353.2239 
L 541.145166 353.2239 
L 549.844982 353.2239 
L 558.544799 353.2239 
L 567.244615 353.2239 
L 575.944431 353.2239 
L 584.644248 353.2239 
L 593.344064 353.2239 
L 602.04388 353.2239 
L 610.743697 353.2239 
L 619.443513 353.2239 
L 628.143329 353.2239 
L 636.843146 353.2239 
L 645.542962 353.2239 
L 654.242778 353.2239 
L 662.942595 353.2239 
L 671.642411 353.2239 
L 680.342227 353.2239 
L 689.042044 353.2239 
L 697.74186 353.2239 
L 706.441676 353.2239 
L 715.141493 353.2239 
L 723.841309 353.2239 
L 732.541125 353.2239 
L 741.240942 353.2239 
L 749.940758 353.2239 
L 758.640574 353.2239 
L 767.340391 353.2239 
L 776.040207 353.2239 
L 784.740024 353.2239 
L 793.43984 353.2239 
L 802.139656 353.2239 
L 810.839473 353.2239 
L 819.539289 353.2239 
L 828.239105 353.2239 
L 836.938922 353.2239 
L 845.638738 353.2239 
L 854.338554 353.2239 
L 863.038371 353.2239 
L 871.738187 353.2239 
L 880.438003 353.2239 
L 889.13782 353.2239 
L 897.837636 353.2239 
L 906.537452 353.2239 
L 915.237269 353.2239 
L 923.937085 353.2239 
L 932.636901 353.2239 
L 941.336718 353.2239 
L 950.036534 353.2239 
" style="fill:none;stroke:#7cb5ec;stroke-linecap:square;"/>
   </g>
   <g id="line2d_21">
    <path clip-path="url(#p2fa8415123)" d="M 88.754716 353.2239 
L 97.454532 317.676074 
L 106.154349 143.39046 
L 114.854165 116.112891 
L 123.553981 122.214965 
L 132.253798 135.847258 
L 140.953614 135.366882 
L 149.65343 136.14587 
L 158.353247 159.515514 
L 167.053063 160.359418 
L 175.752879 162.774281 
L 184.452696 167.097666 
L 193.152512 152.569537 
L 201.852328 157.294782 
L 210.552145 171.029729 
L 219.251961 189.19123 
L 227.951777 202.776583 
L 236.651594 215.464404 
L 245.35141 194.115801 
L 254.051226 194.125554 
L 262.751043 176.141072 
L 271.450859 161.684269 
L 280.150676 149.323545 
L 288.850492 129.546116 
L 297.550308 74.952968 
L 306.250125 157.850729 
L 314.949941 142.006364 
L 323.649757 129.666592 
L 332.349574 119.863447 
L 341.04939 122.547792 
L 349.749206 116.331055 
L 358.449023 142.645752 
L 367.148839 142.39059 
L 375.848655 141.327697 
L 384.548472 320.367015 
L 393.248288 353.2239 
L 401.948104 353.2239 
L 410.647921 353.2239 
L 419.347737 353.2239 
L 428.047553 353.2239 
L 436.74737 353.2239 
L 445.447186 353.2239 
L 454.147002 353.2239 
L 462.846819 353.2239 
L 471.546635 353.2239 
L 480.246451 353.2239 
L 488.946268 353.2239 
L 497.646084 353.2239 
L 506.3459 353.2239 
L 515.045717 353.2239 
L 523.745533 353.2239 
L 532.44535 353.2239 
L 541.145166 353.2239 
L 549.844982 353.2239 
L 558.544799 353.2239 
L 567.244615 353.2239 
L 575.944431 353.2239 
L 584.644248 353.2239 
L 593.344064 353.2239 
L 602.04388 353.2239 
L 610.743697 353.2239 
L 619.443513 353.2239 
L 628.143329 353.2239 
L 636.843146 353.2239 
L 645.542962 353.2239 
L 654.242778 353.2239 
L 662.942595 353.2239 
L 671.642411 353.2239 
L 680.342227 353.2239 
L 689.042044 353.2239 
L 697.74186 353.2239 
L 706.441676 353.2239 
L 715.141493 353.2239 
L 723.841309 353.2239 
L 732.541125 353.2239 
L 741.240942 353.2239 
L 749.940758 353.2239 
L 758.640574 353.2239 
L 767.340391 353.2239 
L 776.040207 353.2239 
L 784.740024 353.2239 
L 793.43984 353.2239 
L 802.139656 353.2239 
L 810.839473 353.2239 
L 819.539289 353.2239 
L 828.239105 353.2239 
L 836.938922 353.2239 
L 845.638738 353.2239 
L 854.338554 353.2239 
L 863.038371 353.2239 
L 871.738187 353.2239 
L 880.438003 353.2239 
L 889.13782 353.2239 
L 897.837636 353.2239 
L 906.537452 353.2239 
L 915.237269 353.2239 
L 923.937085 353.2239 
L 932.636901 353.2239 
L 941.336718 353.2239 
L 950.036534 353.2239 
" style="fill:none;stroke:#434348;stroke-linecap:square;"/>
   </g>
   <g id="line2d_22">
    <path clip-path="url(#p2fa8415123)" d="M 88.754716 353.2239 
L 97.454532 308.398444 
L 106.154349 126.853281 
L 114.854165 94.496926 
L 123.553981 106.897213 
L 132.253798 109.278179 
L 140.953614 116.737619 
L 149.65343 122.297792 
L 158.353247 141.840976 
L 167.053063 142.432776 
L 175.752879 149.080211 
L 184.452696 156.732331 
L 193.152512 164.494553 
L 201.852328 168.099733 
L 210.552145 179.329063 
L 219.251961 178.36308 
L 227.951777 197.017697 
L 236.651594 188.075438 
L 245.35141 173.678395 
L 254.051226 188.559516 
L 262.751043 150.307318 
L 271.450859 142.903069 
L 280.150676 141.663363 
L 288.850492 125.917523 
L 297.550308 144.503971 
L 306.250125 141.485718 
L 314.949941 138.411873 
L 323.649757 112.660824 
L 332.349574 105.36066 
L 341.04939 123.458161 
L 349.749206 115.123466 
L 358.449023 116.137101 
L 367.148839 119.59329 
L 375.848655 112.016973 
L 384.548472 310.294879 
L 393.248288 353.2239 
L 401.948104 353.2239 
L 410.647921 353.2239 
L 419.347737 353.2239 
L 428.047553 353.2239 
L 436.74737 353.2239 
L 445.447186 353.2239 
L 454.147002 353.2239 
L 462.846819 353.2239 
L 471.546635 353.2239 
L 480.246451 353.2239 
L 488.946268 353.2239 
L 497.646084 353.2239 
L 506.3459 353.2239 
L 515.045717 353.2239 
L 523.745533 353.2239 
L 532.44535 353.2239 
L 541.145166 353.2239 
L 549.844982 353.2239 
L 558.544799 353.2239 
L 567.244615 353.2239 
L 575.944431 353.2239 
L 584.644248 353.2239 
L 593.344064 353.2239 
L 602.04388 353.2239 
L 610.743697 353.2239 
L 619.443513 353.2239 
L 628.143329 353.2239 
L 636.843146 353.2239 
L 645.542962 353.2239 
L 654.242778 353.2239 
L 662.942595 353.2239 
L 671.642411 353.2239 
L 680.342227 353.2239 
L 689.042044 353.2239 
L 697.74186 353.2239 
L 706.441676 353.2239 
L 715.141493 353.2239 
L 723.841309 353.2239 
L 732.541125 353.2239 
L 741.240942 353.2239 
L 749.940758 353.2239 
L 758.640574 353.2239 
L 767.340391 353.2239 
L 776.040207 353.2239 
L 784.740024 353.2239 
L 793.43984 353.2239 
L 802.139656 353.2239 
L 810.839473 353.2239 
L 819.539289 353.2239 
L 828.239105 353.2239 
L 836.938922 353.2239 
L 845.638738 353.2239 
L 854.338554 353.2239 
L 863.038371 353.2239 
L 871.738187 353.2239 
L 880.438003 353.2239 
L 889.13782 353.2239 
L 897.837636 353.2239 
L 906.537452 353.2239 
L 915.237269 353.2239 
L 923.937085 353.2239 
L 932.636901 353.2239 
L 941.336718 353.2239 
L 950.036534 353.2239 
" style="fill:none;stroke:#90ed7d;stroke-linecap:square;"/>
   </g>
   <g id="line2d_23">
    <path clip-path="url(#p2fa8415123)" d="M 88.754716 353.2239 
L 97.454532 314.835672 
L 106.154349 140.038413 
L 114.854165 108.679566 
L 123.553981 120.160887 
L 132.253798 131.030392 
L 140.953614 126.643538 
L 149.65343 136.601827 
L 158.353247 159.030757 
L 167.053063 151.220335 
L 175.752879 153.563461 
L 184.452696 161.79044 
L 193.152512 143.474999 
L 201.852328 152.495139 
L 210.552145 168.895707 
L 219.251961 187.092005 
L 227.951777 205.646639 
L 236.651594 216.598078 
L 245.35141 193.396262 
L 254.051226 194.004099 
L 262.751043 173.367424 
L 271.450859 156.983619 
L 280.150676 142.362448 
L 288.850492 122.086068 
L 297.550308 68.141661 
L 306.250125 153.838116 
L 314.949941 136.124433 
L 323.649757 119.002829 
L 332.349574 113.568549 
L 341.04939 115.159766 
L 349.749206 104.861441 
L 358.449023 135.479006 
L 367.148839 137.954917 
L 375.848655 137.614538 
L 384.548472 318.00169 
L 393.248288 353.2239 
L 401.948104 353.2239 
L 410.647921 353.2239 
L 419.347737 353.2239 
L 428.047553 353.2239 
L 436.74737 353.2239 
L 445.447186 353.2239 
L 454.147002 353.2239 
L 462.846819 353.2239 
L 471.546635 353.2239 
L 480.246451 353.2239 
L 488.946268 353.2239 
L 497.646084 353.2239 
L 506.3459 353.2239 
L 515.045717 353.2239 
L 523.745533 353.2239 
L 532.44535 353.2239 
L 541.145166 353.2239 
L 549.844982 353.2239 
L 558.544799 353.2239 
L 567.244615 353.2239 
L 575.944431 353.2239 
L 584.644248 353.2239 
L 593.344064 353.2239 
L 602.04388 353.2239 
L 610.743697 353.2239 
L 619.443513 353.2239 
L 628.143329 353.2239 
L 636.843146 353.2239 
L 645.542962 353.2239 
L 654.242778 353.2239 
L 662.942595 353.2239 
L 671.642411 353.2239 
L 680.342227 353.2239 
L 689.042044 353.2239 
L 697.74186 353.2239 
L 706.441676 353.2239 
L 715.141493 353.2239 
L 723.841309 353.2239 
L 732.541125 353.2239 
L 741.240942 353.2239 
L 749.940758 353.2239 
L 758.640574 353.2239 
L 767.340391 353.2239 
L 776.040207 353.2239 
L 784.740024 353.2239 
L 793.43984 353.2239 
L 802.139656 353.2239 
L 810.839473 353.2239 
L 819.539289 353.2239 
L 828.239105 353.2239 
L 836.938922 353.2239 
L 845.638738 353.2239 
L 854.338554 353.2239 
L 863.038371 353.2239 
L 871.738187 353.2239 
L 880.438003 353.2239 
L 889.13782 353.2239 
L 897.837636 353.2239 
L 906.537452 353.2239 
L 915.237269 353.2239 
L 923.937085 353.2239 
L 932.636901 353.2239 
L 941.336718 353.2239 
L 950.036534 353.2239 
" style="fill:none;stroke:#f7a35c;stroke-linecap:square;"/>
   </g>
   <g id="line2d_24">
    <path clip-path="url(#p2fa8415123)" d="M 88.754716 353.2239 
L 97.454532 309.473116 
L 106.154349 125.453909 
L 114.854165 93.129018 
L 123.553981 105.718275 
L 132.253798 111.756687 
L 140.953614 115.786911 
L 149.65343 122.171562 
L 158.353247 142.142638 
L 167.053063 142.696621 
L 175.752879 149.593706 
L 184.452696 149.912246 
L 193.152512 160.368669 
L 201.852328 162.279373 
L 210.552145 177.609764 
L 219.251961 182.24713 
L 227.951777 198.401892 
L 236.651594 189.832873 
L 245.35141 173.739539 
L 254.051226 191.152294 
L 262.751043 147.93588 
L 271.450859 146.124585 
L 280.150676 149.72691 
L 288.850492 125.386738 
L 297.550308 149.470593 
L 306.250125 140.778107 
L 314.949941 139.29326 
L 323.649757 119.439683 
L 332.349574 106.959953 
L 341.04939 118.49589 
L 349.749206 109.675195 
L 358.449023 119.710466 
L 367.148839 118.150952 
L 375.848655 114.122166 
L 384.548472 311.078321 
L 393.248288 353.2239 
L 401.948104 353.2239 
L 410.647921 353.2239 
L 419.347737 353.2239 
L 428.047553 353.2239 
L 436.74737 353.2239 
L 445.447186 353.2239 
L 454.147002 353.2239 
L 462.846819 353.2239 
L 471.546635 353.2239 
L 480.246451 353.2239 
L 488.946268 353.2239 
L 497.646084 353.2239 
L 506.3459 353.2239 
L 515.045717 353.2239 
L 523.745533 353.2239 
L 532.44535 353.2239 
L 541.145166 353.2239 
L 549.844982 353.2239 
L 558.544799 353.2239 
L 567.244615 353.2239 
L 575.944431 353.2239 
L 584.644248 353.2239 
L 593.344064 353.2239 
L 602.04388 353.2239 
L 610.743697 353.2239 
L 619.443513 353.2239 
L 628.143329 353.2239 
L 636.843146 353.2239 
L 645.542962 353.2239 
L 654.242778 353.2239 
L 662.942595 353.2239 
L 671.642411 353.2239 
L 680.342227 353.2239 
L 689.042044 353.2239 
L 697.74186 353.2239 
L 706.441676 353.2239 
L 715.141493 353.2239 
L 723.841309 353.2239 
L 732.541125 353.2239 
L 741.240942 353.2239 
L 749.940758 353.2239 
L 758.640574 353.2239 
L 767.340391 353.2239 
L 776.040207 353.2239 
L 784.740024 353.2239 
L 793.43984 353.2239 
L 802.139656 353.2239 
L 810.839473 353.2239 
L 819.539289 353.2239 
L 828.239105 353.2239 
L 836.938922 353.2239 
L 845.638738 353.2239 
L 854.338554 353.2239 
L 863.038371 353.2239 
L 871.738187 353.2239 
L 880.438003 353.2239 
L 889.13782 353.2239 
L 897.837636 353.2239 
L 906.537452 353.2239 
L 915.237269 353.2239 
L 923.937085 353.2239 
L 932.636901 353.2239 
L 941.336718 353.2239 
L 950.036534 353.2239 
" style="fill:none;stroke:#8085e9;stroke-linecap:square;"/>
   </g>
   <g id="line2d_25">
    <path clip-path="url(#p2fa8415123)" d="M 88.754716 353.2239 
L 97.454532 314.422697 
L 106.154349 134.675271 
L 114.854165 108.847154 
L 123.553981 122.751575 
L 132.253798 128.287108 
L 140.953614 127.985408 
L 149.65343 130.412123 
L 158.353247 159.283471 
L 167.053063 149.589729 
L 175.752879 157.23716 
L 184.452696 164.320544 
L 193.152512 145.090469 
L 201.852328 152.934216 
L 210.552145 171.284218 
L 219.251961 185.357071 
L 227.951777 202.952531 
L 236.651594 213.331927 
L 245.35141 189.270765 
L 254.051226 193.243602 
L 262.751043 170.704231 
L 271.450859 153.460678 
L 280.150676 140.435639 
L 288.850492 126.138435 
L 297.550308 75.751687 
L 306.250125 154.237366 
L 314.949941 133.369968 
L 323.649757 114.977186 
L 332.349574 114.286856 
L 341.04939 113.352838 
L 349.749206 110.567248 
L 358.449023 136.810972 
L 367.148839 138.329212 
L 375.848655 134.748349 
L 384.548472 319.231604 
L 393.248288 353.2239 
L 401.948104 353.2239 
L 410.647921 353.2239 
L 419.347737 353.2239 
L 428.047553 353.2239 
L 436.74737 353.2239 
L 445.447186 353.2239 
L 454.147002 353.2239 
L 462.846819 353.2239 
L 471.546635 353.2239 
L 480.246451 353.2239 
L 488.946268 353.2239 
L 497.646084 353.2239 
L 506.3459 353.2239 
L 515.045717 353.2239 
L 523.745533 353.2239 
L 532.44535 353.2239 
L 541.145166 353.2239 
L 549.844982 353.2239 
L 558.544799 353.2239 
L 567.244615 353.2239 
L 575.944431 353.2239 
L 584.644248 353.2239 
L 593.344064 353.2239 
L 602.04388 353.2239 
L 610.743697 353.2239 
L 619.443513 353.2239 
L 628.143329 353.2239 
L 636.843146 353.2239 
L 645.542962 353.2239 
L 654.242778 353.2239 
L 662.942595 353.2239 
L 671.642411 353.2239 
L 680.342227 353.2239 
L 689.042044 353.2239 
L 697.74186 353.2239 
L 706.441676 353.2239 
L 715.141493 353.2239 
L 723.841309 353.2239 
L 732.541125 353.2239 
L 741.240942 353.2239 
L 749.940758 353.2239 
L 758.640574 353.2239 
L 767.340391 353.2239 
L 776.040207 353.2239 
L 784.740024 353.2239 
L 793.43984 353.2239 
L 802.139656 353.2239 
L 810.839473 353.2239 
L 819.539289 353.2239 
L 828.239105 353.2239 
L 836.938922 353.2239 
L 845.638738 353.2239 
L 854.338554 353.2239 
L 863.038371 353.2239 
L 871.738187 353.2239 
L 880.438003 353.2239 
L 889.13782 353.2239 
L 897.837636 353.2239 
L 906.537452 353.2239 
L 915.237269 353.2239 
L 923.937085 353.2239 
L 932.636901 353.2239 
L 941.336718 353.2239 
L 950.036534 353.2239 
" style="fill:none;stroke:#f15c80;stroke-linecap:square;"/>
   </g>
   <g id="line2d_26">
    <path clip-path="url(#p2fa8415123)" d="M 88.754716 353.2239 
L 97.454532 307.72994 
L 106.154349 119.558645 
L 114.854165 87.420582 
L 123.553981 101.224006 
L 132.253798 108.734075 
L 140.953614 110.146584 
L 149.65343 120.397759 
L 158.353247 136.117159 
L 167.053063 137.697491 
L 175.752879 145.878851 
L 184.452696 150.675786 
L 193.152512 165.150501 
L 201.852328 162.870218 
L 210.552145 174.574858 
L 219.251961 182.012426 
L 227.951777 197.808427 
L 236.651594 191.057176 
L 245.35141 175.224872 
L 254.051226 185.798198 
L 262.751043 150.969508 
L 271.450859 142.158243 
L 280.150676 145.640647 
L 288.850492 126.099698 
L 297.550308 148.460685 
L 306.250125 139.723149 
L 314.949941 135.898139 
L 323.649757 107.627467 
L 332.349574 105.138686 
L 341.04939 122.561922 
L 349.749206 111.360741 
L 358.449023 111.745221 
L 367.148839 115.276664 
L 375.848655 110.497702 
L 384.548472 309.012743 
L 393.248288 353.2239 
L 401.948104 353.2239 
L 410.647921 353.2239 
L 419.347737 353.2239 
L 428.047553 353.2239 
L 436.74737 353.2239 
L 445.447186 353.2239 
L 454.147002 353.2239 
L 462.846819 353.2239 
L 471.546635 353.2239 
L 480.246451 353.2239 
L 488.946268 353.2239 
L 497.646084 353.2239 
L 506.3459 353.2239 
L 515.045717 353.2239 
L 523.745533 353.2239 
L 532.44535 353.2239 
L 541.145166 353.2239 
L 549.844982 353.2239 
L 558.544799 353.2239 
L 567.244615 353.2239 
L 575.944431 353.2239 
L 584.644248 353.2239 
L 593.344064 353.2239 
L 602.04388 353.2239 
L 610.743697 353.2239 
L 619.443513 353.2239 
L 628.143329 353.2239 
L 636.843146 353.2239 
L 645.542962 353.2239 
L 654.242778 353.2239 
L 662.942595 353.2239 
L 671.642411 353.2239 
L 680.342227 353.2239 
L 689.042044 353.2239 
L 697.74186 353.2239 
L 706.441676 353.2239 
L 715.141493 353.2239 
L 723.841309 353.2239 
L 732.541125 353.2239 
L 741.240942 353.2239 
L 749.940758 353.2239 
L 758.640574 353.2239 
L 767.340391 353.2239 
L 776.040207 353.2239 
L 784.740024 353.2239 
L 793.43984 353.2239 
L 802.139656 353.2239 
L 810.839473 353.2239 
L 819.539289 353.2239 
L 828.239105 353.2239 
L 836.938922 353.2239 
L 845.638738 353.2239 
L 854.338554 353.2239 
L 863.038371 353.2239 
L 871.738187 353.2239 
L 880.438003 353.2239 
L 889.13782 353.2239 
L 897.837636 353.2239 
L 906.537452 353.2239 
L 915.237269 353.2239 
L 923.937085 353.2239 
L 932.636901 353.2239 
L 941.336718 353.2239 
L 950.036534 353.2239 
" style="fill:none;stroke:#e4d354;stroke-linecap:square;"/>
   </g>
   <g id="line2d_27">
    <path clip-path="url(#p2fa8415123)" d="M 45.690625 353.2239 
L 993.100625 353.2239 
" style="fill:none;stroke:#dedede;stroke-linecap:square;stroke-width:2;"/>
   </g>
   <g id="text_18">
    <!-- Slamdunk: Non-T&gt;C mismatches over reads -->
    <defs>
     <path d="M 53.515625 70.515625 
L 53.515625 60.890625 
Q 47.90625 63.578125 42.921875 64.890625 
Q 37.9375 66.21875 33.296875 66.21875 
Q 25.25 66.21875 20.875 63.09375 
Q 16.5 59.96875 16.5 54.203125 
Q 16.5 49.359375 19.40625 46.890625 
Q 22.3125 44.4375 30.421875 42.921875 
L 36.375 41.703125 
Q 47.40625 39.59375 52.65625 34.296875 
Q 57.90625 29 57.90625 20.125 
Q 57.90625 9.515625 50.796875 4.046875 
Q 43.703125 -1.421875 29.984375 -1.421875 
Q 24.8125 -1.421875 18.96875 -0.25 
Q 13.140625 0.921875 6.890625 3.21875 
L 6.890625 13.375 
Q 12.890625 10.015625 18.65625 8.296875 
Q 24.421875 6.59375 29.984375 6.59375 
Q 38.421875 6.59375 43.015625 9.90625 
Q 47.609375 13.234375 47.609375 19.390625 
Q 47.609375 24.75 44.3125 27.78125 
Q 41.015625 30.8125 33.5 32.328125 
L 27.484375 33.5 
Q 16.453125 35.6875 11.515625 40.375 
Q 6.59375 45.0625 6.59375 53.421875 
Q 6.59375 63.09375 13.40625 68.65625 
Q 20.21875 74.21875 32.171875 74.21875 
Q 37.3125 74.21875 42.625 73.28125 
Q 47.953125 72.359375 53.515625 70.515625 
z
" id="DejaVuSans-83"/>
     <path d="M 9.421875 75.984375 
L 18.40625 75.984375 
L 18.40625 0 
L 9.421875 0 
z
" id="DejaVuSans-108"/>
     <path d="M 8.5 21.578125 
L 8.5 54.6875 
L 17.484375 54.6875 
L 17.484375 21.921875 
Q 17.484375 14.15625 20.5 10.265625 
Q 23.53125 6.390625 29.59375 6.390625 
Q 36.859375 6.390625 41.078125 11.03125 
Q 45.3125 15.671875 45.3125 23.6875 
L 45.3125 54.6875 
L 54.296875 54.6875 
L 54.296875 0 
L 45.3125 0 
L 45.3125 8.40625 
Q 42.046875 3.421875 37.71875 1 
Q 33.40625 -1.421875 27.6875 -1.421875 
Q 18.265625 -1.421875 13.375 4.4375 
Q 8.5 10.296875 8.5 21.578125 
z
M 31.109375 56 
z
" id="DejaVuSans-117"/>
     <path d="M 9.078125 75.984375 
L 18.109375 75.984375 
L 18.109375 31.109375 
L 44.921875 54.6875 
L 56.390625 54.6875 
L 27.390625 29.109375 
L 57.625 0 
L 45.90625 0 
L 18.109375 26.703125 
L 18.109375 0 
L 9.078125 0 
z
" id="DejaVuSans-107"/>
     <path d="M 11.71875 12.40625 
L 22.015625 12.40625 
L 22.015625 0 
L 11.71875 0 
z
M 11.71875 51.703125 
L 22.015625 51.703125 
L 22.015625 39.3125 
L 11.71875 39.3125 
z
" id="DejaVuSans-58"/>
     <path d="M 9.8125 72.90625 
L 23.09375 72.90625 
L 55.421875 11.921875 
L 55.421875 72.90625 
L 64.984375 72.90625 
L 64.984375 0 
L 51.703125 0 
L 19.390625 60.984375 
L 19.390625 0 
L 9.8125 0 
z
" id="DejaVuSans-78"/>
     <path d="M 4.890625 31.390625 
L 31.203125 31.390625 
L 31.203125 23.390625 
L 4.890625 23.390625 
z
" id="DejaVuSans-45"/>
     <path d="M -0.296875 72.90625 
L 61.375 72.90625 
L 61.375 64.59375 
L 35.5 64.59375 
L 35.5 0 
L 25.59375 0 
L 25.59375 64.59375 
L -0.296875 64.59375 
z
" id="DejaVuSans-84"/>
     <path d="M 10.59375 49.21875 
L 10.59375 58.109375 
L 73.1875 35.40625 
L 73.1875 27.296875 
L 10.59375 4.59375 
L 10.59375 13.484375 
L 60.890625 31.296875 
z
" id="DejaVuSans-62"/>
     <path d="M 64.40625 67.28125 
L 64.40625 56.890625 
Q 59.421875 61.53125 53.78125 63.8125 
Q 48.140625 66.109375 41.796875 66.109375 
Q 29.296875 66.109375 22.65625 58.46875 
Q 16.015625 50.828125 16.015625 36.375 
Q 16.015625 21.96875 22.65625 14.328125 
Q 29.296875 6.6875 41.796875 6.6875 
Q 48.140625 6.6875 53.78125 8.984375 
Q 59.421875 11.28125 64.40625 15.921875 
L 64.40625 5.609375 
Q 59.234375 2.09375 53.4375 0.328125 
Q 47.65625 -1.421875 41.21875 -1.421875 
Q 24.65625 -1.421875 15.125 8.703125 
Q 5.609375 18.84375 5.609375 36.375 
Q 5.609375 53.953125 15.125 64.078125 
Q 24.65625 74.21875 41.21875 74.21875 
Q 47.75 74.21875 53.53125 72.484375 
Q 59.328125 70.75 64.40625 67.28125 
z
" id="DejaVuSans-67"/>
     <path d="M 2.984375 54.6875 
L 12.5 54.6875 
L 29.59375 8.796875 
L 46.6875 54.6875 
L 56.203125 54.6875 
L 35.6875 0 
L 23.484375 0 
z
" id="DejaVuSans-118"/>
    </defs>
    <g transform="translate(341.910625 19.3575)scale(0.16 -0.16)">
     <use xlink:href="#DejaVuSans-83"/>
     <use x="63.476562" xlink:href="#DejaVuSans-108"/>
     <use x="91.259766" xlink:href="#DejaVuSans-97"/>
     <use x="152.539062" xlink:href="#DejaVuSans-109"/>
     <use x="249.951172" xlink:href="#DejaVuSans-100"/>
     <use x="313.427734" xlink:href="#DejaVuSans-117"/>
     <use x="376.806641" xlink:href="#DejaVuSans-110"/>
     <use x="440.185547" xlink:href="#DejaVuSans-107"/>
     <use x="498.095703" xlink:href="#DejaVuSans-58"/>
     <use x="531.787109" xlink:href="#DejaVuSans-32"/>
     <use x="563.574219" xlink:href="#DejaVuSans-78"/>
     <use x="638.378906" xlink:href="#DejaVuSans-111"/>
     <use x="699.560547" xlink:href="#DejaVuSans-110"/>
     <use x="762.939453" xlink:href="#DejaVuSans-45"/>
     <use x="798.882812" xlink:href="#DejaVuSans-84"/>
     <use x="859.966797" xlink:href="#DejaVuSans-62"/>
     <use x="943.755859" xlink:href="#DejaVuSans-67"/>
     <use x="1013.580078" xlink:href="#DejaVuSans-32"/>
     <use x="1045.367188" xlink:href="#DejaVuSans-109"/>
     <use x="1142.779297" xlink:href="#DejaVuSans-105"/>
     <use x="1170.5625" xlink:href="#DejaVuSans-115"/>
     <use x="1222.662109" xlink:href="#DejaVuSans-109"/>
     <use x="1320.074219" xlink:href="#DejaVuSans-97"/>
     <use x="1381.353516" xlink:href="#DejaVuSans-116"/>
     <use x="1420.5625" xlink:href="#DejaVuSans-99"/>
     <use x="1475.542969" xlink:href="#DejaVuSans-104"/>
     <use x="1538.921875" xlink:href="#DejaVuSans-101"/>
     <use x="1600.445312" xlink:href="#DejaVuSans-115"/>
     <use x="1652.544922" xlink:href="#DejaVuSans-32"/>
     <use x="1684.332031" xlink:href="#DejaVuSans-111"/>
     <use x="1745.513672" xlink:href="#DejaVuSans-118"/>
     <use x="1804.693359" xlink:href="#DejaVuSans-101"/>
     <use x="1866.216797" xlink:href="#DejaVuSans-114"/>
     <use x="1907.330078" xlink:href="#DejaVuSans-32"/>
     <use x="1939.117188" xlink:href="#DejaVuSans-114"/>
     <use x="1980.199219" xlink:href="#DejaVuSans-101"/>
     <use x="2041.722656" xlink:href="#DejaVuSans-97"/>
     <use x="2103.001953" xlink:href="#DejaVuSans-100"/>
     <use x="2166.478516" xlink:href="#DejaVuSans-115"/>
    </g>
   </g>
  </g>
 </g>
 <defs>
  <clipPath id="p2fa8415123">
   <rect height="317.968" width="947.41" x="45.690625" y="35.2559"/>
  </clipPath>
 </defs>
</svg>
