<?xml version="1.0" encoding="utf-8" standalone="no"?>
<!DOCTYPE svg PUBLIC "-//W3C//DTD SVG 1.1//EN"
  "http://www.w3.org/Graphics/SVG/1.1/DTD/svg11.dtd">
<!-- Created with matplotlib (https://matplotlib.org/) -->
<svg height="388.844525pt" version="1.1" viewBox="0 0 1000.260625 388.844525" width="1000.260625pt" xmlns="http://www.w3.org/2000/svg" xmlns:xlink="http://www.w3.org/1999/xlink">
 <defs>
  <style type="text/css">
*{stroke-linecap:butt;stroke-linejoin:round;}
  </style>
 </defs>
 <g id="figure_1">
  <g id="axes_1">
   <g id="patch_1">
    <path d="M 50.780625 353.2239 
L 993.060625 353.2239 
L 993.060625 35.2559 
L 50.780625 35.2559 
z
" style="fill:#ffffff;"/>
   </g>
   <g id="matplotlib.axis_1">
    <g id="xtick_1">
     <g id="text_1">
      <!-- 0 -->
      <defs>
       <path d="M 31.78125 66.40625 
Q 24.171875 66.40625 20.328125 58.90625 
Q 16.5 51.421875 16.5 36.375 
Q 16.5 21.390625 20.328125 13.890625 
Q 24.171875 6.390625 31.78125 6.390625 
Q 39.453125 6.390625 43.28125 13.890625 
Q 47.125 21.390625 47.125 36.375 
Q 47.125 51.421875 43.28125 58.90625 
Q 39.453125 66.40625 31.78125 66.40625 
z
M 31.78125 74.21875 
Q 44.046875 74.21875 50.515625 64.515625 
Q 56.984375 54.828125 56.984375 36.375 
Q 56.984375 17.96875 50.515625 8.265625 
Q 44.046875 -1.421875 31.78125 -1.421875 
Q 19.53125 -1.421875 13.0625 8.265625 
Q 6.59375 17.96875 6.59375 36.375 
Q 6.59375 54.828125 13.0625 64.515625 
Q 19.53125 74.21875 31.78125 74.21875 
z
" id="DejaVuSans-48"/>
      </defs>
      <g transform="translate(82.413825 366.30265)scale(0.08 -0.08)">
       <use xlink:href="#DejaVuSans-48"/>
      </g>
     </g>
    </g>
    <g id="xtick_2">
     <g id="text_2">
      <!-- 20 -->
      <defs>
       <path d="M 19.1875 8.296875 
L 53.609375 8.296875 
L 53.609375 0 
L 7.328125 0 
L 7.328125 8.296875 
Q 12.9375 14.109375 22.625 23.890625 
Q 32.328125 33.6875 34.8125 36.53125 
Q 39.546875 41.84375 41.421875 45.53125 
Q 43.3125 49.21875 43.3125 52.78125 
Q 43.3125 58.59375 39.234375 62.25 
Q 35.15625 65.921875 28.609375 65.921875 
Q 23.96875 65.921875 18.8125 64.3125 
Q 13.671875 62.703125 7.8125 59.421875 
L 7.8125 69.390625 
Q 13.765625 71.78125 18.9375 73 
Q 24.125 74.21875 28.421875 74.21875 
Q 39.75 74.21875 46.484375 68.546875 
Q 53.21875 62.890625 53.21875 53.421875 
Q 53.21875 48.921875 51.53125 44.890625 
Q 49.859375 40.875 45.40625 35.40625 
Q 44.1875 33.984375 37.640625 27.21875 
Q 31.109375 20.453125 19.1875 8.296875 
z
" id="DejaVuSans-50"/>
      </defs>
      <g transform="translate(252.923003 366.30265)scale(0.08 -0.08)">
       <use xlink:href="#DejaVuSans-50"/>
       <use x="63.623047" xlink:href="#DejaVuSans-48"/>
      </g>
     </g>
    </g>
    <g id="xtick_3">
     <g id="text_3">
      <!-- 40 -->
      <defs>
       <path d="M 37.796875 64.3125 
L 12.890625 25.390625 
L 37.796875 25.390625 
z
M 35.203125 72.90625 
L 47.609375 72.90625 
L 47.609375 25.390625 
L 58.015625 25.390625 
L 58.015625 17.1875 
L 47.609375 17.1875 
L 47.609375 0 
L 37.796875 0 
L 37.796875 17.1875 
L 4.890625 17.1875 
L 4.890625 26.703125 
z
" id="DejaVuSans-52"/>
      </defs>
      <g transform="translate(425.977181 366.30265)scale(0.08 -0.08)">
       <use xlink:href="#DejaVuSans-52"/>
       <use x="63.623047" xlink:href="#DejaVuSans-48"/>
      </g>
     </g>
    </g>
    <g id="xtick_4">
     <g id="text_4">
      <!-- 60 -->
      <defs>
       <path d="M 33.015625 40.375 
Q 26.375 40.375 22.484375 35.828125 
Q 18.609375 31.296875 18.609375 23.390625 
Q 18.609375 15.53125 22.484375 10.953125 
Q 26.375 6.390625 33.015625 6.390625 
Q 39.65625 6.390625 43.53125 10.953125 
Q 47.40625 15.53125 47.40625 23.390625 
Q 47.40625 31.296875 43.53125 35.828125 
Q 39.65625 40.375 33.015625 40.375 
z
M 52.59375 71.296875 
L 52.59375 62.3125 
Q 48.875 64.0625 45.09375 64.984375 
Q 41.3125 65.921875 37.59375 65.921875 
Q 27.828125 65.921875 22.671875 59.328125 
Q 17.53125 52.734375 16.796875 39.40625 
Q 19.671875 43.65625 24.015625 45.921875 
Q 28.375 48.1875 33.59375 48.1875 
Q 44.578125 48.1875 50.953125 41.515625 
Q 57.328125 34.859375 57.328125 23.390625 
Q 57.328125 12.15625 50.6875 5.359375 
Q 44.046875 -1.421875 33.015625 -1.421875 
Q 20.359375 -1.421875 13.671875 8.265625 
Q 6.984375 17.96875 6.984375 36.375 
Q 6.984375 53.65625 15.1875 63.9375 
Q 23.390625 74.21875 37.203125 74.21875 
Q 40.921875 74.21875 44.703125 73.484375 
Q 48.484375 72.75 52.59375 71.296875 
z
" id="DejaVuSans-54"/>
      </defs>
      <g transform="translate(599.03136 366.30265)scale(0.08 -0.08)">
       <use xlink:href="#DejaVuSans-54"/>
       <use x="63.623047" xlink:href="#DejaVuSans-48"/>
      </g>
     </g>
    </g>
    <g id="xtick_5">
     <g id="text_5">
      <!-- 80 -->
      <defs>
       <path d="M 31.78125 34.625 
Q 24.75 34.625 20.71875 30.859375 
Q 16.703125 27.09375 16.703125 20.515625 
Q 16.703125 13.921875 20.71875 10.15625 
Q 24.75 6.390625 31.78125 6.390625 
Q 38.8125 6.390625 42.859375 10.171875 
Q 46.921875 13.96875 46.921875 20.515625 
Q 46.921875 27.09375 42.890625 30.859375 
Q 38.875 34.625 31.78125 34.625 
z
M 21.921875 38.8125 
Q 15.578125 40.375 12.03125 44.71875 
Q 8.5 49.078125 8.5 55.328125 
Q 8.5 64.0625 14.71875 69.140625 
Q 20.953125 74.21875 31.78125 74.21875 
Q 42.671875 74.21875 48.875 69.140625 
Q 55.078125 64.0625 55.078125 55.328125 
Q 55.078125 49.078125 51.53125 44.71875 
Q 48 40.375 41.703125 38.8125 
Q 48.828125 37.15625 52.796875 32.3125 
Q 56.78125 27.484375 56.78125 20.515625 
Q 56.78125 9.90625 50.3125 4.234375 
Q 43.84375 -1.421875 31.78125 -1.421875 
Q 19.734375 -1.421875 13.25 4.234375 
Q 6.78125 9.90625 6.78125 20.515625 
Q 6.78125 27.484375 10.78125 32.3125 
Q 14.796875 37.15625 21.921875 38.8125 
z
M 18.3125 54.390625 
Q 18.3125 48.734375 21.84375 45.5625 
Q 25.390625 42.390625 31.78125 42.390625 
Q 38.140625 42.390625 41.71875 45.5625 
Q 45.3125 48.734375 45.3125 54.390625 
Q 45.3125 60.0625 41.71875 63.234375 
Q 38.140625 66.40625 31.78125 66.40625 
Q 25.390625 66.40625 21.84375 63.234375 
Q 18.3125 60.0625 18.3125 54.390625 
z
" id="DejaVuSans-56"/>
      </defs>
      <g transform="translate(772.085538 366.30265)scale(0.08 -0.08)">
       <use xlink:href="#DejaVuSans-56"/>
       <use x="63.623047" xlink:href="#DejaVuSans-48"/>
      </g>
     </g>
    </g>
    <g id="xtick_6">
     <g id="text_6">
      <!-- 100 -->
      <defs>
       <path d="M 12.40625 8.296875 
L 28.515625 8.296875 
L 28.515625 63.921875 
L 10.984375 60.40625 
L 10.984375 69.390625 
L 28.421875 72.90625 
L 38.28125 72.90625 
L 38.28125 8.296875 
L 54.390625 8.296875 
L 54.390625 0 
L 12.40625 0 
z
" id="DejaVuSans-49"/>
      </defs>
      <g transform="translate(942.594716 366.30265)scale(0.08 -0.08)">
       <use xlink:href="#DejaVuSans-49"/>
       <use x="63.623047" xlink:href="#DejaVuSans-48"/>
       <use x="127.246094" xlink:href="#DejaVuSans-48"/>
      </g>
     </g>
    </g>
    <g id="text_7">
     <!-- Position in read -->
     <defs>
      <path d="M 19.671875 64.796875 
L 19.671875 37.40625 
L 32.078125 37.40625 
Q 38.96875 37.40625 42.71875 40.96875 
Q 46.484375 44.53125 46.484375 51.125 
Q 46.484375 57.671875 42.71875 61.234375 
Q 38.96875 64.796875 32.078125 64.796875 
z
M 9.8125 72.90625 
L 32.078125 72.90625 
Q 44.34375 72.90625 50.609375 67.359375 
Q 56.890625 61.8125 56.890625 51.125 
Q 56.890625 40.328125 50.609375 34.8125 
Q 44.34375 29.296875 32.078125 29.296875 
L 19.671875 29.296875 
L 19.671875 0 
L 9.8125 0 
z
" id="DejaVuSans-80"/>
      <path d="M 30.609375 48.390625 
Q 23.390625 48.390625 19.1875 42.75 
Q 14.984375 37.109375 14.984375 27.296875 
Q 14.984375 17.484375 19.15625 11.84375 
Q 23.34375 6.203125 30.609375 6.203125 
Q 37.796875 6.203125 41.984375 11.859375 
Q 46.1875 17.53125 46.1875 27.296875 
Q 46.1875 37.015625 41.984375 42.703125 
Q 37.796875 48.390625 30.609375 48.390625 
z
M 30.609375 56 
Q 42.328125 56 49.015625 48.375 
Q 55.71875 40.765625 55.71875 27.296875 
Q 55.71875 13.875 49.015625 6.21875 
Q 42.328125 -1.421875 30.609375 -1.421875 
Q 18.84375 -1.421875 12.171875 6.21875 
Q 5.515625 13.875 5.515625 27.296875 
Q 5.515625 40.765625 12.171875 48.375 
Q 18.84375 56 30.609375 56 
z
" id="DejaVuSans-111"/>
      <path d="M 44.28125 53.078125 
L 44.28125 44.578125 
Q 40.484375 46.53125 36.375 47.5 
Q 32.28125 48.484375 27.875 48.484375 
Q 21.1875 48.484375 17.84375 46.4375 
Q 14.5 44.390625 14.5 40.28125 
Q 14.5 37.15625 16.890625 35.375 
Q 19.28125 33.59375 26.515625 31.984375 
L 29.59375 31.296875 
Q 39.15625 29.25 43.1875 25.515625 
Q 47.21875 21.78125 47.21875 15.09375 
Q 47.21875 7.46875 41.1875 3.015625 
Q 35.15625 -1.421875 24.609375 -1.421875 
Q 20.21875 -1.421875 15.453125 -0.5625 
Q 10.6875 0.296875 5.421875 2 
L 5.421875 11.28125 
Q 10.40625 8.6875 15.234375 7.390625 
Q 20.0625 6.109375 24.8125 6.109375 
Q 31.15625 6.109375 34.5625 8.28125 
Q 37.984375 10.453125 37.984375 14.40625 
Q 37.984375 18.0625 35.515625 20.015625 
Q 33.0625 21.96875 24.703125 23.78125 
L 21.578125 24.515625 
Q 13.234375 26.265625 9.515625 29.90625 
Q 5.8125 33.546875 5.8125 39.890625 
Q 5.8125 47.609375 11.28125 51.796875 
Q 16.75 56 26.8125 56 
Q 31.78125 56 36.171875 55.265625 
Q 40.578125 54.546875 44.28125 53.078125 
z
" id="DejaVuSans-115"/>
      <path d="M 9.421875 54.6875 
L 18.40625 54.6875 
L 18.40625 0 
L 9.421875 0 
z
M 9.421875 75.984375 
L 18.40625 75.984375 
L 18.40625 64.59375 
L 9.421875 64.59375 
z
" id="DejaVuSans-105"/>
      <path d="M 18.3125 70.21875 
L 18.3125 54.6875 
L 36.8125 54.6875 
L 36.8125 47.703125 
L 18.3125 47.703125 
L 18.3125 18.015625 
Q 18.3125 11.328125 20.140625 9.421875 
Q 21.96875 7.515625 27.59375 7.515625 
L 36.8125 7.515625 
L 36.8125 0 
L 27.59375 0 
Q 17.1875 0 13.234375 3.875 
Q 9.28125 7.765625 9.28125 18.015625 
L 9.28125 47.703125 
L 2.6875 47.703125 
L 2.6875 54.6875 
L 9.28125 54.6875 
L 9.28125 70.21875 
z
" id="DejaVuSans-116"/>
      <path d="M 54.890625 33.015625 
L 54.890625 0 
L 45.90625 0 
L 45.90625 32.71875 
Q 45.90625 40.484375 42.875 44.328125 
Q 39.84375 48.1875 33.796875 48.1875 
Q 26.515625 48.1875 22.3125 43.546875 
Q 18.109375 38.921875 18.109375 30.90625 
L 18.109375 0 
L 9.078125 0 
L 9.078125 54.6875 
L 18.109375 54.6875 
L 18.109375 46.1875 
Q 21.34375 51.125 25.703125 53.5625 
Q 30.078125 56 35.796875 56 
Q 45.21875 56 50.046875 50.171875 
Q 54.890625 44.34375 54.890625 33.015625 
z
" id="DejaVuSans-110"/>
      <path id="DejaVuSans-32"/>
      <path d="M 41.109375 46.296875 
Q 39.59375 47.171875 37.8125 47.578125 
Q 36.03125 48 33.890625 48 
Q 26.265625 48 22.1875 43.046875 
Q 18.109375 38.09375 18.109375 28.8125 
L 18.109375 0 
L 9.078125 0 
L 9.078125 54.6875 
L 18.109375 54.6875 
L 18.109375 46.1875 
Q 20.953125 51.171875 25.484375 53.578125 
Q 30.03125 56 36.53125 56 
Q 37.453125 56 38.578125 55.875 
Q 39.703125 55.765625 41.0625 55.515625 
z
" id="DejaVuSans-114"/>
      <path d="M 56.203125 29.59375 
L 56.203125 25.203125 
L 14.890625 25.203125 
Q 15.484375 15.921875 20.484375 11.0625 
Q 25.484375 6.203125 34.421875 6.203125 
Q 39.59375 6.203125 44.453125 7.46875 
Q 49.3125 8.734375 54.109375 11.28125 
L 54.109375 2.78125 
Q 49.265625 0.734375 44.1875 -0.34375 
Q 39.109375 -1.421875 33.890625 -1.421875 
Q 20.796875 -1.421875 13.15625 6.1875 
Q 5.515625 13.8125 5.515625 26.8125 
Q 5.515625 40.234375 12.765625 48.109375 
Q 20.015625 56 32.328125 56 
Q 43.359375 56 49.78125 48.890625 
Q 56.203125 41.796875 56.203125 29.59375 
z
M 47.21875 32.234375 
Q 47.125 39.59375 43.09375 43.984375 
Q 39.0625 48.390625 32.421875 48.390625 
Q 24.90625 48.390625 20.390625 44.140625 
Q 15.875 39.890625 15.1875 32.171875 
z
" id="DejaVuSans-101"/>
      <path d="M 34.28125 27.484375 
Q 23.390625 27.484375 19.1875 25 
Q 14.984375 22.515625 14.984375 16.5 
Q 14.984375 11.71875 18.140625 8.90625 
Q 21.296875 6.109375 26.703125 6.109375 
Q 34.1875 6.109375 38.703125 11.40625 
Q 43.21875 16.703125 43.21875 25.484375 
L 43.21875 27.484375 
z
M 52.203125 31.203125 
L 52.203125 0 
L 43.21875 0 
L 43.21875 8.296875 
Q 40.140625 3.328125 35.546875 0.953125 
Q 30.953125 -1.421875 24.3125 -1.421875 
Q 15.921875 -1.421875 10.953125 3.296875 
Q 6 8.015625 6 15.921875 
Q 6 25.140625 12.171875 29.828125 
Q 18.359375 34.515625 30.609375 34.515625 
L 43.21875 34.515625 
L 43.21875 35.40625 
Q 43.21875 41.609375 39.140625 45 
Q 35.0625 48.390625 27.6875 48.390625 
Q 23 48.390625 18.546875 47.265625 
Q 14.109375 46.140625 10.015625 43.890625 
L 10.015625 52.203125 
Q 14.9375 54.109375 19.578125 55.046875 
Q 24.21875 56 28.609375 56 
Q 40.484375 56 46.34375 49.84375 
Q 52.203125 43.703125 52.203125 31.203125 
z
" id="DejaVuSans-97"/>
      <path d="M 45.40625 46.390625 
L 45.40625 75.984375 
L 54.390625 75.984375 
L 54.390625 0 
L 45.40625 0 
L 45.40625 8.203125 
Q 42.578125 3.328125 38.25 0.953125 
Q 33.9375 -1.421875 27.875 -1.421875 
Q 17.96875 -1.421875 11.734375 6.484375 
Q 5.515625 14.40625 5.515625 27.296875 
Q 5.515625 40.1875 11.734375 48.09375 
Q 17.96875 56 27.875 56 
Q 33.9375 56 38.25 53.625 
Q 42.578125 51.265625 45.40625 46.390625 
z
M 14.796875 27.296875 
Q 14.796875 17.390625 18.875 11.75 
Q 22.953125 6.109375 30.078125 6.109375 
Q 37.203125 6.109375 41.296875 11.75 
Q 45.40625 17.390625 45.40625 27.296875 
Q 45.40625 37.203125 41.296875 42.84375 
Q 37.203125 48.484375 30.078125 48.484375 
Q 22.953125 48.484375 18.875 42.84375 
Q 14.796875 37.203125 14.796875 27.296875 
z
" id="DejaVuSans-100"/>
     </defs>
     <g transform="translate(483.172969 379.564837)scale(0.1 -0.1)">
      <use xlink:href="#DejaVuSans-80"/>
      <use x="60.255859" xlink:href="#DejaVuSans-111"/>
      <use x="121.4375" xlink:href="#DejaVuSans-115"/>
      <use x="173.537109" xlink:href="#DejaVuSans-105"/>
      <use x="201.320312" xlink:href="#DejaVuSans-116"/>
      <use x="240.529297" xlink:href="#DejaVuSans-105"/>
      <use x="268.3125" xlink:href="#DejaVuSans-111"/>
      <use x="329.494141" xlink:href="#DejaVuSans-110"/>
      <use x="392.873047" xlink:href="#DejaVuSans-32"/>
      <use x="424.660156" xlink:href="#DejaVuSans-105"/>
      <use x="452.443359" xlink:href="#DejaVuSans-110"/>
      <use x="515.822266" xlink:href="#DejaVuSans-32"/>
      <use x="547.609375" xlink:href="#DejaVuSans-114"/>
      <use x="588.691406" xlink:href="#DejaVuSans-101"/>
      <use x="650.214844" xlink:href="#DejaVuSans-97"/>
      <use x="711.494141" xlink:href="#DejaVuSans-100"/>
     </g>
    </g>
   </g>
   <g id="matplotlib.axis_2">
    <g id="ytick_1">
     <g id="line2d_1">
      <path clip-path="url(#pa88fc61b4f)" d="M 50.780625 353.2239 
L 993.060625 353.2239 
" style="fill:none;stroke:#dedede;stroke-linecap:square;"/>
     </g>
     <g id="text_8">
      <!-- 0.000 -->
      <defs>
       <path d="M 10.6875 12.40625 
L 21 12.40625 
L 21 0 
L 10.6875 0 
z
" id="DejaVuSans-46"/>
      </defs>
      <g transform="translate(20.878125 356.263275)scale(0.08 -0.08)">
       <use xlink:href="#DejaVuSans-48"/>
       <use x="63.623047" xlink:href="#DejaVuSans-46"/>
       <use x="95.410156" xlink:href="#DejaVuSans-48"/>
       <use x="159.033203" xlink:href="#DejaVuSans-48"/>
       <use x="222.65625" xlink:href="#DejaVuSans-48"/>
      </g>
     </g>
    </g>
    <g id="ytick_2">
     <g id="line2d_2">
      <path clip-path="url(#pa88fc61b4f)" d="M 50.780625 314.48055 
L 993.060625 314.48055 
" style="fill:none;stroke:#dedede;stroke-linecap:square;"/>
     </g>
     <g id="text_9">
      <!-- 0.025 -->
      <defs>
       <path d="M 10.796875 72.90625 
L 49.515625 72.90625 
L 49.515625 64.59375 
L 19.828125 64.59375 
L 19.828125 46.734375 
Q 21.96875 47.46875 24.109375 47.828125 
Q 26.265625 48.1875 28.421875 48.1875 
Q 40.625 48.1875 47.75 41.5 
Q 54.890625 34.8125 54.890625 23.390625 
Q 54.890625 11.625 47.5625 5.09375 
Q 40.234375 -1.421875 26.90625 -1.421875 
Q 22.3125 -1.421875 17.546875 -0.640625 
Q 12.796875 0.140625 7.71875 1.703125 
L 7.71875 11.625 
Q 12.109375 9.234375 16.796875 8.0625 
Q 21.484375 6.890625 26.703125 6.890625 
Q 35.15625 6.890625 40.078125 11.328125 
Q 45.015625 15.765625 45.015625 23.390625 
Q 45.015625 31 40.078125 35.4375 
Q 35.15625 39.890625 26.703125 39.890625 
Q 22.75 39.890625 18.8125 39.015625 
Q 14.890625 38.140625 10.796875 36.28125 
z
" id="DejaVuSans-53"/>
      </defs>
      <g transform="translate(20.878125 317.519925)scale(0.08 -0.08)">
       <use xlink:href="#DejaVuSans-48"/>
       <use x="63.623047" xlink:href="#DejaVuSans-46"/>
       <use x="95.410156" xlink:href="#DejaVuSans-48"/>
       <use x="159.033203" xlink:href="#DejaVuSans-50"/>
       <use x="222.65625" xlink:href="#DejaVuSans-53"/>
      </g>
     </g>
    </g>
    <g id="ytick_3">
     <g id="line2d_3">
      <path clip-path="url(#pa88fc61b4f)" d="M 50.780625 275.7372 
L 993.060625 275.7372 
" style="fill:none;stroke:#dedede;stroke-linecap:square;"/>
     </g>
     <g id="text_10">
      <!-- 0.050 -->
      <g transform="translate(20.878125 278.776575)scale(0.08 -0.08)">
       <use xlink:href="#DejaVuSans-48"/>
       <use x="63.623047" xlink:href="#DejaVuSans-46"/>
       <use x="95.410156" xlink:href="#DejaVuSans-48"/>
       <use x="159.033203" xlink:href="#DejaVuSans-53"/>
       <use x="222.65625" xlink:href="#DejaVuSans-48"/>
      </g>
     </g>
    </g>
    <g id="ytick_4">
     <g id="line2d_4">
      <path clip-path="url(#pa88fc61b4f)" d="M 50.780625 236.99385 
L 993.060625 236.99385 
" style="fill:none;stroke:#dedede;stroke-linecap:square;"/>
     </g>
     <g id="text_11">
      <!-- 0.075 -->
      <defs>
       <path d="M 8.203125 72.90625 
L 55.078125 72.90625 
L 55.078125 68.703125 
L 28.609375 0 
L 18.3125 0 
L 43.21875 64.59375 
L 8.203125 64.59375 
z
" id="DejaVuSans-55"/>
      </defs>
      <g transform="translate(20.878125 240.033225)scale(0.08 -0.08)">
       <use xlink:href="#DejaVuSans-48"/>
       <use x="63.623047" xlink:href="#DejaVuSans-46"/>
       <use x="95.410156" xlink:href="#DejaVuSans-48"/>
       <use x="159.033203" xlink:href="#DejaVuSans-55"/>
       <use x="222.65625" xlink:href="#DejaVuSans-53"/>
      </g>
     </g>
    </g>
    <g id="ytick_5">
     <g id="line2d_5">
      <path clip-path="url(#pa88fc61b4f)" d="M 50.780625 198.250501 
L 993.060625 198.250501 
" style="fill:none;stroke:#dedede;stroke-linecap:square;"/>
     </g>
     <g id="text_12">
      <!-- 0.100 -->
      <g transform="translate(20.878125 201.289876)scale(0.08 -0.08)">
       <use xlink:href="#DejaVuSans-48"/>
       <use x="63.623047" xlink:href="#DejaVuSans-46"/>
       <use x="95.410156" xlink:href="#DejaVuSans-49"/>
       <use x="159.033203" xlink:href="#DejaVuSans-48"/>
       <use x="222.65625" xlink:href="#DejaVuSans-48"/>
      </g>
     </g>
    </g>
    <g id="ytick_6">
     <g id="line2d_6">
      <path clip-path="url(#pa88fc61b4f)" d="M 50.780625 159.507151 
L 993.060625 159.507151 
" style="fill:none;stroke:#dedede;stroke-linecap:square;"/>
     </g>
     <g id="text_13">
      <!-- 0.125 -->
      <g transform="translate(20.878125 162.546526)scale(0.08 -0.08)">
       <use xlink:href="#DejaVuSans-48"/>
       <use x="63.623047" xlink:href="#DejaVuSans-46"/>
       <use x="95.410156" xlink:href="#DejaVuSans-49"/>
       <use x="159.033203" xlink:href="#DejaVuSans-50"/>
       <use x="222.65625" xlink:href="#DejaVuSans-53"/>
      </g>
     </g>
    </g>
    <g id="ytick_7">
     <g id="line2d_7">
      <path clip-path="url(#pa88fc61b4f)" d="M 50.780625 120.763801 
L 993.060625 120.763801 
" style="fill:none;stroke:#dedede;stroke-linecap:square;"/>
     </g>
     <g id="text_14">
      <!-- 0.150 -->
      <g transform="translate(20.878125 123.803176)scale(0.08 -0.08)">
       <use xlink:href="#DejaVuSans-48"/>
       <use x="63.623047" xlink:href="#DejaVuSans-46"/>
       <use x="95.410156" xlink:href="#DejaVuSans-49"/>
       <use x="159.033203" xlink:href="#DejaVuSans-53"/>
       <use x="222.65625" xlink:href="#DejaVuSans-48"/>
      </g>
     </g>
    </g>
    <g id="ytick_8">
     <g id="line2d_8">
      <path clip-path="url(#pa88fc61b4f)" d="M 50.780625 82.020451 
L 993.060625 82.020451 
" style="fill:none;stroke:#dedede;stroke-linecap:square;"/>
     </g>
     <g id="text_15">
      <!-- 0.175 -->
      <g transform="translate(20.878125 85.059826)scale(0.08 -0.08)">
       <use xlink:href="#DejaVuSans-48"/>
       <use x="63.623047" xlink:href="#DejaVuSans-46"/>
       <use x="95.410156" xlink:href="#DejaVuSans-49"/>
       <use x="159.033203" xlink:href="#DejaVuSans-55"/>
       <use x="222.65625" xlink:href="#DejaVuSans-53"/>
      </g>
     </g>
    </g>
    <g id="ytick_9">
     <g id="line2d_9">
      <path clip-path="url(#pa88fc61b4f)" d="M 50.780625 43.277101 
L 993.060625 43.277101 
" style="fill:none;stroke:#dedede;stroke-linecap:square;"/>
     </g>
     <g id="text_16">
      <!-- 0.200 -->
      <g transform="translate(20.878125 46.316476)scale(0.08 -0.08)">
       <use xlink:href="#DejaVuSans-48"/>
       <use x="63.623047" xlink:href="#DejaVuSans-46"/>
       <use x="95.410156" xlink:href="#DejaVuSans-50"/>
       <use x="159.033203" xlink:href="#DejaVuSans-48"/>
       <use x="222.65625" xlink:href="#DejaVuSans-48"/>
      </g>
     </g>
    </g>
    <g id="text_17">
     <!-- Percent mismatches % -->
     <defs>
      <path d="M 48.78125 52.59375 
L 48.78125 44.1875 
Q 44.96875 46.296875 41.140625 47.34375 
Q 37.3125 48.390625 33.40625 48.390625 
Q 24.65625 48.390625 19.8125 42.84375 
Q 14.984375 37.3125 14.984375 27.296875 
Q 14.984375 17.28125 19.8125 11.734375 
Q 24.65625 6.203125 33.40625 6.203125 
Q 37.3125 6.203125 41.140625 7.25 
Q 44.96875 8.296875 48.78125 10.40625 
L 48.78125 2.09375 
Q 45.015625 0.34375 40.984375 -0.53125 
Q 36.96875 -1.421875 32.421875 -1.421875 
Q 20.0625 -1.421875 12.78125 6.34375 
Q 5.515625 14.109375 5.515625 27.296875 
Q 5.515625 40.671875 12.859375 48.328125 
Q 20.21875 56 33.015625 56 
Q 37.15625 56 41.109375 55.140625 
Q 45.0625 54.296875 48.78125 52.59375 
z
" id="DejaVuSans-99"/>
      <path d="M 52 44.1875 
Q 55.375 50.25 60.0625 53.125 
Q 64.75 56 71.09375 56 
Q 79.640625 56 84.28125 50.015625 
Q 88.921875 44.046875 88.921875 33.015625 
L 88.921875 0 
L 79.890625 0 
L 79.890625 32.71875 
Q 79.890625 40.578125 77.09375 44.375 
Q 74.3125 48.1875 68.609375 48.1875 
Q 61.625 48.1875 57.5625 43.546875 
Q 53.515625 38.921875 53.515625 30.90625 
L 53.515625 0 
L 44.484375 0 
L 44.484375 32.71875 
Q 44.484375 40.625 41.703125 44.40625 
Q 38.921875 48.1875 33.109375 48.1875 
Q 26.21875 48.1875 22.15625 43.53125 
Q 18.109375 38.875 18.109375 30.90625 
L 18.109375 0 
L 9.078125 0 
L 9.078125 54.6875 
L 18.109375 54.6875 
L 18.109375 46.1875 
Q 21.1875 51.21875 25.484375 53.609375 
Q 29.78125 56 35.6875 56 
Q 41.65625 56 45.828125 52.96875 
Q 50 49.953125 52 44.1875 
z
" id="DejaVuSans-109"/>
      <path d="M 54.890625 33.015625 
L 54.890625 0 
L 45.90625 0 
L 45.90625 32.71875 
Q 45.90625 40.484375 42.875 44.328125 
Q 39.84375 48.1875 33.796875 48.1875 
Q 26.515625 48.1875 22.3125 43.546875 
Q 18.109375 38.921875 18.109375 30.90625 
L 18.109375 0 
L 9.078125 0 
L 9.078125 75.984375 
L 18.109375 75.984375 
L 18.109375 46.1875 
Q 21.34375 51.125 25.703125 53.5625 
Q 30.078125 56 35.796875 56 
Q 45.21875 56 50.046875 50.171875 
Q 54.890625 44.34375 54.890625 33.015625 
z
" id="DejaVuSans-104"/>
      <path d="M 72.703125 32.078125 
Q 68.453125 32.078125 66.03125 28.46875 
Q 63.625 24.859375 63.625 18.40625 
Q 63.625 12.0625 66.03125 8.421875 
Q 68.453125 4.78125 72.703125 4.78125 
Q 76.859375 4.78125 79.265625 8.421875 
Q 81.6875 12.0625 81.6875 18.40625 
Q 81.6875 24.8125 79.265625 28.4375 
Q 76.859375 32.078125 72.703125 32.078125 
z
M 72.703125 38.28125 
Q 80.421875 38.28125 84.953125 32.90625 
Q 89.5 27.546875 89.5 18.40625 
Q 89.5 9.28125 84.9375 3.921875 
Q 80.375 -1.421875 72.703125 -1.421875 
Q 64.890625 -1.421875 60.34375 3.921875 
Q 55.8125 9.28125 55.8125 18.40625 
Q 55.8125 27.59375 60.375 32.9375 
Q 64.9375 38.28125 72.703125 38.28125 
z
M 22.3125 68.015625 
Q 18.109375 68.015625 15.6875 64.375 
Q 13.28125 60.75 13.28125 54.390625 
Q 13.28125 47.953125 15.671875 44.328125 
Q 18.0625 40.71875 22.3125 40.71875 
Q 26.5625 40.71875 28.96875 44.328125 
Q 31.390625 47.953125 31.390625 54.390625 
Q 31.390625 60.6875 28.953125 64.34375 
Q 26.515625 68.015625 22.3125 68.015625 
z
M 66.40625 74.21875 
L 74.21875 74.21875 
L 28.609375 -1.421875 
L 20.796875 -1.421875 
z
M 22.3125 74.21875 
Q 30.03125 74.21875 34.609375 68.875 
Q 39.203125 63.53125 39.203125 54.390625 
Q 39.203125 45.171875 34.640625 39.84375 
Q 30.078125 34.515625 22.3125 34.515625 
Q 14.546875 34.515625 10.03125 39.859375 
Q 5.515625 45.21875 5.515625 54.390625 
Q 5.515625 63.484375 10.046875 68.84375 
Q 14.59375 74.21875 22.3125 74.21875 
z
" id="DejaVuSans-37"/>
     </defs>
     <g transform="translate(14.798438 251.624275)rotate(-90)scale(0.1 -0.1)">
      <use xlink:href="#DejaVuSans-80"/>
      <use x="60.255859" xlink:href="#DejaVuSans-101"/>
      <use x="121.779297" xlink:href="#DejaVuSans-114"/>
      <use x="162.861328" xlink:href="#DejaVuSans-99"/>
      <use x="217.841797" xlink:href="#DejaVuSans-101"/>
      <use x="279.365234" xlink:href="#DejaVuSans-110"/>
      <use x="342.744141" xlink:href="#DejaVuSans-116"/>
      <use x="381.953125" xlink:href="#DejaVuSans-32"/>
      <use x="413.740234" xlink:href="#DejaVuSans-109"/>
      <use x="511.152344" xlink:href="#DejaVuSans-105"/>
      <use x="538.935547" xlink:href="#DejaVuSans-115"/>
      <use x="591.035156" xlink:href="#DejaVuSans-109"/>
      <use x="688.447266" xlink:href="#DejaVuSans-97"/>
      <use x="749.726562" xlink:href="#DejaVuSans-116"/>
      <use x="788.935547" xlink:href="#DejaVuSans-99"/>
      <use x="843.916016" xlink:href="#DejaVuSans-104"/>
      <use x="907.294922" xlink:href="#DejaVuSans-101"/>
      <use x="968.818359" xlink:href="#DejaVuSans-115"/>
      <use x="1020.917969" xlink:href="#DejaVuSans-32"/>
      <use x="1052.705078" xlink:href="#DejaVuSans-37"/>
     </g>
    </g>
   </g>
   <g id="line2d_10">
    <path clip-path="url(#pa88fc61b4f)" d="M 93.611534 353.2239 
L 102.264243 314.171638 
L 110.916952 128.258642 
L 119.569661 94.433537 
L 128.22237 111.155173 
L 136.875079 121.438321 
L 145.527788 105.177518 
L 154.180496 127.573977 
L 162.833205 133.867632 
L 171.485914 138.436457 
L 180.138623 142.860449 
L 188.791332 143.676781 
L 197.444041 148.653772 
L 206.09675 149.890728 
L 214.749459 169.929338 
L 223.402168 174.508807 
L 232.054877 198.541536 
L 240.707586 209.527373 
L 249.360294 199.994953 
L 258.013003 186.519769 
L 266.665712 162.211827 
L 275.318421 143.376365 
L 283.97113 158.86877 
L 292.623839 126.543383 
L 301.276548 144.246449 
L 309.929257 152.585642 
L 318.581966 154.539818 
L 327.234675 131.897967 
L 335.887383 139.633285 
L 344.540092 135.207079 
L 353.192801 120.044266 
L 361.84551 135.0486 
L 370.498219 116.169345 
L 379.150928 135.314691 
L 387.803637 311.77419 
L 396.456346 353.2239 
L 405.109055 353.2239 
L 413.761764 353.2239 
L 422.414473 353.2239 
L 431.067181 353.2239 
L 439.71989 353.2239 
L 448.372599 353.2239 
L 457.025308 353.2239 
L 465.678017 353.2239 
L 474.330726 353.2239 
L 482.983435 353.2239 
L 491.636144 353.2239 
L 500.288853 353.2239 
L 508.941562 353.2239 
L 517.594271 353.2239 
L 526.246979 353.2239 
L 534.899688 353.2239 
L 543.552397 353.2239 
L 552.205106 353.2239 
L 560.857815 353.2239 
L 569.510524 353.2239 
L 578.163233 353.2239 
L 586.815942 353.2239 
L 595.468651 353.2239 
L 604.12136 353.2239 
L 612.774069 353.2239 
L 621.426777 353.2239 
L 630.079486 353.2239 
L 638.732195 353.2239 
L 647.384904 353.2239 
L 656.037613 353.2239 
L 664.690322 353.2239 
L 673.343031 353.2239 
L 681.99574 353.2239 
L 690.648449 353.2239 
L 699.301158 353.2239 
L 707.953867 353.2239 
L 716.606575 353.2239 
L 725.259284 353.2239 
L 733.911993 353.2239 
L 742.564702 353.2239 
L 751.217411 353.2239 
L 759.87012 353.2239 
L 768.522829 353.2239 
L 777.175538 353.2239 
L 785.828247 353.2239 
L 794.480956 353.2239 
L 803.133664 353.2239 
L 811.786373 353.2239 
L 820.439082 353.2239 
L 829.091791 353.2239 
L 837.7445 353.2239 
L 846.397209 353.2239 
L 855.049918 353.2239 
L 863.702627 353.2239 
L 872.355336 353.2239 
L 881.008045 353.2239 
L 889.660754 353.2239 
L 898.313462 353.2239 
L 906.966171 353.2239 
L 915.61888 353.2239 
L 924.271589 353.2239 
L 932.924298 353.2239 
L 941.577007 353.2239 
L 950.229716 353.2239 
" style="fill:none;stroke:#7cb5ec;stroke-linecap:square;"/>
   </g>
   <g id="line2d_11">
    <path clip-path="url(#pa88fc61b4f)" d="M 93.611534 353.2239 
L 102.264243 317.870662 
L 110.916952 130.340164 
L 119.569661 95.213123 
L 128.22237 109.104271 
L 136.875079 119.575855 
L 145.527788 107.068499 
L 154.180496 126.627874 
L 162.833205 138.057468 
L 171.485914 135.183438 
L 180.138623 143.925281 
L 188.791332 146.67956 
L 197.444041 149.473757 
L 206.09675 152.320641 
L 214.749459 166.623182 
L 223.402168 174.364693 
L 232.054877 199.609701 
L 240.707586 207.810747 
L 249.360294 197.36626 
L 258.013003 181.937453 
L 266.665712 161.85957 
L 275.318421 147.765393 
L 283.97113 156.565682 
L 292.623839 123.779746 
L 301.276548 142.375321 
L 309.929257 155.157615 
L 318.581966 150.084419 
L 327.234675 135.400276 
L 335.887383 133.36723 
L 344.540092 135.626466 
L 353.192801 121.293883 
L 361.84551 134.223145 
L 370.498219 117.654466 
L 379.150928 141.179442 
L 387.803637 312.095133 
L 396.456346 353.2239 
L 405.109055 353.2239 
L 413.761764 353.2239 
L 422.414473 353.2239 
L 431.067181 353.2239 
L 439.71989 353.2239 
L 448.372599 353.2239 
L 457.025308 353.2239 
L 465.678017 353.2239 
L 474.330726 353.2239 
L 482.983435 353.2239 
L 491.636144 353.2239 
L 500.288853 353.2239 
L 508.941562 353.2239 
L 517.594271 353.2239 
L 526.246979 353.2239 
L 534.899688 353.2239 
L 543.552397 353.2239 
L 552.205106 353.2239 
L 560.857815 353.2239 
L 569.510524 353.2239 
L 578.163233 353.2239 
L 586.815942 353.2239 
L 595.468651 353.2239 
L 604.12136 353.2239 
L 612.774069 353.2239 
L 621.426777 353.2239 
L 630.079486 353.2239 
L 638.732195 353.2239 
L 647.384904 353.2239 
L 656.037613 353.2239 
L 664.690322 353.2239 
L 673.343031 353.2239 
L 681.99574 353.2239 
L 690.648449 353.2239 
L 699.301158 353.2239 
L 707.953867 353.2239 
L 716.606575 353.2239 
L 725.259284 353.2239 
L 733.911993 353.2239 
L 742.564702 353.2239 
L 751.217411 353.2239 
L 759.87012 353.2239 
L 768.522829 353.2239 
L 777.175538 353.2239 
L 785.828247 353.2239 
L 794.480956 353.2239 
L 803.133664 353.2239 
L 811.786373 353.2239 
L 820.439082 353.2239 
L 829.091791 353.2239 
L 837.7445 353.2239 
L 846.397209 353.2239 
L 855.049918 353.2239 
L 863.702627 353.2239 
L 872.355336 353.2239 
L 881.008045 353.2239 
L 889.660754 353.2239 
L 898.313462 353.2239 
L 906.966171 353.2239 
L 915.61888 353.2239 
L 924.271589 353.2239 
L 932.924298 353.2239 
L 941.577007 353.2239 
L 950.229716 353.2239 
" style="fill:none;stroke:#434348;stroke-linecap:square;"/>
   </g>
   <g id="line2d_12">
    <path clip-path="url(#pa88fc61b4f)" d="M 93.611534 353.2239 
L 102.264243 319.591104 
L 110.916952 132.688849 
L 119.569661 97.694725 
L 128.22237 111.094459 
L 136.875079 125.695363 
L 145.527788 109.960019 
L 154.180496 126.389373 
L 162.833205 141.817751 
L 171.485914 137.867232 
L 180.138623 144.23344 
L 188.791332 150.212604 
L 197.444041 154.470089 
L 206.09675 157.005287 
L 214.749459 170.297061 
L 223.402168 174.245076 
L 232.054877 194.468713 
L 240.707586 209.421961 
L 249.360294 200.547679 
L 258.013003 181.973487 
L 266.665712 163.850485 
L 275.318421 144.771513 
L 283.97113 157.605221 
L 292.623839 120.334174 
L 301.276548 147.615408 
L 309.929257 154.851804 
L 318.581966 151.553628 
L 327.234675 136.649838 
L 335.887383 139.664619 
L 344.540092 136.354859 
L 353.192801 122.844116 
L 361.84551 136.510136 
L 370.498219 121.423186 
L 379.150928 145.06052 
L 387.803637 312.760252 
L 396.456346 353.2239 
L 405.109055 353.2239 
L 413.761764 353.2239 
L 422.414473 353.2239 
L 431.067181 353.2239 
L 439.71989 353.2239 
L 448.372599 353.2239 
L 457.025308 353.2239 
L 465.678017 353.2239 
L 474.330726 353.2239 
L 482.983435 353.2239 
L 491.636144 353.2239 
L 500.288853 353.2239 
L 508.941562 353.2239 
L 517.594271 353.2239 
L 526.246979 353.2239 
L 534.899688 353.2239 
L 543.552397 353.2239 
L 552.205106 353.2239 
L 560.857815 353.2239 
L 569.510524 353.2239 
L 578.163233 353.2239 
L 586.815942 353.2239 
L 595.468651 353.2239 
L 604.12136 353.2239 
L 612.774069 353.2239 
L 621.426777 353.2239 
L 630.079486 353.2239 
L 638.732195 353.2239 
L 647.384904 353.2239 
L 656.037613 353.2239 
L 664.690322 353.2239 
L 673.343031 353.2239 
L 681.99574 353.2239 
L 690.648449 353.2239 
L 699.301158 353.2239 
L 707.953867 353.2239 
L 716.606575 353.2239 
L 725.259284 353.2239 
L 733.911993 353.2239 
L 742.564702 353.2239 
L 751.217411 353.2239 
L 759.87012 353.2239 
L 768.522829 353.2239 
L 777.175538 353.2239 
L 785.828247 353.2239 
L 794.480956 353.2239 
L 803.133664 353.2239 
L 811.786373 353.2239 
L 820.439082 353.2239 
L 829.091791 353.2239 
L 837.7445 353.2239 
L 846.397209 353.2239 
L 855.049918 353.2239 
L 863.702627 353.2239 
L 872.355336 353.2239 
L 881.008045 353.2239 
L 889.660754 353.2239 
L 898.313462 353.2239 
L 906.966171 353.2239 
L 915.61888 353.2239 
L 924.271589 353.2239 
L 932.924298 353.2239 
L 941.577007 353.2239 
L 950.229716 353.2239 
" style="fill:none;stroke:#90ed7d;stroke-linecap:square;"/>
   </g>
   <g id="line2d_13">
    <path clip-path="url(#pa88fc61b4f)" d="M 93.611534 353.2239 
L 102.264243 317.704924 
L 110.916952 127.502714 
L 119.569661 93.168142 
L 128.22237 106.117632 
L 136.875079 123.067777 
L 145.527788 110.539409 
L 154.180496 127.436914 
L 162.833205 135.267144 
L 171.485914 137.688593 
L 180.138623 145.374063 
L 188.791332 147.650751 
L 197.444041 151.230285 
L 206.09675 158.151809 
L 214.749459 168.704779 
L 223.402168 175.782148 
L 232.054877 196.183668 
L 240.707586 211.308929 
L 249.360294 198.699961 
L 258.013003 185.282479 
L 266.665712 160.72369 
L 275.318421 149.560331 
L 283.97113 155.656717 
L 292.623839 123.700628 
L 301.276548 146.124711 
L 309.929257 156.526332 
L 318.581966 153.153914 
L 327.234675 133.564946 
L 335.887383 140.228097 
L 344.540092 135.762992 
L 353.192801 118.3766 
L 361.84551 135.805274 
L 370.498219 122.453831 
L 379.150928 139.311684 
L 387.803637 312.624229 
L 396.456346 353.2239 
L 405.109055 353.2239 
L 413.761764 353.2239 
L 422.414473 353.2239 
L 431.067181 353.2239 
L 439.71989 353.2239 
L 448.372599 353.2239 
L 457.025308 353.2239 
L 465.678017 353.2239 
L 474.330726 353.2239 
L 482.983435 353.2239 
L 491.636144 353.2239 
L 500.288853 353.2239 
L 508.941562 353.2239 
L 517.594271 353.2239 
L 526.246979 353.2239 
L 534.899688 353.2239 
L 543.552397 353.2239 
L 552.205106 353.2239 
L 560.857815 353.2239 
L 569.510524 353.2239 
L 578.163233 353.2239 
L 586.815942 353.2239 
L 595.468651 353.2239 
L 604.12136 353.2239 
L 612.774069 353.2239 
L 621.426777 353.2239 
L 630.079486 353.2239 
L 638.732195 353.2239 
L 647.384904 353.2239 
L 656.037613 353.2239 
L 664.690322 353.2239 
L 673.343031 353.2239 
L 681.99574 353.2239 
L 690.648449 353.2239 
L 699.301158 353.2239 
L 707.953867 353.2239 
L 716.606575 353.2239 
L 725.259284 353.2239 
L 733.911993 353.2239 
L 742.564702 353.2239 
L 751.217411 353.2239 
L 759.87012 353.2239 
L 768.522829 353.2239 
L 777.175538 353.2239 
L 785.828247 353.2239 
L 794.480956 353.2239 
L 803.133664 353.2239 
L 811.786373 353.2239 
L 820.439082 353.2239 
L 829.091791 353.2239 
L 837.7445 353.2239 
L 846.397209 353.2239 
L 855.049918 353.2239 
L 863.702627 353.2239 
L 872.355336 353.2239 
L 881.008045 353.2239 
L 889.660754 353.2239 
L 898.313462 353.2239 
L 906.966171 353.2239 
L 915.61888 353.2239 
L 924.271589 353.2239 
L 932.924298 353.2239 
L 941.577007 353.2239 
L 950.229716 353.2239 
" style="fill:none;stroke:#f7a35c;stroke-linecap:square;"/>
   </g>
   <g id="line2d_14">
    <path clip-path="url(#pa88fc61b4f)" d="M 93.611534 353.2239 
L 102.264243 326.552448 
L 110.916952 123.975009 
L 119.569661 86.296103 
L 128.22237 116.391833 
L 136.875079 109.116724 
L 145.527788 90.537942 
L 154.180496 112.872766 
L 162.833205 118.99855 
L 171.485914 114.827803 
L 180.138623 133.963474 
L 188.791332 129.697937 
L 197.444041 110.633359 
L 206.09675 84.00852 
L 214.749459 141.663228 
L 223.402168 146.813393 
L 232.054877 169.75338 
L 240.707586 196.154007 
L 249.360294 190.652924 
L 258.013003 160.836857 
L 266.665712 124.564188 
L 275.318421 135.655099 
L 283.97113 136.769293 
L 292.623839 111.874284 
L 301.276548 118.258078 
L 309.929257 131.564847 
L 318.581966 127.687935 
L 327.234675 111.864318 
L 335.887383 125.390514 
L 344.540092 102.957933 
L 353.192801 91.538676 
L 361.84551 125.607071 
L 370.498219 111.800035 
L 379.150928 120.019632 
L 387.803637 323.25489 
L 396.456346 353.2239 
L 405.109055 353.2239 
L 413.761764 353.2239 
L 422.414473 353.2239 
L 431.067181 353.2239 
L 439.71989 353.2239 
L 448.372599 353.2239 
L 457.025308 353.2239 
L 465.678017 353.2239 
L 474.330726 353.2239 
L 482.983435 353.2239 
L 491.636144 353.2239 
L 500.288853 353.2239 
L 508.941562 353.2239 
L 517.594271 353.2239 
L 526.246979 353.2239 
L 534.899688 353.2239 
L 543.552397 353.2239 
L 552.205106 353.2239 
L 560.857815 353.2239 
L 569.510524 353.2239 
L 578.163233 353.2239 
L 586.815942 353.2239 
L 595.468651 353.2239 
L 604.12136 353.2239 
L 612.774069 353.2239 
L 621.426777 353.2239 
L 630.079486 353.2239 
L 638.732195 353.2239 
L 647.384904 353.2239 
L 656.037613 353.2239 
L 664.690322 353.2239 
L 673.343031 353.2239 
L 681.99574 353.2239 
L 690.648449 353.2239 
L 699.301158 353.2239 
L 707.953867 353.2239 
L 716.606575 353.2239 
L 725.259284 353.2239 
L 733.911993 353.2239 
L 742.564702 353.2239 
L 751.217411 353.2239 
L 759.87012 353.2239 
L 768.522829 353.2239 
L 777.175538 353.2239 
L 785.828247 353.2239 
L 794.480956 353.2239 
L 803.133664 353.2239 
L 811.786373 353.2239 
L 820.439082 353.2239 
L 829.091791 353.2239 
L 837.7445 353.2239 
L 846.397209 353.2239 
L 855.049918 353.2239 
L 863.702627 353.2239 
L 872.355336 353.2239 
L 881.008045 353.2239 
L 889.660754 353.2239 
L 898.313462 353.2239 
L 906.966171 353.2239 
L 915.61888 353.2239 
L 924.271589 353.2239 
L 932.924298 353.2239 
L 941.577007 353.2239 
L 950.229716 353.2239 
" style="fill:none;stroke:#8085e9;stroke-linecap:square;"/>
   </g>
   <g id="line2d_15">
    <path clip-path="url(#pa88fc61b4f)" d="M 93.611534 353.2239 
L 102.264243 317.019422 
L 110.916952 109.558078 
L 119.569661 80.190649 
L 128.22237 87.039506 
L 136.875079 104.208884 
L 145.527788 72.952115 
L 154.180496 80.273307 
L 162.833205 87.5945 
L 171.485914 96.02568 
L 180.138623 114.198769 
L 188.791332 104.870153 
L 197.444041 81.99733 
L 206.09675 62.099242 
L 214.749459 110.040127 
L 223.402168 139.569807 
L 232.054877 146.324818 
L 240.707586 172.942019 
L 249.360294 171.073542 
L 258.013003 145.942144 
L 266.665712 104.406376 
L 275.318421 121.10538 
L 283.97113 133.616416 
L 292.623839 96.099476 
L 301.276548 84.265644 
L 309.929257 100.694701 
L 318.581966 106.277901 
L 327.234675 100.550509 
L 335.887383 104.69541 
L 344.540092 89.002415 
L 353.192801 77.715234 
L 361.84551 113.077319 
L 370.498219 90.868719 
L 379.150928 109.151471 
L 387.803637 312.78966 
L 396.456346 353.2239 
L 405.109055 353.2239 
L 413.761764 353.2239 
L 422.414473 353.2239 
L 431.067181 353.2239 
L 439.71989 353.2239 
L 448.372599 353.2239 
L 457.025308 353.2239 
L 465.678017 353.2239 
L 474.330726 353.2239 
L 482.983435 353.2239 
L 491.636144 353.2239 
L 500.288853 353.2239 
L 508.941562 353.2239 
L 517.594271 353.2239 
L 526.246979 353.2239 
L 534.899688 353.2239 
L 543.552397 353.2239 
L 552.205106 353.2239 
L 560.857815 353.2239 
L 569.510524 353.2239 
L 578.163233 353.2239 
L 586.815942 353.2239 
L 595.468651 353.2239 
L 604.12136 353.2239 
L 612.774069 353.2239 
L 621.426777 353.2239 
L 630.079486 353.2239 
L 638.732195 353.2239 
L 647.384904 353.2239 
L 656.037613 353.2239 
L 664.690322 353.2239 
L 673.343031 353.2239 
L 681.99574 353.2239 
L 690.648449 353.2239 
L 699.301158 353.2239 
L 707.953867 353.2239 
L 716.606575 353.2239 
L 725.259284 353.2239 
L 733.911993 353.2239 
L 742.564702 353.2239 
L 751.217411 353.2239 
L 759.87012 353.2239 
L 768.522829 353.2239 
L 777.175538 353.2239 
L 785.828247 353.2239 
L 794.480956 353.2239 
L 803.133664 353.2239 
L 811.786373 353.2239 
L 820.439082 353.2239 
L 829.091791 353.2239 
L 837.7445 353.2239 
L 846.397209 353.2239 
L 855.049918 353.2239 
L 863.702627 353.2239 
L 872.355336 353.2239 
L 881.008045 353.2239 
L 889.660754 353.2239 
L 898.313462 353.2239 
L 906.966171 353.2239 
L 915.61888 353.2239 
L 924.271589 353.2239 
L 932.924298 353.2239 
L 941.577007 353.2239 
L 950.229716 353.2239 
" style="fill:none;stroke:#f15c80;stroke-linecap:square;"/>
   </g>
   <g id="line2d_16">
    <path clip-path="url(#pa88fc61b4f)" d="M 93.611534 353.2239 
L 102.264243 315.792585 
L 110.916952 110.116875 
L 119.569661 73.760641 
L 128.22237 97.239023 
L 136.875079 104.57963 
L 145.527788 79.436607 
L 154.180496 89.644096 
L 162.833205 97.134983 
L 171.485914 101.446867 
L 180.138623 118.393843 
L 188.791332 110.579275 
L 197.444041 87.019974 
L 206.09675 62.326727 
L 214.749459 111.501227 
L 223.402168 142.478758 
L 232.054877 151.078883 
L 240.707586 172.41746 
L 249.360294 177.780226 
L 258.013003 156.761092 
L 266.665712 123.511051 
L 275.318421 119.918772 
L 283.97113 135.521719 
L 292.623839 106.626726 
L 301.276548 86.617746 
L 309.929257 108.23469 
L 318.581966 114.019155 
L 327.234675 103.507184 
L 335.887383 109.793322 
L 344.540092 91.823365 
L 353.192801 74.674396 
L 361.84551 113.10784 
L 370.498219 87.289626 
L 379.150928 101.414424 
L 387.803637 309.29948 
L 396.456346 353.2239 
L 405.109055 353.2239 
L 413.761764 353.2239 
L 422.414473 353.2239 
L 431.067181 353.2239 
L 439.71989 353.2239 
L 448.372599 353.2239 
L 457.025308 353.2239 
L 465.678017 353.2239 
L 474.330726 353.2239 
L 482.983435 353.2239 
L 491.636144 353.2239 
L 500.288853 353.2239 
L 508.941562 353.2239 
L 517.594271 353.2239 
L 526.246979 353.2239 
L 534.899688 353.2239 
L 543.552397 353.2239 
L 552.205106 353.2239 
L 560.857815 353.2239 
L 569.510524 353.2239 
L 578.163233 353.2239 
L 586.815942 353.2239 
L 595.468651 353.2239 
L 604.12136 353.2239 
L 612.774069 353.2239 
L 621.426777 353.2239 
L 630.079486 353.2239 
L 638.732195 353.2239 
L 647.384904 353.2239 
L 656.037613 353.2239 
L 664.690322 353.2239 
L 673.343031 353.2239 
L 681.99574 353.2239 
L 690.648449 353.2239 
L 699.301158 353.2239 
L 707.953867 353.2239 
L 716.606575 353.2239 
L 725.259284 353.2239 
L 733.911993 353.2239 
L 742.564702 353.2239 
L 751.217411 353.2239 
L 759.87012 353.2239 
L 768.522829 353.2239 
L 777.175538 353.2239 
L 785.828247 353.2239 
L 794.480956 353.2239 
L 803.133664 353.2239 
L 811.786373 353.2239 
L 820.439082 353.2239 
L 829.091791 353.2239 
L 837.7445 353.2239 
L 846.397209 353.2239 
L 855.049918 353.2239 
L 863.702627 353.2239 
L 872.355336 353.2239 
L 881.008045 353.2239 
L 889.660754 353.2239 
L 898.313462 353.2239 
L 906.966171 353.2239 
L 915.61888 353.2239 
L 924.271589 353.2239 
L 932.924298 353.2239 
L 941.577007 353.2239 
L 950.229716 353.2239 
" style="fill:none;stroke:#e4d354;stroke-linecap:square;"/>
   </g>
   <g id="line2d_17">
    <path clip-path="url(#pa88fc61b4f)" d="M 93.611534 353.2239 
L 102.264243 314.492441 
L 110.916952 98.20741 
L 119.569661 79.349104 
L 128.22237 95.452826 
L 136.875079 103.41547 
L 145.527788 79.784038 
L 154.180496 87.969725 
L 162.833205 91.683395 
L 171.485914 103.995382 
L 180.138623 109.76105 
L 188.791332 109.560311 
L 197.444041 75.601977 
L 206.09675 52.594332 
L 214.749459 103.95945 
L 223.402168 136.899092 
L 232.054877 141.726319 
L 240.707586 166.09262 
L 249.360294 164.502908 
L 258.013003 158.625963 
L 266.665712 118.402178 
L 275.318421 120.245631 
L 283.97113 136.756973 
L 292.623839 107.257961 
L 301.276548 77.454031 
L 309.929257 100.792793 
L 318.581966 111.908668 
L 327.234675 103.044473 
L 335.887383 106.946255 
L 344.540092 80.419254 
L 353.192801 72.059962 
L 361.84551 100.685648 
L 370.498219 82.362975 
L 379.150928 103.768559 
L 387.803637 308.988463 
L 396.456346 353.2239 
L 405.109055 353.2239 
L 413.761764 353.2239 
L 422.414473 353.2239 
L 431.067181 353.2239 
L 439.71989 353.2239 
L 448.372599 353.2239 
L 457.025308 353.2239 
L 465.678017 353.2239 
L 474.330726 353.2239 
L 482.983435 353.2239 
L 491.636144 353.2239 
L 500.288853 353.2239 
L 508.941562 353.2239 
L 517.594271 353.2239 
L 526.246979 353.2239 
L 534.899688 353.2239 
L 543.552397 353.2239 
L 552.205106 353.2239 
L 560.857815 353.2239 
L 569.510524 353.2239 
L 578.163233 353.2239 
L 586.815942 353.2239 
L 595.468651 353.2239 
L 604.12136 353.2239 
L 612.774069 353.2239 
L 621.426777 353.2239 
L 630.079486 353.2239 
L 638.732195 353.2239 
L 647.384904 353.2239 
L 656.037613 353.2239 
L 664.690322 353.2239 
L 673.343031 353.2239 
L 681.99574 353.2239 
L 690.648449 353.2239 
L 699.301158 353.2239 
L 707.953867 353.2239 
L 716.606575 353.2239 
L 725.259284 353.2239 
L 733.911993 353.2239 
L 742.564702 353.2239 
L 751.217411 353.2239 
L 759.87012 353.2239 
L 768.522829 353.2239 
L 777.175538 353.2239 
L 785.828247 353.2239 
L 794.480956 353.2239 
L 803.133664 353.2239 
L 811.786373 353.2239 
L 820.439082 353.2239 
L 829.091791 353.2239 
L 837.7445 353.2239 
L 846.397209 353.2239 
L 855.049918 353.2239 
L 863.702627 353.2239 
L 872.355336 353.2239 
L 881.008045 353.2239 
L 889.660754 353.2239 
L 898.313462 353.2239 
L 906.966171 353.2239 
L 915.61888 353.2239 
L 924.271589 353.2239 
L 932.924298 353.2239 
L 941.577007 353.2239 
L 950.229716 353.2239 
" style="fill:none;stroke:#2b908f;stroke-linecap:square;"/>
   </g>
   <g id="line2d_18">
    <path clip-path="url(#pa88fc61b4f)" d="M 93.611534 353.2239 
L 102.264243 315.85288 
L 110.916952 101.749784 
L 119.569661 74.455029 
L 128.22237 99.949616 
L 136.875079 101.223761 
L 145.527788 80.393245 
L 154.180496 83.713036 
L 162.833205 89.522669 
L 171.485914 105.104642 
L 180.138623 114.92374 
L 188.791332 115.204286 
L 197.444041 79.224305 
L 206.09675 50.397233 
L 214.749459 108.153118 
L 223.402168 130.581578 
L 232.054877 140.014758 
L 240.707586 159.838627 
L 249.360294 160.477373 
L 258.013003 154.060066 
L 266.665712 108.298516 
L 275.318421 119.518281 
L 283.97113 138.279213 
L 292.623839 104.837274 
L 301.276548 74.901261 
L 309.929257 99.58217 
L 318.581966 114.248598 
L 327.234675 104.639352 
L 335.887383 111.59436 
L 344.540092 84.027809 
L 353.192801 70.356395 
L 361.84551 103.193502 
L 370.498219 82.57592 
L 379.150928 107.142531 
L 387.803637 311.050702 
L 396.456346 353.2239 
L 405.109055 353.2239 
L 413.761764 353.2239 
L 422.414473 353.2239 
L 431.067181 353.2239 
L 439.71989 353.2239 
L 448.372599 353.2239 
L 457.025308 353.2239 
L 465.678017 353.2239 
L 474.330726 353.2239 
L 482.983435 353.2239 
L 491.636144 353.2239 
L 500.288853 353.2239 
L 508.941562 353.2239 
L 517.594271 353.2239 
L 526.246979 353.2239 
L 534.899688 353.2239 
L 543.552397 353.2239 
L 552.205106 353.2239 
L 560.857815 353.2239 
L 569.510524 353.2239 
L 578.163233 353.2239 
L 586.815942 353.2239 
L 595.468651 353.2239 
L 604.12136 353.2239 
L 612.774069 353.2239 
L 621.426777 353.2239 
L 630.079486 353.2239 
L 638.732195 353.2239 
L 647.384904 353.2239 
L 656.037613 353.2239 
L 664.690322 353.2239 
L 673.343031 353.2239 
L 681.99574 353.2239 
L 690.648449 353.2239 
L 699.301158 353.2239 
L 707.953867 353.2239 
L 716.606575 353.2239 
L 725.259284 353.2239 
L 733.911993 353.2239 
L 742.564702 353.2239 
L 751.217411 353.2239 
L 759.87012 353.2239 
L 768.522829 353.2239 
L 777.175538 353.2239 
L 785.828247 353.2239 
L 794.480956 353.2239 
L 803.133664 353.2239 
L 811.786373 353.2239 
L 820.439082 353.2239 
L 829.091791 353.2239 
L 837.7445 353.2239 
L 846.397209 353.2239 
L 855.049918 353.2239 
L 863.702627 353.2239 
L 872.355336 353.2239 
L 881.008045 353.2239 
L 889.660754 353.2239 
L 898.313462 353.2239 
L 906.966171 353.2239 
L 915.61888 353.2239 
L 924.271589 353.2239 
L 932.924298 353.2239 
L 941.577007 353.2239 
L 950.229716 353.2239 
" style="fill:none;stroke:#f45b5b;stroke-linecap:square;"/>
   </g>
   <g id="line2d_19">
    <path clip-path="url(#pa88fc61b4f)" d="M 93.611534 353.2239 
L 102.264243 315.090565 
L 110.916952 104.99178 
L 119.569661 74.642889 
L 128.22237 98.112234 
L 136.875079 104.191293 
L 145.527788 84.097914 
L 154.180496 92.056377 
L 162.833205 90.617821 
L 171.485914 102.659927 
L 180.138623 118.588455 
L 188.791332 118.043196 
L 197.444041 83.297428 
L 206.09675 59.14275 
L 214.749459 112.819948 
L 223.402168 136.285105 
L 232.054877 144.937907 
L 240.707586 169.857784 
L 249.360294 167.137118 
L 258.013003 159.271514 
L 266.665712 125.900333 
L 275.318421 124.140225 
L 283.97113 141.932557 
L 292.623839 111.702076 
L 301.276548 83.267573 
L 309.929257 107.725383 
L 318.581966 114.332938 
L 327.234675 107.685986 
L 335.887383 112.143587 
L 344.540092 84.718555 
L 353.192801 72.806258 
L 361.84551 106.621195 
L 370.498219 83.761768 
L 379.150928 105.130613 
L 387.803637 311.363301 
L 396.456346 353.2239 
L 405.109055 353.2239 
L 413.761764 353.2239 
L 422.414473 353.2239 
L 431.067181 353.2239 
L 439.71989 353.2239 
L 448.372599 353.2239 
L 457.025308 353.2239 
L 465.678017 353.2239 
L 474.330726 353.2239 
L 482.983435 353.2239 
L 491.636144 353.2239 
L 500.288853 353.2239 
L 508.941562 353.2239 
L 517.594271 353.2239 
L 526.246979 353.2239 
L 534.899688 353.2239 
L 543.552397 353.2239 
L 552.205106 353.2239 
L 560.857815 353.2239 
L 569.510524 353.2239 
L 578.163233 353.2239 
L 586.815942 353.2239 
L 595.468651 353.2239 
L 604.12136 353.2239 
L 612.774069 353.2239 
L 621.426777 353.2239 
L 630.079486 353.2239 
L 638.732195 353.2239 
L 647.384904 353.2239 
L 656.037613 353.2239 
L 664.690322 353.2239 
L 673.343031 353.2239 
L 681.99574 353.2239 
L 690.648449 353.2239 
L 699.301158 353.2239 
L 707.953867 353.2239 
L 716.606575 353.2239 
L 725.259284 353.2239 
L 733.911993 353.2239 
L 742.564702 353.2239 
L 751.217411 353.2239 
L 759.87012 353.2239 
L 768.522829 353.2239 
L 777.175538 353.2239 
L 785.828247 353.2239 
L 794.480956 353.2239 
L 803.133664 353.2239 
L 811.786373 353.2239 
L 820.439082 353.2239 
L 829.091791 353.2239 
L 837.7445 353.2239 
L 846.397209 353.2239 
L 855.049918 353.2239 
L 863.702627 353.2239 
L 872.355336 353.2239 
L 881.008045 353.2239 
L 889.660754 353.2239 
L 898.313462 353.2239 
L 906.966171 353.2239 
L 915.61888 353.2239 
L 924.271589 353.2239 
L 932.924298 353.2239 
L 941.577007 353.2239 
L 950.229716 353.2239 
" style="fill:none;stroke:#91e8e1;stroke-linecap:square;"/>
   </g>
   <g id="line2d_20">
    <path clip-path="url(#pa88fc61b4f)" d="M 93.611534 353.2239 
L 102.264243 316.529991 
L 110.916952 135.642852 
L 119.569661 103.982003 
L 128.22237 119.344695 
L 136.875079 122.137912 
L 145.527788 110.912343 
L 154.180496 132.269911 
L 162.833205 143.113389 
L 171.485914 144.536349 
L 180.138623 148.041045 
L 188.791332 153.113632 
L 197.444041 159.885865 
L 206.09675 161.940633 
L 214.749459 173.283473 
L 223.402168 185.521167 
L 232.054877 203.880118 
L 240.707586 213.753545 
L 249.360294 204.820725 
L 258.013003 188.370443 
L 266.665712 171.059064 
L 275.318421 153.040713 
L 283.97113 160.290887 
L 292.623839 132.359461 
L 301.276548 149.125517 
L 309.929257 162.534453 
L 318.581966 155.822247 
L 327.234675 133.731977 
L 335.887383 142.422862 
L 344.540092 137.057324 
L 353.192801 122.528549 
L 361.84551 141.103685 
L 370.498219 128.342839 
L 379.150928 143.506066 
L 387.803637 311.921132 
L 396.456346 353.2239 
L 405.109055 353.2239 
L 413.761764 353.2239 
L 422.414473 353.2239 
L 431.067181 353.2239 
L 439.71989 353.2239 
L 448.372599 353.2239 
L 457.025308 353.2239 
L 465.678017 353.2239 
L 474.330726 353.2239 
L 482.983435 353.2239 
L 491.636144 353.2239 
L 500.288853 353.2239 
L 508.941562 353.2239 
L 517.594271 353.2239 
L 526.246979 353.2239 
L 534.899688 353.2239 
L 543.552397 353.2239 
L 552.205106 353.2239 
L 560.857815 353.2239 
L 569.510524 353.2239 
L 578.163233 353.2239 
L 586.815942 353.2239 
L 595.468651 353.2239 
L 604.12136 353.2239 
L 612.774069 353.2239 
L 621.426777 353.2239 
L 630.079486 353.2239 
L 638.732195 353.2239 
L 647.384904 353.2239 
L 656.037613 353.2239 
L 664.690322 353.2239 
L 673.343031 353.2239 
L 681.99574 353.2239 
L 690.648449 353.2239 
L 699.301158 353.2239 
L 707.953867 353.2239 
L 716.606575 353.2239 
L 725.259284 353.2239 
L 733.911993 353.2239 
L 742.564702 353.2239 
L 751.217411 353.2239 
L 759.87012 353.2239 
L 768.522829 353.2239 
L 777.175538 353.2239 
L 785.828247 353.2239 
L 794.480956 353.2239 
L 803.133664 353.2239 
L 811.786373 353.2239 
L 820.439082 353.2239 
L 829.091791 353.2239 
L 837.7445 353.2239 
L 846.397209 353.2239 
L 855.049918 353.2239 
L 863.702627 353.2239 
L 872.355336 353.2239 
L 881.008045 353.2239 
L 889.660754 353.2239 
L 898.313462 353.2239 
L 906.966171 353.2239 
L 915.61888 353.2239 
L 924.271589 353.2239 
L 932.924298 353.2239 
L 941.577007 353.2239 
L 950.229716 353.2239 
" style="fill:none;stroke:#7cb5ec;stroke-linecap:square;"/>
   </g>
   <g id="line2d_21">
    <path clip-path="url(#pa88fc61b4f)" d="M 93.611534 353.2239 
L 102.264243 319.640344 
L 110.916952 136.51018 
L 119.569661 102.728374 
L 128.22237 126.901662 
L 136.875079 125.157061 
L 145.527788 106.957708 
L 154.180496 123.068828 
L 162.833205 144.149414 
L 171.485914 145.629681 
L 180.138623 145.523948 
L 188.791332 154.101566 
L 197.444041 149.224615 
L 206.09675 154.959855 
L 214.749459 173.885038 
L 223.402168 183.318999 
L 232.054877 203.914477 
L 240.707586 212.693619 
L 249.360294 202.844842 
L 258.013003 188.904553 
L 266.665712 177.076231 
L 275.318421 161.93395 
L 283.97113 153.861016 
L 292.623839 158.561721 
L 301.276548 145.24991 
L 309.929257 162.774173 
L 318.581966 145.271112 
L 327.234675 129.09757 
L 335.887383 133.782205 
L 344.540092 118.660869 
L 353.192801 115.277128 
L 361.84551 139.887579 
L 370.498219 129.336965 
L 379.150928 147.509888 
L 387.803637 314.566624 
L 396.456346 353.2239 
L 405.109055 353.2239 
L 413.761764 353.2239 
L 422.414473 353.2239 
L 431.067181 353.2239 
L 439.71989 353.2239 
L 448.372599 353.2239 
L 457.025308 353.2239 
L 465.678017 353.2239 
L 474.330726 353.2239 
L 482.983435 353.2239 
L 491.636144 353.2239 
L 500.288853 353.2239 
L 508.941562 353.2239 
L 517.594271 353.2239 
L 526.246979 353.2239 
L 534.899688 353.2239 
L 543.552397 353.2239 
L 552.205106 353.2239 
L 560.857815 353.2239 
L 569.510524 353.2239 
L 578.163233 353.2239 
L 586.815942 353.2239 
L 595.468651 353.2239 
L 604.12136 353.2239 
L 612.774069 353.2239 
L 621.426777 353.2239 
L 630.079486 353.2239 
L 638.732195 353.2239 
L 647.384904 353.2239 
L 656.037613 353.2239 
L 664.690322 353.2239 
L 673.343031 353.2239 
L 681.99574 353.2239 
L 690.648449 353.2239 
L 699.301158 353.2239 
L 707.953867 353.2239 
L 716.606575 353.2239 
L 725.259284 353.2239 
L 733.911993 353.2239 
L 742.564702 353.2239 
L 751.217411 353.2239 
L 759.87012 353.2239 
L 768.522829 353.2239 
L 777.175538 353.2239 
L 785.828247 353.2239 
L 794.480956 353.2239 
L 803.133664 353.2239 
L 811.786373 353.2239 
L 820.439082 353.2239 
L 829.091791 353.2239 
L 837.7445 353.2239 
L 846.397209 353.2239 
L 855.049918 353.2239 
L 863.702627 353.2239 
L 872.355336 353.2239 
L 881.008045 353.2239 
L 889.660754 353.2239 
L 898.313462 353.2239 
L 906.966171 353.2239 
L 915.61888 353.2239 
L 924.271589 353.2239 
L 932.924298 353.2239 
L 941.577007 353.2239 
L 950.229716 353.2239 
" style="fill:none;stroke:#434348;stroke-linecap:square;"/>
   </g>
   <g id="line2d_22">
    <path clip-path="url(#pa88fc61b4f)" d="M 93.611534 353.2239 
L 102.264243 314.133863 
L 110.916952 99.632071 
L 119.569661 60.565254 
L 128.22237 96.834121 
L 136.875079 88.242904 
L 145.527788 71.780275 
L 154.180496 88.173245 
L 162.833205 99.841047 
L 171.485914 101.954022 
L 180.138623 117.394993 
L 188.791332 124.987771 
L 197.444041 106.563094 
L 206.09675 69.840576 
L 214.749459 132.102164 
L 223.402168 134.117933 
L 232.054877 162.966666 
L 240.707586 182.49602 
L 249.360294 182.181491 
L 258.013003 151.991494 
L 266.665712 102.316866 
L 275.318421 101.370194 
L 283.97113 126.509326 
L 292.623839 69.272829 
L 301.276548 92.635065 
L 309.929257 111.869412 
L 318.581966 120.533849 
L 327.234675 104.358139 
L 335.887383 123.553983 
L 344.540092 103.270932 
L 353.192801 71.442444 
L 361.84551 97.144939 
L 370.498219 82.085929 
L 379.150928 85.911016 
L 387.803637 305.823587 
L 396.456346 353.2239 
L 405.109055 353.2239 
L 413.761764 353.2239 
L 422.414473 353.2239 
L 431.067181 353.2239 
L 439.71989 353.2239 
L 448.372599 353.2239 
L 457.025308 353.2239 
L 465.678017 353.2239 
L 474.330726 353.2239 
L 482.983435 353.2239 
L 491.636144 353.2239 
L 500.288853 353.2239 
L 508.941562 353.2239 
L 517.594271 353.2239 
L 526.246979 353.2239 
L 534.899688 353.2239 
L 543.552397 353.2239 
L 552.205106 353.2239 
L 560.857815 353.2239 
L 569.510524 353.2239 
L 578.163233 353.2239 
L 586.815942 353.2239 
L 595.468651 353.2239 
L 604.12136 353.2239 
L 612.774069 353.2239 
L 621.426777 353.2239 
L 630.079486 353.2239 
L 638.732195 353.2239 
L 647.384904 353.2239 
L 656.037613 353.2239 
L 664.690322 353.2239 
L 673.343031 353.2239 
L 681.99574 353.2239 
L 690.648449 353.2239 
L 699.301158 353.2239 
L 707.953867 353.2239 
L 716.606575 353.2239 
L 725.259284 353.2239 
L 733.911993 353.2239 
L 742.564702 353.2239 
L 751.217411 353.2239 
L 759.87012 353.2239 
L 768.522829 353.2239 
L 777.175538 353.2239 
L 785.828247 353.2239 
L 794.480956 353.2239 
L 803.133664 353.2239 
L 811.786373 353.2239 
L 820.439082 353.2239 
L 829.091791 353.2239 
L 837.7445 353.2239 
L 846.397209 353.2239 
L 855.049918 353.2239 
L 863.702627 353.2239 
L 872.355336 353.2239 
L 881.008045 353.2239 
L 889.660754 353.2239 
L 898.313462 353.2239 
L 906.966171 353.2239 
L 915.61888 353.2239 
L 924.271589 353.2239 
L 932.924298 353.2239 
L 941.577007 353.2239 
L 950.229716 353.2239 
" style="fill:none;stroke:#90ed7d;stroke-linecap:square;"/>
   </g>
   <g id="line2d_23">
    <path clip-path="url(#pa88fc61b4f)" d="M 93.611534 353.2239 
L 102.264243 317.926624 
L 110.916952 135.611697 
L 119.569661 99.010495 
L 128.22237 124.9847 
L 136.875079 121.633611 
L 145.527788 104.852084 
L 154.180496 124.710876 
L 162.833205 142.926722 
L 171.485914 145.06516 
L 180.138623 147.71213 
L 188.791332 153.332051 
L 197.444041 142.535544 
L 206.09675 150.814809 
L 214.749459 170.51572 
L 223.402168 183.51291 
L 232.054877 202.214574 
L 240.707586 211.970816 
L 249.360294 202.592757 
L 258.013003 188.748536 
L 266.665712 175.200741 
L 275.318421 161.461084 
L 283.97113 152.569427 
L 292.623839 157.258984 
L 301.276548 139.113714 
L 309.929257 162.81096 
L 318.581966 140.65731 
L 327.234675 122.828398 
L 335.887383 131.144812 
L 344.540092 118.575826 
L 353.192801 109.8344 
L 361.84551 141.581504 
L 370.498219 128.150025 
L 379.150928 145.922243 
L 387.803637 313.114687 
L 396.456346 353.2239 
L 405.109055 353.2239 
L 413.761764 353.2239 
L 422.414473 353.2239 
L 431.067181 353.2239 
L 439.71989 353.2239 
L 448.372599 353.2239 
L 457.025308 353.2239 
L 465.678017 353.2239 
L 474.330726 353.2239 
L 482.983435 353.2239 
L 491.636144 353.2239 
L 500.288853 353.2239 
L 508.941562 353.2239 
L 517.594271 353.2239 
L 526.246979 353.2239 
L 534.899688 353.2239 
L 543.552397 353.2239 
L 552.205106 353.2239 
L 560.857815 353.2239 
L 569.510524 353.2239 
L 578.163233 353.2239 
L 586.815942 353.2239 
L 595.468651 353.2239 
L 604.12136 353.2239 
L 612.774069 353.2239 
L 621.426777 353.2239 
L 630.079486 353.2239 
L 638.732195 353.2239 
L 647.384904 353.2239 
L 656.037613 353.2239 
L 664.690322 353.2239 
L 673.343031 353.2239 
L 681.99574 353.2239 
L 690.648449 353.2239 
L 699.301158 353.2239 
L 707.953867 353.2239 
L 716.606575 353.2239 
L 725.259284 353.2239 
L 733.911993 353.2239 
L 742.564702 353.2239 
L 751.217411 353.2239 
L 759.87012 353.2239 
L 768.522829 353.2239 
L 777.175538 353.2239 
L 785.828247 353.2239 
L 794.480956 353.2239 
L 803.133664 353.2239 
L 811.786373 353.2239 
L 820.439082 353.2239 
L 829.091791 353.2239 
L 837.7445 353.2239 
L 846.397209 353.2239 
L 855.049918 353.2239 
L 863.702627 353.2239 
L 872.355336 353.2239 
L 881.008045 353.2239 
L 889.660754 353.2239 
L 898.313462 353.2239 
L 906.966171 353.2239 
L 915.61888 353.2239 
L 924.271589 353.2239 
L 932.924298 353.2239 
L 941.577007 353.2239 
L 950.229716 353.2239 
" style="fill:none;stroke:#f7a35c;stroke-linecap:square;"/>
   </g>
   <g id="line2d_24">
    <path clip-path="url(#pa88fc61b4f)" d="M 93.611534 353.2239 
L 102.264243 313.539805 
L 110.916952 103.887981 
L 119.569661 66.052379 
L 128.22237 94.540224 
L 136.875079 90.913435 
L 145.527788 71.878641 
L 154.180496 88.374682 
L 162.833205 100.331388 
L 171.485914 98.775378 
L 180.138623 115.552204 
L 188.791332 122.068725 
L 197.444041 106.227846 
L 206.09675 74.814245 
L 214.749459 133.005479 
L 223.402168 139.436632 
L 232.054877 159.65266 
L 240.707586 183.765979 
L 249.360294 178.697849 
L 258.013003 155.379273 
L 266.665712 104.865661 
L 275.318421 106.627063 
L 283.97113 126.273149 
L 292.623839 69.28576 
L 301.276548 94.73673 
L 309.929257 115.973131 
L 318.581966 120.054592 
L 327.234675 104.260972 
L 335.887383 124.695565 
L 344.540092 107.606437 
L 353.192801 73.967192 
L 361.84551 101.232359 
L 370.498219 84.867368 
L 379.150928 83.972089 
L 387.803637 305.296332 
L 396.456346 353.2239 
L 405.109055 353.2239 
L 413.761764 353.2239 
L 422.414473 353.2239 
L 431.067181 353.2239 
L 439.71989 353.2239 
L 448.372599 353.2239 
L 457.025308 353.2239 
L 465.678017 353.2239 
L 474.330726 353.2239 
L 482.983435 353.2239 
L 491.636144 353.2239 
L 500.288853 353.2239 
L 508.941562 353.2239 
L 517.594271 353.2239 
L 526.246979 353.2239 
L 534.899688 353.2239 
L 543.552397 353.2239 
L 552.205106 353.2239 
L 560.857815 353.2239 
L 569.510524 353.2239 
L 578.163233 353.2239 
L 586.815942 353.2239 
L 595.468651 353.2239 
L 604.12136 353.2239 
L 612.774069 353.2239 
L 621.426777 353.2239 
L 630.079486 353.2239 
L 638.732195 353.2239 
L 647.384904 353.2239 
L 656.037613 353.2239 
L 664.690322 353.2239 
L 673.343031 353.2239 
L 681.99574 353.2239 
L 690.648449 353.2239 
L 699.301158 353.2239 
L 707.953867 353.2239 
L 716.606575 353.2239 
L 725.259284 353.2239 
L 733.911993 353.2239 
L 742.564702 353.2239 
L 751.217411 353.2239 
L 759.87012 353.2239 
L 768.522829 353.2239 
L 777.175538 353.2239 
L 785.828247 353.2239 
L 794.480956 353.2239 
L 803.133664 353.2239 
L 811.786373 353.2239 
L 820.439082 353.2239 
L 829.091791 353.2239 
L 837.7445 353.2239 
L 846.397209 353.2239 
L 855.049918 353.2239 
L 863.702627 353.2239 
L 872.355336 353.2239 
L 881.008045 353.2239 
L 889.660754 353.2239 
L 898.313462 353.2239 
L 906.966171 353.2239 
L 915.61888 353.2239 
L 924.271589 353.2239 
L 932.924298 353.2239 
L 941.577007 353.2239 
L 950.229716 353.2239 
" style="fill:none;stroke:#8085e9;stroke-linecap:square;"/>
   </g>
   <g id="line2d_25">
    <path clip-path="url(#pa88fc61b4f)" d="M 93.611534 353.2239 
L 102.264243 318.224913 
L 110.916952 137.407764 
L 119.569661 97.256842 
L 128.22237 125.829053 
L 136.875079 126.657043 
L 145.527788 104.800747 
L 154.180496 122.425096 
L 162.833205 145.372235 
L 171.485914 145.188238 
L 180.138623 145.805944 
L 188.791332 156.057243 
L 197.444041 148.342484 
L 206.09675 156.30622 
L 214.749459 171.971091 
L 223.402168 185.676437 
L 232.054877 202.43721 
L 240.707586 211.772473 
L 249.360294 202.64914 
L 258.013003 186.039931 
L 266.665712 174.724913 
L 275.318421 159.550171 
L 283.97113 154.561437 
L 292.623839 156.302642 
L 301.276548 142.712183 
L 309.929257 158.308109 
L 318.581966 141.496248 
L 327.234675 121.345052 
L 335.887383 133.811204 
L 344.540092 115.163391 
L 353.192801 110.519535 
L 361.84551 143.1923 
L 370.498219 121.50509 
L 379.150928 147.704257 
L 387.803637 312.808401 
L 396.456346 353.2239 
L 405.109055 353.2239 
L 413.761764 353.2239 
L 422.414473 353.2239 
L 431.067181 353.2239 
L 439.71989 353.2239 
L 448.372599 353.2239 
L 457.025308 353.2239 
L 465.678017 353.2239 
L 474.330726 353.2239 
L 482.983435 353.2239 
L 491.636144 353.2239 
L 500.288853 353.2239 
L 508.941562 353.2239 
L 517.594271 353.2239 
L 526.246979 353.2239 
L 534.899688 353.2239 
L 543.552397 353.2239 
L 552.205106 353.2239 
L 560.857815 353.2239 
L 569.510524 353.2239 
L 578.163233 353.2239 
L 586.815942 353.2239 
L 595.468651 353.2239 
L 604.12136 353.2239 
L 612.774069 353.2239 
L 621.426777 353.2239 
L 630.079486 353.2239 
L 638.732195 353.2239 
L 647.384904 353.2239 
L 656.037613 353.2239 
L 664.690322 353.2239 
L 673.343031 353.2239 
L 681.99574 353.2239 
L 690.648449 353.2239 
L 699.301158 353.2239 
L 707.953867 353.2239 
L 716.606575 353.2239 
L 725.259284 353.2239 
L 733.911993 353.2239 
L 742.564702 353.2239 
L 751.217411 353.2239 
L 759.87012 353.2239 
L 768.522829 353.2239 
L 777.175538 353.2239 
L 785.828247 353.2239 
L 794.480956 353.2239 
L 803.133664 353.2239 
L 811.786373 353.2239 
L 820.439082 353.2239 
L 829.091791 353.2239 
L 837.7445 353.2239 
L 846.397209 353.2239 
L 855.049918 353.2239 
L 863.702627 353.2239 
L 872.355336 353.2239 
L 881.008045 353.2239 
L 889.660754 353.2239 
L 898.313462 353.2239 
L 906.966171 353.2239 
L 915.61888 353.2239 
L 924.271589 353.2239 
L 932.924298 353.2239 
L 941.577007 353.2239 
L 950.229716 353.2239 
" style="fill:none;stroke:#f15c80;stroke-linecap:square;"/>
   </g>
   <g id="line2d_26">
    <path clip-path="url(#pa88fc61b4f)" d="M 93.611534 353.2239 
L 102.264243 311.558845 
L 110.916952 102.814284 
L 119.569661 69.019828 
L 128.22237 97.914627 
L 136.875079 92.979031 
L 145.527788 71.080319 
L 154.180496 94.009277 
L 162.833205 100.669936 
L 171.485914 100.693895 
L 180.138623 115.788193 
L 188.791332 119.118522 
L 197.444041 106.120654 
L 206.09675 71.750198 
L 214.749459 134.545883 
L 223.402168 139.981021 
L 232.054877 158.693061 
L 240.707586 182.989649 
L 249.360294 176.938423 
L 258.013003 152.629212 
L 266.665712 106.323126 
L 275.318421 105.442727 
L 283.97113 130.737587 
L 292.623839 74.13619 
L 301.276548 97.139569 
L 309.929257 115.298534 
L 318.581966 120.642069 
L 327.234675 102.22582 
L 335.887383 124.54355 
L 344.540092 97.61114 
L 353.192801 73.332031 
L 361.84551 104.047351 
L 370.498219 83.224886 
L 379.150928 89.888693 
L 387.803637 305.08891 
L 396.456346 353.2239 
L 405.109055 353.2239 
L 413.761764 353.2239 
L 422.414473 353.2239 
L 431.067181 353.2239 
L 439.71989 353.2239 
L 448.372599 353.2239 
L 457.025308 353.2239 
L 465.678017 353.2239 
L 474.330726 353.2239 
L 482.983435 353.2239 
L 491.636144 353.2239 
L 500.288853 353.2239 
L 508.941562 353.2239 
L 517.594271 353.2239 
L 526.246979 353.2239 
L 534.899688 353.2239 
L 543.552397 353.2239 
L 552.205106 353.2239 
L 560.857815 353.2239 
L 569.510524 353.2239 
L 578.163233 353.2239 
L 586.815942 353.2239 
L 595.468651 353.2239 
L 604.12136 353.2239 
L 612.774069 353.2239 
L 621.426777 353.2239 
L 630.079486 353.2239 
L 638.732195 353.2239 
L 647.384904 353.2239 
L 656.037613 353.2239 
L 664.690322 353.2239 
L 673.343031 353.2239 
L 681.99574 353.2239 
L 690.648449 353.2239 
L 699.301158 353.2239 
L 707.953867 353.2239 
L 716.606575 353.2239 
L 725.259284 353.2239 
L 733.911993 353.2239 
L 742.564702 353.2239 
L 751.217411 353.2239 
L 759.87012 353.2239 
L 768.522829 353.2239 
L 777.175538 353.2239 
L 785.828247 353.2239 
L 794.480956 353.2239 
L 803.133664 353.2239 
L 811.786373 353.2239 
L 820.439082 353.2239 
L 829.091791 353.2239 
L 837.7445 353.2239 
L 846.397209 353.2239 
L 855.049918 353.2239 
L 863.702627 353.2239 
L 872.355336 353.2239 
L 881.008045 353.2239 
L 889.660754 353.2239 
L 898.313462 353.2239 
L 906.966171 353.2239 
L 915.61888 353.2239 
L 924.271589 353.2239 
L 932.924298 353.2239 
L 941.577007 353.2239 
L 950.229716 353.2239 
" style="fill:none;stroke:#e4d354;stroke-linecap:square;"/>
   </g>
   <g id="line2d_27">
    <path clip-path="url(#pa88fc61b4f)" d="M 50.780625 353.2239 
L 993.060625 353.2239 
" style="fill:none;stroke:#dedede;stroke-linecap:square;stroke-width:2;"/>
   </g>
   <g id="text_18">
    <!-- Slamdunk: Non-T&gt;C mismatches over reads -->
    <defs>
     <path d="M 53.515625 70.515625 
L 53.515625 60.890625 
Q 47.90625 63.578125 42.921875 64.890625 
Q 37.9375 66.21875 33.296875 66.21875 
Q 25.25 66.21875 20.875 63.09375 
Q 16.5 59.96875 16.5 54.203125 
Q 16.5 49.359375 19.40625 46.890625 
Q 22.3125 44.4375 30.421875 42.921875 
L 36.375 41.703125 
Q 47.40625 39.59375 52.65625 34.296875 
Q 57.90625 29 57.90625 20.125 
Q 57.90625 9.515625 50.796875 4.046875 
Q 43.703125 -1.421875 29.984375 -1.421875 
Q 24.8125 -1.421875 18.96875 -0.25 
Q 13.140625 0.921875 6.890625 3.21875 
L 6.890625 13.375 
Q 12.890625 10.015625 18.65625 8.296875 
Q 24.421875 6.59375 29.984375 6.59375 
Q 38.421875 6.59375 43.015625 9.90625 
Q 47.609375 13.234375 47.609375 19.390625 
Q 47.609375 24.75 44.3125 27.78125 
Q 41.015625 30.8125 33.5 32.328125 
L 27.484375 33.5 
Q 16.453125 35.6875 11.515625 40.375 
Q 6.59375 45.0625 6.59375 53.421875 
Q 6.59375 63.09375 13.40625 68.65625 
Q 20.21875 74.21875 32.171875 74.21875 
Q 37.3125 74.21875 42.625 73.28125 
Q 47.953125 72.359375 53.515625 70.515625 
z
" id="DejaVuSans-83"/>
     <path d="M 9.421875 75.984375 
L 18.40625 75.984375 
L 18.40625 0 
L 9.421875 0 
z
" id="DejaVuSans-108"/>
     <path d="M 8.5 21.578125 
L 8.5 54.6875 
L 17.484375 54.6875 
L 17.484375 21.921875 
Q 17.484375 14.15625 20.5 10.265625 
Q 23.53125 6.390625 29.59375 6.390625 
Q 36.859375 6.390625 41.078125 11.03125 
Q 45.3125 15.671875 45.3125 23.6875 
L 45.3125 54.6875 
L 54.296875 54.6875 
L 54.296875 0 
L 45.3125 0 
L 45.3125 8.40625 
Q 42.046875 3.421875 37.71875 1 
Q 33.40625 -1.421875 27.6875 -1.421875 
Q 18.265625 -1.421875 13.375 4.4375 
Q 8.5 10.296875 8.5 21.578125 
z
M 31.109375 56 
z
" id="DejaVuSans-117"/>
     <path d="M 9.078125 75.984375 
L 18.109375 75.984375 
L 18.109375 31.109375 
L 44.921875 54.6875 
L 56.390625 54.6875 
L 27.390625 29.109375 
L 57.625 0 
L 45.90625 0 
L 18.109375 26.703125 
L 18.109375 0 
L 9.078125 0 
z
" id="DejaVuSans-107"/>
     <path d="M 11.71875 12.40625 
L 22.015625 12.40625 
L 22.015625 0 
L 11.71875 0 
z
M 11.71875 51.703125 
L 22.015625 51.703125 
L 22.015625 39.3125 
L 11.71875 39.3125 
z
" id="DejaVuSans-58"/>
     <path d="M 9.8125 72.90625 
L 23.09375 72.90625 
L 55.421875 11.921875 
L 55.421875 72.90625 
L 64.984375 72.90625 
L 64.984375 0 
L 51.703125 0 
L 19.390625 60.984375 
L 19.390625 0 
L 9.8125 0 
z
" id="DejaVuSans-78"/>
     <path d="M 4.890625 31.390625 
L 31.203125 31.390625 
L 31.203125 23.390625 
L 4.890625 23.390625 
z
" id="DejaVuSans-45"/>
     <path d="M -0.296875 72.90625 
L 61.375 72.90625 
L 61.375 64.59375 
L 35.5 64.59375 
L 35.5 0 
L 25.59375 0 
L 25.59375 64.59375 
L -0.296875 64.59375 
z
" id="DejaVuSans-84"/>
     <path d="M 10.59375 49.21875 
L 10.59375 58.109375 
L 73.1875 35.40625 
L 73.1875 27.296875 
L 10.59375 4.59375 
L 10.59375 13.484375 
L 60.890625 31.296875 
z
" id="DejaVuSans-62"/>
     <path d="M 64.40625 67.28125 
L 64.40625 56.890625 
Q 59.421875 61.53125 53.78125 63.8125 
Q 48.140625 66.109375 41.796875 66.109375 
Q 29.296875 66.109375 22.65625 58.46875 
Q 16.015625 50.828125 16.015625 36.375 
Q 16.015625 21.96875 22.65625 14.328125 
Q 29.296875 6.6875 41.796875 6.6875 
Q 48.140625 6.6875 53.78125 8.984375 
Q 59.421875 11.28125 64.40625 15.921875 
L 64.40625 5.609375 
Q 59.234375 2.09375 53.4375 0.328125 
Q 47.65625 -1.421875 41.21875 -1.421875 
Q 24.65625 -1.421875 15.125 8.703125 
Q 5.609375 18.84375 5.609375 36.375 
Q 5.609375 53.953125 15.125 64.078125 
Q 24.65625 74.21875 41.21875 74.21875 
Q 47.75 74.21875 53.53125 72.484375 
Q 59.328125 70.75 64.40625 67.28125 
z
" id="DejaVuSans-67"/>
     <path d="M 2.984375 54.6875 
L 12.5 54.6875 
L 29.59375 8.796875 
L 46.6875 54.6875 
L 56.203125 54.6875 
L 35.6875 0 
L 23.484375 0 
z
" id="DejaVuSans-118"/>
    </defs>
    <g transform="translate(344.435625 19.3575)scale(0.16 -0.16)">
     <use xlink:href="#DejaVuSans-83"/>
     <use x="63.476562" xlink:href="#DejaVuSans-108"/>
     <use x="91.259766" xlink:href="#DejaVuSans-97"/>
     <use x="152.539062" xlink:href="#DejaVuSans-109"/>
     <use x="249.951172" xlink:href="#DejaVuSans-100"/>
     <use x="313.427734" xlink:href="#DejaVuSans-117"/>
     <use x="376.806641" xlink:href="#DejaVuSans-110"/>
     <use x="440.185547" xlink:href="#DejaVuSans-107"/>
     <use x="498.095703" xlink:href="#DejaVuSans-58"/>
     <use x="531.787109" xlink:href="#DejaVuSans-32"/>
     <use x="563.574219" xlink:href="#DejaVuSans-78"/>
     <use x="638.378906" xlink:href="#DejaVuSans-111"/>
     <use x="699.560547" xlink:href="#DejaVuSans-110"/>
     <use x="762.939453" xlink:href="#DejaVuSans-45"/>
     <use x="798.882812" xlink:href="#DejaVuSans-84"/>
     <use x="859.966797" xlink:href="#DejaVuSans-62"/>
     <use x="943.755859" xlink:href="#DejaVuSans-67"/>
     <use x="1013.580078" xlink:href="#DejaVuSans-32"/>
     <use x="1045.367188" xlink:href="#DejaVuSans-109"/>
     <use x="1142.779297" xlink:href="#DejaVuSans-105"/>
     <use x="1170.5625" xlink:href="#DejaVuSans-115"/>
     <use x="1222.662109" xlink:href="#DejaVuSans-109"/>
     <use x="1320.074219" xlink:href="#DejaVuSans-97"/>
     <use x="1381.353516" xlink:href="#DejaVuSans-116"/>
     <use x="1420.5625" xlink:href="#DejaVuSans-99"/>
     <use x="1475.542969" xlink:href="#DejaVuSans-104"/>
     <use x="1538.921875" xlink:href="#DejaVuSans-101"/>
     <use x="1600.445312" xlink:href="#DejaVuSans-115"/>
     <use x="1652.544922" xlink:href="#DejaVuSans-32"/>
     <use x="1684.332031" xlink:href="#DejaVuSans-111"/>
     <use x="1745.513672" xlink:href="#DejaVuSans-118"/>
     <use x="1804.693359" xlink:href="#DejaVuSans-101"/>
     <use x="1866.216797" xlink:href="#DejaVuSans-114"/>
     <use x="1907.330078" xlink:href="#DejaVuSans-32"/>
     <use x="1939.117188" xlink:href="#DejaVuSans-114"/>
     <use x="1980.199219" xlink:href="#DejaVuSans-101"/>
     <use x="2041.722656" xlink:href="#DejaVuSans-97"/>
     <use x="2103.001953" xlink:href="#DejaVuSans-100"/>
     <use x="2166.478516" xlink:href="#DejaVuSans-115"/>
    </g>
   </g>
  </g>
 </g>
 <defs>
  <clipPath id="pa88fc61b4f">
   <rect height="317.968" width="942.28" x="50.780625" y="35.2559"/>
  </clipPath>
 </defs>
</svg>
