<?xml version="1.0" encoding="utf-8" standalone="no"?>
<!DOCTYPE svg PUBLIC "-//W3C//DTD SVG 1.1//EN"
  "http://www.w3.org/Graphics/SVG/1.1/DTD/svg11.dtd">
<!-- Created with matplotlib (https://matplotlib.org/) -->
<svg height="388.844525pt" version="1.1" viewBox="0 0 1000.238125 388.844525" width="1000.238125pt" xmlns="http://www.w3.org/2000/svg" xmlns:xlink="http://www.w3.org/1999/xlink">
 <defs>
  <style type="text/css">
*{stroke-linecap:butt;stroke-linejoin:round;}
  </style>
 </defs>
 <g id="figure_1">
  <g id="axes_1">
   <g id="patch_1">
    <path d="M 48.238125 353.2239 
L 993.038125 353.2239 
L 993.038125 35.2559 
L 48.238125 35.2559 
z
" style="fill:#ffffff;"/>
   </g>
   <g id="matplotlib.axis_1">
    <g id="xtick_1">
     <g id="text_1">
      <!-- 10 -->
      <defs>
       <path d="M 12.40625 8.296875 
L 28.515625 8.296875 
L 28.515625 63.921875 
L 10.984375 60.40625 
L 10.984375 69.390625 
L 28.421875 72.90625 
L 38.28125 72.90625 
L 38.28125 8.296875 
L 54.390625 8.296875 
L 54.390625 0 
L 12.40625 0 
z
" id="DejaVuSans-49"/>
       <path d="M 31.78125 66.40625 
Q 24.171875 66.40625 20.328125 58.90625 
Q 16.5 51.421875 16.5 36.375 
Q 16.5 21.390625 20.328125 13.890625 
Q 24.171875 6.390625 31.78125 6.390625 
Q 39.453125 6.390625 43.28125 13.890625 
Q 47.125 21.390625 47.125 36.375 
Q 47.125 51.421875 43.28125 58.90625 
Q 39.453125 66.40625 31.78125 66.40625 
z
M 31.78125 74.21875 
Q 44.046875 74.21875 50.515625 64.515625 
Q 56.984375 54.828125 56.984375 36.375 
Q 56.984375 17.96875 50.515625 8.265625 
Q 44.046875 -1.421875 31.78125 -1.421875 
Q 19.53125 -1.421875 13.0625 8.265625 
Q 6.59375 17.96875 6.59375 36.375 
Q 6.59375 54.828125 13.0625 64.515625 
Q 19.53125 74.21875 31.78125 74.21875 
z
" id="DejaVuSans-48"/>
      </defs>
      <g transform="translate(211.351155 366.30265)scale(0.08 -0.08)">
       <use xlink:href="#DejaVuSans-49"/>
       <use x="63.623047" xlink:href="#DejaVuSans-48"/>
      </g>
     </g>
    </g>
    <g id="xtick_2">
     <g id="text_2">
      <!-- 20 -->
      <defs>
       <path d="M 19.1875 8.296875 
L 53.609375 8.296875 
L 53.609375 0 
L 7.328125 0 
L 7.328125 8.296875 
Q 12.9375 14.109375 22.625 23.890625 
Q 32.328125 33.6875 34.8125 36.53125 
Q 39.546875 41.84375 41.421875 45.53125 
Q 43.3125 49.21875 43.3125 52.78125 
Q 43.3125 58.59375 39.234375 62.25 
Q 35.15625 65.921875 28.609375 65.921875 
Q 23.96875 65.921875 18.8125 64.3125 
Q 13.671875 62.703125 7.8125 59.421875 
L 7.8125 69.390625 
Q 13.765625 71.78125 18.9375 73 
Q 24.125 74.21875 28.421875 74.21875 
Q 39.75 74.21875 46.484375 68.546875 
Q 53.21875 62.890625 53.21875 53.421875 
Q 53.21875 48.921875 51.53125 44.890625 
Q 49.859375 40.875 45.40625 35.40625 
Q 44.1875 33.984375 37.640625 27.21875 
Q 31.109375 20.453125 19.1875 8.296875 
z
" id="DejaVuSans-50"/>
      </defs>
      <g transform="translate(390.290549 366.30265)scale(0.08 -0.08)">
       <use xlink:href="#DejaVuSans-50"/>
       <use x="63.623047" xlink:href="#DejaVuSans-48"/>
      </g>
     </g>
    </g>
    <g id="xtick_3">
     <g id="text_3">
      <!-- 30 -->
      <defs>
       <path d="M 40.578125 39.3125 
Q 47.65625 37.796875 51.625 33 
Q 55.609375 28.21875 55.609375 21.1875 
Q 55.609375 10.40625 48.1875 4.484375 
Q 40.765625 -1.421875 27.09375 -1.421875 
Q 22.515625 -1.421875 17.65625 -0.515625 
Q 12.796875 0.390625 7.625 2.203125 
L 7.625 11.71875 
Q 11.71875 9.328125 16.59375 8.109375 
Q 21.484375 6.890625 26.8125 6.890625 
Q 36.078125 6.890625 40.9375 10.546875 
Q 45.796875 14.203125 45.796875 21.1875 
Q 45.796875 27.640625 41.28125 31.265625 
Q 36.765625 34.90625 28.71875 34.90625 
L 20.21875 34.90625 
L 20.21875 43.015625 
L 29.109375 43.015625 
Q 36.375 43.015625 40.234375 45.921875 
Q 44.09375 48.828125 44.09375 54.296875 
Q 44.09375 59.90625 40.109375 62.90625 
Q 36.140625 65.921875 28.71875 65.921875 
Q 24.65625 65.921875 20.015625 65.03125 
Q 15.375 64.15625 9.8125 62.3125 
L 9.8125 71.09375 
Q 15.4375 72.65625 20.34375 73.4375 
Q 25.25 74.21875 29.59375 74.21875 
Q 40.828125 74.21875 47.359375 69.109375 
Q 53.90625 64.015625 53.90625 55.328125 
Q 53.90625 49.265625 50.4375 45.09375 
Q 46.96875 40.921875 40.578125 39.3125 
z
" id="DejaVuSans-51"/>
      </defs>
      <g transform="translate(569.229943 366.30265)scale(0.08 -0.08)">
       <use xlink:href="#DejaVuSans-51"/>
       <use x="63.623047" xlink:href="#DejaVuSans-48"/>
      </g>
     </g>
    </g>
    <g id="xtick_4">
     <g id="text_4">
      <!-- 40 -->
      <defs>
       <path d="M 37.796875 64.3125 
L 12.890625 25.390625 
L 37.796875 25.390625 
z
M 35.203125 72.90625 
L 47.609375 72.90625 
L 47.609375 25.390625 
L 58.015625 25.390625 
L 58.015625 17.1875 
L 47.609375 17.1875 
L 47.609375 0 
L 37.796875 0 
L 37.796875 17.1875 
L 4.890625 17.1875 
L 4.890625 26.703125 
z
" id="DejaVuSans-52"/>
      </defs>
      <g transform="translate(748.169337 366.30265)scale(0.08 -0.08)">
       <use xlink:href="#DejaVuSans-52"/>
       <use x="63.623047" xlink:href="#DejaVuSans-48"/>
      </g>
     </g>
    </g>
    <g id="xtick_5">
     <g id="text_5">
      <!-- 50 -->
      <defs>
       <path d="M 10.796875 72.90625 
L 49.515625 72.90625 
L 49.515625 64.59375 
L 19.828125 64.59375 
L 19.828125 46.734375 
Q 21.96875 47.46875 24.109375 47.828125 
Q 26.265625 48.1875 28.421875 48.1875 
Q 40.625 48.1875 47.75 41.5 
Q 54.890625 34.8125 54.890625 23.390625 
Q 54.890625 11.625 47.5625 5.09375 
Q 40.234375 -1.421875 26.90625 -1.421875 
Q 22.3125 -1.421875 17.546875 -0.640625 
Q 12.796875 0.140625 7.71875 1.703125 
L 7.71875 11.625 
Q 12.109375 9.234375 16.796875 8.0625 
Q 21.484375 6.890625 26.703125 6.890625 
Q 35.15625 6.890625 40.078125 11.328125 
Q 45.015625 15.765625 45.015625 23.390625 
Q 45.015625 31 40.078125 35.4375 
Q 35.15625 39.890625 26.703125 39.890625 
Q 22.75 39.890625 18.8125 39.015625 
Q 14.890625 38.140625 10.796875 36.28125 
z
" id="DejaVuSans-53"/>
      </defs>
      <g transform="translate(927.108731 366.30265)scale(0.08 -0.08)">
       <use xlink:href="#DejaVuSans-53"/>
       <use x="63.623047" xlink:href="#DejaVuSans-48"/>
      </g>
     </g>
    </g>
    <g id="text_6">
     <!-- Length Trimmed (bp) -->
     <defs>
      <path d="M 9.8125 72.90625 
L 19.671875 72.90625 
L 19.671875 8.296875 
L 55.171875 8.296875 
L 55.171875 0 
L 9.8125 0 
z
" id="DejaVuSans-76"/>
      <path d="M 56.203125 29.59375 
L 56.203125 25.203125 
L 14.890625 25.203125 
Q 15.484375 15.921875 20.484375 11.0625 
Q 25.484375 6.203125 34.421875 6.203125 
Q 39.59375 6.203125 44.453125 7.46875 
Q 49.3125 8.734375 54.109375 11.28125 
L 54.109375 2.78125 
Q 49.265625 0.734375 44.1875 -0.34375 
Q 39.109375 -1.421875 33.890625 -1.421875 
Q 20.796875 -1.421875 13.15625 6.1875 
Q 5.515625 13.8125 5.515625 26.8125 
Q 5.515625 40.234375 12.765625 48.109375 
Q 20.015625 56 32.328125 56 
Q 43.359375 56 49.78125 48.890625 
Q 56.203125 41.796875 56.203125 29.59375 
z
M 47.21875 32.234375 
Q 47.125 39.59375 43.09375 43.984375 
Q 39.0625 48.390625 32.421875 48.390625 
Q 24.90625 48.390625 20.390625 44.140625 
Q 15.875 39.890625 15.1875 32.171875 
z
" id="DejaVuSans-101"/>
      <path d="M 54.890625 33.015625 
L 54.890625 0 
L 45.90625 0 
L 45.90625 32.71875 
Q 45.90625 40.484375 42.875 44.328125 
Q 39.84375 48.1875 33.796875 48.1875 
Q 26.515625 48.1875 22.3125 43.546875 
Q 18.109375 38.921875 18.109375 30.90625 
L 18.109375 0 
L 9.078125 0 
L 9.078125 54.6875 
L 18.109375 54.6875 
L 18.109375 46.1875 
Q 21.34375 51.125 25.703125 53.5625 
Q 30.078125 56 35.796875 56 
Q 45.21875 56 50.046875 50.171875 
Q 54.890625 44.34375 54.890625 33.015625 
z
" id="DejaVuSans-110"/>
      <path d="M 45.40625 27.984375 
Q 45.40625 37.75 41.375 43.109375 
Q 37.359375 48.484375 30.078125 48.484375 
Q 22.859375 48.484375 18.828125 43.109375 
Q 14.796875 37.75 14.796875 27.984375 
Q 14.796875 18.265625 18.828125 12.890625 
Q 22.859375 7.515625 30.078125 7.515625 
Q 37.359375 7.515625 41.375 12.890625 
Q 45.40625 18.265625 45.40625 27.984375 
z
M 54.390625 6.78125 
Q 54.390625 -7.171875 48.1875 -13.984375 
Q 42 -20.796875 29.203125 -20.796875 
Q 24.46875 -20.796875 20.265625 -20.09375 
Q 16.0625 -19.390625 12.109375 -17.921875 
L 12.109375 -9.1875 
Q 16.0625 -11.328125 19.921875 -12.34375 
Q 23.78125 -13.375 27.78125 -13.375 
Q 36.625 -13.375 41.015625 -8.765625 
Q 45.40625 -4.15625 45.40625 5.171875 
L 45.40625 9.625 
Q 42.625 4.78125 38.28125 2.390625 
Q 33.9375 0 27.875 0 
Q 17.828125 0 11.671875 7.65625 
Q 5.515625 15.328125 5.515625 27.984375 
Q 5.515625 40.671875 11.671875 48.328125 
Q 17.828125 56 27.875 56 
Q 33.9375 56 38.28125 53.609375 
Q 42.625 51.21875 45.40625 46.390625 
L 45.40625 54.6875 
L 54.390625 54.6875 
z
" id="DejaVuSans-103"/>
      <path d="M 18.3125 70.21875 
L 18.3125 54.6875 
L 36.8125 54.6875 
L 36.8125 47.703125 
L 18.3125 47.703125 
L 18.3125 18.015625 
Q 18.3125 11.328125 20.140625 9.421875 
Q 21.96875 7.515625 27.59375 7.515625 
L 36.8125 7.515625 
L 36.8125 0 
L 27.59375 0 
Q 17.1875 0 13.234375 3.875 
Q 9.28125 7.765625 9.28125 18.015625 
L 9.28125 47.703125 
L 2.6875 47.703125 
L 2.6875 54.6875 
L 9.28125 54.6875 
L 9.28125 70.21875 
z
" id="DejaVuSans-116"/>
      <path d="M 54.890625 33.015625 
L 54.890625 0 
L 45.90625 0 
L 45.90625 32.71875 
Q 45.90625 40.484375 42.875 44.328125 
Q 39.84375 48.1875 33.796875 48.1875 
Q 26.515625 48.1875 22.3125 43.546875 
Q 18.109375 38.921875 18.109375 30.90625 
L 18.109375 0 
L 9.078125 0 
L 9.078125 75.984375 
L 18.109375 75.984375 
L 18.109375 46.1875 
Q 21.34375 51.125 25.703125 53.5625 
Q 30.078125 56 35.796875 56 
Q 45.21875 56 50.046875 50.171875 
Q 54.890625 44.34375 54.890625 33.015625 
z
" id="DejaVuSans-104"/>
      <path id="DejaVuSans-32"/>
      <path d="M -0.296875 72.90625 
L 61.375 72.90625 
L 61.375 64.59375 
L 35.5 64.59375 
L 35.5 0 
L 25.59375 0 
L 25.59375 64.59375 
L -0.296875 64.59375 
z
" id="DejaVuSans-84"/>
      <path d="M 41.109375 46.296875 
Q 39.59375 47.171875 37.8125 47.578125 
Q 36.03125 48 33.890625 48 
Q 26.265625 48 22.1875 43.046875 
Q 18.109375 38.09375 18.109375 28.8125 
L 18.109375 0 
L 9.078125 0 
L 9.078125 54.6875 
L 18.109375 54.6875 
L 18.109375 46.1875 
Q 20.953125 51.171875 25.484375 53.578125 
Q 30.03125 56 36.53125 56 
Q 37.453125 56 38.578125 55.875 
Q 39.703125 55.765625 41.0625 55.515625 
z
" id="DejaVuSans-114"/>
      <path d="M 9.421875 54.6875 
L 18.40625 54.6875 
L 18.40625 0 
L 9.421875 0 
z
M 9.421875 75.984375 
L 18.40625 75.984375 
L 18.40625 64.59375 
L 9.421875 64.59375 
z
" id="DejaVuSans-105"/>
      <path d="M 52 44.1875 
Q 55.375 50.25 60.0625 53.125 
Q 64.75 56 71.09375 56 
Q 79.640625 56 84.28125 50.015625 
Q 88.921875 44.046875 88.921875 33.015625 
L 88.921875 0 
L 79.890625 0 
L 79.890625 32.71875 
Q 79.890625 40.578125 77.09375 44.375 
Q 74.3125 48.1875 68.609375 48.1875 
Q 61.625 48.1875 57.5625 43.546875 
Q 53.515625 38.921875 53.515625 30.90625 
L 53.515625 0 
L 44.484375 0 
L 44.484375 32.71875 
Q 44.484375 40.625 41.703125 44.40625 
Q 38.921875 48.1875 33.109375 48.1875 
Q 26.21875 48.1875 22.15625 43.53125 
Q 18.109375 38.875 18.109375 30.90625 
L 18.109375 0 
L 9.078125 0 
L 9.078125 54.6875 
L 18.109375 54.6875 
L 18.109375 46.1875 
Q 21.1875 51.21875 25.484375 53.609375 
Q 29.78125 56 35.6875 56 
Q 41.65625 56 45.828125 52.96875 
Q 50 49.953125 52 44.1875 
z
" id="DejaVuSans-109"/>
      <path d="M 45.40625 46.390625 
L 45.40625 75.984375 
L 54.390625 75.984375 
L 54.390625 0 
L 45.40625 0 
L 45.40625 8.203125 
Q 42.578125 3.328125 38.25 0.953125 
Q 33.9375 -1.421875 27.875 -1.421875 
Q 17.96875 -1.421875 11.734375 6.484375 
Q 5.515625 14.40625 5.515625 27.296875 
Q 5.515625 40.1875 11.734375 48.09375 
Q 17.96875 56 27.875 56 
Q 33.9375 56 38.25 53.625 
Q 42.578125 51.265625 45.40625 46.390625 
z
M 14.796875 27.296875 
Q 14.796875 17.390625 18.875 11.75 
Q 22.953125 6.109375 30.078125 6.109375 
Q 37.203125 6.109375 41.296875 11.75 
Q 45.40625 17.390625 45.40625 27.296875 
Q 45.40625 37.203125 41.296875 42.84375 
Q 37.203125 48.484375 30.078125 48.484375 
Q 22.953125 48.484375 18.875 42.84375 
Q 14.796875 37.203125 14.796875 27.296875 
z
" id="DejaVuSans-100"/>
      <path d="M 31 75.875 
Q 24.46875 64.65625 21.28125 53.65625 
Q 18.109375 42.671875 18.109375 31.390625 
Q 18.109375 20.125 21.3125 9.0625 
Q 24.515625 -2 31 -13.1875 
L 23.1875 -13.1875 
Q 15.875 -1.703125 12.234375 9.375 
Q 8.59375 20.453125 8.59375 31.390625 
Q 8.59375 42.28125 12.203125 53.3125 
Q 15.828125 64.359375 23.1875 75.875 
z
" id="DejaVuSans-40"/>
      <path d="M 48.6875 27.296875 
Q 48.6875 37.203125 44.609375 42.84375 
Q 40.53125 48.484375 33.40625 48.484375 
Q 26.265625 48.484375 22.1875 42.84375 
Q 18.109375 37.203125 18.109375 27.296875 
Q 18.109375 17.390625 22.1875 11.75 
Q 26.265625 6.109375 33.40625 6.109375 
Q 40.53125 6.109375 44.609375 11.75 
Q 48.6875 17.390625 48.6875 27.296875 
z
M 18.109375 46.390625 
Q 20.953125 51.265625 25.265625 53.625 
Q 29.59375 56 35.59375 56 
Q 45.5625 56 51.78125 48.09375 
Q 58.015625 40.1875 58.015625 27.296875 
Q 58.015625 14.40625 51.78125 6.484375 
Q 45.5625 -1.421875 35.59375 -1.421875 
Q 29.59375 -1.421875 25.265625 0.953125 
Q 20.953125 3.328125 18.109375 8.203125 
L 18.109375 0 
L 9.078125 0 
L 9.078125 75.984375 
L 18.109375 75.984375 
z
" id="DejaVuSans-98"/>
      <path d="M 18.109375 8.203125 
L 18.109375 -20.796875 
L 9.078125 -20.796875 
L 9.078125 54.6875 
L 18.109375 54.6875 
L 18.109375 46.390625 
Q 20.953125 51.265625 25.265625 53.625 
Q 29.59375 56 35.59375 56 
Q 45.5625 56 51.78125 48.09375 
Q 58.015625 40.1875 58.015625 27.296875 
Q 58.015625 14.40625 51.78125 6.484375 
Q 45.5625 -1.421875 35.59375 -1.421875 
Q 29.59375 -1.421875 25.265625 0.953125 
Q 20.953125 3.328125 18.109375 8.203125 
z
M 48.6875 27.296875 
Q 48.6875 37.203125 44.609375 42.84375 
Q 40.53125 48.484375 33.40625 48.484375 
Q 26.265625 48.484375 22.1875 42.84375 
Q 18.109375 37.203125 18.109375 27.296875 
Q 18.109375 17.390625 22.1875 11.75 
Q 26.265625 6.109375 33.40625 6.109375 
Q 40.53125 6.109375 44.609375 11.75 
Q 48.6875 17.390625 48.6875 27.296875 
z
" id="DejaVuSans-112"/>
      <path d="M 8.015625 75.875 
L 15.828125 75.875 
Q 23.140625 64.359375 26.78125 53.3125 
Q 30.421875 42.28125 30.421875 31.390625 
Q 30.421875 20.453125 26.78125 9.375 
Q 23.140625 -1.703125 15.828125 -13.1875 
L 8.015625 -13.1875 
Q 14.5 -2 17.703125 9.0625 
Q 20.90625 20.125 20.90625 31.390625 
Q 20.90625 42.671875 17.703125 53.65625 
Q 14.5 64.65625 8.015625 75.875 
z
" id="DejaVuSans-41"/>
     </defs>
     <g transform="translate(467.3975 379.564837)scale(0.1 -0.1)">
      <use xlink:href="#DejaVuSans-76"/>
      <use x="55.697266" xlink:href="#DejaVuSans-101"/>
      <use x="117.220703" xlink:href="#DejaVuSans-110"/>
      <use x="180.599609" xlink:href="#DejaVuSans-103"/>
      <use x="244.076172" xlink:href="#DejaVuSans-116"/>
      <use x="283.285156" xlink:href="#DejaVuSans-104"/>
      <use x="346.664062" xlink:href="#DejaVuSans-32"/>
      <use x="378.451172" xlink:href="#DejaVuSans-84"/>
      <use x="439.316406" xlink:href="#DejaVuSans-114"/>
      <use x="480.429688" xlink:href="#DejaVuSans-105"/>
      <use x="508.212891" xlink:href="#DejaVuSans-109"/>
      <use x="605.625" xlink:href="#DejaVuSans-109"/>
      <use x="703.037109" xlink:href="#DejaVuSans-101"/>
      <use x="764.560547" xlink:href="#DejaVuSans-100"/>
      <use x="828.037109" xlink:href="#DejaVuSans-32"/>
      <use x="859.824219" xlink:href="#DejaVuSans-40"/>
      <use x="898.837891" xlink:href="#DejaVuSans-98"/>
      <use x="962.314453" xlink:href="#DejaVuSans-112"/>
      <use x="1025.791016" xlink:href="#DejaVuSans-41"/>
     </g>
    </g>
   </g>
   <g id="matplotlib.axis_2">
    <g id="ytick_1">
     <g id="line2d_1">
      <path clip-path="url(#p324f4e53e0)" d="M 48.238125 353.2239 
L 993.038125 353.2239 
" style="fill:none;stroke:#dedede;stroke-linecap:square;"/>
     </g>
     <g id="text_7">
      <!-- 0 -->
      <g transform="translate(36.148125 356.263275)scale(0.08 -0.08)">
       <use xlink:href="#DejaVuSans-48"/>
      </g>
     </g>
    </g>
    <g id="ytick_2">
     <g id="line2d_2">
      <path clip-path="url(#p324f4e53e0)" d="M 48.238125 313.087729 
L 993.038125 313.087729 
" style="fill:none;stroke:#dedede;stroke-linecap:square;"/>
     </g>
     <g id="text_8">
      <!-- 500 -->
      <g transform="translate(25.968125 316.127104)scale(0.08 -0.08)">
       <use xlink:href="#DejaVuSans-53"/>
       <use x="63.623047" xlink:href="#DejaVuSans-48"/>
       <use x="127.246094" xlink:href="#DejaVuSans-48"/>
      </g>
     </g>
    </g>
    <g id="ytick_3">
     <g id="line2d_3">
      <path clip-path="url(#p324f4e53e0)" d="M 48.238125 272.951558 
L 993.038125 272.951558 
" style="fill:none;stroke:#dedede;stroke-linecap:square;"/>
     </g>
     <g id="text_9">
      <!-- 1000 -->
      <g transform="translate(20.878125 275.990933)scale(0.08 -0.08)">
       <use xlink:href="#DejaVuSans-49"/>
       <use x="63.623047" xlink:href="#DejaVuSans-48"/>
       <use x="127.246094" xlink:href="#DejaVuSans-48"/>
       <use x="190.869141" xlink:href="#DejaVuSans-48"/>
      </g>
     </g>
    </g>
    <g id="ytick_4">
     <g id="line2d_4">
      <path clip-path="url(#p324f4e53e0)" d="M 48.238125 232.815387 
L 993.038125 232.815387 
" style="fill:none;stroke:#dedede;stroke-linecap:square;"/>
     </g>
     <g id="text_10">
      <!-- 1500 -->
      <g transform="translate(20.878125 235.854762)scale(0.08 -0.08)">
       <use xlink:href="#DejaVuSans-49"/>
       <use x="63.623047" xlink:href="#DejaVuSans-53"/>
       <use x="127.246094" xlink:href="#DejaVuSans-48"/>
       <use x="190.869141" xlink:href="#DejaVuSans-48"/>
      </g>
     </g>
    </g>
    <g id="ytick_5">
     <g id="line2d_5">
      <path clip-path="url(#p324f4e53e0)" d="M 48.238125 192.679216 
L 993.038125 192.679216 
" style="fill:none;stroke:#dedede;stroke-linecap:square;"/>
     </g>
     <g id="text_11">
      <!-- 2000 -->
      <g transform="translate(20.878125 195.718591)scale(0.08 -0.08)">
       <use xlink:href="#DejaVuSans-50"/>
       <use x="63.623047" xlink:href="#DejaVuSans-48"/>
       <use x="127.246094" xlink:href="#DejaVuSans-48"/>
       <use x="190.869141" xlink:href="#DejaVuSans-48"/>
      </g>
     </g>
    </g>
    <g id="ytick_6">
     <g id="line2d_6">
      <path clip-path="url(#p324f4e53e0)" d="M 48.238125 152.543045 
L 993.038125 152.543045 
" style="fill:none;stroke:#dedede;stroke-linecap:square;"/>
     </g>
     <g id="text_12">
      <!-- 2500 -->
      <g transform="translate(20.878125 155.58242)scale(0.08 -0.08)">
       <use xlink:href="#DejaVuSans-50"/>
       <use x="63.623047" xlink:href="#DejaVuSans-53"/>
       <use x="127.246094" xlink:href="#DejaVuSans-48"/>
       <use x="190.869141" xlink:href="#DejaVuSans-48"/>
      </g>
     </g>
    </g>
    <g id="ytick_7">
     <g id="line2d_7">
      <path clip-path="url(#p324f4e53e0)" d="M 48.238125 112.406874 
L 993.038125 112.406874 
" style="fill:none;stroke:#dedede;stroke-linecap:square;"/>
     </g>
     <g id="text_13">
      <!-- 3000 -->
      <g transform="translate(20.878125 115.446249)scale(0.08 -0.08)">
       <use xlink:href="#DejaVuSans-51"/>
       <use x="63.623047" xlink:href="#DejaVuSans-48"/>
       <use x="127.246094" xlink:href="#DejaVuSans-48"/>
       <use x="190.869141" xlink:href="#DejaVuSans-48"/>
      </g>
     </g>
    </g>
    <g id="ytick_8">
     <g id="line2d_8">
      <path clip-path="url(#p324f4e53e0)" d="M 48.238125 72.270704 
L 993.038125 72.270704 
" style="fill:none;stroke:#dedede;stroke-linecap:square;"/>
     </g>
     <g id="text_14">
      <!-- 3500 -->
      <g transform="translate(20.878125 75.310079)scale(0.08 -0.08)">
       <use xlink:href="#DejaVuSans-51"/>
       <use x="63.623047" xlink:href="#DejaVuSans-53"/>
       <use x="127.246094" xlink:href="#DejaVuSans-48"/>
       <use x="190.869141" xlink:href="#DejaVuSans-48"/>
      </g>
     </g>
    </g>
    <g id="text_15">
     <!-- Observed / Expected -->
     <defs>
      <path d="M 39.40625 66.21875 
Q 28.65625 66.21875 22.328125 58.203125 
Q 16.015625 50.203125 16.015625 36.375 
Q 16.015625 22.609375 22.328125 14.59375 
Q 28.65625 6.59375 39.40625 6.59375 
Q 50.140625 6.59375 56.421875 14.59375 
Q 62.703125 22.609375 62.703125 36.375 
Q 62.703125 50.203125 56.421875 58.203125 
Q 50.140625 66.21875 39.40625 66.21875 
z
M 39.40625 74.21875 
Q 54.734375 74.21875 63.90625 63.9375 
Q 73.09375 53.65625 73.09375 36.375 
Q 73.09375 19.140625 63.90625 8.859375 
Q 54.734375 -1.421875 39.40625 -1.421875 
Q 24.03125 -1.421875 14.8125 8.828125 
Q 5.609375 19.09375 5.609375 36.375 
Q 5.609375 53.65625 14.8125 63.9375 
Q 24.03125 74.21875 39.40625 74.21875 
z
" id="DejaVuSans-79"/>
      <path d="M 44.28125 53.078125 
L 44.28125 44.578125 
Q 40.484375 46.53125 36.375 47.5 
Q 32.28125 48.484375 27.875 48.484375 
Q 21.1875 48.484375 17.84375 46.4375 
Q 14.5 44.390625 14.5 40.28125 
Q 14.5 37.15625 16.890625 35.375 
Q 19.28125 33.59375 26.515625 31.984375 
L 29.59375 31.296875 
Q 39.15625 29.25 43.1875 25.515625 
Q 47.21875 21.78125 47.21875 15.09375 
Q 47.21875 7.46875 41.1875 3.015625 
Q 35.15625 -1.421875 24.609375 -1.421875 
Q 20.21875 -1.421875 15.453125 -0.5625 
Q 10.6875 0.296875 5.421875 2 
L 5.421875 11.28125 
Q 10.40625 8.6875 15.234375 7.390625 
Q 20.0625 6.109375 24.8125 6.109375 
Q 31.15625 6.109375 34.5625 8.28125 
Q 37.984375 10.453125 37.984375 14.40625 
Q 37.984375 18.0625 35.515625 20.015625 
Q 33.0625 21.96875 24.703125 23.78125 
L 21.578125 24.515625 
Q 13.234375 26.265625 9.515625 29.90625 
Q 5.8125 33.546875 5.8125 39.890625 
Q 5.8125 47.609375 11.28125 51.796875 
Q 16.75 56 26.8125 56 
Q 31.78125 56 36.171875 55.265625 
Q 40.578125 54.546875 44.28125 53.078125 
z
" id="DejaVuSans-115"/>
      <path d="M 2.984375 54.6875 
L 12.5 54.6875 
L 29.59375 8.796875 
L 46.6875 54.6875 
L 56.203125 54.6875 
L 35.6875 0 
L 23.484375 0 
z
" id="DejaVuSans-118"/>
      <path d="M 25.390625 72.90625 
L 33.6875 72.90625 
L 8.296875 -9.28125 
L 0 -9.28125 
z
" id="DejaVuSans-47"/>
      <path d="M 9.8125 72.90625 
L 55.90625 72.90625 
L 55.90625 64.59375 
L 19.671875 64.59375 
L 19.671875 43.015625 
L 54.390625 43.015625 
L 54.390625 34.71875 
L 19.671875 34.71875 
L 19.671875 8.296875 
L 56.78125 8.296875 
L 56.78125 0 
L 9.8125 0 
z
" id="DejaVuSans-69"/>
      <path d="M 54.890625 54.6875 
L 35.109375 28.078125 
L 55.90625 0 
L 45.3125 0 
L 29.390625 21.484375 
L 13.484375 0 
L 2.875 0 
L 24.125 28.609375 
L 4.6875 54.6875 
L 15.28125 54.6875 
L 29.78125 35.203125 
L 44.28125 54.6875 
z
" id="DejaVuSans-120"/>
      <path d="M 48.78125 52.59375 
L 48.78125 44.1875 
Q 44.96875 46.296875 41.140625 47.34375 
Q 37.3125 48.390625 33.40625 48.390625 
Q 24.65625 48.390625 19.8125 42.84375 
Q 14.984375 37.3125 14.984375 27.296875 
Q 14.984375 17.28125 19.8125 11.734375 
Q 24.65625 6.203125 33.40625 6.203125 
Q 37.3125 6.203125 41.140625 7.25 
Q 44.96875 8.296875 48.78125 10.40625 
L 48.78125 2.09375 
Q 45.015625 0.34375 40.984375 -0.53125 
Q 36.96875 -1.421875 32.421875 -1.421875 
Q 20.0625 -1.421875 12.78125 6.34375 
Q 5.515625 14.109375 5.515625 27.296875 
Q 5.515625 40.671875 12.859375 48.328125 
Q 20.21875 56 33.015625 56 
Q 37.15625 56 41.109375 55.140625 
Q 45.0625 54.296875 48.78125 52.59375 
z
" id="DejaVuSans-99"/>
     </defs>
     <g transform="translate(14.798438 246.489119)rotate(-90)scale(0.1 -0.1)">
      <use xlink:href="#DejaVuSans-79"/>
      <use x="78.710938" xlink:href="#DejaVuSans-98"/>
      <use x="142.1875" xlink:href="#DejaVuSans-115"/>
      <use x="194.287109" xlink:href="#DejaVuSans-101"/>
      <use x="255.810547" xlink:href="#DejaVuSans-114"/>
      <use x="296.923828" xlink:href="#DejaVuSans-118"/>
      <use x="356.103516" xlink:href="#DejaVuSans-101"/>
      <use x="417.626953" xlink:href="#DejaVuSans-100"/>
      <use x="481.103516" xlink:href="#DejaVuSans-32"/>
      <use x="512.890625" xlink:href="#DejaVuSans-47"/>
      <use x="546.582031" xlink:href="#DejaVuSans-32"/>
      <use x="578.369141" xlink:href="#DejaVuSans-69"/>
      <use x="641.552734" xlink:href="#DejaVuSans-120"/>
      <use x="700.732422" xlink:href="#DejaVuSans-112"/>
      <use x="764.208984" xlink:href="#DejaVuSans-101"/>
      <use x="825.732422" xlink:href="#DejaVuSans-99"/>
      <use x="880.712891" xlink:href="#DejaVuSans-116"/>
      <use x="919.921875" xlink:href="#DejaVuSans-101"/>
      <use x="981.445312" xlink:href="#DejaVuSans-100"/>
     </g>
    </g>
   </g>
   <g id="line2d_9">
    <path clip-path="url(#p324f4e53e0)" d="M 91.18358 353.123487 
L 109.077519 353.13881 
L 126.971458 353.156356 
L 144.865398 353.207431 
L 162.759337 353.190651 
L 180.653277 353.183418 
L 198.547216 352.76926 
L 216.441155 351.085195 
L 234.335095 345.841106 
L 252.229034 342.610113 
L 270.122973 332.754453 
L 288.016913 328.339474 
L 305.910852 336.366708 
L 323.804792 333.557176 
L 341.698731 338.373517 
L 359.59267 336.968751 
L 377.48661 340.179644 
L 395.380549 340.982368 
L 413.274489 342.788496 
L 431.168428 342.387134 
L 449.062367 341.985772 
L 466.956307 344.795304 
L 484.850246 344.795304 
L 502.744186 340.982368 
L 520.638125 344.393942 
L 538.532064 341.985772 
L 556.426004 340.982368 
L 574.319943 336.166027 
L 592.213883 338.373517 
L 610.107822 337.169432 
L 628.001761 340.380325 
L 645.895701 344.594623 
L 663.78964 338.774878 
L 681.68358 299.24075 
L 699.577519 339.376921 
L 717.471458 340.982368 
L 735.365398 332.553772 
L 753.259337 345.999389 
L 771.153277 343.7919 
L 789.047216 342.186453 
L 806.941155 342.788496 
L 824.835095 338.975559 
L 842.729034 338.774878 
L 860.622973 330.948325 
L 878.516913 341.38373 
L 896.410852 330.346283 
L 914.304792 342.587815 
L 932.198731 347.805517 
L 950.09267 314.893857 
" style="fill:none;stroke:#7cb5ec;stroke-linecap:square;"/>
   </g>
   <g id="line2d_10">
    <path clip-path="url(#p324f4e53e0)" d="M 91.18358 353.123755 
L 109.077519 353.135586 
L 126.971458 353.15682 
L 144.865398 353.208188 
L 162.759337 353.192063 
L 180.653277 353.180349 
L 198.547216 352.799544 
L 216.441155 351.033134 
L 234.335095 346.9359 
L 252.229034 342.520921 
L 270.122973 333.958538 
L 288.016913 335.162623 
L 305.910852 337.972155 
L 323.804792 339.577602 
L 341.698731 341.785091 
L 359.59267 336.76807 
L 377.48661 343.189857 
L 395.380549 344.594623 
L 413.274489 345.798708 
L 431.168428 344.995985 
L 449.062367 340.179644 
L 466.956307 347.404155 
L 484.850246 342.989176 
L 502.744186 339.376921 
L 520.638125 344.193262 
L 538.532064 346.400751 
L 556.426004 344.193262 
L 574.319943 338.774878 
L 592.213883 338.172836 
L 610.107822 336.166027 
L 628.001761 341.985772 
L 645.895701 342.989176 
L 663.78964 338.774878 
L 681.68358 308.873431 
L 699.577519 339.978964 
L 717.471458 341.985772 
L 735.365398 336.366708 
L 753.259337 346.802113 
L 771.153277 342.788496 
L 789.047216 345.196666 
L 806.941155 339.978964 
L 824.835095 340.179644 
L 842.729034 342.186453 
L 860.622973 332.353091 
L 878.516913 339.17624 
L 896.410852 332.955134 
L 914.304792 343.7919 
L 932.198731 348.808921 
L 950.09267 336.166027 
" style="fill:none;stroke:#434348;stroke-linecap:square;"/>
   </g>
   <g id="line2d_11">
    <path clip-path="url(#p324f4e53e0)" d="M 91.18358 353.123302 
L 109.077519 353.134502 
L 126.971458 353.1566 
L 144.865398 353.208297 
L 162.759337 353.193298 
L 180.653277 353.180519 
L 198.547216 352.815654 
L 216.441155 351.155025 
L 234.335095 346.37326 
L 252.229034 342.565517 
L 270.122973 334.279627 
L 288.016913 334.119083 
L 305.910852 341.825227 
L 323.804792 339.577602 
L 341.698731 341.664683 
L 359.59267 343.912308 
L 377.48661 345.6783 
L 395.380549 343.751764 
L 413.274489 346.962657 
L 431.168428 347.604836 
L 449.062367 344.072853 
L 466.956307 346.962657 
L 484.850246 346.641568 
L 502.744186 344.072853 
L 520.638125 347.604836 
L 538.532064 346.641568 
L 556.426004 345.999389 
L 574.319943 342.146317 
L 592.213883 338.614334 
L 610.107822 342.306862 
L 628.001761 345.838845 
L 645.895701 345.999389 
L 663.78964 344.393942 
L 681.68358 325.12858 
L 699.577519 343.591219 
L 717.471458 346.641568 
L 735.365398 341.183049 
L 753.259337 348.889194 
L 771.153277 344.072853 
L 789.047216 347.444291 
L 806.941155 344.875576 
L 824.835095 343.430674 
L 842.729034 345.036121 
L 860.622973 331.068734 
L 878.516913 344.072853 
L 896.410852 337.81161 
L 914.304792 349.049738 
L 932.198731 349.852462 
L 950.09267 332.834725 
" style="fill:none;stroke:#90ed7d;stroke-linecap:square;"/>
   </g>
   <g id="line2d_12">
    <path clip-path="url(#p324f4e53e0)" d="M 91.18358 353.12397 
L 109.077519 353.136311 
L 126.971458 353.155571 
L 144.865398 353.207009 
L 162.759337 353.193212 
L 180.653277 353.179583 
L 198.547216 352.742543 
L 216.441155 351.156195 
L 234.335095 346.712921 
L 252.229034 342.253347 
L 270.122973 333.637449 
L 288.016913 336.045619 
L 305.910852 340.219781 
L 323.804792 342.146317 
L 341.698731 343.591219 
L 359.59267 340.861959 
L 377.48661 343.751764 
L 395.380549 342.627951 
L 413.274489 347.283747 
L 431.168428 345.196666 
L 449.062367 345.196666 
L 466.956307 347.765381 
L 484.850246 345.6783 
L 502.744186 344.875576 
L 520.638125 347.123202 
L 538.532064 345.036121 
L 556.426004 345.999389 
L 574.319943 343.27013 
L 592.213883 338.935423 
L 610.107822 343.27013 
L 628.001761 342.788496 
L 645.895701 347.123202 
L 663.78964 343.27013 
L 681.68358 325.289125 
L 699.577519 344.715032 
L 717.471458 344.393942 
L 735.365398 342.146317 
L 753.259337 347.925925 
L 771.153277 348.08647 
L 789.047216 343.27013 
L 806.941155 342.146317 
L 824.835095 342.146317 
L 842.729034 341.985772 
L 860.622973 339.256513 
L 878.516913 343.751764 
L 896.410852 337.651066 
L 914.304792 349.210283 
L 932.198731 349.531372 
L 950.09267 326.573483 
" style="fill:none;stroke:#f7a35c;stroke-linecap:square;"/>
   </g>
   <g id="line2d_13">
    <path clip-path="url(#p324f4e53e0)" d="M 91.18358 353.121712 
L 109.077519 353.140741 
L 126.971458 353.137236 
L 144.865398 353.200327 
L 162.759337 353.18667 
L 180.653277 353.197811 
L 198.547216 352.768243 
L 216.441155 350.61434 
L 234.335095 345.196666 
L 252.229034 328.919219 
L 270.122973 324.125176 
L 288.016913 295.427814 
L 305.910852 327.737431 
L 323.804792 330.346283 
L 341.698731 334.159219 
L 359.59267 336.76807 
L 377.48661 341.38373 
L 395.380549 342.387134 
L 413.274489 343.390538 
L 431.168428 314.291814 
L 449.062367 325.12858 
L 466.956307 336.166027 
L 484.850246 333.557176 
L 502.744186 326.131985 
L 520.638125 336.166027 
L 538.532064 340.380325 
L 556.426004 338.574198 
L 574.319943 318.706793 
L 592.213883 314.291814 
L 610.107822 339.577602 
L 628.001761 346.802113 
L 645.895701 339.978964 
L 663.78964 346.20007 
L 681.68358 346.400751 
L 699.577519 344.795304 
L 717.471458 340.179644 
L 735.365398 347.805517 
L 753.259337 347.404155 
L 771.153277 345.798708 
L 789.047216 344.393942 
L 806.941155 331.550368 
L 824.835095 347.805517 
L 842.729034 331.951729 
L 860.622973 326.332665 
L 878.516913 336.166027 
L 896.410852 331.751049 
L 914.304792 342.587815 
L 932.198731 343.390538 
L 950.09267 50.39649 
" style="fill:none;stroke:#8085e9;stroke-linecap:square;"/>
   </g>
   <g id="line2d_14">
    <path clip-path="url(#p324f4e53e0)" d="M 91.18358 353.117767 
L 109.077519 353.141003 
L 126.971458 353.143027 
L 144.865398 353.202426 
L 162.759337 353.198341 
L 180.653277 353.200715 
L 198.547216 352.76374 
L 216.441155 350.850758 
L 234.335095 346.790479 
L 252.229034 340.097011 
L 270.122973 320.914282 
L 288.016913 285.995814 
L 305.910852 318.10475 
L 323.804792 322.118368 
L 341.698731 331.751049 
L 359.59267 336.366708 
L 377.48661 338.172836 
L 395.380549 341.58441 
L 413.274489 345.397347 
L 431.168428 290.009431 
L 449.062367 320.111559 
L 466.956307 335.965347 
L 484.850246 325.529942 
L 502.744186 309.676155 
L 520.638125 332.15241 
L 538.532064 337.370112 
L 556.426004 337.771474 
L 574.319943 320.914282 
L 592.213883 319.509516 
L 610.107822 337.771474 
L 628.001761 343.189857 
L 645.895701 340.581006 
L 663.78964 342.387134 
L 681.68358 341.985772 
L 699.577519 344.393942 
L 717.471458 341.985772 
L 735.365398 345.196666 
L 753.259337 343.189857 
L 771.153277 344.594623 
L 789.047216 342.186453 
L 806.941155 320.31224 
L 824.835095 346.802113 
L 842.729034 328.540155 
L 860.622973 322.118368 
L 878.516913 343.992581 
L 896.410852 323.924495 
L 914.304792 346.802113 
L 932.198731 346.601432 
L 950.09267 188.86628 
" style="fill:none;stroke:#f15c80;stroke-linecap:square;"/>
   </g>
   <g id="line2d_15">
    <path clip-path="url(#p324f4e53e0)" d="M 91.18358 353.121371 
L 109.077519 353.14416 
L 126.971458 353.143249 
L 144.865398 353.200858 
L 162.759337 353.188488 
L 180.653277 353.181924 
L 198.547216 352.616318 
L 216.441155 350.15584 
L 234.335095 345.196666 
L 252.229034 337.659985 
L 270.122973 309.475474 
L 288.016913 272.951558 
L 305.910852 310.88024 
L 323.804792 312.285006 
L 341.698731 325.529942 
L 359.59267 331.550368 
L 377.48661 336.76807 
L 395.380549 335.563985 
L 413.274489 345.598028 
L 431.168428 290.812154 
L 449.062367 306.26458 
L 466.956307 336.76807 
L 484.850246 326.934708 
L 502.744186 304.257771 
L 520.638125 321.917687 
L 538.532064 335.764666 
L 556.426004 332.553772 
L 574.319943 304.257771 
L 592.213883 309.274793 
L 610.107822 335.563985 
L 628.001761 341.785091 
L 645.895701 335.965347 
L 663.78964 337.972155 
L 681.68358 341.985772 
L 699.577519 341.985772 
L 717.471458 335.563985 
L 735.365398 342.788496 
L 753.259337 343.591219 
L 771.153277 345.798708 
L 789.047216 338.774878 
L 806.941155 305.060495 
L 824.835095 344.795304 
L 842.729034 333.557176 
L 860.622973 315.495899 
L 878.516913 337.972155 
L 896.410852 321.114963 
L 914.304792 344.193262 
L 932.198731 345.798708 
L 950.09267 227.397004 
" style="fill:none;stroke:#e4d354;stroke-linecap:square;"/>
   </g>
   <g id="line2d_16">
    <path clip-path="url(#p324f4e53e0)" d="M 91.18358 353.121776 
L 109.077519 353.145443 
L 126.971458 353.140217 
L 144.865398 353.203042 
L 162.759337 353.193811 
L 180.653277 353.190718 
L 198.547216 352.708699 
L 216.441155 350.661783 
L 234.335095 345.658507 
L 252.229034 340.112751 
L 270.122973 326.412938 
L 288.016913 296.230537 
L 305.910852 322.078231 
L 323.804792 320.151695 
L 341.698731 332.513636 
L 359.59267 334.761261 
L 377.48661 337.81161 
L 395.380549 335.563985 
L 413.274489 345.35721 
L 431.168428 291.093107 
L 449.062367 317.58298 
L 466.956307 334.279627 
L 484.850246 328.500019 
L 502.744186 308.592478 
L 520.638125 325.289125 
L 538.532064 334.119083 
L 556.426004 334.279627 
L 574.319943 317.261891 
L 592.213883 321.757142 
L 610.107822 336.848342 
L 628.001761 339.738147 
L 645.895701 343.591219 
L 663.78964 343.109585 
L 681.68358 344.393942 
L 699.577519 342.94904 
L 717.471458 340.219781 
L 735.365398 346.481023 
L 753.259337 346.481023 
L 771.153277 345.999389 
L 789.047216 344.554487 
L 806.941155 315.014265 
L 824.835095 346.159934 
L 842.729034 335.242895 
L 860.622973 320.793874 
L 878.516913 339.417057 
L 896.410852 332.67418 
L 914.304792 344.393942 
L 932.198731 346.320479 
L 950.09267 299.923065 
" style="fill:none;stroke:#2b908f;stroke-linecap:square;"/>
   </g>
   <g id="line2d_17">
    <path clip-path="url(#p324f4e53e0)" d="M 91.18358 353.119672 
L 109.077519 353.142921 
L 126.971458 353.139586 
L 144.865398 353.202887 
L 162.759337 353.198294 
L 180.653277 353.194429 
L 198.547216 352.776905 
L 216.441155 350.605698 
L 234.335095 346.618633 
L 252.229034 337.311089 
L 270.122973 318.10475 
L 288.016913 284.390367 
L 305.910852 319.710197 
L 323.804792 313.28841 
L 341.698731 330.747644 
L 359.59267 332.955134 
L 377.48661 336.76807 
L 395.380549 333.958538 
L 413.274489 346.400751 
L 431.168428 290.009431 
L 449.062367 314.091133 
L 466.956307 333.155815 
L 484.850246 319.308836 
L 502.744186 311.682963 
L 520.638125 323.924495 
L 538.532064 337.169432 
L 556.426004 335.363304 
L 574.319943 307.870027 
L 592.213883 309.876835 
L 610.107822 332.353091 
L 628.001761 339.376921 
L 645.895701 333.557176 
L 663.78964 343.992581 
L 681.68358 343.189857 
L 699.577519 343.992581 
L 717.471458 339.17624 
L 735.365398 343.992581 
L 753.259337 342.587815 
L 771.153277 343.189857 
L 789.047216 339.17624 
L 806.941155 304.257771 
L 824.835095 346.400751 
L 842.729034 328.740836 
L 860.622973 305.461857 
L 878.516913 336.968751 
L 896.410852 328.941517 
L 914.304792 344.594623 
L 932.198731 346.802113 
L 950.09267 289.608069 
" style="fill:none;stroke:#f45b5b;stroke-linecap:square;"/>
   </g>
   <g id="line2d_18">
    <path clip-path="url(#p324f4e53e0)" d="M 91.18358 353.12143 
L 109.077519 353.144414 
L 126.971458 353.141835 
L 144.865398 353.203174 
L 162.759337 353.195819 
L 180.653277 353.189014 
L 198.547216 352.703234 
L 216.441155 350.448526 
L 234.335095 345.919117 
L 252.229034 339.220836 
L 270.122973 316.499304 
L 288.016913 278.16926 
L 305.910852 314.091133 
L 323.804792 311.281601 
L 341.698731 328.339474 
L 359.59267 329.944921 
L 377.48661 333.958538 
L 395.380549 334.961942 
L 413.274489 343.189857 
L 431.168428 277.767899 
L 449.062367 304.859814 
L 466.956307 333.757857 
L 484.850246 319.910878 
L 502.744186 299.040069 
L 520.638125 315.295218 
L 538.532064 334.3599 
L 556.426004 329.543559 
L 574.319943 317.502708 
L 592.213883 314.492495 
L 610.107822 334.3599 
L 628.001761 339.17624 
L 645.895701 335.162623 
L 663.78964 338.774878 
L 681.68358 343.7919 
L 699.577519 344.393942 
L 717.471458 337.570793 
L 735.365398 345.598028 
L 753.259337 347.203474 
L 771.153277 341.985772 
L 789.047216 340.982368 
L 806.941155 303.455048 
L 824.835095 347.805517 
L 842.729034 331.149006 
L 860.622973 316.097942 
L 878.516913 338.574198 
L 896.410852 326.131985 
L 914.304792 346.802113 
L 932.198731 344.795304 
L 950.09267 233.41743 
" style="fill:none;stroke:#91e8e1;stroke-linecap:square;"/>
   </g>
   <g id="line2d_19">
    <path clip-path="url(#p324f4e53e0)" d="M 91.18358 353.124015 
L 109.077519 353.133688 
L 126.971458 353.155257 
L 144.865398 353.206227 
L 162.759337 353.190658 
L 180.653277 353.176334 
L 198.547216 352.749627 
L 216.441155 350.932389 
L 234.335095 345.865602 
L 252.229034 342.922283 
L 270.122973 332.032002 
L 288.016913 334.761261 
L 305.910852 337.972155 
L 323.804792 337.490521 
L 341.698731 338.614334 
L 359.59267 342.627951 
L 377.48661 344.072853 
L 395.380549 344.072853 
L 413.274489 349.210283 
L 431.168428 346.320479 
L 449.062367 344.072853 
L 466.956307 345.999389 
L 484.850246 345.6783 
L 502.744186 346.320479 
L 520.638125 345.036121 
L 538.532064 348.247015 
L 556.426004 348.568104 
L 574.319943 345.036121 
L 592.213883 344.072853 
L 610.107822 345.999389 
L 628.001761 344.393942 
L 645.895701 346.159934 
L 663.78964 346.159934 
L 681.68358 346.159934 
L 699.577519 347.604836 
L 717.471458 346.802113 
L 735.365398 342.146317 
L 753.259337 344.715032 
L 771.153277 345.196666 
L 789.047216 348.08647 
L 806.941155 345.6783 
L 824.835095 346.802113 
L 842.729034 344.233398 
L 860.622973 335.40344 
L 878.516913 347.765381 
L 896.410852 336.527253 
L 914.304792 348.728649 
L 932.198731 350.49464 
L 950.09267 329.623831 
" style="fill:none;stroke:#7cb5ec;stroke-linecap:square;"/>
   </g>
   <g id="line2d_20">
    <path clip-path="url(#p324f4e53e0)" d="M 91.18358 353.122431 
L 109.077519 353.133632 
L 126.971458 353.155679 
L 144.865398 353.206113 
L 162.759337 353.187507 
L 180.653277 353.160255 
L 198.547216 352.692889 
L 216.441155 350.611601 
L 234.335095 345.526552 
L 252.229034 341.183049 
L 270.122973 328.178929 
L 288.016913 328.821108 
L 305.910852 336.366708 
L 323.804792 336.045619 
L 341.698731 338.774878 
L 359.59267 337.81161 
L 377.48661 341.825227 
L 395.380549 341.664683 
L 413.274489 346.320479 
L 431.168428 346.481023 
L 449.062367 342.627951 
L 466.956307 347.765381 
L 484.850246 345.517755 
L 502.744186 343.912308 
L 520.638125 344.875576 
L 538.532064 346.159934 
L 556.426004 346.481023 
L 574.319943 341.825227 
L 592.213883 344.233398 
L 610.107822 342.788496 
L 628.001761 343.751764 
L 645.895701 343.109585 
L 663.78964 342.467406 
L 681.68358 344.072853 
L 699.577519 344.233398 
L 717.471458 344.715032 
L 735.365398 340.059236 
L 753.259337 343.591219 
L 771.153277 346.962657 
L 789.047216 345.196666 
L 806.941155 344.554487 
L 824.835095 344.233398 
L 842.729034 343.109585 
L 860.622973 335.082351 
L 878.516913 345.6783 
L 896.410852 336.045619 
L 914.304792 346.320479 
L 932.198731 348.728649 
L 950.09267 326.252393 
" style="fill:none;stroke:#434348;stroke-linecap:square;"/>
   </g>
   <g id="line2d_21">
    <path clip-path="url(#p324f4e53e0)" d="M 91.18358 353.122461 
L 109.077519 353.141464 
L 126.971458 353.131622 
L 144.865398 353.198874 
L 162.759337 353.187519 
L 180.653277 353.191622 
L 198.547216 352.670881 
L 216.441155 350.620702 
L 234.335095 344.744427 
L 252.229034 338.284325 
L 270.122973 321.114963 
L 288.016913 288.203303 
L 305.910852 310.478878 
L 323.804792 315.69658 
L 341.698731 328.941517 
L 359.59267 336.968751 
L 377.48661 338.774878 
L 395.380549 334.560581 
L 413.274489 345.397347 
L 431.168428 290.611473 
L 449.062367 315.69658 
L 466.956307 333.557176 
L 484.850246 325.329261 
L 502.744186 310.88024 
L 520.638125 327.33607 
L 538.532064 338.172836 
L 556.426004 338.975559 
L 574.319943 317.101346 
L 592.213883 307.468665 
L 610.107822 334.3599 
L 628.001761 342.186453 
L 645.895701 340.982368 
L 663.78964 340.179644 
L 681.68358 345.798708 
L 699.577519 343.591219 
L 717.471458 338.574198 
L 735.365398 348.006198 
L 753.259337 345.798708 
L 771.153277 344.995985 
L 789.047216 341.58441 
L 806.941155 330.346283 
L 824.835095 347.203474 
L 842.729034 329.944921 
L 860.622973 319.910878 
L 878.516913 339.778283 
L 896.410852 327.737431 
L 914.304792 344.995985 
L 932.198731 346.601432 
L 950.09267 289.608069 
" style="fill:none;stroke:#90ed7d;stroke-linecap:square;"/>
   </g>
   <g id="line2d_22">
    <path clip-path="url(#p324f4e53e0)" d="M 91.18358 353.124178 
L 109.077519 353.13453 
L 126.971458 353.155593 
L 144.865398 353.205382 
L 162.759337 353.185228 
L 180.653277 353.163782 
L 198.547216 352.694723 
L 216.441155 350.697114 
L 234.335095 345.18567 
L 252.229034 338.5519 
L 270.122973 325.610214 
L 288.016913 325.931304 
L 305.910852 332.353091 
L 323.804792 336.045619 
L 341.698731 337.329976 
L 359.59267 337.972155 
L 377.48661 339.256513 
L 395.380549 343.751764 
L 413.274489 345.35721 
L 431.168428 345.036121 
L 449.062367 343.912308 
L 466.956307 346.641568 
L 484.850246 348.247015 
L 502.744186 348.08647 
L 520.638125 346.802113 
L 538.532064 350.013006 
L 556.426004 348.889194 
L 574.319943 346.481023 
L 592.213883 341.183049 
L 610.107822 345.35721 
L 628.001761 347.123202 
L 645.895701 344.233398 
L 663.78964 345.838845 
L 681.68358 345.517755 
L 699.577519 349.210283 
L 717.471458 347.925925 
L 735.365398 344.554487 
L 753.259337 346.962657 
L 771.153277 347.925925 
L 789.047216 345.036121 
L 806.941155 344.715032 
L 824.835095 346.802113 
L 842.729034 341.985772 
L 860.622973 337.169432 
L 878.516913 347.765381 
L 896.410852 335.724529 
L 914.304792 347.925925 
L 932.198731 350.334096 
L 950.09267 326.252393 
" style="fill:none;stroke:#f7a35c;stroke-linecap:square;"/>
   </g>
   <g id="line2d_23">
    <path clip-path="url(#p324f4e53e0)" d="M 91.18358 353.123524 
L 109.077519 353.14263 
L 126.971458 353.133153 
L 144.865398 353.201019 
L 162.759337 353.187078 
L 180.653277 353.183081 
L 198.547216 352.66391 
L 216.441155 350.744818 
L 234.335095 344.834875 
L 252.229034 337.08024 
L 270.122973 318.506112 
L 288.016913 278.16926 
L 305.910852 313.890452 
L 323.804792 317.302027 
L 341.698731 324.325857 
L 359.59267 338.172836 
L 377.48661 332.15241 
L 395.380549 338.774878 
L 413.274489 342.989176 
L 431.168428 293.421005 
L 449.062367 314.291814 
L 466.956307 335.363304 
L 484.850246 326.131985 
L 502.744186 307.468665 
L 520.638125 325.529942 
L 538.532064 338.373517 
L 556.426004 333.958538 
L 574.319943 311.883644 
L 592.213883 311.281601 
L 610.107822 331.349687 
L 628.001761 344.193262 
L 645.895701 341.58441 
L 663.78964 341.38373 
L 681.68358 346.400751 
L 699.577519 343.189857 
L 717.471458 332.955134 
L 735.365398 344.193262 
L 753.259337 344.995985 
L 771.153277 345.598028 
L 789.047216 342.387134 
L 806.941155 326.332665 
L 824.835095 346.802113 
L 842.729034 335.563985 
L 860.622973 314.893857 
L 878.516913 338.373517 
L 896.410852 322.72041 
L 914.304792 344.594623 
L 932.198731 345.999389 
L 950.09267 262.716835 
" style="fill:none;stroke:#8085e9;stroke-linecap:square;"/>
   </g>
   <g id="line2d_24">
    <path clip-path="url(#p324f4e53e0)" d="M 91.18358 353.123352 
L 109.077519 353.134629 
L 126.971458 353.154548 
L 144.865398 353.207239 
L 162.759337 353.187541 
L 180.653277 353.177559 
L 198.547216 352.723239 
L 216.441155 351.037937 
L 234.335095 345.586879 
L 252.229034 342.387134 
L 270.122973 333.316359 
L 288.016913 333.155815 
L 305.910852 339.256513 
L 323.804792 339.738147 
L 341.698731 343.27013 
L 359.59267 339.577602 
L 377.48661 345.196666 
L 395.380549 342.788496 
L 413.274489 347.123202 
L 431.168428 345.35721 
L 449.062367 342.146317 
L 466.956307 348.247015 
L 484.850246 347.123202 
L 502.744186 345.036121 
L 520.638125 345.838845 
L 538.532064 347.444291 
L 556.426004 347.283747 
L 574.319943 342.94904 
L 592.213883 344.072853 
L 610.107822 346.159934 
L 628.001761 345.196666 
L 645.895701 344.072853 
L 663.78964 343.591219 
L 681.68358 343.751764 
L 699.577519 346.802113 
L 717.471458 345.838845 
L 735.365398 343.109585 
L 753.259337 346.802113 
L 771.153277 346.802113 
L 789.047216 347.604836 
L 806.941155 346.641568 
L 824.835095 345.6783 
L 842.729034 344.072853 
L 860.622973 339.095968 
L 878.516913 347.283747 
L 896.410852 336.848342 
L 914.304792 348.728649 
L 932.198731 350.976274 
L 950.09267 338.293244 
" style="fill:none;stroke:#f15c80;stroke-linecap:square;"/>
   </g>
   <g id="line2d_25">
    <path clip-path="url(#p324f4e53e0)" d="M 91.18358 353.122393 
L 109.077519 353.142431 
L 126.971458 353.134364 
L 144.865398 353.200479 
L 162.759337 353.187419 
L 180.653277 353.185254 
L 198.547216 352.681285 
L 216.441155 350.622268 
L 234.335095 344.161269 
L 252.229034 338.302688 
L 270.122973 320.914282 
L 288.016913 274.557005 
L 305.910852 317.703389 
L 323.804792 311.682963 
L 341.698731 330.346283 
L 359.59267 337.570793 
L 377.48661 338.975559 
L 395.380549 338.574198 
L 413.274489 344.795304 
L 431.168428 290.410792 
L 449.062367 317.302027 
L 466.956307 341.183049 
L 484.850246 325.329261 
L 502.744186 311.080921 
L 520.638125 324.526538 
L 538.532064 341.183049 
L 556.426004 334.961942 
L 574.319943 316.699984 
L 592.213883 308.873431 
L 610.107822 336.968751 
L 628.001761 344.995985 
L 645.895701 335.563985 
L 663.78964 342.587815 
L 681.68358 346.400751 
L 699.577519 348.60824 
L 717.471458 339.778283 
L 735.365398 348.60824 
L 753.259337 348.60824 
L 771.153277 344.995985 
L 789.047216 344.594623 
L 806.941155 332.353091 
L 824.835095 348.006198 
L 842.729034 335.563985 
L 860.622973 321.917687 
L 878.516913 338.574198 
L 896.410852 327.33607 
L 914.304792 342.587815 
L 932.198731 348.006198 
L 950.09267 195.087387 
" style="fill:none;stroke:#e4d354;stroke-linecap:square;"/>
   </g>
   <g id="line2d_26">
    <path clip-path="url(#p324f4e53e0)" d="M 48.238125 353.2239 
L 993.038125 353.2239 
" style="fill:none;stroke:#dedede;stroke-linecap:square;stroke-width:2;"/>
   </g>
   <g id="text_16">
    <!-- Cutadapt: Lengths of Trimmed Sequences -->
    <defs>
     <path d="M 64.40625 67.28125 
L 64.40625 56.890625 
Q 59.421875 61.53125 53.78125 63.8125 
Q 48.140625 66.109375 41.796875 66.109375 
Q 29.296875 66.109375 22.65625 58.46875 
Q 16.015625 50.828125 16.015625 36.375 
Q 16.015625 21.96875 22.65625 14.328125 
Q 29.296875 6.6875 41.796875 6.6875 
Q 48.140625 6.6875 53.78125 8.984375 
Q 59.421875 11.28125 64.40625 15.921875 
L 64.40625 5.609375 
Q 59.234375 2.09375 53.4375 0.328125 
Q 47.65625 -1.421875 41.21875 -1.421875 
Q 24.65625 -1.421875 15.125 8.703125 
Q 5.609375 18.84375 5.609375 36.375 
Q 5.609375 53.953125 15.125 64.078125 
Q 24.65625 74.21875 41.21875 74.21875 
Q 47.75 74.21875 53.53125 72.484375 
Q 59.328125 70.75 64.40625 67.28125 
z
" id="DejaVuSans-67"/>
     <path d="M 8.5 21.578125 
L 8.5 54.6875 
L 17.484375 54.6875 
L 17.484375 21.921875 
Q 17.484375 14.15625 20.5 10.265625 
Q 23.53125 6.390625 29.59375 6.390625 
Q 36.859375 6.390625 41.078125 11.03125 
Q 45.3125 15.671875 45.3125 23.6875 
L 45.3125 54.6875 
L 54.296875 54.6875 
L 54.296875 0 
L 45.3125 0 
L 45.3125 8.40625 
Q 42.046875 3.421875 37.71875 1 
Q 33.40625 -1.421875 27.6875 -1.421875 
Q 18.265625 -1.421875 13.375 4.4375 
Q 8.5 10.296875 8.5 21.578125 
z
M 31.109375 56 
z
" id="DejaVuSans-117"/>
     <path d="M 34.28125 27.484375 
Q 23.390625 27.484375 19.1875 25 
Q 14.984375 22.515625 14.984375 16.5 
Q 14.984375 11.71875 18.140625 8.90625 
Q 21.296875 6.109375 26.703125 6.109375 
Q 34.1875 6.109375 38.703125 11.40625 
Q 43.21875 16.703125 43.21875 25.484375 
L 43.21875 27.484375 
z
M 52.203125 31.203125 
L 52.203125 0 
L 43.21875 0 
L 43.21875 8.296875 
Q 40.140625 3.328125 35.546875 0.953125 
Q 30.953125 -1.421875 24.3125 -1.421875 
Q 15.921875 -1.421875 10.953125 3.296875 
Q 6 8.015625 6 15.921875 
Q 6 25.140625 12.171875 29.828125 
Q 18.359375 34.515625 30.609375 34.515625 
L 43.21875 34.515625 
L 43.21875 35.40625 
Q 43.21875 41.609375 39.140625 45 
Q 35.0625 48.390625 27.6875 48.390625 
Q 23 48.390625 18.546875 47.265625 
Q 14.109375 46.140625 10.015625 43.890625 
L 10.015625 52.203125 
Q 14.9375 54.109375 19.578125 55.046875 
Q 24.21875 56 28.609375 56 
Q 40.484375 56 46.34375 49.84375 
Q 52.203125 43.703125 52.203125 31.203125 
z
" id="DejaVuSans-97"/>
     <path d="M 11.71875 12.40625 
L 22.015625 12.40625 
L 22.015625 0 
L 11.71875 0 
z
M 11.71875 51.703125 
L 22.015625 51.703125 
L 22.015625 39.3125 
L 11.71875 39.3125 
z
" id="DejaVuSans-58"/>
     <path d="M 30.609375 48.390625 
Q 23.390625 48.390625 19.1875 42.75 
Q 14.984375 37.109375 14.984375 27.296875 
Q 14.984375 17.484375 19.15625 11.84375 
Q 23.34375 6.203125 30.609375 6.203125 
Q 37.796875 6.203125 41.984375 11.859375 
Q 46.1875 17.53125 46.1875 27.296875 
Q 46.1875 37.015625 41.984375 42.703125 
Q 37.796875 48.390625 30.609375 48.390625 
z
M 30.609375 56 
Q 42.328125 56 49.015625 48.375 
Q 55.71875 40.765625 55.71875 27.296875 
Q 55.71875 13.875 49.015625 6.21875 
Q 42.328125 -1.421875 30.609375 -1.421875 
Q 18.84375 -1.421875 12.171875 6.21875 
Q 5.515625 13.875 5.515625 27.296875 
Q 5.515625 40.765625 12.171875 48.375 
Q 18.84375 56 30.609375 56 
z
" id="DejaVuSans-111"/>
     <path d="M 37.109375 75.984375 
L 37.109375 68.5 
L 28.515625 68.5 
Q 23.6875 68.5 21.796875 66.546875 
Q 19.921875 64.59375 19.921875 59.515625 
L 19.921875 54.6875 
L 34.71875 54.6875 
L 34.71875 47.703125 
L 19.921875 47.703125 
L 19.921875 0 
L 10.890625 0 
L 10.890625 47.703125 
L 2.296875 47.703125 
L 2.296875 54.6875 
L 10.890625 54.6875 
L 10.890625 58.5 
Q 10.890625 67.625 15.140625 71.796875 
Q 19.390625 75.984375 28.609375 75.984375 
z
" id="DejaVuSans-102"/>
     <path d="M 53.515625 70.515625 
L 53.515625 60.890625 
Q 47.90625 63.578125 42.921875 64.890625 
Q 37.9375 66.21875 33.296875 66.21875 
Q 25.25 66.21875 20.875 63.09375 
Q 16.5 59.96875 16.5 54.203125 
Q 16.5 49.359375 19.40625 46.890625 
Q 22.3125 44.4375 30.421875 42.921875 
L 36.375 41.703125 
Q 47.40625 39.59375 52.65625 34.296875 
Q 57.90625 29 57.90625 20.125 
Q 57.90625 9.515625 50.796875 4.046875 
Q 43.703125 -1.421875 29.984375 -1.421875 
Q 24.8125 -1.421875 18.96875 -0.25 
Q 13.140625 0.921875 6.890625 3.21875 
L 6.890625 13.375 
Q 12.890625 10.015625 18.65625 8.296875 
Q 24.421875 6.59375 29.984375 6.59375 
Q 38.421875 6.59375 43.015625 9.90625 
Q 47.609375 13.234375 47.609375 19.390625 
Q 47.609375 24.75 44.3125 27.78125 
Q 41.015625 30.8125 33.5 32.328125 
L 27.484375 33.5 
Q 16.453125 35.6875 11.515625 40.375 
Q 6.59375 45.0625 6.59375 53.421875 
Q 6.59375 63.09375 13.40625 68.65625 
Q 20.21875 74.21875 32.171875 74.21875 
Q 37.3125 74.21875 42.625 73.28125 
Q 47.953125 72.359375 53.515625 70.515625 
z
" id="DejaVuSans-83"/>
     <path d="M 14.796875 27.296875 
Q 14.796875 17.390625 18.875 11.75 
Q 22.953125 6.109375 30.078125 6.109375 
Q 37.203125 6.109375 41.296875 11.75 
Q 45.40625 17.390625 45.40625 27.296875 
Q 45.40625 37.203125 41.296875 42.84375 
Q 37.203125 48.484375 30.078125 48.484375 
Q 22.953125 48.484375 18.875 42.84375 
Q 14.796875 37.203125 14.796875 27.296875 
z
M 45.40625 8.203125 
Q 42.578125 3.328125 38.25 0.953125 
Q 33.9375 -1.421875 27.875 -1.421875 
Q 17.96875 -1.421875 11.734375 6.484375 
Q 5.515625 14.40625 5.515625 27.296875 
Q 5.515625 40.1875 11.734375 48.09375 
Q 17.96875 56 27.875 56 
Q 33.9375 56 38.25 53.625 
Q 42.578125 51.265625 45.40625 46.390625 
L 45.40625 54.6875 
L 54.390625 54.6875 
L 54.390625 -20.796875 
L 45.40625 -20.796875 
z
" id="DejaVuSans-113"/>
    </defs>
    <g transform="translate(351.671875 19.3575)scale(0.16 -0.16)">
     <use xlink:href="#DejaVuSans-67"/>
     <use x="69.824219" xlink:href="#DejaVuSans-117"/>
     <use x="133.203125" xlink:href="#DejaVuSans-116"/>
     <use x="172.412109" xlink:href="#DejaVuSans-97"/>
     <use x="233.691406" xlink:href="#DejaVuSans-100"/>
     <use x="297.167969" xlink:href="#DejaVuSans-97"/>
     <use x="358.447266" xlink:href="#DejaVuSans-112"/>
     <use x="421.923828" xlink:href="#DejaVuSans-116"/>
     <use x="461.132812" xlink:href="#DejaVuSans-58"/>
     <use x="494.824219" xlink:href="#DejaVuSans-32"/>
     <use x="526.611328" xlink:href="#DejaVuSans-76"/>
     <use x="582.308594" xlink:href="#DejaVuSans-101"/>
     <use x="643.832031" xlink:href="#DejaVuSans-110"/>
     <use x="707.210938" xlink:href="#DejaVuSans-103"/>
     <use x="770.6875" xlink:href="#DejaVuSans-116"/>
     <use x="809.896484" xlink:href="#DejaVuSans-104"/>
     <use x="873.275391" xlink:href="#DejaVuSans-115"/>
     <use x="925.375" xlink:href="#DejaVuSans-32"/>
     <use x="957.162109" xlink:href="#DejaVuSans-111"/>
     <use x="1018.34375" xlink:href="#DejaVuSans-102"/>
     <use x="1053.548828" xlink:href="#DejaVuSans-32"/>
     <use x="1085.335938" xlink:href="#DejaVuSans-84"/>
     <use x="1146.201172" xlink:href="#DejaVuSans-114"/>
     <use x="1187.314453" xlink:href="#DejaVuSans-105"/>
     <use x="1215.097656" xlink:href="#DejaVuSans-109"/>
     <use x="1312.509766" xlink:href="#DejaVuSans-109"/>
     <use x="1409.921875" xlink:href="#DejaVuSans-101"/>
     <use x="1471.445312" xlink:href="#DejaVuSans-100"/>
     <use x="1534.921875" xlink:href="#DejaVuSans-32"/>
     <use x="1566.708984" xlink:href="#DejaVuSans-83"/>
     <use x="1630.185547" xlink:href="#DejaVuSans-101"/>
     <use x="1691.708984" xlink:href="#DejaVuSans-113"/>
     <use x="1755.185547" xlink:href="#DejaVuSans-117"/>
     <use x="1818.564453" xlink:href="#DejaVuSans-101"/>
     <use x="1880.087891" xlink:href="#DejaVuSans-110"/>
     <use x="1943.466797" xlink:href="#DejaVuSans-99"/>
     <use x="1998.447266" xlink:href="#DejaVuSans-101"/>
     <use x="2059.970703" xlink:href="#DejaVuSans-115"/>
    </g>
   </g>
  </g>
 </g>
 <defs>
  <clipPath id="p324f4e53e0">
   <rect height="317.968" width="944.8" x="48.238125" y="35.2559"/>
  </clipPath>
 </defs>
</svg>
