<?xml version="1.0" encoding="utf-8" standalone="no"?>
<!DOCTYPE svg PUBLIC "-//W3C//DTD SVG 1.1//EN"
  "http://www.w3.org/Graphics/SVG/1.1/DTD/svg11.dtd">
<!-- Created with matplotlib (https://matplotlib.org/) -->
<svg height="388.844525pt" version="1.1" viewBox="0 0 1000.058125 388.844525" width="1000.058125pt" xmlns="http://www.w3.org/2000/svg" xmlns:xlink="http://www.w3.org/1999/xlink">
 <defs>
  <style type="text/css">
*{stroke-linecap:butt;stroke-linejoin:round;}
  </style>
 </defs>
 <g id="figure_1">
  <g id="axes_1">
   <g id="patch_1">
    <path d="M 63.508125 353.2239 
L 985.223125 353.2239 
L 985.223125 35.2559 
L 63.508125 35.2559 
z
" style="fill:#ffffff;"/>
   </g>
   <g id="matplotlib.axis_1">
    <g id="xtick_1">
     <g id="text_1">
      <!-- 0 -->
      <defs>
       <path d="M 31.78125 66.40625 
Q 24.171875 66.40625 20.328125 58.90625 
Q 16.5 51.421875 16.5 36.375 
Q 16.5 21.390625 20.328125 13.890625 
Q 24.171875 6.390625 31.78125 6.390625 
Q 39.453125 6.390625 43.28125 13.890625 
Q 47.125 21.390625 47.125 36.375 
Q 47.125 51.421875 43.28125 58.90625 
Q 39.453125 66.40625 31.78125 66.40625 
z
M 31.78125 74.21875 
Q 44.046875 74.21875 50.515625 64.515625 
Q 56.984375 54.828125 56.984375 36.375 
Q 56.984375 17.96875 50.515625 8.265625 
Q 44.046875 -1.421875 31.78125 -1.421875 
Q 19.53125 -1.421875 13.0625 8.265625 
Q 6.59375 17.96875 6.59375 36.375 
Q 6.59375 54.828125 13.0625 64.515625 
Q 19.53125 74.21875 31.78125 74.21875 
z
" id="DejaVuSans-48"/>
      </defs>
      <g transform="translate(60.963125 366.30265)scale(0.08 -0.08)">
       <use xlink:href="#DejaVuSans-48"/>
      </g>
     </g>
    </g>
    <g id="xtick_2">
     <g id="text_2">
      <!-- 20 -->
      <defs>
       <path d="M 19.1875 8.296875 
L 53.609375 8.296875 
L 53.609375 0 
L 7.328125 0 
L 7.328125 8.296875 
Q 12.9375 14.109375 22.625 23.890625 
Q 32.328125 33.6875 34.8125 36.53125 
Q 39.546875 41.84375 41.421875 45.53125 
Q 43.3125 49.21875 43.3125 52.78125 
Q 43.3125 58.59375 39.234375 62.25 
Q 35.15625 65.921875 28.609375 65.921875 
Q 23.96875 65.921875 18.8125 64.3125 
Q 13.671875 62.703125 7.8125 59.421875 
L 7.8125 69.390625 
Q 13.765625 71.78125 18.9375 73 
Q 24.125 74.21875 28.421875 74.21875 
Q 39.75 74.21875 46.484375 68.546875 
Q 53.21875 62.890625 53.21875 53.421875 
Q 53.21875 48.921875 51.53125 44.890625 
Q 49.859375 40.875 45.40625 35.40625 
Q 44.1875 33.984375 37.640625 27.21875 
Q 31.109375 20.453125 19.1875 8.296875 
z
" id="DejaVuSans-50"/>
      </defs>
      <g transform="translate(242.761125 366.30265)scale(0.08 -0.08)">
       <use xlink:href="#DejaVuSans-50"/>
       <use x="63.623047" xlink:href="#DejaVuSans-48"/>
      </g>
     </g>
    </g>
    <g id="xtick_3">
     <g id="text_3">
      <!-- 40 -->
      <defs>
       <path d="M 37.796875 64.3125 
L 12.890625 25.390625 
L 37.796875 25.390625 
z
M 35.203125 72.90625 
L 47.609375 72.90625 
L 47.609375 25.390625 
L 58.015625 25.390625 
L 58.015625 17.1875 
L 47.609375 17.1875 
L 47.609375 0 
L 37.796875 0 
L 37.796875 17.1875 
L 4.890625 17.1875 
L 4.890625 26.703125 
z
" id="DejaVuSans-52"/>
      </defs>
      <g transform="translate(427.104125 366.30265)scale(0.08 -0.08)">
       <use xlink:href="#DejaVuSans-52"/>
       <use x="63.623047" xlink:href="#DejaVuSans-48"/>
      </g>
     </g>
    </g>
    <g id="xtick_4">
     <g id="text_4">
      <!-- 60 -->
      <defs>
       <path d="M 33.015625 40.375 
Q 26.375 40.375 22.484375 35.828125 
Q 18.609375 31.296875 18.609375 23.390625 
Q 18.609375 15.53125 22.484375 10.953125 
Q 26.375 6.390625 33.015625 6.390625 
Q 39.65625 6.390625 43.53125 10.953125 
Q 47.40625 15.53125 47.40625 23.390625 
Q 47.40625 31.296875 43.53125 35.828125 
Q 39.65625 40.375 33.015625 40.375 
z
M 52.59375 71.296875 
L 52.59375 62.3125 
Q 48.875 64.0625 45.09375 64.984375 
Q 41.3125 65.921875 37.59375 65.921875 
Q 27.828125 65.921875 22.671875 59.328125 
Q 17.53125 52.734375 16.796875 39.40625 
Q 19.671875 43.65625 24.015625 45.921875 
Q 28.375 48.1875 33.59375 48.1875 
Q 44.578125 48.1875 50.953125 41.515625 
Q 57.328125 34.859375 57.328125 23.390625 
Q 57.328125 12.15625 50.6875 5.359375 
Q 44.046875 -1.421875 33.015625 -1.421875 
Q 20.359375 -1.421875 13.671875 8.265625 
Q 6.984375 17.96875 6.984375 36.375 
Q 6.984375 53.65625 15.1875 63.9375 
Q 23.390625 74.21875 37.203125 74.21875 
Q 40.921875 74.21875 44.703125 73.484375 
Q 48.484375 72.75 52.59375 71.296875 
z
" id="DejaVuSans-54"/>
      </defs>
      <g transform="translate(611.447125 366.30265)scale(0.08 -0.08)">
       <use xlink:href="#DejaVuSans-54"/>
       <use x="63.623047" xlink:href="#DejaVuSans-48"/>
      </g>
     </g>
    </g>
    <g id="xtick_5">
     <g id="text_5">
      <!-- 80 -->
      <defs>
       <path d="M 31.78125 34.625 
Q 24.75 34.625 20.71875 30.859375 
Q 16.703125 27.09375 16.703125 20.515625 
Q 16.703125 13.921875 20.71875 10.15625 
Q 24.75 6.390625 31.78125 6.390625 
Q 38.8125 6.390625 42.859375 10.171875 
Q 46.921875 13.96875 46.921875 20.515625 
Q 46.921875 27.09375 42.890625 30.859375 
Q 38.875 34.625 31.78125 34.625 
z
M 21.921875 38.8125 
Q 15.578125 40.375 12.03125 44.71875 
Q 8.5 49.078125 8.5 55.328125 
Q 8.5 64.0625 14.71875 69.140625 
Q 20.953125 74.21875 31.78125 74.21875 
Q 42.671875 74.21875 48.875 69.140625 
Q 55.078125 64.0625 55.078125 55.328125 
Q 55.078125 49.078125 51.53125 44.71875 
Q 48 40.375 41.703125 38.8125 
Q 48.828125 37.15625 52.796875 32.3125 
Q 56.78125 27.484375 56.78125 20.515625 
Q 56.78125 9.90625 50.3125 4.234375 
Q 43.84375 -1.421875 31.78125 -1.421875 
Q 19.734375 -1.421875 13.25 4.234375 
Q 6.78125 9.90625 6.78125 20.515625 
Q 6.78125 27.484375 10.78125 32.3125 
Q 14.796875 37.15625 21.921875 38.8125 
z
M 18.3125 54.390625 
Q 18.3125 48.734375 21.84375 45.5625 
Q 25.390625 42.390625 31.78125 42.390625 
Q 38.140625 42.390625 41.71875 45.5625 
Q 45.3125 48.734375 45.3125 54.390625 
Q 45.3125 60.0625 41.71875 63.234375 
Q 38.140625 66.40625 31.78125 66.40625 
Q 25.390625 66.40625 21.84375 63.234375 
Q 18.3125 60.0625 18.3125 54.390625 
z
" id="DejaVuSans-56"/>
      </defs>
      <g transform="translate(795.790125 366.30265)scale(0.08 -0.08)">
       <use xlink:href="#DejaVuSans-56"/>
       <use x="63.623047" xlink:href="#DejaVuSans-48"/>
      </g>
     </g>
    </g>
    <g id="xtick_6">
     <g id="text_6">
      <!-- 100 -->
      <defs>
       <path d="M 12.40625 8.296875 
L 28.515625 8.296875 
L 28.515625 63.921875 
L 10.984375 60.40625 
L 10.984375 69.390625 
L 28.421875 72.90625 
L 38.28125 72.90625 
L 38.28125 8.296875 
L 54.390625 8.296875 
L 54.390625 0 
L 12.40625 0 
z
" id="DejaVuSans-49"/>
      </defs>
      <g transform="translate(977.588125 366.30265)scale(0.08 -0.08)">
       <use xlink:href="#DejaVuSans-49"/>
       <use x="63.623047" xlink:href="#DejaVuSans-48"/>
       <use x="127.246094" xlink:href="#DejaVuSans-48"/>
      </g>
     </g>
    </g>
    <g id="text_7">
     <!-- % GC -->
     <defs>
      <path d="M 72.703125 32.078125 
Q 68.453125 32.078125 66.03125 28.46875 
Q 63.625 24.859375 63.625 18.40625 
Q 63.625 12.0625 66.03125 8.421875 
Q 68.453125 4.78125 72.703125 4.78125 
Q 76.859375 4.78125 79.265625 8.421875 
Q 81.6875 12.0625 81.6875 18.40625 
Q 81.6875 24.8125 79.265625 28.4375 
Q 76.859375 32.078125 72.703125 32.078125 
z
M 72.703125 38.28125 
Q 80.421875 38.28125 84.953125 32.90625 
Q 89.5 27.546875 89.5 18.40625 
Q 89.5 9.28125 84.9375 3.921875 
Q 80.375 -1.421875 72.703125 -1.421875 
Q 64.890625 -1.421875 60.34375 3.921875 
Q 55.8125 9.28125 55.8125 18.40625 
Q 55.8125 27.59375 60.375 32.9375 
Q 64.9375 38.28125 72.703125 38.28125 
z
M 22.3125 68.015625 
Q 18.109375 68.015625 15.6875 64.375 
Q 13.28125 60.75 13.28125 54.390625 
Q 13.28125 47.953125 15.671875 44.328125 
Q 18.0625 40.71875 22.3125 40.71875 
Q 26.5625 40.71875 28.96875 44.328125 
Q 31.390625 47.953125 31.390625 54.390625 
Q 31.390625 60.6875 28.953125 64.34375 
Q 26.515625 68.015625 22.3125 68.015625 
z
M 66.40625 74.21875 
L 74.21875 74.21875 
L 28.609375 -1.421875 
L 20.796875 -1.421875 
z
M 22.3125 74.21875 
Q 30.03125 74.21875 34.609375 68.875 
Q 39.203125 63.53125 39.203125 54.390625 
Q 39.203125 45.171875 34.640625 39.84375 
Q 30.078125 34.515625 22.3125 34.515625 
Q 14.546875 34.515625 10.03125 39.859375 
Q 5.515625 45.21875 5.515625 54.390625 
Q 5.515625 63.484375 10.046875 68.84375 
Q 14.59375 74.21875 22.3125 74.21875 
z
" id="DejaVuSans-37"/>
      <path id="DejaVuSans-32"/>
      <path d="M 59.515625 10.40625 
L 59.515625 29.984375 
L 43.40625 29.984375 
L 43.40625 38.09375 
L 69.28125 38.09375 
L 69.28125 6.78125 
Q 63.578125 2.734375 56.6875 0.65625 
Q 49.8125 -1.421875 42 -1.421875 
Q 24.90625 -1.421875 15.25 8.5625 
Q 5.609375 18.5625 5.609375 36.375 
Q 5.609375 54.25 15.25 64.234375 
Q 24.90625 74.21875 42 74.21875 
Q 49.125 74.21875 55.546875 72.453125 
Q 61.96875 70.703125 67.390625 67.28125 
L 67.390625 56.78125 
Q 61.921875 61.421875 55.765625 63.765625 
Q 49.609375 66.109375 42.828125 66.109375 
Q 29.4375 66.109375 22.71875 58.640625 
Q 16.015625 51.171875 16.015625 36.375 
Q 16.015625 21.625 22.71875 14.15625 
Q 29.4375 6.6875 42.828125 6.6875 
Q 48.046875 6.6875 52.140625 7.59375 
Q 56.25 8.5 59.515625 10.40625 
z
" id="DejaVuSans-71"/>
      <path d="M 64.40625 67.28125 
L 64.40625 56.890625 
Q 59.421875 61.53125 53.78125 63.8125 
Q 48.140625 66.109375 41.796875 66.109375 
Q 29.296875 66.109375 22.65625 58.46875 
Q 16.015625 50.828125 16.015625 36.375 
Q 16.015625 21.96875 22.65625 14.328125 
Q 29.296875 6.6875 41.796875 6.6875 
Q 48.140625 6.6875 53.78125 8.984375 
Q 59.421875 11.28125 64.40625 15.921875 
L 64.40625 5.609375 
Q 59.234375 2.09375 53.4375 0.328125 
Q 47.65625 -1.421875 41.21875 -1.421875 
Q 24.65625 -1.421875 15.125 8.703125 
Q 5.609375 18.84375 5.609375 36.375 
Q 5.609375 53.953125 15.125 64.078125 
Q 24.65625 74.21875 41.21875 74.21875 
Q 47.75 74.21875 53.53125 72.484375 
Q 59.328125 70.75 64.40625 67.28125 
z
" id="DejaVuSans-67"/>
     </defs>
     <g transform="translate(510.660156 379.564837)scale(0.1 -0.1)">
      <use xlink:href="#DejaVuSans-37"/>
      <use x="95.019531" xlink:href="#DejaVuSans-32"/>
      <use x="126.806641" xlink:href="#DejaVuSans-71"/>
      <use x="204.296875" xlink:href="#DejaVuSans-67"/>
     </g>
    </g>
   </g>
   <g id="matplotlib.axis_2">
    <g id="ytick_1">
     <g id="line2d_1">
      <path clip-path="url(#p6960ec2f99)" d="M 63.508125 353.2239 
L 985.223125 353.2239 
" style="fill:none;stroke:#dedede;stroke-linecap:square;"/>
     </g>
     <g id="text_8">
      <!-- 0 -->
      <g transform="translate(51.418125 356.263275)scale(0.08 -0.08)">
       <use xlink:href="#DejaVuSans-48"/>
      </g>
     </g>
    </g>
    <g id="ytick_2">
     <g id="line2d_2">
      <path clip-path="url(#p6960ec2f99)" d="M 63.508125 292.920664 
L 985.223125 292.920664 
" style="fill:none;stroke:#dedede;stroke-linecap:square;"/>
     </g>
     <g id="text_9">
      <!-- 500000 -->
      <defs>
       <path d="M 10.796875 72.90625 
L 49.515625 72.90625 
L 49.515625 64.59375 
L 19.828125 64.59375 
L 19.828125 46.734375 
Q 21.96875 47.46875 24.109375 47.828125 
Q 26.265625 48.1875 28.421875 48.1875 
Q 40.625 48.1875 47.75 41.5 
Q 54.890625 34.8125 54.890625 23.390625 
Q 54.890625 11.625 47.5625 5.09375 
Q 40.234375 -1.421875 26.90625 -1.421875 
Q 22.3125 -1.421875 17.546875 -0.640625 
Q 12.796875 0.140625 7.71875 1.703125 
L 7.71875 11.625 
Q 12.109375 9.234375 16.796875 8.0625 
Q 21.484375 6.890625 26.703125 6.890625 
Q 35.15625 6.890625 40.078125 11.328125 
Q 45.015625 15.765625 45.015625 23.390625 
Q 45.015625 31 40.078125 35.4375 
Q 35.15625 39.890625 26.703125 39.890625 
Q 22.75 39.890625 18.8125 39.015625 
Q 14.890625 38.140625 10.796875 36.28125 
z
" id="DejaVuSans-53"/>
      </defs>
      <g transform="translate(25.968125 295.960039)scale(0.08 -0.08)">
       <use xlink:href="#DejaVuSans-53"/>
       <use x="63.623047" xlink:href="#DejaVuSans-48"/>
       <use x="127.246094" xlink:href="#DejaVuSans-48"/>
       <use x="190.869141" xlink:href="#DejaVuSans-48"/>
       <use x="254.492188" xlink:href="#DejaVuSans-48"/>
       <use x="318.115234" xlink:href="#DejaVuSans-48"/>
      </g>
     </g>
    </g>
    <g id="ytick_3">
     <g id="line2d_3">
      <path clip-path="url(#p6960ec2f99)" d="M 63.508125 232.617428 
L 985.223125 232.617428 
" style="fill:none;stroke:#dedede;stroke-linecap:square;"/>
     </g>
     <g id="text_10">
      <!-- 1000000 -->
      <g transform="translate(20.878125 235.656803)scale(0.08 -0.08)">
       <use xlink:href="#DejaVuSans-49"/>
       <use x="63.623047" xlink:href="#DejaVuSans-48"/>
       <use x="127.246094" xlink:href="#DejaVuSans-48"/>
       <use x="190.869141" xlink:href="#DejaVuSans-48"/>
       <use x="254.492188" xlink:href="#DejaVuSans-48"/>
       <use x="318.115234" xlink:href="#DejaVuSans-48"/>
       <use x="381.738281" xlink:href="#DejaVuSans-48"/>
      </g>
     </g>
    </g>
    <g id="ytick_4">
     <g id="line2d_4">
      <path clip-path="url(#p6960ec2f99)" d="M 63.508125 172.314192 
L 985.223125 172.314192 
" style="fill:none;stroke:#dedede;stroke-linecap:square;"/>
     </g>
     <g id="text_11">
      <!-- 1500000 -->
      <g transform="translate(20.878125 175.353567)scale(0.08 -0.08)">
       <use xlink:href="#DejaVuSans-49"/>
       <use x="63.623047" xlink:href="#DejaVuSans-53"/>
       <use x="127.246094" xlink:href="#DejaVuSans-48"/>
       <use x="190.869141" xlink:href="#DejaVuSans-48"/>
       <use x="254.492188" xlink:href="#DejaVuSans-48"/>
       <use x="318.115234" xlink:href="#DejaVuSans-48"/>
       <use x="381.738281" xlink:href="#DejaVuSans-48"/>
      </g>
     </g>
    </g>
    <g id="ytick_5">
     <g id="line2d_5">
      <path clip-path="url(#p6960ec2f99)" d="M 63.508125 112.010956 
L 985.223125 112.010956 
" style="fill:none;stroke:#dedede;stroke-linecap:square;"/>
     </g>
     <g id="text_12">
      <!-- 2000000 -->
      <g transform="translate(20.878125 115.050331)scale(0.08 -0.08)">
       <use xlink:href="#DejaVuSans-50"/>
       <use x="63.623047" xlink:href="#DejaVuSans-48"/>
       <use x="127.246094" xlink:href="#DejaVuSans-48"/>
       <use x="190.869141" xlink:href="#DejaVuSans-48"/>
       <use x="254.492188" xlink:href="#DejaVuSans-48"/>
       <use x="318.115234" xlink:href="#DejaVuSans-48"/>
       <use x="381.738281" xlink:href="#DejaVuSans-48"/>
      </g>
     </g>
    </g>
    <g id="ytick_6">
     <g id="line2d_6">
      <path clip-path="url(#p6960ec2f99)" d="M 63.508125 51.70772 
L 985.223125 51.70772 
" style="fill:none;stroke:#dedede;stroke-linecap:square;"/>
     </g>
     <g id="text_13">
      <!-- 2500000 -->
      <g transform="translate(20.878125 54.747095)scale(0.08 -0.08)">
       <use xlink:href="#DejaVuSans-50"/>
       <use x="63.623047" xlink:href="#DejaVuSans-53"/>
       <use x="127.246094" xlink:href="#DejaVuSans-48"/>
       <use x="190.869141" xlink:href="#DejaVuSans-48"/>
       <use x="254.492188" xlink:href="#DejaVuSans-48"/>
       <use x="318.115234" xlink:href="#DejaVuSans-48"/>
       <use x="381.738281" xlink:href="#DejaVuSans-48"/>
      </g>
     </g>
    </g>
    <g id="text_14">
     <!-- Count -->
     <defs>
      <path d="M 30.609375 48.390625 
Q 23.390625 48.390625 19.1875 42.75 
Q 14.984375 37.109375 14.984375 27.296875 
Q 14.984375 17.484375 19.15625 11.84375 
Q 23.34375 6.203125 30.609375 6.203125 
Q 37.796875 6.203125 41.984375 11.859375 
Q 46.1875 17.53125 46.1875 27.296875 
Q 46.1875 37.015625 41.984375 42.703125 
Q 37.796875 48.390625 30.609375 48.390625 
z
M 30.609375 56 
Q 42.328125 56 49.015625 48.375 
Q 55.71875 40.765625 55.71875 27.296875 
Q 55.71875 13.875 49.015625 6.21875 
Q 42.328125 -1.421875 30.609375 -1.421875 
Q 18.84375 -1.421875 12.171875 6.21875 
Q 5.515625 13.875 5.515625 27.296875 
Q 5.515625 40.765625 12.171875 48.375 
Q 18.84375 56 30.609375 56 
z
" id="DejaVuSans-111"/>
      <path d="M 8.5 21.578125 
L 8.5 54.6875 
L 17.484375 54.6875 
L 17.484375 21.921875 
Q 17.484375 14.15625 20.5 10.265625 
Q 23.53125 6.390625 29.59375 6.390625 
Q 36.859375 6.390625 41.078125 11.03125 
Q 45.3125 15.671875 45.3125 23.6875 
L 45.3125 54.6875 
L 54.296875 54.6875 
L 54.296875 0 
L 45.3125 0 
L 45.3125 8.40625 
Q 42.046875 3.421875 37.71875 1 
Q 33.40625 -1.421875 27.6875 -1.421875 
Q 18.265625 -1.421875 13.375 4.4375 
Q 8.5 10.296875 8.5 21.578125 
z
M 31.109375 56 
z
" id="DejaVuSans-117"/>
      <path d="M 54.890625 33.015625 
L 54.890625 0 
L 45.90625 0 
L 45.90625 32.71875 
Q 45.90625 40.484375 42.875 44.328125 
Q 39.84375 48.1875 33.796875 48.1875 
Q 26.515625 48.1875 22.3125 43.546875 
Q 18.109375 38.921875 18.109375 30.90625 
L 18.109375 0 
L 9.078125 0 
L 9.078125 54.6875 
L 18.109375 54.6875 
L 18.109375 46.1875 
Q 21.34375 51.125 25.703125 53.5625 
Q 30.078125 56 35.796875 56 
Q 45.21875 56 50.046875 50.171875 
Q 54.890625 44.34375 54.890625 33.015625 
z
" id="DejaVuSans-110"/>
      <path d="M 18.3125 70.21875 
L 18.3125 54.6875 
L 36.8125 54.6875 
L 36.8125 47.703125 
L 18.3125 47.703125 
L 18.3125 18.015625 
Q 18.3125 11.328125 20.140625 9.421875 
Q 21.96875 7.515625 27.59375 7.515625 
L 36.8125 7.515625 
L 36.8125 0 
L 27.59375 0 
Q 17.1875 0 13.234375 3.875 
Q 9.28125 7.765625 9.28125 18.015625 
L 9.28125 47.703125 
L 2.6875 47.703125 
L 2.6875 54.6875 
L 9.28125 54.6875 
L 9.28125 70.21875 
z
" id="DejaVuSans-116"/>
     </defs>
     <g transform="translate(14.798438 209.088338)rotate(-90)scale(0.1 -0.1)">
      <use xlink:href="#DejaVuSans-67"/>
      <use x="69.824219" xlink:href="#DejaVuSans-111"/>
      <use x="131.005859" xlink:href="#DejaVuSans-117"/>
      <use x="194.384766" xlink:href="#DejaVuSans-110"/>
      <use x="257.763672" xlink:href="#DejaVuSans-116"/>
     </g>
    </g>
   </g>
   <g id="line2d_7">
    <path clip-path="url(#p6960ec2f99)" d="M 63.508125 353.098952 
L 72.725275 353.108118 
L 81.942425 353.131033 
L 91.159575 353.139295 
L 100.376725 353.130551 
L 109.593875 353.106188 
L 118.811025 353.075253 
L 128.028175 353.03889 
L 137.245325 352.989863 
L 146.462475 352.912796 
L 155.679625 352.844774 
L 164.896775 352.73267 
L 174.113925 352.620566 
L 183.331075 352.409625 
L 192.548225 352.214544 
L 201.765375 351.883661 
L 210.982525 351.52558 
L 220.199675 350.827208 
L 229.416825 350.116957 
L 238.633975 348.828457 
L 247.851125 347.5124 
L 257.068275 345.437787 
L 266.285425 343.364984 
L 275.502575 339.967862 
L 284.719725 336.511461 
L 293.936875 331.82204 
L 303.154025 320.049522 
L 312.371175 312.707241 
L 321.588325 303.154847 
L 330.805475 293.622473 
L 340.022625 284.80819 
L 349.239775 276.04601 
L 358.456925 262.58687 
L 367.674075 248.951705 
L 376.891225 236.62898 
L 386.108375 224.519367 
L 395.325525 212.33956 
L 404.542675 199.860409 
L 413.759825 190.411193 
L 422.976975 181.101158 
L 432.194125 168.757326 
L 441.411275 156.251943 
L 450.628425 147.786575 
L 459.845575 139.535765 
L 469.062725 134.667666 
L 478.279875 129.593933 
L 487.497025 120.960198 
L 496.714175 112.442667 
L 505.931325 106.74775 
L 515.148475 101.159932 
L 524.365625 99.477713 
L 533.582775 97.826791 
L 542.799925 99.728574 
L 552.017075 101.71448 
L 561.234225 108.397767 
L 570.451375 115.353565 
L 579.668525 126.104968 
L 588.885675 136.973963 
L 598.102825 151.519224 
L 607.319975 166.344413 
L 616.537125 183.426571 
L 625.754275 200.399821 
L 634.971425 218.811304 
L 644.188575 236.911561 
L 653.405725 252.913628 
L 662.622875 268.891995 
L 671.840025 282.58083 
L 681.057175 296.244096 
L 690.274325 306.473455 
L 699.491475 316.712944 
L 708.708625 323.949513 
L 717.925775 331.105336 
L 727.142925 335.380655 
L 736.360075 339.610143 
L 745.577225 342.156809 
L 754.794375 346.103113 
L 764.011525 347.647479 
L 773.228675 348.615105 
L 782.445825 349.543955 
L 791.662975 350.177682 
L 800.880125 350.817258 
L 810.097275 351.280628 
L 819.314425 351.729103 
L 828.531575 351.995764 
L 837.748725 352.268878 
L 846.965875 352.472642 
L 856.183025 352.664045 
L 865.400175 352.7984 
L 874.617325 352.934083 
L 883.834475 353.00114 
L 893.051625 353.062408 
L 902.268775 353.103052 
L 911.485925 353.143576 
L 920.703075 353.161908 
L 929.920225 353.18024 
L 939.137375 353.191397 
L 948.354525 353.199779 
L 957.571675 353.204121 
L 966.788825 353.205146 
L 976.005975 353.202553 
L 985.223125 353.201467 
" style="fill:none;stroke:#5cb85c;stroke-linecap:square;"/>
   </g>
   <g id="line2d_8">
    <path clip-path="url(#p6960ec2f99)" d="M 63.508125 353.105103 
L 72.725275 353.112158 
L 81.942425 353.125184 
L 91.159575 353.12838 
L 100.376725 353.122289 
L 109.593875 353.096057 
L 118.811025 353.057704 
L 128.028175 352.994989 
L 137.245325 352.911228 
L 146.462475 352.815466 
L 155.679625 352.754861 
L 164.896775 352.650718 
L 174.113925 352.53379 
L 183.331075 352.282747 
L 192.548225 352.038881 
L 201.765375 351.614527 
L 210.982525 351.176545 
L 220.199675 350.323495 
L 229.416825 349.439088 
L 238.633975 347.806559 
L 247.851125 346.157929 
L 257.068275 343.546919 
L 266.285425 340.927407 
L 275.502575 336.877803 
L 284.719725 332.755414 
L 293.936875 327.169766 
L 303.154025 313.251056 
L 312.371175 304.570948 
L 321.588325 293.244191 
L 330.805475 281.987145 
L 340.022625 272.520682 
L 349.239775 263.127187 
L 358.456925 248.592961 
L 367.674075 233.853524 
L 376.891225 220.344514 
L 386.108375 207.07949 
L 395.325525 194.440776 
L 404.542675 181.320239 
L 413.759825 172.176218 
L 422.976975 163.581078 
L 432.194125 151.880019 
L 441.411275 139.821964 
L 450.628425 133.074816 
L 459.845575 126.482346 
L 469.062725 124.226161 
L 478.279875 121.882656 
L 487.497025 114.808966 
L 496.714175 107.782795 
L 505.931325 103.685311 
L 515.148475 99.762525 
L 524.365625 99.767952 
L 533.582775 99.712533 
L 542.799925 103.169839 
L 552.017075 106.786284 
L 561.234225 115.747104 
L 570.451375 124.949498 
L 579.668525 136.450893 
L 588.885675 148.028511 
L 598.102825 163.184282 
L 607.319975 178.61974 
L 616.537125 195.472926 
L 625.754275 212.245427 
L 634.971425 230.138241 
L 644.188575 247.690041 
L 653.405725 262.460716 
L 662.622875 277.193942 
L 671.840025 290.0284 
L 681.057175 302.828064 
L 690.274325 312.072369 
L 699.491475 321.324694 
L 708.708625 327.784015 
L 717.925775 334.168017 
L 727.142925 337.853208 
L 736.360075 341.50469 
L 745.577225 343.743086 
L 754.794375 347.12857 
L 764.011525 348.406455 
L 773.228675 349.214458 
L 782.445825 349.999486 
L 791.662975 350.546738 
L 800.880125 351.097487 
L 810.097275 351.498383 
L 819.314425 351.886435 
L 828.531575 352.124874 
L 837.748725 352.364157 
L 846.965875 352.539096 
L 856.183025 352.707584 
L 865.400175 352.831627 
L 874.617325 352.954164 
L 883.834475 353.013683 
L 893.051625 353.071333 
L 902.268775 353.11047 
L 911.485925 353.149184 
L 920.703075 353.168361 
L 929.920225 353.18609 
L 939.137375 353.194593 
L 948.354525 353.201708 
L 957.571675 353.205508 
L 966.788825 353.206231 
L 976.005975 353.204482 
L 985.223125 353.203759 
" style="fill:none;stroke:#5cb85c;stroke-linecap:square;"/>
   </g>
   <g id="line2d_9">
    <path clip-path="url(#p6960ec2f99)" d="M 63.508125 353.150692 
L 72.725275 353.151898 
L 81.942425 353.147496 
L 91.159575 353.13833 
L 100.376725 353.13242 
L 109.593875 353.10263 
L 118.811025 353.059393 
L 128.028175 352.9971 
L 137.245325 352.908574 
L 146.462475 352.810943 
L 155.679625 352.756731 
L 164.896775 352.653371 
L 174.113925 352.535056 
L 183.331075 352.27937 
L 192.548225 352.03864 
L 201.765375 351.632498 
L 210.982525 351.204767 
L 220.199675 350.330852 
L 229.416825 349.423228 
L 238.633975 347.778277 
L 247.851125 346.100882 
L 257.068275 343.540105 
L 266.285425 341.013882 
L 275.502575 336.832576 
L 284.719725 332.556594 
L 293.936875 326.862943 
L 303.154025 312.596223 
L 312.371175 303.668751 
L 321.588325 291.873016 
L 330.805475 280.145062 
L 340.022625 270.113618 
L 349.239775 260.144348 
L 358.456925 244.971511 
L 367.674075 229.593583 
L 376.891225 215.660098 
L 386.108375 202.042542 
L 395.325525 188.824917 
L 404.542675 174.992018 
L 413.759825 165.439925 
L 422.976975 156.590606 
L 432.194125 144.407724 
L 441.411275 131.827022 
L 450.628425 125.72355 
L 459.845575 119.763902 
L 469.062725 118.190832 
L 478.279875 116.515126 
L 487.497025 109.733906 
L 496.714175 103.033071 
L 505.931325 99.851291 
L 515.148475 96.819064 
L 524.365625 97.768297 
L 533.582775 98.6878 
L 542.799925 103.224895 
L 552.017075 107.888748 
L 561.234225 117.48643 
L 570.451375 127.3363 
L 579.668525 139.312764 
L 588.885675 151.317028 
L 598.102825 166.604441 
L 607.319975 182.216767 
L 616.537125 198.885486 
L 625.754275 215.439147 
L 634.971425 232.746115 
L 644.188575 249.708451 
L 653.405725 264.177127 
L 662.622875 278.622707 
L 671.840025 291.05241 
L 681.057175 303.442795 
L 690.274325 312.492441 
L 699.491475 321.554208 
L 708.708625 327.755492 
L 717.925775 333.883506 
L 727.142925 337.509902 
L 736.360075 341.103553 
L 745.577225 343.271876 
L 754.794375 346.561779 
L 764.011525 347.805413 
L 773.228675 348.663106 
L 782.445825 349.508437 
L 791.662975 350.076131 
L 800.880125 350.638459 
L 810.097275 351.087718 
L 819.314425 351.528294 
L 828.531575 351.8119 
L 837.748725 352.095446 
L 846.965875 352.309221 
L 856.183025 352.519015 
L 865.400175 352.683824 
L 874.617325 352.845557 
L 883.834475 352.935651 
L 893.051625 353.025321 
L 902.268775 353.081042 
L 911.485925 353.132842 
L 920.703075 353.153104 
L 929.920225 353.172883 
L 939.137375 353.184763 
L 948.354525 353.195015 
L 957.571675 353.201829 
L 966.788825 353.209608 
L 976.005975 353.213166 
L 985.223125 353.213287 
" style="fill:none;stroke:#5cb85c;stroke-linecap:square;"/>
   </g>
   <g id="line2d_10">
    <path clip-path="url(#p6960ec2f99)" d="M 63.508125 353.145626 
L 72.725275 353.148762 
L 81.942425 353.145747 
L 91.159575 353.134651 
L 100.376725 353.125304 
L 109.593875 353.097987 
L 118.811025 353.062589 
L 128.028175 352.996135 
L 137.245325 352.901459 
L 146.462475 352.809617 
L 155.679625 352.763967 
L 164.896775 352.65524 
L 174.113925 352.521488 
L 183.331075 352.289381 
L 192.548225 352.087124 
L 201.765375 351.72639 
L 210.982525 351.339303 
L 220.199675 350.571945 
L 229.416825 349.766354 
L 238.633975 348.271919 
L 247.851125 346.765544 
L 257.068275 344.494765 
L 266.285425 342.233032 
L 275.502575 338.4282 
L 284.719725 334.539666 
L 293.936875 329.403398 
L 303.154025 316.396834 
L 312.371175 308.214168 
L 321.588325 297.475367 
L 330.805475 286.77088 
L 340.022625 277.450593 
L 349.239775 268.202307 
L 358.456925 253.956512 
L 367.674075 239.501826 
L 376.891225 226.044074 
L 386.108375 212.865224 
L 395.325525 200.212399 
L 404.542675 187.062193 
L 413.759825 177.486763 
L 422.976975 168.416794 
L 432.194125 155.949884 
L 441.411275 143.161919 
L 450.628425 136.0626 
L 459.845575 129.144553 
L 469.062725 126.202177 
L 478.279875 123.055373 
L 487.497025 114.724542 
L 496.714175 106.526437 
L 505.931325 101.584768 
L 515.148475 96.774138 
L 524.365625 95.820382 
L 533.582775 94.84371 
L 542.799925 97.923457 
L 552.017075 101.177721 
L 561.234225 109.111938 
L 570.451375 117.213919 
L 579.668525 128.274377 
L 588.885675 139.473231 
L 598.102825 154.488073 
L 607.319975 169.805457 
L 616.537125 187.211202 
L 625.754275 204.503215 
L 634.971425 222.906919 
L 644.188575 241.002593 
L 653.405725 256.498595 
L 662.622875 271.940203 
L 671.840025 285.421414 
L 681.057175 298.884533 
L 690.274325 308.759791 
L 699.491475 318.638064 
L 708.708625 325.511849 
L 717.925775 332.324909 
L 727.142925 336.375658 
L 736.360075 340.372014 
L 745.577225 342.757369 
L 754.794375 346.334255 
L 764.011525 347.665087 
L 773.228675 348.596531 
L 782.445825 349.506085 
L 791.662975 350.085961 
L 800.880125 350.658239 
L 810.097275 351.088864 
L 819.314425 351.509057 
L 828.531575 351.816784 
L 837.748725 352.13211 
L 846.965875 352.332799 
L 856.183025 352.526433 
L 865.400175 352.687985 
L 874.617325 352.843387 
L 883.834475 352.92962 
L 893.051625 353.016819 
L 902.268775 353.073323 
L 911.485925 353.126088 
L 920.703075 353.151596 
L 929.920225 353.17813 
L 939.137375 353.191698 
L 948.354525 353.201045 
L 957.571675 353.205327 
L 966.788825 353.208945 
L 976.005975 353.208945 
L 985.223125 353.208221 
" style="fill:none;stroke:#f0ad4e;stroke-linecap:square;"/>
   </g>
   <g id="line2d_11">
    <path clip-path="url(#p6960ec2f99)" d="M 63.508125 353.129827 
L 72.725275 353.139837 
L 81.942425 353.159436 
L 91.159575 353.165707 
L 100.376725 353.159798 
L 109.593875 353.138209 
L 118.811025 353.105645 
L 128.028175 353.055172 
L 137.245325 353.006688 
L 146.462475 352.943731 
L 155.679625 352.866242 
L 164.896775 352.673934 
L 174.113925 352.491035 
L 183.331075 352.262425 
L 192.548225 352.041595 
L 201.765375 351.707997 
L 210.982525 351.359927 
L 220.199675 350.629956 
L 229.416825 349.893171 
L 238.633975 348.803009 
L 247.851125 347.668585 
L 257.068275 345.776149 
L 266.285425 343.903914 
L 275.502575 341.112055 
L 284.719725 338.266949 
L 293.936875 334.537194 
L 303.154025 326.495636 
L 312.371175 322.021498 
L 321.588325 316.29263 
L 330.805475 310.529631 
L 340.022625 303.399557 
L 349.239775 296.327737 
L 358.456925 288.276229 
L 367.674075 280.166952 
L 376.891225 270.881279 
L 386.108375 261.412525 
L 395.325525 251.141979 
L 404.542675 241.163361 
L 413.759825 230.636226 
L 422.976975 219.590482 
L 432.194125 205.582824 
L 441.411275 191.650545 
L 450.628425 178.672445 
L 459.845575 165.805905 
L 469.062725 151.169767 
L 478.279875 136.311954 
L 487.497025 123.820983 
L 496.714175 111.641297 
L 505.931325 102.216927 
L 515.148475 92.746907 
L 524.365625 86.288309 
L 533.582775 80.112655 
L 542.799925 78.168901 
L 552.017075 75.933761 
L 561.234225 80.404523 
L 570.451375 85.360484 
L 579.668525 93.251403 
L 588.885675 101.159389 
L 598.102825 116.1044 
L 607.319975 131.358888 
L 616.537125 148.89935 
L 625.754275 166.876107 
L 634.971425 189.541681 
L 644.188575 211.419514 
L 653.405725 230.012871 
L 662.622875 248.885432 
L 671.840025 265.352557 
L 681.057175 281.557424 
L 690.274325 294.559827 
L 699.491475 307.565727 
L 708.708625 315.758766 
L 717.925775 323.979424 
L 727.142925 329.881422 
L 736.360075 335.653768 
L 745.577225 339.428871 
L 754.794375 344.848866 
L 764.011525 346.656516 
L 773.228675 347.75301 
L 782.445825 348.825503 
L 791.662975 349.801993 
L 800.880125 350.782041 
L 810.097275 351.231783 
L 819.314425 351.671574 
L 828.531575 351.977191 
L 837.748725 352.264717 
L 846.965875 352.452501 
L 856.183025 352.642275 
L 865.400175 352.779706 
L 874.617325 352.910082 
L 883.834475 352.994567 
L 893.051625 353.07278 
L 902.268775 353.101123 
L 911.485925 353.132963 
L 920.703075 353.155757 
L 929.920225 353.178009 
L 939.137375 353.186452 
L 948.354525 353.193688 
L 957.571675 353.197186 
L 966.788825 353.198754 
L 976.005975 353.199176 
L 985.223125 353.199779 
" style="fill:none;stroke:#5cb85c;stroke-linecap:square;"/>
   </g>
   <g id="line2d_12">
    <path clip-path="url(#p6960ec2f99)" d="M 63.508125 353.10269 
L 72.725275 353.113967 
L 81.942425 353.142852 
L 91.159575 353.15829 
L 100.376725 353.151235 
L 109.593875 353.125545 
L 118.811025 353.09268 
L 128.028175 353.049021 
L 137.245325 353.004637 
L 146.462475 352.92956 
L 155.679625 352.836753 
L 164.896775 352.668568 
L 174.113925 352.512201 
L 183.331075 352.21967 
L 192.548225 351.932325 
L 201.765375 351.537641 
L 210.982525 351.130956 
L 220.199675 350.36227 
L 229.416825 349.592439 
L 238.633975 348.350192 
L 247.851125 347.064045 
L 257.068275 345.170825 
L 266.285425 343.28665 
L 275.502575 340.617629 
L 284.719725 337.903682 
L 293.936875 334.133644 
L 303.154025 326.187547 
L 312.371175 321.861574 
L 321.588325 316.439409 
L 330.805475 311.002047 
L 340.022625 304.161368 
L 349.239775 297.323705 
L 358.456925 288.618933 
L 367.674075 279.88624 
L 376.891225 270.372741 
L 386.108375 260.786396 
L 395.325525 250.378721 
L 404.542675 240.043832 
L 413.759825 228.693497 
L 422.976975 216.890585 
L 432.194125 202.994971 
L 441.411275 189.153207 
L 450.628425 176.739967 
L 459.845575 164.408016 
L 469.062725 149.448471 
L 478.279875 133.88692 
L 487.497025 122.370449 
L 496.714175 111.843554 
L 505.931325 102.19172 
L 515.148475 92.157201 
L 524.365625 87.085156 
L 533.582775 82.789877 
L 542.799925 84.501886 
L 552.017075 85.73955 
L 561.234225 89.777937 
L 570.451375 94.14365 
L 579.668525 103.162361 
L 588.885675 112.133131 
L 598.102825 129.13213 
L 607.319975 146.689538 
L 616.537125 164.881637 
L 625.754275 183.147849 
L 634.971425 204.121797 
L 644.188575 224.555247 
L 653.405725 242.772192 
L 662.622875 261.051911 
L 671.840025 275.484707 
L 681.057175 289.731708 
L 690.274325 301.417209 
L 699.491475 313.149143 
L 708.708625 320.816398 
L 717.925775 328.466708 
L 727.142925 333.412719 
L 736.360075 338.260014 
L 745.577225 341.38143 
L 754.794375 345.933842 
L 764.011525 347.515415 
L 773.228675 348.492568 
L 782.445825 349.431912 
L 791.662975 350.164415 
L 800.880125 350.902045 
L 810.097275 351.267241 
L 819.314425 351.618266 
L 828.531575 351.902596 
L 837.748725 352.185237 
L 846.965875 352.356197 
L 856.183025 352.524262 
L 865.400175 352.695282 
L 874.617325 352.858945 
L 883.834475 352.946264 
L 893.051625 353.031171 
L 902.268775 353.075494 
L 911.485925 353.120239 
L 920.703075 353.147556 
L 929.920225 353.175537 
L 939.137375 353.185366 
L 948.354525 353.192542 
L 957.571675 353.198271 
L 966.788825 353.200261 
L 976.005975 353.199115 
L 985.223125 353.199296 
" style="fill:none;stroke:#5cb85c;stroke-linecap:square;"/>
   </g>
   <g id="line2d_13">
    <path clip-path="url(#p6960ec2f99)" d="M 63.508125 353.080499 
L 72.725275 353.097324 
L 81.942425 353.136521 
L 91.159575 353.157808 
L 100.376725 353.153526 
L 109.593875 353.134712 
L 118.811025 353.108902 
L 128.028175 353.075373 
L 137.245325 353.044558 
L 146.462475 352.989562 
L 155.679625 352.915147 
L 164.896775 352.770721 
L 174.113925 352.638838 
L 183.331075 352.404801 
L 192.548225 352.181136 
L 201.765375 351.842293 
L 210.982525 351.492775 
L 220.199675 350.893904 
L 229.416825 350.288399 
L 238.633975 349.28049 
L 247.851125 348.242551 
L 257.068275 346.71109 
L 266.285425 345.183308 
L 275.502575 343.096394 
L 284.719725 340.971127 
L 293.936875 338.009936 
L 303.154025 331.909902 
L 312.371175 328.633507 
L 321.588325 324.893199 
L 330.805475 321.165554 
L 340.022625 316.007215 
L 349.239775 310.844354 
L 358.456925 304.362841 
L 367.674075 297.859559 
L 376.891225 290.242597 
L 386.108375 282.546095 
L 395.325525 273.360767 
L 404.542675 264.23737 
L 413.759825 253.045752 
L 422.976975 241.379971 
L 432.194125 226.386717 
L 441.411275 211.422047 
L 450.628425 196.136865 
L 459.845575 180.843783 
L 469.062725 162.275935 
L 478.279875 143.233379 
L 487.497025 127.369527 
L 496.714175 112.265737 
L 505.931325 97.007813 
L 515.148475 81.417738 
L 524.365625 71.859253 
L 533.582775 63.028628 
L 542.799925 60.907401 
L 552.017075 58.448898 
L 561.234225 60.247503 
L 570.451375 62.32513 
L 579.668525 70.363853 
L 588.885675 78.531384 
L 598.102825 95.626567 
L 607.319975 113.303616 
L 616.537125 132.914832 
L 625.754275 152.656001 
L 634.971425 177.239037 
L 644.188575 201.239001 
L 653.405725 222.452051 
L 662.622875 243.716178 
L 671.840025 260.658192 
L 681.057175 277.400541 
L 690.274325 291.236153 
L 699.491475 305.15209 
L 708.708625 314.637126 
L 717.925775 324.077115 
L 727.142925 330.070895 
L 736.360075 335.957938 
L 745.577225 339.668577 
L 754.794375 345.051545 
L 764.011525 346.917327 
L 773.228675 348.093783 
L 782.445825 349.229112 
L 791.662975 349.987124 
L 800.880125 350.760332 
L 810.097275 351.202716 
L 819.314425 351.627251 
L 828.531575 351.935943 
L 837.748725 352.238847 
L 846.965875 352.424942 
L 856.183025 352.604827 
L 865.400175 352.768188 
L 874.617325 352.923952 
L 883.834475 352.992577 
L 893.051625 353.057041 
L 902.268775 353.089002 
L 911.485925 353.122591 
L 920.703075 353.145385 
L 929.920225 353.169808 
L 939.137375 353.181507 
L 948.354525 353.189829 
L 957.571675 353.193809 
L 966.788825 353.192904 
L 976.005975 353.189648 
L 985.223125 353.189527 
" style="fill:none;stroke:#5cb85c;stroke-linecap:square;"/>
   </g>
   <g id="line2d_14">
    <path clip-path="url(#p6960ec2f99)" d="M 63.508125 353.09473 
L 72.725275 353.112339 
L 81.942425 353.146109 
L 91.159575 353.158652 
L 100.376725 353.151476 
L 109.593875 353.133325 
L 118.811025 353.109022 
L 128.028175 353.070247 
L 137.245325 353.027794 
L 146.462475 352.968878 
L 155.679625 352.897479 
L 164.896775 352.760108 
L 174.113925 352.632205 
L 183.331075 352.362167 
L 192.548225 352.098702 
L 201.765375 351.716741 
L 210.982525 351.323263 
L 220.199675 350.623926 
L 229.416825 349.917293 
L 238.633975 348.846971 
L 247.851125 347.75313 
L 257.068275 346.046368 
L 266.285425 344.334118 
L 275.502575 342.088787 
L 284.719725 339.811194 
L 293.936875 336.72608 
L 303.154025 330.42596 
L 312.371175 327.082749 
L 321.588325 323.064322 
L 330.805475 319.044689 
L 340.022625 313.907336 
L 349.239775 308.747188 
L 358.456925 301.871534 
L 367.674075 294.990754 
L 376.891225 287.694002 
L 386.108375 280.332605 
L 395.325525 271.532373 
L 404.542675 262.774473 
L 413.759825 251.465566 
L 422.976975 239.751783 
L 432.194125 225.20019 
L 441.411275 210.597521 
L 450.628425 195.537089 
L 459.845575 180.428475 
L 469.062725 161.428855 
L 478.279875 141.986489 
L 487.497025 125.625075 
L 496.714175 110.115022 
L 505.931325 94.631865 
L 515.148475 78.656513 
L 524.365625 67.912768 
L 533.582775 57.992946 
L 542.799925 54.404541 
L 552.017075 50.396728 
L 561.234225 51.318945 
L 570.451375 52.620832 
L 579.668525 59.18496 
L 588.885675 65.774475 
L 598.102825 82.656668 
L 607.319975 100.080263 
L 616.537125 119.124326 
L 625.754275 138.52653 
L 634.971425 163.910635 
L 644.188575 188.60493 
L 653.405725 210.554766 
L 662.622875 232.654816 
L 671.840025 250.764662 
L 681.057175 268.580167 
L 690.274325 284.062119 
L 699.491475 299.651832 
L 708.708625 309.518828 
L 717.925775 319.383051 
L 727.142925 326.208653 
L 736.360075 332.871196 
L 745.577225 337.372712 
L 754.794375 343.737176 
L 764.011525 345.82216 
L 773.228675 347.134238 
L 782.445825 348.406094 
L 791.662975 349.406585 
L 800.880125 350.407196 
L 810.097275 350.911814 
L 819.314425 351.402682 
L 828.531575 351.755335 
L 837.748725 352.097616 
L 846.965875 352.309522 
L 856.183025 352.522815 
L 865.400175 352.685995 
L 874.617325 352.836572 
L 883.834475 352.933721 
L 893.051625 353.022789 
L 902.268775 353.053724 
L 911.485925 353.092439 
L 920.703075 353.124761 
L 929.920225 353.155818 
L 939.137375 353.167697 
L 948.354525 353.176441 
L 957.571675 353.181567 
L 966.788825 353.183437 
L 976.005975 353.18223 
L 985.223125 353.18205 
" style="fill:none;stroke:#5cb85c;stroke-linecap:square;"/>
   </g>
   <g id="line2d_15">
    <path clip-path="url(#p6960ec2f99)" d="M 63.508125 353.103414 
L 72.725275 353.115957 
L 81.942425 353.143636 
L 91.159575 353.15823 
L 100.376725 353.153828 
L 109.593875 353.133867 
L 118.811025 353.110711 
L 128.028175 353.081826 
L 137.245325 353.048598 
L 146.462475 352.98329 
L 155.679625 352.903388 
L 164.896775 352.759746 
L 174.113925 352.624426 
L 183.331075 352.379594 
L 192.548225 352.139708 
L 201.765375 351.745747 
L 210.982525 351.346298 
L 220.199675 350.659022 
L 229.416825 349.967344 
L 238.633975 348.891414 
L 247.851125 347.779362 
L 257.068275 346.170954 
L 266.285425 344.578888 
L 275.502575 342.325477 
L 284.719725 340.019361 
L 293.936875 337.071075 
L 303.154025 330.914597 
L 312.371175 327.573738 
L 321.588325 323.695516 
L 330.805475 319.811626 
L 340.022625 314.530449 
L 349.239775 309.237092 
L 358.456925 301.987497 
L 367.674075 294.724274 
L 376.891225 287.294613 
L 386.108375 279.803685 
L 395.325525 270.842685 
L 404.542675 261.92667 
L 413.759825 250.261431 
L 422.976975 238.185226 
L 432.194125 223.842523 
L 441.411275 209.468704 
L 450.628425 194.984892 
L 459.845575 180.501201 
L 469.062725 162.701615 
L 478.279875 144.448248 
L 487.497025 129.638135 
L 496.714175 115.66093 
L 505.931325 101.497208 
L 515.148475 86.86125 
L 524.365625 77.704385 
L 533.582775 69.370598 
L 542.799925 68.015042 
L 552.017075 66.225604 
L 561.234225 67.631152 
L 570.451375 69.482401 
L 579.668525 77.00342 
L 588.885675 84.40311 
L 598.102825 101.056753 
L 607.319975 118.33761 
L 616.537125 136.790641 
L 625.754275 155.522636 
L 634.971425 179.536289 
L 644.188575 202.821901 
L 653.405725 222.974217 
L 662.622875 243.328127 
L 671.840025 260.280211 
L 681.057175 276.899964 
L 690.274325 290.802513 
L 699.491475 304.848403 
L 708.708625 313.904502 
L 717.925775 322.932982 
L 727.142925 329.039408 
L 736.360075 335.008644 
L 745.577225 339.024719 
L 754.794375 344.77614 
L 764.011525 346.695592 
L 773.228675 347.812649 
L 782.445825 348.893042 
L 791.662975 349.787641 
L 800.880125 350.695627 
L 810.097275 351.14368 
L 819.314425 351.57539 
L 828.531575 351.893912 
L 837.748725 352.202846 
L 846.965875 352.36482 
L 856.183025 352.528001 
L 865.400175 352.704991 
L 874.617325 352.871428 
L 883.834475 352.951751 
L 893.051625 353.024538 
L 902.268775 353.056981 
L 911.485925 353.097263 
L 920.703075 353.131154 
L 929.920225 353.16233 
L 939.137375 353.173848 
L 948.354525 353.183316 
L 957.571675 353.187115 
L 966.788825 353.187597 
L 976.005975 353.186572 
L 985.223125 353.186874 
" style="fill:none;stroke:#5cb85c;stroke-linecap:square;"/>
   </g>
   <g id="line2d_16">
    <path clip-path="url(#p6960ec2f99)" d="M 63.508125 353.099434 
L 72.725275 353.114992 
L 81.942425 353.147435 
L 91.159575 353.163657 
L 100.376725 353.159798 
L 109.593875 353.141767 
L 118.811025 353.117585 
L 128.028175 353.081584 
L 137.245325 353.042387 
L 146.462475 352.975873 
L 155.679625 352.894283 
L 164.896775 352.756791 
L 174.113925 352.632928 
L 183.331075 352.376037 
L 192.548225 352.123667 
L 201.765375 351.751295 
L 210.982525 351.368309 
L 220.199675 350.688149 
L 229.416825 349.996953 
L 238.633975 348.928983 
L 247.851125 347.839364 
L 257.068275 346.280766 
L 266.285425 344.73429 
L 275.502575 342.512116 
L 284.719725 340.236271 
L 293.936875 337.412814 
L 303.154025 331.561711 
L 312.371175 328.406646 
L 321.588325 324.668207 
L 330.805475 320.925607 
L 340.022625 315.995456 
L 349.239775 311.057224 
L 358.456925 304.424351 
L 367.674075 297.76428 
L 376.891225 290.760843 
L 386.108375 283.703254 
L 395.325525 275.120656 
L 404.542675 266.591427 
L 413.759825 255.611173 
L 422.976975 244.220494 
L 432.194125 229.964749 
L 441.411275 215.653826 
L 450.628425 200.810788 
L 459.845575 185.960694 
L 469.062725 167.918267 
L 478.279875 149.419767 
L 487.497025 133.370181 
L 496.714175 118.145846 
L 505.931325 102.618124 
L 515.148475 86.564438 
L 524.365625 75.853799 
L 533.582775 66.023286 
L 542.799925 63.05088 
L 552.017075 59.642239 
L 561.234225 60.214698 
L 570.451375 61.149338 
L 579.668525 67.995564 
L 588.885675 74.814051 
L 598.102825 91.126317 
L 607.319975 108.062964 
L 616.537125 127.185663 
L 625.754275 146.590701 
L 634.971425 170.853286 
L 644.188575 194.460857 
L 653.405725 215.777749 
L 662.622875 237.253842 
L 671.840025 254.889162 
L 681.057175 272.208854 
L 690.274325 286.942925 
L 699.491475 301.782828 
L 708.708625 311.307603 
L 717.925775 320.844138 
L 727.142925 327.391381 
L 736.360075 333.775322 
L 745.577225 338.014941 
L 754.794375 344.09592 
L 764.011525 346.135496 
L 773.228675 347.358204 
L 782.445825 348.547022 
L 791.662975 349.475632 
L 800.880125 350.406714 
L 810.097275 350.914768 
L 819.314425 351.413597 
L 828.531575 351.756662 
L 837.748725 352.083506 
L 846.965875 352.270084 
L 856.183025 352.456481 
L 865.400175 352.642758 
L 874.617325 352.822883 
L 883.834475 352.924494 
L 893.051625 353.015552 
L 902.268775 353.047995 
L 911.485925 353.088278 
L 920.703075 353.124882 
L 929.920225 353.159798 
L 939.137375 353.17216 
L 948.354525 353.181266 
L 957.571675 353.186874 
L 966.788825 353.184763 
L 976.005975 353.179095 
L 985.223125 353.178914 
" style="fill:none;stroke:#5cb85c;stroke-linecap:square;"/>
   </g>
   <g id="line2d_17">
    <path clip-path="url(#p6960ec2f99)" d="M 63.508125 353.122591 
L 72.725275 353.130068 
L 81.942425 353.131576 
L 91.159575 353.121988 
L 100.376725 353.109927 
L 109.593875 353.0767 
L 118.811025 353.029663 
L 128.028175 352.901398 
L 137.245325 352.675502 
L 146.462475 352.492844 
L 155.679625 352.483798 
L 164.896775 352.465707 
L 174.113925 352.402329 
L 183.331075 352.16395 
L 192.548225 351.9193 
L 201.765375 351.484513 
L 210.982525 351.031093 
L 220.199675 350.091871 
L 229.416825 349.120385 
L 238.633975 347.270584 
L 247.851125 345.387434 
L 257.068275 342.69188 
L 266.285425 340.0073 
L 275.502575 335.936771 
L 284.719725 331.781396 
L 293.936875 325.735755 
L 303.154025 311.488211 
L 312.371175 302.945956 
L 321.588325 291.963893 
L 330.805475 281.022413 
L 340.022625 271.923801 
L 349.239775 262.916427 
L 358.456925 248.665747 
L 367.674075 234.215946 
L 376.891225 220.956531 
L 386.108375 207.941585 
L 395.325525 195.147108 
L 404.542675 181.791388 
L 413.759825 172.331318 
L 422.976975 163.513719 
L 432.194125 151.328063 
L 441.411275 138.721792 
L 450.628425 131.889918 
L 459.845575 125.278392 
L 469.062725 123.274334 
L 478.279875 121.133208 
L 487.497025 113.522879 
L 496.714175 105.991065 
L 505.931325 102.5457 
L 515.148475 99.297165 
L 524.365625 98.482166 
L 533.582775 97.54421 
L 542.799925 102.405857 
L 552.017075 107.571191 
L 561.234225 116.498904 
L 570.451375 125.492167 
L 579.668525 137.072197 
L 588.885675 148.792252 
L 598.102825 164.344939 
L 607.319975 180.135823 
L 616.537125 197.041594 
L 625.754275 214.00001 
L 634.971425 231.219237 
L 644.188575 247.953807 
L 653.405725 262.97275 
L 662.622875 278.032036 
L 671.840025 290.695113 
L 681.057175 303.284378 
L 690.274325 312.190201 
L 699.491475 321.100065 
L 708.708625 327.213185 
L 717.925775 333.279811 
L 727.142925 337.071075 
L 736.360075 340.810479 
L 745.577225 343.046704 
L 754.794375 346.414157 
L 764.011525 347.673168 
L 773.228675 348.521635 
L 782.445825 349.345256 
L 791.662975 349.930017 
L 800.880125 350.514717 
L 810.097275 350.974167 
L 819.314425 351.422884 
L 828.531575 351.677906 
L 837.748725 351.934195 
L 846.965875 352.190061 
L 856.183025 352.442129 
L 865.400175 352.603319 
L 874.617325 352.760168 
L 883.834475 352.868533 
L 893.051625 352.978285 
L 902.268775 353.046789 
L 911.485925 353.111857 
L 920.703075 353.140501 
L 929.920225 353.169687 
L 939.137375 353.185185 
L 948.354525 353.196341 
L 957.571675 353.202131 
L 966.788825 353.206231 
L 976.005975 353.206955 
L 985.223125 353.206653 
" style="fill:none;stroke:#5cb85c;stroke-linecap:square;"/>
   </g>
   <g id="line2d_18">
    <path clip-path="url(#p6960ec2f99)" d="M 63.508125 353.121143 
L 72.725275 353.129103 
L 81.942425 353.129706 
L 91.159575 353.117585 
L 100.376725 353.106128 
L 109.593875 353.065966 
L 118.811025 353.006266 
L 128.028175 352.856895 
L 137.245325 352.602716 
L 146.462475 352.406369 
L 155.679625 352.390449 
L 164.896775 352.358247 
L 174.113925 352.298667 
L 183.331075 352.033092 
L 192.548225 351.740742 
L 201.765375 351.250356 
L 210.982525 350.739768 
L 220.199675 349.6961 
L 229.416825 348.627286 
L 238.633975 346.604414 
L 247.851125 344.545782 
L 257.068275 341.629276 
L 266.285425 338.703424 
L 275.502575 334.318474 
L 284.719725 329.867793 
L 293.936875 323.194336 
L 303.154025 307.837152 
L 312.371175 298.789194 
L 321.588325 287.149162 
L 330.805475 275.570096 
L 340.022625 265.605469 
L 349.239775 255.681848 
L 358.456925 240.345227 
L 367.674075 224.872623 
L 376.891225 211.166301 
L 386.108375 197.647521 
L 395.325525 184.284626 
L 404.542675 170.419766 
L 413.759825 160.699065 
L 422.976975 151.493656 
L 432.194125 139.835472 
L 441.411275 127.860576 
L 450.628425 121.864023 
L 459.845575 116.139919 
L 469.062725 115.347534 
L 478.279875 114.365858 
L 487.497025 108.715023 
L 496.714175 103.256494 
L 505.931325 101.839006 
L 515.148475 100.565402 
L 524.365625 102.002428 
L 533.582775 103.340376 
L 542.799925 109.577118 
L 552.017075 116.037524 
L 561.234225 126.185654 
L 570.451375 136.464883 
L 579.668525 148.730622 
L 588.885675 161.119258 
L 598.102825 176.357524 
L 607.319975 191.798228 
L 616.537125 207.680231 
L 625.754275 223.531419 
L 634.971425 239.605005 
L 644.188575 255.279806 
L 653.405725 268.813481 
L 662.622875 282.36006 
L 671.840025 293.913195 
L 681.057175 305.419655 
L 690.274325 313.6139 
L 699.491475 321.781913 
L 708.708625 327.579105 
L 717.925775 333.348255 
L 727.142925 336.966811 
L 736.360075 340.513305 
L 745.577225 342.70792 
L 754.794375 346.103294 
L 764.011525 347.406748 
L 773.228675 348.29007 
L 782.445825 349.157713 
L 791.662975 349.77962 
L 800.880125 350.40002 
L 810.097275 350.893602 
L 819.314425 351.381757 
L 828.531575 351.662106 
L 837.748725 351.937873 
L 846.965875 352.198323 
L 856.183025 352.458109 
L 865.400175 352.62135 
L 874.617325 352.775304 
L 883.834475 352.887951 
L 893.051625 353.0012 
L 902.268775 353.06283 
L 911.485925 353.121445 
L 920.703075 353.152802 
L 929.920225 353.185427 
L 939.137375 353.197306 
L 948.354525 353.203337 
L 957.571675 353.206533 
L 966.788825 353.209849 
L 976.005975 353.211417 
L 985.223125 353.211839 
" style="fill:none;stroke:#5cb85c;stroke-linecap:square;"/>
   </g>
   <g id="line2d_19">
    <path clip-path="url(#p6960ec2f99)" d="M 63.508125 353.116922 
L 72.725275 353.131696 
L 81.942425 353.160823 
L 91.159575 353.172763 
L 100.376725 353.165768 
L 109.593875 353.146893 
L 118.811025 353.120902 
L 128.028175 353.080077 
L 137.245325 353.040277 
L 146.462475 352.991009 
L 155.679625 352.932093 
L 164.896775 352.768731 
L 174.113925 352.610375 
L 183.331075 352.416922 
L 192.548225 352.237339 
L 201.765375 351.94722 
L 210.982525 351.637322 
L 220.199675 351.048159 
L 229.416825 350.455198 
L 238.633975 349.630611 
L 247.851125 348.784858 
L 257.068275 347.299047 
L 266.285425 345.816854 
L 275.502575 343.713597 
L 284.719725 341.566259 
L 293.936875 338.882946 
L 303.154025 333.055664 
L 312.371175 329.774926 
L 321.588325 325.657301 
L 330.805475 321.520016 
L 340.022625 315.88281 
L 349.239775 310.291011 
L 358.456925 303.475479 
L 367.674075 296.625936 
L 376.891225 288.414746 
L 386.108375 280.023068 
L 395.325525 269.56498 
L 404.542675 259.366496 
L 413.759825 247.322071 
L 422.976975 234.585726 
L 432.194125 218.678516 
L 441.411275 203.116241 
L 450.628425 187.148004 
L 459.845575 171.010738 
L 469.062725 152.722394 
L 478.279875 134.292942 
L 487.497025 118.382596 
L 496.714175 102.813929 
L 505.931325 89.901438 
L 515.148475 76.862974 
L 524.365625 68.541308 
L 533.582775 60.679937 
L 542.799925 58.483573 
L 552.017075 55.959762 
L 561.234225 60.558245 
L 570.451375 65.6839 
L 579.668525 74.186234 
L 588.885675 82.614395 
L 598.102825 99.168176 
L 607.319975 116.107174 
L 616.537125 134.945543 
L 625.754275 154.35613 
L 634.971425 180.183885 
L 644.188575 205.073382 
L 653.405725 224.920142 
L 662.622875 245.055031 
L 671.840025 262.140988 
L 681.057175 278.919519 
L 690.274325 292.600936 
L 699.491475 306.32734 
L 708.708625 314.293819 
L 717.925775 322.314331 
L 727.142925 328.47696 
L 736.360075 334.471342 
L 745.577225 338.426692 
L 754.794375 344.188968 
L 764.011525 346.15829 
L 773.228675 347.195386 
L 782.445825 348.198349 
L 791.662975 349.276752 
L 800.880125 350.352441 
L 810.097275 350.878225 
L 819.314425 351.400993 
L 828.531575 351.7285 
L 837.748725 352.046117 
L 846.965875 352.252897 
L 856.183025 352.459134 
L 865.400175 352.641733 
L 874.617325 352.814984 
L 883.834475 352.91575 
L 893.051625 353.012356 
L 902.268775 353.05481 
L 911.485925 353.099675 
L 920.703075 353.129767 
L 929.920225 353.156782 
L 939.137375 353.167577 
L 948.354525 353.179517 
L 957.571675 353.184582 
L 966.788825 353.187839 
L 976.005975 353.19013 
L 985.223125 353.190974 
" style="fill:none;stroke:#5cb85c;stroke-linecap:square;"/>
   </g>
   <g id="line2d_20">
    <path clip-path="url(#p6960ec2f99)" d="M 63.508125 353.128621 
L 72.725275 353.136219 
L 81.942425 353.142611 
L 91.159575 353.139114 
L 100.376725 353.130671 
L 109.593875 353.099072 
L 118.811025 353.046186 
L 128.028175 352.926123 
L 137.245325 352.719162 
L 146.462475 352.548383 
L 155.679625 352.538674 
L 164.896775 352.526312 
L 174.113925 352.487597 
L 183.331075 352.247289 
L 192.548225 351.981292 
L 201.765375 351.573461 
L 210.982525 351.14585 
L 220.199675 350.209341 
L 229.416825 349.25064 
L 238.633975 347.406266 
L 247.851125 345.527579 
L 257.068275 342.812124 
L 266.285425 340.091845 
L 275.502575 336.13342 
L 284.719725 332.101486 
L 293.936875 325.888383 
L 303.154025 311.580536 
L 312.371175 303.148937 
L 321.588325 292.069966 
L 330.805475 281.003297 
L 340.022625 271.578806 
L 349.239775 262.244649 
L 358.456925 247.467763 
L 367.674075 232.507797 
L 376.891225 219.384365 
L 386.108375 206.472478 
L 395.325525 193.066526 
L 404.542675 179.175796 
L 413.759825 169.72658 
L 422.976975 160.71595 
L 432.194125 148.687324 
L 441.411275 136.373705 
L 450.628425 129.227168 
L 459.845575 122.361645 
L 469.062725 120.032975 
L 478.279875 117.464359 
L 487.497025 110.259991 
L 496.714175 103.218202 
L 505.931325 100.042332 
L 515.148475 97.016496 
L 524.365625 96.801274 
L 533.582775 96.571217 
L 542.799925 102.105547 
L 552.017075 107.85546 
L 561.234225 116.982898 
L 570.451375 126.230942 
L 579.668525 138.038195 
L 588.885675 149.991864 
L 598.102825 165.601598 
L 607.319975 181.415277 
L 616.537125 197.835788 
L 625.754275 214.283857 
L 634.971425 231.472933 
L 644.188575 248.20696 
L 653.405725 262.741729 
L 662.622875 277.304417 
L 671.840025 289.637334 
L 681.057175 301.923756 
L 690.274325 310.69058 
L 699.491475 319.439133 
L 708.708625 325.650667 
L 717.925775 331.803226 
L 727.142925 335.657447 
L 736.360075 339.461495 
L 745.577225 341.803733 
L 754.794375 345.429466 
L 764.011525 346.847496 
L 773.228675 347.793413 
L 782.445825 348.705017 
L 791.662975 349.377458 
L 800.880125 350.054241 
L 810.097275 350.604569 
L 819.314425 351.149107 
L 828.531575 351.444834 
L 837.748725 351.737908 
L 846.965875 352.045816 
L 856.183025 352.345402 
L 865.400175 352.524382 
L 874.617325 352.701372 
L 883.834475 352.83603 
L 893.051625 352.970566 
L 902.268775 353.040096 
L 911.485925 353.105163 
L 920.703075 353.138872 
L 929.920225 353.17222 
L 939.137375 353.187718 
L 948.354525 353.199598 
L 957.571675 353.204724 
L 966.788825 353.208643 
L 976.005975 353.210091 
L 985.223125 353.210392 
" style="fill:none;stroke:#5cb85c;stroke-linecap:square;"/>
   </g>
   <g id="line2d_21">
    <path clip-path="url(#p6960ec2f99)" d="M 63.508125 353.115234 
L 72.725275 353.127777 
L 81.942425 353.157386 
L 91.159575 353.171376 
L 100.376725 353.166069 
L 109.593875 353.152802 
L 118.811025 353.129646 
L 128.028175 353.087675 
L 137.245325 353.05089 
L 146.462475 353.006627 
L 155.679625 352.951148 
L 164.896775 352.804672 
L 174.113925 352.662597 
L 183.331075 352.470351 
L 192.548225 352.282386 
L 201.765375 352.005292 
L 210.982525 351.725365 
L 220.199675 351.205008 
L 229.416825 350.673495 
L 238.633975 349.869472 
L 247.851125 349.040845 
L 257.068275 347.671781 
L 266.285425 346.31538 
L 275.502575 344.294016 
L 284.719725 342.23062 
L 293.936875 339.79642 
L 303.154025 334.36943 
L 312.371175 331.248858 
L 321.588325 327.293689 
L 330.805475 323.323807 
L 340.022625 317.803468 
L 349.239775 312.321723 
L 358.456925 305.721051 
L 367.674075 299.080519 
L 376.891225 290.727074 
L 386.108375 282.215151 
L 395.325525 272.051644 
L 404.542675 262.107278 
L 413.759825 250.325051 
L 422.976975 237.94341 
L 432.194125 222.431789 
L 441.411275 207.160477 
L 450.628425 191.521979 
L 459.845575 175.742311 
L 469.062725 157.805053 
L 478.279875 139.739289 
L 487.497025 123.793002 
L 496.714175 108.184957 
L 505.931325 95.074672 
L 515.148475 81.900827 
L 524.365625 73.257926 
L 533.582775 64.906531 
L 542.799925 61.408521 
L 552.017075 57.669178 
L 561.234225 61.626336 
L 570.451375 66.078886 
L 579.668525 73.134184 
L 588.885675 80.162586 
L 598.102825 95.837025 
L 607.319975 111.827273 
L 616.537125 129.733896 
L 625.754275 148.341726 
L 634.971425 174.488003 
L 644.188575 199.641508 
L 653.405725 219.749321 
L 662.622875 240.17077 
L 671.840025 257.938697 
L 681.057175 275.404564 
L 690.274325 289.846767 
L 699.491475 304.298136 
L 708.708625 312.786841 
L 717.925775 321.360032 
L 727.142925 327.881103 
L 736.360075 334.221687 
L 745.577225 338.324116 
L 754.794375 344.300408 
L 764.011525 346.360849 
L 773.228675 347.472238 
L 782.445825 348.529172 
L 791.662975 349.585866 
L 800.880125 350.654922 
L 810.097275 351.140966 
L 819.314425 351.610969 
L 828.531575 351.922797 
L 837.748725 352.231248 
L 846.965875 352.418369 
L 856.183025 352.603561 
L 865.400175 352.751364 
L 874.617325 352.891026 
L 883.834475 352.979913 
L 893.051625 353.061383 
L 902.268775 353.085383 
L 911.485925 353.113666 
L 920.703075 353.138993 
L 929.920225 353.163175 
L 939.137375 353.172823 
L 948.354525 353.181507 
L 957.571675 353.187537 
L 966.788825 353.188924 
L 976.005975 353.184582 
L 985.223125 353.183014 
" style="fill:none;stroke:#5cb85c;stroke-linecap:square;"/>
   </g>
   <g id="line2d_22">
    <path clip-path="url(#p6960ec2f99)" d="M 63.508125 353.134048 
L 72.725275 353.139717 
L 81.942425 353.137546 
L 91.159575 353.125123 
L 100.376725 353.116018 
L 109.593875 353.08478 
L 118.811025 353.030025 
L 128.028175 352.897358 
L 137.245325 352.682558 
L 146.462475 352.511236 
L 155.679625 352.497548 
L 164.896775 352.478612 
L 174.113925 352.423194 
L 183.331075 352.163588 
L 192.548225 351.881068 
L 201.765375 351.424451 
L 210.982525 350.95487 
L 220.199675 350.006843 
L 229.416825 349.028785 
L 238.633975 347.13665 
L 247.851125 345.219972 
L 257.068275 342.565785 
L 266.285425 339.911659 
L 275.502575 335.92857 
L 284.719725 331.876675 
L 293.936875 325.79835 
L 303.154025 311.708981 
L 312.371175 303.372542 
L 321.588325 292.730226 
L 330.805475 282.107027 
L 340.022625 273.061241 
L 349.239775 264.135638 
L 358.456925 250.216264 
L 367.674075 236.071959 
L 376.891225 222.882315 
L 386.108375 209.907531 
L 395.325525 197.24548 
L 404.542675 184.08068 
L 413.759825 174.606198 
L 422.976975 165.635548 
L 432.194125 153.621335 
L 441.411275 141.33256 
L 450.628425 134.01814 
L 459.845575 126.872206 
L 469.062725 123.865608 
L 478.279875 120.665194 
L 487.497025 112.750756 
L 496.714175 105.009328 
L 505.931325 100.941634 
L 515.148475 96.992254 
L 524.365625 96.016789 
L 533.582775 95.048922 
L 542.799925 99.599706 
L 552.017075 104.32953 
L 561.234225 113.071992 
L 570.451375 121.981976 
L 579.668525 133.911102 
L 588.885675 145.971688 
L 598.102825 161.868285 
L 607.319975 178.035944 
L 616.537125 194.909996 
L 625.754275 211.771263 
L 634.971425 229.629946 
L 644.188575 247.006142 
L 653.405725 262.030392 
L 662.622875 277.126342 
L 671.840025 290.081829 
L 681.057175 302.978641 
L 690.274325 312.106259 
L 699.491475 321.196912 
L 708.708625 327.555466 
L 717.925775 333.867948 
L 727.142925 337.677967 
L 736.360075 341.431361 
L 745.577225 343.740613 
L 754.794375 347.165234 
L 764.011525 348.41731 
L 773.228675 349.288511 
L 782.445825 350.132816 
L 791.662975 350.675666 
L 800.880125 351.215682 
L 810.097275 351.621703 
L 819.314425 352.018318 
L 828.531575 352.212735 
L 837.748725 352.403776 
L 846.965875 352.584927 
L 856.183025 352.763002 
L 865.400175 352.856593 
L 874.617325 352.945781 
L 883.834475 353.016577 
L 893.051625 353.086409 
L 902.268775 353.127716 
L 911.485925 353.166431 
L 920.703075 353.181145 
L 929.920225 353.197186 
L 939.137375 353.205085 
L 948.354525 353.208945 
L 957.571675 353.211538 
L 966.788825 353.213287 
L 976.005975 353.212623 
L 985.223125 353.211719 
" style="fill:none;stroke:#5cb85c;stroke-linecap:square;"/>
   </g>
   <g id="line2d_23">
    <path clip-path="url(#p6960ec2f99)" d="M 63.508125 353.08665 
L 72.725275 353.103655 
L 81.942425 353.143938 
L 91.159575 353.164682 
L 100.376725 353.159376 
L 109.593875 353.144239 
L 118.811025 353.12048 
L 128.028175 353.077785 
L 137.245325 353.037201 
L 146.462475 352.989501 
L 155.679625 352.935771 
L 164.896775 352.792973 
L 174.113925 352.654095 
L 183.331075 352.45437 
L 192.548225 352.258626 
L 201.765375 351.97894 
L 210.982525 351.690509 
L 220.199675 351.128001 
L 229.416825 350.557894 
L 238.633975 349.742896 
L 247.851125 348.897505 
L 257.068275 347.496962 
L 266.285425 346.112942 
L 275.502575 344.093568 
L 284.719725 342.035419 
L 293.936875 339.442198 
L 303.154025 333.624564 
L 312.371175 330.277795 
L 321.588325 326.149556 
L 330.805475 322.00401 
L 340.022625 316.068363 
L 349.239775 310.163289 
L 358.456925 303.128675 
L 367.674075 296.061739 
L 376.891225 287.675187 
L 386.108375 279.111344 
L 395.325525 268.873 
L 404.542675 258.889558 
L 413.759825 247.317066 
L 422.976975 235.156134 
L 432.194125 220.311648 
L 441.411275 205.630946 
L 450.628425 190.602596 
L 459.845575 175.537038 
L 469.062725 158.400728 
L 478.279875 141.071086 
L 487.497025 126.357096 
L 496.714175 112.080184 
L 505.931325 99.789299 
L 515.148475 87.309183 
L 524.365625 79.124828 
L 533.582775 71.327981 
L 542.799925 68.592626 
L 552.017075 65.589224 
L 561.234225 70.212492 
L 570.451375 75.322588 
L 579.668525 82.735846 
L 588.885675 90.038146 
L 598.102825 105.846217 
L 607.319975 122.147568 
L 616.537125 139.831251 
L 625.754275 158.039693 
L 634.971425 182.689183 
L 644.188575 206.38745 
L 653.405725 225.501465 
L 662.622875 244.908434 
L 671.840025 261.848397 
L 681.057175 278.497035 
L 690.274325 292.3192 
L 699.491475 306.193044 
L 708.708625 314.328253 
L 717.925775 322.506457 
L 727.142925 328.678433 
L 736.360075 334.680896 
L 745.577225 338.496101 
L 754.794375 344.271764 
L 764.011525 346.399262 
L 773.228675 347.497625 
L 782.445825 348.553836 
L 791.662975 349.564097 
L 800.880125 350.582196 
L 810.097275 351.0642 
L 819.314425 351.529138 
L 828.531575 351.82993 
L 837.748725 352.123306 
L 846.965875 352.336116 
L 856.183025 352.554353 
L 865.400175 352.721273 
L 874.617325 352.872212 
L 883.834475 352.957118 
L 893.051625 353.038769 
L 902.268775 353.069403 
L 911.485925 353.103776 
L 920.703075 353.13037 
L 929.920225 353.157144 
L 939.137375 353.16818 
L 948.354525 353.177768 
L 957.571675 353.183135 
L 966.788825 353.183798 
L 976.005975 353.183075 
L 985.223125 353.184341 
" style="fill:none;stroke:#5cb85c;stroke-linecap:square;"/>
   </g>
   <g id="line2d_24">
    <path clip-path="url(#p6960ec2f99)" d="M 63.508125 353.2239 
L 985.223125 353.2239 
" style="fill:none;stroke:#dedede;stroke-linecap:square;stroke-width:2;"/>
   </g>
   <g id="text_15">
    <!-- FastQC: Per Sequence GC Content -->
    <defs>
     <path d="M 9.8125 72.90625 
L 51.703125 72.90625 
L 51.703125 64.59375 
L 19.671875 64.59375 
L 19.671875 43.109375 
L 48.578125 43.109375 
L 48.578125 34.8125 
L 19.671875 34.8125 
L 19.671875 0 
L 9.8125 0 
z
" id="DejaVuSans-70"/>
     <path d="M 34.28125 27.484375 
Q 23.390625 27.484375 19.1875 25 
Q 14.984375 22.515625 14.984375 16.5 
Q 14.984375 11.71875 18.140625 8.90625 
Q 21.296875 6.109375 26.703125 6.109375 
Q 34.1875 6.109375 38.703125 11.40625 
Q 43.21875 16.703125 43.21875 25.484375 
L 43.21875 27.484375 
z
M 52.203125 31.203125 
L 52.203125 0 
L 43.21875 0 
L 43.21875 8.296875 
Q 40.140625 3.328125 35.546875 0.953125 
Q 30.953125 -1.421875 24.3125 -1.421875 
Q 15.921875 -1.421875 10.953125 3.296875 
Q 6 8.015625 6 15.921875 
Q 6 25.140625 12.171875 29.828125 
Q 18.359375 34.515625 30.609375 34.515625 
L 43.21875 34.515625 
L 43.21875 35.40625 
Q 43.21875 41.609375 39.140625 45 
Q 35.0625 48.390625 27.6875 48.390625 
Q 23 48.390625 18.546875 47.265625 
Q 14.109375 46.140625 10.015625 43.890625 
L 10.015625 52.203125 
Q 14.9375 54.109375 19.578125 55.046875 
Q 24.21875 56 28.609375 56 
Q 40.484375 56 46.34375 49.84375 
Q 52.203125 43.703125 52.203125 31.203125 
z
" id="DejaVuSans-97"/>
     <path d="M 44.28125 53.078125 
L 44.28125 44.578125 
Q 40.484375 46.53125 36.375 47.5 
Q 32.28125 48.484375 27.875 48.484375 
Q 21.1875 48.484375 17.84375 46.4375 
Q 14.5 44.390625 14.5 40.28125 
Q 14.5 37.15625 16.890625 35.375 
Q 19.28125 33.59375 26.515625 31.984375 
L 29.59375 31.296875 
Q 39.15625 29.25 43.1875 25.515625 
Q 47.21875 21.78125 47.21875 15.09375 
Q 47.21875 7.46875 41.1875 3.015625 
Q 35.15625 -1.421875 24.609375 -1.421875 
Q 20.21875 -1.421875 15.453125 -0.5625 
Q 10.6875 0.296875 5.421875 2 
L 5.421875 11.28125 
Q 10.40625 8.6875 15.234375 7.390625 
Q 20.0625 6.109375 24.8125 6.109375 
Q 31.15625 6.109375 34.5625 8.28125 
Q 37.984375 10.453125 37.984375 14.40625 
Q 37.984375 18.0625 35.515625 20.015625 
Q 33.0625 21.96875 24.703125 23.78125 
L 21.578125 24.515625 
Q 13.234375 26.265625 9.515625 29.90625 
Q 5.8125 33.546875 5.8125 39.890625 
Q 5.8125 47.609375 11.28125 51.796875 
Q 16.75 56 26.8125 56 
Q 31.78125 56 36.171875 55.265625 
Q 40.578125 54.546875 44.28125 53.078125 
z
" id="DejaVuSans-115"/>
     <path d="M 39.40625 66.21875 
Q 28.65625 66.21875 22.328125 58.203125 
Q 16.015625 50.203125 16.015625 36.375 
Q 16.015625 22.609375 22.328125 14.59375 
Q 28.65625 6.59375 39.40625 6.59375 
Q 50.140625 6.59375 56.421875 14.59375 
Q 62.703125 22.609375 62.703125 36.375 
Q 62.703125 50.203125 56.421875 58.203125 
Q 50.140625 66.21875 39.40625 66.21875 
z
M 53.21875 1.3125 
L 66.21875 -12.890625 
L 54.296875 -12.890625 
L 43.5 -1.21875 
Q 41.890625 -1.3125 41.03125 -1.359375 
Q 40.1875 -1.421875 39.40625 -1.421875 
Q 24.03125 -1.421875 14.8125 8.859375 
Q 5.609375 19.140625 5.609375 36.375 
Q 5.609375 53.65625 14.8125 63.9375 
Q 24.03125 74.21875 39.40625 74.21875 
Q 54.734375 74.21875 63.90625 63.9375 
Q 73.09375 53.65625 73.09375 36.375 
Q 73.09375 23.6875 67.984375 14.640625 
Q 62.890625 5.609375 53.21875 1.3125 
z
" id="DejaVuSans-81"/>
     <path d="M 11.71875 12.40625 
L 22.015625 12.40625 
L 22.015625 0 
L 11.71875 0 
z
M 11.71875 51.703125 
L 22.015625 51.703125 
L 22.015625 39.3125 
L 11.71875 39.3125 
z
" id="DejaVuSans-58"/>
     <path d="M 19.671875 64.796875 
L 19.671875 37.40625 
L 32.078125 37.40625 
Q 38.96875 37.40625 42.71875 40.96875 
Q 46.484375 44.53125 46.484375 51.125 
Q 46.484375 57.671875 42.71875 61.234375 
Q 38.96875 64.796875 32.078125 64.796875 
z
M 9.8125 72.90625 
L 32.078125 72.90625 
Q 44.34375 72.90625 50.609375 67.359375 
Q 56.890625 61.8125 56.890625 51.125 
Q 56.890625 40.328125 50.609375 34.8125 
Q 44.34375 29.296875 32.078125 29.296875 
L 19.671875 29.296875 
L 19.671875 0 
L 9.8125 0 
z
" id="DejaVuSans-80"/>
     <path d="M 56.203125 29.59375 
L 56.203125 25.203125 
L 14.890625 25.203125 
Q 15.484375 15.921875 20.484375 11.0625 
Q 25.484375 6.203125 34.421875 6.203125 
Q 39.59375 6.203125 44.453125 7.46875 
Q 49.3125 8.734375 54.109375 11.28125 
L 54.109375 2.78125 
Q 49.265625 0.734375 44.1875 -0.34375 
Q 39.109375 -1.421875 33.890625 -1.421875 
Q 20.796875 -1.421875 13.15625 6.1875 
Q 5.515625 13.8125 5.515625 26.8125 
Q 5.515625 40.234375 12.765625 48.109375 
Q 20.015625 56 32.328125 56 
Q 43.359375 56 49.78125 48.890625 
Q 56.203125 41.796875 56.203125 29.59375 
z
M 47.21875 32.234375 
Q 47.125 39.59375 43.09375 43.984375 
Q 39.0625 48.390625 32.421875 48.390625 
Q 24.90625 48.390625 20.390625 44.140625 
Q 15.875 39.890625 15.1875 32.171875 
z
" id="DejaVuSans-101"/>
     <path d="M 41.109375 46.296875 
Q 39.59375 47.171875 37.8125 47.578125 
Q 36.03125 48 33.890625 48 
Q 26.265625 48 22.1875 43.046875 
Q 18.109375 38.09375 18.109375 28.8125 
L 18.109375 0 
L 9.078125 0 
L 9.078125 54.6875 
L 18.109375 54.6875 
L 18.109375 46.1875 
Q 20.953125 51.171875 25.484375 53.578125 
Q 30.03125 56 36.53125 56 
Q 37.453125 56 38.578125 55.875 
Q 39.703125 55.765625 41.0625 55.515625 
z
" id="DejaVuSans-114"/>
     <path d="M 53.515625 70.515625 
L 53.515625 60.890625 
Q 47.90625 63.578125 42.921875 64.890625 
Q 37.9375 66.21875 33.296875 66.21875 
Q 25.25 66.21875 20.875 63.09375 
Q 16.5 59.96875 16.5 54.203125 
Q 16.5 49.359375 19.40625 46.890625 
Q 22.3125 44.4375 30.421875 42.921875 
L 36.375 41.703125 
Q 47.40625 39.59375 52.65625 34.296875 
Q 57.90625 29 57.90625 20.125 
Q 57.90625 9.515625 50.796875 4.046875 
Q 43.703125 -1.421875 29.984375 -1.421875 
Q 24.8125 -1.421875 18.96875 -0.25 
Q 13.140625 0.921875 6.890625 3.21875 
L 6.890625 13.375 
Q 12.890625 10.015625 18.65625 8.296875 
Q 24.421875 6.59375 29.984375 6.59375 
Q 38.421875 6.59375 43.015625 9.90625 
Q 47.609375 13.234375 47.609375 19.390625 
Q 47.609375 24.75 44.3125 27.78125 
Q 41.015625 30.8125 33.5 32.328125 
L 27.484375 33.5 
Q 16.453125 35.6875 11.515625 40.375 
Q 6.59375 45.0625 6.59375 53.421875 
Q 6.59375 63.09375 13.40625 68.65625 
Q 20.21875 74.21875 32.171875 74.21875 
Q 37.3125 74.21875 42.625 73.28125 
Q 47.953125 72.359375 53.515625 70.515625 
z
" id="DejaVuSans-83"/>
     <path d="M 14.796875 27.296875 
Q 14.796875 17.390625 18.875 11.75 
Q 22.953125 6.109375 30.078125 6.109375 
Q 37.203125 6.109375 41.296875 11.75 
Q 45.40625 17.390625 45.40625 27.296875 
Q 45.40625 37.203125 41.296875 42.84375 
Q 37.203125 48.484375 30.078125 48.484375 
Q 22.953125 48.484375 18.875 42.84375 
Q 14.796875 37.203125 14.796875 27.296875 
z
M 45.40625 8.203125 
Q 42.578125 3.328125 38.25 0.953125 
Q 33.9375 -1.421875 27.875 -1.421875 
Q 17.96875 -1.421875 11.734375 6.484375 
Q 5.515625 14.40625 5.515625 27.296875 
Q 5.515625 40.1875 11.734375 48.09375 
Q 17.96875 56 27.875 56 
Q 33.9375 56 38.25 53.625 
Q 42.578125 51.265625 45.40625 46.390625 
L 45.40625 54.6875 
L 54.390625 54.6875 
L 54.390625 -20.796875 
L 45.40625 -20.796875 
z
" id="DejaVuSans-113"/>
     <path d="M 48.78125 52.59375 
L 48.78125 44.1875 
Q 44.96875 46.296875 41.140625 47.34375 
Q 37.3125 48.390625 33.40625 48.390625 
Q 24.65625 48.390625 19.8125 42.84375 
Q 14.984375 37.3125 14.984375 27.296875 
Q 14.984375 17.28125 19.8125 11.734375 
Q 24.65625 6.203125 33.40625 6.203125 
Q 37.3125 6.203125 41.140625 7.25 
Q 44.96875 8.296875 48.78125 10.40625 
L 48.78125 2.09375 
Q 45.015625 0.34375 40.984375 -0.53125 
Q 36.96875 -1.421875 32.421875 -1.421875 
Q 20.0625 -1.421875 12.78125 6.34375 
Q 5.515625 14.109375 5.515625 27.296875 
Q 5.515625 40.671875 12.859375 48.328125 
Q 20.21875 56 33.015625 56 
Q 37.15625 56 41.109375 55.140625 
Q 45.0625 54.296875 48.78125 52.59375 
z
" id="DejaVuSans-99"/>
    </defs>
    <g transform="translate(386.724375 19.3575)scale(0.16 -0.16)">
     <use xlink:href="#DejaVuSans-70"/>
     <use x="57.378906" xlink:href="#DejaVuSans-97"/>
     <use x="118.658203" xlink:href="#DejaVuSans-115"/>
     <use x="170.757812" xlink:href="#DejaVuSans-116"/>
     <use x="209.966797" xlink:href="#DejaVuSans-81"/>
     <use x="288.677734" xlink:href="#DejaVuSans-67"/>
     <use x="358.501953" xlink:href="#DejaVuSans-58"/>
     <use x="392.193359" xlink:href="#DejaVuSans-32"/>
     <use x="423.980469" xlink:href="#DejaVuSans-80"/>
     <use x="484.236328" xlink:href="#DejaVuSans-101"/>
     <use x="545.759766" xlink:href="#DejaVuSans-114"/>
     <use x="586.873047" xlink:href="#DejaVuSans-32"/>
     <use x="618.660156" xlink:href="#DejaVuSans-83"/>
     <use x="682.136719" xlink:href="#DejaVuSans-101"/>
     <use x="743.660156" xlink:href="#DejaVuSans-113"/>
     <use x="807.136719" xlink:href="#DejaVuSans-117"/>
     <use x="870.515625" xlink:href="#DejaVuSans-101"/>
     <use x="932.039062" xlink:href="#DejaVuSans-110"/>
     <use x="995.417969" xlink:href="#DejaVuSans-99"/>
     <use x="1050.398438" xlink:href="#DejaVuSans-101"/>
     <use x="1111.921875" xlink:href="#DejaVuSans-32"/>
     <use x="1143.708984" xlink:href="#DejaVuSans-71"/>
     <use x="1221.199219" xlink:href="#DejaVuSans-67"/>
     <use x="1291.023438" xlink:href="#DejaVuSans-32"/>
     <use x="1322.810547" xlink:href="#DejaVuSans-67"/>
     <use x="1392.634766" xlink:href="#DejaVuSans-111"/>
     <use x="1453.816406" xlink:href="#DejaVuSans-110"/>
     <use x="1517.195312" xlink:href="#DejaVuSans-116"/>
     <use x="1556.404297" xlink:href="#DejaVuSans-101"/>
     <use x="1617.927734" xlink:href="#DejaVuSans-110"/>
     <use x="1681.306641" xlink:href="#DejaVuSans-116"/>
    </g>
   </g>
  </g>
 </g>
 <defs>
  <clipPath id="p6960ec2f99">
   <rect height="317.968" width="921.715" x="63.508125" y="35.2559"/>
  </clipPath>
 </defs>
</svg>
