<?xml version="1.0" encoding="utf-8" standalone="no"?>
<!DOCTYPE svg PUBLIC "-//W3C//DTD SVG 1.1//EN"
  "http://www.w3.org/Graphics/SVG/1.1/DTD/svg11.dtd">
<!-- Created with matplotlib (https://matplotlib.org/) -->
<svg height="388.844525pt" version="1.1" viewBox="0 0 1000.280625 388.844525" width="1000.280625pt" xmlns="http://www.w3.org/2000/svg" xmlns:xlink="http://www.w3.org/1999/xlink">
 <defs>
  <style type="text/css">
*{stroke-linecap:butt;stroke-linejoin:round;}
  </style>
 </defs>
 <g id="figure_1">
  <g id="axes_1">
   <g id="patch_1">
    <path d="M 40.600625 353.2239 
L 985.445625 353.2239 
L 985.445625 35.2559 
L 40.600625 35.2559 
z
" style="fill:#ffffff;"/>
   </g>
   <g id="matplotlib.axis_1">
    <g id="xtick_1">
     <g id="text_1">
      <!-- 0 -->
      <defs>
       <path d="M 31.78125 66.40625 
Q 24.171875 66.40625 20.328125 58.90625 
Q 16.5 51.421875 16.5 36.375 
Q 16.5 21.390625 20.328125 13.890625 
Q 24.171875 6.390625 31.78125 6.390625 
Q 39.453125 6.390625 43.28125 13.890625 
Q 47.125 21.390625 47.125 36.375 
Q 47.125 51.421875 43.28125 58.90625 
Q 39.453125 66.40625 31.78125 66.40625 
z
M 31.78125 74.21875 
Q 44.046875 74.21875 50.515625 64.515625 
Q 56.984375 54.828125 56.984375 36.375 
Q 56.984375 17.96875 50.515625 8.265625 
Q 44.046875 -1.421875 31.78125 -1.421875 
Q 19.53125 -1.421875 13.0625 8.265625 
Q 6.59375 17.96875 6.59375 36.375 
Q 6.59375 54.828125 13.0625 64.515625 
Q 19.53125 74.21875 31.78125 74.21875 
z
" id="DejaVuSans-48"/>
      </defs>
      <g transform="translate(38.055625 366.30265)scale(0.08 -0.08)">
       <use xlink:href="#DejaVuSans-48"/>
      </g>
     </g>
    </g>
    <g id="xtick_2">
     <g id="text_2">
      <!-- 20 -->
      <defs>
       <path d="M 19.1875 8.296875 
L 53.609375 8.296875 
L 53.609375 0 
L 7.328125 0 
L 7.328125 8.296875 
Q 12.9375 14.109375 22.625 23.890625 
Q 32.328125 33.6875 34.8125 36.53125 
Q 39.546875 41.84375 41.421875 45.53125 
Q 43.3125 49.21875 43.3125 52.78125 
Q 43.3125 58.59375 39.234375 62.25 
Q 35.15625 65.921875 28.609375 65.921875 
Q 23.96875 65.921875 18.8125 64.3125 
Q 13.671875 62.703125 7.8125 59.421875 
L 7.8125 69.390625 
Q 13.765625 71.78125 18.9375 73 
Q 24.125 74.21875 28.421875 74.21875 
Q 39.75 74.21875 46.484375 68.546875 
Q 53.21875 62.890625 53.21875 53.421875 
Q 53.21875 48.921875 51.53125 44.890625 
Q 49.859375 40.875 45.40625 35.40625 
Q 44.1875 33.984375 37.640625 27.21875 
Q 31.109375 20.453125 19.1875 8.296875 
z
" id="DejaVuSans-50"/>
      </defs>
      <g transform="translate(224.479625 366.30265)scale(0.08 -0.08)">
       <use xlink:href="#DejaVuSans-50"/>
       <use x="63.623047" xlink:href="#DejaVuSans-48"/>
      </g>
     </g>
    </g>
    <g id="xtick_3">
     <g id="text_3">
      <!-- 40 -->
      <defs>
       <path d="M 37.796875 64.3125 
L 12.890625 25.390625 
L 37.796875 25.390625 
z
M 35.203125 72.90625 
L 47.609375 72.90625 
L 47.609375 25.390625 
L 58.015625 25.390625 
L 58.015625 17.1875 
L 47.609375 17.1875 
L 47.609375 0 
L 37.796875 0 
L 37.796875 17.1875 
L 4.890625 17.1875 
L 4.890625 26.703125 
z
" id="DejaVuSans-52"/>
      </defs>
      <g transform="translate(413.448625 366.30265)scale(0.08 -0.08)">
       <use xlink:href="#DejaVuSans-52"/>
       <use x="63.623047" xlink:href="#DejaVuSans-48"/>
      </g>
     </g>
    </g>
    <g id="xtick_4">
     <g id="text_4">
      <!-- 60 -->
      <defs>
       <path d="M 33.015625 40.375 
Q 26.375 40.375 22.484375 35.828125 
Q 18.609375 31.296875 18.609375 23.390625 
Q 18.609375 15.53125 22.484375 10.953125 
Q 26.375 6.390625 33.015625 6.390625 
Q 39.65625 6.390625 43.53125 10.953125 
Q 47.40625 15.53125 47.40625 23.390625 
Q 47.40625 31.296875 43.53125 35.828125 
Q 39.65625 40.375 33.015625 40.375 
z
M 52.59375 71.296875 
L 52.59375 62.3125 
Q 48.875 64.0625 45.09375 64.984375 
Q 41.3125 65.921875 37.59375 65.921875 
Q 27.828125 65.921875 22.671875 59.328125 
Q 17.53125 52.734375 16.796875 39.40625 
Q 19.671875 43.65625 24.015625 45.921875 
Q 28.375 48.1875 33.59375 48.1875 
Q 44.578125 48.1875 50.953125 41.515625 
Q 57.328125 34.859375 57.328125 23.390625 
Q 57.328125 12.15625 50.6875 5.359375 
Q 44.046875 -1.421875 33.015625 -1.421875 
Q 20.359375 -1.421875 13.671875 8.265625 
Q 6.984375 17.96875 6.984375 36.375 
Q 6.984375 53.65625 15.1875 63.9375 
Q 23.390625 74.21875 37.203125 74.21875 
Q 40.921875 74.21875 44.703125 73.484375 
Q 48.484375 72.75 52.59375 71.296875 
z
" id="DejaVuSans-54"/>
      </defs>
      <g transform="translate(602.417625 366.30265)scale(0.08 -0.08)">
       <use xlink:href="#DejaVuSans-54"/>
       <use x="63.623047" xlink:href="#DejaVuSans-48"/>
      </g>
     </g>
    </g>
    <g id="xtick_5">
     <g id="text_5">
      <!-- 80 -->
      <defs>
       <path d="M 31.78125 34.625 
Q 24.75 34.625 20.71875 30.859375 
Q 16.703125 27.09375 16.703125 20.515625 
Q 16.703125 13.921875 20.71875 10.15625 
Q 24.75 6.390625 31.78125 6.390625 
Q 38.8125 6.390625 42.859375 10.171875 
Q 46.921875 13.96875 46.921875 20.515625 
Q 46.921875 27.09375 42.890625 30.859375 
Q 38.875 34.625 31.78125 34.625 
z
M 21.921875 38.8125 
Q 15.578125 40.375 12.03125 44.71875 
Q 8.5 49.078125 8.5 55.328125 
Q 8.5 64.0625 14.71875 69.140625 
Q 20.953125 74.21875 31.78125 74.21875 
Q 42.671875 74.21875 48.875 69.140625 
Q 55.078125 64.0625 55.078125 55.328125 
Q 55.078125 49.078125 51.53125 44.71875 
Q 48 40.375 41.703125 38.8125 
Q 48.828125 37.15625 52.796875 32.3125 
Q 56.78125 27.484375 56.78125 20.515625 
Q 56.78125 9.90625 50.3125 4.234375 
Q 43.84375 -1.421875 31.78125 -1.421875 
Q 19.734375 -1.421875 13.25 4.234375 
Q 6.78125 9.90625 6.78125 20.515625 
Q 6.78125 27.484375 10.78125 32.3125 
Q 14.796875 37.15625 21.921875 38.8125 
z
M 18.3125 54.390625 
Q 18.3125 48.734375 21.84375 45.5625 
Q 25.390625 42.390625 31.78125 42.390625 
Q 38.140625 42.390625 41.71875 45.5625 
Q 45.3125 48.734375 45.3125 54.390625 
Q 45.3125 60.0625 41.71875 63.234375 
Q 38.140625 66.40625 31.78125 66.40625 
Q 25.390625 66.40625 21.84375 63.234375 
Q 18.3125 60.0625 18.3125 54.390625 
z
" id="DejaVuSans-56"/>
      </defs>
      <g transform="translate(791.386625 366.30265)scale(0.08 -0.08)">
       <use xlink:href="#DejaVuSans-56"/>
       <use x="63.623047" xlink:href="#DejaVuSans-48"/>
      </g>
     </g>
    </g>
    <g id="xtick_6">
     <g id="text_6">
      <!-- 100 -->
      <defs>
       <path d="M 12.40625 8.296875 
L 28.515625 8.296875 
L 28.515625 63.921875 
L 10.984375 60.40625 
L 10.984375 69.390625 
L 28.421875 72.90625 
L 38.28125 72.90625 
L 38.28125 8.296875 
L 54.390625 8.296875 
L 54.390625 0 
L 12.40625 0 
z
" id="DejaVuSans-49"/>
      </defs>
      <g transform="translate(977.810625 366.30265)scale(0.08 -0.08)">
       <use xlink:href="#DejaVuSans-49"/>
       <use x="63.623047" xlink:href="#DejaVuSans-48"/>
       <use x="127.246094" xlink:href="#DejaVuSans-48"/>
      </g>
     </g>
    </g>
    <g id="text_7">
     <!-- % GC -->
     <defs>
      <path d="M 72.703125 32.078125 
Q 68.453125 32.078125 66.03125 28.46875 
Q 63.625 24.859375 63.625 18.40625 
Q 63.625 12.0625 66.03125 8.421875 
Q 68.453125 4.78125 72.703125 4.78125 
Q 76.859375 4.78125 79.265625 8.421875 
Q 81.6875 12.0625 81.6875 18.40625 
Q 81.6875 24.8125 79.265625 28.4375 
Q 76.859375 32.078125 72.703125 32.078125 
z
M 72.703125 38.28125 
Q 80.421875 38.28125 84.953125 32.90625 
Q 89.5 27.546875 89.5 18.40625 
Q 89.5 9.28125 84.9375 3.921875 
Q 80.375 -1.421875 72.703125 -1.421875 
Q 64.890625 -1.421875 60.34375 3.921875 
Q 55.8125 9.28125 55.8125 18.40625 
Q 55.8125 27.59375 60.375 32.9375 
Q 64.9375 38.28125 72.703125 38.28125 
z
M 22.3125 68.015625 
Q 18.109375 68.015625 15.6875 64.375 
Q 13.28125 60.75 13.28125 54.390625 
Q 13.28125 47.953125 15.671875 44.328125 
Q 18.0625 40.71875 22.3125 40.71875 
Q 26.5625 40.71875 28.96875 44.328125 
Q 31.390625 47.953125 31.390625 54.390625 
Q 31.390625 60.6875 28.953125 64.34375 
Q 26.515625 68.015625 22.3125 68.015625 
z
M 66.40625 74.21875 
L 74.21875 74.21875 
L 28.609375 -1.421875 
L 20.796875 -1.421875 
z
M 22.3125 74.21875 
Q 30.03125 74.21875 34.609375 68.875 
Q 39.203125 63.53125 39.203125 54.390625 
Q 39.203125 45.171875 34.640625 39.84375 
Q 30.078125 34.515625 22.3125 34.515625 
Q 14.546875 34.515625 10.03125 39.859375 
Q 5.515625 45.21875 5.515625 54.390625 
Q 5.515625 63.484375 10.046875 68.84375 
Q 14.59375 74.21875 22.3125 74.21875 
z
" id="DejaVuSans-37"/>
      <path id="DejaVuSans-32"/>
      <path d="M 59.515625 10.40625 
L 59.515625 29.984375 
L 43.40625 29.984375 
L 43.40625 38.09375 
L 69.28125 38.09375 
L 69.28125 6.78125 
Q 63.578125 2.734375 56.6875 0.65625 
Q 49.8125 -1.421875 42 -1.421875 
Q 24.90625 -1.421875 15.25 8.5625 
Q 5.609375 18.5625 5.609375 36.375 
Q 5.609375 54.25 15.25 64.234375 
Q 24.90625 74.21875 42 74.21875 
Q 49.125 74.21875 55.546875 72.453125 
Q 61.96875 70.703125 67.390625 67.28125 
L 67.390625 56.78125 
Q 61.921875 61.421875 55.765625 63.765625 
Q 49.609375 66.109375 42.828125 66.109375 
Q 29.4375 66.109375 22.71875 58.640625 
Q 16.015625 51.171875 16.015625 36.375 
Q 16.015625 21.625 22.71875 14.15625 
Q 29.4375 6.6875 42.828125 6.6875 
Q 48.046875 6.6875 52.140625 7.59375 
Q 56.25 8.5 59.515625 10.40625 
z
" id="DejaVuSans-71"/>
      <path d="M 64.40625 67.28125 
L 64.40625 56.890625 
Q 59.421875 61.53125 53.78125 63.8125 
Q 48.140625 66.109375 41.796875 66.109375 
Q 29.296875 66.109375 22.65625 58.46875 
Q 16.015625 50.828125 16.015625 36.375 
Q 16.015625 21.96875 22.65625 14.328125 
Q 29.296875 6.6875 41.796875 6.6875 
Q 48.140625 6.6875 53.78125 8.984375 
Q 59.421875 11.28125 64.40625 15.921875 
L 64.40625 5.609375 
Q 59.234375 2.09375 53.4375 0.328125 
Q 47.65625 -1.421875 41.21875 -1.421875 
Q 24.65625 -1.421875 15.125 8.703125 
Q 5.609375 18.84375 5.609375 36.375 
Q 5.609375 53.953125 15.125 64.078125 
Q 24.65625 74.21875 41.21875 74.21875 
Q 47.75 74.21875 53.53125 72.484375 
Q 59.328125 70.75 64.40625 67.28125 
z
" id="DejaVuSans-67"/>
     </defs>
     <g transform="translate(499.317656 379.564837)scale(0.1 -0.1)">
      <use xlink:href="#DejaVuSans-37"/>
      <use x="95.019531" xlink:href="#DejaVuSans-32"/>
      <use x="126.806641" xlink:href="#DejaVuSans-71"/>
      <use x="204.296875" xlink:href="#DejaVuSans-67"/>
     </g>
    </g>
   </g>
   <g id="matplotlib.axis_2">
    <g id="ytick_1">
     <g id="line2d_1">
      <path clip-path="url(#p1013ed14cc)" d="M 40.600625 353.2239 
L 985.445625 353.2239 
" style="fill:none;stroke:#dedede;stroke-linecap:square;"/>
     </g>
     <g id="text_8">
      <!-- 0.0 -->
      <defs>
       <path d="M 10.6875 12.40625 
L 21 12.40625 
L 21 0 
L 10.6875 0 
z
" id="DejaVuSans-46"/>
      </defs>
      <g transform="translate(20.878125 356.263275)scale(0.08 -0.08)">
       <use xlink:href="#DejaVuSans-48"/>
       <use x="63.623047" xlink:href="#DejaVuSans-46"/>
       <use x="95.410156" xlink:href="#DejaVuSans-48"/>
      </g>
     </g>
    </g>
    <g id="ytick_2">
     <g id="line2d_2">
      <path clip-path="url(#p1013ed14cc)" d="M 40.600625 316.766157 
L 985.445625 316.766157 
" style="fill:none;stroke:#dedede;stroke-linecap:square;"/>
     </g>
     <g id="text_9">
      <!-- 0.5 -->
      <defs>
       <path d="M 10.796875 72.90625 
L 49.515625 72.90625 
L 49.515625 64.59375 
L 19.828125 64.59375 
L 19.828125 46.734375 
Q 21.96875 47.46875 24.109375 47.828125 
Q 26.265625 48.1875 28.421875 48.1875 
Q 40.625 48.1875 47.75 41.5 
Q 54.890625 34.8125 54.890625 23.390625 
Q 54.890625 11.625 47.5625 5.09375 
Q 40.234375 -1.421875 26.90625 -1.421875 
Q 22.3125 -1.421875 17.546875 -0.640625 
Q 12.796875 0.140625 7.71875 1.703125 
L 7.71875 11.625 
Q 12.109375 9.234375 16.796875 8.0625 
Q 21.484375 6.890625 26.703125 6.890625 
Q 35.15625 6.890625 40.078125 11.328125 
Q 45.015625 15.765625 45.015625 23.390625 
Q 45.015625 31 40.078125 35.4375 
Q 35.15625 39.890625 26.703125 39.890625 
Q 22.75 39.890625 18.8125 39.015625 
Q 14.890625 38.140625 10.796875 36.28125 
z
" id="DejaVuSans-53"/>
      </defs>
      <g transform="translate(20.878125 319.805532)scale(0.08 -0.08)">
       <use xlink:href="#DejaVuSans-48"/>
       <use x="63.623047" xlink:href="#DejaVuSans-46"/>
       <use x="95.410156" xlink:href="#DejaVuSans-53"/>
      </g>
     </g>
    </g>
    <g id="ytick_3">
     <g id="line2d_3">
      <path clip-path="url(#p1013ed14cc)" d="M 40.600625 280.308414 
L 985.445625 280.308414 
" style="fill:none;stroke:#dedede;stroke-linecap:square;"/>
     </g>
     <g id="text_10">
      <!-- 1.0 -->
      <g transform="translate(20.878125 283.347789)scale(0.08 -0.08)">
       <use xlink:href="#DejaVuSans-49"/>
       <use x="63.623047" xlink:href="#DejaVuSans-46"/>
       <use x="95.410156" xlink:href="#DejaVuSans-48"/>
      </g>
     </g>
    </g>
    <g id="ytick_4">
     <g id="line2d_4">
      <path clip-path="url(#p1013ed14cc)" d="M 40.600625 243.850671 
L 985.445625 243.850671 
" style="fill:none;stroke:#dedede;stroke-linecap:square;"/>
     </g>
     <g id="text_11">
      <!-- 1.5 -->
      <g transform="translate(20.878125 246.890046)scale(0.08 -0.08)">
       <use xlink:href="#DejaVuSans-49"/>
       <use x="63.623047" xlink:href="#DejaVuSans-46"/>
       <use x="95.410156" xlink:href="#DejaVuSans-53"/>
      </g>
     </g>
    </g>
    <g id="ytick_5">
     <g id="line2d_5">
      <path clip-path="url(#p1013ed14cc)" d="M 40.600625 207.392928 
L 985.445625 207.392928 
" style="fill:none;stroke:#dedede;stroke-linecap:square;"/>
     </g>
     <g id="text_12">
      <!-- 2.0 -->
      <g transform="translate(20.878125 210.432303)scale(0.08 -0.08)">
       <use xlink:href="#DejaVuSans-50"/>
       <use x="63.623047" xlink:href="#DejaVuSans-46"/>
       <use x="95.410156" xlink:href="#DejaVuSans-48"/>
      </g>
     </g>
    </g>
    <g id="ytick_6">
     <g id="line2d_6">
      <path clip-path="url(#p1013ed14cc)" d="M 40.600625 170.935185 
L 985.445625 170.935185 
" style="fill:none;stroke:#dedede;stroke-linecap:square;"/>
     </g>
     <g id="text_13">
      <!-- 2.5 -->
      <g transform="translate(20.878125 173.97456)scale(0.08 -0.08)">
       <use xlink:href="#DejaVuSans-50"/>
       <use x="63.623047" xlink:href="#DejaVuSans-46"/>
       <use x="95.410156" xlink:href="#DejaVuSans-53"/>
      </g>
     </g>
    </g>
    <g id="ytick_7">
     <g id="line2d_7">
      <path clip-path="url(#p1013ed14cc)" d="M 40.600625 134.477442 
L 985.445625 134.477442 
" style="fill:none;stroke:#dedede;stroke-linecap:square;"/>
     </g>
     <g id="text_14">
      <!-- 3.0 -->
      <defs>
       <path d="M 40.578125 39.3125 
Q 47.65625 37.796875 51.625 33 
Q 55.609375 28.21875 55.609375 21.1875 
Q 55.609375 10.40625 48.1875 4.484375 
Q 40.765625 -1.421875 27.09375 -1.421875 
Q 22.515625 -1.421875 17.65625 -0.515625 
Q 12.796875 0.390625 7.625 2.203125 
L 7.625 11.71875 
Q 11.71875 9.328125 16.59375 8.109375 
Q 21.484375 6.890625 26.8125 6.890625 
Q 36.078125 6.890625 40.9375 10.546875 
Q 45.796875 14.203125 45.796875 21.1875 
Q 45.796875 27.640625 41.28125 31.265625 
Q 36.765625 34.90625 28.71875 34.90625 
L 20.21875 34.90625 
L 20.21875 43.015625 
L 29.109375 43.015625 
Q 36.375 43.015625 40.234375 45.921875 
Q 44.09375 48.828125 44.09375 54.296875 
Q 44.09375 59.90625 40.109375 62.90625 
Q 36.140625 65.921875 28.71875 65.921875 
Q 24.65625 65.921875 20.015625 65.03125 
Q 15.375 64.15625 9.8125 62.3125 
L 9.8125 71.09375 
Q 15.4375 72.65625 20.34375 73.4375 
Q 25.25 74.21875 29.59375 74.21875 
Q 40.828125 74.21875 47.359375 69.109375 
Q 53.90625 64.015625 53.90625 55.328125 
Q 53.90625 49.265625 50.4375 45.09375 
Q 46.96875 40.921875 40.578125 39.3125 
z
" id="DejaVuSans-51"/>
      </defs>
      <g transform="translate(20.878125 137.516817)scale(0.08 -0.08)">
       <use xlink:href="#DejaVuSans-51"/>
       <use x="63.623047" xlink:href="#DejaVuSans-46"/>
       <use x="95.410156" xlink:href="#DejaVuSans-48"/>
      </g>
     </g>
    </g>
    <g id="ytick_8">
     <g id="line2d_8">
      <path clip-path="url(#p1013ed14cc)" d="M 40.600625 98.019699 
L 985.445625 98.019699 
" style="fill:none;stroke:#dedede;stroke-linecap:square;"/>
     </g>
     <g id="text_15">
      <!-- 3.5 -->
      <g transform="translate(20.878125 101.059074)scale(0.08 -0.08)">
       <use xlink:href="#DejaVuSans-51"/>
       <use x="63.623047" xlink:href="#DejaVuSans-46"/>
       <use x="95.410156" xlink:href="#DejaVuSans-53"/>
      </g>
     </g>
    </g>
    <g id="ytick_9">
     <g id="line2d_9">
      <path clip-path="url(#p1013ed14cc)" d="M 40.600625 61.561956 
L 985.445625 61.561956 
" style="fill:none;stroke:#dedede;stroke-linecap:square;"/>
     </g>
     <g id="text_16">
      <!-- 4.0 -->
      <g transform="translate(20.878125 64.601331)scale(0.08 -0.08)">
       <use xlink:href="#DejaVuSans-52"/>
       <use x="63.623047" xlink:href="#DejaVuSans-46"/>
       <use x="95.410156" xlink:href="#DejaVuSans-48"/>
      </g>
     </g>
    </g>
    <g id="text_17">
     <!-- Percentage -->
     <defs>
      <path d="M 19.671875 64.796875 
L 19.671875 37.40625 
L 32.078125 37.40625 
Q 38.96875 37.40625 42.71875 40.96875 
Q 46.484375 44.53125 46.484375 51.125 
Q 46.484375 57.671875 42.71875 61.234375 
Q 38.96875 64.796875 32.078125 64.796875 
z
M 9.8125 72.90625 
L 32.078125 72.90625 
Q 44.34375 72.90625 50.609375 67.359375 
Q 56.890625 61.8125 56.890625 51.125 
Q 56.890625 40.328125 50.609375 34.8125 
Q 44.34375 29.296875 32.078125 29.296875 
L 19.671875 29.296875 
L 19.671875 0 
L 9.8125 0 
z
" id="DejaVuSans-80"/>
      <path d="M 56.203125 29.59375 
L 56.203125 25.203125 
L 14.890625 25.203125 
Q 15.484375 15.921875 20.484375 11.0625 
Q 25.484375 6.203125 34.421875 6.203125 
Q 39.59375 6.203125 44.453125 7.46875 
Q 49.3125 8.734375 54.109375 11.28125 
L 54.109375 2.78125 
Q 49.265625 0.734375 44.1875 -0.34375 
Q 39.109375 -1.421875 33.890625 -1.421875 
Q 20.796875 -1.421875 13.15625 6.1875 
Q 5.515625 13.8125 5.515625 26.8125 
Q 5.515625 40.234375 12.765625 48.109375 
Q 20.015625 56 32.328125 56 
Q 43.359375 56 49.78125 48.890625 
Q 56.203125 41.796875 56.203125 29.59375 
z
M 47.21875 32.234375 
Q 47.125 39.59375 43.09375 43.984375 
Q 39.0625 48.390625 32.421875 48.390625 
Q 24.90625 48.390625 20.390625 44.140625 
Q 15.875 39.890625 15.1875 32.171875 
z
" id="DejaVuSans-101"/>
      <path d="M 41.109375 46.296875 
Q 39.59375 47.171875 37.8125 47.578125 
Q 36.03125 48 33.890625 48 
Q 26.265625 48 22.1875 43.046875 
Q 18.109375 38.09375 18.109375 28.8125 
L 18.109375 0 
L 9.078125 0 
L 9.078125 54.6875 
L 18.109375 54.6875 
L 18.109375 46.1875 
Q 20.953125 51.171875 25.484375 53.578125 
Q 30.03125 56 36.53125 56 
Q 37.453125 56 38.578125 55.875 
Q 39.703125 55.765625 41.0625 55.515625 
z
" id="DejaVuSans-114"/>
      <path d="M 48.78125 52.59375 
L 48.78125 44.1875 
Q 44.96875 46.296875 41.140625 47.34375 
Q 37.3125 48.390625 33.40625 48.390625 
Q 24.65625 48.390625 19.8125 42.84375 
Q 14.984375 37.3125 14.984375 27.296875 
Q 14.984375 17.28125 19.8125 11.734375 
Q 24.65625 6.203125 33.40625 6.203125 
Q 37.3125 6.203125 41.140625 7.25 
Q 44.96875 8.296875 48.78125 10.40625 
L 48.78125 2.09375 
Q 45.015625 0.34375 40.984375 -0.53125 
Q 36.96875 -1.421875 32.421875 -1.421875 
Q 20.0625 -1.421875 12.78125 6.34375 
Q 5.515625 14.109375 5.515625 27.296875 
Q 5.515625 40.671875 12.859375 48.328125 
Q 20.21875 56 33.015625 56 
Q 37.15625 56 41.109375 55.140625 
Q 45.0625 54.296875 48.78125 52.59375 
z
" id="DejaVuSans-99"/>
      <path d="M 54.890625 33.015625 
L 54.890625 0 
L 45.90625 0 
L 45.90625 32.71875 
Q 45.90625 40.484375 42.875 44.328125 
Q 39.84375 48.1875 33.796875 48.1875 
Q 26.515625 48.1875 22.3125 43.546875 
Q 18.109375 38.921875 18.109375 30.90625 
L 18.109375 0 
L 9.078125 0 
L 9.078125 54.6875 
L 18.109375 54.6875 
L 18.109375 46.1875 
Q 21.34375 51.125 25.703125 53.5625 
Q 30.078125 56 35.796875 56 
Q 45.21875 56 50.046875 50.171875 
Q 54.890625 44.34375 54.890625 33.015625 
z
" id="DejaVuSans-110"/>
      <path d="M 18.3125 70.21875 
L 18.3125 54.6875 
L 36.8125 54.6875 
L 36.8125 47.703125 
L 18.3125 47.703125 
L 18.3125 18.015625 
Q 18.3125 11.328125 20.140625 9.421875 
Q 21.96875 7.515625 27.59375 7.515625 
L 36.8125 7.515625 
L 36.8125 0 
L 27.59375 0 
Q 17.1875 0 13.234375 3.875 
Q 9.28125 7.765625 9.28125 18.015625 
L 9.28125 47.703125 
L 2.6875 47.703125 
L 2.6875 54.6875 
L 9.28125 54.6875 
L 9.28125 70.21875 
z
" id="DejaVuSans-116"/>
      <path d="M 34.28125 27.484375 
Q 23.390625 27.484375 19.1875 25 
Q 14.984375 22.515625 14.984375 16.5 
Q 14.984375 11.71875 18.140625 8.90625 
Q 21.296875 6.109375 26.703125 6.109375 
Q 34.1875 6.109375 38.703125 11.40625 
Q 43.21875 16.703125 43.21875 25.484375 
L 43.21875 27.484375 
z
M 52.203125 31.203125 
L 52.203125 0 
L 43.21875 0 
L 43.21875 8.296875 
Q 40.140625 3.328125 35.546875 0.953125 
Q 30.953125 -1.421875 24.3125 -1.421875 
Q 15.921875 -1.421875 10.953125 3.296875 
Q 6 8.015625 6 15.921875 
Q 6 25.140625 12.171875 29.828125 
Q 18.359375 34.515625 30.609375 34.515625 
L 43.21875 34.515625 
L 43.21875 35.40625 
Q 43.21875 41.609375 39.140625 45 
Q 35.0625 48.390625 27.6875 48.390625 
Q 23 48.390625 18.546875 47.265625 
Q 14.109375 46.140625 10.015625 43.890625 
L 10.015625 52.203125 
Q 14.9375 54.109375 19.578125 55.046875 
Q 24.21875 56 28.609375 56 
Q 40.484375 56 46.34375 49.84375 
Q 52.203125 43.703125 52.203125 31.203125 
z
" id="DejaVuSans-97"/>
      <path d="M 45.40625 27.984375 
Q 45.40625 37.75 41.375 43.109375 
Q 37.359375 48.484375 30.078125 48.484375 
Q 22.859375 48.484375 18.828125 43.109375 
Q 14.796875 37.75 14.796875 27.984375 
Q 14.796875 18.265625 18.828125 12.890625 
Q 22.859375 7.515625 30.078125 7.515625 
Q 37.359375 7.515625 41.375 12.890625 
Q 45.40625 18.265625 45.40625 27.984375 
z
M 54.390625 6.78125 
Q 54.390625 -7.171875 48.1875 -13.984375 
Q 42 -20.796875 29.203125 -20.796875 
Q 24.46875 -20.796875 20.265625 -20.09375 
Q 16.0625 -19.390625 12.109375 -17.921875 
L 12.109375 -9.1875 
Q 16.0625 -11.328125 19.921875 -12.34375 
Q 23.78125 -13.375 27.78125 -13.375 
Q 36.625 -13.375 41.015625 -8.765625 
Q 45.40625 -4.15625 45.40625 5.171875 
L 45.40625 9.625 
Q 42.625 4.78125 38.28125 2.390625 
Q 33.9375 0 27.875 0 
Q 17.828125 0 11.671875 7.65625 
Q 5.515625 15.328125 5.515625 27.984375 
Q 5.515625 40.671875 11.671875 48.328125 
Q 17.828125 56 27.875 56 
Q 33.9375 56 38.28125 53.609375 
Q 42.625 51.21875 45.40625 46.390625 
L 45.40625 54.6875 
L 54.390625 54.6875 
z
" id="DejaVuSans-103"/>
     </defs>
     <g transform="translate(14.798438 222.6524)rotate(-90)scale(0.1 -0.1)">
      <use xlink:href="#DejaVuSans-80"/>
      <use x="60.255859" xlink:href="#DejaVuSans-101"/>
      <use x="121.779297" xlink:href="#DejaVuSans-114"/>
      <use x="162.861328" xlink:href="#DejaVuSans-99"/>
      <use x="217.841797" xlink:href="#DejaVuSans-101"/>
      <use x="279.365234" xlink:href="#DejaVuSans-110"/>
      <use x="342.744141" xlink:href="#DejaVuSans-116"/>
      <use x="381.953125" xlink:href="#DejaVuSans-97"/>
      <use x="443.232422" xlink:href="#DejaVuSans-103"/>
      <use x="506.708984" xlink:href="#DejaVuSans-101"/>
     </g>
    </g>
   </g>
   <g id="line2d_10">
    <path clip-path="url(#p1013ed14cc)" d="M 40.600625 353.09615 
L 50.049075 353.105522 
L 59.497525 353.128951 
L 68.945975 353.137398 
L 78.394425 353.128458 
L 87.842875 353.103549 
L 97.291325 353.07192 
L 106.739775 353.034742 
L 116.188225 352.984616 
L 125.636675 352.905821 
L 135.085125 352.836273 
L 144.533575 352.721656 
L 153.982025 352.607039 
L 163.430475 352.391369 
L 172.878925 352.191915 
L 182.327375 351.853612 
L 191.775825 351.487503 
L 201.224275 350.773474 
L 210.672725 350.047299 
L 220.121175 348.729911 
L 229.569625 347.384347 
L 239.018075 345.263222 
L 248.466525 343.143946 
L 257.914975 339.67066 
L 267.363425 336.136766 
L 276.811875 331.342208 
L 286.260325 319.305749 
L 295.708775 311.798853 
L 305.157225 302.032293 
L 314.605675 292.286202 
L 324.054125 283.274302 
L 333.502575 274.315673 
L 342.951025 260.554778 
L 352.399475 246.613911 
L 361.847925 234.014909 
L 371.296375 221.633797 
L 380.744825 209.180918 
L 390.193275 196.421982 
L 399.641725 186.760914 
L 409.090175 177.242146 
L 418.538625 164.621565 
L 427.987075 151.83581 
L 437.435525 143.180647 
L 446.883975 134.744853 
L 456.332425 129.767611 
L 465.780875 124.580124 
L 475.229325 115.752819 
L 484.677775 107.044325 
L 494.126225 101.221727 
L 503.574675 95.508629 
L 513.023125 93.788695 
L 522.471575 92.100759 
L 531.920025 94.04518 
L 541.368475 96.075611 
L 550.816925 102.908738 
L 560.265375 110.020485 
L 569.713825 121.012936 
L 579.162275 132.125615 
L 588.610725 146.996983 
L 598.059175 162.154554 
L 607.507625 179.619696 
L 616.956075 196.973488 
L 626.404525 215.797758 
L 635.852975 234.303826 
L 645.301425 250.66466 
L 654.749875 267.001265 
L 664.198325 280.997004 
L 673.646775 294.966602 
L 683.095225 305.425304 
L 692.543675 315.894364 
L 701.992125 323.293178 
L 711.440575 330.609436 
L 720.889025 334.980607 
L 730.337475 339.304921 
L 739.785925 341.908684 
L 749.234375 345.943464 
L 758.682825 347.522455 
L 768.131275 348.511775 
L 777.579725 349.461451 
L 787.028175 350.109385 
L 796.476625 350.763301 
L 805.925075 351.23706 
L 815.373525 351.69559 
L 824.821975 351.968229 
L 834.270425 352.247466 
L 843.718875 352.455799 
L 853.167325 352.651493 
L 862.615775 352.788861 
L 872.064225 352.927585 
L 881.512675 352.996146 
L 890.961125 353.058787 
L 900.409575 353.100343 
L 909.858025 353.141775 
L 919.306475 353.160518 
L 928.754925 353.179262 
L 938.203375 353.190668 
L 947.651825 353.199238 
L 957.100275 353.203677 
L 966.548725 353.204725 
L 975.997175 353.202074 
L 985.445625 353.200964 
" style="fill:none;stroke:#5cb85c;stroke-linecap:square;"/>
   </g>
   <g id="line2d_11">
    <path clip-path="url(#p1013ed14cc)" d="M 40.600625 353.104676 
L 50.049075 353.111757 
L 59.497525 353.124829 
L 68.945975 353.128037 
L 78.394425 353.121924 
L 87.842875 353.095598 
L 97.291325 353.057107 
L 106.739775 352.994167 
L 116.188225 352.910105 
L 125.636675 352.813999 
L 135.085125 352.753177 
L 144.533575 352.648659 
L 153.982025 352.531311 
L 163.430475 352.279367 
L 172.878925 352.034625 
L 182.327375 351.608747 
L 191.775825 351.169191 
L 201.224275 350.313077 
L 210.672725 349.425493 
L 220.121175 347.7871 
L 229.569625 346.132548 
L 239.018075 343.512161 
L 248.466525 340.883239 
L 257.914975 336.81909 
L 267.363425 332.681893 
L 276.811875 327.076183 
L 286.260325 313.107478 
L 295.708775 304.396192 
L 305.157225 293.028751 
L 314.605675 281.731271 
L 324.054125 272.230806 
L 333.502575 262.80357 
L 342.951025 248.217139 
L 352.399475 233.424759 
L 361.847925 219.867226 
L 371.296375 206.554557 
L 380.744825 193.870446 
L 390.193275 180.702781 
L 399.641725 171.525916 
L 409.090175 162.899903 
L 418.538625 151.156815 
L 427.987075 139.05545 
L 437.435525 132.284067 
L 446.883975 125.667917 
L 456.332425 123.403628 
L 465.780875 121.051706 
L 475.229325 113.952608 
L 484.677775 106.901199 
L 494.126225 102.788997 
L 503.574675 98.852121 
L 513.023125 98.857568 
L 522.471575 98.80195 
L 531.920025 102.271674 
L 541.368475 105.901109 
L 550.816925 114.894115 
L 560.265375 124.129563 
L 569.713825 135.67227 
L 579.162275 147.291473 
L 588.610725 162.501682 
L 598.059175 177.992582 
L 607.507625 194.906303 
L 616.956075 211.739049 
L 626.404525 229.696132 
L 635.852975 247.310976 
L 645.301425 262.134705 
L 654.749875 276.920851 
L 664.198325 289.801409 
L 673.646775 302.647048 
L 683.095225 311.924557 
L 692.543675 321.210116 
L 701.992125 327.692638 
L 711.440575 334.099571 
L 720.889025 337.797998 
L 730.337475 341.462596 
L 739.785925 343.709032 
L 749.234375 347.106676 
L 758.682825 348.389152 
L 768.131275 349.200057 
L 777.579725 349.987904 
L 787.028175 350.537122 
L 796.476625 351.089849 
L 805.925075 351.492185 
L 815.373525 351.881631 
L 824.821975 352.120926 
L 834.270425 352.361069 
L 843.718875 352.536637 
L 853.167325 352.705729 
L 862.615775 352.830218 
L 872.064225 352.953195 
L 881.512675 353.012928 
L 890.961125 353.070785 
L 900.409575 353.110062 
L 909.858025 353.148916 
L 919.306475 353.168161 
L 928.754925 353.185954 
L 938.203375 353.194487 
L 947.651825 353.201629 
L 957.100275 353.205441 
L 966.548725 353.206168 
L 975.997175 353.204413 
L 985.445625 353.203686 
" style="fill:none;stroke:#5cb85c;stroke-linecap:square;"/>
   </g>
   <g id="line2d_12">
    <path clip-path="url(#p1013ed14cc)" d="M 40.600625 353.15129 
L 50.049075 353.152486 
L 59.497525 353.14812 
L 68.945975 353.139029 
L 78.394425 353.133167 
L 87.842875 353.103621 
L 97.291325 353.060737 
L 106.739775 352.998952 
L 116.188225 352.911151 
L 125.636675 352.814317 
L 135.085125 352.760548 
L 144.533575 352.658032 
L 153.982025 352.540684 
L 163.430475 352.287087 
L 172.878925 352.048324 
L 182.327375 351.645499 
L 191.775825 351.221263 
L 201.224275 350.354489 
L 210.672725 349.45428 
L 220.121175 347.822767 
L 229.569625 346.159077 
L 239.018075 343.619222 
L 248.466525 341.113638 
L 257.914975 336.966493 
L 267.363425 332.725447 
L 276.811875 327.078313 
L 286.260325 312.928152 
L 295.708775 304.073618 
L 305.157225 292.374254 
L 314.605675 280.742118 
L 324.054125 270.792632 
L 333.502575 260.90481 
L 342.951025 245.855936 
L 352.399475 230.603646 
L 361.847925 216.783998 
L 371.296375 203.277697 
L 380.744825 190.168061 
L 390.193275 176.448177 
L 399.641725 166.974125 
L 409.090175 158.197105 
L 418.538625 146.113758 
L 427.987075 133.63584 
L 437.435525 127.582234 
L 446.883975 121.671277 
L 456.332425 120.111058 
L 465.780875 118.449043 
L 475.229325 111.723226 
L 484.677775 105.077137 
L 494.126225 101.921352 
L 503.574675 98.913898 
L 513.023125 99.855376 
L 522.471575 100.767367 
L 531.920025 105.267394 
L 541.368475 109.893142 
L 550.816925 119.412411 
L 560.265375 129.181808 
L 569.713825 141.060424 
L 579.162275 152.966612 
L 588.610725 168.129127 
L 598.059175 183.6139 
L 607.507625 200.146435 
L 616.956075 216.564852 
L 626.404525 233.730422 
L 635.852975 250.554175 
L 645.301425 264.904641 
L 654.749875 279.2322 
L 664.198325 291.560352 
L 673.646775 303.849508 
L 683.095225 312.825218 
L 692.543675 321.812951 
L 701.992125 327.963569 
L 711.440575 334.041518 
L 720.889025 337.638286 
L 730.337475 341.202576 
L 739.785925 343.353184 
L 749.234375 346.616209 
L 758.682825 347.849682 
L 768.131275 348.700368 
L 777.579725 349.538792 
L 787.028175 350.101849 
L 796.476625 350.659582 
L 805.925075 351.105171 
L 815.373525 351.542147 
L 824.821975 351.823436 
L 834.270425 352.104665 
L 843.718875 352.316693 
L 853.167325 352.524774 
L 862.615775 352.688237 
L 872.064225 352.848649 
L 881.512675 352.938006 
L 890.961125 353.026944 
L 900.409575 353.082209 
L 909.858025 353.133586 
L 919.306475 353.153682 
L 928.754925 353.1733 
L 938.203375 353.185083 
L 947.651825 353.195251 
L 957.100275 353.202009 
L 966.548725 353.209725 
L 975.997175 353.213254 
L 985.445625 353.213373 
" style="fill:none;stroke:#5cb85c;stroke-linecap:square;"/>
   </g>
   <g id="line2d_13">
    <path clip-path="url(#p1013ed14cc)" d="M 40.600625 353.145858 
L 50.049075 353.148985 
L 59.497525 353.145979 
L 68.945975 353.134916 
L 78.394425 353.125596 
L 87.842875 353.09836 
L 97.291325 353.063067 
L 106.739775 352.99681 
L 116.188225 352.902414 
L 125.636675 352.810845 
L 135.085125 352.76533 
L 144.533575 352.656926 
L 153.982025 352.52357 
L 163.430475 352.29215 
L 172.878925 352.090493 
L 182.327375 351.730828 
L 191.775825 351.344888 
L 201.224275 350.579804 
L 210.672725 349.7766 
L 220.121175 348.286595 
L 229.569625 346.784684 
L 239.018075 344.520635 
L 248.466525 342.265605 
L 257.914975 338.472048 
L 267.363425 334.595039 
L 276.811875 329.473993 
L 286.260325 316.505975 
L 295.708775 308.347559 
L 305.157225 297.640584 
L 314.605675 286.96782 
L 324.054125 277.675154 
L 333.502575 268.454277 
L 342.951025 254.250701 
L 352.399475 239.838853 
L 361.847925 226.420984 
L 371.296375 213.281191 
L 380.744825 200.665864 
L 390.193275 187.55463 
L 399.641725 178.007577 
L 409.090175 168.964488 
L 418.538625 156.534525 
L 427.987075 143.784459 
L 437.435525 136.706179 
L 446.883975 129.808634 
L 456.332425 126.874979 
L 465.780875 123.737501 
L 475.229325 115.431358 
L 484.677775 107.25755 
L 494.126225 102.330526 
L 503.574675 97.534152 
L 513.023125 96.583223 
L 522.471575 95.609446 
L 531.920025 98.680065 
L 541.368475 101.924685 
L 550.816925 109.835389 
L 560.265375 117.913358 
L 569.713825 128.941037 
L 579.162275 140.106702 
L 588.610725 155.077047 
L 598.059175 170.349036 
L 607.507625 187.703197 
L 616.956075 204.943964 
L 626.404525 223.293126 
L 635.852975 241.335172 
L 645.301425 256.78525 
L 654.749875 272.181096 
L 664.198325 285.622353 
L 673.646775 299.045574 
L 683.095225 308.891565 
L 692.543675 318.740563 
L 701.992125 325.593977 
L 711.440575 332.386845 
L 720.889025 336.42559 
L 730.337475 340.410102 
L 739.785925 342.788387 
L 749.234375 346.354673 
L 758.682825 347.681562 
L 768.131275 348.610245 
L 777.579725 349.517103 
L 787.028175 350.09526 
L 796.476625 350.665842 
L 805.925075 351.095191 
L 815.373525 351.514139 
L 824.821975 351.820954 
L 834.270425 352.135346 
L 843.718875 352.33544 
L 853.167325 352.5285 
L 862.615775 352.689573 
L 872.064225 352.844514 
L 881.512675 352.930492 
L 890.961125 353.017432 
L 900.409575 353.073769 
L 909.858025 353.126378 
L 919.306475 353.151811 
L 928.754925 353.178265 
L 938.203375 353.191794 
L 947.651825 353.201113 
L 957.100275 353.205382 
L 966.548725 353.208989 
L 975.997175 353.208989 
L 985.445625 353.208268 
" style="fill:none;stroke:#f0ad4e;stroke-linecap:square;"/>
   </g>
   <g id="line2d_14">
    <path clip-path="url(#p1013ed14cc)" d="M 40.600625 353.127813 
L 50.049075 353.138038 
L 59.497525 353.158056 
L 68.945975 353.164462 
L 78.394425 353.158425 
L 87.842875 353.136375 
L 97.291325 353.103114 
L 106.739775 353.05156 
L 116.188225 353.002038 
L 125.636675 352.937734 
L 135.085125 352.858585 
L 144.533575 352.662162 
L 153.982025 352.475347 
L 163.430475 352.241844 
L 172.878925 352.016286 
L 182.327375 351.675548 
L 191.775825 351.320027 
L 201.224275 350.57443 
L 210.672725 349.821874 
L 220.121175 348.708376 
L 229.569625 347.549668 
L 239.018075 345.616722 
L 248.466525 343.704411 
L 257.914975 340.85279 
L 267.363425 337.946781 
L 276.811875 334.137186 
L 286.260325 325.923492 
L 295.708775 321.35358 
L 305.157225 315.502081 
L 314.605675 309.615719 
L 324.054125 302.333019 
L 333.502575 295.109819 
L 342.951025 286.885961 
L 352.399475 278.603097 
L 361.847925 269.118655 
L 371.296375 259.447213 
L 380.744825 248.956816 
L 390.193275 238.764597 
L 399.641725 228.012117 
L 409.090175 216.729929 
L 418.538625 202.422423 
L 427.987075 188.191911 
L 437.435525 174.936001 
L 446.883975 161.794041 
L 456.332425 146.844602 
L 465.780875 131.668743 
L 475.229325 118.910391 
L 484.677775 106.469987 
L 494.126225 96.843879 
L 503.574675 87.171144 
L 513.023125 80.574294 
L 522.471575 74.266444 
L 531.920025 72.281081 
L 541.368475 69.998097 
L 550.816925 74.564559 
L 560.265375 79.626607 
L 569.713825 87.68644 
L 579.162275 95.763703 
L 588.610725 111.028627 
L 598.059175 126.609652 
L 607.507625 144.525585 
L 616.956075 162.887151 
L 626.404525 186.037904 
L 635.852975 208.384053 
L 645.301425 227.375419 
L 654.749875 246.651966 
L 664.198325 263.471586 
L 673.646775 280.023333 
L 683.095225 293.304065 
L 692.543675 306.588369 
L 701.992125 314.956788 
L 711.440575 323.353417 
L 720.889025 329.381753 
L 730.337475 335.277663 
L 739.785925 339.133575 
L 749.234375 344.66959 
L 758.682825 346.515935 
L 768.131275 347.6359 
L 777.579725 348.731351 
L 787.028175 349.728744 
L 796.476625 350.729771 
L 805.925075 351.189139 
L 815.373525 351.638345 
L 824.821975 351.950504 
L 834.270425 352.244184 
L 843.718875 352.435988 
L 853.167325 352.629825 
L 862.615775 352.770198 
L 872.064225 352.903364 
L 881.512675 352.989658 
L 890.961125 353.069545 
L 900.409575 353.098494 
L 909.858025 353.131016 
L 919.306475 353.154299 
L 928.754925 353.177027 
L 938.203375 353.18565 
L 947.651825 353.193041 
L 957.100275 353.196614 
L 966.548725 353.198215 
L 975.997175 353.198646 
L 985.445625 353.199262 
" style="fill:none;stroke:#5cb85c;stroke-linecap:square;"/>
   </g>
   <g id="line2d_15">
    <path clip-path="url(#p1013ed14cc)" d="M 40.600625 353.096555 
L 50.049075 353.108403 
L 59.497525 353.13875 
L 68.945975 353.154969 
L 78.394425 353.147557 
L 87.842875 353.120567 
L 97.291325 353.086038 
L 106.739775 353.040169 
L 116.188225 352.993539 
L 125.636675 352.914661 
L 135.085125 352.817157 
L 144.533575 352.640459 
L 153.982025 352.476178 
L 163.430475 352.16884 
L 172.878925 351.86695 
L 182.327375 351.452288 
L 191.775825 351.025018 
L 201.224275 350.217425 
L 210.672725 349.408628 
L 220.121175 348.103503 
L 229.569625 346.752255 
L 239.018075 344.763207 
L 248.466525 342.783662 
L 257.914975 339.979545 
L 267.363425 337.128227 
L 276.811875 333.167364 
L 286.260325 324.819064 
L 295.708775 320.274125 
L 305.157225 314.577509 
L 314.605675 308.864928 
L 324.054125 301.677999 
L 333.502575 294.494237 
L 342.951025 285.348861 
L 352.399475 276.174151 
L 361.847925 266.179113 
L 371.296375 256.107541 
L 380.744825 245.173067 
L 390.193275 234.315063 
L 399.641725 222.390214 
L 409.090175 209.989882 
L 418.538625 195.390921 
L 427.987075 180.848537 
L 437.435525 167.806983 
L 446.883975 154.850833 
L 456.332425 139.13409 
L 465.780875 122.784868 
L 475.229325 110.685475 
L 484.677775 99.625747 
L 494.126225 89.485371 
L 503.574675 78.942941 
L 513.023125 73.614167 
L 522.471575 69.101477 
L 531.920025 70.900142 
L 541.368475 72.200451 
L 550.816925 76.443247 
L 560.265375 81.029937 
L 569.713825 90.505142 
L 579.162275 99.92998 
L 588.610725 117.789408 
L 598.059175 136.235509 
L 607.507625 155.348427 
L 616.956075 174.53921 
L 626.404525 196.574783 
L 635.852975 218.042501 
L 645.301425 237.181522 
L 654.749875 256.386496 
L 664.198325 271.549828 
L 673.646775 286.517961 
L 683.095225 298.79494 
L 692.543675 311.120703 
L 701.992125 319.176047 
L 711.440575 327.213588 
L 720.889025 332.409948 
L 730.337475 337.502596 
L 739.785925 340.782007 
L 749.234375 345.564845 
L 758.682825 347.226472 
L 768.131275 348.253085 
L 777.579725 349.239975 
L 787.028175 350.009555 
L 796.476625 350.784521 
L 805.925075 351.168202 
L 815.373525 351.536995 
L 824.821975 351.835716 
L 834.270425 352.132664 
L 843.718875 352.312277 
L 853.167325 352.488849 
L 862.615775 352.668525 
L 872.064225 352.840472 
L 881.512675 352.932211 
L 890.961125 353.021416 
L 900.409575 353.067982 
L 909.858025 353.114992 
L 919.306475 353.143692 
L 928.754925 353.173089 
L 938.203375 353.183416 
L 947.651825 353.190955 
L 957.100275 353.196974 
L 966.548725 353.199065 
L 975.997175 353.197861 
L 985.445625 353.198051 
" style="fill:none;stroke:#5cb85c;stroke-linecap:square;"/>
   </g>
   <g id="line2d_16">
    <path clip-path="url(#p1013ed14cc)" d="M 40.600625 353.076582 
L 50.049075 353.093866 
L 59.497525 353.134134 
L 68.945975 353.156002 
L 78.394425 353.151604 
L 87.842875 353.132275 
L 97.291325 353.10576 
L 106.739775 353.071316 
L 116.188225 353.039659 
L 125.636675 352.98316 
L 135.085125 352.906713 
L 144.533575 352.758342 
L 153.982025 352.622856 
L 163.430475 352.382426 
L 172.878925 352.152652 
L 182.327375 351.804552 
L 191.775825 351.445487 
L 201.224275 350.830257 
L 210.672725 350.208212 
L 220.121175 349.172771 
L 229.569625 348.106479 
L 239.018075 346.533184 
L 248.466525 344.963668 
L 257.914975 342.819748 
L 267.363425 340.636426 
L 276.811875 337.594347 
L 286.260325 331.327682 
L 295.708775 327.961788 
L 305.157225 324.119308 
L 314.605675 320.289838 
L 324.054125 314.990593 
L 333.502575 309.686701 
L 342.951025 303.028137 
L 352.399475 296.34721 
L 361.847925 288.52218 
L 371.296375 280.615438 
L 380.744825 271.1792 
L 390.193275 261.806586 
L 399.641725 250.309255 
L 409.090175 238.324807 
L 418.538625 222.921993 
L 427.987075 207.548543 
L 437.435525 191.845826 
L 446.883975 176.134994 
L 456.332425 157.05994 
L 465.780875 137.497212 
L 475.229325 121.200018 
L 484.677775 105.683649 
L 494.126225 90.008934 
L 503.574675 73.992995 
L 513.023125 64.173408 
L 522.471575 55.101563 
L 531.920025 52.922392 
L 541.368475 50.396732 
L 550.816925 52.244468 
L 560.265375 54.378848 
L 569.713825 62.637159 
L 579.162275 71.027797 
L 588.610725 88.589958 
L 598.059175 106.749879 
L 607.507625 126.8968 
L 616.956075 147.177225 
L 626.404525 172.431779 
L 635.852975 197.087334 
L 645.301425 218.879847 
L 654.749875 240.724831 
L 664.198325 258.129638 
L 673.646775 275.329326 
L 683.095225 289.542877 
L 692.543675 303.838945 
L 701.992125 313.583077 
L 711.440575 323.280932 
L 720.889025 329.43844 
L 730.337475 335.486295 
L 739.785925 339.298295 
L 749.234375 344.828307 
L 758.682825 346.745055 
L 768.131275 347.953647 
L 777.579725 349.119989 
L 787.028175 349.898707 
L 796.476625 350.693036 
L 805.925075 351.147505 
L 815.373525 351.583637 
L 824.821975 351.900761 
L 834.270425 352.211939 
L 843.718875 352.403118 
L 853.167325 352.587916 
L 862.615775 352.75574 
L 872.064225 352.915758 
L 881.512675 352.986258 
L 890.961125 353.052483 
L 900.409575 353.085317 
L 909.858025 353.119823 
L 919.306475 353.14324 
L 928.754925 353.16833 
L 938.203375 353.180349 
L 947.651825 353.188898 
L 957.100275 353.192987 
L 966.548725 353.192057 
L 975.997175 353.188712 
L 985.445625 353.188588 
" style="fill:none;stroke:#5cb85c;stroke-linecap:square;"/>
   </g>
   <g id="line2d_17">
    <path clip-path="url(#p1013ed14cc)" d="M 40.600625 353.096154 
L 50.049075 353.113568 
L 59.497525 353.146966 
L 68.945975 353.159371 
L 78.394425 353.152274 
L 87.842875 353.134323 
L 97.291325 353.110288 
L 106.739775 353.07194 
L 116.188225 353.029955 
L 125.636675 352.971688 
L 135.085125 352.901075 
L 144.533575 352.765218 
L 153.982025 352.638724 
L 163.430475 352.371662 
L 172.878925 352.1111 
L 182.327375 351.733348 
L 191.775825 351.344205 
L 201.224275 350.652574 
L 210.672725 349.953726 
L 220.121175 348.895198 
L 229.569625 347.81341 
L 239.018075 346.125453 
L 248.466525 344.43207 
L 257.914975 342.211479 
L 267.363425 339.958982 
L 276.811875 336.907861 
L 286.260325 330.677159 
L 295.708775 327.370785 
L 305.157225 323.396635 
L 314.605675 319.421292 
L 324.054125 314.340545 
L 333.502575 309.237254 
L 342.951025 302.437359 
L 352.399475 295.632395 
L 361.847925 288.416042 
L 371.296375 281.135757 
L 380.744825 272.43249 
L 390.193275 263.771089 
L 399.641725 252.586789 
L 409.090175 241.002075 
L 418.538625 226.610818 
L 427.987075 212.169048 
L 437.435525 197.274559 
L 446.883975 182.33242 
L 456.332425 163.542147 
L 465.780875 144.314006 
L 475.229325 128.13287 
L 484.677775 112.793715 
L 494.126225 97.481159 
L 503.574675 81.681831 
L 513.023125 71.056465 
L 522.471575 61.245945 
L 531.920025 57.697079 
L 541.368475 53.733426 
L 550.816925 54.645482 
L 560.265375 55.933024 
L 569.713825 62.424825 
L 579.162275 68.941734 
L 588.610725 85.63791 
L 598.059175 102.869523 
L 607.507625 121.70375 
L 616.956075 140.892171 
L 626.404525 165.996581 
L 635.852975 190.418783 
L 645.301425 212.126764 
L 654.749875 233.983305 
L 664.198325 251.893608 
L 673.646775 269.512813 
L 683.095225 284.824177 
L 692.543675 300.242115 
L 701.992125 310.000392 
L 711.440575 319.755926 
L 720.889025 326.506321 
L 730.337475 333.095452 
L 739.785925 337.547368 
L 749.234375 343.841705 
L 758.682825 345.903716 
L 768.131275 347.201337 
L 777.579725 348.459179 
L 787.028175 349.448646 
L 796.476625 350.438232 
L 805.925075 350.937289 
L 815.373525 351.422749 
L 824.821975 351.771517 
L 834.270425 352.110026 
L 843.718875 352.319597 
L 853.167325 352.530539 
L 862.615775 352.691922 
L 872.064225 352.84084 
L 881.512675 352.936918 
L 890.961125 353.025005 
L 900.409575 353.055599 
L 909.858025 353.093887 
L 919.306475 353.125854 
L 928.754925 353.156568 
L 938.203375 353.168317 
L 947.651825 353.176964 
L 957.100275 353.182034 
L 966.548725 353.183882 
L 975.997175 353.18269 
L 985.445625 353.182511 
" style="fill:none;stroke:#5cb85c;stroke-linecap:square;"/>
   </g>
   <g id="line2d_18">
    <path clip-path="url(#p1013ed14cc)" d="M 40.600625 353.099364 
L 50.049075 353.112329 
L 59.497525 353.140938 
L 68.945975 353.156022 
L 78.394425 353.151472 
L 87.842875 353.130841 
L 97.291325 353.106906 
L 106.739775 353.07705 
L 116.188225 353.042705 
L 125.636675 352.975202 
L 135.085125 352.892614 
L 144.533575 352.744143 
L 153.982025 352.604273 
L 163.430475 352.351212 
L 172.878925 352.103261 
L 182.327375 351.696057 
L 191.775825 351.28318 
L 201.224275 350.5728 
L 210.672725 349.857871 
L 220.121175 348.745771 
L 229.569625 347.596336 
L 239.018075 345.933859 
L 248.466525 344.288274 
L 257.914975 341.959111 
L 267.363425 339.575471 
L 276.811875 336.528075 
L 286.260325 330.164638 
L 295.708775 326.71147 
L 305.157225 322.702877 
L 314.605675 318.688424 
L 324.054125 313.229713 
L 333.502575 307.758411 
L 342.951025 300.265111 
L 352.399475 292.757724 
L 361.847925 285.078305 
L 371.296375 277.335559 
L 380.744825 268.073321 
L 390.193275 258.857582 
L 399.641725 246.800199 
L 409.090175 234.318035 
L 418.538625 219.493182 
L 427.987075 204.636166 
L 437.435525 189.66546 
L 446.883975 174.694878 
L 456.332425 156.296934 
L 465.780875 137.429953 
L 475.229325 122.121977 
L 484.677775 107.674908 
L 494.126225 93.035052 
L 503.574675 77.907086 
L 513.023125 68.442399 
L 522.471575 59.82846 
L 531.920025 58.427335 
L 541.368475 56.577742 
L 550.816925 58.030539 
L 560.265375 59.944021 
L 569.713825 67.71787 
L 579.162275 75.366311 
L 588.610725 92.57979 
L 598.059175 110.441568 
L 607.507625 129.514925 
L 616.956075 148.876622 
L 626.404525 173.697529 
L 635.852975 197.765921 
L 645.301425 218.595686 
L 654.749875 239.633822 
L 664.198325 257.155775 
L 673.646775 274.334224 
L 683.095225 288.704128 
L 692.543675 303.222191 
L 701.992125 312.582723 
L 711.440575 321.914709 
L 720.889025 328.226411 
L 730.337475 334.396312 
L 739.785925 338.547393 
L 749.234375 344.492157 
L 758.682825 346.476134 
L 768.131275 347.630742 
L 777.579725 348.747454 
L 787.028175 349.672126 
L 796.476625 350.610635 
L 805.925075 351.07375 
L 815.373525 351.519973 
L 824.821975 351.849203 
L 834.270425 352.168521 
L 843.718875 352.335941 
L 853.167325 352.504607 
L 862.615775 352.687547 
L 872.064225 352.859579 
L 881.512675 352.942603 
L 890.961125 353.017836 
L 900.409575 353.051369 
L 909.858025 353.093006 
L 919.306475 353.128036 
L 928.754925 353.160261 
L 938.203375 353.172166 
L 947.651825 353.181952 
L 957.100275 353.185878 
L 966.548725 353.186377 
L 975.997175 353.185317 
L 985.445625 353.185629 
" style="fill:none;stroke:#5cb85c;stroke-linecap:square;"/>
   </g>
   <g id="line2d_19">
    <path clip-path="url(#p1013ed14cc)" d="M 40.600625 353.096467 
L 50.049075 353.112396 
L 59.497525 353.145613 
L 68.945975 353.162221 
L 78.394425 353.158269 
L 87.842875 353.139809 
L 97.291325 353.115051 
L 106.739775 353.078191 
L 116.188225 353.03806 
L 125.636675 352.96996 
L 135.085125 352.886424 
L 144.533575 352.745655 
L 153.982025 352.618839 
L 163.430475 352.355823 
L 172.878925 352.097437 
L 182.327375 351.716187 
L 191.775825 351.324071 
L 201.224275 350.627695 
L 210.672725 349.920021 
L 220.121175 348.82659 
L 229.569625 347.710994 
L 239.018075 346.115238 
L 248.466525 344.531893 
L 257.914975 342.256741 
L 267.363425 339.92664 
L 276.811875 337.035869 
L 286.260325 331.045274 
L 295.708775 327.81499 
L 305.157225 323.987425 
L 314.605675 320.1556 
L 324.054125 315.107911 
L 333.502575 310.051949 
L 342.951025 303.260945 
L 352.399475 296.442095 
L 361.847925 289.271692 
L 371.296375 282.045847 
L 380.744825 273.258635 
L 390.193275 264.526065 
L 399.641725 253.284036 
L 409.090175 241.621798 
L 418.538625 227.026188 
L 427.987075 212.374086 
L 437.435525 197.177182 
L 446.883975 181.973054 
L 456.332425 163.500487 
L 465.780875 144.560973 
L 475.229325 128.128757 
L 484.677775 112.541466 
L 494.126225 96.643556 
L 503.574675 80.207141 
L 513.023125 69.241156 
L 522.471575 59.176278 
L 531.920025 56.133008 
L 541.368475 52.643104 
L 550.816925 53.22921 
L 560.265375 54.186132 
L 569.713825 61.195576 
L 579.162275 68.176619 
L 588.610725 84.877778 
L 598.059175 102.218203 
L 607.507625 121.796796 
L 616.956075 141.664461 
L 626.404525 166.505478 
L 635.852975 190.675866 
L 645.301425 212.500964 
L 654.749875 234.489057 
L 664.198325 252.544812 
L 673.646775 270.277415 
L 683.095225 285.362753 
L 692.543675 300.556446 
L 701.992125 310.308297 
L 711.440575 320.072188 
L 720.889025 326.77552 
L 730.337475 333.311659 
L 739.785925 337.652352 
L 749.234375 343.878304 
L 758.682825 345.966505 
L 768.131275 347.218363 
L 777.579725 348.435523 
L 787.028175 349.386271 
L 796.476625 350.339551 
L 805.925075 350.859718 
L 815.373525 351.370438 
L 824.821975 351.721682 
L 834.270425 352.056318 
L 843.718875 352.247344 
L 853.167325 352.438185 
L 862.615775 352.628903 
L 872.064225 352.813323 
L 881.512675 352.917356 
L 890.961125 353.010585 
L 900.409575 353.043802 
L 909.858025 353.085045 
L 919.306475 353.122521 
L 928.754925 353.158269 
L 938.203375 353.170926 
L 947.651825 353.180249 
L 957.100275 353.185991 
L 966.548725 353.18383 
L 975.997175 353.178027 
L 985.445625 353.177841 
" style="fill:none;stroke:#5cb85c;stroke-linecap:square;"/>
   </g>
   <g id="line2d_20">
    <path clip-path="url(#p1013ed14cc)" d="M 40.600625 353.122567 
L 50.049075 353.130047 
L 59.497525 353.131554 
L 68.945975 353.121964 
L 78.394425 353.109901 
L 87.842875 353.076666 
L 97.291325 353.029618 
L 106.739775 352.901324 
L 116.188225 352.675376 
L 125.636675 352.492675 
L 135.085125 352.483628 
L 144.533575 352.465533 
L 153.982025 352.402139 
L 163.430475 352.163706 
L 172.878925 351.918999 
L 182.327375 351.484112 
L 191.775825 351.030588 
L 201.224275 350.091148 
L 210.672725 349.119439 
L 220.121175 347.269211 
L 229.569625 345.385628 
L 239.018075 342.689451 
L 248.466525 340.004253 
L 257.914975 335.932786 
L 267.363425 331.776452 
L 276.811875 325.729418 
L 286.260325 311.478589 
L 295.708775 302.934365 
L 305.157225 291.94977 
L 314.605675 281.005768 
L 324.054125 271.905057 
L 333.502575 262.895607 
L 342.951025 248.641642 
L 352.399475 234.188509 
L 361.847925 220.926037 
L 371.296375 207.908091 
L 380.744825 195.110664 
L 390.193275 181.751865 
L 399.641725 172.289614 
L 409.090175 163.469982 
L 418.538625 151.281517 
L 427.987075 138.672339 
L 437.435525 131.83889 
L 446.883975 125.22584 
L 456.332425 123.22132 
L 465.780875 121.0797 
L 475.229325 113.467617 
L 484.677775 105.934066 
L 494.126225 102.487907 
L 503.574675 99.238623 
L 513.023125 98.423437 
L 522.471575 97.485264 
L 531.920025 102.348032 
L 541.368475 107.514556 
L 550.816925 116.444328 
L 560.265375 125.439664 
L 569.713825 137.022364 
L 579.162275 148.745121 
L 588.610725 164.301393 
L 598.059175 180.095919 
L 607.507625 197.005587 
L 616.956075 213.967912 
L 626.404525 231.19111 
L 635.852975 247.929538 
L 645.301425 262.951943 
L 654.749875 278.014701 
L 664.198325 290.680697 
L 673.646775 303.272865 
L 683.095225 312.180741 
L 692.543675 321.092659 
L 701.992125 327.207188 
L 711.440575 333.275213 
L 720.889025 337.067351 
L 730.337475 340.807617 
L 739.785925 343.044357 
L 749.234375 346.412587 
L 758.682825 347.671888 
L 768.131275 348.52055 
L 777.579725 349.344362 
L 787.028175 349.929257 
L 796.476625 350.514092 
L 805.925075 350.973649 
L 815.373525 351.422468 
L 824.821975 351.67755 
L 834.270425 351.933897 
L 843.718875 352.189823 
L 853.167325 352.441949 
L 862.615775 352.603176 
L 872.064225 352.760061 
L 881.512675 352.868451 
L 890.961125 352.978228 
L 900.409575 353.046749 
L 909.858025 353.111831 
L 919.306475 353.140481 
L 928.754925 353.169675 
L 938.203375 353.185176 
L 947.651825 353.196335 
L 957.100275 353.202126 
L 966.548725 353.206227 
L 975.997175 353.206951 
L 985.445625 353.206649 
" style="fill:none;stroke:#5cb85c;stroke-linecap:square;"/>
   </g>
   <g id="line2d_21">
    <path clip-path="url(#p1013ed14cc)" d="M 40.600625 353.121756 
L 50.049075 353.129668 
L 59.497525 353.130268 
L 68.945975 353.118219 
L 78.394425 353.10683 
L 87.842875 353.066907 
L 97.291325 353.007563 
L 106.739775 352.859082 
L 116.188225 352.60642 
L 125.636675 352.411243 
L 135.085125 352.395418 
L 144.533575 352.363408 
L 153.982025 352.304183 
L 163.430475 352.040191 
L 172.878925 351.749584 
L 182.327375 351.262121 
L 191.775825 350.754577 
L 201.224275 349.717131 
L 210.672725 348.654688 
L 220.121175 346.643875 
L 229.569625 344.597516 
L 239.018075 341.698397 
L 248.466525 338.789986 
L 257.914975 334.431177 
L 267.363425 330.007029 
L 276.811875 323.373355 
L 286.260325 308.107722 
L 295.708775 299.113702 
L 305.157225 287.543062 
L 314.605675 276.033024 
L 324.054125 266.1278 
L 333.502575 256.263338 
L 342.951025 241.018145 
L 352.399475 225.63778 
L 361.847925 212.013166 
L 371.296375 198.574978 
L 380.744825 185.291745 
L 390.193275 171.509539 
L 399.641725 161.846788 
L 409.090175 152.696255 
L 418.538625 141.107571 
L 427.987075 129.204063 
L 437.435525 123.243257 
L 446.883975 117.553277 
L 456.332425 116.765616 
L 465.780875 115.789792 
L 475.229325 110.172644 
L 484.677775 104.746656 
L 494.126225 103.337619 
L 503.574675 102.071607 
L 513.023125 103.500066 
L 522.471575 104.830038 
L 531.920025 111.0296 
L 541.368475 117.451493 
L 550.816925 127.539125 
L 560.265375 137.757076 
L 569.713825 149.949693 
L 579.162275 162.264476 
L 588.610725 177.4119 
L 598.059175 192.760555 
L 607.507625 208.547879 
L 616.956075 224.304571 
L 626.404525 240.282336 
L 635.852975 255.863693 
L 645.301425 269.316687 
L 654.749875 282.782509 
L 664.198325 294.266771 
L 673.646775 305.704637 
L 683.095225 313.850032 
L 692.543675 321.969352 
L 701.992125 327.731984 
L 711.440575 333.466742 
L 720.889025 337.063726 
L 730.337475 340.589078 
L 739.785925 342.77061 
L 749.234375 346.145743 
L 758.682825 347.441427 
L 768.131275 348.319483 
L 777.579725 349.181953 
L 787.028175 349.800153 
L 796.476625 350.416854 
L 805.925075 350.907494 
L 815.373525 351.392739 
L 824.821975 351.671417 
L 834.270425 351.94554 
L 843.718875 352.204437 
L 853.167325 352.462674 
L 862.615775 352.624942 
L 872.064225 352.777978 
L 881.512675 352.889953 
L 890.961125 353.002528 
L 900.409575 353.06379 
L 909.858025 353.122056 
L 919.306475 353.153226 
L 928.754925 353.185656 
L 938.203375 353.197465 
L 947.651825 353.203459 
L 957.100275 353.206636 
L 966.548725 353.209933 
L 975.997175 353.211492 
L 985.445625 353.211911 
" style="fill:none;stroke:#5cb85c;stroke-linecap:square;"/>
   </g>
   <g id="line2d_22">
    <path clip-path="url(#p1013ed14cc)" d="M 40.600625 353.115361 
L 50.049075 353.130351 
L 59.497525 353.159903 
L 68.945975 353.172017 
L 78.394425 353.16492 
L 87.842875 353.145769 
L 97.291325 353.119399 
L 106.739775 353.077978 
L 116.188225 353.037598 
L 125.636675 352.987611 
L 135.085125 352.927835 
L 144.533575 352.76209 
L 153.982025 352.601424 
L 163.430475 352.405149 
L 172.878925 352.222946 
L 182.327375 351.928594 
L 191.775825 351.614174 
L 201.224275 351.016416 
L 210.672725 350.414803 
L 220.121175 349.578187 
L 229.569625 348.720095 
L 239.018075 347.212606 
L 248.466525 345.708788 
L 257.914975 343.574846 
L 267.363425 341.39618 
L 276.811875 338.673718 
L 286.260325 332.761418 
L 295.708775 329.432817 
L 305.157225 325.255117 
L 314.605675 321.057471 
L 324.054125 315.33802 
L 333.502575 309.66464 
L 342.951025 302.749672 
L 352.399475 295.800198 
L 361.847925 287.46921 
L 371.296375 278.955102 
L 380.744825 268.344434 
L 390.193275 257.99716 
L 399.641725 245.777012 
L 409.090175 232.854849 
L 418.538625 216.715561 
L 427.987075 200.926239 
L 437.435525 184.725033 
L 446.883975 168.352331 
L 456.332425 149.797169 
L 465.780875 131.098839 
L 475.229325 114.956369 
L 484.677775 99.160562 
L 494.126225 86.059684 
L 503.574675 72.830995 
L 513.023125 64.38792 
L 522.471575 56.411855 
L 531.920025 54.183447 
L 541.368475 51.622814 
L 550.816925 56.288388 
L 560.265375 61.488823 
L 569.713825 70.115202 
L 579.162275 78.666327 
L 588.610725 95.46162 
L 598.059175 112.64775 
L 607.507625 131.760962 
L 616.956075 151.45474 
L 626.404525 177.659311 
L 635.852975 202.911934 
L 645.301425 223.048249 
L 654.749875 243.476897 
L 664.198325 260.81213 
L 673.646775 277.835452 
L 683.095225 291.716475 
L 692.543675 305.64314 
L 701.992125 313.725847 
L 711.440575 321.863374 
L 720.889025 328.115913 
L 730.337475 334.197751 
L 739.785925 338.210807 
L 749.234375 344.057152 
L 758.682825 346.055206 
L 768.131275 347.107432 
L 777.579725 348.125028 
L 787.028175 349.219165 
L 796.476625 350.310548 
L 805.925075 350.844002 
L 815.373525 351.374398 
L 824.821975 351.706683 
L 834.270425 352.028934 
L 843.718875 352.238731 
L 853.167325 352.447977 
L 862.615775 352.633239 
L 872.064225 352.809018 
L 881.512675 352.911255 
L 890.961125 353.00927 
L 900.409575 353.052343 
L 909.858025 353.097863 
L 919.306475 353.128393 
L 928.754925 353.155803 
L 938.203375 353.166755 
L 947.651825 353.178869 
L 957.100275 353.184009 
L 966.548725 353.187313 
L 975.997175 353.189638 
L 985.445625 353.190494 
" style="fill:none;stroke:#5cb85c;stroke-linecap:square;"/>
   </g>
   <g id="line2d_23">
    <path clip-path="url(#p1013ed14cc)" d="M 40.600625 353.129341 
L 50.049075 353.136882 
L 59.497525 353.143226 
L 68.945975 353.139755 
L 78.394425 353.131376 
L 87.842875 353.100016 
L 97.291325 353.04753 
L 106.739775 352.928374 
L 116.188225 352.722978 
L 125.636675 352.55349 
L 135.085125 352.543855 
L 144.533575 352.531586 
L 153.982025 352.493164 
L 163.430475 352.254673 
L 172.878925 351.990686 
L 182.327375 351.585939 
L 191.775825 351.161562 
L 201.224275 350.232133 
L 210.672725 349.28068 
L 220.121175 347.45025 
L 229.569625 345.585767 
L 239.018075 342.890843 
L 248.466525 340.191131 
L 257.914975 336.262633 
L 267.363425 332.261182 
L 276.811875 326.095054 
L 286.260325 311.895382 
L 295.708775 303.527531 
L 305.157225 292.532323 
L 314.605675 281.549324 
L 324.054125 272.196087 
L 333.502575 262.932501 
L 342.951025 248.267337 
L 352.399475 233.420476 
L 361.847925 220.396265 
L 371.296375 207.581998 
L 380.744825 194.277402 
L 390.193275 180.491694 
L 399.641725 171.113919 
L 409.090175 162.171414 
L 418.538625 150.233731 
L 427.987075 138.013209 
L 437.435525 130.920705 
L 446.883975 124.107088 
L 456.332425 121.796024 
L 465.780875 119.246828 
L 475.229325 112.09693 
L 484.677775 105.10838 
L 494.126225 101.956521 
L 503.574675 98.953563 
L 513.023125 98.739968 
L 522.471575 98.51165 
L 531.920025 104.004137 
L 541.368475 109.710578 
L 550.816925 118.769007 
L 560.265375 127.947131 
L 569.713825 139.665115 
L 579.162275 151.528408 
L 588.610725 167.020124 
L 598.059175 182.714243 
L 607.507625 199.010606 
L 616.956075 215.334319 
L 626.404525 232.393436 
L 635.852975 249.000945 
L 645.301425 263.425823 
L 654.749875 277.87841 
L 664.198325 290.118083 
L 673.646775 302.311613 
L 683.095225 311.012155 
L 692.543675 319.694564 
L 701.992125 325.859136 
L 711.440575 331.965178 
L 720.889025 335.790259 
L 730.337475 339.565547 
L 739.785925 341.890076 
L 749.234375 345.488396 
L 758.682825 346.895705 
L 768.131275 347.83447 
L 777.579725 348.739182 
L 787.028175 349.406539 
L 796.476625 350.078206 
L 805.925075 350.624372 
L 815.373525 351.164793 
L 824.821975 351.458285 
L 834.270425 351.749143 
L 843.718875 352.054723 
L 853.167325 352.352044 
L 862.615775 352.529671 
L 872.064225 352.705323 
L 881.512675 352.838962 
L 890.961125 352.972481 
L 900.409575 353.041485 
L 909.858025 353.106061 
L 919.306475 353.139515 
L 928.754925 353.172611 
L 938.203375 353.187992 
L 947.651825 353.199782 
L 957.100275 353.204869 
L 966.548725 353.208759 
L 975.997175 353.210195 
L 985.445625 353.210494 
" style="fill:none;stroke:#5cb85c;stroke-linecap:square;"/>
   </g>
   <g id="line2d_24">
    <path clip-path="url(#p1013ed14cc)" d="M 40.600625 353.112995 
L 50.049075 353.125796 
L 59.497525 353.156015 
L 68.945975 353.170294 
L 78.394425 353.164878 
L 87.842875 353.151338 
L 97.291325 353.127704 
L 106.739775 353.084868 
L 116.188225 353.047325 
L 125.636675 353.002151 
L 135.085125 352.945529 
L 144.533575 352.796035 
L 153.982025 352.651033 
L 163.430475 352.454825 
L 172.878925 352.262987 
L 182.327375 351.980185 
L 191.775825 351.69449 
L 201.224275 351.163413 
L 210.672725 350.620949 
L 220.121175 349.800361 
L 229.569625 348.954662 
L 239.018075 347.55739 
L 248.466525 346.173043 
L 257.914975 344.110033 
L 267.363425 342.004124 
L 276.811875 339.519772 
L 286.260325 333.980969 
L 295.708775 330.796104 
L 305.157225 326.759447 
L 314.605675 322.707772 
L 324.054125 317.073697 
L 333.502575 311.479011 
L 342.951025 304.742345 
L 352.399475 297.964998 
L 361.847925 289.439445 
L 371.296375 280.752151 
L 380.744825 270.379244 
L 390.193275 260.229994 
L 399.641725 248.205016 
L 409.090175 235.568275 
L 418.538625 219.737067 
L 427.987075 204.151118 
L 437.435525 188.190418 
L 446.883975 172.08564 
L 456.332425 153.778819 
L 465.780875 135.340844 
L 475.229325 119.066015 
L 484.677775 103.136396 
L 494.126225 89.755998 
L 503.574675 76.310731 
L 513.023125 67.489759 
L 522.471575 58.9663 
L 531.920025 55.39622 
L 541.368475 51.579835 
L 550.816925 55.618523 
L 560.265375 60.162809 
L 569.713825 67.363468 
L 579.162275 74.536677 
L 588.610725 90.534058 
L 598.059175 106.853754 
L 607.507625 125.12931 
L 616.956075 144.120519 
L 626.404525 170.80549 
L 635.852975 196.477235 
L 645.301425 216.999331 
L 654.749875 237.841526 
L 664.198325 255.975526 
L 673.646775 273.801245 
L 683.095225 288.541002 
L 692.543675 303.290114 
L 701.992125 311.953713 
L 711.440575 320.703538 
L 720.889025 327.358963 
L 730.337475 333.830183 
L 739.785925 338.017134 
L 749.234375 344.116556 
L 758.682825 346.219449 
L 768.131275 347.353736 
L 777.579725 348.432447 
L 787.028175 349.510911 
L 796.476625 350.601993 
L 805.925075 351.098051 
L 815.373525 351.577738 
L 824.821975 351.895991 
L 834.270425 352.210797 
L 843.718875 352.401773 
L 853.167325 352.59078 
L 862.615775 352.741628 
L 872.064225 352.884168 
L 881.512675 352.974886 
L 890.961125 353.058034 
L 900.409575 353.08253 
L 909.858025 353.111395 
L 919.306475 353.137244 
L 928.754925 353.161924 
L 938.203375 353.171771 
L 947.651825 353.180633 
L 957.100275 353.186788 
L 966.548725 353.188204 
L 975.997175 353.183772 
L 985.445625 353.182172 
" style="fill:none;stroke:#5cb85c;stroke-linecap:square;"/>
   </g>
   <g id="line2d_25">
    <path clip-path="url(#p1013ed14cc)" d="M 40.600625 353.13407 
L 50.049075 353.139737 
L 59.497525 353.137567 
L 68.945975 353.125148 
L 78.394425 353.116044 
L 87.842875 353.084815 
L 97.291325 353.030073 
L 106.739775 352.897438 
L 116.188225 352.682691 
L 125.636675 352.511411 
L 135.085125 352.497726 
L 144.533575 352.478795 
L 153.982025 352.42339 
L 163.430475 352.163849 
L 172.878925 351.881397 
L 182.327375 351.424894 
L 191.775825 350.955428 
L 201.224275 350.007633 
L 210.672725 349.029815 
L 220.121175 347.138146 
L 229.569625 345.221939 
L 239.018075 342.568404 
L 248.466525 339.91493 
L 257.914975 335.932819 
L 267.363425 331.88192 
L 276.811875 325.805088 
L 286.260325 311.719181 
L 295.708775 303.38479 
L 305.157225 292.745089 
L 314.605675 282.1245 
L 324.054125 273.080936 
L 333.502575 264.157526 
L 342.951025 250.241572 
L 352.399475 236.100742 
L 361.847925 222.914339 
L 371.296375 209.942742 
L 380.744825 197.283802 
L 390.193275 184.122237 
L 399.641725 174.650082 
L 409.090175 165.681637 
L 418.538625 153.670375 
L 427.987075 141.38462 
L 437.435525 134.071997 
L 446.883975 126.927819 
L 456.332425 123.921959 
L 465.780875 120.722332 
L 475.229325 112.809838 
L 484.677775 105.070312 
L 494.126225 101.003617 
L 503.574675 97.055208 
L 513.023125 96.079983 
L 522.471575 95.112354 
L 531.920025 99.662019 
L 541.368475 104.390681 
L 550.816925 113.130995 
L 560.265375 122.03879 
L 569.713825 133.964985 
L 579.162275 146.022608 
L 588.610725 161.915299 
L 598.059175 178.078986 
L 607.507625 194.948892 
L 616.956075 211.806016 
L 626.404525 229.660311 
L 635.852975 247.032239 
L 645.301425 262.052797 
L 654.749875 277.145038 
L 664.198325 290.097342 
L 673.646775 302.990986 
L 683.095225 312.116361 
L 692.543675 321.20478 
L 701.992125 327.561772 
L 711.440575 333.872704 
L 720.889025 337.681786 
L 730.337475 341.434258 
L 739.785925 343.742943 
L 749.234375 347.166722 
L 758.682825 348.418491 
L 768.131275 349.289478 
L 777.579725 350.133576 
L 787.028175 350.676292 
L 796.476625 351.216175 
L 805.925075 351.622097 
L 815.373525 352.018614 
L 824.821975 352.212984 
L 834.270425 352.403977 
L 843.718875 352.585084 
L 853.167325 352.763116 
L 862.615775 352.856683 
L 872.064225 352.94585 
L 881.512675 353.016628 
L 890.961125 353.086442 
L 900.409575 353.12774 
L 909.858025 353.166445 
L 919.306475 353.181156 
L 928.754925 353.197192 
L 938.203375 353.20509 
L 947.651825 353.208948 
L 957.100275 353.211541 
L 966.548725 353.213289 
L 975.997175 353.212626 
L 985.445625 353.211722 
" style="fill:none;stroke:#5cb85c;stroke-linecap:square;"/>
   </g>
   <g id="line2d_26">
    <path clip-path="url(#p1013ed14cc)" d="M 40.600625 353.081329 
L 50.049075 353.098994 
L 59.497525 353.140838 
L 68.945975 353.162387 
L 78.394425 353.156874 
L 87.842875 353.141151 
L 97.291325 353.116471 
L 106.739775 353.072121 
L 116.188225 353.029964 
L 125.636675 352.980415 
L 135.085125 352.924602 
L 144.533575 352.776268 
L 153.982025 352.632007 
L 163.430475 352.42454 
L 172.878925 352.221208 
L 182.327375 351.93068 
L 191.775825 351.631068 
L 201.224275 351.046755 
L 210.672725 350.454548 
L 220.121175 349.607957 
L 229.569625 348.729795 
L 239.018075 347.274961 
L 248.466525 345.837291 
L 257.914975 343.739637 
L 267.363425 341.601705 
L 276.811875 338.90796 
L 286.260325 332.86481 
L 295.708775 329.388305 
L 305.157225 325.100038 
L 314.605675 320.793793 
L 324.054125 314.628054 
L 333.502575 308.494074 
L 342.951025 301.186768 
L 352.399475 293.845887 
L 361.847925 285.134236 
L 371.296375 276.238421 
L 380.744825 265.603195 
L 390.193275 255.232752 
L 399.641725 243.21166 
L 409.090175 230.579318 
L 418.538625 215.159396 
L 427.987075 199.909607 
L 437.435525 184.298693 
L 446.883975 168.649129 
L 456.332425 150.848542 
L 465.780875 132.847128 
L 475.229325 117.56276 
L 484.677775 102.732414 
L 494.126225 89.965081 
L 503.574675 77.001182 
L 513.023125 68.499566 
L 522.471575 60.40048 
L 531.920025 57.559091 
L 541.368475 54.439263 
L 550.816925 59.241749 
L 560.265375 64.549935 
L 569.713825 72.250562 
L 579.162275 79.835931 
L 588.610725 96.256791 
L 598.059175 113.190053 
L 607.507625 131.559232 
L 616.956075 150.473511 
L 626.404525 176.078522 
L 635.852975 200.695436 
L 645.301425 220.550393 
L 654.749875 240.709659 
L 664.198325 258.306288 
L 673.646775 275.600299 
L 683.095225 289.958271 
L 692.543675 304.369926 
L 701.992125 312.820489 
L 711.440575 321.315716 
L 720.889025 327.726945 
L 730.337475 333.962089 
L 739.785925 337.925188 
L 749.234375 343.924741 
L 758.682825 346.13471 
L 768.131275 347.27565 
L 777.579725 348.372805 
L 787.028175 349.422227 
L 796.476625 350.479792 
L 805.925075 350.980481 
L 815.373525 351.463442 
L 824.821975 351.775894 
L 834.270425 352.080642 
L 843.718875 352.301701 
L 853.167325 352.528399 
L 862.615775 352.701789 
L 872.064225 352.858579 
L 881.512675 352.946777 
L 890.961125 353.031593 
L 900.409575 353.063414 
L 909.858025 353.099119 
L 919.306475 353.126744 
L 928.754925 353.154557 
L 938.203375 353.16602 
L 947.651825 353.17598 
L 957.100275 353.181555 
L 966.548725 353.182244 
L 975.997175 353.181492 
L 985.445625 353.182808 
" style="fill:none;stroke:#5cb85c;stroke-linecap:square;"/>
   </g>
   <g id="line2d_27">
    <path clip-path="url(#p1013ed14cc)" d="M 40.600625 353.2239 
L 985.445625 353.2239 
" style="fill:none;stroke:#dedede;stroke-linecap:square;stroke-width:2;"/>
   </g>
   <g id="text_18">
    <!-- FastQC: Per Sequence GC Content -->
    <defs>
     <path d="M 9.8125 72.90625 
L 51.703125 72.90625 
L 51.703125 64.59375 
L 19.671875 64.59375 
L 19.671875 43.109375 
L 48.578125 43.109375 
L 48.578125 34.8125 
L 19.671875 34.8125 
L 19.671875 0 
L 9.8125 0 
z
" id="DejaVuSans-70"/>
     <path d="M 44.28125 53.078125 
L 44.28125 44.578125 
Q 40.484375 46.53125 36.375 47.5 
Q 32.28125 48.484375 27.875 48.484375 
Q 21.1875 48.484375 17.84375 46.4375 
Q 14.5 44.390625 14.5 40.28125 
Q 14.5 37.15625 16.890625 35.375 
Q 19.28125 33.59375 26.515625 31.984375 
L 29.59375 31.296875 
Q 39.15625 29.25 43.1875 25.515625 
Q 47.21875 21.78125 47.21875 15.09375 
Q 47.21875 7.46875 41.1875 3.015625 
Q 35.15625 -1.421875 24.609375 -1.421875 
Q 20.21875 -1.421875 15.453125 -0.5625 
Q 10.6875 0.296875 5.421875 2 
L 5.421875 11.28125 
Q 10.40625 8.6875 15.234375 7.390625 
Q 20.0625 6.109375 24.8125 6.109375 
Q 31.15625 6.109375 34.5625 8.28125 
Q 37.984375 10.453125 37.984375 14.40625 
Q 37.984375 18.0625 35.515625 20.015625 
Q 33.0625 21.96875 24.703125 23.78125 
L 21.578125 24.515625 
Q 13.234375 26.265625 9.515625 29.90625 
Q 5.8125 33.546875 5.8125 39.890625 
Q 5.8125 47.609375 11.28125 51.796875 
Q 16.75 56 26.8125 56 
Q 31.78125 56 36.171875 55.265625 
Q 40.578125 54.546875 44.28125 53.078125 
z
" id="DejaVuSans-115"/>
     <path d="M 39.40625 66.21875 
Q 28.65625 66.21875 22.328125 58.203125 
Q 16.015625 50.203125 16.015625 36.375 
Q 16.015625 22.609375 22.328125 14.59375 
Q 28.65625 6.59375 39.40625 6.59375 
Q 50.140625 6.59375 56.421875 14.59375 
Q 62.703125 22.609375 62.703125 36.375 
Q 62.703125 50.203125 56.421875 58.203125 
Q 50.140625 66.21875 39.40625 66.21875 
z
M 53.21875 1.3125 
L 66.21875 -12.890625 
L 54.296875 -12.890625 
L 43.5 -1.21875 
Q 41.890625 -1.3125 41.03125 -1.359375 
Q 40.1875 -1.421875 39.40625 -1.421875 
Q 24.03125 -1.421875 14.8125 8.859375 
Q 5.609375 19.140625 5.609375 36.375 
Q 5.609375 53.65625 14.8125 63.9375 
Q 24.03125 74.21875 39.40625 74.21875 
Q 54.734375 74.21875 63.90625 63.9375 
Q 73.09375 53.65625 73.09375 36.375 
Q 73.09375 23.6875 67.984375 14.640625 
Q 62.890625 5.609375 53.21875 1.3125 
z
" id="DejaVuSans-81"/>
     <path d="M 11.71875 12.40625 
L 22.015625 12.40625 
L 22.015625 0 
L 11.71875 0 
z
M 11.71875 51.703125 
L 22.015625 51.703125 
L 22.015625 39.3125 
L 11.71875 39.3125 
z
" id="DejaVuSans-58"/>
     <path d="M 53.515625 70.515625 
L 53.515625 60.890625 
Q 47.90625 63.578125 42.921875 64.890625 
Q 37.9375 66.21875 33.296875 66.21875 
Q 25.25 66.21875 20.875 63.09375 
Q 16.5 59.96875 16.5 54.203125 
Q 16.5 49.359375 19.40625 46.890625 
Q 22.3125 44.4375 30.421875 42.921875 
L 36.375 41.703125 
Q 47.40625 39.59375 52.65625 34.296875 
Q 57.90625 29 57.90625 20.125 
Q 57.90625 9.515625 50.796875 4.046875 
Q 43.703125 -1.421875 29.984375 -1.421875 
Q 24.8125 -1.421875 18.96875 -0.25 
Q 13.140625 0.921875 6.890625 3.21875 
L 6.890625 13.375 
Q 12.890625 10.015625 18.65625 8.296875 
Q 24.421875 6.59375 29.984375 6.59375 
Q 38.421875 6.59375 43.015625 9.90625 
Q 47.609375 13.234375 47.609375 19.390625 
Q 47.609375 24.75 44.3125 27.78125 
Q 41.015625 30.8125 33.5 32.328125 
L 27.484375 33.5 
Q 16.453125 35.6875 11.515625 40.375 
Q 6.59375 45.0625 6.59375 53.421875 
Q 6.59375 63.09375 13.40625 68.65625 
Q 20.21875 74.21875 32.171875 74.21875 
Q 37.3125 74.21875 42.625 73.28125 
Q 47.953125 72.359375 53.515625 70.515625 
z
" id="DejaVuSans-83"/>
     <path d="M 14.796875 27.296875 
Q 14.796875 17.390625 18.875 11.75 
Q 22.953125 6.109375 30.078125 6.109375 
Q 37.203125 6.109375 41.296875 11.75 
Q 45.40625 17.390625 45.40625 27.296875 
Q 45.40625 37.203125 41.296875 42.84375 
Q 37.203125 48.484375 30.078125 48.484375 
Q 22.953125 48.484375 18.875 42.84375 
Q 14.796875 37.203125 14.796875 27.296875 
z
M 45.40625 8.203125 
Q 42.578125 3.328125 38.25 0.953125 
Q 33.9375 -1.421875 27.875 -1.421875 
Q 17.96875 -1.421875 11.734375 6.484375 
Q 5.515625 14.40625 5.515625 27.296875 
Q 5.515625 40.1875 11.734375 48.09375 
Q 17.96875 56 27.875 56 
Q 33.9375 56 38.25 53.625 
Q 42.578125 51.265625 45.40625 46.390625 
L 45.40625 54.6875 
L 54.390625 54.6875 
L 54.390625 -20.796875 
L 45.40625 -20.796875 
z
" id="DejaVuSans-113"/>
     <path d="M 8.5 21.578125 
L 8.5 54.6875 
L 17.484375 54.6875 
L 17.484375 21.921875 
Q 17.484375 14.15625 20.5 10.265625 
Q 23.53125 6.390625 29.59375 6.390625 
Q 36.859375 6.390625 41.078125 11.03125 
Q 45.3125 15.671875 45.3125 23.6875 
L 45.3125 54.6875 
L 54.296875 54.6875 
L 54.296875 0 
L 45.3125 0 
L 45.3125 8.40625 
Q 42.046875 3.421875 37.71875 1 
Q 33.40625 -1.421875 27.6875 -1.421875 
Q 18.265625 -1.421875 13.375 4.4375 
Q 8.5 10.296875 8.5 21.578125 
z
M 31.109375 56 
z
" id="DejaVuSans-117"/>
     <path d="M 30.609375 48.390625 
Q 23.390625 48.390625 19.1875 42.75 
Q 14.984375 37.109375 14.984375 27.296875 
Q 14.984375 17.484375 19.15625 11.84375 
Q 23.34375 6.203125 30.609375 6.203125 
Q 37.796875 6.203125 41.984375 11.859375 
Q 46.1875 17.53125 46.1875 27.296875 
Q 46.1875 37.015625 41.984375 42.703125 
Q 37.796875 48.390625 30.609375 48.390625 
z
M 30.609375 56 
Q 42.328125 56 49.015625 48.375 
Q 55.71875 40.765625 55.71875 27.296875 
Q 55.71875 13.875 49.015625 6.21875 
Q 42.328125 -1.421875 30.609375 -1.421875 
Q 18.84375 -1.421875 12.171875 6.21875 
Q 5.515625 13.875 5.515625 27.296875 
Q 5.515625 40.765625 12.171875 48.375 
Q 18.84375 56 30.609375 56 
z
" id="DejaVuSans-111"/>
    </defs>
    <g transform="translate(375.381875 19.3575)scale(0.16 -0.16)">
     <use xlink:href="#DejaVuSans-70"/>
     <use x="57.378906" xlink:href="#DejaVuSans-97"/>
     <use x="118.658203" xlink:href="#DejaVuSans-115"/>
     <use x="170.757812" xlink:href="#DejaVuSans-116"/>
     <use x="209.966797" xlink:href="#DejaVuSans-81"/>
     <use x="288.677734" xlink:href="#DejaVuSans-67"/>
     <use x="358.501953" xlink:href="#DejaVuSans-58"/>
     <use x="392.193359" xlink:href="#DejaVuSans-32"/>
     <use x="423.980469" xlink:href="#DejaVuSans-80"/>
     <use x="484.236328" xlink:href="#DejaVuSans-101"/>
     <use x="545.759766" xlink:href="#DejaVuSans-114"/>
     <use x="586.873047" xlink:href="#DejaVuSans-32"/>
     <use x="618.660156" xlink:href="#DejaVuSans-83"/>
     <use x="682.136719" xlink:href="#DejaVuSans-101"/>
     <use x="743.660156" xlink:href="#DejaVuSans-113"/>
     <use x="807.136719" xlink:href="#DejaVuSans-117"/>
     <use x="870.515625" xlink:href="#DejaVuSans-101"/>
     <use x="932.039062" xlink:href="#DejaVuSans-110"/>
     <use x="995.417969" xlink:href="#DejaVuSans-99"/>
     <use x="1050.398438" xlink:href="#DejaVuSans-101"/>
     <use x="1111.921875" xlink:href="#DejaVuSans-32"/>
     <use x="1143.708984" xlink:href="#DejaVuSans-71"/>
     <use x="1221.199219" xlink:href="#DejaVuSans-67"/>
     <use x="1291.023438" xlink:href="#DejaVuSans-32"/>
     <use x="1322.810547" xlink:href="#DejaVuSans-67"/>
     <use x="1392.634766" xlink:href="#DejaVuSans-111"/>
     <use x="1453.816406" xlink:href="#DejaVuSans-110"/>
     <use x="1517.195312" xlink:href="#DejaVuSans-116"/>
     <use x="1556.404297" xlink:href="#DejaVuSans-101"/>
     <use x="1617.927734" xlink:href="#DejaVuSans-110"/>
     <use x="1681.306641" xlink:href="#DejaVuSans-116"/>
    </g>
   </g>
  </g>
 </g>
 <defs>
  <clipPath id="p1013ed14cc">
   <rect height="317.968" width="944.845" x="40.600625" y="35.2559"/>
  </clipPath>
 </defs>
</svg>
