<?xml version="1.0" encoding="utf-8" standalone="no"?>
<!DOCTYPE svg PUBLIC "-//W3C//DTD SVG 1.1//EN"
  "http://www.w3.org/Graphics/SVG/1.1/DTD/svg11.dtd">
<!-- Created with matplotlib (https://matplotlib.org/) -->
<svg height="332.370444pt" version="1.1" viewBox="0 0 1000.390625 332.370444" width="1000.390625pt" xmlns="http://www.w3.org/2000/svg" xmlns:xlink="http://www.w3.org/1999/xlink">
 <metadata>
  <rdf:RDF xmlns:cc="http://creativecommons.org/ns#" xmlns:dc="http://purl.org/dc/elements/1.1/" xmlns:rdf="http://www.w3.org/1999/02/22-rdf-syntax-ns#">
   <cc:Work>
    <dc:type rdf:resource="http://purl.org/dc/dcmitype/StillImage"/>
    <dc:date>2020-12-03T09:50:02.952051</dc:date>
    <dc:format>image/svg+xml</dc:format>
    <dc:creator>
     <cc:Agent>
      <dc:title>Matplotlib v3.3.1, https://matplotlib.org/</dc:title>
     </cc:Agent>
    </dc:creator>
   </cc:Work>
  </rdf:RDF>
 </metadata>
 <defs>
  <style type="text/css">*{stroke-linecap:butt;stroke-linejoin:round;}</style>
 </defs>
 <g id="figure_1">
  <g id="axes_1">
   <g id="patch_1">
    <path d="M 45.690625 275.50206 
L 993.190625 275.50206 
L 993.190625 31.55486 
L 45.690625 31.55486 
z
" style="fill:#ffffff;"/>
   </g>
   <g id="matplotlib.axis_1">
    <g id="xtick_1">
     <g id="text_1">
      <!-- 0 -->
      <g transform="translate(80.432843 288.58081)scale(0.08 -0.08)">
       <defs>
        <path d="M 31.78125 66.40625 
Q 24.171875 66.40625 20.328125 58.90625 
Q 16.5 51.421875 16.5 36.375 
Q 16.5 21.390625 20.328125 13.890625 
Q 24.171875 6.390625 31.78125 6.390625 
Q 39.453125 6.390625 43.28125 13.890625 
Q 47.125 21.390625 47.125 36.375 
Q 47.125 51.421875 43.28125 58.90625 
Q 39.453125 66.40625 31.78125 66.40625 
z
M 31.78125 74.21875 
Q 44.046875 74.21875 50.515625 64.515625 
Q 56.984375 54.828125 56.984375 36.375 
Q 56.984375 17.96875 50.515625 8.265625 
Q 44.046875 -1.421875 31.78125 -1.421875 
Q 19.53125 -1.421875 13.0625 8.265625 
Q 6.59375 17.96875 6.59375 36.375 
Q 6.59375 54.828125 13.0625 64.515625 
Q 19.53125 74.21875 31.78125 74.21875 
z
" id="DejaVuSans-48"/>
       </defs>
       <use xlink:href="#DejaVuSans-48"/>
      </g>
     </g>
    </g>
    <g id="xtick_2">
     <g id="text_2">
      <!-- 20 -->
      <g transform="translate(193.507123 288.58081)scale(0.08 -0.08)">
       <defs>
        <path d="M 19.1875 8.296875 
L 53.609375 8.296875 
L 53.609375 0 
L 7.328125 0 
L 7.328125 8.296875 
Q 12.9375 14.109375 22.625 23.890625 
Q 32.328125 33.6875 34.8125 36.53125 
Q 39.546875 41.84375 41.421875 45.53125 
Q 43.3125 49.21875 43.3125 52.78125 
Q 43.3125 58.59375 39.234375 62.25 
Q 35.15625 65.921875 28.609375 65.921875 
Q 23.96875 65.921875 18.8125 64.3125 
Q 13.671875 62.703125 7.8125 59.421875 
L 7.8125 69.390625 
Q 13.765625 71.78125 18.9375 73 
Q 24.125 74.21875 28.421875 74.21875 
Q 39.75 74.21875 46.484375 68.546875 
Q 53.21875 62.890625 53.21875 53.421875 
Q 53.21875 48.921875 51.53125 44.890625 
Q 49.859375 40.875 45.40625 35.40625 
Q 44.1875 33.984375 37.640625 27.21875 
Q 31.109375 20.453125 19.1875 8.296875 
z
" id="DejaVuSans-50"/>
       </defs>
       <use xlink:href="#DejaVuSans-50"/>
       <use x="63.623047" xlink:href="#DejaVuSans-48"/>
      </g>
     </g>
    </g>
    <g id="xtick_3">
     <g id="text_3">
      <!-- 40 -->
      <g transform="translate(309.126403 288.58081)scale(0.08 -0.08)">
       <defs>
        <path d="M 37.796875 64.3125 
L 12.890625 25.390625 
L 37.796875 25.390625 
z
M 35.203125 72.90625 
L 47.609375 72.90625 
L 47.609375 25.390625 
L 58.015625 25.390625 
L 58.015625 17.1875 
L 47.609375 17.1875 
L 47.609375 0 
L 37.796875 0 
L 37.796875 17.1875 
L 4.890625 17.1875 
L 4.890625 26.703125 
z
" id="DejaVuSans-52"/>
       </defs>
       <use xlink:href="#DejaVuSans-52"/>
       <use x="63.623047" xlink:href="#DejaVuSans-48"/>
      </g>
     </g>
    </g>
    <g id="xtick_4">
     <g id="text_4">
      <!-- 60 -->
      <g transform="translate(424.745683 288.58081)scale(0.08 -0.08)">
       <defs>
        <path d="M 33.015625 40.375 
Q 26.375 40.375 22.484375 35.828125 
Q 18.609375 31.296875 18.609375 23.390625 
Q 18.609375 15.53125 22.484375 10.953125 
Q 26.375 6.390625 33.015625 6.390625 
Q 39.65625 6.390625 43.53125 10.953125 
Q 47.40625 15.53125 47.40625 23.390625 
Q 47.40625 31.296875 43.53125 35.828125 
Q 39.65625 40.375 33.015625 40.375 
z
M 52.59375 71.296875 
L 52.59375 62.3125 
Q 48.875 64.0625 45.09375 64.984375 
Q 41.3125 65.921875 37.59375 65.921875 
Q 27.828125 65.921875 22.671875 59.328125 
Q 17.53125 52.734375 16.796875 39.40625 
Q 19.671875 43.65625 24.015625 45.921875 
Q 28.375 48.1875 33.59375 48.1875 
Q 44.578125 48.1875 50.953125 41.515625 
Q 57.328125 34.859375 57.328125 23.390625 
Q 57.328125 12.15625 50.6875 5.359375 
Q 44.046875 -1.421875 33.015625 -1.421875 
Q 20.359375 -1.421875 13.671875 8.265625 
Q 6.984375 17.96875 6.984375 36.375 
Q 6.984375 53.65625 15.1875 63.9375 
Q 23.390625 74.21875 37.203125 74.21875 
Q 40.921875 74.21875 44.703125 73.484375 
Q 48.484375 72.75 52.59375 71.296875 
z
" id="DejaVuSans-54"/>
       </defs>
       <use xlink:href="#DejaVuSans-54"/>
       <use x="63.623047" xlink:href="#DejaVuSans-48"/>
      </g>
     </g>
    </g>
    <g id="xtick_5">
     <g id="text_5">
      <!-- 80 -->
      <g transform="translate(540.364963 288.58081)scale(0.08 -0.08)">
       <defs>
        <path d="M 31.78125 34.625 
Q 24.75 34.625 20.71875 30.859375 
Q 16.703125 27.09375 16.703125 20.515625 
Q 16.703125 13.921875 20.71875 10.15625 
Q 24.75 6.390625 31.78125 6.390625 
Q 38.8125 6.390625 42.859375 10.171875 
Q 46.921875 13.96875 46.921875 20.515625 
Q 46.921875 27.09375 42.890625 30.859375 
Q 38.875 34.625 31.78125 34.625 
z
M 21.921875 38.8125 
Q 15.578125 40.375 12.03125 44.71875 
Q 8.5 49.078125 8.5 55.328125 
Q 8.5 64.0625 14.71875 69.140625 
Q 20.953125 74.21875 31.78125 74.21875 
Q 42.671875 74.21875 48.875 69.140625 
Q 55.078125 64.0625 55.078125 55.328125 
Q 55.078125 49.078125 51.53125 44.71875 
Q 48 40.375 41.703125 38.8125 
Q 48.828125 37.15625 52.796875 32.3125 
Q 56.78125 27.484375 56.78125 20.515625 
Q 56.78125 9.90625 50.3125 4.234375 
Q 43.84375 -1.421875 31.78125 -1.421875 
Q 19.734375 -1.421875 13.25 4.234375 
Q 6.78125 9.90625 6.78125 20.515625 
Q 6.78125 27.484375 10.78125 32.3125 
Q 14.796875 37.15625 21.921875 38.8125 
z
M 18.3125 54.390625 
Q 18.3125 48.734375 21.84375 45.5625 
Q 25.390625 42.390625 31.78125 42.390625 
Q 38.140625 42.390625 41.71875 45.5625 
Q 45.3125 48.734375 45.3125 54.390625 
Q 45.3125 60.0625 41.71875 63.234375 
Q 38.140625 66.40625 31.78125 66.40625 
Q 25.390625 66.40625 21.84375 63.234375 
Q 18.3125 60.0625 18.3125 54.390625 
z
" id="DejaVuSans-56"/>
       </defs>
       <use xlink:href="#DejaVuSans-56"/>
       <use x="63.623047" xlink:href="#DejaVuSans-48"/>
      </g>
     </g>
    </g>
    <g id="xtick_6">
     <g id="text_6">
      <!-- 100 -->
      <g transform="translate(653.439243 288.58081)scale(0.08 -0.08)">
       <defs>
        <path d="M 12.40625 8.296875 
L 28.515625 8.296875 
L 28.515625 63.921875 
L 10.984375 60.40625 
L 10.984375 69.390625 
L 28.421875 72.90625 
L 38.28125 72.90625 
L 38.28125 8.296875 
L 54.390625 8.296875 
L 54.390625 0 
L 12.40625 0 
z
" id="DejaVuSans-49"/>
       </defs>
       <use xlink:href="#DejaVuSans-49"/>
       <use x="63.623047" xlink:href="#DejaVuSans-48"/>
       <use x="127.246094" xlink:href="#DejaVuSans-48"/>
      </g>
     </g>
    </g>
    <g id="xtick_7">
     <g id="text_7">
      <!-- 120 -->
      <g transform="translate(769.058523 288.58081)scale(0.08 -0.08)">
       <use xlink:href="#DejaVuSans-49"/>
       <use x="63.623047" xlink:href="#DejaVuSans-50"/>
       <use x="127.246094" xlink:href="#DejaVuSans-48"/>
      </g>
     </g>
    </g>
    <g id="xtick_8">
     <g id="text_8">
      <!-- 140 -->
      <g transform="translate(884.677803 288.58081)scale(0.08 -0.08)">
       <use xlink:href="#DejaVuSans-49"/>
       <use x="63.623047" xlink:href="#DejaVuSans-52"/>
       <use x="127.246094" xlink:href="#DejaVuSans-48"/>
      </g>
     </g>
    </g>
    <g id="text_9">
     <!-- Position in read -->
     <g transform="translate(480.982813 301.842998)scale(0.1 -0.1)">
      <defs>
       <path d="M 19.671875 64.796875 
L 19.671875 37.40625 
L 32.078125 37.40625 
Q 38.96875 37.40625 42.71875 40.96875 
Q 46.484375 44.53125 46.484375 51.125 
Q 46.484375 57.671875 42.71875 61.234375 
Q 38.96875 64.796875 32.078125 64.796875 
z
M 9.8125 72.90625 
L 32.078125 72.90625 
Q 44.34375 72.90625 50.609375 67.359375 
Q 56.890625 61.8125 56.890625 51.125 
Q 56.890625 40.328125 50.609375 34.8125 
Q 44.34375 29.296875 32.078125 29.296875 
L 19.671875 29.296875 
L 19.671875 0 
L 9.8125 0 
z
" id="DejaVuSans-80"/>
       <path d="M 30.609375 48.390625 
Q 23.390625 48.390625 19.1875 42.75 
Q 14.984375 37.109375 14.984375 27.296875 
Q 14.984375 17.484375 19.15625 11.84375 
Q 23.34375 6.203125 30.609375 6.203125 
Q 37.796875 6.203125 41.984375 11.859375 
Q 46.1875 17.53125 46.1875 27.296875 
Q 46.1875 37.015625 41.984375 42.703125 
Q 37.796875 48.390625 30.609375 48.390625 
z
M 30.609375 56 
Q 42.328125 56 49.015625 48.375 
Q 55.71875 40.765625 55.71875 27.296875 
Q 55.71875 13.875 49.015625 6.21875 
Q 42.328125 -1.421875 30.609375 -1.421875 
Q 18.84375 -1.421875 12.171875 6.21875 
Q 5.515625 13.875 5.515625 27.296875 
Q 5.515625 40.765625 12.171875 48.375 
Q 18.84375 56 30.609375 56 
z
" id="DejaVuSans-111"/>
       <path d="M 44.28125 53.078125 
L 44.28125 44.578125 
Q 40.484375 46.53125 36.375 47.5 
Q 32.28125 48.484375 27.875 48.484375 
Q 21.1875 48.484375 17.84375 46.4375 
Q 14.5 44.390625 14.5 40.28125 
Q 14.5 37.15625 16.890625 35.375 
Q 19.28125 33.59375 26.515625 31.984375 
L 29.59375 31.296875 
Q 39.15625 29.25 43.1875 25.515625 
Q 47.21875 21.78125 47.21875 15.09375 
Q 47.21875 7.46875 41.1875 3.015625 
Q 35.15625 -1.421875 24.609375 -1.421875 
Q 20.21875 -1.421875 15.453125 -0.5625 
Q 10.6875 0.296875 5.421875 2 
L 5.421875 11.28125 
Q 10.40625 8.6875 15.234375 7.390625 
Q 20.0625 6.109375 24.8125 6.109375 
Q 31.15625 6.109375 34.5625 8.28125 
Q 37.984375 10.453125 37.984375 14.40625 
Q 37.984375 18.0625 35.515625 20.015625 
Q 33.0625 21.96875 24.703125 23.78125 
L 21.578125 24.515625 
Q 13.234375 26.265625 9.515625 29.90625 
Q 5.8125 33.546875 5.8125 39.890625 
Q 5.8125 47.609375 11.28125 51.796875 
Q 16.75 56 26.8125 56 
Q 31.78125 56 36.171875 55.265625 
Q 40.578125 54.546875 44.28125 53.078125 
z
" id="DejaVuSans-115"/>
       <path d="M 9.421875 54.6875 
L 18.40625 54.6875 
L 18.40625 0 
L 9.421875 0 
z
M 9.421875 75.984375 
L 18.40625 75.984375 
L 18.40625 64.59375 
L 9.421875 64.59375 
z
" id="DejaVuSans-105"/>
       <path d="M 18.3125 70.21875 
L 18.3125 54.6875 
L 36.8125 54.6875 
L 36.8125 47.703125 
L 18.3125 47.703125 
L 18.3125 18.015625 
Q 18.3125 11.328125 20.140625 9.421875 
Q 21.96875 7.515625 27.59375 7.515625 
L 36.8125 7.515625 
L 36.8125 0 
L 27.59375 0 
Q 17.1875 0 13.234375 3.875 
Q 9.28125 7.765625 9.28125 18.015625 
L 9.28125 47.703125 
L 2.6875 47.703125 
L 2.6875 54.6875 
L 9.28125 54.6875 
L 9.28125 70.21875 
z
" id="DejaVuSans-116"/>
       <path d="M 54.890625 33.015625 
L 54.890625 0 
L 45.90625 0 
L 45.90625 32.71875 
Q 45.90625 40.484375 42.875 44.328125 
Q 39.84375 48.1875 33.796875 48.1875 
Q 26.515625 48.1875 22.3125 43.546875 
Q 18.109375 38.921875 18.109375 30.90625 
L 18.109375 0 
L 9.078125 0 
L 9.078125 54.6875 
L 18.109375 54.6875 
L 18.109375 46.1875 
Q 21.34375 51.125 25.703125 53.5625 
Q 30.078125 56 35.796875 56 
Q 45.21875 56 50.046875 50.171875 
Q 54.890625 44.34375 54.890625 33.015625 
z
" id="DejaVuSans-110"/>
       <path id="DejaVuSans-32"/>
       <path d="M 41.109375 46.296875 
Q 39.59375 47.171875 37.8125 47.578125 
Q 36.03125 48 33.890625 48 
Q 26.265625 48 22.1875 43.046875 
Q 18.109375 38.09375 18.109375 28.8125 
L 18.109375 0 
L 9.078125 0 
L 9.078125 54.6875 
L 18.109375 54.6875 
L 18.109375 46.1875 
Q 20.953125 51.171875 25.484375 53.578125 
Q 30.03125 56 36.53125 56 
Q 37.453125 56 38.578125 55.875 
Q 39.703125 55.765625 41.0625 55.515625 
z
" id="DejaVuSans-114"/>
       <path d="M 56.203125 29.59375 
L 56.203125 25.203125 
L 14.890625 25.203125 
Q 15.484375 15.921875 20.484375 11.0625 
Q 25.484375 6.203125 34.421875 6.203125 
Q 39.59375 6.203125 44.453125 7.46875 
Q 49.3125 8.734375 54.109375 11.28125 
L 54.109375 2.78125 
Q 49.265625 0.734375 44.1875 -0.34375 
Q 39.109375 -1.421875 33.890625 -1.421875 
Q 20.796875 -1.421875 13.15625 6.1875 
Q 5.515625 13.8125 5.515625 26.8125 
Q 5.515625 40.234375 12.765625 48.109375 
Q 20.015625 56 32.328125 56 
Q 43.359375 56 49.78125 48.890625 
Q 56.203125 41.796875 56.203125 29.59375 
z
M 47.21875 32.234375 
Q 47.125 39.59375 43.09375 43.984375 
Q 39.0625 48.390625 32.421875 48.390625 
Q 24.90625 48.390625 20.390625 44.140625 
Q 15.875 39.890625 15.1875 32.171875 
z
" id="DejaVuSans-101"/>
       <path d="M 34.28125 27.484375 
Q 23.390625 27.484375 19.1875 25 
Q 14.984375 22.515625 14.984375 16.5 
Q 14.984375 11.71875 18.140625 8.90625 
Q 21.296875 6.109375 26.703125 6.109375 
Q 34.1875 6.109375 38.703125 11.40625 
Q 43.21875 16.703125 43.21875 25.484375 
L 43.21875 27.484375 
z
M 52.203125 31.203125 
L 52.203125 0 
L 43.21875 0 
L 43.21875 8.296875 
Q 40.140625 3.328125 35.546875 0.953125 
Q 30.953125 -1.421875 24.3125 -1.421875 
Q 15.921875 -1.421875 10.953125 3.296875 
Q 6 8.015625 6 15.921875 
Q 6 25.140625 12.171875 29.828125 
Q 18.359375 34.515625 30.609375 34.515625 
L 43.21875 34.515625 
L 43.21875 35.40625 
Q 43.21875 41.609375 39.140625 45 
Q 35.0625 48.390625 27.6875 48.390625 
Q 23 48.390625 18.546875 47.265625 
Q 14.109375 46.140625 10.015625 43.890625 
L 10.015625 52.203125 
Q 14.9375 54.109375 19.578125 55.046875 
Q 24.21875 56 28.609375 56 
Q 40.484375 56 46.34375 49.84375 
Q 52.203125 43.703125 52.203125 31.203125 
z
" id="DejaVuSans-97"/>
       <path d="M 45.40625 46.390625 
L 45.40625 75.984375 
L 54.390625 75.984375 
L 54.390625 0 
L 45.40625 0 
L 45.40625 8.203125 
Q 42.578125 3.328125 38.25 0.953125 
Q 33.9375 -1.421875 27.875 -1.421875 
Q 17.96875 -1.421875 11.734375 6.484375 
Q 5.515625 14.40625 5.515625 27.296875 
Q 5.515625 40.1875 11.734375 48.09375 
Q 17.96875 56 27.875 56 
Q 33.9375 56 38.25 53.625 
Q 42.578125 51.265625 45.40625 46.390625 
z
M 14.796875 27.296875 
Q 14.796875 17.390625 18.875 11.75 
Q 22.953125 6.109375 30.078125 6.109375 
Q 37.203125 6.109375 41.296875 11.75 
Q 45.40625 17.390625 45.40625 27.296875 
Q 45.40625 37.203125 41.296875 42.84375 
Q 37.203125 48.484375 30.078125 48.484375 
Q 22.953125 48.484375 18.875 42.84375 
Q 14.796875 37.203125 14.796875 27.296875 
z
" id="DejaVuSans-100"/>
      </defs>
      <use xlink:href="#DejaVuSans-80"/>
      <use x="56.677734" xlink:href="#DejaVuSans-111"/>
      <use x="117.859375" xlink:href="#DejaVuSans-115"/>
      <use x="169.958984" xlink:href="#DejaVuSans-105"/>
      <use x="197.742188" xlink:href="#DejaVuSans-116"/>
      <use x="236.951172" xlink:href="#DejaVuSans-105"/>
      <use x="264.734375" xlink:href="#DejaVuSans-111"/>
      <use x="325.916016" xlink:href="#DejaVuSans-110"/>
      <use x="389.294922" xlink:href="#DejaVuSans-32"/>
      <use x="421.082031" xlink:href="#DejaVuSans-105"/>
      <use x="448.865234" xlink:href="#DejaVuSans-110"/>
      <use x="512.244141" xlink:href="#DejaVuSans-32"/>
      <use x="544.03125" xlink:href="#DejaVuSans-114"/>
      <use x="582.894531" xlink:href="#DejaVuSans-101"/>
      <use x="644.417969" xlink:href="#DejaVuSans-97"/>
      <use x="705.697266" xlink:href="#DejaVuSans-100"/>
     </g>
    </g>
   </g>
   <g id="matplotlib.axis_2">
    <g id="ytick_1">
     <g id="line2d_1">
      <path clip-path="url(#pde265d71a9)" d="M 45.690625 275.50206 
L 993.190625 275.50206 
" style="fill:none;stroke:#dedede;stroke-linecap:square;"/>
     </g>
     <g id="text_10">
      <!-- 0.00 -->
      <g transform="translate(20.878125 278.541435)scale(0.08 -0.08)">
       <defs>
        <path d="M 10.6875 12.40625 
L 21 12.40625 
L 21 0 
L 10.6875 0 
z
" id="DejaVuSans-46"/>
       </defs>
       <use xlink:href="#DejaVuSans-48"/>
       <use x="63.623047" xlink:href="#DejaVuSans-46"/>
       <use x="95.410156" xlink:href="#DejaVuSans-48"/>
       <use x="159.033203" xlink:href="#DejaVuSans-48"/>
      </g>
     </g>
    </g>
    <g id="ytick_2">
     <g id="line2d_2">
      <path clip-path="url(#pde265d71a9)" d="M 45.690625 230.475423 
L 993.190625 230.475423 
" style="fill:none;stroke:#dedede;stroke-linecap:square;"/>
     </g>
     <g id="text_11">
      <!-- 0.05 -->
      <g transform="translate(20.878125 233.514798)scale(0.08 -0.08)">
       <defs>
        <path d="M 10.796875 72.90625 
L 49.515625 72.90625 
L 49.515625 64.59375 
L 19.828125 64.59375 
L 19.828125 46.734375 
Q 21.96875 47.46875 24.109375 47.828125 
Q 26.265625 48.1875 28.421875 48.1875 
Q 40.625 48.1875 47.75 41.5 
Q 54.890625 34.8125 54.890625 23.390625 
Q 54.890625 11.625 47.5625 5.09375 
Q 40.234375 -1.421875 26.90625 -1.421875 
Q 22.3125 -1.421875 17.546875 -0.640625 
Q 12.796875 0.140625 7.71875 1.703125 
L 7.71875 11.625 
Q 12.109375 9.234375 16.796875 8.0625 
Q 21.484375 6.890625 26.703125 6.890625 
Q 35.15625 6.890625 40.078125 11.328125 
Q 45.015625 15.765625 45.015625 23.390625 
Q 45.015625 31 40.078125 35.4375 
Q 35.15625 39.890625 26.703125 39.890625 
Q 22.75 39.890625 18.8125 39.015625 
Q 14.890625 38.140625 10.796875 36.28125 
z
" id="DejaVuSans-53"/>
       </defs>
       <use xlink:href="#DejaVuSans-48"/>
       <use x="63.623047" xlink:href="#DejaVuSans-46"/>
       <use x="95.410156" xlink:href="#DejaVuSans-48"/>
       <use x="159.033203" xlink:href="#DejaVuSans-53"/>
      </g>
     </g>
    </g>
    <g id="ytick_3">
     <g id="line2d_3">
      <path clip-path="url(#pde265d71a9)" d="M 45.690625 185.448785 
L 993.190625 185.448785 
" style="fill:none;stroke:#dedede;stroke-linecap:square;"/>
     </g>
     <g id="text_12">
      <!-- 0.10 -->
      <g transform="translate(20.878125 188.48816)scale(0.08 -0.08)">
       <use xlink:href="#DejaVuSans-48"/>
       <use x="63.623047" xlink:href="#DejaVuSans-46"/>
       <use x="95.410156" xlink:href="#DejaVuSans-49"/>
       <use x="159.033203" xlink:href="#DejaVuSans-48"/>
      </g>
     </g>
    </g>
    <g id="ytick_4">
     <g id="line2d_4">
      <path clip-path="url(#pde265d71a9)" d="M 45.690625 140.422148 
L 993.190625 140.422148 
" style="fill:none;stroke:#dedede;stroke-linecap:square;"/>
     </g>
     <g id="text_13">
      <!-- 0.15 -->
      <g transform="translate(20.878125 143.461523)scale(0.08 -0.08)">
       <use xlink:href="#DejaVuSans-48"/>
       <use x="63.623047" xlink:href="#DejaVuSans-46"/>
       <use x="95.410156" xlink:href="#DejaVuSans-49"/>
       <use x="159.033203" xlink:href="#DejaVuSans-53"/>
      </g>
     </g>
    </g>
    <g id="ytick_5">
     <g id="line2d_5">
      <path clip-path="url(#pde265d71a9)" d="M 45.690625 95.395511 
L 993.190625 95.395511 
" style="fill:none;stroke:#dedede;stroke-linecap:square;"/>
     </g>
     <g id="text_14">
      <!-- 0.20 -->
      <g transform="translate(20.878125 98.434886)scale(0.08 -0.08)">
       <use xlink:href="#DejaVuSans-48"/>
       <use x="63.623047" xlink:href="#DejaVuSans-46"/>
       <use x="95.410156" xlink:href="#DejaVuSans-50"/>
       <use x="159.033203" xlink:href="#DejaVuSans-48"/>
      </g>
     </g>
    </g>
    <g id="ytick_6">
     <g id="line2d_6">
      <path clip-path="url(#pde265d71a9)" d="M 45.690625 50.368874 
L 993.190625 50.368874 
" style="fill:none;stroke:#dedede;stroke-linecap:square;"/>
     </g>
     <g id="text_15">
      <!-- 0.25 -->
      <g transform="translate(20.878125 53.408249)scale(0.08 -0.08)">
       <use xlink:href="#DejaVuSans-48"/>
       <use x="63.623047" xlink:href="#DejaVuSans-46"/>
       <use x="95.410156" xlink:href="#DejaVuSans-50"/>
       <use x="159.033203" xlink:href="#DejaVuSans-53"/>
      </g>
     </g>
    </g>
    <g id="text_16">
     <!-- Percent converted % -->
     <g transform="translate(14.798438 205.544866)rotate(-90)scale(0.1 -0.1)">
      <defs>
       <path d="M 48.78125 52.59375 
L 48.78125 44.1875 
Q 44.96875 46.296875 41.140625 47.34375 
Q 37.3125 48.390625 33.40625 48.390625 
Q 24.65625 48.390625 19.8125 42.84375 
Q 14.984375 37.3125 14.984375 27.296875 
Q 14.984375 17.28125 19.8125 11.734375 
Q 24.65625 6.203125 33.40625 6.203125 
Q 37.3125 6.203125 41.140625 7.25 
Q 44.96875 8.296875 48.78125 10.40625 
L 48.78125 2.09375 
Q 45.015625 0.34375 40.984375 -0.53125 
Q 36.96875 -1.421875 32.421875 -1.421875 
Q 20.0625 -1.421875 12.78125 6.34375 
Q 5.515625 14.109375 5.515625 27.296875 
Q 5.515625 40.671875 12.859375 48.328125 
Q 20.21875 56 33.015625 56 
Q 37.15625 56 41.109375 55.140625 
Q 45.0625 54.296875 48.78125 52.59375 
z
" id="DejaVuSans-99"/>
       <path d="M 2.984375 54.6875 
L 12.5 54.6875 
L 29.59375 8.796875 
L 46.6875 54.6875 
L 56.203125 54.6875 
L 35.6875 0 
L 23.484375 0 
z
" id="DejaVuSans-118"/>
       <path d="M 72.703125 32.078125 
Q 68.453125 32.078125 66.03125 28.46875 
Q 63.625 24.859375 63.625 18.40625 
Q 63.625 12.0625 66.03125 8.421875 
Q 68.453125 4.78125 72.703125 4.78125 
Q 76.859375 4.78125 79.265625 8.421875 
Q 81.6875 12.0625 81.6875 18.40625 
Q 81.6875 24.8125 79.265625 28.4375 
Q 76.859375 32.078125 72.703125 32.078125 
z
M 72.703125 38.28125 
Q 80.421875 38.28125 84.953125 32.90625 
Q 89.5 27.546875 89.5 18.40625 
Q 89.5 9.28125 84.9375 3.921875 
Q 80.375 -1.421875 72.703125 -1.421875 
Q 64.890625 -1.421875 60.34375 3.921875 
Q 55.8125 9.28125 55.8125 18.40625 
Q 55.8125 27.59375 60.375 32.9375 
Q 64.9375 38.28125 72.703125 38.28125 
z
M 22.3125 68.015625 
Q 18.109375 68.015625 15.6875 64.375 
Q 13.28125 60.75 13.28125 54.390625 
Q 13.28125 47.953125 15.671875 44.328125 
Q 18.0625 40.71875 22.3125 40.71875 
Q 26.5625 40.71875 28.96875 44.328125 
Q 31.390625 47.953125 31.390625 54.390625 
Q 31.390625 60.6875 28.953125 64.34375 
Q 26.515625 68.015625 22.3125 68.015625 
z
M 66.40625 74.21875 
L 74.21875 74.21875 
L 28.609375 -1.421875 
L 20.796875 -1.421875 
z
M 22.3125 74.21875 
Q 30.03125 74.21875 34.609375 68.875 
Q 39.203125 63.53125 39.203125 54.390625 
Q 39.203125 45.171875 34.640625 39.84375 
Q 30.078125 34.515625 22.3125 34.515625 
Q 14.546875 34.515625 10.03125 39.859375 
Q 5.515625 45.21875 5.515625 54.390625 
Q 5.515625 63.484375 10.046875 68.84375 
Q 14.59375 74.21875 22.3125 74.21875 
z
" id="DejaVuSans-37"/>
      </defs>
      <use xlink:href="#DejaVuSans-80"/>
      <use x="56.677734" xlink:href="#DejaVuSans-101"/>
      <use x="118.201172" xlink:href="#DejaVuSans-114"/>
      <use x="157.064453" xlink:href="#DejaVuSans-99"/>
      <use x="212.044922" xlink:href="#DejaVuSans-101"/>
      <use x="273.568359" xlink:href="#DejaVuSans-110"/>
      <use x="336.947266" xlink:href="#DejaVuSans-116"/>
      <use x="376.15625" xlink:href="#DejaVuSans-32"/>
      <use x="407.943359" xlink:href="#DejaVuSans-99"/>
      <use x="462.923828" xlink:href="#DejaVuSans-111"/>
      <use x="524.105469" xlink:href="#DejaVuSans-110"/>
      <use x="587.484375" xlink:href="#DejaVuSans-118"/>
      <use x="646.664062" xlink:href="#DejaVuSans-101"/>
      <use x="708.1875" xlink:href="#DejaVuSans-114"/>
      <use x="749.300781" xlink:href="#DejaVuSans-116"/>
      <use x="788.509766" xlink:href="#DejaVuSans-101"/>
      <use x="850.033203" xlink:href="#DejaVuSans-100"/>
      <use x="913.509766" xlink:href="#DejaVuSans-32"/>
      <use x="945.296875" xlink:href="#DejaVuSans-37"/>
     </g>
    </g>
   </g>
   <g id="line2d_7">
    <path clip-path="url(#pde265d71a9)" d="M 88.758807 275.50206 
L 94.539771 181.893194 
L 100.320735 191.165224 
L 106.101699 178.454816 
L 111.882663 175.209606 
L 117.663627 192.517395 
L 123.444591 184.481636 
L 129.225555 161.069761 
L 135.006519 178.60935 
L 140.787483 195.183103 
L 146.568447 197.462477 
L 152.349411 176.059542 
L 158.130375 182.318162 
L 163.911339 182.973899 
L 169.692303 177.870665 
L 175.473267 193.553291 
L 181.254231 165.300388 
L 187.035195 176.029371 
L 192.816159 185.826813 
L 198.597123 150.231903 
L 204.378087 190.263323 
L 210.159051 184.241568 
L 215.940015 187.782045 
L 221.720979 178.651905 
L 227.501943 168.035937 
L 233.282907 189.632741 
L 239.063871 171.751229 
L 244.844835 178.603545 
L 250.625799 186.564704 
L 256.406763 163.483679 
L 262.187727 179.133172 
L 267.968691 184.233947 
L 279.530619 192.677807 
L 285.311583 176.263294 
L 291.092547 182.920233 
L 296.873511 185.484131 
L 302.654475 192.977162 
L 308.435439 168.42119 
L 314.216403 160.628203 
L 319.997367 151.777918 
L 325.778331 168.273159 
L 331.559295 174.234205 
L 337.340259 168.186227 
L 343.121223 174.016067 
L 348.902187 171.843568 
L 354.683151 174.150693 
L 360.464115 185.475689 
L 366.245079 178.328303 
L 372.026043 155.403066 
L 377.807007 169.510252 
L 383.587971 181.097339 
L 389.368935 156.376778 
L 395.149899 172.602207 
L 400.930863 159.668267 
L 406.711827 153.813138 
L 412.492791 162.652883 
L 418.273755 141.7973 
L 424.054719 156.655393 
L 429.835683 136.998387 
L 435.616647 132.424825 
L 441.397611 97.169473 
L 447.178575 110.252974 
L 452.959539 91.501818 
L 458.740503 118.735236 
L 464.521467 81.919001 
L 470.302431 99.237664 
L 476.083395 122.098217 
L 481.864359 75.326356 
L 487.645323 128.541154 
L 493.426287 131.926698 
L 499.207251 88.96283 
L 504.988215 125.311359 
L 510.769179 118.025307 
L 516.550143 151.293971 
L 522.331107 156.556265 
L 528.112071 175.014567 
L 533.893035 135.851151 
L 539.673999 152.091933 
L 545.454963 139.692088 
L 551.235927 136.16246 
L 557.016891 127.642806 
L 562.797855 156.931684 
L 568.578819 152.959517 
L 574.359783 153.26817 
L 580.140747 178.882537 
L 585.921711 154.681723 
L 591.702675 168.77682 
L 597.483639 144.180566 
L 603.264603 142.908415 
L 609.045567 170.741752 
L 614.826531 192.802702 
L 620.607495 181.453014 
L 626.388459 137.841546 
L 632.169423 153.579532 
L 637.950387 156.386016 
L 643.731351 179.621337 
L 649.512315 180.253254 
L 655.293279 174.054455 
L 661.074243 169.43461 
L 666.855207 180.321365 
L 672.636171 184.074603 
L 678.417135 195.438754 
L 684.198099 177.872279 
L 689.979063 201.954245 
L 695.760027 199.209388 
L 701.540991 197.534255 
L 707.321955 207.353045 
L 713.102919 206.126466 
L 718.883883 209.988547 
L 724.664847 220.313381 
L 730.445811 200.651791 
L 736.226775 200.290361 
L 742.007739 168.901105 
L 747.788703 188.151253 
L 753.569667 206.535833 
L 759.350631 189.652996 
L 765.131595 198.407266 
L 770.912559 206.806712 
L 776.693523 193.193136 
L 782.474487 205.120628 
L 788.255451 211.425879 
L 794.036415 221.635006 
L 799.817379 249.867539 
L 805.598343 275.50206 
L 950.122443 275.50206 
L 950.122443 275.50206 
" style="fill:none;stroke:#7cb5ec;stroke-linecap:square;"/>
   </g>
   <g id="line2d_8">
    <path clip-path="url(#pde265d71a9)" d="M 88.758807 275.50206 
L 94.539771 155.51152 
L 100.320735 158.86663 
L 106.101699 160.725543 
L 111.882663 148.189218 
L 117.663627 159.433372 
L 123.444591 165.440833 
L 129.225555 163.853957 
L 135.006519 145.038134 
L 140.787483 162.765813 
L 146.568447 147.237092 
L 152.349411 149.481389 
L 158.130375 155.352832 
L 163.911339 153.311147 
L 169.692303 150.631883 
L 175.473267 163.209256 
L 181.254231 157.077439 
L 187.035195 164.906269 
L 192.816159 158.008684 
L 198.597123 150.100465 
L 204.378087 150.597384 
L 210.159051 151.483051 
L 215.940015 143.425392 
L 221.720979 150.585222 
L 227.501943 165.091664 
L 233.282907 140.883059 
L 239.063871 154.363126 
L 244.844835 165.299996 
L 250.625799 160.639034 
L 256.406763 166.556052 
L 262.187727 142.913036 
L 267.968691 161.39429 
L 273.749655 168.559375 
L 279.530619 145.067183 
L 285.311583 144.776302 
L 296.873511 154.399778 
L 302.654475 140.233133 
L 308.435439 141.112837 
L 314.216403 148.509446 
L 319.997367 123.019822 
L 325.778331 113.593192 
L 331.559295 123.852803 
L 337.340259 144.513931 
L 343.121223 147.082397 
L 348.902187 150.089163 
L 354.683151 169.317047 
L 360.464115 151.074913 
L 366.245079 149.377622 
L 372.026043 157.161257 
L 377.807007 134.915954 
L 383.587971 125.248145 
L 389.368935 145.259874 
L 395.149899 127.395594 
L 400.930863 145.511273 
L 406.711827 135.418335 
L 412.492791 122.895796 
L 418.273755 130.940049 
L 424.054719 82.449677 
L 429.835683 120.793941 
L 435.616647 43.171393 
L 441.397611 92.922996 
L 447.178575 69.141179 
L 452.959539 84.754325 
L 458.740503 100.801653 
L 464.521467 92.454519 
L 470.302431 78.265367 
L 476.083395 85.777649 
L 481.864359 77.987078 
L 487.645323 97.553043 
L 493.426287 72.602924 
L 499.207251 85.877526 
L 504.988215 90.412158 
L 510.769179 89.834282 
L 516.550143 134.7533 
L 522.331107 132.769145 
L 528.112071 134.335261 
L 533.893035 140.863955 
L 539.673999 131.068168 
L 545.454963 132.085457 
L 551.235927 131.959911 
L 557.016891 148.976642 
L 562.797855 142.191614 
L 568.578819 142.382141 
L 574.359783 119.592451 
L 580.140747 137.534348 
L 585.921711 145.815567 
L 591.702675 138.664023 
L 597.483639 127.252982 
L 603.264603 125.543096 
L 609.045567 158.850393 
L 614.826531 152.96172 
L 620.607495 146.74676 
L 626.388459 141.381023 
L 632.169423 139.855087 
L 637.950387 143.862626 
L 643.731351 158.215102 
L 649.512315 172.011736 
L 655.293279 165.62775 
L 661.074243 175.007728 
L 666.855207 183.656791 
L 672.636171 184.82787 
L 678.417135 193.400872 
L 684.198099 180.780904 
L 689.979063 191.981047 
L 695.760027 165.097914 
L 701.540991 190.146209 
L 707.321955 199.434074 
L 713.102919 194.999379 
L 718.883883 205.66164 
L 724.664847 188.60317 
L 730.445811 201.161483 
L 736.226775 193.245321 
L 742.007739 183.177536 
L 747.788703 191.491064 
L 753.569667 178.09622 
L 759.350631 191.166553 
L 765.131595 193.780474 
L 770.912559 198.540701 
L 776.693523 193.004919 
L 782.474487 188.001042 
L 788.255451 202.326314 
L 794.036415 204.210404 
L 799.817379 241.954712 
L 805.598343 275.50206 
L 950.122443 275.50206 
L 950.122443 275.50206 
" style="fill:none;stroke:#434348;stroke-linecap:square;"/>
   </g>
   <g id="line2d_9">
    <path clip-path="url(#pde265d71a9)" d="M 88.758807 275.50206 
L 94.539771 187.653631 
L 100.320735 197.623406 
L 106.101699 187.490192 
L 111.882663 184.929649 
L 117.663627 193.346754 
L 123.444591 189.560419 
L 129.225555 193.482953 
L 135.006519 184.847929 
L 140.787483 184.466572 
L 146.568447 196.097976 
L 152.349411 189.587659 
L 158.130375 169.947746 
L 163.911339 185.582045 
L 169.692303 191.407919 
L 175.473267 194.453217 
L 181.254231 194.06166 
L 187.035195 192.465498 
L 192.816159 177.798877 
L 198.597123 179.149283 
L 204.378087 190.092096 
L 210.159051 172.503569 
L 215.940015 187.988963 
L 221.720979 183.44597 
L 227.501943 173.2183 
L 233.282907 169.863442 
L 239.063871 180.120366 
L 244.844835 191.768346 
L 250.625799 188.392947 
L 256.406763 184.261529 
L 262.187727 163.18946 
L 267.968691 173.567028 
L 273.749655 192.50036 
L 279.530619 181.51057 
L 285.311583 170.792696 
L 291.092547 178.98313 
L 296.873511 170.69687 
L 302.654475 180.49908 
L 308.435439 182.041228 
L 314.216403 160.929679 
L 319.997367 182.72295 
L 325.778331 172.981798 
L 331.559295 183.431207 
L 337.340259 174.836561 
L 343.121223 178.363081 
L 348.902187 190.507094 
L 354.683151 178.083443 
L 360.464115 175.067036 
L 366.245079 187.071922 
L 372.026043 168.11257 
L 377.807007 187.242956 
L 383.587971 164.995147 
L 389.368935 171.420993 
L 395.149899 173.530452 
L 400.930863 173.587999 
L 406.711827 143.48455 
L 412.492791 162.529091 
L 418.273755 152.494149 
L 424.054719 134.481683 
L 429.835683 140.319487 
L 435.616647 98.234221 
L 441.397611 123.191819 
L 447.178575 124.768878 
L 452.959539 91.513678 
L 458.740503 104.681838 
L 464.521467 127.407902 
L 470.302431 83.500114 
L 476.083395 95.016494 
L 481.864359 94.124262 
L 487.645323 121.009182 
L 493.426287 123.467551 
L 499.207251 80.673231 
L 504.988215 136.236855 
L 510.769179 126.295422 
L 522.331107 156.841824 
L 528.112071 138.02242 
L 533.893035 145.242321 
L 539.673999 141.143526 
L 545.454963 148.075402 
L 551.235927 129.251774 
L 557.016891 143.977429 
L 562.797855 163.412586 
L 568.578819 135.84564 
L 574.359783 174.789966 
L 580.140747 182.272948 
L 585.921711 154.529549 
L 591.702675 173.433296 
L 597.483639 136.972608 
L 603.264603 162.34713 
L 609.045567 161.1143 
L 614.826531 160.93245 
L 620.607495 146.240906 
L 626.388459 164.3013 
L 632.169423 164.884725 
L 637.950387 144.680529 
L 643.731351 161.278513 
L 649.512315 195.560925 
L 655.293279 169.705377 
L 661.074243 183.848826 
L 666.855207 200.250208 
L 672.636171 190.97422 
L 678.417135 202.040843 
L 684.198099 198.873194 
L 689.979063 198.562198 
L 695.760027 220.925724 
L 701.540991 208.985247 
L 707.321955 227.907914 
L 713.102919 216.310149 
L 718.883883 208.139693 
L 724.664847 213.812859 
L 730.445811 215.436478 
L 736.226775 219.22841 
L 742.007739 183.024999 
L 747.788703 211.270224 
L 753.569667 200.645879 
L 759.350631 203.702377 
L 765.131595 211.886604 
L 770.912559 213.235354 
L 776.693523 208.659102 
L 782.474487 182.347543 
L 788.255451 211.037164 
L 794.036415 222.163784 
L 799.817379 242.167293 
L 805.598343 275.50206 
L 950.122443 275.50206 
L 950.122443 275.50206 
" style="fill:none;stroke:#90ed7d;stroke-linecap:square;"/>
   </g>
   <g id="line2d_10">
    <path clip-path="url(#pde265d71a9)" d="M 88.758807 275.50206 
L 94.539771 178.532879 
L 100.320735 190.304024 
L 106.101699 182.106591 
L 111.882663 192.86457 
L 117.663627 182.603963 
L 123.444591 169.709125 
L 129.225555 176.009175 
L 135.006519 189.438227 
L 140.787483 163.924869 
L 146.568447 181.553955 
L 152.349411 176.930234 
L 158.130375 182.769754 
L 163.911339 187.060771 
L 169.692303 188.495543 
L 175.473267 193.023207 
L 181.254231 187.118746 
L 187.035195 165.819203 
L 192.816159 189.747746 
L 198.597123 179.515782 
L 204.378087 171.806116 
L 210.159051 179.306886 
L 215.940015 179.806952 
L 221.720979 178.037661 
L 227.501943 167.854769 
L 233.282907 167.095106 
L 239.063871 167.980846 
L 244.844835 179.727554 
L 250.625799 183.856507 
L 256.406763 165.861919 
L 262.187727 184.465803 
L 267.968691 188.566734 
L 273.749655 174.40589 
L 279.530619 176.909538 
L 285.311583 190.949663 
L 291.092547 180.759676 
L 296.873511 186.686928 
L 302.654475 179.774165 
L 308.435439 190.689226 
L 314.216403 178.467294 
L 319.997367 180.213724 
L 325.778331 174.492685 
L 331.559295 180.35226 
L 337.340259 191.07438 
L 343.121223 175.16727 
L 348.902187 171.769701 
L 354.683151 184.017675 
L 360.464115 175.099889 
L 366.245079 177.809476 
L 372.026043 183.812188 
L 377.807007 179.08347 
L 383.587971 173.69079 
L 389.368935 169.565702 
L 395.149899 169.475345 
L 400.930863 169.254557 
L 406.711827 154.252675 
L 412.492791 174.898827 
L 418.273755 151.149253 
L 424.054719 149.342659 
L 429.835683 154.907976 
L 435.616647 129.045671 
L 441.397611 100.514822 
L 447.178575 107.259593 
L 452.959539 112.512765 
L 458.740503 130.293894 
L 464.521467 133.832344 
L 470.302431 121.383465 
L 476.083395 131.5175 
L 481.864359 114.706628 
L 487.645323 130.485433 
L 493.426287 128.301017 
L 499.207251 118.468297 
L 504.988215 141.775998 
L 510.769179 102.632402 
L 516.550143 152.022905 
L 522.331107 152.074008 
L 528.112071 143.991115 
L 533.893035 139.798944 
L 539.673999 146.190733 
L 545.454963 160.173006 
L 551.235927 168.953498 
L 557.016891 150.872351 
L 562.797855 156.979369 
L 568.578819 159.622893 
L 574.359783 159.50309 
L 580.140747 175.678557 
L 585.921711 162.669391 
L 591.702675 173.763711 
L 597.483639 146.251522 
L 603.264603 169.615419 
L 609.045567 186.133688 
L 614.826531 179.929781 
L 620.607495 196.234863 
L 626.388459 188.338823 
L 632.169423 183.447613 
L 637.950387 192.336096 
L 643.731351 189.462609 
L 649.512315 204.801205 
L 655.293279 188.458029 
L 661.074243 205.039864 
L 666.855207 217.950405 
L 672.636171 211.672976 
L 678.417135 191.568423 
L 684.198099 210.934213 
L 689.979063 207.286471 
L 695.760027 207.285457 
L 701.540991 203.170113 
L 707.321955 212.421818 
L 713.102919 209.859897 
L 718.883883 213.600246 
L 724.664847 221.31586 
L 730.445811 212.475468 
L 736.226775 210.448617 
L 742.007739 206.368807 
L 747.788703 211.230023 
L 753.569667 206.06321 
L 759.350631 199.344757 
L 765.131595 203.847122 
L 770.912559 204.045254 
L 776.693523 210.038964 
L 782.474487 214.43262 
L 788.255451 218.258111 
L 794.036415 230.345203 
L 799.817379 250.642419 
L 805.598343 275.50206 
L 950.122443 275.50206 
L 950.122443 275.50206 
" style="fill:none;stroke:#f7a35c;stroke-linecap:square;"/>
   </g>
   <g id="line2d_11">
    <path clip-path="url(#pde265d71a9)" d="M 88.758807 275.50206 
L 94.539771 198.930621 
L 100.320735 209.78025 
L 106.101699 192.137192 
L 111.882663 205.766596 
L 117.663627 199.455374 
L 123.444591 190.874948 
L 129.225555 201.185642 
L 135.006519 194.136928 
L 140.787483 198.958986 
L 146.568447 202.901727 
L 152.349411 200.660888 
L 158.130375 193.569627 
L 163.911339 197.582373 
L 169.692303 204.628367 
L 175.473267 200.24214 
L 181.254231 191.58126 
L 187.035195 193.695899 
L 192.816159 204.544847 
L 198.597123 189.984536 
L 204.378087 172.115499 
L 210.159051 192.912712 
L 215.940015 193.061591 
L 221.720979 202.964131 
L 227.501943 194.67636 
L 233.282907 197.597909 
L 239.063871 181.789275 
L 244.844835 190.506008 
L 250.625799 199.002485 
L 256.406763 193.462565 
L 262.187727 194.650275 
L 267.968691 199.337595 
L 273.749655 201.265394 
L 279.530619 191.442742 
L 285.311583 194.457157 
L 291.092547 191.388969 
L 296.873511 196.672533 
L 302.654475 190.995468 
L 308.435439 194.369168 
L 314.216403 190.809231 
L 319.997367 193.360677 
L 325.778331 191.021432 
L 331.559295 195.325511 
L 337.340259 191.246501 
L 343.121223 175.139571 
L 348.902187 196.436567 
L 354.683151 189.370834 
L 360.464115 192.633208 
L 366.245079 181.655546 
L 372.026043 188.201482 
L 377.807007 177.737157 
L 383.587971 194.003593 
L 389.368935 182.127162 
L 395.149899 184.202552 
L 400.930863 183.697985 
L 406.711827 162.01716 
L 412.492791 187.705843 
L 418.273755 172.031626 
L 424.054719 160.384228 
L 429.835683 169.938875 
L 435.616647 140.627299 
L 441.397611 121.193973 
L 447.178575 129.067352 
L 452.959539 130.044358 
L 458.740503 132.317995 
L 464.521467 125.199296 
L 470.302431 114.948678 
L 476.083395 135.06753 
L 481.864359 101.835841 
L 487.645323 126.90822 
L 493.426287 132.306032 
L 499.207251 112.752478 
L 504.988215 149.367962 
L 510.769179 122.825596 
L 516.550143 147.941751 
L 522.331107 158.499422 
L 528.112071 155.915969 
L 533.893035 144.098293 
L 539.673999 153.311386 
L 545.454963 145.516352 
L 551.235927 166.636289 
L 557.016891 177.781603 
L 562.797855 165.216033 
L 568.578819 168.20326 
L 574.359783 181.417325 
L 580.140747 180.703681 
L 585.921711 171.605785 
L 591.702675 170.114963 
L 597.483639 156.121117 
L 603.264603 166.637231 
L 609.045567 175.19508 
L 614.826531 189.11718 
L 620.607495 188.962535 
L 632.169423 159.345296 
L 637.950387 163.742431 
L 643.731351 175.070583 
L 649.512315 177.745503 
L 655.293279 195.79384 
L 661.074243 189.317419 
L 666.855207 209.626121 
L 672.636171 207.271654 
L 678.417135 202.656056 
L 684.198099 212.524209 
L 689.979063 201.391927 
L 695.760027 198.941164 
L 701.540991 221.345619 
L 707.321955 222.57158 
L 713.102919 216.48928 
L 718.883883 222.207079 
L 724.664847 226.591855 
L 730.445811 229.084534 
L 736.226775 220.187292 
L 742.007739 190.935682 
L 747.788703 203.972894 
L 753.569667 218.255571 
L 759.350631 221.941653 
L 765.131595 218.453951 
L 770.912559 215.353836 
L 776.693523 218.142878 
L 782.474487 220.227413 
L 788.255451 220.010132 
L 794.036415 226.29398 
L 799.817379 249.030319 
L 805.598343 275.50206 
L 950.122443 275.50206 
L 950.122443 275.50206 
" style="fill:none;stroke:#8085e9;stroke-linecap:square;"/>
   </g>
   <g id="line2d_12">
    <path clip-path="url(#pde265d71a9)" d="M 88.758807 275.50206 
L 94.539771 239.14902 
L 100.320735 236.940658 
L 106.101699 249.298993 
L 111.882663 249.723678 
L 117.663627 239.870985 
L 123.444591 249.256524 
L 129.225555 241.14504 
L 135.006519 246.793351 
L 140.787483 240.040859 
L 146.568447 249.468867 
L 152.349411 244.584989 
L 158.130375 253.333501 
L 163.911339 254.692228 
L 169.692303 246.155313 
L 175.473267 249.212332 
L 181.254231 242.924385 
L 187.035195 245.171867 
L 192.816159 246.865567 
L 198.597123 245.540513 
L 204.378087 227.536354 
L 210.159051 249.502478 
L 215.940015 237.007455 
L 221.720979 255.389631 
L 227.501943 240.026259 
L 233.282907 251.397293 
L 239.063871 243.914455 
L 244.844835 244.961336 
L 250.625799 247.670669 
L 256.406763 250.172015 
L 262.187727 249.976585 
L 267.968691 236.744833 
L 273.749655 246.864815 
L 279.530619 232.730045 
L 285.311583 246.53574 
L 291.092547 249.465995 
L 296.873511 247.182823 
L 302.654475 245.586384 
L 308.435439 244.933299 
L 314.216403 225.591326 
L 319.997367 245.14878 
L 325.778331 244.403267 
L 331.559295 241.545649 
L 337.340259 240.699039 
L 343.121223 241.280856 
L 348.902187 237.368251 
L 354.683151 238.294252 
L 360.464115 237.498759 
L 366.245079 247.277621 
L 372.026043 234.254346 
L 377.807007 214.482515 
L 383.587971 220.436761 
L 389.368935 234.268815 
L 395.149899 237.576607 
L 400.930863 240.266293 
L 406.711827 227.776153 
L 412.492791 225.999976 
L 418.273755 222.462617 
L 424.054719 215.126962 
L 429.835683 232.069061 
L 435.616647 205.942379 
L 441.397611 201.523091 
L 447.178575 169.806535 
L 452.959539 203.397676 
L 458.740503 211.964173 
L 464.521467 196.072205 
L 470.302431 206.747368 
L 476.083395 196.096676 
L 481.864359 202.340492 
L 487.645323 186.787455 
L 493.426287 185.380291 
L 499.207251 209.148908 
L 504.988215 202.716442 
L 510.769179 191.969134 
L 516.550143 212.416008 
L 522.331107 214.806525 
L 528.112071 199.529603 
L 533.893035 217.534794 
L 539.673999 213.064028 
L 545.454963 199.299087 
L 551.235927 217.303308 
L 557.016891 240.921286 
L 562.797855 225.091033 
L 568.578819 208.160615 
L 574.359783 217.939622 
L 580.140747 210.368012 
L 585.921711 224.604736 
L 591.702675 212.573907 
L 597.483639 149.916617 
L 603.264603 213.337093 
L 609.045567 226.43528 
L 614.826531 234.315877 
L 620.607495 216.83663 
L 626.388459 211.088462 
L 632.169423 227.471975 
L 637.950387 220.104812 
L 643.731351 216.427469 
L 649.512315 214.258281 
L 655.293279 237.607532 
L 661.074243 241.904727 
L 666.855207 242.369755 
L 672.636171 249.277962 
L 678.417135 232.603633 
L 684.198099 244.098174 
L 689.979063 251.246185 
L 695.760027 236.251834 
L 701.540991 247.743116 
L 707.321955 250.867906 
L 713.102919 252.637096 
L 718.883883 247.737329 
L 724.664847 248.827006 
L 730.445811 250.257309 
L 736.226775 250.4115 
L 742.007739 243.494633 
L 747.788703 226.577513 
L 753.569667 238.742111 
L 759.350631 249.76326 
L 765.131595 246.841728 
L 770.912559 243.231673 
L 776.693523 244.304441 
L 782.474487 228.374398 
L 788.255451 245.078167 
L 794.036415 252.297566 
L 799.817379 261.064844 
L 805.598343 275.50206 
L 950.122443 275.50206 
L 950.122443 275.50206 
" style="fill:none;stroke:#f15c80;stroke-linecap:square;"/>
   </g>
   <g id="line2d_13">
    <path clip-path="url(#pde265d71a9)" d="M 88.758807 275.50206 
L 94.539771 241.196689 
L 100.320735 247.55098 
L 106.101699 240.845839 
L 111.882663 243.808575 
L 117.663627 251.956101 
L 123.444591 242.01534 
L 129.225555 242.795008 
L 135.006519 238.389886 
L 140.787483 235.89495 
L 146.568447 242.989925 
L 152.349411 238.272936 
L 158.130375 243.808575 
L 163.911339 237.531874 
L 169.692303 243.105697 
L 175.473267 244.546995 
L 181.254231 239.475853 
L 187.035195 239.74302 
L 192.816159 235.28398 
L 198.597123 238.700718 
L 204.378087 249.25896 
L 210.159051 234.193685 
L 215.940015 248.829481 
L 227.501943 246.167151 
L 233.282907 253.202032 
L 239.063871 234.321797 
L 244.844835 244.260559 
L 250.625799 249.022447 
L 256.406763 245.574439 
L 262.187727 247.825546 
L 267.968691 243.342147 
L 273.749655 249.533719 
L 279.530619 250.010262 
L 285.311583 244.587475 
L 291.092547 234.429581 
L 296.873511 241.235228 
L 302.654475 229.648548 
L 308.435439 229.296116 
L 314.216403 237.326009 
L 319.997367 230.473105 
L 325.778331 236.715152 
L 331.559295 240.525787 
L 337.340259 244.021663 
L 343.121223 236.526805 
L 348.902187 242.220289 
L 354.683151 234.15039 
L 360.464115 239.826667 
L 366.245079 231.834954 
L 372.026043 238.80282 
L 377.807007 244.246605 
L 383.587971 240.590924 
L 389.368935 230.664244 
L 395.149899 226.213059 
L 400.930863 238.055084 
L 406.711827 225.311568 
L 412.492791 226.437062 
L 418.273755 229.01812 
L 424.054719 206.57285 
L 429.835683 216.858851 
L 435.616647 189.511804 
L 441.397611 215.036415 
L 447.178575 217.694225 
L 452.959539 210.747998 
L 458.740503 180.499115 
L 464.521467 202.097643 
L 470.302431 187.961471 
L 476.083395 209.189689 
L 481.864359 203.41157 
L 487.645323 210.622835 
L 493.426287 201.819375 
L 499.207251 196.145531 
L 504.988215 207.552406 
L 510.769179 195.347794 
L 516.550143 206.222562 
L 522.331107 224.250146 
L 528.112071 180.125059 
L 533.893035 231.279146 
L 539.673999 229.691781 
L 545.454963 215.67154 
L 551.235927 223.098493 
L 557.016891 216.687279 
L 562.797855 229.878646 
L 568.578819 234.801032 
L 574.359783 222.809431 
L 580.140747 222.353917 
L 585.921711 223.872235 
L 591.702675 205.558648 
L 597.483639 202.144671 
L 603.264603 227.644074 
L 609.045567 219.684316 
L 614.826531 234.462808 
L 620.607495 228.124041 
L 626.388459 238.339979 
L 632.169423 233.219401 
L 637.950387 237.706783 
L 643.731351 234.211283 
L 649.512315 239.693869 
L 655.293279 233.102013 
L 661.074243 237.639614 
L 666.855207 247.060433 
L 672.636171 247.257153 
L 678.417135 243.771355 
L 684.198099 241.055289 
L 689.979063 243.787607 
L 695.760027 246.904443 
L 701.540991 243.725463 
L 707.321955 246.785112 
L 713.102919 247.649777 
L 718.883883 255.250186 
L 724.664847 259.604051 
L 730.445811 246.802191 
L 736.226775 250.511773 
L 742.007739 229.350767 
L 747.788703 230.419337 
L 753.569667 246.859582 
L 759.350631 235.192015 
L 765.131595 231.838955 
L 770.912559 243.131783 
L 776.693523 238.44358 
L 782.474487 240.21209 
L 788.255451 244.659036 
L 794.036415 256.265018 
L 799.817379 267.240942 
L 805.598343 275.50206 
L 950.122443 275.50206 
L 950.122443 275.50206 
" style="fill:none;stroke:#e4d354;stroke-linecap:square;"/>
   </g>
   <g id="line2d_14">
    <path clip-path="url(#pde265d71a9)" d="M 88.758807 275.50206 
L 94.539771 248.129469 
L 100.320735 249.043492 
L 106.101699 243.655566 
L 111.882663 255.201123 
L 117.663627 242.260478 
L 123.444591 247.407872 
L 129.225555 245.868464 
L 135.006519 244.665802 
L 140.787483 230.570601 
L 146.568447 245.483612 
L 152.349411 240.576751 
L 158.130375 247.552191 
L 163.911339 251.3042 
L 169.692303 240.623516 
L 175.473267 251.73583 
L 181.254231 247.789408 
L 187.035195 238.885493 
L 192.816159 240.371751 
L 198.597123 252.686288 
L 204.378087 250.17433 
L 210.159051 249.633542 
L 215.940015 253.621495 
L 221.720979 255.299781 
L 227.501943 234.598331 
L 233.282907 242.014405 
L 239.063871 245.766309 
L 244.844835 241.407288 
L 250.625799 249.019257 
L 256.406763 249.049867 
L 267.968691 244.505121 
L 273.749655 234.91911 
L 279.530619 240.020134 
L 285.311583 244.205602 
L 291.092547 251.902224 
L 296.873511 222.048379 
L 302.654475 247.883939 
L 308.435439 251.75927 
L 314.216403 248.11236 
L 319.997367 241.660591 
L 325.778331 252.354551 
L 331.559295 235.858238 
L 337.340259 243.218657 
L 343.121223 239.854131 
L 348.902187 243.379165 
L 354.683151 236.284197 
L 360.464115 244.635828 
L 366.245079 242.354335 
L 372.026043 232.744462 
L 377.807007 237.460847 
L 383.587971 232.79383 
L 389.368935 238.926767 
L 395.149899 239.36125 
L 400.930863 239.04731 
L 406.711827 220.216476 
L 412.492791 243.490655 
L 418.273755 228.969219 
L 424.054719 203.216943 
L 429.835683 221.59489 
L 435.616647 198.964579 
L 441.397611 211.123118 
L 447.178575 200.855062 
L 452.959539 203.898813 
L 458.740503 208.791835 
L 464.521467 214.09085 
L 470.302431 191.072169 
L 476.083395 212.360178 
L 481.864359 208.857503 
L 487.645323 201.311665 
L 493.426287 224.463197 
L 499.207251 216.966656 
L 504.988215 219.953997 
L 510.769179 200.776425 
L 516.550143 219.846349 
L 522.331107 235.661315 
L 528.112071 215.647246 
L 533.893035 225.864519 
L 539.673999 209.622335 
L 545.454963 214.180136 
L 551.235927 231.515522 
L 557.016891 226.236898 
L 562.797855 227.27111 
L 568.578819 220.686587 
L 574.359783 217.190348 
L 580.140747 217.359344 
L 585.921711 234.264648 
L 591.702675 223.956867 
L 597.483639 179.142338 
L 603.264603 205.351596 
L 609.045567 211.740738 
L 614.826531 229.134071 
L 620.607495 234.148139 
L 626.388459 223.67717 
L 632.169423 225.345197 
L 637.950387 212.523041 
L 643.731351 228.182094 
L 649.512315 225.364756 
L 655.293279 222.178023 
L 661.074243 231.206836 
L 666.855207 244.440253 
L 672.636171 237.772846 
L 678.417135 250.385575 
L 684.198099 246.298171 
L 689.979063 249.789868 
L 695.760027 253.805625 
L 701.540991 254.598358 
L 707.321955 258.090455 
L 713.102919 248.483672 
L 718.883883 254.03261 
L 724.664847 252.217709 
L 730.445811 242.724649 
L 736.226775 233.456282 
L 742.007739 241.892296 
L 747.788703 222.444077 
L 753.569667 246.729652 
L 759.350631 244.544672 
L 765.131595 239.395658 
L 770.912559 247.92849 
L 776.693523 232.921831 
L 782.474487 230.7503 
L 788.255451 238.841092 
L 794.036415 234.549775 
L 799.817379 262.337339 
L 805.598343 275.50206 
L 950.122443 275.50206 
L 950.122443 275.50206 
" style="fill:none;stroke:#2b908f;stroke-linecap:square;"/>
   </g>
   <g id="line2d_15">
    <path clip-path="url(#pde265d71a9)" d="M 88.758807 275.50206 
L 94.539771 233.277302 
L 100.320735 212.515627 
L 106.101699 228.71815 
L 111.882663 239.625044 
L 117.663627 223.738154 
L 123.444591 196.839159 
L 129.225555 221.774212 
L 135.006519 217.495623 
L 140.787483 233.312372 
L 146.568447 223.177028 
L 152.349411 224.895477 
L 158.130375 223.317309 
L 163.911339 218.090993 
L 169.692303 233.906917 
L 175.473267 232.466711 
L 181.254231 222.501278 
L 187.035195 223.40424 
L 192.816159 227.736241 
L 198.597123 219.604268 
L 204.378087 229.634267 
L 210.159051 217.614721 
L 215.940015 213.309915 
L 221.720979 224.406162 
L 227.501943 222.952206 
L 233.282907 220.85499 
L 239.063871 221.693984 
L 244.844835 213.523434 
L 250.625799 234.653963 
L 256.406763 224.946176 
L 262.187727 234.567457 
L 267.968691 221.32732 
L 273.749655 232.927452 
L 279.530619 230.491872 
L 285.311583 226.181639 
L 291.092547 226.815557 
L 296.873511 225.977929 
L 302.654475 220.654893 
L 308.435439 209.069314 
L 314.216403 218.946963 
L 319.997367 221.899805 
L 325.778331 218.238382 
L 331.559295 227.246956 
L 337.340259 207.644627 
L 343.121223 220.424008 
L 348.902187 215.259298 
L 354.683151 220.928332 
L 360.464115 226.349122 
L 366.245079 218.916744 
L 372.026043 222.573696 
L 377.807007 233.259912 
L 383.587971 225.861166 
L 389.368935 214.788683 
L 395.149899 220.712481 
L 400.930863 228.530097 
L 406.711827 213.469659 
L 412.492791 221.519678 
L 418.273755 207.594248 
L 424.054719 198.737274 
L 429.835683 193.098315 
L 435.616647 195.889459 
L 441.397611 194.032574 
L 447.178575 158.307611 
L 452.959539 159.060221 
L 458.740503 180.820068 
L 464.521467 182.697999 
L 470.302431 183.206683 
L 476.083395 181.400065 
L 481.864359 183.886004 
L 487.645323 189.546846 
L 493.426287 181.575545 
L 499.207251 184.77728 
L 504.988215 188.76569 
L 510.769179 189.216407 
L 516.550143 194.142274 
L 522.331107 199.707863 
L 528.112071 198.22576 
L 533.893035 212.378815 
L 539.673999 197.619228 
L 545.454963 190.838163 
L 551.235927 212.382232 
L 557.016891 212.974549 
L 562.797855 208.705077 
L 568.578819 195.720194 
L 574.359783 215.292243 
L 580.140747 208.008137 
L 585.921711 193.836325 
L 591.702675 207.446704 
L 597.483639 167.31417 
L 603.264603 201.583943 
L 609.045567 213.565498 
L 614.826531 217.714126 
L 620.607495 208.924404 
L 626.388459 207.717544 
L 632.169423 211.939858 
L 637.950387 208.211163 
L 643.731351 215.457195 
L 649.512315 229.769867 
L 655.293279 231.167219 
L 661.074243 234.047235 
L 666.855207 247.873703 
L 672.636171 226.681145 
L 678.417135 234.310347 
L 684.198099 223.858093 
L 689.979063 237.239514 
L 695.760027 229.577167 
L 701.540991 242.173664 
L 707.321955 239.217145 
L 713.102919 246.191676 
L 718.883883 247.587854 
L 724.664847 242.60548 
L 730.445811 239.970951 
L 736.226775 250.269483 
L 742.007739 225.527441 
L 747.788703 225.733523 
L 753.569667 220.217412 
L 759.350631 235.803179 
L 765.131595 230.790137 
L 770.912559 238.959941 
L 776.693523 229.853604 
L 782.474487 235.873679 
L 788.255451 239.072862 
L 794.036415 245.816864 
L 799.817379 257.517869 
L 805.598343 275.50206 
L 950.122443 275.50206 
L 950.122443 275.50206 
" style="fill:none;stroke:#f45b5b;stroke-linecap:square;"/>
   </g>
   <g id="line2d_16">
    <path clip-path="url(#pde265d71a9)" d="M 88.758807 275.50206 
L 94.539771 248.369329 
L 100.320735 225.715653 
L 106.101699 233.984675 
L 111.882663 244.148682 
L 117.663627 241.909155 
L 123.444591 232.951048 
L 129.225555 239.066679 
L 135.006519 233.553997 
L 140.787483 245.957531 
L 146.568447 223.045447 
L 152.349411 236.568745 
L 158.130375 238.377594 
L 163.911339 241.564451 
L 169.692303 239.5826 
L 175.473267 238.978133 
L 181.254231 245.952415 
L 187.035195 231.471959 
L 192.816159 242.231135 
L 198.597123 231.436416 
L 204.378087 209.747382 
L 210.159051 222.131885 
L 215.940015 221.491423 
L 221.720979 224.133084 
L 227.501943 233.792862 
L 233.282907 217.398536 
L 239.063871 225.762227 
L 244.844835 239.689383 
L 250.625799 241.135914 
L 256.406763 235.896786 
L 262.187727 234.209369 
L 267.968691 240.952976 
L 273.749655 230.967999 
L 279.530619 209.885787 
L 285.311583 203.773126 
L 291.092547 239.635937 
L 296.873511 243.881062 
L 302.654475 229.446587 
L 308.435439 230.611325 
L 314.216403 228.876883 
L 319.997367 221.664896 
L 325.778331 228.625291 
L 331.559295 231.792462 
L 337.340259 239.58483 
L 343.121223 220.280675 
L 348.902187 228.377627 
L 354.683151 236.831955 
L 360.464115 229.016709 
L 366.245079 222.422676 
L 372.026043 220.19988 
L 377.807007 222.035338 
L 383.587971 225.773381 
L 389.368935 203.591996 
L 395.149899 225.25345 
L 400.930863 218.615836 
L 406.711827 233.421778 
L 412.492791 229.172389 
L 418.273755 227.094317 
L 424.054719 191.579142 
L 429.835683 224.401098 
L 435.616647 196.946157 
L 441.397611 165.846809 
L 447.178575 186.763802 
L 452.959539 172.039512 
L 458.740503 211.814761 
L 464.521467 182.463027 
L 470.302431 181.868831 
L 476.083395 221.246803 
L 481.864359 187.207719 
L 487.645323 219.574525 
L 493.426287 194.484238 
L 499.207251 198.88233 
L 504.988215 213.885865 
L 510.769179 176.191536 
L 516.550143 228.275713 
L 522.331107 230.682313 
L 528.112071 213.204866 
L 533.893035 186.962278 
L 539.673999 222.730827 
L 545.454963 208.677116 
L 551.235927 239.490353 
L 557.016891 216.486163 
L 562.797855 226.696391 
L 568.578819 201.020226 
L 574.359783 220.45882 
L 580.140747 217.103272 
L 585.921711 199.981385 
L 591.702675 220.375176 
L 597.483639 173.28129 
L 603.264603 207.287288 
L 609.045567 214.980036 
L 614.826531 232.123436 
L 620.607495 242.965988 
L 626.388459 207.242334 
L 632.169423 218.293299 
L 637.950387 243.265916 
L 643.731351 225.476504 
L 649.512315 239.336767 
L 655.293279 235.583716 
L 661.074243 220.120654 
L 666.855207 243.22078 
L 672.636171 250.770232 
L 678.417135 245.904625 
L 684.198099 259.237199 
L 689.979063 232.657824 
L 695.760027 241.635721 
L 701.540991 262.323268 
L 707.321955 247.679459 
L 713.102919 254.315606 
L 718.883883 250.12923 
L 724.664847 255.119085 
L 730.445811 254.517912 
L 736.226775 245.1398 
L 742.007739 230.306573 
L 747.788703 236.1929 
L 753.569667 236.994762 
L 759.350631 245.041637 
L 765.131595 238.501607 
L 770.912559 241.089875 
L 776.693523 248.176387 
L 782.474487 236.780994 
L 788.255451 251.650526 
L 794.036415 249.447861 
L 799.817379 258.997865 
L 805.598343 275.50206 
L 950.122443 275.50206 
L 950.122443 275.50206 
" style="fill:none;stroke:#91e8e1;stroke-linecap:square;"/>
   </g>
   <g id="line2d_17">
    <path clip-path="url(#pde265d71a9)" d="M 88.758807 275.50206 
L 94.539771 237.381246 
L 100.320735 227.660439 
L 106.101699 218.606746 
L 111.882663 250.818833 
L 117.663627 237.285944 
L 123.444591 211.602046 
L 129.225555 233.80742 
L 135.006519 242.146348 
L 140.787483 230.233594 
L 152.349411 240.002052 
L 163.911339 234.950658 
L 169.692303 241.621004 
L 175.473267 240.524011 
L 181.254231 235.13554 
L 187.035195 244.806148 
L 192.816159 232.880062 
L 198.597123 237.44203 
L 204.378087 227.624691 
L 215.940015 240.591369 
L 221.720979 236.926984 
L 227.501943 237.041866 
L 233.282907 238.597239 
L 239.063871 239.23946 
L 244.844835 225.963713 
L 250.625799 238.603743 
L 256.406763 253.093798 
L 262.187727 242.624939 
L 267.968691 234.738732 
L 273.749655 228.794556 
L 279.530619 240.955089 
L 285.311583 239.019385 
L 291.092547 234.595983 
L 296.873511 225.746376 
L 302.654475 231.458146 
L 308.435439 228.366012 
L 314.216403 233.994696 
L 319.997367 224.697724 
L 325.778331 235.231376 
L 331.559295 228.580952 
L 337.340259 225.492659 
L 343.121223 233.052092 
L 348.902187 233.721812 
L 354.683151 232.430595 
L 360.464115 228.839426 
L 366.245079 234.07507 
L 372.026043 243.706966 
L 377.807007 217.827649 
L 383.587971 229.564299 
L 389.368935 226.36944 
L 395.149899 221.492744 
L 400.930863 223.796002 
L 406.711827 220.753152 
L 412.492791 217.579967 
L 418.273755 211.804976 
L 424.054719 169.793375 
L 429.835683 226.434267 
L 435.616647 186.739054 
L 441.397611 202.5985 
L 447.178575 190.532473 
L 452.959539 194.534755 
L 458.740503 191.165673 
L 464.521467 206.303042 
L 470.302431 203.942794 
L 476.083395 185.704396 
L 481.864359 178.608498 
L 487.645323 206.882916 
L 493.426287 205.645334 
L 499.207251 218.591232 
L 504.988215 207.93635 
L 510.769179 189.526564 
L 516.550143 195.006679 
L 522.331107 210.464012 
L 528.112071 172.514281 
L 533.893035 208.547552 
L 539.673999 211.590312 
L 545.454963 204.829691 
L 551.235927 207.153992 
L 557.016891 218.891484 
L 562.797855 206.046112 
L 568.578819 193.865197 
L 574.359783 203.729501 
L 580.140747 211.832666 
L 585.921711 207.993536 
L 591.702675 229.154926 
L 597.483639 189.132665 
L 603.264603 205.746103 
L 609.045567 212.751965 
L 614.826531 225.17997 
L 620.607495 230.869161 
L 626.388459 224.251426 
L 632.169423 223.477459 
L 637.950387 219.54014 
L 643.731351 225.958412 
L 649.512315 210.738347 
L 655.293279 227.29583 
L 661.074243 229.106222 
L 666.855207 227.446892 
L 672.636171 249.908379 
L 678.417135 248.204611 
L 684.198099 240.690534 
L 689.979063 247.166571 
L 695.760027 226.173896 
L 701.540991 244.511423 
L 707.321955 232.752044 
L 713.102919 248.23775 
L 718.883883 259.933699 
L 724.664847 233.05068 
L 730.445811 240.861394 
L 736.226775 244.11575 
L 742.007739 230.579168 
L 747.788703 234.112858 
L 753.569667 242.691301 
L 759.350631 245.222288 
L 765.131595 241.485663 
L 770.912559 232.491839 
L 782.474487 246.619664 
L 788.255451 246.546772 
L 794.036415 240.03903 
L 799.817379 260.80453 
L 805.598343 275.50206 
L 950.122443 275.50206 
L 950.122443 275.50206 
" style="fill:none;stroke:#7cb5ec;stroke-linecap:square;"/>
   </g>
   <g id="line2d_18">
    <path clip-path="url(#pde265d71a9)" d="M 45.690625 275.50206 
L 993.190625 275.50206 
" style="fill:none;stroke:#dedede;stroke-linecap:square;stroke-width:2;"/>
   </g>
   <g id="text_17">
    <!-- Slamdunk: T&gt;C conversions over reads -->
    <g transform="translate(361.698125 19.3575)scale(0.16 -0.16)">
     <defs>
      <path d="M 53.515625 70.515625 
L 53.515625 60.890625 
Q 47.90625 63.578125 42.921875 64.890625 
Q 37.9375 66.21875 33.296875 66.21875 
Q 25.25 66.21875 20.875 63.09375 
Q 16.5 59.96875 16.5 54.203125 
Q 16.5 49.359375 19.40625 46.890625 
Q 22.3125 44.4375 30.421875 42.921875 
L 36.375 41.703125 
Q 47.40625 39.59375 52.65625 34.296875 
Q 57.90625 29 57.90625 20.125 
Q 57.90625 9.515625 50.796875 4.046875 
Q 43.703125 -1.421875 29.984375 -1.421875 
Q 24.8125 -1.421875 18.96875 -0.25 
Q 13.140625 0.921875 6.890625 3.21875 
L 6.890625 13.375 
Q 12.890625 10.015625 18.65625 8.296875 
Q 24.421875 6.59375 29.984375 6.59375 
Q 38.421875 6.59375 43.015625 9.90625 
Q 47.609375 13.234375 47.609375 19.390625 
Q 47.609375 24.75 44.3125 27.78125 
Q 41.015625 30.8125 33.5 32.328125 
L 27.484375 33.5 
Q 16.453125 35.6875 11.515625 40.375 
Q 6.59375 45.0625 6.59375 53.421875 
Q 6.59375 63.09375 13.40625 68.65625 
Q 20.21875 74.21875 32.171875 74.21875 
Q 37.3125 74.21875 42.625 73.28125 
Q 47.953125 72.359375 53.515625 70.515625 
z
" id="DejaVuSans-83"/>
      <path d="M 9.421875 75.984375 
L 18.40625 75.984375 
L 18.40625 0 
L 9.421875 0 
z
" id="DejaVuSans-108"/>
      <path d="M 52 44.1875 
Q 55.375 50.25 60.0625 53.125 
Q 64.75 56 71.09375 56 
Q 79.640625 56 84.28125 50.015625 
Q 88.921875 44.046875 88.921875 33.015625 
L 88.921875 0 
L 79.890625 0 
L 79.890625 32.71875 
Q 79.890625 40.578125 77.09375 44.375 
Q 74.3125 48.1875 68.609375 48.1875 
Q 61.625 48.1875 57.5625 43.546875 
Q 53.515625 38.921875 53.515625 30.90625 
L 53.515625 0 
L 44.484375 0 
L 44.484375 32.71875 
Q 44.484375 40.625 41.703125 44.40625 
Q 38.921875 48.1875 33.109375 48.1875 
Q 26.21875 48.1875 22.15625 43.53125 
Q 18.109375 38.875 18.109375 30.90625 
L 18.109375 0 
L 9.078125 0 
L 9.078125 54.6875 
L 18.109375 54.6875 
L 18.109375 46.1875 
Q 21.1875 51.21875 25.484375 53.609375 
Q 29.78125 56 35.6875 56 
Q 41.65625 56 45.828125 52.96875 
Q 50 49.953125 52 44.1875 
z
" id="DejaVuSans-109"/>
      <path d="M 8.5 21.578125 
L 8.5 54.6875 
L 17.484375 54.6875 
L 17.484375 21.921875 
Q 17.484375 14.15625 20.5 10.265625 
Q 23.53125 6.390625 29.59375 6.390625 
Q 36.859375 6.390625 41.078125 11.03125 
Q 45.3125 15.671875 45.3125 23.6875 
L 45.3125 54.6875 
L 54.296875 54.6875 
L 54.296875 0 
L 45.3125 0 
L 45.3125 8.40625 
Q 42.046875 3.421875 37.71875 1 
Q 33.40625 -1.421875 27.6875 -1.421875 
Q 18.265625 -1.421875 13.375 4.4375 
Q 8.5 10.296875 8.5 21.578125 
z
M 31.109375 56 
z
" id="DejaVuSans-117"/>
      <path d="M 9.078125 75.984375 
L 18.109375 75.984375 
L 18.109375 31.109375 
L 44.921875 54.6875 
L 56.390625 54.6875 
L 27.390625 29.109375 
L 57.625 0 
L 45.90625 0 
L 18.109375 26.703125 
L 18.109375 0 
L 9.078125 0 
z
" id="DejaVuSans-107"/>
      <path d="M 11.71875 12.40625 
L 22.015625 12.40625 
L 22.015625 0 
L 11.71875 0 
z
M 11.71875 51.703125 
L 22.015625 51.703125 
L 22.015625 39.3125 
L 11.71875 39.3125 
z
" id="DejaVuSans-58"/>
      <path d="M -0.296875 72.90625 
L 61.375 72.90625 
L 61.375 64.59375 
L 35.5 64.59375 
L 35.5 0 
L 25.59375 0 
L 25.59375 64.59375 
L -0.296875 64.59375 
z
" id="DejaVuSans-84"/>
      <path d="M 10.59375 49.21875 
L 10.59375 58.109375 
L 73.1875 35.40625 
L 73.1875 27.296875 
L 10.59375 4.59375 
L 10.59375 13.484375 
L 60.890625 31.296875 
z
" id="DejaVuSans-62"/>
      <path d="M 64.40625 67.28125 
L 64.40625 56.890625 
Q 59.421875 61.53125 53.78125 63.8125 
Q 48.140625 66.109375 41.796875 66.109375 
Q 29.296875 66.109375 22.65625 58.46875 
Q 16.015625 50.828125 16.015625 36.375 
Q 16.015625 21.96875 22.65625 14.328125 
Q 29.296875 6.6875 41.796875 6.6875 
Q 48.140625 6.6875 53.78125 8.984375 
Q 59.421875 11.28125 64.40625 15.921875 
L 64.40625 5.609375 
Q 59.234375 2.09375 53.4375 0.328125 
Q 47.65625 -1.421875 41.21875 -1.421875 
Q 24.65625 -1.421875 15.125 8.703125 
Q 5.609375 18.84375 5.609375 36.375 
Q 5.609375 53.953125 15.125 64.078125 
Q 24.65625 74.21875 41.21875 74.21875 
Q 47.75 74.21875 53.53125 72.484375 
Q 59.328125 70.75 64.40625 67.28125 
z
" id="DejaVuSans-67"/>
     </defs>
     <use xlink:href="#DejaVuSans-83"/>
     <use x="63.476562" xlink:href="#DejaVuSans-108"/>
     <use x="91.259766" xlink:href="#DejaVuSans-97"/>
     <use x="152.539062" xlink:href="#DejaVuSans-109"/>
     <use x="249.951172" xlink:href="#DejaVuSans-100"/>
     <use x="313.427734" xlink:href="#DejaVuSans-117"/>
     <use x="376.806641" xlink:href="#DejaVuSans-110"/>
     <use x="440.185547" xlink:href="#DejaVuSans-107"/>
     <use x="498.095703" xlink:href="#DejaVuSans-58"/>
     <use x="531.787109" xlink:href="#DejaVuSans-32"/>
     <use x="563.574219" xlink:href="#DejaVuSans-84"/>
     <use x="624.658203" xlink:href="#DejaVuSans-62"/>
     <use x="708.447266" xlink:href="#DejaVuSans-67"/>
     <use x="778.271484" xlink:href="#DejaVuSans-32"/>
     <use x="810.058594" xlink:href="#DejaVuSans-99"/>
     <use x="865.039062" xlink:href="#DejaVuSans-111"/>
     <use x="926.220703" xlink:href="#DejaVuSans-110"/>
     <use x="989.599609" xlink:href="#DejaVuSans-118"/>
     <use x="1048.779297" xlink:href="#DejaVuSans-101"/>
     <use x="1110.302734" xlink:href="#DejaVuSans-114"/>
     <use x="1151.416016" xlink:href="#DejaVuSans-115"/>
     <use x="1203.515625" xlink:href="#DejaVuSans-105"/>
     <use x="1231.298828" xlink:href="#DejaVuSans-111"/>
     <use x="1292.480469" xlink:href="#DejaVuSans-110"/>
     <use x="1355.859375" xlink:href="#DejaVuSans-115"/>
     <use x="1407.958984" xlink:href="#DejaVuSans-32"/>
     <use x="1439.746094" xlink:href="#DejaVuSans-111"/>
     <use x="1500.927734" xlink:href="#DejaVuSans-118"/>
     <use x="1560.107422" xlink:href="#DejaVuSans-101"/>
     <use x="1621.630859" xlink:href="#DejaVuSans-114"/>
     <use x="1662.744141" xlink:href="#DejaVuSans-32"/>
     <use x="1694.53125" xlink:href="#DejaVuSans-114"/>
     <use x="1733.394531" xlink:href="#DejaVuSans-101"/>
     <use x="1794.917969" xlink:href="#DejaVuSans-97"/>
     <use x="1856.197266" xlink:href="#DejaVuSans-100"/>
     <use x="1919.673828" xlink:href="#DejaVuSans-115"/>
    </g>
   </g>
   <g id="legend_1">
    <g id="line2d_19">
     <path d="M 52.890625 293.354194 
L 68.890625 293.354194 
" style="fill:none;stroke:#7cb5ec;stroke-linecap:square;"/>
    </g>
    <g id="line2d_20"/>
    <g id="text_18">
     <!-- RT_Gad2_1 -->
     <g transform="translate(75.290625 296.154194)scale(0.08 -0.08)">
      <defs>
       <path d="M 44.390625 34.1875 
Q 47.5625 33.109375 50.5625 29.59375 
Q 53.5625 26.078125 56.59375 19.921875 
L 66.609375 0 
L 56 0 
L 46.6875 18.703125 
Q 43.0625 26.03125 39.671875 28.421875 
Q 36.28125 30.8125 30.421875 30.8125 
L 19.671875 30.8125 
L 19.671875 0 
L 9.8125 0 
L 9.8125 72.90625 
L 32.078125 72.90625 
Q 44.578125 72.90625 50.734375 67.671875 
Q 56.890625 62.453125 56.890625 51.90625 
Q 56.890625 45.015625 53.6875 40.46875 
Q 50.484375 35.9375 44.390625 34.1875 
z
M 19.671875 64.796875 
L 19.671875 38.921875 
L 32.078125 38.921875 
Q 39.203125 38.921875 42.84375 42.21875 
Q 46.484375 45.515625 46.484375 51.90625 
Q 46.484375 58.296875 42.84375 61.546875 
Q 39.203125 64.796875 32.078125 64.796875 
z
" id="DejaVuSans-82"/>
       <path d="M 50.984375 -16.609375 
L 50.984375 -23.578125 
L -0.984375 -23.578125 
L -0.984375 -16.609375 
z
" id="DejaVuSans-95"/>
       <path d="M 59.515625 10.40625 
L 59.515625 29.984375 
L 43.40625 29.984375 
L 43.40625 38.09375 
L 69.28125 38.09375 
L 69.28125 6.78125 
Q 63.578125 2.734375 56.6875 0.65625 
Q 49.8125 -1.421875 42 -1.421875 
Q 24.90625 -1.421875 15.25 8.5625 
Q 5.609375 18.5625 5.609375 36.375 
Q 5.609375 54.25 15.25 64.234375 
Q 24.90625 74.21875 42 74.21875 
Q 49.125 74.21875 55.546875 72.453125 
Q 61.96875 70.703125 67.390625 67.28125 
L 67.390625 56.78125 
Q 61.921875 61.421875 55.765625 63.765625 
Q 49.609375 66.109375 42.828125 66.109375 
Q 29.4375 66.109375 22.71875 58.640625 
Q 16.015625 51.171875 16.015625 36.375 
Q 16.015625 21.625 22.71875 14.15625 
Q 29.4375 6.6875 42.828125 6.6875 
Q 48.046875 6.6875 52.140625 7.59375 
Q 56.25 8.5 59.515625 10.40625 
z
" id="DejaVuSans-71"/>
      </defs>
      <use xlink:href="#DejaVuSans-82"/>
      <use x="62.232422" xlink:href="#DejaVuSans-84"/>
      <use x="123.316406" xlink:href="#DejaVuSans-95"/>
      <use x="173.316406" xlink:href="#DejaVuSans-71"/>
      <use x="250.806641" xlink:href="#DejaVuSans-97"/>
      <use x="312.085938" xlink:href="#DejaVuSans-100"/>
      <use x="375.5625" xlink:href="#DejaVuSans-50"/>
      <use x="439.185547" xlink:href="#DejaVuSans-95"/>
      <use x="489.185547" xlink:href="#DejaVuSans-49"/>
     </g>
    </g>
    <g id="line2d_21">
     <path d="M 52.890625 305.319194 
L 68.890625 305.319194 
" style="fill:none;stroke:#434348;stroke-linecap:square;"/>
    </g>
    <g id="line2d_22"/>
    <g id="text_19">
     <!-- RT_Gad2_2 -->
     <g transform="translate(75.290625 308.119194)scale(0.08 -0.08)">
      <use xlink:href="#DejaVuSans-82"/>
      <use x="62.232422" xlink:href="#DejaVuSans-84"/>
      <use x="123.316406" xlink:href="#DejaVuSans-95"/>
      <use x="173.316406" xlink:href="#DejaVuSans-71"/>
      <use x="250.806641" xlink:href="#DejaVuSans-97"/>
      <use x="312.085938" xlink:href="#DejaVuSans-100"/>
      <use x="375.5625" xlink:href="#DejaVuSans-50"/>
      <use x="439.185547" xlink:href="#DejaVuSans-95"/>
      <use x="489.185547" xlink:href="#DejaVuSans-50"/>
     </g>
    </g>
    <g id="line2d_23">
     <path d="M 52.890625 317.284194 
L 68.890625 317.284194 
" style="fill:none;stroke:#90ed7d;stroke-linecap:square;"/>
    </g>
    <g id="line2d_24"/>
    <g id="text_20">
     <!-- RT_Gad2_3 -->
     <g transform="translate(75.290625 320.084194)scale(0.08 -0.08)">
      <defs>
       <path d="M 40.578125 39.3125 
Q 47.65625 37.796875 51.625 33 
Q 55.609375 28.21875 55.609375 21.1875 
Q 55.609375 10.40625 48.1875 4.484375 
Q 40.765625 -1.421875 27.09375 -1.421875 
Q 22.515625 -1.421875 17.65625 -0.515625 
Q 12.796875 0.390625 7.625 2.203125 
L 7.625 11.71875 
Q 11.71875 9.328125 16.59375 8.109375 
Q 21.484375 6.890625 26.8125 6.890625 
Q 36.078125 6.890625 40.9375 10.546875 
Q 45.796875 14.203125 45.796875 21.1875 
Q 45.796875 27.640625 41.28125 31.265625 
Q 36.765625 34.90625 28.71875 34.90625 
L 20.21875 34.90625 
L 20.21875 43.015625 
L 29.109375 43.015625 
Q 36.375 43.015625 40.234375 45.921875 
Q 44.09375 48.828125 44.09375 54.296875 
Q 44.09375 59.90625 40.109375 62.90625 
Q 36.140625 65.921875 28.71875 65.921875 
Q 24.65625 65.921875 20.015625 65.03125 
Q 15.375 64.15625 9.8125 62.3125 
L 9.8125 71.09375 
Q 15.4375 72.65625 20.34375 73.4375 
Q 25.25 74.21875 29.59375 74.21875 
Q 40.828125 74.21875 47.359375 69.109375 
Q 53.90625 64.015625 53.90625 55.328125 
Q 53.90625 49.265625 50.4375 45.09375 
Q 46.96875 40.921875 40.578125 39.3125 
z
" id="DejaVuSans-51"/>
      </defs>
      <use xlink:href="#DejaVuSans-82"/>
      <use x="62.232422" xlink:href="#DejaVuSans-84"/>
      <use x="123.316406" xlink:href="#DejaVuSans-95"/>
      <use x="173.316406" xlink:href="#DejaVuSans-71"/>
      <use x="250.806641" xlink:href="#DejaVuSans-97"/>
      <use x="312.085938" xlink:href="#DejaVuSans-100"/>
      <use x="375.5625" xlink:href="#DejaVuSans-50"/>
      <use x="439.185547" xlink:href="#DejaVuSans-95"/>
      <use x="489.185547" xlink:href="#DejaVuSans-51"/>
     </g>
    </g>
    <g id="line2d_25">
     <path d="M 264.082188 293.354194 
L 280.082188 293.354194 
" style="fill:none;stroke:#f7a35c;stroke-linecap:square;"/>
    </g>
    <g id="line2d_26"/>
    <g id="text_21">
     <!-- RT_vGluT2_1 -->
     <g transform="translate(286.482188 296.154194)scale(0.08 -0.08)">
      <use xlink:href="#DejaVuSans-82"/>
      <use x="62.232422" xlink:href="#DejaVuSans-84"/>
      <use x="123.316406" xlink:href="#DejaVuSans-95"/>
      <use x="173.316406" xlink:href="#DejaVuSans-118"/>
      <use x="232.496094" xlink:href="#DejaVuSans-71"/>
      <use x="309.986328" xlink:href="#DejaVuSans-108"/>
      <use x="337.769531" xlink:href="#DejaVuSans-117"/>
      <use x="401.148438" xlink:href="#DejaVuSans-84"/>
      <use x="462.232422" xlink:href="#DejaVuSans-50"/>
      <use x="525.855469" xlink:href="#DejaVuSans-95"/>
      <use x="575.855469" xlink:href="#DejaVuSans-49"/>
     </g>
    </g>
    <g id="line2d_27">
     <path d="M 264.082188 305.319194 
L 280.082188 305.319194 
" style="fill:none;stroke:#8085e9;stroke-linecap:square;"/>
    </g>
    <g id="line2d_28"/>
    <g id="text_22">
     <!-- RT_vGluT2_3 -->
     <g transform="translate(286.482188 308.119194)scale(0.08 -0.08)">
      <use xlink:href="#DejaVuSans-82"/>
      <use x="62.232422" xlink:href="#DejaVuSans-84"/>
      <use x="123.316406" xlink:href="#DejaVuSans-95"/>
      <use x="173.316406" xlink:href="#DejaVuSans-118"/>
      <use x="232.496094" xlink:href="#DejaVuSans-71"/>
      <use x="309.986328" xlink:href="#DejaVuSans-108"/>
      <use x="337.769531" xlink:href="#DejaVuSans-117"/>
      <use x="401.148438" xlink:href="#DejaVuSans-84"/>
      <use x="462.232422" xlink:href="#DejaVuSans-50"/>
      <use x="525.855469" xlink:href="#DejaVuSans-95"/>
      <use x="575.855469" xlink:href="#DejaVuSans-51"/>
     </g>
    </g>
    <g id="line2d_29">
     <path d="M 482.20625 293.354194 
L 498.20625 293.354194 
" style="fill:none;stroke:#f15c80;stroke-linecap:square;"/>
    </g>
    <g id="line2d_30"/>
    <g id="text_23">
     <!-- S1_Gad2_1 -->
     <g transform="translate(504.60625 296.154194)scale(0.08 -0.08)">
      <use xlink:href="#DejaVuSans-83"/>
      <use x="63.476562" xlink:href="#DejaVuSans-49"/>
      <use x="127.099609" xlink:href="#DejaVuSans-95"/>
      <use x="177.099609" xlink:href="#DejaVuSans-71"/>
      <use x="254.589844" xlink:href="#DejaVuSans-97"/>
      <use x="315.869141" xlink:href="#DejaVuSans-100"/>
      <use x="379.345703" xlink:href="#DejaVuSans-50"/>
      <use x="442.96875" xlink:href="#DejaVuSans-95"/>
      <use x="492.96875" xlink:href="#DejaVuSans-49"/>
     </g>
    </g>
    <g id="line2d_31">
     <path d="M 482.20625 305.319194 
L 498.20625 305.319194 
" style="fill:none;stroke:#e4d354;stroke-linecap:square;"/>
    </g>
    <g id="line2d_32"/>
    <g id="text_24">
     <!-- S1_Gad2_2 -->
     <g transform="translate(504.60625 308.119194)scale(0.08 -0.08)">
      <use xlink:href="#DejaVuSans-83"/>
      <use x="63.476562" xlink:href="#DejaVuSans-49"/>
      <use x="127.099609" xlink:href="#DejaVuSans-95"/>
      <use x="177.099609" xlink:href="#DejaVuSans-71"/>
      <use x="254.589844" xlink:href="#DejaVuSans-97"/>
      <use x="315.869141" xlink:href="#DejaVuSans-100"/>
      <use x="379.345703" xlink:href="#DejaVuSans-50"/>
      <use x="442.96875" xlink:href="#DejaVuSans-95"/>
      <use x="492.96875" xlink:href="#DejaVuSans-50"/>
     </g>
    </g>
    <g id="line2d_33">
     <path d="M 693.701563 293.354194 
L 709.701563 293.354194 
" style="fill:none;stroke:#2b908f;stroke-linecap:square;"/>
    </g>
    <g id="line2d_34"/>
    <g id="text_25">
     <!-- S1_Gad2_3 -->
     <g transform="translate(716.101563 296.154194)scale(0.08 -0.08)">
      <use xlink:href="#DejaVuSans-83"/>
      <use x="63.476562" xlink:href="#DejaVuSans-49"/>
      <use x="127.099609" xlink:href="#DejaVuSans-95"/>
      <use x="177.099609" xlink:href="#DejaVuSans-71"/>
      <use x="254.589844" xlink:href="#DejaVuSans-97"/>
      <use x="315.869141" xlink:href="#DejaVuSans-100"/>
      <use x="379.345703" xlink:href="#DejaVuSans-50"/>
      <use x="442.96875" xlink:href="#DejaVuSans-95"/>
      <use x="492.96875" xlink:href="#DejaVuSans-51"/>
     </g>
    </g>
    <g id="line2d_35">
     <path d="M 693.701563 305.319194 
L 709.701563 305.319194 
" style="fill:none;stroke:#f45b5b;stroke-linecap:square;"/>
    </g>
    <g id="line2d_36"/>
    <g id="text_26">
     <!-- S1_vGluT2_1 -->
     <g transform="translate(716.101563 308.119194)scale(0.08 -0.08)">
      <use xlink:href="#DejaVuSans-83"/>
      <use x="63.476562" xlink:href="#DejaVuSans-49"/>
      <use x="127.099609" xlink:href="#DejaVuSans-95"/>
      <use x="177.099609" xlink:href="#DejaVuSans-118"/>
      <use x="236.279297" xlink:href="#DejaVuSans-71"/>
      <use x="313.769531" xlink:href="#DejaVuSans-108"/>
      <use x="341.552734" xlink:href="#DejaVuSans-117"/>
      <use x="404.931641" xlink:href="#DejaVuSans-84"/>
      <use x="466.015625" xlink:href="#DejaVuSans-50"/>
      <use x="529.638672" xlink:href="#DejaVuSans-95"/>
      <use x="579.638672" xlink:href="#DejaVuSans-49"/>
     </g>
    </g>
    <g id="line2d_37">
     <path d="M 912.129375 293.354194 
L 928.129375 293.354194 
" style="fill:none;stroke:#91e8e1;stroke-linecap:square;"/>
    </g>
    <g id="line2d_38"/>
    <g id="text_27">
     <!-- S1_vGluT2_2 -->
     <g transform="translate(934.529375 296.154194)scale(0.08 -0.08)">
      <use xlink:href="#DejaVuSans-83"/>
      <use x="63.476562" xlink:href="#DejaVuSans-49"/>
      <use x="127.099609" xlink:href="#DejaVuSans-95"/>
      <use x="177.099609" xlink:href="#DejaVuSans-118"/>
      <use x="236.279297" xlink:href="#DejaVuSans-71"/>
      <use x="313.769531" xlink:href="#DejaVuSans-108"/>
      <use x="341.552734" xlink:href="#DejaVuSans-117"/>
      <use x="404.931641" xlink:href="#DejaVuSans-84"/>
      <use x="466.015625" xlink:href="#DejaVuSans-50"/>
      <use x="529.638672" xlink:href="#DejaVuSans-95"/>
      <use x="579.638672" xlink:href="#DejaVuSans-50"/>
     </g>
    </g>
    <g id="line2d_39">
     <path d="M 912.129375 305.319194 
L 928.129375 305.319194 
" style="fill:none;stroke:#7cb5ec;stroke-linecap:square;"/>
    </g>
    <g id="line2d_40"/>
    <g id="text_28">
     <!-- S1_vGluT2_3 -->
     <g transform="translate(934.529375 308.119194)scale(0.08 -0.08)">
      <use xlink:href="#DejaVuSans-83"/>
      <use x="63.476562" xlink:href="#DejaVuSans-49"/>
      <use x="127.099609" xlink:href="#DejaVuSans-95"/>
      <use x="177.099609" xlink:href="#DejaVuSans-118"/>
      <use x="236.279297" xlink:href="#DejaVuSans-71"/>
      <use x="313.769531" xlink:href="#DejaVuSans-108"/>
      <use x="341.552734" xlink:href="#DejaVuSans-117"/>
      <use x="404.931641" xlink:href="#DejaVuSans-84"/>
      <use x="466.015625" xlink:href="#DejaVuSans-50"/>
      <use x="529.638672" xlink:href="#DejaVuSans-95"/>
      <use x="579.638672" xlink:href="#DejaVuSans-51"/>
     </g>
    </g>
   </g>
  </g>
 </g>
 <defs>
  <clipPath id="pde265d71a9">
   <rect height="243.9472" width="947.5" x="45.690625" y="31.55486"/>
  </clipPath>
 </defs>
</svg>
