<?xml version="1.0" encoding="utf-8" standalone="no"?>
<!DOCTYPE svg PUBLIC "-//W3C//DTD SVG 1.1//EN"
  "http://www.w3.org/Graphics/SVG/1.1/DTD/svg11.dtd">
<!-- Created with matplotlib (https://matplotlib.org/) -->
<svg height="332.370444pt" version="1.1" viewBox="0 0 1000.558125 332.370444" width="1000.558125pt" xmlns="http://www.w3.org/2000/svg" xmlns:xlink="http://www.w3.org/1999/xlink">
 <metadata>
  <rdf:RDF xmlns:cc="http://creativecommons.org/ns#" xmlns:dc="http://purl.org/dc/elements/1.1/" xmlns:rdf="http://www.w3.org/1999/02/22-rdf-syntax-ns#">
   <cc:Work>
    <dc:type rdf:resource="http://purl.org/dc/dcmitype/StillImage"/>
    <dc:date>2020-12-03T09:50:09.960162</dc:date>
    <dc:format>image/svg+xml</dc:format>
    <dc:creator>
     <cc:Agent>
      <dc:title>Matplotlib v3.3.1, https://matplotlib.org/</dc:title>
     </cc:Agent>
    </dc:creator>
   </cc:Work>
  </rdf:RDF>
 </metadata>
 <defs>
  <style type="text/css">*{stroke-linecap:butt;stroke-linejoin:round;}</style>
 </defs>
 <g id="figure_1">
  <g id="axes_1">
   <g id="patch_1">
    <path d="M 53.328125 275.50206 
L 993.358125 275.50206 
L 993.358125 31.55486 
L 53.328125 31.55486 
z
" style="fill:#ffffff;"/>
   </g>
   <g id="matplotlib.axis_1">
    <g id="xtick_1">
     <g id="text_1">
      <!-- 0 -->
      <g transform="translate(72.497678 288.58081)scale(0.08 -0.08)">
       <defs>
        <path d="M 31.78125 66.40625 
Q 24.171875 66.40625 20.328125 58.90625 
Q 16.5 51.421875 16.5 36.375 
Q 16.5 21.390625 20.328125 13.890625 
Q 24.171875 6.390625 31.78125 6.390625 
Q 39.453125 6.390625 43.28125 13.890625 
Q 47.125 21.390625 47.125 36.375 
Q 47.125 51.421875 43.28125 58.90625 
Q 39.453125 66.40625 31.78125 66.40625 
z
M 31.78125 74.21875 
Q 44.046875 74.21875 50.515625 64.515625 
Q 56.984375 54.828125 56.984375 36.375 
Q 56.984375 17.96875 50.515625 8.265625 
Q 44.046875 -1.421875 31.78125 -1.421875 
Q 19.53125 -1.421875 13.0625 8.265625 
Q 6.59375 17.96875 6.59375 36.375 
Q 6.59375 54.828125 13.0625 64.515625 
Q 19.53125 74.21875 31.78125 74.21875 
z
" id="DejaVuSans-48"/>
       </defs>
       <use xlink:href="#DejaVuSans-48"/>
      </g>
     </g>
    </g>
    <g id="xtick_2">
     <g id="text_2">
      <!-- 20 -->
      <g transform="translate(210.046568 288.58081)scale(0.08 -0.08)">
       <defs>
        <path d="M 19.1875 8.296875 
L 53.609375 8.296875 
L 53.609375 0 
L 7.328125 0 
L 7.328125 8.296875 
Q 12.9375 14.109375 22.625 23.890625 
Q 32.328125 33.6875 34.8125 36.53125 
Q 39.546875 41.84375 41.421875 45.53125 
Q 43.3125 49.21875 43.3125 52.78125 
Q 43.3125 58.59375 39.234375 62.25 
Q 35.15625 65.921875 28.609375 65.921875 
Q 23.96875 65.921875 18.8125 64.3125 
Q 13.671875 62.703125 7.8125 59.421875 
L 7.8125 69.390625 
Q 13.765625 71.78125 18.9375 73 
Q 24.125 74.21875 28.421875 74.21875 
Q 39.75 74.21875 46.484375 68.546875 
Q 53.21875 62.890625 53.21875 53.421875 
Q 53.21875 48.921875 51.53125 44.890625 
Q 49.859375 40.875 45.40625 35.40625 
Q 44.1875 33.984375 37.640625 27.21875 
Q 31.109375 20.453125 19.1875 8.296875 
z
" id="DejaVuSans-50"/>
       </defs>
       <use xlink:href="#DejaVuSans-50"/>
       <use x="63.623047" xlink:href="#DejaVuSans-48"/>
      </g>
     </g>
    </g>
    <g id="xtick_3">
     <g id="text_3">
      <!-- 40 -->
      <g transform="translate(350.140457 288.58081)scale(0.08 -0.08)">
       <defs>
        <path d="M 37.796875 64.3125 
L 12.890625 25.390625 
L 37.796875 25.390625 
z
M 35.203125 72.90625 
L 47.609375 72.90625 
L 47.609375 25.390625 
L 58.015625 25.390625 
L 58.015625 17.1875 
L 47.609375 17.1875 
L 47.609375 0 
L 37.796875 0 
L 37.796875 17.1875 
L 4.890625 17.1875 
L 4.890625 26.703125 
z
" id="DejaVuSans-52"/>
       </defs>
       <use xlink:href="#DejaVuSans-52"/>
       <use x="63.623047" xlink:href="#DejaVuSans-48"/>
      </g>
     </g>
    </g>
    <g id="xtick_4">
     <g id="text_4">
      <!-- 60 -->
      <g transform="translate(490.234347 288.58081)scale(0.08 -0.08)">
       <defs>
        <path d="M 33.015625 40.375 
Q 26.375 40.375 22.484375 35.828125 
Q 18.609375 31.296875 18.609375 23.390625 
Q 18.609375 15.53125 22.484375 10.953125 
Q 26.375 6.390625 33.015625 6.390625 
Q 39.65625 6.390625 43.53125 10.953125 
Q 47.40625 15.53125 47.40625 23.390625 
Q 47.40625 31.296875 43.53125 35.828125 
Q 39.65625 40.375 33.015625 40.375 
z
M 52.59375 71.296875 
L 52.59375 62.3125 
Q 48.875 64.0625 45.09375 64.984375 
Q 41.3125 65.921875 37.59375 65.921875 
Q 27.828125 65.921875 22.671875 59.328125 
Q 17.53125 52.734375 16.796875 39.40625 
Q 19.671875 43.65625 24.015625 45.921875 
Q 28.375 48.1875 33.59375 48.1875 
Q 44.578125 48.1875 50.953125 41.515625 
Q 57.328125 34.859375 57.328125 23.390625 
Q 57.328125 12.15625 50.6875 5.359375 
Q 44.046875 -1.421875 33.015625 -1.421875 
Q 20.359375 -1.421875 13.671875 8.265625 
Q 6.984375 17.96875 6.984375 36.375 
Q 6.984375 53.65625 15.1875 63.9375 
Q 23.390625 74.21875 37.203125 74.21875 
Q 40.921875 74.21875 44.703125 73.484375 
Q 48.484375 72.75 52.59375 71.296875 
z
" id="DejaVuSans-54"/>
       </defs>
       <use xlink:href="#DejaVuSans-54"/>
       <use x="63.623047" xlink:href="#DejaVuSans-48"/>
      </g>
     </g>
    </g>
    <g id="xtick_5">
     <g id="text_5">
      <!-- 80 -->
      <g transform="translate(630.328237 288.58081)scale(0.08 -0.08)">
       <defs>
        <path d="M 31.78125 34.625 
Q 24.75 34.625 20.71875 30.859375 
Q 16.703125 27.09375 16.703125 20.515625 
Q 16.703125 13.921875 20.71875 10.15625 
Q 24.75 6.390625 31.78125 6.390625 
Q 38.8125 6.390625 42.859375 10.171875 
Q 46.921875 13.96875 46.921875 20.515625 
Q 46.921875 27.09375 42.890625 30.859375 
Q 38.875 34.625 31.78125 34.625 
z
M 21.921875 38.8125 
Q 15.578125 40.375 12.03125 44.71875 
Q 8.5 49.078125 8.5 55.328125 
Q 8.5 64.0625 14.71875 69.140625 
Q 20.953125 74.21875 31.78125 74.21875 
Q 42.671875 74.21875 48.875 69.140625 
Q 55.078125 64.0625 55.078125 55.328125 
Q 55.078125 49.078125 51.53125 44.71875 
Q 48 40.375 41.703125 38.8125 
Q 48.828125 37.15625 52.796875 32.3125 
Q 56.78125 27.484375 56.78125 20.515625 
Q 56.78125 9.90625 50.3125 4.234375 
Q 43.84375 -1.421875 31.78125 -1.421875 
Q 19.734375 -1.421875 13.25 4.234375 
Q 6.78125 9.90625 6.78125 20.515625 
Q 6.78125 27.484375 10.78125 32.3125 
Q 14.796875 37.15625 21.921875 38.8125 
z
M 18.3125 54.390625 
Q 18.3125 48.734375 21.84375 45.5625 
Q 25.390625 42.390625 31.78125 42.390625 
Q 38.140625 42.390625 41.71875 45.5625 
Q 45.3125 48.734375 45.3125 54.390625 
Q 45.3125 60.0625 41.71875 63.234375 
Q 38.140625 66.40625 31.78125 66.40625 
Q 25.390625 66.40625 21.84375 63.234375 
Q 18.3125 60.0625 18.3125 54.390625 
z
" id="DejaVuSans-56"/>
       </defs>
       <use xlink:href="#DejaVuSans-56"/>
       <use x="63.623047" xlink:href="#DejaVuSans-48"/>
      </g>
     </g>
    </g>
    <g id="xtick_6">
     <g id="text_6">
      <!-- 100 -->
      <g transform="translate(767.877126 288.58081)scale(0.08 -0.08)">
       <defs>
        <path d="M 12.40625 8.296875 
L 28.515625 8.296875 
L 28.515625 63.921875 
L 10.984375 60.40625 
L 10.984375 69.390625 
L 28.421875 72.90625 
L 38.28125 72.90625 
L 38.28125 8.296875 
L 54.390625 8.296875 
L 54.390625 0 
L 12.40625 0 
z
" id="DejaVuSans-49"/>
       </defs>
       <use xlink:href="#DejaVuSans-49"/>
       <use x="63.623047" xlink:href="#DejaVuSans-48"/>
       <use x="127.246094" xlink:href="#DejaVuSans-48"/>
      </g>
     </g>
    </g>
    <g id="xtick_7">
     <g id="text_7">
      <!-- 120 -->
      <g transform="translate(907.971016 288.58081)scale(0.08 -0.08)">
       <use xlink:href="#DejaVuSans-49"/>
       <use x="63.623047" xlink:href="#DejaVuSans-50"/>
       <use x="127.246094" xlink:href="#DejaVuSans-48"/>
      </g>
     </g>
    </g>
    <g id="text_8">
     <!-- Length Trimmed (bp) -->
     <g transform="translate(470.915781 301.842998)scale(0.1 -0.1)">
      <defs>
       <path d="M 9.8125 72.90625 
L 19.671875 72.90625 
L 19.671875 8.296875 
L 55.171875 8.296875 
L 55.171875 0 
L 9.8125 0 
z
" id="DejaVuSans-76"/>
       <path d="M 56.203125 29.59375 
L 56.203125 25.203125 
L 14.890625 25.203125 
Q 15.484375 15.921875 20.484375 11.0625 
Q 25.484375 6.203125 34.421875 6.203125 
Q 39.59375 6.203125 44.453125 7.46875 
Q 49.3125 8.734375 54.109375 11.28125 
L 54.109375 2.78125 
Q 49.265625 0.734375 44.1875 -0.34375 
Q 39.109375 -1.421875 33.890625 -1.421875 
Q 20.796875 -1.421875 13.15625 6.1875 
Q 5.515625 13.8125 5.515625 26.8125 
Q 5.515625 40.234375 12.765625 48.109375 
Q 20.015625 56 32.328125 56 
Q 43.359375 56 49.78125 48.890625 
Q 56.203125 41.796875 56.203125 29.59375 
z
M 47.21875 32.234375 
Q 47.125 39.59375 43.09375 43.984375 
Q 39.0625 48.390625 32.421875 48.390625 
Q 24.90625 48.390625 20.390625 44.140625 
Q 15.875 39.890625 15.1875 32.171875 
z
" id="DejaVuSans-101"/>
       <path d="M 54.890625 33.015625 
L 54.890625 0 
L 45.90625 0 
L 45.90625 32.71875 
Q 45.90625 40.484375 42.875 44.328125 
Q 39.84375 48.1875 33.796875 48.1875 
Q 26.515625 48.1875 22.3125 43.546875 
Q 18.109375 38.921875 18.109375 30.90625 
L 18.109375 0 
L 9.078125 0 
L 9.078125 54.6875 
L 18.109375 54.6875 
L 18.109375 46.1875 
Q 21.34375 51.125 25.703125 53.5625 
Q 30.078125 56 35.796875 56 
Q 45.21875 56 50.046875 50.171875 
Q 54.890625 44.34375 54.890625 33.015625 
z
" id="DejaVuSans-110"/>
       <path d="M 45.40625 27.984375 
Q 45.40625 37.75 41.375 43.109375 
Q 37.359375 48.484375 30.078125 48.484375 
Q 22.859375 48.484375 18.828125 43.109375 
Q 14.796875 37.75 14.796875 27.984375 
Q 14.796875 18.265625 18.828125 12.890625 
Q 22.859375 7.515625 30.078125 7.515625 
Q 37.359375 7.515625 41.375 12.890625 
Q 45.40625 18.265625 45.40625 27.984375 
z
M 54.390625 6.78125 
Q 54.390625 -7.171875 48.1875 -13.984375 
Q 42 -20.796875 29.203125 -20.796875 
Q 24.46875 -20.796875 20.265625 -20.09375 
Q 16.0625 -19.390625 12.109375 -17.921875 
L 12.109375 -9.1875 
Q 16.0625 -11.328125 19.921875 -12.34375 
Q 23.78125 -13.375 27.78125 -13.375 
Q 36.625 -13.375 41.015625 -8.765625 
Q 45.40625 -4.15625 45.40625 5.171875 
L 45.40625 9.625 
Q 42.625 4.78125 38.28125 2.390625 
Q 33.9375 0 27.875 0 
Q 17.828125 0 11.671875 7.65625 
Q 5.515625 15.328125 5.515625 27.984375 
Q 5.515625 40.671875 11.671875 48.328125 
Q 17.828125 56 27.875 56 
Q 33.9375 56 38.28125 53.609375 
Q 42.625 51.21875 45.40625 46.390625 
L 45.40625 54.6875 
L 54.390625 54.6875 
z
" id="DejaVuSans-103"/>
       <path d="M 18.3125 70.21875 
L 18.3125 54.6875 
L 36.8125 54.6875 
L 36.8125 47.703125 
L 18.3125 47.703125 
L 18.3125 18.015625 
Q 18.3125 11.328125 20.140625 9.421875 
Q 21.96875 7.515625 27.59375 7.515625 
L 36.8125 7.515625 
L 36.8125 0 
L 27.59375 0 
Q 17.1875 0 13.234375 3.875 
Q 9.28125 7.765625 9.28125 18.015625 
L 9.28125 47.703125 
L 2.6875 47.703125 
L 2.6875 54.6875 
L 9.28125 54.6875 
L 9.28125 70.21875 
z
" id="DejaVuSans-116"/>
       <path d="M 54.890625 33.015625 
L 54.890625 0 
L 45.90625 0 
L 45.90625 32.71875 
Q 45.90625 40.484375 42.875 44.328125 
Q 39.84375 48.1875 33.796875 48.1875 
Q 26.515625 48.1875 22.3125 43.546875 
Q 18.109375 38.921875 18.109375 30.90625 
L 18.109375 0 
L 9.078125 0 
L 9.078125 75.984375 
L 18.109375 75.984375 
L 18.109375 46.1875 
Q 21.34375 51.125 25.703125 53.5625 
Q 30.078125 56 35.796875 56 
Q 45.21875 56 50.046875 50.171875 
Q 54.890625 44.34375 54.890625 33.015625 
z
" id="DejaVuSans-104"/>
       <path id="DejaVuSans-32"/>
       <path d="M -0.296875 72.90625 
L 61.375 72.90625 
L 61.375 64.59375 
L 35.5 64.59375 
L 35.5 0 
L 25.59375 0 
L 25.59375 64.59375 
L -0.296875 64.59375 
z
" id="DejaVuSans-84"/>
       <path d="M 41.109375 46.296875 
Q 39.59375 47.171875 37.8125 47.578125 
Q 36.03125 48 33.890625 48 
Q 26.265625 48 22.1875 43.046875 
Q 18.109375 38.09375 18.109375 28.8125 
L 18.109375 0 
L 9.078125 0 
L 9.078125 54.6875 
L 18.109375 54.6875 
L 18.109375 46.1875 
Q 20.953125 51.171875 25.484375 53.578125 
Q 30.03125 56 36.53125 56 
Q 37.453125 56 38.578125 55.875 
Q 39.703125 55.765625 41.0625 55.515625 
z
" id="DejaVuSans-114"/>
       <path d="M 9.421875 54.6875 
L 18.40625 54.6875 
L 18.40625 0 
L 9.421875 0 
z
M 9.421875 75.984375 
L 18.40625 75.984375 
L 18.40625 64.59375 
L 9.421875 64.59375 
z
" id="DejaVuSans-105"/>
       <path d="M 52 44.1875 
Q 55.375 50.25 60.0625 53.125 
Q 64.75 56 71.09375 56 
Q 79.640625 56 84.28125 50.015625 
Q 88.921875 44.046875 88.921875 33.015625 
L 88.921875 0 
L 79.890625 0 
L 79.890625 32.71875 
Q 79.890625 40.578125 77.09375 44.375 
Q 74.3125 48.1875 68.609375 48.1875 
Q 61.625 48.1875 57.5625 43.546875 
Q 53.515625 38.921875 53.515625 30.90625 
L 53.515625 0 
L 44.484375 0 
L 44.484375 32.71875 
Q 44.484375 40.625 41.703125 44.40625 
Q 38.921875 48.1875 33.109375 48.1875 
Q 26.21875 48.1875 22.15625 43.53125 
Q 18.109375 38.875 18.109375 30.90625 
L 18.109375 0 
L 9.078125 0 
L 9.078125 54.6875 
L 18.109375 54.6875 
L 18.109375 46.1875 
Q 21.1875 51.21875 25.484375 53.609375 
Q 29.78125 56 35.6875 56 
Q 41.65625 56 45.828125 52.96875 
Q 50 49.953125 52 44.1875 
z
" id="DejaVuSans-109"/>
       <path d="M 45.40625 46.390625 
L 45.40625 75.984375 
L 54.390625 75.984375 
L 54.390625 0 
L 45.40625 0 
L 45.40625 8.203125 
Q 42.578125 3.328125 38.25 0.953125 
Q 33.9375 -1.421875 27.875 -1.421875 
Q 17.96875 -1.421875 11.734375 6.484375 
Q 5.515625 14.40625 5.515625 27.296875 
Q 5.515625 40.1875 11.734375 48.09375 
Q 17.96875 56 27.875 56 
Q 33.9375 56 38.25 53.625 
Q 42.578125 51.265625 45.40625 46.390625 
z
M 14.796875 27.296875 
Q 14.796875 17.390625 18.875 11.75 
Q 22.953125 6.109375 30.078125 6.109375 
Q 37.203125 6.109375 41.296875 11.75 
Q 45.40625 17.390625 45.40625 27.296875 
Q 45.40625 37.203125 41.296875 42.84375 
Q 37.203125 48.484375 30.078125 48.484375 
Q 22.953125 48.484375 18.875 42.84375 
Q 14.796875 37.203125 14.796875 27.296875 
z
" id="DejaVuSans-100"/>
       <path d="M 31 75.875 
Q 24.46875 64.65625 21.28125 53.65625 
Q 18.109375 42.671875 18.109375 31.390625 
Q 18.109375 20.125 21.3125 9.0625 
Q 24.515625 -2 31 -13.1875 
L 23.1875 -13.1875 
Q 15.875 -1.703125 12.234375 9.375 
Q 8.59375 20.453125 8.59375 31.390625 
Q 8.59375 42.28125 12.203125 53.3125 
Q 15.828125 64.359375 23.1875 75.875 
z
" id="DejaVuSans-40"/>
       <path d="M 48.6875 27.296875 
Q 48.6875 37.203125 44.609375 42.84375 
Q 40.53125 48.484375 33.40625 48.484375 
Q 26.265625 48.484375 22.1875 42.84375 
Q 18.109375 37.203125 18.109375 27.296875 
Q 18.109375 17.390625 22.1875 11.75 
Q 26.265625 6.109375 33.40625 6.109375 
Q 40.53125 6.109375 44.609375 11.75 
Q 48.6875 17.390625 48.6875 27.296875 
z
M 18.109375 46.390625 
Q 20.953125 51.265625 25.265625 53.625 
Q 29.59375 56 35.59375 56 
Q 45.5625 56 51.78125 48.09375 
Q 58.015625 40.1875 58.015625 27.296875 
Q 58.015625 14.40625 51.78125 6.484375 
Q 45.5625 -1.421875 35.59375 -1.421875 
Q 29.59375 -1.421875 25.265625 0.953125 
Q 20.953125 3.328125 18.109375 8.203125 
L 18.109375 0 
L 9.078125 0 
L 9.078125 75.984375 
L 18.109375 75.984375 
z
" id="DejaVuSans-98"/>
       <path d="M 18.109375 8.203125 
L 18.109375 -20.796875 
L 9.078125 -20.796875 
L 9.078125 54.6875 
L 18.109375 54.6875 
L 18.109375 46.390625 
Q 20.953125 51.265625 25.265625 53.625 
Q 29.59375 56 35.59375 56 
Q 45.5625 56 51.78125 48.09375 
Q 58.015625 40.1875 58.015625 27.296875 
Q 58.015625 14.40625 51.78125 6.484375 
Q 45.5625 -1.421875 35.59375 -1.421875 
Q 29.59375 -1.421875 25.265625 0.953125 
Q 20.953125 3.328125 18.109375 8.203125 
z
M 48.6875 27.296875 
Q 48.6875 37.203125 44.609375 42.84375 
Q 40.53125 48.484375 33.40625 48.484375 
Q 26.265625 48.484375 22.1875 42.84375 
Q 18.109375 37.203125 18.109375 27.296875 
Q 18.109375 17.390625 22.1875 11.75 
Q 26.265625 6.109375 33.40625 6.109375 
Q 40.53125 6.109375 44.609375 11.75 
Q 48.6875 17.390625 48.6875 27.296875 
z
" id="DejaVuSans-112"/>
       <path d="M 8.015625 75.875 
L 15.828125 75.875 
Q 23.140625 64.359375 26.78125 53.3125 
Q 30.421875 42.28125 30.421875 31.390625 
Q 30.421875 20.453125 26.78125 9.375 
Q 23.140625 -1.703125 15.828125 -13.1875 
L 8.015625 -13.1875 
Q 14.5 -2 17.703125 9.0625 
Q 20.90625 20.125 20.90625 31.390625 
Q 20.90625 42.671875 17.703125 53.65625 
Q 14.5 64.65625 8.015625 75.875 
z
" id="DejaVuSans-41"/>
      </defs>
      <use xlink:href="#DejaVuSans-76"/>
      <use x="53.962891" xlink:href="#DejaVuSans-101"/>
      <use x="115.486328" xlink:href="#DejaVuSans-110"/>
      <use x="178.865234" xlink:href="#DejaVuSans-103"/>
      <use x="242.341797" xlink:href="#DejaVuSans-116"/>
      <use x="281.550781" xlink:href="#DejaVuSans-104"/>
      <use x="344.929688" xlink:href="#DejaVuSans-32"/>
      <use x="376.716797" xlink:href="#DejaVuSans-84"/>
      <use x="423.050781" xlink:href="#DejaVuSans-114"/>
      <use x="464.164062" xlink:href="#DejaVuSans-105"/>
      <use x="491.947266" xlink:href="#DejaVuSans-109"/>
      <use x="589.359375" xlink:href="#DejaVuSans-109"/>
      <use x="686.771484" xlink:href="#DejaVuSans-101"/>
      <use x="748.294922" xlink:href="#DejaVuSans-100"/>
      <use x="811.771484" xlink:href="#DejaVuSans-32"/>
      <use x="843.558594" xlink:href="#DejaVuSans-40"/>
      <use x="882.572266" xlink:href="#DejaVuSans-98"/>
      <use x="946.048828" xlink:href="#DejaVuSans-112"/>
      <use x="1009.525391" xlink:href="#DejaVuSans-41"/>
     </g>
    </g>
   </g>
   <g id="matplotlib.axis_2">
    <g id="ytick_1">
     <g id="line2d_1">
      <path clip-path="url(#p5aa6e7d37a)" d="M 53.328125 275.50206 
L 993.358125 275.50206 
" style="fill:none;stroke:#dedede;stroke-linecap:square;"/>
     </g>
     <g id="text_9">
      <!-- 0 -->
      <g transform="translate(41.238125 278.541435)scale(0.08 -0.08)">
       <use xlink:href="#DejaVuSans-48"/>
      </g>
     </g>
    </g>
    <g id="ytick_2">
     <g id="line2d_2">
      <path clip-path="url(#p5aa6e7d37a)" d="M 53.328125 243.008259 
L 993.358125 243.008259 
" style="fill:none;stroke:#dedede;stroke-linecap:square;"/>
     </g>
     <g id="text_10">
      <!-- 5000 -->
      <g transform="translate(25.968125 246.047634)scale(0.08 -0.08)">
       <defs>
        <path d="M 10.796875 72.90625 
L 49.515625 72.90625 
L 49.515625 64.59375 
L 19.828125 64.59375 
L 19.828125 46.734375 
Q 21.96875 47.46875 24.109375 47.828125 
Q 26.265625 48.1875 28.421875 48.1875 
Q 40.625 48.1875 47.75 41.5 
Q 54.890625 34.8125 54.890625 23.390625 
Q 54.890625 11.625 47.5625 5.09375 
Q 40.234375 -1.421875 26.90625 -1.421875 
Q 22.3125 -1.421875 17.546875 -0.640625 
Q 12.796875 0.140625 7.71875 1.703125 
L 7.71875 11.625 
Q 12.109375 9.234375 16.796875 8.0625 
Q 21.484375 6.890625 26.703125 6.890625 
Q 35.15625 6.890625 40.078125 11.328125 
Q 45.015625 15.765625 45.015625 23.390625 
Q 45.015625 31 40.078125 35.4375 
Q 35.15625 39.890625 26.703125 39.890625 
Q 22.75 39.890625 18.8125 39.015625 
Q 14.890625 38.140625 10.796875 36.28125 
z
" id="DejaVuSans-53"/>
       </defs>
       <use xlink:href="#DejaVuSans-53"/>
       <use x="63.623047" xlink:href="#DejaVuSans-48"/>
       <use x="127.246094" xlink:href="#DejaVuSans-48"/>
       <use x="190.869141" xlink:href="#DejaVuSans-48"/>
      </g>
     </g>
    </g>
    <g id="ytick_3">
     <g id="line2d_3">
      <path clip-path="url(#p5aa6e7d37a)" d="M 53.328125 210.514458 
L 993.358125 210.514458 
" style="fill:none;stroke:#dedede;stroke-linecap:square;"/>
     </g>
     <g id="text_11">
      <!-- 10000 -->
      <g transform="translate(20.878125 213.553833)scale(0.08 -0.08)">
       <use xlink:href="#DejaVuSans-49"/>
       <use x="63.623047" xlink:href="#DejaVuSans-48"/>
       <use x="127.246094" xlink:href="#DejaVuSans-48"/>
       <use x="190.869141" xlink:href="#DejaVuSans-48"/>
       <use x="254.492188" xlink:href="#DejaVuSans-48"/>
      </g>
     </g>
    </g>
    <g id="ytick_4">
     <g id="line2d_4">
      <path clip-path="url(#p5aa6e7d37a)" d="M 53.328125 178.020657 
L 993.358125 178.020657 
" style="fill:none;stroke:#dedede;stroke-linecap:square;"/>
     </g>
     <g id="text_12">
      <!-- 15000 -->
      <g transform="translate(20.878125 181.060032)scale(0.08 -0.08)">
       <use xlink:href="#DejaVuSans-49"/>
       <use x="63.623047" xlink:href="#DejaVuSans-53"/>
       <use x="127.246094" xlink:href="#DejaVuSans-48"/>
       <use x="190.869141" xlink:href="#DejaVuSans-48"/>
       <use x="254.492188" xlink:href="#DejaVuSans-48"/>
      </g>
     </g>
    </g>
    <g id="ytick_5">
     <g id="line2d_5">
      <path clip-path="url(#p5aa6e7d37a)" d="M 53.328125 145.526856 
L 993.358125 145.526856 
" style="fill:none;stroke:#dedede;stroke-linecap:square;"/>
     </g>
     <g id="text_13">
      <!-- 20000 -->
      <g transform="translate(20.878125 148.566231)scale(0.08 -0.08)">
       <use xlink:href="#DejaVuSans-50"/>
       <use x="63.623047" xlink:href="#DejaVuSans-48"/>
       <use x="127.246094" xlink:href="#DejaVuSans-48"/>
       <use x="190.869141" xlink:href="#DejaVuSans-48"/>
       <use x="254.492188" xlink:href="#DejaVuSans-48"/>
      </g>
     </g>
    </g>
    <g id="ytick_6">
     <g id="line2d_6">
      <path clip-path="url(#p5aa6e7d37a)" d="M 53.328125 113.033055 
L 993.358125 113.033055 
" style="fill:none;stroke:#dedede;stroke-linecap:square;"/>
     </g>
     <g id="text_14">
      <!-- 25000 -->
      <g transform="translate(20.878125 116.07243)scale(0.08 -0.08)">
       <use xlink:href="#DejaVuSans-50"/>
       <use x="63.623047" xlink:href="#DejaVuSans-53"/>
       <use x="127.246094" xlink:href="#DejaVuSans-48"/>
       <use x="190.869141" xlink:href="#DejaVuSans-48"/>
       <use x="254.492188" xlink:href="#DejaVuSans-48"/>
      </g>
     </g>
    </g>
    <g id="ytick_7">
     <g id="line2d_7">
      <path clip-path="url(#p5aa6e7d37a)" d="M 53.328125 80.539254 
L 993.358125 80.539254 
" style="fill:none;stroke:#dedede;stroke-linecap:square;"/>
     </g>
     <g id="text_15">
      <!-- 30000 -->
      <g transform="translate(20.878125 83.578629)scale(0.08 -0.08)">
       <defs>
        <path d="M 40.578125 39.3125 
Q 47.65625 37.796875 51.625 33 
Q 55.609375 28.21875 55.609375 21.1875 
Q 55.609375 10.40625 48.1875 4.484375 
Q 40.765625 -1.421875 27.09375 -1.421875 
Q 22.515625 -1.421875 17.65625 -0.515625 
Q 12.796875 0.390625 7.625 2.203125 
L 7.625 11.71875 
Q 11.71875 9.328125 16.59375 8.109375 
Q 21.484375 6.890625 26.8125 6.890625 
Q 36.078125 6.890625 40.9375 10.546875 
Q 45.796875 14.203125 45.796875 21.1875 
Q 45.796875 27.640625 41.28125 31.265625 
Q 36.765625 34.90625 28.71875 34.90625 
L 20.21875 34.90625 
L 20.21875 43.015625 
L 29.109375 43.015625 
Q 36.375 43.015625 40.234375 45.921875 
Q 44.09375 48.828125 44.09375 54.296875 
Q 44.09375 59.90625 40.109375 62.90625 
Q 36.140625 65.921875 28.71875 65.921875 
Q 24.65625 65.921875 20.015625 65.03125 
Q 15.375 64.15625 9.8125 62.3125 
L 9.8125 71.09375 
Q 15.4375 72.65625 20.34375 73.4375 
Q 25.25 74.21875 29.59375 74.21875 
Q 40.828125 74.21875 47.359375 69.109375 
Q 53.90625 64.015625 53.90625 55.328125 
Q 53.90625 49.265625 50.4375 45.09375 
Q 46.96875 40.921875 40.578125 39.3125 
z
" id="DejaVuSans-51"/>
       </defs>
       <use xlink:href="#DejaVuSans-51"/>
       <use x="63.623047" xlink:href="#DejaVuSans-48"/>
       <use x="127.246094" xlink:href="#DejaVuSans-48"/>
       <use x="190.869141" xlink:href="#DejaVuSans-48"/>
       <use x="254.492188" xlink:href="#DejaVuSans-48"/>
      </g>
     </g>
    </g>
    <g id="ytick_8">
     <g id="line2d_8">
      <path clip-path="url(#p5aa6e7d37a)" d="M 53.328125 48.045453 
L 993.358125 48.045453 
" style="fill:none;stroke:#dedede;stroke-linecap:square;"/>
     </g>
     <g id="text_16">
      <!-- 35000 -->
      <g transform="translate(20.878125 51.084828)scale(0.08 -0.08)">
       <use xlink:href="#DejaVuSans-51"/>
       <use x="63.623047" xlink:href="#DejaVuSans-53"/>
       <use x="127.246094" xlink:href="#DejaVuSans-48"/>
       <use x="190.869141" xlink:href="#DejaVuSans-48"/>
       <use x="254.492188" xlink:href="#DejaVuSans-48"/>
      </g>
     </g>
    </g>
    <g id="text_17">
     <!-- Observed / Expected -->
     <g transform="translate(14.798438 205.777679)rotate(-90)scale(0.1 -0.1)">
      <defs>
       <path d="M 39.40625 66.21875 
Q 28.65625 66.21875 22.328125 58.203125 
Q 16.015625 50.203125 16.015625 36.375 
Q 16.015625 22.609375 22.328125 14.59375 
Q 28.65625 6.59375 39.40625 6.59375 
Q 50.140625 6.59375 56.421875 14.59375 
Q 62.703125 22.609375 62.703125 36.375 
Q 62.703125 50.203125 56.421875 58.203125 
Q 50.140625 66.21875 39.40625 66.21875 
z
M 39.40625 74.21875 
Q 54.734375 74.21875 63.90625 63.9375 
Q 73.09375 53.65625 73.09375 36.375 
Q 73.09375 19.140625 63.90625 8.859375 
Q 54.734375 -1.421875 39.40625 -1.421875 
Q 24.03125 -1.421875 14.8125 8.828125 
Q 5.609375 19.09375 5.609375 36.375 
Q 5.609375 53.65625 14.8125 63.9375 
Q 24.03125 74.21875 39.40625 74.21875 
z
" id="DejaVuSans-79"/>
       <path d="M 44.28125 53.078125 
L 44.28125 44.578125 
Q 40.484375 46.53125 36.375 47.5 
Q 32.28125 48.484375 27.875 48.484375 
Q 21.1875 48.484375 17.84375 46.4375 
Q 14.5 44.390625 14.5 40.28125 
Q 14.5 37.15625 16.890625 35.375 
Q 19.28125 33.59375 26.515625 31.984375 
L 29.59375 31.296875 
Q 39.15625 29.25 43.1875 25.515625 
Q 47.21875 21.78125 47.21875 15.09375 
Q 47.21875 7.46875 41.1875 3.015625 
Q 35.15625 -1.421875 24.609375 -1.421875 
Q 20.21875 -1.421875 15.453125 -0.5625 
Q 10.6875 0.296875 5.421875 2 
L 5.421875 11.28125 
Q 10.40625 8.6875 15.234375 7.390625 
Q 20.0625 6.109375 24.8125 6.109375 
Q 31.15625 6.109375 34.5625 8.28125 
Q 37.984375 10.453125 37.984375 14.40625 
Q 37.984375 18.0625 35.515625 20.015625 
Q 33.0625 21.96875 24.703125 23.78125 
L 21.578125 24.515625 
Q 13.234375 26.265625 9.515625 29.90625 
Q 5.8125 33.546875 5.8125 39.890625 
Q 5.8125 47.609375 11.28125 51.796875 
Q 16.75 56 26.8125 56 
Q 31.78125 56 36.171875 55.265625 
Q 40.578125 54.546875 44.28125 53.078125 
z
" id="DejaVuSans-115"/>
       <path d="M 2.984375 54.6875 
L 12.5 54.6875 
L 29.59375 8.796875 
L 46.6875 54.6875 
L 56.203125 54.6875 
L 35.6875 0 
L 23.484375 0 
z
" id="DejaVuSans-118"/>
       <path d="M 25.390625 72.90625 
L 33.6875 72.90625 
L 8.296875 -9.28125 
L 0 -9.28125 
z
" id="DejaVuSans-47"/>
       <path d="M 9.8125 72.90625 
L 55.90625 72.90625 
L 55.90625 64.59375 
L 19.671875 64.59375 
L 19.671875 43.015625 
L 54.390625 43.015625 
L 54.390625 34.71875 
L 19.671875 34.71875 
L 19.671875 8.296875 
L 56.78125 8.296875 
L 56.78125 0 
L 9.8125 0 
z
" id="DejaVuSans-69"/>
       <path d="M 54.890625 54.6875 
L 35.109375 28.078125 
L 55.90625 0 
L 45.3125 0 
L 29.390625 21.484375 
L 13.484375 0 
L 2.875 0 
L 24.125 28.609375 
L 4.6875 54.6875 
L 15.28125 54.6875 
L 29.78125 35.203125 
L 44.28125 54.6875 
z
" id="DejaVuSans-120"/>
       <path d="M 48.78125 52.59375 
L 48.78125 44.1875 
Q 44.96875 46.296875 41.140625 47.34375 
Q 37.3125 48.390625 33.40625 48.390625 
Q 24.65625 48.390625 19.8125 42.84375 
Q 14.984375 37.3125 14.984375 27.296875 
Q 14.984375 17.28125 19.8125 11.734375 
Q 24.65625 6.203125 33.40625 6.203125 
Q 37.3125 6.203125 41.140625 7.25 
Q 44.96875 8.296875 48.78125 10.40625 
L 48.78125 2.09375 
Q 45.015625 0.34375 40.984375 -0.53125 
Q 36.96875 -1.421875 32.421875 -1.421875 
Q 20.0625 -1.421875 12.78125 6.34375 
Q 5.515625 14.109375 5.515625 27.296875 
Q 5.515625 40.671875 12.859375 48.328125 
Q 20.21875 56 33.015625 56 
Q 37.15625 56 41.109375 55.140625 
Q 45.0625 54.296875 48.78125 52.59375 
z
" id="DejaVuSans-99"/>
      </defs>
      <use xlink:href="#DejaVuSans-79"/>
      <use x="78.710938" xlink:href="#DejaVuSans-98"/>
      <use x="142.1875" xlink:href="#DejaVuSans-115"/>
      <use x="194.287109" xlink:href="#DejaVuSans-101"/>
      <use x="255.810547" xlink:href="#DejaVuSans-114"/>
      <use x="296.923828" xlink:href="#DejaVuSans-118"/>
      <use x="356.103516" xlink:href="#DejaVuSans-101"/>
      <use x="417.626953" xlink:href="#DejaVuSans-100"/>
      <use x="481.103516" xlink:href="#DejaVuSans-32"/>
      <use x="512.890625" xlink:href="#DejaVuSans-47"/>
      <use x="546.582031" xlink:href="#DejaVuSans-32"/>
      <use x="578.369141" xlink:href="#DejaVuSans-69"/>
      <use x="641.552734" xlink:href="#DejaVuSans-120"/>
      <use x="700.732422" xlink:href="#DejaVuSans-112"/>
      <use x="764.208984" xlink:href="#DejaVuSans-101"/>
      <use x="825.732422" xlink:href="#DejaVuSans-99"/>
      <use x="880.712891" xlink:href="#DejaVuSans-116"/>
      <use x="919.921875" xlink:href="#DejaVuSans-101"/>
      <use x="981.445312" xlink:href="#DejaVuSans-100"/>
     </g>
    </g>
   </g>
   <g id="line2d_9">
    <path clip-path="url(#p5aa6e7d37a)" d="M 96.056761 275.500087 
L 103.061456 275.501093 
L 110.06615 275.501499 
L 117.070845 275.501421 
L 124.075539 275.497653 
L 131.080234 275.494749 
L 138.084928 275.488298 
L 145.089623 275.158008 
L 152.094317 275.273056 
L 159.099012 273.214496 
L 166.103706 259.060197 
L 173.108401 268.613374 
L 180.113095 258.280345 
L 187.11779 269.848139 
L 194.122484 258.800246 
L 201.127179 248.207267 
L 208.131873 269.653176 
L 215.136568 252.886375 
L 222.141262 264.64913 
L 229.145957 245.802726 
L 236.150651 267.248635 
L 243.155346 269.26325 
L 250.16004 247.687366 
L 257.164735 267.898511 
L 264.169429 248.207267 
L 271.174124 239.044015 
L 278.178818 266.533771 
L 285.183512 257.045581 
L 292.188207 266.923697 
L 299.192901 243.593147 
L 306.197596 265.363994 
L 313.20229 248.012304 
L 320.206985 250.156895 
L 327.211679 267.053672 
L 334.216374 266.858709 
L 341.221068 243.52816 
L 348.225763 263.154416 
L 355.230457 222.797115 
L 362.235152 242.358383 
L 369.239846 267.183647 
L 376.244541 260.87985 
L 383.249235 266.533771 
L 390.25393 254.965978 
L 397.258624 230.530639 
L 404.263319 251.39166 
L 411.268013 270.303052 
L 418.272708 254.316102 
L 425.277402 227.671185 
L 432.282097 245.217837 
L 439.286791 225.006693 
L 446.291486 163.658397 
L 453.29618 239.238978 
L 460.300875 220.847487 
L 467.305569 251.261684 
L 474.310264 250.611808 
L 481.314958 236.574486 
L 488.319653 250.936746 
L 495.324347 187.053934 
L 502.329042 229.100912 
L 509.333736 244.632949 
L 516.338431 222.92709 
L 523.343125 208.434855 
L 530.347819 264.519155 
L 537.352514 264.454168 
L 544.357208 259.645085 
L 551.361903 257.760445 
L 558.366597 255.745829 
L 565.371292 260.489924 
L 572.375986 267.313622 
L 579.380681 268.678362 
L 586.385375 265.948883 
L 593.39007 257.045581 
L 600.394764 245.217837 
L 607.399459 231.830391 
L 614.404153 234.03997 
L 621.408848 230.205701 
L 628.413542 234.884809 
L 635.418237 234.494883 
L 642.422931 232.870193 
L 649.427626 233.195131 
L 656.43232 239.693891 
L 663.437015 239.109003 
L 670.441709 245.607763 
L 677.446404 247.817342 
L 684.451098 249.312056 
L 691.455793 246.192652 
L 698.460487 247.817342 
L 705.465182 244.827912 
L 712.469876 244.372999 
L 719.474571 246.712552 
L 726.479265 241.318581 
L 733.48396 243.203222 
L 740.488654 243.918085 
L 747.493349 245.347813 
L 754.498043 246.452602 
L 761.502738 244.372999 
L 768.507432 237.159375 
L 775.512126 230.140714 
L 782.516821 211.099346 
L 789.521515 193.162768 
L 796.52621 161.838744 
L 803.530904 140.522811 
L 810.535599 116.867324 
L 817.540293 117.192262 
L 824.544988 129.734869 
L 831.549682 145.006955 
L 838.554377 168.077554 
L 845.559071 195.502322 
L 852.563766 218.962846 
L 859.56846 240.993643 
L 866.573155 255.420891 
L 873.577849 262.959453 
L 880.582544 268.223449 
L 887.587238 269.133275 
L 894.591933 269.978114 
L 901.596627 267.37861 
L 908.601322 265.493969 
L 915.606016 264.12923 
L 922.610711 266.988684 
L 929.615405 262.634515 
L 936.6201 260.619899 
L 943.624794 256.590668 
L 950.629489 257.760445 
" style="fill:none;stroke:#7cb5ec;stroke-linecap:square;"/>
   </g>
   <g id="line2d_10">
    <path clip-path="url(#p5aa6e7d37a)" d="M 96.056761 275.5002 
L 103.061456 275.501254 
L 110.06615 275.501549 
L 117.070845 275.501464 
L 124.075539 275.49703 
L 131.080234 275.49538 
L 138.084928 275.486882 
L 145.089623 275.141208 
L 152.094317 275.233559 
L 159.099012 273.363968 
L 166.103706 262.407058 
L 173.108401 271.212878 
L 180.113095 260.749874 
L 187.11779 271.31036 
L 194.122484 261.497232 
L 201.127179 255.58336 
L 208.131873 270.530508 
L 215.136568 255.095953 
L 222.141262 266.371302 
L 229.145957 248.857143 
L 236.150651 268.028486 
L 243.155346 270.530508 
L 250.16004 248.012304 
L 257.164735 269.458213 
L 264.169429 256.395705 
L 271.174124 244.47048 
L 278.178818 267.118659 
L 285.183512 259.970023 
L 292.188207 267.801029 
L 299.192901 243.495666 
L 306.197596 266.208833 
L 313.20229 245.445294 
L 320.206985 253.536251 
L 327.211679 267.346116 
L 334.216374 268.255942 
L 341.221068 244.892899 
L 348.225763 264.12923 
L 355.230457 214.868627 
L 362.235152 243.625641 
L 369.239846 266.566265 
L 376.244541 261.432244 
L 383.249235 267.37861 
L 390.25393 257.662963 
L 397.258624 232.902687 
L 404.263319 254.933484 
L 411.268013 271.797767 
L 418.272708 253.95867 
L 425.277402 226.371433 
L 432.282097 242.618333 
L 439.286791 220.912474 
L 446.291486 148.938705 
L 453.29618 232.805206 
L 460.300875 212.75653 
L 467.305569 250.676796 
L 474.310264 247.199959 
L 481.314958 237.906732 
L 488.319653 253.731213 
L 495.324347 177.630731 
L 502.329042 224.096867 
L 509.333736 247.394922 
L 516.338431 220.165117 
L 523.343125 199.304097 
L 530.347819 262.114614 
L 537.352514 263.381872 
L 544.357208 260.87985 
L 551.361903 257.078075 
L 558.366597 255.908298 
L 565.371292 259.677579 
L 572.375986 268.06098 
L 579.380681 268.125967 
L 586.385375 265.136537 
L 593.39007 252.528943 
L 600.394764 239.044015 
L 607.399459 231.537947 
L 614.404153 229.685801 
L 621.408848 225.331631 
L 628.413542 227.80116 
L 635.418237 228.613505 
L 642.422931 229.035925 
L 649.427626 231.05054 
L 656.43232 235.014784 
L 663.437015 236.639474 
L 670.441709 238.556608 
L 677.446404 242.520852 
L 684.451098 240.798681 
L 691.455793 242.130926 
L 698.460487 241.676013 
L 705.465182 242.553346 
L 712.469876 243.625641 
L 719.474571 241.026137 
L 726.479265 243.203222 
L 733.48396 242.780802 
L 740.488654 245.4128 
L 747.493349 245.607763 
L 754.498043 248.792156 
L 761.502738 246.160158 
L 768.507432 236.152067 
L 775.512126 223.252028 
L 782.516821 205.412931 
L 789.521515 183.447122 
L 796.52621 156.574748 
L 803.530904 133.471656 
L 810.535599 115.600065 
L 817.540293 116.249941 
L 824.544988 133.50415 
L 831.549682 151.765666 
L 838.554377 177.403275 
L 845.559071 203.333328 
L 852.563766 230.36817 
L 859.56846 240.701199 
L 866.573155 253.081337 
L 873.577849 261.789676 
L 880.582544 268.938312 
L 887.587238 268.678362 
L 894.591933 269.393225 
L 901.596627 268.840831 
L 908.601322 266.501277 
L 915.606016 266.241327 
L 922.610711 265.981376 
L 929.615405 265.786414 
L 936.6201 267.606066 
L 943.624794 263.641823 
L 950.629489 260.132492 
" style="fill:none;stroke:#434348;stroke-linecap:square;"/>
   </g>
   <g id="line2d_11">
    <path clip-path="url(#p5aa6e7d37a)" d="M 96.056761 275.500171 
L 103.061456 275.500689 
L 110.06615 275.501626 
L 117.070845 275.501272 
L 124.075539 275.495976 
L 131.080234 275.493397 
L 138.084928 275.48561 
L 145.089623 275.079641 
L 152.094317 275.238396 
L 159.099012 272.945881 
L 166.103706 257.110569 
L 173.108401 270.173077 
L 180.113095 258.377827 
L 187.11779 270.985422 
L 194.122484 256.52568 
L 201.127179 246.77754 
L 208.131873 269.26325 
L 215.136568 249.312056 
L 222.141262 262.699502 
L 229.145957 243.138234 
L 236.150651 266.371302 
L 243.155346 268.743349 
L 250.16004 245.347813 
L 257.164735 269.068287 
L 264.169429 245.575269 
L 271.174124 234.137451 
L 278.178818 263.251897 
L 285.183512 256.005779 
L 292.188207 267.476091 
L 299.192901 236.801943 
L 306.197596 263.44686 
L 313.20229 236.412017 
L 320.206985 246.257639 
L 327.211679 265.136537 
L 334.216374 267.508585 
L 341.221068 243.365691 
L 348.225763 263.641823 
L 355.230457 205.5754 
L 362.235152 239.271472 
L 369.239846 266.111352 
L 376.244541 260.45743 
L 383.249235 265.981376 
L 390.25393 252.528943 
L 397.258624 227.508716 
L 404.263319 250.124401 
L 411.268013 270.498015 
L 418.272708 247.784848 
L 425.277402 218.345464 
L 432.282097 241.870976 
L 439.286791 216.493317 
L 446.291486 131.19709 
L 453.29618 228.191086 
L 460.300875 206.907646 
L 467.305569 250.156895 
L 474.310264 246.225145 
L 481.314958 234.819821 
L 488.319653 251.39166 
L 495.324347 163.041015 
L 502.329042 217.305662 
L 509.333736 242.780802 
L 516.338431 215.128578 
L 523.343125 194.592496 
L 530.347819 263.771798 
L 537.352514 264.291699 
L 544.357208 257.143062 
L 551.361903 253.796201 
L 558.366597 254.771015 
L 565.371292 258.767752 
L 572.375986 267.866017 
L 579.380681 267.443597 
L 586.385375 264.941575 
L 593.39007 251.879067 
L 600.394764 239.433941 
L 607.399459 228.386049 
L 614.404153 224.714249 
L 621.408848 221.789807 
L 628.413542 220.62003 
L 635.418237 223.284522 
L 642.422931 224.876718 
L 649.427626 226.891334 
L 656.43232 228.028617 
L 663.437015 231.018046 
L 670.441709 234.917303 
L 677.446404 238.426633 
L 684.451098 237.159375 
L 691.455793 236.34703 
L 698.460487 234.852315 
L 705.465182 239.33646 
L 712.469876 236.834437 
L 719.474571 237.159375 
L 726.479265 237.646782 
L 733.48396 236.639474 
L 740.488654 238.719077 
L 747.493349 241.643519 
L 754.498043 242.488358 
L 761.502738 240.181298 
L 768.507432 229.913257 
L 775.512126 213.536382 
L 782.516821 189.750919 
L 789.521515 158.849314 
L 796.52621 123.33359 
L 803.530904 94.934008 
L 810.535599 69.426374 
L 817.540293 72.64326 
L 824.544988 89.962456 
L 831.549682 116.997299 
L 838.554377 148.54878 
L 845.559071 180.717643 
L 852.563766 207.914954 
L 859.56846 232.610243 
L 866.573155 246.127664 
L 873.577849 257.695457 
L 880.582544 268.775843 
L 887.587238 267.736042 
L 894.591933 269.68567 
L 901.596627 267.573573 
L 908.601322 263.349378 
L 915.606016 260.229974 
L 922.610711 260.424936 
L 929.615405 262.049626 
L 936.6201 262.017133 
L 943.624794 260.294961 
L 950.629489 260.002517 
" style="fill:none;stroke:#90ed7d;stroke-linecap:square;"/>
   </g>
   <g id="line2d_12">
    <path clip-path="url(#p5aa6e7d37a)" d="M 96.056761 275.499665 
L 103.061456 275.500939 
L 110.06615 275.501489 
L 117.070845 275.501315 
L 124.075539 275.493603 
L 131.080234 275.494628 
L 138.084928 275.483913 
L 145.089623 275.035365 
L 152.094317 275.184679 
L 159.099012 272.524446 
L 166.103706 258.085383 
L 173.108401 270.324714 
L 180.113095 258.821909 
L 187.11779 270.649652 
L 194.122484 255.269253 
L 201.127179 247.297441 
L 208.131873 269.501538 
L 215.136568 247.319103 
L 222.141262 264.38918 
L 229.145957 241.621857 
L 236.150651 264.757443 
L 243.155346 267.703548 
L 250.16004 238.675752 
L 257.164735 267.140322 
L 264.169429 246.300964 
L 271.174124 235.707985 
L 278.178818 262.396227 
L 285.183512 253.991164 
L 292.188207 265.948883 
L 299.192901 238.870715 
L 306.197596 263.262728 
L 313.20229 233.931657 
L 320.206985 245.347813 
L 327.211679 264.670793 
L 334.216374 266.122183 
L 341.221068 242.943271 
L 348.225763 263.067765 
L 355.230457 205.618725 
L 362.235152 243.181559 
L 369.239846 266.923697 
L 376.244541 259.060197 
L 383.249235 266.078858 
L 390.25393 251.543297 
L 397.258624 226.046495 
L 404.263319 253.01635 
L 411.268013 270.649652 
L 418.272708 251.39166 
L 425.277402 221.064112 
L 432.282097 244.134711 
L 439.286791 218.074682 
L 446.291486 145.266906 
L 453.29618 229.534163 
L 460.300875 212.507411 
L 467.305569 253.427938 
L 474.310264 248.423893 
L 481.314958 235.469697 
L 488.319653 253.601238 
L 495.324347 177.695719 
L 502.329042 224.768405 
L 509.333736 245.196175 
L 516.338431 222.992078 
L 523.343125 200.008129 
L 530.347819 262.027964 
L 537.352514 266.035533 
L 544.357208 259.190172 
L 551.361903 257.955407 
L 558.366597 258.821909 
L 565.371292 263.046103 
L 572.375986 269.674838 
L 579.380681 269.783151 
L 586.385375 266.035533 
L 593.39007 257.955407 
L 600.394764 243.809773 
L 607.399459 234.494883 
L 614.404153 233.996645 
L 621.408848 233.000168 
L 628.413542 233.455082 
L 635.418237 230.422327 
L 642.422931 232.956843 
L 649.427626 235.859623 
L 656.43232 239.195653 
L 663.437015 241.470219 
L 670.441709 243.051584 
L 677.446404 244.936225 
L 684.451098 246.019351 
L 691.455793 246.625902 
L 698.460487 247.774016 
L 705.465182 245.0662 
L 712.469876 244.784587 
L 719.474571 242.531683 
L 726.479265 242.531683 
L 733.48396 242.033445 
L 740.488654 244.113048 
L 747.493349 243.87476 
L 754.498043 243.983073 
L 761.502738 242.531683 
L 768.507432 237.397663 
L 775.512126 225.743219 
L 782.516821 212.680711 
L 789.521515 198.405102 
L 796.52621 181.833263 
L 803.530904 170.09217 
L 810.535599 161.362168 
L 817.540293 166.886115 
L 824.544988 177.110831 
L 831.549682 193.790982 
L 838.554377 204.340636 
L 845.559071 215.410191 
L 852.563766 231.787066 
L 859.56846 244.156373 
L 866.573155 255.854142 
L 873.577849 264.800768 
L 880.582544 270.216402 
L 887.587238 271.017915 
L 894.591933 272.750918 
L 901.596627 271.624466 
L 908.601322 270.671315 
L 915.606016 271.364516 
L 922.610711 269.804814 
L 929.615405 272.274342 
L 936.6201 271.884417 
L 943.624794 269.956451 
L 950.629489 269.024962 
" style="fill:none;stroke:#f7a35c;stroke-linecap:square;"/>
   </g>
   <g id="line2d_13">
    <path clip-path="url(#p5aa6e7d37a)" d="M 96.056761 275.500221 
L 103.061456 275.501063 
L 110.06615 275.501614 
L 117.070845 275.50167 
L 124.075539 275.499333 
L 131.080234 275.497567 
L 138.084928 275.491135 
L 145.089623 275.216227 
L 152.094317 275.284688 
L 159.099012 273.635987 
L 166.103706 266.517524 
L 173.108401 273.487444 
L 180.113095 268.662115 
L 187.11779 273.649913 
L 194.122484 267.362363 
L 201.127179 263.138169 
L 208.131873 273.227494 
L 215.136568 263.560588 
L 222.141262 271.164138 
L 229.145957 262.260836 
L 236.150651 271.391594 
L 243.155346 272.545124 
L 250.16004 262.55328 
L 257.164735 272.626359 
L 264.169429 262.910712 
L 271.174124 258.881481 
L 278.178818 270.774212 
L 285.183512 267.199894 
L 292.188207 271.716532 
L 299.192901 259.758813 
L 306.197596 270.400533 
L 313.20229 258.280345 
L 320.206985 261.854664 
L 327.211679 270.595496 
L 334.216374 272.057717 
L 341.221068 261.383503 
L 348.225763 270.692977 
L 355.230457 243.576901 
L 362.235152 260.083751 
L 369.239846 271.651545 
L 376.244541 268.613374 
L 383.249235 270.62799 
L 390.25393 263.495601 
L 397.258624 250.806771 
L 404.263319 265.867648 
L 411.268013 273.195 
L 418.272708 265.315253 
L 425.277402 249.913192 
L 432.282097 256.769384 
L 439.286791 242.277149 
L 446.291486 207.265078 
L 453.29618 249.052106 
L 460.300875 238.020461 
L 467.305569 262.472046 
L 474.310264 260.132492 
L 481.314958 252.496449 
L 488.319653 261.773429 
L 495.324347 222.683387 
L 502.329042 243.31695 
L 509.333736 258.995209 
L 516.338431 246.826281 
L 523.343125 236.493252 
L 530.347819 269.344485 
L 537.352514 269.441966 
L 544.357208 266.501277 
L 551.361903 264.194217 
L 558.366597 263.44686 
L 565.371292 266.338808 
L 572.375986 271.424088 
L 579.380681 271.342853 
L 586.385375 269.636929 
L 593.39007 264.665377 
L 600.394764 257.630469 
L 607.399459 251.39166 
L 614.404153 248.061045 
L 621.408848 245.591516 
L 628.413542 246.078923 
L 635.418237 247.329935 
L 642.422931 249.003365 
L 649.427626 250.96924 
L 656.43232 252.366474 
L 663.437015 253.227559 
L 670.441709 252.902621 
L 677.446404 254.576052 
L 684.451098 254.608546 
L 691.455793 254.511065 
L 698.460487 252.54519 
L 705.465182 252.057783 
L 712.469876 248.515958 
L 719.474571 243.73937 
L 726.479265 239.791373 
L 733.48396 238.18293 
L 740.488654 237.175622 
L 747.493349 236.541993 
L 754.498043 237.208116 
L 761.502738 233.081403 
L 768.507432 223.576966 
L 775.512126 215.713466 
L 782.516821 205.721622 
L 789.521515 192.772843 
L 796.52621 183.690825 
L 803.530904 175.421153 
L 810.535599 173.893944 
L 817.540293 182.894727 
L 824.544988 198.13432 
L 831.549682 212.28537 
L 838.554377 229.832023 
L 845.559071 247.167466 
L 852.563766 253.796201 
L 859.56846 263.544341 
L 866.573155 268.353424 
L 873.577849 271.196631 
L 880.582544 273.308728 
L 887.587238 272.967544 
L 894.591933 273.373716 
L 901.596627 272.837568 
L 908.601322 270.644237 
L 915.606016 269.360732 
L 922.610711 268.808337 
L 929.615405 270.871693 
L 936.6201 270.985422 
L 943.624794 269.490707 
L 950.629489 266.43629 
" style="fill:none;stroke:#8085e9;stroke-linecap:square;"/>
   </g>
   <g id="line2d_14">
    <path clip-path="url(#p5aa6e7d37a)" d="M 96.056761 275.499334 
L 103.061456 275.50126 
L 110.06615 275.501506 
L 117.070845 275.501727 
L 124.075539 275.500343 
L 131.080234 275.49924 
L 138.084928 275.489798 
L 145.089623 275.305128 
L 152.094317 275.37973 
L 159.099012 274.072333 
L 166.103706 267.573573 
L 173.108401 273.227494 
L 180.113095 269.848139 
L 187.11779 273.747395 
L 194.122484 267.703548 
L 201.127179 263.739304 
L 208.131873 273.292482 
L 215.136568 265.75392 
L 222.141262 271.992729 
L 229.145957 263.02444 
L 236.150651 271.862754 
L 243.155346 272.25268 
L 250.16004 265.558957 
L 257.164735 273.61742 
L 264.169429 264.584143 
L 271.174124 259.710073 
L 278.178818 271.732779 
L 285.183512 268.613374 
L 292.188207 273.162506 
L 299.192901 265.169031 
L 306.197596 272.057717 
L 313.20229 259.710073 
L 320.206985 262.569527 
L 327.211679 271.147891 
L 334.216374 271.472829 
L 341.221068 265.883895 
L 348.225763 271.537816 
L 355.230457 246.452602 
L 362.235152 265.428982 
L 369.239846 271.537816 
L 376.244541 269.848139 
L 383.249235 272.447643 
L 390.25393 265.818907 
L 397.258624 256.135755 
L 404.263319 266.468783 
L 411.268013 274.072333 
L 418.272708 265.883895 
L 425.277402 256.005779 
L 432.282097 261.594713 
L 439.286791 249.636994 
L 446.291486 227.151284 
L 453.29618 257.955407 
L 460.300875 249.507019 
L 467.305569 266.403796 
L 474.310264 264.909081 
L 481.314958 258.280345 
L 488.319653 265.428982 
L 495.324347 231.570441 
L 502.329042 253.666226 
L 509.333736 261.334763 
L 516.338431 253.2763 
L 523.343125 248.272255 
L 530.347819 270.62799 
L 537.352514 271.927742 
L 544.357208 268.938312 
L 551.361903 267.833523 
L 558.366597 268.873325 
L 565.371292 269.913126 
L 572.375986 271.862754 
L 579.380681 272.51263 
L 586.385375 272.057717 
L 593.39007 266.533771 
L 600.394764 262.76449 
L 607.399459 258.280345 
L 614.404153 256.590668 
L 621.408848 255.095953 
L 628.413542 252.626424 
L 635.418237 253.666226 
L 642.422931 255.420891 
L 649.427626 257.370519 
L 656.43232 257.370519 
L 663.437015 256.850618 
L 670.441709 260.619899 
L 677.446404 259.840048 
L 684.451098 257.955407 
L 691.455793 255.355903 
L 698.460487 254.90099 
L 705.465182 251.456647 
L 712.469876 251.261684 
L 719.474571 246.322627 
L 726.479265 242.293395 
L 733.48396 237.159375 
L 740.488654 234.624858 
L 747.493349 234.689846 
L 754.498043 228.516024 
L 761.502738 226.761359 
L 768.507432 220.392574 
L 775.512126 209.994557 
L 782.516821 209.864582 
L 789.521515 205.445425 
L 796.52621 199.466566 
L 803.530904 199.206615 
L 810.535599 203.300834 
L 817.540293 216.68828 
L 824.544988 228.581011 
L 831.549682 233.845007 
L 838.554377 245.737738 
L 845.559071 252.106523 
L 852.563766 261.529726 
L 859.56846 265.299006 
L 866.573155 268.353424 
L 873.577849 270.368039 
L 880.582544 273.292482 
L 887.587238 272.967544 
L 894.591933 274.397271 
L 901.596627 273.097519 
L 908.601322 273.032531 
L 915.606016 273.162506 
L 922.610711 271.797767 
L 929.615405 271.212878 
L 936.6201 268.158461 
L 943.624794 268.938312 
L 950.629489 271.472829 
" style="fill:none;stroke:#f15c80;stroke-linecap:square;"/>
   </g>
   <g id="line2d_15">
    <path clip-path="url(#p5aa6e7d37a)" d="M 96.056761 275.498779 
L 103.061456 275.501193 
L 110.06615 275.50126 
L 117.070845 275.501512 
L 124.075539 275.49748 
L 131.080234 275.49868 
L 138.084928 275.489015 
L 145.089623 275.281667 
L 152.094317 275.303274 
L 159.099012 274.007345 
L 166.103706 267.313622 
L 173.108401 273.097519 
L 180.113095 270.173077 
L 187.11779 273.682407 
L 194.122484 265.169031 
L 201.127179 260.229974 
L 208.131873 272.25268 
L 215.136568 262.699502 
L 222.141262 271.732779 
L 229.145957 260.684887 
L 236.150651 271.407841 
L 243.155346 272.51263 
L 250.16004 264.259205 
L 257.164735 272.967544 
L 264.169429 264.194217 
L 271.174124 257.630469 
L 278.178818 271.147891 
L 285.183512 268.418411 
L 292.188207 272.382655 
L 299.192901 258.995209 
L 306.197596 271.342853 
L 313.20229 259.580098 
L 320.206985 263.804292 
L 327.211679 271.602804 
L 334.216374 272.642606 
L 341.221068 265.493969 
L 348.225763 269.523201 
L 355.230457 247.03749 
L 362.235152 263.479354 
L 369.239846 271.797767 
L 376.244541 269.393225 
L 383.249235 270.173077 
L 390.25393 264.909081 
L 397.258624 251.716598 
L 404.263319 263.674316 
L 411.268013 273.357469 
L 418.272708 264.844093 
L 425.277402 248.727168 
L 432.282097 257.370519 
L 439.286791 242.293395 
L 446.291486 220.522549 
L 453.29618 253.211313 
L 460.300875 246.647565 
L 467.305569 265.363994 
L 474.310264 264.779106 
L 481.314958 257.695457 
L 488.319653 266.078858 
L 495.324347 231.700416 
L 502.329042 248.987118 
L 509.333736 259.970023 
L 516.338431 248.532205 
L 523.343125 244.892899 
L 530.347819 269.0033 
L 537.352514 271.537816 
L 544.357208 269.328238 
L 551.361903 268.288436 
L 558.366597 265.558957 
L 565.371292 268.808337 
L 572.375986 271.732779 
L 579.380681 273.227494 
L 586.385375 271.472829 
L 593.39007 268.093473 
L 600.394764 257.955407 
L 607.399459 253.731213 
L 614.404153 254.965978 
L 621.408848 250.611808 
L 628.413542 250.02692 
L 635.418237 251.586622 
L 642.422931 251.261684 
L 649.427626 251.716598 
L 656.43232 253.926176 
L 663.437015 257.500494 
L 670.441709 256.005779 
L 677.446404 258.605283 
L 684.451098 257.240544 
L 691.455793 257.110569 
L 698.460487 258.020395 
L 705.465182 258.735259 
L 712.469876 260.424936 
L 719.474571 258.605283 
L 726.479265 257.760445 
L 733.48396 257.305531 
L 740.488654 259.580098 
L 747.493349 261.39975 
L 754.498043 261.789676 
L 761.502738 260.684887 
L 768.507432 255.290916 
L 775.512126 247.492404 
L 782.516821 238.394139 
L 789.521515 226.826346 
L 796.52621 216.233367 
L 803.530904 212.07416 
L 810.535599 205.510413 
L 817.540293 206.225276 
L 824.544988 212.07416 
L 831.549682 224.161854 
L 838.554377 238.264164 
L 845.559071 244.178036 
L 852.563766 256.655655 
L 859.56846 260.554912 
L 866.573155 267.508585 
L 873.577849 270.043101 
L 880.582544 273.032531 
L 887.587238 272.772581 
L 894.591933 274.332283 
L 901.596627 272.447643 
L 908.601322 270.757965 
L 915.606016 272.577618 
L 922.610711 271.992729 
L 929.615405 273.487444 
L 936.6201 272.447643 
L 943.624794 268.418411 
L 950.629489 272.25268 
" style="fill:none;stroke:#e4d354;stroke-linecap:square;"/>
   </g>
   <g id="line2d_16">
    <path clip-path="url(#p5aa6e7d37a)" d="M 96.056761 275.4996 
L 103.061456 275.501281 
L 110.06615 275.501475 
L 117.070845 275.501843 
L 124.075539 275.500614 
L 131.080234 275.499819 
L 138.084928 275.497439 
L 145.089623 275.365122 
L 152.094317 275.288529 
L 159.099012 274.852184 
L 166.103706 271.602804 
L 173.108401 274.332283 
L 180.113095 271.082903 
L 187.11779 274.397271 
L 194.122484 272.447643 
L 201.127179 268.353424 
L 208.131873 273.227494 
L 215.136568 270.498015 
L 222.141262 271.797767 
L 229.145957 267.37861 
L 236.150651 273.357469 
L 243.155346 272.837568 
L 250.16004 267.053672 
L 257.164735 273.422457 
L 264.169429 271.017915 
L 271.174124 268.158461 
L 278.178818 273.552432 
L 285.183512 271.797767 
L 292.188207 273.812382 
L 299.192901 268.548387 
L 306.197596 272.642606 
L 313.20229 267.053672 
L 320.206985 269.718163 
L 327.211679 273.61742 
L 334.216374 273.812382 
L 341.221068 269.653176 
L 348.225763 272.837568 
L 355.230457 262.959453 
L 362.235152 267.313622 
L 369.239846 273.422457 
L 376.244541 272.122705 
L 383.249235 273.357469 
L 390.25393 271.342853 
L 397.258624 266.923697 
L 404.263319 272.057717 
L 411.268013 274.397271 
L 418.272708 268.548387 
L 425.277402 264.844093 
L 432.282097 268.873325 
L 439.286791 264.454168 
L 446.291486 251.781585 
L 453.29618 265.623945 
L 460.300875 263.089428 
L 467.305569 270.498015 
L 474.310264 269.26325 
L 481.314958 267.443597 
L 488.319653 270.043101 
L 495.324347 258.215358 
L 502.329042 263.869279 
L 509.333736 269.068287 
L 516.338431 265.493969 
L 523.343125 260.035011 
L 530.347819 273.162506 
L 537.352514 273.097519 
L 544.357208 270.757965 
L 551.361903 271.017915 
L 558.366597 270.238064 
L 565.371292 272.25268 
L 572.375986 274.332283 
L 579.380681 273.942358 
L 586.385375 273.162506 
L 593.39007 270.757965 
L 600.394764 268.743349 
L 607.399459 265.948883 
L 614.404153 265.169031 
L 621.408848 263.544341 
L 628.413542 261.984639 
L 635.418237 265.363994 
L 642.422931 264.844093 
L 649.427626 264.194217 
L 656.43232 265.948883 
L 663.437015 265.428982 
L 670.441709 266.143845 
L 677.446404 265.883895 
L 684.451098 267.053672 
L 691.455793 266.403796 
L 698.460487 267.183647 
L 705.465182 266.598759 
L 712.469876 266.923697 
L 719.474571 266.858709 
L 726.479265 264.12923 
L 733.48396 264.779106 
L 740.488654 264.12923 
L 747.493349 265.428982 
L 754.498043 263.479354 
L 761.502738 264.454168 
L 768.507432 259.580098 
L 775.512126 256.395705 
L 782.516821 250.871759 
L 789.521515 242.488358 
L 796.52621 233.974982 
L 803.530904 223.901904 
L 810.535599 217.208181 
L 817.540293 216.298355 
L 824.544988 222.017264 
L 831.549682 231.895379 
L 838.554377 237.939226 
L 845.559071 250.936746 
L 852.563766 260.424936 
L 859.56846 264.454168 
L 866.573155 269.653176 
L 873.577849 270.238064 
L 880.582544 273.227494 
L 887.587238 272.642606 
L 894.591933 274.13732 
L 901.596627 273.682407 
L 908.601322 272.642606 
L 915.606016 272.447643 
L 922.610711 272.577618 
L 929.615405 271.732779 
L 936.6201 270.238064 
L 943.624794 274.007345 
L 950.629489 273.227494 
" style="fill:none;stroke:#2b908f;stroke-linecap:square;"/>
   </g>
   <g id="line2d_17">
    <path clip-path="url(#p5aa6e7d37a)" d="M 96.056761 275.499988 
L 103.061456 275.501309 
L 110.06615 275.501454 
L 117.070845 275.501625 
L 124.075539 275.499037 
L 131.080234 275.497752 
L 138.084928 275.492942 
L 145.089623 275.255372 
L 152.094317 275.369485 
L 159.099012 273.552432 
L 166.103706 268.093473 
L 173.108401 273.227494 
L 180.113095 268.645868 
L 187.11779 274.267296 
L 194.122484 268.418411 
L 201.127179 263.186909 
L 208.131873 274.202308 
L 215.136568 264.909081 
L 222.141262 272.25268 
L 229.145957 262.212095 
L 236.150651 270.88794 
L 243.155346 272.285174 
L 250.16004 262.244589 
L 257.164735 273.130013 
L 264.169429 265.916389 
L 271.174124 260.327455 
L 278.178818 271.472829 
L 285.183512 268.32093 
L 292.188207 272.805075 
L 299.192901 260.749874 
L 306.197596 271.245372 
L 313.20229 260.814862 
L 320.206985 262.634515 
L 327.211679 272.025223 
L 334.216374 273.357469 
L 341.221068 262.634515 
L 348.225763 270.400533 
L 355.230457 246.09517 
L 362.235152 262.537033 
L 369.239846 271.31036 
L 376.244541 269.815645 
L 383.249235 271.342853 
L 390.25393 264.519155 
L 397.258624 255.388397 
L 404.263319 267.768535 
L 411.268013 273.454951 
L 418.272708 267.866017 
L 425.277402 257.20805 
L 432.282097 260.944837 
L 439.286791 250.351858 
L 446.291486 221.237412 
L 453.29618 256.590668 
L 460.300875 245.380306 
L 467.305569 266.046364 
L 474.310264 263.869279 
L 481.314958 256.135755 
L 488.319653 265.721426 
L 495.324347 229.230887 
L 502.329042 251.521635 
L 509.333736 260.522418 
L 516.338431 249.507019 
L 523.343125 246.160158 
L 530.347819 269.815645 
L 537.352514 271.082903 
L 544.357208 267.866017 
L 551.361903 267.248635 
L 558.366597 267.508585 
L 565.371292 268.970806 
L 572.375986 272.220186 
L 579.380681 272.642606 
L 586.385375 270.855446 
L 593.39007 265.461475 
L 600.394764 259.710073 
L 607.399459 255.355903 
L 614.404153 253.146325 
L 621.408848 251.131709 
L 628.413542 253.536251 
L 635.418237 252.33398 
L 642.422931 252.756399 
L 649.427626 255.908298 
L 656.43232 254.608546 
L 663.437015 252.59393 
L 670.441709 253.2763 
L 677.446404 252.528943 
L 684.451098 249.669488 
L 691.455793 246.842528 
L 698.460487 241.773495 
L 705.465182 236.379524 
L 712.469876 223.284522 
L 719.474571 212.789024 
L 726.479265 201.546169 
L 733.48396 186.923959 
L 740.488654 178.833002 
L 747.493349 173.34155 
L 754.498043 159.92161 
L 761.502738 152.967937 
L 768.507432 145.429375 
L 775.512126 136.396098 
L 782.516821 133.7641 
L 789.521515 136.428592 
L 796.52621 136.883505 
L 803.530904 136.948493 
L 810.535599 137.500887 
L 817.540293 146.566658 
L 824.544988 159.174252 
L 831.549682 179.15794 
L 838.554377 203.365822 
L 845.559071 218.05302 
L 852.563766 234.754834 
L 859.56846 250.384352 
L 866.573155 261.237281 
L 873.577849 267.801029 
L 880.582544 271.862754 
L 887.587238 271.765273 
L 894.591933 272.675099 
L 901.596627 272.350161 
L 908.601322 272.545124 
L 915.606016 271.992729 
L 922.610711 271.245372 
L 929.615405 271.277866 
L 936.6201 273.259988 
L 943.624794 271.537816 
L 950.629489 268.288436 
" style="fill:none;stroke:#f45b5b;stroke-linecap:square;"/>
   </g>
   <g id="line2d_18">
    <path clip-path="url(#p5aa6e7d37a)" d="M 96.056761 275.499225 
L 103.061456 275.501149 
L 110.06615 275.501474 
L 117.070845 275.501631 
L 124.075539 275.497702 
L 131.080234 275.4971 
L 138.084928 275.490383 
L 145.089623 275.154783 
L 152.094317 275.233986 
L 159.099012 274.104827 
L 166.103706 274.962663 
L 173.108401 275.378584 
L 180.113095 274.910673 
L 187.11779 275.39808 
L 194.122484 274.995157 
L 201.127179 274.676717 
L 208.131873 275.378584 
L 215.136568 274.709211 
L 222.141262 275.229112 
L 229.145957 274.50775 
L 236.150651 275.287601 
L 243.155346 275.183621 
L 250.16004 274.722209 
L 257.164735 275.2941 
L 264.169429 274.7677 
L 271.174124 274.45576 
L 278.178818 275.255107 
L 285.183512 274.92367 
L 292.188207 275.281102 
L 299.192901 274.702712 
L 306.197596 275.151127 
L 313.20229 274.540243 
L 320.206985 274.527246 
L 327.211679 275.216115 
L 334.216374 275.261606 
L 341.221068 274.657221 
L 348.225763 275.196618 
L 355.230457 273.727898 
L 362.235152 274.66372 
L 369.239846 275.313596 
L 376.244541 275.014653 
L 383.249235 275.216115 
L 390.25393 274.969162 
L 397.258624 274.059335 
L 404.263319 274.930169 
L 411.268013 275.385082 
L 418.272708 274.962663 
L 425.277402 273.734397 
L 432.282097 274.50775 
L 439.286791 273.714901 
L 446.291486 271.77827 
L 453.29618 274.111325 
L 460.300875 273.649913 
L 467.305569 274.917172 
L 474.310264 274.81969 
L 481.314958 274.45576 
L 488.319653 274.904174 
L 495.324347 272.675099 
L 502.329042 274.065834 
L 509.333736 274.644224 
L 516.338431 273.935859 
L 523.343125 273.649913 
L 530.347819 275.151127 
L 537.352514 275.248608 
L 544.357208 275.053646 
L 551.361903 274.936668 
L 558.366597 274.988658 
L 565.371292 275.112134 
L 572.375986 275.326593 
L 579.380681 275.287601 
L 586.385375 275.183621 
L 593.39007 274.943167 
L 600.394764 274.546742 
L 607.399459 274.377774 
L 614.404153 274.247799 
L 621.408848 273.968353 
L 628.413542 274.371276 
L 635.418237 274.03334 
L 642.422931 274.202308 
L 649.427626 274.280293 
L 656.43232 274.358278 
L 663.437015 274.637725 
L 670.441709 274.631226 
L 677.446404 274.572737 
L 684.451098 274.527246 
L 691.455793 274.533745 
L 698.460487 274.605231 
L 705.465182 274.722209 
L 712.469876 274.598732 
L 719.474571 274.585735 
L 726.479265 274.566239 
L 733.48396 274.624727 
L 740.488654 274.891177 
L 747.493349 274.624727 
L 754.498043 274.728708 
L 761.502738 274.696214 
L 768.507432 274.039839 
L 775.512126 273.77339 
L 782.516821 273.552432 
L 789.521515 272.701094 
L 796.52621 271.953737 
L 803.530904 271.635298 
L 810.535599 271.641796 
L 817.540293 271.355851 
L 824.544988 271.615801 
L 831.549682 272.480137 
L 838.554377 273.14301 
L 845.559071 273.558931 
L 852.563766 274.306288 
L 859.56846 274.624727 
L 866.573155 274.956164 
L 873.577849 275.170623 
L 880.582544 275.333092 
L 887.587238 275.287601 
L 894.591933 275.39808 
L 901.596627 275.281102 
L 908.601322 275.274603 
L 915.606016 275.274603 
L 922.610711 275.203117 
L 929.615405 275.047147 
L 936.6201 275.209616 
L 943.624794 274.865182 
L 950.629489 274.696214 
" style="fill:none;stroke:#91e8e1;stroke-linecap:square;"/>
   </g>
   <g id="line2d_19">
    <path clip-path="url(#p5aa6e7d37a)" d="M 96.056761 275.499815 
L 103.061456 275.501235 
L 110.06615 275.501436 
L 117.070845 275.501797 
L 124.075539 275.499618 
L 131.080234 275.499406 
L 138.084928 275.492998 
L 145.089623 275.291624 
L 152.094317 275.331468 
L 159.099012 274.234802 
L 166.103706 267.248635 
L 173.108401 272.772581 
L 180.113095 266.273821 
L 187.11779 271.277866 
L 194.122484 264.38918 
L 201.127179 258.930222 
L 208.131873 270.563002 
L 215.136568 261.919651 
L 222.141262 269.588188 
L 229.145957 258.020395 
L 236.150651 270.692977 
L 243.155346 271.927742 
L 250.16004 259.385135 
L 257.164735 269.458213 
L 264.169429 262.76449 
L 271.174124 259.190172 
L 278.178818 268.093473 
L 285.183512 264.779106 
L 292.188207 270.62799 
L 299.192901 260.359949 
L 306.197596 271.212878 
L 313.20229 259.190172 
L 320.206985 260.554912 
L 327.211679 269.848139 
L 334.216374 270.433027 
L 341.221068 261.529726 
L 348.225763 271.212878 
L 355.230457 246.972503 
L 362.235152 262.244589 
L 369.239846 271.472829 
L 376.244541 267.768535 
L 383.249235 271.277866 
L 390.25393 264.259205 
L 397.258624 256.980593 
L 404.263319 267.053672 
L 411.268013 273.812382 
L 418.272708 265.75392 
L 425.277402 253.731213 
L 432.282097 260.035011 
L 439.286791 245.672751 
L 446.291486 212.724037 
L 453.29618 250.936746 
L 460.300875 245.542775 
L 467.305569 264.64913 
L 474.310264 263.999254 
L 481.314958 255.485879 
L 488.319653 264.064242 
L 495.324347 227.151284 
L 502.329042 247.882329 
L 509.333736 259.51511 
L 516.338431 251.456647 
L 523.343125 241.90347 
L 530.347819 268.873325 
L 537.352514 269.26325 
L 544.357208 266.663746 
L 551.361903 266.728734 
L 558.366597 267.053672 
L 565.371292 267.053672 
L 572.375986 272.382655 
L 579.380681 272.187692 
L 586.385375 271.082903 
L 593.39007 265.818907 
L 600.394764 259.77506 
L 607.399459 253.146325 
L 614.404153 252.756399 
L 621.408848 250.351858 
L 628.413542 249.76697 
L 635.418237 249.572007 
L 642.422931 247.362428 
L 649.427626 250.156895 
L 656.43232 252.301486 
L 663.437015 251.716598 
L 670.441709 256.785631 
L 677.446404 257.240544 
L 684.451098 258.15037 
L 691.455793 258.540296 
L 698.460487 256.005779 
L 705.465182 255.485879 
L 712.469876 256.200742 
L 719.474571 254.511065 
L 726.479265 253.796201 
L 733.48396 253.536251 
L 740.488654 253.211313 
L 747.493349 252.301486 
L 754.498043 252.236498 
L 761.502738 247.492404 
L 768.507432 238.719077 
L 775.512126 221.107437 
L 782.516821 198.81669 
L 789.521515 162.618595 
L 796.52621 126.550476 
L 803.530904 90.742308 
L 810.535599 54.804164 
L 817.540293 43.171383 
L 824.544988 65.20218 
L 831.549682 95.096477 
L 838.554377 134.478964 
L 845.559071 196.477136 
L 852.563766 220.587536 
L 859.56846 250.156895 
L 866.573155 258.15037 
L 873.577849 266.468783 
L 880.582544 272.122705 
L 887.587238 272.122705 
L 894.591933 274.072333 
L 901.596627 273.87737 
L 908.601322 272.447643 
L 915.606016 273.097519 
L 922.610711 271.407841 
L 929.615405 272.447643 
L 936.6201 267.443597 
L 943.624794 269.198263 
L 950.629489 267.053672 
" style="fill:none;stroke:#7cb5ec;stroke-linecap:square;"/>
   </g>
   <g id="line2d_20">
    <path clip-path="url(#p5aa6e7d37a)" d="M 53.328125 275.50206 
L 993.358125 275.50206 
" style="fill:none;stroke:#dedede;stroke-linecap:square;stroke-width:2;"/>
   </g>
   <g id="text_18">
    <!-- Cutadapt: Lengths of Trimmed Sequences -->
    <g transform="translate(355.678125 19.3575)scale(0.16 -0.16)">
     <defs>
      <path d="M 64.40625 67.28125 
L 64.40625 56.890625 
Q 59.421875 61.53125 53.78125 63.8125 
Q 48.140625 66.109375 41.796875 66.109375 
Q 29.296875 66.109375 22.65625 58.46875 
Q 16.015625 50.828125 16.015625 36.375 
Q 16.015625 21.96875 22.65625 14.328125 
Q 29.296875 6.6875 41.796875 6.6875 
Q 48.140625 6.6875 53.78125 8.984375 
Q 59.421875 11.28125 64.40625 15.921875 
L 64.40625 5.609375 
Q 59.234375 2.09375 53.4375 0.328125 
Q 47.65625 -1.421875 41.21875 -1.421875 
Q 24.65625 -1.421875 15.125 8.703125 
Q 5.609375 18.84375 5.609375 36.375 
Q 5.609375 53.953125 15.125 64.078125 
Q 24.65625 74.21875 41.21875 74.21875 
Q 47.75 74.21875 53.53125 72.484375 
Q 59.328125 70.75 64.40625 67.28125 
z
" id="DejaVuSans-67"/>
      <path d="M 8.5 21.578125 
L 8.5 54.6875 
L 17.484375 54.6875 
L 17.484375 21.921875 
Q 17.484375 14.15625 20.5 10.265625 
Q 23.53125 6.390625 29.59375 6.390625 
Q 36.859375 6.390625 41.078125 11.03125 
Q 45.3125 15.671875 45.3125 23.6875 
L 45.3125 54.6875 
L 54.296875 54.6875 
L 54.296875 0 
L 45.3125 0 
L 45.3125 8.40625 
Q 42.046875 3.421875 37.71875 1 
Q 33.40625 -1.421875 27.6875 -1.421875 
Q 18.265625 -1.421875 13.375 4.4375 
Q 8.5 10.296875 8.5 21.578125 
z
M 31.109375 56 
z
" id="DejaVuSans-117"/>
      <path d="M 34.28125 27.484375 
Q 23.390625 27.484375 19.1875 25 
Q 14.984375 22.515625 14.984375 16.5 
Q 14.984375 11.71875 18.140625 8.90625 
Q 21.296875 6.109375 26.703125 6.109375 
Q 34.1875 6.109375 38.703125 11.40625 
Q 43.21875 16.703125 43.21875 25.484375 
L 43.21875 27.484375 
z
M 52.203125 31.203125 
L 52.203125 0 
L 43.21875 0 
L 43.21875 8.296875 
Q 40.140625 3.328125 35.546875 0.953125 
Q 30.953125 -1.421875 24.3125 -1.421875 
Q 15.921875 -1.421875 10.953125 3.296875 
Q 6 8.015625 6 15.921875 
Q 6 25.140625 12.171875 29.828125 
Q 18.359375 34.515625 30.609375 34.515625 
L 43.21875 34.515625 
L 43.21875 35.40625 
Q 43.21875 41.609375 39.140625 45 
Q 35.0625 48.390625 27.6875 48.390625 
Q 23 48.390625 18.546875 47.265625 
Q 14.109375 46.140625 10.015625 43.890625 
L 10.015625 52.203125 
Q 14.9375 54.109375 19.578125 55.046875 
Q 24.21875 56 28.609375 56 
Q 40.484375 56 46.34375 49.84375 
Q 52.203125 43.703125 52.203125 31.203125 
z
" id="DejaVuSans-97"/>
      <path d="M 11.71875 12.40625 
L 22.015625 12.40625 
L 22.015625 0 
L 11.71875 0 
z
M 11.71875 51.703125 
L 22.015625 51.703125 
L 22.015625 39.3125 
L 11.71875 39.3125 
z
" id="DejaVuSans-58"/>
      <path d="M 30.609375 48.390625 
Q 23.390625 48.390625 19.1875 42.75 
Q 14.984375 37.109375 14.984375 27.296875 
Q 14.984375 17.484375 19.15625 11.84375 
Q 23.34375 6.203125 30.609375 6.203125 
Q 37.796875 6.203125 41.984375 11.859375 
Q 46.1875 17.53125 46.1875 27.296875 
Q 46.1875 37.015625 41.984375 42.703125 
Q 37.796875 48.390625 30.609375 48.390625 
z
M 30.609375 56 
Q 42.328125 56 49.015625 48.375 
Q 55.71875 40.765625 55.71875 27.296875 
Q 55.71875 13.875 49.015625 6.21875 
Q 42.328125 -1.421875 30.609375 -1.421875 
Q 18.84375 -1.421875 12.171875 6.21875 
Q 5.515625 13.875 5.515625 27.296875 
Q 5.515625 40.765625 12.171875 48.375 
Q 18.84375 56 30.609375 56 
z
" id="DejaVuSans-111"/>
      <path d="M 37.109375 75.984375 
L 37.109375 68.5 
L 28.515625 68.5 
Q 23.6875 68.5 21.796875 66.546875 
Q 19.921875 64.59375 19.921875 59.515625 
L 19.921875 54.6875 
L 34.71875 54.6875 
L 34.71875 47.703125 
L 19.921875 47.703125 
L 19.921875 0 
L 10.890625 0 
L 10.890625 47.703125 
L 2.296875 47.703125 
L 2.296875 54.6875 
L 10.890625 54.6875 
L 10.890625 58.5 
Q 10.890625 67.625 15.140625 71.796875 
Q 19.390625 75.984375 28.609375 75.984375 
z
" id="DejaVuSans-102"/>
      <path d="M 53.515625 70.515625 
L 53.515625 60.890625 
Q 47.90625 63.578125 42.921875 64.890625 
Q 37.9375 66.21875 33.296875 66.21875 
Q 25.25 66.21875 20.875 63.09375 
Q 16.5 59.96875 16.5 54.203125 
Q 16.5 49.359375 19.40625 46.890625 
Q 22.3125 44.4375 30.421875 42.921875 
L 36.375 41.703125 
Q 47.40625 39.59375 52.65625 34.296875 
Q 57.90625 29 57.90625 20.125 
Q 57.90625 9.515625 50.796875 4.046875 
Q 43.703125 -1.421875 29.984375 -1.421875 
Q 24.8125 -1.421875 18.96875 -0.25 
Q 13.140625 0.921875 6.890625 3.21875 
L 6.890625 13.375 
Q 12.890625 10.015625 18.65625 8.296875 
Q 24.421875 6.59375 29.984375 6.59375 
Q 38.421875 6.59375 43.015625 9.90625 
Q 47.609375 13.234375 47.609375 19.390625 
Q 47.609375 24.75 44.3125 27.78125 
Q 41.015625 30.8125 33.5 32.328125 
L 27.484375 33.5 
Q 16.453125 35.6875 11.515625 40.375 
Q 6.59375 45.0625 6.59375 53.421875 
Q 6.59375 63.09375 13.40625 68.65625 
Q 20.21875 74.21875 32.171875 74.21875 
Q 37.3125 74.21875 42.625 73.28125 
Q 47.953125 72.359375 53.515625 70.515625 
z
" id="DejaVuSans-83"/>
      <path d="M 14.796875 27.296875 
Q 14.796875 17.390625 18.875 11.75 
Q 22.953125 6.109375 30.078125 6.109375 
Q 37.203125 6.109375 41.296875 11.75 
Q 45.40625 17.390625 45.40625 27.296875 
Q 45.40625 37.203125 41.296875 42.84375 
Q 37.203125 48.484375 30.078125 48.484375 
Q 22.953125 48.484375 18.875 42.84375 
Q 14.796875 37.203125 14.796875 27.296875 
z
M 45.40625 8.203125 
Q 42.578125 3.328125 38.25 0.953125 
Q 33.9375 -1.421875 27.875 -1.421875 
Q 17.96875 -1.421875 11.734375 6.484375 
Q 5.515625 14.40625 5.515625 27.296875 
Q 5.515625 40.1875 11.734375 48.09375 
Q 17.96875 56 27.875 56 
Q 33.9375 56 38.25 53.625 
Q 42.578125 51.265625 45.40625 46.390625 
L 45.40625 54.6875 
L 54.390625 54.6875 
L 54.390625 -20.796875 
L 45.40625 -20.796875 
z
" id="DejaVuSans-113"/>
     </defs>
     <use xlink:href="#DejaVuSans-67"/>
     <use x="69.824219" xlink:href="#DejaVuSans-117"/>
     <use x="133.203125" xlink:href="#DejaVuSans-116"/>
     <use x="172.412109" xlink:href="#DejaVuSans-97"/>
     <use x="233.691406" xlink:href="#DejaVuSans-100"/>
     <use x="297.167969" xlink:href="#DejaVuSans-97"/>
     <use x="358.447266" xlink:href="#DejaVuSans-112"/>
     <use x="421.923828" xlink:href="#DejaVuSans-116"/>
     <use x="461.132812" xlink:href="#DejaVuSans-58"/>
     <use x="494.824219" xlink:href="#DejaVuSans-32"/>
     <use x="526.611328" xlink:href="#DejaVuSans-76"/>
     <use x="580.574219" xlink:href="#DejaVuSans-101"/>
     <use x="642.097656" xlink:href="#DejaVuSans-110"/>
     <use x="705.476562" xlink:href="#DejaVuSans-103"/>
     <use x="768.953125" xlink:href="#DejaVuSans-116"/>
     <use x="808.162109" xlink:href="#DejaVuSans-104"/>
     <use x="871.541016" xlink:href="#DejaVuSans-115"/>
     <use x="923.640625" xlink:href="#DejaVuSans-32"/>
     <use x="955.427734" xlink:href="#DejaVuSans-111"/>
     <use x="1016.609375" xlink:href="#DejaVuSans-102"/>
     <use x="1051.814453" xlink:href="#DejaVuSans-32"/>
     <use x="1083.601562" xlink:href="#DejaVuSans-84"/>
     <use x="1129.935547" xlink:href="#DejaVuSans-114"/>
     <use x="1171.048828" xlink:href="#DejaVuSans-105"/>
     <use x="1198.832031" xlink:href="#DejaVuSans-109"/>
     <use x="1296.244141" xlink:href="#DejaVuSans-109"/>
     <use x="1393.65625" xlink:href="#DejaVuSans-101"/>
     <use x="1455.179688" xlink:href="#DejaVuSans-100"/>
     <use x="1518.65625" xlink:href="#DejaVuSans-32"/>
     <use x="1550.443359" xlink:href="#DejaVuSans-83"/>
     <use x="1613.919922" xlink:href="#DejaVuSans-101"/>
     <use x="1675.443359" xlink:href="#DejaVuSans-113"/>
     <use x="1738.919922" xlink:href="#DejaVuSans-117"/>
     <use x="1802.298828" xlink:href="#DejaVuSans-101"/>
     <use x="1863.822266" xlink:href="#DejaVuSans-110"/>
     <use x="1927.201172" xlink:href="#DejaVuSans-99"/>
     <use x="1982.181641" xlink:href="#DejaVuSans-101"/>
     <use x="2043.705078" xlink:href="#DejaVuSans-115"/>
    </g>
   </g>
   <g id="legend_1">
    <g id="line2d_21">
     <path d="M 60.528125 293.354194 
L 76.528125 293.354194 
" style="fill:none;stroke:#7cb5ec;stroke-linecap:square;"/>
    </g>
    <g id="line2d_22"/>
    <g id="text_19">
     <!-- RT_Gad2_1 - Adapter 1 -->
     <g transform="translate(82.928125 296.154194)scale(0.08 -0.08)">
      <defs>
       <path d="M 44.390625 34.1875 
Q 47.5625 33.109375 50.5625 29.59375 
Q 53.5625 26.078125 56.59375 19.921875 
L 66.609375 0 
L 56 0 
L 46.6875 18.703125 
Q 43.0625 26.03125 39.671875 28.421875 
Q 36.28125 30.8125 30.421875 30.8125 
L 19.671875 30.8125 
L 19.671875 0 
L 9.8125 0 
L 9.8125 72.90625 
L 32.078125 72.90625 
Q 44.578125 72.90625 50.734375 67.671875 
Q 56.890625 62.453125 56.890625 51.90625 
Q 56.890625 45.015625 53.6875 40.46875 
Q 50.484375 35.9375 44.390625 34.1875 
z
M 19.671875 64.796875 
L 19.671875 38.921875 
L 32.078125 38.921875 
Q 39.203125 38.921875 42.84375 42.21875 
Q 46.484375 45.515625 46.484375 51.90625 
Q 46.484375 58.296875 42.84375 61.546875 
Q 39.203125 64.796875 32.078125 64.796875 
z
" id="DejaVuSans-82"/>
       <path d="M 50.984375 -16.609375 
L 50.984375 -23.578125 
L -0.984375 -23.578125 
L -0.984375 -16.609375 
z
" id="DejaVuSans-95"/>
       <path d="M 59.515625 10.40625 
L 59.515625 29.984375 
L 43.40625 29.984375 
L 43.40625 38.09375 
L 69.28125 38.09375 
L 69.28125 6.78125 
Q 63.578125 2.734375 56.6875 0.65625 
Q 49.8125 -1.421875 42 -1.421875 
Q 24.90625 -1.421875 15.25 8.5625 
Q 5.609375 18.5625 5.609375 36.375 
Q 5.609375 54.25 15.25 64.234375 
Q 24.90625 74.21875 42 74.21875 
Q 49.125 74.21875 55.546875 72.453125 
Q 61.96875 70.703125 67.390625 67.28125 
L 67.390625 56.78125 
Q 61.921875 61.421875 55.765625 63.765625 
Q 49.609375 66.109375 42.828125 66.109375 
Q 29.4375 66.109375 22.71875 58.640625 
Q 16.015625 51.171875 16.015625 36.375 
Q 16.015625 21.625 22.71875 14.15625 
Q 29.4375 6.6875 42.828125 6.6875 
Q 48.046875 6.6875 52.140625 7.59375 
Q 56.25 8.5 59.515625 10.40625 
z
" id="DejaVuSans-71"/>
       <path d="M 4.890625 31.390625 
L 31.203125 31.390625 
L 31.203125 23.390625 
L 4.890625 23.390625 
z
" id="DejaVuSans-45"/>
       <path d="M 34.1875 63.1875 
L 20.796875 26.90625 
L 47.609375 26.90625 
z
M 28.609375 72.90625 
L 39.796875 72.90625 
L 67.578125 0 
L 57.328125 0 
L 50.6875 18.703125 
L 17.828125 18.703125 
L 11.1875 0 
L 0.78125 0 
z
" id="DejaVuSans-65"/>
      </defs>
      <use xlink:href="#DejaVuSans-82"/>
      <use x="62.232422" xlink:href="#DejaVuSans-84"/>
      <use x="123.316406" xlink:href="#DejaVuSans-95"/>
      <use x="173.316406" xlink:href="#DejaVuSans-71"/>
      <use x="250.806641" xlink:href="#DejaVuSans-97"/>
      <use x="312.085938" xlink:href="#DejaVuSans-100"/>
      <use x="375.5625" xlink:href="#DejaVuSans-50"/>
      <use x="439.185547" xlink:href="#DejaVuSans-95"/>
      <use x="489.185547" xlink:href="#DejaVuSans-49"/>
      <use x="552.808594" xlink:href="#DejaVuSans-32"/>
      <use x="584.595703" xlink:href="#DejaVuSans-45"/>
      <use x="620.679688" xlink:href="#DejaVuSans-32"/>
      <use x="652.466797" xlink:href="#DejaVuSans-65"/>
      <use x="719.125" xlink:href="#DejaVuSans-100"/>
      <use x="782.601562" xlink:href="#DejaVuSans-97"/>
      <use x="843.880859" xlink:href="#DejaVuSans-112"/>
      <use x="907.357422" xlink:href="#DejaVuSans-116"/>
      <use x="946.566406" xlink:href="#DejaVuSans-101"/>
      <use x="1008.089844" xlink:href="#DejaVuSans-114"/>
      <use x="1049.203125" xlink:href="#DejaVuSans-32"/>
      <use x="1080.990234" xlink:href="#DejaVuSans-49"/>
     </g>
    </g>
    <g id="line2d_23">
     <path d="M 60.528125 305.319194 
L 76.528125 305.319194 
" style="fill:none;stroke:#434348;stroke-linecap:square;"/>
    </g>
    <g id="line2d_24"/>
    <g id="text_20">
     <!-- RT_Gad2_2 - Adapter 1 -->
     <g transform="translate(82.928125 308.119194)scale(0.08 -0.08)">
      <use xlink:href="#DejaVuSans-82"/>
      <use x="62.232422" xlink:href="#DejaVuSans-84"/>
      <use x="123.316406" xlink:href="#DejaVuSans-95"/>
      <use x="173.316406" xlink:href="#DejaVuSans-71"/>
      <use x="250.806641" xlink:href="#DejaVuSans-97"/>
      <use x="312.085938" xlink:href="#DejaVuSans-100"/>
      <use x="375.5625" xlink:href="#DejaVuSans-50"/>
      <use x="439.185547" xlink:href="#DejaVuSans-95"/>
      <use x="489.185547" xlink:href="#DejaVuSans-50"/>
      <use x="552.808594" xlink:href="#DejaVuSans-32"/>
      <use x="584.595703" xlink:href="#DejaVuSans-45"/>
      <use x="620.679688" xlink:href="#DejaVuSans-32"/>
      <use x="652.466797" xlink:href="#DejaVuSans-65"/>
      <use x="719.125" xlink:href="#DejaVuSans-100"/>
      <use x="782.601562" xlink:href="#DejaVuSans-97"/>
      <use x="843.880859" xlink:href="#DejaVuSans-112"/>
      <use x="907.357422" xlink:href="#DejaVuSans-116"/>
      <use x="946.566406" xlink:href="#DejaVuSans-101"/>
      <use x="1008.089844" xlink:href="#DejaVuSans-114"/>
      <use x="1049.203125" xlink:href="#DejaVuSans-32"/>
      <use x="1080.990234" xlink:href="#DejaVuSans-49"/>
     </g>
    </g>
    <g id="line2d_25">
     <path d="M 60.528125 317.284194 
L 76.528125 317.284194 
" style="fill:none;stroke:#90ed7d;stroke-linecap:square;"/>
    </g>
    <g id="line2d_26"/>
    <g id="text_21">
     <!-- RT_Gad2_3 - Adapter 1 -->
     <g transform="translate(82.928125 320.084194)scale(0.08 -0.08)">
      <use xlink:href="#DejaVuSans-82"/>
      <use x="62.232422" xlink:href="#DejaVuSans-84"/>
      <use x="123.316406" xlink:href="#DejaVuSans-95"/>
      <use x="173.316406" xlink:href="#DejaVuSans-71"/>
      <use x="250.806641" xlink:href="#DejaVuSans-97"/>
      <use x="312.085938" xlink:href="#DejaVuSans-100"/>
      <use x="375.5625" xlink:href="#DejaVuSans-50"/>
      <use x="439.185547" xlink:href="#DejaVuSans-95"/>
      <use x="489.185547" xlink:href="#DejaVuSans-51"/>
      <use x="552.808594" xlink:href="#DejaVuSans-32"/>
      <use x="584.595703" xlink:href="#DejaVuSans-45"/>
      <use x="620.679688" xlink:href="#DejaVuSans-32"/>
      <use x="652.466797" xlink:href="#DejaVuSans-65"/>
      <use x="719.125" xlink:href="#DejaVuSans-100"/>
      <use x="782.601562" xlink:href="#DejaVuSans-97"/>
      <use x="843.880859" xlink:href="#DejaVuSans-112"/>
      <use x="907.357422" xlink:href="#DejaVuSans-116"/>
      <use x="946.566406" xlink:href="#DejaVuSans-101"/>
      <use x="1008.089844" xlink:href="#DejaVuSans-114"/>
      <use x="1049.203125" xlink:href="#DejaVuSans-32"/>
      <use x="1080.990234" xlink:href="#DejaVuSans-49"/>
     </g>
    </g>
    <g id="line2d_27">
     <path d="M 258.01625 293.354194 
L 274.01625 293.354194 
" style="fill:none;stroke:#f7a35c;stroke-linecap:square;"/>
    </g>
    <g id="line2d_28"/>
    <g id="text_22">
     <!-- RT_vGluT2_1 - Adapter 1 -->
     <g transform="translate(280.41625 296.154194)scale(0.08 -0.08)">
      <defs>
       <path d="M 9.421875 75.984375 
L 18.40625 75.984375 
L 18.40625 0 
L 9.421875 0 
z
" id="DejaVuSans-108"/>
      </defs>
      <use xlink:href="#DejaVuSans-82"/>
      <use x="62.232422" xlink:href="#DejaVuSans-84"/>
      <use x="123.316406" xlink:href="#DejaVuSans-95"/>
      <use x="173.316406" xlink:href="#DejaVuSans-118"/>
      <use x="232.496094" xlink:href="#DejaVuSans-71"/>
      <use x="309.986328" xlink:href="#DejaVuSans-108"/>
      <use x="337.769531" xlink:href="#DejaVuSans-117"/>
      <use x="401.148438" xlink:href="#DejaVuSans-84"/>
      <use x="462.232422" xlink:href="#DejaVuSans-50"/>
      <use x="525.855469" xlink:href="#DejaVuSans-95"/>
      <use x="575.855469" xlink:href="#DejaVuSans-49"/>
      <use x="639.478516" xlink:href="#DejaVuSans-32"/>
      <use x="671.265625" xlink:href="#DejaVuSans-45"/>
      <use x="707.349609" xlink:href="#DejaVuSans-32"/>
      <use x="739.136719" xlink:href="#DejaVuSans-65"/>
      <use x="805.794922" xlink:href="#DejaVuSans-100"/>
      <use x="869.271484" xlink:href="#DejaVuSans-97"/>
      <use x="930.550781" xlink:href="#DejaVuSans-112"/>
      <use x="994.027344" xlink:href="#DejaVuSans-116"/>
      <use x="1033.236328" xlink:href="#DejaVuSans-101"/>
      <use x="1094.759766" xlink:href="#DejaVuSans-114"/>
      <use x="1135.873047" xlink:href="#DejaVuSans-32"/>
      <use x="1167.660156" xlink:href="#DejaVuSans-49"/>
     </g>
    </g>
    <g id="line2d_29">
     <path d="M 258.01625 305.319194 
L 274.01625 305.319194 
" style="fill:none;stroke:#8085e9;stroke-linecap:square;"/>
    </g>
    <g id="line2d_30"/>
    <g id="text_23">
     <!-- RT_vGluT2_3 - Adapter 1 -->
     <g transform="translate(280.41625 308.119194)scale(0.08 -0.08)">
      <use xlink:href="#DejaVuSans-82"/>
      <use x="62.232422" xlink:href="#DejaVuSans-84"/>
      <use x="123.316406" xlink:href="#DejaVuSans-95"/>
      <use x="173.316406" xlink:href="#DejaVuSans-118"/>
      <use x="232.496094" xlink:href="#DejaVuSans-71"/>
      <use x="309.986328" xlink:href="#DejaVuSans-108"/>
      <use x="337.769531" xlink:href="#DejaVuSans-117"/>
      <use x="401.148438" xlink:href="#DejaVuSans-84"/>
      <use x="462.232422" xlink:href="#DejaVuSans-50"/>
      <use x="525.855469" xlink:href="#DejaVuSans-95"/>
      <use x="575.855469" xlink:href="#DejaVuSans-51"/>
      <use x="639.478516" xlink:href="#DejaVuSans-32"/>
      <use x="671.265625" xlink:href="#DejaVuSans-45"/>
      <use x="707.349609" xlink:href="#DejaVuSans-32"/>
      <use x="739.136719" xlink:href="#DejaVuSans-65"/>
      <use x="805.794922" xlink:href="#DejaVuSans-100"/>
      <use x="869.271484" xlink:href="#DejaVuSans-97"/>
      <use x="930.550781" xlink:href="#DejaVuSans-112"/>
      <use x="994.027344" xlink:href="#DejaVuSans-116"/>
      <use x="1033.236328" xlink:href="#DejaVuSans-101"/>
      <use x="1094.759766" xlink:href="#DejaVuSans-114"/>
      <use x="1135.873047" xlink:href="#DejaVuSans-32"/>
      <use x="1167.660156" xlink:href="#DejaVuSans-49"/>
     </g>
    </g>
    <g id="line2d_31">
     <path d="M 462.436875 293.354194 
L 478.436875 293.354194 
" style="fill:none;stroke:#f15c80;stroke-linecap:square;"/>
    </g>
    <g id="line2d_32"/>
    <g id="text_24">
     <!-- S1_Gad2_1 - Adapter 1 -->
     <g transform="translate(484.836875 296.154194)scale(0.08 -0.08)">
      <use xlink:href="#DejaVuSans-83"/>
      <use x="63.476562" xlink:href="#DejaVuSans-49"/>
      <use x="127.099609" xlink:href="#DejaVuSans-95"/>
      <use x="177.099609" xlink:href="#DejaVuSans-71"/>
      <use x="254.589844" xlink:href="#DejaVuSans-97"/>
      <use x="315.869141" xlink:href="#DejaVuSans-100"/>
      <use x="379.345703" xlink:href="#DejaVuSans-50"/>
      <use x="442.96875" xlink:href="#DejaVuSans-95"/>
      <use x="492.96875" xlink:href="#DejaVuSans-49"/>
      <use x="556.591797" xlink:href="#DejaVuSans-32"/>
      <use x="588.378906" xlink:href="#DejaVuSans-45"/>
      <use x="624.462891" xlink:href="#DejaVuSans-32"/>
      <use x="656.25" xlink:href="#DejaVuSans-65"/>
      <use x="722.908203" xlink:href="#DejaVuSans-100"/>
      <use x="786.384766" xlink:href="#DejaVuSans-97"/>
      <use x="847.664062" xlink:href="#DejaVuSans-112"/>
      <use x="911.140625" xlink:href="#DejaVuSans-116"/>
      <use x="950.349609" xlink:href="#DejaVuSans-101"/>
      <use x="1011.873047" xlink:href="#DejaVuSans-114"/>
      <use x="1052.986328" xlink:href="#DejaVuSans-32"/>
      <use x="1084.773438" xlink:href="#DejaVuSans-49"/>
     </g>
    </g>
    <g id="line2d_33">
     <path d="M 462.436875 305.319194 
L 478.436875 305.319194 
" style="fill:none;stroke:#e4d354;stroke-linecap:square;"/>
    </g>
    <g id="line2d_34"/>
    <g id="text_25">
     <!-- S1_Gad2_2 - Adapter 1 -->
     <g transform="translate(484.836875 308.119194)scale(0.08 -0.08)">
      <use xlink:href="#DejaVuSans-83"/>
      <use x="63.476562" xlink:href="#DejaVuSans-49"/>
      <use x="127.099609" xlink:href="#DejaVuSans-95"/>
      <use x="177.099609" xlink:href="#DejaVuSans-71"/>
      <use x="254.589844" xlink:href="#DejaVuSans-97"/>
      <use x="315.869141" xlink:href="#DejaVuSans-100"/>
      <use x="379.345703" xlink:href="#DejaVuSans-50"/>
      <use x="442.96875" xlink:href="#DejaVuSans-95"/>
      <use x="492.96875" xlink:href="#DejaVuSans-50"/>
      <use x="556.591797" xlink:href="#DejaVuSans-32"/>
      <use x="588.378906" xlink:href="#DejaVuSans-45"/>
      <use x="624.462891" xlink:href="#DejaVuSans-32"/>
      <use x="656.25" xlink:href="#DejaVuSans-65"/>
      <use x="722.908203" xlink:href="#DejaVuSans-100"/>
      <use x="786.384766" xlink:href="#DejaVuSans-97"/>
      <use x="847.664062" xlink:href="#DejaVuSans-112"/>
      <use x="911.140625" xlink:href="#DejaVuSans-116"/>
      <use x="950.349609" xlink:href="#DejaVuSans-101"/>
      <use x="1011.873047" xlink:href="#DejaVuSans-114"/>
      <use x="1052.986328" xlink:href="#DejaVuSans-32"/>
      <use x="1084.773438" xlink:href="#DejaVuSans-49"/>
     </g>
    </g>
    <g id="line2d_35">
     <path d="M 660.22875 293.354194 
L 676.22875 293.354194 
" style="fill:none;stroke:#2b908f;stroke-linecap:square;"/>
    </g>
    <g id="line2d_36"/>
    <g id="text_26">
     <!-- S1_Gad2_3 - Adapter 1 -->
     <g transform="translate(682.62875 296.154194)scale(0.08 -0.08)">
      <use xlink:href="#DejaVuSans-83"/>
      <use x="63.476562" xlink:href="#DejaVuSans-49"/>
      <use x="127.099609" xlink:href="#DejaVuSans-95"/>
      <use x="177.099609" xlink:href="#DejaVuSans-71"/>
      <use x="254.589844" xlink:href="#DejaVuSans-97"/>
      <use x="315.869141" xlink:href="#DejaVuSans-100"/>
      <use x="379.345703" xlink:href="#DejaVuSans-50"/>
      <use x="442.96875" xlink:href="#DejaVuSans-95"/>
      <use x="492.96875" xlink:href="#DejaVuSans-51"/>
      <use x="556.591797" xlink:href="#DejaVuSans-32"/>
      <use x="588.378906" xlink:href="#DejaVuSans-45"/>
      <use x="624.462891" xlink:href="#DejaVuSans-32"/>
      <use x="656.25" xlink:href="#DejaVuSans-65"/>
      <use x="722.908203" xlink:href="#DejaVuSans-100"/>
      <use x="786.384766" xlink:href="#DejaVuSans-97"/>
      <use x="847.664062" xlink:href="#DejaVuSans-112"/>
      <use x="911.140625" xlink:href="#DejaVuSans-116"/>
      <use x="950.349609" xlink:href="#DejaVuSans-101"/>
      <use x="1011.873047" xlink:href="#DejaVuSans-114"/>
      <use x="1052.986328" xlink:href="#DejaVuSans-32"/>
      <use x="1084.773438" xlink:href="#DejaVuSans-49"/>
     </g>
    </g>
    <g id="line2d_37">
     <path d="M 660.22875 305.319194 
L 676.22875 305.319194 
" style="fill:none;stroke:#f45b5b;stroke-linecap:square;"/>
    </g>
    <g id="line2d_38"/>
    <g id="text_27">
     <!-- S1_vGluT2_1 - Adapter 1 -->
     <g transform="translate(682.62875 308.119194)scale(0.08 -0.08)">
      <use xlink:href="#DejaVuSans-83"/>
      <use x="63.476562" xlink:href="#DejaVuSans-49"/>
      <use x="127.099609" xlink:href="#DejaVuSans-95"/>
      <use x="177.099609" xlink:href="#DejaVuSans-118"/>
      <use x="236.279297" xlink:href="#DejaVuSans-71"/>
      <use x="313.769531" xlink:href="#DejaVuSans-108"/>
      <use x="341.552734" xlink:href="#DejaVuSans-117"/>
      <use x="404.931641" xlink:href="#DejaVuSans-84"/>
      <use x="466.015625" xlink:href="#DejaVuSans-50"/>
      <use x="529.638672" xlink:href="#DejaVuSans-95"/>
      <use x="579.638672" xlink:href="#DejaVuSans-49"/>
      <use x="643.261719" xlink:href="#DejaVuSans-32"/>
      <use x="675.048828" xlink:href="#DejaVuSans-45"/>
      <use x="711.132812" xlink:href="#DejaVuSans-32"/>
      <use x="742.919922" xlink:href="#DejaVuSans-65"/>
      <use x="809.578125" xlink:href="#DejaVuSans-100"/>
      <use x="873.054688" xlink:href="#DejaVuSans-97"/>
      <use x="934.333984" xlink:href="#DejaVuSans-112"/>
      <use x="997.810547" xlink:href="#DejaVuSans-116"/>
      <use x="1037.019531" xlink:href="#DejaVuSans-101"/>
      <use x="1098.542969" xlink:href="#DejaVuSans-114"/>
      <use x="1139.65625" xlink:href="#DejaVuSans-32"/>
      <use x="1171.443359" xlink:href="#DejaVuSans-49"/>
     </g>
    </g>
    <g id="line2d_39">
     <path d="M 864.953125 293.354194 
L 880.953125 293.354194 
" style="fill:none;stroke:#91e8e1;stroke-linecap:square;"/>
    </g>
    <g id="line2d_40"/>
    <g id="text_28">
     <!-- S1_vGluT2_2 - Adapter 1 -->
     <g transform="translate(887.353125 296.154194)scale(0.08 -0.08)">
      <use xlink:href="#DejaVuSans-83"/>
      <use x="63.476562" xlink:href="#DejaVuSans-49"/>
      <use x="127.099609" xlink:href="#DejaVuSans-95"/>
      <use x="177.099609" xlink:href="#DejaVuSans-118"/>
      <use x="236.279297" xlink:href="#DejaVuSans-71"/>
      <use x="313.769531" xlink:href="#DejaVuSans-108"/>
      <use x="341.552734" xlink:href="#DejaVuSans-117"/>
      <use x="404.931641" xlink:href="#DejaVuSans-84"/>
      <use x="466.015625" xlink:href="#DejaVuSans-50"/>
      <use x="529.638672" xlink:href="#DejaVuSans-95"/>
      <use x="579.638672" xlink:href="#DejaVuSans-50"/>
      <use x="643.261719" xlink:href="#DejaVuSans-32"/>
      <use x="675.048828" xlink:href="#DejaVuSans-45"/>
      <use x="711.132812" xlink:href="#DejaVuSans-32"/>
      <use x="742.919922" xlink:href="#DejaVuSans-65"/>
      <use x="809.578125" xlink:href="#DejaVuSans-100"/>
      <use x="873.054688" xlink:href="#DejaVuSans-97"/>
      <use x="934.333984" xlink:href="#DejaVuSans-112"/>
      <use x="997.810547" xlink:href="#DejaVuSans-116"/>
      <use x="1037.019531" xlink:href="#DejaVuSans-101"/>
      <use x="1098.542969" xlink:href="#DejaVuSans-114"/>
      <use x="1139.65625" xlink:href="#DejaVuSans-32"/>
      <use x="1171.443359" xlink:href="#DejaVuSans-49"/>
     </g>
    </g>
    <g id="line2d_41">
     <path d="M 864.953125 305.319194 
L 880.953125 305.319194 
" style="fill:none;stroke:#7cb5ec;stroke-linecap:square;"/>
    </g>
    <g id="line2d_42"/>
    <g id="text_29">
     <!-- S1_vGluT2_3 - Adapter 1 -->
     <g transform="translate(887.353125 308.119194)scale(0.08 -0.08)">
      <use xlink:href="#DejaVuSans-83"/>
      <use x="63.476562" xlink:href="#DejaVuSans-49"/>
      <use x="127.099609" xlink:href="#DejaVuSans-95"/>
      <use x="177.099609" xlink:href="#DejaVuSans-118"/>
      <use x="236.279297" xlink:href="#DejaVuSans-71"/>
      <use x="313.769531" xlink:href="#DejaVuSans-108"/>
      <use x="341.552734" xlink:href="#DejaVuSans-117"/>
      <use x="404.931641" xlink:href="#DejaVuSans-84"/>
      <use x="466.015625" xlink:href="#DejaVuSans-50"/>
      <use x="529.638672" xlink:href="#DejaVuSans-95"/>
      <use x="579.638672" xlink:href="#DejaVuSans-51"/>
      <use x="643.261719" xlink:href="#DejaVuSans-32"/>
      <use x="675.048828" xlink:href="#DejaVuSans-45"/>
      <use x="711.132812" xlink:href="#DejaVuSans-32"/>
      <use x="742.919922" xlink:href="#DejaVuSans-65"/>
      <use x="809.578125" xlink:href="#DejaVuSans-100"/>
      <use x="873.054688" xlink:href="#DejaVuSans-97"/>
      <use x="934.333984" xlink:href="#DejaVuSans-112"/>
      <use x="997.810547" xlink:href="#DejaVuSans-116"/>
      <use x="1037.019531" xlink:href="#DejaVuSans-101"/>
      <use x="1098.542969" xlink:href="#DejaVuSans-114"/>
      <use x="1139.65625" xlink:href="#DejaVuSans-32"/>
      <use x="1171.443359" xlink:href="#DejaVuSans-49"/>
     </g>
    </g>
   </g>
  </g>
 </g>
 <defs>
  <clipPath id="p5aa6e7d37a">
   <rect height="243.9472" width="940.03" x="53.328125" y="31.55486"/>
  </clipPath>
 </defs>
</svg>
