<?xml version="1.0" encoding="utf-8" standalone="no"?>
<!DOCTYPE svg PUBLIC "-//W3C//DTD SVG 1.1//EN"
  "http://www.w3.org/Graphics/SVG/1.1/DTD/svg11.dtd">
<!-- Created with matplotlib (https://matplotlib.org/) -->
<svg height="332.370444pt" version="1.1" viewBox="0 0 1000.415625 332.370444" width="1000.415625pt" xmlns="http://www.w3.org/2000/svg" xmlns:xlink="http://www.w3.org/1999/xlink">
 <metadata>
  <rdf:RDF xmlns:cc="http://creativecommons.org/ns#" xmlns:dc="http://purl.org/dc/elements/1.1/" xmlns:rdf="http://www.w3.org/1999/02/22-rdf-syntax-ns#">
   <cc:Work>
    <dc:type rdf:resource="http://purl.org/dc/dcmitype/StillImage"/>
    <dc:date>2020-12-03T09:50:13.770893</dc:date>
    <dc:format>image/svg+xml</dc:format>
    <dc:creator>
     <cc:Agent>
      <dc:title>Matplotlib v3.3.1, https://matplotlib.org/</dc:title>
     </cc:Agent>
    </dc:creator>
   </cc:Work>
  </rdf:RDF>
 </metadata>
 <defs>
  <style type="text/css">*{stroke-linecap:butt;stroke-linejoin:round;}</style>
 </defs>
 <g id="figure_1">
  <g id="axes_1">
   <g id="patch_1">
    <path d="M 40.600625 275.50206 
L 985.580625 275.50206 
L 985.580625 31.55486 
L 40.600625 31.55486 
z
" style="fill:#ffffff;"/>
   </g>
   <g id="matplotlib.axis_1">
    <g id="xtick_1">
     <g id="text_1">
      <!-- 0 -->
      <g transform="translate(38.055625 288.58081)scale(0.08 -0.08)">
       <defs>
        <path d="M 31.78125 66.40625 
Q 24.171875 66.40625 20.328125 58.90625 
Q 16.5 51.421875 16.5 36.375 
Q 16.5 21.390625 20.328125 13.890625 
Q 24.171875 6.390625 31.78125 6.390625 
Q 39.453125 6.390625 43.28125 13.890625 
Q 47.125 21.390625 47.125 36.375 
Q 47.125 51.421875 43.28125 58.90625 
Q 39.453125 66.40625 31.78125 66.40625 
z
M 31.78125 74.21875 
Q 44.046875 74.21875 50.515625 64.515625 
Q 56.984375 54.828125 56.984375 36.375 
Q 56.984375 17.96875 50.515625 8.265625 
Q 44.046875 -1.421875 31.78125 -1.421875 
Q 19.53125 -1.421875 13.0625 8.265625 
Q 6.59375 17.96875 6.59375 36.375 
Q 6.59375 54.828125 13.0625 64.515625 
Q 19.53125 74.21875 31.78125 74.21875 
z
" id="DejaVuSans-48"/>
       </defs>
       <use xlink:href="#DejaVuSans-48"/>
      </g>
     </g>
    </g>
    <g id="xtick_2">
     <g id="text_2">
      <!-- 20 -->
      <g transform="translate(224.506625 288.58081)scale(0.08 -0.08)">
       <defs>
        <path d="M 19.1875 8.296875 
L 53.609375 8.296875 
L 53.609375 0 
L 7.328125 0 
L 7.328125 8.296875 
Q 12.9375 14.109375 22.625 23.890625 
Q 32.328125 33.6875 34.8125 36.53125 
Q 39.546875 41.84375 41.421875 45.53125 
Q 43.3125 49.21875 43.3125 52.78125 
Q 43.3125 58.59375 39.234375 62.25 
Q 35.15625 65.921875 28.609375 65.921875 
Q 23.96875 65.921875 18.8125 64.3125 
Q 13.671875 62.703125 7.8125 59.421875 
L 7.8125 69.390625 
Q 13.765625 71.78125 18.9375 73 
Q 24.125 74.21875 28.421875 74.21875 
Q 39.75 74.21875 46.484375 68.546875 
Q 53.21875 62.890625 53.21875 53.421875 
Q 53.21875 48.921875 51.53125 44.890625 
Q 49.859375 40.875 45.40625 35.40625 
Q 44.1875 33.984375 37.640625 27.21875 
Q 31.109375 20.453125 19.1875 8.296875 
z
" id="DejaVuSans-50"/>
       </defs>
       <use xlink:href="#DejaVuSans-50"/>
       <use x="63.623047" xlink:href="#DejaVuSans-48"/>
      </g>
     </g>
    </g>
    <g id="xtick_3">
     <g id="text_3">
      <!-- 40 -->
      <g transform="translate(413.502625 288.58081)scale(0.08 -0.08)">
       <defs>
        <path d="M 37.796875 64.3125 
L 12.890625 25.390625 
L 37.796875 25.390625 
z
M 35.203125 72.90625 
L 47.609375 72.90625 
L 47.609375 25.390625 
L 58.015625 25.390625 
L 58.015625 17.1875 
L 47.609375 17.1875 
L 47.609375 0 
L 37.796875 0 
L 37.796875 17.1875 
L 4.890625 17.1875 
L 4.890625 26.703125 
z
" id="DejaVuSans-52"/>
       </defs>
       <use xlink:href="#DejaVuSans-52"/>
       <use x="63.623047" xlink:href="#DejaVuSans-48"/>
      </g>
     </g>
    </g>
    <g id="xtick_4">
     <g id="text_4">
      <!-- 60 -->
      <g transform="translate(602.498625 288.58081)scale(0.08 -0.08)">
       <defs>
        <path d="M 33.015625 40.375 
Q 26.375 40.375 22.484375 35.828125 
Q 18.609375 31.296875 18.609375 23.390625 
Q 18.609375 15.53125 22.484375 10.953125 
Q 26.375 6.390625 33.015625 6.390625 
Q 39.65625 6.390625 43.53125 10.953125 
Q 47.40625 15.53125 47.40625 23.390625 
Q 47.40625 31.296875 43.53125 35.828125 
Q 39.65625 40.375 33.015625 40.375 
z
M 52.59375 71.296875 
L 52.59375 62.3125 
Q 48.875 64.0625 45.09375 64.984375 
Q 41.3125 65.921875 37.59375 65.921875 
Q 27.828125 65.921875 22.671875 59.328125 
Q 17.53125 52.734375 16.796875 39.40625 
Q 19.671875 43.65625 24.015625 45.921875 
Q 28.375 48.1875 33.59375 48.1875 
Q 44.578125 48.1875 50.953125 41.515625 
Q 57.328125 34.859375 57.328125 23.390625 
Q 57.328125 12.15625 50.6875 5.359375 
Q 44.046875 -1.421875 33.015625 -1.421875 
Q 20.359375 -1.421875 13.671875 8.265625 
Q 6.984375 17.96875 6.984375 36.375 
Q 6.984375 53.65625 15.1875 63.9375 
Q 23.390625 74.21875 37.203125 74.21875 
Q 40.921875 74.21875 44.703125 73.484375 
Q 48.484375 72.75 52.59375 71.296875 
z
" id="DejaVuSans-54"/>
       </defs>
       <use xlink:href="#DejaVuSans-54"/>
       <use x="63.623047" xlink:href="#DejaVuSans-48"/>
      </g>
     </g>
    </g>
    <g id="xtick_5">
     <g id="text_5">
      <!-- 80 -->
      <g transform="translate(791.494625 288.58081)scale(0.08 -0.08)">
       <defs>
        <path d="M 31.78125 34.625 
Q 24.75 34.625 20.71875 30.859375 
Q 16.703125 27.09375 16.703125 20.515625 
Q 16.703125 13.921875 20.71875 10.15625 
Q 24.75 6.390625 31.78125 6.390625 
Q 38.8125 6.390625 42.859375 10.171875 
Q 46.921875 13.96875 46.921875 20.515625 
Q 46.921875 27.09375 42.890625 30.859375 
Q 38.875 34.625 31.78125 34.625 
z
M 21.921875 38.8125 
Q 15.578125 40.375 12.03125 44.71875 
Q 8.5 49.078125 8.5 55.328125 
Q 8.5 64.0625 14.71875 69.140625 
Q 20.953125 74.21875 31.78125 74.21875 
Q 42.671875 74.21875 48.875 69.140625 
Q 55.078125 64.0625 55.078125 55.328125 
Q 55.078125 49.078125 51.53125 44.71875 
Q 48 40.375 41.703125 38.8125 
Q 48.828125 37.15625 52.796875 32.3125 
Q 56.78125 27.484375 56.78125 20.515625 
Q 56.78125 9.90625 50.3125 4.234375 
Q 43.84375 -1.421875 31.78125 -1.421875 
Q 19.734375 -1.421875 13.25 4.234375 
Q 6.78125 9.90625 6.78125 20.515625 
Q 6.78125 27.484375 10.78125 32.3125 
Q 14.796875 37.15625 21.921875 38.8125 
z
M 18.3125 54.390625 
Q 18.3125 48.734375 21.84375 45.5625 
Q 25.390625 42.390625 31.78125 42.390625 
Q 38.140625 42.390625 41.71875 45.5625 
Q 45.3125 48.734375 45.3125 54.390625 
Q 45.3125 60.0625 41.71875 63.234375 
Q 38.140625 66.40625 31.78125 66.40625 
Q 25.390625 66.40625 21.84375 63.234375 
Q 18.3125 60.0625 18.3125 54.390625 
z
" id="DejaVuSans-56"/>
       </defs>
       <use xlink:href="#DejaVuSans-56"/>
       <use x="63.623047" xlink:href="#DejaVuSans-48"/>
      </g>
     </g>
    </g>
    <g id="xtick_6">
     <g id="text_6">
      <!-- 100 -->
      <g transform="translate(977.945625 288.58081)scale(0.08 -0.08)">
       <defs>
        <path d="M 12.40625 8.296875 
L 28.515625 8.296875 
L 28.515625 63.921875 
L 10.984375 60.40625 
L 10.984375 69.390625 
L 28.421875 72.90625 
L 38.28125 72.90625 
L 38.28125 8.296875 
L 54.390625 8.296875 
L 54.390625 0 
L 12.40625 0 
z
" id="DejaVuSans-49"/>
       </defs>
       <use xlink:href="#DejaVuSans-49"/>
       <use x="63.623047" xlink:href="#DejaVuSans-48"/>
       <use x="127.246094" xlink:href="#DejaVuSans-48"/>
      </g>
     </g>
    </g>
    <g id="text_7">
     <!-- % GC -->
     <g transform="translate(499.385156 301.842998)scale(0.1 -0.1)">
      <defs>
       <path d="M 72.703125 32.078125 
Q 68.453125 32.078125 66.03125 28.46875 
Q 63.625 24.859375 63.625 18.40625 
Q 63.625 12.0625 66.03125 8.421875 
Q 68.453125 4.78125 72.703125 4.78125 
Q 76.859375 4.78125 79.265625 8.421875 
Q 81.6875 12.0625 81.6875 18.40625 
Q 81.6875 24.8125 79.265625 28.4375 
Q 76.859375 32.078125 72.703125 32.078125 
z
M 72.703125 38.28125 
Q 80.421875 38.28125 84.953125 32.90625 
Q 89.5 27.546875 89.5 18.40625 
Q 89.5 9.28125 84.9375 3.921875 
Q 80.375 -1.421875 72.703125 -1.421875 
Q 64.890625 -1.421875 60.34375 3.921875 
Q 55.8125 9.28125 55.8125 18.40625 
Q 55.8125 27.59375 60.375 32.9375 
Q 64.9375 38.28125 72.703125 38.28125 
z
M 22.3125 68.015625 
Q 18.109375 68.015625 15.6875 64.375 
Q 13.28125 60.75 13.28125 54.390625 
Q 13.28125 47.953125 15.671875 44.328125 
Q 18.0625 40.71875 22.3125 40.71875 
Q 26.5625 40.71875 28.96875 44.328125 
Q 31.390625 47.953125 31.390625 54.390625 
Q 31.390625 60.6875 28.953125 64.34375 
Q 26.515625 68.015625 22.3125 68.015625 
z
M 66.40625 74.21875 
L 74.21875 74.21875 
L 28.609375 -1.421875 
L 20.796875 -1.421875 
z
M 22.3125 74.21875 
Q 30.03125 74.21875 34.609375 68.875 
Q 39.203125 63.53125 39.203125 54.390625 
Q 39.203125 45.171875 34.640625 39.84375 
Q 30.078125 34.515625 22.3125 34.515625 
Q 14.546875 34.515625 10.03125 39.859375 
Q 5.515625 45.21875 5.515625 54.390625 
Q 5.515625 63.484375 10.046875 68.84375 
Q 14.59375 74.21875 22.3125 74.21875 
z
" id="DejaVuSans-37"/>
       <path id="DejaVuSans-32"/>
       <path d="M 59.515625 10.40625 
L 59.515625 29.984375 
L 43.40625 29.984375 
L 43.40625 38.09375 
L 69.28125 38.09375 
L 69.28125 6.78125 
Q 63.578125 2.734375 56.6875 0.65625 
Q 49.8125 -1.421875 42 -1.421875 
Q 24.90625 -1.421875 15.25 8.5625 
Q 5.609375 18.5625 5.609375 36.375 
Q 5.609375 54.25 15.25 64.234375 
Q 24.90625 74.21875 42 74.21875 
Q 49.125 74.21875 55.546875 72.453125 
Q 61.96875 70.703125 67.390625 67.28125 
L 67.390625 56.78125 
Q 61.921875 61.421875 55.765625 63.765625 
Q 49.609375 66.109375 42.828125 66.109375 
Q 29.4375 66.109375 22.71875 58.640625 
Q 16.015625 51.171875 16.015625 36.375 
Q 16.015625 21.625 22.71875 14.15625 
Q 29.4375 6.6875 42.828125 6.6875 
Q 48.046875 6.6875 52.140625 7.59375 
Q 56.25 8.5 59.515625 10.40625 
z
" id="DejaVuSans-71"/>
       <path d="M 64.40625 67.28125 
L 64.40625 56.890625 
Q 59.421875 61.53125 53.78125 63.8125 
Q 48.140625 66.109375 41.796875 66.109375 
Q 29.296875 66.109375 22.65625 58.46875 
Q 16.015625 50.828125 16.015625 36.375 
Q 16.015625 21.96875 22.65625 14.328125 
Q 29.296875 6.6875 41.796875 6.6875 
Q 48.140625 6.6875 53.78125 8.984375 
Q 59.421875 11.28125 64.40625 15.921875 
L 64.40625 5.609375 
Q 59.234375 2.09375 53.4375 0.328125 
Q 47.65625 -1.421875 41.21875 -1.421875 
Q 24.65625 -1.421875 15.125 8.703125 
Q 5.609375 18.84375 5.609375 36.375 
Q 5.609375 53.953125 15.125 64.078125 
Q 24.65625 74.21875 41.21875 74.21875 
Q 47.75 74.21875 53.53125 72.484375 
Q 59.328125 70.75 64.40625 67.28125 
z
" id="DejaVuSans-67"/>
      </defs>
      <use xlink:href="#DejaVuSans-37"/>
      <use x="95.019531" xlink:href="#DejaVuSans-32"/>
      <use x="126.806641" xlink:href="#DejaVuSans-71"/>
      <use x="204.296875" xlink:href="#DejaVuSans-67"/>
     </g>
    </g>
   </g>
   <g id="matplotlib.axis_2">
    <g id="ytick_1">
     <g id="line2d_1">
      <path clip-path="url(#p16e2b92fbb)" d="M 40.600625 275.50206 
L 985.580625 275.50206 
" style="fill:none;stroke:#dedede;stroke-linecap:square;"/>
     </g>
     <g id="text_8">
      <!-- 0.0 -->
      <g transform="translate(20.878125 278.541435)scale(0.08 -0.08)">
       <defs>
        <path d="M 10.6875 12.40625 
L 21 12.40625 
L 21 0 
L 10.6875 0 
z
" id="DejaVuSans-46"/>
       </defs>
       <use xlink:href="#DejaVuSans-48"/>
       <use x="63.623047" xlink:href="#DejaVuSans-46"/>
       <use x="95.410156" xlink:href="#DejaVuSans-48"/>
      </g>
     </g>
    </g>
    <g id="ytick_2">
     <g id="line2d_2">
      <path clip-path="url(#p16e2b92fbb)" d="M 40.600625 243.239003 
L 985.580625 243.239003 
" style="fill:none;stroke:#dedede;stroke-linecap:square;"/>
     </g>
     <g id="text_9">
      <!-- 0.5 -->
      <g transform="translate(20.878125 246.278378)scale(0.08 -0.08)">
       <defs>
        <path d="M 10.796875 72.90625 
L 49.515625 72.90625 
L 49.515625 64.59375 
L 19.828125 64.59375 
L 19.828125 46.734375 
Q 21.96875 47.46875 24.109375 47.828125 
Q 26.265625 48.1875 28.421875 48.1875 
Q 40.625 48.1875 47.75 41.5 
Q 54.890625 34.8125 54.890625 23.390625 
Q 54.890625 11.625 47.5625 5.09375 
Q 40.234375 -1.421875 26.90625 -1.421875 
Q 22.3125 -1.421875 17.546875 -0.640625 
Q 12.796875 0.140625 7.71875 1.703125 
L 7.71875 11.625 
Q 12.109375 9.234375 16.796875 8.0625 
Q 21.484375 6.890625 26.703125 6.890625 
Q 35.15625 6.890625 40.078125 11.328125 
Q 45.015625 15.765625 45.015625 23.390625 
Q 45.015625 31 40.078125 35.4375 
Q 35.15625 39.890625 26.703125 39.890625 
Q 22.75 39.890625 18.8125 39.015625 
Q 14.890625 38.140625 10.796875 36.28125 
z
" id="DejaVuSans-53"/>
       </defs>
       <use xlink:href="#DejaVuSans-48"/>
       <use x="63.623047" xlink:href="#DejaVuSans-46"/>
       <use x="95.410156" xlink:href="#DejaVuSans-53"/>
      </g>
     </g>
    </g>
    <g id="ytick_3">
     <g id="line2d_3">
      <path clip-path="url(#p16e2b92fbb)" d="M 40.600625 210.975946 
L 985.580625 210.975946 
" style="fill:none;stroke:#dedede;stroke-linecap:square;"/>
     </g>
     <g id="text_10">
      <!-- 1.0 -->
      <g transform="translate(20.878125 214.015321)scale(0.08 -0.08)">
       <use xlink:href="#DejaVuSans-49"/>
       <use x="63.623047" xlink:href="#DejaVuSans-46"/>
       <use x="95.410156" xlink:href="#DejaVuSans-48"/>
      </g>
     </g>
    </g>
    <g id="ytick_4">
     <g id="line2d_4">
      <path clip-path="url(#p16e2b92fbb)" d="M 40.600625 178.712888 
L 985.580625 178.712888 
" style="fill:none;stroke:#dedede;stroke-linecap:square;"/>
     </g>
     <g id="text_11">
      <!-- 1.5 -->
      <g transform="translate(20.878125 181.752263)scale(0.08 -0.08)">
       <use xlink:href="#DejaVuSans-49"/>
       <use x="63.623047" xlink:href="#DejaVuSans-46"/>
       <use x="95.410156" xlink:href="#DejaVuSans-53"/>
      </g>
     </g>
    </g>
    <g id="ytick_5">
     <g id="line2d_5">
      <path clip-path="url(#p16e2b92fbb)" d="M 40.600625 146.449831 
L 985.580625 146.449831 
" style="fill:none;stroke:#dedede;stroke-linecap:square;"/>
     </g>
     <g id="text_12">
      <!-- 2.0 -->
      <g transform="translate(20.878125 149.489206)scale(0.08 -0.08)">
       <use xlink:href="#DejaVuSans-50"/>
       <use x="63.623047" xlink:href="#DejaVuSans-46"/>
       <use x="95.410156" xlink:href="#DejaVuSans-48"/>
      </g>
     </g>
    </g>
    <g id="ytick_6">
     <g id="line2d_6">
      <path clip-path="url(#p16e2b92fbb)" d="M 40.600625 114.186774 
L 985.580625 114.186774 
" style="fill:none;stroke:#dedede;stroke-linecap:square;"/>
     </g>
     <g id="text_13">
      <!-- 2.5 -->
      <g transform="translate(20.878125 117.226149)scale(0.08 -0.08)">
       <use xlink:href="#DejaVuSans-50"/>
       <use x="63.623047" xlink:href="#DejaVuSans-46"/>
       <use x="95.410156" xlink:href="#DejaVuSans-53"/>
      </g>
     </g>
    </g>
    <g id="ytick_7">
     <g id="line2d_7">
      <path clip-path="url(#p16e2b92fbb)" d="M 40.600625 81.923717 
L 985.580625 81.923717 
" style="fill:none;stroke:#dedede;stroke-linecap:square;"/>
     </g>
     <g id="text_14">
      <!-- 3.0 -->
      <g transform="translate(20.878125 84.963092)scale(0.08 -0.08)">
       <defs>
        <path d="M 40.578125 39.3125 
Q 47.65625 37.796875 51.625 33 
Q 55.609375 28.21875 55.609375 21.1875 
Q 55.609375 10.40625 48.1875 4.484375 
Q 40.765625 -1.421875 27.09375 -1.421875 
Q 22.515625 -1.421875 17.65625 -0.515625 
Q 12.796875 0.390625 7.625 2.203125 
L 7.625 11.71875 
Q 11.71875 9.328125 16.59375 8.109375 
Q 21.484375 6.890625 26.8125 6.890625 
Q 36.078125 6.890625 40.9375 10.546875 
Q 45.796875 14.203125 45.796875 21.1875 
Q 45.796875 27.640625 41.28125 31.265625 
Q 36.765625 34.90625 28.71875 34.90625 
L 20.21875 34.90625 
L 20.21875 43.015625 
L 29.109375 43.015625 
Q 36.375 43.015625 40.234375 45.921875 
Q 44.09375 48.828125 44.09375 54.296875 
Q 44.09375 59.90625 40.109375 62.90625 
Q 36.140625 65.921875 28.71875 65.921875 
Q 24.65625 65.921875 20.015625 65.03125 
Q 15.375 64.15625 9.8125 62.3125 
L 9.8125 71.09375 
Q 15.4375 72.65625 20.34375 73.4375 
Q 25.25 74.21875 29.59375 74.21875 
Q 40.828125 74.21875 47.359375 69.109375 
Q 53.90625 64.015625 53.90625 55.328125 
Q 53.90625 49.265625 50.4375 45.09375 
Q 46.96875 40.921875 40.578125 39.3125 
z
" id="DejaVuSans-51"/>
       </defs>
       <use xlink:href="#DejaVuSans-51"/>
       <use x="63.623047" xlink:href="#DejaVuSans-46"/>
       <use x="95.410156" xlink:href="#DejaVuSans-48"/>
      </g>
     </g>
    </g>
    <g id="ytick_8">
     <g id="line2d_8">
      <path clip-path="url(#p16e2b92fbb)" d="M 40.600625 49.66066 
L 985.580625 49.66066 
" style="fill:none;stroke:#dedede;stroke-linecap:square;"/>
     </g>
     <g id="text_15">
      <!-- 3.5 -->
      <g transform="translate(20.878125 52.700035)scale(0.08 -0.08)">
       <use xlink:href="#DejaVuSans-51"/>
       <use x="63.623047" xlink:href="#DejaVuSans-46"/>
       <use x="95.410156" xlink:href="#DejaVuSans-53"/>
      </g>
     </g>
    </g>
    <g id="text_16">
     <!-- Percentage -->
     <g transform="translate(14.798438 181.651116)rotate(-90)scale(0.1 -0.1)">
      <defs>
       <path d="M 19.671875 64.796875 
L 19.671875 37.40625 
L 32.078125 37.40625 
Q 38.96875 37.40625 42.71875 40.96875 
Q 46.484375 44.53125 46.484375 51.125 
Q 46.484375 57.671875 42.71875 61.234375 
Q 38.96875 64.796875 32.078125 64.796875 
z
M 9.8125 72.90625 
L 32.078125 72.90625 
Q 44.34375 72.90625 50.609375 67.359375 
Q 56.890625 61.8125 56.890625 51.125 
Q 56.890625 40.328125 50.609375 34.8125 
Q 44.34375 29.296875 32.078125 29.296875 
L 19.671875 29.296875 
L 19.671875 0 
L 9.8125 0 
z
" id="DejaVuSans-80"/>
       <path d="M 56.203125 29.59375 
L 56.203125 25.203125 
L 14.890625 25.203125 
Q 15.484375 15.921875 20.484375 11.0625 
Q 25.484375 6.203125 34.421875 6.203125 
Q 39.59375 6.203125 44.453125 7.46875 
Q 49.3125 8.734375 54.109375 11.28125 
L 54.109375 2.78125 
Q 49.265625 0.734375 44.1875 -0.34375 
Q 39.109375 -1.421875 33.890625 -1.421875 
Q 20.796875 -1.421875 13.15625 6.1875 
Q 5.515625 13.8125 5.515625 26.8125 
Q 5.515625 40.234375 12.765625 48.109375 
Q 20.015625 56 32.328125 56 
Q 43.359375 56 49.78125 48.890625 
Q 56.203125 41.796875 56.203125 29.59375 
z
M 47.21875 32.234375 
Q 47.125 39.59375 43.09375 43.984375 
Q 39.0625 48.390625 32.421875 48.390625 
Q 24.90625 48.390625 20.390625 44.140625 
Q 15.875 39.890625 15.1875 32.171875 
z
" id="DejaVuSans-101"/>
       <path d="M 41.109375 46.296875 
Q 39.59375 47.171875 37.8125 47.578125 
Q 36.03125 48 33.890625 48 
Q 26.265625 48 22.1875 43.046875 
Q 18.109375 38.09375 18.109375 28.8125 
L 18.109375 0 
L 9.078125 0 
L 9.078125 54.6875 
L 18.109375 54.6875 
L 18.109375 46.1875 
Q 20.953125 51.171875 25.484375 53.578125 
Q 30.03125 56 36.53125 56 
Q 37.453125 56 38.578125 55.875 
Q 39.703125 55.765625 41.0625 55.515625 
z
" id="DejaVuSans-114"/>
       <path d="M 48.78125 52.59375 
L 48.78125 44.1875 
Q 44.96875 46.296875 41.140625 47.34375 
Q 37.3125 48.390625 33.40625 48.390625 
Q 24.65625 48.390625 19.8125 42.84375 
Q 14.984375 37.3125 14.984375 27.296875 
Q 14.984375 17.28125 19.8125 11.734375 
Q 24.65625 6.203125 33.40625 6.203125 
Q 37.3125 6.203125 41.140625 7.25 
Q 44.96875 8.296875 48.78125 10.40625 
L 48.78125 2.09375 
Q 45.015625 0.34375 40.984375 -0.53125 
Q 36.96875 -1.421875 32.421875 -1.421875 
Q 20.0625 -1.421875 12.78125 6.34375 
Q 5.515625 14.109375 5.515625 27.296875 
Q 5.515625 40.671875 12.859375 48.328125 
Q 20.21875 56 33.015625 56 
Q 37.15625 56 41.109375 55.140625 
Q 45.0625 54.296875 48.78125 52.59375 
z
" id="DejaVuSans-99"/>
       <path d="M 54.890625 33.015625 
L 54.890625 0 
L 45.90625 0 
L 45.90625 32.71875 
Q 45.90625 40.484375 42.875 44.328125 
Q 39.84375 48.1875 33.796875 48.1875 
Q 26.515625 48.1875 22.3125 43.546875 
Q 18.109375 38.921875 18.109375 30.90625 
L 18.109375 0 
L 9.078125 0 
L 9.078125 54.6875 
L 18.109375 54.6875 
L 18.109375 46.1875 
Q 21.34375 51.125 25.703125 53.5625 
Q 30.078125 56 35.796875 56 
Q 45.21875 56 50.046875 50.171875 
Q 54.890625 44.34375 54.890625 33.015625 
z
" id="DejaVuSans-110"/>
       <path d="M 18.3125 70.21875 
L 18.3125 54.6875 
L 36.8125 54.6875 
L 36.8125 47.703125 
L 18.3125 47.703125 
L 18.3125 18.015625 
Q 18.3125 11.328125 20.140625 9.421875 
Q 21.96875 7.515625 27.59375 7.515625 
L 36.8125 7.515625 
L 36.8125 0 
L 27.59375 0 
Q 17.1875 0 13.234375 3.875 
Q 9.28125 7.765625 9.28125 18.015625 
L 9.28125 47.703125 
L 2.6875 47.703125 
L 2.6875 54.6875 
L 9.28125 54.6875 
L 9.28125 70.21875 
z
" id="DejaVuSans-116"/>
       <path d="M 34.28125 27.484375 
Q 23.390625 27.484375 19.1875 25 
Q 14.984375 22.515625 14.984375 16.5 
Q 14.984375 11.71875 18.140625 8.90625 
Q 21.296875 6.109375 26.703125 6.109375 
Q 34.1875 6.109375 38.703125 11.40625 
Q 43.21875 16.703125 43.21875 25.484375 
L 43.21875 27.484375 
z
M 52.203125 31.203125 
L 52.203125 0 
L 43.21875 0 
L 43.21875 8.296875 
Q 40.140625 3.328125 35.546875 0.953125 
Q 30.953125 -1.421875 24.3125 -1.421875 
Q 15.921875 -1.421875 10.953125 3.296875 
Q 6 8.015625 6 15.921875 
Q 6 25.140625 12.171875 29.828125 
Q 18.359375 34.515625 30.609375 34.515625 
L 43.21875 34.515625 
L 43.21875 35.40625 
Q 43.21875 41.609375 39.140625 45 
Q 35.0625 48.390625 27.6875 48.390625 
Q 23 48.390625 18.546875 47.265625 
Q 14.109375 46.140625 10.015625 43.890625 
L 10.015625 52.203125 
Q 14.9375 54.109375 19.578125 55.046875 
Q 24.21875 56 28.609375 56 
Q 40.484375 56 46.34375 49.84375 
Q 52.203125 43.703125 52.203125 31.203125 
z
" id="DejaVuSans-97"/>
       <path d="M 45.40625 27.984375 
Q 45.40625 37.75 41.375 43.109375 
Q 37.359375 48.484375 30.078125 48.484375 
Q 22.859375 48.484375 18.828125 43.109375 
Q 14.796875 37.75 14.796875 27.984375 
Q 14.796875 18.265625 18.828125 12.890625 
Q 22.859375 7.515625 30.078125 7.515625 
Q 37.359375 7.515625 41.375 12.890625 
Q 45.40625 18.265625 45.40625 27.984375 
z
M 54.390625 6.78125 
Q 54.390625 -7.171875 48.1875 -13.984375 
Q 42 -20.796875 29.203125 -20.796875 
Q 24.46875 -20.796875 20.265625 -20.09375 
Q 16.0625 -19.390625 12.109375 -17.921875 
L 12.109375 -9.1875 
Q 16.0625 -11.328125 19.921875 -12.34375 
Q 23.78125 -13.375 27.78125 -13.375 
Q 36.625 -13.375 41.015625 -8.765625 
Q 45.40625 -4.15625 45.40625 5.171875 
L 45.40625 9.625 
Q 42.625 4.78125 38.28125 2.390625 
Q 33.9375 0 27.875 0 
Q 17.828125 0 11.671875 7.65625 
Q 5.515625 15.328125 5.515625 27.984375 
Q 5.515625 40.671875 11.671875 48.328125 
Q 17.828125 56 27.875 56 
Q 33.9375 56 38.28125 53.609375 
Q 42.625 51.21875 45.40625 46.390625 
L 45.40625 54.6875 
L 54.390625 54.6875 
z
" id="DejaVuSans-103"/>
      </defs>
      <use xlink:href="#DejaVuSans-80"/>
      <use x="56.677734" xlink:href="#DejaVuSans-101"/>
      <use x="118.201172" xlink:href="#DejaVuSans-114"/>
      <use x="157.064453" xlink:href="#DejaVuSans-99"/>
      <use x="212.044922" xlink:href="#DejaVuSans-101"/>
      <use x="273.568359" xlink:href="#DejaVuSans-110"/>
      <use x="336.947266" xlink:href="#DejaVuSans-116"/>
      <use x="376.15625" xlink:href="#DejaVuSans-97"/>
      <use x="437.435547" xlink:href="#DejaVuSans-103"/>
      <use x="500.912109" xlink:href="#DejaVuSans-101"/>
     </g>
    </g>
   </g>
   <g id="line2d_9">
    <path clip-path="url(#p16e2b92fbb)" d="M 40.600625 274.380315 
L 50.050425 274.239483 
L 59.500225 273.97608 
L 68.950025 273.619257 
L 78.399825 272.974447 
L 87.849625 271.763497 
L 97.299425 269.709657 
L 106.749225 266.937958 
L 116.199025 263.496162 
L 125.648825 260.051907 
L 135.098625 256.263824 
L 144.548425 251.956662 
L 153.998225 248.558766 
L 163.448025 245.945459 
L 172.897825 243.326533 
L 182.347625 240.619104 
L 191.797425 238.192989 
L 201.247225 236.615031 
L 210.697025 234.31289 
L 220.146825 230.413125 
L 229.596625 225.337178 
L 239.046425 218.40547 
L 248.496225 211.635668 
L 257.946025 205.872766 
L 267.395825 198.648506 
L 276.845625 191.634266 
L 286.295425 185.025315 
L 295.745225 173.496 
L 305.195025 162.504026 
L 314.644825 155.000208 
L 324.094625 147.297258 
L 333.544425 142.112086 
L 342.994225 135.601823 
L 352.444025 128.91069 
L 361.893825 123.54184 
L 371.343625 118.294856 
L 380.793425 116.880559 
L 390.243225 115.921773 
L 399.693025 112.188126 
L 409.142825 105.63607 
L 418.592625 106.561492 
L 428.042425 113.293013 
L 437.492225 117.836887 
L 446.942025 121.547003 
L 456.391825 123.350082 
L 465.841625 124.835674 
L 475.291425 125.338949 
L 484.741225 127.707115 
L 494.191025 131.073754 
L 503.640825 132.583227 
L 513.090625 135.499623 
L 522.540425 141.664301 
L 531.990225 149.952006 
L 541.440025 158.198972 
L 550.889825 165.124357 
L 560.339625 171.416874 
L 569.789425 177.581201 
L 579.239225 183.563254 
L 588.689025 190.014163 
L 598.138825 196.70073 
L 607.588625 203.400643 
L 617.038425 208.927887 
L 626.488225 212.307872 
L 635.938025 215.928079 
L 645.387825 220.468089 
L 654.837625 224.358373 
L 664.287425 227.357652 
L 673.737225 229.459255 
L 683.187025 231.305182 
L 692.636825 233.683533 
L 702.086625 235.777761 
L 711.536425 237.599103 
L 720.986225 239.681741 
L 730.436025 241.421956 
L 739.885825 242.470299 
L 749.335625 243.040302 
L 758.785425 243.195886 
L 768.235225 242.888933 
L 777.685025 242.104696 
L 787.134825 240.873375 
L 796.584625 240.168158 
L 806.034425 240.456145 
L 815.484225 241.904861 
L 824.934025 244.881663 
L 834.383825 249.391821 
L 843.833625 254.683407 
L 853.283425 260.064901 
L 862.733225 265.08887 
L 872.183025 269.034644 
L 881.632825 271.860429 
L 891.082625 273.460162 
L 900.532425 274.275305 
L 909.982225 274.700613 
L 919.432025 274.929598 
L 928.881825 275.08764 
L 938.331625 275.161392 
L 947.781425 275.223204 
L 957.231225 275.270266 
L 966.681025 275.300118 
L 976.130825 275.349638 
L 985.580625 275.412854 
" style="fill:none;stroke:#f0ad4e;stroke-linecap:square;"/>
   </g>
   <g id="line2d_10">
    <path clip-path="url(#p16e2b92fbb)" d="M 40.600625 274.416909 
L 50.050425 274.296053 
L 59.500225 274.202119 
L 68.950025 274.005015 
L 78.399825 273.405844 
L 87.849625 272.343882 
L 97.299425 270.492718 
L 106.749225 267.79851 
L 116.199025 264.406479 
L 125.648825 260.995191 
L 135.098625 257.196966 
L 144.548425 252.562573 
L 153.998225 248.622858 
L 163.448025 244.843498 
L 172.897825 241.583722 
L 182.347625 238.785754 
L 191.797425 236.505404 
L 201.247225 234.879446 
L 210.697025 231.994619 
L 220.146825 228.006365 
L 229.596625 223.710566 
L 239.046425 217.524301 
L 248.496225 210.766181 
L 257.946025 204.988469 
L 267.395825 197.378263 
L 276.845625 190.227507 
L 286.295425 183.538166 
L 295.745225 173.08499 
L 305.195025 162.295972 
L 314.644825 153.534979 
L 324.094625 145.296517 
L 333.544425 139.981007 
L 342.994225 134.288386 
L 352.444025 127.918577 
L 361.893825 123.383424 
L 371.343625 121.039403 
L 380.793425 120.097511 
L 390.243225 117.528482 
L 399.693025 113.884914 
L 409.142825 109.007236 
L 418.592625 110.022625 
L 428.042425 115.043561 
L 437.492225 118.661386 
L 446.942025 122.368625 
L 456.391825 124.201709 
L 465.841625 125.824129 
L 475.291425 127.375019 
L 484.741225 130.818339 
L 494.191025 135.449784 
L 503.640825 137.734064 
L 513.090625 140.65112 
L 522.540425 147.293494 
L 531.990225 156.046429 
L 541.440025 164.314761 
L 550.889825 171.065807 
L 560.339625 176.274021 
L 569.789425 181.384175 
L 579.239225 187.098019 
L 588.689025 193.650586 
L 598.138825 200.103521 
L 607.588625 205.387785 
L 617.038425 210.121221 
L 626.488225 213.740815 
L 635.938025 216.650599 
L 645.387825 220.108855 
L 654.837625 223.346032 
L 664.287425 225.706363 
L 673.737225 227.128929 
L 683.187025 228.805588 
L 692.636825 231.234895 
L 702.086625 233.603676 
L 711.536425 235.987982 
L 720.986225 238.077714 
L 730.436025 239.785028 
L 739.885825 240.806116 
L 749.335625 240.914788 
L 758.785425 240.230526 
L 768.235225 238.890299 
L 777.685025 237.051713 
L 787.134825 235.123517 
L 796.584625 233.68464 
L 806.034425 233.487733 
L 815.484225 235.057095 
L 824.934025 239.027466 
L 834.383825 245.204298 
L 843.833625 252.491828 
L 853.283425 259.794883 
L 862.733225 265.866579 
L 872.183025 270.208166 
L 881.632825 272.813943 
L 891.082625 274.127837 
L 900.532425 274.727794 
L 909.982225 275.0037 
L 919.432025 275.140671 
L 928.881825 275.230281 
L 938.331625 275.29572 
L 947.781425 275.344652 
L 957.231225 275.388082 
L 966.681025 275.416773 
L 976.130825 275.435638 
L 985.580625 275.446447 
" style="fill:none;stroke:#f0ad4e;stroke-linecap:square;"/>
   </g>
   <g id="line2d_11">
    <path clip-path="url(#p16e2b92fbb)" d="M 40.600625 273.696484 
L 50.050425 273.54609 
L 59.500225 273.120186 
L 68.950025 272.568954 
L 78.399825 271.91045 
L 87.849625 270.695828 
L 97.299425 268.523826 
L 106.749225 264.981923 
L 116.199025 260.544029 
L 125.648825 256.795227 
L 135.098625 253.045151 
L 144.548425 248.791851 
L 153.998225 245.445375 
L 163.448025 242.350192 
L 172.897825 239.458933 
L 182.347625 236.591253 
L 191.797425 234.473206 
L 201.247225 233.328258 
L 210.697025 231.595117 
L 220.146825 228.956002 
L 229.596625 225.291107 
L 239.046425 220.126309 
L 248.496225 214.200195 
L 257.946025 208.408968 
L 267.395825 201.916541 
L 276.845625 197.502013 
L 286.295425 192.402003 
L 295.745225 182.017603 
L 305.195025 170.572798 
L 314.644825 161.757974 
L 324.094625 154.15841 
L 333.544425 148.450877 
L 342.994225 143.162025 
L 352.444025 138.235564 
L 361.893825 134.136693 
L 371.343625 130.335424 
L 380.793425 128.478229 
L 390.243225 126.038577 
L 399.693025 122.111767 
L 409.142825 117.623954 
L 418.592625 118.127391 
L 428.042425 122.005557 
L 437.492225 125.472051 
L 446.942025 129.221914 
L 456.391825 130.900463 
L 465.841625 131.578297 
L 475.291425 132.563717 
L 484.741225 136.103072 
L 494.191025 141.004893 
L 503.640825 144.295078 
L 513.090625 147.61755 
L 522.540425 153.169379 
L 531.990225 161.04594 
L 541.440025 168.711992 
L 550.889825 174.812716 
L 560.339625 179.690746 
L 569.789425 184.580884 
L 579.239225 189.71828 
L 588.689025 194.999272 
L 598.138825 200.278989 
L 607.588625 204.61131 
L 617.038425 207.83522 
L 626.488225 209.95178 
L 635.938025 211.790707 
L 645.387825 214.376292 
L 654.837625 216.918331 
L 664.287425 218.980936 
L 673.737225 220.084462 
L 683.187025 221.351339 
L 692.636825 223.531626 
L 702.086625 225.43704 
L 711.536425 227.067794 
L 720.986225 228.179179 
L 730.436025 228.532223 
L 739.885825 228.044929 
L 749.335625 226.439029 
L 758.785425 223.993641 
L 768.235225 221.166958 
L 777.685025 218.631292 
L 787.134825 217.361228 
L 796.584625 218.047772 
L 806.034425 221.643418 
L 815.484225 228.330635 
L 824.934025 237.343223 
L 834.383825 247.158548 
L 843.833625 256.288816 
L 853.283425 263.805537 
L 862.733225 269.070597 
L 872.183025 272.226532 
L 881.632825 273.923561 
L 891.082625 274.666184 
L 900.532425 274.982266 
L 909.982225 275.149229 
L 919.432025 275.237596 
L 928.881825 275.282417 
L 938.331625 275.324051 
L 947.781425 275.363562 
L 957.231225 275.393088 
L 966.681025 275.423252 
L 976.130825 275.446406 
L 985.580625 275.461063 
" style="fill:none;stroke:#f0ad4e;stroke-linecap:square;"/>
   </g>
   <g id="line2d_12">
    <path clip-path="url(#p16e2b92fbb)" d="M 40.600625 273.860595 
L 50.050425 273.693049 
L 59.500225 273.25736 
L 68.950025 272.763394 
L 78.399825 272.14611 
L 87.849625 270.956638 
L 97.299425 268.623309 
L 106.749225 265.347836 
L 116.199025 261.521336 
L 125.648825 257.791443 
L 135.098625 254.143762 
L 144.548425 250.098723 
L 153.998225 246.608182 
L 163.448025 243.418737 
L 172.897825 240.41453 
L 182.347625 237.09986 
L 191.797425 234.051078 
L 201.247225 232.301385 
L 210.697025 230.026159 
L 220.146825 225.942269 
L 229.596625 220.891087 
L 239.046425 214.437097 
L 248.496225 207.110342 
L 257.946025 199.802493 
L 267.395825 191.394667 
L 276.845625 184.495796 
L 286.295425 178.116214 
L 295.745225 166.956541 
L 305.195025 154.697586 
L 314.644825 142.832694 
L 324.094625 133.432774 
L 333.544425 128.982919 
L 342.994225 122.721625 
L 352.444025 115.639425 
L 361.893825 111.420075 
L 371.343625 108.245547 
L 380.793425 106.071092 
L 390.243225 105.284527 
L 399.693025 105.893313 
L 409.142825 103.659366 
L 418.592625 105.264755 
L 428.042425 111.980296 
L 437.492225 119.127017 
L 446.942025 124.50618 
L 456.391825 127.115284 
L 465.841625 131.100312 
L 475.291425 134.35341 
L 484.741225 138.025893 
L 494.191025 141.385658 
L 503.640825 143.018625 
L 513.090625 145.53459 
L 522.540425 152.750514 
L 531.990225 162.195182 
L 541.440025 169.71654 
L 550.889825 175.432703 
L 560.339625 180.821058 
L 569.789425 186.230227 
L 579.239225 191.459361 
L 588.689025 197.00503 
L 598.138825 202.774266 
L 607.588625 207.815909 
L 617.038425 211.308878 
L 626.488225 211.486831 
L 635.938025 212.246164 
L 645.387825 217.030591 
L 654.837625 222.481559 
L 664.287425 226.745483 
L 673.737225 227.103123 
L 683.187025 228.688566 
L 692.636825 232.731003 
L 702.086625 235.453886 
L 711.536425 238.497638 
L 720.986225 240.889417 
L 730.436025 242.149828 
L 739.885825 242.469657 
L 749.335625 242.380334 
L 758.785425 241.880818 
L 768.235225 241.464901 
L 777.685025 241.417031 
L 787.134825 242.155899 
L 796.584625 244.17148 
L 806.034425 247.378442 
L 815.484225 251.612187 
L 824.934025 256.426966 
L 834.383825 261.110276 
L 843.833625 265.261982 
L 853.283425 268.774551 
L 862.733225 271.366484 
L 872.183025 273.037434 
L 881.632825 274.065778 
L 891.082625 274.646639 
L 900.532425 274.940451 
L 909.982225 275.09707 
L 919.432025 275.204605 
L 928.881825 275.277278 
L 938.331625 275.3222 
L 947.781425 275.359663 
L 957.231225 275.399208 
L 966.681025 275.423837 
L 976.130825 275.431469 
L 985.580625 275.443263 
" style="fill:none;stroke:#f0ad4e;stroke-linecap:square;"/>
   </g>
   <g id="line2d_13">
    <path clip-path="url(#p16e2b92fbb)" d="M 40.600625 274.405871 
L 50.050425 274.286226 
L 59.500225 274.231701 
L 68.950025 274.128207 
L 78.399825 273.621975 
L 87.849625 272.664167 
L 97.299425 270.832922 
L 106.749225 268.50126 
L 116.199025 265.726678 
L 125.648825 262.613963 
L 135.098625 259.345295 
L 144.548425 255.746762 
L 153.998225 252.687409 
L 163.448025 250.307424 
L 172.897825 248.246192 
L 182.347625 245.235162 
L 191.797425 242.317419 
L 201.247225 241.34837 
L 210.697025 239.419057 
L 220.146825 235.566246 
L 229.596625 230.637403 
L 239.046425 224.051485 
L 248.496225 216.96528 
L 257.946025 209.487062 
L 267.395825 200.870405 
L 276.845625 193.714816 
L 286.295425 187.424652 
L 295.745225 176.720533 
L 305.195025 164.50108 
L 314.644825 153.726027 
L 324.094625 145.577485 
L 333.544425 141.015072 
L 342.994225 136.238951 
L 352.444025 131.350291 
L 361.893825 128.23525 
L 371.343625 124.016913 
L 380.793425 119.012614 
L 390.243225 116.182214 
L 399.693025 115.139388 
L 409.142825 111.49783 
L 418.592625 113.157489 
L 428.042425 121.211451 
L 437.492225 126.474422 
L 446.942025 129.293839 
L 456.391825 130.264827 
L 465.841625 131.677184 
L 475.291425 132.842885 
L 484.741225 135.316416 
L 494.191025 138.007143 
L 503.640825 138.637025 
L 513.090625 139.858156 
L 522.540425 144.849923 
L 531.990225 152.208754 
L 541.440025 158.768572 
L 550.889825 163.873265 
L 560.339625 168.356475 
L 569.789425 173.659888 
L 579.239225 179.143286 
L 588.689025 185.217158 
L 598.138825 191.523989 
L 607.588625 197.887025 
L 617.038425 203.299618 
L 626.488225 204.961731 
L 635.938025 207.072837 
L 645.387825 212.382452 
L 654.837625 217.79091 
L 664.287425 221.701089 
L 673.737225 222.172047 
L 683.187025 222.836298 
L 692.636825 224.663408 
L 702.086625 225.204137 
L 711.536425 226.048244 
L 720.986225 227.250769 
L 730.436025 228.908231 
L 739.885825 230.972177 
L 749.335625 233.744046 
L 758.785425 237.134039 
L 768.235225 240.587989 
L 777.685025 243.433118 
L 787.134825 245.557532 
L 796.584625 246.736542 
L 806.034425 247.00232 
L 815.484225 246.717549 
L 824.934025 246.447378 
L 834.383825 247.035914 
L 843.833625 248.8408 
L 853.283425 251.980391 
L 862.733225 256.330389 
L 872.183025 261.363372 
L 881.632825 266.288598 
L 891.082625 270.18831 
L 900.532425 272.664942 
L 909.982225 274.044093 
L 919.432025 274.768942 
L 928.881825 275.089116 
L 938.331625 275.227238 
L 947.781425 275.298689 
L 957.231225 275.348304 
L 966.681025 275.384094 
L 976.130825 275.39792 
L 985.580625 275.394819 
" style="fill:none;stroke:#f0ad4e;stroke-linecap:square;"/>
   </g>
   <g id="line2d_14">
    <path clip-path="url(#p16e2b92fbb)" d="M 40.600625 274.418084 
L 50.050425 274.273583 
L 59.500225 274.172298 
L 68.950025 274.06156 
L 78.399825 273.560086 
L 87.849625 272.70974 
L 97.299425 271.325059 
L 106.749225 269.441605 
L 116.199025 266.871663 
L 125.648825 263.900631 
L 135.098625 261.060595 
L 144.548425 257.545324 
L 153.998225 254.095776 
L 163.448025 250.148806 
L 172.897825 244.901783 
L 182.347625 238.026546 
L 191.797425 235.376025 
L 201.247225 237.787963 
L 210.697025 236.222319 
L 220.146825 230.63768 
L 229.596625 226.213544 
L 239.046425 221.025042 
L 248.496225 214.292504 
L 257.946025 204.867581 
L 267.395825 197.293701 
L 276.845625 194.372186 
L 286.295425 186.702423 
L 295.745225 168.468841 
L 305.195025 146.127132 
L 314.644825 128.343256 
L 324.094625 113.339996 
L 333.544425 109.007692 
L 342.994225 105.293002 
L 352.444025 94.971367 
L 361.893825 85.947534 
L 371.343625 81.604425 
L 380.793425 74.970472 
L 390.243225 72.545479 
L 399.693025 69.299402 
L 409.142825 58.152631 
L 418.592625 73.935562 
L 428.042425 99.278463 
L 437.492225 112.561676 
L 446.942025 123.021058 
L 456.391825 123.771469 
L 465.841625 124.200918 
L 475.291425 133.331889 
L 484.741225 144.525476 
L 494.191025 154.786789 
L 503.640825 160.790974 
L 513.090625 164.969325 
L 522.540425 169.297128 
L 531.990225 173.85271 
L 541.440025 179.109186 
L 550.889825 183.572936 
L 560.339625 188.092956 
L 569.789425 193.527693 
L 579.239225 199.839335 
L 588.689025 205.603136 
L 598.138825 210.533248 
L 607.588625 215.882006 
L 617.038425 220.563632 
L 626.488225 224.119867 
L 635.938025 227.733271 
L 645.387825 230.669641 
L 654.837625 233.237783 
L 664.287425 235.552937 
L 673.737225 236.419938 
L 683.187025 236.475757 
L 692.636825 236.62701 
L 702.086625 235.82213 
L 711.536425 234.897509 
L 720.986225 234.453655 
L 730.436025 234.540085 
L 739.885825 236.215567 
L 749.335625 239.142934 
L 758.785425 242.625343 
L 768.235225 246.773984 
L 777.685025 250.834394 
L 787.134825 253.923817 
L 796.584625 256.098972 
L 806.034425 257.455743 
L 815.484225 257.988728 
L 824.934025 258.334898 
L 834.383825 258.762547 
L 843.833625 259.80736 
L 853.283425 261.804703 
L 862.733225 264.323328 
L 872.183025 267.253395 
L 881.632825 270.104236 
L 891.082625 272.388779 
L 900.532425 273.852687 
L 909.982225 274.6103 
L 919.432025 274.993383 
L 928.881825 275.1865 
L 938.331625 275.266178 
L 947.781425 275.297239 
L 957.231225 275.320197 
L 966.681025 275.321997 
L 976.130825 275.267078 
L 985.580625 275.169845 
" style="fill:none;stroke:#f0ad4e;stroke-linecap:square;"/>
   </g>
   <g id="line2d_15">
    <path clip-path="url(#p16e2b92fbb)" d="M 40.600625 274.485765 
L 50.050425 274.21188 
L 59.500225 273.884871 
L 68.950025 273.613163 
L 78.399825 272.970903 
L 87.849625 271.664612 
L 97.299425 269.481799 
L 106.749225 267.001587 
L 116.199025 263.941382 
L 125.648825 260.802364 
L 135.098625 257.324145 
L 144.548425 252.666346 
L 153.998225 248.310735 
L 163.448025 244.36051 
L 172.897825 239.218948 
L 182.347625 231.733899 
L 191.797425 228.999831 
L 201.247225 231.165662 
L 210.697025 230.265192 
L 220.146825 225.288222 
L 229.596625 220.195863 
L 239.046425 216.206885 
L 248.496225 210.57764 
L 257.946025 202.654548 
L 267.395825 195.327124 
L 276.845625 190.964547 
L 286.295425 183.860935 
L 295.745225 167.51357 
L 305.195025 147.31221 
L 314.644825 131.027111 
L 324.094625 115.770935 
L 333.544425 109.48898 
L 342.994225 102.572603 
L 352.444025 88.807341 
L 361.893825 76.468984 
L 371.343625 65.672486 
L 380.793425 57.814273 
L 390.243225 59.558172 
L 399.693025 59.61652 
L 409.142825 43.169441 
L 418.592625 53.738209 
L 428.042425 82.943399 
L 437.492225 96.501397 
L 446.942025 104.310406 
L 456.391825 103.490926 
L 465.841625 105.180396 
L 475.291425 118.286852 
L 484.741225 133.786434 
L 494.191025 147.049645 
L 503.640825 156.76105 
L 513.090625 164.206475 
L 522.540425 170.612093 
L 531.990225 176.634096 
L 541.440025 182.229377 
L 550.889825 187.414918 
L 560.339625 193.545343 
L 569.789425 200.585382 
L 579.239225 207.235711 
L 588.689025 212.778305 
L 598.138825 217.642499 
L 607.588625 222.565911 
L 617.038425 226.968548 
L 626.488225 230.706283 
L 635.938025 234.619061 
L 645.387825 238.040238 
L 654.837625 241.026855 
L 664.287425 243.963833 
L 673.737225 245.918481 
L 683.187025 247.684586 
L 692.636825 249.844321 
L 702.086625 251.677048 
L 711.536425 253.516742 
L 720.986225 255.150041 
L 730.436025 256.270404 
L 739.885825 257.195258 
L 749.335625 257.798329 
L 758.785425 258.066119 
L 768.235225 258.047831 
L 777.685025 257.830116 
L 787.134825 257.445631 
L 796.584625 257.190904 
L 806.034425 257.563632 
L 815.484225 258.696187 
L 824.934025 260.610339 
L 834.383825 262.99824 
L 843.833625 265.847261 
L 853.283425 268.713264 
L 862.733225 271.077651 
L 872.183025 272.874237 
L 881.632825 274.064704 
L 891.082625 274.727865 
L 900.532425 275.076644 
L 909.982225 275.224255 
L 919.432025 275.296972 
L 928.881825 275.346611 
L 938.331625 275.374914 
L 947.781425 275.402346 
L 957.231225 275.426731 
L 966.681025 275.433697 
L 976.130825 275.448937 
L 985.580625 275.460694 
" style="fill:none;stroke:#f0ad4e;stroke-linecap:square;"/>
   </g>
   <g id="line2d_16">
    <path clip-path="url(#p16e2b92fbb)" d="M 40.600625 274.735469 
L 50.050425 274.592873 
L 59.500225 274.463678 
L 68.950025 274.366112 
L 78.399825 273.905622 
L 87.849625 273.169051 
L 97.299425 271.849229 
L 106.749225 269.947226 
L 116.199025 267.441065 
L 125.648825 264.485134 
L 135.098625 261.670192 
L 144.548425 257.710725 
L 153.998225 253.773236 
L 163.448025 250.241023 
L 172.897825 244.37044 
L 182.347625 234.935478 
L 191.797425 232.49579 
L 201.247225 237.020283 
L 210.697025 237.147869 
L 220.146825 231.723839 
L 229.596625 227.103388 
L 239.046425 222.30764 
L 248.496225 215.411005 
L 257.946025 208.58674 
L 267.395825 203.28976 
L 276.845625 200.225541 
L 286.295425 192.171515 
L 295.745225 173.206706 
L 305.195025 149.792456 
L 314.644825 132.25951 
L 324.094625 118.116717 
L 333.544425 109.717993 
L 342.994225 102.978428 
L 352.444025 92.8337 
L 361.893825 81.48119 
L 371.343625 76.549815 
L 380.793425 71.12632 
L 390.243225 69.139081 
L 399.693025 67.049988 
L 409.142825 55.690509 
L 418.592625 68.6282 
L 428.042425 92.418777 
L 437.492225 106.23349 
L 446.942025 117.142664 
L 456.391825 118.322034 
L 465.841625 118.240551 
L 475.291425 125.549965 
L 484.741225 134.516395 
L 494.191025 142.798791 
L 503.640825 150.274925 
L 513.090625 157.889904 
L 522.540425 164.730787 
L 531.990225 169.947356 
L 541.440025 175.667302 
L 550.889825 180.301154 
L 560.339625 184.52866 
L 569.789425 189.5442 
L 579.239225 195.205713 
L 588.689025 201.571632 
L 598.138825 207.418627 
L 607.588625 213.283314 
L 617.038425 218.8419 
L 626.488225 223.649442 
L 635.938025 227.920906 
L 645.387825 231.553366 
L 654.837625 235.487102 
L 664.287425 239.069707 
L 673.737225 241.334097 
L 683.187025 243.410325 
L 692.636825 245.351997 
L 702.086625 246.66217 
L 711.536425 247.988426 
L 720.986225 249.382763 
L 730.436025 250.751368 
L 739.885825 252.220756 
L 749.335625 253.560414 
L 758.785425 254.883453 
L 768.235225 255.912185 
L 777.685025 256.431644 
L 787.134825 256.655724 
L 796.584625 256.403232 
L 806.034425 255.769589 
L 815.484225 254.982091 
L 824.934025 254.316283 
L 834.383825 254.042883 
L 843.833625 254.800361 
L 853.283425 256.769373 
L 862.733225 259.791777 
L 872.183025 263.652606 
L 881.632825 267.617434 
L 891.082625 270.917526 
L 900.532425 273.124021 
L 909.982225 274.325906 
L 919.432025 274.903262 
L 928.881825 275.157898 
L 938.331625 275.250104 
L 947.781425 275.321402 
L 957.231225 275.376618 
L 966.681025 275.402886 
L 976.130825 275.404494 
L 985.580625 275.40235 
" style="fill:none;stroke:#f0ad4e;stroke-linecap:square;"/>
   </g>
   <g id="line2d_17">
    <path clip-path="url(#p16e2b92fbb)" d="M 40.600625 273.429661 
L 50.050425 273.209833 
L 59.500225 272.859314 
L 68.950025 272.513011 
L 78.399825 271.969767 
L 87.849625 271.084134 
L 97.299425 269.550161 
L 106.749225 267.417535 
L 116.199025 264.63145 
L 125.648825 261.611685 
L 135.098625 258.147448 
L 144.548425 253.495541 
L 153.998225 249.105921 
L 163.448025 244.862049 
L 172.897825 240.174609 
L 182.347625 234.365447 
L 191.797425 230.994561 
L 201.247225 231.70644 
L 210.697025 230.59044 
L 220.146825 226.870239 
L 229.596625 223.237367 
L 239.046425 219.763795 
L 248.496225 215.554554 
L 257.946025 208.887162 
L 267.395825 203.541745 
L 276.845625 201.751808 
L 286.295425 196.919523 
L 295.745225 183.826549 
L 305.195025 168.697914 
L 314.644825 156.608014 
L 324.094625 146.046066 
L 333.544425 141.869046 
L 342.994225 137.705878 
L 352.444025 130.686762 
L 361.893825 125.023048 
L 371.343625 121.54285 
L 380.793425 117.287837 
L 390.243225 117.117998 
L 399.693025 117.197196 
L 409.142825 107.986733 
L 418.592625 114.206039 
L 428.042425 130.812335 
L 437.492225 138.122647 
L 446.942025 142.543886 
L 456.391825 144.091108 
L 465.841625 145.114962 
L 475.291425 150.654911 
L 484.741225 158.977331 
L 494.191025 166.096423 
L 503.640825 170.911544 
L 513.090625 174.892827 
L 522.540425 178.667834 
L 531.990225 182.734037 
L 541.440025 187.199241 
L 550.889825 191.363011 
L 560.339625 195.431924 
L 569.789425 199.257521 
L 579.239225 202.191162 
L 588.689025 204.95135 
L 598.138825 207.753997 
L 607.588625 209.906197 
L 617.038425 211.482027 
L 626.488225 211.569657 
L 635.938025 210.512679 
L 645.387825 208.76189 
L 654.837625 206.068554 
L 664.287425 202.537766 
L 673.737225 198.403809 
L 683.187025 194.916986 
L 692.636825 192.567544 
L 702.086625 191.663843 
L 711.536425 192.450404 
L 720.986225 194.851038 
L 730.436025 199.233732 
L 739.885825 205.375646 
L 749.335625 211.908432 
L 758.785425 218.441217 
L 768.235225 224.153415 
L 777.685025 228.36657 
L 787.134825 231.232155 
L 796.584625 232.749565 
L 806.034425 234.018842 
L 815.484225 235.73741 
L 824.934025 238.291622 
L 834.383825 242.392154 
L 843.833625 247.893257 
L 853.283425 253.844554 
L 862.733225 259.862703 
L 872.183025 265.255398 
L 881.632825 269.317385 
L 891.082625 272.121538 
L 900.532425 273.828963 
L 909.982225 274.67575 
L 919.432025 275.086797 
L 928.881825 275.268079 
L 938.331625 275.347277 
L 947.781425 275.395459 
L 957.231225 275.434907 
L 966.681025 275.447555 
L 976.130825 275.449663 
L 985.580625 275.458998 
" style="fill:none;stroke:#d9534f;stroke-linecap:square;"/>
   </g>
   <g id="line2d_18">
    <path clip-path="url(#p16e2b92fbb)" d="M 40.600625 274.496088 
L 50.050425 274.333413 
L 59.500225 274.128665 
L 68.950025 273.917374 
L 78.399825 273.359228 
L 87.849625 272.406547 
L 97.299425 270.842429 
L 106.749225 268.26299 
L 116.199025 265.294625 
L 125.648825 263.015295 
L 135.098625 259.884255 
L 144.548425 255.032965 
L 153.998225 250.727668 
L 163.448025 247.188068 
L 172.897825 242.562094 
L 182.347625 236.283185 
L 191.797425 233.931866 
L 201.247225 235.617523 
L 210.697025 235.187461 
L 220.146825 230.708269 
L 229.596625 226.36651 
L 239.046425 223.16535 
L 248.496225 215.974896 
L 257.946025 205.960989 
L 267.395825 197.262512 
L 276.845625 192.171884 
L 286.295425 186.098656 
L 295.745225 172.532061 
L 305.195025 152.645421 
L 314.644825 137.195901 
L 324.094625 128.623637 
L 333.544425 119.717609 
L 342.994225 106.443643 
L 352.444025 91.909408 
L 361.893825 80.971802 
L 371.343625 71.729203 
L 380.793425 65.580247 
L 390.243225 67.576297 
L 399.693025 68.217651 
L 409.142825 55.538293 
L 418.592625 59.1611 
L 428.042425 77.004945 
L 437.492225 83.449335 
L 446.942025 86.18023 
L 456.391825 85.766061 
L 465.841625 92.309553 
L 475.291425 111.20892 
L 484.741225 131.641553 
L 494.191025 146.234688 
L 503.640825 155.517489 
L 513.090625 164.043941 
L 522.540425 171.706529 
L 531.990225 178.738982 
L 541.440025 185.132886 
L 550.889825 189.581226 
L 560.339625 194.72234 
L 569.789425 201.417288 
L 579.239225 207.676564 
L 588.689025 213.185101 
L 598.138825 218.530027 
L 607.588625 223.307458 
L 617.038425 227.509914 
L 626.488225 231.054188 
L 635.938025 233.800978 
L 645.387825 236.417813 
L 654.837625 238.761652 
L 664.287425 240.767052 
L 673.737225 242.3293 
L 683.187025 244.472132 
L 692.636825 246.438264 
L 702.086625 248.257615 
L 711.536425 250.664093 
L 720.986225 251.89725 
L 730.436025 252.417065 
L 739.885825 252.672297 
L 749.335625 252.501207 
L 758.785425 251.958955 
L 768.235225 251.075457 
L 777.685025 250.004976 
L 787.134825 249.126153 
L 796.584625 248.854092 
L 806.034425 249.768442 
L 815.484225 251.595272 
L 824.934025 254.567376 
L 834.383825 258.934378 
L 843.833625 263.717419 
L 853.283425 267.80301 
L 862.733225 270.921897 
L 872.183025 273.025462 
L 881.632825 274.207199 
L 891.082625 274.822375 
L 900.532425 275.059844 
L 909.982225 275.194472 
L 919.432025 275.274875 
L 928.881825 275.319751 
L 938.331625 275.357148 
L 947.781425 275.387065 
L 957.231225 275.426332 
L 966.681025 275.449705 
L 976.130825 275.452509 
L 985.580625 275.453444 
" style="fill:none;stroke:#f0ad4e;stroke-linecap:square;"/>
   </g>
   <g id="line2d_19">
    <path clip-path="url(#p16e2b92fbb)" d="M 40.600625 274.615151 
L 50.050425 274.433392 
L 59.500225 274.192632 
L 68.950025 274.005163 
L 78.399825 273.524119 
L 87.849625 272.693356 
L 97.299425 271.180281 
L 106.749225 268.939694 
L 116.199025 266.230909 
L 125.648825 263.70436 
L 135.098625 261.00985 
L 144.548425 256.92217 
L 153.998225 253.066208 
L 163.448025 249.906832 
L 172.897825 245.617409 
L 182.347625 238.939896 
L 191.797425 236.139757 
L 201.247225 238.116746 
L 210.697025 236.817309 
L 220.146825 231.181344 
L 229.596625 225.593436 
L 239.046425 221.056115 
L 248.496225 216.300398 
L 257.946025 209.686168 
L 267.395825 203.491603 
L 276.845625 199.050872 
L 286.295425 192.668837 
L 295.745225 178.885108 
L 305.195025 158.603246 
L 314.644825 144.624435 
L 324.094625 133.637515 
L 333.544425 126.584589 
L 342.994225 120.130231 
L 352.444025 110.41515 
L 361.893825 102.725115 
L 371.343625 95.722624 
L 380.793425 90.01957 
L 390.243225 91.233836 
L 399.693025 90.722817 
L 409.142825 80.47245 
L 418.592625 89.887295 
L 428.042425 110.362335 
L 437.492225 119.933722 
L 446.942025 126.237248 
L 456.391825 127.464837 
L 465.841625 126.932881 
L 475.291425 133.381053 
L 484.741225 143.386378 
L 494.191025 150.613927 
L 503.640825 157.073042 
L 513.090625 163.496948 
L 522.540425 168.786524 
L 531.990225 174.251198 
L 541.440025 180.087003 
L 550.889825 184.470637 
L 560.339625 189.514219 
L 569.789425 195.431388 
L 579.239225 200.03437 
L 588.689025 204.400399 
L 598.138825 209.609563 
L 607.588625 215.42015 
L 617.038425 219.960802 
L 626.488225 222.527319 
L 635.938025 225.436895 
L 645.387825 229.060661 
L 654.837625 231.966906 
L 664.287425 234.423511 
L 673.737225 235.704391 
L 683.187025 236.79685 
L 692.636825 237.907389 
L 702.086625 238.239504 
L 711.536425 238.781452 
L 720.986225 239.143067 
L 730.436025 239.429504 
L 739.885825 239.508489 
L 749.335625 239.185414 
L 758.785425 238.776694 
L 768.235225 238.121979 
L 777.685025 236.932931 
L 787.134825 235.147693 
L 796.584625 233.031768 
L 806.034425 230.630357 
L 815.484225 228.847498 
L 824.934025 228.48398 
L 834.383825 229.667318 
L 843.833625 232.809565 
L 853.283425 237.950688 
L 862.733225 244.827089 
L 872.183025 252.869223 
L 881.632825 260.600654 
L 891.082625 266.80426 
L 900.532425 270.875763 
L 909.982225 273.187722 
L 919.432025 274.462416 
L 928.881825 275.028154 
L 938.331625 275.261776 
L 947.781425 275.362648 
L 957.231225 275.408326 
L 966.681025 275.422124 
L 976.130825 275.431164 
L 985.580625 275.446866 
" style="fill:none;stroke:#d9534f;stroke-linecap:square;"/>
   </g>
   <g id="line2d_20">
    <path clip-path="url(#p16e2b92fbb)" d="M 40.600625 275.50206 
L 985.580625 275.50206 
" style="fill:none;stroke:#dedede;stroke-linecap:square;stroke-width:2;"/>
   </g>
   <g id="text_17">
    <!-- FastQC: Per Sequence GC Content -->
    <g transform="translate(376.454375 19.3575)scale(0.16 -0.16)">
     <defs>
      <path d="M 9.8125 72.90625 
L 51.703125 72.90625 
L 51.703125 64.59375 
L 19.671875 64.59375 
L 19.671875 43.109375 
L 48.578125 43.109375 
L 48.578125 34.8125 
L 19.671875 34.8125 
L 19.671875 0 
L 9.8125 0 
z
" id="DejaVuSans-70"/>
      <path d="M 44.28125 53.078125 
L 44.28125 44.578125 
Q 40.484375 46.53125 36.375 47.5 
Q 32.28125 48.484375 27.875 48.484375 
Q 21.1875 48.484375 17.84375 46.4375 
Q 14.5 44.390625 14.5 40.28125 
Q 14.5 37.15625 16.890625 35.375 
Q 19.28125 33.59375 26.515625 31.984375 
L 29.59375 31.296875 
Q 39.15625 29.25 43.1875 25.515625 
Q 47.21875 21.78125 47.21875 15.09375 
Q 47.21875 7.46875 41.1875 3.015625 
Q 35.15625 -1.421875 24.609375 -1.421875 
Q 20.21875 -1.421875 15.453125 -0.5625 
Q 10.6875 0.296875 5.421875 2 
L 5.421875 11.28125 
Q 10.40625 8.6875 15.234375 7.390625 
Q 20.0625 6.109375 24.8125 6.109375 
Q 31.15625 6.109375 34.5625 8.28125 
Q 37.984375 10.453125 37.984375 14.40625 
Q 37.984375 18.0625 35.515625 20.015625 
Q 33.0625 21.96875 24.703125 23.78125 
L 21.578125 24.515625 
Q 13.234375 26.265625 9.515625 29.90625 
Q 5.8125 33.546875 5.8125 39.890625 
Q 5.8125 47.609375 11.28125 51.796875 
Q 16.75 56 26.8125 56 
Q 31.78125 56 36.171875 55.265625 
Q 40.578125 54.546875 44.28125 53.078125 
z
" id="DejaVuSans-115"/>
      <path d="M 39.40625 66.21875 
Q 28.65625 66.21875 22.328125 58.203125 
Q 16.015625 50.203125 16.015625 36.375 
Q 16.015625 22.609375 22.328125 14.59375 
Q 28.65625 6.59375 39.40625 6.59375 
Q 50.140625 6.59375 56.421875 14.59375 
Q 62.703125 22.609375 62.703125 36.375 
Q 62.703125 50.203125 56.421875 58.203125 
Q 50.140625 66.21875 39.40625 66.21875 
z
M 53.21875 1.3125 
L 66.21875 -12.890625 
L 54.296875 -12.890625 
L 43.5 -1.21875 
Q 41.890625 -1.3125 41.03125 -1.359375 
Q 40.1875 -1.421875 39.40625 -1.421875 
Q 24.03125 -1.421875 14.8125 8.859375 
Q 5.609375 19.140625 5.609375 36.375 
Q 5.609375 53.65625 14.8125 63.9375 
Q 24.03125 74.21875 39.40625 74.21875 
Q 54.734375 74.21875 63.90625 63.9375 
Q 73.09375 53.65625 73.09375 36.375 
Q 73.09375 23.6875 67.984375 14.640625 
Q 62.890625 5.609375 53.21875 1.3125 
z
" id="DejaVuSans-81"/>
      <path d="M 11.71875 12.40625 
L 22.015625 12.40625 
L 22.015625 0 
L 11.71875 0 
z
M 11.71875 51.703125 
L 22.015625 51.703125 
L 22.015625 39.3125 
L 11.71875 39.3125 
z
" id="DejaVuSans-58"/>
      <path d="M 53.515625 70.515625 
L 53.515625 60.890625 
Q 47.90625 63.578125 42.921875 64.890625 
Q 37.9375 66.21875 33.296875 66.21875 
Q 25.25 66.21875 20.875 63.09375 
Q 16.5 59.96875 16.5 54.203125 
Q 16.5 49.359375 19.40625 46.890625 
Q 22.3125 44.4375 30.421875 42.921875 
L 36.375 41.703125 
Q 47.40625 39.59375 52.65625 34.296875 
Q 57.90625 29 57.90625 20.125 
Q 57.90625 9.515625 50.796875 4.046875 
Q 43.703125 -1.421875 29.984375 -1.421875 
Q 24.8125 -1.421875 18.96875 -0.25 
Q 13.140625 0.921875 6.890625 3.21875 
L 6.890625 13.375 
Q 12.890625 10.015625 18.65625 8.296875 
Q 24.421875 6.59375 29.984375 6.59375 
Q 38.421875 6.59375 43.015625 9.90625 
Q 47.609375 13.234375 47.609375 19.390625 
Q 47.609375 24.75 44.3125 27.78125 
Q 41.015625 30.8125 33.5 32.328125 
L 27.484375 33.5 
Q 16.453125 35.6875 11.515625 40.375 
Q 6.59375 45.0625 6.59375 53.421875 
Q 6.59375 63.09375 13.40625 68.65625 
Q 20.21875 74.21875 32.171875 74.21875 
Q 37.3125 74.21875 42.625 73.28125 
Q 47.953125 72.359375 53.515625 70.515625 
z
" id="DejaVuSans-83"/>
      <path d="M 14.796875 27.296875 
Q 14.796875 17.390625 18.875 11.75 
Q 22.953125 6.109375 30.078125 6.109375 
Q 37.203125 6.109375 41.296875 11.75 
Q 45.40625 17.390625 45.40625 27.296875 
Q 45.40625 37.203125 41.296875 42.84375 
Q 37.203125 48.484375 30.078125 48.484375 
Q 22.953125 48.484375 18.875 42.84375 
Q 14.796875 37.203125 14.796875 27.296875 
z
M 45.40625 8.203125 
Q 42.578125 3.328125 38.25 0.953125 
Q 33.9375 -1.421875 27.875 -1.421875 
Q 17.96875 -1.421875 11.734375 6.484375 
Q 5.515625 14.40625 5.515625 27.296875 
Q 5.515625 40.1875 11.734375 48.09375 
Q 17.96875 56 27.875 56 
Q 33.9375 56 38.25 53.625 
Q 42.578125 51.265625 45.40625 46.390625 
L 45.40625 54.6875 
L 54.390625 54.6875 
L 54.390625 -20.796875 
L 45.40625 -20.796875 
z
" id="DejaVuSans-113"/>
      <path d="M 8.5 21.578125 
L 8.5 54.6875 
L 17.484375 54.6875 
L 17.484375 21.921875 
Q 17.484375 14.15625 20.5 10.265625 
Q 23.53125 6.390625 29.59375 6.390625 
Q 36.859375 6.390625 41.078125 11.03125 
Q 45.3125 15.671875 45.3125 23.6875 
L 45.3125 54.6875 
L 54.296875 54.6875 
L 54.296875 0 
L 45.3125 0 
L 45.3125 8.40625 
Q 42.046875 3.421875 37.71875 1 
Q 33.40625 -1.421875 27.6875 -1.421875 
Q 18.265625 -1.421875 13.375 4.4375 
Q 8.5 10.296875 8.5 21.578125 
z
M 31.109375 56 
z
" id="DejaVuSans-117"/>
      <path d="M 30.609375 48.390625 
Q 23.390625 48.390625 19.1875 42.75 
Q 14.984375 37.109375 14.984375 27.296875 
Q 14.984375 17.484375 19.15625 11.84375 
Q 23.34375 6.203125 30.609375 6.203125 
Q 37.796875 6.203125 41.984375 11.859375 
Q 46.1875 17.53125 46.1875 27.296875 
Q 46.1875 37.015625 41.984375 42.703125 
Q 37.796875 48.390625 30.609375 48.390625 
z
M 30.609375 56 
Q 42.328125 56 49.015625 48.375 
Q 55.71875 40.765625 55.71875 27.296875 
Q 55.71875 13.875 49.015625 6.21875 
Q 42.328125 -1.421875 30.609375 -1.421875 
Q 18.84375 -1.421875 12.171875 6.21875 
Q 5.515625 13.875 5.515625 27.296875 
Q 5.515625 40.765625 12.171875 48.375 
Q 18.84375 56 30.609375 56 
z
" id="DejaVuSans-111"/>
     </defs>
     <use xlink:href="#DejaVuSans-70"/>
     <use x="48.394531" xlink:href="#DejaVuSans-97"/>
     <use x="109.673828" xlink:href="#DejaVuSans-115"/>
     <use x="161.773438" xlink:href="#DejaVuSans-116"/>
     <use x="200.982422" xlink:href="#DejaVuSans-81"/>
     <use x="279.693359" xlink:href="#DejaVuSans-67"/>
     <use x="349.517578" xlink:href="#DejaVuSans-58"/>
     <use x="383.208984" xlink:href="#DejaVuSans-32"/>
     <use x="414.996094" xlink:href="#DejaVuSans-80"/>
     <use x="471.673828" xlink:href="#DejaVuSans-101"/>
     <use x="533.197266" xlink:href="#DejaVuSans-114"/>
     <use x="574.310547" xlink:href="#DejaVuSans-32"/>
     <use x="606.097656" xlink:href="#DejaVuSans-83"/>
     <use x="669.574219" xlink:href="#DejaVuSans-101"/>
     <use x="731.097656" xlink:href="#DejaVuSans-113"/>
     <use x="794.574219" xlink:href="#DejaVuSans-117"/>
     <use x="857.953125" xlink:href="#DejaVuSans-101"/>
     <use x="919.476562" xlink:href="#DejaVuSans-110"/>
     <use x="982.855469" xlink:href="#DejaVuSans-99"/>
     <use x="1037.835938" xlink:href="#DejaVuSans-101"/>
     <use x="1099.359375" xlink:href="#DejaVuSans-32"/>
     <use x="1131.146484" xlink:href="#DejaVuSans-71"/>
     <use x="1208.636719" xlink:href="#DejaVuSans-67"/>
     <use x="1278.460938" xlink:href="#DejaVuSans-32"/>
     <use x="1310.248047" xlink:href="#DejaVuSans-67"/>
     <use x="1380.072266" xlink:href="#DejaVuSans-111"/>
     <use x="1441.253906" xlink:href="#DejaVuSans-110"/>
     <use x="1504.632812" xlink:href="#DejaVuSans-116"/>
     <use x="1543.841797" xlink:href="#DejaVuSans-101"/>
     <use x="1605.365234" xlink:href="#DejaVuSans-110"/>
     <use x="1668.744141" xlink:href="#DejaVuSans-116"/>
    </g>
   </g>
   <g id="legend_1">
    <g id="line2d_21">
     <path d="M 47.800625 293.354194 
L 63.800625 293.354194 
" style="fill:none;stroke:#f0ad4e;stroke-linecap:square;"/>
    </g>
    <g id="line2d_22"/>
    <g id="text_18">
     <!-- RT_Gad2_1 -->
     <g transform="translate(70.200625 296.154194)scale(0.08 -0.08)">
      <defs>
       <path d="M 44.390625 34.1875 
Q 47.5625 33.109375 50.5625 29.59375 
Q 53.5625 26.078125 56.59375 19.921875 
L 66.609375 0 
L 56 0 
L 46.6875 18.703125 
Q 43.0625 26.03125 39.671875 28.421875 
Q 36.28125 30.8125 30.421875 30.8125 
L 19.671875 30.8125 
L 19.671875 0 
L 9.8125 0 
L 9.8125 72.90625 
L 32.078125 72.90625 
Q 44.578125 72.90625 50.734375 67.671875 
Q 56.890625 62.453125 56.890625 51.90625 
Q 56.890625 45.015625 53.6875 40.46875 
Q 50.484375 35.9375 44.390625 34.1875 
z
M 19.671875 64.796875 
L 19.671875 38.921875 
L 32.078125 38.921875 
Q 39.203125 38.921875 42.84375 42.21875 
Q 46.484375 45.515625 46.484375 51.90625 
Q 46.484375 58.296875 42.84375 61.546875 
Q 39.203125 64.796875 32.078125 64.796875 
z
" id="DejaVuSans-82"/>
       <path d="M -0.296875 72.90625 
L 61.375 72.90625 
L 61.375 64.59375 
L 35.5 64.59375 
L 35.5 0 
L 25.59375 0 
L 25.59375 64.59375 
L -0.296875 64.59375 
z
" id="DejaVuSans-84"/>
       <path d="M 50.984375 -16.609375 
L 50.984375 -23.578125 
L -0.984375 -23.578125 
L -0.984375 -16.609375 
z
" id="DejaVuSans-95"/>
       <path d="M 45.40625 46.390625 
L 45.40625 75.984375 
L 54.390625 75.984375 
L 54.390625 0 
L 45.40625 0 
L 45.40625 8.203125 
Q 42.578125 3.328125 38.25 0.953125 
Q 33.9375 -1.421875 27.875 -1.421875 
Q 17.96875 -1.421875 11.734375 6.484375 
Q 5.515625 14.40625 5.515625 27.296875 
Q 5.515625 40.1875 11.734375 48.09375 
Q 17.96875 56 27.875 56 
Q 33.9375 56 38.25 53.625 
Q 42.578125 51.265625 45.40625 46.390625 
z
M 14.796875 27.296875 
Q 14.796875 17.390625 18.875 11.75 
Q 22.953125 6.109375 30.078125 6.109375 
Q 37.203125 6.109375 41.296875 11.75 
Q 45.40625 17.390625 45.40625 27.296875 
Q 45.40625 37.203125 41.296875 42.84375 
Q 37.203125 48.484375 30.078125 48.484375 
Q 22.953125 48.484375 18.875 42.84375 
Q 14.796875 37.203125 14.796875 27.296875 
z
" id="DejaVuSans-100"/>
      </defs>
      <use xlink:href="#DejaVuSans-82"/>
      <use x="62.232422" xlink:href="#DejaVuSans-84"/>
      <use x="123.316406" xlink:href="#DejaVuSans-95"/>
      <use x="173.316406" xlink:href="#DejaVuSans-71"/>
      <use x="250.806641" xlink:href="#DejaVuSans-97"/>
      <use x="312.085938" xlink:href="#DejaVuSans-100"/>
      <use x="375.5625" xlink:href="#DejaVuSans-50"/>
      <use x="439.185547" xlink:href="#DejaVuSans-95"/>
      <use x="489.185547" xlink:href="#DejaVuSans-49"/>
     </g>
    </g>
    <g id="line2d_23">
     <path d="M 47.800625 305.319194 
L 63.800625 305.319194 
" style="fill:none;stroke:#f0ad4e;stroke-linecap:square;"/>
    </g>
    <g id="line2d_24"/>
    <g id="text_19">
     <!-- RT_Gad2_2 -->
     <g transform="translate(70.200625 308.119194)scale(0.08 -0.08)">
      <use xlink:href="#DejaVuSans-82"/>
      <use x="62.232422" xlink:href="#DejaVuSans-84"/>
      <use x="123.316406" xlink:href="#DejaVuSans-95"/>
      <use x="173.316406" xlink:href="#DejaVuSans-71"/>
      <use x="250.806641" xlink:href="#DejaVuSans-97"/>
      <use x="312.085938" xlink:href="#DejaVuSans-100"/>
      <use x="375.5625" xlink:href="#DejaVuSans-50"/>
      <use x="439.185547" xlink:href="#DejaVuSans-95"/>
      <use x="489.185547" xlink:href="#DejaVuSans-50"/>
     </g>
    </g>
    <g id="line2d_25">
     <path d="M 47.800625 317.284194 
L 63.800625 317.284194 
" style="fill:none;stroke:#f0ad4e;stroke-linecap:square;"/>
    </g>
    <g id="line2d_26"/>
    <g id="text_20">
     <!-- RT_Gad2_3 -->
     <g transform="translate(70.200625 320.084194)scale(0.08 -0.08)">
      <use xlink:href="#DejaVuSans-82"/>
      <use x="62.232422" xlink:href="#DejaVuSans-84"/>
      <use x="123.316406" xlink:href="#DejaVuSans-95"/>
      <use x="173.316406" xlink:href="#DejaVuSans-71"/>
      <use x="250.806641" xlink:href="#DejaVuSans-97"/>
      <use x="312.085938" xlink:href="#DejaVuSans-100"/>
      <use x="375.5625" xlink:href="#DejaVuSans-50"/>
      <use x="439.185547" xlink:href="#DejaVuSans-95"/>
      <use x="489.185547" xlink:href="#DejaVuSans-51"/>
     </g>
    </g>
    <g id="line2d_27">
     <path d="M 258.362188 293.354194 
L 274.362188 293.354194 
" style="fill:none;stroke:#f0ad4e;stroke-linecap:square;"/>
    </g>
    <g id="line2d_28"/>
    <g id="text_21">
     <!-- RT_vGluT2_1 -->
     <g transform="translate(280.762188 296.154194)scale(0.08 -0.08)">
      <defs>
       <path d="M 2.984375 54.6875 
L 12.5 54.6875 
L 29.59375 8.796875 
L 46.6875 54.6875 
L 56.203125 54.6875 
L 35.6875 0 
L 23.484375 0 
z
" id="DejaVuSans-118"/>
       <path d="M 9.421875 75.984375 
L 18.40625 75.984375 
L 18.40625 0 
L 9.421875 0 
z
" id="DejaVuSans-108"/>
      </defs>
      <use xlink:href="#DejaVuSans-82"/>
      <use x="62.232422" xlink:href="#DejaVuSans-84"/>
      <use x="123.316406" xlink:href="#DejaVuSans-95"/>
      <use x="173.316406" xlink:href="#DejaVuSans-118"/>
      <use x="232.496094" xlink:href="#DejaVuSans-71"/>
      <use x="309.986328" xlink:href="#DejaVuSans-108"/>
      <use x="337.769531" xlink:href="#DejaVuSans-117"/>
      <use x="401.148438" xlink:href="#DejaVuSans-84"/>
      <use x="462.232422" xlink:href="#DejaVuSans-50"/>
      <use x="525.855469" xlink:href="#DejaVuSans-95"/>
      <use x="575.855469" xlink:href="#DejaVuSans-49"/>
     </g>
    </g>
    <g id="line2d_29">
     <path d="M 258.362188 305.319194 
L 274.362188 305.319194 
" style="fill:none;stroke:#f0ad4e;stroke-linecap:square;"/>
    </g>
    <g id="line2d_30"/>
    <g id="text_22">
     <!-- RT_vGluT2_3 -->
     <g transform="translate(280.762188 308.119194)scale(0.08 -0.08)">
      <use xlink:href="#DejaVuSans-82"/>
      <use x="62.232422" xlink:href="#DejaVuSans-84"/>
      <use x="123.316406" xlink:href="#DejaVuSans-95"/>
      <use x="173.316406" xlink:href="#DejaVuSans-118"/>
      <use x="232.496094" xlink:href="#DejaVuSans-71"/>
      <use x="309.986328" xlink:href="#DejaVuSans-108"/>
      <use x="337.769531" xlink:href="#DejaVuSans-117"/>
      <use x="401.148438" xlink:href="#DejaVuSans-84"/>
      <use x="462.232422" xlink:href="#DejaVuSans-50"/>
      <use x="525.855469" xlink:href="#DejaVuSans-95"/>
      <use x="575.855469" xlink:href="#DejaVuSans-51"/>
     </g>
    </g>
    <g id="line2d_31">
     <path d="M 475.85625 293.354194 
L 491.85625 293.354194 
" style="fill:none;stroke:#f0ad4e;stroke-linecap:square;"/>
    </g>
    <g id="line2d_32"/>
    <g id="text_23">
     <!-- S1_Gad2_1 -->
     <g transform="translate(498.25625 296.154194)scale(0.08 -0.08)">
      <use xlink:href="#DejaVuSans-83"/>
      <use x="63.476562" xlink:href="#DejaVuSans-49"/>
      <use x="127.099609" xlink:href="#DejaVuSans-95"/>
      <use x="177.099609" xlink:href="#DejaVuSans-71"/>
      <use x="254.589844" xlink:href="#DejaVuSans-97"/>
      <use x="315.869141" xlink:href="#DejaVuSans-100"/>
      <use x="379.345703" xlink:href="#DejaVuSans-50"/>
      <use x="442.96875" xlink:href="#DejaVuSans-95"/>
      <use x="492.96875" xlink:href="#DejaVuSans-49"/>
     </g>
    </g>
    <g id="line2d_33">
     <path d="M 475.85625 305.319194 
L 491.85625 305.319194 
" style="fill:none;stroke:#f0ad4e;stroke-linecap:square;"/>
    </g>
    <g id="line2d_34"/>
    <g id="text_24">
     <!-- S1_Gad2_2 -->
     <g transform="translate(498.25625 308.119194)scale(0.08 -0.08)">
      <use xlink:href="#DejaVuSans-83"/>
      <use x="63.476562" xlink:href="#DejaVuSans-49"/>
      <use x="127.099609" xlink:href="#DejaVuSans-95"/>
      <use x="177.099609" xlink:href="#DejaVuSans-71"/>
      <use x="254.589844" xlink:href="#DejaVuSans-97"/>
      <use x="315.869141" xlink:href="#DejaVuSans-100"/>
      <use x="379.345703" xlink:href="#DejaVuSans-50"/>
      <use x="442.96875" xlink:href="#DejaVuSans-95"/>
      <use x="492.96875" xlink:href="#DejaVuSans-50"/>
     </g>
    </g>
    <g id="line2d_35">
     <path d="M 686.721563 293.354194 
L 702.721563 293.354194 
" style="fill:none;stroke:#f0ad4e;stroke-linecap:square;"/>
    </g>
    <g id="line2d_36"/>
    <g id="text_25">
     <!-- S1_Gad2_3 -->
     <g transform="translate(709.121562 296.154194)scale(0.08 -0.08)">
      <use xlink:href="#DejaVuSans-83"/>
      <use x="63.476562" xlink:href="#DejaVuSans-49"/>
      <use x="127.099609" xlink:href="#DejaVuSans-95"/>
      <use x="177.099609" xlink:href="#DejaVuSans-71"/>
      <use x="254.589844" xlink:href="#DejaVuSans-97"/>
      <use x="315.869141" xlink:href="#DejaVuSans-100"/>
      <use x="379.345703" xlink:href="#DejaVuSans-50"/>
      <use x="442.96875" xlink:href="#DejaVuSans-95"/>
      <use x="492.96875" xlink:href="#DejaVuSans-51"/>
     </g>
    </g>
    <g id="line2d_37">
     <path d="M 686.721563 305.319194 
L 702.721563 305.319194 
" style="fill:none;stroke:#d9534f;stroke-linecap:square;"/>
    </g>
    <g id="line2d_38"/>
    <g id="text_26">
     <!-- S1_vGluT2_1 -->
     <g transform="translate(709.121562 308.119194)scale(0.08 -0.08)">
      <use xlink:href="#DejaVuSans-83"/>
      <use x="63.476562" xlink:href="#DejaVuSans-49"/>
      <use x="127.099609" xlink:href="#DejaVuSans-95"/>
      <use x="177.099609" xlink:href="#DejaVuSans-118"/>
      <use x="236.279297" xlink:href="#DejaVuSans-71"/>
      <use x="313.769531" xlink:href="#DejaVuSans-108"/>
      <use x="341.552734" xlink:href="#DejaVuSans-117"/>
      <use x="404.931641" xlink:href="#DejaVuSans-84"/>
      <use x="466.015625" xlink:href="#DejaVuSans-50"/>
      <use x="529.638672" xlink:href="#DejaVuSans-95"/>
      <use x="579.638672" xlink:href="#DejaVuSans-49"/>
     </g>
    </g>
    <g id="line2d_39">
     <path d="M 904.519375 293.354194 
L 920.519375 293.354194 
" style="fill:none;stroke:#f0ad4e;stroke-linecap:square;"/>
    </g>
    <g id="line2d_40"/>
    <g id="text_27">
     <!-- S1_vGluT2_2 -->
     <g transform="translate(926.919375 296.154194)scale(0.08 -0.08)">
      <use xlink:href="#DejaVuSans-83"/>
      <use x="63.476562" xlink:href="#DejaVuSans-49"/>
      <use x="127.099609" xlink:href="#DejaVuSans-95"/>
      <use x="177.099609" xlink:href="#DejaVuSans-118"/>
      <use x="236.279297" xlink:href="#DejaVuSans-71"/>
      <use x="313.769531" xlink:href="#DejaVuSans-108"/>
      <use x="341.552734" xlink:href="#DejaVuSans-117"/>
      <use x="404.931641" xlink:href="#DejaVuSans-84"/>
      <use x="466.015625" xlink:href="#DejaVuSans-50"/>
      <use x="529.638672" xlink:href="#DejaVuSans-95"/>
      <use x="579.638672" xlink:href="#DejaVuSans-50"/>
     </g>
    </g>
    <g id="line2d_41">
     <path d="M 904.519375 305.319194 
L 920.519375 305.319194 
" style="fill:none;stroke:#d9534f;stroke-linecap:square;"/>
    </g>
    <g id="line2d_42"/>
    <g id="text_28">
     <!-- S1_vGluT2_3 -->
     <g transform="translate(926.919375 308.119194)scale(0.08 -0.08)">
      <use xlink:href="#DejaVuSans-83"/>
      <use x="63.476562" xlink:href="#DejaVuSans-49"/>
      <use x="127.099609" xlink:href="#DejaVuSans-95"/>
      <use x="177.099609" xlink:href="#DejaVuSans-118"/>
      <use x="236.279297" xlink:href="#DejaVuSans-71"/>
      <use x="313.769531" xlink:href="#DejaVuSans-108"/>
      <use x="341.552734" xlink:href="#DejaVuSans-117"/>
      <use x="404.931641" xlink:href="#DejaVuSans-84"/>
      <use x="466.015625" xlink:href="#DejaVuSans-50"/>
      <use x="529.638672" xlink:href="#DejaVuSans-95"/>
      <use x="579.638672" xlink:href="#DejaVuSans-51"/>
     </g>
    </g>
   </g>
  </g>
 </g>
 <defs>
  <clipPath id="p16e2b92fbb">
   <rect height="243.9472" width="944.98" x="40.600625" y="31.55486"/>
  </clipPath>
 </defs>
</svg>
