<?xml version="1.0" encoding="utf-8" standalone="no"?>
<!DOCTYPE svg PUBLIC "-//W3C//DTD SVG 1.1//EN"
  "http://www.w3.org/Graphics/SVG/1.1/DTD/svg11.dtd">
<!-- Created with matplotlib (https://matplotlib.org/) -->
<svg height="332.370444pt" version="1.1" viewBox="0 0 1000.340625 332.370444" width="1000.340625pt" xmlns="http://www.w3.org/2000/svg" xmlns:xlink="http://www.w3.org/1999/xlink">
 <metadata>
  <rdf:RDF xmlns:cc="http://creativecommons.org/ns#" xmlns:dc="http://purl.org/dc/elements/1.1/" xmlns:rdf="http://www.w3.org/1999/02/22-rdf-syntax-ns#">
   <cc:Work>
    <dc:type rdf:resource="http://purl.org/dc/dcmitype/StillImage"/>
    <dc:date>2020-12-03T09:50:02.136699</dc:date>
    <dc:format>image/svg+xml</dc:format>
    <dc:creator>
     <cc:Agent>
      <dc:title>Matplotlib v3.3.1, https://matplotlib.org/</dc:title>
     </cc:Agent>
    </dc:creator>
   </cc:Work>
  </rdf:RDF>
 </metadata>
 <defs>
  <style type="text/css">*{stroke-linecap:butt;stroke-linejoin:round;}</style>
 </defs>
 <g id="figure_1">
  <g id="axes_1">
   <g id="patch_1">
    <path d="M 40.600625 275.50206 
L 993.140625 275.50206 
L 993.140625 31.55486 
L 40.600625 31.55486 
z
" style="fill:#ffffff;"/>
   </g>
   <g id="matplotlib.axis_1">
    <g id="xtick_1">
     <g id="text_1">
      <!-- 0 -->
      <g transform="translate(75.541183 288.58081)scale(0.08 -0.08)">
       <defs>
        <path d="M 31.78125 66.40625 
Q 24.171875 66.40625 20.328125 58.90625 
Q 16.5 51.421875 16.5 36.375 
Q 16.5 21.390625 20.328125 13.890625 
Q 24.171875 6.390625 31.78125 6.390625 
Q 39.453125 6.390625 43.28125 13.890625 
Q 47.125 21.390625 47.125 36.375 
Q 47.125 51.421875 43.28125 58.90625 
Q 39.453125 66.40625 31.78125 66.40625 
z
M 31.78125 74.21875 
Q 44.046875 74.21875 50.515625 64.515625 
Q 56.984375 54.828125 56.984375 36.375 
Q 56.984375 17.96875 50.515625 8.265625 
Q 44.046875 -1.421875 31.78125 -1.421875 
Q 19.53125 -1.421875 13.0625 8.265625 
Q 6.59375 17.96875 6.59375 36.375 
Q 6.59375 54.828125 13.0625 64.515625 
Q 19.53125 74.21875 31.78125 74.21875 
z
" id="DejaVuSans-48"/>
       </defs>
       <use xlink:href="#DejaVuSans-48"/>
      </g>
     </g>
    </g>
    <g id="xtick_2">
     <g id="text_2">
      <!-- 20 -->
      <g transform="translate(189.230472 288.58081)scale(0.08 -0.08)">
       <defs>
        <path d="M 19.1875 8.296875 
L 53.609375 8.296875 
L 53.609375 0 
L 7.328125 0 
L 7.328125 8.296875 
Q 12.9375 14.109375 22.625 23.890625 
Q 32.328125 33.6875 34.8125 36.53125 
Q 39.546875 41.84375 41.421875 45.53125 
Q 43.3125 49.21875 43.3125 52.78125 
Q 43.3125 58.59375 39.234375 62.25 
Q 35.15625 65.921875 28.609375 65.921875 
Q 23.96875 65.921875 18.8125 64.3125 
Q 13.671875 62.703125 7.8125 59.421875 
L 7.8125 69.390625 
Q 13.765625 71.78125 18.9375 73 
Q 24.125 74.21875 28.421875 74.21875 
Q 39.75 74.21875 46.484375 68.546875 
Q 53.21875 62.890625 53.21875 53.421875 
Q 53.21875 48.921875 51.53125 44.890625 
Q 49.859375 40.875 45.40625 35.40625 
Q 44.1875 33.984375 37.640625 27.21875 
Q 31.109375 20.453125 19.1875 8.296875 
z
" id="DejaVuSans-50"/>
       </defs>
       <use xlink:href="#DejaVuSans-50"/>
       <use x="63.623047" xlink:href="#DejaVuSans-48"/>
      </g>
     </g>
    </g>
    <g id="xtick_3">
     <g id="text_3">
      <!-- 40 -->
      <g transform="translate(305.464762 288.58081)scale(0.08 -0.08)">
       <defs>
        <path d="M 37.796875 64.3125 
L 12.890625 25.390625 
L 37.796875 25.390625 
z
M 35.203125 72.90625 
L 47.609375 72.90625 
L 47.609375 25.390625 
L 58.015625 25.390625 
L 58.015625 17.1875 
L 47.609375 17.1875 
L 47.609375 0 
L 37.796875 0 
L 37.796875 17.1875 
L 4.890625 17.1875 
L 4.890625 26.703125 
z
" id="DejaVuSans-52"/>
       </defs>
       <use xlink:href="#DejaVuSans-52"/>
       <use x="63.623047" xlink:href="#DejaVuSans-48"/>
      </g>
     </g>
    </g>
    <g id="xtick_4">
     <g id="text_4">
      <!-- 60 -->
      <g transform="translate(421.699051 288.58081)scale(0.08 -0.08)">
       <defs>
        <path d="M 33.015625 40.375 
Q 26.375 40.375 22.484375 35.828125 
Q 18.609375 31.296875 18.609375 23.390625 
Q 18.609375 15.53125 22.484375 10.953125 
Q 26.375 6.390625 33.015625 6.390625 
Q 39.65625 6.390625 43.53125 10.953125 
Q 47.40625 15.53125 47.40625 23.390625 
Q 47.40625 31.296875 43.53125 35.828125 
Q 39.65625 40.375 33.015625 40.375 
z
M 52.59375 71.296875 
L 52.59375 62.3125 
Q 48.875 64.0625 45.09375 64.984375 
Q 41.3125 65.921875 37.59375 65.921875 
Q 27.828125 65.921875 22.671875 59.328125 
Q 17.53125 52.734375 16.796875 39.40625 
Q 19.671875 43.65625 24.015625 45.921875 
Q 28.375 48.1875 33.59375 48.1875 
Q 44.578125 48.1875 50.953125 41.515625 
Q 57.328125 34.859375 57.328125 23.390625 
Q 57.328125 12.15625 50.6875 5.359375 
Q 44.046875 -1.421875 33.015625 -1.421875 
Q 20.359375 -1.421875 13.671875 8.265625 
Q 6.984375 17.96875 6.984375 36.375 
Q 6.984375 53.65625 15.1875 63.9375 
Q 23.390625 74.21875 37.203125 74.21875 
Q 40.921875 74.21875 44.703125 73.484375 
Q 48.484375 72.75 52.59375 71.296875 
z
" id="DejaVuSans-54"/>
       </defs>
       <use xlink:href="#DejaVuSans-54"/>
       <use x="63.623047" xlink:href="#DejaVuSans-48"/>
      </g>
     </g>
    </g>
    <g id="xtick_5">
     <g id="text_5">
      <!-- 80 -->
      <g transform="translate(537.93334 288.58081)scale(0.08 -0.08)">
       <defs>
        <path d="M 31.78125 34.625 
Q 24.75 34.625 20.71875 30.859375 
Q 16.703125 27.09375 16.703125 20.515625 
Q 16.703125 13.921875 20.71875 10.15625 
Q 24.75 6.390625 31.78125 6.390625 
Q 38.8125 6.390625 42.859375 10.171875 
Q 46.921875 13.96875 46.921875 20.515625 
Q 46.921875 27.09375 42.890625 30.859375 
Q 38.875 34.625 31.78125 34.625 
z
M 21.921875 38.8125 
Q 15.578125 40.375 12.03125 44.71875 
Q 8.5 49.078125 8.5 55.328125 
Q 8.5 64.0625 14.71875 69.140625 
Q 20.953125 74.21875 31.78125 74.21875 
Q 42.671875 74.21875 48.875 69.140625 
Q 55.078125 64.0625 55.078125 55.328125 
Q 55.078125 49.078125 51.53125 44.71875 
Q 48 40.375 41.703125 38.8125 
Q 48.828125 37.15625 52.796875 32.3125 
Q 56.78125 27.484375 56.78125 20.515625 
Q 56.78125 9.90625 50.3125 4.234375 
Q 43.84375 -1.421875 31.78125 -1.421875 
Q 19.734375 -1.421875 13.25 4.234375 
Q 6.78125 9.90625 6.78125 20.515625 
Q 6.78125 27.484375 10.78125 32.3125 
Q 14.796875 37.15625 21.921875 38.8125 
z
M 18.3125 54.390625 
Q 18.3125 48.734375 21.84375 45.5625 
Q 25.390625 42.390625 31.78125 42.390625 
Q 38.140625 42.390625 41.71875 45.5625 
Q 45.3125 48.734375 45.3125 54.390625 
Q 45.3125 60.0625 41.71875 63.234375 
Q 38.140625 66.40625 31.78125 66.40625 
Q 25.390625 66.40625 21.84375 63.234375 
Q 18.3125 60.0625 18.3125 54.390625 
z
" id="DejaVuSans-56"/>
       </defs>
       <use xlink:href="#DejaVuSans-56"/>
       <use x="63.623047" xlink:href="#DejaVuSans-48"/>
      </g>
     </g>
    </g>
    <g id="xtick_6">
     <g id="text_6">
      <!-- 100 -->
      <g transform="translate(651.622629 288.58081)scale(0.08 -0.08)">
       <defs>
        <path d="M 12.40625 8.296875 
L 28.515625 8.296875 
L 28.515625 63.921875 
L 10.984375 60.40625 
L 10.984375 69.390625 
L 28.421875 72.90625 
L 38.28125 72.90625 
L 38.28125 8.296875 
L 54.390625 8.296875 
L 54.390625 0 
L 12.40625 0 
z
" id="DejaVuSans-49"/>
       </defs>
       <use xlink:href="#DejaVuSans-49"/>
       <use x="63.623047" xlink:href="#DejaVuSans-48"/>
       <use x="127.246094" xlink:href="#DejaVuSans-48"/>
      </g>
     </g>
    </g>
    <g id="xtick_7">
     <g id="text_7">
      <!-- 120 -->
      <g transform="translate(767.856918 288.58081)scale(0.08 -0.08)">
       <use xlink:href="#DejaVuSans-49"/>
       <use x="63.623047" xlink:href="#DejaVuSans-50"/>
       <use x="127.246094" xlink:href="#DejaVuSans-48"/>
      </g>
     </g>
    </g>
    <g id="xtick_8">
     <g id="text_8">
      <!-- 140 -->
      <g transform="translate(884.091208 288.58081)scale(0.08 -0.08)">
       <use xlink:href="#DejaVuSans-49"/>
       <use x="63.623047" xlink:href="#DejaVuSans-52"/>
       <use x="127.246094" xlink:href="#DejaVuSans-48"/>
      </g>
     </g>
    </g>
    <g id="text_9">
     <!-- Position in read -->
     <g transform="translate(478.412813 301.842998)scale(0.1 -0.1)">
      <defs>
       <path d="M 19.671875 64.796875 
L 19.671875 37.40625 
L 32.078125 37.40625 
Q 38.96875 37.40625 42.71875 40.96875 
Q 46.484375 44.53125 46.484375 51.125 
Q 46.484375 57.671875 42.71875 61.234375 
Q 38.96875 64.796875 32.078125 64.796875 
z
M 9.8125 72.90625 
L 32.078125 72.90625 
Q 44.34375 72.90625 50.609375 67.359375 
Q 56.890625 61.8125 56.890625 51.125 
Q 56.890625 40.328125 50.609375 34.8125 
Q 44.34375 29.296875 32.078125 29.296875 
L 19.671875 29.296875 
L 19.671875 0 
L 9.8125 0 
z
" id="DejaVuSans-80"/>
       <path d="M 30.609375 48.390625 
Q 23.390625 48.390625 19.1875 42.75 
Q 14.984375 37.109375 14.984375 27.296875 
Q 14.984375 17.484375 19.15625 11.84375 
Q 23.34375 6.203125 30.609375 6.203125 
Q 37.796875 6.203125 41.984375 11.859375 
Q 46.1875 17.53125 46.1875 27.296875 
Q 46.1875 37.015625 41.984375 42.703125 
Q 37.796875 48.390625 30.609375 48.390625 
z
M 30.609375 56 
Q 42.328125 56 49.015625 48.375 
Q 55.71875 40.765625 55.71875 27.296875 
Q 55.71875 13.875 49.015625 6.21875 
Q 42.328125 -1.421875 30.609375 -1.421875 
Q 18.84375 -1.421875 12.171875 6.21875 
Q 5.515625 13.875 5.515625 27.296875 
Q 5.515625 40.765625 12.171875 48.375 
Q 18.84375 56 30.609375 56 
z
" id="DejaVuSans-111"/>
       <path d="M 44.28125 53.078125 
L 44.28125 44.578125 
Q 40.484375 46.53125 36.375 47.5 
Q 32.28125 48.484375 27.875 48.484375 
Q 21.1875 48.484375 17.84375 46.4375 
Q 14.5 44.390625 14.5 40.28125 
Q 14.5 37.15625 16.890625 35.375 
Q 19.28125 33.59375 26.515625 31.984375 
L 29.59375 31.296875 
Q 39.15625 29.25 43.1875 25.515625 
Q 47.21875 21.78125 47.21875 15.09375 
Q 47.21875 7.46875 41.1875 3.015625 
Q 35.15625 -1.421875 24.609375 -1.421875 
Q 20.21875 -1.421875 15.453125 -0.5625 
Q 10.6875 0.296875 5.421875 2 
L 5.421875 11.28125 
Q 10.40625 8.6875 15.234375 7.390625 
Q 20.0625 6.109375 24.8125 6.109375 
Q 31.15625 6.109375 34.5625 8.28125 
Q 37.984375 10.453125 37.984375 14.40625 
Q 37.984375 18.0625 35.515625 20.015625 
Q 33.0625 21.96875 24.703125 23.78125 
L 21.578125 24.515625 
Q 13.234375 26.265625 9.515625 29.90625 
Q 5.8125 33.546875 5.8125 39.890625 
Q 5.8125 47.609375 11.28125 51.796875 
Q 16.75 56 26.8125 56 
Q 31.78125 56 36.171875 55.265625 
Q 40.578125 54.546875 44.28125 53.078125 
z
" id="DejaVuSans-115"/>
       <path d="M 9.421875 54.6875 
L 18.40625 54.6875 
L 18.40625 0 
L 9.421875 0 
z
M 9.421875 75.984375 
L 18.40625 75.984375 
L 18.40625 64.59375 
L 9.421875 64.59375 
z
" id="DejaVuSans-105"/>
       <path d="M 18.3125 70.21875 
L 18.3125 54.6875 
L 36.8125 54.6875 
L 36.8125 47.703125 
L 18.3125 47.703125 
L 18.3125 18.015625 
Q 18.3125 11.328125 20.140625 9.421875 
Q 21.96875 7.515625 27.59375 7.515625 
L 36.8125 7.515625 
L 36.8125 0 
L 27.59375 0 
Q 17.1875 0 13.234375 3.875 
Q 9.28125 7.765625 9.28125 18.015625 
L 9.28125 47.703125 
L 2.6875 47.703125 
L 2.6875 54.6875 
L 9.28125 54.6875 
L 9.28125 70.21875 
z
" id="DejaVuSans-116"/>
       <path d="M 54.890625 33.015625 
L 54.890625 0 
L 45.90625 0 
L 45.90625 32.71875 
Q 45.90625 40.484375 42.875 44.328125 
Q 39.84375 48.1875 33.796875 48.1875 
Q 26.515625 48.1875 22.3125 43.546875 
Q 18.109375 38.921875 18.109375 30.90625 
L 18.109375 0 
L 9.078125 0 
L 9.078125 54.6875 
L 18.109375 54.6875 
L 18.109375 46.1875 
Q 21.34375 51.125 25.703125 53.5625 
Q 30.078125 56 35.796875 56 
Q 45.21875 56 50.046875 50.171875 
Q 54.890625 44.34375 54.890625 33.015625 
z
" id="DejaVuSans-110"/>
       <path id="DejaVuSans-32"/>
       <path d="M 41.109375 46.296875 
Q 39.59375 47.171875 37.8125 47.578125 
Q 36.03125 48 33.890625 48 
Q 26.265625 48 22.1875 43.046875 
Q 18.109375 38.09375 18.109375 28.8125 
L 18.109375 0 
L 9.078125 0 
L 9.078125 54.6875 
L 18.109375 54.6875 
L 18.109375 46.1875 
Q 20.953125 51.171875 25.484375 53.578125 
Q 30.03125 56 36.53125 56 
Q 37.453125 56 38.578125 55.875 
Q 39.703125 55.765625 41.0625 55.515625 
z
" id="DejaVuSans-114"/>
       <path d="M 56.203125 29.59375 
L 56.203125 25.203125 
L 14.890625 25.203125 
Q 15.484375 15.921875 20.484375 11.0625 
Q 25.484375 6.203125 34.421875 6.203125 
Q 39.59375 6.203125 44.453125 7.46875 
Q 49.3125 8.734375 54.109375 11.28125 
L 54.109375 2.78125 
Q 49.265625 0.734375 44.1875 -0.34375 
Q 39.109375 -1.421875 33.890625 -1.421875 
Q 20.796875 -1.421875 13.15625 6.1875 
Q 5.515625 13.8125 5.515625 26.8125 
Q 5.515625 40.234375 12.765625 48.109375 
Q 20.015625 56 32.328125 56 
Q 43.359375 56 49.78125 48.890625 
Q 56.203125 41.796875 56.203125 29.59375 
z
M 47.21875 32.234375 
Q 47.125 39.59375 43.09375 43.984375 
Q 39.0625 48.390625 32.421875 48.390625 
Q 24.90625 48.390625 20.390625 44.140625 
Q 15.875 39.890625 15.1875 32.171875 
z
" id="DejaVuSans-101"/>
       <path d="M 34.28125 27.484375 
Q 23.390625 27.484375 19.1875 25 
Q 14.984375 22.515625 14.984375 16.5 
Q 14.984375 11.71875 18.140625 8.90625 
Q 21.296875 6.109375 26.703125 6.109375 
Q 34.1875 6.109375 38.703125 11.40625 
Q 43.21875 16.703125 43.21875 25.484375 
L 43.21875 27.484375 
z
M 52.203125 31.203125 
L 52.203125 0 
L 43.21875 0 
L 43.21875 8.296875 
Q 40.140625 3.328125 35.546875 0.953125 
Q 30.953125 -1.421875 24.3125 -1.421875 
Q 15.921875 -1.421875 10.953125 3.296875 
Q 6 8.015625 6 15.921875 
Q 6 25.140625 12.171875 29.828125 
Q 18.359375 34.515625 30.609375 34.515625 
L 43.21875 34.515625 
L 43.21875 35.40625 
Q 43.21875 41.609375 39.140625 45 
Q 35.0625 48.390625 27.6875 48.390625 
Q 23 48.390625 18.546875 47.265625 
Q 14.109375 46.140625 10.015625 43.890625 
L 10.015625 52.203125 
Q 14.9375 54.109375 19.578125 55.046875 
Q 24.21875 56 28.609375 56 
Q 40.484375 56 46.34375 49.84375 
Q 52.203125 43.703125 52.203125 31.203125 
z
" id="DejaVuSans-97"/>
       <path d="M 45.40625 46.390625 
L 45.40625 75.984375 
L 54.390625 75.984375 
L 54.390625 0 
L 45.40625 0 
L 45.40625 8.203125 
Q 42.578125 3.328125 38.25 0.953125 
Q 33.9375 -1.421875 27.875 -1.421875 
Q 17.96875 -1.421875 11.734375 6.484375 
Q 5.515625 14.40625 5.515625 27.296875 
Q 5.515625 40.1875 11.734375 48.09375 
Q 17.96875 56 27.875 56 
Q 33.9375 56 38.25 53.625 
Q 42.578125 51.265625 45.40625 46.390625 
z
M 14.796875 27.296875 
Q 14.796875 17.390625 18.875 11.75 
Q 22.953125 6.109375 30.078125 6.109375 
Q 37.203125 6.109375 41.296875 11.75 
Q 45.40625 17.390625 45.40625 27.296875 
Q 45.40625 37.203125 41.296875 42.84375 
Q 37.203125 48.484375 30.078125 48.484375 
Q 22.953125 48.484375 18.875 42.84375 
Q 14.796875 37.203125 14.796875 27.296875 
z
" id="DejaVuSans-100"/>
      </defs>
      <use xlink:href="#DejaVuSans-80"/>
      <use x="56.677734" xlink:href="#DejaVuSans-111"/>
      <use x="117.859375" xlink:href="#DejaVuSans-115"/>
      <use x="169.958984" xlink:href="#DejaVuSans-105"/>
      <use x="197.742188" xlink:href="#DejaVuSans-116"/>
      <use x="236.951172" xlink:href="#DejaVuSans-105"/>
      <use x="264.734375" xlink:href="#DejaVuSans-111"/>
      <use x="325.916016" xlink:href="#DejaVuSans-110"/>
      <use x="389.294922" xlink:href="#DejaVuSans-32"/>
      <use x="421.082031" xlink:href="#DejaVuSans-105"/>
      <use x="448.865234" xlink:href="#DejaVuSans-110"/>
      <use x="512.244141" xlink:href="#DejaVuSans-32"/>
      <use x="544.03125" xlink:href="#DejaVuSans-114"/>
      <use x="582.894531" xlink:href="#DejaVuSans-101"/>
      <use x="644.417969" xlink:href="#DejaVuSans-97"/>
      <use x="705.697266" xlink:href="#DejaVuSans-100"/>
     </g>
    </g>
   </g>
   <g id="matplotlib.axis_2">
    <g id="ytick_1">
     <g id="line2d_1">
      <path clip-path="url(#p6d35c6138d)" d="M 40.600625 275.50206 
L 993.140625 275.50206 
" style="fill:none;stroke:#dedede;stroke-linecap:square;"/>
     </g>
     <g id="text_10">
      <!-- 0.0 -->
      <g transform="translate(20.878125 278.541435)scale(0.08 -0.08)">
       <defs>
        <path d="M 10.6875 12.40625 
L 21 12.40625 
L 21 0 
L 10.6875 0 
z
" id="DejaVuSans-46"/>
       </defs>
       <use xlink:href="#DejaVuSans-48"/>
       <use x="63.623047" xlink:href="#DejaVuSans-46"/>
       <use x="95.410156" xlink:href="#DejaVuSans-48"/>
      </g>
     </g>
    </g>
    <g id="ytick_2">
     <g id="line2d_2">
      <path clip-path="url(#p6d35c6138d)" d="M 40.600625 241.904735 
L 993.140625 241.904735 
" style="fill:none;stroke:#dedede;stroke-linecap:square;"/>
     </g>
     <g id="text_11">
      <!-- 0.1 -->
      <g transform="translate(20.878125 244.94411)scale(0.08 -0.08)">
       <use xlink:href="#DejaVuSans-48"/>
       <use x="63.623047" xlink:href="#DejaVuSans-46"/>
       <use x="95.410156" xlink:href="#DejaVuSans-49"/>
      </g>
     </g>
    </g>
    <g id="ytick_3">
     <g id="line2d_3">
      <path clip-path="url(#p6d35c6138d)" d="M 40.600625 208.307411 
L 993.140625 208.307411 
" style="fill:none;stroke:#dedede;stroke-linecap:square;"/>
     </g>
     <g id="text_12">
      <!-- 0.2 -->
      <g transform="translate(20.878125 211.346786)scale(0.08 -0.08)">
       <use xlink:href="#DejaVuSans-48"/>
       <use x="63.623047" xlink:href="#DejaVuSans-46"/>
       <use x="95.410156" xlink:href="#DejaVuSans-50"/>
      </g>
     </g>
    </g>
    <g id="ytick_4">
     <g id="line2d_4">
      <path clip-path="url(#p6d35c6138d)" d="M 40.600625 174.710086 
L 993.140625 174.710086 
" style="fill:none;stroke:#dedede;stroke-linecap:square;"/>
     </g>
     <g id="text_13">
      <!-- 0.3 -->
      <g transform="translate(20.878125 177.749461)scale(0.08 -0.08)">
       <defs>
        <path d="M 40.578125 39.3125 
Q 47.65625 37.796875 51.625 33 
Q 55.609375 28.21875 55.609375 21.1875 
Q 55.609375 10.40625 48.1875 4.484375 
Q 40.765625 -1.421875 27.09375 -1.421875 
Q 22.515625 -1.421875 17.65625 -0.515625 
Q 12.796875 0.390625 7.625 2.203125 
L 7.625 11.71875 
Q 11.71875 9.328125 16.59375 8.109375 
Q 21.484375 6.890625 26.8125 6.890625 
Q 36.078125 6.890625 40.9375 10.546875 
Q 45.796875 14.203125 45.796875 21.1875 
Q 45.796875 27.640625 41.28125 31.265625 
Q 36.765625 34.90625 28.71875 34.90625 
L 20.21875 34.90625 
L 20.21875 43.015625 
L 29.109375 43.015625 
Q 36.375 43.015625 40.234375 45.921875 
Q 44.09375 48.828125 44.09375 54.296875 
Q 44.09375 59.90625 40.109375 62.90625 
Q 36.140625 65.921875 28.71875 65.921875 
Q 24.65625 65.921875 20.015625 65.03125 
Q 15.375 64.15625 9.8125 62.3125 
L 9.8125 71.09375 
Q 15.4375 72.65625 20.34375 73.4375 
Q 25.25 74.21875 29.59375 74.21875 
Q 40.828125 74.21875 47.359375 69.109375 
Q 53.90625 64.015625 53.90625 55.328125 
Q 53.90625 49.265625 50.4375 45.09375 
Q 46.96875 40.921875 40.578125 39.3125 
z
" id="DejaVuSans-51"/>
       </defs>
       <use xlink:href="#DejaVuSans-48"/>
       <use x="63.623047" xlink:href="#DejaVuSans-46"/>
       <use x="95.410156" xlink:href="#DejaVuSans-51"/>
      </g>
     </g>
    </g>
    <g id="ytick_5">
     <g id="line2d_5">
      <path clip-path="url(#p6d35c6138d)" d="M 40.600625 141.112762 
L 993.140625 141.112762 
" style="fill:none;stroke:#dedede;stroke-linecap:square;"/>
     </g>
     <g id="text_14">
      <!-- 0.4 -->
      <g transform="translate(20.878125 144.152137)scale(0.08 -0.08)">
       <use xlink:href="#DejaVuSans-48"/>
       <use x="63.623047" xlink:href="#DejaVuSans-46"/>
       <use x="95.410156" xlink:href="#DejaVuSans-52"/>
      </g>
     </g>
    </g>
    <g id="ytick_6">
     <g id="line2d_6">
      <path clip-path="url(#p6d35c6138d)" d="M 40.600625 107.515437 
L 993.140625 107.515437 
" style="fill:none;stroke:#dedede;stroke-linecap:square;"/>
     </g>
     <g id="text_15">
      <!-- 0.5 -->
      <g transform="translate(20.878125 110.554812)scale(0.08 -0.08)">
       <defs>
        <path d="M 10.796875 72.90625 
L 49.515625 72.90625 
L 49.515625 64.59375 
L 19.828125 64.59375 
L 19.828125 46.734375 
Q 21.96875 47.46875 24.109375 47.828125 
Q 26.265625 48.1875 28.421875 48.1875 
Q 40.625 48.1875 47.75 41.5 
Q 54.890625 34.8125 54.890625 23.390625 
Q 54.890625 11.625 47.5625 5.09375 
Q 40.234375 -1.421875 26.90625 -1.421875 
Q 22.3125 -1.421875 17.546875 -0.640625 
Q 12.796875 0.140625 7.71875 1.703125 
L 7.71875 11.625 
Q 12.109375 9.234375 16.796875 8.0625 
Q 21.484375 6.890625 26.703125 6.890625 
Q 35.15625 6.890625 40.078125 11.328125 
Q 45.015625 15.765625 45.015625 23.390625 
Q 45.015625 31 40.078125 35.4375 
Q 35.15625 39.890625 26.703125 39.890625 
Q 22.75 39.890625 18.8125 39.015625 
Q 14.890625 38.140625 10.796875 36.28125 
z
" id="DejaVuSans-53"/>
       </defs>
       <use xlink:href="#DejaVuSans-48"/>
       <use x="63.623047" xlink:href="#DejaVuSans-46"/>
       <use x="95.410156" xlink:href="#DejaVuSans-53"/>
      </g>
     </g>
    </g>
    <g id="ytick_7">
     <g id="line2d_7">
      <path clip-path="url(#p6d35c6138d)" d="M 40.600625 73.918113 
L 993.140625 73.918113 
" style="fill:none;stroke:#dedede;stroke-linecap:square;"/>
     </g>
     <g id="text_16">
      <!-- 0.6 -->
      <g transform="translate(20.878125 76.957488)scale(0.08 -0.08)">
       <use xlink:href="#DejaVuSans-48"/>
       <use x="63.623047" xlink:href="#DejaVuSans-46"/>
       <use x="95.410156" xlink:href="#DejaVuSans-54"/>
      </g>
     </g>
    </g>
    <g id="ytick_8">
     <g id="line2d_8">
      <path clip-path="url(#p6d35c6138d)" d="M 40.600625 40.320788 
L 993.140625 40.320788 
" style="fill:none;stroke:#dedede;stroke-linecap:square;"/>
     </g>
     <g id="text_17">
      <!-- 0.7 -->
      <g transform="translate(20.878125 43.360163)scale(0.08 -0.08)">
       <defs>
        <path d="M 8.203125 72.90625 
L 55.078125 72.90625 
L 55.078125 68.703125 
L 28.609375 0 
L 18.3125 0 
L 43.21875 64.59375 
L 8.203125 64.59375 
z
" id="DejaVuSans-55"/>
       </defs>
       <use xlink:href="#DejaVuSans-48"/>
       <use x="63.623047" xlink:href="#DejaVuSans-46"/>
       <use x="95.410156" xlink:href="#DejaVuSans-55"/>
      </g>
     </g>
    </g>
    <g id="text_18">
     <!-- Percent mismatches % -->
     <g transform="translate(14.798438 210.622991)rotate(-90)scale(0.1 -0.1)">
      <defs>
       <path d="M 48.78125 52.59375 
L 48.78125 44.1875 
Q 44.96875 46.296875 41.140625 47.34375 
Q 37.3125 48.390625 33.40625 48.390625 
Q 24.65625 48.390625 19.8125 42.84375 
Q 14.984375 37.3125 14.984375 27.296875 
Q 14.984375 17.28125 19.8125 11.734375 
Q 24.65625 6.203125 33.40625 6.203125 
Q 37.3125 6.203125 41.140625 7.25 
Q 44.96875 8.296875 48.78125 10.40625 
L 48.78125 2.09375 
Q 45.015625 0.34375 40.984375 -0.53125 
Q 36.96875 -1.421875 32.421875 -1.421875 
Q 20.0625 -1.421875 12.78125 6.34375 
Q 5.515625 14.109375 5.515625 27.296875 
Q 5.515625 40.671875 12.859375 48.328125 
Q 20.21875 56 33.015625 56 
Q 37.15625 56 41.109375 55.140625 
Q 45.0625 54.296875 48.78125 52.59375 
z
" id="DejaVuSans-99"/>
       <path d="M 52 44.1875 
Q 55.375 50.25 60.0625 53.125 
Q 64.75 56 71.09375 56 
Q 79.640625 56 84.28125 50.015625 
Q 88.921875 44.046875 88.921875 33.015625 
L 88.921875 0 
L 79.890625 0 
L 79.890625 32.71875 
Q 79.890625 40.578125 77.09375 44.375 
Q 74.3125 48.1875 68.609375 48.1875 
Q 61.625 48.1875 57.5625 43.546875 
Q 53.515625 38.921875 53.515625 30.90625 
L 53.515625 0 
L 44.484375 0 
L 44.484375 32.71875 
Q 44.484375 40.625 41.703125 44.40625 
Q 38.921875 48.1875 33.109375 48.1875 
Q 26.21875 48.1875 22.15625 43.53125 
Q 18.109375 38.875 18.109375 30.90625 
L 18.109375 0 
L 9.078125 0 
L 9.078125 54.6875 
L 18.109375 54.6875 
L 18.109375 46.1875 
Q 21.1875 51.21875 25.484375 53.609375 
Q 29.78125 56 35.6875 56 
Q 41.65625 56 45.828125 52.96875 
Q 50 49.953125 52 44.1875 
z
" id="DejaVuSans-109"/>
       <path d="M 54.890625 33.015625 
L 54.890625 0 
L 45.90625 0 
L 45.90625 32.71875 
Q 45.90625 40.484375 42.875 44.328125 
Q 39.84375 48.1875 33.796875 48.1875 
Q 26.515625 48.1875 22.3125 43.546875 
Q 18.109375 38.921875 18.109375 30.90625 
L 18.109375 0 
L 9.078125 0 
L 9.078125 75.984375 
L 18.109375 75.984375 
L 18.109375 46.1875 
Q 21.34375 51.125 25.703125 53.5625 
Q 30.078125 56 35.796875 56 
Q 45.21875 56 50.046875 50.171875 
Q 54.890625 44.34375 54.890625 33.015625 
z
" id="DejaVuSans-104"/>
       <path d="M 72.703125 32.078125 
Q 68.453125 32.078125 66.03125 28.46875 
Q 63.625 24.859375 63.625 18.40625 
Q 63.625 12.0625 66.03125 8.421875 
Q 68.453125 4.78125 72.703125 4.78125 
Q 76.859375 4.78125 79.265625 8.421875 
Q 81.6875 12.0625 81.6875 18.40625 
Q 81.6875 24.8125 79.265625 28.4375 
Q 76.859375 32.078125 72.703125 32.078125 
z
M 72.703125 38.28125 
Q 80.421875 38.28125 84.953125 32.90625 
Q 89.5 27.546875 89.5 18.40625 
Q 89.5 9.28125 84.9375 3.921875 
Q 80.375 -1.421875 72.703125 -1.421875 
Q 64.890625 -1.421875 60.34375 3.921875 
Q 55.8125 9.28125 55.8125 18.40625 
Q 55.8125 27.59375 60.375 32.9375 
Q 64.9375 38.28125 72.703125 38.28125 
z
M 22.3125 68.015625 
Q 18.109375 68.015625 15.6875 64.375 
Q 13.28125 60.75 13.28125 54.390625 
Q 13.28125 47.953125 15.671875 44.328125 
Q 18.0625 40.71875 22.3125 40.71875 
Q 26.5625 40.71875 28.96875 44.328125 
Q 31.390625 47.953125 31.390625 54.390625 
Q 31.390625 60.6875 28.953125 64.34375 
Q 26.515625 68.015625 22.3125 68.015625 
z
M 66.40625 74.21875 
L 74.21875 74.21875 
L 28.609375 -1.421875 
L 20.796875 -1.421875 
z
M 22.3125 74.21875 
Q 30.03125 74.21875 34.609375 68.875 
Q 39.203125 63.53125 39.203125 54.390625 
Q 39.203125 45.171875 34.640625 39.84375 
Q 30.078125 34.515625 22.3125 34.515625 
Q 14.546875 34.515625 10.03125 39.859375 
Q 5.515625 45.21875 5.515625 54.390625 
Q 5.515625 63.484375 10.046875 68.84375 
Q 14.59375 74.21875 22.3125 74.21875 
z
" id="DejaVuSans-37"/>
      </defs>
      <use xlink:href="#DejaVuSans-80"/>
      <use x="56.677734" xlink:href="#DejaVuSans-101"/>
      <use x="118.201172" xlink:href="#DejaVuSans-114"/>
      <use x="157.064453" xlink:href="#DejaVuSans-99"/>
      <use x="212.044922" xlink:href="#DejaVuSans-101"/>
      <use x="273.568359" xlink:href="#DejaVuSans-110"/>
      <use x="336.947266" xlink:href="#DejaVuSans-116"/>
      <use x="376.15625" xlink:href="#DejaVuSans-32"/>
      <use x="407.943359" xlink:href="#DejaVuSans-109"/>
      <use x="505.355469" xlink:href="#DejaVuSans-105"/>
      <use x="533.138672" xlink:href="#DejaVuSans-115"/>
      <use x="585.238281" xlink:href="#DejaVuSans-109"/>
      <use x="682.650391" xlink:href="#DejaVuSans-97"/>
      <use x="743.929688" xlink:href="#DejaVuSans-116"/>
      <use x="783.138672" xlink:href="#DejaVuSans-99"/>
      <use x="838.119141" xlink:href="#DejaVuSans-104"/>
      <use x="901.498047" xlink:href="#DejaVuSans-101"/>
      <use x="963.021484" xlink:href="#DejaVuSans-115"/>
      <use x="1015.121094" xlink:href="#DejaVuSans-32"/>
      <use x="1046.908203" xlink:href="#DejaVuSans-37"/>
     </g>
    </g>
   </g>
   <g id="line2d_9">
    <path clip-path="url(#p6d35c6138d)" d="M 83.897898 275.50206 
L 89.709612 264.200713 
L 95.521327 216.287383 
L 101.333041 209.791456 
L 107.144756 208.179214 
L 112.95647 217.962236 
L 118.768184 201.260661 
L 124.579899 199.084917 
L 130.391613 215.5517 
L 136.203328 207.928769 
L 142.015042 208.069644 
L 147.826757 216.052591 
L 153.638471 209.885373 
L 159.450186 217.569674 
L 165.2619 227.57042 
L 171.073615 212.022152 
L 176.885329 202.967333 
L 182.697044 218.64635 
L 188.508758 221.671288 
L 194.320472 207.115431 
L 200.132187 199.281526 
L 205.943901 215.743771 
L 211.755616 208.266702 
L 217.56733 224.910165 
L 223.379045 227.217003 
L 229.190759 219.172988 
L 235.002474 222.000427 
L 240.814188 216.289853 
L 246.625903 223.04408 
L 252.437617 217.32218 
L 258.249332 236.56118 
L 264.061046 222.513985 
L 269.87276 225.483901 
L 275.684475 222.710987 
L 281.496189 214.00611 
L 287.307904 226.591056 
L 293.119618 217.047398 
L 298.931333 218.718328 
L 304.743047 210.450161 
L 310.554762 210.851037 
L 316.366476 216.894974 
L 322.178191 205.831671 
L 327.989905 209.328794 
L 333.80162 217.564319 
L 339.613334 214.523145 
L 345.425048 207.575722 
L 351.236763 203.353875 
L 357.048477 204.596835 
L 362.860192 208.81798 
L 368.671906 193.947249 
L 374.483621 192.302387 
L 380.295335 196.184272 
L 386.10705 189.75487 
L 391.918764 194.172478 
L 397.730479 184.878387 
L 403.542193 184.285354 
L 409.353907 170.648321 
L 415.165622 158.844047 
L 420.977336 149.983788 
L 426.789051 137.431711 
L 432.600765 126.396973 
L 438.41248 99.162651 
L 444.224194 111.711026 
L 450.035909 113.375646 
L 455.847623 87.790968 
L 461.659338 117.83529 
L 467.471052 114.093443 
L 473.282767 93.646566 
L 479.094481 114.393305 
L 484.906195 121.950849 
L 490.71791 105.677597 
L 496.529624 113.555244 
L 502.341339 122.713022 
L 508.153053 101.854506 
L 513.964768 104.905024 
L 519.776482 101.229703 
L 525.588197 113.820644 
L 531.399911 124.490629 
L 537.211626 131.538458 
L 543.02334 110.509188 
L 548.835055 113.234172 
L 554.646769 93.141894 
L 560.458483 72.22339 
L 566.270198 125.708754 
L 572.081912 122.054812 
L 577.893627 138.853163 
L 583.705341 125.643835 
L 595.32877 67.404449 
L 601.140485 92.640821 
L 606.952199 92.407853 
L 612.763914 94.23833 
L 618.575628 108.740946 
L 624.387343 132.074735 
L 630.199057 144.480421 
L 636.010771 170.314953 
L 641.822486 172.402613 
L 647.6342 163.63342 
L 653.445915 178.316092 
L 659.257629 174.373341 
L 665.069344 197.957662 
L 670.881058 191.437724 
L 676.692773 191.167873 
L 682.504487 184.448308 
L 688.316202 204.667425 
L 694.127916 205.928866 
L 699.93963 212.878167 
L 705.751345 215.095906 
L 711.563059 213.651798 
L 717.374774 197.901588 
L 723.186488 222.608525 
L 728.998203 218.291031 
L 734.809917 205.674293 
L 740.621632 204.679183 
L 746.433346 199.108912 
L 752.245061 198.859746 
L 758.056775 199.504474 
L 763.86849 198.440158 
L 769.680204 197.121948 
L 775.491918 196.521243 
L 781.303633 193.958192 
L 787.115347 218.078947 
L 792.927062 254.08988 
L 798.738776 272.893319 
L 804.550491 275.50206 
L 949.843352 275.50206 
L 949.843352 275.50206 
" style="fill:none;stroke:#7cb5ec;stroke-linecap:square;"/>
   </g>
   <g id="line2d_10">
    <path clip-path="url(#p6d35c6138d)" d="M 83.897898 275.50206 
L 89.709612 257.997175 
L 95.521327 211.678277 
L 101.333041 205.949066 
L 107.144756 219.824207 
L 112.95647 207.796597 
L 118.768184 204.792027 
L 124.579899 205.566497 
L 130.391613 214.412249 
L 136.203328 212.77 
L 142.015042 209.522825 
L 147.826757 217.108897 
L 153.638471 212.602042 
L 159.450186 221.660882 
L 165.2619 219.951045 
L 171.073615 213.508815 
L 176.885329 210.338223 
L 182.697044 222.789195 
L 188.508758 216.183362 
L 194.320472 213.735542 
L 200.132187 214.056108 
L 205.943901 215.562402 
L 211.755616 205.456429 
L 217.56733 217.059692 
L 223.379045 216.565719 
L 229.190759 219.345498 
L 235.002474 219.116119 
L 240.814188 212.590245 
L 246.625903 212.555878 
L 252.437617 212.81523 
L 258.249332 219.765622 
L 264.061046 221.81503 
L 269.87276 222.579019 
L 275.684475 220.446832 
L 281.496189 214.415117 
L 287.307904 215.785704 
L 293.119618 217.034813 
L 298.931333 221.021141 
L 304.743047 212.584289 
L 310.554762 215.031945 
L 316.366476 206.935014 
L 322.178191 205.964974 
L 327.989905 210.956032 
L 333.80162 211.007887 
L 339.613334 208.198716 
L 345.425048 207.802577 
L 351.236763 204.265274 
L 357.048477 205.224134 
L 362.860192 194.671727 
L 368.671906 198.129183 
L 374.483621 186.084933 
L 380.295335 190.109084 
L 386.10705 190.605101 
L 391.918764 170.400015 
L 397.730479 175.132314 
L 403.542193 168.13318 
L 409.353907 158.863064 
L 415.165622 153.173225 
L 426.789051 116.088941 
L 432.600765 112.802982 
L 438.41248 62.646011 
L 444.224194 102.378198 
L 450.035909 111.410492 
L 455.847623 90.82858 
L 461.659338 112.770419 
L 467.471052 90.025174 
L 473.282767 103.232077 
L 479.094481 96.187667 
L 484.906195 107.782738 
L 490.71791 99.358026 
L 496.529624 96.391727 
L 502.341339 103.601552 
L 508.153053 77.60768 
L 513.964768 89.008484 
L 519.776482 75.50602 
L 525.588197 105.997658 
L 531.399911 110.773922 
L 537.211626 102.168156 
L 543.02334 90.342746 
L 548.835055 89.283279 
L 554.646769 83.722232 
L 560.458483 75.462193 
L 566.270198 135.49237 
L 572.081912 120.103848 
L 577.893627 135.410247 
L 583.705341 116.8218 
L 589.517056 95.036223 
L 595.32877 66.203717 
L 601.140485 79.078699 
L 606.952199 80.440311 
L 612.763914 96.184437 
L 618.575628 89.921486 
L 624.387343 134.606694 
L 630.199057 139.844884 
L 636.010771 175.811488 
L 641.822486 176.619707 
L 647.6342 173.854517 
L 653.445915 192.487827 
L 659.257629 190.189764 
L 665.069344 197.938694 
L 670.881058 200.250697 
L 676.692773 203.004225 
L 688.316202 207.307036 
L 694.127916 216.390441 
L 699.93963 213.684029 
L 705.751345 216.914341 
L 711.563059 228.192289 
L 717.374774 221.854536 
L 723.186488 227.55988 
L 728.998203 223.681322 
L 734.809917 218.521129 
L 740.621632 207.555966 
L 746.433346 201.503857 
L 752.245061 188.763027 
L 758.056775 194.776052 
L 763.86849 200.5897 
L 769.680204 202.218264 
L 775.491918 194.124535 
L 781.303633 202.047752 
L 787.115347 220.962722 
L 792.927062 258.939793 
L 798.738776 274.014979 
L 804.550491 275.50206 
L 949.843352 275.50206 
L 949.843352 275.50206 
" style="fill:none;stroke:#434348;stroke-linecap:square;"/>
   </g>
   <g id="line2d_11">
    <path clip-path="url(#p6d35c6138d)" d="M 83.897898 275.50206 
L 89.709612 260.653349 
L 95.521327 219.267966 
L 101.333041 205.806347 
L 107.144756 210.774867 
L 112.95647 209.774341 
L 118.768184 201.463156 
L 124.579899 196.812985 
L 130.391613 204.83993 
L 136.203328 210.513366 
L 142.015042 210.615692 
L 147.826757 210.547474 
L 153.638471 210.035842 
L 159.450186 217.833385 
L 165.2619 220.650603 
L 171.073615 217.0516 
L 176.885329 204.805162 
L 182.697044 218.622844 
L 188.508758 211.549813 
L 194.320472 208.173072 
L 200.132187 212.781188 
L 205.943901 211.165231 
L 211.755616 212.442921 
L 217.56733 210.656118 
L 223.379045 216.008561 
L 229.190759 222.22081 
L 235.002474 221.549938 
L 240.814188 216.593116 
L 246.625903 215.040265 
L 252.437617 207.622442 
L 258.249332 212.789399 
L 264.061046 217.240055 
L 269.87276 218.046118 
L 275.684475 213.866142 
L 281.496189 212.936452 
L 287.307904 219.244563 
L 293.119618 211.359642 
L 298.931333 211.406353 
L 304.743047 217.055275 
L 310.554762 209.200034 
L 316.366476 206.731199 
L 322.178191 196.450475 
L 327.989905 205.224531 
L 333.80162 213.588711 
L 339.613334 210.41469 
L 345.425048 201.693827 
L 351.236763 202.773612 
L 357.048477 197.528099 
L 362.860192 199.399615 
L 368.671906 195.033785 
L 374.483621 177.925535 
L 380.295335 189.57719 
L 386.10705 185.434515 
L 391.918764 177.873796 
L 397.730479 180.590344 
L 403.542193 172.46526 
L 409.353907 149.498004 
L 415.165622 153.97387 
L 420.977336 135.0264 
L 426.789051 98.307253 
L 432.600765 96.620556 
L 438.41248 69.092463 
L 444.224194 95.673599 
L 450.035909 94.437644 
L 455.847623 76.230664 
L 461.659338 89.149689 
L 467.471052 75.610252 
L 473.282767 93.964073 
L 479.094481 84.025387 
L 484.906195 99.161289 
L 490.71791 84.309825 
L 496.529624 75.138603 
L 502.341339 83.375412 
L 508.153053 70.160008 
L 513.964768 79.843721 
L 519.776482 69.114471 
L 525.588197 98.93202 
L 531.399911 87.328996 
L 537.211626 106.148725 
L 543.02334 90.513805 
L 548.835055 87.218625 
L 554.646769 71.631771 
L 560.458483 72.923421 
L 566.270198 127.58469 
L 572.081912 114.854606 
L 577.893627 124.637101 
L 583.705341 117.12833 
L 589.517056 90.252569 
L 595.32877 67.657731 
L 601.140485 70.995572 
L 606.952199 83.982201 
L 612.763914 76.924839 
L 618.575628 96.251179 
L 624.387343 137.889217 
L 630.199057 143.447914 
L 636.010771 164.66403 
L 641.822486 164.9316 
L 647.6342 173.952977 
L 653.445915 174.853422 
L 659.257629 195.733473 
L 665.069344 189.699943 
L 670.881058 190.459382 
L 676.692773 185.520172 
L 682.504487 200.995944 
L 688.316202 196.675127 
L 694.127916 208.746751 
L 699.93963 209.962736 
L 705.751345 216.311534 
L 711.563059 223.937155 
L 717.374774 211.28754 
L 723.186488 226.770807 
L 728.998203 219.703699 
L 734.809917 215.191381 
L 740.621632 198.396385 
L 746.433346 201.521642 
L 752.245061 204.178548 
L 758.056775 197.876853 
L 763.86849 187.438038 
L 769.680204 202.64375 
L 775.491918 195.607262 
L 787.115347 220.237777 
L 792.927062 258.196383 
L 798.738776 272.805374 
L 804.550491 275.50206 
L 949.843352 275.50206 
L 949.843352 275.50206 
" style="fill:none;stroke:#90ed7d;stroke-linecap:square;"/>
   </g>
   <g id="line2d_12">
    <path clip-path="url(#p6d35c6138d)" d="M 83.897898 275.50206 
L 89.709612 263.055105 
L 95.521327 218.371176 
L 101.333041 213.118006 
L 107.144756 216.366583 
L 112.95647 211.369319 
L 118.768184 207.743993 
L 124.579899 215.627301 
L 130.391613 216.89972 
L 136.203328 213.729336 
L 142.015042 215.136816 
L 147.826757 219.33793 
L 153.638471 217.873582 
L 159.450186 222.656406 
L 165.2619 225.35576 
L 171.073615 218.086207 
L 176.885329 214.232466 
L 182.697044 221.515574 
L 188.508758 219.549583 
L 194.320472 214.434792 
L 200.132187 212.947874 
L 205.943901 217.571447 
L 211.755616 215.854982 
L 217.56733 221.512205 
L 223.379045 222.934503 
L 229.190759 225.919386 
L 235.002474 224.593409 
L 240.814188 218.066227 
L 246.625903 220.795353 
L 252.437617 215.987282 
L 258.249332 220.997657 
L 264.061046 223.166488 
L 269.87276 228.916493 
L 275.684475 215.718579 
L 281.496189 211.19901 
L 287.307904 223.792458 
L 293.119618 221.683117 
L 298.931333 218.726176 
L 304.743047 212.046026 
L 310.554762 216.154621 
L 316.366476 216.351802 
L 322.178191 212.762335 
L 327.989905 210.414766 
L 339.613334 224.020741 
L 345.425048 213.448644 
L 351.236763 217.77145 
L 357.048477 213.02574 
L 362.860192 209.999746 
L 368.671906 206.433275 
L 374.483621 198.695555 
L 380.295335 204.615364 
L 386.10705 199.54435 
L 391.918764 189.448891 
L 397.730479 195.843159 
L 403.542193 191.604062 
L 409.353907 175.66297 
L 415.165622 174.939159 
L 420.977336 157.663599 
L 426.789051 158.086849 
L 432.600765 140.074366 
L 438.41248 112.920317 
L 444.224194 123.036468 
L 450.035909 129.605271 
L 455.847623 126.854417 
L 461.659338 128.143642 
L 467.471052 114.179862 
L 473.282767 131.397963 
L 479.094481 142.278979 
L 484.906195 137.923277 
L 490.71791 120.771389 
L 496.529624 116.078878 
L 502.341339 131.223144 
L 508.153053 114.676674 
L 513.964768 110.409936 
L 519.776482 117.720465 
L 525.588197 123.138606 
L 531.399911 118.512184 
L 537.211626 123.025977 
L 543.02334 125.820934 
L 548.835055 108.062632 
L 554.646769 106.240063 
L 560.458483 77.69292 
L 566.270198 128.224553 
L 572.081912 112.044923 
L 577.893627 139.82864 
L 583.705341 123.750499 
L 589.517056 103.997835 
L 595.32877 95.18439 
L 601.140485 94.505407 
L 606.952199 106.475421 
L 612.763914 101.595739 
L 618.575628 97.976588 
L 624.387343 147.480457 
L 630.199057 127.098368 
L 636.010771 168.271908 
L 641.822486 157.11649 
L 653.445915 193.283462 
L 659.257629 199.625 
L 665.069344 205.222853 
L 670.881058 204.133809 
L 676.692773 204.475204 
L 682.504487 206.959973 
L 688.316202 205.398718 
L 694.127916 218.16923 
L 699.93963 226.547924 
L 705.751345 225.747175 
L 711.563059 232.129145 
L 717.374774 221.602388 
L 723.186488 229.308403 
L 728.998203 230.824388 
L 734.809917 218.049112 
L 740.621632 201.962849 
L 746.433346 199.853619 
L 752.245061 184.328195 
L 758.056775 195.622637 
L 763.86849 193.976027 
L 769.680204 179.330685 
L 775.491918 169.659297 
L 781.303633 170.075444 
L 787.115347 215.553301 
L 792.927062 257.548211 
L 798.738776 273.837894 
L 804.550491 275.50206 
L 949.843352 275.50206 
L 949.843352 275.50206 
" style="fill:none;stroke:#f7a35c;stroke-linecap:square;"/>
   </g>
   <g id="line2d_13">
    <path clip-path="url(#p6d35c6138d)" d="M 83.897898 275.50206 
L 89.709612 263.042646 
L 95.521327 217.672925 
L 101.333041 213.304398 
L 107.144756 214.364774 
L 118.768184 209.819518 
L 124.579899 206.224181 
L 130.391613 217.672925 
L 136.203328 215.96086 
L 142.015042 219.224829 
L 147.826757 219.705312 
L 153.638471 212.365524 
L 159.450186 216.660891 
L 165.2619 220.640615 
L 171.073615 217.538183 
L 176.885329 205.737531 
L 182.697044 219.952726 
L 188.508758 217.666446 
L 194.320472 213.676204 
L 200.132187 215.024086 
L 205.943901 212.698984 
L 211.755616 213.699098 
L 217.56733 217.971967 
L 223.379045 221.129005 
L 229.190759 222.959582 
L 235.002474 220.582714 
L 240.814188 214.583186 
L 246.625903 219.431005 
L 252.437617 218.386059 
L 258.249332 221.510617 
L 264.061046 224.128009 
L 269.87276 225.533023 
L 275.684475 224.057944 
L 281.496189 221.373569 
L 287.307904 220.663885 
L 293.119618 213.57551 
L 298.931333 223.667574 
L 304.743047 213.964112 
L 310.554762 216.68461 
L 316.366476 212.038339 
L 322.178191 204.974482 
L 327.989905 212.697455 
L 333.80162 209.40854 
L 339.613334 218.93547 
L 345.425048 211.983157 
L 351.236763 216.687054 
L 357.048477 211.908247 
L 362.860192 210.559112 
L 368.671906 207.669865 
L 374.483621 197.580628 
L 380.295335 195.585764 
L 386.10705 199.720081 
L 391.918764 187.674998 
L 397.730479 198.480964 
L 403.542193 189.202902 
L 409.353907 162.604545 
L 415.165622 173.714614 
L 420.977336 160.272025 
L 426.789051 139.132226 
L 432.600765 128.207162 
L 438.41248 94.475515 
L 444.224194 120.835962 
L 450.035909 125.564602 
L 455.847623 120.504764 
L 461.659338 128.468706 
L 467.471052 102.325437 
L 473.282767 115.712502 
L 479.094481 127.083186 
L 484.906195 137.714237 
L 490.71791 123.075248 
L 496.529624 102.331621 
L 502.341339 132.183543 
L 508.153053 110.371221 
L 513.964768 121.066087 
L 519.776482 115.565562 
L 525.588197 129.368489 
L 531.399911 127.311565 
L 537.211626 134.694653 
L 543.02334 129.546255 
L 548.835055 117.440277 
L 554.646769 102.481587 
L 560.458483 76.583446 
L 566.270198 139.074347 
L 572.081912 106.749296 
L 577.893627 144.862872 
L 583.705341 122.047627 
L 589.517056 95.781268 
L 595.32877 94.509795 
L 601.140485 85.030448 
L 606.952199 93.415659 
L 612.763914 95.444279 
L 618.575628 83.015915 
L 624.387343 137.878392 
L 630.199057 114.60496 
L 636.010771 149.014256 
L 641.822486 134.405512 
L 647.6342 143.202004 
L 653.445915 156.9227 
L 659.257629 169.731597 
L 665.069344 171.9158 
L 670.881058 176.92246 
L 676.692773 164.784645 
L 682.504487 165.435073 
L 688.316202 162.948433 
L 694.127916 176.580962 
L 699.93963 194.882389 
L 705.751345 207.002574 
L 711.563059 211.745218 
L 717.374774 213.069395 
L 723.186488 219.928682 
L 728.998203 212.172335 
L 734.809917 210.431143 
L 740.621632 196.261613 
L 746.433346 204.520484 
L 752.245061 194.176015 
L 758.056775 198.137052 
L 763.86849 195.989098 
L 769.680204 198.376357 
L 775.491918 190.903085 
L 781.303633 191.356643 
L 792.927062 259.359455 
L 798.738776 274.363375 
L 804.550491 275.50206 
L 949.843352 275.50206 
L 949.843352 275.50206 
" style="fill:none;stroke:#8085e9;stroke-linecap:square;"/>
   </g>
   <g id="line2d_14">
    <path clip-path="url(#p6d35c6138d)" d="M 83.897898 275.50206 
L 89.709612 267.832475 
L 95.521327 213.042224 
L 101.333041 220.055166 
L 107.144756 217.901378 
L 112.95647 216.325436 
L 118.768184 205.950485 
L 124.579899 212.989692 
L 130.391613 209.995403 
L 136.203328 215.248543 
L 142.015042 209.601417 
L 147.826757 218.610552 
L 153.638471 217.481127 
L 159.450186 224.912264 
L 165.2619 220.864661 
L 171.073615 209.380643 
L 176.885329 212.211411 
L 182.697044 221.107565 
L 188.508758 210.552241 
L 194.320472 206.741834 
L 200.132187 204.048024 
L 205.943901 212.946243 
L 211.755616 206.269008 
L 217.56733 212.894935 
L 223.379045 213.746796 
L 229.190759 212.010728 
L 235.002474 215.23383 
L 240.814188 219.049975 
L 246.625903 213.350631 
L 252.437617 211.2517 
L 258.249332 216.906537 
L 264.061046 219.035475 
L 269.87276 210.334398 
L 275.684475 222.647492 
L 281.496189 209.259639 
L 287.307904 202.291993 
L 293.119618 223.218416 
L 298.931333 210.228563 
L 304.743047 219.545846 
L 310.554762 209.33577 
L 316.366476 213.162588 
L 322.178191 191.174472 
L 327.989905 207.25618 
L 333.80162 206.013697 
L 339.613334 204.603126 
L 345.425048 209.562822 
L 351.236763 197.274065 
L 357.048477 210.006088 
L 362.860192 209.747856 
L 368.671906 202.381661 
L 374.483621 187.809296 
L 380.295335 201.714407 
L 386.10705 190.436785 
L 391.918764 192.784521 
L 397.730479 193.49718 
L 403.542193 197.042098 
L 409.353907 164.571343 
L 415.165622 160.868266 
L 420.977336 149.043583 
L 426.789051 138.048008 
L 432.600765 133.503056 
L 438.41248 104.131165 
L 444.224194 117.538985 
L 450.035909 112.72792 
L 455.847623 109.446132 
L 461.659338 122.42416 
L 467.471052 91.287196 
L 473.282767 120.317782 
L 479.094481 129.523409 
L 484.906195 145.738207 
L 490.71791 108.372508 
L 496.529624 123.935095 
L 502.341339 132.30375 
L 508.153053 115.400122 
L 513.964768 136.242002 
L 519.776482 102.072805 
L 525.588197 125.044403 
L 531.399911 93.260338 
L 537.211626 144.672929 
L 543.02334 104.318129 
L 548.835055 106.305461 
L 554.646769 125.83824 
L 560.458483 75.452937 
L 566.270198 135.252703 
L 572.081912 127.282632 
L 577.893627 155.921267 
L 583.705341 123.682078 
L 589.517056 111.311011 
L 595.32877 76.957418 
L 601.140485 123.926594 
L 606.952199 117.309436 
L 612.763914 120.934498 
L 618.575628 125.398828 
L 624.387343 157.216552 
L 630.199057 148.049582 
L 636.010771 177.591389 
L 641.822486 158.315874 
L 647.6342 153.735081 
L 653.445915 180.318357 
L 659.257629 189.249708 
L 665.069344 162.590191 
L 670.881058 185.279974 
L 676.692773 174.381194 
L 682.504487 196.556412 
L 688.316202 178.625881 
L 694.127916 198.397268 
L 699.93963 220.761002 
L 705.751345 200.628671 
L 711.563059 217.071746 
L 717.374774 219.453292 
L 723.186488 226.258919 
L 728.998203 221.833086 
L 734.809917 205.690051 
L 740.621632 197.004771 
L 746.433346 195.877887 
L 752.245061 198.451035 
L 758.056775 200.877688 
L 763.86849 187.35391 
L 769.680204 194.38136 
L 775.491918 175.5909 
L 781.303633 210.082394 
L 787.115347 214.978973 
L 792.927062 255.712692 
L 798.738776 274.481782 
L 804.550491 275.50206 
L 949.843352 275.50206 
L 949.843352 275.50206 
" style="fill:none;stroke:#f15c80;stroke-linecap:square;"/>
   </g>
   <g id="line2d_15">
    <path clip-path="url(#p6d35c6138d)" d="M 83.897898 275.50206 
L 89.709612 263.923307 
L 95.521327 214.150385 
L 101.333041 201.733351 
L 107.144756 218.184611 
L 112.95647 211.478365 
L 118.768184 198.301639 
L 124.579899 204.169605 
L 130.391613 201.785744 
L 136.203328 207.522728 
L 142.015042 209.435056 
L 147.826757 202.440651 
L 153.638471 200.030593 
L 159.450186 214.855178 
L 165.2619 205.186325 
L 171.073615 212.305116 
L 176.885329 205.113127 
L 182.697044 213.533964 
L 188.508758 208.31811 
L 194.320472 214.554402 
L 200.132187 216.92334 
L 205.943901 209.559247 
L 211.755616 205.885131 
L 217.56733 210.713998 
L 223.379045 217.795398 
L 229.190759 216.737846 
L 235.002474 217.95141 
L 240.814188 229.396446 
L 246.625903 224.737821 
L 252.437617 215.20583 
L 258.249332 207.71702 
L 264.061046 213.601933 
L 269.87276 216.765618 
L 275.684475 218.069047 
L 281.496189 213.336728 
L 287.307904 215.255331 
L 293.119618 222.167901 
L 298.931333 208.921512 
L 304.743047 209.892337 
L 310.554762 206.252485 
L 316.366476 204.782347 
L 322.178191 203.91991 
L 327.989905 202.482042 
L 333.80162 209.754616 
L 339.613334 213.457643 
L 345.425048 203.614822 
L 357.048477 202.592701 
L 362.860192 205.940388 
L 368.671906 202.924537 
L 374.483621 198.420197 
L 380.295335 196.543109 
L 386.10705 189.726007 
L 391.918764 174.056088 
L 397.730479 181.55354 
L 403.542193 182.114705 
L 409.353907 158.376967 
L 415.165622 176.092547 
L 420.977336 159.631934 
L 426.789051 128.409448 
L 432.600765 125.79493 
L 438.41248 117.139983 
L 444.224194 119.456862 
L 450.035909 131.384132 
L 455.847623 102.12665 
L 461.659338 128.717243 
L 467.471052 98.902922 
L 473.282767 108.42711 
L 479.094481 130.175275 
L 484.906195 116.792097 
L 490.71791 97.473196 
L 496.529624 112.809258 
L 502.341339 103.166291 
L 508.153053 128.375142 
L 513.964768 93.073309 
L 519.776482 84.467452 
L 525.588197 110.983671 
L 531.399911 127.093289 
L 537.211626 119.8002 
L 543.02334 110.26128 
L 548.835055 103.156518 
L 554.646769 109.178521 
L 560.458483 109.582722 
L 566.270198 139.199315 
L 572.081912 131.553098 
L 577.893627 142.838623 
L 583.705341 136.463573 
L 589.517056 137.360173 
L 595.32877 96.449794 
L 601.140485 114.706485 
L 606.952199 115.612324 
L 612.763914 134.073819 
L 618.575628 138.081559 
L 624.387343 176.527722 
L 630.199057 173.132952 
L 636.010771 194.897676 
L 641.822486 207.678809 
L 647.6342 208.17025 
L 653.445915 197.348843 
L 659.257629 201.132637 
L 665.069344 209.816748 
L 670.881058 212.008708 
L 676.692773 196.825367 
L 682.504487 207.451685 
L 688.316202 217.591591 
L 694.127916 209.879063 
L 699.93963 225.040618 
L 705.751345 228.556271 
L 711.563059 236.114455 
L 717.374774 217.883422 
L 723.186488 219.035644 
L 728.998203 230.607562 
L 734.809917 221.280318 
L 740.621632 213.166694 
L 746.433346 198.106767 
L 752.245061 187.018499 
L 758.056775 176.311649 
L 763.86849 183.002139 
L 769.680204 198.796492 
L 775.491918 184.319187 
L 781.303633 193.600624 
L 787.115347 205.036987 
L 792.927062 257.359356 
L 798.738776 275.344481 
L 804.550491 275.50206 
L 949.843352 275.50206 
L 949.843352 275.50206 
" style="fill:none;stroke:#e4d354;stroke-linecap:square;"/>
   </g>
   <g id="line2d_16">
    <path clip-path="url(#p6d35c6138d)" d="M 83.897898 275.50206 
L 89.709612 258.967788 
L 95.521327 219.987372 
L 101.333041 214.107115 
L 107.144756 215.213615 
L 112.95647 203.2318 
L 118.768184 214.423258 
L 124.579899 210.534701 
L 130.391613 203.579558 
L 136.203328 212.273486 
L 142.015042 213.032229 
L 147.826757 210.218558 
L 153.638471 213.443215 
L 159.450186 223.653508 
L 165.2619 218.181259 
L 171.073615 216.470966 
L 176.885329 197.870431 
L 182.697044 218.794699 
L 188.508758 216.887528 
L 194.320472 203.457146 
L 200.132187 210.442627 
L 205.943901 212.111479 
L 211.755616 204.746892 
L 217.56733 207.175293 
L 223.379045 221.289226 
L 229.190759 209.349027 
L 235.002474 206.643754 
L 240.814188 218.019269 
L 246.625903 210.721045 
L 252.437617 214.024563 
L 258.249332 218.483069 
L 264.061046 224.509263 
L 269.87276 222.907276 
L 275.684475 220.170203 
L 281.496189 219.543077 
L 287.307904 191.993714 
L 293.119618 223.095711 
L 298.931333 216.199994 
L 304.743047 206.542445 
L 310.554762 208.592543 
L 316.366476 213.032477 
L 322.178191 189.076888 
L 327.989905 207.973722 
L 333.80162 218.070015 
L 339.613334 208.904353 
L 345.425048 199.102705 
L 351.236763 187.865286 
L 357.048477 204.187701 
L 362.860192 188.913041 
L 368.671906 206.329488 
L 374.483621 188.730347 
L 380.295335 181.602988 
L 386.10705 189.390213 
L 391.918764 196.14355 
L 397.730479 177.19816 
L 403.542193 181.953002 
L 409.353907 174.591556 
L 415.165622 162.42385 
L 420.977336 161.260884 
L 426.789051 153.811289 
L 432.600765 131.109232 
L 438.41248 125.46709 
L 444.224194 133.30092 
L 450.035909 113.547497 
L 455.847623 104.108957 
L 461.659338 93.353542 
L 467.471052 104.978039 
L 473.282767 128.226508 
L 479.094481 116.643991 
L 484.906195 109.958182 
L 490.71791 94.69153 
L 496.529624 111.682917 
L 502.341339 121.718036 
L 508.153053 111.857026 
L 513.964768 106.712591 
L 519.776482 102.594995 
L 525.588197 131.636067 
L 531.399911 97.89944 
L 537.211626 125.544045 
L 543.02334 128.304628 
L 548.835055 77.586902 
L 554.646769 78.417021 
L 560.458483 59.355078 
L 566.270198 137.729886 
L 572.081912 115.062072 
L 577.893627 138.265086 
L 583.705341 121.952093 
L 589.517056 96.821786 
L 595.32877 77.817134 
L 601.140485 69.308431 
L 606.952199 78.48642 
L 612.763914 85.710627 
L 618.575628 88.027543 
L 624.387343 126.600662 
L 630.199057 125.114057 
L 636.010771 153.791796 
L 641.822486 148.201299 
L 647.6342 137.112351 
L 653.445915 151.104438 
L 659.257629 153.415989 
L 665.069344 157.082714 
L 670.881058 158.113982 
L 676.692773 156.621971 
L 682.504487 159.813684 
L 688.316202 155.485747 
L 694.127916 176.483649 
L 699.93963 188.448984 
L 705.751345 181.076758 
L 711.563059 207.223787 
L 717.374774 213.296304 
L 723.186488 211.274359 
L 728.998203 226.142601 
L 734.809917 213.486863 
L 740.621632 190.052543 
L 746.433346 178.861603 
L 752.245061 179.396213 
L 758.056775 182.199154 
L 763.86849 181.141913 
L 775.491918 176.48521 
L 781.303633 198.551553 
L 787.115347 205.613534 
L 792.927062 257.073826 
L 798.738776 273.040649 
L 804.550491 275.50206 
L 949.843352 275.50206 
L 949.843352 275.50206 
" style="fill:none;stroke:#2b908f;stroke-linecap:square;"/>
   </g>
   <g id="line2d_17">
    <path clip-path="url(#p6d35c6138d)" d="M 83.897898 275.50206 
L 89.709612 262.059457 
L 95.521327 219.431205 
L 101.333041 205.248459 
L 107.144756 219.931301 
L 112.95647 198.287111 
L 118.768184 205.508509 
L 124.579899 200.267494 
L 130.391613 199.287305 
L 136.203328 218.451015 
L 142.015042 220.371387 
L 147.826757 203.528126 
L 153.638471 211.289628 
L 159.450186 212.487122 
L 165.2619 220.70633 
L 171.073615 215.676624 
L 176.885329 214.024394 
L 182.697044 224.076532 
L 188.508758 217.843624 
L 194.320472 213.218959 
L 200.132187 206.86087 
L 205.943901 217.601003 
L 211.755616 215.845446 
L 217.56733 215.89272 
L 223.379045 219.266346 
L 235.002474 213.650442 
L 240.814188 203.713035 
L 246.625903 208.949761 
L 252.437617 213.323828 
L 258.249332 207.81844 
L 264.061046 217.128524 
L 269.87276 215.967183 
L 275.684475 223.437226 
L 281.496189 219.491395 
L 287.307904 219.387501 
L 293.119618 213.251517 
L 298.931333 220.822848 
L 304.743047 206.908729 
L 310.554762 207.573441 
L 316.366476 203.322152 
L 322.178191 202.227111 
L 327.989905 212.251412 
L 333.80162 208.93422 
L 339.613334 206.621913 
L 345.425048 198.135651 
L 351.236763 200.894575 
L 357.048477 206.648462 
L 362.860192 207.898188 
L 368.671906 191.448111 
L 374.483621 196.014514 
L 380.295335 184.410795 
L 386.10705 194.316582 
L 391.918764 178.620293 
L 397.730479 201.376239 
L 403.542193 179.750336 
L 409.353907 149.075622 
L 415.165622 160.325634 
L 420.977336 149.669303 
L 426.789051 122.595655 
L 432.600765 111.240788 
L 438.41248 79.380815 
L 444.224194 87.574014 
L 450.035909 107.033959 
L 455.847623 99.835575 
L 461.659338 99.881699 
L 467.471052 81.990687 
L 473.282767 97.002569 
L 479.094481 92.926885 
L 484.906195 114.630137 
L 490.71791 94.41339 
L 496.529624 89.713739 
L 502.341339 95.884351 
L 508.153053 73.244191 
L 513.964768 100.841938 
L 519.776482 76.928008 
L 525.588197 93.629966 
L 531.399911 119.414274 
L 537.211626 111.63806 
L 543.02334 109.820478 
L 548.835055 108.342015 
L 554.646769 94.714408 
L 560.458483 84.710344 
L 566.270198 116.18475 
L 572.081912 115.163034 
L 577.893627 139.637363 
L 583.705341 127.438114 
L 589.517056 103.785432 
L 595.32877 77.462426 
L 601.140485 96.210632 
L 606.952199 107.355564 
L 612.763914 107.689769 
L 618.575628 113.319166 
L 624.387343 138.912066 
L 630.199057 143.609104 
L 636.010771 170.84939 
L 641.822486 171.664566 
L 647.6342 175.778164 
L 653.445915 187.99665 
L 659.257629 195.369639 
L 665.069344 198.100434 
L 670.881058 198.589618 
L 676.692773 188.56565 
L 682.504487 203.335866 
L 688.316202 199.179296 
L 694.127916 200.649357 
L 699.93963 212.688029 
L 705.751345 223.041753 
L 711.563059 223.94894 
L 717.374774 223.67875 
L 723.186488 224.265784 
L 728.998203 222.769148 
L 734.809917 215.950232 
L 740.621632 201.715535 
L 746.433346 193.420109 
L 752.245061 182.800854 
L 758.056775 197.1305 
L 763.86849 188.442966 
L 769.680204 188.944094 
L 775.491918 191.8614 
L 781.303633 175.619573 
L 787.115347 219.255495 
L 792.927062 257.727157 
L 798.738776 275.073138 
L 804.550491 275.50206 
L 949.843352 275.50206 
L 949.843352 275.50206 
" style="fill:none;stroke:#f45b5b;stroke-linecap:square;"/>
   </g>
   <g id="line2d_18">
    <path clip-path="url(#p6d35c6138d)" d="M 83.897898 275.50206 
L 89.709612 245.830517 
L 95.521327 220.446118 
L 101.333041 203.523185 
L 107.144756 212.32311 
L 112.95647 217.005122 
L 118.768184 206.907772 
L 124.579899 209.220572 
L 130.391613 211.025685 
L 136.203328 192.974557 
L 142.015042 208.092377 
L 147.826757 213.789764 
L 153.638471 202.16935 
L 159.450186 225.859206 
L 165.2619 210.961257 
L 171.073615 213.775981 
L 176.885329 196.385931 
L 182.697044 215.72637 
L 188.508758 214.690226 
L 194.320472 205.114316 
L 200.132187 220.157203 
L 205.943901 194.80945 
L 211.755616 201.080851 
L 217.56733 202.533543 
L 223.379045 232.313972 
L 229.190759 215.010552 
L 235.002474 219.499412 
L 240.814188 213.645407 
L 246.625903 216.659121 
L 252.437617 206.429504 
L 258.249332 223.220242 
L 264.061046 200.990768 
L 269.87276 208.27417 
L 275.684475 213.765181 
L 281.496189 209.920263 
L 287.307904 213.446978 
L 293.119618 225.123732 
L 298.931333 207.0715 
L 304.743047 214.663873 
L 310.554762 205.473939 
L 316.366476 197.056141 
L 322.178191 202.913901 
L 327.989905 212.96532 
L 333.80162 202.977498 
L 339.613334 212.203931 
L 345.425048 205.152466 
L 351.236763 210.797564 
L 357.048477 206.969615 
L 362.860192 213.076971 
L 368.671906 192.458369 
L 374.483621 211.299839 
L 380.295335 202.431466 
L 386.10705 169.596059 
L 391.918764 173.385977 
L 397.730479 182.348444 
L 403.542193 187.522885 
L 409.353907 146.952352 
L 415.165622 156.80952 
L 420.977336 154.850849 
L 426.789051 138.894919 
L 432.600765 135.626946 
L 438.41248 97.747426 
L 444.224194 79.589185 
L 450.035909 132.792314 
L 455.847623 113.447655 
L 461.659338 137.95801 
L 467.471052 107.807934 
L 473.282767 97.829802 
L 479.094481 141.321707 
L 484.906195 118.892599 
L 490.71791 110.556887 
L 496.529624 121.47224 
L 502.341339 129.40519 
L 508.153053 111.251939 
L 513.964768 85.331142 
L 519.776482 104.127777 
L 525.588197 79.629038 
L 531.399911 119.546394 
L 537.211626 110.428611 
L 543.02334 102.821258 
L 548.835055 115.826343 
L 554.646769 123.435089 
L 560.458483 81.837186 
L 566.270198 133.957125 
L 572.081912 107.315667 
L 577.893627 154.891162 
L 583.705341 116.44913 
L 589.517056 102.499149 
L 595.32877 97.227274 
L 601.140485 98.323061 
L 606.952199 110.764908 
L 612.763914 108.860213 
L 618.575628 115.72044 
L 624.387343 143.981131 
L 630.199057 145.473775 
L 636.010771 184.162221 
L 641.822486 162.688438 
L 647.6342 179.4184 
L 653.445915 199.296764 
L 659.257629 188.448064 
L 665.069344 203.575963 
L 670.881058 204.519716 
L 676.692773 194.646288 
L 682.504487 209.795797 
L 688.316202 214.268495 
L 694.127916 226.250422 
L 699.93963 232.572106 
L 705.751345 206.439007 
L 711.563059 240.517519 
L 717.374774 216.388373 
L 723.186488 218.703704 
L 728.998203 217.683125 
L 734.809917 210.45827 
L 740.621632 202.110764 
L 746.433346 190.804197 
L 752.245061 172.206046 
L 758.056775 187.065043 
L 763.86849 180.421648 
L 769.680204 164.295545 
L 775.491918 140.481917 
L 781.303633 175.875358 
L 787.115347 216.934707 
L 792.927062 260.698405 
L 798.738776 273.633111 
L 804.550491 275.50206 
L 949.843352 275.50206 
L 949.843352 275.50206 
" style="fill:none;stroke:#91e8e1;stroke-linecap:square;"/>
   </g>
   <g id="line2d_19">
    <path clip-path="url(#p6d35c6138d)" d="M 83.897898 275.50206 
L 89.709612 265.017185 
L 95.521327 208.95343 
L 101.333041 210.513163 
L 107.144756 214.268077 
L 112.95647 201.732441 
L 118.768184 201.35695 
L 124.579899 209.819948 
L 130.391613 209.733296 
L 136.203328 217.185356 
L 142.015042 209.444457 
L 147.826757 202.107932 
L 153.638471 201.096994 
L 159.450186 206.582397 
L 165.2619 217.411584 
L 171.073615 213.331604 
L 176.885329 221.296656 
L 182.697044 221.602717 
L 188.508758 204.296665 
L 194.320472 210.250103 
L 200.132187 199.581138 
L 205.943901 206.19205 
L 211.755616 210.406208 
L 217.56733 216.609797 
L 223.379045 215.53078 
L 229.190759 227.294705 
L 235.002474 226.870715 
L 240.814188 208.039193 
L 246.625903 224.63715 
L 252.437617 214.894645 
L 258.249332 218.0421 
L 264.061046 207.776813 
L 269.87276 219.746569 
L 275.684475 201.834435 
L 281.496189 212.294917 
L 287.307904 203.116638 
L 293.119618 219.273516 
L 298.931333 217.497093 
L 304.743047 195.734472 
L 310.554762 206.915948 
L 316.366476 213.09357 
L 322.178191 200.41754 
L 327.989905 203.708498 
L 333.80162 213.270817 
L 339.613334 217.799755 
L 345.425048 200.677668 
L 351.236763 208.983622 
L 357.048477 209.954229 
L 362.860192 196.764879 
L 368.671906 193.935572 
L 374.483621 189.112674 
L 380.295335 183.941859 
L 386.10705 183.397972 
L 391.918764 175.827343 
L 397.730479 180.038132 
L 403.542193 168.402846 
L 409.353907 156.240781 
L 415.165622 151.032116 
L 420.977336 133.06707 
L 426.789051 139.622138 
L 432.600765 105.143068 
L 438.41248 80.351672 
L 444.224194 104.877234 
L 450.035909 120.12517 
L 455.847623 111.640919 
L 461.659338 121.255899 
L 467.471052 82.54255 
L 473.282767 110.819664 
L 479.094481 112.387649 
L 484.906195 124.455358 
L 490.71791 114.986609 
L 496.529624 88.339154 
L 502.341339 101.734956 
L 508.153053 87.550126 
L 513.964768 95.958769 
L 519.776482 80.474278 
L 525.588197 100.660144 
L 531.399911 98.077771 
L 537.211626 101.335033 
L 548.835055 58.45022 
L 554.646769 74.148795 
L 560.458483 43.171393 
L 566.270198 114.201668 
L 572.081912 92.842122 
L 577.893627 139.224028 
L 583.705341 85.879542 
L 589.517056 91.964013 
L 595.32877 50.284282 
L 601.140485 86.55258 
L 606.952199 74.23287 
L 612.763914 75.018265 
L 618.575628 94.692462 
L 624.387343 151.417125 
L 630.199057 125.933898 
L 636.010771 151.403335 
L 641.822486 151.160075 
L 647.6342 145.042613 
L 653.445915 169.165664 
L 659.257629 181.987194 
L 665.069344 171.399607 
L 670.881058 177.592843 
L 676.692773 163.511717 
L 682.504487 185.37898 
L 688.316202 194.454816 
L 694.127916 196.126611 
L 699.93963 212.692258 
L 705.751345 203.797149 
L 711.563059 210.949742 
L 717.374774 200.248496 
L 723.186488 219.889366 
L 728.998203 218.968062 
L 734.809917 216.000152 
L 740.621632 201.78246 
L 746.433346 191.487246 
L 752.245061 176.36687 
L 758.056775 178.346493 
L 763.86849 167.509683 
L 769.680204 182.854435 
L 775.491918 179.322881 
L 781.303633 189.638237 
L 787.115347 209.438515 
L 792.927062 254.577673 
L 798.738776 274.643936 
L 804.550491 275.50206 
L 949.843352 275.50206 
L 949.843352 275.50206 
" style="fill:none;stroke:#7cb5ec;stroke-linecap:square;"/>
   </g>
   <g id="line2d_20">
    <path clip-path="url(#p6d35c6138d)" d="M 40.600625 275.50206 
L 993.140625 275.50206 
" style="fill:none;stroke:#dedede;stroke-linecap:square;stroke-width:2;"/>
   </g>
   <g id="text_19">
    <!-- Slamdunk: Non-T&gt;C mismatches over reads -->
    <g transform="translate(340.281875 19.3575)scale(0.16 -0.16)">
     <defs>
      <path d="M 53.515625 70.515625 
L 53.515625 60.890625 
Q 47.90625 63.578125 42.921875 64.890625 
Q 37.9375 66.21875 33.296875 66.21875 
Q 25.25 66.21875 20.875 63.09375 
Q 16.5 59.96875 16.5 54.203125 
Q 16.5 49.359375 19.40625 46.890625 
Q 22.3125 44.4375 30.421875 42.921875 
L 36.375 41.703125 
Q 47.40625 39.59375 52.65625 34.296875 
Q 57.90625 29 57.90625 20.125 
Q 57.90625 9.515625 50.796875 4.046875 
Q 43.703125 -1.421875 29.984375 -1.421875 
Q 24.8125 -1.421875 18.96875 -0.25 
Q 13.140625 0.921875 6.890625 3.21875 
L 6.890625 13.375 
Q 12.890625 10.015625 18.65625 8.296875 
Q 24.421875 6.59375 29.984375 6.59375 
Q 38.421875 6.59375 43.015625 9.90625 
Q 47.609375 13.234375 47.609375 19.390625 
Q 47.609375 24.75 44.3125 27.78125 
Q 41.015625 30.8125 33.5 32.328125 
L 27.484375 33.5 
Q 16.453125 35.6875 11.515625 40.375 
Q 6.59375 45.0625 6.59375 53.421875 
Q 6.59375 63.09375 13.40625 68.65625 
Q 20.21875 74.21875 32.171875 74.21875 
Q 37.3125 74.21875 42.625 73.28125 
Q 47.953125 72.359375 53.515625 70.515625 
z
" id="DejaVuSans-83"/>
      <path d="M 9.421875 75.984375 
L 18.40625 75.984375 
L 18.40625 0 
L 9.421875 0 
z
" id="DejaVuSans-108"/>
      <path d="M 8.5 21.578125 
L 8.5 54.6875 
L 17.484375 54.6875 
L 17.484375 21.921875 
Q 17.484375 14.15625 20.5 10.265625 
Q 23.53125 6.390625 29.59375 6.390625 
Q 36.859375 6.390625 41.078125 11.03125 
Q 45.3125 15.671875 45.3125 23.6875 
L 45.3125 54.6875 
L 54.296875 54.6875 
L 54.296875 0 
L 45.3125 0 
L 45.3125 8.40625 
Q 42.046875 3.421875 37.71875 1 
Q 33.40625 -1.421875 27.6875 -1.421875 
Q 18.265625 -1.421875 13.375 4.4375 
Q 8.5 10.296875 8.5 21.578125 
z
M 31.109375 56 
z
" id="DejaVuSans-117"/>
      <path d="M 9.078125 75.984375 
L 18.109375 75.984375 
L 18.109375 31.109375 
L 44.921875 54.6875 
L 56.390625 54.6875 
L 27.390625 29.109375 
L 57.625 0 
L 45.90625 0 
L 18.109375 26.703125 
L 18.109375 0 
L 9.078125 0 
z
" id="DejaVuSans-107"/>
      <path d="M 11.71875 12.40625 
L 22.015625 12.40625 
L 22.015625 0 
L 11.71875 0 
z
M 11.71875 51.703125 
L 22.015625 51.703125 
L 22.015625 39.3125 
L 11.71875 39.3125 
z
" id="DejaVuSans-58"/>
      <path d="M 9.8125 72.90625 
L 23.09375 72.90625 
L 55.421875 11.921875 
L 55.421875 72.90625 
L 64.984375 72.90625 
L 64.984375 0 
L 51.703125 0 
L 19.390625 60.984375 
L 19.390625 0 
L 9.8125 0 
z
" id="DejaVuSans-78"/>
      <path d="M 4.890625 31.390625 
L 31.203125 31.390625 
L 31.203125 23.390625 
L 4.890625 23.390625 
z
" id="DejaVuSans-45"/>
      <path d="M -0.296875 72.90625 
L 61.375 72.90625 
L 61.375 64.59375 
L 35.5 64.59375 
L 35.5 0 
L 25.59375 0 
L 25.59375 64.59375 
L -0.296875 64.59375 
z
" id="DejaVuSans-84"/>
      <path d="M 10.59375 49.21875 
L 10.59375 58.109375 
L 73.1875 35.40625 
L 73.1875 27.296875 
L 10.59375 4.59375 
L 10.59375 13.484375 
L 60.890625 31.296875 
z
" id="DejaVuSans-62"/>
      <path d="M 64.40625 67.28125 
L 64.40625 56.890625 
Q 59.421875 61.53125 53.78125 63.8125 
Q 48.140625 66.109375 41.796875 66.109375 
Q 29.296875 66.109375 22.65625 58.46875 
Q 16.015625 50.828125 16.015625 36.375 
Q 16.015625 21.96875 22.65625 14.328125 
Q 29.296875 6.6875 41.796875 6.6875 
Q 48.140625 6.6875 53.78125 8.984375 
Q 59.421875 11.28125 64.40625 15.921875 
L 64.40625 5.609375 
Q 59.234375 2.09375 53.4375 0.328125 
Q 47.65625 -1.421875 41.21875 -1.421875 
Q 24.65625 -1.421875 15.125 8.703125 
Q 5.609375 18.84375 5.609375 36.375 
Q 5.609375 53.953125 15.125 64.078125 
Q 24.65625 74.21875 41.21875 74.21875 
Q 47.75 74.21875 53.53125 72.484375 
Q 59.328125 70.75 64.40625 67.28125 
z
" id="DejaVuSans-67"/>
      <path d="M 2.984375 54.6875 
L 12.5 54.6875 
L 29.59375 8.796875 
L 46.6875 54.6875 
L 56.203125 54.6875 
L 35.6875 0 
L 23.484375 0 
z
" id="DejaVuSans-118"/>
     </defs>
     <use xlink:href="#DejaVuSans-83"/>
     <use x="63.476562" xlink:href="#DejaVuSans-108"/>
     <use x="91.259766" xlink:href="#DejaVuSans-97"/>
     <use x="152.539062" xlink:href="#DejaVuSans-109"/>
     <use x="249.951172" xlink:href="#DejaVuSans-100"/>
     <use x="313.427734" xlink:href="#DejaVuSans-117"/>
     <use x="376.806641" xlink:href="#DejaVuSans-110"/>
     <use x="440.185547" xlink:href="#DejaVuSans-107"/>
     <use x="498.095703" xlink:href="#DejaVuSans-58"/>
     <use x="531.787109" xlink:href="#DejaVuSans-32"/>
     <use x="563.574219" xlink:href="#DejaVuSans-78"/>
     <use x="638.378906" xlink:href="#DejaVuSans-111"/>
     <use x="699.560547" xlink:href="#DejaVuSans-110"/>
     <use x="762.939453" xlink:href="#DejaVuSans-45"/>
     <use x="789.898438" xlink:href="#DejaVuSans-84"/>
     <use x="850.982422" xlink:href="#DejaVuSans-62"/>
     <use x="934.771484" xlink:href="#DejaVuSans-67"/>
     <use x="1004.595703" xlink:href="#DejaVuSans-32"/>
     <use x="1036.382812" xlink:href="#DejaVuSans-109"/>
     <use x="1133.794922" xlink:href="#DejaVuSans-105"/>
     <use x="1161.578125" xlink:href="#DejaVuSans-115"/>
     <use x="1213.677734" xlink:href="#DejaVuSans-109"/>
     <use x="1311.089844" xlink:href="#DejaVuSans-97"/>
     <use x="1372.369141" xlink:href="#DejaVuSans-116"/>
     <use x="1411.578125" xlink:href="#DejaVuSans-99"/>
     <use x="1466.558594" xlink:href="#DejaVuSans-104"/>
     <use x="1529.9375" xlink:href="#DejaVuSans-101"/>
     <use x="1591.460938" xlink:href="#DejaVuSans-115"/>
     <use x="1643.560547" xlink:href="#DejaVuSans-32"/>
     <use x="1675.347656" xlink:href="#DejaVuSans-111"/>
     <use x="1736.529297" xlink:href="#DejaVuSans-118"/>
     <use x="1795.708984" xlink:href="#DejaVuSans-101"/>
     <use x="1857.232422" xlink:href="#DejaVuSans-114"/>
     <use x="1898.345703" xlink:href="#DejaVuSans-32"/>
     <use x="1930.132812" xlink:href="#DejaVuSans-114"/>
     <use x="1968.996094" xlink:href="#DejaVuSans-101"/>
     <use x="2030.519531" xlink:href="#DejaVuSans-97"/>
     <use x="2091.798828" xlink:href="#DejaVuSans-100"/>
     <use x="2155.275391" xlink:href="#DejaVuSans-115"/>
    </g>
   </g>
   <g id="legend_1">
    <g id="line2d_21">
     <path d="M 47.800625 293.354194 
L 63.800625 293.354194 
" style="fill:none;stroke:#7cb5ec;stroke-linecap:square;"/>
    </g>
    <g id="line2d_22"/>
    <g id="text_20">
     <!-- RT_Gad2_1 -->
     <g transform="translate(70.200625 296.154194)scale(0.08 -0.08)">
      <defs>
       <path d="M 44.390625 34.1875 
Q 47.5625 33.109375 50.5625 29.59375 
Q 53.5625 26.078125 56.59375 19.921875 
L 66.609375 0 
L 56 0 
L 46.6875 18.703125 
Q 43.0625 26.03125 39.671875 28.421875 
Q 36.28125 30.8125 30.421875 30.8125 
L 19.671875 30.8125 
L 19.671875 0 
L 9.8125 0 
L 9.8125 72.90625 
L 32.078125 72.90625 
Q 44.578125 72.90625 50.734375 67.671875 
Q 56.890625 62.453125 56.890625 51.90625 
Q 56.890625 45.015625 53.6875 40.46875 
Q 50.484375 35.9375 44.390625 34.1875 
z
M 19.671875 64.796875 
L 19.671875 38.921875 
L 32.078125 38.921875 
Q 39.203125 38.921875 42.84375 42.21875 
Q 46.484375 45.515625 46.484375 51.90625 
Q 46.484375 58.296875 42.84375 61.546875 
Q 39.203125 64.796875 32.078125 64.796875 
z
" id="DejaVuSans-82"/>
       <path d="M 50.984375 -16.609375 
L 50.984375 -23.578125 
L -0.984375 -23.578125 
L -0.984375 -16.609375 
z
" id="DejaVuSans-95"/>
       <path d="M 59.515625 10.40625 
L 59.515625 29.984375 
L 43.40625 29.984375 
L 43.40625 38.09375 
L 69.28125 38.09375 
L 69.28125 6.78125 
Q 63.578125 2.734375 56.6875 0.65625 
Q 49.8125 -1.421875 42 -1.421875 
Q 24.90625 -1.421875 15.25 8.5625 
Q 5.609375 18.5625 5.609375 36.375 
Q 5.609375 54.25 15.25 64.234375 
Q 24.90625 74.21875 42 74.21875 
Q 49.125 74.21875 55.546875 72.453125 
Q 61.96875 70.703125 67.390625 67.28125 
L 67.390625 56.78125 
Q 61.921875 61.421875 55.765625 63.765625 
Q 49.609375 66.109375 42.828125 66.109375 
Q 29.4375 66.109375 22.71875 58.640625 
Q 16.015625 51.171875 16.015625 36.375 
Q 16.015625 21.625 22.71875 14.15625 
Q 29.4375 6.6875 42.828125 6.6875 
Q 48.046875 6.6875 52.140625 7.59375 
Q 56.25 8.5 59.515625 10.40625 
z
" id="DejaVuSans-71"/>
      </defs>
      <use xlink:href="#DejaVuSans-82"/>
      <use x="62.232422" xlink:href="#DejaVuSans-84"/>
      <use x="123.316406" xlink:href="#DejaVuSans-95"/>
      <use x="173.316406" xlink:href="#DejaVuSans-71"/>
      <use x="250.806641" xlink:href="#DejaVuSans-97"/>
      <use x="312.085938" xlink:href="#DejaVuSans-100"/>
      <use x="375.5625" xlink:href="#DejaVuSans-50"/>
      <use x="439.185547" xlink:href="#DejaVuSans-95"/>
      <use x="489.185547" xlink:href="#DejaVuSans-49"/>
     </g>
    </g>
    <g id="line2d_23">
     <path d="M 47.800625 305.319194 
L 63.800625 305.319194 
" style="fill:none;stroke:#434348;stroke-linecap:square;"/>
    </g>
    <g id="line2d_24"/>
    <g id="text_21">
     <!-- RT_Gad2_2 -->
     <g transform="translate(70.200625 308.119194)scale(0.08 -0.08)">
      <use xlink:href="#DejaVuSans-82"/>
      <use x="62.232422" xlink:href="#DejaVuSans-84"/>
      <use x="123.316406" xlink:href="#DejaVuSans-95"/>
      <use x="173.316406" xlink:href="#DejaVuSans-71"/>
      <use x="250.806641" xlink:href="#DejaVuSans-97"/>
      <use x="312.085938" xlink:href="#DejaVuSans-100"/>
      <use x="375.5625" xlink:href="#DejaVuSans-50"/>
      <use x="439.185547" xlink:href="#DejaVuSans-95"/>
      <use x="489.185547" xlink:href="#DejaVuSans-50"/>
     </g>
    </g>
    <g id="line2d_25">
     <path d="M 47.800625 317.284194 
L 63.800625 317.284194 
" style="fill:none;stroke:#90ed7d;stroke-linecap:square;"/>
    </g>
    <g id="line2d_26"/>
    <g id="text_22">
     <!-- RT_Gad2_3 -->
     <g transform="translate(70.200625 320.084194)scale(0.08 -0.08)">
      <use xlink:href="#DejaVuSans-82"/>
      <use x="62.232422" xlink:href="#DejaVuSans-84"/>
      <use x="123.316406" xlink:href="#DejaVuSans-95"/>
      <use x="173.316406" xlink:href="#DejaVuSans-71"/>
      <use x="250.806641" xlink:href="#DejaVuSans-97"/>
      <use x="312.085938" xlink:href="#DejaVuSans-100"/>
      <use x="375.5625" xlink:href="#DejaVuSans-50"/>
      <use x="439.185547" xlink:href="#DejaVuSans-95"/>
      <use x="489.185547" xlink:href="#DejaVuSans-51"/>
     </g>
    </g>
    <g id="line2d_27">
     <path d="M 260.252188 293.354194 
L 276.252188 293.354194 
" style="fill:none;stroke:#f7a35c;stroke-linecap:square;"/>
    </g>
    <g id="line2d_28"/>
    <g id="text_23">
     <!-- RT_vGluT2_1 -->
     <g transform="translate(282.652188 296.154194)scale(0.08 -0.08)">
      <use xlink:href="#DejaVuSans-82"/>
      <use x="62.232422" xlink:href="#DejaVuSans-84"/>
      <use x="123.316406" xlink:href="#DejaVuSans-95"/>
      <use x="173.316406" xlink:href="#DejaVuSans-118"/>
      <use x="232.496094" xlink:href="#DejaVuSans-71"/>
      <use x="309.986328" xlink:href="#DejaVuSans-108"/>
      <use x="337.769531" xlink:href="#DejaVuSans-117"/>
      <use x="401.148438" xlink:href="#DejaVuSans-84"/>
      <use x="462.232422" xlink:href="#DejaVuSans-50"/>
      <use x="525.855469" xlink:href="#DejaVuSans-95"/>
      <use x="575.855469" xlink:href="#DejaVuSans-49"/>
     </g>
    </g>
    <g id="line2d_29">
     <path d="M 260.252188 305.319194 
L 276.252188 305.319194 
" style="fill:none;stroke:#8085e9;stroke-linecap:square;"/>
    </g>
    <g id="line2d_30"/>
    <g id="text_24">
     <!-- RT_vGluT2_3 -->
     <g transform="translate(282.652188 308.119194)scale(0.08 -0.08)">
      <use xlink:href="#DejaVuSans-82"/>
      <use x="62.232422" xlink:href="#DejaVuSans-84"/>
      <use x="123.316406" xlink:href="#DejaVuSans-95"/>
      <use x="173.316406" xlink:href="#DejaVuSans-118"/>
      <use x="232.496094" xlink:href="#DejaVuSans-71"/>
      <use x="309.986328" xlink:href="#DejaVuSans-108"/>
      <use x="337.769531" xlink:href="#DejaVuSans-117"/>
      <use x="401.148438" xlink:href="#DejaVuSans-84"/>
      <use x="462.232422" xlink:href="#DejaVuSans-50"/>
      <use x="525.855469" xlink:href="#DejaVuSans-95"/>
      <use x="575.855469" xlink:href="#DejaVuSans-51"/>
     </g>
    </g>
    <g id="line2d_31">
     <path d="M 479.63625 293.354194 
L 495.63625 293.354194 
" style="fill:none;stroke:#f15c80;stroke-linecap:square;"/>
    </g>
    <g id="line2d_32"/>
    <g id="text_25">
     <!-- S1_Gad2_1 -->
     <g transform="translate(502.03625 296.154194)scale(0.08 -0.08)">
      <use xlink:href="#DejaVuSans-83"/>
      <use x="63.476562" xlink:href="#DejaVuSans-49"/>
      <use x="127.099609" xlink:href="#DejaVuSans-95"/>
      <use x="177.099609" xlink:href="#DejaVuSans-71"/>
      <use x="254.589844" xlink:href="#DejaVuSans-97"/>
      <use x="315.869141" xlink:href="#DejaVuSans-100"/>
      <use x="379.345703" xlink:href="#DejaVuSans-50"/>
      <use x="442.96875" xlink:href="#DejaVuSans-95"/>
      <use x="492.96875" xlink:href="#DejaVuSans-49"/>
     </g>
    </g>
    <g id="line2d_33">
     <path d="M 479.63625 305.319194 
L 495.63625 305.319194 
" style="fill:none;stroke:#e4d354;stroke-linecap:square;"/>
    </g>
    <g id="line2d_34"/>
    <g id="text_26">
     <!-- S1_Gad2_2 -->
     <g transform="translate(502.03625 308.119194)scale(0.08 -0.08)">
      <use xlink:href="#DejaVuSans-83"/>
      <use x="63.476562" xlink:href="#DejaVuSans-49"/>
      <use x="127.099609" xlink:href="#DejaVuSans-95"/>
      <use x="177.099609" xlink:href="#DejaVuSans-71"/>
      <use x="254.589844" xlink:href="#DejaVuSans-97"/>
      <use x="315.869141" xlink:href="#DejaVuSans-100"/>
      <use x="379.345703" xlink:href="#DejaVuSans-50"/>
      <use x="442.96875" xlink:href="#DejaVuSans-95"/>
      <use x="492.96875" xlink:href="#DejaVuSans-50"/>
     </g>
    </g>
    <g id="line2d_35">
     <path d="M 692.391563 293.354194 
L 708.391563 293.354194 
" style="fill:none;stroke:#2b908f;stroke-linecap:square;"/>
    </g>
    <g id="line2d_36"/>
    <g id="text_27">
     <!-- S1_Gad2_3 -->
     <g transform="translate(714.791563 296.154194)scale(0.08 -0.08)">
      <use xlink:href="#DejaVuSans-83"/>
      <use x="63.476562" xlink:href="#DejaVuSans-49"/>
      <use x="127.099609" xlink:href="#DejaVuSans-95"/>
      <use x="177.099609" xlink:href="#DejaVuSans-71"/>
      <use x="254.589844" xlink:href="#DejaVuSans-97"/>
      <use x="315.869141" xlink:href="#DejaVuSans-100"/>
      <use x="379.345703" xlink:href="#DejaVuSans-50"/>
      <use x="442.96875" xlink:href="#DejaVuSans-95"/>
      <use x="492.96875" xlink:href="#DejaVuSans-51"/>
     </g>
    </g>
    <g id="line2d_37">
     <path d="M 692.391563 305.319194 
L 708.391563 305.319194 
" style="fill:none;stroke:#f45b5b;stroke-linecap:square;"/>
    </g>
    <g id="line2d_38"/>
    <g id="text_28">
     <!-- S1_vGluT2_1 -->
     <g transform="translate(714.791563 308.119194)scale(0.08 -0.08)">
      <use xlink:href="#DejaVuSans-83"/>
      <use x="63.476562" xlink:href="#DejaVuSans-49"/>
      <use x="127.099609" xlink:href="#DejaVuSans-95"/>
      <use x="177.099609" xlink:href="#DejaVuSans-118"/>
      <use x="236.279297" xlink:href="#DejaVuSans-71"/>
      <use x="313.769531" xlink:href="#DejaVuSans-108"/>
      <use x="341.552734" xlink:href="#DejaVuSans-117"/>
      <use x="404.931641" xlink:href="#DejaVuSans-84"/>
      <use x="466.015625" xlink:href="#DejaVuSans-50"/>
      <use x="529.638672" xlink:href="#DejaVuSans-95"/>
      <use x="579.638672" xlink:href="#DejaVuSans-49"/>
     </g>
    </g>
    <g id="line2d_39">
     <path d="M 912.079375 293.354194 
L 928.079375 293.354194 
" style="fill:none;stroke:#91e8e1;stroke-linecap:square;"/>
    </g>
    <g id="line2d_40"/>
    <g id="text_29">
     <!-- S1_vGluT2_2 -->
     <g transform="translate(934.479375 296.154194)scale(0.08 -0.08)">
      <use xlink:href="#DejaVuSans-83"/>
      <use x="63.476562" xlink:href="#DejaVuSans-49"/>
      <use x="127.099609" xlink:href="#DejaVuSans-95"/>
      <use x="177.099609" xlink:href="#DejaVuSans-118"/>
      <use x="236.279297" xlink:href="#DejaVuSans-71"/>
      <use x="313.769531" xlink:href="#DejaVuSans-108"/>
      <use x="341.552734" xlink:href="#DejaVuSans-117"/>
      <use x="404.931641" xlink:href="#DejaVuSans-84"/>
      <use x="466.015625" xlink:href="#DejaVuSans-50"/>
      <use x="529.638672" xlink:href="#DejaVuSans-95"/>
      <use x="579.638672" xlink:href="#DejaVuSans-50"/>
     </g>
    </g>
    <g id="line2d_41">
     <path d="M 912.079375 305.319194 
L 928.079375 305.319194 
" style="fill:none;stroke:#7cb5ec;stroke-linecap:square;"/>
    </g>
    <g id="line2d_42"/>
    <g id="text_30">
     <!-- S1_vGluT2_3 -->
     <g transform="translate(934.479375 308.119194)scale(0.08 -0.08)">
      <use xlink:href="#DejaVuSans-83"/>
      <use x="63.476562" xlink:href="#DejaVuSans-49"/>
      <use x="127.099609" xlink:href="#DejaVuSans-95"/>
      <use x="177.099609" xlink:href="#DejaVuSans-118"/>
      <use x="236.279297" xlink:href="#DejaVuSans-71"/>
      <use x="313.769531" xlink:href="#DejaVuSans-108"/>
      <use x="341.552734" xlink:href="#DejaVuSans-117"/>
      <use x="404.931641" xlink:href="#DejaVuSans-84"/>
      <use x="466.015625" xlink:href="#DejaVuSans-50"/>
      <use x="529.638672" xlink:href="#DejaVuSans-95"/>
      <use x="579.638672" xlink:href="#DejaVuSans-51"/>
     </g>
    </g>
   </g>
  </g>
 </g>
 <defs>
  <clipPath id="p6d35c6138d">
   <rect height="243.9472" width="952.54" x="40.600625" y="31.55486"/>
  </clipPath>
 </defs>
</svg>
