<?xml version="1.0" encoding="utf-8" standalone="no"?>
<!DOCTYPE svg PUBLIC "-//W3C//DTD SVG 1.1//EN"
  "http://www.w3.org/Graphics/SVG/1.1/DTD/svg11.dtd">
<!-- Created with matplotlib (https://matplotlib.org/) -->
<svg height="332.370444pt" version="1.1" viewBox="0 0 1000.340625 332.370444" width="1000.340625pt" xmlns="http://www.w3.org/2000/svg" xmlns:xlink="http://www.w3.org/1999/xlink">
 <metadata>
  <rdf:RDF xmlns:cc="http://creativecommons.org/ns#" xmlns:dc="http://purl.org/dc/elements/1.1/" xmlns:rdf="http://www.w3.org/1999/02/22-rdf-syntax-ns#">
   <cc:Work>
    <dc:type rdf:resource="http://purl.org/dc/dcmitype/StillImage"/>
    <dc:date>2020-12-03T09:50:01.301992</dc:date>
    <dc:format>image/svg+xml</dc:format>
    <dc:creator>
     <cc:Agent>
      <dc:title>Matplotlib v3.3.1, https://matplotlib.org/</dc:title>
     </cc:Agent>
    </dc:creator>
   </cc:Work>
  </rdf:RDF>
 </metadata>
 <defs>
  <style type="text/css">*{stroke-linecap:butt;stroke-linejoin:round;}</style>
 </defs>
 <g id="figure_1">
  <g id="axes_1">
   <g id="patch_1">
    <path d="M 40.600625 275.50206 
L 993.140625 275.50206 
L 993.140625 31.55486 
L 40.600625 31.55486 
z
" style="fill:#ffffff;"/>
   </g>
   <g id="matplotlib.axis_1">
    <g id="xtick_1">
     <g id="text_1">
      <!-- 0 -->
      <g transform="translate(75.541183 288.58081)scale(0.08 -0.08)">
       <defs>
        <path d="M 31.78125 66.40625 
Q 24.171875 66.40625 20.328125 58.90625 
Q 16.5 51.421875 16.5 36.375 
Q 16.5 21.390625 20.328125 13.890625 
Q 24.171875 6.390625 31.78125 6.390625 
Q 39.453125 6.390625 43.28125 13.890625 
Q 47.125 21.390625 47.125 36.375 
Q 47.125 51.421875 43.28125 58.90625 
Q 39.453125 66.40625 31.78125 66.40625 
z
M 31.78125 74.21875 
Q 44.046875 74.21875 50.515625 64.515625 
Q 56.984375 54.828125 56.984375 36.375 
Q 56.984375 17.96875 50.515625 8.265625 
Q 44.046875 -1.421875 31.78125 -1.421875 
Q 19.53125 -1.421875 13.0625 8.265625 
Q 6.59375 17.96875 6.59375 36.375 
Q 6.59375 54.828125 13.0625 64.515625 
Q 19.53125 74.21875 31.78125 74.21875 
z
" id="DejaVuSans-48"/>
       </defs>
       <use xlink:href="#DejaVuSans-48"/>
      </g>
     </g>
    </g>
    <g id="xtick_2">
     <g id="text_2">
      <!-- 20 -->
      <g transform="translate(189.230472 288.58081)scale(0.08 -0.08)">
       <defs>
        <path d="M 19.1875 8.296875 
L 53.609375 8.296875 
L 53.609375 0 
L 7.328125 0 
L 7.328125 8.296875 
Q 12.9375 14.109375 22.625 23.890625 
Q 32.328125 33.6875 34.8125 36.53125 
Q 39.546875 41.84375 41.421875 45.53125 
Q 43.3125 49.21875 43.3125 52.78125 
Q 43.3125 58.59375 39.234375 62.25 
Q 35.15625 65.921875 28.609375 65.921875 
Q 23.96875 65.921875 18.8125 64.3125 
Q 13.671875 62.703125 7.8125 59.421875 
L 7.8125 69.390625 
Q 13.765625 71.78125 18.9375 73 
Q 24.125 74.21875 28.421875 74.21875 
Q 39.75 74.21875 46.484375 68.546875 
Q 53.21875 62.890625 53.21875 53.421875 
Q 53.21875 48.921875 51.53125 44.890625 
Q 49.859375 40.875 45.40625 35.40625 
Q 44.1875 33.984375 37.640625 27.21875 
Q 31.109375 20.453125 19.1875 8.296875 
z
" id="DejaVuSans-50"/>
       </defs>
       <use xlink:href="#DejaVuSans-50"/>
       <use x="63.623047" xlink:href="#DejaVuSans-48"/>
      </g>
     </g>
    </g>
    <g id="xtick_3">
     <g id="text_3">
      <!-- 40 -->
      <g transform="translate(305.464762 288.58081)scale(0.08 -0.08)">
       <defs>
        <path d="M 37.796875 64.3125 
L 12.890625 25.390625 
L 37.796875 25.390625 
z
M 35.203125 72.90625 
L 47.609375 72.90625 
L 47.609375 25.390625 
L 58.015625 25.390625 
L 58.015625 17.1875 
L 47.609375 17.1875 
L 47.609375 0 
L 37.796875 0 
L 37.796875 17.1875 
L 4.890625 17.1875 
L 4.890625 26.703125 
z
" id="DejaVuSans-52"/>
       </defs>
       <use xlink:href="#DejaVuSans-52"/>
       <use x="63.623047" xlink:href="#DejaVuSans-48"/>
      </g>
     </g>
    </g>
    <g id="xtick_4">
     <g id="text_4">
      <!-- 60 -->
      <g transform="translate(421.699051 288.58081)scale(0.08 -0.08)">
       <defs>
        <path d="M 33.015625 40.375 
Q 26.375 40.375 22.484375 35.828125 
Q 18.609375 31.296875 18.609375 23.390625 
Q 18.609375 15.53125 22.484375 10.953125 
Q 26.375 6.390625 33.015625 6.390625 
Q 39.65625 6.390625 43.53125 10.953125 
Q 47.40625 15.53125 47.40625 23.390625 
Q 47.40625 31.296875 43.53125 35.828125 
Q 39.65625 40.375 33.015625 40.375 
z
M 52.59375 71.296875 
L 52.59375 62.3125 
Q 48.875 64.0625 45.09375 64.984375 
Q 41.3125 65.921875 37.59375 65.921875 
Q 27.828125 65.921875 22.671875 59.328125 
Q 17.53125 52.734375 16.796875 39.40625 
Q 19.671875 43.65625 24.015625 45.921875 
Q 28.375 48.1875 33.59375 48.1875 
Q 44.578125 48.1875 50.953125 41.515625 
Q 57.328125 34.859375 57.328125 23.390625 
Q 57.328125 12.15625 50.6875 5.359375 
Q 44.046875 -1.421875 33.015625 -1.421875 
Q 20.359375 -1.421875 13.671875 8.265625 
Q 6.984375 17.96875 6.984375 36.375 
Q 6.984375 53.65625 15.1875 63.9375 
Q 23.390625 74.21875 37.203125 74.21875 
Q 40.921875 74.21875 44.703125 73.484375 
Q 48.484375 72.75 52.59375 71.296875 
z
" id="DejaVuSans-54"/>
       </defs>
       <use xlink:href="#DejaVuSans-54"/>
       <use x="63.623047" xlink:href="#DejaVuSans-48"/>
      </g>
     </g>
    </g>
    <g id="xtick_5">
     <g id="text_5">
      <!-- 80 -->
      <g transform="translate(537.93334 288.58081)scale(0.08 -0.08)">
       <defs>
        <path d="M 31.78125 34.625 
Q 24.75 34.625 20.71875 30.859375 
Q 16.703125 27.09375 16.703125 20.515625 
Q 16.703125 13.921875 20.71875 10.15625 
Q 24.75 6.390625 31.78125 6.390625 
Q 38.8125 6.390625 42.859375 10.171875 
Q 46.921875 13.96875 46.921875 20.515625 
Q 46.921875 27.09375 42.890625 30.859375 
Q 38.875 34.625 31.78125 34.625 
z
M 21.921875 38.8125 
Q 15.578125 40.375 12.03125 44.71875 
Q 8.5 49.078125 8.5 55.328125 
Q 8.5 64.0625 14.71875 69.140625 
Q 20.953125 74.21875 31.78125 74.21875 
Q 42.671875 74.21875 48.875 69.140625 
Q 55.078125 64.0625 55.078125 55.328125 
Q 55.078125 49.078125 51.53125 44.71875 
Q 48 40.375 41.703125 38.8125 
Q 48.828125 37.15625 52.796875 32.3125 
Q 56.78125 27.484375 56.78125 20.515625 
Q 56.78125 9.90625 50.3125 4.234375 
Q 43.84375 -1.421875 31.78125 -1.421875 
Q 19.734375 -1.421875 13.25 4.234375 
Q 6.78125 9.90625 6.78125 20.515625 
Q 6.78125 27.484375 10.78125 32.3125 
Q 14.796875 37.15625 21.921875 38.8125 
z
M 18.3125 54.390625 
Q 18.3125 48.734375 21.84375 45.5625 
Q 25.390625 42.390625 31.78125 42.390625 
Q 38.140625 42.390625 41.71875 45.5625 
Q 45.3125 48.734375 45.3125 54.390625 
Q 45.3125 60.0625 41.71875 63.234375 
Q 38.140625 66.40625 31.78125 66.40625 
Q 25.390625 66.40625 21.84375 63.234375 
Q 18.3125 60.0625 18.3125 54.390625 
z
" id="DejaVuSans-56"/>
       </defs>
       <use xlink:href="#DejaVuSans-56"/>
       <use x="63.623047" xlink:href="#DejaVuSans-48"/>
      </g>
     </g>
    </g>
    <g id="xtick_6">
     <g id="text_6">
      <!-- 100 -->
      <g transform="translate(651.622629 288.58081)scale(0.08 -0.08)">
       <defs>
        <path d="M 12.40625 8.296875 
L 28.515625 8.296875 
L 28.515625 63.921875 
L 10.984375 60.40625 
L 10.984375 69.390625 
L 28.421875 72.90625 
L 38.28125 72.90625 
L 38.28125 8.296875 
L 54.390625 8.296875 
L 54.390625 0 
L 12.40625 0 
z
" id="DejaVuSans-49"/>
       </defs>
       <use xlink:href="#DejaVuSans-49"/>
       <use x="63.623047" xlink:href="#DejaVuSans-48"/>
       <use x="127.246094" xlink:href="#DejaVuSans-48"/>
      </g>
     </g>
    </g>
    <g id="xtick_7">
     <g id="text_7">
      <!-- 120 -->
      <g transform="translate(767.856918 288.58081)scale(0.08 -0.08)">
       <use xlink:href="#DejaVuSans-49"/>
       <use x="63.623047" xlink:href="#DejaVuSans-50"/>
       <use x="127.246094" xlink:href="#DejaVuSans-48"/>
      </g>
     </g>
    </g>
    <g id="xtick_8">
     <g id="text_8">
      <!-- 140 -->
      <g transform="translate(884.091208 288.58081)scale(0.08 -0.08)">
       <use xlink:href="#DejaVuSans-49"/>
       <use x="63.623047" xlink:href="#DejaVuSans-52"/>
       <use x="127.246094" xlink:href="#DejaVuSans-48"/>
      </g>
     </g>
    </g>
    <g id="text_9">
     <!-- Position in read -->
     <g transform="translate(478.412813 301.842998)scale(0.1 -0.1)">
      <defs>
       <path d="M 19.671875 64.796875 
L 19.671875 37.40625 
L 32.078125 37.40625 
Q 38.96875 37.40625 42.71875 40.96875 
Q 46.484375 44.53125 46.484375 51.125 
Q 46.484375 57.671875 42.71875 61.234375 
Q 38.96875 64.796875 32.078125 64.796875 
z
M 9.8125 72.90625 
L 32.078125 72.90625 
Q 44.34375 72.90625 50.609375 67.359375 
Q 56.890625 61.8125 56.890625 51.125 
Q 56.890625 40.328125 50.609375 34.8125 
Q 44.34375 29.296875 32.078125 29.296875 
L 19.671875 29.296875 
L 19.671875 0 
L 9.8125 0 
z
" id="DejaVuSans-80"/>
       <path d="M 30.609375 48.390625 
Q 23.390625 48.390625 19.1875 42.75 
Q 14.984375 37.109375 14.984375 27.296875 
Q 14.984375 17.484375 19.15625 11.84375 
Q 23.34375 6.203125 30.609375 6.203125 
Q 37.796875 6.203125 41.984375 11.859375 
Q 46.1875 17.53125 46.1875 27.296875 
Q 46.1875 37.015625 41.984375 42.703125 
Q 37.796875 48.390625 30.609375 48.390625 
z
M 30.609375 56 
Q 42.328125 56 49.015625 48.375 
Q 55.71875 40.765625 55.71875 27.296875 
Q 55.71875 13.875 49.015625 6.21875 
Q 42.328125 -1.421875 30.609375 -1.421875 
Q 18.84375 -1.421875 12.171875 6.21875 
Q 5.515625 13.875 5.515625 27.296875 
Q 5.515625 40.765625 12.171875 48.375 
Q 18.84375 56 30.609375 56 
z
" id="DejaVuSans-111"/>
       <path d="M 44.28125 53.078125 
L 44.28125 44.578125 
Q 40.484375 46.53125 36.375 47.5 
Q 32.28125 48.484375 27.875 48.484375 
Q 21.1875 48.484375 17.84375 46.4375 
Q 14.5 44.390625 14.5 40.28125 
Q 14.5 37.15625 16.890625 35.375 
Q 19.28125 33.59375 26.515625 31.984375 
L 29.59375 31.296875 
Q 39.15625 29.25 43.1875 25.515625 
Q 47.21875 21.78125 47.21875 15.09375 
Q 47.21875 7.46875 41.1875 3.015625 
Q 35.15625 -1.421875 24.609375 -1.421875 
Q 20.21875 -1.421875 15.453125 -0.5625 
Q 10.6875 0.296875 5.421875 2 
L 5.421875 11.28125 
Q 10.40625 8.6875 15.234375 7.390625 
Q 20.0625 6.109375 24.8125 6.109375 
Q 31.15625 6.109375 34.5625 8.28125 
Q 37.984375 10.453125 37.984375 14.40625 
Q 37.984375 18.0625 35.515625 20.015625 
Q 33.0625 21.96875 24.703125 23.78125 
L 21.578125 24.515625 
Q 13.234375 26.265625 9.515625 29.90625 
Q 5.8125 33.546875 5.8125 39.890625 
Q 5.8125 47.609375 11.28125 51.796875 
Q 16.75 56 26.8125 56 
Q 31.78125 56 36.171875 55.265625 
Q 40.578125 54.546875 44.28125 53.078125 
z
" id="DejaVuSans-115"/>
       <path d="M 9.421875 54.6875 
L 18.40625 54.6875 
L 18.40625 0 
L 9.421875 0 
z
M 9.421875 75.984375 
L 18.40625 75.984375 
L 18.40625 64.59375 
L 9.421875 64.59375 
z
" id="DejaVuSans-105"/>
       <path d="M 18.3125 70.21875 
L 18.3125 54.6875 
L 36.8125 54.6875 
L 36.8125 47.703125 
L 18.3125 47.703125 
L 18.3125 18.015625 
Q 18.3125 11.328125 20.140625 9.421875 
Q 21.96875 7.515625 27.59375 7.515625 
L 36.8125 7.515625 
L 36.8125 0 
L 27.59375 0 
Q 17.1875 0 13.234375 3.875 
Q 9.28125 7.765625 9.28125 18.015625 
L 9.28125 47.703125 
L 2.6875 47.703125 
L 2.6875 54.6875 
L 9.28125 54.6875 
L 9.28125 70.21875 
z
" id="DejaVuSans-116"/>
       <path d="M 54.890625 33.015625 
L 54.890625 0 
L 45.90625 0 
L 45.90625 32.71875 
Q 45.90625 40.484375 42.875 44.328125 
Q 39.84375 48.1875 33.796875 48.1875 
Q 26.515625 48.1875 22.3125 43.546875 
Q 18.109375 38.921875 18.109375 30.90625 
L 18.109375 0 
L 9.078125 0 
L 9.078125 54.6875 
L 18.109375 54.6875 
L 18.109375 46.1875 
Q 21.34375 51.125 25.703125 53.5625 
Q 30.078125 56 35.796875 56 
Q 45.21875 56 50.046875 50.171875 
Q 54.890625 44.34375 54.890625 33.015625 
z
" id="DejaVuSans-110"/>
       <path id="DejaVuSans-32"/>
       <path d="M 41.109375 46.296875 
Q 39.59375 47.171875 37.8125 47.578125 
Q 36.03125 48 33.890625 48 
Q 26.265625 48 22.1875 43.046875 
Q 18.109375 38.09375 18.109375 28.8125 
L 18.109375 0 
L 9.078125 0 
L 9.078125 54.6875 
L 18.109375 54.6875 
L 18.109375 46.1875 
Q 20.953125 51.171875 25.484375 53.578125 
Q 30.03125 56 36.53125 56 
Q 37.453125 56 38.578125 55.875 
Q 39.703125 55.765625 41.0625 55.515625 
z
" id="DejaVuSans-114"/>
       <path d="M 56.203125 29.59375 
L 56.203125 25.203125 
L 14.890625 25.203125 
Q 15.484375 15.921875 20.484375 11.0625 
Q 25.484375 6.203125 34.421875 6.203125 
Q 39.59375 6.203125 44.453125 7.46875 
Q 49.3125 8.734375 54.109375 11.28125 
L 54.109375 2.78125 
Q 49.265625 0.734375 44.1875 -0.34375 
Q 39.109375 -1.421875 33.890625 -1.421875 
Q 20.796875 -1.421875 13.15625 6.1875 
Q 5.515625 13.8125 5.515625 26.8125 
Q 5.515625 40.234375 12.765625 48.109375 
Q 20.015625 56 32.328125 56 
Q 43.359375 56 49.78125 48.890625 
Q 56.203125 41.796875 56.203125 29.59375 
z
M 47.21875 32.234375 
Q 47.125 39.59375 43.09375 43.984375 
Q 39.0625 48.390625 32.421875 48.390625 
Q 24.90625 48.390625 20.390625 44.140625 
Q 15.875 39.890625 15.1875 32.171875 
z
" id="DejaVuSans-101"/>
       <path d="M 34.28125 27.484375 
Q 23.390625 27.484375 19.1875 25 
Q 14.984375 22.515625 14.984375 16.5 
Q 14.984375 11.71875 18.140625 8.90625 
Q 21.296875 6.109375 26.703125 6.109375 
Q 34.1875 6.109375 38.703125 11.40625 
Q 43.21875 16.703125 43.21875 25.484375 
L 43.21875 27.484375 
z
M 52.203125 31.203125 
L 52.203125 0 
L 43.21875 0 
L 43.21875 8.296875 
Q 40.140625 3.328125 35.546875 0.953125 
Q 30.953125 -1.421875 24.3125 -1.421875 
Q 15.921875 -1.421875 10.953125 3.296875 
Q 6 8.015625 6 15.921875 
Q 6 25.140625 12.171875 29.828125 
Q 18.359375 34.515625 30.609375 34.515625 
L 43.21875 34.515625 
L 43.21875 35.40625 
Q 43.21875 41.609375 39.140625 45 
Q 35.0625 48.390625 27.6875 48.390625 
Q 23 48.390625 18.546875 47.265625 
Q 14.109375 46.140625 10.015625 43.890625 
L 10.015625 52.203125 
Q 14.9375 54.109375 19.578125 55.046875 
Q 24.21875 56 28.609375 56 
Q 40.484375 56 46.34375 49.84375 
Q 52.203125 43.703125 52.203125 31.203125 
z
" id="DejaVuSans-97"/>
       <path d="M 45.40625 46.390625 
L 45.40625 75.984375 
L 54.390625 75.984375 
L 54.390625 0 
L 45.40625 0 
L 45.40625 8.203125 
Q 42.578125 3.328125 38.25 0.953125 
Q 33.9375 -1.421875 27.875 -1.421875 
Q 17.96875 -1.421875 11.734375 6.484375 
Q 5.515625 14.40625 5.515625 27.296875 
Q 5.515625 40.1875 11.734375 48.09375 
Q 17.96875 56 27.875 56 
Q 33.9375 56 38.25 53.625 
Q 42.578125 51.265625 45.40625 46.390625 
z
M 14.796875 27.296875 
Q 14.796875 17.390625 18.875 11.75 
Q 22.953125 6.109375 30.078125 6.109375 
Q 37.203125 6.109375 41.296875 11.75 
Q 45.40625 17.390625 45.40625 27.296875 
Q 45.40625 37.203125 41.296875 42.84375 
Q 37.203125 48.484375 30.078125 48.484375 
Q 22.953125 48.484375 18.875 42.84375 
Q 14.796875 37.203125 14.796875 27.296875 
z
" id="DejaVuSans-100"/>
      </defs>
      <use xlink:href="#DejaVuSans-80"/>
      <use x="56.677734" xlink:href="#DejaVuSans-111"/>
      <use x="117.859375" xlink:href="#DejaVuSans-115"/>
      <use x="169.958984" xlink:href="#DejaVuSans-105"/>
      <use x="197.742188" xlink:href="#DejaVuSans-116"/>
      <use x="236.951172" xlink:href="#DejaVuSans-105"/>
      <use x="264.734375" xlink:href="#DejaVuSans-111"/>
      <use x="325.916016" xlink:href="#DejaVuSans-110"/>
      <use x="389.294922" xlink:href="#DejaVuSans-32"/>
      <use x="421.082031" xlink:href="#DejaVuSans-105"/>
      <use x="448.865234" xlink:href="#DejaVuSans-110"/>
      <use x="512.244141" xlink:href="#DejaVuSans-32"/>
      <use x="544.03125" xlink:href="#DejaVuSans-114"/>
      <use x="582.894531" xlink:href="#DejaVuSans-101"/>
      <use x="644.417969" xlink:href="#DejaVuSans-97"/>
      <use x="705.697266" xlink:href="#DejaVuSans-100"/>
     </g>
    </g>
   </g>
   <g id="matplotlib.axis_2">
    <g id="ytick_1">
     <g id="line2d_1">
      <path clip-path="url(#p6d5b5b332d)" d="M 40.600625 275.50206 
L 993.140625 275.50206 
" style="fill:none;stroke:#dedede;stroke-linecap:square;"/>
     </g>
     <g id="text_10">
      <!-- 0.0 -->
      <g transform="translate(20.878125 278.541435)scale(0.08 -0.08)">
       <defs>
        <path d="M 10.6875 12.40625 
L 21 12.40625 
L 21 0 
L 10.6875 0 
z
" id="DejaVuSans-46"/>
       </defs>
       <use xlink:href="#DejaVuSans-48"/>
       <use x="63.623047" xlink:href="#DejaVuSans-46"/>
       <use x="95.410156" xlink:href="#DejaVuSans-48"/>
      </g>
     </g>
    </g>
    <g id="ytick_2">
     <g id="line2d_2">
      <path clip-path="url(#p6d5b5b332d)" d="M 40.600625 239.591177 
L 993.140625 239.591177 
" style="fill:none;stroke:#dedede;stroke-linecap:square;"/>
     </g>
     <g id="text_11">
      <!-- 0.2 -->
      <g transform="translate(20.878125 242.630552)scale(0.08 -0.08)">
       <use xlink:href="#DejaVuSans-48"/>
       <use x="63.623047" xlink:href="#DejaVuSans-46"/>
       <use x="95.410156" xlink:href="#DejaVuSans-50"/>
      </g>
     </g>
    </g>
    <g id="ytick_3">
     <g id="line2d_3">
      <path clip-path="url(#p6d5b5b332d)" d="M 40.600625 203.680294 
L 993.140625 203.680294 
" style="fill:none;stroke:#dedede;stroke-linecap:square;"/>
     </g>
     <g id="text_12">
      <!-- 0.4 -->
      <g transform="translate(20.878125 206.719669)scale(0.08 -0.08)">
       <use xlink:href="#DejaVuSans-48"/>
       <use x="63.623047" xlink:href="#DejaVuSans-46"/>
       <use x="95.410156" xlink:href="#DejaVuSans-52"/>
      </g>
     </g>
    </g>
    <g id="ytick_4">
     <g id="line2d_4">
      <path clip-path="url(#p6d5b5b332d)" d="M 40.600625 167.769411 
L 993.140625 167.769411 
" style="fill:none;stroke:#dedede;stroke-linecap:square;"/>
     </g>
     <g id="text_13">
      <!-- 0.6 -->
      <g transform="translate(20.878125 170.808786)scale(0.08 -0.08)">
       <use xlink:href="#DejaVuSans-48"/>
       <use x="63.623047" xlink:href="#DejaVuSans-46"/>
       <use x="95.410156" xlink:href="#DejaVuSans-54"/>
      </g>
     </g>
    </g>
    <g id="ytick_5">
     <g id="line2d_5">
      <path clip-path="url(#p6d5b5b332d)" d="M 40.600625 131.858528 
L 993.140625 131.858528 
" style="fill:none;stroke:#dedede;stroke-linecap:square;"/>
     </g>
     <g id="text_14">
      <!-- 0.8 -->
      <g transform="translate(20.878125 134.897903)scale(0.08 -0.08)">
       <use xlink:href="#DejaVuSans-48"/>
       <use x="63.623047" xlink:href="#DejaVuSans-46"/>
       <use x="95.410156" xlink:href="#DejaVuSans-56"/>
      </g>
     </g>
    </g>
    <g id="ytick_6">
     <g id="line2d_6">
      <path clip-path="url(#p6d5b5b332d)" d="M 40.600625 95.947645 
L 993.140625 95.947645 
" style="fill:none;stroke:#dedede;stroke-linecap:square;"/>
     </g>
     <g id="text_15">
      <!-- 1.0 -->
      <g transform="translate(20.878125 98.98702)scale(0.08 -0.08)">
       <use xlink:href="#DejaVuSans-49"/>
       <use x="63.623047" xlink:href="#DejaVuSans-46"/>
       <use x="95.410156" xlink:href="#DejaVuSans-48"/>
      </g>
     </g>
    </g>
    <g id="ytick_7">
     <g id="line2d_7">
      <path clip-path="url(#p6d5b5b332d)" d="M 40.600625 60.036762 
L 993.140625 60.036762 
" style="fill:none;stroke:#dedede;stroke-linecap:square;"/>
     </g>
     <g id="text_16">
      <!-- 1.2 -->
      <g transform="translate(20.878125 63.076137)scale(0.08 -0.08)">
       <use xlink:href="#DejaVuSans-49"/>
       <use x="63.623047" xlink:href="#DejaVuSans-46"/>
       <use x="95.410156" xlink:href="#DejaVuSans-50"/>
      </g>
     </g>
    </g>
    <g id="text_17">
     <!-- Percent mismatches % -->
     <g transform="translate(14.798438 210.622991)rotate(-90)scale(0.1 -0.1)">
      <defs>
       <path d="M 48.78125 52.59375 
L 48.78125 44.1875 
Q 44.96875 46.296875 41.140625 47.34375 
Q 37.3125 48.390625 33.40625 48.390625 
Q 24.65625 48.390625 19.8125 42.84375 
Q 14.984375 37.3125 14.984375 27.296875 
Q 14.984375 17.28125 19.8125 11.734375 
Q 24.65625 6.203125 33.40625 6.203125 
Q 37.3125 6.203125 41.140625 7.25 
Q 44.96875 8.296875 48.78125 10.40625 
L 48.78125 2.09375 
Q 45.015625 0.34375 40.984375 -0.53125 
Q 36.96875 -1.421875 32.421875 -1.421875 
Q 20.0625 -1.421875 12.78125 6.34375 
Q 5.515625 14.109375 5.515625 27.296875 
Q 5.515625 40.671875 12.859375 48.328125 
Q 20.21875 56 33.015625 56 
Q 37.15625 56 41.109375 55.140625 
Q 45.0625 54.296875 48.78125 52.59375 
z
" id="DejaVuSans-99"/>
       <path d="M 52 44.1875 
Q 55.375 50.25 60.0625 53.125 
Q 64.75 56 71.09375 56 
Q 79.640625 56 84.28125 50.015625 
Q 88.921875 44.046875 88.921875 33.015625 
L 88.921875 0 
L 79.890625 0 
L 79.890625 32.71875 
Q 79.890625 40.578125 77.09375 44.375 
Q 74.3125 48.1875 68.609375 48.1875 
Q 61.625 48.1875 57.5625 43.546875 
Q 53.515625 38.921875 53.515625 30.90625 
L 53.515625 0 
L 44.484375 0 
L 44.484375 32.71875 
Q 44.484375 40.625 41.703125 44.40625 
Q 38.921875 48.1875 33.109375 48.1875 
Q 26.21875 48.1875 22.15625 43.53125 
Q 18.109375 38.875 18.109375 30.90625 
L 18.109375 0 
L 9.078125 0 
L 9.078125 54.6875 
L 18.109375 54.6875 
L 18.109375 46.1875 
Q 21.1875 51.21875 25.484375 53.609375 
Q 29.78125 56 35.6875 56 
Q 41.65625 56 45.828125 52.96875 
Q 50 49.953125 52 44.1875 
z
" id="DejaVuSans-109"/>
       <path d="M 54.890625 33.015625 
L 54.890625 0 
L 45.90625 0 
L 45.90625 32.71875 
Q 45.90625 40.484375 42.875 44.328125 
Q 39.84375 48.1875 33.796875 48.1875 
Q 26.515625 48.1875 22.3125 43.546875 
Q 18.109375 38.921875 18.109375 30.90625 
L 18.109375 0 
L 9.078125 0 
L 9.078125 75.984375 
L 18.109375 75.984375 
L 18.109375 46.1875 
Q 21.34375 51.125 25.703125 53.5625 
Q 30.078125 56 35.796875 56 
Q 45.21875 56 50.046875 50.171875 
Q 54.890625 44.34375 54.890625 33.015625 
z
" id="DejaVuSans-104"/>
       <path d="M 72.703125 32.078125 
Q 68.453125 32.078125 66.03125 28.46875 
Q 63.625 24.859375 63.625 18.40625 
Q 63.625 12.0625 66.03125 8.421875 
Q 68.453125 4.78125 72.703125 4.78125 
Q 76.859375 4.78125 79.265625 8.421875 
Q 81.6875 12.0625 81.6875 18.40625 
Q 81.6875 24.8125 79.265625 28.4375 
Q 76.859375 32.078125 72.703125 32.078125 
z
M 72.703125 38.28125 
Q 80.421875 38.28125 84.953125 32.90625 
Q 89.5 27.546875 89.5 18.40625 
Q 89.5 9.28125 84.9375 3.921875 
Q 80.375 -1.421875 72.703125 -1.421875 
Q 64.890625 -1.421875 60.34375 3.921875 
Q 55.8125 9.28125 55.8125 18.40625 
Q 55.8125 27.59375 60.375 32.9375 
Q 64.9375 38.28125 72.703125 38.28125 
z
M 22.3125 68.015625 
Q 18.109375 68.015625 15.6875 64.375 
Q 13.28125 60.75 13.28125 54.390625 
Q 13.28125 47.953125 15.671875 44.328125 
Q 18.0625 40.71875 22.3125 40.71875 
Q 26.5625 40.71875 28.96875 44.328125 
Q 31.390625 47.953125 31.390625 54.390625 
Q 31.390625 60.6875 28.953125 64.34375 
Q 26.515625 68.015625 22.3125 68.015625 
z
M 66.40625 74.21875 
L 74.21875 74.21875 
L 28.609375 -1.421875 
L 20.796875 -1.421875 
z
M 22.3125 74.21875 
Q 30.03125 74.21875 34.609375 68.875 
Q 39.203125 63.53125 39.203125 54.390625 
Q 39.203125 45.171875 34.640625 39.84375 
Q 30.078125 34.515625 22.3125 34.515625 
Q 14.546875 34.515625 10.03125 39.859375 
Q 5.515625 45.21875 5.515625 54.390625 
Q 5.515625 63.484375 10.046875 68.84375 
Q 14.59375 74.21875 22.3125 74.21875 
z
" id="DejaVuSans-37"/>
      </defs>
      <use xlink:href="#DejaVuSans-80"/>
      <use x="56.677734" xlink:href="#DejaVuSans-101"/>
      <use x="118.201172" xlink:href="#DejaVuSans-114"/>
      <use x="157.064453" xlink:href="#DejaVuSans-99"/>
      <use x="212.044922" xlink:href="#DejaVuSans-101"/>
      <use x="273.568359" xlink:href="#DejaVuSans-110"/>
      <use x="336.947266" xlink:href="#DejaVuSans-116"/>
      <use x="376.15625" xlink:href="#DejaVuSans-32"/>
      <use x="407.943359" xlink:href="#DejaVuSans-109"/>
      <use x="505.355469" xlink:href="#DejaVuSans-105"/>
      <use x="533.138672" xlink:href="#DejaVuSans-115"/>
      <use x="585.238281" xlink:href="#DejaVuSans-109"/>
      <use x="682.650391" xlink:href="#DejaVuSans-97"/>
      <use x="743.929688" xlink:href="#DejaVuSans-116"/>
      <use x="783.138672" xlink:href="#DejaVuSans-99"/>
      <use x="838.119141" xlink:href="#DejaVuSans-104"/>
      <use x="901.498047" xlink:href="#DejaVuSans-101"/>
      <use x="963.021484" xlink:href="#DejaVuSans-115"/>
      <use x="1015.121094" xlink:href="#DejaVuSans-32"/>
      <use x="1046.908203" xlink:href="#DejaVuSans-37"/>
     </g>
    </g>
   </g>
   <g id="line2d_8">
    <path clip-path="url(#p6d5b5b332d)" d="M 83.897898 275.50206 
L 89.709612 266.68212 
L 95.521327 229.468905 
L 101.333041 225.817681 
L 107.144756 219.04674 
L 112.95647 222.89054 
L 118.768184 201.445375 
L 124.579899 207.276549 
L 130.391613 180.685778 
L 136.203328 228.251831 
L 142.015042 226.765151 
L 147.826757 240.568935 
L 153.638471 238.781838 
L 159.450186 238.635069 
L 165.2619 242.708808 
L 171.073615 235.504543 
L 176.885329 236.140605 
L 182.697044 239.97273 
L 188.508758 242.277503 
L 194.320472 245.151647 
L 200.132187 244.064654 
L 205.943901 249.037748 
L 211.755616 246.941396 
L 217.56733 242.369375 
L 223.379045 241.272472 
L 229.190759 245.656035 
L 235.002474 246.435553 
L 240.814188 245.634267 
L 246.625903 246.210901 
L 252.437617 240.159026 
L 258.249332 242.671453 
L 264.061046 234.014189 
L 269.87276 245.62177 
L 275.684475 247.770297 
L 281.496189 235.928244 
L 287.307904 242.382902 
L 293.119618 239.008823 
L 298.931333 222.703384 
L 304.743047 223.534956 
L 310.554762 201.049157 
L 316.366476 230.12821 
L 322.178191 232.283223 
L 327.989905 240.214514 
L 333.80162 235.605296 
L 339.613334 226.374754 
L 345.425048 238.910197 
L 351.236763 229.428476 
L 357.048477 228.48919 
L 362.860192 223.802843 
L 368.671906 232.321771 
L 374.483621 227.692128 
L 380.295335 224.394739 
L 386.10705 224.890434 
L 391.918764 227.664479 
L 397.730479 228.67671 
L 403.542193 219.629157 
L 409.353907 212.621084 
L 415.165622 206.268915 
L 420.977336 207.874035 
L 432.600765 184.727536 
L 438.41248 175.712293 
L 444.224194 194.977848 
L 450.035909 184.643247 
L 455.847623 187.697155 
L 461.659338 193.476261 
L 467.471052 186.063083 
L 473.282767 190.664838 
L 479.094481 183.10256 
L 484.906195 175.815804 
L 490.71791 99.456345 
L 496.529624 139.724187 
L 502.341339 163.345125 
L 508.153053 104.579662 
L 513.964768 113.874374 
L 519.776482 188.769153 
L 525.588197 190.545756 
L 531.399911 195.480309 
L 537.211626 196.74609 
L 543.02334 203.544544 
L 548.835055 204.989371 
L 554.646769 207.206294 
L 560.458483 212.6167 
L 566.270198 207.171583 
L 572.081912 213.602386 
L 577.893627 209.084748 
L 583.705341 203.07143 
L 589.517056 190.526967 
L 595.32877 185.951542 
L 601.140485 182.401037 
L 606.952199 165.397637 
L 612.763914 179.364001 
L 618.575628 193.666997 
L 624.387343 204.500068 
L 630.199057 213.338948 
L 636.010771 211.54276 
L 641.822486 218.93833 
L 647.6342 223.754607 
L 653.445915 223.35483 
L 659.257629 221.786694 
L 665.069344 221.60516 
L 670.881058 221.879803 
L 676.692773 228.129449 
L 682.504487 231.160422 
L 688.316202 231.040107 
L 694.127916 233.088337 
L 699.93963 233.076792 
L 705.751345 238.070718 
L 711.563059 233.921169 
L 717.374774 239.485585 
L 723.186488 244.572183 
L 728.998203 244.386793 
L 734.809917 241.581508 
L 740.621632 235.865856 
L 746.433346 238.20434 
L 752.245061 225.645162 
L 758.056775 231.587953 
L 763.86849 230.168979 
L 769.680204 229.27485 
L 775.491918 230.766693 
L 781.303633 238.682451 
L 787.115347 242.97821 
L 792.927062 265.240146 
L 798.738776 275.068909 
L 804.550491 275.50206 
L 949.843352 275.50206 
L 949.843352 275.50206 
" style="fill:none;stroke:#7cb5ec;stroke-linecap:square;"/>
   </g>
   <g id="line2d_9">
    <path clip-path="url(#p6d5b5b332d)" d="M 83.897898 275.50206 
L 89.709612 267.194238 
L 95.521327 233.149342 
L 101.333041 232.109734 
L 107.144756 217.758627 
L 112.95647 221.993898 
L 118.768184 203.669681 
L 124.579899 211.100617 
L 130.391613 179.948543 
L 136.203328 222.771344 
L 142.015042 229.573995 
L 147.826757 235.45908 
L 153.638471 230.541283 
L 159.450186 244.747393 
L 165.2619 237.2518 
L 171.073615 236.323454 
L 176.885329 234.868804 
L 182.697044 239.040694 
L 188.508758 239.448555 
L 194.320472 244.613071 
L 200.132187 246.618261 
L 205.943901 245.672893 
L 211.755616 244.261753 
L 217.56733 243.253476 
L 223.379045 242.553138 
L 229.190759 244.948369 
L 235.002474 247.18352 
L 240.814188 248.159995 
L 246.625903 243.676775 
L 252.437617 242.699587 
L 258.249332 239.020587 
L 264.061046 232.179846 
L 269.87276 244.415224 
L 275.684475 241.45903 
L 281.496189 239.124065 
L 287.307904 238.289072 
L 293.119618 238.402612 
L 298.931333 218.957425 
L 304.743047 226.528838 
L 310.554762 193.965735 
L 316.366476 231.743318 
L 322.178191 235.103635 
L 327.989905 235.684359 
L 333.80162 232.32616 
L 339.613334 229.597839 
L 345.425048 236.051455 
L 351.236763 230.636793 
L 357.048477 230.090791 
L 362.860192 228.809556 
L 368.671906 237.639457 
L 374.483621 233.671 
L 380.295335 221.427439 
L 386.10705 227.927083 
L 391.918764 228.064485 
L 397.730479 228.505742 
L 403.542193 220.794553 
L 409.353907 214.694694 
L 415.165622 205.711867 
L 420.977336 205.658513 
L 426.789051 182.942403 
L 432.600765 169.733038 
L 438.41248 177.066151 
L 444.224194 192.366567 
L 450.035909 185.854148 
L 455.847623 185.606413 
L 461.659338 191.862669 
L 467.471052 187.191421 
L 473.282767 179.536199 
L 479.094481 182.855405 
L 484.906195 171.043293 
L 490.71791 97.411218 
L 496.529624 125.751354 
L 502.341339 156.158405 
L 508.153053 78.100549 
L 513.964768 95.04498 
L 519.776482 177.919407 
L 525.588197 178.655891 
L 531.399911 188.449367 
L 537.211626 182.370755 
L 543.02334 199.341758 
L 548.835055 203.716835 
L 554.646769 206.343356 
L 560.458483 205.682601 
L 566.270198 203.776213 
L 572.081912 206.164481 
L 577.893627 206.556371 
L 583.705341 202.322734 
L 589.517056 191.038605 
L 595.32877 180.636564 
L 601.140485 179.939374 
L 606.952199 163.764851 
L 612.763914 180.428428 
L 618.575628 191.685652 
L 624.387343 211.259844 
L 630.199057 217.460648 
L 636.010771 215.699845 
L 641.822486 222.915484 
L 647.6342 227.446615 
L 653.445915 227.853398 
L 659.257629 226.655542 
L 665.069344 230.337165 
L 670.881058 227.327596 
L 676.692773 230.370258 
L 682.504487 235.391971 
L 688.316202 239.837596 
L 694.127916 241.935198 
L 699.93963 240.755268 
L 705.751345 244.704605 
L 711.563059 242.762653 
L 717.374774 244.4351 
L 728.998203 247.041761 
L 734.809917 247.698605 
L 740.621632 243.136326 
L 746.433346 238.843032 
L 752.245061 232.724621 
L 758.056775 233.685967 
L 763.86849 231.835172 
L 769.680204 234.944315 
L 775.491918 233.512786 
L 781.303633 237.995749 
L 787.115347 244.054561 
L 792.927062 267.073065 
L 798.738776 274.847619 
L 804.550491 275.50206 
L 949.843352 275.50206 
L 949.843352 275.50206 
" style="fill:none;stroke:#434348;stroke-linecap:square;"/>
   </g>
   <g id="line2d_10">
    <path clip-path="url(#p6d5b5b332d)" d="M 83.897898 275.50206 
L 89.709612 268.756431 
L 95.521327 232.578786 
L 101.333041 229.705648 
L 107.144756 222.052998 
L 112.95647 222.79165 
L 118.768184 199.991206 
L 124.579899 209.555661 
L 130.391613 170.037789 
L 136.203328 222.710181 
L 142.015042 231.557709 
L 147.826757 238.015481 
L 153.638471 236.147126 
L 159.450186 240.936978 
L 165.2619 239.474431 
L 171.073615 236.630966 
L 176.885329 234.463932 
L 182.697044 239.976707 
L 188.508758 240.905279 
L 194.320472 235.181335 
L 200.132187 242.37892 
L 205.943901 245.906552 
L 211.755616 245.838822 
L 217.56733 244.086629 
L 223.379045 243.673591 
L 229.190759 243.464716 
L 235.002474 248.258636 
L 240.814188 244.428232 
L 246.625903 245.064833 
L 252.437617 246.014609 
L 258.249332 244.017851 
L 264.061046 235.326732 
L 269.87276 240.46071 
L 275.684475 244.322892 
L 281.496189 237.983164 
L 287.307904 237.478841 
L 293.119618 233.99194 
L 298.931333 220.261897 
L 304.743047 224.544827 
L 310.554762 185.086298 
L 316.366476 228.409275 
L 322.178191 233.312645 
L 327.989905 239.55129 
L 339.613334 229.996871 
L 345.425048 236.17646 
L 351.236763 224.406905 
L 357.048477 223.673889 
L 362.860192 225.368378 
L 368.671906 230.830208 
L 374.483621 227.829418 
L 380.295335 225.32425 
L 386.10705 222.632715 
L 391.918764 229.609621 
L 397.730479 222.418972 
L 403.542193 219.348815 
L 409.353907 212.725888 
L 415.165622 202.677052 
L 420.977336 201.737982 
L 426.789051 181.778134 
L 432.600765 173.033735 
L 438.41248 169.356574 
L 444.224194 182.504211 
L 450.035909 181.678484 
L 455.847623 176.121153 
L 461.659338 182.295612 
L 467.471052 181.591668 
L 473.282767 175.165978 
L 479.094481 173.395561 
L 484.906195 161.203074 
L 490.71791 69.372647 
L 496.529624 99.040684 
L 502.341339 130.106767 
L 508.153053 43.171393 
L 513.964768 55.889025 
L 519.776482 163.490379 
L 525.588197 172.722393 
L 531.399911 186.013597 
L 537.211626 178.865554 
L 543.02334 196.955319 
L 548.835055 196.214983 
L 554.646769 204.954059 
L 560.458483 204.239518 
L 566.270198 209.591337 
L 572.081912 212.98556 
L 577.893627 205.188426 
L 583.705341 202.657886 
L 589.517056 190.240677 
L 595.32877 182.352859 
L 601.140485 178.378523 
L 606.952199 155.764757 
L 612.763914 174.086466 
L 624.387343 206.913807 
L 630.199057 214.990764 
L 636.010771 215.389022 
L 641.822486 222.557265 
L 647.6342 221.195768 
L 653.445915 226.085283 
L 659.257629 224.055883 
L 665.069344 225.464527 
L 670.881058 228.539699 
L 676.692773 227.2949 
L 682.504487 232.75894 
L 688.316202 239.474095 
L 694.127916 237.562594 
L 699.93963 236.433823 
L 705.751345 238.600371 
L 711.563059 237.755066 
L 717.374774 242.639693 
L 723.186488 248.132588 
L 728.998203 246.299602 
L 734.809917 243.364235 
L 740.621632 237.572815 
L 746.433346 238.807888 
L 752.245061 233.696655 
L 758.056775 238.985987 
L 763.86849 231.006314 
L 769.680204 236.777209 
L 775.491918 236.567287 
L 781.303633 244.570879 
L 787.115347 248.323972 
L 792.927062 267.509952 
L 798.738776 274.7866 
L 804.550491 275.50206 
L 949.843352 275.50206 
L 949.843352 275.50206 
" style="fill:none;stroke:#90ed7d;stroke-linecap:square;"/>
   </g>
   <g id="line2d_11">
    <path clip-path="url(#p6d5b5b332d)" d="M 83.897898 275.50206 
L 89.709612 268.501427 
L 95.521327 241.644853 
L 101.333041 231.713209 
L 107.144756 229.7188 
L 112.95647 228.705067 
L 118.768184 209.613099 
L 124.579899 217.612774 
L 130.391613 182.220275 
L 136.203328 228.815256 
L 142.015042 232.480855 
L 147.826757 235.217199 
L 153.638471 237.516463 
L 159.450186 241.828073 
L 165.2619 238.650046 
L 171.073615 236.954832 
L 176.885329 235.639342 
L 182.697044 241.125483 
L 188.508758 243.823186 
L 194.320472 242.52738 
L 200.132187 245.759942 
L 205.943901 246.952945 
L 211.755616 247.213305 
L 217.56733 246.000019 
L 223.379045 244.071316 
L 229.190759 247.718307 
L 235.002474 247.615597 
L 240.814188 248.896271 
L 246.625903 248.313259 
L 252.437617 245.642946 
L 258.249332 244.859434 
L 264.061046 243.607489 
L 269.87276 244.568922 
L 275.684475 246.754395 
L 281.496189 240.857127 
L 287.307904 237.121826 
L 293.119618 236.403604 
L 298.931333 223.669023 
L 304.743047 225.063999 
L 310.554762 192.218619 
L 316.366476 229.643248 
L 322.178191 227.271397 
L 327.989905 238.431162 
L 333.80162 237.747727 
L 339.613334 231.062464 
L 345.425048 237.628677 
L 351.236763 224.039447 
L 357.048477 231.144102 
L 362.860192 227.536922 
L 368.671906 234.901661 
L 374.483621 233.447035 
L 380.295335 232.544296 
L 386.10705 230.594289 
L 391.918764 235.661257 
L 397.730479 228.483023 
L 403.542193 226.71998 
L 409.353907 222.86545 
L 415.165622 214.909491 
L 420.977336 215.716086 
L 426.789051 202.555098 
L 432.600765 187.671028 
L 438.41248 190.184001 
L 444.224194 195.109192 
L 450.035909 198.013788 
L 455.847623 196.478295 
L 461.659338 197.44582 
L 467.471052 193.861894 
L 473.282767 191.131435 
L 479.094481 187.405843 
L 484.906195 177.360735 
L 490.71791 94.75148 
L 496.529624 130.759609 
L 502.341339 155.461744 
L 508.153053 88.353041 
L 513.964768 96.305854 
L 519.776482 180.518985 
L 525.588197 187.598727 
L 531.399911 197.869432 
L 537.211626 191.2608 
L 543.02334 196.479383 
L 548.835055 206.590346 
L 554.646769 206.426844 
L 560.458483 209.685399 
L 566.270198 217.144523 
L 572.081912 211.205819 
L 577.893627 214.597794 
L 583.705341 209.947695 
L 589.517056 208.958227 
L 595.32877 199.13005 
L 601.140485 196.164793 
L 606.952199 186.129656 
L 612.763914 195.843509 
L 618.575628 206.433956 
L 624.387343 222.049508 
L 630.199057 227.733192 
L 636.010771 225.629122 
L 641.822486 234.428974 
L 647.6342 232.858215 
L 653.445915 235.3161 
L 659.257629 234.814767 
L 665.069344 239.252914 
L 670.881058 235.976352 
L 676.692773 239.309164 
L 682.504487 241.21027 
L 688.316202 244.130592 
L 694.127916 243.970146 
L 699.93963 244.431967 
L 705.751345 247.572894 
L 711.563059 249.19208 
L 717.374774 250.028968 
L 723.186488 250.74945 
L 728.998203 250.539646 
L 734.809917 247.738524 
L 740.621632 243.160541 
L 746.433346 240.177575 
L 752.245061 235.381558 
L 758.056775 230.266002 
L 763.86849 226.582317 
L 769.680204 228.856996 
L 775.491918 229.516714 
L 781.303633 236.055328 
L 787.115347 236.99979 
L 792.927062 266.940235 
L 798.738776 275.097583 
L 804.550491 275.50206 
L 949.843352 275.50206 
L 949.843352 275.50206 
" style="fill:none;stroke:#f7a35c;stroke-linecap:square;"/>
   </g>
   <g id="line2d_12">
    <path clip-path="url(#p6d5b5b332d)" d="M 83.897898 275.50206 
L 89.709612 270.448765 
L 95.521327 234.566698 
L 101.333041 228.127777 
L 107.144756 224.788135 
L 112.95647 223.886063 
L 118.768184 202.536106 
L 124.579899 211.907465 
L 130.391613 169.269762 
L 136.203328 223.427958 
L 142.015042 228.93653 
L 147.826757 236.076748 
L 153.638471 235.717616 
L 159.450186 240.527311 
L 165.2619 243.543355 
L 171.073615 234.760609 
L 176.885329 230.098047 
L 182.697044 236.034124 
L 188.508758 237.650669 
L 194.320472 241.917901 
L 200.132187 243.296522 
L 205.943901 244.385002 
L 211.755616 247.025824 
L 217.56733 246.658208 
L 223.379045 244.211844 
L 229.190759 246.461486 
L 235.002474 246.243067 
L 240.814188 247.035609 
L 246.625903 245.249873 
L 252.437617 244.622773 
L 258.249332 241.996899 
L 264.061046 231.973072 
L 269.87276 245.30211 
L 275.684475 242.911582 
L 281.496189 239.198288 
L 287.307904 233.456378 
L 293.119618 235.443878 
L 298.931333 218.853756 
L 304.743047 223.440015 
L 310.554762 177.125078 
L 316.366476 223.902638 
L 322.178191 231.34708 
L 327.989905 234.679291 
L 333.80162 235.281387 
L 339.613334 226.721499 
L 345.425048 234.150695 
L 351.236763 224.909727 
L 357.048477 226.386423 
L 362.860192 227.477953 
L 368.671906 231.76682 
L 374.483621 230.990139 
L 380.295335 223.925812 
L 386.10705 231.4148 
L 391.918764 230.806683 
L 397.730479 229.387924 
L 403.542193 222.245252 
L 409.353907 219.296673 
L 415.165622 211.69491 
L 420.977336 210.830371 
L 426.789051 194.648412 
L 432.600765 185.983622 
L 438.41248 180.078995 
L 444.224194 195.661499 
L 450.035909 193.743674 
L 455.847623 194.269785 
L 461.659338 199.018255 
L 467.471052 193.337213 
L 473.282767 187.125975 
L 479.094481 185.989638 
L 484.906195 170.752008 
L 490.71791 86.586953 
L 496.529624 130.613336 
L 502.341339 160.88323 
L 508.153053 74.996708 
L 513.964768 90.330823 
L 519.776482 175.595909 
L 525.588197 188.795821 
L 531.399911 193.560256 
L 537.211626 180.344045 
L 543.02334 199.033721 
L 548.835055 205.897966 
L 554.646769 206.402702 
L 560.458483 209.312755 
L 566.270198 213.336105 
L 572.081912 209.53406 
L 577.893627 211.862346 
L 583.705341 208.698106 
L 589.517056 199.13127 
L 595.32877 195.580376 
L 601.140485 192.537777 
L 606.952199 172.085834 
L 612.763914 188.554897 
L 618.575628 198.740726 
L 624.387343 212.402808 
L 630.199057 215.610944 
L 636.010771 211.137715 
L 641.822486 218.145988 
L 647.6342 220.146416 
L 653.445915 218.98049 
L 659.257629 221.29586 
L 665.069344 217.31656 
L 670.881058 215.86277 
L 676.692773 217.157004 
L 682.504487 226.35374 
L 688.316202 231.911671 
L 694.127916 233.150489 
L 699.93963 230.534189 
L 705.751345 231.027333 
L 711.563059 233.529132 
L 717.374774 236.943371 
L 723.186488 237.097546 
L 734.809917 236.232835 
L 740.621632 235.080887 
L 746.433346 236.850382 
L 752.245061 232.196309 
L 758.056775 232.116126 
L 763.86849 228.751339 
L 769.680204 235.013206 
L 775.491918 238.272054 
L 781.303633 241.835049 
L 787.115347 246.829617 
L 792.927062 267.684774 
L 798.738776 274.947287 
L 804.550491 275.50206 
L 949.843352 275.50206 
L 949.843352 275.50206 
" style="fill:none;stroke:#8085e9;stroke-linecap:square;"/>
   </g>
   <g id="line2d_13">
    <path clip-path="url(#p6d5b5b332d)" d="M 83.897898 275.50206 
L 89.709612 271.581532 
L 95.521327 235.339936 
L 101.333041 235.14518 
L 107.144756 235.924205 
L 118.768184 214.289327 
L 124.579899 233.18915 
L 130.391613 207.989386 
L 136.203328 234.857279 
L 142.015042 239.065708 
L 147.826757 242.198743 
L 153.638471 244.036226 
L 165.2619 244.763386 
L 171.073615 245.998789 
L 176.885329 241.542217 
L 182.697044 242.537569 
L 188.508758 242.895541 
L 194.320472 246.971204 
L 205.943901 247.164125 
L 211.755616 250.956321 
L 217.56733 248.790353 
L 223.379045 252.46247 
L 229.190759 252.389891 
L 235.002474 255.016037 
L 240.814188 253.93785 
L 246.625903 250.8673 
L 252.437617 250.462947 
L 258.249332 247.56135 
L 264.061046 247.121633 
L 269.87276 251.840682 
L 275.684475 248.726151 
L 281.496189 253.584322 
L 287.307904 244.80149 
L 293.119618 245.350178 
L 298.931333 242.919808 
L 304.743047 245.424136 
L 310.554762 220.504856 
L 316.366476 240.61838 
L 322.178191 245.16637 
L 327.989905 248.463664 
L 333.80162 243.191376 
L 339.613334 236.33376 
L 345.425048 240.713748 
L 351.236763 234.085097 
L 357.048477 238.019622 
L 362.860192 241.243379 
L 368.671906 245.305286 
L 374.483621 242.786916 
L 380.295335 237.397958 
L 386.10705 240.787644 
L 391.918764 241.455997 
L 397.730479 240.68636 
L 403.542193 239.323695 
L 409.353907 235.278406 
L 415.165622 225.049111 
L 420.977336 226.350635 
L 426.789051 207.883856 
L 432.600765 188.398937 
L 438.41248 204.089919 
L 444.224194 215.969672 
L 450.035909 209.519659 
L 455.847623 193.877188 
L 461.659338 204.133056 
L 467.471052 208.804443 
L 473.282767 208.413457 
L 479.094481 205.545409 
L 484.906195 198.519197 
L 490.71791 154.086705 
L 496.529624 182.601553 
L 502.341339 188.32355 
L 508.153053 160.160087 
L 513.964768 165.210395 
L 519.776482 204.770053 
L 525.588197 206.679923 
L 531.399911 204.644123 
L 537.211626 179.663396 
L 543.02334 212.525677 
L 548.835055 219.732678 
L 554.646769 226.057351 
L 560.458483 224.657205 
L 566.270198 227.782441 
L 572.081912 219.981006 
L 577.893627 219.494916 
L 583.705341 214.261184 
L 589.517056 198.392728 
L 595.32877 197.881847 
L 601.140485 189.889008 
L 606.952199 148.951033 
L 612.763914 186.952273 
L 618.575628 199.124917 
L 624.387343 215.763673 
L 630.199057 216.771421 
L 636.010771 213.511009 
L 641.822486 219.695251 
L 647.6342 221.850353 
L 653.445915 220.216657 
L 659.257629 209.375291 
L 665.069344 217.904373 
L 670.881058 219.92453 
L 676.692773 217.831012 
L 682.504487 216.271438 
L 688.316202 233.784677 
L 694.127916 232.177618 
L 699.93963 235.818808 
L 705.751345 229.22842 
L 711.563059 231.12646 
L 717.374774 230.552772 
L 723.186488 227.24469 
L 734.809917 239.123116 
L 740.621632 231.762349 
L 746.433346 231.484756 
L 752.245061 228.654543 
L 758.056775 229.097225 
L 763.86849 222.196745 
L 769.680204 227.795088 
L 775.491918 235.691526 
L 781.303633 231.517799 
L 787.115347 238.348763 
L 792.927062 266.671977 
L 798.738776 275.485226 
L 839.420778 275.50206 
L 949.843352 275.50206 
L 949.843352 275.50206 
" style="fill:none;stroke:#f15c80;stroke-linecap:square;"/>
   </g>
   <g id="line2d_14">
    <path clip-path="url(#p6d5b5b332d)" d="M 83.897898 275.50206 
L 89.709612 272.30745 
L 95.521327 235.464503 
L 101.333041 241.946996 
L 107.144756 237.819653 
L 112.95647 231.819072 
L 118.768184 210.995811 
L 124.579899 235.052546 
L 130.391613 222.126423 
L 136.203328 243.773598 
L 142.015042 241.799313 
L 147.826757 247.11589 
L 153.638471 245.452517 
L 159.450186 246.144001 
L 165.2619 243.733579 
L 171.073615 245.154931 
L 176.885329 242.579275 
L 182.697044 246.896998 
L 188.508758 247.361819 
L 194.320472 246.641459 
L 200.132187 250.96679 
L 205.943901 249.117694 
L 211.755616 247.593405 
L 217.56733 253.979341 
L 223.379045 254.878297 
L 229.190759 253.950238 
L 235.002474 252.175556 
L 240.814188 252.737507 
L 246.625903 254.923812 
L 252.437617 251.068791 
L 258.249332 254.04885 
L 264.061046 251.566081 
L 269.87276 250.46317 
L 275.684475 254.918973 
L 281.496189 245.321531 
L 287.307904 242.278426 
L 293.119618 244.570405 
L 298.931333 237.678861 
L 304.743047 244.090976 
L 310.554762 229.035856 
L 316.366476 244.711753 
L 322.178191 244.376113 
L 327.989905 249.278295 
L 333.80162 246.186379 
L 339.613334 239.033084 
L 345.425048 246.53933 
L 351.236763 237.073984 
L 357.048477 243.358807 
L 362.860192 238.041524 
L 368.671906 242.557701 
L 374.483621 247.928026 
L 380.295335 247.323013 
L 386.10705 245.997359 
L 391.918764 244.07685 
L 397.730479 238.52464 
L 403.542193 234.141204 
L 409.353907 236.776632 
L 415.165622 227.149028 
L 420.977336 225.970164 
L 426.789051 202.987331 
L 432.600765 196.615039 
L 438.41248 194.054077 
L 444.224194 202.054755 
L 450.035909 209.104488 
L 455.847623 206.88075 
L 461.659338 210.706744 
L 467.471052 209.549742 
L 473.282767 210.790613 
L 479.094481 209.370087 
L 484.906195 204.12917 
L 490.71791 175.815634 
L 496.529624 186.20531 
L 502.341339 198.022348 
L 508.153053 175.537693 
L 513.964768 183.886176 
L 519.776482 211.620373 
L 525.588197 208.431243 
L 531.399911 211.706122 
L 537.211626 193.652443 
L 543.02334 209.684566 
L 548.835055 221.235965 
L 554.646769 222.554719 
L 560.458483 224.505902 
L 566.270198 232.700065 
L 572.081912 228.095051 
L 577.893627 222.257253 
L 583.705341 214.25885 
L 589.517056 209.015182 
L 595.32877 191.030227 
L 601.140485 189.122577 
L 606.952199 164.218497 
L 612.763914 186.441914 
L 618.575628 196.826877 
L 624.387343 219.276621 
L 630.199057 219.84192 
L 636.010771 225.734685 
L 641.822486 228.574877 
L 647.6342 226.023118 
L 653.445915 228.842209 
L 659.257629 225.350276 
L 665.069344 229.546473 
L 670.881058 237.43158 
L 676.692773 234.504259 
L 682.504487 235.948981 
L 688.316202 241.632033 
L 694.127916 246.518824 
L 699.93963 244.404042 
L 705.751345 245.808961 
L 711.563059 248.076365 
L 717.374774 248.224998 
L 723.186488 250.757911 
L 728.998203 250.757963 
L 734.809917 252.677917 
L 740.621632 239.869461 
L 746.433346 232.713876 
L 752.245061 230.368068 
L 758.056775 224.81403 
L 763.86849 229.583465 
L 769.680204 226.660093 
L 775.491918 230.49531 
L 781.303633 232.941964 
L 787.115347 227.374606 
L 792.927062 265.891477 
L 798.738776 275.069473 
L 804.550491 275.50206 
L 949.843352 275.50206 
L 949.843352 275.50206 
" style="fill:none;stroke:#e4d354;stroke-linecap:square;"/>
   </g>
   <g id="line2d_15">
    <path clip-path="url(#p6d5b5b332d)" d="M 83.897898 275.50206 
L 89.709612 272.231255 
L 95.521327 237.038933 
L 101.333041 234.449146 
L 107.144756 236.875872 
L 118.768184 222.382659 
L 124.579899 228.300801 
L 130.391613 220.636951 
L 136.203328 242.851565 
L 142.015042 241.364836 
L 147.826757 240.568716 
L 153.638471 249.527459 
L 159.450186 244.692812 
L 165.2619 243.943817 
L 171.073615 246.887757 
L 182.697044 245.521512 
L 188.508758 246.217398 
L 194.320472 242.851719 
L 200.132187 243.915451 
L 205.943901 243.018213 
L 211.755616 252.372075 
L 217.56733 252.045045 
L 223.379045 253.516382 
L 235.002474 249.524541 
L 240.814188 251.448902 
L 246.625903 252.646353 
L 252.437617 252.69853 
L 258.249332 253.531035 
L 264.061046 248.742933 
L 269.87276 256.621409 
L 275.684475 256.571858 
L 281.496189 246.82084 
L 287.307904 247.055629 
L 293.119618 251.310331 
L 298.931333 245.283364 
L 304.743047 246.3675 
L 310.554762 226.107937 
L 316.366476 244.527802 
L 322.178191 244.172713 
L 327.989905 249.477097 
L 333.80162 242.002772 
L 339.613334 240.071553 
L 345.425048 243.921056 
L 351.236763 229.740054 
L 357.048477 242.969247 
L 362.860192 238.472584 
L 368.671906 240.26943 
L 374.483621 247.130686 
L 380.295335 242.266864 
L 386.10705 240.545305 
L 391.918764 242.080596 
L 397.730479 239.209125 
L 403.542193 235.742238 
L 409.353907 236.643255 
L 415.165622 224.850621 
L 420.977336 222.335646 
L 426.789051 200.162078 
L 432.600765 185.274069 
L 438.41248 189.030664 
L 444.224194 212.62589 
L 450.035909 195.391927 
L 455.847623 188.22554 
L 461.659338 198.21454 
L 467.471052 206.251055 
L 473.282767 213.933009 
L 484.906195 193.944599 
L 490.71791 167.28414 
L 496.529624 190.081101 
L 502.341339 196.700486 
L 508.153053 174.654917 
L 513.964768 178.908279 
L 519.776482 207.593314 
L 525.588197 211.469731 
L 531.399911 211.395523 
L 537.211626 186.066452 
L 543.02334 209.198989 
L 548.835055 219.378398 
L 554.646769 218.819339 
L 560.458483 221.292338 
L 566.270198 225.032904 
L 572.081912 213.802737 
L 577.893627 217.093839 
L 583.705341 207.470895 
L 589.517056 184.966485 
L 595.32877 178.232004 
L 601.140485 173.506755 
L 606.952199 122.165182 
L 612.763914 170.097927 
L 618.575628 186.064629 
L 624.387343 197.409576 
L 630.199057 203.602862 
L 636.010771 211.105309 
L 641.822486 209.977422 
L 647.6342 216.888708 
L 653.445915 222.06673 
L 659.257629 213.931194 
L 665.069344 217.342944 
L 670.881058 222.648009 
L 676.692773 229.803457 
L 682.504487 228.75768 
L 688.316202 233.247739 
L 694.127916 235.379186 
L 699.93963 234.564354 
L 705.751345 236.161062 
L 711.563059 236.044749 
L 717.374774 234.62245 
L 723.186488 238.926492 
L 728.998203 241.940131 
L 734.809917 239.95544 
L 740.621632 234.555582 
L 746.433346 232.738598 
L 752.245061 222.509923 
L 758.056775 221.697052 
L 763.86849 227.630595 
L 769.680204 228.506511 
L 775.491918 231.103144 
L 781.303633 235.715844 
L 787.115347 231.930715 
L 792.927062 266.379835 
L 798.738776 275.119266 
L 804.550491 275.50206 
L 949.843352 275.50206 
L 949.843352 275.50206 
" style="fill:none;stroke:#2b908f;stroke-linecap:square;"/>
   </g>
   <g id="line2d_16">
    <path clip-path="url(#p6d5b5b332d)" d="M 83.897898 275.50206 
L 89.709612 270.977863 
L 95.521327 231.987253 
L 101.333041 230.092265 
L 107.144756 228.658786 
L 112.95647 226.30928 
L 118.768184 215.498756 
L 124.579899 223.253524 
L 130.391613 208.841823 
L 136.203328 237.616277 
L 142.015042 237.965906 
L 147.826757 240.560152 
L 153.638471 242.189423 
L 159.450186 237.790548 
L 165.2619 243.73352 
L 171.073615 245.137488 
L 176.885329 240.477014 
L 182.697044 245.136628 
L 194.320472 244.83152 
L 200.132187 244.715929 
L 205.943901 247.380334 
L 211.755616 247.364274 
L 217.56733 251.840633 
L 223.379045 250.08629 
L 229.190759 252.905752 
L 235.002474 250.489806 
L 240.814188 252.251701 
L 246.625903 252.953851 
L 252.437617 251.458701 
L 258.249332 246.693954 
L 264.061046 251.16434 
L 269.87276 251.783303 
L 275.684475 255.1095 
L 281.496189 251.031961 
L 287.307904 242.26444 
L 293.119618 246.496277 
L 298.931333 239.802411 
L 304.743047 235.663713 
L 310.554762 218.5789 
L 316.366476 243.403145 
L 322.178191 245.762621 
L 327.989905 245.606629 
L 333.80162 244.817831 
L 339.613334 236.41984 
L 345.425048 244.569037 
L 351.236763 232.930774 
L 357.048477 238.71358 
L 362.860192 238.292362 
L 368.671906 239.06832 
L 374.483621 236.811757 
L 380.295335 237.522348 
L 386.10705 238.858332 
L 391.918764 240.730647 
L 397.730479 233.57739 
L 403.542193 225.945866 
L 409.353907 227.431143 
L 415.165622 223.21746 
L 420.977336 211.937683 
L 426.789051 195.078037 
L 432.600765 183.260886 
L 438.41248 193.76301 
L 444.224194 197.765118 
L 450.035909 198.598711 
L 455.847623 190.92306 
L 461.659338 195.480552 
L 467.471052 199.73303 
L 473.282767 194.290127 
L 479.094481 197.188062 
L 484.906195 192.897284 
L 490.71791 151.808209 
L 496.529624 172.712838 
L 502.341339 190.175065 
L 508.153053 143.782196 
L 513.964768 156.294395 
L 519.776482 193.842802 
L 525.588197 198.566281 
L 531.399911 202.650791 
L 537.211626 171.743534 
L 543.02334 205.871497 
L 548.835055 212.259274 
L 554.646769 214.340381 
L 560.458483 201.414125 
L 566.270198 219.879617 
L 572.081912 218.698094 
L 577.893627 207.638658 
L 583.705341 201.912979 
L 589.517056 198.43427 
L 595.32877 186.404547 
L 601.140485 182.547326 
L 606.952199 148.503905 
L 612.763914 180.806261 
L 618.575628 190.071014 
L 624.387343 205.78147 
L 630.199057 214.899998 
L 636.010771 217.734756 
L 641.822486 217.364673 
L 647.6342 219.589441 
L 653.445915 220.467867 
L 659.257629 220.341984 
L 665.069344 221.561998 
L 670.881058 222.159901 
L 676.692773 223.99151 
L 682.504487 225.441418 
L 688.316202 229.11665 
L 694.127916 238.506512 
L 699.93963 235.852099 
L 705.751345 238.685519 
L 711.563059 235.803514 
L 717.374774 237.734631 
L 723.186488 238.739102 
L 728.998203 245.120313 
L 734.809917 240.523287 
L 740.621632 239.821375 
L 746.433346 236.468635 
L 752.245061 225.810224 
L 758.056775 219.772962 
L 763.86849 220.609879 
L 769.680204 233.108638 
L 775.491918 231.635021 
L 781.303633 234.684018 
L 787.115347 236.01415 
L 792.927062 267.781292 
L 798.738776 275.257246 
L 804.550491 275.50206 
L 949.843352 275.50206 
L 949.843352 275.50206 
" style="fill:none;stroke:#f45b5b;stroke-linecap:square;"/>
   </g>
   <g id="line2d_17">
    <path clip-path="url(#p6d5b5b332d)" d="M 83.897898 275.50206 
L 89.709612 269.027342 
L 95.521327 233.785639 
L 101.333041 237.065934 
L 107.144756 241.033202 
L 112.95647 240.31188 
L 118.768184 220.183578 
L 124.579899 232.497565 
L 130.391613 210.428565 
L 136.203328 237.04876 
L 142.015042 250.084068 
L 147.826757 240.226009 
L 153.638471 237.92465 
L 159.450186 244.021383 
L 165.2619 241.101043 
L 171.073615 240.343908 
L 176.885329 244.428337 
L 182.697044 247.412618 
L 188.508758 247.729526 
L 194.320472 242.214562 
L 200.132187 250.347563 
L 205.943901 249.139844 
L 211.755616 253.912344 
L 217.56733 254.000127 
L 223.379045 247.275063 
L 229.190759 253.575008 
L 235.002474 257.982348 
L 240.814188 254.045747 
L 246.625903 261.226729 
L 252.437617 257.076258 
L 258.249332 250.923729 
L 264.061046 252.406917 
L 269.87276 249.59336 
L 275.684475 247.230898 
L 281.496189 252.751558 
L 287.307904 253.280907 
L 293.119618 248.868158 
L 298.931333 239.64519 
L 304.743047 238.718675 
L 310.554762 213.075531 
L 316.366476 242.842003 
L 327.989905 247.910059 
L 333.80162 243.90338 
L 339.613334 236.566663 
L 345.425048 249.360555 
L 351.236763 236.290128 
L 357.048477 242.318073 
L 362.860192 242.638027 
L 368.671906 242.170232 
L 374.483621 243.032515 
L 380.295335 242.457281 
L 386.10705 241.174636 
L 391.918764 245.281373 
L 397.730479 239.703286 
L 403.542193 235.401032 
L 409.353907 235.631932 
L 415.165622 224.75607 
L 420.977336 208.957398 
L 426.789051 185.506626 
L 432.600765 180.760365 
L 438.41248 188.737616 
L 444.224194 204.560575 
L 450.035909 200.193736 
L 455.847623 193.5926 
L 461.659338 200.978519 
L 467.471052 212.672895 
L 473.282767 202.808809 
L 479.094481 206.849298 
L 484.906195 197.634161 
L 490.71791 169.842232 
L 496.529624 183.686901 
L 502.341339 196.655933 
L 508.153053 171.540858 
L 513.964768 171.07185 
L 519.776482 206.433424 
L 525.588197 192.130054 
L 531.399911 203.521899 
L 537.211626 194.109252 
L 543.02334 210.771348 
L 548.835055 217.921503 
L 554.646769 217.581409 
L 560.458483 237.116732 
L 566.270198 226.006423 
L 572.081912 220.566926 
L 577.893627 213.014883 
L 583.705341 213.87952 
L 589.517056 198.005264 
L 595.32877 194.909166 
L 601.140485 190.793631 
L 606.952199 157.618721 
L 612.763914 181.149868 
L 618.575628 187.68768 
L 624.387343 201.903527 
L 630.199057 214.054601 
L 636.010771 210.123043 
L 641.822486 213.870289 
L 647.6342 208.305626 
L 653.445915 211.259994 
L 659.257629 208.169126 
L 665.069344 208.636927 
L 670.881058 219.786488 
L 676.692773 212.546562 
L 682.504487 213.575068 
L 688.316202 232.933548 
L 694.127916 231.149284 
L 699.93963 235.743077 
L 705.751345 228.734223 
L 711.563059 234.994031 
L 717.374774 232.843679 
L 723.186488 236.738798 
L 728.998203 242.394173 
L 734.809917 242.416529 
L 740.621632 238.951448 
L 746.433346 234.047395 
L 752.245061 233.207005 
L 758.056775 229.467772 
L 763.86849 220.590387 
L 769.680204 232.1286 
L 775.491918 227.016975 
L 781.303633 231.920552 
L 787.115347 232.210933 
L 792.927062 267.190275 
L 798.738776 275.50206 
L 949.843352 275.50206 
L 949.843352 275.50206 
" style="fill:none;stroke:#91e8e1;stroke-linecap:square;"/>
   </g>
   <g id="line2d_18">
    <path clip-path="url(#p6d5b5b332d)" d="M 83.897898 275.50206 
L 89.709612 270.447535 
L 95.521327 236.129967 
L 101.333041 236.605017 
L 107.144756 234.932843 
L 112.95647 233.403184 
L 118.768184 209.099657 
L 124.579899 225.925906 
L 130.391613 219.085195 
L 136.203328 238.353198 
L 142.015042 236.519508 
L 147.826757 237.384098 
L 153.638471 242.343613 
L 159.450186 241.051151 
L 165.2619 237.848331 
L 171.073615 243.956795 
L 176.885329 237.853449 
L 182.697044 245.147344 
L 188.508758 244.664947 
L 194.320472 246.421665 
L 200.132187 245.483655 
L 205.943901 250.475574 
L 211.755616 246.90584 
L 217.56733 247.818875 
L 223.379045 249.240217 
L 229.190759 249.126722 
L 235.002474 253.294751 
L 240.814188 251.229944 
L 246.625903 250.0877 
L 252.437617 253.526829 
L 258.249332 252.189113 
L 264.061046 245.77745 
L 269.87276 246.562914 
L 275.684475 250.945341 
L 281.496189 245.62395 
L 287.307904 245.100163 
L 293.119618 246.940322 
L 298.931333 240.297403 
L 304.743047 239.549642 
L 310.554762 225.281864 
L 316.366476 246.213539 
L 322.178191 246.1258 
L 327.989905 248.51104 
L 333.80162 243.551063 
L 339.613334 233.682994 
L 345.425048 244.927597 
L 351.236763 233.836011 
L 357.048477 240.345131 
L 362.860192 238.089127 
L 368.671906 243.357292 
L 374.483621 243.273533 
L 380.295335 243.364385 
L 386.10705 240.165046 
L 391.918764 238.177075 
L 397.730479 232.396866 
L 403.542193 227.370108 
L 409.353907 226.552856 
L 415.165622 228.40151 
L 420.977336 218.76975 
L 426.789051 199.186893 
L 432.600765 182.573841 
L 438.41248 191.37155 
L 444.224194 206.274983 
L 450.035909 202.092014 
L 455.847623 191.651591 
L 461.659338 204.495292 
L 467.471052 200.797664 
L 473.282767 209.70311 
L 479.094481 203.422578 
L 484.906195 197.937183 
L 490.71791 162.592857 
L 496.529624 178.749968 
L 502.341339 196.584218 
L 508.153053 169.098486 
L 513.964768 176.387049 
L 519.776482 200.0079 
L 525.588197 202.787592 
L 531.399911 197.409728 
L 537.211626 180.445819 
L 543.02334 210.093595 
L 548.835055 218.444196 
L 554.646769 220.683765 
L 560.458483 214.722072 
L 566.270198 216.249523 
L 572.081912 212.626938 
L 577.893627 212.79825 
L 583.705341 199.533799 
L 589.517056 193.088945 
L 595.32877 183.573883 
L 601.140485 175.954873 
L 606.952199 147.547268 
L 612.763914 169.260215 
L 618.575628 181.732442 
L 624.387343 197.335457 
L 630.199057 206.463302 
L 636.010771 213.356135 
L 641.822486 214.63167 
L 647.6342 214.377132 
L 653.445915 217.075672 
L 659.257629 214.002576 
L 665.069344 214.422645 
L 670.881058 217.74658 
L 676.692773 221.502892 
L 682.504487 224.360139 
L 688.316202 231.755214 
L 694.127916 236.678839 
L 699.93963 236.790881 
L 705.751345 229.171338 
L 711.563059 232.86061 
L 717.374774 229.035457 
L 723.186488 238.29521 
L 728.998203 239.948996 
L 734.809917 247.093764 
L 740.621632 239.402494 
L 746.433346 229.855619 
L 752.245061 225.078068 
L 758.056775 218.074644 
L 763.86849 216.871134 
L 769.680204 235.418834 
L 775.491918 233.534679 
L 781.303633 241.355406 
L 787.115347 239.360864 
L 792.927062 268.562139 
L 798.738776 275.145141 
L 804.550491 275.50206 
L 949.843352 275.50206 
L 949.843352 275.50206 
" style="fill:none;stroke:#7cb5ec;stroke-linecap:square;"/>
   </g>
   <g id="line2d_19">
    <path clip-path="url(#p6d5b5b332d)" d="M 40.600625 275.50206 
L 993.140625 275.50206 
" style="fill:none;stroke:#dedede;stroke-linecap:square;stroke-width:2;"/>
   </g>
   <g id="text_18">
    <!-- Slamdunk: Non-T&gt;C mismatches over reads -->
    <g transform="translate(340.281875 19.3575)scale(0.16 -0.16)">
     <defs>
      <path d="M 53.515625 70.515625 
L 53.515625 60.890625 
Q 47.90625 63.578125 42.921875 64.890625 
Q 37.9375 66.21875 33.296875 66.21875 
Q 25.25 66.21875 20.875 63.09375 
Q 16.5 59.96875 16.5 54.203125 
Q 16.5 49.359375 19.40625 46.890625 
Q 22.3125 44.4375 30.421875 42.921875 
L 36.375 41.703125 
Q 47.40625 39.59375 52.65625 34.296875 
Q 57.90625 29 57.90625 20.125 
Q 57.90625 9.515625 50.796875 4.046875 
Q 43.703125 -1.421875 29.984375 -1.421875 
Q 24.8125 -1.421875 18.96875 -0.25 
Q 13.140625 0.921875 6.890625 3.21875 
L 6.890625 13.375 
Q 12.890625 10.015625 18.65625 8.296875 
Q 24.421875 6.59375 29.984375 6.59375 
Q 38.421875 6.59375 43.015625 9.90625 
Q 47.609375 13.234375 47.609375 19.390625 
Q 47.609375 24.75 44.3125 27.78125 
Q 41.015625 30.8125 33.5 32.328125 
L 27.484375 33.5 
Q 16.453125 35.6875 11.515625 40.375 
Q 6.59375 45.0625 6.59375 53.421875 
Q 6.59375 63.09375 13.40625 68.65625 
Q 20.21875 74.21875 32.171875 74.21875 
Q 37.3125 74.21875 42.625 73.28125 
Q 47.953125 72.359375 53.515625 70.515625 
z
" id="DejaVuSans-83"/>
      <path d="M 9.421875 75.984375 
L 18.40625 75.984375 
L 18.40625 0 
L 9.421875 0 
z
" id="DejaVuSans-108"/>
      <path d="M 8.5 21.578125 
L 8.5 54.6875 
L 17.484375 54.6875 
L 17.484375 21.921875 
Q 17.484375 14.15625 20.5 10.265625 
Q 23.53125 6.390625 29.59375 6.390625 
Q 36.859375 6.390625 41.078125 11.03125 
Q 45.3125 15.671875 45.3125 23.6875 
L 45.3125 54.6875 
L 54.296875 54.6875 
L 54.296875 0 
L 45.3125 0 
L 45.3125 8.40625 
Q 42.046875 3.421875 37.71875 1 
Q 33.40625 -1.421875 27.6875 -1.421875 
Q 18.265625 -1.421875 13.375 4.4375 
Q 8.5 10.296875 8.5 21.578125 
z
M 31.109375 56 
z
" id="DejaVuSans-117"/>
      <path d="M 9.078125 75.984375 
L 18.109375 75.984375 
L 18.109375 31.109375 
L 44.921875 54.6875 
L 56.390625 54.6875 
L 27.390625 29.109375 
L 57.625 0 
L 45.90625 0 
L 18.109375 26.703125 
L 18.109375 0 
L 9.078125 0 
z
" id="DejaVuSans-107"/>
      <path d="M 11.71875 12.40625 
L 22.015625 12.40625 
L 22.015625 0 
L 11.71875 0 
z
M 11.71875 51.703125 
L 22.015625 51.703125 
L 22.015625 39.3125 
L 11.71875 39.3125 
z
" id="DejaVuSans-58"/>
      <path d="M 9.8125 72.90625 
L 23.09375 72.90625 
L 55.421875 11.921875 
L 55.421875 72.90625 
L 64.984375 72.90625 
L 64.984375 0 
L 51.703125 0 
L 19.390625 60.984375 
L 19.390625 0 
L 9.8125 0 
z
" id="DejaVuSans-78"/>
      <path d="M 4.890625 31.390625 
L 31.203125 31.390625 
L 31.203125 23.390625 
L 4.890625 23.390625 
z
" id="DejaVuSans-45"/>
      <path d="M -0.296875 72.90625 
L 61.375 72.90625 
L 61.375 64.59375 
L 35.5 64.59375 
L 35.5 0 
L 25.59375 0 
L 25.59375 64.59375 
L -0.296875 64.59375 
z
" id="DejaVuSans-84"/>
      <path d="M 10.59375 49.21875 
L 10.59375 58.109375 
L 73.1875 35.40625 
L 73.1875 27.296875 
L 10.59375 4.59375 
L 10.59375 13.484375 
L 60.890625 31.296875 
z
" id="DejaVuSans-62"/>
      <path d="M 64.40625 67.28125 
L 64.40625 56.890625 
Q 59.421875 61.53125 53.78125 63.8125 
Q 48.140625 66.109375 41.796875 66.109375 
Q 29.296875 66.109375 22.65625 58.46875 
Q 16.015625 50.828125 16.015625 36.375 
Q 16.015625 21.96875 22.65625 14.328125 
Q 29.296875 6.6875 41.796875 6.6875 
Q 48.140625 6.6875 53.78125 8.984375 
Q 59.421875 11.28125 64.40625 15.921875 
L 64.40625 5.609375 
Q 59.234375 2.09375 53.4375 0.328125 
Q 47.65625 -1.421875 41.21875 -1.421875 
Q 24.65625 -1.421875 15.125 8.703125 
Q 5.609375 18.84375 5.609375 36.375 
Q 5.609375 53.953125 15.125 64.078125 
Q 24.65625 74.21875 41.21875 74.21875 
Q 47.75 74.21875 53.53125 72.484375 
Q 59.328125 70.75 64.40625 67.28125 
z
" id="DejaVuSans-67"/>
      <path d="M 2.984375 54.6875 
L 12.5 54.6875 
L 29.59375 8.796875 
L 46.6875 54.6875 
L 56.203125 54.6875 
L 35.6875 0 
L 23.484375 0 
z
" id="DejaVuSans-118"/>
     </defs>
     <use xlink:href="#DejaVuSans-83"/>
     <use x="63.476562" xlink:href="#DejaVuSans-108"/>
     <use x="91.259766" xlink:href="#DejaVuSans-97"/>
     <use x="152.539062" xlink:href="#DejaVuSans-109"/>
     <use x="249.951172" xlink:href="#DejaVuSans-100"/>
     <use x="313.427734" xlink:href="#DejaVuSans-117"/>
     <use x="376.806641" xlink:href="#DejaVuSans-110"/>
     <use x="440.185547" xlink:href="#DejaVuSans-107"/>
     <use x="498.095703" xlink:href="#DejaVuSans-58"/>
     <use x="531.787109" xlink:href="#DejaVuSans-32"/>
     <use x="563.574219" xlink:href="#DejaVuSans-78"/>
     <use x="638.378906" xlink:href="#DejaVuSans-111"/>
     <use x="699.560547" xlink:href="#DejaVuSans-110"/>
     <use x="762.939453" xlink:href="#DejaVuSans-45"/>
     <use x="789.898438" xlink:href="#DejaVuSans-84"/>
     <use x="850.982422" xlink:href="#DejaVuSans-62"/>
     <use x="934.771484" xlink:href="#DejaVuSans-67"/>
     <use x="1004.595703" xlink:href="#DejaVuSans-32"/>
     <use x="1036.382812" xlink:href="#DejaVuSans-109"/>
     <use x="1133.794922" xlink:href="#DejaVuSans-105"/>
     <use x="1161.578125" xlink:href="#DejaVuSans-115"/>
     <use x="1213.677734" xlink:href="#DejaVuSans-109"/>
     <use x="1311.089844" xlink:href="#DejaVuSans-97"/>
     <use x="1372.369141" xlink:href="#DejaVuSans-116"/>
     <use x="1411.578125" xlink:href="#DejaVuSans-99"/>
     <use x="1466.558594" xlink:href="#DejaVuSans-104"/>
     <use x="1529.9375" xlink:href="#DejaVuSans-101"/>
     <use x="1591.460938" xlink:href="#DejaVuSans-115"/>
     <use x="1643.560547" xlink:href="#DejaVuSans-32"/>
     <use x="1675.347656" xlink:href="#DejaVuSans-111"/>
     <use x="1736.529297" xlink:href="#DejaVuSans-118"/>
     <use x="1795.708984" xlink:href="#DejaVuSans-101"/>
     <use x="1857.232422" xlink:href="#DejaVuSans-114"/>
     <use x="1898.345703" xlink:href="#DejaVuSans-32"/>
     <use x="1930.132812" xlink:href="#DejaVuSans-114"/>
     <use x="1968.996094" xlink:href="#DejaVuSans-101"/>
     <use x="2030.519531" xlink:href="#DejaVuSans-97"/>
     <use x="2091.798828" xlink:href="#DejaVuSans-100"/>
     <use x="2155.275391" xlink:href="#DejaVuSans-115"/>
    </g>
   </g>
   <g id="legend_1">
    <g id="line2d_20">
     <path d="M 47.800625 293.354194 
L 63.800625 293.354194 
" style="fill:none;stroke:#7cb5ec;stroke-linecap:square;"/>
    </g>
    <g id="line2d_21"/>
    <g id="text_19">
     <!-- RT_Gad2_1 -->
     <g transform="translate(70.200625 296.154194)scale(0.08 -0.08)">
      <defs>
       <path d="M 44.390625 34.1875 
Q 47.5625 33.109375 50.5625 29.59375 
Q 53.5625 26.078125 56.59375 19.921875 
L 66.609375 0 
L 56 0 
L 46.6875 18.703125 
Q 43.0625 26.03125 39.671875 28.421875 
Q 36.28125 30.8125 30.421875 30.8125 
L 19.671875 30.8125 
L 19.671875 0 
L 9.8125 0 
L 9.8125 72.90625 
L 32.078125 72.90625 
Q 44.578125 72.90625 50.734375 67.671875 
Q 56.890625 62.453125 56.890625 51.90625 
Q 56.890625 45.015625 53.6875 40.46875 
Q 50.484375 35.9375 44.390625 34.1875 
z
M 19.671875 64.796875 
L 19.671875 38.921875 
L 32.078125 38.921875 
Q 39.203125 38.921875 42.84375 42.21875 
Q 46.484375 45.515625 46.484375 51.90625 
Q 46.484375 58.296875 42.84375 61.546875 
Q 39.203125 64.796875 32.078125 64.796875 
z
" id="DejaVuSans-82"/>
       <path d="M 50.984375 -16.609375 
L 50.984375 -23.578125 
L -0.984375 -23.578125 
L -0.984375 -16.609375 
z
" id="DejaVuSans-95"/>
       <path d="M 59.515625 10.40625 
L 59.515625 29.984375 
L 43.40625 29.984375 
L 43.40625 38.09375 
L 69.28125 38.09375 
L 69.28125 6.78125 
Q 63.578125 2.734375 56.6875 0.65625 
Q 49.8125 -1.421875 42 -1.421875 
Q 24.90625 -1.421875 15.25 8.5625 
Q 5.609375 18.5625 5.609375 36.375 
Q 5.609375 54.25 15.25 64.234375 
Q 24.90625 74.21875 42 74.21875 
Q 49.125 74.21875 55.546875 72.453125 
Q 61.96875 70.703125 67.390625 67.28125 
L 67.390625 56.78125 
Q 61.921875 61.421875 55.765625 63.765625 
Q 49.609375 66.109375 42.828125 66.109375 
Q 29.4375 66.109375 22.71875 58.640625 
Q 16.015625 51.171875 16.015625 36.375 
Q 16.015625 21.625 22.71875 14.15625 
Q 29.4375 6.6875 42.828125 6.6875 
Q 48.046875 6.6875 52.140625 7.59375 
Q 56.25 8.5 59.515625 10.40625 
z
" id="DejaVuSans-71"/>
      </defs>
      <use xlink:href="#DejaVuSans-82"/>
      <use x="62.232422" xlink:href="#DejaVuSans-84"/>
      <use x="123.316406" xlink:href="#DejaVuSans-95"/>
      <use x="173.316406" xlink:href="#DejaVuSans-71"/>
      <use x="250.806641" xlink:href="#DejaVuSans-97"/>
      <use x="312.085938" xlink:href="#DejaVuSans-100"/>
      <use x="375.5625" xlink:href="#DejaVuSans-50"/>
      <use x="439.185547" xlink:href="#DejaVuSans-95"/>
      <use x="489.185547" xlink:href="#DejaVuSans-49"/>
     </g>
    </g>
    <g id="line2d_22">
     <path d="M 47.800625 305.319194 
L 63.800625 305.319194 
" style="fill:none;stroke:#434348;stroke-linecap:square;"/>
    </g>
    <g id="line2d_23"/>
    <g id="text_20">
     <!-- RT_Gad2_2 -->
     <g transform="translate(70.200625 308.119194)scale(0.08 -0.08)">
      <use xlink:href="#DejaVuSans-82"/>
      <use x="62.232422" xlink:href="#DejaVuSans-84"/>
      <use x="123.316406" xlink:href="#DejaVuSans-95"/>
      <use x="173.316406" xlink:href="#DejaVuSans-71"/>
      <use x="250.806641" xlink:href="#DejaVuSans-97"/>
      <use x="312.085938" xlink:href="#DejaVuSans-100"/>
      <use x="375.5625" xlink:href="#DejaVuSans-50"/>
      <use x="439.185547" xlink:href="#DejaVuSans-95"/>
      <use x="489.185547" xlink:href="#DejaVuSans-50"/>
     </g>
    </g>
    <g id="line2d_24">
     <path d="M 47.800625 317.284194 
L 63.800625 317.284194 
" style="fill:none;stroke:#90ed7d;stroke-linecap:square;"/>
    </g>
    <g id="line2d_25"/>
    <g id="text_21">
     <!-- RT_Gad2_3 -->
     <g transform="translate(70.200625 320.084194)scale(0.08 -0.08)">
      <defs>
       <path d="M 40.578125 39.3125 
Q 47.65625 37.796875 51.625 33 
Q 55.609375 28.21875 55.609375 21.1875 
Q 55.609375 10.40625 48.1875 4.484375 
Q 40.765625 -1.421875 27.09375 -1.421875 
Q 22.515625 -1.421875 17.65625 -0.515625 
Q 12.796875 0.390625 7.625 2.203125 
L 7.625 11.71875 
Q 11.71875 9.328125 16.59375 8.109375 
Q 21.484375 6.890625 26.8125 6.890625 
Q 36.078125 6.890625 40.9375 10.546875 
Q 45.796875 14.203125 45.796875 21.1875 
Q 45.796875 27.640625 41.28125 31.265625 
Q 36.765625 34.90625 28.71875 34.90625 
L 20.21875 34.90625 
L 20.21875 43.015625 
L 29.109375 43.015625 
Q 36.375 43.015625 40.234375 45.921875 
Q 44.09375 48.828125 44.09375 54.296875 
Q 44.09375 59.90625 40.109375 62.90625 
Q 36.140625 65.921875 28.71875 65.921875 
Q 24.65625 65.921875 20.015625 65.03125 
Q 15.375 64.15625 9.8125 62.3125 
L 9.8125 71.09375 
Q 15.4375 72.65625 20.34375 73.4375 
Q 25.25 74.21875 29.59375 74.21875 
Q 40.828125 74.21875 47.359375 69.109375 
Q 53.90625 64.015625 53.90625 55.328125 
Q 53.90625 49.265625 50.4375 45.09375 
Q 46.96875 40.921875 40.578125 39.3125 
z
" id="DejaVuSans-51"/>
      </defs>
      <use xlink:href="#DejaVuSans-82"/>
      <use x="62.232422" xlink:href="#DejaVuSans-84"/>
      <use x="123.316406" xlink:href="#DejaVuSans-95"/>
      <use x="173.316406" xlink:href="#DejaVuSans-71"/>
      <use x="250.806641" xlink:href="#DejaVuSans-97"/>
      <use x="312.085938" xlink:href="#DejaVuSans-100"/>
      <use x="375.5625" xlink:href="#DejaVuSans-50"/>
      <use x="439.185547" xlink:href="#DejaVuSans-95"/>
      <use x="489.185547" xlink:href="#DejaVuSans-51"/>
     </g>
    </g>
    <g id="line2d_26">
     <path d="M 260.252188 293.354194 
L 276.252188 293.354194 
" style="fill:none;stroke:#f7a35c;stroke-linecap:square;"/>
    </g>
    <g id="line2d_27"/>
    <g id="text_22">
     <!-- RT_vGluT2_1 -->
     <g transform="translate(282.652188 296.154194)scale(0.08 -0.08)">
      <use xlink:href="#DejaVuSans-82"/>
      <use x="62.232422" xlink:href="#DejaVuSans-84"/>
      <use x="123.316406" xlink:href="#DejaVuSans-95"/>
      <use x="173.316406" xlink:href="#DejaVuSans-118"/>
      <use x="232.496094" xlink:href="#DejaVuSans-71"/>
      <use x="309.986328" xlink:href="#DejaVuSans-108"/>
      <use x="337.769531" xlink:href="#DejaVuSans-117"/>
      <use x="401.148438" xlink:href="#DejaVuSans-84"/>
      <use x="462.232422" xlink:href="#DejaVuSans-50"/>
      <use x="525.855469" xlink:href="#DejaVuSans-95"/>
      <use x="575.855469" xlink:href="#DejaVuSans-49"/>
     </g>
    </g>
    <g id="line2d_28">
     <path d="M 260.252188 305.319194 
L 276.252188 305.319194 
" style="fill:none;stroke:#8085e9;stroke-linecap:square;"/>
    </g>
    <g id="line2d_29"/>
    <g id="text_23">
     <!-- RT_vGluT2_3 -->
     <g transform="translate(282.652188 308.119194)scale(0.08 -0.08)">
      <use xlink:href="#DejaVuSans-82"/>
      <use x="62.232422" xlink:href="#DejaVuSans-84"/>
      <use x="123.316406" xlink:href="#DejaVuSans-95"/>
      <use x="173.316406" xlink:href="#DejaVuSans-118"/>
      <use x="232.496094" xlink:href="#DejaVuSans-71"/>
      <use x="309.986328" xlink:href="#DejaVuSans-108"/>
      <use x="337.769531" xlink:href="#DejaVuSans-117"/>
      <use x="401.148438" xlink:href="#DejaVuSans-84"/>
      <use x="462.232422" xlink:href="#DejaVuSans-50"/>
      <use x="525.855469" xlink:href="#DejaVuSans-95"/>
      <use x="575.855469" xlink:href="#DejaVuSans-51"/>
     </g>
    </g>
    <g id="line2d_30">
     <path d="M 479.63625 293.354194 
L 495.63625 293.354194 
" style="fill:none;stroke:#f15c80;stroke-linecap:square;"/>
    </g>
    <g id="line2d_31"/>
    <g id="text_24">
     <!-- S1_Gad2_1 -->
     <g transform="translate(502.03625 296.154194)scale(0.08 -0.08)">
      <use xlink:href="#DejaVuSans-83"/>
      <use x="63.476562" xlink:href="#DejaVuSans-49"/>
      <use x="127.099609" xlink:href="#DejaVuSans-95"/>
      <use x="177.099609" xlink:href="#DejaVuSans-71"/>
      <use x="254.589844" xlink:href="#DejaVuSans-97"/>
      <use x="315.869141" xlink:href="#DejaVuSans-100"/>
      <use x="379.345703" xlink:href="#DejaVuSans-50"/>
      <use x="442.96875" xlink:href="#DejaVuSans-95"/>
      <use x="492.96875" xlink:href="#DejaVuSans-49"/>
     </g>
    </g>
    <g id="line2d_32">
     <path d="M 479.63625 305.319194 
L 495.63625 305.319194 
" style="fill:none;stroke:#e4d354;stroke-linecap:square;"/>
    </g>
    <g id="line2d_33"/>
    <g id="text_25">
     <!-- S1_Gad2_2 -->
     <g transform="translate(502.03625 308.119194)scale(0.08 -0.08)">
      <use xlink:href="#DejaVuSans-83"/>
      <use x="63.476562" xlink:href="#DejaVuSans-49"/>
      <use x="127.099609" xlink:href="#DejaVuSans-95"/>
      <use x="177.099609" xlink:href="#DejaVuSans-71"/>
      <use x="254.589844" xlink:href="#DejaVuSans-97"/>
      <use x="315.869141" xlink:href="#DejaVuSans-100"/>
      <use x="379.345703" xlink:href="#DejaVuSans-50"/>
      <use x="442.96875" xlink:href="#DejaVuSans-95"/>
      <use x="492.96875" xlink:href="#DejaVuSans-50"/>
     </g>
    </g>
    <g id="line2d_34">
     <path d="M 692.391563 293.354194 
L 708.391563 293.354194 
" style="fill:none;stroke:#2b908f;stroke-linecap:square;"/>
    </g>
    <g id="line2d_35"/>
    <g id="text_26">
     <!-- S1_Gad2_3 -->
     <g transform="translate(714.791563 296.154194)scale(0.08 -0.08)">
      <use xlink:href="#DejaVuSans-83"/>
      <use x="63.476562" xlink:href="#DejaVuSans-49"/>
      <use x="127.099609" xlink:href="#DejaVuSans-95"/>
      <use x="177.099609" xlink:href="#DejaVuSans-71"/>
      <use x="254.589844" xlink:href="#DejaVuSans-97"/>
      <use x="315.869141" xlink:href="#DejaVuSans-100"/>
      <use x="379.345703" xlink:href="#DejaVuSans-50"/>
      <use x="442.96875" xlink:href="#DejaVuSans-95"/>
      <use x="492.96875" xlink:href="#DejaVuSans-51"/>
     </g>
    </g>
    <g id="line2d_36">
     <path d="M 692.391563 305.319194 
L 708.391563 305.319194 
" style="fill:none;stroke:#f45b5b;stroke-linecap:square;"/>
    </g>
    <g id="line2d_37"/>
    <g id="text_27">
     <!-- S1_vGluT2_1 -->
     <g transform="translate(714.791563 308.119194)scale(0.08 -0.08)">
      <use xlink:href="#DejaVuSans-83"/>
      <use x="63.476562" xlink:href="#DejaVuSans-49"/>
      <use x="127.099609" xlink:href="#DejaVuSans-95"/>
      <use x="177.099609" xlink:href="#DejaVuSans-118"/>
      <use x="236.279297" xlink:href="#DejaVuSans-71"/>
      <use x="313.769531" xlink:href="#DejaVuSans-108"/>
      <use x="341.552734" xlink:href="#DejaVuSans-117"/>
      <use x="404.931641" xlink:href="#DejaVuSans-84"/>
      <use x="466.015625" xlink:href="#DejaVuSans-50"/>
      <use x="529.638672" xlink:href="#DejaVuSans-95"/>
      <use x="579.638672" xlink:href="#DejaVuSans-49"/>
     </g>
    </g>
    <g id="line2d_38">
     <path d="M 912.079375 293.354194 
L 928.079375 293.354194 
" style="fill:none;stroke:#91e8e1;stroke-linecap:square;"/>
    </g>
    <g id="line2d_39"/>
    <g id="text_28">
     <!-- S1_vGluT2_2 -->
     <g transform="translate(934.479375 296.154194)scale(0.08 -0.08)">
      <use xlink:href="#DejaVuSans-83"/>
      <use x="63.476562" xlink:href="#DejaVuSans-49"/>
      <use x="127.099609" xlink:href="#DejaVuSans-95"/>
      <use x="177.099609" xlink:href="#DejaVuSans-118"/>
      <use x="236.279297" xlink:href="#DejaVuSans-71"/>
      <use x="313.769531" xlink:href="#DejaVuSans-108"/>
      <use x="341.552734" xlink:href="#DejaVuSans-117"/>
      <use x="404.931641" xlink:href="#DejaVuSans-84"/>
      <use x="466.015625" xlink:href="#DejaVuSans-50"/>
      <use x="529.638672" xlink:href="#DejaVuSans-95"/>
      <use x="579.638672" xlink:href="#DejaVuSans-50"/>
     </g>
    </g>
    <g id="line2d_40">
     <path d="M 912.079375 305.319194 
L 928.079375 305.319194 
" style="fill:none;stroke:#7cb5ec;stroke-linecap:square;"/>
    </g>
    <g id="line2d_41"/>
    <g id="text_29">
     <!-- S1_vGluT2_3 -->
     <g transform="translate(934.479375 308.119194)scale(0.08 -0.08)">
      <use xlink:href="#DejaVuSans-83"/>
      <use x="63.476562" xlink:href="#DejaVuSans-49"/>
      <use x="127.099609" xlink:href="#DejaVuSans-95"/>
      <use x="177.099609" xlink:href="#DejaVuSans-118"/>
      <use x="236.279297" xlink:href="#DejaVuSans-71"/>
      <use x="313.769531" xlink:href="#DejaVuSans-108"/>
      <use x="341.552734" xlink:href="#DejaVuSans-117"/>
      <use x="404.931641" xlink:href="#DejaVuSans-84"/>
      <use x="466.015625" xlink:href="#DejaVuSans-50"/>
      <use x="529.638672" xlink:href="#DejaVuSans-95"/>
      <use x="579.638672" xlink:href="#DejaVuSans-51"/>
     </g>
    </g>
   </g>
  </g>
 </g>
 <defs>
  <clipPath id="p6d5b5b332d">
   <rect height="243.9472" width="952.54" x="40.600625" y="31.55486"/>
  </clipPath>
 </defs>
</svg>
